<?xml version="1.0" encoding="UTF-8" standalone="no"?>
<!DOCTYPE svg PUBLIC "-//W3C//DTD SVG 1.1//EN"
 "http://www.w3.org/Graphics/SVG/1.1/DTD/svg11.dtd">
<!-- Generated by graphviz version 2.40.1 (20161225.0304)
 -->
<!-- Title: oneDegreeRelationshipsDiagram Pages: 1 -->
<svg width="550pt" height="249pt"
 viewBox="0.00 0.00 550.00 248.70" xmlns="http://www.w3.org/2000/svg" xmlns:xlink="http://www.w3.org/1999/xlink">
<g id="graph0" class="graph" transform="scale(1 1) rotate(0) translate(4 244.7)">
<title>oneDegreeRelationshipsDiagram</title>
<polygon fill="#ffffff" stroke="transparent" points="-4,4 -4,-244.7 546,-244.7 546,4 -4,4"/>
<text text-anchor="middle" x="72.4936" y="-7.3" font-family="Helvetica,sans-Serif" font-size="11.00" fill="#000000">Generated by SchemaSpy</text>
<!-- ACTIVITY_TYPES -->
<g id="node1" class="node">
<title>ACTIVITY_TYPES</title>
<g id="a_node1"><a xlink:href="../../tables/ACTIVITY_TYPES.html" xlink:title="ACTIVITY_TYPES" target="_top">
<polygon fill="#ffffff" stroke="transparent" points="373,-131.7 373,-236.7 534,-236.7 534,-131.7 373,-131.7"/>
<polygon fill="#f5f5f5" stroke="transparent" points="373.5,-213.2 373.5,-236.2 534.5,-236.2 534.5,-213.2 373.5,-213.2"/>
<polygon fill="none" stroke="#000000" points="373.5,-213.2 373.5,-236.2 534.5,-236.2 534.5,-213.2 373.5,-213.2"/>
<text text-anchor="start" x="378.5" y="-222.3" font-family="Helvetica,sans-Serif" font-weight="bold" font-size="11.00" fill="#000000">ACTIVITY_TYPES</text>
<text text-anchor="start" x="499.5437" y="-221.3" font-family="Helvetica,sans-Serif" font-size="11.00" fill="#000000">[table]</text>
<polygon fill="none" stroke="#000000" points="373.5,-191.2 373.5,-213.2 534.5,-213.2 534.5,-191.2 373.5,-191.2"/>
<image xlink:href="../../images/primaryKeys.png" width="11px" height="12px" preserveAspectRatio="xMinYMin meet" x="378.5" y="-208.2"/>
<text text-anchor="start" x="393.5" y="-198.3" font-family="Helvetica,sans-Serif" font-size="11.00" fill="#000000">ID</text>
<polygon fill="none" stroke="#000000" points="373.5,-169.2 373.5,-191.2 534.5,-191.2 534.5,-169.2 373.5,-169.2"/>
<image xlink:href="../../images/foreignKeys.png" width="11px" height="12px" preserveAspectRatio="xMinYMin meet" x="378.5" y="-186.2"/>
<text text-anchor="start" x="393.5" y="-176.3" font-family="Helvetica,sans-Serif" font-size="11.00" fill="#000000">ACTIVITY_STATUS_ID</text>
<polygon fill="none" stroke="#000000" points="373.5,-150.2 373.5,-169.2 534.5,-169.2 534.5,-150.2 373.5,-150.2"/>
<text text-anchor="start" x="376.5" y="-156.3" font-family="Helvetica,sans-Serif" font-size="11.00" fill="#000000">...</text>
<polygon fill="#ffffff" stroke="transparent" points="373.5,-131.2 373.5,-150.2 431.5,-150.2 431.5,-131.2 373.5,-131.2"/>
<polygon fill="none" stroke="#000000" points="373.5,-131.2 373.5,-150.2 431.5,-150.2 431.5,-131.2 373.5,-131.2"/>
<text text-anchor="start" x="376.5" y="-137.3" font-family="Helvetica,sans-Serif" font-size="11.00" fill="#000000">&lt; 1</text>
<polygon fill="#ffffff" stroke="transparent" points="431.5,-131.2 431.5,-150.2 494.5,-150.2 494.5,-131.2 431.5,-131.2"/>
<polygon fill="none" stroke="#000000" points="431.5,-131.2 431.5,-150.2 494.5,-150.2 494.5,-131.2 431.5,-131.2"/>
<text text-anchor="start" x="452.9956" y="-137.3" font-family="Helvetica,sans-Serif" font-size="11.00" fill="#000000">69 rows</text>
<polygon fill="#ffffff" stroke="transparent" points="494.5,-131.2 494.5,-150.2 534.5,-150.2 534.5,-131.2 494.5,-131.2"/>
<polygon fill="none" stroke="#000000" points="494.5,-131.2 494.5,-150.2 534.5,-150.2 534.5,-131.2 494.5,-131.2"/>
<text text-anchor="start" x="515.9053" y="-137.3" font-family="Helvetica,sans-Serif" font-size="11.00" fill="#000000">3 &gt;</text>
</a>
</g>
</g>
<!-- ACTIVITY_STATUS -->
<g id="node2" class="node">
<title>ACTIVITY_STATUS</title>
<g id="a_node2"><a xlink:href="../../tables/ACTIVITY_STATUS.html" xlink:title="ACTIVITY_STATUS" target="_top">
<polygon fill="#ffffff" stroke="transparent" points="8,-38.2 8,-216.2 324,-216.2 324,-38.2 8,-38.2"/>
<polygon fill="#f5f5f5" stroke="transparent" points="10,-191.2 10,-214.2 322,-214.2 322,-191.2 10,-191.2"/>
<polygon fill="none" stroke="#000000" points="10,-191.2 10,-214.2 322,-214.2 322,-191.2 10,-191.2"/>
<text text-anchor="start" x="15" y="-200.3" font-family="Helvetica,sans-Serif" font-weight="bold" font-size="11.00" fill="#000000">ACTIVITY_STATUS</text>
<text text-anchor="start" x="287.0437" y="-199.3" font-family="Helvetica,sans-Serif" font-size="11.00" fill="#000000">[table]</text>
<polygon fill="none" stroke="#000000" points="10,-169.2 10,-191.2 151,-191.2 151,-169.2 10,-169.2"/>
<image xlink:href="../../images/primaryKeys.png" width="11px" height="12px" preserveAspectRatio="xMinYMin meet" x="15" y="-186.2"/>
<text text-anchor="start" x="30" y="-176.3" font-family="Helvetica,sans-Serif" font-size="11.00" fill="#000000">ID</text>
<polygon fill="none" stroke="#000000" points="151,-169.2 151,-191.2 322,-191.2 322,-169.2 151,-169.2"/>
<text text-anchor="start" x="154" y="-176.9" font-family="Helvetica,sans-Serif" font-size="11.00" fill="#000000">number[19]</text>
<polygon fill="none" stroke="#000000" points="10,-147.2 10,-169.2 151,-169.2 151,-147.2 10,-147.2"/>
<text text-anchor="start" x="30" y="-154.3" font-family="Helvetica,sans-Serif" font-size="11.00" fill="#000000">CREATED_AT</text>
<polygon fill="none" stroke="#000000" points="151,-147.2 151,-169.2 322,-169.2 322,-147.2 151,-147.2"/>
<text text-anchor="start" x="153.9896" y="-154.9" font-family="Helvetica,sans-Serif" font-size="11.00" fill="#000000">timestamp(6) with time zone[13,6]</text>
<polygon fill="none" stroke="#000000" points="10,-125.2 10,-147.2 151,-147.2 151,-125.2 10,-125.2"/>
<text text-anchor="start" x="30" y="-132.3" font-family="Helvetica,sans-Serif" font-size="11.00" fill="#000000">CREATED_BY</text>
<polygon fill="none" stroke="#000000" points="151,-125.2 151,-147.2 322,-147.2 322,-125.2 151,-125.2"/>
<text text-anchor="start" x="154" y="-132.9" font-family="Helvetica,sans-Serif" font-size="11.00" fill="#000000">number[19]</text>
<polygon fill="none" stroke="#000000" points="10,-103.2 10,-125.2 151,-125.2 151,-103.2 10,-103.2"/>
<text text-anchor="start" x="30" y="-110.3" font-family="Helvetica,sans-Serif" font-size="11.00" fill="#000000">UPDATED_AT</text>
<polygon fill="none" stroke="#000000" points="151,-103.2 151,-125.2 322,-125.2 322,-103.2 151,-103.2"/>
<text text-anchor="start" x="153.9896" y="-110.9" font-family="Helvetica,sans-Serif" font-size="11.00" fill="#000000">timestamp(6) with time zone[13,6]</text>
<polygon fill="none" stroke="#000000" points="10,-81.2 10,-103.2 151,-103.2 151,-81.2 10,-81.2"/>
<text text-anchor="start" x="30" y="-88.3" font-family="Helvetica,sans-Serif" font-size="11.00" fill="#000000">UPDATED_BY</text>
<polygon fill="none" stroke="#000000" points="151,-81.2 151,-103.2 322,-103.2 322,-81.2 151,-81.2"/>
<text text-anchor="start" x="154" y="-88.9" font-family="Helvetica,sans-Serif" font-size="11.00" fill="#000000">number[19]</text>
<polygon fill="none" stroke="#000000" points="10,-59.2 10,-81.2 151,-81.2 151,-59.2 10,-59.2"/>
<text text-anchor="start" x="30" y="-66.3" font-family="Helvetica,sans-Serif" font-size="11.00" fill="#000000">TITLE</text>
<polygon fill="none" stroke="#000000" points="151,-59.2 151,-81.2 322,-81.2 322,-59.2 151,-59.2"/>
<text text-anchor="start" x="154" y="-66.9" font-family="Helvetica,sans-Serif" font-size="11.00" fill="#000000">varchar2[255]</text>
<polygon fill="#ffffff" stroke="transparent" points="10,-40.2 10,-59.2 69,-59.2 69,-40.2 10,-40.2"/>
<polygon fill="none" stroke="#000000" points="10,-40.2 10,-59.2 69,-59.2 69,-40.2 10,-40.2"/>
<text text-anchor="start" x="13" y="-46.3" font-family="Helvetica,sans-Serif" font-size="11.00" fill="#000000">&lt; 0</text>
<polygon fill="#ffffff" stroke="transparent" points="69,-40.2 69,-59.2 151,-59.2 151,-40.2 69,-40.2"/>
<polygon fill="none" stroke="#000000" points="69,-40.2 69,-59.2 151,-59.2 151,-40.2 69,-40.2"/>
<text text-anchor="start" x="109.4956" y="-46.3" font-family="Helvetica,sans-Serif" font-size="11.00" fill="#000000">19 rows</text>
<polygon fill="#ffffff" stroke="transparent" points="151,-40.2 151,-59.2 322,-59.2 322,-40.2 151,-40.2"/>
<polygon fill="none" stroke="#000000" points="151,-40.2 151,-59.2 322,-59.2 322,-40.2 151,-40.2"/>
<text text-anchor="start" x="303.4053" y="-46.3" font-family="Helvetica,sans-Serif" font-size="11.00" fill="#000000">1 &gt;</text>
<polygon fill="none" stroke="#000000" stroke-width="2" points="9,-39.2 9,-215.2 323,-215.2 323,-39.2 9,-39.2"/>
</a>
</g>
</g>
<!-- ACTIVITY_TYPES&#45;&gt;ACTIVITY_STATUS -->
<g id="edge1" class="edge">
<title>ACTIVITY_TYPES:w&#45;&gt;ACTIVITY_STATUS:e</title>
<path fill="none" stroke="#000000" d="M359.0156,-180.2C346.6771,-180.2 339.1667,-180.2 322,-180.2"/>
<polygon fill="#000000" stroke="#000000" points="365.5,-180.2001 373.5,-183.8 369.5,-180.2 373.5,-180.2 373.5,-180.2 373.5,-180.2 369.5,-180.2 373.5,-176.6 365.5,-180.2001 365.5,-180.2001"/>
<ellipse fill="none" stroke="#000000" cx="362.3" cy="-180.2001" rx="3.2" ry="3.2"/>
</g>
</g>
</svg>
