<?xml version="1.0" encoding="UTF-8" standalone="no"?>
<!DOCTYPE svg PUBLIC "-//W3C//DTD SVG 1.1//EN"
 "http://www.w3.org/Graphics/SVG/1.1/DTD/svg11.dtd">
<!-- Generated by graphviz version 2.40.1 (20161225.0304)
 -->
<!-- Title: oneDegreeRelationshipsDiagram Pages: 1 -->
<svg width="831pt" height="451pt"
 viewBox="0.00 0.00 831.00 451.20" xmlns="http://www.w3.org/2000/svg" xmlns:xlink="http://www.w3.org/1999/xlink">
<g id="graph0" class="graph" transform="scale(1 1) rotate(0) translate(4 447.2)">
<title>oneDegreeRelationshipsDiagram</title>
<polygon fill="#ffffff" stroke="transparent" points="-4,4 -4,-447.2 827,-447.2 827,4 -4,4"/>
<text text-anchor="middle" x="72.4936" y="-7.3" font-family="Helvetica,sans-Serif" font-size="11.00" fill="#000000">Generated by SchemaSpy</text>
<!-- ACTIVITIES -->
<g id="node1" class="node">
<title>ACTIVITIES</title>
<g id="a_node1"><a xlink:href="../../tables/ACTIVITIES.html" xlink:title="ACTIVITIES" target="_top">
<polygon fill="#ffffff" stroke="transparent" points="628.5,-334.2 628.5,-439.2 770.5,-439.2 770.5,-334.2 628.5,-334.2"/>
<polygon fill="#f5f5f5" stroke="transparent" points="628.5,-415.7 628.5,-438.7 770.5,-438.7 770.5,-415.7 628.5,-415.7"/>
<polygon fill="none" stroke="#000000" points="628.5,-415.7 628.5,-438.7 770.5,-438.7 770.5,-415.7 628.5,-415.7"/>
<text text-anchor="start" x="633.5" y="-424.8" font-family="Helvetica,sans-Serif" font-weight="bold" font-size="11.00" fill="#000000">ACTIVITIES</text>
<text text-anchor="start" x="735.5437" y="-423.8" font-family="Helvetica,sans-Serif" font-size="11.00" fill="#000000">[table]</text>
<polygon fill="none" stroke="#000000" points="628.5,-393.7 628.5,-415.7 770.5,-415.7 770.5,-393.7 628.5,-393.7"/>
<image xlink:href="../../images/primaryKeys.png" width="11px" height="12px" preserveAspectRatio="xMinYMin meet" x="633.5" y="-410.7"/>
<text text-anchor="start" x="648.5" y="-400.8" font-family="Helvetica,sans-Serif" font-size="11.00" fill="#000000">ID</text>
<polygon fill="none" stroke="#000000" points="628.5,-371.7 628.5,-393.7 770.5,-393.7 770.5,-371.7 628.5,-371.7"/>
<image xlink:href="../../images/foreignKeys.png" width="11px" height="12px" preserveAspectRatio="xMinYMin meet" x="633.5" y="-388.7"/>
<text text-anchor="start" x="648.5" y="-378.8" font-family="Helvetica,sans-Serif" font-size="11.00" fill="#000000">ACTIVITY_TYPE_ID</text>
<polygon fill="none" stroke="#000000" points="628.5,-352.7 628.5,-371.7 770.5,-371.7 770.5,-352.7 628.5,-352.7"/>
<text text-anchor="start" x="631.5" y="-358.8" font-family="Helvetica,sans-Serif" font-size="11.00" fill="#000000">...</text>
<polygon fill="#ffffff" stroke="transparent" points="628.5,-333.7 628.5,-352.7 674.5,-352.7 674.5,-333.7 628.5,-333.7"/>
<polygon fill="none" stroke="#000000" points="628.5,-333.7 628.5,-352.7 674.5,-352.7 674.5,-333.7 628.5,-333.7"/>
<text text-anchor="start" x="631.5" y="-339.8" font-family="Helvetica,sans-Serif" font-size="11.00" fill="#000000">&lt; 1</text>
<polygon fill="#ffffff" stroke="transparent" points="674.5,-333.7 674.5,-352.7 745.5,-352.7 745.5,-333.7 674.5,-333.7"/>
<polygon fill="none" stroke="#000000" points="674.5,-333.7 674.5,-352.7 745.5,-352.7 745.5,-333.7 674.5,-333.7"/>
<text text-anchor="start" x="688.7089" y="-339.8" font-family="Helvetica,sans-Serif" font-size="11.00" fill="#000000">1,600 rows</text>
<polygon fill="#ffffff" stroke="transparent" points="745.5,-333.7 745.5,-352.7 770.5,-352.7 770.5,-333.7 745.5,-333.7"/>
<polygon fill="none" stroke="#000000" points="745.5,-333.7 745.5,-352.7 770.5,-352.7 770.5,-333.7 745.5,-333.7"/>
<text text-anchor="start" x="761.3862" y="-339.8" font-family="Helvetica,sans-Serif" font-size="11.00" fill="#000000"> &#160;</text>
</a>
</g>
</g>
<!-- ACTIVITY_TYPES -->
<g id="node2" class="node">
<title>ACTIVITY_TYPES</title>
<g id="a_node2"><a xlink:href="../../tables/ACTIVITY_TYPES.html" xlink:title="ACTIVITY_TYPES" target="_top">
<polygon fill="#ffffff" stroke="transparent" points="199,-92.7 199,-292.7 535,-292.7 535,-92.7 199,-92.7"/>
<polygon fill="#f5f5f5" stroke="transparent" points="201,-267.7 201,-290.7 533,-290.7 533,-267.7 201,-267.7"/>
<polygon fill="none" stroke="#000000" points="201,-267.7 201,-290.7 533,-290.7 533,-267.7 201,-267.7"/>
<text text-anchor="start" x="206" y="-276.8" font-family="Helvetica,sans-Serif" font-weight="bold" font-size="11.00" fill="#000000">ACTIVITY_TYPES</text>
<text text-anchor="start" x="498.0437" y="-275.8" font-family="Helvetica,sans-Serif" font-size="11.00" fill="#000000">[table]</text>
<polygon fill="none" stroke="#000000" points="201,-245.7 201,-267.7 362,-267.7 362,-245.7 201,-245.7"/>
<image xlink:href="../../images/primaryKeys.png" width="11px" height="12px" preserveAspectRatio="xMinYMin meet" x="206" y="-262.7"/>
<text text-anchor="start" x="221" y="-252.8" font-family="Helvetica,sans-Serif" font-size="11.00" fill="#000000">ID</text>
<polygon fill="none" stroke="#000000" points="362,-245.7 362,-267.7 533,-267.7 533,-245.7 362,-245.7"/>
<text text-anchor="start" x="365" y="-253.4" font-family="Helvetica,sans-Serif" font-size="11.00" fill="#000000">number[19]</text>
<polygon fill="none" stroke="#000000" points="201,-223.7 201,-245.7 362,-245.7 362,-223.7 201,-223.7"/>
<text text-anchor="start" x="221" y="-230.8" font-family="Helvetica,sans-Serif" font-size="11.00" fill="#000000">CREATED_AT</text>
<polygon fill="none" stroke="#000000" points="362,-223.7 362,-245.7 533,-245.7 533,-223.7 362,-223.7"/>
<text text-anchor="start" x="364.9896" y="-231.4" font-family="Helvetica,sans-Serif" font-size="11.00" fill="#000000">timestamp(6) with time zone[13,6]</text>
<polygon fill="none" stroke="#000000" points="201,-201.7 201,-223.7 362,-223.7 362,-201.7 201,-201.7"/>
<text text-anchor="start" x="221" y="-208.8" font-family="Helvetica,sans-Serif" font-size="11.00" fill="#000000">CREATED_BY</text>
<polygon fill="none" stroke="#000000" points="362,-201.7 362,-223.7 533,-223.7 533,-201.7 362,-201.7"/>
<text text-anchor="start" x="365" y="-209.4" font-family="Helvetica,sans-Serif" font-size="11.00" fill="#000000">number[19]</text>
<polygon fill="none" stroke="#000000" points="201,-179.7 201,-201.7 362,-201.7 362,-179.7 201,-179.7"/>
<text text-anchor="start" x="221" y="-186.8" font-family="Helvetica,sans-Serif" font-size="11.00" fill="#000000">UPDATED_AT</text>
<polygon fill="none" stroke="#000000" points="362,-179.7 362,-201.7 533,-201.7 533,-179.7 362,-179.7"/>
<text text-anchor="start" x="364.9896" y="-187.4" font-family="Helvetica,sans-Serif" font-size="11.00" fill="#000000">timestamp(6) with time zone[13,6]</text>
<polygon fill="none" stroke="#000000" points="201,-157.7 201,-179.7 362,-179.7 362,-157.7 201,-157.7"/>
<text text-anchor="start" x="221" y="-164.8" font-family="Helvetica,sans-Serif" font-size="11.00" fill="#000000">UPDATED_BY</text>
<polygon fill="none" stroke="#000000" points="362,-157.7 362,-179.7 533,-179.7 533,-157.7 362,-157.7"/>
<text text-anchor="start" x="365" y="-165.4" font-family="Helvetica,sans-Serif" font-size="11.00" fill="#000000">number[19]</text>
<polygon fill="none" stroke="#000000" points="201,-135.7 201,-157.7 362,-157.7 362,-135.7 201,-135.7"/>
<image xlink:href="../../images/foreignKeys.png" width="11px" height="12px" preserveAspectRatio="xMinYMin meet" x="206" y="-152.7"/>
<text text-anchor="start" x="221" y="-142.8" font-family="Helvetica,sans-Serif" font-size="11.00" fill="#000000">ACTIVITY_STATUS_ID</text>
<polygon fill="none" stroke="#000000" points="362,-135.7 362,-157.7 533,-157.7 533,-135.7 362,-135.7"/>
<text text-anchor="start" x="365" y="-143.4" font-family="Helvetica,sans-Serif" font-size="11.00" fill="#000000">number[19]</text>
<polygon fill="none" stroke="#000000" points="201,-113.7 201,-135.7 362,-135.7 362,-113.7 201,-113.7"/>
<text text-anchor="start" x="221" y="-120.8" font-family="Helvetica,sans-Serif" font-size="11.00" fill="#000000">TITLE</text>
<polygon fill="none" stroke="#000000" points="362,-113.7 362,-135.7 533,-135.7 533,-113.7 362,-113.7"/>
<text text-anchor="start" x="365" y="-121.4" font-family="Helvetica,sans-Serif" font-size="11.00" fill="#000000">varchar2[255]</text>
<polygon fill="#ffffff" stroke="transparent" points="201,-94.7 201,-113.7 270,-113.7 270,-94.7 201,-94.7"/>
<polygon fill="none" stroke="#000000" points="201,-94.7 201,-113.7 270,-113.7 270,-94.7 201,-94.7"/>
<text text-anchor="start" x="204" y="-100.8" font-family="Helvetica,sans-Serif" font-size="11.00" fill="#000000">&lt; 1</text>
<polygon fill="#ffffff" stroke="transparent" points="270,-94.7 270,-113.7 362,-113.7 362,-94.7 270,-94.7"/>
<polygon fill="none" stroke="#000000" points="270,-94.7 270,-113.7 362,-113.7 362,-94.7 270,-94.7"/>
<text text-anchor="start" x="320.4956" y="-100.8" font-family="Helvetica,sans-Serif" font-size="11.00" fill="#000000">69 rows</text>
<polygon fill="#ffffff" stroke="transparent" points="362,-94.7 362,-113.7 533,-113.7 533,-94.7 362,-94.7"/>
<polygon fill="none" stroke="#000000" points="362,-94.7 362,-113.7 533,-113.7 533,-94.7 362,-94.7"/>
<text text-anchor="start" x="514.4053" y="-100.8" font-family="Helvetica,sans-Serif" font-size="11.00" fill="#000000">3 &gt;</text>
<polygon fill="none" stroke="#000000" stroke-width="2" points="200,-93.7 200,-291.7 534,-291.7 534,-93.7 200,-93.7"/>
</a>
</g>
</g>
<!-- ACTIVITIES&#45;&gt;ACTIVITY_TYPES -->
<g id="edge1" class="edge">
<title>ACTIVITIES:w&#45;&gt;ACTIVITY_TYPES:e</title>
<path fill="none" stroke="#000000" d="M614.0837,-380.3447C593.9766,-372.5998 593.731,-347.0785 576,-323.7 554.6184,-295.5082 568.3829,-256.7 533,-256.7"/>
<polygon fill="#000000" stroke="#000000" points="620.6047,-381.41 627.9195,-386.2529 624.5523,-382.055 628.5,-382.7 628.5,-382.7 628.5,-382.7 624.5523,-382.055 629.0805,-379.1471 620.6047,-381.41 620.6047,-381.41"/>
<ellipse fill="none" stroke="#000000" cx="617.4466" cy="-380.894" rx="3.2" ry="3.2"/>
</g>
<!-- ACTIVITY_STATUS -->
<g id="node3" class="node">
<title>ACTIVITY_STATUS</title>
<g id="a_node3"><a xlink:href="../../tables/ACTIVITY_STATUS.html" xlink:title="ACTIVITY_STATUS" target="_top">
<polygon fill="#ffffff" stroke="transparent" points="8,-98.2 8,-181.2 150,-181.2 150,-98.2 8,-98.2"/>
<polygon fill="#f5f5f5" stroke="transparent" points="8,-157.7 8,-180.7 150,-180.7 150,-157.7 8,-157.7"/>
<polygon fill="none" stroke="#000000" points="8,-157.7 8,-180.7 150,-180.7 150,-157.7 8,-157.7"/>
<text text-anchor="start" x="12.9972" y="-166.8" font-family="Helvetica,sans-Serif" font-weight="bold" font-size="11.00" fill="#000000">ACTIVITY_STATUS</text>
<text text-anchor="start" x="115.5219" y="-165.8" font-family="Helvetica,sans-Serif" font-size="11.00" fill="#000000">[table]</text>
<polygon fill="none" stroke="#000000" points="8,-135.7 8,-157.7 150,-157.7 150,-135.7 8,-135.7"/>
<image xlink:href="../../images/primaryKeys.png" width="11px" height="12px" preserveAspectRatio="xMinYMin meet" x="13" y="-152.7"/>
<text text-anchor="start" x="29" y="-142.8" font-family="Helvetica,sans-Serif" font-size="11.00" fill="#000000">ID</text>
<polygon fill="none" stroke="#000000" points="8,-116.7 8,-135.7 150,-135.7 150,-116.7 8,-116.7"/>
<text text-anchor="start" x="11" y="-122.8" font-family="Helvetica,sans-Serif" font-size="11.00" fill="#000000">...</text>
<polygon fill="#ffffff" stroke="transparent" points="8,-97.7 8,-116.7 52,-116.7 52,-97.7 8,-97.7"/>
<polygon fill="none" stroke="#000000" points="8,-97.7 8,-116.7 52,-116.7 52,-97.7 8,-97.7"/>
<text text-anchor="start" x="11" y="-103.8" font-family="Helvetica,sans-Serif" font-size="11.00" fill="#000000"> &#160;</text>
<polygon fill="#ffffff" stroke="transparent" points="52,-97.7 52,-116.7 112,-116.7 112,-97.7 52,-97.7"/>
<polygon fill="none" stroke="#000000" points="52,-97.7 52,-116.7 112,-116.7 112,-97.7 52,-97.7"/>
<text text-anchor="start" x="70.4956" y="-103.8" font-family="Helvetica,sans-Serif" font-size="11.00" fill="#000000">19 rows</text>
<polygon fill="#ffffff" stroke="transparent" points="112,-97.7 112,-116.7 150,-116.7 150,-97.7 112,-97.7"/>
<polygon fill="none" stroke="#000000" points="112,-97.7 112,-116.7 150,-116.7 150,-97.7 112,-97.7"/>
<text text-anchor="start" x="131.4053" y="-103.8" font-family="Helvetica,sans-Serif" font-size="11.00" fill="#000000">1 &gt;</text>
</a>
</g>
</g>
<!-- ACTIVITY_TYPES&#45;&gt;ACTIVITY_STATUS -->
<g id="edge2" class="edge">
<title>ACTIVITY_TYPES:w&#45;&gt;ACTIVITY_STATUS:e</title>
<path fill="none" stroke="#000000" d="M186.276,-146.7C174.2815,-146.7 166.8229,-146.7 150,-146.7"/>
<polygon fill="#000000" stroke="#000000" points="193,-146.7001 201,-150.3 197,-146.7 201,-146.7 201,-146.7 201,-146.7 197,-146.7 201,-143.1 193,-146.7001 193,-146.7001"/>
<ellipse fill="none" stroke="#000000" cx="189.8" cy="-146.7001" rx="3.2" ry="3.2"/>
</g>
<!-- NOTIFICATION_SETTINGS -->
<g id="node4" class="node">
<title>NOTIFICATION_SETTINGS</title>
<g id="a_node4"><a xlink:href="../../tables/NOTIFICATION_SETTINGS.html" xlink:title="NOTIFICATION_SETTINGS" target="_top">
<polygon fill="#ffffff" stroke="transparent" points="605,-186.2 605,-313.2 794,-313.2 794,-186.2 605,-186.2"/>
<polygon fill="#f5f5f5" stroke="transparent" points="605.5,-289.7 605.5,-312.7 794.5,-312.7 794.5,-289.7 605.5,-289.7"/>
<polygon fill="none" stroke="#000000" points="605.5,-289.7 605.5,-312.7 794.5,-312.7 794.5,-289.7 605.5,-289.7"/>
<text text-anchor="start" x="610.5" y="-298.8" font-family="Helvetica,sans-Serif" font-weight="bold" font-size="11.00" fill="#000000">NOTIFICATION_SETTINGS</text>
<text text-anchor="start" x="759.5437" y="-297.8" font-family="Helvetica,sans-Serif" font-size="11.00" fill="#000000">[table]</text>
<polygon fill="none" stroke="#000000" points="605.5,-267.7 605.5,-289.7 794.5,-289.7 794.5,-267.7 605.5,-267.7"/>
<image xlink:href="../../images/primaryKeys.png" width="11px" height="12px" preserveAspectRatio="xMinYMin meet" x="610.5" y="-284.7"/>
<text text-anchor="start" x="625.5" y="-274.8" font-family="Helvetica,sans-Serif" font-size="11.00" fill="#000000">ID</text>
<polygon fill="none" stroke="#000000" points="605.5,-245.7 605.5,-267.7 794.5,-267.7 794.5,-245.7 605.5,-245.7"/>
<image xlink:href="../../images/foreignKeys.png" width="11px" height="12px" preserveAspectRatio="xMinYMin meet" x="610.5" y="-262.7"/>
<text text-anchor="start" x="625.5" y="-252.8" font-family="Helvetica,sans-Serif" font-size="11.00" fill="#000000">ACTIVITY_TYPE_ID</text>
<polygon fill="none" stroke="#000000" points="605.5,-223.7 605.5,-245.7 794.5,-245.7 794.5,-223.7 605.5,-223.7"/>
<image xlink:href="../../images/foreignKeys.png" width="11px" height="12px" preserveAspectRatio="xMinYMin meet" x="610.5" y="-240.7"/>
<text text-anchor="start" x="625.5" y="-230.8" font-family="Helvetica,sans-Serif" font-size="11.00" fill="#000000">ROLE_ID</text>
<polygon fill="none" stroke="#000000" points="605.5,-204.7 605.5,-223.7 794.5,-223.7 794.5,-204.7 605.5,-204.7"/>
<text text-anchor="start" x="608.5" y="-210.8" font-family="Helvetica,sans-Serif" font-size="11.00" fill="#000000">...</text>
<polygon fill="#ffffff" stroke="transparent" points="605.5,-185.7 605.5,-204.7 679.5,-204.7 679.5,-185.7 605.5,-185.7"/>
<polygon fill="none" stroke="#000000" points="605.5,-185.7 605.5,-204.7 679.5,-204.7 679.5,-185.7 605.5,-185.7"/>
<text text-anchor="start" x="608.5" y="-191.8" font-family="Helvetica,sans-Serif" font-size="11.00" fill="#000000">&lt; 2</text>
<polygon fill="#ffffff" stroke="transparent" points="679.5,-185.7 679.5,-204.7 755.5,-204.7 755.5,-185.7 679.5,-185.7"/>
<polygon fill="none" stroke="#000000" points="679.5,-185.7 679.5,-204.7 755.5,-204.7 755.5,-185.7 679.5,-185.7"/>
<text text-anchor="start" x="707.8807" y="-191.8" font-family="Helvetica,sans-Serif" font-size="11.00" fill="#000000">108 rows</text>
<polygon fill="#ffffff" stroke="transparent" points="755.5,-185.7 755.5,-204.7 794.5,-204.7 794.5,-185.7 755.5,-185.7"/>
<polygon fill="none" stroke="#000000" points="755.5,-185.7 755.5,-204.7 794.5,-204.7 794.5,-185.7 755.5,-185.7"/>
<text text-anchor="start" x="785.3862" y="-191.8" font-family="Helvetica,sans-Serif" font-size="11.00" fill="#000000"> &#160;</text>
</a>
</g>
</g>
<!-- NOTIFICATION_SETTINGS&#45;&gt;ACTIVITY_TYPES -->
<g id="edge3" class="edge">
<title>NOTIFICATION_SETTINGS:w&#45;&gt;ACTIVITY_TYPES:e</title>
<path fill="none" stroke="#000000" d="M591.0794,-256.7C569.8898,-256.7 559.8099,-256.7 533,-256.7"/>
<polygon fill="#000000" stroke="#000000" points="597.5,-256.7001 605.5,-260.3 601.5,-256.7 605.5,-256.7 605.5,-256.7 605.5,-256.7 601.5,-256.7 605.5,-253.1 597.5,-256.7001 597.5,-256.7001"/>
<ellipse fill="none" stroke="#000000" cx="594.3" cy="-256.7001" rx="3.2" ry="3.2"/>
</g>
<!-- USER_NOTIFICATION_SETTINGS -->
<g id="node5" class="node">
<title>USER_NOTIFICATION_SETTINGS</title>
<g id="a_node5"><a xlink:href="../../tables/USER_NOTIFICATION_SETTINGS.html" xlink:title="USER_NOTIFICATION_SETTINGS" target="_top">
<polygon fill="#ffffff" stroke="transparent" points="584,-38.2 584,-165.2 815,-165.2 815,-38.2 584,-38.2"/>
<polygon fill="#f5f5f5" stroke="transparent" points="584.5,-141.7 584.5,-164.7 815.5,-164.7 815.5,-141.7 584.5,-141.7"/>
<polygon fill="none" stroke="#000000" points="584.5,-141.7 584.5,-164.7 815.5,-164.7 815.5,-141.7 584.5,-141.7"/>
<text text-anchor="start" x="589.5" y="-150.8" font-family="Helvetica,sans-Serif" font-weight="bold" font-size="11.00" fill="#000000">USER_NOTIFICATION_SETTINGS</text>
<text text-anchor="start" x="780.5437" y="-149.8" font-family="Helvetica,sans-Serif" font-size="11.00" fill="#000000">[table]</text>
<polygon fill="none" stroke="#000000" points="584.5,-119.7 584.5,-141.7 815.5,-141.7 815.5,-119.7 584.5,-119.7"/>
<image xlink:href="../../images/primaryKeys.png" width="11px" height="12px" preserveAspectRatio="xMinYMin meet" x="589.5" y="-136.7"/>
<text text-anchor="start" x="604.5" y="-126.8" font-family="Helvetica,sans-Serif" font-size="11.00" fill="#000000">ID</text>
<polygon fill="none" stroke="#000000" points="584.5,-97.7 584.5,-119.7 815.5,-119.7 815.5,-97.7 584.5,-97.7"/>
<image xlink:href="../../images/foreignKeys.png" width="11px" height="12px" preserveAspectRatio="xMinYMin meet" x="589.5" y="-114.7"/>
<text text-anchor="start" x="604.5" y="-104.8" font-family="Helvetica,sans-Serif" font-size="11.00" fill="#000000">ACTIVITY_TYPE_ID</text>
<polygon fill="none" stroke="#000000" points="584.5,-75.7 584.5,-97.7 815.5,-97.7 815.5,-75.7 584.5,-75.7"/>
<image xlink:href="../../images/foreignKeys.png" width="11px" height="12px" preserveAspectRatio="xMinYMin meet" x="589.5" y="-92.7"/>
<text text-anchor="start" x="604.5" y="-82.8" font-family="Helvetica,sans-Serif" font-size="11.00" fill="#000000">USER_ID</text>
<polygon fill="none" stroke="#000000" points="584.5,-56.7 584.5,-75.7 815.5,-75.7 815.5,-56.7 584.5,-56.7"/>
<text text-anchor="start" x="587.5" y="-62.8" font-family="Helvetica,sans-Serif" font-size="11.00" fill="#000000">...</text>
<polygon fill="#ffffff" stroke="transparent" points="584.5,-37.7 584.5,-56.7 682.5,-56.7 682.5,-37.7 584.5,-37.7"/>
<polygon fill="none" stroke="#000000" points="584.5,-37.7 584.5,-56.7 682.5,-56.7 682.5,-37.7 584.5,-37.7"/>
<text text-anchor="start" x="587.5" y="-43.8" font-family="Helvetica,sans-Serif" font-size="11.00" fill="#000000">&lt; 2</text>
<polygon fill="#ffffff" stroke="transparent" points="682.5,-37.7 682.5,-56.7 764.5,-56.7 764.5,-37.7 682.5,-37.7"/>
<polygon fill="none" stroke="#000000" points="682.5,-37.7 682.5,-56.7 764.5,-56.7 764.5,-37.7 682.5,-37.7"/>
<text text-anchor="start" x="722.9956" y="-43.8" font-family="Helvetica,sans-Serif" font-size="11.00" fill="#000000">19 rows</text>
<polygon fill="#ffffff" stroke="transparent" points="764.5,-37.7 764.5,-56.7 815.5,-56.7 815.5,-37.7 764.5,-37.7"/>
<polygon fill="none" stroke="#000000" points="764.5,-37.7 764.5,-56.7 815.5,-56.7 815.5,-37.7 764.5,-37.7"/>
<text text-anchor="start" x="806.3862" y="-43.8" font-family="Helvetica,sans-Serif" font-size="11.00" fill="#000000"> &#160;</text>
</a>
</g>
</g>
<!-- USER_NOTIFICATION_SETTINGS&#45;&gt;ACTIVITY_TYPES -->
<g id="edge4" class="edge">
<title>USER_NOTIFICATION_SETTINGS:w&#45;&gt;ACTIVITY_TYPES:e</title>
<path fill="none" stroke="#000000" d="M570.3649,-111.5243C528.1977,-131.9853 596.9332,-256.7 533,-256.7"/>
<polygon fill="#000000" stroke="#000000" points="576.6551,-110.2675 585.2054,-112.2302 580.5775,-109.4838 584.5,-108.7 584.5,-108.7 584.5,-108.7 580.5775,-109.4838 583.7946,-105.1698 576.6551,-110.2675 576.6551,-110.2675"/>
<ellipse fill="none" stroke="#000000" cx="573.5171" cy="-110.8946" rx="3.2" ry="3.2"/>
</g>
</g>
</svg>
