<?xml version="1.0" encoding="UTF-8" standalone="no"?>
<!DOCTYPE svg PUBLIC "-//W3C//DTD SVG 1.1//EN"
 "http://www.w3.org/Graphics/SVG/1.1/DTD/svg11.dtd">
<!-- Generated by graphviz version 2.40.1 (20161225.0304)
 -->
<!-- Title: twoDegreesRelationshipsDiagram Pages: 1 -->
<svg width="913pt" height="475pt"
 viewBox="0.00 0.00 913.00 474.70" xmlns="http://www.w3.org/2000/svg" xmlns:xlink="http://www.w3.org/1999/xlink">
<g id="graph0" class="graph" transform="scale(1 1) rotate(0) translate(4 470.7)">
<title>twoDegreesRelationshipsDiagram</title>
<polygon fill="#ffffff" stroke="transparent" points="-4,4 -4,-470.7 909,-470.7 909,4 -4,4"/>
<text text-anchor="middle" x="72.4936" y="-7.3" font-family="Helvetica,sans-Serif" font-size="11.00" fill="#000000">Generated by SchemaSpy</text>
<!-- IN_HOUSE_ASSAYS -->
<g id="node1" class="node">
<title>IN_HOUSE_ASSAYS</title>
<g id="a_node1"><a xlink:href="../../tables/IN_HOUSE_ASSAYS.html" xlink:title="IN_HOUSE_ASSAYS" target="_top">
<polygon fill="#ffffff" stroke="transparent" points="413,-77.2 413,-248.2 606,-248.2 606,-77.2 413,-77.2"/>
<polygon fill="#f5f5f5" stroke="transparent" points="413.5,-224.7 413.5,-247.7 606.5,-247.7 606.5,-224.7 413.5,-224.7"/>
<polygon fill="none" stroke="#000000" points="413.5,-224.7 413.5,-247.7 606.5,-247.7 606.5,-224.7 413.5,-224.7"/>
<text text-anchor="start" x="418.5" y="-233.8" font-family="Helvetica,sans-Serif" font-weight="bold" font-size="11.00" fill="#000000">IN_HOUSE_ASSAYS</text>
<text text-anchor="start" x="571.5437" y="-232.8" font-family="Helvetica,sans-Serif" font-size="11.00" fill="#000000">[table]</text>
<polygon fill="none" stroke="#000000" points="413.5,-202.7 413.5,-224.7 606.5,-224.7 606.5,-202.7 413.5,-202.7"/>
<image xlink:href="../../images/primaryKeys.png" width="11px" height="12px" preserveAspectRatio="xMinYMin meet" x="418.5" y="-219.7"/>
<text text-anchor="start" x="433.5" y="-209.8" font-family="Helvetica,sans-Serif" font-size="11.00" fill="#000000">ID</text>
<polygon fill="none" stroke="#000000" points="413.5,-180.7 413.5,-202.7 606.5,-202.7 606.5,-180.7 413.5,-180.7"/>
<image xlink:href="../../images/foreignKeys.png" width="11px" height="12px" preserveAspectRatio="xMinYMin meet" x="418.5" y="-197.7"/>
<text text-anchor="start" x="433.5" y="-187.8" font-family="Helvetica,sans-Serif" font-size="11.00" fill="#000000">ASSAY_AFFINITY_TYPE_ID</text>
<polygon fill="none" stroke="#000000" points="413.5,-158.7 413.5,-180.7 606.5,-180.7 606.5,-158.7 413.5,-158.7"/>
<image xlink:href="../../images/foreignKeys.png" width="11px" height="12px" preserveAspectRatio="xMinYMin meet" x="418.5" y="-175.7"/>
<text text-anchor="start" x="433.5" y="-165.8" font-family="Helvetica,sans-Serif" font-size="11.00" fill="#000000">ASSAY_TYPE_ID</text>
<polygon fill="none" stroke="#000000" points="413.5,-136.7 413.5,-158.7 606.5,-158.7 606.5,-136.7 413.5,-136.7"/>
<image xlink:href="../../images/foreignKeys.png" width="11px" height="12px" preserveAspectRatio="xMinYMin meet" x="418.5" y="-153.7"/>
<text text-anchor="start" x="433.5" y="-143.8" font-family="Helvetica,sans-Serif" font-size="11.00" fill="#000000">TRACER_LIGAND_ID</text>
<polygon fill="none" stroke="#000000" points="413.5,-114.7 413.5,-136.7 606.5,-136.7 606.5,-114.7 413.5,-114.7"/>
<image xlink:href="../../images/foreignKeys.png" width="11px" height="12px" preserveAspectRatio="xMinYMin meet" x="418.5" y="-131.7"/>
<text text-anchor="start" x="433.5" y="-121.8" font-family="Helvetica,sans-Serif" font-size="11.00" fill="#000000">TARGET_FORM_ID</text>
<polygon fill="none" stroke="#000000" points="413.5,-95.7 413.5,-114.7 606.5,-114.7 606.5,-95.7 413.5,-95.7"/>
<text text-anchor="start" x="416.5" y="-101.8" font-family="Helvetica,sans-Serif" font-size="11.00" fill="#000000">...</text>
<polygon fill="#ffffff" stroke="transparent" points="413.5,-76.7 413.5,-95.7 487.5,-95.7 487.5,-76.7 413.5,-76.7"/>
<polygon fill="none" stroke="#000000" points="413.5,-76.7 413.5,-95.7 487.5,-95.7 487.5,-76.7 413.5,-76.7"/>
<text text-anchor="start" x="416.5" y="-82.8" font-family="Helvetica,sans-Serif" font-size="11.00" fill="#000000">&lt; 4</text>
<polygon fill="#ffffff" stroke="transparent" points="487.5,-76.7 487.5,-95.7 558.5,-95.7 558.5,-76.7 487.5,-76.7"/>
<polygon fill="none" stroke="#000000" points="487.5,-76.7 487.5,-95.7 558.5,-95.7 558.5,-76.7 487.5,-76.7"/>
<text text-anchor="start" x="516.9956" y="-82.8" font-family="Helvetica,sans-Serif" font-size="11.00" fill="#000000">51 rows</text>
<polygon fill="#ffffff" stroke="transparent" points="558.5,-76.7 558.5,-95.7 606.5,-95.7 606.5,-76.7 558.5,-76.7"/>
<polygon fill="none" stroke="#000000" points="558.5,-76.7 558.5,-95.7 606.5,-95.7 606.5,-76.7 558.5,-76.7"/>
<text text-anchor="start" x="587.9053" y="-82.8" font-family="Helvetica,sans-Serif" font-size="11.00" fill="#000000">1 &gt;</text>
</a>
</g>
</g>
<!-- ASSAY_AFFINITY_TYPES -->
<g id="node2" class="node">
<title>ASSAY_AFFINITY_TYPES</title>
<g id="a_node2"><a xlink:href="../../tables/ASSAY_AFFINITY_TYPES.html" xlink:title="ASSAY_AFFINITY_TYPES" target="_top">
<polygon fill="#ffffff" stroke="transparent" points="8,-284.7 8,-462.7 364,-462.7 364,-284.7 8,-284.7"/>
<polygon fill="#f5f5f5" stroke="transparent" points="10,-437.7 10,-460.7 362,-460.7 362,-437.7 10,-437.7"/>
<polygon fill="none" stroke="#000000" points="10,-437.7 10,-460.7 362,-460.7 362,-437.7 10,-437.7"/>
<text text-anchor="start" x="15" y="-446.8" font-family="Helvetica,sans-Serif" font-weight="bold" font-size="11.00" fill="#000000">ASSAY_AFFINITY_TYPES</text>
<text text-anchor="start" x="327.0437" y="-445.8" font-family="Helvetica,sans-Serif" font-size="11.00" fill="#000000">[table]</text>
<polygon fill="none" stroke="#000000" points="10,-415.7 10,-437.7 191,-437.7 191,-415.7 10,-415.7"/>
<image xlink:href="../../images/primaryKeys.png" width="11px" height="12px" preserveAspectRatio="xMinYMin meet" x="15" y="-432.7"/>
<text text-anchor="start" x="30" y="-422.8" font-family="Helvetica,sans-Serif" font-size="11.00" fill="#000000">ID</text>
<polygon fill="none" stroke="#000000" points="191,-415.7 191,-437.7 362,-437.7 362,-415.7 191,-415.7"/>
<text text-anchor="start" x="194" y="-423.4" font-family="Helvetica,sans-Serif" font-size="11.00" fill="#000000">number[19]</text>
<polygon fill="none" stroke="#000000" points="10,-393.7 10,-415.7 191,-415.7 191,-393.7 10,-393.7"/>
<text text-anchor="start" x="30" y="-400.8" font-family="Helvetica,sans-Serif" font-size="11.00" fill="#000000">CREATED_AT</text>
<polygon fill="none" stroke="#000000" points="191,-393.7 191,-415.7 362,-415.7 362,-393.7 191,-393.7"/>
<text text-anchor="start" x="193.9896" y="-401.4" font-family="Helvetica,sans-Serif" font-size="11.00" fill="#000000">timestamp(6) with time zone[13,6]</text>
<polygon fill="none" stroke="#000000" points="10,-371.7 10,-393.7 191,-393.7 191,-371.7 10,-371.7"/>
<text text-anchor="start" x="30" y="-378.8" font-family="Helvetica,sans-Serif" font-size="11.00" fill="#000000">CREATED_BY</text>
<polygon fill="none" stroke="#000000" points="191,-371.7 191,-393.7 362,-393.7 362,-371.7 191,-371.7"/>
<text text-anchor="start" x="194" y="-379.4" font-family="Helvetica,sans-Serif" font-size="11.00" fill="#000000">number[19]</text>
<polygon fill="none" stroke="#000000" points="10,-349.7 10,-371.7 191,-371.7 191,-349.7 10,-349.7"/>
<text text-anchor="start" x="30" y="-356.8" font-family="Helvetica,sans-Serif" font-size="11.00" fill="#000000">UPDATED_AT</text>
<polygon fill="none" stroke="#000000" points="191,-349.7 191,-371.7 362,-371.7 362,-349.7 191,-349.7"/>
<text text-anchor="start" x="193.9896" y="-357.4" font-family="Helvetica,sans-Serif" font-size="11.00" fill="#000000">timestamp(6) with time zone[13,6]</text>
<polygon fill="none" stroke="#000000" points="10,-327.7 10,-349.7 191,-349.7 191,-327.7 10,-327.7"/>
<text text-anchor="start" x="30" y="-334.8" font-family="Helvetica,sans-Serif" font-size="11.00" fill="#000000">UPDATED_BY</text>
<polygon fill="none" stroke="#000000" points="191,-327.7 191,-349.7 362,-349.7 362,-327.7 191,-327.7"/>
<text text-anchor="start" x="194" y="-335.4" font-family="Helvetica,sans-Serif" font-size="11.00" fill="#000000">number[19]</text>
<polygon fill="none" stroke="#000000" points="10,-305.7 10,-327.7 191,-327.7 191,-305.7 10,-305.7"/>
<text text-anchor="start" x="30" y="-312.8" font-family="Helvetica,sans-Serif" font-size="11.00" fill="#000000">NAME</text>
<polygon fill="none" stroke="#000000" points="191,-305.7 191,-327.7 362,-327.7 362,-305.7 191,-305.7"/>
<text text-anchor="start" x="194" y="-313.4" font-family="Helvetica,sans-Serif" font-size="11.00" fill="#000000">varchar2[30]</text>
<polygon fill="#ffffff" stroke="transparent" points="10,-286.7 10,-305.7 92,-305.7 92,-286.7 10,-286.7"/>
<polygon fill="none" stroke="#000000" points="10,-286.7 10,-305.7 92,-305.7 92,-286.7 10,-286.7"/>
<text text-anchor="start" x="13" y="-292.8" font-family="Helvetica,sans-Serif" font-size="11.00" fill="#000000">&lt; 0</text>
<polygon fill="#ffffff" stroke="transparent" points="92,-286.7 92,-305.7 191,-305.7 191,-286.7 92,-286.7"/>
<polygon fill="none" stroke="#000000" points="92,-286.7 92,-305.7 191,-305.7 191,-286.7 92,-286.7"/>
<text text-anchor="start" x="155.6105" y="-292.8" font-family="Helvetica,sans-Serif" font-size="11.00" fill="#000000">7 rows</text>
<polygon fill="#ffffff" stroke="transparent" points="191,-286.7 191,-305.7 362,-305.7 362,-286.7 191,-286.7"/>
<polygon fill="none" stroke="#000000" points="191,-286.7 191,-305.7 362,-305.7 362,-286.7 191,-286.7"/>
<text text-anchor="start" x="343.4053" y="-292.8" font-family="Helvetica,sans-Serif" font-size="11.00" fill="#000000">2 &gt;</text>
<polygon fill="none" stroke="#000000" stroke-width="2" points="9,-285.7 9,-461.7 363,-461.7 363,-285.7 9,-285.7"/>
</a>
</g>
</g>
<!-- IN_HOUSE_ASSAYS&#45;&gt;ASSAY_AFFINITY_TYPES -->
<g id="edge1" class="edge">
<title>IN_HOUSE_ASSAYS:w&#45;&gt;ASSAY_AFFINITY_TYPES:e</title>
<path fill="none" stroke="#000000" d="M398.7519,-193.5916C322.9506,-215.8316 463.2846,-426.7 362,-426.7"/>
<polygon fill="#000000" stroke="#000000" points="405.565,-192.7178 413.958,-195.2707 409.5325,-192.2089 413.5,-191.7 413.5,-191.7 413.5,-191.7 409.5325,-192.2089 413.042,-188.1293 405.565,-192.7178 405.565,-192.7178"/>
<ellipse fill="none" stroke="#000000" cx="402.391" cy="-193.1249" rx="3.2" ry="3.2"/>
</g>
<!-- ASSAY_TYPES -->
<g id="node3" class="node">
<title>ASSAY_TYPES</title>
<g id="a_node3"><a xlink:href="../../tables/ASSAY_TYPES.html" xlink:title="ASSAY_TYPES" target="_top">
<polygon fill="#ffffff" stroke="transparent" points="125.5,-202.2 125.5,-263.2 246.5,-263.2 246.5,-202.2 125.5,-202.2"/>
<polygon fill="#f5f5f5" stroke="transparent" points="126,-239.7 126,-262.7 247,-262.7 247,-239.7 126,-239.7"/>
<polygon fill="none" stroke="#000000" points="126,-239.7 126,-262.7 247,-262.7 247,-239.7 126,-239.7"/>
<text text-anchor="start" x="130.5711" y="-248.8" font-family="Helvetica,sans-Serif" font-weight="bold" font-size="11.00" fill="#000000">ASSAY_TYPES</text>
<text text-anchor="start" x="212.5219" y="-247.8" font-family="Helvetica,sans-Serif" font-size="11.00" fill="#000000">[table]</text>
<polygon fill="none" stroke="#000000" points="126,-220.7 126,-239.7 247,-239.7 247,-220.7 126,-220.7"/>
<text text-anchor="start" x="129" y="-226.8" font-family="Helvetica,sans-Serif" font-size="11.00" fill="#000000">...</text>
<polygon fill="#ffffff" stroke="transparent" points="126,-201.7 126,-220.7 160,-220.7 160,-201.7 126,-201.7"/>
<polygon fill="none" stroke="#000000" points="126,-201.7 126,-220.7 160,-220.7 160,-201.7 126,-201.7"/>
<text text-anchor="start" x="129" y="-207.8" font-family="Helvetica,sans-Serif" font-size="11.00" fill="#000000"> &#160;</text>
<polygon fill="#ffffff" stroke="transparent" points="160,-201.7 160,-220.7 215,-220.7 215,-201.7 160,-201.7"/>
<polygon fill="none" stroke="#000000" points="160,-201.7 160,-220.7 215,-220.7 215,-201.7 160,-201.7"/>
<text text-anchor="start" x="173.4956" y="-207.8" font-family="Helvetica,sans-Serif" font-size="11.00" fill="#000000">10 rows</text>
<polygon fill="#ffffff" stroke="transparent" points="215,-201.7 215,-220.7 247,-220.7 247,-201.7 215,-201.7"/>
<polygon fill="none" stroke="#000000" points="215,-201.7 215,-220.7 247,-220.7 247,-201.7 215,-201.7"/>
<text text-anchor="start" x="228.4053" y="-207.8" font-family="Helvetica,sans-Serif" font-size="11.00" fill="#000000">3 &gt;</text>
</a>
</g>
</g>
<!-- IN_HOUSE_ASSAYS&#45;&gt;ASSAY_TYPES -->
<g id="edge2" class="edge">
<title>IN_HOUSE_ASSAYS:w&#45;&gt;ASSAY_TYPES:e</title>
<path fill="none" stroke="#000000" d="M399.391,-172.7332C390.3558,-177.3082 385.7197,-186.0398 372,-191.7 318.3227,-213.8451 305.0659,-229.7 247,-229.7"/>
<polygon fill="#000000" stroke="#000000" points="405.6787,-171.3815 414.2567,-173.2196 409.5893,-170.5407 413.5,-169.7 413.5,-169.7 413.5,-169.7 409.5893,-170.5407 412.7433,-166.1804 405.6787,-171.3815 405.6787,-171.3815"/>
<ellipse fill="none" stroke="#000000" cx="402.5502" cy="-172.0541" rx="3.2" ry="3.2"/>
</g>
<!-- TARGET_FORMS -->
<g id="node4" class="node">
<title>TARGET_FORMS</title>
<g id="a_node4"><a xlink:href="../../tables/TARGET_FORMS.html" xlink:title="TARGET_FORMS" target="_top">
<polygon fill="#ffffff" stroke="transparent" points="119.5,-38.2 119.5,-99.2 252.5,-99.2 252.5,-38.2 119.5,-38.2"/>
<polygon fill="#f5f5f5" stroke="transparent" points="120,-75.7 120,-98.7 253,-98.7 253,-75.7 120,-75.7"/>
<polygon fill="none" stroke="#000000" points="120,-75.7 120,-98.7 253,-98.7 253,-75.7 120,-75.7"/>
<text text-anchor="start" x="124.7801" y="-84.8" font-family="Helvetica,sans-Serif" font-weight="bold" font-size="11.00" fill="#000000">TARGET_FORMS</text>
<text text-anchor="start" x="218.5219" y="-83.8" font-family="Helvetica,sans-Serif" font-size="11.00" fill="#000000">[table]</text>
<polygon fill="none" stroke="#000000" points="120,-56.7 120,-75.7 253,-75.7 253,-56.7 120,-56.7"/>
<text text-anchor="start" x="123" y="-62.8" font-family="Helvetica,sans-Serif" font-size="11.00" fill="#000000">...</text>
<polygon fill="#ffffff" stroke="transparent" points="120,-37.7 120,-56.7 158,-56.7 158,-37.7 120,-37.7"/>
<polygon fill="none" stroke="#000000" points="120,-37.7 120,-56.7 158,-56.7 158,-37.7 120,-37.7"/>
<text text-anchor="start" x="123" y="-43.8" font-family="Helvetica,sans-Serif" font-size="11.00" fill="#000000">&lt; 5</text>
<polygon fill="#ffffff" stroke="transparent" points="158,-37.7 158,-56.7 217,-56.7 217,-37.7 158,-37.7"/>
<polygon fill="none" stroke="#000000" points="158,-37.7 158,-56.7 217,-56.7 217,-37.7 158,-37.7"/>
<text text-anchor="start" x="169.3807" y="-43.8" font-family="Helvetica,sans-Serif" font-size="11.00" fill="#000000">541 rows</text>
<polygon fill="#ffffff" stroke="transparent" points="217,-37.7 217,-56.7 253,-56.7 253,-37.7 217,-37.7"/>
<polygon fill="none" stroke="#000000" points="217,-37.7 217,-56.7 253,-56.7 253,-37.7 217,-37.7"/>
<text text-anchor="start" x="228.2904" y="-43.8" font-family="Helvetica,sans-Serif" font-size="11.00" fill="#000000">18 &gt;</text>
</a>
</g>
</g>
<!-- IN_HOUSE_ASSAYS&#45;&gt;TARGET_FORMS -->
<g id="edge3" class="edge">
<title>IN_HOUSE_ASSAYS:w&#45;&gt;TARGET_FORMS:e</title>
<path fill="none" stroke="#000000" d="M399.1353,-123.5014C390.3423,-120.3943 384.8585,-114.5557 372,-109.7 319.2475,-89.7794 309.3884,-65.7 253,-65.7"/>
<polygon fill="#000000" stroke="#000000" points="405.5921,-124.4896 412.9553,-129.2586 409.546,-125.0948 413.5,-125.7 413.5,-125.7 413.5,-125.7 409.546,-125.0948 414.0447,-122.1414 405.5921,-124.4896 405.5921,-124.4896"/>
<ellipse fill="none" stroke="#000000" cx="402.4289" cy="-124.0054" rx="3.2" ry="3.2"/>
</g>
<!-- TRACER_LIGANDS -->
<g id="node5" class="node">
<title>TRACER_LIGANDS</title>
<g id="a_node5"><a xlink:href="../../tables/TRACER_LIGANDS.html" xlink:title="TRACER_LIGANDS" target="_top">
<polygon fill="#ffffff" stroke="transparent" points="115,-120.2 115,-181.2 257,-181.2 257,-120.2 115,-120.2"/>
<polygon fill="#f5f5f5" stroke="transparent" points="115,-157.7 115,-180.7 257,-180.7 257,-157.7 115,-157.7"/>
<polygon fill="none" stroke="#000000" points="115,-157.7 115,-180.7 257,-180.7 257,-157.7 115,-157.7"/>
<text text-anchor="start" x="119.6942" y="-166.8" font-family="Helvetica,sans-Serif" font-weight="bold" font-size="11.00" fill="#000000">TRACER_LIGANDS</text>
<text text-anchor="start" x="222.5219" y="-165.8" font-family="Helvetica,sans-Serif" font-size="11.00" fill="#000000">[table]</text>
<polygon fill="none" stroke="#000000" points="115,-138.7 115,-157.7 257,-157.7 257,-138.7 115,-138.7"/>
<text text-anchor="start" x="118" y="-144.8" font-family="Helvetica,sans-Serif" font-size="11.00" fill="#000000">...</text>
<polygon fill="#ffffff" stroke="transparent" points="115,-119.7 115,-138.7 161,-138.7 161,-119.7 115,-119.7"/>
<polygon fill="none" stroke="#000000" points="115,-119.7 115,-138.7 161,-138.7 161,-119.7 115,-119.7"/>
<text text-anchor="start" x="118" y="-125.8" font-family="Helvetica,sans-Serif" font-size="11.00" fill="#000000">&lt; 3</text>
<polygon fill="#ffffff" stroke="transparent" points="161,-119.7 161,-138.7 223,-138.7 223,-119.7 161,-119.7"/>
<polygon fill="none" stroke="#000000" points="161,-119.7 161,-138.7 223,-138.7 223,-119.7 161,-119.7"/>
<text text-anchor="start" x="175.3807" y="-125.8" font-family="Helvetica,sans-Serif" font-size="11.00" fill="#000000">416 rows</text>
<polygon fill="#ffffff" stroke="transparent" points="223,-119.7 223,-138.7 257,-138.7 257,-119.7 223,-119.7"/>
<polygon fill="none" stroke="#000000" points="223,-119.7 223,-138.7 257,-138.7 257,-119.7 223,-119.7"/>
<text text-anchor="start" x="238.4053" y="-125.8" font-family="Helvetica,sans-Serif" font-size="11.00" fill="#000000">7 &gt;</text>
</a>
</g>
</g>
<!-- IN_HOUSE_ASSAYS&#45;&gt;TRACER_LIGANDS -->
<g id="edge4" class="edge">
<title>IN_HOUSE_ASSAYS:w&#45;&gt;TRACER_LIGANDS:e</title>
<path fill="none" stroke="#000000" d="M398.8324,-147.7C341.0759,-147.7 321.3932,-147.7 257,-147.7"/>
<polygon fill="#000000" stroke="#000000" points="405.5,-147.7001 413.5,-151.3 409.5,-147.7 413.5,-147.7 413.5,-147.7 413.5,-147.7 409.5,-147.7 413.5,-144.1 405.5,-147.7001 405.5,-147.7001"/>
<ellipse fill="none" stroke="#000000" cx="402.3" cy="-147.7001" rx="3.2" ry="3.2"/>
</g>
<!-- IN_HOUSE_ASSAYS_REFERENCES -->
<g id="node6" class="node">
<title>IN_HOUSE_ASSAYS_REFERENCES</title>
<g id="a_node6"><a xlink:href="../../tables/IN_HOUSE_ASSAYS_REFERENCES.html" xlink:title="IN_HOUSE_ASSAYS_REFERENCES" target="_top">
<polygon fill="#ffffff" stroke="transparent" points="661,-186.2 661,-247.2 891,-247.2 891,-186.2 661,-186.2"/>
<polygon fill="#f5f5f5" stroke="transparent" points="661,-223.7 661,-246.7 891,-246.7 891,-223.7 661,-223.7"/>
<polygon fill="none" stroke="#000000" points="661,-223.7 661,-246.7 891,-246.7 891,-223.7 661,-223.7"/>
<text text-anchor="start" x="665.6843" y="-232.8" font-family="Helvetica,sans-Serif" font-weight="bold" font-size="11.00" fill="#000000">IN_HOUSE_ASSAYS_REFERENCES</text>
<text text-anchor="start" x="856.5219" y="-231.8" font-family="Helvetica,sans-Serif" font-size="11.00" fill="#000000">[table]</text>
<polygon fill="none" stroke="#000000" points="661,-204.7 661,-223.7 891,-223.7 891,-204.7 661,-204.7"/>
<text text-anchor="start" x="664" y="-210.8" font-family="Helvetica,sans-Serif" font-size="11.00" fill="#000000">...</text>
<polygon fill="#ffffff" stroke="transparent" points="661,-185.7 661,-204.7 758,-204.7 758,-185.7 661,-185.7"/>
<polygon fill="none" stroke="#000000" points="661,-185.7 661,-204.7 758,-204.7 758,-185.7 661,-185.7"/>
<text text-anchor="start" x="664" y="-191.8" font-family="Helvetica,sans-Serif" font-size="11.00" fill="#000000">&lt; 2</text>
<polygon fill="#ffffff" stroke="transparent" points="758,-185.7 758,-204.7 840,-204.7 840,-185.7 758,-185.7"/>
<polygon fill="none" stroke="#000000" points="758,-185.7 758,-204.7 840,-204.7 840,-185.7 758,-185.7"/>
<text text-anchor="start" x="798.4956" y="-191.8" font-family="Helvetica,sans-Serif" font-size="11.00" fill="#000000">51 rows</text>
<polygon fill="#ffffff" stroke="transparent" points="840,-185.7 840,-204.7 891,-204.7 891,-185.7 840,-185.7"/>
<polygon fill="none" stroke="#000000" points="840,-185.7 840,-204.7 891,-204.7 891,-185.7 840,-185.7"/>
<text text-anchor="start" x="881.8862" y="-191.8" font-family="Helvetica,sans-Serif" font-size="11.00" fill="#000000"> &#160;</text>
</a>
</g>
</g>
<!-- IN_HOUSE_ASSAYS_REFERENCES&#45;&gt;IN_HOUSE_ASSAYS -->
<g id="edge5" class="edge">
<title>IN_HOUSE_ASSAYS_REFERENCES:w&#45;&gt;IN_HOUSE_ASSAYS:e</title>
<path fill="none" stroke="#000000" d="M646.4947,-213.7C632.9413,-213.7 625.0451,-213.7 606.5,-213.7"/>
<polygon fill="#000000" stroke="#000000" points="653,-213.7001 661,-217.3 657,-213.7 661,-213.7 661,-213.7 661,-213.7 657,-213.7 661,-210.1 653,-213.7001 653,-213.7001"/>
<ellipse fill="none" stroke="#000000" cx="649.8" cy="-213.7001" rx="3.2" ry="3.2"/>
</g>
<!-- LITERATURE_ASSAYS -->
<g id="node7" class="node">
<title>LITERATURE_ASSAYS</title>
<g id="a_node7"><a xlink:href="../../tables/LITERATURE_ASSAYS.html" xlink:title="LITERATURE_ASSAYS" target="_top">
<polygon fill="#ffffff" stroke="transparent" points="413,-269.2 413,-418.2 606,-418.2 606,-269.2 413,-269.2"/>
<polygon fill="#f5f5f5" stroke="transparent" points="413.5,-394.7 413.5,-417.7 606.5,-417.7 606.5,-394.7 413.5,-394.7"/>
<polygon fill="none" stroke="#000000" points="413.5,-394.7 413.5,-417.7 606.5,-417.7 606.5,-394.7 413.5,-394.7"/>
<text text-anchor="start" x="418.5" y="-403.8" font-family="Helvetica,sans-Serif" font-weight="bold" font-size="11.00" fill="#000000">LITERATURE_ASSAYS</text>
<text text-anchor="start" x="571.5437" y="-402.8" font-family="Helvetica,sans-Serif" font-size="11.00" fill="#000000">[table]</text>
<polygon fill="none" stroke="#000000" points="413.5,-372.7 413.5,-394.7 606.5,-394.7 606.5,-372.7 413.5,-372.7"/>
<image xlink:href="../../images/primaryKeys.png" width="11px" height="12px" preserveAspectRatio="xMinYMin meet" x="418.5" y="-389.7"/>
<text text-anchor="start" x="433.5" y="-379.8" font-family="Helvetica,sans-Serif" font-size="11.00" fill="#000000">ID</text>
<polygon fill="none" stroke="#000000" points="413.5,-350.7 413.5,-372.7 606.5,-372.7 606.5,-350.7 413.5,-350.7"/>
<image xlink:href="../../images/foreignKeys.png" width="11px" height="12px" preserveAspectRatio="xMinYMin meet" x="418.5" y="-367.7"/>
<text text-anchor="start" x="433.5" y="-357.8" font-family="Helvetica,sans-Serif" font-size="11.00" fill="#000000">ASSAY_AFFINITY_TYPE_ID</text>
<polygon fill="none" stroke="#000000" points="413.5,-328.7 413.5,-350.7 606.5,-350.7 606.5,-328.7 413.5,-328.7"/>
<image xlink:href="../../images/foreignKeys.png" width="11px" height="12px" preserveAspectRatio="xMinYMin meet" x="418.5" y="-345.7"/>
<text text-anchor="start" x="433.5" y="-335.8" font-family="Helvetica,sans-Serif" font-size="11.00" fill="#000000">ASSAY_TYPE_ID</text>
<polygon fill="none" stroke="#000000" points="413.5,-306.7 413.5,-328.7 606.5,-328.7 606.5,-306.7 413.5,-306.7"/>
<image xlink:href="../../images/foreignKeys.png" width="11px" height="12px" preserveAspectRatio="xMinYMin meet" x="418.5" y="-323.7"/>
<text text-anchor="start" x="433.5" y="-313.8" font-family="Helvetica,sans-Serif" font-size="11.00" fill="#000000">TRACER_LIGAND_ID</text>
<polygon fill="none" stroke="#000000" points="413.5,-287.7 413.5,-306.7 606.5,-306.7 606.5,-287.7 413.5,-287.7"/>
<text text-anchor="start" x="416.5" y="-293.8" font-family="Helvetica,sans-Serif" font-size="11.00" fill="#000000">...</text>
<polygon fill="#ffffff" stroke="transparent" points="413.5,-268.7 413.5,-287.7 487.5,-287.7 487.5,-268.7 413.5,-268.7"/>
<polygon fill="none" stroke="#000000" points="413.5,-268.7 413.5,-287.7 487.5,-287.7 487.5,-268.7 413.5,-268.7"/>
<text text-anchor="start" x="416.5" y="-274.8" font-family="Helvetica,sans-Serif" font-size="11.00" fill="#000000">&lt; 3</text>
<polygon fill="#ffffff" stroke="transparent" points="487.5,-268.7 487.5,-287.7 558.5,-287.7 558.5,-268.7 487.5,-268.7"/>
<polygon fill="none" stroke="#000000" points="487.5,-268.7 487.5,-287.7 558.5,-287.7 558.5,-268.7 487.5,-268.7"/>
<text text-anchor="start" x="516.9956" y="-274.8" font-family="Helvetica,sans-Serif" font-size="11.00" fill="#000000">25 rows</text>
<polygon fill="#ffffff" stroke="transparent" points="558.5,-268.7 558.5,-287.7 606.5,-287.7 606.5,-268.7 558.5,-268.7"/>
<polygon fill="none" stroke="#000000" points="558.5,-268.7 558.5,-287.7 606.5,-287.7 606.5,-268.7 558.5,-268.7"/>
<text text-anchor="start" x="587.9053" y="-274.8" font-family="Helvetica,sans-Serif" font-size="11.00" fill="#000000">1 &gt;</text>
</a>
</g>
</g>
<!-- LITERATURE_ASSAYS&#45;&gt;ASSAY_AFFINITY_TYPES -->
<g id="edge6" class="edge">
<title>LITERATURE_ASSAYS:w&#45;&gt;ASSAY_AFFINITY_TYPES:e</title>
<path fill="none" stroke="#000000" d="M399.6076,-366.3746C382.3418,-381.2786 392.8105,-426.7 362,-426.7"/>
<polygon fill="#000000" stroke="#000000" points="405.9177,-364.2514 414.6481,-365.112 409.7089,-362.9757 413.5,-361.7 413.5,-361.7 413.5,-361.7 409.7089,-362.9757 412.3519,-358.288 405.9177,-364.2514 405.9177,-364.2514"/>
<ellipse fill="none" stroke="#000000" cx="402.8848" cy="-365.2719" rx="3.2" ry="3.2"/>
</g>
<!-- LITERATURE_ASSAYS&#45;&gt;ASSAY_TYPES -->
<g id="edge7" class="edge">
<title>LITERATURE_ASSAYS:w&#45;&gt;ASSAY_TYPES:e</title>
<path fill="none" stroke="#000000" d="M399.2374,-335.5347C384.9288,-324.1284 393.7576,-292.082 372,-274.7 325.868,-237.8455 306.0459,-229.7 247,-229.7"/>
<polygon fill="#000000" stroke="#000000" points="405.8208,-337.4573 412.4908,-343.1557 409.6604,-338.5787 413.5,-339.7 413.5,-339.7 413.5,-339.7 409.6604,-338.5787 414.5092,-336.2443 405.8208,-337.4573 405.8208,-337.4573"/>
<ellipse fill="none" stroke="#000000" cx="402.7491" cy="-336.5602" rx="3.2" ry="3.2"/>
</g>
<!-- LITERATURE_ASSAYS&#45;&gt;TRACER_LIGANDS -->
<g id="edge8" class="edge">
<title>LITERATURE_ASSAYS:w&#45;&gt;TRACER_LIGANDS:e</title>
<path fill="none" stroke="#000000" d="M398.9336,-315.2511C365.3335,-301.1919 408.561,-230.0307 372,-191.7 334.2289,-152.1007 311.7245,-147.7 257,-147.7"/>
<polygon fill="#000000" stroke="#000000" points="405.6107,-316.3736 412.9031,-321.2502 409.5554,-317.0368 413.5,-317.7 413.5,-317.7 413.5,-317.7 409.5554,-317.0368 414.0969,-314.1498 405.6107,-316.3736 405.6107,-316.3736"/>
<ellipse fill="none" stroke="#000000" cx="402.455" cy="-315.843" rx="3.2" ry="3.2"/>
</g>
<!-- LITERATURE_ASSAYS_REFERENCES -->
<g id="node8" class="node">
<title>LITERATURE_ASSAYS_REFERENCES</title>
<g id="a_node8"><a xlink:href="../../tables/LITERATURE_ASSAYS_REFERENCES.html" xlink:title="LITERATURE_ASSAYS_REFERENCES" target="_top">
<polygon fill="#ffffff" stroke="transparent" points="655,-356.2 655,-417.2 897,-417.2 897,-356.2 655,-356.2"/>
<polygon fill="#f5f5f5" stroke="transparent" points="655,-393.7 655,-416.7 897,-416.7 897,-393.7 655,-393.7"/>
<polygon fill="none" stroke="#000000" points="655,-393.7 655,-416.7 897,-416.7 897,-393.7 655,-393.7"/>
<text text-anchor="start" x="659.5749" y="-402.8" font-family="Helvetica,sans-Serif" font-weight="bold" font-size="11.00" fill="#000000">LITERATURE_ASSAYS_REFERENCES</text>
<text text-anchor="start" x="862.5219" y="-401.8" font-family="Helvetica,sans-Serif" font-size="11.00" fill="#000000">[table]</text>
<polygon fill="none" stroke="#000000" points="655,-374.7 655,-393.7 897,-393.7 897,-374.7 655,-374.7"/>
<text text-anchor="start" x="658" y="-380.8" font-family="Helvetica,sans-Serif" font-size="11.00" fill="#000000">...</text>
<polygon fill="#ffffff" stroke="transparent" points="655,-355.7 655,-374.7 758,-374.7 758,-355.7 655,-355.7"/>
<polygon fill="none" stroke="#000000" points="655,-355.7 655,-374.7 758,-374.7 758,-355.7 655,-355.7"/>
<text text-anchor="start" x="658" y="-361.8" font-family="Helvetica,sans-Serif" font-size="11.00" fill="#000000">&lt; 2</text>
<polygon fill="#ffffff" stroke="transparent" points="758,-355.7 758,-374.7 843,-374.7 843,-355.7 758,-355.7"/>
<polygon fill="none" stroke="#000000" points="758,-355.7 758,-374.7 843,-374.7 843,-355.7 758,-355.7"/>
<text text-anchor="start" x="801.4956" y="-361.8" font-family="Helvetica,sans-Serif" font-size="11.00" fill="#000000">25 rows</text>
<polygon fill="#ffffff" stroke="transparent" points="843,-355.7 843,-374.7 897,-374.7 897,-355.7 843,-355.7"/>
<polygon fill="none" stroke="#000000" points="843,-355.7 843,-374.7 897,-374.7 897,-355.7 843,-355.7"/>
<text text-anchor="start" x="887.8862" y="-361.8" font-family="Helvetica,sans-Serif" font-size="11.00" fill="#000000"> &#160;</text>
</a>
</g>
</g>
<!-- LITERATURE_ASSAYS_REFERENCES&#45;&gt;LITERATURE_ASSAYS -->
<g id="edge9" class="edge">
<title>LITERATURE_ASSAYS_REFERENCES:w&#45;&gt;LITERATURE_ASSAYS:e</title>
<path fill="none" stroke="#000000" d="M640.2829,-383.7C629.2886,-383.7 622.1615,-383.7 606.5,-383.7"/>
<polygon fill="#000000" stroke="#000000" points="647,-383.7001 655,-387.3 651,-383.7 655,-383.7 655,-383.7 655,-383.7 651,-383.7 655,-380.1 647,-383.7001 647,-383.7001"/>
<ellipse fill="none" stroke="#000000" cx="643.8" cy="-383.7001" rx="3.2" ry="3.2"/>
</g>
</g>
</svg>
