<?xml version="1.0" encoding="UTF-8" standalone="no"?>
<!DOCTYPE svg PUBLIC "-//W3C//DTD SVG 1.1//EN"
 "http://www.w3.org/Graphics/SVG/1.1/DTD/svg11.dtd">
<!-- Generated by graphviz version 2.40.1 (20161225.0304)
 -->
<!-- Title: twoDegreesRelationshipsDiagram Pages: 1 -->
<svg width="785pt" height="393pt"
 viewBox="0.00 0.00 785.00 392.70" xmlns="http://www.w3.org/2000/svg" xmlns:xlink="http://www.w3.org/1999/xlink">
<g id="graph0" class="graph" transform="scale(1 1) rotate(0) translate(4 388.7)">
<title>twoDegreesRelationshipsDiagram</title>
<polygon fill="#ffffff" stroke="transparent" points="-4,4 -4,-388.7 781,-388.7 781,4 -4,4"/>
<text text-anchor="middle" x="72.4936" y="-7.3" font-family="Helvetica,sans-Serif" font-size="11.00" fill="#000000">Generated by SchemaSpy</text>
<!-- SUPPLEMENTS_ASSAY_TYPES_BINDING_CONSTANTS -->
<g id="node1" class="node">
<title>SUPPLEMENTS_ASSAY_TYPES_BINDING_CONSTANTS</title>
<g id="a_node1"><a xlink:href="../../tables/SUPPLEMENTS_ASSAY_TYPES_BINDING_CONSTANTS.html" xlink:title="SUPPLEMENTS_ASSAY_TYPES_BINDING_CONSTANTS" target="_top">
<polygon fill="#ffffff" stroke="transparent" points="399,-194.7 399,-343.7 769,-343.7 769,-194.7 399,-194.7"/>
<polygon fill="#f5f5f5" stroke="transparent" points="399,-320.2 399,-343.2 769,-343.2 769,-320.2 399,-320.2"/>
<polygon fill="none" stroke="#000000" points="399,-320.2 399,-343.2 769,-343.2 769,-320.2 399,-320.2"/>
<text text-anchor="start" x="404" y="-329.3" font-family="Helvetica,sans-Serif" font-weight="bold" font-size="11.00" fill="#000000">SUPPLEMENTS_ASSAY_TYPES_BINDING_CONSTANTS</text>
<text text-anchor="start" x="734.0437" y="-328.3" font-family="Helvetica,sans-Serif" font-size="11.00" fill="#000000">[table]</text>
<polygon fill="none" stroke="#000000" points="399,-298.2 399,-320.2 769,-320.2 769,-298.2 399,-298.2"/>
<image xlink:href="../../images/primaryKeys.png" width="11px" height="12px" preserveAspectRatio="xMinYMin meet" x="404" y="-315.2"/>
<text text-anchor="start" x="419" y="-305.3" font-family="Helvetica,sans-Serif" font-size="11.00" fill="#000000">ID</text>
<polygon fill="none" stroke="#000000" points="399,-276.2 399,-298.2 769,-298.2 769,-276.2 399,-276.2"/>
<image xlink:href="../../images/foreignKeys.png" width="11px" height="12px" preserveAspectRatio="xMinYMin meet" x="404" y="-293.2"/>
<text text-anchor="start" x="419" y="-283.3" font-family="Helvetica,sans-Serif" font-size="11.00" fill="#000000">SUPPLEMENT_ID</text>
<polygon fill="none" stroke="#000000" points="399,-254.2 399,-276.2 769,-276.2 769,-254.2 399,-254.2"/>
<image xlink:href="../../images/foreignKeys.png" width="11px" height="12px" preserveAspectRatio="xMinYMin meet" x="404" y="-271.2"/>
<text text-anchor="start" x="419" y="-261.3" font-family="Helvetica,sans-Serif" font-size="11.00" fill="#000000">ASSAY_TYPE_ID</text>
<polygon fill="none" stroke="#000000" points="399,-232.2 399,-254.2 769,-254.2 769,-232.2 399,-232.2"/>
<image xlink:href="../../images/foreignKeys.png" width="11px" height="12px" preserveAspectRatio="xMinYMin meet" x="404" y="-249.2"/>
<text text-anchor="start" x="419" y="-239.3" font-family="Helvetica,sans-Serif" font-size="11.00" fill="#000000">BINDING_CONSTANT_ID</text>
<polygon fill="none" stroke="#000000" points="399,-213.2 399,-232.2 769,-232.2 769,-213.2 399,-213.2"/>
<text text-anchor="start" x="402" y="-219.3" font-family="Helvetica,sans-Serif" font-size="11.00" fill="#000000">...</text>
<polygon fill="#ffffff" stroke="transparent" points="399,-194.2 399,-213.2 566,-213.2 566,-194.2 399,-194.2"/>
<polygon fill="none" stroke="#000000" points="399,-194.2 399,-213.2 566,-213.2 566,-194.2 399,-194.2"/>
<text text-anchor="start" x="402" y="-200.3" font-family="Helvetica,sans-Serif" font-size="11.00" fill="#000000">&lt; 3</text>
<polygon fill="#ffffff" stroke="transparent" points="566,-194.2 566,-213.2 683,-213.2 683,-194.2 566,-194.2"/>
<polygon fill="none" stroke="#000000" points="566,-194.2 566,-213.2 683,-213.2 683,-194.2 566,-194.2"/>
<text text-anchor="start" x="641.4956" y="-200.3" font-family="Helvetica,sans-Serif" font-size="11.00" fill="#000000">62 rows</text>
<polygon fill="#ffffff" stroke="transparent" points="683,-194.2 683,-213.2 769,-213.2 769,-194.2 683,-194.2"/>
<polygon fill="none" stroke="#000000" points="683,-194.2 683,-213.2 769,-213.2 769,-194.2 683,-194.2"/>
<text text-anchor="start" x="759.8862" y="-200.3" font-family="Helvetica,sans-Serif" font-size="11.00" fill="#000000"> &#160;</text>
</a>
</g>
</g>
<!-- ASSAY_TYPES -->
<g id="node2" class="node">
<title>ASSAY_TYPES</title>
<g id="a_node2"><a xlink:href="../../tables/ASSAY_TYPES.html" xlink:title="ASSAY_TYPES" target="_top">
<polygon fill="#ffffff" stroke="transparent" points="118.5,-237.7 118.5,-298.7 239.5,-298.7 239.5,-237.7 118.5,-237.7"/>
<polygon fill="#f5f5f5" stroke="transparent" points="119,-275.2 119,-298.2 240,-298.2 240,-275.2 119,-275.2"/>
<polygon fill="none" stroke="#000000" points="119,-275.2 119,-298.2 240,-298.2 240,-275.2 119,-275.2"/>
<text text-anchor="start" x="123.5711" y="-284.3" font-family="Helvetica,sans-Serif" font-weight="bold" font-size="11.00" fill="#000000">ASSAY_TYPES</text>
<text text-anchor="start" x="205.5219" y="-283.3" font-family="Helvetica,sans-Serif" font-size="11.00" fill="#000000">[table]</text>
<polygon fill="none" stroke="#000000" points="119,-256.2 119,-275.2 240,-275.2 240,-256.2 119,-256.2"/>
<text text-anchor="start" x="122" y="-262.3" font-family="Helvetica,sans-Serif" font-size="11.00" fill="#000000">...</text>
<polygon fill="#ffffff" stroke="transparent" points="119,-237.2 119,-256.2 153,-256.2 153,-237.2 119,-237.2"/>
<polygon fill="none" stroke="#000000" points="119,-237.2 119,-256.2 153,-256.2 153,-237.2 119,-237.2"/>
<text text-anchor="start" x="122" y="-243.3" font-family="Helvetica,sans-Serif" font-size="11.00" fill="#000000"> &#160;</text>
<polygon fill="#ffffff" stroke="transparent" points="153,-237.2 153,-256.2 208,-256.2 208,-237.2 153,-237.2"/>
<polygon fill="none" stroke="#000000" points="153,-237.2 153,-256.2 208,-256.2 208,-237.2 153,-237.2"/>
<text text-anchor="start" x="166.4956" y="-243.3" font-family="Helvetica,sans-Serif" font-size="11.00" fill="#000000">10 rows</text>
<polygon fill="#ffffff" stroke="transparent" points="208,-237.2 208,-256.2 240,-256.2 240,-237.2 208,-237.2"/>
<polygon fill="none" stroke="#000000" points="208,-237.2 208,-256.2 240,-256.2 240,-237.2 208,-237.2"/>
<text text-anchor="start" x="221.4053" y="-243.3" font-family="Helvetica,sans-Serif" font-size="11.00" fill="#000000">3 &gt;</text>
</a>
</g>
</g>
<!-- SUPPLEMENTS_ASSAY_TYPES_BINDING_CONSTANTS&#45;&gt;ASSAY_TYPES -->
<g id="edge1" class="edge">
<title>SUPPLEMENTS_ASSAY_TYPES_BINDING_CONSTANTS:w&#45;&gt;ASSAY_TYPES:e</title>
<path fill="none" stroke="#000000" d="M384.47,-265.2C325.5032,-265.2 305.5599,-265.2 240,-265.2"/>
<polygon fill="#000000" stroke="#000000" points="391,-265.2001 399,-268.8 395,-265.2 399,-265.2 399,-265.2 399,-265.2 395,-265.2 399,-261.6 391,-265.2001 391,-265.2001"/>
<ellipse fill="none" stroke="#000000" cx="387.8" cy="-265.2001" rx="3.2" ry="3.2"/>
</g>
<!-- BINDING_CONSTANTS -->
<g id="node3" class="node">
<title>BINDING_CONSTANTS</title>
<g id="a_node3"><a xlink:href="../../tables/BINDING_CONSTANTS.html" xlink:title="BINDING_CONSTANTS" target="_top">
<polygon fill="#ffffff" stroke="transparent" points="8,-38.2 8,-216.2 350,-216.2 350,-38.2 8,-38.2"/>
<polygon fill="#f5f5f5" stroke="transparent" points="10,-191.2 10,-214.2 348,-214.2 348,-191.2 10,-191.2"/>
<polygon fill="none" stroke="#000000" points="10,-191.2 10,-214.2 348,-214.2 348,-191.2 10,-191.2"/>
<text text-anchor="start" x="15" y="-200.3" font-family="Helvetica,sans-Serif" font-weight="bold" font-size="11.00" fill="#000000">BINDING_CONSTANTS</text>
<text text-anchor="start" x="313.0437" y="-199.3" font-family="Helvetica,sans-Serif" font-size="11.00" fill="#000000">[table]</text>
<polygon fill="none" stroke="#000000" points="10,-169.2 10,-191.2 177,-191.2 177,-169.2 10,-169.2"/>
<image xlink:href="../../images/primaryKeys.png" width="11px" height="12px" preserveAspectRatio="xMinYMin meet" x="15" y="-186.2"/>
<text text-anchor="start" x="30" y="-176.3" font-family="Helvetica,sans-Serif" font-size="11.00" fill="#000000">ID</text>
<polygon fill="none" stroke="#000000" points="177,-169.2 177,-191.2 348,-191.2 348,-169.2 177,-169.2"/>
<text text-anchor="start" x="180" y="-176.9" font-family="Helvetica,sans-Serif" font-size="11.00" fill="#000000">number[19]</text>
<polygon fill="none" stroke="#000000" points="10,-147.2 10,-169.2 177,-169.2 177,-147.2 10,-147.2"/>
<text text-anchor="start" x="30" y="-154.3" font-family="Helvetica,sans-Serif" font-size="11.00" fill="#000000">CREATED_AT</text>
<polygon fill="none" stroke="#000000" points="177,-147.2 177,-169.2 348,-169.2 348,-147.2 177,-147.2"/>
<text text-anchor="start" x="179.9896" y="-154.9" font-family="Helvetica,sans-Serif" font-size="11.00" fill="#000000">timestamp(6) with time zone[13,6]</text>
<polygon fill="none" stroke="#000000" points="10,-125.2 10,-147.2 177,-147.2 177,-125.2 10,-125.2"/>
<text text-anchor="start" x="30" y="-132.3" font-family="Helvetica,sans-Serif" font-size="11.00" fill="#000000">CREATED_BY</text>
<polygon fill="none" stroke="#000000" points="177,-125.2 177,-147.2 348,-147.2 348,-125.2 177,-125.2"/>
<text text-anchor="start" x="180" y="-132.9" font-family="Helvetica,sans-Serif" font-size="11.00" fill="#000000">number[19]</text>
<polygon fill="none" stroke="#000000" points="10,-103.2 10,-125.2 177,-125.2 177,-103.2 10,-103.2"/>
<text text-anchor="start" x="30" y="-110.3" font-family="Helvetica,sans-Serif" font-size="11.00" fill="#000000">UPDATED_AT</text>
<polygon fill="none" stroke="#000000" points="177,-103.2 177,-125.2 348,-125.2 348,-103.2 177,-103.2"/>
<text text-anchor="start" x="179.9896" y="-110.9" font-family="Helvetica,sans-Serif" font-size="11.00" fill="#000000">timestamp(6) with time zone[13,6]</text>
<polygon fill="none" stroke="#000000" points="10,-81.2 10,-103.2 177,-103.2 177,-81.2 10,-81.2"/>
<text text-anchor="start" x="30" y="-88.3" font-family="Helvetica,sans-Serif" font-size="11.00" fill="#000000">UPDATED_BY</text>
<polygon fill="none" stroke="#000000" points="177,-81.2 177,-103.2 348,-103.2 348,-81.2 177,-81.2"/>
<text text-anchor="start" x="180" y="-88.9" font-family="Helvetica,sans-Serif" font-size="11.00" fill="#000000">number[19]</text>
<polygon fill="none" stroke="#000000" points="10,-59.2 10,-81.2 177,-81.2 177,-59.2 10,-59.2"/>
<text text-anchor="start" x="30" y="-66.3" font-family="Helvetica,sans-Serif" font-size="11.00" fill="#000000">NAME</text>
<polygon fill="none" stroke="#000000" points="177,-59.2 177,-81.2 348,-81.2 348,-59.2 177,-59.2"/>
<text text-anchor="start" x="180" y="-66.9" font-family="Helvetica,sans-Serif" font-size="11.00" fill="#000000">varchar2[255]</text>
<polygon fill="#ffffff" stroke="transparent" points="10,-40.2 10,-59.2 85,-59.2 85,-40.2 10,-40.2"/>
<polygon fill="none" stroke="#000000" points="10,-40.2 10,-59.2 85,-59.2 85,-40.2 10,-40.2"/>
<text text-anchor="start" x="13" y="-46.3" font-family="Helvetica,sans-Serif" font-size="11.00" fill="#000000">&lt; 0</text>
<polygon fill="#ffffff" stroke="transparent" points="85,-40.2 85,-59.2 177,-59.2 177,-40.2 85,-40.2"/>
<polygon fill="none" stroke="#000000" points="85,-40.2 85,-59.2 177,-59.2 177,-40.2 85,-40.2"/>
<text text-anchor="start" x="141.6105" y="-46.3" font-family="Helvetica,sans-Serif" font-size="11.00" fill="#000000">7 rows</text>
<polygon fill="#ffffff" stroke="transparent" points="177,-40.2 177,-59.2 348,-59.2 348,-40.2 177,-40.2"/>
<polygon fill="none" stroke="#000000" points="177,-40.2 177,-59.2 348,-59.2 348,-40.2 177,-40.2"/>
<text text-anchor="start" x="329.4053" y="-46.3" font-family="Helvetica,sans-Serif" font-size="11.00" fill="#000000">1 &gt;</text>
<polygon fill="none" stroke="#000000" stroke-width="2" points="9,-39.2 9,-215.2 349,-215.2 349,-39.2 9,-39.2"/>
</a>
</g>
</g>
<!-- SUPPLEMENTS_ASSAY_TYPES_BINDING_CONSTANTS&#45;&gt;BINDING_CONSTANTS -->
<g id="edge2" class="edge">
<title>SUPPLEMENTS_ASSAY_TYPES_BINDING_CONSTANTS:w&#45;&gt;BINDING_CONSTANTS:e</title>
<path fill="none" stroke="#000000" d="M384.9033,-238.2565C368.525,-223.4048 377.8329,-180.2 348,-180.2"/>
<polygon fill="#000000" stroke="#000000" points="391.4507,-240.5526 397.8087,-246.5972 395.2254,-241.8763 399,-243.2 399,-243.2 399,-243.2 395.2254,-241.8763 400.1913,-239.8028 391.4507,-240.5526 391.4507,-240.5526"/>
<ellipse fill="none" stroke="#000000" cx="388.431" cy="-239.4936" rx="3.2" ry="3.2"/>
</g>
<!-- SUPPLEMENTS -->
<g id="node4" class="node">
<title>SUPPLEMENTS</title>
<g id="a_node4"><a xlink:href="../../tables/SUPPLEMENTS.html" xlink:title="SUPPLEMENTS" target="_top">
<polygon fill="#ffffff" stroke="transparent" points="117,-319.7 117,-380.7 241,-380.7 241,-319.7 117,-319.7"/>
<polygon fill="#f5f5f5" stroke="transparent" points="117,-357.2 117,-380.2 241,-380.2 241,-357.2 117,-357.2"/>
<polygon fill="none" stroke="#000000" points="117,-357.2 117,-380.2 241,-380.2 241,-357.2 117,-357.2"/>
<text text-anchor="start" x="121.5531" y="-366.3" font-family="Helvetica,sans-Serif" font-weight="bold" font-size="11.00" fill="#000000">SUPPLEMENTS</text>
<text text-anchor="start" x="206.5219" y="-365.3" font-family="Helvetica,sans-Serif" font-size="11.00" fill="#000000">[table]</text>
<polygon fill="none" stroke="#000000" points="117,-338.2 117,-357.2 241,-357.2 241,-338.2 117,-338.2"/>
<text text-anchor="start" x="120" y="-344.3" font-family="Helvetica,sans-Serif" font-size="11.00" fill="#000000">...</text>
<polygon fill="#ffffff" stroke="transparent" points="117,-319.2 117,-338.2 157,-338.2 157,-319.2 117,-319.2"/>
<polygon fill="none" stroke="#000000" points="117,-319.2 117,-338.2 157,-338.2 157,-319.2 117,-319.2"/>
<text text-anchor="start" x="120" y="-325.3" font-family="Helvetica,sans-Serif" font-size="11.00" fill="#000000">&lt; 1</text>
<polygon fill="#ffffff" stroke="transparent" points="157,-319.2 157,-338.2 210,-338.2 210,-319.2 157,-319.2"/>
<polygon fill="none" stroke="#000000" points="157,-319.2 157,-338.2 210,-338.2 210,-319.2 157,-319.2"/>
<text text-anchor="start" x="168.4956" y="-325.3" font-family="Helvetica,sans-Serif" font-size="11.00" fill="#000000">77 rows</text>
<polygon fill="#ffffff" stroke="transparent" points="210,-319.2 210,-338.2 241,-338.2 241,-319.2 210,-319.2"/>
<polygon fill="none" stroke="#000000" points="210,-319.2 210,-338.2 241,-338.2 241,-319.2 210,-319.2"/>
<text text-anchor="start" x="222.4053" y="-325.3" font-family="Helvetica,sans-Serif" font-size="11.00" fill="#000000">5 &gt;</text>
</a>
</g>
</g>
<!-- SUPPLEMENTS_ASSAY_TYPES_BINDING_CONSTANTS&#45;&gt;SUPPLEMENTS -->
<g id="edge3" class="edge">
<title>SUPPLEMENTS_ASSAY_TYPES_BINDING_CONSTANTS:w&#45;&gt;SUPPLEMENTS:e</title>
<path fill="none" stroke="#000000" d="M384.7356,-290.3569C375.9869,-294.9356 371.3741,-303.494 358,-309.2 307.7117,-330.6552 295.6739,-347.2 241,-347.2"/>
<polygon fill="#000000" stroke="#000000" points="391.189,-288.9287 399.7779,-290.7149 395.0945,-288.0644 399,-287.2 399,-287.2 399,-287.2 395.0945,-288.0644 398.2221,-283.6851 391.189,-288.9287 391.189,-288.9287"/>
<ellipse fill="none" stroke="#000000" cx="388.0646" cy="-289.6202" rx="3.2" ry="3.2"/>
</g>
</g>
</svg>
