<?xml version="1.0" encoding="UTF-8" standalone="no"?>
<!DOCTYPE svg PUBLIC "-//W3C//DTD SVG 1.1//EN"
 "http://www.w3.org/Graphics/SVG/1.1/DTD/svg11.dtd">
<!-- Generated by graphviz version 2.40.1 (20161225.0304)
 -->
<!-- Title: oneDegreeRelationshipsDiagram Pages: 1 -->
<svg width="785pt" height="293pt"
 viewBox="0.00 0.00 785.00 292.70" xmlns="http://www.w3.org/2000/svg" xmlns:xlink="http://www.w3.org/1999/xlink">
<g id="graph0" class="graph" transform="scale(1 1) rotate(0) translate(4 288.7)">
<title>oneDegreeRelationshipsDiagram</title>
<polygon fill="#ffffff" stroke="transparent" points="-4,4 -4,-288.7 781,-288.7 781,4 -4,4"/>
<text text-anchor="middle" x="72.4936" y="-7.3" font-family="Helvetica,sans-Serif" font-size="11.00" fill="#000000">Generated by SchemaSpy</text>
<!-- SUPPLEMENTS_ASSAY_TYPES_BINDING_CONSTANTS -->
<g id="node1" class="node">
<title>SUPPLEMENTS_ASSAY_TYPES_BINDING_CONSTANTS</title>
<g id="a_node1"><a xlink:href="../../tables/SUPPLEMENTS_ASSAY_TYPES_BINDING_CONSTANTS.html" xlink:title="SUPPLEMENTS_ASSAY_TYPES_BINDING_CONSTANTS" target="_top">
<polygon fill="#ffffff" stroke="transparent" points="399,-131.7 399,-280.7 769,-280.7 769,-131.7 399,-131.7"/>
<polygon fill="#f5f5f5" stroke="transparent" points="399,-257.2 399,-280.2 769,-280.2 769,-257.2 399,-257.2"/>
<polygon fill="none" stroke="#000000" points="399,-257.2 399,-280.2 769,-280.2 769,-257.2 399,-257.2"/>
<text text-anchor="start" x="404" y="-266.3" font-family="Helvetica,sans-Serif" font-weight="bold" font-size="11.00" fill="#000000">SUPPLEMENTS_ASSAY_TYPES_BINDING_CONSTANTS</text>
<text text-anchor="start" x="734.0437" y="-265.3" font-family="Helvetica,sans-Serif" font-size="11.00" fill="#000000">[table]</text>
<polygon fill="none" stroke="#000000" points="399,-235.2 399,-257.2 769,-257.2 769,-235.2 399,-235.2"/>
<image xlink:href="../../images/primaryKeys.png" width="11px" height="12px" preserveAspectRatio="xMinYMin meet" x="404" y="-252.2"/>
<text text-anchor="start" x="419" y="-242.3" font-family="Helvetica,sans-Serif" font-size="11.00" fill="#000000">ID</text>
<polygon fill="none" stroke="#000000" points="399,-213.2 399,-235.2 769,-235.2 769,-213.2 399,-213.2"/>
<image xlink:href="../../images/foreignKeys.png" width="11px" height="12px" preserveAspectRatio="xMinYMin meet" x="404" y="-230.2"/>
<text text-anchor="start" x="419" y="-220.3" font-family="Helvetica,sans-Serif" font-size="11.00" fill="#000000">SUPPLEMENT_ID</text>
<polygon fill="none" stroke="#000000" points="399,-191.2 399,-213.2 769,-213.2 769,-191.2 399,-191.2"/>
<image xlink:href="../../images/foreignKeys.png" width="11px" height="12px" preserveAspectRatio="xMinYMin meet" x="404" y="-208.2"/>
<text text-anchor="start" x="419" y="-198.3" font-family="Helvetica,sans-Serif" font-size="11.00" fill="#000000">ASSAY_TYPE_ID</text>
<polygon fill="none" stroke="#000000" points="399,-169.2 399,-191.2 769,-191.2 769,-169.2 399,-169.2"/>
<image xlink:href="../../images/foreignKeys.png" width="11px" height="12px" preserveAspectRatio="xMinYMin meet" x="404" y="-186.2"/>
<text text-anchor="start" x="419" y="-176.3" font-family="Helvetica,sans-Serif" font-size="11.00" fill="#000000">BINDING_CONSTANT_ID</text>
<polygon fill="none" stroke="#000000" points="399,-150.2 399,-169.2 769,-169.2 769,-150.2 399,-150.2"/>
<text text-anchor="start" x="402" y="-156.3" font-family="Helvetica,sans-Serif" font-size="11.00" fill="#000000">...</text>
<polygon fill="#ffffff" stroke="transparent" points="399,-131.2 399,-150.2 566,-150.2 566,-131.2 399,-131.2"/>
<polygon fill="none" stroke="#000000" points="399,-131.2 399,-150.2 566,-150.2 566,-131.2 399,-131.2"/>
<text text-anchor="start" x="402" y="-137.3" font-family="Helvetica,sans-Serif" font-size="11.00" fill="#000000">&lt; 3</text>
<polygon fill="#ffffff" stroke="transparent" points="566,-131.2 566,-150.2 683,-150.2 683,-131.2 566,-131.2"/>
<polygon fill="none" stroke="#000000" points="566,-131.2 566,-150.2 683,-150.2 683,-131.2 566,-131.2"/>
<text text-anchor="start" x="641.4956" y="-137.3" font-family="Helvetica,sans-Serif" font-size="11.00" fill="#000000">62 rows</text>
<polygon fill="#ffffff" stroke="transparent" points="683,-131.2 683,-150.2 769,-150.2 769,-131.2 683,-131.2"/>
<polygon fill="none" stroke="#000000" points="683,-131.2 683,-150.2 769,-150.2 769,-131.2 683,-131.2"/>
<text text-anchor="start" x="759.8862" y="-137.3" font-family="Helvetica,sans-Serif" font-size="11.00" fill="#000000"> &#160;</text>
</a>
</g>
</g>
<!-- BINDING_CONSTANTS -->
<g id="node2" class="node">
<title>BINDING_CONSTANTS</title>
<g id="a_node2"><a xlink:href="../../tables/BINDING_CONSTANTS.html" xlink:title="BINDING_CONSTANTS" target="_top">
<polygon fill="#ffffff" stroke="transparent" points="8,-38.2 8,-216.2 350,-216.2 350,-38.2 8,-38.2"/>
<polygon fill="#f5f5f5" stroke="transparent" points="10,-191.2 10,-214.2 348,-214.2 348,-191.2 10,-191.2"/>
<polygon fill="none" stroke="#000000" points="10,-191.2 10,-214.2 348,-214.2 348,-191.2 10,-191.2"/>
<text text-anchor="start" x="15" y="-200.3" font-family="Helvetica,sans-Serif" font-weight="bold" font-size="11.00" fill="#000000">BINDING_CONSTANTS</text>
<text text-anchor="start" x="313.0437" y="-199.3" font-family="Helvetica,sans-Serif" font-size="11.00" fill="#000000">[table]</text>
<polygon fill="none" stroke="#000000" points="10,-169.2 10,-191.2 177,-191.2 177,-169.2 10,-169.2"/>
<image xlink:href="../../images/primaryKeys.png" width="11px" height="12px" preserveAspectRatio="xMinYMin meet" x="15" y="-186.2"/>
<text text-anchor="start" x="30" y="-176.3" font-family="Helvetica,sans-Serif" font-size="11.00" fill="#000000">ID</text>
<polygon fill="none" stroke="#000000" points="177,-169.2 177,-191.2 348,-191.2 348,-169.2 177,-169.2"/>
<text text-anchor="start" x="180" y="-176.9" font-family="Helvetica,sans-Serif" font-size="11.00" fill="#000000">number[19]</text>
<polygon fill="none" stroke="#000000" points="10,-147.2 10,-169.2 177,-169.2 177,-147.2 10,-147.2"/>
<text text-anchor="start" x="30" y="-154.3" font-family="Helvetica,sans-Serif" font-size="11.00" fill="#000000">CREATED_AT</text>
<polygon fill="none" stroke="#000000" points="177,-147.2 177,-169.2 348,-169.2 348,-147.2 177,-147.2"/>
<text text-anchor="start" x="179.9896" y="-154.9" font-family="Helvetica,sans-Serif" font-size="11.00" fill="#000000">timestamp(6) with time zone[13,6]</text>
<polygon fill="none" stroke="#000000" points="10,-125.2 10,-147.2 177,-147.2 177,-125.2 10,-125.2"/>
<text text-anchor="start" x="30" y="-132.3" font-family="Helvetica,sans-Serif" font-size="11.00" fill="#000000">CREATED_BY</text>
<polygon fill="none" stroke="#000000" points="177,-125.2 177,-147.2 348,-147.2 348,-125.2 177,-125.2"/>
<text text-anchor="start" x="180" y="-132.9" font-family="Helvetica,sans-Serif" font-size="11.00" fill="#000000">number[19]</text>
<polygon fill="none" stroke="#000000" points="10,-103.2 10,-125.2 177,-125.2 177,-103.2 10,-103.2"/>
<text text-anchor="start" x="30" y="-110.3" font-family="Helvetica,sans-Serif" font-size="11.00" fill="#000000">UPDATED_AT</text>
<polygon fill="none" stroke="#000000" points="177,-103.2 177,-125.2 348,-125.2 348,-103.2 177,-103.2"/>
<text text-anchor="start" x="179.9896" y="-110.9" font-family="Helvetica,sans-Serif" font-size="11.00" fill="#000000">timestamp(6) with time zone[13,6]</text>
<polygon fill="none" stroke="#000000" points="10,-81.2 10,-103.2 177,-103.2 177,-81.2 10,-81.2"/>
<text text-anchor="start" x="30" y="-88.3" font-family="Helvetica,sans-Serif" font-size="11.00" fill="#000000">UPDATED_BY</text>
<polygon fill="none" stroke="#000000" points="177,-81.2 177,-103.2 348,-103.2 348,-81.2 177,-81.2"/>
<text text-anchor="start" x="180" y="-88.9" font-family="Helvetica,sans-Serif" font-size="11.00" fill="#000000">number[19]</text>
<polygon fill="none" stroke="#000000" points="10,-59.2 10,-81.2 177,-81.2 177,-59.2 10,-59.2"/>
<text text-anchor="start" x="30" y="-66.3" font-family="Helvetica,sans-Serif" font-size="11.00" fill="#000000">NAME</text>
<polygon fill="none" stroke="#000000" points="177,-59.2 177,-81.2 348,-81.2 348,-59.2 177,-59.2"/>
<text text-anchor="start" x="180" y="-66.9" font-family="Helvetica,sans-Serif" font-size="11.00" fill="#000000">varchar2[255]</text>
<polygon fill="#ffffff" stroke="transparent" points="10,-40.2 10,-59.2 85,-59.2 85,-40.2 10,-40.2"/>
<polygon fill="none" stroke="#000000" points="10,-40.2 10,-59.2 85,-59.2 85,-40.2 10,-40.2"/>
<text text-anchor="start" x="13" y="-46.3" font-family="Helvetica,sans-Serif" font-size="11.00" fill="#000000">&lt; 0</text>
<polygon fill="#ffffff" stroke="transparent" points="85,-40.2 85,-59.2 177,-59.2 177,-40.2 85,-40.2"/>
<polygon fill="none" stroke="#000000" points="85,-40.2 85,-59.2 177,-59.2 177,-40.2 85,-40.2"/>
<text text-anchor="start" x="141.6105" y="-46.3" font-family="Helvetica,sans-Serif" font-size="11.00" fill="#000000">7 rows</text>
<polygon fill="#ffffff" stroke="transparent" points="177,-40.2 177,-59.2 348,-59.2 348,-40.2 177,-40.2"/>
<polygon fill="none" stroke="#000000" points="177,-40.2 177,-59.2 348,-59.2 348,-40.2 177,-40.2"/>
<text text-anchor="start" x="329.4053" y="-46.3" font-family="Helvetica,sans-Serif" font-size="11.00" fill="#000000">1 &gt;</text>
<polygon fill="none" stroke="#000000" stroke-width="2" points="9,-39.2 9,-215.2 349,-215.2 349,-39.2 9,-39.2"/>
</a>
</g>
</g>
<!-- SUPPLEMENTS_ASSAY_TYPES_BINDING_CONSTANTS&#45;&gt;BINDING_CONSTANTS -->
<g id="edge1" class="edge">
<title>SUPPLEMENTS_ASSAY_TYPES_BINDING_CONSTANTS:w&#45;&gt;BINDING_CONSTANTS:e</title>
<path fill="none" stroke="#000000" d="M384.276,-180.2C372.2815,-180.2 364.8229,-180.2 348,-180.2"/>
<polygon fill="#000000" stroke="#000000" points="391,-180.2001 399,-183.8 395,-180.2 399,-180.2 399,-180.2 399,-180.2 395,-180.2 399,-176.6 391,-180.2001 391,-180.2001"/>
<ellipse fill="none" stroke="#000000" cx="387.8" cy="-180.2001" rx="3.2" ry="3.2"/>
</g>
</g>
</svg>
