<?xml version="1.0" encoding="UTF-8" standalone="no"?>
<!DOCTYPE svg PUBLIC "-//W3C//DTD SVG 1.1//EN"
 "http://www.w3.org/Graphics/SVG/1.1/DTD/svg11.dtd">
<!-- Generated by graphviz version 2.40.1 (20161225.0304)
 -->
<!-- Title: oneDegreeRelationshipsDiagram Pages: 1 -->
<svg width="719pt" height="355pt"
 viewBox="0.00 0.00 719.00 354.70" xmlns="http://www.w3.org/2000/svg" xmlns:xlink="http://www.w3.org/1999/xlink">
<g id="graph0" class="graph" transform="scale(1 1) rotate(0) translate(4 350.7)">
<title>oneDegreeRelationshipsDiagram</title>
<polygon fill="#ffffff" stroke="transparent" points="-4,4 -4,-350.7 715,-350.7 715,4 -4,4"/>
<text text-anchor="middle" x="72.4936" y="-7.3" font-family="Helvetica,sans-Serif" font-size="11.00" fill="#000000">Generated by SchemaSpy</text>
<!-- BIOREGISTER_CLONES -->
<g id="node1" class="node">
<title>BIOREGISTER_CLONES</title>
<g id="a_node1"><a xlink:href="../../tables/BIOREGISTER_CLONES.html" xlink:title="BIOREGISTER_CLONES" target="_top">
<polygon fill="#ffffff" stroke="transparent" points="358,-54.7 358,-342.7 703,-342.7 703,-54.7 358,-54.7"/>
<polygon fill="#f5f5f5" stroke="transparent" points="360.5,-317.7 360.5,-340.7 701.5,-340.7 701.5,-317.7 360.5,-317.7"/>
<polygon fill="none" stroke="#000000" points="360.5,-317.7 360.5,-340.7 701.5,-340.7 701.5,-317.7 360.5,-317.7"/>
<text text-anchor="start" x="365.5" y="-326.8" font-family="Helvetica,sans-Serif" font-weight="bold" font-size="11.00" fill="#000000">BIOREGISTER_CLONES</text>
<text text-anchor="start" x="666.5437" y="-325.8" font-family="Helvetica,sans-Serif" font-size="11.00" fill="#000000">[table]</text>
<polygon fill="none" stroke="#000000" points="360.5,-295.7 360.5,-317.7 530.5,-317.7 530.5,-295.7 360.5,-295.7"/>
<image xlink:href="../../images/primaryKeys.png" width="11px" height="12px" preserveAspectRatio="xMinYMin meet" x="365.5" y="-312.7"/>
<text text-anchor="start" x="380.5" y="-302.8" font-family="Helvetica,sans-Serif" font-size="11.00" fill="#000000">ID</text>
<polygon fill="none" stroke="#000000" points="530.5,-295.7 530.5,-317.7 701.5,-317.7 701.5,-295.7 530.5,-295.7"/>
<text text-anchor="start" x="533.5" y="-303.4" font-family="Helvetica,sans-Serif" font-size="11.00" fill="#000000">number[19]</text>
<polygon fill="none" stroke="#000000" points="360.5,-273.7 360.5,-295.7 530.5,-295.7 530.5,-273.7 360.5,-273.7"/>
<text text-anchor="start" x="380.5" y="-280.8" font-family="Helvetica,sans-Serif" font-size="11.00" fill="#000000">CREATED_AT</text>
<polygon fill="none" stroke="#000000" points="530.5,-273.7 530.5,-295.7 701.5,-295.7 701.5,-273.7 530.5,-273.7"/>
<text text-anchor="start" x="533.4896" y="-281.4" font-family="Helvetica,sans-Serif" font-size="11.00" fill="#000000">timestamp(6) with time zone[13,6]</text>
<polygon fill="none" stroke="#000000" points="360.5,-251.7 360.5,-273.7 530.5,-273.7 530.5,-251.7 360.5,-251.7"/>
<text text-anchor="start" x="380.5" y="-258.8" font-family="Helvetica,sans-Serif" font-size="11.00" fill="#000000">CREATED_BY</text>
<polygon fill="none" stroke="#000000" points="530.5,-251.7 530.5,-273.7 701.5,-273.7 701.5,-251.7 530.5,-251.7"/>
<text text-anchor="start" x="533.5" y="-259.4" font-family="Helvetica,sans-Serif" font-size="11.00" fill="#000000">number[19]</text>
<polygon fill="none" stroke="#000000" points="360.5,-229.7 360.5,-251.7 530.5,-251.7 530.5,-229.7 360.5,-229.7"/>
<text text-anchor="start" x="380.5" y="-236.8" font-family="Helvetica,sans-Serif" font-size="11.00" fill="#000000">UPDATED_AT</text>
<polygon fill="none" stroke="#000000" points="530.5,-229.7 530.5,-251.7 701.5,-251.7 701.5,-229.7 530.5,-229.7"/>
<text text-anchor="start" x="533.4896" y="-237.4" font-family="Helvetica,sans-Serif" font-size="11.00" fill="#000000">timestamp(6) with time zone[13,6]</text>
<polygon fill="none" stroke="#000000" points="360.5,-207.7 360.5,-229.7 530.5,-229.7 530.5,-207.7 360.5,-207.7"/>
<text text-anchor="start" x="380.5" y="-214.8" font-family="Helvetica,sans-Serif" font-size="11.00" fill="#000000">UPDATED_BY</text>
<polygon fill="none" stroke="#000000" points="530.5,-207.7 530.5,-229.7 701.5,-229.7 701.5,-207.7 530.5,-207.7"/>
<text text-anchor="start" x="533.5" y="-215.4" font-family="Helvetica,sans-Serif" font-size="11.00" fill="#000000">number[19]</text>
<polygon fill="none" stroke="#000000" points="360.5,-185.7 360.5,-207.7 530.5,-207.7 530.5,-185.7 360.5,-185.7"/>
<image xlink:href="../../images/foreignKeys.png" width="11px" height="12px" preserveAspectRatio="xMinYMin meet" x="365.5" y="-202.7"/>
<text text-anchor="start" x="380.5" y="-192.8" font-family="Helvetica,sans-Serif" font-size="11.00" fill="#000000">CLONE_FORM_ID</text>
<polygon fill="none" stroke="#000000" points="530.5,-185.7 530.5,-207.7 701.5,-207.7 701.5,-185.7 530.5,-185.7"/>
<text text-anchor="start" x="533.5" y="-193.4" font-family="Helvetica,sans-Serif" font-size="11.00" fill="#000000">number[19]</text>
<polygon fill="none" stroke="#000000" points="360.5,-163.7 360.5,-185.7 530.5,-185.7 530.5,-163.7 360.5,-163.7"/>
<image xlink:href="../../images/primaryKeys.png" width="11px" height="12px" preserveAspectRatio="xMinYMin meet" x="365.5" y="-180.7"/>
<text text-anchor="start" x="380.5" y="-170.8" font-family="Helvetica,sans-Serif" font-size="11.00" fill="#000000">CLONE_ID</text>
<polygon fill="none" stroke="#000000" points="530.5,-163.7 530.5,-185.7 701.5,-185.7 701.5,-163.7 530.5,-163.7"/>
<text text-anchor="start" x="533.5" y="-171.4" font-family="Helvetica,sans-Serif" font-size="11.00" fill="#000000">varchar2[255]</text>
<polygon fill="none" stroke="#000000" points="360.5,-141.7 360.5,-163.7 530.5,-163.7 530.5,-141.7 360.5,-141.7"/>
<text text-anchor="start" x="380.5" y="-148.8" font-family="Helvetica,sans-Serif" font-size="11.00" fill="#000000">SEQUENCE_ID</text>
<polygon fill="none" stroke="#000000" points="530.5,-141.7 530.5,-163.7 701.5,-163.7 701.5,-141.7 530.5,-141.7"/>
<text text-anchor="start" x="533.5" y="-149.4" font-family="Helvetica,sans-Serif" font-size="11.00" fill="#000000">varchar2[255]</text>
<polygon fill="none" stroke="#000000" points="360.5,-119.7 360.5,-141.7 530.5,-141.7 530.5,-119.7 360.5,-119.7"/>
<text text-anchor="start" x="380.5" y="-126.8" font-family="Helvetica,sans-Serif" font-size="11.00" fill="#000000">CLONE_SYNTHESIS_ID</text>
<polygon fill="none" stroke="#000000" points="530.5,-119.7 530.5,-141.7 701.5,-141.7 701.5,-119.7 530.5,-119.7"/>
<text text-anchor="start" x="533.5" y="-127.4" font-family="Helvetica,sans-Serif" font-size="11.00" fill="#000000">varchar2[255]</text>
<polygon fill="none" stroke="#000000" points="360.5,-97.7 360.5,-119.7 530.5,-119.7 530.5,-97.7 360.5,-97.7"/>
<text text-anchor="start" x="380.5" y="-104.8" font-family="Helvetica,sans-Serif" font-size="11.00" fill="#000000">ORF_SEQUENCE</text>
<polygon fill="none" stroke="#000000" points="530.5,-97.7 530.5,-119.7 701.5,-119.7 701.5,-97.7 530.5,-97.7"/>
<text text-anchor="start" x="533.5" y="-105.4" font-family="Helvetica,sans-Serif" font-size="11.00" fill="#000000">clob[4000]</text>
<polygon fill="none" stroke="#000000" points="360.5,-75.7 360.5,-97.7 530.5,-97.7 530.5,-75.7 360.5,-75.7"/>
<text text-anchor="start" x="380.5" y="-82.8" font-family="Helvetica,sans-Serif" font-size="11.00" fill="#000000">EXCEL_CLONE_ID</text>
<polygon fill="none" stroke="#000000" points="530.5,-75.7 530.5,-97.7 701.5,-97.7 701.5,-75.7 530.5,-75.7"/>
<text text-anchor="start" x="533.5" y="-83.4" font-family="Helvetica,sans-Serif" font-size="11.00" fill="#000000">varchar2[255]</text>
<polygon fill="#ffffff" stroke="transparent" points="360.5,-56.7 360.5,-75.7 430.5,-75.7 430.5,-56.7 360.5,-56.7"/>
<polygon fill="none" stroke="#000000" points="360.5,-56.7 360.5,-75.7 430.5,-75.7 430.5,-56.7 360.5,-56.7"/>
<text text-anchor="start" x="363.5" y="-62.8" font-family="Helvetica,sans-Serif" font-size="11.00" fill="#000000">&lt; 1</text>
<polygon fill="#ffffff" stroke="transparent" points="430.5,-56.7 430.5,-75.7 530.5,-75.7 530.5,-56.7 430.5,-56.7"/>
<polygon fill="none" stroke="#000000" points="430.5,-56.7 430.5,-75.7 530.5,-75.7 530.5,-56.7 430.5,-56.7"/>
<text text-anchor="start" x="482.8807" y="-62.8" font-family="Helvetica,sans-Serif" font-size="11.00" fill="#000000">111 rows</text>
<polygon fill="#ffffff" stroke="transparent" points="530.5,-56.7 530.5,-75.7 701.5,-75.7 701.5,-56.7 530.5,-56.7"/>
<polygon fill="none" stroke="#000000" points="530.5,-56.7 530.5,-75.7 701.5,-75.7 701.5,-56.7 530.5,-56.7"/>
<text text-anchor="start" x="682.9053" y="-62.8" font-family="Helvetica,sans-Serif" font-size="11.00" fill="#000000">0 &gt;</text>
<polygon fill="none" stroke="#000000" stroke-width="2" points="359,-55.7 359,-341.7 702,-341.7 702,-55.7 359,-55.7"/>
</a>
</g>
</g>
<!-- CLONE_FORMS -->
<g id="node2" class="node">
<title>CLONE_FORMS</title>
<g id="a_node2"><a xlink:href="../../tables/CLONE_FORMS.html" xlink:title="CLONE_FORMS" target="_top">
<polygon fill="#ffffff" stroke="transparent" points="8,-38.2 8,-231.2 309,-231.2 309,-38.2 8,-38.2"/>
<polygon fill="#f5f5f5" stroke="transparent" points="8.5,-207.7 8.5,-230.7 309.5,-230.7 309.5,-207.7 8.5,-207.7"/>
<polygon fill="none" stroke="#000000" points="8.5,-207.7 8.5,-230.7 309.5,-230.7 309.5,-207.7 8.5,-207.7"/>
<text text-anchor="start" x="13.5" y="-216.8" font-family="Helvetica,sans-Serif" font-weight="bold" font-size="11.00" fill="#000000">CLONE_FORMS</text>
<text text-anchor="start" x="274.5437" y="-215.8" font-family="Helvetica,sans-Serif" font-size="11.00" fill="#000000">[table]</text>
<polygon fill="none" stroke="#000000" points="8.5,-185.7 8.5,-207.7 309.5,-207.7 309.5,-185.7 8.5,-185.7"/>
<image xlink:href="../../images/primaryKeys.png" width="11px" height="12px" preserveAspectRatio="xMinYMin meet" x="13.5" y="-202.7"/>
<text text-anchor="start" x="28.5" y="-192.8" font-family="Helvetica,sans-Serif" font-size="11.00" fill="#000000">ID</text>
<polygon fill="none" stroke="#000000" points="8.5,-163.7 8.5,-185.7 309.5,-185.7 309.5,-163.7 8.5,-163.7"/>
<image xlink:href="../../images/foreignKeys.png" width="11px" height="12px" preserveAspectRatio="xMinYMin meet" x="13.5" y="-180.7"/>
<text text-anchor="start" x="28.5" y="-170.8" font-family="Helvetica,sans-Serif" font-size="11.00" fill="#000000">ISOFORM_ID</text>
<polygon fill="none" stroke="#000000" points="8.5,-141.7 8.5,-163.7 309.5,-163.7 309.5,-141.7 8.5,-141.7"/>
<image xlink:href="../../images/primaryKeys.png" width="11px" height="12px" preserveAspectRatio="xMinYMin meet" x="13.5" y="-158.7"/>
<text text-anchor="start" x="28.5" y="-148.8" font-family="Helvetica,sans-Serif" font-size="11.00" fill="#000000">NAME</text>
<polygon fill="none" stroke="#000000" points="8.5,-119.7 8.5,-141.7 309.5,-141.7 309.5,-119.7 8.5,-119.7"/>
<image xlink:href="../../images/foreignKeys.png" width="11px" height="12px" preserveAspectRatio="xMinYMin meet" x="13.5" y="-136.7"/>
<text text-anchor="start" x="28.5" y="-126.8" font-family="Helvetica,sans-Serif" font-size="11.00" fill="#000000">TARGET_FORM_ID</text>
<polygon fill="none" stroke="#000000" points="8.5,-97.7 8.5,-119.7 309.5,-119.7 309.5,-97.7 8.5,-97.7"/>
<image xlink:href="../../images/foreignKeys.png" width="11px" height="12px" preserveAspectRatio="xMinYMin meet" x="13.5" y="-114.7"/>
<text text-anchor="start" x="28.5" y="-104.8" font-family="Helvetica,sans-Serif" font-size="11.00" fill="#000000">POST_TRANSLATIONAL_MODIFICATION_ID</text>
<polygon fill="none" stroke="#000000" points="8.5,-75.7 8.5,-97.7 309.5,-97.7 309.5,-75.7 8.5,-75.7"/>
<image xlink:href="../../images/foreignKeys.png" width="11px" height="12px" preserveAspectRatio="xMinYMin meet" x="13.5" y="-92.7"/>
<text text-anchor="start" x="28.5" y="-82.8" font-family="Helvetica,sans-Serif" font-size="11.00" fill="#000000">SPECIES_ID</text>
<polygon fill="none" stroke="#000000" points="8.5,-56.7 8.5,-75.7 309.5,-75.7 309.5,-56.7 8.5,-56.7"/>
<text text-anchor="start" x="11.5" y="-62.8" font-family="Helvetica,sans-Serif" font-size="11.00" fill="#000000">...</text>
<polygon fill="#ffffff" stroke="transparent" points="8.5,-37.7 8.5,-56.7 130.5,-56.7 130.5,-37.7 8.5,-37.7"/>
<polygon fill="none" stroke="#000000" points="8.5,-37.7 8.5,-56.7 130.5,-56.7 130.5,-37.7 8.5,-37.7"/>
<text text-anchor="start" x="11.5" y="-43.8" font-family="Helvetica,sans-Serif" font-size="11.00" fill="#000000">&lt; 4</text>
<polygon fill="#ffffff" stroke="transparent" points="130.5,-37.7 130.5,-56.7 231.5,-56.7 231.5,-37.7 130.5,-37.7"/>
<polygon fill="none" stroke="#000000" points="130.5,-37.7 130.5,-56.7 231.5,-56.7 231.5,-37.7 130.5,-37.7"/>
<text text-anchor="start" x="183.8807" y="-43.8" font-family="Helvetica,sans-Serif" font-size="11.00" fill="#000000">467 rows</text>
<polygon fill="#ffffff" stroke="transparent" points="231.5,-37.7 231.5,-56.7 309.5,-56.7 309.5,-37.7 231.5,-37.7"/>
<polygon fill="none" stroke="#000000" points="231.5,-37.7 231.5,-56.7 309.5,-56.7 309.5,-37.7 231.5,-37.7"/>
<text text-anchor="start" x="284.7904" y="-43.8" font-family="Helvetica,sans-Serif" font-size="11.00" fill="#000000">14 &gt;</text>
</a>
</g>
</g>
<!-- BIOREGISTER_CLONES&#45;&gt;CLONE_FORMS -->
<g id="edge1" class="edge">
<title>BIOREGISTER_CLONES:w&#45;&gt;CLONE_FORMS:e</title>
<path fill="none" stroke="#000000" d="M345.776,-196.7C333.7815,-196.7 326.3229,-196.7 309.5,-196.7"/>
<polygon fill="#000000" stroke="#000000" points="352.5,-196.7001 360.5,-200.3 356.5,-196.7 360.5,-196.7 360.5,-196.7 360.5,-196.7 356.5,-196.7 360.5,-193.1 352.5,-196.7001 352.5,-196.7001"/>
<ellipse fill="none" stroke="#000000" cx="349.3" cy="-196.7001" rx="3.2" ry="3.2"/>
</g>
</g>
</svg>
