<?xml version="1.0" encoding="UTF-8" standalone="no"?>
<!DOCTYPE svg PUBLIC "-//W3C//DTD SVG 1.1//EN"
 "http://www.w3.org/Graphics/SVG/1.1/DTD/svg11.dtd">
<!-- Generated by graphviz version 2.40.1 (20161225.0304)
 -->
<!-- Title: oneDegreeRelationshipsDiagram Pages: 1 -->
<svg width="591pt" height="403pt"
 viewBox="0.00 0.00 591.00 402.70" xmlns="http://www.w3.org/2000/svg" xmlns:xlink="http://www.w3.org/1999/xlink">
<g id="graph0" class="graph" transform="scale(1 1) rotate(0) translate(4 398.7)">
<title>oneDegreeRelationshipsDiagram</title>
<polygon fill="#ffffff" stroke="transparent" points="-4,4 -4,-398.7 587,-398.7 587,4 -4,4"/>
<text text-anchor="middle" x="72.4936" y="-7.3" font-family="Helvetica,sans-Serif" font-size="11.00" fill="#000000">Generated by SchemaSpy</text>
<!-- TRACER_SYNTHESIS_REQUESTS -->
<g id="node1" class="node">
<title>TRACER_SYNTHESIS_REQUESTS</title>
<g id="a_node1"><a xlink:href="../../tables/TRACER_SYNTHESIS_REQUESTS.html" xlink:title="TRACER_SYNTHESIS_REQUESTS" target="_top">
<polygon fill="#ffffff" stroke="transparent" points="343,-43.7 343,-390.7 575,-390.7 575,-43.7 343,-43.7"/>
<polygon fill="#f5f5f5" stroke="transparent" points="343,-367.2 343,-390.2 575,-390.2 575,-367.2 343,-367.2"/>
<polygon fill="none" stroke="#000000" points="343,-367.2 343,-390.2 575,-390.2 575,-367.2 343,-367.2"/>
<text text-anchor="start" x="348" y="-376.3" font-family="Helvetica,sans-Serif" font-weight="bold" font-size="11.00" fill="#000000">TRACER_SYNTHESIS_REQUESTS</text>
<text text-anchor="start" x="540.0437" y="-375.3" font-family="Helvetica,sans-Serif" font-size="11.00" fill="#000000">[table]</text>
<polygon fill="none" stroke="#000000" points="343,-345.2 343,-367.2 575,-367.2 575,-345.2 343,-345.2"/>
<image xlink:href="../../images/primaryKeys.png" width="11px" height="12px" preserveAspectRatio="xMinYMin meet" x="348" y="-362.2"/>
<text text-anchor="start" x="363" y="-352.3" font-family="Helvetica,sans-Serif" font-size="11.00" fill="#000000">ID</text>
<polygon fill="none" stroke="#000000" points="343,-323.2 343,-345.2 575,-345.2 575,-323.2 343,-323.2"/>
<image xlink:href="../../images/foreignKeys.png" width="11px" height="12px" preserveAspectRatio="xMinYMin meet" x="348" y="-340.2"/>
<text text-anchor="start" x="363" y="-330.3" font-family="Helvetica,sans-Serif" font-size="11.00" fill="#000000">TRACER_TYPE_ID</text>
<polygon fill="none" stroke="#000000" points="343,-301.2 343,-323.2 575,-323.2 575,-301.2 343,-301.2"/>
<image xlink:href="../../images/foreignKeys.png" width="11px" height="12px" preserveAspectRatio="xMinYMin meet" x="348" y="-318.2"/>
<text text-anchor="start" x="363" y="-308.3" font-family="Helvetica,sans-Serif" font-size="11.00" fill="#000000">TARGET_ID</text>
<polygon fill="none" stroke="#000000" points="343,-279.2 343,-301.2 575,-301.2 575,-279.2 343,-279.2"/>
<image xlink:href="../../images/foreignKeys.png" width="11px" height="12px" preserveAspectRatio="xMinYMin meet" x="348" y="-296.2"/>
<text text-anchor="start" x="363" y="-286.3" font-family="Helvetica,sans-Serif" font-size="11.00" fill="#000000">OFF_DNA_ID</text>
<polygon fill="none" stroke="#000000" points="343,-257.2 343,-279.2 575,-279.2 575,-257.2 343,-257.2"/>
<image xlink:href="../../images/foreignKeys.png" width="11px" height="12px" preserveAspectRatio="xMinYMin meet" x="348" y="-274.2"/>
<text text-anchor="start" x="363" y="-264.3" font-family="Helvetica,sans-Serif" font-size="11.00" fill="#000000">OFF_DNA_IC50_ID</text>
<polygon fill="none" stroke="#000000" points="343,-235.2 343,-257.2 575,-257.2 575,-235.2 343,-235.2"/>
<image xlink:href="../../images/foreignKeys.png" width="11px" height="12px" preserveAspectRatio="xMinYMin meet" x="348" y="-252.2"/>
<text text-anchor="start" x="363" y="-242.3" font-family="Helvetica,sans-Serif" font-size="11.00" fill="#000000">TARGET_FORM_ID</text>
<polygon fill="none" stroke="#000000" points="343,-213.2 343,-235.2 575,-235.2 575,-213.2 343,-213.2"/>
<image xlink:href="../../images/foreignKeys.png" width="11px" height="12px" preserveAspectRatio="xMinYMin meet" x="348" y="-230.2"/>
<text text-anchor="start" x="363" y="-220.3" font-family="Helvetica,sans-Serif" font-size="11.00" fill="#000000">ASSIGNEE_ID</text>
<polygon fill="none" stroke="#000000" points="343,-191.2 343,-213.2 575,-213.2 575,-191.2 343,-191.2"/>
<image xlink:href="../../images/foreignKeys.png" width="11px" height="12px" preserveAspectRatio="xMinYMin meet" x="348" y="-208.2"/>
<text text-anchor="start" x="363" y="-198.3" font-family="Helvetica,sans-Serif" font-size="11.00" fill="#000000">TARGET_CATEGORY_ID</text>
<polygon fill="none" stroke="#000000" points="343,-169.2 343,-191.2 575,-191.2 575,-169.2 343,-169.2"/>
<image xlink:href="../../images/foreignKeys.png" width="11px" height="12px" preserveAspectRatio="xMinYMin meet" x="348" y="-186.2"/>
<text text-anchor="start" x="363" y="-176.3" font-family="Helvetica,sans-Serif" font-size="11.00" fill="#000000">CHEMISTRY_ID</text>
<polygon fill="none" stroke="#000000" points="343,-147.2 343,-169.2 575,-169.2 575,-147.2 343,-147.2"/>
<image xlink:href="../../images/foreignKeys.png" width="11px" height="12px" preserveAspectRatio="xMinYMin meet" x="348" y="-164.2"/>
<text text-anchor="start" x="363" y="-154.3" font-family="Helvetica,sans-Serif" font-size="11.00" fill="#000000">REGISTRATION_ID</text>
<polygon fill="none" stroke="#000000" points="343,-125.2 343,-147.2 575,-147.2 575,-125.2 343,-125.2"/>
<image xlink:href="../../images/foreignKeys.png" width="11px" height="12px" preserveAspectRatio="xMinYMin meet" x="348" y="-142.2"/>
<text text-anchor="start" x="363" y="-132.3" font-family="Helvetica,sans-Serif" font-size="11.00" fill="#000000">HEAD_PIECE_ID</text>
<polygon fill="none" stroke="#000000" points="343,-103.2 343,-125.2 575,-125.2 575,-103.2 343,-103.2"/>
<image xlink:href="../../images/foreignKeys.png" width="11px" height="12px" preserveAspectRatio="xMinYMin meet" x="348" y="-120.2"/>
<text text-anchor="start" x="363" y="-110.3" font-family="Helvetica,sans-Serif" font-size="11.00" fill="#000000">QUANTIFICATION_METHOD_ID</text>
<polygon fill="none" stroke="#000000" points="343,-81.2 343,-103.2 575,-103.2 575,-81.2 343,-81.2"/>
<image xlink:href="../../images/foreignKeys.png" width="11px" height="12px" preserveAspectRatio="xMinYMin meet" x="348" y="-98.2"/>
<text text-anchor="start" x="363" y="-88.3" font-family="Helvetica,sans-Serif" font-size="11.00" fill="#000000">DELIVERED_CONDITION_ID</text>
<polygon fill="none" stroke="#000000" points="343,-62.2 343,-81.2 575,-81.2 575,-62.2 343,-62.2"/>
<text text-anchor="start" x="346" y="-68.3" font-family="Helvetica,sans-Serif" font-size="11.00" fill="#000000">...</text>
<polygon fill="#ffffff" stroke="transparent" points="343,-43.2 343,-62.2 440,-62.2 440,-43.2 343,-43.2"/>
<polygon fill="none" stroke="#000000" points="343,-43.2 343,-62.2 440,-62.2 440,-43.2 343,-43.2"/>
<text text-anchor="start" x="346" y="-49.3" font-family="Helvetica,sans-Serif" font-size="11.00" fill="#000000">&lt; 12</text>
<polygon fill="#ffffff" stroke="transparent" points="440,-43.2 440,-62.2 519,-62.2 519,-43.2 440,-43.2"/>
<polygon fill="none" stroke="#000000" points="440,-43.2 440,-62.2 519,-62.2 519,-43.2 440,-43.2"/>
<text text-anchor="start" x="477.4956" y="-49.3" font-family="Helvetica,sans-Serif" font-size="11.00" fill="#000000">21 rows</text>
<polygon fill="#ffffff" stroke="transparent" points="519,-43.2 519,-62.2 575,-62.2 575,-43.2 519,-43.2"/>
<polygon fill="none" stroke="#000000" points="519,-43.2 519,-62.2 575,-62.2 575,-43.2 519,-43.2"/>
<text text-anchor="start" x="556.4053" y="-49.3" font-family="Helvetica,sans-Serif" font-size="11.00" fill="#000000">2 &gt;</text>
</a>
</g>
</g>
<!-- CHEMISTRIES -->
<g id="node2" class="node">
<title>CHEMISTRIES</title>
<g id="a_node2"><a xlink:href="../../tables/CHEMISTRIES.html" xlink:title="CHEMISTRIES" target="_top">
<polygon fill="#ffffff" stroke="transparent" points="8,-38.2 8,-216.2 294,-216.2 294,-38.2 8,-38.2"/>
<polygon fill="#f5f5f5" stroke="transparent" points="10,-191.2 10,-214.2 292,-214.2 292,-191.2 10,-191.2"/>
<polygon fill="none" stroke="#000000" points="10,-191.2 10,-214.2 292,-214.2 292,-191.2 10,-191.2"/>
<text text-anchor="start" x="15" y="-200.3" font-family="Helvetica,sans-Serif" font-weight="bold" font-size="11.00" fill="#000000">CHEMISTRIES</text>
<text text-anchor="start" x="257.0437" y="-199.3" font-family="Helvetica,sans-Serif" font-size="11.00" fill="#000000">[table]</text>
<polygon fill="none" stroke="#000000" points="10,-169.2 10,-191.2 121,-191.2 121,-169.2 10,-169.2"/>
<image xlink:href="../../images/primaryKeys.png" width="11px" height="12px" preserveAspectRatio="xMinYMin meet" x="15" y="-186.2"/>
<text text-anchor="start" x="30" y="-176.3" font-family="Helvetica,sans-Serif" font-size="11.00" fill="#000000">ID</text>
<polygon fill="none" stroke="#000000" points="121,-169.2 121,-191.2 292,-191.2 292,-169.2 121,-169.2"/>
<text text-anchor="start" x="124" y="-176.9" font-family="Helvetica,sans-Serif" font-size="11.00" fill="#000000">number[19]</text>
<polygon fill="none" stroke="#000000" points="10,-147.2 10,-169.2 121,-169.2 121,-147.2 10,-147.2"/>
<text text-anchor="start" x="30" y="-154.3" font-family="Helvetica,sans-Serif" font-size="11.00" fill="#000000">CREATED_AT</text>
<polygon fill="none" stroke="#000000" points="121,-147.2 121,-169.2 292,-169.2 292,-147.2 121,-147.2"/>
<text text-anchor="start" x="123.9896" y="-154.9" font-family="Helvetica,sans-Serif" font-size="11.00" fill="#000000">timestamp(6) with time zone[13,6]</text>
<polygon fill="none" stroke="#000000" points="10,-125.2 10,-147.2 121,-147.2 121,-125.2 10,-125.2"/>
<text text-anchor="start" x="30" y="-132.3" font-family="Helvetica,sans-Serif" font-size="11.00" fill="#000000">CREATED_BY</text>
<polygon fill="none" stroke="#000000" points="121,-125.2 121,-147.2 292,-147.2 292,-125.2 121,-125.2"/>
<text text-anchor="start" x="124" y="-132.9" font-family="Helvetica,sans-Serif" font-size="11.00" fill="#000000">number[19]</text>
<polygon fill="none" stroke="#000000" points="10,-103.2 10,-125.2 121,-125.2 121,-103.2 10,-103.2"/>
<text text-anchor="start" x="30" y="-110.3" font-family="Helvetica,sans-Serif" font-size="11.00" fill="#000000">UPDATED_AT</text>
<polygon fill="none" stroke="#000000" points="121,-103.2 121,-125.2 292,-125.2 292,-103.2 121,-103.2"/>
<text text-anchor="start" x="123.9896" y="-110.9" font-family="Helvetica,sans-Serif" font-size="11.00" fill="#000000">timestamp(6) with time zone[13,6]</text>
<polygon fill="none" stroke="#000000" points="10,-81.2 10,-103.2 121,-103.2 121,-81.2 10,-81.2"/>
<text text-anchor="start" x="30" y="-88.3" font-family="Helvetica,sans-Serif" font-size="11.00" fill="#000000">UPDATED_BY</text>
<polygon fill="none" stroke="#000000" points="121,-81.2 121,-103.2 292,-103.2 292,-81.2 121,-81.2"/>
<text text-anchor="start" x="124" y="-88.9" font-family="Helvetica,sans-Serif" font-size="11.00" fill="#000000">number[19]</text>
<polygon fill="none" stroke="#000000" points="10,-59.2 10,-81.2 121,-81.2 121,-59.2 10,-59.2"/>
<text text-anchor="start" x="30" y="-66.3" font-family="Helvetica,sans-Serif" font-size="11.00" fill="#000000">NAME</text>
<polygon fill="none" stroke="#000000" points="121,-59.2 121,-81.2 292,-81.2 292,-59.2 121,-59.2"/>
<text text-anchor="start" x="124" y="-66.9" font-family="Helvetica,sans-Serif" font-size="11.00" fill="#000000">varchar2[255]</text>
<polygon fill="#ffffff" stroke="transparent" points="10,-40.2 10,-59.2 57,-59.2 57,-40.2 10,-40.2"/>
<polygon fill="none" stroke="#000000" points="10,-40.2 10,-59.2 57,-59.2 57,-40.2 10,-40.2"/>
<text text-anchor="start" x="13" y="-46.3" font-family="Helvetica,sans-Serif" font-size="11.00" fill="#000000">&lt; 0</text>
<polygon fill="#ffffff" stroke="transparent" points="57,-40.2 57,-59.2 121,-59.2 121,-40.2 57,-40.2"/>
<polygon fill="none" stroke="#000000" points="57,-40.2 57,-59.2 121,-59.2 121,-40.2 57,-40.2"/>
<text text-anchor="start" x="85.6105" y="-46.3" font-family="Helvetica,sans-Serif" font-size="11.00" fill="#000000">5 rows</text>
<polygon fill="#ffffff" stroke="transparent" points="121,-40.2 121,-59.2 292,-59.2 292,-40.2 121,-40.2"/>
<polygon fill="none" stroke="#000000" points="121,-40.2 121,-59.2 292,-59.2 292,-40.2 121,-40.2"/>
<text text-anchor="start" x="273.4053" y="-46.3" font-family="Helvetica,sans-Serif" font-size="11.00" fill="#000000">1 &gt;</text>
<polygon fill="none" stroke="#000000" stroke-width="2" points="9,-39.2 9,-215.2 293,-215.2 293,-39.2 9,-39.2"/>
</a>
</g>
</g>
<!-- TRACER_SYNTHESIS_REQUESTS&#45;&gt;CHEMISTRIES -->
<g id="edge1" class="edge">
<title>TRACER_SYNTHESIS_REQUESTS:w&#45;&gt;CHEMISTRIES:e</title>
<path fill="none" stroke="#000000" d="M328.276,-180.2C316.2815,-180.2 308.8229,-180.2 292,-180.2"/>
<polygon fill="#000000" stroke="#000000" points="335,-180.2001 343,-183.8 339,-180.2 343,-180.2 343,-180.2 343,-180.2 339,-180.2 343,-176.6 335,-180.2001 335,-180.2001"/>
<ellipse fill="none" stroke="#000000" cx="331.8" cy="-180.2001" rx="3.2" ry="3.2"/>
</g>
</g>
</svg>
