<?xml version="1.0" encoding="UTF-8" standalone="no"?>
<!DOCTYPE svg PUBLIC "-//W3C//DTD SVG 1.1//EN"
 "http://www.w3.org/Graphics/SVG/1.1/DTD/svg11.dtd">
<!-- Generated by graphviz version 2.40.1 (20161225.0304)
 -->
<!-- Title: oneDegreeRelationshipsDiagram Pages: 1 -->
<svg width="763pt" height="363pt"
 viewBox="0.00 0.00 763.00 362.70" xmlns="http://www.w3.org/2000/svg" xmlns:xlink="http://www.w3.org/1999/xlink">
<g id="graph0" class="graph" transform="scale(1 1) rotate(0) translate(4 358.7)">
<title>oneDegreeRelationshipsDiagram</title>
<polygon fill="#ffffff" stroke="transparent" points="-4,4 -4,-358.7 759,-358.7 759,4 -4,4"/>
<text text-anchor="middle" x="72.4936" y="-7.3" font-family="Helvetica,sans-Serif" font-size="11.00" fill="#000000">Generated by SchemaSpy</text>
<!-- CLONE_FORMS_SUBSTRATES -->
<g id="node1" class="node">
<title>CLONE_FORMS_SUBSTRATES</title>
<g id="a_node1"><a xlink:href="../../tables/CLONE_FORMS_SUBSTRATES.html" xlink:title="CLONE_FORMS_SUBSTRATES" target="_top">
<polygon fill="#ffffff" stroke="transparent" points="358,-150.7 358,-350.7 747,-350.7 747,-150.7 358,-150.7"/>
<polygon fill="#f5f5f5" stroke="transparent" points="360.5,-325.7 360.5,-348.7 745.5,-348.7 745.5,-325.7 360.5,-325.7"/>
<polygon fill="none" stroke="#000000" points="360.5,-325.7 360.5,-348.7 745.5,-348.7 745.5,-325.7 360.5,-325.7"/>
<text text-anchor="start" x="365.5" y="-334.8" font-family="Helvetica,sans-Serif" font-weight="bold" font-size="11.00" fill="#000000">CLONE_FORMS_SUBSTRATES</text>
<text text-anchor="start" x="710.5437" y="-333.8" font-family="Helvetica,sans-Serif" font-size="11.00" fill="#000000">[table]</text>
<polygon fill="none" stroke="#000000" points="360.5,-303.7 360.5,-325.7 574.5,-325.7 574.5,-303.7 360.5,-303.7"/>
<image xlink:href="../../images/primaryKeys.png" width="11px" height="12px" preserveAspectRatio="xMinYMin meet" x="365.5" y="-320.7"/>
<text text-anchor="start" x="380.5" y="-310.8" font-family="Helvetica,sans-Serif" font-size="11.00" fill="#000000">ID</text>
<polygon fill="none" stroke="#000000" points="574.5,-303.7 574.5,-325.7 745.5,-325.7 745.5,-303.7 574.5,-303.7"/>
<text text-anchor="start" x="577.5" y="-311.4" font-family="Helvetica,sans-Serif" font-size="11.00" fill="#000000">number[19]</text>
<polygon fill="none" stroke="#000000" points="360.5,-281.7 360.5,-303.7 574.5,-303.7 574.5,-281.7 360.5,-281.7"/>
<text text-anchor="start" x="380.5" y="-288.8" font-family="Helvetica,sans-Serif" font-size="11.00" fill="#000000">CREATED_AT</text>
<polygon fill="none" stroke="#000000" points="574.5,-281.7 574.5,-303.7 745.5,-303.7 745.5,-281.7 574.5,-281.7"/>
<text text-anchor="start" x="577.4896" y="-289.4" font-family="Helvetica,sans-Serif" font-size="11.00" fill="#000000">timestamp(6) with time zone[13,6]</text>
<polygon fill="none" stroke="#000000" points="360.5,-259.7 360.5,-281.7 574.5,-281.7 574.5,-259.7 360.5,-259.7"/>
<text text-anchor="start" x="380.5" y="-266.8" font-family="Helvetica,sans-Serif" font-size="11.00" fill="#000000">CREATED_BY</text>
<polygon fill="none" stroke="#000000" points="574.5,-259.7 574.5,-281.7 745.5,-281.7 745.5,-259.7 574.5,-259.7"/>
<text text-anchor="start" x="577.5" y="-267.4" font-family="Helvetica,sans-Serif" font-size="11.00" fill="#000000">number[19]</text>
<polygon fill="none" stroke="#000000" points="360.5,-237.7 360.5,-259.7 574.5,-259.7 574.5,-237.7 360.5,-237.7"/>
<text text-anchor="start" x="380.5" y="-244.8" font-family="Helvetica,sans-Serif" font-size="11.00" fill="#000000">UPDATED_AT</text>
<polygon fill="none" stroke="#000000" points="574.5,-237.7 574.5,-259.7 745.5,-259.7 745.5,-237.7 574.5,-237.7"/>
<text text-anchor="start" x="577.4896" y="-245.4" font-family="Helvetica,sans-Serif" font-size="11.00" fill="#000000">timestamp(6) with time zone[13,6]</text>
<polygon fill="none" stroke="#000000" points="360.5,-215.7 360.5,-237.7 574.5,-237.7 574.5,-215.7 360.5,-215.7"/>
<text text-anchor="start" x="380.5" y="-222.8" font-family="Helvetica,sans-Serif" font-size="11.00" fill="#000000">UPDATED_BY</text>
<polygon fill="none" stroke="#000000" points="574.5,-215.7 574.5,-237.7 745.5,-237.7 745.5,-215.7 574.5,-215.7"/>
<text text-anchor="start" x="577.5" y="-223.4" font-family="Helvetica,sans-Serif" font-size="11.00" fill="#000000">number[19]</text>
<polygon fill="none" stroke="#000000" points="360.5,-193.7 360.5,-215.7 574.5,-215.7 574.5,-193.7 360.5,-193.7"/>
<image xlink:href="../../images/foreignKeys.png" width="11px" height="12px" preserveAspectRatio="xMinYMin meet" x="365.5" y="-210.7"/>
<text text-anchor="start" x="380.5" y="-200.8" font-family="Helvetica,sans-Serif" font-size="11.00" fill="#000000">CLONE_FORM_ID</text>
<polygon fill="none" stroke="#000000" points="574.5,-193.7 574.5,-215.7 745.5,-215.7 745.5,-193.7 574.5,-193.7"/>
<text text-anchor="start" x="577.5" y="-201.4" font-family="Helvetica,sans-Serif" font-size="11.00" fill="#000000">number[19]</text>
<polygon fill="none" stroke="#000000" points="360.5,-171.7 360.5,-193.7 574.5,-193.7 574.5,-171.7 360.5,-171.7"/>
<image xlink:href="../../images/foreignKeys.png" width="11px" height="12px" preserveAspectRatio="xMinYMin meet" x="365.5" y="-188.7"/>
<text text-anchor="start" x="380.5" y="-178.8" font-family="Helvetica,sans-Serif" font-size="11.00" fill="#000000">SUBSTRATE_ID</text>
<polygon fill="none" stroke="#000000" points="574.5,-171.7 574.5,-193.7 745.5,-193.7 745.5,-171.7 574.5,-171.7"/>
<text text-anchor="start" x="577.5" y="-179.4" font-family="Helvetica,sans-Serif" font-size="11.00" fill="#000000">number[19]</text>
<polygon fill="#ffffff" stroke="transparent" points="360.5,-152.7 360.5,-171.7 458.5,-171.7 458.5,-152.7 360.5,-152.7"/>
<polygon fill="none" stroke="#000000" points="360.5,-152.7 360.5,-171.7 458.5,-171.7 458.5,-152.7 360.5,-152.7"/>
<text text-anchor="start" x="363.5" y="-158.8" font-family="Helvetica,sans-Serif" font-size="11.00" fill="#000000">&lt; 2</text>
<polygon fill="#ffffff" stroke="transparent" points="458.5,-152.7 458.5,-171.7 574.5,-171.7 574.5,-152.7 458.5,-152.7"/>
<polygon fill="none" stroke="#000000" points="458.5,-152.7 458.5,-171.7 574.5,-171.7 574.5,-152.7 458.5,-152.7"/>
<text text-anchor="start" x="539.1105" y="-158.8" font-family="Helvetica,sans-Serif" font-size="11.00" fill="#000000">0 rows</text>
<polygon fill="#ffffff" stroke="transparent" points="574.5,-152.7 574.5,-171.7 745.5,-171.7 745.5,-152.7 574.5,-152.7"/>
<polygon fill="none" stroke="#000000" points="574.5,-152.7 574.5,-171.7 745.5,-171.7 745.5,-152.7 574.5,-152.7"/>
<text text-anchor="start" x="726.9053" y="-158.8" font-family="Helvetica,sans-Serif" font-size="11.00" fill="#000000">0 &gt;</text>
<polygon fill="none" stroke="#000000" stroke-width="2" points="359,-151.7 359,-349.7 746,-349.7 746,-151.7 359,-151.7"/>
</a>
</g>
</g>
<!-- CLONE_FORMS -->
<g id="node2" class="node">
<title>CLONE_FORMS</title>
<g id="a_node2"><a xlink:href="../../tables/CLONE_FORMS.html" xlink:title="CLONE_FORMS" target="_top">
<polygon fill="#ffffff" stroke="transparent" points="8,-142.2 8,-335.2 309,-335.2 309,-142.2 8,-142.2"/>
<polygon fill="#f5f5f5" stroke="transparent" points="8.5,-311.7 8.5,-334.7 309.5,-334.7 309.5,-311.7 8.5,-311.7"/>
<polygon fill="none" stroke="#000000" points="8.5,-311.7 8.5,-334.7 309.5,-334.7 309.5,-311.7 8.5,-311.7"/>
<text text-anchor="start" x="13.5" y="-320.8" font-family="Helvetica,sans-Serif" font-weight="bold" font-size="11.00" fill="#000000">CLONE_FORMS</text>
<text text-anchor="start" x="274.5437" y="-319.8" font-family="Helvetica,sans-Serif" font-size="11.00" fill="#000000">[table]</text>
<polygon fill="none" stroke="#000000" points="8.5,-289.7 8.5,-311.7 309.5,-311.7 309.5,-289.7 8.5,-289.7"/>
<image xlink:href="../../images/primaryKeys.png" width="11px" height="12px" preserveAspectRatio="xMinYMin meet" x="13.5" y="-306.7"/>
<text text-anchor="start" x="28.5" y="-296.8" font-family="Helvetica,sans-Serif" font-size="11.00" fill="#000000">ID</text>
<polygon fill="none" stroke="#000000" points="8.5,-267.7 8.5,-289.7 309.5,-289.7 309.5,-267.7 8.5,-267.7"/>
<image xlink:href="../../images/foreignKeys.png" width="11px" height="12px" preserveAspectRatio="xMinYMin meet" x="13.5" y="-284.7"/>
<text text-anchor="start" x="28.5" y="-274.8" font-family="Helvetica,sans-Serif" font-size="11.00" fill="#000000">ISOFORM_ID</text>
<polygon fill="none" stroke="#000000" points="8.5,-245.7 8.5,-267.7 309.5,-267.7 309.5,-245.7 8.5,-245.7"/>
<image xlink:href="../../images/primaryKeys.png" width="11px" height="12px" preserveAspectRatio="xMinYMin meet" x="13.5" y="-262.7"/>
<text text-anchor="start" x="28.5" y="-252.8" font-family="Helvetica,sans-Serif" font-size="11.00" fill="#000000">NAME</text>
<polygon fill="none" stroke="#000000" points="8.5,-223.7 8.5,-245.7 309.5,-245.7 309.5,-223.7 8.5,-223.7"/>
<image xlink:href="../../images/foreignKeys.png" width="11px" height="12px" preserveAspectRatio="xMinYMin meet" x="13.5" y="-240.7"/>
<text text-anchor="start" x="28.5" y="-230.8" font-family="Helvetica,sans-Serif" font-size="11.00" fill="#000000">TARGET_FORM_ID</text>
<polygon fill="none" stroke="#000000" points="8.5,-201.7 8.5,-223.7 309.5,-223.7 309.5,-201.7 8.5,-201.7"/>
<image xlink:href="../../images/foreignKeys.png" width="11px" height="12px" preserveAspectRatio="xMinYMin meet" x="13.5" y="-218.7"/>
<text text-anchor="start" x="28.5" y="-208.8" font-family="Helvetica,sans-Serif" font-size="11.00" fill="#000000">POST_TRANSLATIONAL_MODIFICATION_ID</text>
<polygon fill="none" stroke="#000000" points="8.5,-179.7 8.5,-201.7 309.5,-201.7 309.5,-179.7 8.5,-179.7"/>
<image xlink:href="../../images/foreignKeys.png" width="11px" height="12px" preserveAspectRatio="xMinYMin meet" x="13.5" y="-196.7"/>
<text text-anchor="start" x="28.5" y="-186.8" font-family="Helvetica,sans-Serif" font-size="11.00" fill="#000000">SPECIES_ID</text>
<polygon fill="none" stroke="#000000" points="8.5,-160.7 8.5,-179.7 309.5,-179.7 309.5,-160.7 8.5,-160.7"/>
<text text-anchor="start" x="11.5" y="-166.8" font-family="Helvetica,sans-Serif" font-size="11.00" fill="#000000">...</text>
<polygon fill="#ffffff" stroke="transparent" points="8.5,-141.7 8.5,-160.7 130.5,-160.7 130.5,-141.7 8.5,-141.7"/>
<polygon fill="none" stroke="#000000" points="8.5,-141.7 8.5,-160.7 130.5,-160.7 130.5,-141.7 8.5,-141.7"/>
<text text-anchor="start" x="11.5" y="-147.8" font-family="Helvetica,sans-Serif" font-size="11.00" fill="#000000">&lt; 4</text>
<polygon fill="#ffffff" stroke="transparent" points="130.5,-141.7 130.5,-160.7 231.5,-160.7 231.5,-141.7 130.5,-141.7"/>
<polygon fill="none" stroke="#000000" points="130.5,-141.7 130.5,-160.7 231.5,-160.7 231.5,-141.7 130.5,-141.7"/>
<text text-anchor="start" x="183.8807" y="-147.8" font-family="Helvetica,sans-Serif" font-size="11.00" fill="#000000">467 rows</text>
<polygon fill="#ffffff" stroke="transparent" points="231.5,-141.7 231.5,-160.7 309.5,-160.7 309.5,-141.7 231.5,-141.7"/>
<polygon fill="none" stroke="#000000" points="231.5,-141.7 231.5,-160.7 309.5,-160.7 309.5,-141.7 231.5,-141.7"/>
<text text-anchor="start" x="284.7904" y="-147.8" font-family="Helvetica,sans-Serif" font-size="11.00" fill="#000000">14 &gt;</text>
</a>
</g>
</g>
<!-- CLONE_FORMS_SUBSTRATES&#45;&gt;CLONE_FORMS -->
<g id="edge1" class="edge">
<title>CLONE_FORMS_SUBSTRATES:w&#45;&gt;CLONE_FORMS:e</title>
<path fill="none" stroke="#000000" d="M346.4189,-208.825C322.1253,-227.2 351.7746,-300.7 309.5,-300.7"/>
<polygon fill="#000000" stroke="#000000" points="352.8226,-206.9491 361.5121,-208.1548 356.6613,-205.8245 360.5,-204.7 360.5,-204.7 360.5,-204.7 356.6613,-205.8245 359.4879,-201.2452 352.8226,-206.9491 352.8226,-206.9491"/>
<ellipse fill="none" stroke="#000000" cx="349.7517" cy="-207.8487" rx="3.2" ry="3.2"/>
</g>
<!-- SUBSTRATES -->
<g id="node3" class="node">
<title>SUBSTRATES</title>
<g id="a_node3"><a xlink:href="../../tables/SUBSTRATES.html" xlink:title="SUBSTRATES" target="_top">
<polygon fill="#ffffff" stroke="transparent" points="98,-38.2 98,-121.2 219,-121.2 219,-38.2 98,-38.2"/>
<polygon fill="#f5f5f5" stroke="transparent" points="98.5,-97.7 98.5,-120.7 219.5,-120.7 219.5,-97.7 98.5,-97.7"/>
<polygon fill="none" stroke="#000000" points="98.5,-97.7 98.5,-120.7 219.5,-120.7 219.5,-97.7 98.5,-97.7"/>
<text text-anchor="start" x="103.5" y="-106.8" font-family="Helvetica,sans-Serif" font-weight="bold" font-size="11.00" fill="#000000">SUBSTRATES</text>
<text text-anchor="start" x="184.5437" y="-105.8" font-family="Helvetica,sans-Serif" font-size="11.00" fill="#000000">[table]</text>
<polygon fill="none" stroke="#000000" points="98.5,-75.7 98.5,-97.7 219.5,-97.7 219.5,-75.7 98.5,-75.7"/>
<image xlink:href="../../images/primaryKeys.png" width="11px" height="12px" preserveAspectRatio="xMinYMin meet" x="103.5" y="-92.7"/>
<text text-anchor="start" x="118.5" y="-82.8" font-family="Helvetica,sans-Serif" font-size="11.00" fill="#000000">ID</text>
<polygon fill="none" stroke="#000000" points="98.5,-56.7 98.5,-75.7 219.5,-75.7 219.5,-56.7 98.5,-56.7"/>
<text text-anchor="start" x="101.5" y="-62.8" font-family="Helvetica,sans-Serif" font-size="11.00" fill="#000000">...</text>
<polygon fill="#ffffff" stroke="transparent" points="98.5,-37.7 98.5,-56.7 135.5,-56.7 135.5,-37.7 98.5,-37.7"/>
<polygon fill="none" stroke="#000000" points="98.5,-37.7 98.5,-56.7 135.5,-56.7 135.5,-37.7 98.5,-37.7"/>
<text text-anchor="start" x="101.5" y="-43.8" font-family="Helvetica,sans-Serif" font-size="11.00" fill="#000000"> &#160;</text>
<polygon fill="#ffffff" stroke="transparent" points="135.5,-37.7 135.5,-56.7 185.5,-56.7 185.5,-37.7 135.5,-37.7"/>
<polygon fill="none" stroke="#000000" points="135.5,-37.7 135.5,-56.7 185.5,-56.7 185.5,-37.7 135.5,-37.7"/>
<text text-anchor="start" x="150.1105" y="-43.8" font-family="Helvetica,sans-Serif" font-size="11.00" fill="#000000">0 rows</text>
<polygon fill="#ffffff" stroke="transparent" points="185.5,-37.7 185.5,-56.7 219.5,-56.7 219.5,-37.7 185.5,-37.7"/>
<polygon fill="none" stroke="#000000" points="185.5,-37.7 185.5,-56.7 219.5,-56.7 219.5,-37.7 185.5,-37.7"/>
<text text-anchor="start" x="200.9053" y="-43.8" font-family="Helvetica,sans-Serif" font-size="11.00" fill="#000000">1 &gt;</text>
</a>
</g>
</g>
<!-- CLONE_FORMS_SUBSTRATES&#45;&gt;SUBSTRATES -->
<g id="edge2" class="edge">
<title>CLONE_FORMS_SUBSTRATES:w&#45;&gt;SUBSTRATES:e</title>
<path fill="none" stroke="#000000" d="M346.2728,-178.7449C333.4389,-169.4436 335.7353,-145.8985 317,-131.7 278.9628,-102.8738 267.2261,-86.7 219.5,-86.7"/>
<polygon fill="#000000" stroke="#000000" points="352.7923,-180.5573 359.5358,-186.1685 356.6461,-181.6286 360.5,-182.7 360.5,-182.7 360.5,-182.7 356.6461,-181.6286 361.4642,-179.2315 352.7923,-180.5573 352.7923,-180.5573"/>
<ellipse fill="none" stroke="#000000" cx="349.7092" cy="-179.7002" rx="3.2" ry="3.2"/>
</g>
</g>
</svg>
