<?xml version="1.0" encoding="UTF-8" standalone="no"?>
<!DOCTYPE svg PUBLIC "-//W3C//DTD SVG 1.1//EN"
 "http://www.w3.org/Graphics/SVG/1.1/DTD/svg11.dtd">
<!-- Generated by graphviz version 2.40.1 (20161225.0304)
 -->
<!-- Title: oneDegreeRelationshipsDiagram Pages: 1 -->
<svg width="795pt" height="385pt"
 viewBox="0.00 0.00 795.00 384.70" xmlns="http://www.w3.org/2000/svg" xmlns:xlink="http://www.w3.org/1999/xlink">
<g id="graph0" class="graph" transform="scale(1 1) rotate(0) translate(4 380.7)">
<title>oneDegreeRelationshipsDiagram</title>
<polygon fill="#ffffff" stroke="transparent" points="-4,4 -4,-380.7 791,-380.7 791,4 -4,4"/>
<text text-anchor="middle" x="72.4936" y="-7.3" font-family="Helvetica,sans-Serif" font-size="11.00" fill="#000000">Generated by SchemaSpy</text>
<!-- CLONE_FORMS_ISOFORM_MOTIFS -->
<g id="node1" class="node">
<title>CLONE_FORMS_ISOFORM_MOTIFS</title>
<g id="a_node1"><a xlink:href="../../tables/CLONE_FORMS_ISOFORM_MOTIFS.html" xlink:title="CLONE_FORMS_ISOFORM_MOTIFS" target="_top">
<polygon fill="#ffffff" stroke="transparent" points="358,-150.7 358,-372.7 779,-372.7 779,-150.7 358,-150.7"/>
<polygon fill="#f5f5f5" stroke="transparent" points="360.5,-347.7 360.5,-370.7 777.5,-370.7 777.5,-347.7 360.5,-347.7"/>
<polygon fill="none" stroke="#000000" points="360.5,-347.7 360.5,-370.7 777.5,-370.7 777.5,-347.7 360.5,-347.7"/>
<text text-anchor="start" x="365.5" y="-356.8" font-family="Helvetica,sans-Serif" font-weight="bold" font-size="11.00" fill="#000000">CLONE_FORMS_ISOFORM_MOTIFS</text>
<text text-anchor="start" x="742.5437" y="-355.8" font-family="Helvetica,sans-Serif" font-size="11.00" fill="#000000">[table]</text>
<polygon fill="none" stroke="#000000" points="360.5,-325.7 360.5,-347.7 606.5,-347.7 606.5,-325.7 360.5,-325.7"/>
<image xlink:href="../../images/primaryKeys.png" width="11px" height="12px" preserveAspectRatio="xMinYMin meet" x="365.5" y="-342.7"/>
<text text-anchor="start" x="380.5" y="-332.8" font-family="Helvetica,sans-Serif" font-size="11.00" fill="#000000">ID</text>
<polygon fill="none" stroke="#000000" points="606.5,-325.7 606.5,-347.7 777.5,-347.7 777.5,-325.7 606.5,-325.7"/>
<text text-anchor="start" x="609.5" y="-333.4" font-family="Helvetica,sans-Serif" font-size="11.00" fill="#000000">number[19]</text>
<polygon fill="none" stroke="#000000" points="360.5,-303.7 360.5,-325.7 606.5,-325.7 606.5,-303.7 360.5,-303.7"/>
<text text-anchor="start" x="380.5" y="-310.8" font-family="Helvetica,sans-Serif" font-size="11.00" fill="#000000">CREATED_AT</text>
<polygon fill="none" stroke="#000000" points="606.5,-303.7 606.5,-325.7 777.5,-325.7 777.5,-303.7 606.5,-303.7"/>
<text text-anchor="start" x="609.4896" y="-311.4" font-family="Helvetica,sans-Serif" font-size="11.00" fill="#000000">timestamp(6) with time zone[13,6]</text>
<polygon fill="none" stroke="#000000" points="360.5,-281.7 360.5,-303.7 606.5,-303.7 606.5,-281.7 360.5,-281.7"/>
<text text-anchor="start" x="380.5" y="-288.8" font-family="Helvetica,sans-Serif" font-size="11.00" fill="#000000">CREATED_BY</text>
<polygon fill="none" stroke="#000000" points="606.5,-281.7 606.5,-303.7 777.5,-303.7 777.5,-281.7 606.5,-281.7"/>
<text text-anchor="start" x="609.5" y="-289.4" font-family="Helvetica,sans-Serif" font-size="11.00" fill="#000000">number[19]</text>
<polygon fill="none" stroke="#000000" points="360.5,-259.7 360.5,-281.7 606.5,-281.7 606.5,-259.7 360.5,-259.7"/>
<text text-anchor="start" x="380.5" y="-266.8" font-family="Helvetica,sans-Serif" font-size="11.00" fill="#000000">UPDATED_AT</text>
<polygon fill="none" stroke="#000000" points="606.5,-259.7 606.5,-281.7 777.5,-281.7 777.5,-259.7 606.5,-259.7"/>
<text text-anchor="start" x="609.4896" y="-267.4" font-family="Helvetica,sans-Serif" font-size="11.00" fill="#000000">timestamp(6) with time zone[13,6]</text>
<polygon fill="none" stroke="#000000" points="360.5,-237.7 360.5,-259.7 606.5,-259.7 606.5,-237.7 360.5,-237.7"/>
<text text-anchor="start" x="380.5" y="-244.8" font-family="Helvetica,sans-Serif" font-size="11.00" fill="#000000">UPDATED_BY</text>
<polygon fill="none" stroke="#000000" points="606.5,-237.7 606.5,-259.7 777.5,-259.7 777.5,-237.7 606.5,-237.7"/>
<text text-anchor="start" x="609.5" y="-245.4" font-family="Helvetica,sans-Serif" font-size="11.00" fill="#000000">number[19]</text>
<polygon fill="none" stroke="#000000" points="360.5,-215.7 360.5,-237.7 606.5,-237.7 606.5,-215.7 360.5,-215.7"/>
<image xlink:href="../../images/primaryKeys.png" width="11px" height="12px" preserveAspectRatio="xMinYMin meet" x="365.5" y="-232.7"/>
<text text-anchor="start" x="380.5" y="-222.8" font-family="Helvetica,sans-Serif" font-size="11.00" fill="#000000">CLONE_FORM_ID</text>
<polygon fill="none" stroke="#000000" points="606.5,-215.7 606.5,-237.7 777.5,-237.7 777.5,-215.7 606.5,-215.7"/>
<text text-anchor="start" x="609.5" y="-223.4" font-family="Helvetica,sans-Serif" font-size="11.00" fill="#000000">number[19]</text>
<polygon fill="none" stroke="#000000" points="360.5,-193.7 360.5,-215.7 606.5,-215.7 606.5,-193.7 360.5,-193.7"/>
<image xlink:href="../../images/primaryKeys.png" width="11px" height="12px" preserveAspectRatio="xMinYMin meet" x="365.5" y="-210.7"/>
<text text-anchor="start" x="380.5" y="-200.8" font-family="Helvetica,sans-Serif" font-size="11.00" fill="#000000">ISOFORM_MOTIF_ID</text>
<polygon fill="none" stroke="#000000" points="606.5,-193.7 606.5,-215.7 777.5,-215.7 777.5,-193.7 606.5,-193.7"/>
<text text-anchor="start" x="609.5" y="-201.4" font-family="Helvetica,sans-Serif" font-size="11.00" fill="#000000">number[19]</text>
<polygon fill="none" stroke="#000000" points="360.5,-171.7 360.5,-193.7 606.5,-193.7 606.5,-171.7 360.5,-171.7"/>
<text text-anchor="start" x="380.5" y="-178.8" font-family="Helvetica,sans-Serif" font-size="11.00" fill="#000000">IS_INCLUDED</text>
<polygon fill="none" stroke="#000000" points="606.5,-171.7 606.5,-193.7 777.5,-193.7 777.5,-171.7 606.5,-171.7"/>
<text text-anchor="start" x="609.5" y="-179.4" font-family="Helvetica,sans-Serif" font-size="11.00" fill="#000000">number[1]</text>
<polygon fill="#ffffff" stroke="transparent" points="360.5,-152.7 360.5,-171.7 471.5,-171.7 471.5,-152.7 360.5,-152.7"/>
<polygon fill="none" stroke="#000000" points="360.5,-152.7 360.5,-171.7 471.5,-171.7 471.5,-152.7 360.5,-152.7"/>
<text text-anchor="start" x="363.5" y="-158.8" font-family="Helvetica,sans-Serif" font-size="11.00" fill="#000000">&lt; 2</text>
<polygon fill="#ffffff" stroke="transparent" points="471.5,-152.7 471.5,-171.7 606.5,-171.7 606.5,-152.7 471.5,-152.7"/>
<polygon fill="none" stroke="#000000" points="471.5,-152.7 471.5,-171.7 606.5,-171.7 606.5,-152.7 471.5,-152.7"/>
<text text-anchor="start" x="564.9956" y="-158.8" font-family="Helvetica,sans-Serif" font-size="11.00" fill="#000000">94 rows</text>
<polygon fill="#ffffff" stroke="transparent" points="606.5,-152.7 606.5,-171.7 777.5,-171.7 777.5,-152.7 606.5,-152.7"/>
<polygon fill="none" stroke="#000000" points="606.5,-152.7 606.5,-171.7 777.5,-171.7 777.5,-152.7 606.5,-152.7"/>
<text text-anchor="start" x="758.9053" y="-158.8" font-family="Helvetica,sans-Serif" font-size="11.00" fill="#000000">0 &gt;</text>
<polygon fill="none" stroke="#000000" stroke-width="2" points="359,-151.7 359,-371.7 778,-371.7 778,-151.7 359,-151.7"/>
</a>
</g>
</g>
<!-- CLONE_FORMS -->
<g id="node2" class="node">
<title>CLONE_FORMS</title>
<g id="a_node2"><a xlink:href="../../tables/CLONE_FORMS.html" xlink:title="CLONE_FORMS" target="_top">
<polygon fill="#ffffff" stroke="transparent" points="8,-164.2 8,-357.2 309,-357.2 309,-164.2 8,-164.2"/>
<polygon fill="#f5f5f5" stroke="transparent" points="8.5,-333.7 8.5,-356.7 309.5,-356.7 309.5,-333.7 8.5,-333.7"/>
<polygon fill="none" stroke="#000000" points="8.5,-333.7 8.5,-356.7 309.5,-356.7 309.5,-333.7 8.5,-333.7"/>
<text text-anchor="start" x="13.5" y="-342.8" font-family="Helvetica,sans-Serif" font-weight="bold" font-size="11.00" fill="#000000">CLONE_FORMS</text>
<text text-anchor="start" x="274.5437" y="-341.8" font-family="Helvetica,sans-Serif" font-size="11.00" fill="#000000">[table]</text>
<polygon fill="none" stroke="#000000" points="8.5,-311.7 8.5,-333.7 309.5,-333.7 309.5,-311.7 8.5,-311.7"/>
<image xlink:href="../../images/primaryKeys.png" width="11px" height="12px" preserveAspectRatio="xMinYMin meet" x="13.5" y="-328.7"/>
<text text-anchor="start" x="28.5" y="-318.8" font-family="Helvetica,sans-Serif" font-size="11.00" fill="#000000">ID</text>
<polygon fill="none" stroke="#000000" points="8.5,-289.7 8.5,-311.7 309.5,-311.7 309.5,-289.7 8.5,-289.7"/>
<image xlink:href="../../images/foreignKeys.png" width="11px" height="12px" preserveAspectRatio="xMinYMin meet" x="13.5" y="-306.7"/>
<text text-anchor="start" x="28.5" y="-296.8" font-family="Helvetica,sans-Serif" font-size="11.00" fill="#000000">ISOFORM_ID</text>
<polygon fill="none" stroke="#000000" points="8.5,-267.7 8.5,-289.7 309.5,-289.7 309.5,-267.7 8.5,-267.7"/>
<image xlink:href="../../images/primaryKeys.png" width="11px" height="12px" preserveAspectRatio="xMinYMin meet" x="13.5" y="-284.7"/>
<text text-anchor="start" x="28.5" y="-274.8" font-family="Helvetica,sans-Serif" font-size="11.00" fill="#000000">NAME</text>
<polygon fill="none" stroke="#000000" points="8.5,-245.7 8.5,-267.7 309.5,-267.7 309.5,-245.7 8.5,-245.7"/>
<image xlink:href="../../images/foreignKeys.png" width="11px" height="12px" preserveAspectRatio="xMinYMin meet" x="13.5" y="-262.7"/>
<text text-anchor="start" x="28.5" y="-252.8" font-family="Helvetica,sans-Serif" font-size="11.00" fill="#000000">TARGET_FORM_ID</text>
<polygon fill="none" stroke="#000000" points="8.5,-223.7 8.5,-245.7 309.5,-245.7 309.5,-223.7 8.5,-223.7"/>
<image xlink:href="../../images/foreignKeys.png" width="11px" height="12px" preserveAspectRatio="xMinYMin meet" x="13.5" y="-240.7"/>
<text text-anchor="start" x="28.5" y="-230.8" font-family="Helvetica,sans-Serif" font-size="11.00" fill="#000000">POST_TRANSLATIONAL_MODIFICATION_ID</text>
<polygon fill="none" stroke="#000000" points="8.5,-201.7 8.5,-223.7 309.5,-223.7 309.5,-201.7 8.5,-201.7"/>
<image xlink:href="../../images/foreignKeys.png" width="11px" height="12px" preserveAspectRatio="xMinYMin meet" x="13.5" y="-218.7"/>
<text text-anchor="start" x="28.5" y="-208.8" font-family="Helvetica,sans-Serif" font-size="11.00" fill="#000000">SPECIES_ID</text>
<polygon fill="none" stroke="#000000" points="8.5,-182.7 8.5,-201.7 309.5,-201.7 309.5,-182.7 8.5,-182.7"/>
<text text-anchor="start" x="11.5" y="-188.8" font-family="Helvetica,sans-Serif" font-size="11.00" fill="#000000">...</text>
<polygon fill="#ffffff" stroke="transparent" points="8.5,-163.7 8.5,-182.7 130.5,-182.7 130.5,-163.7 8.5,-163.7"/>
<polygon fill="none" stroke="#000000" points="8.5,-163.7 8.5,-182.7 130.5,-182.7 130.5,-163.7 8.5,-163.7"/>
<text text-anchor="start" x="11.5" y="-169.8" font-family="Helvetica,sans-Serif" font-size="11.00" fill="#000000">&lt; 4</text>
<polygon fill="#ffffff" stroke="transparent" points="130.5,-163.7 130.5,-182.7 231.5,-182.7 231.5,-163.7 130.5,-163.7"/>
<polygon fill="none" stroke="#000000" points="130.5,-163.7 130.5,-182.7 231.5,-182.7 231.5,-163.7 130.5,-163.7"/>
<text text-anchor="start" x="183.8807" y="-169.8" font-family="Helvetica,sans-Serif" font-size="11.00" fill="#000000">467 rows</text>
<polygon fill="#ffffff" stroke="transparent" points="231.5,-163.7 231.5,-182.7 309.5,-182.7 309.5,-163.7 231.5,-163.7"/>
<polygon fill="none" stroke="#000000" points="231.5,-163.7 231.5,-182.7 309.5,-182.7 309.5,-163.7 231.5,-163.7"/>
<text text-anchor="start" x="284.7904" y="-169.8" font-family="Helvetica,sans-Serif" font-size="11.00" fill="#000000">14 &gt;</text>
</a>
</g>
</g>
<!-- CLONE_FORMS_ISOFORM_MOTIFS&#45;&gt;CLONE_FORMS -->
<g id="edge1" class="edge">
<title>CLONE_FORMS_ISOFORM_MOTIFS:w&#45;&gt;CLONE_FORMS:e</title>
<path fill="none" stroke="#000000" d="M346.4189,-230.825C322.1253,-249.2 351.7746,-322.7 309.5,-322.7"/>
<polygon fill="#000000" stroke="#000000" points="352.8226,-228.9491 361.5121,-230.1548 356.6613,-227.8245 360.5,-226.7 360.5,-226.7 360.5,-226.7 356.6613,-227.8245 359.4879,-223.2452 352.8226,-228.9491 352.8226,-228.9491"/>
<ellipse fill="none" stroke="#000000" cx="349.7517" cy="-229.8487" rx="3.2" ry="3.2"/>
</g>
<!-- ISOFORM_MOTIFS -->
<g id="node3" class="node">
<title>ISOFORM_MOTIFS</title>
<g id="a_node3"><a xlink:href="../../tables/ISOFORM_MOTIFS.html" xlink:title="ISOFORM_MOTIFS" target="_top">
<polygon fill="#ffffff" stroke="transparent" points="88,-38.2 88,-143.2 229,-143.2 229,-38.2 88,-38.2"/>
<polygon fill="#f5f5f5" stroke="transparent" points="88.5,-119.7 88.5,-142.7 229.5,-142.7 229.5,-119.7 88.5,-119.7"/>
<polygon fill="none" stroke="#000000" points="88.5,-119.7 88.5,-142.7 229.5,-142.7 229.5,-119.7 88.5,-119.7"/>
<text text-anchor="start" x="93.0022" y="-128.8" font-family="Helvetica,sans-Serif" font-weight="bold" font-size="11.00" fill="#000000">ISOFORM_MOTIFS</text>
<text text-anchor="start" x="195.0219" y="-127.8" font-family="Helvetica,sans-Serif" font-size="11.00" fill="#000000">[table]</text>
<polygon fill="none" stroke="#000000" points="88.5,-97.7 88.5,-119.7 229.5,-119.7 229.5,-97.7 88.5,-97.7"/>
<image xlink:href="../../images/primaryKeys.png" width="11px" height="12px" preserveAspectRatio="xMinYMin meet" x="93.5" y="-114.7"/>
<text text-anchor="start" x="108.5" y="-104.8" font-family="Helvetica,sans-Serif" font-size="11.00" fill="#000000">ID</text>
<polygon fill="none" stroke="#000000" points="88.5,-75.7 88.5,-97.7 229.5,-97.7 229.5,-75.7 88.5,-75.7"/>
<image xlink:href="../../images/foreignKeys.png" width="11px" height="12px" preserveAspectRatio="xMinYMin meet" x="93.5" y="-92.7"/>
<text text-anchor="start" x="108.5" y="-82.8" font-family="Helvetica,sans-Serif" font-size="11.00" fill="#000000">ISOFORM_ID</text>
<polygon fill="none" stroke="#000000" points="88.5,-56.7 88.5,-75.7 229.5,-75.7 229.5,-56.7 88.5,-56.7"/>
<text text-anchor="start" x="91.5" y="-62.8" font-family="Helvetica,sans-Serif" font-size="11.00" fill="#000000">...</text>
<polygon fill="#ffffff" stroke="transparent" points="88.5,-37.7 88.5,-56.7 133.5,-56.7 133.5,-37.7 88.5,-37.7"/>
<polygon fill="none" stroke="#000000" points="88.5,-37.7 88.5,-56.7 133.5,-56.7 133.5,-37.7 88.5,-37.7"/>
<text text-anchor="start" x="91.5" y="-43.8" font-family="Helvetica,sans-Serif" font-size="11.00" fill="#000000">&lt; 1</text>
<polygon fill="#ffffff" stroke="transparent" points="133.5,-37.7 133.5,-56.7 195.5,-56.7 195.5,-37.7 133.5,-37.7"/>
<polygon fill="none" stroke="#000000" points="133.5,-37.7 133.5,-56.7 195.5,-56.7 195.5,-37.7 133.5,-37.7"/>
<text text-anchor="start" x="147.8807" y="-43.8" font-family="Helvetica,sans-Serif" font-size="11.00" fill="#000000">183 rows</text>
<polygon fill="#ffffff" stroke="transparent" points="195.5,-37.7 195.5,-56.7 229.5,-56.7 229.5,-37.7 195.5,-37.7"/>
<polygon fill="none" stroke="#000000" points="195.5,-37.7 195.5,-56.7 229.5,-56.7 229.5,-37.7 195.5,-37.7"/>
<text text-anchor="start" x="210.9053" y="-43.8" font-family="Helvetica,sans-Serif" font-size="11.00" fill="#000000">2 &gt;</text>
</a>
</g>
</g>
<!-- CLONE_FORMS_ISOFORM_MOTIFS&#45;&gt;ISOFORM_MOTIFS -->
<g id="edge2" class="edge">
<title>CLONE_FORMS_ISOFORM_MOTIFS:w&#45;&gt;ISOFORM_MOTIFS:e</title>
<path fill="none" stroke="#000000" d="M346.2319,-200.7978C333.3095,-191.6106 335.4287,-168.2943 317,-153.7 282.7179,-126.5508 273.2304,-108.7 229.5,-108.7"/>
<polygon fill="#000000" stroke="#000000" points="352.7834,-202.5895 359.5503,-208.1725 356.6417,-203.6448 360.5,-204.7 360.5,-204.7 360.5,-204.7 356.6417,-203.6448 361.4497,-201.2275 352.7834,-202.5895 352.7834,-202.5895"/>
<ellipse fill="none" stroke="#000000" cx="349.6967" cy="-201.7453" rx="3.2" ry="3.2"/>
</g>
</g>
</svg>
