<?xml version="1.0" encoding="UTF-8" standalone="no"?>
<!DOCTYPE svg PUBLIC "-//W3C//DTD SVG 1.1//EN"
 "http://www.w3.org/Graphics/SVG/1.1/DTD/svg11.dtd">
<!-- Generated by graphviz version 2.40.1 (20161225.0304)
 -->
<!-- Title: oneDegreeRelationshipsDiagram Pages: 1 -->
<svg width="711pt" height="451pt"
 viewBox="0.00 0.00 711.00 450.70" xmlns="http://www.w3.org/2000/svg" xmlns:xlink="http://www.w3.org/1999/xlink">
<g id="graph0" class="graph" transform="scale(1 1) rotate(0) translate(4 446.7)">
<title>oneDegreeRelationshipsDiagram</title>
<polygon fill="#ffffff" stroke="transparent" points="-4,4 -4,-446.7 707,-446.7 707,4 -4,4"/>
<text text-anchor="middle" x="72.4936" y="-7.3" font-family="Helvetica,sans-Serif" font-size="11.00" fill="#000000">Generated by SchemaSpy</text>
<!-- CLONE_FORMS_TAGS -->
<g id="node1" class="node">
<title>CLONE_FORMS_TAGS</title>
<g id="a_node1"><a xlink:href="../../tables/CLONE_FORMS_TAGS.html" xlink:title="CLONE_FORMS_TAGS" target="_top">
<polygon fill="#ffffff" stroke="transparent" points="358,-216.7 358,-438.7 695,-438.7 695,-216.7 358,-216.7"/>
<polygon fill="#f5f5f5" stroke="transparent" points="360.5,-413.7 360.5,-436.7 693.5,-436.7 693.5,-413.7 360.5,-413.7"/>
<polygon fill="none" stroke="#000000" points="360.5,-413.7 360.5,-436.7 693.5,-436.7 693.5,-413.7 360.5,-413.7"/>
<text text-anchor="start" x="365.5" y="-422.8" font-family="Helvetica,sans-Serif" font-weight="bold" font-size="11.00" fill="#000000">CLONE_FORMS_TAGS</text>
<text text-anchor="start" x="658.5437" y="-421.8" font-family="Helvetica,sans-Serif" font-size="11.00" fill="#000000">[table]</text>
<polygon fill="none" stroke="#000000" points="360.5,-391.7 360.5,-413.7 522.5,-413.7 522.5,-391.7 360.5,-391.7"/>
<image xlink:href="../../images/primaryKeys.png" width="11px" height="12px" preserveAspectRatio="xMinYMin meet" x="365.5" y="-408.7"/>
<text text-anchor="start" x="380.5" y="-398.8" font-family="Helvetica,sans-Serif" font-size="11.00" fill="#000000">ID</text>
<polygon fill="none" stroke="#000000" points="522.5,-391.7 522.5,-413.7 693.5,-413.7 693.5,-391.7 522.5,-391.7"/>
<text text-anchor="start" x="525.5" y="-399.4" font-family="Helvetica,sans-Serif" font-size="11.00" fill="#000000">number[19]</text>
<polygon fill="none" stroke="#000000" points="360.5,-369.7 360.5,-391.7 522.5,-391.7 522.5,-369.7 360.5,-369.7"/>
<text text-anchor="start" x="380.5" y="-376.8" font-family="Helvetica,sans-Serif" font-size="11.00" fill="#000000">CREATED_AT</text>
<polygon fill="none" stroke="#000000" points="522.5,-369.7 522.5,-391.7 693.5,-391.7 693.5,-369.7 522.5,-369.7"/>
<text text-anchor="start" x="525.4896" y="-377.4" font-family="Helvetica,sans-Serif" font-size="11.00" fill="#000000">timestamp(6) with time zone[13,6]</text>
<polygon fill="none" stroke="#000000" points="360.5,-347.7 360.5,-369.7 522.5,-369.7 522.5,-347.7 360.5,-347.7"/>
<text text-anchor="start" x="380.5" y="-354.8" font-family="Helvetica,sans-Serif" font-size="11.00" fill="#000000">CREATED_BY</text>
<polygon fill="none" stroke="#000000" points="522.5,-347.7 522.5,-369.7 693.5,-369.7 693.5,-347.7 522.5,-347.7"/>
<text text-anchor="start" x="525.5" y="-355.4" font-family="Helvetica,sans-Serif" font-size="11.00" fill="#000000">number[19]</text>
<polygon fill="none" stroke="#000000" points="360.5,-325.7 360.5,-347.7 522.5,-347.7 522.5,-325.7 360.5,-325.7"/>
<text text-anchor="start" x="380.5" y="-332.8" font-family="Helvetica,sans-Serif" font-size="11.00" fill="#000000">UPDATED_AT</text>
<polygon fill="none" stroke="#000000" points="522.5,-325.7 522.5,-347.7 693.5,-347.7 693.5,-325.7 522.5,-325.7"/>
<text text-anchor="start" x="525.4896" y="-333.4" font-family="Helvetica,sans-Serif" font-size="11.00" fill="#000000">timestamp(6) with time zone[13,6]</text>
<polygon fill="none" stroke="#000000" points="360.5,-303.7 360.5,-325.7 522.5,-325.7 522.5,-303.7 360.5,-303.7"/>
<text text-anchor="start" x="380.5" y="-310.8" font-family="Helvetica,sans-Serif" font-size="11.00" fill="#000000">UPDATED_BY</text>
<polygon fill="none" stroke="#000000" points="522.5,-303.7 522.5,-325.7 693.5,-325.7 693.5,-303.7 522.5,-303.7"/>
<text text-anchor="start" x="525.5" y="-311.4" font-family="Helvetica,sans-Serif" font-size="11.00" fill="#000000">number[19]</text>
<polygon fill="none" stroke="#000000" points="360.5,-281.7 360.5,-303.7 522.5,-303.7 522.5,-281.7 360.5,-281.7"/>
<image xlink:href="../../images/foreignKeys.png" width="11px" height="12px" preserveAspectRatio="xMinYMin meet" x="365.5" y="-298.7"/>
<text text-anchor="start" x="380.5" y="-288.8" font-family="Helvetica,sans-Serif" font-size="11.00" fill="#000000">TAG_ID</text>
<polygon fill="none" stroke="#000000" points="522.5,-281.7 522.5,-303.7 693.5,-303.7 693.5,-281.7 522.5,-281.7"/>
<text text-anchor="start" x="525.5" y="-289.4" font-family="Helvetica,sans-Serif" font-size="11.00" fill="#000000">number[19]</text>
<polygon fill="none" stroke="#000000" points="360.5,-259.7 360.5,-281.7 522.5,-281.7 522.5,-259.7 360.5,-259.7"/>
<text text-anchor="start" x="380.5" y="-266.8" font-family="Helvetica,sans-Serif" font-size="11.00" fill="#000000">CARTOON_ORDER</text>
<polygon fill="none" stroke="#000000" points="522.5,-259.7 522.5,-281.7 693.5,-281.7 693.5,-259.7 522.5,-259.7"/>
<text text-anchor="start" x="525.5" y="-267.4" font-family="Helvetica,sans-Serif" font-size="11.00" fill="#000000">number[2]</text>
<polygon fill="none" stroke="#000000" points="360.5,-237.7 360.5,-259.7 522.5,-259.7 522.5,-237.7 360.5,-237.7"/>
<image xlink:href="../../images/foreignKeys.png" width="11px" height="12px" preserveAspectRatio="xMinYMin meet" x="365.5" y="-254.7"/>
<text text-anchor="start" x="380.5" y="-244.8" font-family="Helvetica,sans-Serif" font-size="11.00" fill="#000000">CLONE_FORM_ID</text>
<polygon fill="none" stroke="#000000" points="522.5,-237.7 522.5,-259.7 693.5,-259.7 693.5,-237.7 522.5,-237.7"/>
<text text-anchor="start" x="525.5" y="-245.4" font-family="Helvetica,sans-Serif" font-size="11.00" fill="#000000">number[19]</text>
<polygon fill="#ffffff" stroke="transparent" points="360.5,-218.7 360.5,-237.7 432.5,-237.7 432.5,-218.7 360.5,-218.7"/>
<polygon fill="none" stroke="#000000" points="360.5,-218.7 360.5,-237.7 432.5,-237.7 432.5,-218.7 360.5,-218.7"/>
<text text-anchor="start" x="363.5" y="-224.8" font-family="Helvetica,sans-Serif" font-size="11.00" fill="#000000">&lt; 2</text>
<polygon fill="#ffffff" stroke="transparent" points="432.5,-218.7 432.5,-237.7 522.5,-237.7 522.5,-218.7 432.5,-218.7"/>
<polygon fill="none" stroke="#000000" points="432.5,-218.7 432.5,-237.7 522.5,-237.7 522.5,-218.7 432.5,-218.7"/>
<text text-anchor="start" x="487.1105" y="-224.8" font-family="Helvetica,sans-Serif" font-size="11.00" fill="#000000">0 rows</text>
<polygon fill="#ffffff" stroke="transparent" points="522.5,-218.7 522.5,-237.7 693.5,-237.7 693.5,-218.7 522.5,-218.7"/>
<polygon fill="none" stroke="#000000" points="522.5,-218.7 522.5,-237.7 693.5,-237.7 693.5,-218.7 522.5,-218.7"/>
<text text-anchor="start" x="674.9053" y="-224.8" font-family="Helvetica,sans-Serif" font-size="11.00" fill="#000000">0 &gt;</text>
<polygon fill="none" stroke="#000000" stroke-width="2" points="359,-217.7 359,-437.7 694,-437.7 694,-217.7 359,-217.7"/>
</a>
</g>
</g>
<!-- CLONE_FORMS -->
<g id="node2" class="node">
<title>CLONE_FORMS</title>
<g id="a_node2"><a xlink:href="../../tables/CLONE_FORMS.html" xlink:title="CLONE_FORMS" target="_top">
<polygon fill="#ffffff" stroke="transparent" points="8,-38.2 8,-231.2 309,-231.2 309,-38.2 8,-38.2"/>
<polygon fill="#f5f5f5" stroke="transparent" points="8.5,-207.7 8.5,-230.7 309.5,-230.7 309.5,-207.7 8.5,-207.7"/>
<polygon fill="none" stroke="#000000" points="8.5,-207.7 8.5,-230.7 309.5,-230.7 309.5,-207.7 8.5,-207.7"/>
<text text-anchor="start" x="13.5" y="-216.8" font-family="Helvetica,sans-Serif" font-weight="bold" font-size="11.00" fill="#000000">CLONE_FORMS</text>
<text text-anchor="start" x="274.5437" y="-215.8" font-family="Helvetica,sans-Serif" font-size="11.00" fill="#000000">[table]</text>
<polygon fill="none" stroke="#000000" points="8.5,-185.7 8.5,-207.7 309.5,-207.7 309.5,-185.7 8.5,-185.7"/>
<image xlink:href="../../images/primaryKeys.png" width="11px" height="12px" preserveAspectRatio="xMinYMin meet" x="13.5" y="-202.7"/>
<text text-anchor="start" x="28.5" y="-192.8" font-family="Helvetica,sans-Serif" font-size="11.00" fill="#000000">ID</text>
<polygon fill="none" stroke="#000000" points="8.5,-163.7 8.5,-185.7 309.5,-185.7 309.5,-163.7 8.5,-163.7"/>
<image xlink:href="../../images/foreignKeys.png" width="11px" height="12px" preserveAspectRatio="xMinYMin meet" x="13.5" y="-180.7"/>
<text text-anchor="start" x="28.5" y="-170.8" font-family="Helvetica,sans-Serif" font-size="11.00" fill="#000000">ISOFORM_ID</text>
<polygon fill="none" stroke="#000000" points="8.5,-141.7 8.5,-163.7 309.5,-163.7 309.5,-141.7 8.5,-141.7"/>
<image xlink:href="../../images/primaryKeys.png" width="11px" height="12px" preserveAspectRatio="xMinYMin meet" x="13.5" y="-158.7"/>
<text text-anchor="start" x="28.5" y="-148.8" font-family="Helvetica,sans-Serif" font-size="11.00" fill="#000000">NAME</text>
<polygon fill="none" stroke="#000000" points="8.5,-119.7 8.5,-141.7 309.5,-141.7 309.5,-119.7 8.5,-119.7"/>
<image xlink:href="../../images/foreignKeys.png" width="11px" height="12px" preserveAspectRatio="xMinYMin meet" x="13.5" y="-136.7"/>
<text text-anchor="start" x="28.5" y="-126.8" font-family="Helvetica,sans-Serif" font-size="11.00" fill="#000000">TARGET_FORM_ID</text>
<polygon fill="none" stroke="#000000" points="8.5,-97.7 8.5,-119.7 309.5,-119.7 309.5,-97.7 8.5,-97.7"/>
<image xlink:href="../../images/foreignKeys.png" width="11px" height="12px" preserveAspectRatio="xMinYMin meet" x="13.5" y="-114.7"/>
<text text-anchor="start" x="28.5" y="-104.8" font-family="Helvetica,sans-Serif" font-size="11.00" fill="#000000">POST_TRANSLATIONAL_MODIFICATION_ID</text>
<polygon fill="none" stroke="#000000" points="8.5,-75.7 8.5,-97.7 309.5,-97.7 309.5,-75.7 8.5,-75.7"/>
<image xlink:href="../../images/foreignKeys.png" width="11px" height="12px" preserveAspectRatio="xMinYMin meet" x="13.5" y="-92.7"/>
<text text-anchor="start" x="28.5" y="-82.8" font-family="Helvetica,sans-Serif" font-size="11.00" fill="#000000">SPECIES_ID</text>
<polygon fill="none" stroke="#000000" points="8.5,-56.7 8.5,-75.7 309.5,-75.7 309.5,-56.7 8.5,-56.7"/>
<text text-anchor="start" x="11.5" y="-62.8" font-family="Helvetica,sans-Serif" font-size="11.00" fill="#000000">...</text>
<polygon fill="#ffffff" stroke="transparent" points="8.5,-37.7 8.5,-56.7 130.5,-56.7 130.5,-37.7 8.5,-37.7"/>
<polygon fill="none" stroke="#000000" points="8.5,-37.7 8.5,-56.7 130.5,-56.7 130.5,-37.7 8.5,-37.7"/>
<text text-anchor="start" x="11.5" y="-43.8" font-family="Helvetica,sans-Serif" font-size="11.00" fill="#000000">&lt; 4</text>
<polygon fill="#ffffff" stroke="transparent" points="130.5,-37.7 130.5,-56.7 231.5,-56.7 231.5,-37.7 130.5,-37.7"/>
<polygon fill="none" stroke="#000000" points="130.5,-37.7 130.5,-56.7 231.5,-56.7 231.5,-37.7 130.5,-37.7"/>
<text text-anchor="start" x="183.8807" y="-43.8" font-family="Helvetica,sans-Serif" font-size="11.00" fill="#000000">467 rows</text>
<polygon fill="#ffffff" stroke="transparent" points="231.5,-37.7 231.5,-56.7 309.5,-56.7 309.5,-37.7 231.5,-37.7"/>
<polygon fill="none" stroke="#000000" points="231.5,-37.7 231.5,-56.7 309.5,-56.7 309.5,-37.7 231.5,-37.7"/>
<text text-anchor="start" x="284.7904" y="-43.8" font-family="Helvetica,sans-Serif" font-size="11.00" fill="#000000">14 &gt;</text>
</a>
</g>
</g>
<!-- CLONE_FORMS_TAGS&#45;&gt;CLONE_FORMS -->
<g id="edge1" class="edge">
<title>CLONE_FORMS_TAGS:w&#45;&gt;CLONE_FORMS:e</title>
<path fill="none" stroke="#000000" d="M346.5468,-243.9012C331.661,-231.0281 335.8017,-196.7 309.5,-196.7"/>
<polygon fill="#000000" stroke="#000000" points="352.9349,-246.0982 359.3292,-252.1043 356.7175,-247.3991 360.5,-248.7 360.5,-248.7 360.5,-248.7 356.7175,-247.3991 361.6708,-245.2957 352.9349,-246.0982 352.9349,-246.0982"/>
<ellipse fill="none" stroke="#000000" cx="349.9089" cy="-245.0574" rx="3.2" ry="3.2"/>
</g>
<!-- TAGS -->
<g id="node3" class="node">
<title>TAGS</title>
<g id="a_node3"><a xlink:href="../../tables/TAGS.html" xlink:title="TAGS" target="_top">
<polygon fill="#ffffff" stroke="transparent" points="104.5,-252.2 104.5,-379.2 212.5,-379.2 212.5,-252.2 104.5,-252.2"/>
<polygon fill="#f5f5f5" stroke="transparent" points="104.5,-355.7 104.5,-378.7 212.5,-378.7 212.5,-355.7 104.5,-355.7"/>
<polygon fill="none" stroke="#000000" points="104.5,-355.7 104.5,-378.7 212.5,-378.7 212.5,-355.7 104.5,-355.7"/>
<text text-anchor="start" x="109.5" y="-364.8" font-family="Helvetica,sans-Serif" font-weight="bold" font-size="11.00" fill="#000000">TAGS</text>
<text text-anchor="start" x="177.5437" y="-363.8" font-family="Helvetica,sans-Serif" font-size="11.00" fill="#000000">[table]</text>
<polygon fill="none" stroke="#000000" points="104.5,-333.7 104.5,-355.7 212.5,-355.7 212.5,-333.7 104.5,-333.7"/>
<image xlink:href="../../images/primaryKeys.png" width="11px" height="12px" preserveAspectRatio="xMinYMin meet" x="109.5" y="-350.7"/>
<text text-anchor="start" x="124.5" y="-340.8" font-family="Helvetica,sans-Serif" font-size="11.00" fill="#000000">ID</text>
<polygon fill="none" stroke="#000000" points="104.5,-311.7 104.5,-333.7 212.5,-333.7 212.5,-311.7 104.5,-311.7"/>
<image xlink:href="../../images/primaryKeys.png" width="11px" height="12px" preserveAspectRatio="xMinYMin meet" x="109.5" y="-328.7"/>
<text text-anchor="start" x="124.5" y="-318.8" font-family="Helvetica,sans-Serif" font-size="11.00" fill="#000000">COLOR</text>
<polygon fill="none" stroke="#000000" points="104.5,-289.7 104.5,-311.7 212.5,-311.7 212.5,-289.7 104.5,-289.7"/>
<image xlink:href="../../images/primaryKeys.png" width="11px" height="12px" preserveAspectRatio="xMinYMin meet" x="109.5" y="-306.7"/>
<text text-anchor="start" x="124.5" y="-296.8" font-family="Helvetica,sans-Serif" font-size="11.00" fill="#000000">TITLE</text>
<polygon fill="none" stroke="#000000" points="104.5,-270.7 104.5,-289.7 212.5,-289.7 212.5,-270.7 104.5,-270.7"/>
<text text-anchor="start" x="107.5" y="-276.8" font-family="Helvetica,sans-Serif" font-size="11.00" fill="#000000">...</text>
<polygon fill="#ffffff" stroke="transparent" points="104.5,-251.7 104.5,-270.7 131.5,-270.7 131.5,-251.7 104.5,-251.7"/>
<polygon fill="none" stroke="#000000" points="104.5,-251.7 104.5,-270.7 131.5,-270.7 131.5,-251.7 104.5,-251.7"/>
<text text-anchor="start" x="107.5" y="-257.8" font-family="Helvetica,sans-Serif" font-size="11.00" fill="#000000"> &#160;</text>
<polygon fill="#ffffff" stroke="transparent" points="131.5,-251.7 131.5,-270.7 183.5,-270.7 183.5,-251.7 131.5,-251.7"/>
<polygon fill="none" stroke="#000000" points="131.5,-251.7 131.5,-270.7 183.5,-270.7 183.5,-251.7 131.5,-251.7"/>
<text text-anchor="start" x="141.9956" y="-257.8" font-family="Helvetica,sans-Serif" font-size="11.00" fill="#000000">21 rows</text>
<polygon fill="#ffffff" stroke="transparent" points="183.5,-251.7 183.5,-270.7 212.5,-270.7 212.5,-251.7 183.5,-251.7"/>
<polygon fill="none" stroke="#000000" points="183.5,-251.7 183.5,-270.7 212.5,-270.7 212.5,-251.7 183.5,-251.7"/>
<text text-anchor="start" x="193.9053" y="-257.8" font-family="Helvetica,sans-Serif" font-size="11.00" fill="#000000">3 &gt;</text>
</a>
</g>
</g>
<!-- CLONE_FORMS_TAGS&#45;&gt;TAGS -->
<g id="edge2" class="edge">
<title>CLONE_FORMS_TAGS:w&#45;&gt;TAGS:e</title>
<path fill="none" stroke="#000000" d="M345.9371,-293.5168C289.1727,-300.1323 277.0452,-344.7 212.5,-344.7"/>
<polygon fill="#000000" stroke="#000000" points="352.5126,-293.148 360.7016,-296.2944 356.5063,-292.924 360.5,-292.7 360.5,-292.7 360.5,-292.7 356.5063,-292.924 360.2984,-289.1056 352.5126,-293.148 352.5126,-293.148"/>
<ellipse fill="none" stroke="#000000" cx="349.3176" cy="-293.3273" rx="3.2" ry="3.2"/>
</g>
</g>
</svg>
