<?xml version="1.0" encoding="UTF-8" standalone="no"?>
<!DOCTYPE svg PUBLIC "-//W3C//DTD SVG 1.1//EN"
 "http://www.w3.org/Graphics/SVG/1.1/DTD/svg11.dtd">
<!-- Generated by graphviz version 2.40.1 (20161225.0304)
 -->
<!-- Title: oneDegreeRelationshipsDiagram Pages: 1 -->
<svg width="1025pt" height="304pt"
 viewBox="0.00 0.00 1025.00 303.70" xmlns="http://www.w3.org/2000/svg" xmlns:xlink="http://www.w3.org/1999/xlink">
<g id="graph0" class="graph" transform="scale(1 1) rotate(0) translate(4 299.7)">
<title>oneDegreeRelationshipsDiagram</title>
<polygon fill="#ffffff" stroke="transparent" points="-4,4 -4,-299.7 1021,-299.7 1021,4 -4,4"/>
<text text-anchor="middle" x="72.4936" y="-7.3" font-family="Helvetica,sans-Serif" font-size="11.00" fill="#000000">Generated by SchemaSpy</text>
<!-- DNA_ATTACHMENT_SITES_REFERENCES -->
<g id="node1" class="node">
<title>DNA_ATTACHMENT_SITES_REFERENCES</title>
<g id="a_node1"><a xlink:href="../../tables/DNA_ATTACHMENT_SITES_REFERENCES.html" xlink:title="DNA_ATTACHMENT_SITES_REFERENCES" target="_top">
<polygon fill="#ffffff" stroke="transparent" points="724,-142.7 724,-291.7 1009,-291.7 1009,-142.7 724,-142.7"/>
<polygon fill="#f5f5f5" stroke="transparent" points="724.5,-268.2 724.5,-291.2 1009.5,-291.2 1009.5,-268.2 724.5,-268.2"/>
<polygon fill="none" stroke="#000000" points="724.5,-268.2 724.5,-291.2 1009.5,-291.2 1009.5,-268.2 724.5,-268.2"/>
<text text-anchor="start" x="729.5" y="-277.3" font-family="Helvetica,sans-Serif" font-weight="bold" font-size="11.00" fill="#000000">DNA_ATTACHMENT_SITES_REFERENCES</text>
<text text-anchor="start" x="974.5437" y="-276.3" font-family="Helvetica,sans-Serif" font-size="11.00" fill="#000000">[table]</text>
<polygon fill="none" stroke="#000000" points="724.5,-246.2 724.5,-268.2 1009.5,-268.2 1009.5,-246.2 724.5,-246.2"/>
<image xlink:href="../../images/primaryKeys.png" width="11px" height="12px" preserveAspectRatio="xMinYMin meet" x="729.5" y="-263.2"/>
<text text-anchor="start" x="744.5" y="-253.3" font-family="Helvetica,sans-Serif" font-size="11.00" fill="#000000">ID</text>
<polygon fill="none" stroke="#000000" points="724.5,-224.2 724.5,-246.2 1009.5,-246.2 1009.5,-224.2 724.5,-224.2"/>
<image xlink:href="../../images/foreignKeys.png" width="11px" height="12px" preserveAspectRatio="xMinYMin meet" x="729.5" y="-241.2"/>
<text text-anchor="start" x="744.5" y="-231.3" font-family="Helvetica,sans-Serif" font-size="11.00" fill="#000000">DNA_ATTACHMENT_SITE_ID</text>
<polygon fill="none" stroke="#000000" points="724.5,-202.2 724.5,-224.2 1009.5,-224.2 1009.5,-202.2 724.5,-202.2"/>
<image xlink:href="../../images/foreignKeys.png" width="11px" height="12px" preserveAspectRatio="xMinYMin meet" x="729.5" y="-219.2"/>
<text text-anchor="start" x="744.5" y="-209.3" font-family="Helvetica,sans-Serif" font-size="11.00" fill="#000000">REFERENCE_ID</text>
<polygon fill="none" stroke="#000000" points="724.5,-180.2 724.5,-202.2 1009.5,-202.2 1009.5,-180.2 724.5,-180.2"/>
<image xlink:href="../../images/foreignKeys.png" width="11px" height="12px" preserveAspectRatio="xMinYMin meet" x="729.5" y="-197.2"/>
<text text-anchor="start" x="744.5" y="-187.3" font-family="Helvetica,sans-Serif" font-size="11.00" fill="#000000">TRACER_LIGAND_ID</text>
<polygon fill="none" stroke="#000000" points="724.5,-161.2 724.5,-180.2 1009.5,-180.2 1009.5,-161.2 724.5,-161.2"/>
<text text-anchor="start" x="727.5" y="-167.3" font-family="Helvetica,sans-Serif" font-size="11.00" fill="#000000">...</text>
<polygon fill="#ffffff" stroke="transparent" points="724.5,-142.2 724.5,-161.2 849.5,-161.2 849.5,-142.2 724.5,-142.2"/>
<polygon fill="none" stroke="#000000" points="724.5,-142.2 724.5,-161.2 849.5,-161.2 849.5,-142.2 724.5,-142.2"/>
<text text-anchor="start" x="727.5" y="-148.3" font-family="Helvetica,sans-Serif" font-size="11.00" fill="#000000">&lt; 3</text>
<polygon fill="#ffffff" stroke="transparent" points="849.5,-142.2 849.5,-161.2 945.5,-161.2 945.5,-142.2 849.5,-142.2"/>
<polygon fill="none" stroke="#000000" points="849.5,-142.2 849.5,-161.2 945.5,-161.2 945.5,-142.2 849.5,-142.2"/>
<text text-anchor="start" x="903.9956" y="-148.3" font-family="Helvetica,sans-Serif" font-size="11.00" fill="#000000">29 rows</text>
<polygon fill="#ffffff" stroke="transparent" points="945.5,-142.2 945.5,-161.2 1009.5,-161.2 1009.5,-142.2 945.5,-142.2"/>
<polygon fill="none" stroke="#000000" points="945.5,-142.2 945.5,-161.2 1009.5,-161.2 1009.5,-142.2 945.5,-142.2"/>
<text text-anchor="start" x="1000.3862" y="-148.3" font-family="Helvetica,sans-Serif" font-size="11.00" fill="#000000"> &#160;</text>
</a>
</g>
</g>
<!-- DNA_ATTACHMENT_SITES -->
<g id="node2" class="node">
<title>DNA_ATTACHMENT_SITES</title>
<g id="a_node2"><a xlink:href="../../tables/DNA_ATTACHMENT_SITES.html" xlink:title="DNA_ATTACHMENT_SITES" target="_top">
<polygon fill="#ffffff" stroke="transparent" points="8,-38.2 8,-216.2 375,-216.2 375,-38.2 8,-38.2"/>
<polygon fill="#f5f5f5" stroke="transparent" points="10.5,-191.2 10.5,-214.2 373.5,-214.2 373.5,-191.2 10.5,-191.2"/>
<polygon fill="none" stroke="#000000" points="10.5,-191.2 10.5,-214.2 373.5,-214.2 373.5,-191.2 10.5,-191.2"/>
<text text-anchor="start" x="15.5" y="-200.3" font-family="Helvetica,sans-Serif" font-weight="bold" font-size="11.00" fill="#000000">DNA_ATTACHMENT_SITES</text>
<text text-anchor="start" x="338.5437" y="-199.3" font-family="Helvetica,sans-Serif" font-size="11.00" fill="#000000">[table]</text>
<polygon fill="none" stroke="#000000" points="10.5,-169.2 10.5,-191.2 202.5,-191.2 202.5,-169.2 10.5,-169.2"/>
<image xlink:href="../../images/primaryKeys.png" width="11px" height="12px" preserveAspectRatio="xMinYMin meet" x="15.5" y="-186.2"/>
<text text-anchor="start" x="30.5" y="-176.3" font-family="Helvetica,sans-Serif" font-size="11.00" fill="#000000">ID</text>
<polygon fill="none" stroke="#000000" points="202.5,-169.2 202.5,-191.2 373.5,-191.2 373.5,-169.2 202.5,-169.2"/>
<text text-anchor="start" x="205.5" y="-176.9" font-family="Helvetica,sans-Serif" font-size="11.00" fill="#000000">number[19]</text>
<polygon fill="none" stroke="#000000" points="10.5,-147.2 10.5,-169.2 202.5,-169.2 202.5,-147.2 10.5,-147.2"/>
<text text-anchor="start" x="30.5" y="-154.3" font-family="Helvetica,sans-Serif" font-size="11.00" fill="#000000">CREATED_AT</text>
<polygon fill="none" stroke="#000000" points="202.5,-147.2 202.5,-169.2 373.5,-169.2 373.5,-147.2 202.5,-147.2"/>
<text text-anchor="start" x="205.4896" y="-154.9" font-family="Helvetica,sans-Serif" font-size="11.00" fill="#000000">timestamp(6) with time zone[13,6]</text>
<polygon fill="none" stroke="#000000" points="10.5,-125.2 10.5,-147.2 202.5,-147.2 202.5,-125.2 10.5,-125.2"/>
<text text-anchor="start" x="30.5" y="-132.3" font-family="Helvetica,sans-Serif" font-size="11.00" fill="#000000">CREATED_BY</text>
<polygon fill="none" stroke="#000000" points="202.5,-125.2 202.5,-147.2 373.5,-147.2 373.5,-125.2 202.5,-125.2"/>
<text text-anchor="start" x="205.5" y="-132.9" font-family="Helvetica,sans-Serif" font-size="11.00" fill="#000000">number[19]</text>
<polygon fill="none" stroke="#000000" points="10.5,-103.2 10.5,-125.2 202.5,-125.2 202.5,-103.2 10.5,-103.2"/>
<text text-anchor="start" x="30.5" y="-110.3" font-family="Helvetica,sans-Serif" font-size="11.00" fill="#000000">UPDATED_AT</text>
<polygon fill="none" stroke="#000000" points="202.5,-103.2 202.5,-125.2 373.5,-125.2 373.5,-103.2 202.5,-103.2"/>
<text text-anchor="start" x="205.4896" y="-110.9" font-family="Helvetica,sans-Serif" font-size="11.00" fill="#000000">timestamp(6) with time zone[13,6]</text>
<polygon fill="none" stroke="#000000" points="10.5,-81.2 10.5,-103.2 202.5,-103.2 202.5,-81.2 10.5,-81.2"/>
<text text-anchor="start" x="30.5" y="-88.3" font-family="Helvetica,sans-Serif" font-size="11.00" fill="#000000">UPDATED_BY</text>
<polygon fill="none" stroke="#000000" points="202.5,-81.2 202.5,-103.2 373.5,-103.2 373.5,-81.2 202.5,-81.2"/>
<text text-anchor="start" x="205.5" y="-88.9" font-family="Helvetica,sans-Serif" font-size="11.00" fill="#000000">number[19]</text>
<polygon fill="none" stroke="#000000" points="10.5,-59.2 10.5,-81.2 202.5,-81.2 202.5,-59.2 10.5,-59.2"/>
<text text-anchor="start" x="30.5" y="-66.3" font-family="Helvetica,sans-Serif" font-size="11.00" fill="#000000">NAME</text>
<polygon fill="none" stroke="#000000" points="202.5,-59.2 202.5,-81.2 373.5,-81.2 373.5,-59.2 202.5,-59.2"/>
<text text-anchor="start" x="205.5" y="-66.9" font-family="Helvetica,sans-Serif" font-size="11.00" fill="#000000">varchar2[30]</text>
<polygon fill="#ffffff" stroke="transparent" points="10.5,-40.2 10.5,-59.2 97.5,-59.2 97.5,-40.2 10.5,-40.2"/>
<polygon fill="none" stroke="#000000" points="10.5,-40.2 10.5,-59.2 97.5,-59.2 97.5,-40.2 10.5,-40.2"/>
<text text-anchor="start" x="13.5" y="-46.3" font-family="Helvetica,sans-Serif" font-size="11.00" fill="#000000">&lt; 0</text>
<polygon fill="#ffffff" stroke="transparent" points="97.5,-40.2 97.5,-59.2 202.5,-59.2 202.5,-40.2 97.5,-40.2"/>
<polygon fill="none" stroke="#000000" points="97.5,-40.2 97.5,-59.2 202.5,-59.2 202.5,-40.2 97.5,-40.2"/>
<text text-anchor="start" x="167.1105" y="-46.3" font-family="Helvetica,sans-Serif" font-size="11.00" fill="#000000">7 rows</text>
<polygon fill="#ffffff" stroke="transparent" points="202.5,-40.2 202.5,-59.2 373.5,-59.2 373.5,-40.2 202.5,-40.2"/>
<polygon fill="none" stroke="#000000" points="202.5,-40.2 202.5,-59.2 373.5,-59.2 373.5,-40.2 202.5,-40.2"/>
<text text-anchor="start" x="354.9053" y="-46.3" font-family="Helvetica,sans-Serif" font-size="11.00" fill="#000000">2 &gt;</text>
<polygon fill="none" stroke="#000000" stroke-width="2" points="9,-39.2 9,-215.2 374,-215.2 374,-39.2 9,-39.2"/>
</a>
</g>
</g>
<!-- DNA_ATTACHMENT_SITES_REFERENCES&#45;&gt;DNA_ATTACHMENT_SITES -->
<g id="edge1" class="edge">
<title>DNA_ATTACHMENT_SITES_REFERENCES:w&#45;&gt;DNA_ATTACHMENT_SITES:e</title>
<path fill="none" stroke="#000000" d="M709.9791,-235.3966C583.854,-238.8246 535.7108,-285.248 416,-229.2 389.8917,-216.9762 402.3281,-180.2 373.5,-180.2"/>
<polygon fill="#000000" stroke="#000000" points="716.5007,-235.3084 724.5488,-238.7997 720.5004,-235.2542 724.5,-235.2 724.5,-235.2 724.5,-235.2 720.5004,-235.2542 724.4512,-231.6003 716.5007,-235.3084 716.5007,-235.3084"/>
<ellipse fill="none" stroke="#000000" cx="713.301" cy="-235.3517" rx="3.2" ry="3.2"/>
</g>
<!-- TRACER_LIGANDS -->
<g id="node3" class="node">
<title>TRACER_LIGANDS</title>
<g id="a_node3"><a xlink:href="../../tables/TRACER_LIGANDS.html" xlink:title="TRACER_LIGANDS" target="_top">
<polygon fill="#ffffff" stroke="transparent" points="424,-69.7 424,-218.7 675,-218.7 675,-69.7 424,-69.7"/>
<polygon fill="#f5f5f5" stroke="transparent" points="424.5,-195.2 424.5,-218.2 675.5,-218.2 675.5,-195.2 424.5,-195.2"/>
<polygon fill="none" stroke="#000000" points="424.5,-195.2 424.5,-218.2 675.5,-218.2 675.5,-195.2 424.5,-195.2"/>
<text text-anchor="start" x="429.5" y="-204.3" font-family="Helvetica,sans-Serif" font-weight="bold" font-size="11.00" fill="#000000">TRACER_LIGANDS</text>
<text text-anchor="start" x="640.5437" y="-203.3" font-family="Helvetica,sans-Serif" font-size="11.00" fill="#000000">[table]</text>
<polygon fill="none" stroke="#000000" points="424.5,-173.2 424.5,-195.2 675.5,-195.2 675.5,-173.2 424.5,-173.2"/>
<image xlink:href="../../images/primaryKeys.png" width="11px" height="12px" preserveAspectRatio="xMinYMin meet" x="429.5" y="-190.2"/>
<text text-anchor="start" x="444.5" y="-180.3" font-family="Helvetica,sans-Serif" font-size="11.00" fill="#000000">ID</text>
<polygon fill="none" stroke="#000000" points="424.5,-151.2 424.5,-173.2 675.5,-173.2 675.5,-151.2 424.5,-151.2"/>
<image xlink:href="../../images/foreignKeys.png" width="11px" height="12px" preserveAspectRatio="xMinYMin meet" x="429.5" y="-168.2"/>
<text text-anchor="start" x="444.5" y="-158.3" font-family="Helvetica,sans-Serif" font-size="11.00" fill="#000000">TYPE_ID</text>
<polygon fill="none" stroke="#000000" points="424.5,-129.2 424.5,-151.2 675.5,-151.2 675.5,-129.2 424.5,-129.2"/>
<image xlink:href="../../images/foreignKeys.png" width="11px" height="12px" preserveAspectRatio="xMinYMin meet" x="429.5" y="-146.2"/>
<text text-anchor="start" x="444.5" y="-136.3" font-family="Helvetica,sans-Serif" font-size="11.00" fill="#000000">TRACER_SYNTHESIS_SCIENTIST_ID</text>
<polygon fill="none" stroke="#000000" points="424.5,-107.2 424.5,-129.2 675.5,-129.2 675.5,-107.2 424.5,-107.2"/>
<image xlink:href="../../images/foreignKeys.png" width="11px" height="12px" preserveAspectRatio="xMinYMin meet" x="429.5" y="-124.2"/>
<text text-anchor="start" x="444.5" y="-114.3" font-family="Helvetica,sans-Serif" font-size="11.00" fill="#000000">DNA_ATTACHMENT_SITE_ID</text>
<polygon fill="none" stroke="#000000" points="424.5,-88.2 424.5,-107.2 675.5,-107.2 675.5,-88.2 424.5,-88.2"/>
<text text-anchor="start" x="427.5" y="-94.3" font-family="Helvetica,sans-Serif" font-size="11.00" fill="#000000">...</text>
<polygon fill="#ffffff" stroke="transparent" points="424.5,-69.2 424.5,-88.2 524.5,-88.2 524.5,-69.2 424.5,-69.2"/>
<polygon fill="none" stroke="#000000" points="424.5,-69.2 424.5,-88.2 524.5,-88.2 524.5,-69.2 424.5,-69.2"/>
<text text-anchor="start" x="427.5" y="-75.3" font-family="Helvetica,sans-Serif" font-size="11.00" fill="#000000">&lt; 3</text>
<polygon fill="#ffffff" stroke="transparent" points="524.5,-69.2 524.5,-88.2 614.5,-88.2 614.5,-69.2 524.5,-69.2"/>
<polygon fill="none" stroke="#000000" points="524.5,-69.2 524.5,-88.2 614.5,-88.2 614.5,-69.2 524.5,-69.2"/>
<text text-anchor="start" x="566.8807" y="-75.3" font-family="Helvetica,sans-Serif" font-size="11.00" fill="#000000">416 rows</text>
<polygon fill="#ffffff" stroke="transparent" points="614.5,-69.2 614.5,-88.2 675.5,-88.2 675.5,-69.2 614.5,-69.2"/>
<polygon fill="none" stroke="#000000" points="614.5,-69.2 614.5,-88.2 675.5,-88.2 675.5,-69.2 614.5,-69.2"/>
<text text-anchor="start" x="656.9053" y="-75.3" font-family="Helvetica,sans-Serif" font-size="11.00" fill="#000000">7 &gt;</text>
</a>
</g>
</g>
<!-- DNA_ATTACHMENT_SITES_REFERENCES&#45;&gt;TRACER_LIGANDS -->
<g id="edge2" class="edge">
<title>DNA_ATTACHMENT_SITES_REFERENCES:w&#45;&gt;TRACER_LIGANDS:e</title>
<path fill="none" stroke="#000000" d="M709.9302,-189.9807C698.6445,-187.9751 691.6554,-184.2 675.5,-184.2"/>
<polygon fill="#000000" stroke="#000000" points="716.5279,-190.5328 724.1998,-194.7875 720.5139,-190.8664 724.5,-191.2 724.5,-191.2 724.5,-191.2 720.5139,-190.8664 724.8002,-187.6125 716.5279,-190.5328 716.5279,-190.5328"/>
<ellipse fill="none" stroke="#000000" cx="713.339" cy="-190.2659" rx="3.2" ry="3.2"/>
</g>
<!-- TRACER_LIGANDS&#45;&gt;DNA_ATTACHMENT_SITES -->
<g id="edge3" class="edge">
<title>TRACER_LIGANDS:w&#45;&gt;DNA_ATTACHMENT_SITES:e</title>
<path fill="none" stroke="#000000" d="M410.4998,-123.065C394.1631,-137.681 403.0478,-180.2 373.5,-180.2"/>
<polygon fill="#000000" stroke="#000000" points="416.9433,-120.826 425.6817,-121.6005 420.7216,-119.513 424.5,-118.2 424.5,-118.2 424.5,-118.2 420.7216,-119.513 423.3183,-114.7995 416.9433,-120.826 416.9433,-120.826"/>
<ellipse fill="none" stroke="#000000" cx="413.9206" cy="-121.8764" rx="3.2" ry="3.2"/>
</g>
</g>
</svg>
