<?xml version="1.0" encoding="UTF-8" standalone="no"?>
<!DOCTYPE svg PUBLIC "-//W3C//DTD SVG 1.1//EN"
 "http://www.w3.org/Graphics/SVG/1.1/DTD/svg11.dtd">
<!-- Generated by graphviz version 2.40.1 (20161225.0304)
 -->
<!-- Title: twoDegreesRelationshipsDiagram Pages: 1 -->
<svg width="1029pt" height="715pt"
 viewBox="0.00 0.00 1029.00 714.70" xmlns="http://www.w3.org/2000/svg" xmlns:xlink="http://www.w3.org/1999/xlink">
<g id="graph0" class="graph" transform="scale(1 1) rotate(0) translate(4 710.7)">
<title>twoDegreesRelationshipsDiagram</title>
<polygon fill="#ffffff" stroke="transparent" points="-4,4 -4,-710.7 1025,-710.7 1025,4 -4,4"/>
<text text-anchor="middle" x="72.4936" y="-7.3" font-family="Helvetica,sans-Serif" font-size="11.00" fill="#000000">Generated by SchemaSpy</text>
<!-- DNA_ATTACHMENT_SITES_REFERENCES -->
<g id="node1" class="node">
<title>DNA_ATTACHMENT_SITES_REFERENCES</title>
<g id="a_node1"><a xlink:href="../../tables/DNA_ATTACHMENT_SITES_REFERENCES.html" xlink:title="DNA_ATTACHMENT_SITES_REFERENCES" target="_top">
<polygon fill="#ffffff" stroke="transparent" points="726,-61.7 726,-210.7 1011,-210.7 1011,-61.7 726,-61.7"/>
<polygon fill="#f5f5f5" stroke="transparent" points="726.5,-187.2 726.5,-210.2 1011.5,-210.2 1011.5,-187.2 726.5,-187.2"/>
<polygon fill="none" stroke="#000000" points="726.5,-187.2 726.5,-210.2 1011.5,-210.2 1011.5,-187.2 726.5,-187.2"/>
<text text-anchor="start" x="731.5" y="-196.3" font-family="Helvetica,sans-Serif" font-weight="bold" font-size="11.00" fill="#000000">DNA_ATTACHMENT_SITES_REFERENCES</text>
<text text-anchor="start" x="976.5437" y="-195.3" font-family="Helvetica,sans-Serif" font-size="11.00" fill="#000000">[table]</text>
<polygon fill="none" stroke="#000000" points="726.5,-165.2 726.5,-187.2 1011.5,-187.2 1011.5,-165.2 726.5,-165.2"/>
<image xlink:href="../../images/primaryKeys.png" width="11px" height="12px" preserveAspectRatio="xMinYMin meet" x="731.5" y="-182.2"/>
<text text-anchor="start" x="746.5" y="-172.3" font-family="Helvetica,sans-Serif" font-size="11.00" fill="#000000">ID</text>
<polygon fill="none" stroke="#000000" points="726.5,-143.2 726.5,-165.2 1011.5,-165.2 1011.5,-143.2 726.5,-143.2"/>
<image xlink:href="../../images/foreignKeys.png" width="11px" height="12px" preserveAspectRatio="xMinYMin meet" x="731.5" y="-160.2"/>
<text text-anchor="start" x="746.5" y="-150.3" font-family="Helvetica,sans-Serif" font-size="11.00" fill="#000000">DNA_ATTACHMENT_SITE_ID</text>
<polygon fill="none" stroke="#000000" points="726.5,-121.2 726.5,-143.2 1011.5,-143.2 1011.5,-121.2 726.5,-121.2"/>
<image xlink:href="../../images/foreignKeys.png" width="11px" height="12px" preserveAspectRatio="xMinYMin meet" x="731.5" y="-138.2"/>
<text text-anchor="start" x="746.5" y="-128.3" font-family="Helvetica,sans-Serif" font-size="11.00" fill="#000000">REFERENCE_ID</text>
<polygon fill="none" stroke="#000000" points="726.5,-99.2 726.5,-121.2 1011.5,-121.2 1011.5,-99.2 726.5,-99.2"/>
<image xlink:href="../../images/foreignKeys.png" width="11px" height="12px" preserveAspectRatio="xMinYMin meet" x="731.5" y="-116.2"/>
<text text-anchor="start" x="746.5" y="-106.3" font-family="Helvetica,sans-Serif" font-size="11.00" fill="#000000">TRACER_LIGAND_ID</text>
<polygon fill="none" stroke="#000000" points="726.5,-80.2 726.5,-99.2 1011.5,-99.2 1011.5,-80.2 726.5,-80.2"/>
<text text-anchor="start" x="729.5" y="-86.3" font-family="Helvetica,sans-Serif" font-size="11.00" fill="#000000">...</text>
<polygon fill="#ffffff" stroke="transparent" points="726.5,-61.2 726.5,-80.2 851.5,-80.2 851.5,-61.2 726.5,-61.2"/>
<polygon fill="none" stroke="#000000" points="726.5,-61.2 726.5,-80.2 851.5,-80.2 851.5,-61.2 726.5,-61.2"/>
<text text-anchor="start" x="729.5" y="-67.3" font-family="Helvetica,sans-Serif" font-size="11.00" fill="#000000">&lt; 3</text>
<polygon fill="#ffffff" stroke="transparent" points="851.5,-61.2 851.5,-80.2 947.5,-80.2 947.5,-61.2 851.5,-61.2"/>
<polygon fill="none" stroke="#000000" points="851.5,-61.2 851.5,-80.2 947.5,-80.2 947.5,-61.2 851.5,-61.2"/>
<text text-anchor="start" x="905.9956" y="-67.3" font-family="Helvetica,sans-Serif" font-size="11.00" fill="#000000">29 rows</text>
<polygon fill="#ffffff" stroke="transparent" points="947.5,-61.2 947.5,-80.2 1011.5,-80.2 1011.5,-61.2 947.5,-61.2"/>
<polygon fill="none" stroke="#000000" points="947.5,-61.2 947.5,-80.2 1011.5,-80.2 1011.5,-61.2 947.5,-61.2"/>
<text text-anchor="start" x="1002.3862" y="-67.3" font-family="Helvetica,sans-Serif" font-size="11.00" fill="#000000"> &#160;</text>
</a>
</g>
</g>
<!-- DNA_ATTACHMENT_SITES -->
<g id="node2" class="node">
<title>DNA_ATTACHMENT_SITES</title>
<g id="a_node2"><a xlink:href="../../tables/DNA_ATTACHMENT_SITES.html" xlink:title="DNA_ATTACHMENT_SITES" target="_top">
<polygon fill="#ffffff" stroke="transparent" points="8,-38.2 8,-216.2 375,-216.2 375,-38.2 8,-38.2"/>
<polygon fill="#f5f5f5" stroke="transparent" points="10.5,-191.2 10.5,-214.2 373.5,-214.2 373.5,-191.2 10.5,-191.2"/>
<polygon fill="none" stroke="#000000" points="10.5,-191.2 10.5,-214.2 373.5,-214.2 373.5,-191.2 10.5,-191.2"/>
<text text-anchor="start" x="15.5" y="-200.3" font-family="Helvetica,sans-Serif" font-weight="bold" font-size="11.00" fill="#000000">DNA_ATTACHMENT_SITES</text>
<text text-anchor="start" x="338.5437" y="-199.3" font-family="Helvetica,sans-Serif" font-size="11.00" fill="#000000">[table]</text>
<polygon fill="none" stroke="#000000" points="10.5,-169.2 10.5,-191.2 202.5,-191.2 202.5,-169.2 10.5,-169.2"/>
<image xlink:href="../../images/primaryKeys.png" width="11px" height="12px" preserveAspectRatio="xMinYMin meet" x="15.5" y="-186.2"/>
<text text-anchor="start" x="30.5" y="-176.3" font-family="Helvetica,sans-Serif" font-size="11.00" fill="#000000">ID</text>
<polygon fill="none" stroke="#000000" points="202.5,-169.2 202.5,-191.2 373.5,-191.2 373.5,-169.2 202.5,-169.2"/>
<text text-anchor="start" x="205.5" y="-176.9" font-family="Helvetica,sans-Serif" font-size="11.00" fill="#000000">number[19]</text>
<polygon fill="none" stroke="#000000" points="10.5,-147.2 10.5,-169.2 202.5,-169.2 202.5,-147.2 10.5,-147.2"/>
<text text-anchor="start" x="30.5" y="-154.3" font-family="Helvetica,sans-Serif" font-size="11.00" fill="#000000">CREATED_AT</text>
<polygon fill="none" stroke="#000000" points="202.5,-147.2 202.5,-169.2 373.5,-169.2 373.5,-147.2 202.5,-147.2"/>
<text text-anchor="start" x="205.4896" y="-154.9" font-family="Helvetica,sans-Serif" font-size="11.00" fill="#000000">timestamp(6) with time zone[13,6]</text>
<polygon fill="none" stroke="#000000" points="10.5,-125.2 10.5,-147.2 202.5,-147.2 202.5,-125.2 10.5,-125.2"/>
<text text-anchor="start" x="30.5" y="-132.3" font-family="Helvetica,sans-Serif" font-size="11.00" fill="#000000">CREATED_BY</text>
<polygon fill="none" stroke="#000000" points="202.5,-125.2 202.5,-147.2 373.5,-147.2 373.5,-125.2 202.5,-125.2"/>
<text text-anchor="start" x="205.5" y="-132.9" font-family="Helvetica,sans-Serif" font-size="11.00" fill="#000000">number[19]</text>
<polygon fill="none" stroke="#000000" points="10.5,-103.2 10.5,-125.2 202.5,-125.2 202.5,-103.2 10.5,-103.2"/>
<text text-anchor="start" x="30.5" y="-110.3" font-family="Helvetica,sans-Serif" font-size="11.00" fill="#000000">UPDATED_AT</text>
<polygon fill="none" stroke="#000000" points="202.5,-103.2 202.5,-125.2 373.5,-125.2 373.5,-103.2 202.5,-103.2"/>
<text text-anchor="start" x="205.4896" y="-110.9" font-family="Helvetica,sans-Serif" font-size="11.00" fill="#000000">timestamp(6) with time zone[13,6]</text>
<polygon fill="none" stroke="#000000" points="10.5,-81.2 10.5,-103.2 202.5,-103.2 202.5,-81.2 10.5,-81.2"/>
<text text-anchor="start" x="30.5" y="-88.3" font-family="Helvetica,sans-Serif" font-size="11.00" fill="#000000">UPDATED_BY</text>
<polygon fill="none" stroke="#000000" points="202.5,-81.2 202.5,-103.2 373.5,-103.2 373.5,-81.2 202.5,-81.2"/>
<text text-anchor="start" x="205.5" y="-88.9" font-family="Helvetica,sans-Serif" font-size="11.00" fill="#000000">number[19]</text>
<polygon fill="none" stroke="#000000" points="10.5,-59.2 10.5,-81.2 202.5,-81.2 202.5,-59.2 10.5,-59.2"/>
<text text-anchor="start" x="30.5" y="-66.3" font-family="Helvetica,sans-Serif" font-size="11.00" fill="#000000">NAME</text>
<polygon fill="none" stroke="#000000" points="202.5,-59.2 202.5,-81.2 373.5,-81.2 373.5,-59.2 202.5,-59.2"/>
<text text-anchor="start" x="205.5" y="-66.9" font-family="Helvetica,sans-Serif" font-size="11.00" fill="#000000">varchar2[30]</text>
<polygon fill="#ffffff" stroke="transparent" points="10.5,-40.2 10.5,-59.2 97.5,-59.2 97.5,-40.2 10.5,-40.2"/>
<polygon fill="none" stroke="#000000" points="10.5,-40.2 10.5,-59.2 97.5,-59.2 97.5,-40.2 10.5,-40.2"/>
<text text-anchor="start" x="13.5" y="-46.3" font-family="Helvetica,sans-Serif" font-size="11.00" fill="#000000">&lt; 0</text>
<polygon fill="#ffffff" stroke="transparent" points="97.5,-40.2 97.5,-59.2 202.5,-59.2 202.5,-40.2 97.5,-40.2"/>
<polygon fill="none" stroke="#000000" points="97.5,-40.2 97.5,-59.2 202.5,-59.2 202.5,-40.2 97.5,-40.2"/>
<text text-anchor="start" x="167.1105" y="-46.3" font-family="Helvetica,sans-Serif" font-size="11.00" fill="#000000">7 rows</text>
<polygon fill="#ffffff" stroke="transparent" points="202.5,-40.2 202.5,-59.2 373.5,-59.2 373.5,-40.2 202.5,-40.2"/>
<polygon fill="none" stroke="#000000" points="202.5,-40.2 202.5,-59.2 373.5,-59.2 373.5,-40.2 202.5,-40.2"/>
<text text-anchor="start" x="354.9053" y="-46.3" font-family="Helvetica,sans-Serif" font-size="11.00" fill="#000000">2 &gt;</text>
<polygon fill="none" stroke="#000000" stroke-width="2" points="9,-39.2 9,-215.2 374,-215.2 374,-39.2 9,-39.2"/>
</a>
</g>
</g>
<!-- DNA_ATTACHMENT_SITES_REFERENCES&#45;&gt;DNA_ATTACHMENT_SITES -->
<g id="edge1" class="edge">
<title>DNA_ATTACHMENT_SITES_REFERENCES:w&#45;&gt;DNA_ATTACHMENT_SITES:e</title>
<path fill="none" stroke="#000000" d="M712.093,-154.2746C566.6717,-155.7996 525.8978,-180.2 373.5,-180.2"/>
<polygon fill="#000000" stroke="#000000" points="718.5001,-154.2415 726.5187,-157.8 722.5001,-154.2207 726.5,-154.2 726.5,-154.2 726.5,-154.2 722.5001,-154.2207 726.4813,-150.6 718.5001,-154.2415 718.5001,-154.2415"/>
<ellipse fill="none" stroke="#000000" cx="715.3002" cy="-154.2581" rx="3.2" ry="3.2"/>
</g>
<!-- REFERENCES -->
<g id="node3" class="node">
<title>REFERENCES</title>
<g id="a_node3"><a xlink:href="../../tables/REFERENCES.html" xlink:title="REFERENCES" target="_top">
<polygon fill="#ffffff" stroke="transparent" points="490.5,-214.7 490.5,-275.7 608.5,-275.7 608.5,-214.7 490.5,-214.7"/>
<polygon fill="#f5f5f5" stroke="transparent" points="490.5,-252.2 490.5,-275.2 608.5,-275.2 608.5,-252.2 490.5,-252.2"/>
<polygon fill="none" stroke="#000000" points="490.5,-252.2 490.5,-275.2 608.5,-275.2 608.5,-252.2 490.5,-252.2"/>
<text text-anchor="start" x="495.4185" y="-261.3" font-family="Helvetica,sans-Serif" font-weight="bold" font-size="11.00" fill="#000000">REFERENCES</text>
<text text-anchor="start" x="574.0219" y="-260.3" font-family="Helvetica,sans-Serif" font-size="11.00" fill="#000000">[table]</text>
<polygon fill="none" stroke="#000000" points="490.5,-233.2 490.5,-252.2 608.5,-252.2 608.5,-233.2 490.5,-233.2"/>
<text text-anchor="start" x="493.5" y="-239.3" font-family="Helvetica,sans-Serif" font-size="11.00" fill="#000000">...</text>
<polygon fill="#ffffff" stroke="transparent" points="490.5,-214.2 490.5,-233.2 516.5,-233.2 516.5,-214.2 490.5,-214.2"/>
<polygon fill="none" stroke="#000000" points="490.5,-214.2 490.5,-233.2 516.5,-233.2 516.5,-214.2 490.5,-214.2"/>
<text text-anchor="start" x="493.5" y="-220.3" font-family="Helvetica,sans-Serif" font-size="11.00" fill="#000000">&lt; 1</text>
<polygon fill="#ffffff" stroke="transparent" points="516.5,-214.2 516.5,-233.2 578.5,-233.2 578.5,-214.2 516.5,-214.2"/>
<polygon fill="none" stroke="#000000" points="516.5,-214.2 516.5,-233.2 578.5,-233.2 578.5,-214.2 516.5,-214.2"/>
<text text-anchor="start" x="521.7089" y="-220.3" font-family="Helvetica,sans-Serif" font-size="11.00" fill="#000000">2,900 rows</text>
<polygon fill="#ffffff" stroke="transparent" points="578.5,-214.2 578.5,-233.2 608.5,-233.2 608.5,-214.2 578.5,-214.2"/>
<polygon fill="none" stroke="#000000" points="578.5,-214.2 578.5,-233.2 608.5,-233.2 608.5,-214.2 578.5,-214.2"/>
<text text-anchor="start" x="583.7904" y="-220.3" font-family="Helvetica,sans-Serif" font-size="11.00" fill="#000000">20 &gt;</text>
</a>
</g>
</g>
<!-- DNA_ATTACHMENT_SITES_REFERENCES&#45;&gt;REFERENCES -->
<g id="edge2" class="edge">
<title>DNA_ATTACHMENT_SITES_REFERENCES:w&#45;&gt;REFERENCES:e</title>
<path fill="none" stroke="#000000" d="M712.3911,-135.475C699.5917,-142.8826 698.601,-161.43 683,-176.2 650.8769,-206.6121 652.7356,-242.2 608.5,-242.2"/>
<polygon fill="#000000" stroke="#000000" points="718.7072,-134.0089 727.314,-135.7068 722.6036,-133.1045 726.5,-132.2 726.5,-132.2 726.5,-132.2 722.6036,-133.1045 725.686,-128.6932 718.7072,-134.0089 718.7072,-134.0089"/>
<ellipse fill="none" stroke="#000000" cx="715.5901" cy="-134.7325" rx="3.2" ry="3.2"/>
</g>
<!-- TRACER_LIGANDS -->
<g id="node4" class="node">
<title>TRACER_LIGANDS</title>
<g id="a_node4"><a xlink:href="../../tables/TRACER_LIGANDS.html" xlink:title="TRACER_LIGANDS" target="_top">
<polygon fill="#ffffff" stroke="transparent" points="424,-296.7 424,-445.7 675,-445.7 675,-296.7 424,-296.7"/>
<polygon fill="#f5f5f5" stroke="transparent" points="424.5,-422.2 424.5,-445.2 675.5,-445.2 675.5,-422.2 424.5,-422.2"/>
<polygon fill="none" stroke="#000000" points="424.5,-422.2 424.5,-445.2 675.5,-445.2 675.5,-422.2 424.5,-422.2"/>
<text text-anchor="start" x="429.5" y="-431.3" font-family="Helvetica,sans-Serif" font-weight="bold" font-size="11.00" fill="#000000">TRACER_LIGANDS</text>
<text text-anchor="start" x="640.5437" y="-430.3" font-family="Helvetica,sans-Serif" font-size="11.00" fill="#000000">[table]</text>
<polygon fill="none" stroke="#000000" points="424.5,-400.2 424.5,-422.2 675.5,-422.2 675.5,-400.2 424.5,-400.2"/>
<image xlink:href="../../images/primaryKeys.png" width="11px" height="12px" preserveAspectRatio="xMinYMin meet" x="429.5" y="-417.2"/>
<text text-anchor="start" x="444.5" y="-407.3" font-family="Helvetica,sans-Serif" font-size="11.00" fill="#000000">ID</text>
<polygon fill="none" stroke="#000000" points="424.5,-378.2 424.5,-400.2 675.5,-400.2 675.5,-378.2 424.5,-378.2"/>
<image xlink:href="../../images/foreignKeys.png" width="11px" height="12px" preserveAspectRatio="xMinYMin meet" x="429.5" y="-395.2"/>
<text text-anchor="start" x="444.5" y="-385.3" font-family="Helvetica,sans-Serif" font-size="11.00" fill="#000000">TYPE_ID</text>
<polygon fill="none" stroke="#000000" points="424.5,-356.2 424.5,-378.2 675.5,-378.2 675.5,-356.2 424.5,-356.2"/>
<image xlink:href="../../images/foreignKeys.png" width="11px" height="12px" preserveAspectRatio="xMinYMin meet" x="429.5" y="-373.2"/>
<text text-anchor="start" x="444.5" y="-363.3" font-family="Helvetica,sans-Serif" font-size="11.00" fill="#000000">TRACER_SYNTHESIS_SCIENTIST_ID</text>
<polygon fill="none" stroke="#000000" points="424.5,-334.2 424.5,-356.2 675.5,-356.2 675.5,-334.2 424.5,-334.2"/>
<image xlink:href="../../images/foreignKeys.png" width="11px" height="12px" preserveAspectRatio="xMinYMin meet" x="429.5" y="-351.2"/>
<text text-anchor="start" x="444.5" y="-341.3" font-family="Helvetica,sans-Serif" font-size="11.00" fill="#000000">DNA_ATTACHMENT_SITE_ID</text>
<polygon fill="none" stroke="#000000" points="424.5,-315.2 424.5,-334.2 675.5,-334.2 675.5,-315.2 424.5,-315.2"/>
<text text-anchor="start" x="427.5" y="-321.3" font-family="Helvetica,sans-Serif" font-size="11.00" fill="#000000">...</text>
<polygon fill="#ffffff" stroke="transparent" points="424.5,-296.2 424.5,-315.2 524.5,-315.2 524.5,-296.2 424.5,-296.2"/>
<polygon fill="none" stroke="#000000" points="424.5,-296.2 424.5,-315.2 524.5,-315.2 524.5,-296.2 424.5,-296.2"/>
<text text-anchor="start" x="427.5" y="-302.3" font-family="Helvetica,sans-Serif" font-size="11.00" fill="#000000">&lt; 3</text>
<polygon fill="#ffffff" stroke="transparent" points="524.5,-296.2 524.5,-315.2 614.5,-315.2 614.5,-296.2 524.5,-296.2"/>
<polygon fill="none" stroke="#000000" points="524.5,-296.2 524.5,-315.2 614.5,-315.2 614.5,-296.2 524.5,-296.2"/>
<text text-anchor="start" x="566.8807" y="-302.3" font-family="Helvetica,sans-Serif" font-size="11.00" fill="#000000">416 rows</text>
<polygon fill="#ffffff" stroke="transparent" points="614.5,-296.2 614.5,-315.2 675.5,-315.2 675.5,-296.2 614.5,-296.2"/>
<polygon fill="none" stroke="#000000" points="614.5,-296.2 614.5,-315.2 675.5,-315.2 675.5,-296.2 614.5,-296.2"/>
<text text-anchor="start" x="656.9053" y="-302.3" font-family="Helvetica,sans-Serif" font-size="11.00" fill="#000000">7 &gt;</text>
</a>
</g>
</g>
<!-- DNA_ATTACHMENT_SITES_REFERENCES&#45;&gt;TRACER_LIGANDS -->
<g id="edge3" class="edge">
<title>DNA_ATTACHMENT_SITES_REFERENCES:w&#45;&gt;TRACER_LIGANDS:e</title>
<path fill="none" stroke="#000000" d="M712.9796,-115.6814C671.2424,-156.4769 737.9095,-411.2 675.5,-411.2"/>
<polygon fill="#000000" stroke="#000000" points="719.0861,-113.2057 727.8526,-113.5363 722.7931,-111.7029 726.5,-110.2 726.5,-110.2 726.5,-110.2 722.7931,-111.7029 725.1474,-106.8637 719.0861,-113.2057 719.0861,-113.2057"/>
<ellipse fill="none" stroke="#000000" cx="716.1205" cy="-114.408" rx="3.2" ry="3.2"/>
</g>
<!-- USERS -->
<g id="node7" class="node">
<title>USERS</title>
<g id="a_node7"><a xlink:href="../../tables/USERS.html" xlink:title="USERS" target="_top">
<polygon fill="#ffffff" stroke="transparent" points="151.5,-265.7 151.5,-326.7 231.5,-326.7 231.5,-265.7 151.5,-265.7"/>
<polygon fill="#f5f5f5" stroke="transparent" points="151.5,-303.2 151.5,-326.2 231.5,-326.2 231.5,-303.2 151.5,-303.2"/>
<polygon fill="none" stroke="#000000" points="151.5,-303.2 151.5,-326.2 231.5,-326.2 231.5,-303.2 151.5,-303.2"/>
<text text-anchor="start" x="156.0553" y="-312.3" font-family="Helvetica,sans-Serif" font-weight="bold" font-size="11.00" fill="#000000">USERS</text>
<text text-anchor="start" x="197.0219" y="-311.3" font-family="Helvetica,sans-Serif" font-size="11.00" fill="#000000">[table]</text>
<polygon fill="none" stroke="#000000" points="151.5,-284.2 151.5,-303.2 231.5,-303.2 231.5,-284.2 151.5,-284.2"/>
<text text-anchor="start" x="154.5" y="-290.3" font-family="Helvetica,sans-Serif" font-size="11.00" fill="#000000">...</text>
<polygon fill="#ffffff" stroke="transparent" points="151.5,-265.2 151.5,-284.2 164.5,-284.2 164.5,-265.2 151.5,-265.2"/>
<polygon fill="none" stroke="#000000" points="151.5,-265.2 151.5,-284.2 164.5,-284.2 164.5,-265.2 151.5,-265.2"/>
<text text-anchor="start" x="154.5" y="-271.3" font-family="Helvetica,sans-Serif" font-size="11.00" fill="#000000"> &#160;</text>
<polygon fill="#ffffff" stroke="transparent" points="164.5,-265.2 164.5,-284.2 209.5,-284.2 209.5,-265.2 164.5,-265.2"/>
<polygon fill="none" stroke="#000000" points="164.5,-265.2 164.5,-284.2 209.5,-284.2 209.5,-265.2 164.5,-265.2"/>
<text text-anchor="start" x="167.9956" y="-271.3" font-family="Helvetica,sans-Serif" font-size="11.00" fill="#000000">33 rows</text>
<polygon fill="#ffffff" stroke="transparent" points="209.5,-265.2 209.5,-284.2 231.5,-284.2 231.5,-265.2 209.5,-265.2"/>
<polygon fill="none" stroke="#000000" points="209.5,-265.2 209.5,-284.2 231.5,-284.2 231.5,-265.2 209.5,-265.2"/>
<text text-anchor="start" x="212.9053" y="-271.3" font-family="Helvetica,sans-Serif" font-size="11.00" fill="#000000">9 &gt;</text>
</a>
</g>
</g>
<!-- REFERENCES&#45;&gt;USERS -->
<g id="edge6" class="edge">
<title>REFERENCES:w&#45;&gt;USERS:e</title>
<path fill="none" stroke="#000000" d="M475.8767,-242.4744C370.9136,-246.4887 343.7804,-293.2 231.5,-293.2"/>
<polygon fill="#000000" stroke="#000000" points="482.5014,-242.3501 490.5676,-245.7994 486.5007,-242.2751 490.5,-242.2 490.5,-242.2 490.5,-242.2 486.5007,-242.2751 490.4324,-238.6006 482.5014,-242.3501 482.5014,-242.3501"/>
<ellipse fill="none" stroke="#000000" cx="479.302" cy="-242.4102" rx="3.2" ry="3.2"/>
</g>
<!-- TRACER_LIGANDS&#45;&gt;DNA_ATTACHMENT_SITES -->
<g id="edge8" class="edge">
<title>TRACER_LIGANDS:w&#45;&gt;DNA_ATTACHMENT_SITES:e</title>
<path fill="none" stroke="#000000" d="M410.2256,-342.6082C361.9728,-321.6167 444.5597,-180.2 373.5,-180.2"/>
<polygon fill="#000000" stroke="#000000" points="416.6287,-343.7708 423.8569,-348.7421 420.5643,-344.4854 424.5,-345.2 424.5,-345.2 424.5,-345.2 420.5643,-344.4854 425.1431,-341.6579 416.6287,-343.7708 416.6287,-343.7708"/>
<ellipse fill="none" stroke="#000000" cx="413.4802" cy="-343.1991" rx="3.2" ry="3.2"/>
</g>
<!-- TRACER_LIGANDS&#45;&gt;USERS -->
<g id="edge9" class="edge">
<title>TRACER_LIGANDS:w&#45;&gt;USERS:e</title>
<path fill="none" stroke="#000000" d="M410.1275,-365.0219C401.3252,-361.9392 395.8305,-356.1293 383,-351.2 315.6971,-325.3429 303.599,-293.2 231.5,-293.2"/>
<polygon fill="#000000" stroke="#000000" points="416.5903,-366.0013 423.9606,-370.7594 420.5452,-366.6006 424.5,-367.2 424.5,-367.2 424.5,-367.2 420.5452,-366.6006 425.0394,-363.6406 416.5903,-366.0013 416.5903,-366.0013"/>
<ellipse fill="none" stroke="#000000" cx="413.4264" cy="-365.5218" rx="3.2" ry="3.2"/>
</g>
<!-- TRACER_TYPES -->
<g id="node9" class="node">
<title>TRACER_TYPES</title>
<g id="a_node9"><a xlink:href="../../tables/TRACER_TYPES.html" xlink:title="TRACER_TYPES" target="_top">
<polygon fill="#ffffff" stroke="transparent" points="126.5,-361.7 126.5,-422.7 256.5,-422.7 256.5,-361.7 126.5,-361.7"/>
<polygon fill="#f5f5f5" stroke="transparent" points="126.5,-399.2 126.5,-422.2 256.5,-422.2 256.5,-399.2 126.5,-399.2"/>
<polygon fill="none" stroke="#000000" points="126.5,-399.2 126.5,-422.2 256.5,-422.2 256.5,-399.2 126.5,-399.2"/>
<text text-anchor="start" x="131.3036" y="-408.3" font-family="Helvetica,sans-Serif" font-weight="bold" font-size="11.00" fill="#000000">TRACER_TYPES</text>
<text text-anchor="start" x="222.0219" y="-407.3" font-family="Helvetica,sans-Serif" font-size="11.00" fill="#000000">[table]</text>
<polygon fill="none" stroke="#000000" points="126.5,-380.2 126.5,-399.2 256.5,-399.2 256.5,-380.2 126.5,-380.2"/>
<text text-anchor="start" x="129.5" y="-386.3" font-family="Helvetica,sans-Serif" font-size="11.00" fill="#000000">...</text>
<polygon fill="#ffffff" stroke="transparent" points="126.5,-361.2 126.5,-380.2 164.5,-380.2 164.5,-361.2 126.5,-361.2"/>
<polygon fill="none" stroke="#000000" points="126.5,-361.2 126.5,-380.2 164.5,-380.2 164.5,-361.2 126.5,-361.2"/>
<text text-anchor="start" x="129.5" y="-367.3" font-family="Helvetica,sans-Serif" font-size="11.00" fill="#000000"> &#160;</text>
<polygon fill="#ffffff" stroke="transparent" points="164.5,-361.2 164.5,-380.2 221.5,-380.2 221.5,-361.2 164.5,-361.2"/>
<polygon fill="none" stroke="#000000" points="164.5,-361.2 164.5,-380.2 221.5,-380.2 221.5,-361.2 164.5,-361.2"/>
<text text-anchor="start" x="179.9956" y="-367.3" font-family="Helvetica,sans-Serif" font-size="11.00" fill="#000000">12 rows</text>
<polygon fill="#ffffff" stroke="transparent" points="221.5,-361.2 221.5,-380.2 256.5,-380.2 256.5,-361.2 221.5,-361.2"/>
<polygon fill="none" stroke="#000000" points="221.5,-361.2 221.5,-380.2 256.5,-380.2 256.5,-361.2 221.5,-361.2"/>
<text text-anchor="start" x="237.9053" y="-367.3" font-family="Helvetica,sans-Serif" font-size="11.00" fill="#000000">2 &gt;</text>
</a>
</g>
</g>
<!-- TRACER_LIGANDS&#45;&gt;TRACER_TYPES -->
<g id="edge10" class="edge">
<title>TRACER_LIGANDS:w&#45;&gt;TRACER_TYPES:e</title>
<path fill="none" stroke="#000000" d="M409.9368,-389.2C347.0196,-389.2 326.0625,-389.2 256.5,-389.2"/>
<polygon fill="#000000" stroke="#000000" points="416.5,-389.2001 424.5,-392.8 420.5,-389.2 424.5,-389.2 424.5,-389.2 424.5,-389.2 420.5,-389.2 424.5,-385.6 416.5,-389.2001 416.5,-389.2001"/>
<ellipse fill="none" stroke="#000000" cx="413.3" cy="-389.2001" rx="3.2" ry="3.2"/>
</g>
<!-- IN_HOUSE_ASSAYS -->
<g id="node5" class="node">
<title>IN_HOUSE_ASSAYS</title>
<g id="a_node5"><a xlink:href="../../tables/IN_HOUSE_ASSAYS.html" xlink:title="IN_HOUSE_ASSAYS" target="_top">
<polygon fill="#ffffff" stroke="transparent" points="794,-477.7 794,-538.7 943,-538.7 943,-477.7 794,-477.7"/>
<polygon fill="#f5f5f5" stroke="transparent" points="794.5,-515.2 794.5,-538.2 943.5,-538.2 943.5,-515.2 794.5,-515.2"/>
<polygon fill="none" stroke="#000000" points="794.5,-515.2 794.5,-538.2 943.5,-538.2 943.5,-515.2 794.5,-515.2"/>
<text text-anchor="start" x="799.3233" y="-524.3" font-family="Helvetica,sans-Serif" font-weight="bold" font-size="11.00" fill="#000000">IN_HOUSE_ASSAYS</text>
<text text-anchor="start" x="909.0219" y="-523.3" font-family="Helvetica,sans-Serif" font-size="11.00" fill="#000000">[table]</text>
<polygon fill="none" stroke="#000000" points="794.5,-496.2 794.5,-515.2 943.5,-515.2 943.5,-496.2 794.5,-496.2"/>
<text text-anchor="start" x="797.5" y="-502.3" font-family="Helvetica,sans-Serif" font-size="11.00" fill="#000000">...</text>
<polygon fill="#ffffff" stroke="transparent" points="794.5,-477.2 794.5,-496.2 846.5,-496.2 846.5,-477.2 794.5,-477.2"/>
<polygon fill="none" stroke="#000000" points="794.5,-477.2 794.5,-496.2 846.5,-496.2 846.5,-477.2 794.5,-477.2"/>
<text text-anchor="start" x="797.5" y="-483.3" font-family="Helvetica,sans-Serif" font-size="11.00" fill="#000000">&lt; 4</text>
<polygon fill="#ffffff" stroke="transparent" points="846.5,-477.2 846.5,-496.2 906.5,-496.2 906.5,-477.2 846.5,-477.2"/>
<polygon fill="none" stroke="#000000" points="846.5,-477.2 846.5,-496.2 906.5,-496.2 906.5,-477.2 846.5,-477.2"/>
<text text-anchor="start" x="864.9956" y="-483.3" font-family="Helvetica,sans-Serif" font-size="11.00" fill="#000000">51 rows</text>
<polygon fill="#ffffff" stroke="transparent" points="906.5,-477.2 906.5,-496.2 943.5,-496.2 943.5,-477.2 906.5,-477.2"/>
<polygon fill="none" stroke="#000000" points="906.5,-477.2 906.5,-496.2 943.5,-496.2 943.5,-477.2 906.5,-477.2"/>
<text text-anchor="start" x="924.9053" y="-483.3" font-family="Helvetica,sans-Serif" font-size="11.00" fill="#000000">1 &gt;</text>
</a>
</g>
</g>
<!-- IN_HOUSE_ASSAYS&#45;&gt;TRACER_LIGANDS -->
<g id="edge4" class="edge">
<title>IN_HOUSE_ASSAYS:w&#45;&gt;TRACER_LIGANDS:e</title>
<path fill="none" stroke="#000000" d="M780.0888,-504.4689C752.6266,-501.3984 741.6419,-488.6992 716,-467.2 692.4627,-447.4654 706.2157,-411.2 675.5,-411.2"/>
<polygon fill="#000000" stroke="#000000" points="786.5103,-504.7946 794.3176,-508.7954 790.5051,-504.9973 794.5,-505.2 794.5,-505.2 794.5,-505.2 790.5051,-504.9973 794.6824,-501.6046 786.5103,-504.7946 786.5103,-504.7946"/>
<ellipse fill="none" stroke="#000000" cx="783.3144" cy="-504.6325" rx="3.2" ry="3.2"/>
</g>
<!-- LITERATURE_ASSAYS -->
<g id="node6" class="node">
<title>LITERATURE_ASSAYS</title>
<g id="a_node6"><a xlink:href="../../tables/LITERATURE_ASSAYS.html" xlink:title="LITERATURE_ASSAYS" target="_top">
<polygon fill="#ffffff" stroke="transparent" points="788,-395.7 788,-456.7 949,-456.7 949,-395.7 788,-395.7"/>
<polygon fill="#f5f5f5" stroke="transparent" points="788.5,-433.2 788.5,-456.2 949.5,-456.2 949.5,-433.2 788.5,-433.2"/>
<polygon fill="none" stroke="#000000" points="788.5,-433.2 788.5,-456.2 949.5,-456.2 949.5,-433.2 788.5,-433.2"/>
<text text-anchor="start" x="793.2139" y="-442.3" font-family="Helvetica,sans-Serif" font-weight="bold" font-size="11.00" fill="#000000">LITERATURE_ASSAYS</text>
<text text-anchor="start" x="915.0219" y="-441.3" font-family="Helvetica,sans-Serif" font-size="11.00" fill="#000000">[table]</text>
<polygon fill="none" stroke="#000000" points="788.5,-414.2 788.5,-433.2 949.5,-433.2 949.5,-414.2 788.5,-414.2"/>
<text text-anchor="start" x="791.5" y="-420.3" font-family="Helvetica,sans-Serif" font-size="11.00" fill="#000000">...</text>
<polygon fill="#ffffff" stroke="transparent" points="788.5,-395.2 788.5,-414.2 846.5,-414.2 846.5,-395.2 788.5,-395.2"/>
<polygon fill="none" stroke="#000000" points="788.5,-395.2 788.5,-414.2 846.5,-414.2 846.5,-395.2 788.5,-395.2"/>
<text text-anchor="start" x="791.5" y="-401.3" font-family="Helvetica,sans-Serif" font-size="11.00" fill="#000000">&lt; 3</text>
<polygon fill="#ffffff" stroke="transparent" points="846.5,-395.2 846.5,-414.2 909.5,-414.2 909.5,-395.2 846.5,-395.2"/>
<polygon fill="none" stroke="#000000" points="846.5,-395.2 846.5,-414.2 909.5,-414.2 909.5,-395.2 846.5,-395.2"/>
<text text-anchor="start" x="867.9956" y="-401.3" font-family="Helvetica,sans-Serif" font-size="11.00" fill="#000000">25 rows</text>
<polygon fill="#ffffff" stroke="transparent" points="909.5,-395.2 909.5,-414.2 949.5,-414.2 949.5,-395.2 909.5,-395.2"/>
<polygon fill="none" stroke="#000000" points="909.5,-395.2 909.5,-414.2 949.5,-414.2 949.5,-395.2 909.5,-395.2"/>
<text text-anchor="start" x="930.9053" y="-401.3" font-family="Helvetica,sans-Serif" font-size="11.00" fill="#000000">1 &gt;</text>
</a>
</g>
</g>
<!-- LITERATURE_ASSAYS&#45;&gt;TRACER_LIGANDS -->
<g id="edge5" class="edge">
<title>LITERATURE_ASSAYS:w&#45;&gt;TRACER_LIGANDS:e</title>
<path fill="none" stroke="#000000" d="M773.9686,-422.8409C735.1002,-420.8442 720.7766,-411.2 675.5,-411.2"/>
<polygon fill="#000000" stroke="#000000" points="780.5024,-423.0023 788.411,-426.7989 784.5012,-423.1011 788.5,-423.2 788.5,-423.2 788.5,-423.2 784.5012,-423.1011 788.589,-419.6011 780.5024,-423.0023 780.5024,-423.0023"/>
<ellipse fill="none" stroke="#000000" cx="777.3034" cy="-422.9232" rx="3.2" ry="3.2"/>
</g>
<!-- SCREENING_CONDITIONS_TRACER_LIGANDS -->
<g id="node8" class="node">
<title>SCREENING_CONDITIONS_TRACER_LIGANDS</title>
<g id="a_node8"><a xlink:href="../../tables/SCREENING_CONDITIONS_TRACER_LIGANDS.html" xlink:title="SCREENING_CONDITIONS_TRACER_LIGANDS" target="_top">
<polygon fill="#ffffff" stroke="transparent" points="724,-313.7 724,-374.7 1013,-374.7 1013,-313.7 724,-313.7"/>
<polygon fill="#f5f5f5" stroke="transparent" points="724.5,-351.2 724.5,-374.2 1013.5,-374.2 1013.5,-351.2 724.5,-351.2"/>
<polygon fill="none" stroke="#000000" points="724.5,-351.2 724.5,-374.2 1013.5,-374.2 1013.5,-351.2 724.5,-351.2"/>
<text text-anchor="start" x="729.3633" y="-360.3" font-family="Helvetica,sans-Serif" font-weight="bold" font-size="11.00" fill="#000000">SCREENING_CONDITIONS_TRACER_LIGANDS</text>
<text text-anchor="start" x="979.0219" y="-359.3" font-family="Helvetica,sans-Serif" font-size="11.00" fill="#000000">[table]</text>
<polygon fill="none" stroke="#000000" points="724.5,-332.2 724.5,-351.2 1013.5,-351.2 1013.5,-332.2 724.5,-332.2"/>
<text text-anchor="start" x="727.5" y="-338.3" font-family="Helvetica,sans-Serif" font-size="11.00" fill="#000000">...</text>
<polygon fill="#ffffff" stroke="transparent" points="724.5,-313.2 724.5,-332.2 851.5,-332.2 851.5,-313.2 724.5,-313.2"/>
<polygon fill="none" stroke="#000000" points="724.5,-313.2 724.5,-332.2 851.5,-332.2 851.5,-313.2 724.5,-313.2"/>
<text text-anchor="start" x="727.5" y="-319.3" font-family="Helvetica,sans-Serif" font-size="11.00" fill="#000000">&lt; 2</text>
<polygon fill="#ffffff" stroke="transparent" points="851.5,-313.2 851.5,-332.2 948.5,-332.2 948.5,-313.2 851.5,-313.2"/>
<polygon fill="none" stroke="#000000" points="851.5,-313.2 851.5,-332.2 948.5,-332.2 948.5,-313.2 851.5,-313.2"/>
<text text-anchor="start" x="906.9956" y="-319.3" font-family="Helvetica,sans-Serif" font-size="11.00" fill="#000000">26 rows</text>
<polygon fill="#ffffff" stroke="transparent" points="948.5,-313.2 948.5,-332.2 1013.5,-332.2 1013.5,-313.2 948.5,-313.2"/>
<polygon fill="none" stroke="#000000" points="948.5,-313.2 948.5,-332.2 1013.5,-332.2 1013.5,-313.2 948.5,-313.2"/>
<text text-anchor="start" x="1004.3862" y="-319.3" font-family="Helvetica,sans-Serif" font-size="11.00" fill="#000000"> &#160;</text>
</a>
</g>
</g>
<!-- SCREENING_CONDITIONS_TRACER_LIGANDS&#45;&gt;TRACER_LIGANDS -->
<g id="edge7" class="edge">
<title>SCREENING_CONDITIONS_TRACER_LIGANDS:w&#45;&gt;TRACER_LIGANDS:e</title>
<path fill="none" stroke="#000000" d="M710.4782,-346.2342C693.62,-362.2846 707.2455,-411.2 675.5,-411.2"/>
<polygon fill="#000000" stroke="#000000" points="716.9706,-343.9033 725.7165,-344.5882 720.7353,-342.5517 724.5,-341.2 724.5,-341.2 724.5,-341.2 720.7353,-342.5517 723.2835,-337.8118 716.9706,-343.9033 716.9706,-343.9033"/>
<ellipse fill="none" stroke="#000000" cx="713.9588" cy="-344.9846" rx="3.2" ry="3.2"/>
</g>
<!-- TRACER_LIGANDS_ISOFORM_DOMAINS -->
<g id="node10" class="node">
<title>TRACER_LIGANDS_ISOFORM_DOMAINS</title>
<g id="a_node10"><a xlink:href="../../tables/TRACER_LIGANDS_ISOFORM_DOMAINS.html" xlink:title="TRACER_LIGANDS_ISOFORM_DOMAINS" target="_top">
<polygon fill="#ffffff" stroke="transparent" points="740,-641.7 740,-702.7 997,-702.7 997,-641.7 740,-641.7"/>
<polygon fill="#f5f5f5" stroke="transparent" points="740.5,-679.2 740.5,-702.2 997.5,-702.2 997.5,-679.2 740.5,-679.2"/>
<polygon fill="none" stroke="#000000" points="740.5,-679.2 740.5,-702.2 997.5,-702.2 997.5,-679.2 740.5,-679.2"/>
<text text-anchor="start" x="745.25" y="-688.3" font-family="Helvetica,sans-Serif" font-weight="bold" font-size="11.00" fill="#000000">TRACER_LIGANDS_ISOFORM_DOMAINS</text>
<text text-anchor="start" x="963.0219" y="-687.3" font-family="Helvetica,sans-Serif" font-size="11.00" fill="#000000">[table]</text>
<polygon fill="none" stroke="#000000" points="740.5,-660.2 740.5,-679.2 997.5,-679.2 997.5,-660.2 740.5,-660.2"/>
<text text-anchor="start" x="743.5" y="-666.3" font-family="Helvetica,sans-Serif" font-size="11.00" fill="#000000">...</text>
<polygon fill="#ffffff" stroke="transparent" points="740.5,-641.2 740.5,-660.2 851.5,-660.2 851.5,-641.2 740.5,-641.2"/>
<polygon fill="none" stroke="#000000" points="740.5,-641.2 740.5,-660.2 851.5,-660.2 851.5,-641.2 740.5,-641.2"/>
<text text-anchor="start" x="743.5" y="-647.3" font-family="Helvetica,sans-Serif" font-size="11.00" fill="#000000">&lt; 2</text>
<polygon fill="#ffffff" stroke="transparent" points="851.5,-641.2 851.5,-660.2 940.5,-660.2 940.5,-641.2 851.5,-641.2"/>
<polygon fill="none" stroke="#000000" points="851.5,-641.2 851.5,-660.2 940.5,-660.2 940.5,-641.2 851.5,-641.2"/>
<text text-anchor="start" x="898.9956" y="-647.3" font-family="Helvetica,sans-Serif" font-size="11.00" fill="#000000">75 rows</text>
<polygon fill="#ffffff" stroke="transparent" points="940.5,-641.2 940.5,-660.2 997.5,-660.2 997.5,-641.2 940.5,-641.2"/>
<polygon fill="none" stroke="#000000" points="940.5,-641.2 940.5,-660.2 997.5,-660.2 997.5,-641.2 940.5,-641.2"/>
<text text-anchor="start" x="988.3862" y="-647.3" font-family="Helvetica,sans-Serif" font-size="11.00" fill="#000000"> &#160;</text>
</a>
</g>
</g>
<!-- TRACER_LIGANDS_ISOFORM_DOMAINS&#45;&gt;TRACER_LIGANDS -->
<g id="edge11" class="edge">
<title>TRACER_LIGANDS_ISOFORM_DOMAINS:w&#45;&gt;TRACER_LIGANDS:e</title>
<path fill="none" stroke="#000000" d="M727.1222,-663.3266C690.0364,-624.9232 729.3129,-411.2 675.5,-411.2"/>
<polygon fill="#000000" stroke="#000000" points="733.1749,-665.9839 739.0528,-672.4963 736.8374,-667.592 740.5,-669.2 740.5,-669.2 740.5,-669.2 736.8374,-667.592 741.9472,-665.9037 733.1749,-665.9839 733.1749,-665.9839"/>
<ellipse fill="none" stroke="#000000" cx="730.2449" cy="-664.6975" rx="3.2" ry="3.2"/>
</g>
<!-- TRACER_LIGANDS_REFERENCES -->
<g id="node11" class="node">
<title>TRACER_LIGANDS_REFERENCES</title>
<g id="a_node11"><a xlink:href="../../tables/TRACER_LIGANDS_REFERENCES.html" xlink:title="TRACER_LIGANDS_REFERENCES" target="_top">
<polygon fill="#ffffff" stroke="transparent" points="757,-231.7 757,-292.7 980,-292.7 980,-231.7 757,-231.7"/>
<polygon fill="#f5f5f5" stroke="transparent" points="757.5,-269.2 757.5,-292.2 980.5,-292.2 980.5,-269.2 757.5,-269.2"/>
<polygon fill="none" stroke="#000000" points="757.5,-269.2 757.5,-292.2 980.5,-292.2 980.5,-269.2 757.5,-269.2"/>
<text text-anchor="start" x="762.0553" y="-278.3" font-family="Helvetica,sans-Serif" font-weight="bold" font-size="11.00" fill="#000000">TRACER_LIGANDS_REFERENCES</text>
<text text-anchor="start" x="946.0219" y="-277.3" font-family="Helvetica,sans-Serif" font-size="11.00" fill="#000000">[table]</text>
<polygon fill="none" stroke="#000000" points="757.5,-250.2 757.5,-269.2 980.5,-269.2 980.5,-250.2 757.5,-250.2"/>
<text text-anchor="start" x="760.5" y="-256.3" font-family="Helvetica,sans-Serif" font-size="11.00" fill="#000000">...</text>
<polygon fill="#ffffff" stroke="transparent" points="757.5,-231.2 757.5,-250.2 851.5,-250.2 851.5,-231.2 757.5,-231.2"/>
<polygon fill="none" stroke="#000000" points="757.5,-231.2 757.5,-250.2 851.5,-250.2 851.5,-231.2 757.5,-231.2"/>
<text text-anchor="start" x="760.5" y="-237.3" font-family="Helvetica,sans-Serif" font-size="11.00" fill="#000000">&lt; 2</text>
<polygon fill="#ffffff" stroke="transparent" points="851.5,-231.2 851.5,-250.2 931.5,-250.2 931.5,-231.2 851.5,-231.2"/>
<polygon fill="none" stroke="#000000" points="851.5,-231.2 851.5,-250.2 931.5,-250.2 931.5,-231.2 851.5,-231.2"/>
<text text-anchor="start" x="889.9956" y="-237.3" font-family="Helvetica,sans-Serif" font-size="11.00" fill="#000000">18 rows</text>
<polygon fill="#ffffff" stroke="transparent" points="931.5,-231.2 931.5,-250.2 980.5,-250.2 980.5,-231.2 931.5,-231.2"/>
<polygon fill="none" stroke="#000000" points="931.5,-231.2 931.5,-250.2 980.5,-250.2 980.5,-231.2 931.5,-231.2"/>
<text text-anchor="start" x="971.3862" y="-237.3" font-family="Helvetica,sans-Serif" font-size="11.00" fill="#000000"> &#160;</text>
</a>
</g>
</g>
<!-- TRACER_LIGANDS_REFERENCES&#45;&gt;REFERENCES -->
<g id="edge12" class="edge">
<title>TRACER_LIGANDS_REFERENCES:w&#45;&gt;REFERENCES:e</title>
<path fill="none" stroke="#000000" d="M742.7629,-258.9049C688.0846,-256.6475 669.9447,-242.2 608.5,-242.2"/>
<polygon fill="#000000" stroke="#000000" points="749.5016,-259.0398 757.4279,-262.7993 753.5008,-259.1199 757.5,-259.2 757.5,-259.2 757.5,-259.2 753.5008,-259.1199 757.5721,-255.6007 749.5016,-259.0398 749.5016,-259.0398"/>
<ellipse fill="none" stroke="#000000" cx="746.3022" cy="-258.9757" rx="3.2" ry="3.2"/>
</g>
<!-- TRACER_LIGANDS_REFERENCES&#45;&gt;TRACER_LIGANDS -->
<g id="edge13" class="edge">
<title>TRACER_LIGANDS_REFERENCES:w&#45;&gt;TRACER_LIGANDS:e</title>
<path fill="none" stroke="#000000" d="M743.239,-262.0369C729.7832,-268.5476 727.1105,-285.3784 716,-303.2 688.8793,-346.7025 726.764,-411.2 675.5,-411.2"/>
<polygon fill="#000000" stroke="#000000" points="749.6537,-260.7609 758.2024,-262.7308 753.5769,-259.9804 757.5,-259.2 757.5,-259.2 757.5,-259.2 753.5769,-259.9804 756.7976,-255.6692 749.6537,-260.7609 749.6537,-260.7609"/>
<ellipse fill="none" stroke="#000000" cx="746.5152" cy="-261.3852" rx="3.2" ry="3.2"/>
</g>
<!-- VERSIONS_TRACERS_TRACER_LIGANDS -->
<g id="node12" class="node">
<title>VERSIONS_TRACERS_TRACER_LIGANDS</title>
<g id="a_node12"><a xlink:href="../../tables/VERSIONS_TRACERS_TRACER_LIGANDS.html" xlink:title="VERSIONS_TRACERS_TRACER_LIGANDS" target="_top">
<polygon fill="#ffffff" stroke="transparent" points="736.5,-559.7 736.5,-620.7 1000.5,-620.7 1000.5,-559.7 736.5,-559.7"/>
<polygon fill="#f5f5f5" stroke="transparent" points="736.5,-597.2 736.5,-620.2 1000.5,-620.2 1000.5,-597.2 736.5,-597.2"/>
<polygon fill="none" stroke="#000000" points="736.5,-597.2 736.5,-620.2 1000.5,-620.2 1000.5,-597.2 736.5,-597.2"/>
<text text-anchor="start" x="741.3846" y="-606.3" font-family="Helvetica,sans-Serif" font-weight="bold" font-size="11.00" fill="#000000">VERSIONS_TRACERS_TRACER_LIGANDS</text>
<text text-anchor="start" x="966.0219" y="-605.3" font-family="Helvetica,sans-Serif" font-size="11.00" fill="#000000">[table]</text>
<polygon fill="none" stroke="#000000" points="736.5,-578.2 736.5,-597.2 1000.5,-597.2 1000.5,-578.2 736.5,-578.2"/>
<text text-anchor="start" x="739.5" y="-584.3" font-family="Helvetica,sans-Serif" font-size="11.00" fill="#000000">...</text>
<polygon fill="#ffffff" stroke="transparent" points="736.5,-559.2 736.5,-578.2 843.5,-578.2 843.5,-559.2 736.5,-559.2"/>
<polygon fill="none" stroke="#000000" points="736.5,-559.2 736.5,-578.2 843.5,-578.2 843.5,-559.2 736.5,-559.2"/>
<text text-anchor="start" x="739.5" y="-565.3" font-family="Helvetica,sans-Serif" font-size="11.00" fill="#000000">&lt; 2</text>
<polygon fill="#ffffff" stroke="transparent" points="843.5,-559.2 843.5,-578.2 945.5,-578.2 945.5,-559.2 843.5,-559.2"/>
<polygon fill="none" stroke="#000000" points="843.5,-559.2 843.5,-578.2 945.5,-578.2 945.5,-559.2 843.5,-559.2"/>
<text text-anchor="start" x="888.7089" y="-565.3" font-family="Helvetica,sans-Serif" font-size="11.00" fill="#000000">2,328 rows</text>
<polygon fill="#ffffff" stroke="transparent" points="945.5,-559.2 945.5,-578.2 1000.5,-578.2 1000.5,-559.2 945.5,-559.2"/>
<polygon fill="none" stroke="#000000" points="945.5,-559.2 945.5,-578.2 1000.5,-578.2 1000.5,-559.2 945.5,-559.2"/>
<text text-anchor="start" x="991.3862" y="-565.3" font-family="Helvetica,sans-Serif" font-size="11.00" fill="#000000"> &#160;</text>
</a>
</g>
</g>
<!-- VERSIONS_TRACERS_TRACER_LIGANDS&#45;&gt;TRACER_LIGANDS -->
<g id="edge14" class="edge">
<title>VERSIONS_TRACERS_TRACER_LIGANDS:w&#45;&gt;TRACER_LIGANDS:e</title>
<path fill="none" stroke="#000000" d="M722.0291,-584.8451C667.1345,-563.9599 752.628,-411.2 675.5,-411.2"/>
<polygon fill="#000000" stroke="#000000" points="728.6039,-585.915 735.9217,-590.7533 732.5519,-586.5575 736.5,-587.2 736.5,-587.2 736.5,-587.2 732.5519,-586.5575 737.0783,-583.6467 728.6039,-585.915 728.6039,-585.915"/>
<ellipse fill="none" stroke="#000000" cx="725.4454" cy="-585.401" rx="3.2" ry="3.2"/>
</g>
</g>
</svg>
