<?xml version="1.0" encoding="UTF-8" standalone="no"?>
<!DOCTYPE svg PUBLIC "-//W3C//DTD SVG 1.1//EN"
 "http://www.w3.org/Graphics/SVG/1.1/DTD/svg11.dtd">
<!-- Generated by graphviz version 2.40.1 (20161225.0304)
 -->
<!-- Title: twoDegreesRelationshipsDiagram Pages: 1 -->
<svg width="1338pt" height="1023pt"
 viewBox="0.00 0.00 1338.00 1023.20" xmlns="http://www.w3.org/2000/svg" xmlns:xlink="http://www.w3.org/1999/xlink">
<g id="graph0" class="graph" transform="scale(1 1) rotate(0) translate(4 1019.2)">
<title>twoDegreesRelationshipsDiagram</title>
<polygon fill="#ffffff" stroke="transparent" points="-4,4 -4,-1019.2 1334,-1019.2 1334,4 -4,4"/>
<text text-anchor="middle" x="72.4936" y="-7.3" font-family="Helvetica,sans-Serif" font-size="11.00" fill="#000000">Generated by SchemaSpy</text>
<!-- TARGET_FORMS -->
<g id="node1" class="node">
<title>TARGET_FORMS</title>
<g id="a_node1"><a xlink:href="../../tables/TARGET_FORMS.html" xlink:title="TARGET_FORMS" target="_top">
<polygon fill="#ffffff" stroke="transparent" points="445.5,-676.2 445.5,-737.2 578.5,-737.2 578.5,-676.2 445.5,-676.2"/>
<polygon fill="#f5f5f5" stroke="transparent" points="446,-713.7 446,-736.7 579,-736.7 579,-713.7 446,-713.7"/>
<polygon fill="none" stroke="#000000" points="446,-713.7 446,-736.7 579,-736.7 579,-713.7 446,-713.7"/>
<text text-anchor="start" x="450.7801" y="-722.8" font-family="Helvetica,sans-Serif" font-weight="bold" font-size="11.00" fill="#000000">TARGET_FORMS</text>
<text text-anchor="start" x="544.5219" y="-721.8" font-family="Helvetica,sans-Serif" font-size="11.00" fill="#000000">[table]</text>
<polygon fill="none" stroke="#000000" points="446,-694.7 446,-713.7 579,-713.7 579,-694.7 446,-694.7"/>
<text text-anchor="start" x="449" y="-700.8" font-family="Helvetica,sans-Serif" font-size="11.00" fill="#000000">...</text>
<polygon fill="#ffffff" stroke="transparent" points="446,-675.7 446,-694.7 484,-694.7 484,-675.7 446,-675.7"/>
<polygon fill="none" stroke="#000000" points="446,-675.7 446,-694.7 484,-694.7 484,-675.7 446,-675.7"/>
<text text-anchor="start" x="449" y="-681.8" font-family="Helvetica,sans-Serif" font-size="11.00" fill="#000000">&lt; 5</text>
<polygon fill="#ffffff" stroke="transparent" points="484,-675.7 484,-694.7 543,-694.7 543,-675.7 484,-675.7"/>
<polygon fill="none" stroke="#000000" points="484,-675.7 484,-694.7 543,-694.7 543,-675.7 484,-675.7"/>
<text text-anchor="start" x="495.3807" y="-681.8" font-family="Helvetica,sans-Serif" font-size="11.00" fill="#000000">541 rows</text>
<polygon fill="#ffffff" stroke="transparent" points="543,-675.7 543,-694.7 579,-694.7 579,-675.7 543,-675.7"/>
<polygon fill="none" stroke="#000000" points="543,-675.7 543,-694.7 579,-694.7 579,-675.7 543,-675.7"/>
<text text-anchor="start" x="554.2904" y="-681.8" font-family="Helvetica,sans-Serif" font-size="11.00" fill="#000000">18 &gt;</text>
</a>
</g>
</g>
<!-- TARGETS -->
<g id="node2" class="node">
<title>TARGETS</title>
<g id="a_node2"><a xlink:href="../../tables/TARGETS.html" xlink:title="TARGETS" target="_top">
<polygon fill="#ffffff" stroke="transparent" points="222,-676.2 222,-737.2 320,-737.2 320,-676.2 222,-676.2"/>
<polygon fill="#f5f5f5" stroke="transparent" points="222,-713.7 222,-736.7 320,-736.7 320,-713.7 222,-713.7"/>
<polygon fill="none" stroke="#000000" points="222,-713.7 222,-736.7 320,-736.7 320,-713.7 222,-713.7"/>
<text text-anchor="start" x="227" y="-722.8" font-family="Helvetica,sans-Serif" font-weight="bold" font-size="11.00" fill="#000000">TARGETS</text>
<text text-anchor="start" x="285.0437" y="-721.8" font-family="Helvetica,sans-Serif" font-size="11.00" fill="#000000">[table]</text>
<polygon fill="none" stroke="#000000" points="222,-694.7 222,-713.7 320,-713.7 320,-694.7 222,-694.7"/>
<text text-anchor="start" x="225" y="-700.8" font-family="Helvetica,sans-Serif" font-size="11.00" fill="#000000">...</text>
<polygon fill="#ffffff" stroke="transparent" points="222,-675.7 222,-694.7 243,-694.7 243,-675.7 222,-675.7"/>
<polygon fill="none" stroke="#000000" points="222,-675.7 222,-694.7 243,-694.7 243,-675.7 222,-675.7"/>
<text text-anchor="start" x="224.7027" y="-681.8" font-family="Helvetica,sans-Serif" font-size="11.00" fill="#000000">&lt; 3</text>
<polygon fill="#ffffff" stroke="transparent" points="243,-675.7 243,-694.7 293,-694.7 293,-675.7 243,-675.7"/>
<polygon fill="none" stroke="#000000" points="243,-675.7 243,-694.7 293,-694.7 293,-675.7 243,-675.7"/>
<text text-anchor="start" x="245.6904" y="-681.8" font-family="Helvetica,sans-Serif" font-size="11.00" fill="#000000">146 rows</text>
<polygon fill="#ffffff" stroke="transparent" points="293,-675.7 293,-694.7 320,-694.7 320,-675.7 293,-675.7"/>
<polygon fill="none" stroke="#000000" points="293,-675.7 293,-694.7 320,-694.7 320,-675.7 293,-675.7"/>
<text text-anchor="start" x="295.6452" y="-681.8" font-family="Helvetica,sans-Serif" font-size="11.00" fill="#000000">10 &gt;</text>
</a>
</g>
</g>
<!-- TARGET_FORMS&#45;&gt;TARGETS -->
<g id="edge1" class="edge">
<title>TARGET_FORMS:w&#45;&gt;TARGETS:e</title>
<path fill="none" stroke="#000000" d="M431.5749,-703.7C387.0758,-703.7 370.8594,-703.7 320,-703.7"/>
<polygon fill="#000000" stroke="#000000" points="438,-703.7001 446,-707.3 442,-703.7 446,-703.7 446,-703.7 446,-703.7 442,-703.7 446,-700.1 438,-703.7001 438,-703.7001"/>
<ellipse fill="none" stroke="#000000" cx="434.8" cy="-703.7001" rx="3.2" ry="3.2"/>
</g>
<!-- TARGET_CATEGORIES -->
<g id="node3" class="node">
<title>TARGET_CATEGORIES</title>
<g id="a_node3"><a xlink:href="../../tables/TARGET_CATEGORIES.html" xlink:title="TARGET_CATEGORIES" target="_top">
<polygon fill="#ffffff" stroke="transparent" points="8,-609.2 8,-670.2 173,-670.2 173,-609.2 8,-609.2"/>
<polygon fill="#f5f5f5" stroke="transparent" points="8.5,-646.7 8.5,-669.7 173.5,-669.7 173.5,-646.7 8.5,-646.7"/>
<polygon fill="none" stroke="#000000" points="8.5,-646.7 8.5,-669.7 173.5,-669.7 173.5,-646.7 8.5,-646.7"/>
<text text-anchor="start" x="13.0798" y="-655.8" font-family="Helvetica,sans-Serif" font-weight="bold" font-size="11.00" fill="#000000">TARGET_CATEGORIES</text>
<text text-anchor="start" x="139.0219" y="-654.8" font-family="Helvetica,sans-Serif" font-size="11.00" fill="#000000">[table]</text>
<polygon fill="none" stroke="#000000" points="8.5,-627.7 8.5,-646.7 173.5,-646.7 173.5,-627.7 8.5,-627.7"/>
<text text-anchor="start" x="11.5" y="-633.8" font-family="Helvetica,sans-Serif" font-size="11.00" fill="#000000">...</text>
<polygon fill="#ffffff" stroke="transparent" points="8.5,-608.7 8.5,-627.7 64.5,-627.7 64.5,-608.7 8.5,-608.7"/>
<polygon fill="none" stroke="#000000" points="8.5,-608.7 8.5,-627.7 64.5,-627.7 64.5,-608.7 8.5,-608.7"/>
<text text-anchor="start" x="11.5" y="-614.8" font-family="Helvetica,sans-Serif" font-size="11.00" fill="#000000"> &#160;</text>
<polygon fill="#ffffff" stroke="transparent" points="64.5,-608.7 64.5,-627.7 130.5,-627.7 130.5,-608.7 64.5,-608.7"/>
<polygon fill="none" stroke="#000000" points="64.5,-608.7 64.5,-627.7 130.5,-627.7 130.5,-608.7 64.5,-608.7"/>
<text text-anchor="start" x="88.9956" y="-614.8" font-family="Helvetica,sans-Serif" font-size="11.00" fill="#000000">11 rows</text>
<polygon fill="#ffffff" stroke="transparent" points="130.5,-608.7 130.5,-627.7 173.5,-627.7 173.5,-608.7 130.5,-608.7"/>
<polygon fill="none" stroke="#000000" points="130.5,-608.7 130.5,-627.7 173.5,-627.7 173.5,-608.7 130.5,-608.7"/>
<text text-anchor="start" x="154.9053" y="-614.8" font-family="Helvetica,sans-Serif" font-size="11.00" fill="#000000">3 &gt;</text>
</a>
</g>
</g>
<!-- TARGETS&#45;&gt;TARGET_CATEGORIES -->
<g id="edge2" class="edge">
<title>TARGETS:w&#45;&gt;TARGET_CATEGORIES:e</title>
<path fill="none" stroke="#000000" d="M208.35,-698.8815C191.7864,-683.519 204.2297,-636.7 173.5,-636.7"/>
<polygon fill="#000000" stroke="#000000" points="214.4562,-701.037 220.8016,-707.0947 218.2281,-702.3685 222,-703.7 222,-703.7 222,-703.7 218.2281,-702.3685 223.1984,-700.3053 214.4562,-701.037 214.4562,-701.037"/>
<ellipse fill="none" stroke="#000000" cx="211.4387" cy="-699.9718" rx="3.2" ry="3.2"/>
</g>
<!-- TRACER_SYNTHESIS_REQUESTS -->
<g id="node4" class="node">
<title>TRACER_SYNTHESIS_REQUESTS</title>
<g id="a_node4"><a xlink:href="../../tables/TRACER_SYNTHESIS_REQUESTS.html" xlink:title="TRACER_SYNTHESIS_REQUESTS" target="_top">
<polygon fill="#ffffff" stroke="transparent" points="704,-426.2 704,-773.2 936,-773.2 936,-426.2 704,-426.2"/>
<polygon fill="#f5f5f5" stroke="transparent" points="704,-749.7 704,-772.7 936,-772.7 936,-749.7 704,-749.7"/>
<polygon fill="none" stroke="#000000" points="704,-749.7 704,-772.7 936,-772.7 936,-749.7 704,-749.7"/>
<text text-anchor="start" x="709" y="-758.8" font-family="Helvetica,sans-Serif" font-weight="bold" font-size="11.00" fill="#000000">TRACER_SYNTHESIS_REQUESTS</text>
<text text-anchor="start" x="901.0437" y="-757.8" font-family="Helvetica,sans-Serif" font-size="11.00" fill="#000000">[table]</text>
<polygon fill="none" stroke="#000000" points="704,-727.7 704,-749.7 936,-749.7 936,-727.7 704,-727.7"/>
<image xlink:href="../../images/primaryKeys.png" width="11px" height="12px" preserveAspectRatio="xMinYMin meet" x="709" y="-744.7"/>
<text text-anchor="start" x="724" y="-734.8" font-family="Helvetica,sans-Serif" font-size="11.00" fill="#000000">ID</text>
<polygon fill="none" stroke="#000000" points="704,-705.7 704,-727.7 936,-727.7 936,-705.7 704,-705.7"/>
<image xlink:href="../../images/foreignKeys.png" width="11px" height="12px" preserveAspectRatio="xMinYMin meet" x="709" y="-722.7"/>
<text text-anchor="start" x="724" y="-712.8" font-family="Helvetica,sans-Serif" font-size="11.00" fill="#000000">TRACER_TYPE_ID</text>
<polygon fill="none" stroke="#000000" points="704,-683.7 704,-705.7 936,-705.7 936,-683.7 704,-683.7"/>
<image xlink:href="../../images/foreignKeys.png" width="11px" height="12px" preserveAspectRatio="xMinYMin meet" x="709" y="-700.7"/>
<text text-anchor="start" x="724" y="-690.8" font-family="Helvetica,sans-Serif" font-size="11.00" fill="#000000">TARGET_ID</text>
<polygon fill="none" stroke="#000000" points="704,-661.7 704,-683.7 936,-683.7 936,-661.7 704,-661.7"/>
<image xlink:href="../../images/foreignKeys.png" width="11px" height="12px" preserveAspectRatio="xMinYMin meet" x="709" y="-678.7"/>
<text text-anchor="start" x="724" y="-668.8" font-family="Helvetica,sans-Serif" font-size="11.00" fill="#000000">OFF_DNA_ID</text>
<polygon fill="none" stroke="#000000" points="704,-639.7 704,-661.7 936,-661.7 936,-639.7 704,-639.7"/>
<image xlink:href="../../images/foreignKeys.png" width="11px" height="12px" preserveAspectRatio="xMinYMin meet" x="709" y="-656.7"/>
<text text-anchor="start" x="724" y="-646.8" font-family="Helvetica,sans-Serif" font-size="11.00" fill="#000000">OFF_DNA_IC50_ID</text>
<polygon fill="none" stroke="#000000" points="704,-617.7 704,-639.7 936,-639.7 936,-617.7 704,-617.7"/>
<image xlink:href="../../images/foreignKeys.png" width="11px" height="12px" preserveAspectRatio="xMinYMin meet" x="709" y="-634.7"/>
<text text-anchor="start" x="724" y="-624.8" font-family="Helvetica,sans-Serif" font-size="11.00" fill="#000000">TARGET_FORM_ID</text>
<polygon fill="none" stroke="#000000" points="704,-595.7 704,-617.7 936,-617.7 936,-595.7 704,-595.7"/>
<image xlink:href="../../images/foreignKeys.png" width="11px" height="12px" preserveAspectRatio="xMinYMin meet" x="709" y="-612.7"/>
<text text-anchor="start" x="724" y="-602.8" font-family="Helvetica,sans-Serif" font-size="11.00" fill="#000000">ASSIGNEE_ID</text>
<polygon fill="none" stroke="#000000" points="704,-573.7 704,-595.7 936,-595.7 936,-573.7 704,-573.7"/>
<image xlink:href="../../images/foreignKeys.png" width="11px" height="12px" preserveAspectRatio="xMinYMin meet" x="709" y="-590.7"/>
<text text-anchor="start" x="724" y="-580.8" font-family="Helvetica,sans-Serif" font-size="11.00" fill="#000000">TARGET_CATEGORY_ID</text>
<polygon fill="none" stroke="#000000" points="704,-551.7 704,-573.7 936,-573.7 936,-551.7 704,-551.7"/>
<image xlink:href="../../images/foreignKeys.png" width="11px" height="12px" preserveAspectRatio="xMinYMin meet" x="709" y="-568.7"/>
<text text-anchor="start" x="724" y="-558.8" font-family="Helvetica,sans-Serif" font-size="11.00" fill="#000000">CHEMISTRY_ID</text>
<polygon fill="none" stroke="#000000" points="704,-529.7 704,-551.7 936,-551.7 936,-529.7 704,-529.7"/>
<image xlink:href="../../images/foreignKeys.png" width="11px" height="12px" preserveAspectRatio="xMinYMin meet" x="709" y="-546.7"/>
<text text-anchor="start" x="724" y="-536.8" font-family="Helvetica,sans-Serif" font-size="11.00" fill="#000000">REGISTRATION_ID</text>
<polygon fill="none" stroke="#000000" points="704,-507.7 704,-529.7 936,-529.7 936,-507.7 704,-507.7"/>
<image xlink:href="../../images/foreignKeys.png" width="11px" height="12px" preserveAspectRatio="xMinYMin meet" x="709" y="-524.7"/>
<text text-anchor="start" x="724" y="-514.8" font-family="Helvetica,sans-Serif" font-size="11.00" fill="#000000">HEAD_PIECE_ID</text>
<polygon fill="none" stroke="#000000" points="704,-485.7 704,-507.7 936,-507.7 936,-485.7 704,-485.7"/>
<image xlink:href="../../images/foreignKeys.png" width="11px" height="12px" preserveAspectRatio="xMinYMin meet" x="709" y="-502.7"/>
<text text-anchor="start" x="724" y="-492.8" font-family="Helvetica,sans-Serif" font-size="11.00" fill="#000000">QUANTIFICATION_METHOD_ID</text>
<polygon fill="none" stroke="#000000" points="704,-463.7 704,-485.7 936,-485.7 936,-463.7 704,-463.7"/>
<image xlink:href="../../images/foreignKeys.png" width="11px" height="12px" preserveAspectRatio="xMinYMin meet" x="709" y="-480.7"/>
<text text-anchor="start" x="724" y="-470.8" font-family="Helvetica,sans-Serif" font-size="11.00" fill="#000000">DELIVERED_CONDITION_ID</text>
<polygon fill="none" stroke="#000000" points="704,-444.7 704,-463.7 936,-463.7 936,-444.7 704,-444.7"/>
<text text-anchor="start" x="707" y="-450.8" font-family="Helvetica,sans-Serif" font-size="11.00" fill="#000000">...</text>
<polygon fill="#ffffff" stroke="transparent" points="704,-425.7 704,-444.7 801,-444.7 801,-425.7 704,-425.7"/>
<polygon fill="none" stroke="#000000" points="704,-425.7 704,-444.7 801,-444.7 801,-425.7 704,-425.7"/>
<text text-anchor="start" x="707" y="-431.8" font-family="Helvetica,sans-Serif" font-size="11.00" fill="#000000">&lt; 12</text>
<polygon fill="#ffffff" stroke="transparent" points="801,-425.7 801,-444.7 880,-444.7 880,-425.7 801,-425.7"/>
<polygon fill="none" stroke="#000000" points="801,-425.7 801,-444.7 880,-444.7 880,-425.7 801,-425.7"/>
<text text-anchor="start" x="838.4956" y="-431.8" font-family="Helvetica,sans-Serif" font-size="11.00" fill="#000000">21 rows</text>
<polygon fill="#ffffff" stroke="transparent" points="880,-425.7 880,-444.7 936,-444.7 936,-425.7 880,-425.7"/>
<polygon fill="none" stroke="#000000" points="880,-425.7 880,-444.7 936,-444.7 936,-425.7 880,-425.7"/>
<text text-anchor="start" x="917.4053" y="-431.8" font-family="Helvetica,sans-Serif" font-size="11.00" fill="#000000">2 &gt;</text>
</a>
</g>
</g>
<!-- TRACER_SYNTHESIS_REQUESTS&#45;&gt;TARGET_FORMS -->
<g id="edge12" class="edge">
<title>TRACER_SYNTHESIS_REQUESTS:w&#45;&gt;TARGET_FORMS:e</title>
<path fill="none" stroke="#000000" d="M690.1269,-632.5911C679.9575,-639.8471 678.4035,-655.6192 663,-665.7 628.714,-688.1384 619.9758,-703.7 579,-703.7"/>
<polygon fill="#000000" stroke="#000000" points="696.2972,-630.8605 704.9722,-632.1662 700.1486,-629.7802 704,-628.7 704,-628.7 704,-628.7 700.1486,-629.7802 703.0278,-625.2338 696.2972,-630.8605 696.2972,-630.8605"/>
<ellipse fill="none" stroke="#000000" cx="693.2161" cy="-631.7247" rx="3.2" ry="3.2"/>
</g>
<!-- TRACER_SYNTHESIS_REQUESTS&#45;&gt;TARGETS -->
<g id="edge13" class="edge">
<title>TRACER_SYNTHESIS_REQUESTS:w&#45;&gt;TARGETS:e</title>
<path fill="none" stroke="#000000" d="M689.4643,-696.141C620.2159,-711.8929 734.2911,-852.6173 663,-911.7 637.1638,-933.1118 386.9204,-933.0098 361,-911.7 288.2161,-851.8624 414.2233,-703.7 320,-703.7"/>
<polygon fill="#000000" stroke="#000000" points="696.039,-695.4893 704.3552,-698.2824 700.0195,-695.0946 704,-694.7 704,-694.7 704,-694.7 700.0195,-695.0946 703.6448,-691.1176 696.039,-695.4893 696.039,-695.4893"/>
<ellipse fill="none" stroke="#000000" cx="692.8546" cy="-695.805" rx="3.2" ry="3.2"/>
</g>
<!-- TRACER_SYNTHESIS_REQUESTS&#45;&gt;TARGET_CATEGORIES -->
<g id="edge11" class="edge">
<title>TRACER_SYNTHESIS_REQUESTS:w&#45;&gt;TARGET_CATEGORIES:e</title>
<path fill="none" stroke="#000000" d="M689.5097,-584.4959C681.3161,-584.2494 675.2458,-583.8493 663,-583.7 528.7878,-582.0635 493.951,-565.2706 361,-583.7 275.2216,-595.5904 260.0985,-636.7 173.5,-636.7"/>
<polygon fill="#000000" stroke="#000000" points="696.0008,-584.5873 703.9493,-588.2996 700.0004,-584.6436 704,-584.7 704,-584.7 704,-584.7 700.0004,-584.6436 704.0507,-581.1004 696.0008,-584.5873 696.0008,-584.5873"/>
<ellipse fill="none" stroke="#000000" cx="692.8011" cy="-584.5422" rx="3.2" ry="3.2"/>
</g>
<!-- USERS -->
<g id="node5" class="node">
<title>USERS</title>
<g id="a_node5"><a xlink:href="../../tables/USERS.html" xlink:title="USERS" target="_top">
<polygon fill="#ffffff" stroke="transparent" points="472,-594.2 472,-655.2 552,-655.2 552,-594.2 472,-594.2"/>
<polygon fill="#f5f5f5" stroke="transparent" points="472,-631.7 472,-654.7 552,-654.7 552,-631.7 472,-631.7"/>
<polygon fill="none" stroke="#000000" points="472,-631.7 472,-654.7 552,-654.7 552,-631.7 472,-631.7"/>
<text text-anchor="start" x="476.5553" y="-640.8" font-family="Helvetica,sans-Serif" font-weight="bold" font-size="11.00" fill="#000000">USERS</text>
<text text-anchor="start" x="517.5219" y="-639.8" font-family="Helvetica,sans-Serif" font-size="11.00" fill="#000000">[table]</text>
<polygon fill="none" stroke="#000000" points="472,-612.7 472,-631.7 552,-631.7 552,-612.7 472,-612.7"/>
<text text-anchor="start" x="475" y="-618.8" font-family="Helvetica,sans-Serif" font-size="11.00" fill="#000000">...</text>
<polygon fill="#ffffff" stroke="transparent" points="472,-593.7 472,-612.7 485,-612.7 485,-593.7 472,-593.7"/>
<polygon fill="none" stroke="#000000" points="472,-593.7 472,-612.7 485,-612.7 485,-593.7 472,-593.7"/>
<text text-anchor="start" x="475" y="-599.8" font-family="Helvetica,sans-Serif" font-size="11.00" fill="#000000"> &#160;</text>
<polygon fill="#ffffff" stroke="transparent" points="485,-593.7 485,-612.7 530,-612.7 530,-593.7 485,-593.7"/>
<polygon fill="none" stroke="#000000" points="485,-593.7 485,-612.7 530,-612.7 530,-593.7 485,-593.7"/>
<text text-anchor="start" x="488.4956" y="-599.8" font-family="Helvetica,sans-Serif" font-size="11.00" fill="#000000">33 rows</text>
<polygon fill="#ffffff" stroke="transparent" points="530,-593.7 530,-612.7 552,-612.7 552,-593.7 530,-593.7"/>
<polygon fill="none" stroke="#000000" points="530,-593.7 530,-612.7 552,-612.7 552,-593.7 530,-593.7"/>
<text text-anchor="start" x="533.4053" y="-599.8" font-family="Helvetica,sans-Serif" font-size="11.00" fill="#000000">9 &gt;</text>
</a>
</g>
</g>
<!-- TRACER_SYNTHESIS_REQUESTS&#45;&gt;USERS -->
<g id="edge3" class="edge">
<title>TRACER_SYNTHESIS_REQUESTS:w&#45;&gt;USERS:e</title>
<path fill="none" stroke="#000000" d="M689.3409,-606.9478C633.3437,-608.8981 614.7129,-621.7 552,-621.7"/>
<polygon fill="#000000" stroke="#000000" points="696.0011,-606.8353 704.0609,-610.2995 700.0006,-606.7676 704,-606.7 704,-606.7 704,-606.7 700.0006,-606.7676 703.9391,-603.1005 696.0011,-606.8353 696.0011,-606.8353"/>
<ellipse fill="none" stroke="#000000" cx="692.8016" cy="-606.8894" rx="3.2" ry="3.2"/>
</g>
<!-- CHEMISTRIES -->
<g id="node6" class="node">
<title>CHEMISTRIES</title>
<g id="a_node6"><a xlink:href="../../tables/CHEMISTRIES.html" xlink:title="CHEMISTRIES" target="_top">
<polygon fill="#ffffff" stroke="transparent" points="453,-484.2 453,-545.2 571,-545.2 571,-484.2 453,-484.2"/>
<polygon fill="#f5f5f5" stroke="transparent" points="453,-521.7 453,-544.7 571,-544.7 571,-521.7 453,-521.7"/>
<polygon fill="none" stroke="#000000" points="453,-521.7 453,-544.7 571,-544.7 571,-521.7 453,-521.7"/>
<text text-anchor="start" x="457.9191" y="-530.8" font-family="Helvetica,sans-Serif" font-weight="bold" font-size="11.00" fill="#000000">CHEMISTRIES</text>
<text text-anchor="start" x="536.5219" y="-529.8" font-family="Helvetica,sans-Serif" font-size="11.00" fill="#000000">[table]</text>
<polygon fill="none" stroke="#000000" points="453,-502.7 453,-521.7 571,-521.7 571,-502.7 453,-502.7"/>
<text text-anchor="start" x="456" y="-508.8" font-family="Helvetica,sans-Serif" font-size="11.00" fill="#000000">...</text>
<polygon fill="#ffffff" stroke="transparent" points="453,-483.7 453,-502.7 488,-502.7 488,-483.7 453,-483.7"/>
<polygon fill="none" stroke="#000000" points="453,-483.7 453,-502.7 488,-502.7 488,-483.7 453,-483.7"/>
<text text-anchor="start" x="456" y="-489.8" font-family="Helvetica,sans-Serif" font-size="11.00" fill="#000000"> &#160;</text>
<polygon fill="#ffffff" stroke="transparent" points="488,-483.7 488,-502.7 538,-502.7 538,-483.7 488,-483.7"/>
<polygon fill="none" stroke="#000000" points="488,-483.7 488,-502.7 538,-502.7 538,-483.7 488,-483.7"/>
<text text-anchor="start" x="502.6105" y="-489.8" font-family="Helvetica,sans-Serif" font-size="11.00" fill="#000000">5 rows</text>
<polygon fill="#ffffff" stroke="transparent" points="538,-483.7 538,-502.7 571,-502.7 571,-483.7 538,-483.7"/>
<polygon fill="none" stroke="#000000" points="538,-483.7 538,-502.7 571,-502.7 571,-483.7 538,-483.7"/>
<text text-anchor="start" x="552.4053" y="-489.8" font-family="Helvetica,sans-Serif" font-size="11.00" fill="#000000">1 &gt;</text>
</a>
</g>
</g>
<!-- TRACER_SYNTHESIS_REQUESTS&#45;&gt;CHEMISTRIES -->
<g id="edge4" class="edge">
<title>TRACER_SYNTHESIS_REQUESTS:w&#45;&gt;CHEMISTRIES:e</title>
<path fill="none" stroke="#000000" d="M689.5066,-561.7267C639.2616,-554.676 629.1148,-511.7 571,-511.7"/>
<polygon fill="#000000" stroke="#000000" points="696.018,-562.1639 703.7588,-566.2919 700.009,-562.432 704,-562.7 704,-562.7 704,-562.7 700.009,-562.432 704.2412,-559.1081 696.018,-562.1639 696.018,-562.1639"/>
<ellipse fill="none" stroke="#000000" cx="692.8252" cy="-561.9495" rx="3.2" ry="3.2"/>
</g>
<!-- DELIVERED_CONDITIONS -->
<g id="node7" class="node">
<title>DELIVERED_CONDITIONS</title>
<g id="a_node7"><a xlink:href="../../tables/DELIVERED_CONDITIONS.html" xlink:title="DELIVERED_CONDITIONS" target="_top">
<polygon fill="#ffffff" stroke="transparent" points="422,-38.2 422,-99.2 602,-99.2 602,-38.2 422,-38.2"/>
<polygon fill="#f5f5f5" stroke="transparent" points="422,-75.7 422,-98.7 602,-98.7 602,-75.7 422,-75.7"/>
<polygon fill="none" stroke="#000000" points="422,-75.7 422,-98.7 602,-98.7 602,-75.7 422,-75.7"/>
<text text-anchor="start" x="426.75" y="-84.8" font-family="Helvetica,sans-Serif" font-weight="bold" font-size="11.00" fill="#000000">DELIVERED_CONDITIONS</text>
<text text-anchor="start" x="567.5219" y="-83.8" font-family="Helvetica,sans-Serif" font-size="11.00" fill="#000000">[table]</text>
<polygon fill="none" stroke="#000000" points="422,-56.7 422,-75.7 602,-75.7 602,-56.7 422,-56.7"/>
<text text-anchor="start" x="425" y="-62.8" font-family="Helvetica,sans-Serif" font-size="11.00" fill="#000000">...</text>
<polygon fill="#ffffff" stroke="transparent" points="422,-37.7 422,-56.7 488,-56.7 488,-37.7 422,-37.7"/>
<polygon fill="none" stroke="#000000" points="422,-37.7 422,-56.7 488,-56.7 488,-37.7 422,-37.7"/>
<text text-anchor="start" x="425" y="-43.8" font-family="Helvetica,sans-Serif" font-size="11.00" fill="#000000"> &#160;</text>
<polygon fill="#ffffff" stroke="transparent" points="488,-37.7 488,-56.7 553,-56.7 553,-37.7 488,-37.7"/>
<polygon fill="none" stroke="#000000" points="488,-37.7 488,-56.7 553,-56.7 553,-37.7 488,-37.7"/>
<text text-anchor="start" x="517.6105" y="-43.8" font-family="Helvetica,sans-Serif" font-size="11.00" fill="#000000">4 rows</text>
<polygon fill="#ffffff" stroke="transparent" points="553,-37.7 553,-56.7 602,-56.7 602,-37.7 553,-37.7"/>
<polygon fill="none" stroke="#000000" points="553,-37.7 553,-56.7 602,-56.7 602,-37.7 553,-37.7"/>
<text text-anchor="start" x="583.4053" y="-43.8" font-family="Helvetica,sans-Serif" font-size="11.00" fill="#000000">1 &gt;</text>
</a>
</g>
</g>
<!-- TRACER_SYNTHESIS_REQUESTS&#45;&gt;DELIVERED_CONDITIONS -->
<g id="edge5" class="edge">
<title>TRACER_SYNTHESIS_REQUESTS:w&#45;&gt;DELIVERED_CONDITIONS:e</title>
<path fill="none" stroke="#000000" d="M689.8177,-470.9554C632.7011,-436.5707 701.4488,-175.4897 663,-109.7 646.1332,-80.8392 635.428,-65.7 602,-65.7"/>
<polygon fill="#000000" stroke="#000000" points="696.2651,-472.6577 703.081,-478.1807 700.1325,-473.6788 704,-474.7 704,-474.7 704,-474.7 700.1325,-473.6788 704.919,-471.2193 696.2651,-472.6577 696.2651,-472.6577"/>
<ellipse fill="none" stroke="#000000" cx="693.1711" cy="-471.8408" rx="3.2" ry="3.2"/>
</g>
<!-- HEAD_PIECES -->
<g id="node8" class="node">
<title>HEAD_PIECES</title>
<g id="a_node8"><a xlink:href="../../tables/HEAD_PIECES.html" xlink:title="HEAD_PIECES" target="_top">
<polygon fill="#ffffff" stroke="transparent" points="369,-202.7 369,-380.7 655,-380.7 655,-202.7 369,-202.7"/>
<polygon fill="#f5f5f5" stroke="transparent" points="371,-355.7 371,-378.7 653,-378.7 653,-355.7 371,-355.7"/>
<polygon fill="none" stroke="#000000" points="371,-355.7 371,-378.7 653,-378.7 653,-355.7 371,-355.7"/>
<text text-anchor="start" x="376" y="-364.8" font-family="Helvetica,sans-Serif" font-weight="bold" font-size="11.00" fill="#000000">HEAD_PIECES</text>
<text text-anchor="start" x="618.0437" y="-363.8" font-family="Helvetica,sans-Serif" font-size="11.00" fill="#000000">[table]</text>
<polygon fill="none" stroke="#000000" points="371,-333.7 371,-355.7 482,-355.7 482,-333.7 371,-333.7"/>
<image xlink:href="../../images/primaryKeys.png" width="11px" height="12px" preserveAspectRatio="xMinYMin meet" x="376" y="-350.7"/>
<text text-anchor="start" x="391" y="-340.8" font-family="Helvetica,sans-Serif" font-size="11.00" fill="#000000">ID</text>
<polygon fill="none" stroke="#000000" points="482,-333.7 482,-355.7 653,-355.7 653,-333.7 482,-333.7"/>
<text text-anchor="start" x="485" y="-341.4" font-family="Helvetica,sans-Serif" font-size="11.00" fill="#000000">number[19]</text>
<polygon fill="none" stroke="#000000" points="371,-311.7 371,-333.7 482,-333.7 482,-311.7 371,-311.7"/>
<text text-anchor="start" x="391" y="-318.8" font-family="Helvetica,sans-Serif" font-size="11.00" fill="#000000">CREATED_AT</text>
<polygon fill="none" stroke="#000000" points="482,-311.7 482,-333.7 653,-333.7 653,-311.7 482,-311.7"/>
<text text-anchor="start" x="484.9896" y="-319.4" font-family="Helvetica,sans-Serif" font-size="11.00" fill="#000000">timestamp(6) with time zone[13,6]</text>
<polygon fill="none" stroke="#000000" points="371,-289.7 371,-311.7 482,-311.7 482,-289.7 371,-289.7"/>
<text text-anchor="start" x="391" y="-296.8" font-family="Helvetica,sans-Serif" font-size="11.00" fill="#000000">CREATED_BY</text>
<polygon fill="none" stroke="#000000" points="482,-289.7 482,-311.7 653,-311.7 653,-289.7 482,-289.7"/>
<text text-anchor="start" x="485" y="-297.4" font-family="Helvetica,sans-Serif" font-size="11.00" fill="#000000">number[19]</text>
<polygon fill="none" stroke="#000000" points="371,-267.7 371,-289.7 482,-289.7 482,-267.7 371,-267.7"/>
<text text-anchor="start" x="391" y="-274.8" font-family="Helvetica,sans-Serif" font-size="11.00" fill="#000000">UPDATED_AT</text>
<polygon fill="none" stroke="#000000" points="482,-267.7 482,-289.7 653,-289.7 653,-267.7 482,-267.7"/>
<text text-anchor="start" x="484.9896" y="-275.4" font-family="Helvetica,sans-Serif" font-size="11.00" fill="#000000">timestamp(6) with time zone[13,6]</text>
<polygon fill="none" stroke="#000000" points="371,-245.7 371,-267.7 482,-267.7 482,-245.7 371,-245.7"/>
<text text-anchor="start" x="391" y="-252.8" font-family="Helvetica,sans-Serif" font-size="11.00" fill="#000000">UPDATED_BY</text>
<polygon fill="none" stroke="#000000" points="482,-245.7 482,-267.7 653,-267.7 653,-245.7 482,-245.7"/>
<text text-anchor="start" x="485" y="-253.4" font-family="Helvetica,sans-Serif" font-size="11.00" fill="#000000">number[19]</text>
<polygon fill="none" stroke="#000000" points="371,-223.7 371,-245.7 482,-245.7 482,-223.7 371,-223.7"/>
<text text-anchor="start" x="391" y="-230.8" font-family="Helvetica,sans-Serif" font-size="11.00" fill="#000000">NAME</text>
<polygon fill="none" stroke="#000000" points="482,-223.7 482,-245.7 653,-245.7 653,-223.7 482,-223.7"/>
<text text-anchor="start" x="485" y="-231.4" font-family="Helvetica,sans-Serif" font-size="11.00" fill="#000000">varchar2[255]</text>
<polygon fill="#ffffff" stroke="transparent" points="371,-204.7 371,-223.7 418,-223.7 418,-204.7 371,-204.7"/>
<polygon fill="none" stroke="#000000" points="371,-204.7 371,-223.7 418,-223.7 418,-204.7 371,-204.7"/>
<text text-anchor="start" x="374" y="-210.8" font-family="Helvetica,sans-Serif" font-size="11.00" fill="#000000">&lt; 0</text>
<polygon fill="#ffffff" stroke="transparent" points="418,-204.7 418,-223.7 482,-223.7 482,-204.7 418,-204.7"/>
<polygon fill="none" stroke="#000000" points="418,-204.7 418,-223.7 482,-223.7 482,-204.7 418,-204.7"/>
<text text-anchor="start" x="446.6105" y="-210.8" font-family="Helvetica,sans-Serif" font-size="11.00" fill="#000000">5 rows</text>
<polygon fill="#ffffff" stroke="transparent" points="482,-204.7 482,-223.7 653,-223.7 653,-204.7 482,-204.7"/>
<polygon fill="none" stroke="#000000" points="482,-204.7 482,-223.7 653,-223.7 653,-204.7 482,-204.7"/>
<text text-anchor="start" x="634.4053" y="-210.8" font-family="Helvetica,sans-Serif" font-size="11.00" fill="#000000">1 &gt;</text>
<polygon fill="none" stroke="#000000" stroke-width="2" points="370,-203.7 370,-379.7 654,-379.7 654,-203.7 370,-203.7"/>
</a>
</g>
</g>
<!-- TRACER_SYNTHESIS_REQUESTS&#45;&gt;HEAD_PIECES -->
<g id="edge6" class="edge">
<title>TRACER_SYNTHESIS_REQUESTS:w&#45;&gt;HEAD_PIECES:e</title>
<path fill="none" stroke="#000000" d="M689.6979,-516.2403C637.9633,-495.0915 727.9205,-344.7 653,-344.7"/>
<polygon fill="#000000" stroke="#000000" points="696.1158,-517.344 703.3898,-522.2479 700.0579,-518.022 704,-518.7 704,-518.7 704,-518.7 700.0579,-518.022 704.6102,-515.1521 696.1158,-517.344 696.1158,-517.344"/>
<ellipse fill="none" stroke="#000000" cx="692.9621" cy="-516.8016" rx="3.2" ry="3.2"/>
</g>
<!-- OFF_DNAS_IC50 -->
<g id="node9" class="node">
<title>OFF_DNAS_IC50</title>
<g id="a_node9"><a xlink:href="../../tables/OFF_DNAS_IC50.html" xlink:title="OFF_DNAS_IC50" target="_top">
<polygon fill="#ffffff" stroke="transparent" points="446.5,-758.2 446.5,-819.2 577.5,-819.2 577.5,-758.2 446.5,-758.2"/>
<polygon fill="#f5f5f5" stroke="transparent" points="447,-795.7 447,-818.7 578,-818.7 578,-795.7 447,-795.7"/>
<polygon fill="none" stroke="#000000" points="447,-795.7 447,-818.7 578,-818.7 578,-795.7 447,-795.7"/>
<text text-anchor="start" x="451.9962" y="-804.8" font-family="Helvetica,sans-Serif" font-weight="bold" font-size="11.00" fill="#000000">OFF_DNAS_IC50</text>
<text text-anchor="start" x="543.5219" y="-803.8" font-family="Helvetica,sans-Serif" font-size="11.00" fill="#000000">[table]</text>
<polygon fill="none" stroke="#000000" points="447,-776.7 447,-795.7 578,-795.7 578,-776.7 447,-776.7"/>
<text text-anchor="start" x="450" y="-782.8" font-family="Helvetica,sans-Serif" font-size="11.00" fill="#000000">...</text>
<polygon fill="#ffffff" stroke="transparent" points="447,-757.7 447,-776.7 489,-776.7 489,-757.7 447,-757.7"/>
<polygon fill="none" stroke="#000000" points="447,-757.7 447,-776.7 489,-776.7 489,-757.7 447,-757.7"/>
<text text-anchor="start" x="450" y="-763.8" font-family="Helvetica,sans-Serif" font-size="11.00" fill="#000000"> &#160;</text>
<polygon fill="#ffffff" stroke="transparent" points="489,-757.7 489,-776.7 542,-776.7 542,-757.7 489,-757.7"/>
<polygon fill="none" stroke="#000000" points="489,-757.7 489,-776.7 542,-776.7 542,-757.7 489,-757.7"/>
<text text-anchor="start" x="506.6105" y="-763.8" font-family="Helvetica,sans-Serif" font-size="11.00" fill="#000000">4 rows</text>
<polygon fill="#ffffff" stroke="transparent" points="542,-757.7 542,-776.7 578,-776.7 578,-757.7 542,-757.7"/>
<polygon fill="none" stroke="#000000" points="542,-757.7 542,-776.7 578,-776.7 578,-757.7 542,-757.7"/>
<text text-anchor="start" x="559.4053" y="-763.8" font-family="Helvetica,sans-Serif" font-size="11.00" fill="#000000">1 &gt;</text>
</a>
</g>
</g>
<!-- TRACER_SYNTHESIS_REQUESTS&#45;&gt;OFF_DNAS_IC50 -->
<g id="edge7" class="edge">
<title>TRACER_SYNTHESIS_REQUESTS:w&#45;&gt;OFF_DNAS_IC50:e</title>
<path fill="none" stroke="#000000" d="M689.8198,-653.6681C665.9518,-666.5876 691.5322,-718.5768 663,-747.7 634.0406,-777.2592 619.3811,-785.7 578,-785.7"/>
<polygon fill="#000000" stroke="#000000" points="696.1697,-652.339 704.7376,-654.2236 700.0848,-651.5195 704,-650.7 704,-650.7 704,-650.7 700.0848,-651.5195 703.2624,-647.1764 696.1697,-652.339 696.1697,-652.339"/>
<ellipse fill="none" stroke="#000000" cx="693.0376" cy="-652.9947" rx="3.2" ry="3.2"/>
</g>
<!-- OFF_DNAS -->
<g id="node10" class="node">
<title>OFF_DNAS</title>
<g id="a_node10"><a xlink:href="../../tables/OFF_DNAS.html" xlink:title="OFF_DNAS" target="_top">
<polygon fill="#ffffff" stroke="transparent" points="461.5,-840.2 461.5,-901.2 562.5,-901.2 562.5,-840.2 461.5,-840.2"/>
<polygon fill="#f5f5f5" stroke="transparent" points="462,-877.7 462,-900.7 563,-900.7 563,-877.7 462,-877.7"/>
<polygon fill="none" stroke="#000000" points="462,-877.7 462,-900.7 563,-900.7 563,-877.7 462,-877.7"/>
<text text-anchor="start" x="466.6674" y="-886.8" font-family="Helvetica,sans-Serif" font-weight="bold" font-size="11.00" fill="#000000">OFF_DNAS</text>
<text text-anchor="start" x="528.5219" y="-885.8" font-family="Helvetica,sans-Serif" font-size="11.00" fill="#000000">[table]</text>
<polygon fill="none" stroke="#000000" points="462,-858.7 462,-877.7 563,-877.7 563,-858.7 462,-858.7"/>
<text text-anchor="start" x="465" y="-864.8" font-family="Helvetica,sans-Serif" font-size="11.00" fill="#000000">...</text>
<polygon fill="#ffffff" stroke="transparent" points="462,-839.7 462,-858.7 486,-858.7 486,-839.7 462,-839.7"/>
<polygon fill="none" stroke="#000000" points="462,-839.7 462,-858.7 486,-858.7 486,-839.7 462,-839.7"/>
<text text-anchor="start" x="465" y="-845.8" font-family="Helvetica,sans-Serif" font-size="11.00" fill="#000000"> &#160;</text>
<polygon fill="#ffffff" stroke="transparent" points="486,-839.7 486,-858.7 536,-858.7 536,-839.7 486,-839.7"/>
<polygon fill="none" stroke="#000000" points="486,-839.7 486,-858.7 536,-858.7 536,-839.7 486,-839.7"/>
<text text-anchor="start" x="494.4956" y="-845.8" font-family="Helvetica,sans-Serif" font-size="11.00" fill="#000000">12 rows</text>
<polygon fill="#ffffff" stroke="transparent" points="536,-839.7 536,-858.7 563,-858.7 563,-839.7 536,-839.7"/>
<polygon fill="none" stroke="#000000" points="536,-839.7 536,-858.7 563,-858.7 563,-839.7 536,-839.7"/>
<text text-anchor="start" x="544.4053" y="-845.8" font-family="Helvetica,sans-Serif" font-size="11.00" fill="#000000">1 &gt;</text>
</a>
</g>
</g>
<!-- TRACER_SYNTHESIS_REQUESTS&#45;&gt;OFF_DNAS -->
<g id="edge8" class="edge">
<title>TRACER_SYNTHESIS_REQUESTS:w&#45;&gt;OFF_DNAS:e</title>
<path fill="none" stroke="#000000" d="M689.4444,-674.6093C643.7642,-688.9311 707.3184,-780.3315 663,-829.7 631.2389,-865.0804 610.5452,-867.7 563,-867.7"/>
<polygon fill="#000000" stroke="#000000" points="696.068,-673.7405 704.4682,-676.2694 700.034,-673.2203 704,-672.7 704,-672.7 704,-672.7 700.034,-673.2203 703.5318,-669.1306 696.068,-673.7405 696.068,-673.7405"/>
<ellipse fill="none" stroke="#000000" cx="692.8951" cy="-674.1567" rx="3.2" ry="3.2"/>
</g>
<!-- QUANTIFICATION_METHODS -->
<g id="node11" class="node">
<title>QUANTIFICATION_METHODS</title>
<g id="a_node11"><a xlink:href="../../tables/QUANTIFICATION_METHODS.html" xlink:title="QUANTIFICATION_METHODS" target="_top">
<polygon fill="#ffffff" stroke="transparent" points="414,-120.2 414,-181.2 610,-181.2 610,-120.2 414,-120.2"/>
<polygon fill="#f5f5f5" stroke="transparent" points="414,-157.7 414,-180.7 610,-180.7 610,-157.7 414,-157.7"/>
<polygon fill="none" stroke="#000000" points="414,-157.7 414,-180.7 610,-180.7 610,-157.7 414,-157.7"/>
<text text-anchor="start" x="418.5066" y="-166.8" font-family="Helvetica,sans-Serif" font-weight="bold" font-size="11.00" fill="#000000">QUANTIFICATION_METHODS</text>
<text text-anchor="start" x="575.5219" y="-165.8" font-family="Helvetica,sans-Serif" font-size="11.00" fill="#000000">[table]</text>
<polygon fill="none" stroke="#000000" points="414,-138.7 414,-157.7 610,-157.7 610,-138.7 414,-138.7"/>
<text text-anchor="start" x="417" y="-144.8" font-family="Helvetica,sans-Serif" font-size="11.00" fill="#000000">...</text>
<polygon fill="#ffffff" stroke="transparent" points="414,-119.7 414,-138.7 488,-138.7 488,-119.7 414,-119.7"/>
<polygon fill="none" stroke="#000000" points="414,-119.7 414,-138.7 488,-138.7 488,-119.7 414,-119.7"/>
<text text-anchor="start" x="417" y="-125.8" font-family="Helvetica,sans-Serif" font-size="11.00" fill="#000000"> &#160;</text>
<polygon fill="#ffffff" stroke="transparent" points="488,-119.7 488,-138.7 557,-138.7 557,-119.7 488,-119.7"/>
<polygon fill="none" stroke="#000000" points="488,-119.7 488,-138.7 557,-138.7 557,-119.7 488,-119.7"/>
<text text-anchor="start" x="521.6105" y="-125.8" font-family="Helvetica,sans-Serif" font-size="11.00" fill="#000000">3 rows</text>
<polygon fill="#ffffff" stroke="transparent" points="557,-119.7 557,-138.7 610,-138.7 610,-119.7 557,-119.7"/>
<polygon fill="none" stroke="#000000" points="557,-119.7 557,-138.7 610,-138.7 610,-119.7 557,-119.7"/>
<text text-anchor="start" x="591.4053" y="-125.8" font-family="Helvetica,sans-Serif" font-size="11.00" fill="#000000">1 &gt;</text>
</a>
</g>
</g>
<!-- TRACER_SYNTHESIS_REQUESTS&#45;&gt;QUANTIFICATION_METHODS -->
<g id="edge9" class="edge">
<title>TRACER_SYNTHESIS_REQUESTS:w&#45;&gt;QUANTIFICATION_METHODS:e</title>
<path fill="none" stroke="#000000" d="M690.2259,-492.416C644.4972,-459.5228 693.544,-246.8515 663,-191.7 648.1675,-164.9179 640.6151,-147.7 610,-147.7"/>
<polygon fill="#000000" stroke="#000000" points="696.3609,-494.3241 702.9308,-500.1376 700.1805,-495.512 704,-496.7 704,-496.7 704,-496.7 700.1805,-495.512 705.0692,-493.2624 696.3609,-494.3241 696.3609,-494.3241"/>
<ellipse fill="none" stroke="#000000" cx="693.3053" cy="-493.3737" rx="3.2" ry="3.2"/>
</g>
<!-- REGISTRATIONS -->
<g id="node12" class="node">
<title>REGISTRATIONS</title>
<g id="a_node12"><a xlink:href="../../tables/REGISTRATIONS.html" xlink:title="REGISTRATIONS" target="_top">
<polygon fill="#ffffff" stroke="transparent" points="446,-402.2 446,-463.2 578,-463.2 578,-402.2 446,-402.2"/>
<polygon fill="#f5f5f5" stroke="transparent" points="446,-439.7 446,-462.7 578,-462.7 578,-439.7 446,-439.7"/>
<polygon fill="none" stroke="#000000" points="446,-439.7 446,-462.7 578,-462.7 578,-439.7 446,-439.7"/>
<text text-anchor="start" x="450.5832" y="-448.8" font-family="Helvetica,sans-Serif" font-weight="bold" font-size="11.00" fill="#000000">REGISTRATIONS</text>
<text text-anchor="start" x="543.5219" y="-447.8" font-family="Helvetica,sans-Serif" font-size="11.00" fill="#000000">[table]</text>
<polygon fill="none" stroke="#000000" points="446,-420.7 446,-439.7 578,-439.7 578,-420.7 446,-420.7"/>
<text text-anchor="start" x="449" y="-426.8" font-family="Helvetica,sans-Serif" font-size="11.00" fill="#000000">...</text>
<polygon fill="#ffffff" stroke="transparent" points="446,-401.7 446,-420.7 488,-420.7 488,-401.7 446,-401.7"/>
<polygon fill="none" stroke="#000000" points="446,-401.7 446,-420.7 488,-420.7 488,-401.7 446,-401.7"/>
<text text-anchor="start" x="449" y="-407.8" font-family="Helvetica,sans-Serif" font-size="11.00" fill="#000000"> &#160;</text>
<polygon fill="#ffffff" stroke="transparent" points="488,-401.7 488,-420.7 541,-420.7 541,-401.7 488,-401.7"/>
<polygon fill="none" stroke="#000000" points="488,-401.7 488,-420.7 541,-420.7 541,-401.7 488,-401.7"/>
<text text-anchor="start" x="505.6105" y="-407.8" font-family="Helvetica,sans-Serif" font-size="11.00" fill="#000000">9 rows</text>
<polygon fill="#ffffff" stroke="transparent" points="541,-401.7 541,-420.7 578,-420.7 578,-401.7 541,-401.7"/>
<polygon fill="none" stroke="#000000" points="541,-401.7 541,-420.7 578,-420.7 578,-401.7 541,-401.7"/>
<text text-anchor="start" x="559.4053" y="-407.8" font-family="Helvetica,sans-Serif" font-size="11.00" fill="#000000">1 &gt;</text>
</a>
</g>
</g>
<!-- TRACER_SYNTHESIS_REQUESTS&#45;&gt;REGISTRATIONS -->
<g id="edge10" class="edge">
<title>TRACER_SYNTHESIS_REQUESTS:w&#45;&gt;REGISTRATIONS:e</title>
<path fill="none" stroke="#000000" d="M689.8711,-536.8777C674.6302,-525.7978 683.9607,-493.2134 663,-473.7 631.8645,-444.7144 620.5392,-429.7 578,-429.7"/>
<polygon fill="#000000" stroke="#000000" points="696.2776,-538.6108 703.0599,-544.1751 700.1388,-539.6554 704,-540.7 704,-540.7 704,-540.7 700.1388,-539.6554 704.9401,-537.2249 696.2776,-538.6108 696.2776,-538.6108"/>
<ellipse fill="none" stroke="#000000" cx="693.1886" cy="-537.7752" rx="3.2" ry="3.2"/>
</g>
<!-- TRACER_TYPES -->
<g id="node13" class="node">
<title>TRACER_TYPES</title>
<g id="a_node13"><a xlink:href="../../tables/TRACER_TYPES.html" xlink:title="TRACER_TYPES" target="_top">
<polygon fill="#ffffff" stroke="transparent" points="447,-950.2 447,-1011.2 577,-1011.2 577,-950.2 447,-950.2"/>
<polygon fill="#f5f5f5" stroke="transparent" points="447,-987.7 447,-1010.7 577,-1010.7 577,-987.7 447,-987.7"/>
<polygon fill="none" stroke="#000000" points="447,-987.7 447,-1010.7 577,-1010.7 577,-987.7 447,-987.7"/>
<text text-anchor="start" x="451.8036" y="-996.8" font-family="Helvetica,sans-Serif" font-weight="bold" font-size="11.00" fill="#000000">TRACER_TYPES</text>
<text text-anchor="start" x="542.5219" y="-995.8" font-family="Helvetica,sans-Serif" font-size="11.00" fill="#000000">[table]</text>
<polygon fill="none" stroke="#000000" points="447,-968.7 447,-987.7 577,-987.7 577,-968.7 447,-968.7"/>
<text text-anchor="start" x="450" y="-974.8" font-family="Helvetica,sans-Serif" font-size="11.00" fill="#000000">...</text>
<polygon fill="#ffffff" stroke="transparent" points="447,-949.7 447,-968.7 485,-968.7 485,-949.7 447,-949.7"/>
<polygon fill="none" stroke="#000000" points="447,-949.7 447,-968.7 485,-968.7 485,-949.7 447,-949.7"/>
<text text-anchor="start" x="450" y="-955.8" font-family="Helvetica,sans-Serif" font-size="11.00" fill="#000000"> &#160;</text>
<polygon fill="#ffffff" stroke="transparent" points="485,-949.7 485,-968.7 542,-968.7 542,-949.7 485,-949.7"/>
<polygon fill="none" stroke="#000000" points="485,-949.7 485,-968.7 542,-968.7 542,-949.7 485,-949.7"/>
<text text-anchor="start" x="500.4956" y="-955.8" font-family="Helvetica,sans-Serif" font-size="11.00" fill="#000000">12 rows</text>
<polygon fill="#ffffff" stroke="transparent" points="542,-949.7 542,-968.7 577,-968.7 577,-949.7 542,-949.7"/>
<polygon fill="none" stroke="#000000" points="542,-949.7 542,-968.7 577,-968.7 577,-949.7 542,-949.7"/>
<text text-anchor="start" x="558.4053" y="-955.8" font-family="Helvetica,sans-Serif" font-size="11.00" fill="#000000">2 &gt;</text>
</a>
</g>
</g>
<!-- TRACER_SYNTHESIS_REQUESTS&#45;&gt;TRACER_TYPES -->
<g id="edge14" class="edge">
<title>TRACER_SYNTHESIS_REQUESTS:w&#45;&gt;TRACER_TYPES:e</title>
<path fill="none" stroke="#000000" d="M690.7079,-722.7274C662.0918,-754.3118 689.7143,-900.6162 663,-935.7 637.2308,-969.5427 619.5368,-977.7 577,-977.7"/>
<polygon fill="#000000" stroke="#000000" points="696.7141,-720.0039 705.4868,-719.9787 700.357,-718.3519 704,-716.7 704,-716.7 704,-716.7 700.357,-718.3519 702.5132,-713.4213 696.7141,-720.0039 696.7141,-720.0039"/>
<ellipse fill="none" stroke="#000000" cx="693.7997" cy="-721.3254" rx="3.2" ry="3.2"/>
</g>
<!-- TRACER_SYNTHESIS_REQUESTS_REFERENCES -->
<g id="node14" class="node">
<title>TRACER_SYNTHESIS_REQUESTS_REFERENCES</title>
<g id="a_node14"><a xlink:href="../../tables/TRACER_SYNTHESIS_REQUESTS_REFERENCES.html" xlink:title="TRACER_SYNTHESIS_REQUESTS_REFERENCES" target="_top">
<polygon fill="#ffffff" stroke="transparent" points="1001.5,-752.2 1001.5,-813.2 1305.5,-813.2 1305.5,-752.2 1001.5,-752.2"/>
<polygon fill="#f5f5f5" stroke="transparent" points="1001.5,-789.7 1001.5,-812.7 1305.5,-812.7 1305.5,-789.7 1001.5,-789.7"/>
<polygon fill="none" stroke="#000000" points="1001.5,-789.7 1001.5,-812.7 1305.5,-812.7 1305.5,-789.7 1001.5,-789.7"/>
<text text-anchor="start" x="1006.2188" y="-798.8" font-family="Helvetica,sans-Serif" font-weight="bold" font-size="11.00" fill="#000000">TRACER_SYNTHESIS_REQUESTS_REFERENCES</text>
<text text-anchor="start" x="1271.0219" y="-797.8" font-family="Helvetica,sans-Serif" font-size="11.00" fill="#000000">[table]</text>
<polygon fill="none" stroke="#000000" points="1001.5,-770.7 1001.5,-789.7 1305.5,-789.7 1305.5,-770.7 1001.5,-770.7"/>
<text text-anchor="start" x="1004.5" y="-776.8" font-family="Helvetica,sans-Serif" font-size="11.00" fill="#000000">...</text>
<polygon fill="#ffffff" stroke="transparent" points="1001.5,-751.7 1001.5,-770.7 1138.5,-770.7 1138.5,-751.7 1001.5,-751.7"/>
<polygon fill="none" stroke="#000000" points="1001.5,-751.7 1001.5,-770.7 1138.5,-770.7 1138.5,-751.7 1001.5,-751.7"/>
<text text-anchor="start" x="1004.5" y="-757.8" font-family="Helvetica,sans-Serif" font-size="11.00" fill="#000000">&lt; 2</text>
<polygon fill="#ffffff" stroke="transparent" points="1138.5,-751.7 1138.5,-770.7 1234.5,-770.7 1234.5,-751.7 1138.5,-751.7"/>
<polygon fill="none" stroke="#000000" points="1138.5,-751.7 1138.5,-770.7 1234.5,-770.7 1234.5,-751.7 1138.5,-751.7"/>
<text text-anchor="start" x="1199.1105" y="-757.8" font-family="Helvetica,sans-Serif" font-size="11.00" fill="#000000">0 rows</text>
<polygon fill="#ffffff" stroke="transparent" points="1234.5,-751.7 1234.5,-770.7 1305.5,-770.7 1305.5,-751.7 1234.5,-751.7"/>
<polygon fill="none" stroke="#000000" points="1234.5,-751.7 1234.5,-770.7 1305.5,-770.7 1305.5,-751.7 1234.5,-751.7"/>
<text text-anchor="start" x="1296.3862" y="-757.8" font-family="Helvetica,sans-Serif" font-size="11.00" fill="#000000"> &#160;</text>
</a>
</g>
</g>
<!-- TRACER_SYNTHESIS_REQUESTS_REFERENCES&#45;&gt;TRACER_SYNTHESIS_REQUESTS -->
<g id="edge15" class="edge">
<title>TRACER_SYNTHESIS_REQUESTS_REFERENCES:w&#45;&gt;TRACER_SYNTHESIS_REQUESTS:e</title>
<path fill="none" stroke="#000000" d="M987.2955,-776.7514C967.1919,-767.3505 964.7094,-738.7 936,-738.7"/>
<polygon fill="#000000" stroke="#000000" points="993.667,-778.0739 1000.7683,-783.2249 997.5835,-778.887 1001.5,-779.7 1001.5,-779.7 1001.5,-779.7 997.5835,-778.887 1002.2317,-776.1751 993.667,-778.0739 993.667,-778.0739"/>
<ellipse fill="none" stroke="#000000" cx="990.5338" cy="-777.4235" rx="3.2" ry="3.2"/>
</g>
<!-- VERSION_TRACERS_TRACER_SYNTHESIS_REQUESTS -->
<g id="node15" class="node">
<title>VERSION_TRACERS_TRACER_SYNTHESIS_REQUESTS</title>
<g id="a_node15"><a xlink:href="../../tables/VERSION_TRACERS_TRACER_SYNTHESIS_REQUESTS.html" xlink:title="VERSION_TRACERS_TRACER_SYNTHESIS_REQUESTS" target="_top">
<polygon fill="#ffffff" stroke="transparent" points="985,-670.2 985,-731.2 1322,-731.2 1322,-670.2 985,-670.2"/>
<polygon fill="#f5f5f5" stroke="transparent" points="985.5,-707.7 985.5,-730.7 1322.5,-730.7 1322.5,-707.7 985.5,-707.7"/>
<polygon fill="none" stroke="#000000" points="985.5,-707.7 985.5,-730.7 1322.5,-730.7 1322.5,-707.7 985.5,-707.7"/>
<text text-anchor="start" x="990.2161" y="-716.8" font-family="Helvetica,sans-Serif" font-weight="bold" font-size="11.00" fill="#000000">VERSION_TRACERS_TRACER_SYNTHESIS_REQUESTS</text>
<text text-anchor="start" x="1288.0219" y="-715.8" font-family="Helvetica,sans-Serif" font-size="11.00" fill="#000000">[table]</text>
<polygon fill="none" stroke="#000000" points="985.5,-688.7 985.5,-707.7 1322.5,-707.7 1322.5,-688.7 985.5,-688.7"/>
<text text-anchor="start" x="988.5" y="-694.8" font-family="Helvetica,sans-Serif" font-size="11.00" fill="#000000">...</text>
<polygon fill="#ffffff" stroke="transparent" points="985.5,-669.7 985.5,-688.7 1136.5,-688.7 1136.5,-669.7 985.5,-669.7"/>
<polygon fill="none" stroke="#000000" points="985.5,-669.7 985.5,-688.7 1136.5,-688.7 1136.5,-669.7 985.5,-669.7"/>
<text text-anchor="start" x="988.5" y="-675.8" font-family="Helvetica,sans-Serif" font-size="11.00" fill="#000000">&lt; 2</text>
<polygon fill="#ffffff" stroke="transparent" points="1136.5,-669.7 1136.5,-688.7 1245.5,-688.7 1245.5,-669.7 1136.5,-669.7"/>
<polygon fill="none" stroke="#000000" points="1136.5,-669.7 1136.5,-688.7 1245.5,-688.7 1245.5,-669.7 1136.5,-669.7"/>
<text text-anchor="start" x="1203.9956" y="-675.8" font-family="Helvetica,sans-Serif" font-size="11.00" fill="#000000">21 rows</text>
<polygon fill="#ffffff" stroke="transparent" points="1245.5,-669.7 1245.5,-688.7 1322.5,-688.7 1322.5,-669.7 1245.5,-669.7"/>
<polygon fill="none" stroke="#000000" points="1245.5,-669.7 1245.5,-688.7 1322.5,-688.7 1322.5,-669.7 1245.5,-669.7"/>
<text text-anchor="start" x="1313.3862" y="-675.8" font-family="Helvetica,sans-Serif" font-size="11.00" fill="#000000"> &#160;</text>
</a>
</g>
</g>
<!-- VERSION_TRACERS_TRACER_SYNTHESIS_REQUESTS&#45;&gt;TRACER_SYNTHESIS_REQUESTS -->
<g id="edge16" class="edge">
<title>VERSION_TRACERS_TRACER_SYNTHESIS_REQUESTS:w&#45;&gt;TRACER_SYNTHESIS_REQUESTS:e</title>
<path fill="none" stroke="#000000" d="M971.5753,-702.4032C958.543,-713.1726 958.5408,-738.7 936,-738.7"/>
<polygon fill="#000000" stroke="#000000" points="977.9207,-700.26 986.652,-701.1107 981.7103,-698.98 985.5,-697.7 985.5,-697.7 985.5,-697.7 981.7103,-698.98 984.348,-694.2893 977.9207,-700.26 977.9207,-700.26"/>
<ellipse fill="none" stroke="#000000" cx="974.8889" cy="-701.2841" rx="3.2" ry="3.2"/>
</g>
</g>
</svg>
