<?xml version="1.0" encoding="UTF-8" standalone="no"?>
<!DOCTYPE svg PUBLIC "-//W3C//DTD SVG 1.1//EN"
 "http://www.w3.org/Graphics/SVG/1.1/DTD/svg11.dtd">
<!-- Generated by graphviz version 2.40.1 (20161225.0304)
 -->
<!-- Title: oneDegreeRelationshipsDiagram Pages: 1 -->
<svg width="1031pt" height="630pt"
 viewBox="0.00 0.00 1031.00 630.20" xmlns="http://www.w3.org/2000/svg" xmlns:xlink="http://www.w3.org/1999/xlink">
<g id="graph0" class="graph" transform="scale(1 1) rotate(0) translate(4 626.2)">
<title>oneDegreeRelationshipsDiagram</title>
<polygon fill="#ffffff" stroke="transparent" points="-4,4 -4,-626.2 1027,-626.2 1027,4 -4,4"/>
<text text-anchor="middle" x="72.4936" y="-7.3" font-family="Helvetica,sans-Serif" font-size="11.00" fill="#000000">Generated by SchemaSpy</text>
<!-- IN_HOUSE_ASSAYS -->
<g id="node1" class="node">
<title>IN_HOUSE_ASSAYS</title>
<g id="a_node1"><a xlink:href="../../tables/IN_HOUSE_ASSAYS.html" xlink:title="IN_HOUSE_ASSAYS" target="_top">
<polygon fill="#ffffff" stroke="transparent" points="358,-309.7 358,-597.7 726,-597.7 726,-309.7 358,-309.7"/>
<polygon fill="#f5f5f5" stroke="transparent" points="360,-572.7 360,-595.7 724,-595.7 724,-572.7 360,-572.7"/>
<polygon fill="none" stroke="#000000" points="360,-572.7 360,-595.7 724,-595.7 724,-572.7 360,-572.7"/>
<text text-anchor="start" x="365" y="-581.8" font-family="Helvetica,sans-Serif" font-weight="bold" font-size="11.00" fill="#000000">IN_HOUSE_ASSAYS</text>
<text text-anchor="start" x="689.0437" y="-580.8" font-family="Helvetica,sans-Serif" font-size="11.00" fill="#000000">[table]</text>
<polygon fill="none" stroke="#000000" points="360,-550.7 360,-572.7 553,-572.7 553,-550.7 360,-550.7"/>
<image xlink:href="../../images/primaryKeys.png" width="11px" height="12px" preserveAspectRatio="xMinYMin meet" x="365" y="-567.7"/>
<text text-anchor="start" x="380" y="-557.8" font-family="Helvetica,sans-Serif" font-size="11.00" fill="#000000">ID</text>
<polygon fill="none" stroke="#000000" points="553,-550.7 553,-572.7 724,-572.7 724,-550.7 553,-550.7"/>
<text text-anchor="start" x="556" y="-558.4" font-family="Helvetica,sans-Serif" font-size="11.00" fill="#000000">number[19]</text>
<polygon fill="none" stroke="#000000" points="360,-528.7 360,-550.7 553,-550.7 553,-528.7 360,-528.7"/>
<text text-anchor="start" x="380" y="-535.8" font-family="Helvetica,sans-Serif" font-size="11.00" fill="#000000">CREATED_AT</text>
<polygon fill="none" stroke="#000000" points="553,-528.7 553,-550.7 724,-550.7 724,-528.7 553,-528.7"/>
<text text-anchor="start" x="555.9896" y="-536.4" font-family="Helvetica,sans-Serif" font-size="11.00" fill="#000000">timestamp(6) with time zone[13,6]</text>
<polygon fill="none" stroke="#000000" points="360,-506.7 360,-528.7 553,-528.7 553,-506.7 360,-506.7"/>
<text text-anchor="start" x="380" y="-513.8" font-family="Helvetica,sans-Serif" font-size="11.00" fill="#000000">CREATED_BY</text>
<polygon fill="none" stroke="#000000" points="553,-506.7 553,-528.7 724,-528.7 724,-506.7 553,-506.7"/>
<text text-anchor="start" x="556" y="-514.4" font-family="Helvetica,sans-Serif" font-size="11.00" fill="#000000">number[19]</text>
<polygon fill="none" stroke="#000000" points="360,-484.7 360,-506.7 553,-506.7 553,-484.7 360,-484.7"/>
<text text-anchor="start" x="380" y="-491.8" font-family="Helvetica,sans-Serif" font-size="11.00" fill="#000000">UPDATED_AT</text>
<polygon fill="none" stroke="#000000" points="553,-484.7 553,-506.7 724,-506.7 724,-484.7 553,-484.7"/>
<text text-anchor="start" x="555.9896" y="-492.4" font-family="Helvetica,sans-Serif" font-size="11.00" fill="#000000">timestamp(6) with time zone[13,6]</text>
<polygon fill="none" stroke="#000000" points="360,-462.7 360,-484.7 553,-484.7 553,-462.7 360,-462.7"/>
<text text-anchor="start" x="380" y="-469.8" font-family="Helvetica,sans-Serif" font-size="11.00" fill="#000000">UPDATED_BY</text>
<polygon fill="none" stroke="#000000" points="553,-462.7 553,-484.7 724,-484.7 724,-462.7 553,-462.7"/>
<text text-anchor="start" x="556" y="-470.4" font-family="Helvetica,sans-Serif" font-size="11.00" fill="#000000">number[19]</text>
<polygon fill="none" stroke="#000000" points="360,-440.7 360,-462.7 553,-462.7 553,-440.7 360,-440.7"/>
<image xlink:href="../../images/foreignKeys.png" width="11px" height="12px" preserveAspectRatio="xMinYMin meet" x="365" y="-457.7"/>
<text text-anchor="start" x="380" y="-447.8" font-family="Helvetica,sans-Serif" font-size="11.00" fill="#000000">ASSAY_AFFINITY_TYPE_ID</text>
<polygon fill="none" stroke="#000000" points="553,-440.7 553,-462.7 724,-462.7 724,-440.7 553,-440.7"/>
<text text-anchor="start" x="556" y="-448.4" font-family="Helvetica,sans-Serif" font-size="11.00" fill="#000000">number[19]</text>
<polygon fill="none" stroke="#000000" points="360,-418.7 360,-440.7 553,-440.7 553,-418.7 360,-418.7"/>
<image xlink:href="../../images/foreignKeys.png" width="11px" height="12px" preserveAspectRatio="xMinYMin meet" x="365" y="-435.7"/>
<text text-anchor="start" x="380" y="-425.8" font-family="Helvetica,sans-Serif" font-size="11.00" fill="#000000">ASSAY_TYPE_ID</text>
<polygon fill="none" stroke="#000000" points="553,-418.7 553,-440.7 724,-440.7 724,-418.7 553,-418.7"/>
<text text-anchor="start" x="556" y="-426.4" font-family="Helvetica,sans-Serif" font-size="11.00" fill="#000000">number[19]</text>
<polygon fill="none" stroke="#000000" points="360,-396.7 360,-418.7 553,-418.7 553,-396.7 360,-396.7"/>
<image xlink:href="../../images/foreignKeys.png" width="11px" height="12px" preserveAspectRatio="xMinYMin meet" x="365" y="-413.7"/>
<text text-anchor="start" x="380" y="-403.8" font-family="Helvetica,sans-Serif" font-size="11.00" fill="#000000">TRACER_LIGAND_ID</text>
<polygon fill="none" stroke="#000000" points="553,-396.7 553,-418.7 724,-418.7 724,-396.7 553,-396.7"/>
<text text-anchor="start" x="556" y="-404.4" font-family="Helvetica,sans-Serif" font-size="11.00" fill="#000000">number[19]</text>
<polygon fill="none" stroke="#000000" points="360,-374.7 360,-396.7 553,-396.7 553,-374.7 360,-374.7"/>
<text text-anchor="start" x="380" y="-381.8" font-family="Helvetica,sans-Serif" font-size="11.00" fill="#000000">AFFINITY_VALUE</text>
<polygon fill="none" stroke="#000000" points="553,-374.7 553,-396.7 724,-396.7 724,-374.7 553,-374.7"/>
<text text-anchor="start" x="556" y="-382.4" font-family="Helvetica,sans-Serif" font-size="11.00" fill="#000000">varchar2[30]</text>
<polygon fill="none" stroke="#000000" points="360,-352.7 360,-374.7 553,-374.7 553,-352.7 360,-352.7"/>
<text text-anchor="start" x="380" y="-359.8" font-family="Helvetica,sans-Serif" font-size="11.00" fill="#000000">MOLECULE_ASSAYED</text>
<polygon fill="none" stroke="#000000" points="553,-352.7 553,-374.7 724,-374.7 724,-352.7 553,-352.7"/>
<text text-anchor="start" x="556" y="-360.4" font-family="Helvetica,sans-Serif" font-size="11.00" fill="#000000">varchar2[30]</text>
<polygon fill="none" stroke="#000000" points="360,-330.7 360,-352.7 553,-352.7 553,-330.7 360,-330.7"/>
<image xlink:href="../../images/foreignKeys.png" width="11px" height="12px" preserveAspectRatio="xMinYMin meet" x="365" y="-347.7"/>
<text text-anchor="start" x="380" y="-337.8" font-family="Helvetica,sans-Serif" font-size="11.00" fill="#000000">TARGET_FORM_ID</text>
<polygon fill="none" stroke="#000000" points="553,-330.7 553,-352.7 724,-352.7 724,-330.7 553,-330.7"/>
<text text-anchor="start" x="556" y="-338.4" font-family="Helvetica,sans-Serif" font-size="11.00" fill="#000000">number[19]</text>
<polygon fill="#ffffff" stroke="transparent" points="360,-311.7 360,-330.7 445,-330.7 445,-311.7 360,-311.7"/>
<polygon fill="none" stroke="#000000" points="360,-311.7 360,-330.7 445,-330.7 445,-311.7 360,-311.7"/>
<text text-anchor="start" x="363" y="-317.8" font-family="Helvetica,sans-Serif" font-size="11.00" fill="#000000">&lt; 4</text>
<polygon fill="#ffffff" stroke="transparent" points="445,-311.7 445,-330.7 553,-330.7 553,-311.7 445,-311.7"/>
<polygon fill="none" stroke="#000000" points="445,-311.7 445,-330.7 553,-330.7 553,-311.7 445,-311.7"/>
<text text-anchor="start" x="511.4956" y="-317.8" font-family="Helvetica,sans-Serif" font-size="11.00" fill="#000000">51 rows</text>
<polygon fill="#ffffff" stroke="transparent" points="553,-311.7 553,-330.7 724,-330.7 724,-311.7 553,-311.7"/>
<polygon fill="none" stroke="#000000" points="553,-311.7 553,-330.7 724,-330.7 724,-311.7 553,-311.7"/>
<text text-anchor="start" x="705.4053" y="-317.8" font-family="Helvetica,sans-Serif" font-size="11.00" fill="#000000">1 &gt;</text>
<polygon fill="none" stroke="#000000" stroke-width="2" points="359,-310.7 359,-596.7 725,-596.7 725,-310.7 359,-310.7"/>
</a>
</g>
</g>
<!-- ASSAY_AFFINITY_TYPES -->
<g id="node2" class="node">
<title>ASSAY_AFFINITY_TYPES</title>
<g id="a_node2"><a xlink:href="../../tables/ASSAY_AFFINITY_TYPES.html" xlink:title="ASSAY_AFFINITY_TYPES" target="_top">
<polygon fill="#ffffff" stroke="transparent" points="68,-526.2 68,-609.2 249,-609.2 249,-526.2 68,-526.2"/>
<polygon fill="#f5f5f5" stroke="transparent" points="68.5,-585.7 68.5,-608.7 249.5,-608.7 249.5,-585.7 68.5,-585.7"/>
<polygon fill="none" stroke="#000000" points="68.5,-585.7 68.5,-608.7 249.5,-608.7 249.5,-585.7 68.5,-585.7"/>
<text text-anchor="start" x="73.5" y="-594.8" font-family="Helvetica,sans-Serif" font-weight="bold" font-size="11.00" fill="#000000">ASSAY_AFFINITY_TYPES</text>
<text text-anchor="start" x="214.5437" y="-593.8" font-family="Helvetica,sans-Serif" font-size="11.00" fill="#000000">[table]</text>
<polygon fill="none" stroke="#000000" points="68.5,-563.7 68.5,-585.7 249.5,-585.7 249.5,-563.7 68.5,-563.7"/>
<image xlink:href="../../images/primaryKeys.png" width="11px" height="12px" preserveAspectRatio="xMinYMin meet" x="73.5" y="-580.7"/>
<text text-anchor="start" x="88.5" y="-570.8" font-family="Helvetica,sans-Serif" font-size="11.00" fill="#000000">ID</text>
<polygon fill="none" stroke="#000000" points="68.5,-544.7 68.5,-563.7 249.5,-563.7 249.5,-544.7 68.5,-544.7"/>
<text text-anchor="start" x="71.5" y="-550.8" font-family="Helvetica,sans-Serif" font-size="11.00" fill="#000000">...</text>
<polygon fill="#ffffff" stroke="transparent" points="68.5,-525.7 68.5,-544.7 135.5,-544.7 135.5,-525.7 68.5,-525.7"/>
<polygon fill="none" stroke="#000000" points="68.5,-525.7 68.5,-544.7 135.5,-544.7 135.5,-525.7 68.5,-525.7"/>
<text text-anchor="start" x="71.5" y="-531.8" font-family="Helvetica,sans-Serif" font-size="11.00" fill="#000000"> &#160;</text>
<polygon fill="#ffffff" stroke="transparent" points="135.5,-525.7 135.5,-544.7 200.5,-544.7 200.5,-525.7 135.5,-525.7"/>
<polygon fill="none" stroke="#000000" points="135.5,-525.7 135.5,-544.7 200.5,-544.7 200.5,-525.7 135.5,-525.7"/>
<text text-anchor="start" x="165.1105" y="-531.8" font-family="Helvetica,sans-Serif" font-size="11.00" fill="#000000">7 rows</text>
<polygon fill="#ffffff" stroke="transparent" points="200.5,-525.7 200.5,-544.7 249.5,-544.7 249.5,-525.7 200.5,-525.7"/>
<polygon fill="none" stroke="#000000" points="200.5,-525.7 200.5,-544.7 249.5,-544.7 249.5,-525.7 200.5,-525.7"/>
<text text-anchor="start" x="230.9053" y="-531.8" font-family="Helvetica,sans-Serif" font-size="11.00" fill="#000000">2 &gt;</text>
</a>
</g>
</g>
<!-- IN_HOUSE_ASSAYS&#45;&gt;ASSAY_AFFINITY_TYPES -->
<g id="edge1" class="edge">
<title>IN_HOUSE_ASSAYS:w&#45;&gt;ASSAY_AFFINITY_TYPES:e</title>
<path fill="none" stroke="#000000" d="M345.7029,-455.1132C329.5525,-465.0523 335.579,-494.6041 317,-515.7 290.6658,-545.6017 289.3448,-574.7 249.5,-574.7"/>
<polygon fill="#000000" stroke="#000000" points="352.2187,-453.5577 360.836,-455.2016 356.1093,-452.6289 360,-451.7 360,-451.7 360,-451.7 356.1093,-452.6289 359.164,-448.1984 352.2187,-453.5577 352.2187,-453.5577"/>
<ellipse fill="none" stroke="#000000" cx="349.1061" cy="-454.3008" rx="3.2" ry="3.2"/>
</g>
<!-- ASSAY_TYPES -->
<g id="node3" class="node">
<title>ASSAY_TYPES</title>
<g id="a_node3"><a xlink:href="../../tables/ASSAY_TYPES.html" xlink:title="ASSAY_TYPES" target="_top">
<polygon fill="#ffffff" stroke="transparent" points="98,-422.2 98,-505.2 219,-505.2 219,-422.2 98,-422.2"/>
<polygon fill="#f5f5f5" stroke="transparent" points="98.5,-481.7 98.5,-504.7 219.5,-504.7 219.5,-481.7 98.5,-481.7"/>
<polygon fill="none" stroke="#000000" points="98.5,-481.7 98.5,-504.7 219.5,-504.7 219.5,-481.7 98.5,-481.7"/>
<text text-anchor="start" x="103.0711" y="-490.8" font-family="Helvetica,sans-Serif" font-weight="bold" font-size="11.00" fill="#000000">ASSAY_TYPES</text>
<text text-anchor="start" x="185.0219" y="-489.8" font-family="Helvetica,sans-Serif" font-size="11.00" fill="#000000">[table]</text>
<polygon fill="none" stroke="#000000" points="98.5,-459.7 98.5,-481.7 219.5,-481.7 219.5,-459.7 98.5,-459.7"/>
<image xlink:href="../../images/primaryKeys.png" width="11px" height="12px" preserveAspectRatio="xMinYMin meet" x="103.5" y="-476.7"/>
<text text-anchor="start" x="122.5" y="-466.8" font-family="Helvetica,sans-Serif" font-size="11.00" fill="#000000">ID</text>
<polygon fill="none" stroke="#000000" points="98.5,-440.7 98.5,-459.7 219.5,-459.7 219.5,-440.7 98.5,-440.7"/>
<text text-anchor="start" x="101.5" y="-446.8" font-family="Helvetica,sans-Serif" font-size="11.00" fill="#000000">...</text>
<polygon fill="#ffffff" stroke="transparent" points="98.5,-421.7 98.5,-440.7 132.5,-440.7 132.5,-421.7 98.5,-421.7"/>
<polygon fill="none" stroke="#000000" points="98.5,-421.7 98.5,-440.7 132.5,-440.7 132.5,-421.7 98.5,-421.7"/>
<text text-anchor="start" x="101.5" y="-427.8" font-family="Helvetica,sans-Serif" font-size="11.00" fill="#000000"> &#160;</text>
<polygon fill="#ffffff" stroke="transparent" points="132.5,-421.7 132.5,-440.7 187.5,-440.7 187.5,-421.7 132.5,-421.7"/>
<polygon fill="none" stroke="#000000" points="132.5,-421.7 132.5,-440.7 187.5,-440.7 187.5,-421.7 132.5,-421.7"/>
<text text-anchor="start" x="145.9956" y="-427.8" font-family="Helvetica,sans-Serif" font-size="11.00" fill="#000000">10 rows</text>
<polygon fill="#ffffff" stroke="transparent" points="187.5,-421.7 187.5,-440.7 219.5,-440.7 219.5,-421.7 187.5,-421.7"/>
<polygon fill="none" stroke="#000000" points="187.5,-421.7 187.5,-440.7 219.5,-440.7 219.5,-421.7 187.5,-421.7"/>
<text text-anchor="start" x="200.9053" y="-427.8" font-family="Helvetica,sans-Serif" font-size="11.00" fill="#000000">3 &gt;</text>
</a>
</g>
</g>
<!-- IN_HOUSE_ASSAYS&#45;&gt;ASSAY_TYPES -->
<g id="edge2" class="edge">
<title>IN_HOUSE_ASSAYS:w&#45;&gt;ASSAY_TYPES:e</title>
<path fill="none" stroke="#000000" d="M345.3682,-430.4466C292.9347,-436.0035 279.3399,-470.7 219.5,-470.7"/>
<polygon fill="#000000" stroke="#000000" points="352.0104,-430.1077 360.1835,-433.2953 356.0052,-429.9039 360,-429.7 360,-429.7 360,-429.7 356.0052,-429.9039 359.8165,-426.1047 352.0104,-430.1077 352.0104,-430.1077"/>
<ellipse fill="none" stroke="#000000" cx="348.8146" cy="-430.2708" rx="3.2" ry="3.2"/>
</g>
<!-- TARGET_FORMS -->
<g id="node4" class="node">
<title>TARGET_FORMS</title>
<g id="a_node4"><a xlink:href="../../tables/TARGET_FORMS.html" xlink:title="TARGET_FORMS" target="_top">
<polygon fill="#ffffff" stroke="transparent" points="8,-38.2 8,-231.2 309,-231.2 309,-38.2 8,-38.2"/>
<polygon fill="#f5f5f5" stroke="transparent" points="8.5,-207.7 8.5,-230.7 309.5,-230.7 309.5,-207.7 8.5,-207.7"/>
<polygon fill="none" stroke="#000000" points="8.5,-207.7 8.5,-230.7 309.5,-230.7 309.5,-207.7 8.5,-207.7"/>
<text text-anchor="start" x="13.5" y="-216.8" font-family="Helvetica,sans-Serif" font-weight="bold" font-size="11.00" fill="#000000">TARGET_FORMS</text>
<text text-anchor="start" x="274.5437" y="-215.8" font-family="Helvetica,sans-Serif" font-size="11.00" fill="#000000">[table]</text>
<polygon fill="none" stroke="#000000" points="8.5,-185.7 8.5,-207.7 309.5,-207.7 309.5,-185.7 8.5,-185.7"/>
<image xlink:href="../../images/primaryKeys.png" width="11px" height="12px" preserveAspectRatio="xMinYMin meet" x="13.5" y="-202.7"/>
<text text-anchor="start" x="28.5" y="-192.8" font-family="Helvetica,sans-Serif" font-size="11.00" fill="#000000">ID</text>
<polygon fill="none" stroke="#000000" points="8.5,-163.7 8.5,-185.7 309.5,-185.7 309.5,-163.7 8.5,-163.7"/>
<image xlink:href="../../images/foreignKeys.png" width="11px" height="12px" preserveAspectRatio="xMinYMin meet" x="13.5" y="-180.7"/>
<text text-anchor="start" x="28.5" y="-170.8" font-family="Helvetica,sans-Serif" font-size="11.00" fill="#000000">TARGET_ID</text>
<polygon fill="none" stroke="#000000" points="8.5,-141.7 8.5,-163.7 309.5,-163.7 309.5,-141.7 8.5,-141.7"/>
<image xlink:href="../../images/foreignKeys.png" width="11px" height="12px" preserveAspectRatio="xMinYMin meet" x="13.5" y="-158.7"/>
<text text-anchor="start" x="28.5" y="-148.8" font-family="Helvetica,sans-Serif" font-size="11.00" fill="#000000">SPECIES_ID</text>
<polygon fill="none" stroke="#000000" points="8.5,-119.7 8.5,-141.7 309.5,-141.7 309.5,-119.7 8.5,-119.7"/>
<image xlink:href="../../images/foreignKeys.png" width="11px" height="12px" preserveAspectRatio="xMinYMin meet" x="13.5" y="-136.7"/>
<text text-anchor="start" x="28.5" y="-126.8" font-family="Helvetica,sans-Serif" font-size="11.00" fill="#000000">POST_TRANSLATIONAL_MODIFICATION_ID</text>
<polygon fill="none" stroke="#000000" points="8.5,-97.7 8.5,-119.7 309.5,-119.7 309.5,-97.7 8.5,-97.7"/>
<image xlink:href="../../images/foreignKeys.png" width="11px" height="12px" preserveAspectRatio="xMinYMin meet" x="13.5" y="-114.7"/>
<text text-anchor="start" x="28.5" y="-104.8" font-family="Helvetica,sans-Serif" font-size="11.00" fill="#000000">ISOFORM_ID</text>
<polygon fill="none" stroke="#000000" points="8.5,-75.7 8.5,-97.7 309.5,-97.7 309.5,-75.7 8.5,-75.7"/>
<image xlink:href="../../images/foreignKeys.png" width="11px" height="12px" preserveAspectRatio="xMinYMin meet" x="13.5" y="-92.7"/>
<text text-anchor="start" x="28.5" y="-82.8" font-family="Helvetica,sans-Serif" font-size="11.00" fill="#000000">EXPRESSION_SYSTEM_ID</text>
<polygon fill="none" stroke="#000000" points="8.5,-56.7 8.5,-75.7 309.5,-75.7 309.5,-56.7 8.5,-56.7"/>
<text text-anchor="start" x="11.5" y="-62.8" font-family="Helvetica,sans-Serif" font-size="11.00" fill="#000000">...</text>
<polygon fill="#ffffff" stroke="transparent" points="8.5,-37.7 8.5,-56.7 130.5,-56.7 130.5,-37.7 8.5,-37.7"/>
<polygon fill="none" stroke="#000000" points="8.5,-37.7 8.5,-56.7 130.5,-56.7 130.5,-37.7 8.5,-37.7"/>
<text text-anchor="start" x="11.5" y="-43.8" font-family="Helvetica,sans-Serif" font-size="11.00" fill="#000000">&lt; 5</text>
<polygon fill="#ffffff" stroke="transparent" points="130.5,-37.7 130.5,-56.7 231.5,-56.7 231.5,-37.7 130.5,-37.7"/>
<polygon fill="none" stroke="#000000" points="130.5,-37.7 130.5,-56.7 231.5,-56.7 231.5,-37.7 130.5,-37.7"/>
<text text-anchor="start" x="183.8807" y="-43.8" font-family="Helvetica,sans-Serif" font-size="11.00" fill="#000000">541 rows</text>
<polygon fill="#ffffff" stroke="transparent" points="231.5,-37.7 231.5,-56.7 309.5,-56.7 309.5,-37.7 231.5,-37.7"/>
<polygon fill="none" stroke="#000000" points="231.5,-37.7 231.5,-56.7 309.5,-56.7 309.5,-37.7 231.5,-37.7"/>
<text text-anchor="start" x="284.7904" y="-43.8" font-family="Helvetica,sans-Serif" font-size="11.00" fill="#000000">18 &gt;</text>
</a>
</g>
</g>
<!-- IN_HOUSE_ASSAYS&#45;&gt;TARGET_FORMS -->
<g id="edge3" class="edge">
<title>IN_HOUSE_ASSAYS:w&#45;&gt;TARGET_FORMS:e</title>
<path fill="none" stroke="#000000" d="M345.8871,-338.8036C305.1135,-318.3673 372.0099,-196.7 309.5,-196.7"/>
<polygon fill="#000000" stroke="#000000" points="352.1633,-340.0916 359.2762,-345.2265 356.0817,-340.8958 360,-341.7 360,-341.7 360,-341.7 356.0817,-340.8958 360.7238,-338.1735 352.1633,-340.0916 352.1633,-340.0916"/>
<ellipse fill="none" stroke="#000000" cx="349.0287" cy="-339.4483" rx="3.2" ry="3.2"/>
</g>
<!-- TRACER_LIGANDS -->
<g id="node5" class="node">
<title>TRACER_LIGANDS</title>
<g id="a_node5"><a xlink:href="../../tables/TRACER_LIGANDS.html" xlink:title="TRACER_LIGANDS" target="_top">
<polygon fill="#ffffff" stroke="transparent" points="33,-252.2 33,-401.2 284,-401.2 284,-252.2 33,-252.2"/>
<polygon fill="#f5f5f5" stroke="transparent" points="33.5,-377.7 33.5,-400.7 284.5,-400.7 284.5,-377.7 33.5,-377.7"/>
<polygon fill="none" stroke="#000000" points="33.5,-377.7 33.5,-400.7 284.5,-400.7 284.5,-377.7 33.5,-377.7"/>
<text text-anchor="start" x="38.5" y="-386.8" font-family="Helvetica,sans-Serif" font-weight="bold" font-size="11.00" fill="#000000">TRACER_LIGANDS</text>
<text text-anchor="start" x="249.5437" y="-385.8" font-family="Helvetica,sans-Serif" font-size="11.00" fill="#000000">[table]</text>
<polygon fill="none" stroke="#000000" points="33.5,-355.7 33.5,-377.7 284.5,-377.7 284.5,-355.7 33.5,-355.7"/>
<image xlink:href="../../images/primaryKeys.png" width="11px" height="12px" preserveAspectRatio="xMinYMin meet" x="38.5" y="-372.7"/>
<text text-anchor="start" x="53.5" y="-362.8" font-family="Helvetica,sans-Serif" font-size="11.00" fill="#000000">ID</text>
<polygon fill="none" stroke="#000000" points="33.5,-333.7 33.5,-355.7 284.5,-355.7 284.5,-333.7 33.5,-333.7"/>
<image xlink:href="../../images/foreignKeys.png" width="11px" height="12px" preserveAspectRatio="xMinYMin meet" x="38.5" y="-350.7"/>
<text text-anchor="start" x="53.5" y="-340.8" font-family="Helvetica,sans-Serif" font-size="11.00" fill="#000000">TYPE_ID</text>
<polygon fill="none" stroke="#000000" points="33.5,-311.7 33.5,-333.7 284.5,-333.7 284.5,-311.7 33.5,-311.7"/>
<image xlink:href="../../images/foreignKeys.png" width="11px" height="12px" preserveAspectRatio="xMinYMin meet" x="38.5" y="-328.7"/>
<text text-anchor="start" x="53.5" y="-318.8" font-family="Helvetica,sans-Serif" font-size="11.00" fill="#000000">TRACER_SYNTHESIS_SCIENTIST_ID</text>
<polygon fill="none" stroke="#000000" points="33.5,-289.7 33.5,-311.7 284.5,-311.7 284.5,-289.7 33.5,-289.7"/>
<image xlink:href="../../images/foreignKeys.png" width="11px" height="12px" preserveAspectRatio="xMinYMin meet" x="38.5" y="-306.7"/>
<text text-anchor="start" x="53.5" y="-296.8" font-family="Helvetica,sans-Serif" font-size="11.00" fill="#000000">DNA_ATTACHMENT_SITE_ID</text>
<polygon fill="none" stroke="#000000" points="33.5,-270.7 33.5,-289.7 284.5,-289.7 284.5,-270.7 33.5,-270.7"/>
<text text-anchor="start" x="36.5" y="-276.8" font-family="Helvetica,sans-Serif" font-size="11.00" fill="#000000">...</text>
<polygon fill="#ffffff" stroke="transparent" points="33.5,-251.7 33.5,-270.7 133.5,-270.7 133.5,-251.7 33.5,-251.7"/>
<polygon fill="none" stroke="#000000" points="33.5,-251.7 33.5,-270.7 133.5,-270.7 133.5,-251.7 33.5,-251.7"/>
<text text-anchor="start" x="36.5" y="-257.8" font-family="Helvetica,sans-Serif" font-size="11.00" fill="#000000">&lt; 3</text>
<polygon fill="#ffffff" stroke="transparent" points="133.5,-251.7 133.5,-270.7 223.5,-270.7 223.5,-251.7 133.5,-251.7"/>
<polygon fill="none" stroke="#000000" points="133.5,-251.7 133.5,-270.7 223.5,-270.7 223.5,-251.7 133.5,-251.7"/>
<text text-anchor="start" x="175.8807" y="-257.8" font-family="Helvetica,sans-Serif" font-size="11.00" fill="#000000">416 rows</text>
<polygon fill="#ffffff" stroke="transparent" points="223.5,-251.7 223.5,-270.7 284.5,-270.7 284.5,-251.7 223.5,-251.7"/>
<polygon fill="none" stroke="#000000" points="223.5,-251.7 223.5,-270.7 284.5,-270.7 284.5,-251.7 223.5,-251.7"/>
<text text-anchor="start" x="265.9053" y="-257.8" font-family="Helvetica,sans-Serif" font-size="11.00" fill="#000000">7 &gt;</text>
</a>
</g>
</g>
<!-- IN_HOUSE_ASSAYS&#45;&gt;TRACER_LIGANDS -->
<g id="edge4" class="edge">
<title>IN_HOUSE_ASSAYS:w&#45;&gt;TRACER_LIGANDS:e</title>
<path fill="none" stroke="#000000" d="M345.6551,-405.3782C321.2511,-396.7049 317.1653,-366.7 284.5,-366.7"/>
<polygon fill="#000000" stroke="#000000" points="352.1028,-406.4217 359.4248,-411.2538 356.0514,-407.0609 360,-407.7 360,-407.7 360,-407.7 356.0514,-407.0609 360.5752,-404.1462 352.1028,-406.4217 352.1028,-406.4217"/>
<ellipse fill="none" stroke="#000000" cx="348.9439" cy="-405.9104" rx="3.2" ry="3.2"/>
</g>
<!-- IN_HOUSE_ASSAYS_REFERENCES -->
<g id="node6" class="node">
<title>IN_HOUSE_ASSAYS_REFERENCES</title>
<g id="a_node6"><a xlink:href="../../tables/IN_HOUSE_ASSAYS_REFERENCES.html" xlink:title="IN_HOUSE_ASSAYS_REFERENCES" target="_top">
<polygon fill="#ffffff" stroke="transparent" points="775,-491.2 775,-618.2 1015,-618.2 1015,-491.2 775,-491.2"/>
<polygon fill="#f5f5f5" stroke="transparent" points="775,-594.7 775,-617.7 1015,-617.7 1015,-594.7 775,-594.7"/>
<polygon fill="none" stroke="#000000" points="775,-594.7 775,-617.7 1015,-617.7 1015,-594.7 775,-594.7"/>
<text text-anchor="start" x="780" y="-603.8" font-family="Helvetica,sans-Serif" font-weight="bold" font-size="11.00" fill="#000000">IN_HOUSE_ASSAYS_REFERENCES</text>
<text text-anchor="start" x="980.0437" y="-602.8" font-family="Helvetica,sans-Serif" font-size="11.00" fill="#000000">[table]</text>
<polygon fill="none" stroke="#000000" points="775,-572.7 775,-594.7 1015,-594.7 1015,-572.7 775,-572.7"/>
<image xlink:href="../../images/primaryKeys.png" width="11px" height="12px" preserveAspectRatio="xMinYMin meet" x="780" y="-589.7"/>
<text text-anchor="start" x="795" y="-579.8" font-family="Helvetica,sans-Serif" font-size="11.00" fill="#000000">ID</text>
<polygon fill="none" stroke="#000000" points="775,-550.7 775,-572.7 1015,-572.7 1015,-550.7 775,-550.7"/>
<image xlink:href="../../images/foreignKeys.png" width="11px" height="12px" preserveAspectRatio="xMinYMin meet" x="780" y="-567.7"/>
<text text-anchor="start" x="795" y="-557.8" font-family="Helvetica,sans-Serif" font-size="11.00" fill="#000000">IN_HOUSE_ASSAY_ID</text>
<polygon fill="none" stroke="#000000" points="775,-528.7 775,-550.7 1015,-550.7 1015,-528.7 775,-528.7"/>
<image xlink:href="../../images/foreignKeys.png" width="11px" height="12px" preserveAspectRatio="xMinYMin meet" x="780" y="-545.7"/>
<text text-anchor="start" x="795" y="-535.8" font-family="Helvetica,sans-Serif" font-size="11.00" fill="#000000">REFERENCE_ID</text>
<polygon fill="none" stroke="#000000" points="775,-509.7 775,-528.7 1015,-528.7 1015,-509.7 775,-509.7"/>
<text text-anchor="start" x="778" y="-515.8" font-family="Helvetica,sans-Serif" font-size="11.00" fill="#000000">...</text>
<polygon fill="#ffffff" stroke="transparent" points="775,-490.7 775,-509.7 877,-509.7 877,-490.7 775,-490.7"/>
<polygon fill="none" stroke="#000000" points="775,-490.7 775,-509.7 877,-509.7 877,-490.7 775,-490.7"/>
<text text-anchor="start" x="778" y="-496.8" font-family="Helvetica,sans-Serif" font-size="11.00" fill="#000000">&lt; 2</text>
<polygon fill="#ffffff" stroke="transparent" points="877,-490.7 877,-509.7 962,-509.7 962,-490.7 877,-490.7"/>
<polygon fill="none" stroke="#000000" points="877,-490.7 877,-509.7 962,-509.7 962,-490.7 877,-490.7"/>
<text text-anchor="start" x="920.4956" y="-496.8" font-family="Helvetica,sans-Serif" font-size="11.00" fill="#000000">51 rows</text>
<polygon fill="#ffffff" stroke="transparent" points="962,-490.7 962,-509.7 1015,-509.7 1015,-490.7 962,-490.7"/>
<polygon fill="none" stroke="#000000" points="962,-490.7 962,-509.7 1015,-509.7 1015,-490.7 962,-490.7"/>
<text text-anchor="start" x="1005.8862" y="-496.8" font-family="Helvetica,sans-Serif" font-size="11.00" fill="#000000"> &#160;</text>
</a>
</g>
</g>
<!-- IN_HOUSE_ASSAYS_REFERENCES&#45;&gt;IN_HOUSE_ASSAYS -->
<g id="edge5" class="edge">
<title>IN_HOUSE_ASSAYS_REFERENCES:w&#45;&gt;IN_HOUSE_ASSAYS:e</title>
<path fill="none" stroke="#000000" d="M760.276,-561.7C748.2815,-561.7 740.8229,-561.7 724,-561.7"/>
<polygon fill="#000000" stroke="#000000" points="767,-561.7001 775,-565.3 771,-561.7 775,-561.7 775,-561.7 775,-561.7 771,-561.7 775,-558.1 767,-561.7001 767,-561.7001"/>
<ellipse fill="none" stroke="#000000" cx="763.8" cy="-561.7001" rx="3.2" ry="3.2"/>
</g>
</g>
</svg>
