<?xml version="1.0" encoding="UTF-8" standalone="no"?>
<!DOCTYPE svg PUBLIC "-//W3C//DTD SVG 1.1//EN"
 "http://www.w3.org/Graphics/SVG/1.1/DTD/svg11.dtd">
<!-- Generated by graphviz version 2.40.1 (20161225.0304)
 -->
<!-- Title: oneDegreeRelationshipsDiagram Pages: 1 -->
<svg width="888pt" height="769pt"
 viewBox="0.00 0.00 888.00 769.20" xmlns="http://www.w3.org/2000/svg" xmlns:xlink="http://www.w3.org/1999/xlink">
<g id="graph0" class="graph" transform="scale(1 1) rotate(0) translate(4 765.2)">
<title>oneDegreeRelationshipsDiagram</title>
<polygon fill="#ffffff" stroke="transparent" points="-4,4 -4,-765.2 884,-765.2 884,4 -4,4"/>
<text text-anchor="middle" x="72.4936" y="-7.3" font-family="Helvetica,sans-Serif" font-size="11.00" fill="#000000">Generated by SchemaSpy</text>
<!-- CLONE_FORMS_ISOFORM_DOMAINS -->
<g id="node1" class="node">
<title>CLONE_FORMS_ISOFORM_DOMAINS</title>
<g id="a_node1"><a xlink:href="../../tables/CLONE_FORMS_ISOFORM_DOMAINS.html" xlink:title="CLONE_FORMS_ISOFORM_DOMAINS" target="_top">
<polygon fill="#ffffff" stroke="transparent" points="603,-630.2 603,-757.2 862,-757.2 862,-630.2 603,-630.2"/>
<polygon fill="#f5f5f5" stroke="transparent" points="603.5,-733.7 603.5,-756.7 862.5,-756.7 862.5,-733.7 603.5,-733.7"/>
<polygon fill="none" stroke="#000000" points="603.5,-733.7 603.5,-756.7 862.5,-756.7 862.5,-733.7 603.5,-733.7"/>
<text text-anchor="start" x="608.5" y="-742.8" font-family="Helvetica,sans-Serif" font-weight="bold" font-size="11.00" fill="#000000">CLONE_FORMS_ISOFORM_DOMAINS</text>
<text text-anchor="start" x="827.5437" y="-741.8" font-family="Helvetica,sans-Serif" font-size="11.00" fill="#000000">[table]</text>
<polygon fill="none" stroke="#000000" points="603.5,-711.7 603.5,-733.7 862.5,-733.7 862.5,-711.7 603.5,-711.7"/>
<image xlink:href="../../images/primaryKeys.png" width="11px" height="12px" preserveAspectRatio="xMinYMin meet" x="608.5" y="-728.7"/>
<text text-anchor="start" x="623.5" y="-718.8" font-family="Helvetica,sans-Serif" font-size="11.00" fill="#000000">ID</text>
<polygon fill="none" stroke="#000000" points="603.5,-689.7 603.5,-711.7 862.5,-711.7 862.5,-689.7 603.5,-689.7"/>
<image xlink:href="../../images/primaryKeys.png" width="11px" height="12px" preserveAspectRatio="xMinYMin meet" x="608.5" y="-706.7"/>
<text text-anchor="start" x="623.5" y="-696.8" font-family="Helvetica,sans-Serif" font-size="11.00" fill="#000000">CLONE_FORM_ID</text>
<polygon fill="none" stroke="#000000" points="603.5,-667.7 603.5,-689.7 862.5,-689.7 862.5,-667.7 603.5,-667.7"/>
<image xlink:href="../../images/primaryKeys.png" width="11px" height="12px" preserveAspectRatio="xMinYMin meet" x="608.5" y="-684.7"/>
<text text-anchor="start" x="623.5" y="-674.8" font-family="Helvetica,sans-Serif" font-size="11.00" fill="#000000">ISOFORM_DOMAIN_ID</text>
<polygon fill="none" stroke="#000000" points="603.5,-648.7 603.5,-667.7 862.5,-667.7 862.5,-648.7 603.5,-648.7"/>
<text text-anchor="start" x="606.5" y="-654.8" font-family="Helvetica,sans-Serif" font-size="11.00" fill="#000000">...</text>
<polygon fill="#ffffff" stroke="transparent" points="603.5,-629.7 603.5,-648.7 712.5,-648.7 712.5,-629.7 603.5,-629.7"/>
<polygon fill="none" stroke="#000000" points="603.5,-629.7 603.5,-648.7 712.5,-648.7 712.5,-629.7 603.5,-629.7"/>
<text text-anchor="start" x="606.5" y="-635.8" font-family="Helvetica,sans-Serif" font-size="11.00" fill="#000000">&lt; 2</text>
<polygon fill="#ffffff" stroke="transparent" points="712.5,-629.7 712.5,-648.7 806.5,-648.7 806.5,-629.7 712.5,-629.7"/>
<polygon fill="none" stroke="#000000" points="712.5,-629.7 712.5,-648.7 806.5,-648.7 806.5,-629.7 712.5,-629.7"/>
<text text-anchor="start" x="758.8807" y="-635.8" font-family="Helvetica,sans-Serif" font-size="11.00" fill="#000000">311 rows</text>
<polygon fill="#ffffff" stroke="transparent" points="806.5,-629.7 806.5,-648.7 862.5,-648.7 862.5,-629.7 806.5,-629.7"/>
<polygon fill="none" stroke="#000000" points="806.5,-629.7 806.5,-648.7 862.5,-648.7 862.5,-629.7 806.5,-629.7"/>
<text text-anchor="start" x="853.3862" y="-635.8" font-family="Helvetica,sans-Serif" font-size="11.00" fill="#000000"> &#160;</text>
</a>
</g>
</g>
<!-- ISOFORM_DOMAINS -->
<g id="node2" class="node">
<title>ISOFORM_DOMAINS</title>
<g id="a_node2"><a xlink:href="../../tables/ISOFORM_DOMAINS.html" xlink:title="ISOFORM_DOMAINS" target="_top">
<polygon fill="#ffffff" stroke="transparent" points="215,-152.7 215,-418.7 544,-418.7 544,-152.7 215,-152.7"/>
<polygon fill="#f5f5f5" stroke="transparent" points="217.5,-393.7 217.5,-416.7 542.5,-416.7 542.5,-393.7 217.5,-393.7"/>
<polygon fill="none" stroke="#000000" points="217.5,-393.7 217.5,-416.7 542.5,-416.7 542.5,-393.7 217.5,-393.7"/>
<text text-anchor="start" x="222.5" y="-402.8" font-family="Helvetica,sans-Serif" font-weight="bold" font-size="11.00" fill="#000000">ISOFORM_DOMAINS</text>
<text text-anchor="start" x="507.5437" y="-401.8" font-family="Helvetica,sans-Serif" font-size="11.00" fill="#000000">[table]</text>
<polygon fill="none" stroke="#000000" points="217.5,-371.7 217.5,-393.7 371.5,-393.7 371.5,-371.7 217.5,-371.7"/>
<image xlink:href="../../images/primaryKeys.png" width="11px" height="12px" preserveAspectRatio="xMinYMin meet" x="222.5" y="-388.7"/>
<text text-anchor="start" x="237.5" y="-378.8" font-family="Helvetica,sans-Serif" font-size="11.00" fill="#000000">ID</text>
<polygon fill="none" stroke="#000000" points="371.5,-371.7 371.5,-393.7 542.5,-393.7 542.5,-371.7 371.5,-371.7"/>
<text text-anchor="start" x="374.5" y="-379.4" font-family="Helvetica,sans-Serif" font-size="11.00" fill="#000000">number[19]</text>
<polygon fill="none" stroke="#000000" points="217.5,-349.7 217.5,-371.7 371.5,-371.7 371.5,-349.7 217.5,-349.7"/>
<text text-anchor="start" x="237.5" y="-356.8" font-family="Helvetica,sans-Serif" font-size="11.00" fill="#000000">CREATED_AT</text>
<polygon fill="none" stroke="#000000" points="371.5,-349.7 371.5,-371.7 542.5,-371.7 542.5,-349.7 371.5,-349.7"/>
<text text-anchor="start" x="374.4896" y="-357.4" font-family="Helvetica,sans-Serif" font-size="11.00" fill="#000000">timestamp(6) with time zone[13,6]</text>
<polygon fill="none" stroke="#000000" points="217.5,-327.7 217.5,-349.7 371.5,-349.7 371.5,-327.7 217.5,-327.7"/>
<text text-anchor="start" x="237.5" y="-334.8" font-family="Helvetica,sans-Serif" font-size="11.00" fill="#000000">CREATED_BY</text>
<polygon fill="none" stroke="#000000" points="371.5,-327.7 371.5,-349.7 542.5,-349.7 542.5,-327.7 371.5,-327.7"/>
<text text-anchor="start" x="374.5" y="-335.4" font-family="Helvetica,sans-Serif" font-size="11.00" fill="#000000">number[19]</text>
<polygon fill="none" stroke="#000000" points="217.5,-305.7 217.5,-327.7 371.5,-327.7 371.5,-305.7 217.5,-305.7"/>
<text text-anchor="start" x="237.5" y="-312.8" font-family="Helvetica,sans-Serif" font-size="11.00" fill="#000000">UPDATED_AT</text>
<polygon fill="none" stroke="#000000" points="371.5,-305.7 371.5,-327.7 542.5,-327.7 542.5,-305.7 371.5,-305.7"/>
<text text-anchor="start" x="374.4896" y="-313.4" font-family="Helvetica,sans-Serif" font-size="11.00" fill="#000000">timestamp(6) with time zone[13,6]</text>
<polygon fill="none" stroke="#000000" points="217.5,-283.7 217.5,-305.7 371.5,-305.7 371.5,-283.7 217.5,-283.7"/>
<text text-anchor="start" x="237.5" y="-290.8" font-family="Helvetica,sans-Serif" font-size="11.00" fill="#000000">UPDATED_BY</text>
<polygon fill="none" stroke="#000000" points="371.5,-283.7 371.5,-305.7 542.5,-305.7 542.5,-283.7 371.5,-283.7"/>
<text text-anchor="start" x="374.5" y="-291.4" font-family="Helvetica,sans-Serif" font-size="11.00" fill="#000000">number[19]</text>
<polygon fill="none" stroke="#000000" points="217.5,-261.7 217.5,-283.7 371.5,-283.7 371.5,-261.7 217.5,-261.7"/>
<text text-anchor="start" x="237.5" y="-268.8" font-family="Helvetica,sans-Serif" font-size="11.00" fill="#000000">START_RANGE</text>
<polygon fill="none" stroke="#000000" points="371.5,-261.7 371.5,-283.7 542.5,-283.7 542.5,-261.7 371.5,-261.7"/>
<text text-anchor="start" x="374.5" y="-269.4" font-family="Helvetica,sans-Serif" font-size="11.00" fill="#000000">number[19]</text>
<polygon fill="none" stroke="#000000" points="217.5,-239.7 217.5,-261.7 371.5,-261.7 371.5,-239.7 217.5,-239.7"/>
<text text-anchor="start" x="237.5" y="-246.8" font-family="Helvetica,sans-Serif" font-size="11.00" fill="#000000">END_RANGE</text>
<polygon fill="none" stroke="#000000" points="371.5,-239.7 371.5,-261.7 542.5,-261.7 542.5,-239.7 371.5,-239.7"/>
<text text-anchor="start" x="374.5" y="-247.4" font-family="Helvetica,sans-Serif" font-size="11.00" fill="#000000">number[19]</text>
<polygon fill="none" stroke="#000000" points="217.5,-217.7 217.5,-239.7 371.5,-239.7 371.5,-217.7 217.5,-217.7"/>
<text text-anchor="start" x="237.5" y="-224.8" font-family="Helvetica,sans-Serif" font-size="11.00" fill="#000000">COLOR</text>
<polygon fill="none" stroke="#000000" points="371.5,-217.7 371.5,-239.7 542.5,-239.7 542.5,-217.7 371.5,-217.7"/>
<text text-anchor="start" x="374.5" y="-225.4" font-family="Helvetica,sans-Serif" font-size="11.00" fill="#000000">varchar2[255]</text>
<polygon fill="none" stroke="#000000" points="217.5,-195.7 217.5,-217.7 371.5,-217.7 371.5,-195.7 217.5,-195.7"/>
<text text-anchor="start" x="237.5" y="-202.8" font-family="Helvetica,sans-Serif" font-size="11.00" fill="#000000">TITLE</text>
<polygon fill="none" stroke="#000000" points="371.5,-195.7 371.5,-217.7 542.5,-217.7 542.5,-195.7 371.5,-195.7"/>
<text text-anchor="start" x="374.5" y="-203.4" font-family="Helvetica,sans-Serif" font-size="11.00" fill="#000000">varchar2[255]</text>
<polygon fill="none" stroke="#000000" points="217.5,-173.7 217.5,-195.7 371.5,-195.7 371.5,-173.7 217.5,-173.7"/>
<image xlink:href="../../images/foreignKeys.png" width="11px" height="12px" preserveAspectRatio="xMinYMin meet" x="222.5" y="-190.7"/>
<text text-anchor="start" x="237.5" y="-180.8" font-family="Helvetica,sans-Serif" font-size="11.00" fill="#000000">ISOFORM_ID</text>
<polygon fill="none" stroke="#000000" points="371.5,-173.7 371.5,-195.7 542.5,-195.7 542.5,-173.7 371.5,-173.7"/>
<text text-anchor="start" x="374.5" y="-181.4" font-family="Helvetica,sans-Serif" font-size="11.00" fill="#000000">number[19]</text>
<polygon fill="#ffffff" stroke="transparent" points="217.5,-154.7 217.5,-173.7 279.5,-173.7 279.5,-154.7 217.5,-154.7"/>
<polygon fill="none" stroke="#000000" points="217.5,-154.7 217.5,-173.7 279.5,-173.7 279.5,-154.7 217.5,-154.7"/>
<text text-anchor="start" x="220.5" y="-160.8" font-family="Helvetica,sans-Serif" font-size="11.00" fill="#000000">&lt; 1</text>
<polygon fill="#ffffff" stroke="transparent" points="279.5,-154.7 279.5,-173.7 371.5,-173.7 371.5,-154.7 279.5,-154.7"/>
<polygon fill="none" stroke="#000000" points="279.5,-154.7 279.5,-173.7 371.5,-173.7 371.5,-154.7 279.5,-154.7"/>
<text text-anchor="start" x="323.8807" y="-160.8" font-family="Helvetica,sans-Serif" font-size="11.00" fill="#000000">727 rows</text>
<polygon fill="#ffffff" stroke="transparent" points="371.5,-154.7 371.5,-173.7 542.5,-173.7 542.5,-154.7 371.5,-154.7"/>
<polygon fill="none" stroke="#000000" points="371.5,-154.7 371.5,-173.7 542.5,-173.7 542.5,-154.7 371.5,-154.7"/>
<text text-anchor="start" x="523.9053" y="-160.8" font-family="Helvetica,sans-Serif" font-size="11.00" fill="#000000">5 &gt;</text>
<polygon fill="none" stroke="#000000" stroke-width="2" points="216,-153.7 216,-417.7 543,-417.7 543,-153.7 216,-153.7"/>
</a>
</g>
</g>
<!-- CLONE_FORMS_ISOFORM_DOMAINS&#45;&gt;ISOFORM_DOMAINS -->
<g id="edge1" class="edge">
<title>CLONE_FORMS_ISOFORM_DOMAINS:w&#45;&gt;ISOFORM_DOMAINS:e</title>
<path fill="none" stroke="#000000" d="M589.9241,-673.3097C547.1818,-633.1919 604.282,-382.7 542.5,-382.7"/>
<polygon fill="#000000" stroke="#000000" points="596.0646,-675.7478 602.1715,-682.0459 599.7823,-677.2239 603.5,-678.7 603.5,-678.7 603.5,-678.7 599.7823,-677.2239 604.8285,-675.3541 596.0646,-675.7478 596.0646,-675.7478"/>
<ellipse fill="none" stroke="#000000" cx="593.0905" cy="-674.5669" rx="3.2" ry="3.2"/>
</g>
<!-- ISOFORMS -->
<g id="node3" class="node">
<title>ISOFORMS</title>
<g id="a_node3"><a xlink:href="../../tables/ISOFORMS.html" xlink:title="ISOFORMS" target="_top">
<polygon fill="#ffffff" stroke="transparent" points="8,-114.2 8,-219.2 166,-219.2 166,-114.2 8,-114.2"/>
<polygon fill="#f5f5f5" stroke="transparent" points="8,-195.7 8,-218.7 166,-218.7 166,-195.7 8,-195.7"/>
<polygon fill="none" stroke="#000000" points="8,-195.7 8,-218.7 166,-218.7 166,-195.7 8,-195.7"/>
<text text-anchor="start" x="13" y="-204.8" font-family="Helvetica,sans-Serif" font-weight="bold" font-size="11.00" fill="#000000">ISOFORMS</text>
<text text-anchor="start" x="131.0437" y="-203.8" font-family="Helvetica,sans-Serif" font-size="11.00" fill="#000000">[table]</text>
<polygon fill="none" stroke="#000000" points="8,-173.7 8,-195.7 166,-195.7 166,-173.7 8,-173.7"/>
<image xlink:href="../../images/primaryKeys.png" width="11px" height="12px" preserveAspectRatio="xMinYMin meet" x="13" y="-190.7"/>
<text text-anchor="start" x="28" y="-180.8" font-family="Helvetica,sans-Serif" font-size="11.00" fill="#000000">ID</text>
<polygon fill="none" stroke="#000000" points="8,-151.7 8,-173.7 166,-173.7 166,-151.7 8,-151.7"/>
<image xlink:href="../../images/foreignKeys.png" width="11px" height="12px" preserveAspectRatio="xMinYMin meet" x="13" y="-168.7"/>
<text text-anchor="start" x="28" y="-158.8" font-family="Helvetica,sans-Serif" font-size="11.00" fill="#000000">TARGET_ID</text>
<polygon fill="none" stroke="#000000" points="8,-132.7 8,-151.7 166,-151.7 166,-132.7 8,-132.7"/>
<text text-anchor="start" x="11" y="-138.8" font-family="Helvetica,sans-Serif" font-size="11.00" fill="#000000">...</text>
<polygon fill="#ffffff" stroke="transparent" points="8,-113.7 8,-132.7 59,-132.7 59,-113.7 8,-113.7"/>
<polygon fill="none" stroke="#000000" points="8,-113.7 8,-132.7 59,-132.7 59,-113.7 8,-113.7"/>
<text text-anchor="start" x="11" y="-119.8" font-family="Helvetica,sans-Serif" font-size="11.00" fill="#000000">&lt; 1</text>
<polygon fill="#ffffff" stroke="transparent" points="59,-113.7 59,-132.7 124,-132.7 124,-113.7 59,-113.7"/>
<polygon fill="none" stroke="#000000" points="59,-113.7 59,-132.7 124,-132.7 124,-113.7 59,-113.7"/>
<text text-anchor="start" x="76.3807" y="-119.8" font-family="Helvetica,sans-Serif" font-size="11.00" fill="#000000">519 rows</text>
<polygon fill="#ffffff" stroke="transparent" points="124,-113.7 124,-132.7 166,-132.7 166,-113.7 124,-113.7"/>
<polygon fill="none" stroke="#000000" points="124,-113.7 124,-132.7 166,-132.7 166,-113.7 124,-113.7"/>
<text text-anchor="start" x="141.2904" y="-119.8" font-family="Helvetica,sans-Serif" font-size="11.00" fill="#000000">10 &gt;</text>
</a>
</g>
</g>
<!-- ISOFORM_DOMAINS&#45;&gt;ISOFORMS -->
<g id="edge2" class="edge">
<title>ISOFORM_DOMAINS:w&#45;&gt;ISOFORMS:e</title>
<path fill="none" stroke="#000000" d="M203.0156,-184.7C190.6771,-184.7 183.1667,-184.7 166,-184.7"/>
<polygon fill="#000000" stroke="#000000" points="209.5,-184.7001 217.5,-188.3 213.5,-184.7 217.5,-184.7 217.5,-184.7 217.5,-184.7 213.5,-184.7 217.5,-181.1 209.5,-184.7001 209.5,-184.7001"/>
<ellipse fill="none" stroke="#000000" cx="206.3" cy="-184.7001" rx="3.2" ry="3.2"/>
</g>
<!-- ISOFORM_DOMAINS_REFERENCES -->
<g id="node4" class="node">
<title>ISOFORM_DOMAINS_REFERENCES</title>
<g id="a_node4"><a xlink:href="../../tables/ISOFORM_DOMAINS_REFERENCES.html" xlink:title="ISOFORM_DOMAINS_REFERENCES" target="_top">
<polygon fill="#ffffff" stroke="transparent" points="609,-482.2 609,-609.2 856,-609.2 856,-482.2 609,-482.2"/>
<polygon fill="#f5f5f5" stroke="transparent" points="609.5,-585.7 609.5,-608.7 856.5,-608.7 856.5,-585.7 609.5,-585.7"/>
<polygon fill="none" stroke="#000000" points="609.5,-585.7 609.5,-608.7 856.5,-608.7 856.5,-585.7 609.5,-585.7"/>
<text text-anchor="start" x="614.5" y="-594.8" font-family="Helvetica,sans-Serif" font-weight="bold" font-size="11.00" fill="#000000">ISOFORM_DOMAINS_REFERENCES</text>
<text text-anchor="start" x="821.5437" y="-593.8" font-family="Helvetica,sans-Serif" font-size="11.00" fill="#000000">[table]</text>
<polygon fill="none" stroke="#000000" points="609.5,-563.7 609.5,-585.7 856.5,-585.7 856.5,-563.7 609.5,-563.7"/>
<image xlink:href="../../images/primaryKeys.png" width="11px" height="12px" preserveAspectRatio="xMinYMin meet" x="614.5" y="-580.7"/>
<text text-anchor="start" x="629.5" y="-570.8" font-family="Helvetica,sans-Serif" font-size="11.00" fill="#000000">ID</text>
<polygon fill="none" stroke="#000000" points="609.5,-541.7 609.5,-563.7 856.5,-563.7 856.5,-541.7 609.5,-541.7"/>
<image xlink:href="../../images/foreignKeys.png" width="11px" height="12px" preserveAspectRatio="xMinYMin meet" x="614.5" y="-558.7"/>
<text text-anchor="start" x="629.5" y="-548.8" font-family="Helvetica,sans-Serif" font-size="11.00" fill="#000000">ISOFORM_DOMAIN_ID</text>
<polygon fill="none" stroke="#000000" points="609.5,-519.7 609.5,-541.7 856.5,-541.7 856.5,-519.7 609.5,-519.7"/>
<image xlink:href="../../images/foreignKeys.png" width="11px" height="12px" preserveAspectRatio="xMinYMin meet" x="614.5" y="-536.7"/>
<text text-anchor="start" x="629.5" y="-526.8" font-family="Helvetica,sans-Serif" font-size="11.00" fill="#000000">REFERENCE_ID</text>
<polygon fill="none" stroke="#000000" points="609.5,-500.7 609.5,-519.7 856.5,-519.7 856.5,-500.7 609.5,-500.7"/>
<text text-anchor="start" x="612.5" y="-506.8" font-family="Helvetica,sans-Serif" font-size="11.00" fill="#000000">...</text>
<polygon fill="#ffffff" stroke="transparent" points="609.5,-481.7 609.5,-500.7 718.5,-500.7 718.5,-481.7 609.5,-481.7"/>
<polygon fill="none" stroke="#000000" points="609.5,-481.7 609.5,-500.7 718.5,-500.7 718.5,-481.7 609.5,-481.7"/>
<text text-anchor="start" x="612.5" y="-487.8" font-family="Helvetica,sans-Serif" font-size="11.00" fill="#000000">&lt; 2</text>
<polygon fill="#ffffff" stroke="transparent" points="718.5,-481.7 718.5,-500.7 800.5,-500.7 800.5,-481.7 718.5,-481.7"/>
<polygon fill="none" stroke="#000000" points="718.5,-481.7 718.5,-500.7 800.5,-500.7 800.5,-481.7 718.5,-481.7"/>
<text text-anchor="start" x="765.1105" y="-487.8" font-family="Helvetica,sans-Serif" font-size="11.00" fill="#000000">4 rows</text>
<polygon fill="#ffffff" stroke="transparent" points="800.5,-481.7 800.5,-500.7 856.5,-500.7 856.5,-481.7 800.5,-481.7"/>
<polygon fill="none" stroke="#000000" points="800.5,-481.7 800.5,-500.7 856.5,-500.7 856.5,-481.7 800.5,-481.7"/>
<text text-anchor="start" x="847.3862" y="-487.8" font-family="Helvetica,sans-Serif" font-size="11.00" fill="#000000"> &#160;</text>
</a>
</g>
</g>
<!-- ISOFORM_DOMAINS_REFERENCES&#45;&gt;ISOFORM_DOMAINS -->
<g id="edge3" class="edge">
<title>ISOFORM_DOMAINS_REFERENCES:w&#45;&gt;ISOFORM_DOMAINS:e</title>
<path fill="none" stroke="#000000" d="M595.2086,-550.4254C540.509,-530.2522 618.1602,-382.7 542.5,-382.7"/>
<polygon fill="#000000" stroke="#000000" points="601.5994,-551.4425 608.9341,-556.2553 605.5497,-552.0712 609.5,-552.7 609.5,-552.7 609.5,-552.7 605.5497,-552.0712 610.0659,-549.1447 601.5994,-551.4425 601.5994,-551.4425"/>
<ellipse fill="none" stroke="#000000" cx="598.4392" cy="-550.9395" rx="3.2" ry="3.2"/>
</g>
<!-- SUPPLEMENTS_ISOFORM_DOMAINS -->
<g id="node5" class="node">
<title>SUPPLEMENTS_ISOFORM_DOMAINS</title>
<g id="a_node5"><a xlink:href="../../tables/SUPPLEMENTS_ISOFORM_DOMAINS.html" xlink:title="SUPPLEMENTS_ISOFORM_DOMAINS" target="_top">
<polygon fill="#ffffff" stroke="transparent" points="603,-334.2 603,-461.2 862,-461.2 862,-334.2 603,-334.2"/>
<polygon fill="#f5f5f5" stroke="transparent" points="603.5,-437.7 603.5,-460.7 862.5,-460.7 862.5,-437.7 603.5,-437.7"/>
<polygon fill="none" stroke="#000000" points="603.5,-437.7 603.5,-460.7 862.5,-460.7 862.5,-437.7 603.5,-437.7"/>
<text text-anchor="start" x="608.5" y="-446.8" font-family="Helvetica,sans-Serif" font-weight="bold" font-size="11.00" fill="#000000">SUPPLEMENTS_ISOFORM_DOMAINS</text>
<text text-anchor="start" x="827.5437" y="-445.8" font-family="Helvetica,sans-Serif" font-size="11.00" fill="#000000">[table]</text>
<polygon fill="none" stroke="#000000" points="603.5,-415.7 603.5,-437.7 862.5,-437.7 862.5,-415.7 603.5,-415.7"/>
<image xlink:href="../../images/primaryKeys.png" width="11px" height="12px" preserveAspectRatio="xMinYMin meet" x="608.5" y="-432.7"/>
<text text-anchor="start" x="623.5" y="-422.8" font-family="Helvetica,sans-Serif" font-size="11.00" fill="#000000">ID</text>
<polygon fill="none" stroke="#000000" points="603.5,-393.7 603.5,-415.7 862.5,-415.7 862.5,-393.7 603.5,-393.7"/>
<image xlink:href="../../images/foreignKeys.png" width="11px" height="12px" preserveAspectRatio="xMinYMin meet" x="608.5" y="-410.7"/>
<text text-anchor="start" x="623.5" y="-400.8" font-family="Helvetica,sans-Serif" font-size="11.00" fill="#000000">SUPPLEMENT_ID</text>
<polygon fill="none" stroke="#000000" points="603.5,-371.7 603.5,-393.7 862.5,-393.7 862.5,-371.7 603.5,-371.7"/>
<image xlink:href="../../images/foreignKeys.png" width="11px" height="12px" preserveAspectRatio="xMinYMin meet" x="608.5" y="-388.7"/>
<text text-anchor="start" x="623.5" y="-378.8" font-family="Helvetica,sans-Serif" font-size="11.00" fill="#000000">ISOFORM_DOMAIN_ID</text>
<polygon fill="none" stroke="#000000" points="603.5,-352.7 603.5,-371.7 862.5,-371.7 862.5,-352.7 603.5,-352.7"/>
<text text-anchor="start" x="606.5" y="-358.8" font-family="Helvetica,sans-Serif" font-size="11.00" fill="#000000">...</text>
<polygon fill="#ffffff" stroke="transparent" points="603.5,-333.7 603.5,-352.7 715.5,-352.7 715.5,-333.7 603.5,-333.7"/>
<polygon fill="none" stroke="#000000" points="603.5,-333.7 603.5,-352.7 715.5,-352.7 715.5,-333.7 603.5,-333.7"/>
<text text-anchor="start" x="606.5" y="-339.8" font-family="Helvetica,sans-Serif" font-size="11.00" fill="#000000">&lt; 2</text>
<polygon fill="#ffffff" stroke="transparent" points="715.5,-333.7 715.5,-352.7 804.5,-352.7 804.5,-333.7 715.5,-333.7"/>
<polygon fill="none" stroke="#000000" points="715.5,-333.7 715.5,-352.7 804.5,-352.7 804.5,-333.7 715.5,-333.7"/>
<text text-anchor="start" x="762.9956" y="-339.8" font-family="Helvetica,sans-Serif" font-size="11.00" fill="#000000">50 rows</text>
<polygon fill="#ffffff" stroke="transparent" points="804.5,-333.7 804.5,-352.7 862.5,-352.7 862.5,-333.7 804.5,-333.7"/>
<polygon fill="none" stroke="#000000" points="804.5,-333.7 804.5,-352.7 862.5,-352.7 862.5,-333.7 804.5,-333.7"/>
<text text-anchor="start" x="853.3862" y="-339.8" font-family="Helvetica,sans-Serif" font-size="11.00" fill="#000000"> &#160;</text>
</a>
</g>
</g>
<!-- SUPPLEMENTS_ISOFORM_DOMAINS&#45;&gt;ISOFORM_DOMAINS -->
<g id="edge4" class="edge">
<title>SUPPLEMENTS_ISOFORM_DOMAINS:w&#45;&gt;ISOFORM_DOMAINS:e</title>
<path fill="none" stroke="#000000" d="M588.6762,-382.7C572.6248,-382.7 563.8924,-382.7 542.5,-382.7"/>
<polygon fill="#000000" stroke="#000000" points="595.5,-382.7001 603.5,-386.3 599.5,-382.7 603.5,-382.7 603.5,-382.7 603.5,-382.7 599.5,-382.7 603.5,-379.1 595.5,-382.7001 595.5,-382.7001"/>
<ellipse fill="none" stroke="#000000" cx="592.3" cy="-382.7001" rx="3.2" ry="3.2"/>
</g>
<!-- TARGET_FORMS_ISOFORM_DOMAINS -->
<g id="node6" class="node">
<title>TARGET_FORMS_ISOFORM_DOMAINS</title>
<g id="a_node6"><a xlink:href="../../tables/TARGET_FORMS_ISOFORM_DOMAINS.html" xlink:title="TARGET_FORMS_ISOFORM_DOMAINS" target="_top">
<polygon fill="#ffffff" stroke="transparent" points="599,-186.2 599,-313.2 866,-313.2 866,-186.2 599,-186.2"/>
<polygon fill="#f5f5f5" stroke="transparent" points="599.5,-289.7 599.5,-312.7 866.5,-312.7 866.5,-289.7 599.5,-289.7"/>
<polygon fill="none" stroke="#000000" points="599.5,-289.7 599.5,-312.7 866.5,-312.7 866.5,-289.7 599.5,-289.7"/>
<text text-anchor="start" x="604.5" y="-298.8" font-family="Helvetica,sans-Serif" font-weight="bold" font-size="11.00" fill="#000000">TARGET_FORMS_ISOFORM_DOMAINS</text>
<text text-anchor="start" x="831.5437" y="-297.8" font-family="Helvetica,sans-Serif" font-size="11.00" fill="#000000">[table]</text>
<polygon fill="none" stroke="#000000" points="599.5,-267.7 599.5,-289.7 866.5,-289.7 866.5,-267.7 599.5,-267.7"/>
<image xlink:href="../../images/primaryKeys.png" width="11px" height="12px" preserveAspectRatio="xMinYMin meet" x="604.5" y="-284.7"/>
<text text-anchor="start" x="619.5" y="-274.8" font-family="Helvetica,sans-Serif" font-size="11.00" fill="#000000">ID</text>
<polygon fill="none" stroke="#000000" points="599.5,-245.7 599.5,-267.7 866.5,-267.7 866.5,-245.7 599.5,-245.7"/>
<image xlink:href="../../images/primaryKeys.png" width="11px" height="12px" preserveAspectRatio="xMinYMin meet" x="604.5" y="-262.7"/>
<text text-anchor="start" x="619.5" y="-252.8" font-family="Helvetica,sans-Serif" font-size="11.00" fill="#000000">TARGET_FORM_ID</text>
<polygon fill="none" stroke="#000000" points="599.5,-223.7 599.5,-245.7 866.5,-245.7 866.5,-223.7 599.5,-223.7"/>
<image xlink:href="../../images/primaryKeys.png" width="11px" height="12px" preserveAspectRatio="xMinYMin meet" x="604.5" y="-240.7"/>
<text text-anchor="start" x="619.5" y="-230.8" font-family="Helvetica,sans-Serif" font-size="11.00" fill="#000000">ISOFORM_DOMAIN_ID</text>
<polygon fill="none" stroke="#000000" points="599.5,-204.7 599.5,-223.7 866.5,-223.7 866.5,-204.7 599.5,-204.7"/>
<text text-anchor="start" x="602.5" y="-210.8" font-family="Helvetica,sans-Serif" font-size="11.00" fill="#000000">...</text>
<polygon fill="#ffffff" stroke="transparent" points="599.5,-185.7 599.5,-204.7 712.5,-204.7 712.5,-185.7 599.5,-185.7"/>
<polygon fill="none" stroke="#000000" points="599.5,-185.7 599.5,-204.7 712.5,-204.7 712.5,-185.7 599.5,-185.7"/>
<text text-anchor="start" x="602.5" y="-191.8" font-family="Helvetica,sans-Serif" font-size="11.00" fill="#000000">&lt; 2</text>
<polygon fill="#ffffff" stroke="transparent" points="712.5,-185.7 712.5,-204.7 808.5,-204.7 808.5,-185.7 712.5,-185.7"/>
<polygon fill="none" stroke="#000000" points="712.5,-185.7 712.5,-204.7 808.5,-204.7 808.5,-185.7 712.5,-185.7"/>
<text text-anchor="start" x="760.8807" y="-191.8" font-family="Helvetica,sans-Serif" font-size="11.00" fill="#000000">725 rows</text>
<polygon fill="#ffffff" stroke="transparent" points="808.5,-185.7 808.5,-204.7 866.5,-204.7 866.5,-185.7 808.5,-185.7"/>
<polygon fill="none" stroke="#000000" points="808.5,-185.7 808.5,-204.7 866.5,-204.7 866.5,-185.7 808.5,-185.7"/>
<text text-anchor="start" x="857.3862" y="-191.8" font-family="Helvetica,sans-Serif" font-size="11.00" fill="#000000"> &#160;</text>
</a>
</g>
</g>
<!-- TARGET_FORMS_ISOFORM_DOMAINS&#45;&gt;ISOFORM_DOMAINS -->
<g id="edge5" class="edge">
<title>TARGET_FORMS_ISOFORM_DOMAINS:w&#45;&gt;ISOFORM_DOMAINS:e</title>
<path fill="none" stroke="#000000" d="M585.1011,-237.5243C541.7502,-257.9853 607.2054,-382.7 542.5,-382.7"/>
<polygon fill="#000000" stroke="#000000" points="591.6496,-236.2399 600.193,-238.2327 595.5748,-235.47 599.5,-234.7 599.5,-234.7 599.5,-234.7 595.5748,-235.47 598.807,-231.1673 591.6496,-236.2399 591.6496,-236.2399"/>
<ellipse fill="none" stroke="#000000" cx="588.5094" cy="-236.8559" rx="3.2" ry="3.2"/>
</g>
<!-- TRACER_LIGANDS_ISOFORM_DOMAINS -->
<g id="node7" class="node">
<title>TRACER_LIGANDS_ISOFORM_DOMAINS</title>
<g id="a_node7"><a xlink:href="../../tables/TRACER_LIGANDS_ISOFORM_DOMAINS.html" xlink:title="TRACER_LIGANDS_ISOFORM_DOMAINS" target="_top">
<polygon fill="#ffffff" stroke="transparent" points="593,-38.2 593,-165.2 872,-165.2 872,-38.2 593,-38.2"/>
<polygon fill="#f5f5f5" stroke="transparent" points="593.5,-141.7 593.5,-164.7 872.5,-164.7 872.5,-141.7 593.5,-141.7"/>
<polygon fill="none" stroke="#000000" points="593.5,-141.7 593.5,-164.7 872.5,-164.7 872.5,-141.7 593.5,-141.7"/>
<text text-anchor="start" x="598.5" y="-150.8" font-family="Helvetica,sans-Serif" font-weight="bold" font-size="11.00" fill="#000000">TRACER_LIGANDS_ISOFORM_DOMAINS</text>
<text text-anchor="start" x="837.5437" y="-149.8" font-family="Helvetica,sans-Serif" font-size="11.00" fill="#000000">[table]</text>
<polygon fill="none" stroke="#000000" points="593.5,-119.7 593.5,-141.7 872.5,-141.7 872.5,-119.7 593.5,-119.7"/>
<image xlink:href="../../images/primaryKeys.png" width="11px" height="12px" preserveAspectRatio="xMinYMin meet" x="598.5" y="-136.7"/>
<text text-anchor="start" x="613.5" y="-126.8" font-family="Helvetica,sans-Serif" font-size="11.00" fill="#000000">ID</text>
<polygon fill="none" stroke="#000000" points="593.5,-97.7 593.5,-119.7 872.5,-119.7 872.5,-97.7 593.5,-97.7"/>
<image xlink:href="../../images/primaryKeys.png" width="11px" height="12px" preserveAspectRatio="xMinYMin meet" x="598.5" y="-114.7"/>
<text text-anchor="start" x="613.5" y="-104.8" font-family="Helvetica,sans-Serif" font-size="11.00" fill="#000000">ISOFORM_DOMAIN_ID</text>
<polygon fill="none" stroke="#000000" points="593.5,-75.7 593.5,-97.7 872.5,-97.7 872.5,-75.7 593.5,-75.7"/>
<image xlink:href="../../images/primaryKeys.png" width="11px" height="12px" preserveAspectRatio="xMinYMin meet" x="598.5" y="-92.7"/>
<text text-anchor="start" x="613.5" y="-82.8" font-family="Helvetica,sans-Serif" font-size="11.00" fill="#000000">TRACER_LIGAND_ID</text>
<polygon fill="none" stroke="#000000" points="593.5,-56.7 593.5,-75.7 872.5,-75.7 872.5,-56.7 593.5,-56.7"/>
<text text-anchor="start" x="596.5" y="-62.8" font-family="Helvetica,sans-Serif" font-size="11.00" fill="#000000">...</text>
<polygon fill="#ffffff" stroke="transparent" points="593.5,-37.7 593.5,-56.7 715.5,-56.7 715.5,-37.7 593.5,-37.7"/>
<polygon fill="none" stroke="#000000" points="593.5,-37.7 593.5,-56.7 715.5,-56.7 715.5,-37.7 593.5,-37.7"/>
<text text-anchor="start" x="596.5" y="-43.8" font-family="Helvetica,sans-Serif" font-size="11.00" fill="#000000">&lt; 2</text>
<polygon fill="#ffffff" stroke="transparent" points="715.5,-37.7 715.5,-56.7 809.5,-56.7 809.5,-37.7 715.5,-37.7"/>
<polygon fill="none" stroke="#000000" points="715.5,-37.7 715.5,-56.7 809.5,-56.7 809.5,-37.7 715.5,-37.7"/>
<text text-anchor="start" x="767.9956" y="-43.8" font-family="Helvetica,sans-Serif" font-size="11.00" fill="#000000">75 rows</text>
<polygon fill="#ffffff" stroke="transparent" points="809.5,-37.7 809.5,-56.7 872.5,-56.7 872.5,-37.7 809.5,-37.7"/>
<polygon fill="none" stroke="#000000" points="809.5,-37.7 809.5,-56.7 872.5,-56.7 872.5,-37.7 809.5,-37.7"/>
<text text-anchor="start" x="863.3862" y="-43.8" font-family="Helvetica,sans-Serif" font-size="11.00" fill="#000000"> &#160;</text>
</a>
</g>
</g>
<!-- TRACER_LIGANDS_ISOFORM_DOMAINS&#45;&gt;ISOFORM_DOMAINS -->
<g id="edge6" class="edge">
<title>TRACER_LIGANDS_ISOFORM_DOMAINS:w&#45;&gt;ISOFORM_DOMAINS:e</title>
<path fill="none" stroke="#000000" d="M580.1105,-114.6777C543.3331,-154.7475 598.9912,-382.7 542.5,-382.7"/>
<polygon fill="#000000" stroke="#000000" points="586.1949,-111.9614 594.9676,-111.9873 589.8475,-110.3307 593.5,-108.7 593.5,-108.7 593.5,-108.7 589.8475,-110.3307 592.0324,-105.4127 586.1949,-111.9614 586.1949,-111.9614"/>
<ellipse fill="none" stroke="#000000" cx="583.2729" cy="-113.2659" rx="3.2" ry="3.2"/>
</g>
</g>
</svg>
