<?xml version="1.0" encoding="UTF-8" standalone="no"?>
<!DOCTYPE svg PUBLIC "-//W3C//DTD SVG 1.1//EN"
 "http://www.w3.org/Graphics/SVG/1.1/DTD/svg11.dtd">
<!-- Generated by graphviz version 2.40.1 (20161225.0304)
 -->
<!-- Title: oneDegreeRelationshipsDiagram Pages: 1 -->
<svg width="717pt" height="341pt"
 viewBox="0.00 0.00 717.00 340.70" xmlns="http://www.w3.org/2000/svg" xmlns:xlink="http://www.w3.org/1999/xlink">
<g id="graph0" class="graph" transform="scale(1 1) rotate(0) translate(4 336.7)">
<title>oneDegreeRelationshipsDiagram</title>
<polygon fill="#ffffff" stroke="transparent" points="-4,4 -4,-336.7 713,-336.7 713,4 -4,4"/>
<text text-anchor="middle" x="72.4936" y="-7.3" font-family="Helvetica,sans-Serif" font-size="11.00" fill="#000000">Generated by SchemaSpy</text>
<!-- ISOFORM_ANNOTATIONS_REFERENCES -->
<g id="node1" class="node">
<title>ISOFORM_ANNOTATIONS_REFERENCES</title>
<g id="a_node1"><a xlink:href="../../tables/ISOFORM_ANNOTATIONS_REFERENCES.html" xlink:title="ISOFORM_ANNOTATIONS_REFERENCES" target="_top">
<polygon fill="#ffffff" stroke="transparent" points="245,-128.7 245,-328.7 701,-328.7 701,-128.7 245,-128.7"/>
<polygon fill="#f5f5f5" stroke="transparent" points="247,-303.7 247,-326.7 699,-326.7 699,-303.7 247,-303.7"/>
<polygon fill="none" stroke="#000000" points="247,-303.7 247,-326.7 699,-326.7 699,-303.7 247,-303.7"/>
<text text-anchor="start" x="252" y="-312.8" font-family="Helvetica,sans-Serif" font-weight="bold" font-size="11.00" fill="#000000">ISOFORM_ANNOTATIONS_REFERENCES</text>
<text text-anchor="start" x="664.0437" y="-311.8" font-family="Helvetica,sans-Serif" font-size="11.00" fill="#000000">[table]</text>
<polygon fill="none" stroke="#000000" points="247,-281.7 247,-303.7 528,-303.7 528,-281.7 247,-281.7"/>
<image xlink:href="../../images/primaryKeys.png" width="11px" height="12px" preserveAspectRatio="xMinYMin meet" x="252" y="-298.7"/>
<text text-anchor="start" x="267" y="-288.8" font-family="Helvetica,sans-Serif" font-size="11.00" fill="#000000">ID</text>
<polygon fill="none" stroke="#000000" points="528,-281.7 528,-303.7 699,-303.7 699,-281.7 528,-281.7"/>
<text text-anchor="start" x="531" y="-289.4" font-family="Helvetica,sans-Serif" font-size="11.00" fill="#000000">number[19]</text>
<polygon fill="none" stroke="#000000" points="247,-259.7 247,-281.7 528,-281.7 528,-259.7 247,-259.7"/>
<text text-anchor="start" x="267" y="-266.8" font-family="Helvetica,sans-Serif" font-size="11.00" fill="#000000">CREATED_AT</text>
<polygon fill="none" stroke="#000000" points="528,-259.7 528,-281.7 699,-281.7 699,-259.7 528,-259.7"/>
<text text-anchor="start" x="530.9896" y="-267.4" font-family="Helvetica,sans-Serif" font-size="11.00" fill="#000000">timestamp(6) with time zone[13,6]</text>
<polygon fill="none" stroke="#000000" points="247,-237.7 247,-259.7 528,-259.7 528,-237.7 247,-237.7"/>
<text text-anchor="start" x="267" y="-244.8" font-family="Helvetica,sans-Serif" font-size="11.00" fill="#000000">CREATED_BY</text>
<polygon fill="none" stroke="#000000" points="528,-237.7 528,-259.7 699,-259.7 699,-237.7 528,-237.7"/>
<text text-anchor="start" x="531" y="-245.4" font-family="Helvetica,sans-Serif" font-size="11.00" fill="#000000">number[19]</text>
<polygon fill="none" stroke="#000000" points="247,-215.7 247,-237.7 528,-237.7 528,-215.7 247,-215.7"/>
<text text-anchor="start" x="267" y="-222.8" font-family="Helvetica,sans-Serif" font-size="11.00" fill="#000000">UPDATED_AT</text>
<polygon fill="none" stroke="#000000" points="528,-215.7 528,-237.7 699,-237.7 699,-215.7 528,-215.7"/>
<text text-anchor="start" x="530.9896" y="-223.4" font-family="Helvetica,sans-Serif" font-size="11.00" fill="#000000">timestamp(6) with time zone[13,6]</text>
<polygon fill="none" stroke="#000000" points="247,-193.7 247,-215.7 528,-215.7 528,-193.7 247,-193.7"/>
<text text-anchor="start" x="267" y="-200.8" font-family="Helvetica,sans-Serif" font-size="11.00" fill="#000000">UPDATED_BY</text>
<polygon fill="none" stroke="#000000" points="528,-193.7 528,-215.7 699,-215.7 699,-193.7 528,-193.7"/>
<text text-anchor="start" x="531" y="-201.4" font-family="Helvetica,sans-Serif" font-size="11.00" fill="#000000">number[19]</text>
<polygon fill="none" stroke="#000000" points="247,-171.7 247,-193.7 528,-193.7 528,-171.7 247,-171.7"/>
<image xlink:href="../../images/foreignKeys.png" width="11px" height="12px" preserveAspectRatio="xMinYMin meet" x="252" y="-188.7"/>
<text text-anchor="start" x="267" y="-178.8" font-family="Helvetica,sans-Serif" font-size="11.00" fill="#000000">ISOFORM_ANNOTATION_ID</text>
<polygon fill="none" stroke="#000000" points="528,-171.7 528,-193.7 699,-193.7 699,-171.7 528,-171.7"/>
<text text-anchor="start" x="531" y="-179.4" font-family="Helvetica,sans-Serif" font-size="11.00" fill="#000000">number[19]</text>
<polygon fill="none" stroke="#000000" points="247,-149.7 247,-171.7 528,-171.7 528,-149.7 247,-149.7"/>
<image xlink:href="../../images/foreignKeys.png" width="11px" height="12px" preserveAspectRatio="xMinYMin meet" x="252" y="-166.7"/>
<text text-anchor="start" x="267" y="-156.8" font-family="Helvetica,sans-Serif" font-size="11.00" fill="#000000">REFERENCE_ID</text>
<polygon fill="none" stroke="#000000" points="528,-149.7 528,-171.7 699,-171.7 699,-149.7 528,-149.7"/>
<text text-anchor="start" x="531" y="-157.4" font-family="Helvetica,sans-Serif" font-size="11.00" fill="#000000">number[19]</text>
<polygon fill="#ffffff" stroke="transparent" points="247,-130.7 247,-149.7 379,-149.7 379,-130.7 247,-130.7"/>
<polygon fill="none" stroke="#000000" points="247,-130.7 247,-149.7 379,-149.7 379,-130.7 247,-130.7"/>
<text text-anchor="start" x="250" y="-136.8" font-family="Helvetica,sans-Serif" font-size="11.00" fill="#000000">&lt; 2</text>
<polygon fill="#ffffff" stroke="transparent" points="379,-130.7 379,-149.7 528,-149.7 528,-130.7 379,-130.7"/>
<polygon fill="none" stroke="#000000" points="379,-130.7 379,-149.7 528,-149.7 528,-130.7 379,-130.7"/>
<text text-anchor="start" x="492.6105" y="-136.8" font-family="Helvetica,sans-Serif" font-size="11.00" fill="#000000">3 rows</text>
<polygon fill="#ffffff" stroke="transparent" points="528,-130.7 528,-149.7 699,-149.7 699,-130.7 528,-130.7"/>
<polygon fill="none" stroke="#000000" points="528,-130.7 528,-149.7 699,-149.7 699,-130.7 528,-130.7"/>
<text text-anchor="start" x="680.4053" y="-136.8" font-family="Helvetica,sans-Serif" font-size="11.00" fill="#000000">0 &gt;</text>
<polygon fill="none" stroke="#000000" stroke-width="2" points="246,-129.7 246,-327.7 700,-327.7 700,-129.7 246,-129.7"/>
</a>
</g>
</g>
<!-- ISOFORM_ANNOTATIONS -->
<g id="node2" class="node">
<title>ISOFORM_ANNOTATIONS</title>
<g id="a_node2"><a xlink:href="../../tables/ISOFORM_ANNOTATIONS.html" xlink:title="ISOFORM_ANNOTATIONS" target="_top">
<polygon fill="#ffffff" stroke="transparent" points="8,-164.2 8,-269.2 196,-269.2 196,-164.2 8,-164.2"/>
<polygon fill="#f5f5f5" stroke="transparent" points="8,-245.7 8,-268.7 196,-268.7 196,-245.7 8,-245.7"/>
<polygon fill="none" stroke="#000000" points="8,-245.7 8,-268.7 196,-268.7 196,-245.7 8,-245.7"/>
<text text-anchor="start" x="13" y="-254.8" font-family="Helvetica,sans-Serif" font-weight="bold" font-size="11.00" fill="#000000">ISOFORM_ANNOTATIONS</text>
<text text-anchor="start" x="161.0437" y="-253.8" font-family="Helvetica,sans-Serif" font-size="11.00" fill="#000000">[table]</text>
<polygon fill="none" stroke="#000000" points="8,-223.7 8,-245.7 196,-245.7 196,-223.7 8,-223.7"/>
<image xlink:href="../../images/primaryKeys.png" width="11px" height="12px" preserveAspectRatio="xMinYMin meet" x="13" y="-240.7"/>
<text text-anchor="start" x="28" y="-230.8" font-family="Helvetica,sans-Serif" font-size="11.00" fill="#000000">ID</text>
<polygon fill="none" stroke="#000000" points="8,-201.7 8,-223.7 196,-223.7 196,-201.7 8,-201.7"/>
<image xlink:href="../../images/foreignKeys.png" width="11px" height="12px" preserveAspectRatio="xMinYMin meet" x="13" y="-218.7"/>
<text text-anchor="start" x="28" y="-208.8" font-family="Helvetica,sans-Serif" font-size="11.00" fill="#000000">ISOFORM_ID</text>
<polygon fill="none" stroke="#000000" points="8,-182.7 8,-201.7 196,-201.7 196,-182.7 8,-182.7"/>
<text text-anchor="start" x="11" y="-188.8" font-family="Helvetica,sans-Serif" font-size="11.00" fill="#000000">...</text>
<polygon fill="#ffffff" stroke="transparent" points="8,-163.7 8,-182.7 83,-182.7 83,-163.7 8,-163.7"/>
<polygon fill="none" stroke="#000000" points="8,-163.7 8,-182.7 83,-182.7 83,-163.7 8,-163.7"/>
<text text-anchor="start" x="11" y="-169.8" font-family="Helvetica,sans-Serif" font-size="11.00" fill="#000000">&lt; 1</text>
<polygon fill="#ffffff" stroke="transparent" points="83,-163.7 83,-182.7 148,-182.7 148,-163.7 83,-163.7"/>
<polygon fill="none" stroke="#000000" points="83,-163.7 83,-182.7 148,-182.7 148,-163.7 83,-163.7"/>
<text text-anchor="start" x="112.6105" y="-169.8" font-family="Helvetica,sans-Serif" font-size="11.00" fill="#000000">9 rows</text>
<polygon fill="#ffffff" stroke="transparent" points="148,-163.7 148,-182.7 196,-182.7 196,-163.7 148,-163.7"/>
<polygon fill="none" stroke="#000000" points="148,-163.7 148,-182.7 196,-182.7 196,-163.7 148,-163.7"/>
<text text-anchor="start" x="177.4053" y="-169.8" font-family="Helvetica,sans-Serif" font-size="11.00" fill="#000000">3 &gt;</text>
</a>
</g>
</g>
<!-- ISOFORM_ANNOTATIONS_REFERENCES&#45;&gt;ISOFORM_ANNOTATIONS -->
<g id="edge1" class="edge">
<title>ISOFORM_ANNOTATIONS_REFERENCES:w&#45;&gt;ISOFORM_ANNOTATIONS:e</title>
<path fill="none" stroke="#000000" d="M233.0468,-187.4988C218.161,-200.3719 222.3017,-234.7 196,-234.7"/>
<polygon fill="#000000" stroke="#000000" points="239.4349,-185.3018 248.1708,-186.1043 243.2175,-184.0009 247,-182.7 247,-182.7 247,-182.7 243.2175,-184.0009 245.8292,-179.2957 239.4349,-185.3018 239.4349,-185.3018"/>
<ellipse fill="none" stroke="#000000" cx="236.4089" cy="-186.3426" rx="3.2" ry="3.2"/>
</g>
<!-- REFERENCES -->
<g id="node3" class="node">
<title>REFERENCES</title>
<g id="a_node3"><a xlink:href="../../tables/REFERENCES.html" xlink:title="REFERENCES" target="_top">
<polygon fill="#ffffff" stroke="transparent" points="38,-38.2 38,-143.2 166,-143.2 166,-38.2 38,-38.2"/>
<polygon fill="#f5f5f5" stroke="transparent" points="38,-119.7 38,-142.7 166,-142.7 166,-119.7 38,-119.7"/>
<polygon fill="none" stroke="#000000" points="38,-119.7 38,-142.7 166,-142.7 166,-119.7 38,-119.7"/>
<text text-anchor="start" x="43" y="-128.8" font-family="Helvetica,sans-Serif" font-weight="bold" font-size="11.00" fill="#000000">REFERENCES</text>
<text text-anchor="start" x="131.0437" y="-127.8" font-family="Helvetica,sans-Serif" font-size="11.00" fill="#000000">[table]</text>
<polygon fill="none" stroke="#000000" points="38,-97.7 38,-119.7 166,-119.7 166,-97.7 38,-97.7"/>
<image xlink:href="../../images/primaryKeys.png" width="11px" height="12px" preserveAspectRatio="xMinYMin meet" x="43" y="-114.7"/>
<text text-anchor="start" x="58" y="-104.8" font-family="Helvetica,sans-Serif" font-size="11.00" fill="#000000">ID</text>
<polygon fill="none" stroke="#000000" points="38,-75.7 38,-97.7 166,-97.7 166,-75.7 38,-75.7"/>
<image xlink:href="../../images/foreignKeys.png" width="11px" height="12px" preserveAspectRatio="xMinYMin meet" x="43" y="-92.7"/>
<text text-anchor="start" x="58" y="-82.8" font-family="Helvetica,sans-Serif" font-size="11.00" fill="#000000">USER_ID</text>
<polygon fill="none" stroke="#000000" points="38,-56.7 38,-75.7 166,-75.7 166,-56.7 38,-56.7"/>
<text text-anchor="start" x="41" y="-62.8" font-family="Helvetica,sans-Serif" font-size="11.00" fill="#000000">...</text>
<polygon fill="#ffffff" stroke="transparent" points="38,-37.7 38,-56.7 69,-56.7 69,-37.7 38,-37.7"/>
<polygon fill="none" stroke="#000000" points="38,-37.7 38,-56.7 69,-56.7 69,-37.7 38,-37.7"/>
<text text-anchor="start" x="41" y="-43.8" font-family="Helvetica,sans-Serif" font-size="11.00" fill="#000000">&lt; 1</text>
<polygon fill="#ffffff" stroke="transparent" points="69,-37.7 69,-56.7 133,-56.7 133,-37.7 69,-37.7"/>
<polygon fill="none" stroke="#000000" points="69,-37.7 69,-56.7 133,-56.7 133,-37.7 69,-37.7"/>
<text text-anchor="start" x="76.2089" y="-43.8" font-family="Helvetica,sans-Serif" font-size="11.00" fill="#000000">2,900 rows</text>
<polygon fill="#ffffff" stroke="transparent" points="133,-37.7 133,-56.7 166,-56.7 166,-37.7 133,-37.7"/>
<polygon fill="none" stroke="#000000" points="133,-37.7 133,-56.7 166,-56.7 166,-37.7 133,-37.7"/>
<text text-anchor="start" x="141.2904" y="-43.8" font-family="Helvetica,sans-Serif" font-size="11.00" fill="#000000">20 &gt;</text>
</a>
</g>
</g>
<!-- ISOFORM_ANNOTATIONS_REFERENCES&#45;&gt;REFERENCES -->
<g id="edge2" class="edge">
<title>ISOFORM_ANNOTATIONS_REFERENCES:w&#45;&gt;REFERENCES:e</title>
<path fill="none" stroke="#000000" d="M232.6133,-158.3305C204.609,-148.1578 203.2653,-108.7 166,-108.7"/>
<polygon fill="#000000" stroke="#000000" points="239.1063,-159.3999 246.4149,-164.2521 243.0532,-160.0499 247,-160.7 247,-160.7 247,-160.7 243.0532,-160.0499 247.5851,-157.1479 239.1063,-159.3999 239.1063,-159.3999"/>
<ellipse fill="none" stroke="#000000" cx="235.9489" cy="-158.8798" rx="3.2" ry="3.2"/>
</g>
</g>
</svg>
