<?xml version="1.0" encoding="UTF-8" standalone="no"?>
<!DOCTYPE svg PUBLIC "-//W3C//DTD SVG 1.1//EN"
 "http://www.w3.org/Graphics/SVG/1.1/DTD/svg11.dtd">
<!-- Generated by graphviz version 2.40.1 (20161225.0304)
 -->
<!-- Title: oneDegreeRelationshipsDiagram Pages: 1 -->
<svg width="884pt" height="485pt"
 viewBox="0.00 0.00 884.00 484.70" xmlns="http://www.w3.org/2000/svg" xmlns:xlink="http://www.w3.org/1999/xlink">
<g id="graph0" class="graph" transform="scale(1 1) rotate(0) translate(4 480.7)">
<title>oneDegreeRelationshipsDiagram</title>
<polygon fill="#ffffff" stroke="transparent" points="-4,4 -4,-480.7 880,-480.7 880,4 -4,4"/>
<text text-anchor="middle" x="72.4936" y="-7.3" font-family="Helvetica,sans-Serif" font-size="11.00" fill="#000000">Generated by SchemaSpy</text>
<!-- CLONE_FORMS_ISOFORM_VARIANTS -->
<g id="node1" class="node">
<title>CLONE_FORMS_ISOFORM_VARIANTS</title>
<g id="a_node1"><a xlink:href="../../tables/CLONE_FORMS_ISOFORM_VARIANTS.html" xlink:title="CLONE_FORMS_ISOFORM_VARIANTS" target="_top">
<polygon fill="#ffffff" stroke="transparent" points="601,-345.7 601,-472.7 864,-472.7 864,-345.7 601,-345.7"/>
<polygon fill="#f5f5f5" stroke="transparent" points="601.5,-449.2 601.5,-472.2 864.5,-472.2 864.5,-449.2 601.5,-449.2"/>
<polygon fill="none" stroke="#000000" points="601.5,-449.2 601.5,-472.2 864.5,-472.2 864.5,-449.2 601.5,-449.2"/>
<text text-anchor="start" x="606.5" y="-458.3" font-family="Helvetica,sans-Serif" font-weight="bold" font-size="11.00" fill="#000000">CLONE_FORMS_ISOFORM_VARIANTS</text>
<text text-anchor="start" x="829.5437" y="-457.3" font-family="Helvetica,sans-Serif" font-size="11.00" fill="#000000">[table]</text>
<polygon fill="none" stroke="#000000" points="601.5,-427.2 601.5,-449.2 864.5,-449.2 864.5,-427.2 601.5,-427.2"/>
<image xlink:href="../../images/primaryKeys.png" width="11px" height="12px" preserveAspectRatio="xMinYMin meet" x="606.5" y="-444.2"/>
<text text-anchor="start" x="621.5" y="-434.3" font-family="Helvetica,sans-Serif" font-size="11.00" fill="#000000">ID</text>
<polygon fill="none" stroke="#000000" points="601.5,-405.2 601.5,-427.2 864.5,-427.2 864.5,-405.2 601.5,-405.2"/>
<image xlink:href="../../images/primaryKeys.png" width="11px" height="12px" preserveAspectRatio="xMinYMin meet" x="606.5" y="-422.2"/>
<text text-anchor="start" x="621.5" y="-412.3" font-family="Helvetica,sans-Serif" font-size="11.00" fill="#000000">CLONE_FORM_ID</text>
<polygon fill="none" stroke="#000000" points="601.5,-383.2 601.5,-405.2 864.5,-405.2 864.5,-383.2 601.5,-383.2"/>
<image xlink:href="../../images/primaryKeys.png" width="11px" height="12px" preserveAspectRatio="xMinYMin meet" x="606.5" y="-400.2"/>
<text text-anchor="start" x="621.5" y="-390.3" font-family="Helvetica,sans-Serif" font-size="11.00" fill="#000000">ISOFORM_VARIANT_ID</text>
<polygon fill="none" stroke="#000000" points="601.5,-364.2 601.5,-383.2 864.5,-383.2 864.5,-364.2 601.5,-364.2"/>
<text text-anchor="start" x="604.5" y="-370.3" font-family="Helvetica,sans-Serif" font-size="11.00" fill="#000000">...</text>
<polygon fill="#ffffff" stroke="transparent" points="601.5,-345.2 601.5,-364.2 715.5,-364.2 715.5,-345.2 601.5,-345.2"/>
<polygon fill="none" stroke="#000000" points="601.5,-345.2 601.5,-364.2 715.5,-364.2 715.5,-345.2 601.5,-345.2"/>
<text text-anchor="start" x="604.5" y="-351.3" font-family="Helvetica,sans-Serif" font-size="11.00" fill="#000000">&lt; 2</text>
<polygon fill="#ffffff" stroke="transparent" points="715.5,-345.2 715.5,-364.2 805.5,-364.2 805.5,-345.2 715.5,-345.2"/>
<polygon fill="none" stroke="#000000" points="715.5,-345.2 715.5,-364.2 805.5,-364.2 805.5,-345.2 715.5,-345.2"/>
<text text-anchor="start" x="763.9956" y="-351.3" font-family="Helvetica,sans-Serif" font-size="11.00" fill="#000000">69 rows</text>
<polygon fill="#ffffff" stroke="transparent" points="805.5,-345.2 805.5,-364.2 864.5,-364.2 864.5,-345.2 805.5,-345.2"/>
<polygon fill="none" stroke="#000000" points="805.5,-345.2 805.5,-364.2 864.5,-364.2 864.5,-345.2 805.5,-345.2"/>
<text text-anchor="start" x="855.3862" y="-351.3" font-family="Helvetica,sans-Serif" font-size="11.00" fill="#000000"> &#160;</text>
</a>
</g>
</g>
<!-- ISOFORM_VARIANTS -->
<g id="node2" class="node">
<title>ISOFORM_VARIANTS</title>
<g id="a_node2"><a xlink:href="../../tables/ISOFORM_VARIANTS.html" xlink:title="ISOFORM_VARIANTS" target="_top">
<polygon fill="#ffffff" stroke="transparent" points="215,-38.2 215,-304.2 548,-304.2 548,-38.2 215,-38.2"/>
<polygon fill="#f5f5f5" stroke="transparent" points="217.5,-279.2 217.5,-302.2 546.5,-302.2 546.5,-279.2 217.5,-279.2"/>
<polygon fill="none" stroke="#000000" points="217.5,-279.2 217.5,-302.2 546.5,-302.2 546.5,-279.2 217.5,-279.2"/>
<text text-anchor="start" x="222.5" y="-288.3" font-family="Helvetica,sans-Serif" font-weight="bold" font-size="11.00" fill="#000000">ISOFORM_VARIANTS</text>
<text text-anchor="start" x="511.5437" y="-287.3" font-family="Helvetica,sans-Serif" font-size="11.00" fill="#000000">[table]</text>
<polygon fill="none" stroke="#000000" points="217.5,-257.2 217.5,-279.2 375.5,-279.2 375.5,-257.2 217.5,-257.2"/>
<image xlink:href="../../images/primaryKeys.png" width="11px" height="12px" preserveAspectRatio="xMinYMin meet" x="222.5" y="-274.2"/>
<text text-anchor="start" x="237.5" y="-264.3" font-family="Helvetica,sans-Serif" font-size="11.00" fill="#000000">ID</text>
<polygon fill="none" stroke="#000000" points="375.5,-257.2 375.5,-279.2 546.5,-279.2 546.5,-257.2 375.5,-257.2"/>
<text text-anchor="start" x="378.5" y="-264.9" font-family="Helvetica,sans-Serif" font-size="11.00" fill="#000000">number[19]</text>
<polygon fill="none" stroke="#000000" points="217.5,-235.2 217.5,-257.2 375.5,-257.2 375.5,-235.2 217.5,-235.2"/>
<text text-anchor="start" x="237.5" y="-242.3" font-family="Helvetica,sans-Serif" font-size="11.00" fill="#000000">CREATED_AT</text>
<polygon fill="none" stroke="#000000" points="375.5,-235.2 375.5,-257.2 546.5,-257.2 546.5,-235.2 375.5,-235.2"/>
<text text-anchor="start" x="378.4896" y="-242.9" font-family="Helvetica,sans-Serif" font-size="11.00" fill="#000000">timestamp(6) with time zone[13,6]</text>
<polygon fill="none" stroke="#000000" points="217.5,-213.2 217.5,-235.2 375.5,-235.2 375.5,-213.2 217.5,-213.2"/>
<text text-anchor="start" x="237.5" y="-220.3" font-family="Helvetica,sans-Serif" font-size="11.00" fill="#000000">CREATED_BY</text>
<polygon fill="none" stroke="#000000" points="375.5,-213.2 375.5,-235.2 546.5,-235.2 546.5,-213.2 375.5,-213.2"/>
<text text-anchor="start" x="378.5" y="-220.9" font-family="Helvetica,sans-Serif" font-size="11.00" fill="#000000">number[19]</text>
<polygon fill="none" stroke="#000000" points="217.5,-191.2 217.5,-213.2 375.5,-213.2 375.5,-191.2 217.5,-191.2"/>
<text text-anchor="start" x="237.5" y="-198.3" font-family="Helvetica,sans-Serif" font-size="11.00" fill="#000000">UPDATED_AT</text>
<polygon fill="none" stroke="#000000" points="375.5,-191.2 375.5,-213.2 546.5,-213.2 546.5,-191.2 375.5,-191.2"/>
<text text-anchor="start" x="378.4896" y="-198.9" font-family="Helvetica,sans-Serif" font-size="11.00" fill="#000000">timestamp(6) with time zone[13,6]</text>
<polygon fill="none" stroke="#000000" points="217.5,-169.2 217.5,-191.2 375.5,-191.2 375.5,-169.2 217.5,-169.2"/>
<text text-anchor="start" x="237.5" y="-176.3" font-family="Helvetica,sans-Serif" font-size="11.00" fill="#000000">UPDATED_BY</text>
<polygon fill="none" stroke="#000000" points="375.5,-169.2 375.5,-191.2 546.5,-191.2 546.5,-169.2 375.5,-169.2"/>
<text text-anchor="start" x="378.5" y="-176.9" font-family="Helvetica,sans-Serif" font-size="11.00" fill="#000000">number[19]</text>
<polygon fill="none" stroke="#000000" points="217.5,-147.2 217.5,-169.2 375.5,-169.2 375.5,-147.2 217.5,-147.2"/>
<text text-anchor="start" x="237.5" y="-154.3" font-family="Helvetica,sans-Serif" font-size="11.00" fill="#000000">COLOR</text>
<polygon fill="none" stroke="#000000" points="375.5,-147.2 375.5,-169.2 546.5,-169.2 546.5,-147.2 375.5,-147.2"/>
<text text-anchor="start" x="378.5" y="-154.9" font-family="Helvetica,sans-Serif" font-size="11.00" fill="#000000">varchar2[255]</text>
<polygon fill="none" stroke="#000000" points="217.5,-125.2 217.5,-147.2 375.5,-147.2 375.5,-125.2 217.5,-125.2"/>
<text text-anchor="start" x="237.5" y="-132.3" font-family="Helvetica,sans-Serif" font-size="11.00" fill="#000000">END_RANGE</text>
<polygon fill="none" stroke="#000000" points="375.5,-125.2 375.5,-147.2 546.5,-147.2 546.5,-125.2 375.5,-125.2"/>
<text text-anchor="start" x="378.5" y="-132.9" font-family="Helvetica,sans-Serif" font-size="11.00" fill="#000000">number[19]</text>
<polygon fill="none" stroke="#000000" points="217.5,-103.2 217.5,-125.2 375.5,-125.2 375.5,-103.2 217.5,-103.2"/>
<image xlink:href="../../images/foreignKeys.png" width="11px" height="12px" preserveAspectRatio="xMinYMin meet" x="222.5" y="-120.2"/>
<text text-anchor="start" x="237.5" y="-110.3" font-family="Helvetica,sans-Serif" font-size="11.00" fill="#000000">ISOFORM_ID</text>
<polygon fill="none" stroke="#000000" points="375.5,-103.2 375.5,-125.2 546.5,-125.2 546.5,-103.2 375.5,-103.2"/>
<text text-anchor="start" x="378.5" y="-110.9" font-family="Helvetica,sans-Serif" font-size="11.00" fill="#000000">number[19]</text>
<polygon fill="none" stroke="#000000" points="217.5,-81.2 217.5,-103.2 375.5,-103.2 375.5,-81.2 217.5,-81.2"/>
<text text-anchor="start" x="237.5" y="-88.3" font-family="Helvetica,sans-Serif" font-size="11.00" fill="#000000">START_RANGE</text>
<polygon fill="none" stroke="#000000" points="375.5,-81.2 375.5,-103.2 546.5,-103.2 546.5,-81.2 375.5,-81.2"/>
<text text-anchor="start" x="378.5" y="-88.9" font-family="Helvetica,sans-Serif" font-size="11.00" fill="#000000">number[19]</text>
<polygon fill="none" stroke="#000000" points="217.5,-59.2 217.5,-81.2 375.5,-81.2 375.5,-59.2 217.5,-59.2"/>
<text text-anchor="start" x="237.5" y="-66.3" font-family="Helvetica,sans-Serif" font-size="11.00" fill="#000000">TITLE</text>
<polygon fill="none" stroke="#000000" points="375.5,-59.2 375.5,-81.2 546.5,-81.2 546.5,-59.2 375.5,-59.2"/>
<text text-anchor="start" x="378.5" y="-66.9" font-family="Helvetica,sans-Serif" font-size="11.00" fill="#000000">varchar2[255]</text>
<polygon fill="#ffffff" stroke="transparent" points="217.5,-40.2 217.5,-59.2 277.5,-59.2 277.5,-40.2 217.5,-40.2"/>
<polygon fill="none" stroke="#000000" points="217.5,-40.2 217.5,-59.2 277.5,-59.2 277.5,-40.2 217.5,-40.2"/>
<text text-anchor="start" x="220.5" y="-46.3" font-family="Helvetica,sans-Serif" font-size="11.00" fill="#000000">&lt; 1</text>
<polygon fill="#ffffff" stroke="transparent" points="277.5,-40.2 277.5,-59.2 375.5,-59.2 375.5,-40.2 277.5,-40.2"/>
<polygon fill="none" stroke="#000000" points="277.5,-40.2 277.5,-59.2 375.5,-59.2 375.5,-40.2 277.5,-40.2"/>
<text text-anchor="start" x="318.7089" y="-46.3" font-family="Helvetica,sans-Serif" font-size="11.00" fill="#000000">4,858 rows</text>
<polygon fill="#ffffff" stroke="transparent" points="375.5,-40.2 375.5,-59.2 546.5,-59.2 546.5,-40.2 375.5,-40.2"/>
<polygon fill="none" stroke="#000000" points="375.5,-40.2 375.5,-59.2 546.5,-59.2 546.5,-40.2 375.5,-40.2"/>
<text text-anchor="start" x="527.9053" y="-46.3" font-family="Helvetica,sans-Serif" font-size="11.00" fill="#000000">3 &gt;</text>
<polygon fill="none" stroke="#000000" stroke-width="2" points="216,-39.2 216,-303.2 547,-303.2 547,-39.2 216,-39.2"/>
</a>
</g>
</g>
<!-- CLONE_FORMS_ISOFORM_VARIANTS&#45;&gt;ISOFORM_VARIANTS -->
<g id="edge1" class="edge">
<title>CLONE_FORMS_ISOFORM_VARIANTS:w&#45;&gt;ISOFORM_VARIANTS:e</title>
<path fill="none" stroke="#000000" d="M587.0308,-390.8298C552.2998,-370.7923 601.6356,-268.2 546.5,-268.2"/>
<polygon fill="#000000" stroke="#000000" points="593.7086,-392.3852 600.6833,-397.7061 597.6043,-393.2926 601.5,-394.2 601.5,-394.2 601.5,-394.2 597.6043,-393.2926 602.3167,-390.6939 593.7086,-392.3852 593.7086,-392.3852"/>
<ellipse fill="none" stroke="#000000" cx="590.592" cy="-391.6592" rx="3.2" ry="3.2"/>
</g>
<!-- ISOFORMS -->
<g id="node3" class="node">
<title>ISOFORMS</title>
<g id="a_node3"><a xlink:href="../../tables/ISOFORMS.html" xlink:title="ISOFORMS" target="_top">
<polygon fill="#ffffff" stroke="transparent" points="8,-43.7 8,-148.7 166,-148.7 166,-43.7 8,-43.7"/>
<polygon fill="#f5f5f5" stroke="transparent" points="8,-125.2 8,-148.2 166,-148.2 166,-125.2 8,-125.2"/>
<polygon fill="none" stroke="#000000" points="8,-125.2 8,-148.2 166,-148.2 166,-125.2 8,-125.2"/>
<text text-anchor="start" x="13" y="-134.3" font-family="Helvetica,sans-Serif" font-weight="bold" font-size="11.00" fill="#000000">ISOFORMS</text>
<text text-anchor="start" x="131.0437" y="-133.3" font-family="Helvetica,sans-Serif" font-size="11.00" fill="#000000">[table]</text>
<polygon fill="none" stroke="#000000" points="8,-103.2 8,-125.2 166,-125.2 166,-103.2 8,-103.2"/>
<image xlink:href="../../images/primaryKeys.png" width="11px" height="12px" preserveAspectRatio="xMinYMin meet" x="13" y="-120.2"/>
<text text-anchor="start" x="28" y="-110.3" font-family="Helvetica,sans-Serif" font-size="11.00" fill="#000000">ID</text>
<polygon fill="none" stroke="#000000" points="8,-81.2 8,-103.2 166,-103.2 166,-81.2 8,-81.2"/>
<image xlink:href="../../images/foreignKeys.png" width="11px" height="12px" preserveAspectRatio="xMinYMin meet" x="13" y="-98.2"/>
<text text-anchor="start" x="28" y="-88.3" font-family="Helvetica,sans-Serif" font-size="11.00" fill="#000000">TARGET_ID</text>
<polygon fill="none" stroke="#000000" points="8,-62.2 8,-81.2 166,-81.2 166,-62.2 8,-62.2"/>
<text text-anchor="start" x="11" y="-68.3" font-family="Helvetica,sans-Serif" font-size="11.00" fill="#000000">...</text>
<polygon fill="#ffffff" stroke="transparent" points="8,-43.2 8,-62.2 59,-62.2 59,-43.2 8,-43.2"/>
<polygon fill="none" stroke="#000000" points="8,-43.2 8,-62.2 59,-62.2 59,-43.2 8,-43.2"/>
<text text-anchor="start" x="11" y="-49.3" font-family="Helvetica,sans-Serif" font-size="11.00" fill="#000000">&lt; 1</text>
<polygon fill="#ffffff" stroke="transparent" points="59,-43.2 59,-62.2 124,-62.2 124,-43.2 59,-43.2"/>
<polygon fill="none" stroke="#000000" points="59,-43.2 59,-62.2 124,-62.2 124,-43.2 59,-43.2"/>
<text text-anchor="start" x="76.3807" y="-49.3" font-family="Helvetica,sans-Serif" font-size="11.00" fill="#000000">519 rows</text>
<polygon fill="#ffffff" stroke="transparent" points="124,-43.2 124,-62.2 166,-62.2 166,-43.2 124,-43.2"/>
<polygon fill="none" stroke="#000000" points="124,-43.2 124,-62.2 166,-62.2 166,-43.2 124,-43.2"/>
<text text-anchor="start" x="141.2904" y="-49.3" font-family="Helvetica,sans-Serif" font-size="11.00" fill="#000000">10 &gt;</text>
</a>
</g>
</g>
<!-- ISOFORM_VARIANTS&#45;&gt;ISOFORMS -->
<g id="edge2" class="edge">
<title>ISOFORM_VARIANTS:w&#45;&gt;ISOFORMS:e</title>
<path fill="none" stroke="#000000" d="M203.0156,-114.2C190.6771,-114.2 183.1667,-114.2 166,-114.2"/>
<polygon fill="#000000" stroke="#000000" points="209.5,-114.2001 217.5,-117.8 213.5,-114.2 217.5,-114.2 217.5,-114.2 217.5,-114.2 213.5,-114.2 217.5,-110.6 209.5,-114.2001 209.5,-114.2001"/>
<ellipse fill="none" stroke="#000000" cx="206.3" cy="-114.2001" rx="3.2" ry="3.2"/>
</g>
<!-- ISOFORM_VARIANTS_REFERENCES -->
<g id="node4" class="node">
<title>ISOFORM_VARIANTS_REFERENCES</title>
<g id="a_node4"><a xlink:href="../../tables/ISOFORM_VARIANTS_REFERENCES.html" xlink:title="ISOFORM_VARIANTS_REFERENCES" target="_top">
<polygon fill="#ffffff" stroke="transparent" points="607,-197.7 607,-324.7 858,-324.7 858,-197.7 607,-197.7"/>
<polygon fill="#f5f5f5" stroke="transparent" points="607.5,-301.2 607.5,-324.2 858.5,-324.2 858.5,-301.2 607.5,-301.2"/>
<polygon fill="none" stroke="#000000" points="607.5,-301.2 607.5,-324.2 858.5,-324.2 858.5,-301.2 607.5,-301.2"/>
<text text-anchor="start" x="612.5" y="-310.3" font-family="Helvetica,sans-Serif" font-weight="bold" font-size="11.00" fill="#000000">ISOFORM_VARIANTS_REFERENCES</text>
<text text-anchor="start" x="823.5437" y="-309.3" font-family="Helvetica,sans-Serif" font-size="11.00" fill="#000000">[table]</text>
<polygon fill="none" stroke="#000000" points="607.5,-279.2 607.5,-301.2 858.5,-301.2 858.5,-279.2 607.5,-279.2"/>
<image xlink:href="../../images/primaryKeys.png" width="11px" height="12px" preserveAspectRatio="xMinYMin meet" x="612.5" y="-296.2"/>
<text text-anchor="start" x="627.5" y="-286.3" font-family="Helvetica,sans-Serif" font-size="11.00" fill="#000000">ID</text>
<polygon fill="none" stroke="#000000" points="607.5,-257.2 607.5,-279.2 858.5,-279.2 858.5,-257.2 607.5,-257.2"/>
<image xlink:href="../../images/foreignKeys.png" width="11px" height="12px" preserveAspectRatio="xMinYMin meet" x="612.5" y="-274.2"/>
<text text-anchor="start" x="627.5" y="-264.3" font-family="Helvetica,sans-Serif" font-size="11.00" fill="#000000">ISOFORM_VARIANT_ID</text>
<polygon fill="none" stroke="#000000" points="607.5,-235.2 607.5,-257.2 858.5,-257.2 858.5,-235.2 607.5,-235.2"/>
<image xlink:href="../../images/foreignKeys.png" width="11px" height="12px" preserveAspectRatio="xMinYMin meet" x="612.5" y="-252.2"/>
<text text-anchor="start" x="627.5" y="-242.3" font-family="Helvetica,sans-Serif" font-size="11.00" fill="#000000">REFERENCE_ID</text>
<polygon fill="none" stroke="#000000" points="607.5,-216.2 607.5,-235.2 858.5,-235.2 858.5,-216.2 607.5,-216.2"/>
<text text-anchor="start" x="610.5" y="-222.3" font-family="Helvetica,sans-Serif" font-size="11.00" fill="#000000">...</text>
<polygon fill="#ffffff" stroke="transparent" points="607.5,-197.2 607.5,-216.2 718.5,-216.2 718.5,-197.2 607.5,-197.2"/>
<polygon fill="none" stroke="#000000" points="607.5,-197.2 607.5,-216.2 718.5,-216.2 718.5,-197.2 607.5,-197.2"/>
<text text-anchor="start" x="610.5" y="-203.3" font-family="Helvetica,sans-Serif" font-size="11.00" fill="#000000">&lt; 2</text>
<polygon fill="#ffffff" stroke="transparent" points="718.5,-197.2 718.5,-216.2 801.5,-216.2 801.5,-197.2 718.5,-197.2"/>
<polygon fill="none" stroke="#000000" points="718.5,-197.2 718.5,-216.2 801.5,-216.2 801.5,-197.2 718.5,-197.2"/>
<text text-anchor="start" x="766.1105" y="-203.3" font-family="Helvetica,sans-Serif" font-size="11.00" fill="#000000">5 rows</text>
<polygon fill="#ffffff" stroke="transparent" points="801.5,-197.2 801.5,-216.2 858.5,-216.2 858.5,-197.2 801.5,-197.2"/>
<polygon fill="none" stroke="#000000" points="801.5,-197.2 801.5,-216.2 858.5,-216.2 858.5,-197.2 801.5,-197.2"/>
<text text-anchor="start" x="849.3862" y="-203.3" font-family="Helvetica,sans-Serif" font-size="11.00" fill="#000000"> &#160;</text>
</a>
</g>
</g>
<!-- ISOFORM_VARIANTS_REFERENCES&#45;&gt;ISOFORM_VARIANTS -->
<g id="edge3" class="edge">
<title>ISOFORM_VARIANTS_REFERENCES:w&#45;&gt;ISOFORM_VARIANTS:e</title>
<path fill="none" stroke="#000000" d="M592.6762,-268.2C576.6248,-268.2 567.8924,-268.2 546.5,-268.2"/>
<polygon fill="#000000" stroke="#000000" points="599.5,-268.2001 607.5,-271.8 603.5,-268.2 607.5,-268.2 607.5,-268.2 607.5,-268.2 603.5,-268.2 607.5,-264.6 599.5,-268.2001 599.5,-268.2001"/>
<ellipse fill="none" stroke="#000000" cx="596.3" cy="-268.2001" rx="3.2" ry="3.2"/>
</g>
<!-- TARGET_FORMS_ISOFORM_VARIANTS -->
<g id="node5" class="node">
<title>TARGET_FORMS_ISOFORM_VARIANTS</title>
<g id="a_node5"><a xlink:href="../../tables/TARGET_FORMS_ISOFORM_VARIANTS.html" xlink:title="TARGET_FORMS_ISOFORM_VARIANTS" target="_top">
<polygon fill="#ffffff" stroke="transparent" points="597,-49.7 597,-176.7 868,-176.7 868,-49.7 597,-49.7"/>
<polygon fill="#f5f5f5" stroke="transparent" points="597.5,-153.2 597.5,-176.2 868.5,-176.2 868.5,-153.2 597.5,-153.2"/>
<polygon fill="none" stroke="#000000" points="597.5,-153.2 597.5,-176.2 868.5,-176.2 868.5,-153.2 597.5,-153.2"/>
<text text-anchor="start" x="602.5" y="-162.3" font-family="Helvetica,sans-Serif" font-weight="bold" font-size="11.00" fill="#000000">TARGET_FORMS_ISOFORM_VARIANTS</text>
<text text-anchor="start" x="833.5437" y="-161.3" font-family="Helvetica,sans-Serif" font-size="11.00" fill="#000000">[table]</text>
<polygon fill="none" stroke="#000000" points="597.5,-131.2 597.5,-153.2 868.5,-153.2 868.5,-131.2 597.5,-131.2"/>
<image xlink:href="../../images/primaryKeys.png" width="11px" height="12px" preserveAspectRatio="xMinYMin meet" x="602.5" y="-148.2"/>
<text text-anchor="start" x="617.5" y="-138.3" font-family="Helvetica,sans-Serif" font-size="11.00" fill="#000000">ID</text>
<polygon fill="none" stroke="#000000" points="597.5,-109.2 597.5,-131.2 868.5,-131.2 868.5,-109.2 597.5,-109.2"/>
<image xlink:href="../../images/primaryKeys.png" width="11px" height="12px" preserveAspectRatio="xMinYMin meet" x="602.5" y="-126.2"/>
<text text-anchor="start" x="617.5" y="-116.3" font-family="Helvetica,sans-Serif" font-size="11.00" fill="#000000">TARGET_FORM_ID</text>
<polygon fill="none" stroke="#000000" points="597.5,-87.2 597.5,-109.2 868.5,-109.2 868.5,-87.2 597.5,-87.2"/>
<image xlink:href="../../images/primaryKeys.png" width="11px" height="12px" preserveAspectRatio="xMinYMin meet" x="602.5" y="-104.2"/>
<text text-anchor="start" x="617.5" y="-94.3" font-family="Helvetica,sans-Serif" font-size="11.00" fill="#000000">ISOFORM_VARIANT_ID</text>
<polygon fill="none" stroke="#000000" points="597.5,-68.2 597.5,-87.2 868.5,-87.2 868.5,-68.2 597.5,-68.2"/>
<text text-anchor="start" x="600.5" y="-74.3" font-family="Helvetica,sans-Serif" font-size="11.00" fill="#000000">...</text>
<polygon fill="#ffffff" stroke="transparent" points="597.5,-49.2 597.5,-68.2 712.5,-68.2 712.5,-49.2 597.5,-49.2"/>
<polygon fill="none" stroke="#000000" points="597.5,-49.2 597.5,-68.2 712.5,-68.2 712.5,-49.2 597.5,-49.2"/>
<text text-anchor="start" x="600.5" y="-55.3" font-family="Helvetica,sans-Serif" font-size="11.00" fill="#000000">&lt; 2</text>
<polygon fill="#ffffff" stroke="transparent" points="712.5,-49.2 712.5,-68.2 809.5,-68.2 809.5,-49.2 712.5,-49.2"/>
<polygon fill="none" stroke="#000000" points="712.5,-49.2 712.5,-68.2 809.5,-68.2 809.5,-49.2 712.5,-49.2"/>
<text text-anchor="start" x="761.8807" y="-55.3" font-family="Helvetica,sans-Serif" font-size="11.00" fill="#000000">108 rows</text>
<polygon fill="#ffffff" stroke="transparent" points="809.5,-49.2 809.5,-68.2 868.5,-68.2 868.5,-49.2 809.5,-49.2"/>
<polygon fill="none" stroke="#000000" points="809.5,-49.2 809.5,-68.2 868.5,-68.2 868.5,-49.2 809.5,-49.2"/>
<text text-anchor="start" x="859.3862" y="-55.3" font-family="Helvetica,sans-Serif" font-size="11.00" fill="#000000"> &#160;</text>
</a>
</g>
</g>
<!-- TARGET_FORMS_ISOFORM_VARIANTS&#45;&gt;ISOFORM_VARIANTS -->
<g id="edge4" class="edge">
<title>TARGET_FORMS_ISOFORM_VARIANTS:w&#45;&gt;ISOFORM_VARIANTS:e</title>
<path fill="none" stroke="#000000" d="M583.167,-100.7351C533.079,-121.8825 619.6818,-268.2 546.5,-268.2"/>
<polygon fill="#000000" stroke="#000000" points="589.6223,-99.5934 598.127,-101.745 593.5611,-98.8967 597.5,-98.2 597.5,-98.2 597.5,-98.2 593.5611,-98.8967 596.873,-94.655 589.6223,-99.5934 589.6223,-99.5934"/>
<ellipse fill="none" stroke="#000000" cx="586.4712" cy="-100.1507" rx="3.2" ry="3.2"/>
</g>
</g>
</svg>
