<?xml version="1.0" encoding="UTF-8" standalone="no"?>
<!DOCTYPE svg PUBLIC "-//W3C//DTD SVG 1.1//EN"
 "http://www.w3.org/Graphics/SVG/1.1/DTD/svg11.dtd">
<!-- Generated by graphviz version 2.40.1 (20161225.0304)
 -->
<!-- Title: oneDegreeRelationshipsDiagram Pages: 1 -->
<svg width="649pt" height="341pt"
 viewBox="0.00 0.00 649.00 340.70" xmlns="http://www.w3.org/2000/svg" xmlns:xlink="http://www.w3.org/1999/xlink">
<g id="graph0" class="graph" transform="scale(1 1) rotate(0) translate(4 336.7)">
<title>oneDegreeRelationshipsDiagram</title>
<polygon fill="#ffffff" stroke="transparent" points="-4,4 -4,-336.7 645,-336.7 645,4 -4,4"/>
<text text-anchor="middle" x="72.4936" y="-7.3" font-family="Helvetica,sans-Serif" font-size="11.00" fill="#000000">Generated by SchemaSpy</text>
<!-- ISOFORM_DOMAINS_REFERENCES -->
<g id="node1" class="node">
<title>ISOFORM_DOMAINS_REFERENCES</title>
<g id="a_node1"><a xlink:href="../../tables/ISOFORM_DOMAINS_REFERENCES.html" xlink:title="ISOFORM_DOMAINS_REFERENCES" target="_top">
<polygon fill="#ffffff" stroke="transparent" points="211,-128.7 211,-328.7 633,-328.7 633,-128.7 211,-128.7"/>
<polygon fill="#f5f5f5" stroke="transparent" points="213,-303.7 213,-326.7 631,-326.7 631,-303.7 213,-303.7"/>
<polygon fill="none" stroke="#000000" points="213,-303.7 213,-326.7 631,-326.7 631,-303.7 213,-303.7"/>
<text text-anchor="start" x="218" y="-312.8" font-family="Helvetica,sans-Serif" font-weight="bold" font-size="11.00" fill="#000000">ISOFORM_DOMAINS_REFERENCES</text>
<text text-anchor="start" x="596.0437" y="-311.8" font-family="Helvetica,sans-Serif" font-size="11.00" fill="#000000">[table]</text>
<polygon fill="none" stroke="#000000" points="213,-281.7 213,-303.7 460,-303.7 460,-281.7 213,-281.7"/>
<image xlink:href="../../images/primaryKeys.png" width="11px" height="12px" preserveAspectRatio="xMinYMin meet" x="218" y="-298.7"/>
<text text-anchor="start" x="233" y="-288.8" font-family="Helvetica,sans-Serif" font-size="11.00" fill="#000000">ID</text>
<polygon fill="none" stroke="#000000" points="460,-281.7 460,-303.7 631,-303.7 631,-281.7 460,-281.7"/>
<text text-anchor="start" x="463" y="-289.4" font-family="Helvetica,sans-Serif" font-size="11.00" fill="#000000">number[19]</text>
<polygon fill="none" stroke="#000000" points="213,-259.7 213,-281.7 460,-281.7 460,-259.7 213,-259.7"/>
<text text-anchor="start" x="233" y="-266.8" font-family="Helvetica,sans-Serif" font-size="11.00" fill="#000000">CREATED_AT</text>
<polygon fill="none" stroke="#000000" points="460,-259.7 460,-281.7 631,-281.7 631,-259.7 460,-259.7"/>
<text text-anchor="start" x="462.9896" y="-267.4" font-family="Helvetica,sans-Serif" font-size="11.00" fill="#000000">timestamp(6) with time zone[13,6]</text>
<polygon fill="none" stroke="#000000" points="213,-237.7 213,-259.7 460,-259.7 460,-237.7 213,-237.7"/>
<text text-anchor="start" x="233" y="-244.8" font-family="Helvetica,sans-Serif" font-size="11.00" fill="#000000">CREATED_BY</text>
<polygon fill="none" stroke="#000000" points="460,-237.7 460,-259.7 631,-259.7 631,-237.7 460,-237.7"/>
<text text-anchor="start" x="463" y="-245.4" font-family="Helvetica,sans-Serif" font-size="11.00" fill="#000000">number[19]</text>
<polygon fill="none" stroke="#000000" points="213,-215.7 213,-237.7 460,-237.7 460,-215.7 213,-215.7"/>
<text text-anchor="start" x="233" y="-222.8" font-family="Helvetica,sans-Serif" font-size="11.00" fill="#000000">UPDATED_AT</text>
<polygon fill="none" stroke="#000000" points="460,-215.7 460,-237.7 631,-237.7 631,-215.7 460,-215.7"/>
<text text-anchor="start" x="462.9896" y="-223.4" font-family="Helvetica,sans-Serif" font-size="11.00" fill="#000000">timestamp(6) with time zone[13,6]</text>
<polygon fill="none" stroke="#000000" points="213,-193.7 213,-215.7 460,-215.7 460,-193.7 213,-193.7"/>
<text text-anchor="start" x="233" y="-200.8" font-family="Helvetica,sans-Serif" font-size="11.00" fill="#000000">UPDATED_BY</text>
<polygon fill="none" stroke="#000000" points="460,-193.7 460,-215.7 631,-215.7 631,-193.7 460,-193.7"/>
<text text-anchor="start" x="463" y="-201.4" font-family="Helvetica,sans-Serif" font-size="11.00" fill="#000000">number[19]</text>
<polygon fill="none" stroke="#000000" points="213,-171.7 213,-193.7 460,-193.7 460,-171.7 213,-171.7"/>
<image xlink:href="../../images/foreignKeys.png" width="11px" height="12px" preserveAspectRatio="xMinYMin meet" x="218" y="-188.7"/>
<text text-anchor="start" x="233" y="-178.8" font-family="Helvetica,sans-Serif" font-size="11.00" fill="#000000">ISOFORM_DOMAIN_ID</text>
<polygon fill="none" stroke="#000000" points="460,-171.7 460,-193.7 631,-193.7 631,-171.7 460,-171.7"/>
<text text-anchor="start" x="463" y="-179.4" font-family="Helvetica,sans-Serif" font-size="11.00" fill="#000000">number[19]</text>
<polygon fill="none" stroke="#000000" points="213,-149.7 213,-171.7 460,-171.7 460,-149.7 213,-149.7"/>
<image xlink:href="../../images/foreignKeys.png" width="11px" height="12px" preserveAspectRatio="xMinYMin meet" x="218" y="-166.7"/>
<text text-anchor="start" x="233" y="-156.8" font-family="Helvetica,sans-Serif" font-size="11.00" fill="#000000">REFERENCE_ID</text>
<polygon fill="none" stroke="#000000" points="460,-149.7 460,-171.7 631,-171.7 631,-149.7 460,-149.7"/>
<text text-anchor="start" x="463" y="-157.4" font-family="Helvetica,sans-Serif" font-size="11.00" fill="#000000">number[19]</text>
<polygon fill="#ffffff" stroke="transparent" points="213,-130.7 213,-149.7 328,-149.7 328,-130.7 213,-130.7"/>
<polygon fill="none" stroke="#000000" points="213,-130.7 213,-149.7 328,-149.7 328,-130.7 213,-130.7"/>
<text text-anchor="start" x="216" y="-136.8" font-family="Helvetica,sans-Serif" font-size="11.00" fill="#000000">&lt; 2</text>
<polygon fill="#ffffff" stroke="transparent" points="328,-130.7 328,-149.7 460,-149.7 460,-130.7 328,-130.7"/>
<polygon fill="none" stroke="#000000" points="328,-130.7 328,-149.7 460,-149.7 460,-130.7 328,-130.7"/>
<text text-anchor="start" x="424.6105" y="-136.8" font-family="Helvetica,sans-Serif" font-size="11.00" fill="#000000">4 rows</text>
<polygon fill="#ffffff" stroke="transparent" points="460,-130.7 460,-149.7 631,-149.7 631,-130.7 460,-130.7"/>
<polygon fill="none" stroke="#000000" points="460,-130.7 460,-149.7 631,-149.7 631,-130.7 460,-130.7"/>
<text text-anchor="start" x="612.4053" y="-136.8" font-family="Helvetica,sans-Serif" font-size="11.00" fill="#000000">0 &gt;</text>
<polygon fill="none" stroke="#000000" stroke-width="2" points="212,-129.7 212,-327.7 632,-327.7 632,-129.7 212,-129.7"/>
</a>
</g>
</g>
<!-- ISOFORM_DOMAINS -->
<g id="node2" class="node">
<title>ISOFORM_DOMAINS</title>
<g id="a_node2"><a xlink:href="../../tables/ISOFORM_DOMAINS.html" xlink:title="ISOFORM_DOMAINS" target="_top">
<polygon fill="#ffffff" stroke="transparent" points="8,-164.2 8,-269.2 162,-269.2 162,-164.2 8,-164.2"/>
<polygon fill="#f5f5f5" stroke="transparent" points="8,-245.7 8,-268.7 162,-268.7 162,-245.7 8,-245.7"/>
<polygon fill="none" stroke="#000000" points="8,-245.7 8,-268.7 162,-268.7 162,-245.7 8,-245.7"/>
<text text-anchor="start" x="13" y="-254.8" font-family="Helvetica,sans-Serif" font-weight="bold" font-size="11.00" fill="#000000">ISOFORM_DOMAINS</text>
<text text-anchor="start" x="127.0437" y="-253.8" font-family="Helvetica,sans-Serif" font-size="11.00" fill="#000000">[table]</text>
<polygon fill="none" stroke="#000000" points="8,-223.7 8,-245.7 162,-245.7 162,-223.7 8,-223.7"/>
<image xlink:href="../../images/primaryKeys.png" width="11px" height="12px" preserveAspectRatio="xMinYMin meet" x="13" y="-240.7"/>
<text text-anchor="start" x="28" y="-230.8" font-family="Helvetica,sans-Serif" font-size="11.00" fill="#000000">ID</text>
<polygon fill="none" stroke="#000000" points="8,-201.7 8,-223.7 162,-223.7 162,-201.7 8,-201.7"/>
<image xlink:href="../../images/foreignKeys.png" width="11px" height="12px" preserveAspectRatio="xMinYMin meet" x="13" y="-218.7"/>
<text text-anchor="start" x="28" y="-208.8" font-family="Helvetica,sans-Serif" font-size="11.00" fill="#000000">ISOFORM_ID</text>
<polygon fill="none" stroke="#000000" points="8,-182.7 8,-201.7 162,-201.7 162,-182.7 8,-182.7"/>
<text text-anchor="start" x="11" y="-188.8" font-family="Helvetica,sans-Serif" font-size="11.00" fill="#000000">...</text>
<polygon fill="#ffffff" stroke="transparent" points="8,-163.7 8,-182.7 60,-182.7 60,-163.7 8,-163.7"/>
<polygon fill="none" stroke="#000000" points="8,-163.7 8,-182.7 60,-182.7 60,-163.7 8,-163.7"/>
<text text-anchor="start" x="11" y="-169.8" font-family="Helvetica,sans-Serif" font-size="11.00" fill="#000000">&lt; 1</text>
<polygon fill="#ffffff" stroke="transparent" points="60,-163.7 60,-182.7 125,-182.7 125,-163.7 60,-163.7"/>
<polygon fill="none" stroke="#000000" points="60,-163.7 60,-182.7 125,-182.7 125,-163.7 60,-163.7"/>
<text text-anchor="start" x="77.3807" y="-169.8" font-family="Helvetica,sans-Serif" font-size="11.00" fill="#000000">727 rows</text>
<polygon fill="#ffffff" stroke="transparent" points="125,-163.7 125,-182.7 162,-182.7 162,-163.7 125,-163.7"/>
<polygon fill="none" stroke="#000000" points="125,-163.7 125,-182.7 162,-182.7 162,-163.7 125,-163.7"/>
<text text-anchor="start" x="143.4053" y="-169.8" font-family="Helvetica,sans-Serif" font-size="11.00" fill="#000000">5 &gt;</text>
</a>
</g>
</g>
<!-- ISOFORM_DOMAINS_REFERENCES&#45;&gt;ISOFORM_DOMAINS -->
<g id="edge1" class="edge">
<title>ISOFORM_DOMAINS_REFERENCES:w&#45;&gt;ISOFORM_DOMAINS:e</title>
<path fill="none" stroke="#000000" d="M199.0468,-187.4988C184.161,-200.3719 188.3017,-234.7 162,-234.7"/>
<polygon fill="#000000" stroke="#000000" points="205.4349,-185.3018 214.1708,-186.1043 209.2175,-184.0009 213,-182.7 213,-182.7 213,-182.7 209.2175,-184.0009 211.8292,-179.2957 205.4349,-185.3018 205.4349,-185.3018"/>
<ellipse fill="none" stroke="#000000" cx="202.4089" cy="-186.3426" rx="3.2" ry="3.2"/>
</g>
<!-- REFERENCES -->
<g id="node3" class="node">
<title>REFERENCES</title>
<g id="a_node3"><a xlink:href="../../tables/REFERENCES.html" xlink:title="REFERENCES" target="_top">
<polygon fill="#ffffff" stroke="transparent" points="21,-38.2 21,-143.2 149,-143.2 149,-38.2 21,-38.2"/>
<polygon fill="#f5f5f5" stroke="transparent" points="21,-119.7 21,-142.7 149,-142.7 149,-119.7 21,-119.7"/>
<polygon fill="none" stroke="#000000" points="21,-119.7 21,-142.7 149,-142.7 149,-119.7 21,-119.7"/>
<text text-anchor="start" x="26" y="-128.8" font-family="Helvetica,sans-Serif" font-weight="bold" font-size="11.00" fill="#000000">REFERENCES</text>
<text text-anchor="start" x="114.0437" y="-127.8" font-family="Helvetica,sans-Serif" font-size="11.00" fill="#000000">[table]</text>
<polygon fill="none" stroke="#000000" points="21,-97.7 21,-119.7 149,-119.7 149,-97.7 21,-97.7"/>
<image xlink:href="../../images/primaryKeys.png" width="11px" height="12px" preserveAspectRatio="xMinYMin meet" x="26" y="-114.7"/>
<text text-anchor="start" x="41" y="-104.8" font-family="Helvetica,sans-Serif" font-size="11.00" fill="#000000">ID</text>
<polygon fill="none" stroke="#000000" points="21,-75.7 21,-97.7 149,-97.7 149,-75.7 21,-75.7"/>
<image xlink:href="../../images/foreignKeys.png" width="11px" height="12px" preserveAspectRatio="xMinYMin meet" x="26" y="-92.7"/>
<text text-anchor="start" x="41" y="-82.8" font-family="Helvetica,sans-Serif" font-size="11.00" fill="#000000">USER_ID</text>
<polygon fill="none" stroke="#000000" points="21,-56.7 21,-75.7 149,-75.7 149,-56.7 21,-56.7"/>
<text text-anchor="start" x="24" y="-62.8" font-family="Helvetica,sans-Serif" font-size="11.00" fill="#000000">...</text>
<polygon fill="#ffffff" stroke="transparent" points="21,-37.7 21,-56.7 52,-56.7 52,-37.7 21,-37.7"/>
<polygon fill="none" stroke="#000000" points="21,-37.7 21,-56.7 52,-56.7 52,-37.7 21,-37.7"/>
<text text-anchor="start" x="24" y="-43.8" font-family="Helvetica,sans-Serif" font-size="11.00" fill="#000000">&lt; 1</text>
<polygon fill="#ffffff" stroke="transparent" points="52,-37.7 52,-56.7 116,-56.7 116,-37.7 52,-37.7"/>
<polygon fill="none" stroke="#000000" points="52,-37.7 52,-56.7 116,-56.7 116,-37.7 52,-37.7"/>
<text text-anchor="start" x="59.2089" y="-43.8" font-family="Helvetica,sans-Serif" font-size="11.00" fill="#000000">2,900 rows</text>
<polygon fill="#ffffff" stroke="transparent" points="116,-37.7 116,-56.7 149,-56.7 149,-37.7 116,-37.7"/>
<polygon fill="none" stroke="#000000" points="116,-37.7 116,-56.7 149,-56.7 149,-37.7 116,-37.7"/>
<text text-anchor="start" x="124.2904" y="-43.8" font-family="Helvetica,sans-Serif" font-size="11.00" fill="#000000">20 &gt;</text>
</a>
</g>
</g>
<!-- ISOFORM_DOMAINS_REFERENCES&#45;&gt;REFERENCES -->
<g id="edge2" class="edge">
<title>ISOFORM_DOMAINS_REFERENCES:w&#45;&gt;REFERENCES:e</title>
<path fill="none" stroke="#000000" d="M198.8353,-157.2881C178.1345,-145.7195 179.9233,-108.7 149,-108.7"/>
<polygon fill="#000000" stroke="#000000" points="205.2224,-158.8266 212.157,-164.1999 209.1112,-159.7633 213,-160.7 213,-160.7 213,-160.7 209.1112,-159.7633 213.843,-157.2001 205.2224,-158.8266 205.2224,-158.8266"/>
<ellipse fill="none" stroke="#000000" cx="202.1114" cy="-158.0772" rx="3.2" ry="3.2"/>
</g>
</g>
</svg>
