<?xml version="1.0" encoding="UTF-8" standalone="no"?>
<!DOCTYPE svg PUBLIC "-//W3C//DTD SVG 1.1//EN"
 "http://www.w3.org/Graphics/SVG/1.1/DTD/svg11.dtd">
<!-- Generated by graphviz version 2.40.1 (20161225.0304)
 -->
<!-- Title: oneDegreeRelationshipsDiagram Pages: 1 -->
<svg width="598pt" height="341pt"
 viewBox="0.00 0.00 598.00 340.70" xmlns="http://www.w3.org/2000/svg" xmlns:xlink="http://www.w3.org/1999/xlink">
<g id="graph0" class="graph" transform="scale(1 1) rotate(0) translate(4 336.7)">
<title>oneDegreeRelationshipsDiagram</title>
<polygon fill="#ffffff" stroke="transparent" points="-4,4 -4,-336.7 594,-336.7 594,4 -4,4"/>
<text text-anchor="middle" x="72.4936" y="-7.3" font-family="Helvetica,sans-Serif" font-size="11.00" fill="#000000">Generated by SchemaSpy</text>
<!-- NOTIFICATION_SETTINGS -->
<g id="node1" class="node">
<title>NOTIFICATION_SETTINGS</title>
<g id="a_node1"><a xlink:href="../../tables/NOTIFICATION_SETTINGS.html" xlink:title="NOTIFICATION_SETTINGS" target="_top">
<polygon fill="#ffffff" stroke="transparent" points="218,-84.7 218,-328.7 582,-328.7 582,-84.7 218,-84.7"/>
<polygon fill="#f5f5f5" stroke="transparent" points="220,-303.7 220,-326.7 580,-326.7 580,-303.7 220,-303.7"/>
<polygon fill="none" stroke="#000000" points="220,-303.7 220,-326.7 580,-326.7 580,-303.7 220,-303.7"/>
<text text-anchor="start" x="225" y="-312.8" font-family="Helvetica,sans-Serif" font-weight="bold" font-size="11.00" fill="#000000">NOTIFICATION_SETTINGS</text>
<text text-anchor="start" x="545.0437" y="-311.8" font-family="Helvetica,sans-Serif" font-size="11.00" fill="#000000">[table]</text>
<polygon fill="none" stroke="#000000" points="220,-281.7 220,-303.7 409,-303.7 409,-281.7 220,-281.7"/>
<image xlink:href="../../images/primaryKeys.png" width="11px" height="12px" preserveAspectRatio="xMinYMin meet" x="225" y="-298.7"/>
<text text-anchor="start" x="240" y="-288.8" font-family="Helvetica,sans-Serif" font-size="11.00" fill="#000000">ID</text>
<polygon fill="none" stroke="#000000" points="409,-281.7 409,-303.7 580,-303.7 580,-281.7 409,-281.7"/>
<text text-anchor="start" x="412" y="-289.4" font-family="Helvetica,sans-Serif" font-size="11.00" fill="#000000">number[19]</text>
<polygon fill="none" stroke="#000000" points="220,-259.7 220,-281.7 409,-281.7 409,-259.7 220,-259.7"/>
<text text-anchor="start" x="240" y="-266.8" font-family="Helvetica,sans-Serif" font-size="11.00" fill="#000000">CREATED_AT</text>
<polygon fill="none" stroke="#000000" points="409,-259.7 409,-281.7 580,-281.7 580,-259.7 409,-259.7"/>
<text text-anchor="start" x="411.9896" y="-267.4" font-family="Helvetica,sans-Serif" font-size="11.00" fill="#000000">timestamp(6) with time zone[13,6]</text>
<polygon fill="none" stroke="#000000" points="220,-237.7 220,-259.7 409,-259.7 409,-237.7 220,-237.7"/>
<text text-anchor="start" x="240" y="-244.8" font-family="Helvetica,sans-Serif" font-size="11.00" fill="#000000">CREATED_BY</text>
<polygon fill="none" stroke="#000000" points="409,-237.7 409,-259.7 580,-259.7 580,-237.7 409,-237.7"/>
<text text-anchor="start" x="412" y="-245.4" font-family="Helvetica,sans-Serif" font-size="11.00" fill="#000000">number[19]</text>
<polygon fill="none" stroke="#000000" points="220,-215.7 220,-237.7 409,-237.7 409,-215.7 220,-215.7"/>
<text text-anchor="start" x="240" y="-222.8" font-family="Helvetica,sans-Serif" font-size="11.00" fill="#000000">UPDATED_AT</text>
<polygon fill="none" stroke="#000000" points="409,-215.7 409,-237.7 580,-237.7 580,-215.7 409,-215.7"/>
<text text-anchor="start" x="411.9896" y="-223.4" font-family="Helvetica,sans-Serif" font-size="11.00" fill="#000000">timestamp(6) with time zone[13,6]</text>
<polygon fill="none" stroke="#000000" points="220,-193.7 220,-215.7 409,-215.7 409,-193.7 220,-193.7"/>
<text text-anchor="start" x="240" y="-200.8" font-family="Helvetica,sans-Serif" font-size="11.00" fill="#000000">UPDATED_BY</text>
<polygon fill="none" stroke="#000000" points="409,-193.7 409,-215.7 580,-215.7 580,-193.7 409,-193.7"/>
<text text-anchor="start" x="412" y="-201.4" font-family="Helvetica,sans-Serif" font-size="11.00" fill="#000000">number[19]</text>
<polygon fill="none" stroke="#000000" points="220,-171.7 220,-193.7 409,-193.7 409,-171.7 220,-171.7"/>
<image xlink:href="../../images/foreignKeys.png" width="11px" height="12px" preserveAspectRatio="xMinYMin meet" x="225" y="-188.7"/>
<text text-anchor="start" x="240" y="-178.8" font-family="Helvetica,sans-Serif" font-size="11.00" fill="#000000">ACTIVITY_TYPE_ID</text>
<polygon fill="none" stroke="#000000" points="409,-171.7 409,-193.7 580,-193.7 580,-171.7 409,-171.7"/>
<text text-anchor="start" x="412" y="-179.4" font-family="Helvetica,sans-Serif" font-size="11.00" fill="#000000">number[19]</text>
<polygon fill="none" stroke="#000000" points="220,-149.7 220,-171.7 409,-171.7 409,-149.7 220,-149.7"/>
<image xlink:href="../../images/foreignKeys.png" width="11px" height="12px" preserveAspectRatio="xMinYMin meet" x="225" y="-166.7"/>
<text text-anchor="start" x="240" y="-156.8" font-family="Helvetica,sans-Serif" font-size="11.00" fill="#000000">ROLE_ID</text>
<polygon fill="none" stroke="#000000" points="409,-149.7 409,-171.7 580,-171.7 580,-149.7 409,-149.7"/>
<text text-anchor="start" x="412" y="-157.4" font-family="Helvetica,sans-Serif" font-size="11.00" fill="#000000">number[19]</text>
<polygon fill="none" stroke="#000000" points="220,-127.7 220,-149.7 409,-149.7 409,-127.7 220,-127.7"/>
<text text-anchor="start" x="240" y="-134.8" font-family="Helvetica,sans-Serif" font-size="11.00" fill="#000000">NOTIFICATION_TYPE</text>
<polygon fill="none" stroke="#000000" points="409,-127.7 409,-149.7 580,-149.7 580,-127.7 409,-127.7"/>
<text text-anchor="start" x="412" y="-135.4" font-family="Helvetica,sans-Serif" font-size="11.00" fill="#000000">varchar2[255]</text>
<polygon fill="none" stroke="#000000" points="220,-105.7 220,-127.7 409,-127.7 409,-105.7 220,-105.7"/>
<text text-anchor="start" x="240" y="-112.8" font-family="Helvetica,sans-Serif" font-size="11.00" fill="#000000">IS_ENABLED</text>
<polygon fill="none" stroke="#000000" points="409,-105.7 409,-127.7 580,-127.7 580,-105.7 409,-105.7"/>
<text text-anchor="start" x="412" y="-113.4" font-family="Helvetica,sans-Serif" font-size="11.00" fill="#000000">number[1]</text>
<polygon fill="#ffffff" stroke="transparent" points="220,-86.7 220,-105.7 300,-105.7 300,-86.7 220,-86.7"/>
<polygon fill="none" stroke="#000000" points="220,-86.7 220,-105.7 300,-105.7 300,-86.7 220,-86.7"/>
<text text-anchor="start" x="223" y="-92.8" font-family="Helvetica,sans-Serif" font-size="11.00" fill="#000000">&lt; 2</text>
<polygon fill="#ffffff" stroke="transparent" points="300,-86.7 300,-105.7 409,-105.7 409,-86.7 300,-86.7"/>
<polygon fill="none" stroke="#000000" points="300,-86.7 300,-105.7 409,-105.7 409,-86.7 300,-86.7"/>
<text text-anchor="start" x="361.3807" y="-92.8" font-family="Helvetica,sans-Serif" font-size="11.00" fill="#000000">108 rows</text>
<polygon fill="#ffffff" stroke="transparent" points="409,-86.7 409,-105.7 580,-105.7 580,-86.7 409,-86.7"/>
<polygon fill="none" stroke="#000000" points="409,-86.7 409,-105.7 580,-105.7 580,-86.7 409,-86.7"/>
<text text-anchor="start" x="561.4053" y="-92.8" font-family="Helvetica,sans-Serif" font-size="11.00" fill="#000000">0 &gt;</text>
<polygon fill="none" stroke="#000000" stroke-width="2" points="219,-85.7 219,-327.7 581,-327.7 581,-85.7 219,-85.7"/>
</a>
</g>
</g>
<!-- ACTIVITY_TYPES -->
<g id="node2" class="node">
<title>ACTIVITY_TYPES</title>
<g id="a_node2"><a xlink:href="../../tables/ACTIVITY_TYPES.html" xlink:title="ACTIVITY_TYPES" target="_top">
<polygon fill="#ffffff" stroke="transparent" points="8,-164.2 8,-269.2 169,-269.2 169,-164.2 8,-164.2"/>
<polygon fill="#f5f5f5" stroke="transparent" points="8.5,-245.7 8.5,-268.7 169.5,-268.7 169.5,-245.7 8.5,-245.7"/>
<polygon fill="none" stroke="#000000" points="8.5,-245.7 8.5,-268.7 169.5,-268.7 169.5,-245.7 8.5,-245.7"/>
<text text-anchor="start" x="13.5" y="-254.8" font-family="Helvetica,sans-Serif" font-weight="bold" font-size="11.00" fill="#000000">ACTIVITY_TYPES</text>
<text text-anchor="start" x="134.5437" y="-253.8" font-family="Helvetica,sans-Serif" font-size="11.00" fill="#000000">[table]</text>
<polygon fill="none" stroke="#000000" points="8.5,-223.7 8.5,-245.7 169.5,-245.7 169.5,-223.7 8.5,-223.7"/>
<image xlink:href="../../images/primaryKeys.png" width="11px" height="12px" preserveAspectRatio="xMinYMin meet" x="13.5" y="-240.7"/>
<text text-anchor="start" x="28.5" y="-230.8" font-family="Helvetica,sans-Serif" font-size="11.00" fill="#000000">ID</text>
<polygon fill="none" stroke="#000000" points="8.5,-201.7 8.5,-223.7 169.5,-223.7 169.5,-201.7 8.5,-201.7"/>
<image xlink:href="../../images/foreignKeys.png" width="11px" height="12px" preserveAspectRatio="xMinYMin meet" x="13.5" y="-218.7"/>
<text text-anchor="start" x="28.5" y="-208.8" font-family="Helvetica,sans-Serif" font-size="11.00" fill="#000000">ACTIVITY_STATUS_ID</text>
<polygon fill="none" stroke="#000000" points="8.5,-182.7 8.5,-201.7 169.5,-201.7 169.5,-182.7 8.5,-182.7"/>
<text text-anchor="start" x="11.5" y="-188.8" font-family="Helvetica,sans-Serif" font-size="11.00" fill="#000000">...</text>
<polygon fill="#ffffff" stroke="transparent" points="8.5,-163.7 8.5,-182.7 66.5,-182.7 66.5,-163.7 8.5,-163.7"/>
<polygon fill="none" stroke="#000000" points="8.5,-163.7 8.5,-182.7 66.5,-182.7 66.5,-163.7 8.5,-163.7"/>
<text text-anchor="start" x="11.5" y="-169.8" font-family="Helvetica,sans-Serif" font-size="11.00" fill="#000000">&lt; 1</text>
<polygon fill="#ffffff" stroke="transparent" points="66.5,-163.7 66.5,-182.7 129.5,-182.7 129.5,-163.7 66.5,-163.7"/>
<polygon fill="none" stroke="#000000" points="66.5,-163.7 66.5,-182.7 129.5,-182.7 129.5,-163.7 66.5,-163.7"/>
<text text-anchor="start" x="87.9956" y="-169.8" font-family="Helvetica,sans-Serif" font-size="11.00" fill="#000000">69 rows</text>
<polygon fill="#ffffff" stroke="transparent" points="129.5,-163.7 129.5,-182.7 169.5,-182.7 169.5,-163.7 129.5,-163.7"/>
<polygon fill="none" stroke="#000000" points="129.5,-163.7 129.5,-182.7 169.5,-182.7 169.5,-163.7 129.5,-163.7"/>
<text text-anchor="start" x="150.9053" y="-169.8" font-family="Helvetica,sans-Serif" font-size="11.00" fill="#000000">3 &gt;</text>
</a>
</g>
</g>
<!-- NOTIFICATION_SETTINGS&#45;&gt;ACTIVITY_TYPES -->
<g id="edge1" class="edge">
<title>NOTIFICATION_SETTINGS:w&#45;&gt;ACTIVITY_TYPES:e</title>
<path fill="none" stroke="#000000" d="M206.1372,-187.4988C191.3861,-200.3719 195.6756,-234.7 169.5,-234.7"/>
<polygon fill="#000000" stroke="#000000" points="212.4401,-185.317 221.1777,-186.1019 216.2201,-184.0085 220,-182.7 220,-182.7 220,-182.7 216.2201,-184.0085 218.8223,-179.2981 212.4401,-185.317 212.4401,-185.317"/>
<ellipse fill="none" stroke="#000000" cx="209.4162" cy="-186.3638" rx="3.2" ry="3.2"/>
</g>
<!-- ROLES -->
<g id="node3" class="node">
<title>ROLES</title>
<g id="a_node3"><a xlink:href="../../tables/ROLES.html" xlink:title="ROLES" target="_top">
<polygon fill="#ffffff" stroke="transparent" points="34.5,-38.2 34.5,-143.2 142.5,-143.2 142.5,-38.2 34.5,-38.2"/>
<polygon fill="#f5f5f5" stroke="transparent" points="34.5,-119.7 34.5,-142.7 142.5,-142.7 142.5,-119.7 34.5,-119.7"/>
<polygon fill="none" stroke="#000000" points="34.5,-119.7 34.5,-142.7 142.5,-142.7 142.5,-119.7 34.5,-119.7"/>
<text text-anchor="start" x="39.5" y="-128.8" font-family="Helvetica,sans-Serif" font-weight="bold" font-size="11.00" fill="#000000">ROLES</text>
<text text-anchor="start" x="107.5437" y="-127.8" font-family="Helvetica,sans-Serif" font-size="11.00" fill="#000000">[table]</text>
<polygon fill="none" stroke="#000000" points="34.5,-97.7 34.5,-119.7 142.5,-119.7 142.5,-97.7 34.5,-97.7"/>
<image xlink:href="../../images/primaryKeys.png" width="11px" height="12px" preserveAspectRatio="xMinYMin meet" x="39.5" y="-114.7"/>
<text text-anchor="start" x="54.5" y="-104.8" font-family="Helvetica,sans-Serif" font-size="11.00" fill="#000000">ID</text>
<polygon fill="none" stroke="#000000" points="34.5,-75.7 34.5,-97.7 142.5,-97.7 142.5,-75.7 34.5,-75.7"/>
<image xlink:href="../../images/primaryKeys.png" width="11px" height="12px" preserveAspectRatio="xMinYMin meet" x="39.5" y="-92.7"/>
<text text-anchor="start" x="54.5" y="-82.8" font-family="Helvetica,sans-Serif" font-size="11.00" fill="#000000">TITLE</text>
<polygon fill="none" stroke="#000000" points="34.5,-56.7 34.5,-75.7 142.5,-75.7 142.5,-56.7 34.5,-56.7"/>
<text text-anchor="start" x="37.5" y="-62.8" font-family="Helvetica,sans-Serif" font-size="11.00" fill="#000000">...</text>
<polygon fill="#ffffff" stroke="transparent" points="34.5,-37.7 34.5,-56.7 61.5,-56.7 61.5,-37.7 34.5,-37.7"/>
<polygon fill="none" stroke="#000000" points="34.5,-37.7 34.5,-56.7 61.5,-56.7 61.5,-37.7 34.5,-37.7"/>
<text text-anchor="start" x="37.5" y="-43.8" font-family="Helvetica,sans-Serif" font-size="11.00" fill="#000000"> &#160;</text>
<polygon fill="#ffffff" stroke="transparent" points="61.5,-37.7 61.5,-56.7 113.5,-56.7 113.5,-37.7 61.5,-37.7"/>
<polygon fill="none" stroke="#000000" points="61.5,-37.7 61.5,-56.7 113.5,-56.7 113.5,-37.7 61.5,-37.7"/>
<text text-anchor="start" x="71.9956" y="-43.8" font-family="Helvetica,sans-Serif" font-size="11.00" fill="#000000">11 rows</text>
<polygon fill="#ffffff" stroke="transparent" points="113.5,-37.7 113.5,-56.7 142.5,-56.7 142.5,-37.7 113.5,-37.7"/>
<polygon fill="none" stroke="#000000" points="113.5,-37.7 113.5,-56.7 142.5,-56.7 142.5,-37.7 113.5,-37.7"/>
<text text-anchor="start" x="123.9053" y="-43.8" font-family="Helvetica,sans-Serif" font-size="11.00" fill="#000000">2 &gt;</text>
</a>
</g>
</g>
<!-- NOTIFICATION_SETTINGS&#45;&gt;ROLES -->
<g id="edge2" class="edge">
<title>NOTIFICATION_SETTINGS:w&#45;&gt;ROLES:e</title>
<path fill="none" stroke="#000000" d="M205.737,-158.1919C179.1426,-147.8047 178.4704,-108.7 142.5,-108.7"/>
<polygon fill="#000000" stroke="#000000" points="212.1209,-159.3145 219.3765,-164.2456 216.0604,-160.0072 220,-160.7 220,-160.7 220,-160.7 216.0604,-160.0072 220.6235,-157.1544 212.1209,-159.3145 212.1209,-159.3145"/>
<ellipse fill="none" stroke="#000000" cx="208.9692" cy="-158.7602" rx="3.2" ry="3.2"/>
</g>
</g>
</svg>
