<?xml version="1.0" encoding="UTF-8" standalone="no"?>
<!DOCTYPE svg PUBLIC "-//W3C//DTD SVG 1.1//EN"
 "http://www.w3.org/Graphics/SVG/1.1/DTD/svg11.dtd">
<!-- Generated by graphviz version 2.40.1 (20161225.0304)
 -->
<!-- Title: oneDegreeRelationshipsDiagram Pages: 1 -->
<svg width="607pt" height="397pt"
 viewBox="0.00 0.00 607.00 397.20" xmlns="http://www.w3.org/2000/svg" xmlns:xlink="http://www.w3.org/1999/xlink">
<g id="graph0" class="graph" transform="scale(1 1) rotate(0) translate(4 393.2)">
<title>oneDegreeRelationshipsDiagram</title>
<polygon fill="#ffffff" stroke="transparent" points="-4,4 -4,-393.2 603,-393.2 603,4 -4,4"/>
<text text-anchor="middle" x="72.4936" y="-7.3" font-family="Helvetica,sans-Serif" font-size="11.00" fill="#000000">Generated by SchemaSpy</text>
<!-- TRACER_SYNTHESIS_REQUESTS -->
<g id="node1" class="node">
<title>TRACER_SYNTHESIS_REQUESTS</title>
<g id="a_node1"><a xlink:href="../../tables/TRACER_SYNTHESIS_REQUESTS.html" xlink:title="TRACER_SYNTHESIS_REQUESTS" target="_top">
<polygon fill="#ffffff" stroke="transparent" points="359,-38.2 359,-385.2 591,-385.2 591,-38.2 359,-38.2"/>
<polygon fill="#f5f5f5" stroke="transparent" points="359,-361.7 359,-384.7 591,-384.7 591,-361.7 359,-361.7"/>
<polygon fill="none" stroke="#000000" points="359,-361.7 359,-384.7 591,-384.7 591,-361.7 359,-361.7"/>
<text text-anchor="start" x="364" y="-370.8" font-family="Helvetica,sans-Serif" font-weight="bold" font-size="11.00" fill="#000000">TRACER_SYNTHESIS_REQUESTS</text>
<text text-anchor="start" x="556.0437" y="-369.8" font-family="Helvetica,sans-Serif" font-size="11.00" fill="#000000">[table]</text>
<polygon fill="none" stroke="#000000" points="359,-339.7 359,-361.7 591,-361.7 591,-339.7 359,-339.7"/>
<image xlink:href="../../images/primaryKeys.png" width="11px" height="12px" preserveAspectRatio="xMinYMin meet" x="364" y="-356.7"/>
<text text-anchor="start" x="379" y="-346.8" font-family="Helvetica,sans-Serif" font-size="11.00" fill="#000000">ID</text>
<polygon fill="none" stroke="#000000" points="359,-317.7 359,-339.7 591,-339.7 591,-317.7 359,-317.7"/>
<image xlink:href="../../images/foreignKeys.png" width="11px" height="12px" preserveAspectRatio="xMinYMin meet" x="364" y="-334.7"/>
<text text-anchor="start" x="379" y="-324.8" font-family="Helvetica,sans-Serif" font-size="11.00" fill="#000000">TRACER_TYPE_ID</text>
<polygon fill="none" stroke="#000000" points="359,-295.7 359,-317.7 591,-317.7 591,-295.7 359,-295.7"/>
<image xlink:href="../../images/foreignKeys.png" width="11px" height="12px" preserveAspectRatio="xMinYMin meet" x="364" y="-312.7"/>
<text text-anchor="start" x="379" y="-302.8" font-family="Helvetica,sans-Serif" font-size="11.00" fill="#000000">TARGET_ID</text>
<polygon fill="none" stroke="#000000" points="359,-273.7 359,-295.7 591,-295.7 591,-273.7 359,-273.7"/>
<image xlink:href="../../images/foreignKeys.png" width="11px" height="12px" preserveAspectRatio="xMinYMin meet" x="364" y="-290.7"/>
<text text-anchor="start" x="379" y="-280.8" font-family="Helvetica,sans-Serif" font-size="11.00" fill="#000000">OFF_DNA_ID</text>
<polygon fill="none" stroke="#000000" points="359,-251.7 359,-273.7 591,-273.7 591,-251.7 359,-251.7"/>
<image xlink:href="../../images/foreignKeys.png" width="11px" height="12px" preserveAspectRatio="xMinYMin meet" x="364" y="-268.7"/>
<text text-anchor="start" x="379" y="-258.8" font-family="Helvetica,sans-Serif" font-size="11.00" fill="#000000">OFF_DNA_IC50_ID</text>
<polygon fill="none" stroke="#000000" points="359,-229.7 359,-251.7 591,-251.7 591,-229.7 359,-229.7"/>
<image xlink:href="../../images/foreignKeys.png" width="11px" height="12px" preserveAspectRatio="xMinYMin meet" x="364" y="-246.7"/>
<text text-anchor="start" x="379" y="-236.8" font-family="Helvetica,sans-Serif" font-size="11.00" fill="#000000">TARGET_FORM_ID</text>
<polygon fill="none" stroke="#000000" points="359,-207.7 359,-229.7 591,-229.7 591,-207.7 359,-207.7"/>
<image xlink:href="../../images/foreignKeys.png" width="11px" height="12px" preserveAspectRatio="xMinYMin meet" x="364" y="-224.7"/>
<text text-anchor="start" x="379" y="-214.8" font-family="Helvetica,sans-Serif" font-size="11.00" fill="#000000">ASSIGNEE_ID</text>
<polygon fill="none" stroke="#000000" points="359,-185.7 359,-207.7 591,-207.7 591,-185.7 359,-185.7"/>
<image xlink:href="../../images/foreignKeys.png" width="11px" height="12px" preserveAspectRatio="xMinYMin meet" x="364" y="-202.7"/>
<text text-anchor="start" x="379" y="-192.8" font-family="Helvetica,sans-Serif" font-size="11.00" fill="#000000">TARGET_CATEGORY_ID</text>
<polygon fill="none" stroke="#000000" points="359,-163.7 359,-185.7 591,-185.7 591,-163.7 359,-163.7"/>
<image xlink:href="../../images/foreignKeys.png" width="11px" height="12px" preserveAspectRatio="xMinYMin meet" x="364" y="-180.7"/>
<text text-anchor="start" x="379" y="-170.8" font-family="Helvetica,sans-Serif" font-size="11.00" fill="#000000">CHEMISTRY_ID</text>
<polygon fill="none" stroke="#000000" points="359,-141.7 359,-163.7 591,-163.7 591,-141.7 359,-141.7"/>
<image xlink:href="../../images/foreignKeys.png" width="11px" height="12px" preserveAspectRatio="xMinYMin meet" x="364" y="-158.7"/>
<text text-anchor="start" x="379" y="-148.8" font-family="Helvetica,sans-Serif" font-size="11.00" fill="#000000">REGISTRATION_ID</text>
<polygon fill="none" stroke="#000000" points="359,-119.7 359,-141.7 591,-141.7 591,-119.7 359,-119.7"/>
<image xlink:href="../../images/foreignKeys.png" width="11px" height="12px" preserveAspectRatio="xMinYMin meet" x="364" y="-136.7"/>
<text text-anchor="start" x="379" y="-126.8" font-family="Helvetica,sans-Serif" font-size="11.00" fill="#000000">HEAD_PIECE_ID</text>
<polygon fill="none" stroke="#000000" points="359,-97.7 359,-119.7 591,-119.7 591,-97.7 359,-97.7"/>
<image xlink:href="../../images/foreignKeys.png" width="11px" height="12px" preserveAspectRatio="xMinYMin meet" x="364" y="-114.7"/>
<text text-anchor="start" x="379" y="-104.8" font-family="Helvetica,sans-Serif" font-size="11.00" fill="#000000">QUANTIFICATION_METHOD_ID</text>
<polygon fill="none" stroke="#000000" points="359,-75.7 359,-97.7 591,-97.7 591,-75.7 359,-75.7"/>
<image xlink:href="../../images/foreignKeys.png" width="11px" height="12px" preserveAspectRatio="xMinYMin meet" x="364" y="-92.7"/>
<text text-anchor="start" x="379" y="-82.8" font-family="Helvetica,sans-Serif" font-size="11.00" fill="#000000">DELIVERED_CONDITION_ID</text>
<polygon fill="none" stroke="#000000" points="359,-56.7 359,-75.7 591,-75.7 591,-56.7 359,-56.7"/>
<text text-anchor="start" x="362" y="-62.8" font-family="Helvetica,sans-Serif" font-size="11.00" fill="#000000">...</text>
<polygon fill="#ffffff" stroke="transparent" points="359,-37.7 359,-56.7 456,-56.7 456,-37.7 359,-37.7"/>
<polygon fill="none" stroke="#000000" points="359,-37.7 359,-56.7 456,-56.7 456,-37.7 359,-37.7"/>
<text text-anchor="start" x="362" y="-43.8" font-family="Helvetica,sans-Serif" font-size="11.00" fill="#000000">&lt; 12</text>
<polygon fill="#ffffff" stroke="transparent" points="456,-37.7 456,-56.7 535,-56.7 535,-37.7 456,-37.7"/>
<polygon fill="none" stroke="#000000" points="456,-37.7 456,-56.7 535,-56.7 535,-37.7 456,-37.7"/>
<text text-anchor="start" x="493.4956" y="-43.8" font-family="Helvetica,sans-Serif" font-size="11.00" fill="#000000">21 rows</text>
<polygon fill="#ffffff" stroke="transparent" points="535,-37.7 535,-56.7 591,-56.7 591,-37.7 535,-37.7"/>
<polygon fill="none" stroke="#000000" points="535,-37.7 535,-56.7 591,-56.7 591,-37.7 535,-37.7"/>
<text text-anchor="start" x="572.4053" y="-43.8" font-family="Helvetica,sans-Serif" font-size="11.00" fill="#000000">2 &gt;</text>
</a>
</g>
</g>
<!-- OFF_DNAS_IC50 -->
<g id="node2" class="node">
<title>OFF_DNAS_IC50</title>
<g id="a_node2"><a xlink:href="../../tables/OFF_DNAS_IC50.html" xlink:title="OFF_DNAS_IC50" target="_top">
<polygon fill="#ffffff" stroke="transparent" points="8,-120.7 8,-298.7 310,-298.7 310,-120.7 8,-120.7"/>
<polygon fill="#f5f5f5" stroke="transparent" points="10,-273.7 10,-296.7 308,-296.7 308,-273.7 10,-273.7"/>
<polygon fill="none" stroke="#000000" points="10,-273.7 10,-296.7 308,-296.7 308,-273.7 10,-273.7"/>
<text text-anchor="start" x="15" y="-282.8" font-family="Helvetica,sans-Serif" font-weight="bold" font-size="11.00" fill="#000000">OFF_DNAS_IC50</text>
<text text-anchor="start" x="273.0437" y="-281.8" font-family="Helvetica,sans-Serif" font-size="11.00" fill="#000000">[table]</text>
<polygon fill="none" stroke="#000000" points="10,-251.7 10,-273.7 137,-273.7 137,-251.7 10,-251.7"/>
<image xlink:href="../../images/primaryKeys.png" width="11px" height="12px" preserveAspectRatio="xMinYMin meet" x="15" y="-268.7"/>
<text text-anchor="start" x="30" y="-258.8" font-family="Helvetica,sans-Serif" font-size="11.00" fill="#000000">ID</text>
<polygon fill="none" stroke="#000000" points="137,-251.7 137,-273.7 308,-273.7 308,-251.7 137,-251.7"/>
<text text-anchor="start" x="140" y="-259.4" font-family="Helvetica,sans-Serif" font-size="11.00" fill="#000000">number[19]</text>
<polygon fill="none" stroke="#000000" points="10,-229.7 10,-251.7 137,-251.7 137,-229.7 10,-229.7"/>
<text text-anchor="start" x="30" y="-236.8" font-family="Helvetica,sans-Serif" font-size="11.00" fill="#000000">CREATED_AT</text>
<polygon fill="none" stroke="#000000" points="137,-229.7 137,-251.7 308,-251.7 308,-229.7 137,-229.7"/>
<text text-anchor="start" x="139.9896" y="-237.4" font-family="Helvetica,sans-Serif" font-size="11.00" fill="#000000">timestamp(6) with time zone[13,6]</text>
<polygon fill="none" stroke="#000000" points="10,-207.7 10,-229.7 137,-229.7 137,-207.7 10,-207.7"/>
<text text-anchor="start" x="30" y="-214.8" font-family="Helvetica,sans-Serif" font-size="11.00" fill="#000000">CREATED_BY</text>
<polygon fill="none" stroke="#000000" points="137,-207.7 137,-229.7 308,-229.7 308,-207.7 137,-207.7"/>
<text text-anchor="start" x="140" y="-215.4" font-family="Helvetica,sans-Serif" font-size="11.00" fill="#000000">number[19]</text>
<polygon fill="none" stroke="#000000" points="10,-185.7 10,-207.7 137,-207.7 137,-185.7 10,-185.7"/>
<text text-anchor="start" x="30" y="-192.8" font-family="Helvetica,sans-Serif" font-size="11.00" fill="#000000">UPDATED_AT</text>
<polygon fill="none" stroke="#000000" points="137,-185.7 137,-207.7 308,-207.7 308,-185.7 137,-185.7"/>
<text text-anchor="start" x="139.9896" y="-193.4" font-family="Helvetica,sans-Serif" font-size="11.00" fill="#000000">timestamp(6) with time zone[13,6]</text>
<polygon fill="none" stroke="#000000" points="10,-163.7 10,-185.7 137,-185.7 137,-163.7 10,-163.7"/>
<text text-anchor="start" x="30" y="-170.8" font-family="Helvetica,sans-Serif" font-size="11.00" fill="#000000">UPDATED_BY</text>
<polygon fill="none" stroke="#000000" points="137,-163.7 137,-185.7 308,-185.7 308,-163.7 137,-163.7"/>
<text text-anchor="start" x="140" y="-171.4" font-family="Helvetica,sans-Serif" font-size="11.00" fill="#000000">number[19]</text>
<polygon fill="none" stroke="#000000" points="10,-141.7 10,-163.7 137,-163.7 137,-141.7 10,-141.7"/>
<text text-anchor="start" x="30" y="-148.8" font-family="Helvetica,sans-Serif" font-size="11.00" fill="#000000">NAME</text>
<polygon fill="none" stroke="#000000" points="137,-141.7 137,-163.7 308,-163.7 308,-141.7 137,-141.7"/>
<text text-anchor="start" x="140" y="-149.4" font-family="Helvetica,sans-Serif" font-size="11.00" fill="#000000">varchar2[255]</text>
<polygon fill="#ffffff" stroke="transparent" points="10,-122.7 10,-141.7 65,-141.7 65,-122.7 10,-122.7"/>
<polygon fill="none" stroke="#000000" points="10,-122.7 10,-141.7 65,-141.7 65,-122.7 10,-122.7"/>
<text text-anchor="start" x="13" y="-128.8" font-family="Helvetica,sans-Serif" font-size="11.00" fill="#000000">&lt; 0</text>
<polygon fill="#ffffff" stroke="transparent" points="65,-122.7 65,-141.7 137,-141.7 137,-122.7 65,-122.7"/>
<polygon fill="none" stroke="#000000" points="65,-122.7 65,-141.7 137,-141.7 137,-122.7 65,-122.7"/>
<text text-anchor="start" x="101.6105" y="-128.8" font-family="Helvetica,sans-Serif" font-size="11.00" fill="#000000">4 rows</text>
<polygon fill="#ffffff" stroke="transparent" points="137,-122.7 137,-141.7 308,-141.7 308,-122.7 137,-122.7"/>
<polygon fill="none" stroke="#000000" points="137,-122.7 137,-141.7 308,-141.7 308,-122.7 137,-122.7"/>
<text text-anchor="start" x="289.4053" y="-128.8" font-family="Helvetica,sans-Serif" font-size="11.00" fill="#000000">1 &gt;</text>
<polygon fill="none" stroke="#000000" stroke-width="2" points="9,-121.7 9,-297.7 309,-297.7 309,-121.7 9,-121.7"/>
</a>
</g>
</g>
<!-- TRACER_SYNTHESIS_REQUESTS&#45;&gt;OFF_DNAS_IC50 -->
<g id="edge1" class="edge">
<title>TRACER_SYNTHESIS_REQUESTS:w&#45;&gt;OFF_DNAS_IC50:e</title>
<path fill="none" stroke="#000000" d="M344.276,-262.7C332.2815,-262.7 324.8229,-262.7 308,-262.7"/>
<polygon fill="#000000" stroke="#000000" points="351,-262.7001 359,-266.3 355,-262.7 359,-262.7 359,-262.7 359,-262.7 355,-262.7 359,-259.1 351,-262.7001 351,-262.7001"/>
<ellipse fill="none" stroke="#000000" cx="347.8" cy="-262.7001" rx="3.2" ry="3.2"/>
</g>
</g>
</svg>
