<?xml version="1.0" encoding="UTF-8" standalone="no"?>
<!DOCTYPE svg PUBLIC "-//W3C//DTD SVG 1.1//EN"
 "http://www.w3.org/Graphics/SVG/1.1/DTD/svg11.dtd">
<!-- Generated by graphviz version 2.40.1 (20161225.0304)
 -->
<!-- Title: twoDegreesRelationshipsDiagram Pages: 1 -->
<svg width="836pt" height="364pt"
 viewBox="0.00 0.00 836.00 363.70" xmlns="http://www.w3.org/2000/svg" xmlns:xlink="http://www.w3.org/1999/xlink">
<g id="graph0" class="graph" transform="scale(1 1) rotate(0) translate(4 359.7)">
<title>twoDegreesRelationshipsDiagram</title>
<polygon fill="#ffffff" stroke="transparent" points="-4,4 -4,-359.7 832,-359.7 832,4 -4,4"/>
<text text-anchor="middle" x="72.4936" y="-7.3" font-family="Helvetica,sans-Serif" font-size="11.00" fill="#000000">Generated by SchemaSpy</text>
<!-- VERSIONS_PARTS -->
<g id="node1" class="node">
<title>VERSIONS_PARTS</title>
<g id="a_node1"><a xlink:href="../../tables/VERSIONS_PARTS.html" xlink:title="VERSIONS_PARTS" target="_top">
<polygon fill="#ffffff" stroke="transparent" points="340,-184.7 340,-311.7 482,-311.7 482,-184.7 340,-184.7"/>
<polygon fill="#f5f5f5" stroke="transparent" points="340,-288.2 340,-311.2 482,-311.2 482,-288.2 340,-288.2"/>
<polygon fill="none" stroke="#000000" points="340,-288.2 340,-311.2 482,-311.2 482,-288.2 340,-288.2"/>
<text text-anchor="start" x="344.6887" y="-297.3" font-family="Helvetica,sans-Serif" font-weight="bold" font-size="11.00" fill="#000000">VERSIONS_PARTS</text>
<text text-anchor="start" x="447.5219" y="-296.3" font-family="Helvetica,sans-Serif" font-size="11.00" fill="#000000">[table]</text>
<polygon fill="none" stroke="#000000" points="340,-266.2 340,-288.2 482,-288.2 482,-266.2 340,-266.2"/>
<image xlink:href="../../images/primaryKeys.png" width="11px" height="12px" preserveAspectRatio="xMinYMin meet" x="345" y="-283.2"/>
<text text-anchor="start" x="362" y="-273.3" font-family="Helvetica,sans-Serif" font-size="11.00" fill="#000000">ID</text>
<polygon fill="none" stroke="#000000" points="340,-244.2 340,-266.2 482,-266.2 482,-244.2 340,-244.2"/>
<image xlink:href="../../images/primaryKeys.png" width="11px" height="12px" preserveAspectRatio="xMinYMin meet" x="345" y="-261.2"/>
<text text-anchor="start" x="362" y="-251.3" font-family="Helvetica,sans-Serif" font-size="11.00" fill="#000000">VERSION_ID</text>
<polygon fill="none" stroke="#000000" points="340,-222.2 340,-244.2 482,-244.2 482,-222.2 340,-222.2"/>
<image xlink:href="../../images/primaryKeys.png" width="11px" height="12px" preserveAspectRatio="xMinYMin meet" x="345" y="-239.2"/>
<text text-anchor="start" x="362" y="-229.3" font-family="Helvetica,sans-Serif" font-size="11.00" fill="#000000">PART_ID</text>
<polygon fill="none" stroke="#000000" points="340,-203.2 340,-222.2 482,-222.2 482,-203.2 340,-203.2"/>
<text text-anchor="start" x="343" y="-209.3" font-family="Helvetica,sans-Serif" font-size="11.00" fill="#000000">...</text>
<polygon fill="#ffffff" stroke="transparent" points="340,-184.2 340,-203.2 386,-203.2 386,-184.2 340,-184.2"/>
<polygon fill="none" stroke="#000000" points="340,-184.2 340,-203.2 386,-203.2 386,-184.2 340,-184.2"/>
<text text-anchor="start" x="343" y="-190.3" font-family="Helvetica,sans-Serif" font-size="11.00" fill="#000000">&lt; 2</text>
<polygon fill="#ffffff" stroke="transparent" points="386,-184.2 386,-203.2 448,-203.2 448,-184.2 386,-184.2"/>
<polygon fill="none" stroke="#000000" points="386,-184.2 386,-203.2 448,-203.2 448,-184.2 386,-184.2"/>
<text text-anchor="start" x="400.3807" y="-190.3" font-family="Helvetica,sans-Serif" font-size="11.00" fill="#000000">449 rows</text>
<polygon fill="#ffffff" stroke="transparent" points="448,-184.2 448,-203.2 482,-203.2 482,-184.2 448,-184.2"/>
<polygon fill="none" stroke="#000000" points="448,-184.2 448,-203.2 482,-203.2 482,-184.2 448,-184.2"/>
<text text-anchor="start" x="463.4053" y="-190.3" font-family="Helvetica,sans-Serif" font-size="11.00" fill="#000000">2 &gt;</text>
</a>
</g>
</g>
<!-- PARTS -->
<g id="node2" class="node">
<title>PARTS</title>
<g id="a_node2"><a xlink:href="../../tables/PARTS.html" xlink:title="PARTS" target="_top">
<polygon fill="#ffffff" stroke="transparent" points="8,-38.2 8,-238.2 291,-238.2 291,-38.2 8,-38.2"/>
<polygon fill="#f5f5f5" stroke="transparent" points="10.5,-213.2 10.5,-236.2 289.5,-236.2 289.5,-213.2 10.5,-213.2"/>
<polygon fill="none" stroke="#000000" points="10.5,-213.2 10.5,-236.2 289.5,-236.2 289.5,-213.2 10.5,-213.2"/>
<text text-anchor="start" x="15.5" y="-222.3" font-family="Helvetica,sans-Serif" font-weight="bold" font-size="11.00" fill="#000000">PARTS</text>
<text text-anchor="start" x="254.5437" y="-221.3" font-family="Helvetica,sans-Serif" font-size="11.00" fill="#000000">[table]</text>
<polygon fill="none" stroke="#000000" points="10.5,-191.2 10.5,-213.2 118.5,-213.2 118.5,-191.2 10.5,-191.2"/>
<image xlink:href="../../images/primaryKeys.png" width="11px" height="12px" preserveAspectRatio="xMinYMin meet" x="15.5" y="-208.2"/>
<text text-anchor="start" x="30.5" y="-198.3" font-family="Helvetica,sans-Serif" font-size="11.00" fill="#000000">ID</text>
<polygon fill="none" stroke="#000000" points="118.5,-191.2 118.5,-213.2 289.5,-213.2 289.5,-191.2 118.5,-191.2"/>
<text text-anchor="start" x="121.5" y="-198.9" font-family="Helvetica,sans-Serif" font-size="11.00" fill="#000000">number[19]</text>
<polygon fill="none" stroke="#000000" points="10.5,-169.2 10.5,-191.2 118.5,-191.2 118.5,-169.2 10.5,-169.2"/>
<text text-anchor="start" x="30.5" y="-176.3" font-family="Helvetica,sans-Serif" font-size="11.00" fill="#000000">CREATED_AT</text>
<polygon fill="none" stroke="#000000" points="118.5,-169.2 118.5,-191.2 289.5,-191.2 289.5,-169.2 118.5,-169.2"/>
<text text-anchor="start" x="121.4896" y="-176.9" font-family="Helvetica,sans-Serif" font-size="11.00" fill="#000000">timestamp(6) with time zone[13,6]</text>
<polygon fill="none" stroke="#000000" points="10.5,-147.2 10.5,-169.2 118.5,-169.2 118.5,-147.2 10.5,-147.2"/>
<text text-anchor="start" x="30.5" y="-154.3" font-family="Helvetica,sans-Serif" font-size="11.00" fill="#000000">CREATED_BY</text>
<polygon fill="none" stroke="#000000" points="118.5,-147.2 118.5,-169.2 289.5,-169.2 289.5,-147.2 118.5,-147.2"/>
<text text-anchor="start" x="121.5" y="-154.9" font-family="Helvetica,sans-Serif" font-size="11.00" fill="#000000">number[19]</text>
<polygon fill="none" stroke="#000000" points="10.5,-125.2 10.5,-147.2 118.5,-147.2 118.5,-125.2 10.5,-125.2"/>
<text text-anchor="start" x="30.5" y="-132.3" font-family="Helvetica,sans-Serif" font-size="11.00" fill="#000000">UPDATED_AT</text>
<polygon fill="none" stroke="#000000" points="118.5,-125.2 118.5,-147.2 289.5,-147.2 289.5,-125.2 118.5,-125.2"/>
<text text-anchor="start" x="121.4896" y="-132.9" font-family="Helvetica,sans-Serif" font-size="11.00" fill="#000000">timestamp(6) with time zone[13,6]</text>
<polygon fill="none" stroke="#000000" points="10.5,-103.2 10.5,-125.2 118.5,-125.2 118.5,-103.2 10.5,-103.2"/>
<text text-anchor="start" x="30.5" y="-110.3" font-family="Helvetica,sans-Serif" font-size="11.00" fill="#000000">UPDATED_BY</text>
<polygon fill="none" stroke="#000000" points="118.5,-103.2 118.5,-125.2 289.5,-125.2 289.5,-103.2 118.5,-103.2"/>
<text text-anchor="start" x="121.5" y="-110.9" font-family="Helvetica,sans-Serif" font-size="11.00" fill="#000000">number[19]</text>
<polygon fill="none" stroke="#000000" points="10.5,-81.2 10.5,-103.2 118.5,-103.2 118.5,-81.2 10.5,-81.2"/>
<text text-anchor="start" x="30.5" y="-88.3" font-family="Helvetica,sans-Serif" font-size="11.00" fill="#000000">NAME</text>
<polygon fill="none" stroke="#000000" points="118.5,-81.2 118.5,-103.2 289.5,-103.2 289.5,-81.2 118.5,-81.2"/>
<text text-anchor="start" x="121.5" y="-88.9" font-family="Helvetica,sans-Serif" font-size="11.00" fill="#000000">varchar2[255]</text>
<polygon fill="none" stroke="#000000" points="10.5,-59.2 10.5,-81.2 118.5,-81.2 118.5,-59.2 10.5,-59.2"/>
<text text-anchor="start" x="30.5" y="-66.3" font-family="Helvetica,sans-Serif" font-size="11.00" fill="#000000">IS_DELETED</text>
<polygon fill="none" stroke="#000000" points="118.5,-59.2 118.5,-81.2 289.5,-81.2 289.5,-59.2 118.5,-59.2"/>
<text text-anchor="start" x="121.5" y="-66.9" font-family="Helvetica,sans-Serif" font-size="11.00" fill="#000000">number[1]</text>
<polygon fill="#ffffff" stroke="transparent" points="10.5,-40.2 10.5,-59.2 49.5,-59.2 49.5,-40.2 10.5,-40.2"/>
<polygon fill="none" stroke="#000000" points="10.5,-40.2 10.5,-59.2 49.5,-59.2 49.5,-40.2 10.5,-40.2"/>
<text text-anchor="start" x="13.5" y="-46.3" font-family="Helvetica,sans-Serif" font-size="11.00" fill="#000000">&lt; 0</text>
<polygon fill="#ffffff" stroke="transparent" points="49.5,-40.2 49.5,-59.2 118.5,-59.2 118.5,-40.2 49.5,-40.2"/>
<polygon fill="none" stroke="#000000" points="49.5,-40.2 49.5,-59.2 118.5,-59.2 118.5,-40.2 49.5,-40.2"/>
<text text-anchor="start" x="70.8807" y="-46.3" font-family="Helvetica,sans-Serif" font-size="11.00" fill="#000000">118 rows</text>
<polygon fill="#ffffff" stroke="transparent" points="118.5,-40.2 118.5,-59.2 289.5,-59.2 289.5,-40.2 118.5,-40.2"/>
<polygon fill="none" stroke="#000000" points="118.5,-40.2 118.5,-59.2 289.5,-59.2 289.5,-40.2 118.5,-40.2"/>
<text text-anchor="start" x="270.9053" y="-46.3" font-family="Helvetica,sans-Serif" font-size="11.00" fill="#000000">1 &gt;</text>
<polygon fill="none" stroke="#000000" stroke-width="2" points="9,-39.2 9,-237.2 290,-237.2 290,-39.2 9,-39.2"/>
</a>
</g>
</g>
<!-- VERSIONS_PARTS&#45;&gt;PARTS -->
<g id="edge1" class="edge">
<title>VERSIONS_PARTS:w&#45;&gt;PARTS:e</title>
<path fill="none" stroke="#000000" d="M325.8267,-229.1473C313.1849,-220.7444 309.8692,-202.2 289.5,-202.2"/>
<polygon fill="#000000" stroke="#000000" points="332.3083,-231.0006 339.0103,-236.6613 336.1541,-232.1003 340,-233.2 340,-233.2 340,-233.2 336.1541,-232.1003 340.9897,-229.7387 332.3083,-231.0006 332.3083,-231.0006"/>
<ellipse fill="none" stroke="#000000" cx="329.2316" cy="-230.1208" rx="3.2" ry="3.2"/>
</g>
<!-- VERSIONS -->
<g id="node3" class="node">
<title>VERSIONS</title>
<g id="a_node3"><a xlink:href="../../tables/VERSIONS.html" xlink:title="VERSIONS" target="_top">
<polygon fill="#ffffff" stroke="transparent" points="100,-259.7 100,-320.7 199,-320.7 199,-259.7 100,-259.7"/>
<polygon fill="#f5f5f5" stroke="transparent" points="100.5,-297.2 100.5,-320.2 199.5,-320.2 199.5,-297.2 100.5,-297.2"/>
<polygon fill="none" stroke="#000000" points="100.5,-297.2 100.5,-320.2 199.5,-320.2 199.5,-297.2 100.5,-297.2"/>
<text text-anchor="start" x="105.0804" y="-306.3" font-family="Helvetica,sans-Serif" font-weight="bold" font-size="11.00" fill="#000000">VERSIONS</text>
<text text-anchor="start" x="165.0219" y="-305.3" font-family="Helvetica,sans-Serif" font-size="11.00" fill="#000000">[table]</text>
<polygon fill="none" stroke="#000000" points="100.5,-278.2 100.5,-297.2 199.5,-297.2 199.5,-278.2 100.5,-278.2"/>
<text text-anchor="start" x="103.5" y="-284.3" font-family="Helvetica,sans-Serif" font-size="11.00" fill="#000000">...</text>
<polygon fill="#ffffff" stroke="transparent" points="100.5,-259.2 100.5,-278.2 124.5,-278.2 124.5,-259.2 100.5,-259.2"/>
<polygon fill="none" stroke="#000000" points="100.5,-259.2 100.5,-278.2 124.5,-278.2 124.5,-259.2 100.5,-259.2"/>
<text text-anchor="start" x="103.5" y="-265.3" font-family="Helvetica,sans-Serif" font-size="11.00" fill="#000000">&lt; 1</text>
<polygon fill="#ffffff" stroke="transparent" points="124.5,-259.2 124.5,-278.2 176.5,-278.2 176.5,-259.2 124.5,-259.2"/>
<polygon fill="none" stroke="#000000" points="124.5,-259.2 124.5,-278.2 176.5,-278.2 176.5,-259.2 124.5,-259.2"/>
<text text-anchor="start" x="128.8807" y="-265.3" font-family="Helvetica,sans-Serif" font-size="11.00" fill="#000000">222 rows</text>
<polygon fill="#ffffff" stroke="transparent" points="176.5,-259.2 176.5,-278.2 199.5,-278.2 199.5,-259.2 176.5,-259.2"/>
<polygon fill="none" stroke="#000000" points="176.5,-259.2 176.5,-278.2 199.5,-278.2 199.5,-259.2 176.5,-259.2"/>
<text text-anchor="start" x="180.9053" y="-265.3" font-family="Helvetica,sans-Serif" font-size="11.00" fill="#000000">4 &gt;</text>
</a>
</g>
</g>
<!-- VERSIONS_PARTS&#45;&gt;VERSIONS -->
<g id="edge2" class="edge">
<title>VERSIONS_PARTS:w&#45;&gt;VERSIONS:e</title>
<path fill="none" stroke="#000000" d="M325.5548,-255.7827C273.6373,-260.1198 258.4151,-287.2 199.5,-287.2"/>
<polygon fill="#000000" stroke="#000000" points="332.0065,-255.5225 340.1451,-258.7971 336.0033,-255.3613 340,-255.2 340,-255.2 340,-255.2 336.0033,-255.3613 339.8549,-251.6029 332.0065,-255.5225 332.0065,-255.5225"/>
<ellipse fill="none" stroke="#000000" cx="328.8091" cy="-255.6515" rx="3.2" ry="3.2"/>
</g>
<!-- VERSIONS_PARTS_SCREENING_CONDITIONS -->
<g id="node4" class="node">
<title>VERSIONS_PARTS_SCREENING_CONDITIONS</title>
<g id="a_node4"><a xlink:href="../../tables/VERSIONS_PARTS_SCREENING_CONDITIONS.html" xlink:title="VERSIONS_PARTS_SCREENING_CONDITIONS" target="_top">
<polygon fill="#ffffff" stroke="transparent" points="531,-290.7 531,-351.7 820,-351.7 820,-290.7 531,-290.7"/>
<polygon fill="#f5f5f5" stroke="transparent" points="531.5,-328.2 531.5,-351.2 820.5,-351.2 820.5,-328.2 531.5,-328.2"/>
<polygon fill="none" stroke="#000000" points="531.5,-328.2 531.5,-351.2 820.5,-351.2 820.5,-328.2 531.5,-328.2"/>
<text text-anchor="start" x="536.3578" y="-337.3" font-family="Helvetica,sans-Serif" font-weight="bold" font-size="11.00" fill="#000000">VERSIONS_PARTS_SCREENING_CONDITIONS</text>
<text text-anchor="start" x="786.0219" y="-336.3" font-family="Helvetica,sans-Serif" font-size="11.00" fill="#000000">[table]</text>
<polygon fill="none" stroke="#000000" points="531.5,-309.2 531.5,-328.2 820.5,-328.2 820.5,-309.2 531.5,-309.2"/>
<text text-anchor="start" x="534.5" y="-315.3" font-family="Helvetica,sans-Serif" font-size="11.00" fill="#000000">...</text>
<polygon fill="#ffffff" stroke="transparent" points="531.5,-290.2 531.5,-309.2 655.5,-309.2 655.5,-290.2 531.5,-290.2"/>
<polygon fill="none" stroke="#000000" points="531.5,-290.2 531.5,-309.2 655.5,-309.2 655.5,-290.2 531.5,-290.2"/>
<text text-anchor="start" x="534.5" y="-296.3" font-family="Helvetica,sans-Serif" font-size="11.00" fill="#000000">&lt; 2</text>
<polygon fill="#ffffff" stroke="transparent" points="655.5,-290.2 655.5,-309.2 756.5,-309.2 756.5,-290.2 655.5,-290.2"/>
<polygon fill="none" stroke="#000000" points="655.5,-290.2 655.5,-309.2 756.5,-309.2 756.5,-290.2 655.5,-290.2"/>
<text text-anchor="start" x="708.8807" y="-296.3" font-family="Helvetica,sans-Serif" font-size="11.00" fill="#000000">415 rows</text>
<polygon fill="#ffffff" stroke="transparent" points="756.5,-290.2 756.5,-309.2 820.5,-309.2 820.5,-290.2 756.5,-290.2"/>
<polygon fill="none" stroke="#000000" points="756.5,-290.2 756.5,-309.2 820.5,-309.2 820.5,-290.2 756.5,-290.2"/>
<text text-anchor="start" x="811.3862" y="-296.3" font-family="Helvetica,sans-Serif" font-size="11.00" fill="#000000"> &#160;</text>
</a>
</g>
</g>
<!-- VERSIONS_PARTS_SCREENING_CONDITIONS&#45;&gt;VERSIONS_PARTS -->
<g id="edge3" class="edge">
<title>VERSIONS_PARTS_SCREENING_CONDITIONS:w&#45;&gt;VERSIONS_PARTS:e</title>
<path fill="none" stroke="#000000" d="M517.5753,-313.4968C504.543,-302.7274 504.5408,-277.2 482,-277.2"/>
<polygon fill="#000000" stroke="#000000" points="523.9207,-315.64 530.348,-321.6107 527.7103,-316.92 531.5,-318.2 531.5,-318.2 531.5,-318.2 527.7103,-316.92 532.652,-314.7893 523.9207,-315.64 523.9207,-315.64"/>
<ellipse fill="none" stroke="#000000" cx="520.8889" cy="-314.6159" rx="3.2" ry="3.2"/>
</g>
<!-- VERSIONS_PARTS_SCREENING_PLANS -->
<g id="node5" class="node">
<title>VERSIONS_PARTS_SCREENING_PLANS</title>
<g id="a_node5"><a xlink:href="../../tables/VERSIONS_PARTS_SCREENING_PLANS.html" xlink:title="VERSIONS_PARTS_SCREENING_PLANS" target="_top">
<polygon fill="#ffffff" stroke="transparent" points="547.5,-208.7 547.5,-269.7 803.5,-269.7 803.5,-208.7 547.5,-208.7"/>
<polygon fill="#f5f5f5" stroke="transparent" points="547.5,-246.2 547.5,-269.2 803.5,-269.2 803.5,-246.2 547.5,-246.2"/>
<polygon fill="none" stroke="#000000" points="547.5,-246.2 547.5,-269.2 803.5,-269.2 803.5,-246.2 547.5,-246.2"/>
<text text-anchor="start" x="552.3495" y="-255.3" font-family="Helvetica,sans-Serif" font-weight="bold" font-size="11.00" fill="#000000">VERSIONS_PARTS_SCREENING_PLANS</text>
<text text-anchor="start" x="769.0219" y="-254.3" font-family="Helvetica,sans-Serif" font-size="11.00" fill="#000000">[table]</text>
<polygon fill="none" stroke="#000000" points="547.5,-227.2 547.5,-246.2 803.5,-246.2 803.5,-227.2 547.5,-227.2"/>
<text text-anchor="start" x="550.5" y="-233.3" font-family="Helvetica,sans-Serif" font-size="11.00" fill="#000000">...</text>
<polygon fill="#ffffff" stroke="transparent" points="547.5,-208.2 547.5,-227.2 654.5,-227.2 654.5,-208.2 547.5,-208.2"/>
<polygon fill="none" stroke="#000000" points="547.5,-208.2 547.5,-227.2 654.5,-227.2 654.5,-208.2 547.5,-208.2"/>
<text text-anchor="start" x="550.5" y="-214.3" font-family="Helvetica,sans-Serif" font-size="11.00" fill="#000000">&lt; 2</text>
<polygon fill="#ffffff" stroke="transparent" points="654.5,-208.2 654.5,-227.2 747.5,-227.2 747.5,-208.2 654.5,-208.2"/>
<polygon fill="none" stroke="#000000" points="654.5,-208.2 654.5,-227.2 747.5,-227.2 747.5,-208.2 654.5,-208.2"/>
<text text-anchor="start" x="699.8807" y="-214.3" font-family="Helvetica,sans-Serif" font-size="11.00" fill="#000000">376 rows</text>
<polygon fill="#ffffff" stroke="transparent" points="747.5,-208.2 747.5,-227.2 803.5,-227.2 803.5,-208.2 747.5,-208.2"/>
<polygon fill="none" stroke="#000000" points="747.5,-208.2 747.5,-227.2 803.5,-227.2 803.5,-208.2 747.5,-208.2"/>
<text text-anchor="start" x="794.3862" y="-214.3" font-family="Helvetica,sans-Serif" font-size="11.00" fill="#000000"> &#160;</text>
</a>
</g>
</g>
<!-- VERSIONS_PARTS_SCREENING_PLANS&#45;&gt;VERSIONS_PARTS -->
<g id="edge4" class="edge">
<title>VERSIONS_PARTS_SCREENING_PLANS:w&#45;&gt;VERSIONS_PARTS:e</title>
<path fill="none" stroke="#000000" d="M533.2955,-239.1486C513.1919,-248.5495 510.7094,-277.2 482,-277.2"/>
<polygon fill="#000000" stroke="#000000" points="539.667,-237.8261 548.2317,-239.7249 543.5835,-237.013 547.5,-236.2 547.5,-236.2 547.5,-236.2 543.5835,-237.013 546.7683,-232.6751 539.667,-237.8261 539.667,-237.8261"/>
<ellipse fill="none" stroke="#000000" cx="536.5338" cy="-238.4765" rx="3.2" ry="3.2"/>
</g>
</g>
</svg>
