<?xml version="1.0" encoding="UTF-8" standalone="no"?>
<!DOCTYPE svg PUBLIC "-//W3C//DTD SVG 1.1//EN"
 "http://www.w3.org/Graphics/SVG/1.1/DTD/svg11.dtd">
<!-- Generated by graphviz version 2.40.1 (20161225.0304)
 -->
<!-- Title: twoDegreesRelationshipsDiagram Pages: 1 -->
<svg width="645pt" height="333pt"
 viewBox="0.00 0.00 645.00 332.70" xmlns="http://www.w3.org/2000/svg" xmlns:xlink="http://www.w3.org/1999/xlink">
<g id="graph0" class="graph" transform="scale(1 1) rotate(0) translate(4 328.7)">
<title>twoDegreesRelationshipsDiagram</title>
<polygon fill="#ffffff" stroke="transparent" points="-4,4 -4,-328.7 641,-328.7 641,4 -4,4"/>
<text text-anchor="middle" x="72.4936" y="-7.3" font-family="Helvetica,sans-Serif" font-size="11.00" fill="#000000">Generated by SchemaSpy</text>
<!-- TARGET_FORMS_PROTEIN_GROUPS -->
<g id="node1" class="node">
<title>TARGET_FORMS_PROTEIN_GROUPS</title>
<g id="a_node1"><a xlink:href="../../tables/TARGET_FORMS_PROTEIN_GROUPS.html" xlink:title="TARGET_FORMS_PROTEIN_GROUPS" target="_top">
<polygon fill="#ffffff" stroke="transparent" points="374,-115.2 374,-242.2 629,-242.2 629,-115.2 374,-115.2"/>
<polygon fill="#f5f5f5" stroke="transparent" points="374.5,-218.7 374.5,-241.7 629.5,-241.7 629.5,-218.7 374.5,-218.7"/>
<polygon fill="none" stroke="#000000" points="374.5,-218.7 374.5,-241.7 629.5,-241.7 629.5,-218.7 374.5,-218.7"/>
<text text-anchor="start" x="379.5" y="-227.8" font-family="Helvetica,sans-Serif" font-weight="bold" font-size="11.00" fill="#000000">TARGET_FORMS_PROTEIN_GROUPS</text>
<text text-anchor="start" x="594.5437" y="-226.8" font-family="Helvetica,sans-Serif" font-size="11.00" fill="#000000">[table]</text>
<polygon fill="none" stroke="#000000" points="374.5,-196.7 374.5,-218.7 629.5,-218.7 629.5,-196.7 374.5,-196.7"/>
<image xlink:href="../../images/primaryKeys.png" width="11px" height="12px" preserveAspectRatio="xMinYMin meet" x="379.5" y="-213.7"/>
<text text-anchor="start" x="394.5" y="-203.8" font-family="Helvetica,sans-Serif" font-size="11.00" fill="#000000">ID</text>
<polygon fill="none" stroke="#000000" points="374.5,-174.7 374.5,-196.7 629.5,-196.7 629.5,-174.7 374.5,-174.7"/>
<image xlink:href="../../images/primaryKeys.png" width="11px" height="12px" preserveAspectRatio="xMinYMin meet" x="379.5" y="-191.7"/>
<text text-anchor="start" x="394.5" y="-181.8" font-family="Helvetica,sans-Serif" font-size="11.00" fill="#000000">PROTEIN_GROUP_ID</text>
<polygon fill="none" stroke="#000000" points="374.5,-152.7 374.5,-174.7 629.5,-174.7 629.5,-152.7 374.5,-152.7"/>
<image xlink:href="../../images/primaryKeys.png" width="11px" height="12px" preserveAspectRatio="xMinYMin meet" x="379.5" y="-169.7"/>
<text text-anchor="start" x="394.5" y="-159.8" font-family="Helvetica,sans-Serif" font-size="11.00" fill="#000000">TARGET_FORM_ID</text>
<polygon fill="none" stroke="#000000" points="374.5,-133.7 374.5,-152.7 629.5,-152.7 629.5,-133.7 374.5,-133.7"/>
<text text-anchor="start" x="377.5" y="-139.8" font-family="Helvetica,sans-Serif" font-size="11.00" fill="#000000">...</text>
<polygon fill="#ffffff" stroke="transparent" points="374.5,-114.7 374.5,-133.7 484.5,-133.7 484.5,-114.7 374.5,-114.7"/>
<polygon fill="none" stroke="#000000" points="374.5,-114.7 374.5,-133.7 484.5,-133.7 484.5,-114.7 374.5,-114.7"/>
<text text-anchor="start" x="377.5" y="-120.8" font-family="Helvetica,sans-Serif" font-size="11.00" fill="#000000">&lt; 2</text>
<polygon fill="#ffffff" stroke="transparent" points="484.5,-114.7 484.5,-133.7 572.5,-133.7 572.5,-114.7 484.5,-114.7"/>
<polygon fill="none" stroke="#000000" points="484.5,-114.7 484.5,-133.7 572.5,-133.7 572.5,-114.7 484.5,-114.7"/>
<text text-anchor="start" x="530.9956" y="-120.8" font-family="Helvetica,sans-Serif" font-size="11.00" fill="#000000">17 rows</text>
<polygon fill="#ffffff" stroke="transparent" points="572.5,-114.7 572.5,-133.7 629.5,-133.7 629.5,-114.7 572.5,-114.7"/>
<polygon fill="none" stroke="#000000" points="572.5,-114.7 572.5,-133.7 629.5,-133.7 629.5,-114.7 572.5,-114.7"/>
<text text-anchor="start" x="620.3862" y="-120.8" font-family="Helvetica,sans-Serif" font-size="11.00" fill="#000000"> &#160;</text>
</a>
</g>
</g>
<!-- PROTEIN_GROUPS -->
<g id="node2" class="node">
<title>PROTEIN_GROUPS</title>
<g id="a_node2"><a xlink:href="../../tables/PROTEIN_GROUPS.html" xlink:title="PROTEIN_GROUPS" target="_top">
<polygon fill="#ffffff" stroke="transparent" points="8,-120.7 8,-320.7 325,-320.7 325,-120.7 8,-120.7"/>
<polygon fill="#f5f5f5" stroke="transparent" points="10.5,-295.7 10.5,-318.7 323.5,-318.7 323.5,-295.7 10.5,-295.7"/>
<polygon fill="none" stroke="#000000" points="10.5,-295.7 10.5,-318.7 323.5,-318.7 323.5,-295.7 10.5,-295.7"/>
<text text-anchor="start" x="15.5" y="-304.8" font-family="Helvetica,sans-Serif" font-weight="bold" font-size="11.00" fill="#000000">PROTEIN_GROUPS</text>
<text text-anchor="start" x="288.5437" y="-303.8" font-family="Helvetica,sans-Serif" font-size="11.00" fill="#000000">[table]</text>
<polygon fill="none" stroke="#000000" points="10.5,-273.7 10.5,-295.7 152.5,-295.7 152.5,-273.7 10.5,-273.7"/>
<image xlink:href="../../images/primaryKeys.png" width="11px" height="12px" preserveAspectRatio="xMinYMin meet" x="15.5" y="-290.7"/>
<text text-anchor="start" x="30.5" y="-280.8" font-family="Helvetica,sans-Serif" font-size="11.00" fill="#000000">ID</text>
<polygon fill="none" stroke="#000000" points="152.5,-273.7 152.5,-295.7 323.5,-295.7 323.5,-273.7 152.5,-273.7"/>
<text text-anchor="start" x="155.5" y="-281.4" font-family="Helvetica,sans-Serif" font-size="11.00" fill="#000000">number[19]</text>
<polygon fill="none" stroke="#000000" points="10.5,-251.7 10.5,-273.7 152.5,-273.7 152.5,-251.7 10.5,-251.7"/>
<text text-anchor="start" x="30.5" y="-258.8" font-family="Helvetica,sans-Serif" font-size="11.00" fill="#000000">CREATED_AT</text>
<polygon fill="none" stroke="#000000" points="152.5,-251.7 152.5,-273.7 323.5,-273.7 323.5,-251.7 152.5,-251.7"/>
<text text-anchor="start" x="155.4896" y="-259.4" font-family="Helvetica,sans-Serif" font-size="11.00" fill="#000000">timestamp(6) with time zone[13,6]</text>
<polygon fill="none" stroke="#000000" points="10.5,-229.7 10.5,-251.7 152.5,-251.7 152.5,-229.7 10.5,-229.7"/>
<text text-anchor="start" x="30.5" y="-236.8" font-family="Helvetica,sans-Serif" font-size="11.00" fill="#000000">CREATED_BY</text>
<polygon fill="none" stroke="#000000" points="152.5,-229.7 152.5,-251.7 323.5,-251.7 323.5,-229.7 152.5,-229.7"/>
<text text-anchor="start" x="155.5" y="-237.4" font-family="Helvetica,sans-Serif" font-size="11.00" fill="#000000">number[19]</text>
<polygon fill="none" stroke="#000000" points="10.5,-207.7 10.5,-229.7 152.5,-229.7 152.5,-207.7 10.5,-207.7"/>
<text text-anchor="start" x="30.5" y="-214.8" font-family="Helvetica,sans-Serif" font-size="11.00" fill="#000000">UPDATED_AT</text>
<polygon fill="none" stroke="#000000" points="152.5,-207.7 152.5,-229.7 323.5,-229.7 323.5,-207.7 152.5,-207.7"/>
<text text-anchor="start" x="155.4896" y="-215.4" font-family="Helvetica,sans-Serif" font-size="11.00" fill="#000000">timestamp(6) with time zone[13,6]</text>
<polygon fill="none" stroke="#000000" points="10.5,-185.7 10.5,-207.7 152.5,-207.7 152.5,-185.7 10.5,-185.7"/>
<text text-anchor="start" x="30.5" y="-192.8" font-family="Helvetica,sans-Serif" font-size="11.00" fill="#000000">UPDATED_BY</text>
<polygon fill="none" stroke="#000000" points="152.5,-185.7 152.5,-207.7 323.5,-207.7 323.5,-185.7 152.5,-185.7"/>
<text text-anchor="start" x="155.5" y="-193.4" font-family="Helvetica,sans-Serif" font-size="11.00" fill="#000000">number[19]</text>
<polygon fill="none" stroke="#000000" points="10.5,-163.7 10.5,-185.7 152.5,-185.7 152.5,-163.7 10.5,-163.7"/>
<image xlink:href="../../images/primaryKeys.png" width="11px" height="12px" preserveAspectRatio="xMinYMin meet" x="15.5" y="-180.7"/>
<text text-anchor="start" x="30.5" y="-170.8" font-family="Helvetica,sans-Serif" font-size="11.00" fill="#000000">TITLE</text>
<polygon fill="none" stroke="#000000" points="152.5,-163.7 152.5,-185.7 323.5,-185.7 323.5,-163.7 152.5,-163.7"/>
<text text-anchor="start" x="155.5" y="-171.4" font-family="Helvetica,sans-Serif" font-size="11.00" fill="#000000">varchar2[255]</text>
<polygon fill="none" stroke="#000000" points="10.5,-141.7 10.5,-163.7 152.5,-163.7 152.5,-141.7 10.5,-141.7"/>
<text text-anchor="start" x="30.5" y="-148.8" font-family="Helvetica,sans-Serif" font-size="11.00" fill="#000000">DESCRIPTION</text>
<polygon fill="none" stroke="#000000" points="152.5,-141.7 152.5,-163.7 323.5,-163.7 323.5,-141.7 152.5,-141.7"/>
<text text-anchor="start" x="155.5" y="-149.4" font-family="Helvetica,sans-Serif" font-size="11.00" fill="#000000">varchar2[4000]</text>
<polygon fill="#ffffff" stroke="transparent" points="10.5,-122.7 10.5,-141.7 72.5,-141.7 72.5,-122.7 10.5,-122.7"/>
<polygon fill="none" stroke="#000000" points="10.5,-122.7 10.5,-141.7 72.5,-141.7 72.5,-122.7 10.5,-122.7"/>
<text text-anchor="start" x="13.5" y="-128.8" font-family="Helvetica,sans-Serif" font-size="11.00" fill="#000000">&lt; 0</text>
<polygon fill="#ffffff" stroke="transparent" points="72.5,-122.7 72.5,-141.7 152.5,-141.7 152.5,-122.7 72.5,-122.7"/>
<polygon fill="none" stroke="#000000" points="72.5,-122.7 72.5,-141.7 152.5,-141.7 152.5,-122.7 72.5,-122.7"/>
<text text-anchor="start" x="117.1105" y="-128.8" font-family="Helvetica,sans-Serif" font-size="11.00" fill="#000000">6 rows</text>
<polygon fill="#ffffff" stroke="transparent" points="152.5,-122.7 152.5,-141.7 323.5,-141.7 323.5,-122.7 152.5,-122.7"/>
<polygon fill="none" stroke="#000000" points="152.5,-122.7 152.5,-141.7 323.5,-141.7 323.5,-122.7 152.5,-122.7"/>
<text text-anchor="start" x="304.9053" y="-128.8" font-family="Helvetica,sans-Serif" font-size="11.00" fill="#000000">1 &gt;</text>
<polygon fill="none" stroke="#000000" stroke-width="2" points="9,-121.7 9,-319.7 324,-319.7 324,-121.7 9,-121.7"/>
</a>
</g>
</g>
<!-- TARGET_FORMS_PROTEIN_GROUPS&#45;&gt;PROTEIN_GROUPS -->
<g id="edge1" class="edge">
<title>TARGET_FORMS_PROTEIN_GROUPS:w&#45;&gt;PROTEIN_GROUPS:e</title>
<path fill="none" stroke="#000000" d="M360.4616,-189.7035C335.198,-208.2249 367.0017,-284.7 323.5,-284.7"/>
<polygon fill="#000000" stroke="#000000" points="366.8067,-187.894 375.4873,-189.162 370.6534,-186.797 374.5,-185.7 374.5,-185.7 374.5,-185.7 370.6534,-186.797 373.5127,-182.238 366.8067,-187.894 366.8067,-187.894"/>
<ellipse fill="none" stroke="#000000" cx="363.7294" cy="-188.7717" rx="3.2" ry="3.2"/>
</g>
<!-- TARGET_FORMS -->
<g id="node3" class="node">
<title>TARGET_FORMS</title>
<g id="a_node3"><a xlink:href="../../tables/TARGET_FORMS.html" xlink:title="TARGET_FORMS" target="_top">
<polygon fill="#ffffff" stroke="transparent" points="100,-38.2 100,-99.2 233,-99.2 233,-38.2 100,-38.2"/>
<polygon fill="#f5f5f5" stroke="transparent" points="100.5,-75.7 100.5,-98.7 233.5,-98.7 233.5,-75.7 100.5,-75.7"/>
<polygon fill="none" stroke="#000000" points="100.5,-75.7 100.5,-98.7 233.5,-98.7 233.5,-75.7 100.5,-75.7"/>
<text text-anchor="start" x="105.2801" y="-84.8" font-family="Helvetica,sans-Serif" font-weight="bold" font-size="11.00" fill="#000000">TARGET_FORMS</text>
<text text-anchor="start" x="199.0219" y="-83.8" font-family="Helvetica,sans-Serif" font-size="11.00" fill="#000000">[table]</text>
<polygon fill="none" stroke="#000000" points="100.5,-56.7 100.5,-75.7 233.5,-75.7 233.5,-56.7 100.5,-56.7"/>
<text text-anchor="start" x="103.5" y="-62.8" font-family="Helvetica,sans-Serif" font-size="11.00" fill="#000000">...</text>
<polygon fill="#ffffff" stroke="transparent" points="100.5,-37.7 100.5,-56.7 138.5,-56.7 138.5,-37.7 100.5,-37.7"/>
<polygon fill="none" stroke="#000000" points="100.5,-37.7 100.5,-56.7 138.5,-56.7 138.5,-37.7 100.5,-37.7"/>
<text text-anchor="start" x="103.5" y="-43.8" font-family="Helvetica,sans-Serif" font-size="11.00" fill="#000000">&lt; 5</text>
<polygon fill="#ffffff" stroke="transparent" points="138.5,-37.7 138.5,-56.7 197.5,-56.7 197.5,-37.7 138.5,-37.7"/>
<polygon fill="none" stroke="#000000" points="138.5,-37.7 138.5,-56.7 197.5,-56.7 197.5,-37.7 138.5,-37.7"/>
<text text-anchor="start" x="149.8807" y="-43.8" font-family="Helvetica,sans-Serif" font-size="11.00" fill="#000000">541 rows</text>
<polygon fill="#ffffff" stroke="transparent" points="197.5,-37.7 197.5,-56.7 233.5,-56.7 233.5,-37.7 197.5,-37.7"/>
<polygon fill="none" stroke="#000000" points="197.5,-37.7 197.5,-56.7 233.5,-56.7 233.5,-37.7 197.5,-37.7"/>
<text text-anchor="start" x="208.7904" y="-43.8" font-family="Helvetica,sans-Serif" font-size="11.00" fill="#000000">18 &gt;</text>
</a>
</g>
</g>
<!-- TARGET_FORMS_PROTEIN_GROUPS&#45;&gt;TARGET_FORMS -->
<g id="edge2" class="edge">
<title>TARGET_FORMS_PROTEIN_GROUPS:w&#45;&gt;TARGET_FORMS:e</title>
<path fill="none" stroke="#000000" d="M360.4303,-159.5662C348.0447,-149.849 351.5677,-125.2782 333,-110.7 294.8257,-80.7278 282.0346,-65.7 233.5,-65.7"/>
<polygon fill="#000000" stroke="#000000" points="366.8244,-161.4448 373.4852,-167.154 370.6622,-162.5724 374.5,-163.7 374.5,-163.7 374.5,-163.7 370.6622,-162.5724 375.5148,-160.246 366.8244,-161.4448 366.8244,-161.4448"/>
<ellipse fill="none" stroke="#000000" cx="363.7542" cy="-160.5427" rx="3.2" ry="3.2"/>
</g>
</g>
</svg>
