<?xml version="1.0" encoding="UTF-8" standalone="no"?>
<!DOCTYPE svg PUBLIC "-//W3C//DTD SVG 1.1//EN"
 "http://www.w3.org/Graphics/SVG/1.1/DTD/svg11.dtd">
<!-- Generated by graphviz version 2.40.1 (20161225.0304)
 -->
<!-- Title: oneDegreeRelationshipsDiagram Pages: 1 -->
<svg width="689pt" height="469pt"
 viewBox="0.00 0.00 689.00 468.70" xmlns="http://www.w3.org/2000/svg" xmlns:xlink="http://www.w3.org/1999/xlink">
<g id="graph0" class="graph" transform="scale(1 1) rotate(0) translate(4 464.7)">
<title>oneDegreeRelationshipsDiagram</title>
<polygon fill="#ffffff" stroke="transparent" points="-4,4 -4,-464.7 685,-464.7 685,4 -4,4"/>
<text text-anchor="middle" x="72.4936" y="-7.3" font-family="Helvetica,sans-Serif" font-size="11.00" fill="#000000">Generated by SchemaSpy</text>
<!-- TRACER_SYNTHESIS_REQUESTS -->
<g id="node1" class="node">
<title>TRACER_SYNTHESIS_REQUESTS</title>
<g id="a_node1"><a xlink:href="../../tables/TRACER_SYNTHESIS_REQUESTS.html" xlink:title="TRACER_SYNTHESIS_REQUESTS" target="_top">
<polygon fill="#ffffff" stroke="transparent" points="441,-109.7 441,-456.7 673,-456.7 673,-109.7 441,-109.7"/>
<polygon fill="#f5f5f5" stroke="transparent" points="441,-433.2 441,-456.2 673,-456.2 673,-433.2 441,-433.2"/>
<polygon fill="none" stroke="#000000" points="441,-433.2 441,-456.2 673,-456.2 673,-433.2 441,-433.2"/>
<text text-anchor="start" x="446" y="-442.3" font-family="Helvetica,sans-Serif" font-weight="bold" font-size="11.00" fill="#000000">TRACER_SYNTHESIS_REQUESTS</text>
<text text-anchor="start" x="638.0437" y="-441.3" font-family="Helvetica,sans-Serif" font-size="11.00" fill="#000000">[table]</text>
<polygon fill="none" stroke="#000000" points="441,-411.2 441,-433.2 673,-433.2 673,-411.2 441,-411.2"/>
<image xlink:href="../../images/primaryKeys.png" width="11px" height="12px" preserveAspectRatio="xMinYMin meet" x="446" y="-428.2"/>
<text text-anchor="start" x="461" y="-418.3" font-family="Helvetica,sans-Serif" font-size="11.00" fill="#000000">ID</text>
<polygon fill="none" stroke="#000000" points="441,-389.2 441,-411.2 673,-411.2 673,-389.2 441,-389.2"/>
<image xlink:href="../../images/foreignKeys.png" width="11px" height="12px" preserveAspectRatio="xMinYMin meet" x="446" y="-406.2"/>
<text text-anchor="start" x="461" y="-396.3" font-family="Helvetica,sans-Serif" font-size="11.00" fill="#000000">TRACER_TYPE_ID</text>
<polygon fill="none" stroke="#000000" points="441,-367.2 441,-389.2 673,-389.2 673,-367.2 441,-367.2"/>
<image xlink:href="../../images/foreignKeys.png" width="11px" height="12px" preserveAspectRatio="xMinYMin meet" x="446" y="-384.2"/>
<text text-anchor="start" x="461" y="-374.3" font-family="Helvetica,sans-Serif" font-size="11.00" fill="#000000">TARGET_ID</text>
<polygon fill="none" stroke="#000000" points="441,-345.2 441,-367.2 673,-367.2 673,-345.2 441,-345.2"/>
<image xlink:href="../../images/foreignKeys.png" width="11px" height="12px" preserveAspectRatio="xMinYMin meet" x="446" y="-362.2"/>
<text text-anchor="start" x="461" y="-352.3" font-family="Helvetica,sans-Serif" font-size="11.00" fill="#000000">OFF_DNA_ID</text>
<polygon fill="none" stroke="#000000" points="441,-323.2 441,-345.2 673,-345.2 673,-323.2 441,-323.2"/>
<image xlink:href="../../images/foreignKeys.png" width="11px" height="12px" preserveAspectRatio="xMinYMin meet" x="446" y="-340.2"/>
<text text-anchor="start" x="461" y="-330.3" font-family="Helvetica,sans-Serif" font-size="11.00" fill="#000000">OFF_DNA_IC50_ID</text>
<polygon fill="none" stroke="#000000" points="441,-301.2 441,-323.2 673,-323.2 673,-301.2 441,-301.2"/>
<image xlink:href="../../images/foreignKeys.png" width="11px" height="12px" preserveAspectRatio="xMinYMin meet" x="446" y="-318.2"/>
<text text-anchor="start" x="461" y="-308.3" font-family="Helvetica,sans-Serif" font-size="11.00" fill="#000000">TARGET_FORM_ID</text>
<polygon fill="none" stroke="#000000" points="441,-279.2 441,-301.2 673,-301.2 673,-279.2 441,-279.2"/>
<image xlink:href="../../images/foreignKeys.png" width="11px" height="12px" preserveAspectRatio="xMinYMin meet" x="446" y="-296.2"/>
<text text-anchor="start" x="461" y="-286.3" font-family="Helvetica,sans-Serif" font-size="11.00" fill="#000000">ASSIGNEE_ID</text>
<polygon fill="none" stroke="#000000" points="441,-257.2 441,-279.2 673,-279.2 673,-257.2 441,-257.2"/>
<image xlink:href="../../images/foreignKeys.png" width="11px" height="12px" preserveAspectRatio="xMinYMin meet" x="446" y="-274.2"/>
<text text-anchor="start" x="461" y="-264.3" font-family="Helvetica,sans-Serif" font-size="11.00" fill="#000000">TARGET_CATEGORY_ID</text>
<polygon fill="none" stroke="#000000" points="441,-235.2 441,-257.2 673,-257.2 673,-235.2 441,-235.2"/>
<image xlink:href="../../images/foreignKeys.png" width="11px" height="12px" preserveAspectRatio="xMinYMin meet" x="446" y="-252.2"/>
<text text-anchor="start" x="461" y="-242.3" font-family="Helvetica,sans-Serif" font-size="11.00" fill="#000000">CHEMISTRY_ID</text>
<polygon fill="none" stroke="#000000" points="441,-213.2 441,-235.2 673,-235.2 673,-213.2 441,-213.2"/>
<image xlink:href="../../images/foreignKeys.png" width="11px" height="12px" preserveAspectRatio="xMinYMin meet" x="446" y="-230.2"/>
<text text-anchor="start" x="461" y="-220.3" font-family="Helvetica,sans-Serif" font-size="11.00" fill="#000000">REGISTRATION_ID</text>
<polygon fill="none" stroke="#000000" points="441,-191.2 441,-213.2 673,-213.2 673,-191.2 441,-191.2"/>
<image xlink:href="../../images/foreignKeys.png" width="11px" height="12px" preserveAspectRatio="xMinYMin meet" x="446" y="-208.2"/>
<text text-anchor="start" x="461" y="-198.3" font-family="Helvetica,sans-Serif" font-size="11.00" fill="#000000">HEAD_PIECE_ID</text>
<polygon fill="none" stroke="#000000" points="441,-169.2 441,-191.2 673,-191.2 673,-169.2 441,-169.2"/>
<image xlink:href="../../images/foreignKeys.png" width="11px" height="12px" preserveAspectRatio="xMinYMin meet" x="446" y="-186.2"/>
<text text-anchor="start" x="461" y="-176.3" font-family="Helvetica,sans-Serif" font-size="11.00" fill="#000000">QUANTIFICATION_METHOD_ID</text>
<polygon fill="none" stroke="#000000" points="441,-147.2 441,-169.2 673,-169.2 673,-147.2 441,-147.2"/>
<image xlink:href="../../images/foreignKeys.png" width="11px" height="12px" preserveAspectRatio="xMinYMin meet" x="446" y="-164.2"/>
<text text-anchor="start" x="461" y="-154.3" font-family="Helvetica,sans-Serif" font-size="11.00" fill="#000000">DELIVERED_CONDITION_ID</text>
<polygon fill="none" stroke="#000000" points="441,-128.2 441,-147.2 673,-147.2 673,-128.2 441,-128.2"/>
<text text-anchor="start" x="444" y="-134.3" font-family="Helvetica,sans-Serif" font-size="11.00" fill="#000000">...</text>
<polygon fill="#ffffff" stroke="transparent" points="441,-109.2 441,-128.2 538,-128.2 538,-109.2 441,-109.2"/>
<polygon fill="none" stroke="#000000" points="441,-109.2 441,-128.2 538,-128.2 538,-109.2 441,-109.2"/>
<text text-anchor="start" x="444" y="-115.3" font-family="Helvetica,sans-Serif" font-size="11.00" fill="#000000">&lt; 12</text>
<polygon fill="#ffffff" stroke="transparent" points="538,-109.2 538,-128.2 617,-128.2 617,-109.2 538,-109.2"/>
<polygon fill="none" stroke="#000000" points="538,-109.2 538,-128.2 617,-128.2 617,-109.2 538,-109.2"/>
<text text-anchor="start" x="575.4956" y="-115.3" font-family="Helvetica,sans-Serif" font-size="11.00" fill="#000000">21 rows</text>
<polygon fill="#ffffff" stroke="transparent" points="617,-109.2 617,-128.2 673,-128.2 673,-109.2 617,-109.2"/>
<polygon fill="none" stroke="#000000" points="617,-109.2 617,-128.2 673,-128.2 673,-109.2 617,-109.2"/>
<text text-anchor="start" x="654.4053" y="-115.3" font-family="Helvetica,sans-Serif" font-size="11.00" fill="#000000">2 &gt;</text>
</a>
</g>
</g>
<!-- QUANTIFICATION_METHODS -->
<g id="node2" class="node">
<title>QUANTIFICATION_METHODS</title>
<g id="a_node2"><a xlink:href="../../tables/QUANTIFICATION_METHODS.html" xlink:title="QUANTIFICATION_METHODS" target="_top">
<polygon fill="#ffffff" stroke="transparent" points="8,-38.2 8,-216.2 392,-216.2 392,-38.2 8,-38.2"/>
<polygon fill="#f5f5f5" stroke="transparent" points="10,-191.2 10,-214.2 390,-214.2 390,-191.2 10,-191.2"/>
<polygon fill="none" stroke="#000000" points="10,-191.2 10,-214.2 390,-214.2 390,-191.2 10,-191.2"/>
<text text-anchor="start" x="15" y="-200.3" font-family="Helvetica,sans-Serif" font-weight="bold" font-size="11.00" fill="#000000">QUANTIFICATION_METHODS</text>
<text text-anchor="start" x="355.0437" y="-199.3" font-family="Helvetica,sans-Serif" font-size="11.00" fill="#000000">[table]</text>
<polygon fill="none" stroke="#000000" points="10,-169.2 10,-191.2 219,-191.2 219,-169.2 10,-169.2"/>
<image xlink:href="../../images/primaryKeys.png" width="11px" height="12px" preserveAspectRatio="xMinYMin meet" x="15" y="-186.2"/>
<text text-anchor="start" x="30" y="-176.3" font-family="Helvetica,sans-Serif" font-size="11.00" fill="#000000">ID</text>
<polygon fill="none" stroke="#000000" points="219,-169.2 219,-191.2 390,-191.2 390,-169.2 219,-169.2"/>
<text text-anchor="start" x="222" y="-176.9" font-family="Helvetica,sans-Serif" font-size="11.00" fill="#000000">number[19]</text>
<polygon fill="none" stroke="#000000" points="10,-147.2 10,-169.2 219,-169.2 219,-147.2 10,-147.2"/>
<text text-anchor="start" x="30" y="-154.3" font-family="Helvetica,sans-Serif" font-size="11.00" fill="#000000">CREATED_AT</text>
<polygon fill="none" stroke="#000000" points="219,-147.2 219,-169.2 390,-169.2 390,-147.2 219,-147.2"/>
<text text-anchor="start" x="221.9896" y="-154.9" font-family="Helvetica,sans-Serif" font-size="11.00" fill="#000000">timestamp(6) with time zone[13,6]</text>
<polygon fill="none" stroke="#000000" points="10,-125.2 10,-147.2 219,-147.2 219,-125.2 10,-125.2"/>
<text text-anchor="start" x="30" y="-132.3" font-family="Helvetica,sans-Serif" font-size="11.00" fill="#000000">CREATED_BY</text>
<polygon fill="none" stroke="#000000" points="219,-125.2 219,-147.2 390,-147.2 390,-125.2 219,-125.2"/>
<text text-anchor="start" x="222" y="-132.9" font-family="Helvetica,sans-Serif" font-size="11.00" fill="#000000">number[19]</text>
<polygon fill="none" stroke="#000000" points="10,-103.2 10,-125.2 219,-125.2 219,-103.2 10,-103.2"/>
<text text-anchor="start" x="30" y="-110.3" font-family="Helvetica,sans-Serif" font-size="11.00" fill="#000000">UPDATED_AT</text>
<polygon fill="none" stroke="#000000" points="219,-103.2 219,-125.2 390,-125.2 390,-103.2 219,-103.2"/>
<text text-anchor="start" x="221.9896" y="-110.9" font-family="Helvetica,sans-Serif" font-size="11.00" fill="#000000">timestamp(6) with time zone[13,6]</text>
<polygon fill="none" stroke="#000000" points="10,-81.2 10,-103.2 219,-103.2 219,-81.2 10,-81.2"/>
<text text-anchor="start" x="30" y="-88.3" font-family="Helvetica,sans-Serif" font-size="11.00" fill="#000000">UPDATED_BY</text>
<polygon fill="none" stroke="#000000" points="219,-81.2 219,-103.2 390,-103.2 390,-81.2 219,-81.2"/>
<text text-anchor="start" x="222" y="-88.9" font-family="Helvetica,sans-Serif" font-size="11.00" fill="#000000">number[19]</text>
<polygon fill="none" stroke="#000000" points="10,-59.2 10,-81.2 219,-81.2 219,-59.2 10,-59.2"/>
<text text-anchor="start" x="30" y="-66.3" font-family="Helvetica,sans-Serif" font-size="11.00" fill="#000000">NAME</text>
<polygon fill="none" stroke="#000000" points="219,-59.2 219,-81.2 390,-81.2 390,-59.2 219,-59.2"/>
<text text-anchor="start" x="222" y="-66.9" font-family="Helvetica,sans-Serif" font-size="11.00" fill="#000000">varchar2[255]</text>
<polygon fill="#ffffff" stroke="transparent" points="10,-40.2 10,-59.2 106,-59.2 106,-40.2 10,-40.2"/>
<polygon fill="none" stroke="#000000" points="10,-40.2 10,-59.2 106,-59.2 106,-40.2 10,-40.2"/>
<text text-anchor="start" x="13" y="-46.3" font-family="Helvetica,sans-Serif" font-size="11.00" fill="#000000">&lt; 0</text>
<polygon fill="#ffffff" stroke="transparent" points="106,-40.2 106,-59.2 219,-59.2 219,-40.2 106,-40.2"/>
<polygon fill="none" stroke="#000000" points="106,-40.2 106,-59.2 219,-59.2 219,-40.2 106,-40.2"/>
<text text-anchor="start" x="183.6105" y="-46.3" font-family="Helvetica,sans-Serif" font-size="11.00" fill="#000000">3 rows</text>
<polygon fill="#ffffff" stroke="transparent" points="219,-40.2 219,-59.2 390,-59.2 390,-40.2 219,-40.2"/>
<polygon fill="none" stroke="#000000" points="219,-40.2 219,-59.2 390,-59.2 390,-40.2 219,-40.2"/>
<text text-anchor="start" x="371.4053" y="-46.3" font-family="Helvetica,sans-Serif" font-size="11.00" fill="#000000">1 &gt;</text>
<polygon fill="none" stroke="#000000" stroke-width="2" points="9,-39.2 9,-215.2 391,-215.2 391,-39.2 9,-39.2"/>
</a>
</g>
</g>
<!-- TRACER_SYNTHESIS_REQUESTS&#45;&gt;QUANTIFICATION_METHODS -->
<g id="edge1" class="edge">
<title>TRACER_SYNTHESIS_REQUESTS:w&#45;&gt;QUANTIFICATION_METHODS:e</title>
<path fill="none" stroke="#000000" d="M426.276,-180.2C414.2815,-180.2 406.8229,-180.2 390,-180.2"/>
<polygon fill="#000000" stroke="#000000" points="433,-180.2001 441,-183.8 437,-180.2 441,-180.2 441,-180.2 441,-180.2 437,-180.2 441,-176.6 433,-180.2001 433,-180.2001"/>
<ellipse fill="none" stroke="#000000" cx="429.8" cy="-180.2001" rx="3.2" ry="3.2"/>
</g>
</g>
</svg>
