<?xml version="1.0" encoding="UTF-8" standalone="no"?>
<!DOCTYPE svg PUBLIC "-//W3C//DTD SVG 1.1//EN"
 "http://www.w3.org/Graphics/SVG/1.1/DTD/svg11.dtd">
<!-- Generated by graphviz version 2.40.1 (20161225.0304)
 -->
<!-- Title: oneDegreeRelationshipsDiagram Pages: 1 -->
<svg width="525pt" height="363pt"
 viewBox="0.00 0.00 525.00 362.70" xmlns="http://www.w3.org/2000/svg" xmlns:xlink="http://www.w3.org/1999/xlink">
<g id="graph0" class="graph" transform="scale(1 1) rotate(0) translate(4 358.7)">
<title>oneDegreeRelationshipsDiagram</title>
<polygon fill="#ffffff" stroke="transparent" points="-4,4 -4,-358.7 521,-358.7 521,4 -4,4"/>
<text text-anchor="middle" x="72.4936" y="-7.3" font-family="Helvetica,sans-Serif" font-size="11.00" fill="#000000">Generated by SchemaSpy</text>
<!-- REFERENCES_TAGS -->
<g id="node1" class="node">
<title>REFERENCES_TAGS</title>
<g id="a_node1"><a xlink:href="../../tables/REFERENCES_TAGS.html" xlink:title="REFERENCES_TAGS" target="_top">
<polygon fill="#ffffff" stroke="transparent" points="185,-150.7 185,-350.7 509,-350.7 509,-150.7 185,-150.7"/>
<polygon fill="#f5f5f5" stroke="transparent" points="187,-325.7 187,-348.7 507,-348.7 507,-325.7 187,-325.7"/>
<polygon fill="none" stroke="#000000" points="187,-325.7 187,-348.7 507,-348.7 507,-325.7 187,-325.7"/>
<text text-anchor="start" x="192" y="-334.8" font-family="Helvetica,sans-Serif" font-weight="bold" font-size="11.00" fill="#000000">REFERENCES_TAGS</text>
<text text-anchor="start" x="472.0437" y="-333.8" font-family="Helvetica,sans-Serif" font-size="11.00" fill="#000000">[table]</text>
<polygon fill="none" stroke="#000000" points="187,-303.7 187,-325.7 336,-325.7 336,-303.7 187,-303.7"/>
<image xlink:href="../../images/primaryKeys.png" width="11px" height="12px" preserveAspectRatio="xMinYMin meet" x="192" y="-320.7"/>
<text text-anchor="start" x="207" y="-310.8" font-family="Helvetica,sans-Serif" font-size="11.00" fill="#000000">ID</text>
<polygon fill="none" stroke="#000000" points="336,-303.7 336,-325.7 507,-325.7 507,-303.7 336,-303.7"/>
<text text-anchor="start" x="339" y="-311.4" font-family="Helvetica,sans-Serif" font-size="11.00" fill="#000000">number[19]</text>
<polygon fill="none" stroke="#000000" points="187,-281.7 187,-303.7 336,-303.7 336,-281.7 187,-281.7"/>
<text text-anchor="start" x="207" y="-288.8" font-family="Helvetica,sans-Serif" font-size="11.00" fill="#000000">CREATED_AT</text>
<polygon fill="none" stroke="#000000" points="336,-281.7 336,-303.7 507,-303.7 507,-281.7 336,-281.7"/>
<text text-anchor="start" x="338.9896" y="-289.4" font-family="Helvetica,sans-Serif" font-size="11.00" fill="#000000">timestamp(6) with time zone[13,6]</text>
<polygon fill="none" stroke="#000000" points="187,-259.7 187,-281.7 336,-281.7 336,-259.7 187,-259.7"/>
<text text-anchor="start" x="207" y="-266.8" font-family="Helvetica,sans-Serif" font-size="11.00" fill="#000000">CREATED_BY</text>
<polygon fill="none" stroke="#000000" points="336,-259.7 336,-281.7 507,-281.7 507,-259.7 336,-259.7"/>
<text text-anchor="start" x="339" y="-267.4" font-family="Helvetica,sans-Serif" font-size="11.00" fill="#000000">number[19]</text>
<polygon fill="none" stroke="#000000" points="187,-237.7 187,-259.7 336,-259.7 336,-237.7 187,-237.7"/>
<text text-anchor="start" x="207" y="-244.8" font-family="Helvetica,sans-Serif" font-size="11.00" fill="#000000">UPDATED_AT</text>
<polygon fill="none" stroke="#000000" points="336,-237.7 336,-259.7 507,-259.7 507,-237.7 336,-237.7"/>
<text text-anchor="start" x="338.9896" y="-245.4" font-family="Helvetica,sans-Serif" font-size="11.00" fill="#000000">timestamp(6) with time zone[13,6]</text>
<polygon fill="none" stroke="#000000" points="187,-215.7 187,-237.7 336,-237.7 336,-215.7 187,-215.7"/>
<text text-anchor="start" x="207" y="-222.8" font-family="Helvetica,sans-Serif" font-size="11.00" fill="#000000">UPDATED_BY</text>
<polygon fill="none" stroke="#000000" points="336,-215.7 336,-237.7 507,-237.7 507,-215.7 336,-215.7"/>
<text text-anchor="start" x="339" y="-223.4" font-family="Helvetica,sans-Serif" font-size="11.00" fill="#000000">number[19]</text>
<polygon fill="none" stroke="#000000" points="187,-193.7 187,-215.7 336,-215.7 336,-193.7 187,-193.7"/>
<image xlink:href="../../images/foreignKeys.png" width="11px" height="12px" preserveAspectRatio="xMinYMin meet" x="192" y="-210.7"/>
<text text-anchor="start" x="207" y="-200.8" font-family="Helvetica,sans-Serif" font-size="11.00" fill="#000000">REFERENCE_ID</text>
<polygon fill="none" stroke="#000000" points="336,-193.7 336,-215.7 507,-215.7 507,-193.7 336,-193.7"/>
<text text-anchor="start" x="339" y="-201.4" font-family="Helvetica,sans-Serif" font-size="11.00" fill="#000000">number[19]</text>
<polygon fill="none" stroke="#000000" points="187,-171.7 187,-193.7 336,-193.7 336,-171.7 187,-171.7"/>
<image xlink:href="../../images/foreignKeys.png" width="11px" height="12px" preserveAspectRatio="xMinYMin meet" x="192" y="-188.7"/>
<text text-anchor="start" x="207" y="-178.8" font-family="Helvetica,sans-Serif" font-size="11.00" fill="#000000">TAG_ID</text>
<polygon fill="none" stroke="#000000" points="336,-171.7 336,-193.7 507,-193.7 507,-171.7 336,-171.7"/>
<text text-anchor="start" x="339" y="-179.4" font-family="Helvetica,sans-Serif" font-size="11.00" fill="#000000">number[19]</text>
<polygon fill="#ffffff" stroke="transparent" points="187,-152.7 187,-171.7 250,-171.7 250,-152.7 187,-152.7"/>
<polygon fill="none" stroke="#000000" points="187,-152.7 187,-171.7 250,-171.7 250,-152.7 187,-152.7"/>
<text text-anchor="start" x="190" y="-158.8" font-family="Helvetica,sans-Serif" font-size="11.00" fill="#000000">&lt; 2</text>
<polygon fill="#ffffff" stroke="transparent" points="250,-152.7 250,-171.7 336,-171.7 336,-152.7 250,-152.7"/>
<polygon fill="none" stroke="#000000" points="250,-152.7 250,-171.7 336,-171.7 336,-152.7 250,-152.7"/>
<text text-anchor="start" x="294.4956" y="-158.8" font-family="Helvetica,sans-Serif" font-size="11.00" fill="#000000">17 rows</text>
<polygon fill="#ffffff" stroke="transparent" points="336,-152.7 336,-171.7 507,-171.7 507,-152.7 336,-152.7"/>
<polygon fill="none" stroke="#000000" points="336,-152.7 336,-171.7 507,-171.7 507,-152.7 336,-152.7"/>
<text text-anchor="start" x="488.4053" y="-158.8" font-family="Helvetica,sans-Serif" font-size="11.00" fill="#000000">0 &gt;</text>
<polygon fill="none" stroke="#000000" stroke-width="2" points="186,-151.7 186,-349.7 508,-349.7 508,-151.7 186,-151.7"/>
</a>
</g>
</g>
<!-- REFERENCES -->
<g id="node2" class="node">
<title>REFERENCES</title>
<g id="a_node2"><a xlink:href="../../tables/REFERENCES.html" xlink:title="REFERENCES" target="_top">
<polygon fill="#ffffff" stroke="transparent" points="8,-186.2 8,-291.2 136,-291.2 136,-186.2 8,-186.2"/>
<polygon fill="#f5f5f5" stroke="transparent" points="8,-267.7 8,-290.7 136,-290.7 136,-267.7 8,-267.7"/>
<polygon fill="none" stroke="#000000" points="8,-267.7 8,-290.7 136,-290.7 136,-267.7 8,-267.7"/>
<text text-anchor="start" x="13" y="-276.8" font-family="Helvetica,sans-Serif" font-weight="bold" font-size="11.00" fill="#000000">REFERENCES</text>
<text text-anchor="start" x="101.0437" y="-275.8" font-family="Helvetica,sans-Serif" font-size="11.00" fill="#000000">[table]</text>
<polygon fill="none" stroke="#000000" points="8,-245.7 8,-267.7 136,-267.7 136,-245.7 8,-245.7"/>
<image xlink:href="../../images/primaryKeys.png" width="11px" height="12px" preserveAspectRatio="xMinYMin meet" x="13" y="-262.7"/>
<text text-anchor="start" x="28" y="-252.8" font-family="Helvetica,sans-Serif" font-size="11.00" fill="#000000">ID</text>
<polygon fill="none" stroke="#000000" points="8,-223.7 8,-245.7 136,-245.7 136,-223.7 8,-223.7"/>
<image xlink:href="../../images/foreignKeys.png" width="11px" height="12px" preserveAspectRatio="xMinYMin meet" x="13" y="-240.7"/>
<text text-anchor="start" x="28" y="-230.8" font-family="Helvetica,sans-Serif" font-size="11.00" fill="#000000">USER_ID</text>
<polygon fill="none" stroke="#000000" points="8,-204.7 8,-223.7 136,-223.7 136,-204.7 8,-204.7"/>
<text text-anchor="start" x="11" y="-210.8" font-family="Helvetica,sans-Serif" font-size="11.00" fill="#000000">...</text>
<polygon fill="#ffffff" stroke="transparent" points="8,-185.7 8,-204.7 39,-204.7 39,-185.7 8,-185.7"/>
<polygon fill="none" stroke="#000000" points="8,-185.7 8,-204.7 39,-204.7 39,-185.7 8,-185.7"/>
<text text-anchor="start" x="11" y="-191.8" font-family="Helvetica,sans-Serif" font-size="11.00" fill="#000000">&lt; 1</text>
<polygon fill="#ffffff" stroke="transparent" points="39,-185.7 39,-204.7 103,-204.7 103,-185.7 39,-185.7"/>
<polygon fill="none" stroke="#000000" points="39,-185.7 39,-204.7 103,-204.7 103,-185.7 39,-185.7"/>
<text text-anchor="start" x="46.2089" y="-191.8" font-family="Helvetica,sans-Serif" font-size="11.00" fill="#000000">2,900 rows</text>
<polygon fill="#ffffff" stroke="transparent" points="103,-185.7 103,-204.7 136,-204.7 136,-185.7 103,-185.7"/>
<polygon fill="none" stroke="#000000" points="103,-185.7 103,-204.7 136,-204.7 136,-185.7 103,-185.7"/>
<text text-anchor="start" x="111.2904" y="-191.8" font-family="Helvetica,sans-Serif" font-size="11.00" fill="#000000">20 &gt;</text>
</a>
</g>
</g>
<!-- REFERENCES_TAGS&#45;&gt;REFERENCES -->
<g id="edge1" class="edge">
<title>REFERENCES_TAGS:w&#45;&gt;REFERENCES:e</title>
<path fill="none" stroke="#000000" d="M173.0468,-209.4988C158.161,-222.3719 162.3017,-256.7 136,-256.7"/>
<polygon fill="#000000" stroke="#000000" points="179.4349,-207.3018 188.1708,-208.1043 183.2175,-206.0009 187,-204.7 187,-204.7 187,-204.7 183.2175,-206.0009 185.8292,-201.2957 179.4349,-207.3018 179.4349,-207.3018"/>
<ellipse fill="none" stroke="#000000" cx="176.4089" cy="-208.3426" rx="3.2" ry="3.2"/>
</g>
<!-- TAGS -->
<g id="node3" class="node">
<title>TAGS</title>
<g id="a_node3"><a xlink:href="../../tables/TAGS.html" xlink:title="TAGS" target="_top">
<polygon fill="#ffffff" stroke="transparent" points="18,-38.2 18,-165.2 126,-165.2 126,-38.2 18,-38.2"/>
<polygon fill="#f5f5f5" stroke="transparent" points="18,-141.7 18,-164.7 126,-164.7 126,-141.7 18,-141.7"/>
<polygon fill="none" stroke="#000000" points="18,-141.7 18,-164.7 126,-164.7 126,-141.7 18,-141.7"/>
<text text-anchor="start" x="23" y="-150.8" font-family="Helvetica,sans-Serif" font-weight="bold" font-size="11.00" fill="#000000">TAGS</text>
<text text-anchor="start" x="91.0437" y="-149.8" font-family="Helvetica,sans-Serif" font-size="11.00" fill="#000000">[table]</text>
<polygon fill="none" stroke="#000000" points="18,-119.7 18,-141.7 126,-141.7 126,-119.7 18,-119.7"/>
<image xlink:href="../../images/primaryKeys.png" width="11px" height="12px" preserveAspectRatio="xMinYMin meet" x="23" y="-136.7"/>
<text text-anchor="start" x="38" y="-126.8" font-family="Helvetica,sans-Serif" font-size="11.00" fill="#000000">ID</text>
<polygon fill="none" stroke="#000000" points="18,-97.7 18,-119.7 126,-119.7 126,-97.7 18,-97.7"/>
<image xlink:href="../../images/primaryKeys.png" width="11px" height="12px" preserveAspectRatio="xMinYMin meet" x="23" y="-114.7"/>
<text text-anchor="start" x="38" y="-104.8" font-family="Helvetica,sans-Serif" font-size="11.00" fill="#000000">COLOR</text>
<polygon fill="none" stroke="#000000" points="18,-75.7 18,-97.7 126,-97.7 126,-75.7 18,-75.7"/>
<image xlink:href="../../images/primaryKeys.png" width="11px" height="12px" preserveAspectRatio="xMinYMin meet" x="23" y="-92.7"/>
<text text-anchor="start" x="38" y="-82.8" font-family="Helvetica,sans-Serif" font-size="11.00" fill="#000000">TITLE</text>
<polygon fill="none" stroke="#000000" points="18,-56.7 18,-75.7 126,-75.7 126,-56.7 18,-56.7"/>
<text text-anchor="start" x="21" y="-62.8" font-family="Helvetica,sans-Serif" font-size="11.00" fill="#000000">...</text>
<polygon fill="#ffffff" stroke="transparent" points="18,-37.7 18,-56.7 45,-56.7 45,-37.7 18,-37.7"/>
<polygon fill="none" stroke="#000000" points="18,-37.7 18,-56.7 45,-56.7 45,-37.7 18,-37.7"/>
<text text-anchor="start" x="21" y="-43.8" font-family="Helvetica,sans-Serif" font-size="11.00" fill="#000000"> &#160;</text>
<polygon fill="#ffffff" stroke="transparent" points="45,-37.7 45,-56.7 97,-56.7 97,-37.7 45,-37.7"/>
<polygon fill="none" stroke="#000000" points="45,-37.7 45,-56.7 97,-56.7 97,-37.7 45,-37.7"/>
<text text-anchor="start" x="55.4956" y="-43.8" font-family="Helvetica,sans-Serif" font-size="11.00" fill="#000000">21 rows</text>
<polygon fill="#ffffff" stroke="transparent" points="97,-37.7 97,-56.7 126,-56.7 126,-37.7 97,-37.7"/>
<polygon fill="none" stroke="#000000" points="97,-37.7 97,-56.7 126,-56.7 126,-37.7 97,-37.7"/>
<text text-anchor="start" x="107.4053" y="-43.8" font-family="Helvetica,sans-Serif" font-size="11.00" fill="#000000">3 &gt;</text>
</a>
</g>
</g>
<!-- REFERENCES_TAGS&#45;&gt;TAGS -->
<g id="edge2" class="edge">
<title>REFERENCES_TAGS:w&#45;&gt;TAGS:e</title>
<path fill="none" stroke="#000000" d="M173.0365,-179.1258C153.4815,-167.3776 155.9194,-130.7 126,-130.7"/>
<polygon fill="#000000" stroke="#000000" points="179.2499,-180.7162 186.1073,-186.1876 183.1249,-181.7081 187,-182.7 187,-182.7 187,-182.7 183.1249,-181.7081 187.8927,-179.2124 179.2499,-180.7162 179.2499,-180.7162"/>
<ellipse fill="none" stroke="#000000" cx="176.1498" cy="-179.9227" rx="3.2" ry="3.2"/>
</g>
</g>
</svg>
