<?xml version="1.0" encoding="UTF-8" standalone="no"?>
<!DOCTYPE svg PUBLIC "-//W3C//DTD SVG 1.1//EN"
 "http://www.w3.org/Graphics/SVG/1.1/DTD/svg11.dtd">
<!-- Generated by graphviz version 2.40.1 (20161225.0304)
 -->
<!-- Title: oneDegreeRelationshipsDiagram Pages: 1 -->
<svg width="545pt" height="356pt"
 viewBox="0.00 0.00 545.00 355.70" xmlns="http://www.w3.org/2000/svg" xmlns:xlink="http://www.w3.org/1999/xlink">
<g id="graph0" class="graph" transform="scale(1 1) rotate(0) translate(4 351.7)">
<title>oneDegreeRelationshipsDiagram</title>
<polygon fill="#ffffff" stroke="transparent" points="-4,4 -4,-351.7 541,-351.7 541,4 -4,4"/>
<text text-anchor="middle" x="72.4936" y="-7.3" font-family="Helvetica,sans-Serif" font-size="11.00" fill="#000000">Generated by SchemaSpy</text>
<!-- NOTIFICATION_SETTINGS -->
<g id="node1" class="node">
<title>NOTIFICATION_SETTINGS</title>
<g id="a_node1"><a xlink:href="../../tables/NOTIFICATION_SETTINGS.html" xlink:title="NOTIFICATION_SETTINGS" target="_top">
<polygon fill="#ffffff" stroke="transparent" points="340,-216.7 340,-343.7 529,-343.7 529,-216.7 340,-216.7"/>
<polygon fill="#f5f5f5" stroke="transparent" points="340.5,-320.2 340.5,-343.2 529.5,-343.2 529.5,-320.2 340.5,-320.2"/>
<polygon fill="none" stroke="#000000" points="340.5,-320.2 340.5,-343.2 529.5,-343.2 529.5,-320.2 340.5,-320.2"/>
<text text-anchor="start" x="345.5" y="-329.3" font-family="Helvetica,sans-Serif" font-weight="bold" font-size="11.00" fill="#000000">NOTIFICATION_SETTINGS</text>
<text text-anchor="start" x="494.5437" y="-328.3" font-family="Helvetica,sans-Serif" font-size="11.00" fill="#000000">[table]</text>
<polygon fill="none" stroke="#000000" points="340.5,-298.2 340.5,-320.2 529.5,-320.2 529.5,-298.2 340.5,-298.2"/>
<image xlink:href="../../images/primaryKeys.png" width="11px" height="12px" preserveAspectRatio="xMinYMin meet" x="345.5" y="-315.2"/>
<text text-anchor="start" x="360.5" y="-305.3" font-family="Helvetica,sans-Serif" font-size="11.00" fill="#000000">ID</text>
<polygon fill="none" stroke="#000000" points="340.5,-276.2 340.5,-298.2 529.5,-298.2 529.5,-276.2 340.5,-276.2"/>
<image xlink:href="../../images/foreignKeys.png" width="11px" height="12px" preserveAspectRatio="xMinYMin meet" x="345.5" y="-293.2"/>
<text text-anchor="start" x="360.5" y="-283.3" font-family="Helvetica,sans-Serif" font-size="11.00" fill="#000000">ACTIVITY_TYPE_ID</text>
<polygon fill="none" stroke="#000000" points="340.5,-254.2 340.5,-276.2 529.5,-276.2 529.5,-254.2 340.5,-254.2"/>
<image xlink:href="../../images/foreignKeys.png" width="11px" height="12px" preserveAspectRatio="xMinYMin meet" x="345.5" y="-271.2"/>
<text text-anchor="start" x="360.5" y="-261.3" font-family="Helvetica,sans-Serif" font-size="11.00" fill="#000000">ROLE_ID</text>
<polygon fill="none" stroke="#000000" points="340.5,-235.2 340.5,-254.2 529.5,-254.2 529.5,-235.2 340.5,-235.2"/>
<text text-anchor="start" x="343.5" y="-241.3" font-family="Helvetica,sans-Serif" font-size="11.00" fill="#000000">...</text>
<polygon fill="#ffffff" stroke="transparent" points="340.5,-216.2 340.5,-235.2 414.5,-235.2 414.5,-216.2 340.5,-216.2"/>
<polygon fill="none" stroke="#000000" points="340.5,-216.2 340.5,-235.2 414.5,-235.2 414.5,-216.2 340.5,-216.2"/>
<text text-anchor="start" x="343.5" y="-222.3" font-family="Helvetica,sans-Serif" font-size="11.00" fill="#000000">&lt; 2</text>
<polygon fill="#ffffff" stroke="transparent" points="414.5,-216.2 414.5,-235.2 490.5,-235.2 490.5,-216.2 414.5,-216.2"/>
<polygon fill="none" stroke="#000000" points="414.5,-216.2 414.5,-235.2 490.5,-235.2 490.5,-216.2 414.5,-216.2"/>
<text text-anchor="start" x="442.8807" y="-222.3" font-family="Helvetica,sans-Serif" font-size="11.00" fill="#000000">108 rows</text>
<polygon fill="#ffffff" stroke="transparent" points="490.5,-216.2 490.5,-235.2 529.5,-235.2 529.5,-216.2 490.5,-216.2"/>
<polygon fill="none" stroke="#000000" points="490.5,-216.2 490.5,-235.2 529.5,-235.2 529.5,-216.2 490.5,-216.2"/>
<text text-anchor="start" x="520.3862" y="-222.3" font-family="Helvetica,sans-Serif" font-size="11.00" fill="#000000"> &#160;</text>
</a>
</g>
</g>
<!-- ROLES -->
<g id="node2" class="node">
<title>ROLES</title>
<g id="a_node2"><a xlink:href="../../tables/ROLES.html" xlink:title="ROLES" target="_top">
<polygon fill="#ffffff" stroke="transparent" points="8,-38.2 8,-216.2 291,-216.2 291,-38.2 8,-38.2"/>
<polygon fill="#f5f5f5" stroke="transparent" points="10.5,-191.2 10.5,-214.2 289.5,-214.2 289.5,-191.2 10.5,-191.2"/>
<polygon fill="none" stroke="#000000" points="10.5,-191.2 10.5,-214.2 289.5,-214.2 289.5,-191.2 10.5,-191.2"/>
<text text-anchor="start" x="15.5" y="-200.3" font-family="Helvetica,sans-Serif" font-weight="bold" font-size="11.00" fill="#000000">ROLES</text>
<text text-anchor="start" x="254.5437" y="-199.3" font-family="Helvetica,sans-Serif" font-size="11.00" fill="#000000">[table]</text>
<polygon fill="none" stroke="#000000" points="10.5,-169.2 10.5,-191.2 118.5,-191.2 118.5,-169.2 10.5,-169.2"/>
<image xlink:href="../../images/primaryKeys.png" width="11px" height="12px" preserveAspectRatio="xMinYMin meet" x="15.5" y="-186.2"/>
<text text-anchor="start" x="30.5" y="-176.3" font-family="Helvetica,sans-Serif" font-size="11.00" fill="#000000">ID</text>
<polygon fill="none" stroke="#000000" points="118.5,-169.2 118.5,-191.2 289.5,-191.2 289.5,-169.2 118.5,-169.2"/>
<text text-anchor="start" x="121.5" y="-176.9" font-family="Helvetica,sans-Serif" font-size="11.00" fill="#000000">number[19]</text>
<polygon fill="none" stroke="#000000" points="10.5,-147.2 10.5,-169.2 118.5,-169.2 118.5,-147.2 10.5,-147.2"/>
<text text-anchor="start" x="30.5" y="-154.3" font-family="Helvetica,sans-Serif" font-size="11.00" fill="#000000">CREATED_AT</text>
<polygon fill="none" stroke="#000000" points="118.5,-147.2 118.5,-169.2 289.5,-169.2 289.5,-147.2 118.5,-147.2"/>
<text text-anchor="start" x="121.4896" y="-154.9" font-family="Helvetica,sans-Serif" font-size="11.00" fill="#000000">timestamp(6) with time zone[13,6]</text>
<polygon fill="none" stroke="#000000" points="10.5,-125.2 10.5,-147.2 118.5,-147.2 118.5,-125.2 10.5,-125.2"/>
<text text-anchor="start" x="30.5" y="-132.3" font-family="Helvetica,sans-Serif" font-size="11.00" fill="#000000">CREATED_BY</text>
<polygon fill="none" stroke="#000000" points="118.5,-125.2 118.5,-147.2 289.5,-147.2 289.5,-125.2 118.5,-125.2"/>
<text text-anchor="start" x="121.5" y="-132.9" font-family="Helvetica,sans-Serif" font-size="11.00" fill="#000000">number[19]</text>
<polygon fill="none" stroke="#000000" points="10.5,-103.2 10.5,-125.2 118.5,-125.2 118.5,-103.2 10.5,-103.2"/>
<text text-anchor="start" x="30.5" y="-110.3" font-family="Helvetica,sans-Serif" font-size="11.00" fill="#000000">UPDATED_AT</text>
<polygon fill="none" stroke="#000000" points="118.5,-103.2 118.5,-125.2 289.5,-125.2 289.5,-103.2 118.5,-103.2"/>
<text text-anchor="start" x="121.4896" y="-110.9" font-family="Helvetica,sans-Serif" font-size="11.00" fill="#000000">timestamp(6) with time zone[13,6]</text>
<polygon fill="none" stroke="#000000" points="10.5,-81.2 10.5,-103.2 118.5,-103.2 118.5,-81.2 10.5,-81.2"/>
<text text-anchor="start" x="30.5" y="-88.3" font-family="Helvetica,sans-Serif" font-size="11.00" fill="#000000">UPDATED_BY</text>
<polygon fill="none" stroke="#000000" points="118.5,-81.2 118.5,-103.2 289.5,-103.2 289.5,-81.2 118.5,-81.2"/>
<text text-anchor="start" x="121.5" y="-88.9" font-family="Helvetica,sans-Serif" font-size="11.00" fill="#000000">number[19]</text>
<polygon fill="none" stroke="#000000" points="10.5,-59.2 10.5,-81.2 118.5,-81.2 118.5,-59.2 10.5,-59.2"/>
<image xlink:href="../../images/primaryKeys.png" width="11px" height="12px" preserveAspectRatio="xMinYMin meet" x="15.5" y="-76.2"/>
<text text-anchor="start" x="30.5" y="-66.3" font-family="Helvetica,sans-Serif" font-size="11.00" fill="#000000">TITLE</text>
<polygon fill="none" stroke="#000000" points="118.5,-59.2 118.5,-81.2 289.5,-81.2 289.5,-59.2 118.5,-59.2"/>
<text text-anchor="start" x="121.5" y="-66.9" font-family="Helvetica,sans-Serif" font-size="11.00" fill="#000000">varchar2[255]</text>
<polygon fill="#ffffff" stroke="transparent" points="10.5,-40.2 10.5,-59.2 52.5,-59.2 52.5,-40.2 10.5,-40.2"/>
<polygon fill="none" stroke="#000000" points="10.5,-40.2 10.5,-59.2 52.5,-59.2 52.5,-40.2 10.5,-40.2"/>
<text text-anchor="start" x="13.5" y="-46.3" font-family="Helvetica,sans-Serif" font-size="11.00" fill="#000000">&lt; 0</text>
<polygon fill="#ffffff" stroke="transparent" points="52.5,-40.2 52.5,-59.2 118.5,-59.2 118.5,-40.2 52.5,-40.2"/>
<polygon fill="none" stroke="#000000" points="52.5,-40.2 52.5,-59.2 118.5,-59.2 118.5,-40.2 52.5,-40.2"/>
<text text-anchor="start" x="76.9956" y="-46.3" font-family="Helvetica,sans-Serif" font-size="11.00" fill="#000000">11 rows</text>
<polygon fill="#ffffff" stroke="transparent" points="118.5,-40.2 118.5,-59.2 289.5,-59.2 289.5,-40.2 118.5,-40.2"/>
<polygon fill="none" stroke="#000000" points="118.5,-40.2 118.5,-59.2 289.5,-59.2 289.5,-40.2 118.5,-40.2"/>
<text text-anchor="start" x="270.9053" y="-46.3" font-family="Helvetica,sans-Serif" font-size="11.00" fill="#000000">2 &gt;</text>
<polygon fill="none" stroke="#000000" stroke-width="2" points="9,-39.2 9,-215.2 290,-215.2 290,-39.2 9,-39.2"/>
</a>
</g>
</g>
<!-- NOTIFICATION_SETTINGS&#45;&gt;ROLES -->
<g id="edge1" class="edge">
<title>NOTIFICATION_SETTINGS:w&#45;&gt;ROLES:e</title>
<path fill="none" stroke="#000000" d="M326.5669,-260.868C305.0746,-243.5466 327.5328,-180.2 289.5,-180.2"/>
<polygon fill="#000000" stroke="#000000" points="332.8607,-262.8248 339.4312,-268.6377 336.6804,-264.0124 340.5,-265.2 340.5,-265.2 340.5,-265.2 336.6804,-264.0124 341.5688,-261.7623 332.8607,-262.8248 332.8607,-262.8248"/>
<ellipse fill="none" stroke="#000000" cx="329.805" cy="-261.8747" rx="3.2" ry="3.2"/>
</g>
<!-- TARGETS_USERS -->
<g id="node3" class="node">
<title>TARGETS_USERS</title>
<g id="a_node3"><a xlink:href="../../tables/TARGETS_USERS.html" xlink:title="TARGETS_USERS" target="_top">
<polygon fill="#ffffff" stroke="transparent" points="365.5,-46.7 365.5,-195.7 503.5,-195.7 503.5,-46.7 365.5,-46.7"/>
<polygon fill="#f5f5f5" stroke="transparent" points="365.5,-172.2 365.5,-195.2 503.5,-195.2 503.5,-172.2 365.5,-172.2"/>
<polygon fill="none" stroke="#000000" points="365.5,-172.2 365.5,-195.2 503.5,-195.2 503.5,-172.2 365.5,-172.2"/>
<text text-anchor="start" x="370.0252" y="-181.3" font-family="Helvetica,sans-Serif" font-weight="bold" font-size="11.00" fill="#000000">TARGETS_USERS</text>
<text text-anchor="start" x="469.0219" y="-180.3" font-family="Helvetica,sans-Serif" font-size="11.00" fill="#000000">[table]</text>
<polygon fill="none" stroke="#000000" points="365.5,-150.2 365.5,-172.2 503.5,-172.2 503.5,-150.2 365.5,-150.2"/>
<image xlink:href="../../images/primaryKeys.png" width="11px" height="12px" preserveAspectRatio="xMinYMin meet" x="370.5" y="-167.2"/>
<text text-anchor="start" x="388.5" y="-157.3" font-family="Helvetica,sans-Serif" font-size="11.00" fill="#000000">ID</text>
<polygon fill="none" stroke="#000000" points="365.5,-128.2 365.5,-150.2 503.5,-150.2 503.5,-128.2 365.5,-128.2"/>
<image xlink:href="../../images/foreignKeys.png" width="11px" height="12px" preserveAspectRatio="xMinYMin meet" x="370.5" y="-145.2"/>
<text text-anchor="start" x="388.5" y="-135.3" font-family="Helvetica,sans-Serif" font-size="11.00" fill="#000000">TARGET_ID</text>
<polygon fill="none" stroke="#000000" points="365.5,-106.2 365.5,-128.2 503.5,-128.2 503.5,-106.2 365.5,-106.2"/>
<image xlink:href="../../images/foreignKeys.png" width="11px" height="12px" preserveAspectRatio="xMinYMin meet" x="370.5" y="-123.2"/>
<text text-anchor="start" x="388.5" y="-113.3" font-family="Helvetica,sans-Serif" font-size="11.00" fill="#000000">USER_ID</text>
<polygon fill="none" stroke="#000000" points="365.5,-84.2 365.5,-106.2 503.5,-106.2 503.5,-84.2 365.5,-84.2"/>
<image xlink:href="../../images/foreignKeys.png" width="11px" height="12px" preserveAspectRatio="xMinYMin meet" x="370.5" y="-101.2"/>
<text text-anchor="start" x="388.5" y="-91.3" font-family="Helvetica,sans-Serif" font-size="11.00" fill="#000000">ROLE_ID</text>
<polygon fill="none" stroke="#000000" points="365.5,-65.2 365.5,-84.2 503.5,-84.2 503.5,-65.2 365.5,-65.2"/>
<text text-anchor="start" x="368.5" y="-71.3" font-family="Helvetica,sans-Serif" font-size="11.00" fill="#000000">...</text>
<polygon fill="#ffffff" stroke="transparent" points="365.5,-46.2 365.5,-65.2 416.5,-65.2 416.5,-46.2 365.5,-46.2"/>
<polygon fill="none" stroke="#000000" points="365.5,-46.2 365.5,-65.2 416.5,-65.2 416.5,-46.2 365.5,-46.2"/>
<text text-anchor="start" x="368.5" y="-52.3" font-family="Helvetica,sans-Serif" font-size="11.00" fill="#000000">&lt; 3</text>
<polygon fill="#ffffff" stroke="transparent" points="416.5,-46.2 416.5,-65.2 475.5,-65.2 475.5,-46.2 416.5,-46.2"/>
<polygon fill="none" stroke="#000000" points="416.5,-46.2 416.5,-65.2 475.5,-65.2 475.5,-46.2 416.5,-46.2"/>
<text text-anchor="start" x="433.9956" y="-52.3" font-family="Helvetica,sans-Serif" font-size="11.00" fill="#000000">35 rows</text>
<polygon fill="#ffffff" stroke="transparent" points="475.5,-46.2 475.5,-65.2 503.5,-65.2 503.5,-46.2 475.5,-46.2"/>
<polygon fill="none" stroke="#000000" points="475.5,-46.2 475.5,-65.2 503.5,-65.2 503.5,-46.2 475.5,-46.2"/>
<text text-anchor="start" x="494.3862" y="-52.3" font-family="Helvetica,sans-Serif" font-size="11.00" fill="#000000"> &#160;</text>
</a>
</g>
</g>
<!-- TARGETS_USERS&#45;&gt;ROLES -->
<g id="edge2" class="edge">
<title>TARGETS_USERS:w&#45;&gt;ROLES:e</title>
<path fill="none" stroke="#000000" d="M350.9839,-98.2252C319.5919,-113.367 334.4357,-180.2 289.5,-180.2"/>
<polygon fill="#000000" stroke="#000000" points="357.6683,-96.8322 366.2345,-98.7243 361.5841,-96.0161 365.5,-95.2 365.5,-95.2 365.5,-95.2 361.5841,-96.0161 364.7655,-91.6757 357.6683,-96.8322 357.6683,-96.8322"/>
<ellipse fill="none" stroke="#000000" cx="354.5356" cy="-97.4851" rx="3.2" ry="3.2"/>
</g>
</g>
</svg>
