<?xml version="1.0" encoding="UTF-8" standalone="no"?>
<!DOCTYPE svg PUBLIC "-//W3C//DTD SVG 1.1//EN"
 "http://www.w3.org/Graphics/SVG/1.1/DTD/svg11.dtd">
<!-- Generated by graphviz version 2.40.1 (20161225.0304)
 -->
<!-- Title: oneDegreeRelationshipsDiagram Pages: 1 -->
<svg width="1573pt" height="451pt"
 viewBox="0.00 0.00 1573.00 451.20" xmlns="http://www.w3.org/2000/svg" xmlns:xlink="http://www.w3.org/1999/xlink">
<g id="graph0" class="graph" transform="scale(1 1) rotate(0) translate(4 447.2)">
<title>oneDegreeRelationshipsDiagram</title>
<polygon fill="#ffffff" stroke="transparent" points="-4,4 -4,-447.2 1569,-447.2 1569,4 -4,4"/>
<text text-anchor="middle" x="72.4936" y="-7.3" font-family="Helvetica,sans-Serif" font-size="11.00" fill="#000000">Generated by SchemaSpy</text>
<!-- SCREENING_PLANS -->
<g id="node1" class="node">
<title>SCREENING_PLANS</title>
<g id="a_node1"><a xlink:href="../../tables/SCREENING_PLANS.html" xlink:title="SCREENING_PLANS" target="_top">
<polygon fill="#ffffff" stroke="transparent" points="894,-86.7 894,-396.7 1235,-396.7 1235,-86.7 894,-86.7"/>
<polygon fill="#f5f5f5" stroke="transparent" points="896.5,-371.7 896.5,-394.7 1233.5,-394.7 1233.5,-371.7 896.5,-371.7"/>
<polygon fill="none" stroke="#000000" points="896.5,-371.7 896.5,-394.7 1233.5,-394.7 1233.5,-371.7 896.5,-371.7"/>
<text text-anchor="start" x="901.5" y="-380.8" font-family="Helvetica,sans-Serif" font-weight="bold" font-size="11.00" fill="#000000">SCREENING_PLANS</text>
<text text-anchor="start" x="1198.5437" y="-379.8" font-family="Helvetica,sans-Serif" font-size="11.00" fill="#000000">[table]</text>
<polygon fill="none" stroke="#000000" points="896.5,-349.7 896.5,-371.7 1062.5,-371.7 1062.5,-349.7 896.5,-349.7"/>
<image xlink:href="../../images/primaryKeys.png" width="11px" height="12px" preserveAspectRatio="xMinYMin meet" x="901.5" y="-366.7"/>
<text text-anchor="start" x="916.5" y="-356.8" font-family="Helvetica,sans-Serif" font-size="11.00" fill="#000000">ID</text>
<polygon fill="none" stroke="#000000" points="1062.5,-349.7 1062.5,-371.7 1233.5,-371.7 1233.5,-349.7 1062.5,-349.7"/>
<text text-anchor="start" x="1065.5" y="-357.4" font-family="Helvetica,sans-Serif" font-size="11.00" fill="#000000">number[19]</text>
<polygon fill="none" stroke="#000000" points="896.5,-327.7 896.5,-349.7 1062.5,-349.7 1062.5,-327.7 896.5,-327.7"/>
<text text-anchor="start" x="916.5" y="-334.8" font-family="Helvetica,sans-Serif" font-size="11.00" fill="#000000">CREATED_AT</text>
<polygon fill="none" stroke="#000000" points="1062.5,-327.7 1062.5,-349.7 1233.5,-349.7 1233.5,-327.7 1062.5,-327.7"/>
<text text-anchor="start" x="1065.4896" y="-335.4" font-family="Helvetica,sans-Serif" font-size="11.00" fill="#000000">timestamp(6) with time zone[13,6]</text>
<polygon fill="none" stroke="#000000" points="896.5,-305.7 896.5,-327.7 1062.5,-327.7 1062.5,-305.7 896.5,-305.7"/>
<text text-anchor="start" x="916.5" y="-312.8" font-family="Helvetica,sans-Serif" font-size="11.00" fill="#000000">CREATED_BY</text>
<polygon fill="none" stroke="#000000" points="1062.5,-305.7 1062.5,-327.7 1233.5,-327.7 1233.5,-305.7 1062.5,-305.7"/>
<text text-anchor="start" x="1065.5" y="-313.4" font-family="Helvetica,sans-Serif" font-size="11.00" fill="#000000">number[19]</text>
<polygon fill="none" stroke="#000000" points="896.5,-283.7 896.5,-305.7 1062.5,-305.7 1062.5,-283.7 896.5,-283.7"/>
<text text-anchor="start" x="916.5" y="-290.8" font-family="Helvetica,sans-Serif" font-size="11.00" fill="#000000">UPDATED_AT</text>
<polygon fill="none" stroke="#000000" points="1062.5,-283.7 1062.5,-305.7 1233.5,-305.7 1233.5,-283.7 1062.5,-283.7"/>
<text text-anchor="start" x="1065.4896" y="-291.4" font-family="Helvetica,sans-Serif" font-size="11.00" fill="#000000">timestamp(6) with time zone[13,6]</text>
<polygon fill="none" stroke="#000000" points="896.5,-261.7 896.5,-283.7 1062.5,-283.7 1062.5,-261.7 896.5,-261.7"/>
<text text-anchor="start" x="916.5" y="-268.8" font-family="Helvetica,sans-Serif" font-size="11.00" fill="#000000">UPDATED_BY</text>
<polygon fill="none" stroke="#000000" points="1062.5,-261.7 1062.5,-283.7 1233.5,-283.7 1233.5,-261.7 1062.5,-261.7"/>
<text text-anchor="start" x="1065.5" y="-269.4" font-family="Helvetica,sans-Serif" font-size="11.00" fill="#000000">number[19]</text>
<polygon fill="none" stroke="#000000" points="896.5,-239.7 896.5,-261.7 1062.5,-261.7 1062.5,-239.7 896.5,-239.7"/>
<image xlink:href="../../images/foreignKeys.png" width="11px" height="12px" preserveAspectRatio="xMinYMin meet" x="901.5" y="-256.7"/>
<text text-anchor="start" x="916.5" y="-246.8" font-family="Helvetica,sans-Serif" font-size="11.00" fill="#000000">TARGET_ID</text>
<polygon fill="none" stroke="#000000" points="1062.5,-239.7 1062.5,-261.7 1233.5,-261.7 1233.5,-239.7 1062.5,-239.7"/>
<text text-anchor="start" x="1065.5" y="-247.4" font-family="Helvetica,sans-Serif" font-size="11.00" fill="#000000">number[19]</text>
<polygon fill="none" stroke="#000000" points="896.5,-217.7 896.5,-239.7 1062.5,-239.7 1062.5,-217.7 896.5,-217.7"/>
<image xlink:href="../../images/foreignKeys.png" width="11px" height="12px" preserveAspectRatio="xMinYMin meet" x="901.5" y="-234.7"/>
<text text-anchor="start" x="916.5" y="-224.8" font-family="Helvetica,sans-Serif" font-size="11.00" fill="#000000">TARGET_FORM_ID</text>
<polygon fill="none" stroke="#000000" points="1062.5,-217.7 1062.5,-239.7 1233.5,-239.7 1233.5,-217.7 1062.5,-217.7"/>
<text text-anchor="start" x="1065.5" y="-225.4" font-family="Helvetica,sans-Serif" font-size="11.00" fill="#000000">number[19]</text>
<polygon fill="none" stroke="#000000" points="896.5,-195.7 896.5,-217.7 1062.5,-217.7 1062.5,-195.7 896.5,-195.7"/>
<image xlink:href="../../images/foreignKeys.png" width="11px" height="12px" preserveAspectRatio="xMinYMin meet" x="901.5" y="-212.7"/>
<text text-anchor="start" x="916.5" y="-202.8" font-family="Helvetica,sans-Serif" font-size="11.00" fill="#000000">SUPPLEMENT_ID</text>
<polygon fill="none" stroke="#000000" points="1062.5,-195.7 1062.5,-217.7 1233.5,-217.7 1233.5,-195.7 1062.5,-195.7"/>
<text text-anchor="start" x="1065.5" y="-203.4" font-family="Helvetica,sans-Serif" font-size="11.00" fill="#000000">number[19]</text>
<polygon fill="none" stroke="#000000" points="896.5,-173.7 896.5,-195.7 1062.5,-195.7 1062.5,-173.7 896.5,-173.7"/>
<text text-anchor="start" x="916.5" y="-180.8" font-family="Helvetica,sans-Serif" font-size="11.00" fill="#000000">TARGET_AMOUNT</text>
<polygon fill="none" stroke="#000000" points="1062.5,-173.7 1062.5,-195.7 1233.5,-195.7 1233.5,-173.7 1062.5,-173.7"/>
<text text-anchor="start" x="1065.5" y="-181.4" font-family="Helvetica,sans-Serif" font-size="11.00" fill="#000000">number[19,2]</text>
<polygon fill="none" stroke="#000000" points="896.5,-151.7 896.5,-173.7 1062.5,-173.7 1062.5,-151.7 896.5,-151.7"/>
<text text-anchor="start" x="916.5" y="-158.8" font-family="Helvetica,sans-Serif" font-size="11.00" fill="#000000">PURPOSE</text>
<polygon fill="none" stroke="#000000" points="1062.5,-151.7 1062.5,-173.7 1233.5,-173.7 1233.5,-151.7 1062.5,-151.7"/>
<text text-anchor="start" x="1065.5" y="-159.4" font-family="Helvetica,sans-Serif" font-size="11.00" fill="#000000">clob[4000]</text>
<polygon fill="none" stroke="#000000" points="896.5,-129.7 896.5,-151.7 1062.5,-151.7 1062.5,-129.7 896.5,-129.7"/>
<text text-anchor="start" x="916.5" y="-136.8" font-family="Helvetica,sans-Serif" font-size="11.00" fill="#000000">EXPECTED_BEHAVIOR</text>
<polygon fill="none" stroke="#000000" points="1062.5,-129.7 1062.5,-151.7 1233.5,-151.7 1233.5,-129.7 1062.5,-129.7"/>
<text text-anchor="start" x="1065.5" y="-137.4" font-family="Helvetica,sans-Serif" font-size="11.00" fill="#000000">clob[4000]</text>
<polygon fill="none" stroke="#000000" points="896.5,-107.7 896.5,-129.7 1062.5,-129.7 1062.5,-107.7 896.5,-107.7"/>
<text text-anchor="start" x="916.5" y="-114.8" font-family="Helvetica,sans-Serif" font-size="11.00" fill="#000000">IS_DELETED</text>
<polygon fill="none" stroke="#000000" points="1062.5,-107.7 1062.5,-129.7 1233.5,-129.7 1233.5,-107.7 1062.5,-107.7"/>
<text text-anchor="start" x="1065.5" y="-115.4" font-family="Helvetica,sans-Serif" font-size="11.00" fill="#000000">number[1]</text>
<polygon fill="#ffffff" stroke="transparent" points="896.5,-88.7 896.5,-107.7 964.5,-107.7 964.5,-88.7 896.5,-88.7"/>
<polygon fill="none" stroke="#000000" points="896.5,-88.7 896.5,-107.7 964.5,-107.7 964.5,-88.7 896.5,-88.7"/>
<text text-anchor="start" x="899.5" y="-94.8" font-family="Helvetica,sans-Serif" font-size="11.00" fill="#000000">&lt; 3</text>
<polygon fill="#ffffff" stroke="transparent" points="964.5,-88.7 964.5,-107.7 1062.5,-107.7 1062.5,-88.7 964.5,-88.7"/>
<polygon fill="none" stroke="#000000" points="964.5,-88.7 964.5,-107.7 1062.5,-107.7 1062.5,-88.7 964.5,-88.7"/>
<text text-anchor="start" x="1014.8807" y="-94.8" font-family="Helvetica,sans-Serif" font-size="11.00" fill="#000000">137 rows</text>
<polygon fill="#ffffff" stroke="transparent" points="1062.5,-88.7 1062.5,-107.7 1233.5,-107.7 1233.5,-88.7 1062.5,-88.7"/>
<polygon fill="none" stroke="#000000" points="1062.5,-88.7 1062.5,-107.7 1233.5,-107.7 1233.5,-88.7 1062.5,-88.7"/>
<text text-anchor="start" x="1214.9053" y="-94.8" font-family="Helvetica,sans-Serif" font-size="11.00" fill="#000000">1 &gt;</text>
<polygon fill="none" stroke="#000000" stroke-width="2" points="895,-87.7 895,-395.7 1234,-395.7 1234,-87.7 895,-87.7"/>
</a>
</g>
</g>
<!-- SUPPLEMENTS -->
<g id="node2" class="node">
<title>SUPPLEMENTS</title>
<g id="a_node2"><a xlink:href="../../tables/SUPPLEMENTS.html" xlink:title="SUPPLEMENTS" target="_top">
<polygon fill="#ffffff" stroke="transparent" points="657,-99.2 657,-204.2 845,-204.2 845,-99.2 657,-99.2"/>
<polygon fill="#f5f5f5" stroke="transparent" points="657,-180.7 657,-203.7 845,-203.7 845,-180.7 657,-180.7"/>
<polygon fill="none" stroke="#000000" points="657,-180.7 657,-203.7 845,-203.7 845,-180.7 657,-180.7"/>
<text text-anchor="start" x="662" y="-189.8" font-family="Helvetica,sans-Serif" font-weight="bold" font-size="11.00" fill="#000000">SUPPLEMENTS</text>
<text text-anchor="start" x="810.0437" y="-188.8" font-family="Helvetica,sans-Serif" font-size="11.00" fill="#000000">[table]</text>
<polygon fill="none" stroke="#000000" points="657,-158.7 657,-180.7 845,-180.7 845,-158.7 657,-158.7"/>
<image xlink:href="../../images/primaryKeys.png" width="11px" height="12px" preserveAspectRatio="xMinYMin meet" x="662" y="-175.7"/>
<text text-anchor="start" x="677" y="-165.8" font-family="Helvetica,sans-Serif" font-size="11.00" fill="#000000">ID</text>
<polygon fill="none" stroke="#000000" points="657,-136.7 657,-158.7 845,-158.7 845,-136.7 657,-136.7"/>
<image xlink:href="../../images/foreignKeys.png" width="11px" height="12px" preserveAspectRatio="xMinYMin meet" x="662" y="-153.7"/>
<text text-anchor="start" x="677" y="-143.8" font-family="Helvetica,sans-Serif" font-size="11.00" fill="#000000">TARGET_FORM_ID</text>
<polygon fill="none" stroke="#000000" points="657,-117.7 657,-136.7 845,-136.7 845,-117.7 657,-117.7"/>
<text text-anchor="start" x="660" y="-123.8" font-family="Helvetica,sans-Serif" font-size="11.00" fill="#000000">...</text>
<polygon fill="#ffffff" stroke="transparent" points="657,-98.7 657,-117.7 729,-117.7 729,-98.7 657,-98.7"/>
<polygon fill="none" stroke="#000000" points="657,-98.7 657,-117.7 729,-117.7 729,-98.7 657,-98.7"/>
<text text-anchor="start" x="660" y="-104.8" font-family="Helvetica,sans-Serif" font-size="11.00" fill="#000000">&lt; 1</text>
<polygon fill="#ffffff" stroke="transparent" points="729,-98.7 729,-117.7 798,-117.7 798,-98.7 729,-98.7"/>
<polygon fill="none" stroke="#000000" points="729,-98.7 729,-117.7 798,-117.7 798,-98.7 729,-98.7"/>
<text text-anchor="start" x="756.4956" y="-104.8" font-family="Helvetica,sans-Serif" font-size="11.00" fill="#000000">77 rows</text>
<polygon fill="#ffffff" stroke="transparent" points="798,-98.7 798,-117.7 845,-117.7 845,-98.7 798,-98.7"/>
<polygon fill="none" stroke="#000000" points="798,-98.7 798,-117.7 845,-117.7 845,-98.7 798,-98.7"/>
<text text-anchor="start" x="826.4053" y="-104.8" font-family="Helvetica,sans-Serif" font-size="11.00" fill="#000000">5 &gt;</text>
</a>
</g>
</g>
<!-- SCREENING_PLANS&#45;&gt;SUPPLEMENTS -->
<g id="edge1" class="edge">
<title>SCREENING_PLANS:w&#45;&gt;SUPPLEMENTS:e</title>
<path fill="none" stroke="#000000" d="M882.4564,-202.4556C868.8991,-192.7369 867.2387,-169.7 845,-169.7"/>
<polygon fill="#000000" stroke="#000000" points="888.8421,-204.3855 895.4585,-210.1461 892.671,-205.5428 896.5,-206.7 896.5,-206.7 896.5,-206.7 892.671,-205.5428 897.5415,-203.2539 888.8421,-204.3855 888.8421,-204.3855"/>
<ellipse fill="none" stroke="#000000" cx="885.7789" cy="-203.4597" rx="3.2" ry="3.2"/>
</g>
<!-- TARGET_FORMS -->
<g id="node3" class="node">
<title>TARGET_FORMS</title>
<g id="a_node3"><a xlink:href="../../tables/TARGET_FORMS.html" xlink:title="TARGET_FORMS" target="_top">
<polygon fill="#ffffff" stroke="transparent" points="307,-38.2 307,-231.2 608,-231.2 608,-38.2 307,-38.2"/>
<polygon fill="#f5f5f5" stroke="transparent" points="307.5,-207.7 307.5,-230.7 608.5,-230.7 608.5,-207.7 307.5,-207.7"/>
<polygon fill="none" stroke="#000000" points="307.5,-207.7 307.5,-230.7 608.5,-230.7 608.5,-207.7 307.5,-207.7"/>
<text text-anchor="start" x="312.5" y="-216.8" font-family="Helvetica,sans-Serif" font-weight="bold" font-size="11.00" fill="#000000">TARGET_FORMS</text>
<text text-anchor="start" x="573.5437" y="-215.8" font-family="Helvetica,sans-Serif" font-size="11.00" fill="#000000">[table]</text>
<polygon fill="none" stroke="#000000" points="307.5,-185.7 307.5,-207.7 608.5,-207.7 608.5,-185.7 307.5,-185.7"/>
<image xlink:href="../../images/primaryKeys.png" width="11px" height="12px" preserveAspectRatio="xMinYMin meet" x="312.5" y="-202.7"/>
<text text-anchor="start" x="327.5" y="-192.8" font-family="Helvetica,sans-Serif" font-size="11.00" fill="#000000">ID</text>
<polygon fill="none" stroke="#000000" points="307.5,-163.7 307.5,-185.7 608.5,-185.7 608.5,-163.7 307.5,-163.7"/>
<image xlink:href="../../images/foreignKeys.png" width="11px" height="12px" preserveAspectRatio="xMinYMin meet" x="312.5" y="-180.7"/>
<text text-anchor="start" x="327.5" y="-170.8" font-family="Helvetica,sans-Serif" font-size="11.00" fill="#000000">TARGET_ID</text>
<polygon fill="none" stroke="#000000" points="307.5,-141.7 307.5,-163.7 608.5,-163.7 608.5,-141.7 307.5,-141.7"/>
<image xlink:href="../../images/foreignKeys.png" width="11px" height="12px" preserveAspectRatio="xMinYMin meet" x="312.5" y="-158.7"/>
<text text-anchor="start" x="327.5" y="-148.8" font-family="Helvetica,sans-Serif" font-size="11.00" fill="#000000">SPECIES_ID</text>
<polygon fill="none" stroke="#000000" points="307.5,-119.7 307.5,-141.7 608.5,-141.7 608.5,-119.7 307.5,-119.7"/>
<image xlink:href="../../images/foreignKeys.png" width="11px" height="12px" preserveAspectRatio="xMinYMin meet" x="312.5" y="-136.7"/>
<text text-anchor="start" x="327.5" y="-126.8" font-family="Helvetica,sans-Serif" font-size="11.00" fill="#000000">POST_TRANSLATIONAL_MODIFICATION_ID</text>
<polygon fill="none" stroke="#000000" points="307.5,-97.7 307.5,-119.7 608.5,-119.7 608.5,-97.7 307.5,-97.7"/>
<image xlink:href="../../images/foreignKeys.png" width="11px" height="12px" preserveAspectRatio="xMinYMin meet" x="312.5" y="-114.7"/>
<text text-anchor="start" x="327.5" y="-104.8" font-family="Helvetica,sans-Serif" font-size="11.00" fill="#000000">ISOFORM_ID</text>
<polygon fill="none" stroke="#000000" points="307.5,-75.7 307.5,-97.7 608.5,-97.7 608.5,-75.7 307.5,-75.7"/>
<image xlink:href="../../images/foreignKeys.png" width="11px" height="12px" preserveAspectRatio="xMinYMin meet" x="312.5" y="-92.7"/>
<text text-anchor="start" x="327.5" y="-82.8" font-family="Helvetica,sans-Serif" font-size="11.00" fill="#000000">EXPRESSION_SYSTEM_ID</text>
<polygon fill="none" stroke="#000000" points="307.5,-56.7 307.5,-75.7 608.5,-75.7 608.5,-56.7 307.5,-56.7"/>
<text text-anchor="start" x="310.5" y="-62.8" font-family="Helvetica,sans-Serif" font-size="11.00" fill="#000000">...</text>
<polygon fill="#ffffff" stroke="transparent" points="307.5,-37.7 307.5,-56.7 429.5,-56.7 429.5,-37.7 307.5,-37.7"/>
<polygon fill="none" stroke="#000000" points="307.5,-37.7 307.5,-56.7 429.5,-56.7 429.5,-37.7 307.5,-37.7"/>
<text text-anchor="start" x="310.5" y="-43.8" font-family="Helvetica,sans-Serif" font-size="11.00" fill="#000000">&lt; 5</text>
<polygon fill="#ffffff" stroke="transparent" points="429.5,-37.7 429.5,-56.7 530.5,-56.7 530.5,-37.7 429.5,-37.7"/>
<polygon fill="none" stroke="#000000" points="429.5,-37.7 429.5,-56.7 530.5,-56.7 530.5,-37.7 429.5,-37.7"/>
<text text-anchor="start" x="482.8807" y="-43.8" font-family="Helvetica,sans-Serif" font-size="11.00" fill="#000000">541 rows</text>
<polygon fill="#ffffff" stroke="transparent" points="530.5,-37.7 530.5,-56.7 608.5,-56.7 608.5,-37.7 530.5,-37.7"/>
<polygon fill="none" stroke="#000000" points="530.5,-37.7 530.5,-56.7 608.5,-56.7 608.5,-37.7 530.5,-37.7"/>
<text text-anchor="start" x="583.7904" y="-43.8" font-family="Helvetica,sans-Serif" font-size="11.00" fill="#000000">18 &gt;</text>
</a>
</g>
</g>
<!-- SCREENING_PLANS&#45;&gt;TARGET_FORMS -->
<g id="edge2" class="edge">
<title>SCREENING_PLANS:w&#45;&gt;TARGET_FORMS:e</title>
<path fill="none" stroke="#000000" d="M881.8194,-228.7704C783.3866,-229.7134 751.1715,-239.4179 649,-214.7 629.8546,-210.0682 628.1977,-196.7 608.5,-196.7"/>
<polygon fill="#000000" stroke="#000000" points="888.5001,-228.7384 896.5173,-232.3 892.5,-228.7192 896.5,-228.7 896.5,-228.7 896.5,-228.7 892.5,-228.7192 896.4827,-225.1 888.5001,-228.7384 888.5001,-228.7384"/>
<ellipse fill="none" stroke="#000000" cx="885.3001" cy="-228.7538" rx="3.2" ry="3.2"/>
</g>
<!-- TARGETS -->
<g id="node4" class="node">
<title>TARGETS</title>
<g id="a_node4"><a xlink:href="../../tables/TARGETS.html" xlink:title="TARGETS" target="_top">
<polygon fill="#ffffff" stroke="transparent" points="8,-100.2 8,-249.2 258,-249.2 258,-100.2 8,-100.2"/>
<polygon fill="#f5f5f5" stroke="transparent" points="8,-225.7 8,-248.7 258,-248.7 258,-225.7 8,-225.7"/>
<polygon fill="none" stroke="#000000" points="8,-225.7 8,-248.7 258,-248.7 258,-225.7 8,-225.7"/>
<text text-anchor="start" x="13" y="-234.8" font-family="Helvetica,sans-Serif" font-weight="bold" font-size="11.00" fill="#000000">TARGETS</text>
<text text-anchor="start" x="223.0437" y="-233.8" font-family="Helvetica,sans-Serif" font-size="11.00" fill="#000000">[table]</text>
<polygon fill="none" stroke="#000000" points="8,-203.7 8,-225.7 258,-225.7 258,-203.7 8,-203.7"/>
<image xlink:href="../../images/primaryKeys.png" width="11px" height="12px" preserveAspectRatio="xMinYMin meet" x="13" y="-220.7"/>
<text text-anchor="start" x="28" y="-210.8" font-family="Helvetica,sans-Serif" font-size="11.00" fill="#000000">ID</text>
<polygon fill="none" stroke="#000000" points="8,-181.7 8,-203.7 258,-203.7 258,-181.7 8,-181.7"/>
<image xlink:href="../../images/foreignKeys.png" width="11px" height="12px" preserveAspectRatio="xMinYMin meet" x="13" y="-198.7"/>
<text text-anchor="start" x="28" y="-188.8" font-family="Helvetica,sans-Serif" font-size="11.00" fill="#000000">PROJECT_ID</text>
<polygon fill="none" stroke="#000000" points="8,-159.7 8,-181.7 258,-181.7 258,-159.7 8,-159.7"/>
<image xlink:href="../../images/foreignKeys.png" width="11px" height="12px" preserveAspectRatio="xMinYMin meet" x="13" y="-176.7"/>
<text text-anchor="start" x="28" y="-166.8" font-family="Helvetica,sans-Serif" font-size="11.00" fill="#000000">TARGET_CATEGORY_ID</text>
<polygon fill="none" stroke="#000000" points="8,-137.7 8,-159.7 258,-159.7 258,-137.7 8,-137.7"/>
<image xlink:href="../../images/foreignKeys.png" width="11px" height="12px" preserveAspectRatio="xMinYMin meet" x="13" y="-154.7"/>
<text text-anchor="start" x="28" y="-144.8" font-family="Helvetica,sans-Serif" font-size="11.00" fill="#000000">THERAPEUTIC_ID</text>
<polygon fill="none" stroke="#000000" points="8,-118.7 8,-137.7 258,-137.7 258,-118.7 8,-118.7"/>
<text text-anchor="start" x="11" y="-124.8" font-family="Helvetica,sans-Serif" font-size="11.00" fill="#000000">...</text>
<polygon fill="#ffffff" stroke="transparent" points="8,-99.7 8,-118.7 105,-118.7 105,-99.7 8,-99.7"/>
<polygon fill="none" stroke="#000000" points="8,-99.7 8,-118.7 105,-118.7 105,-99.7 8,-99.7"/>
<text text-anchor="start" x="11" y="-105.8" font-family="Helvetica,sans-Serif" font-size="11.00" fill="#000000">&lt; 3</text>
<polygon fill="#ffffff" stroke="transparent" points="105,-99.7 105,-118.7 193,-118.7 193,-99.7 105,-99.7"/>
<polygon fill="none" stroke="#000000" points="105,-99.7 105,-118.7 193,-118.7 193,-99.7 105,-99.7"/>
<text text-anchor="start" x="145.3807" y="-105.8" font-family="Helvetica,sans-Serif" font-size="11.00" fill="#000000">146 rows</text>
<polygon fill="#ffffff" stroke="transparent" points="193,-99.7 193,-118.7 258,-118.7 258,-99.7 193,-99.7"/>
<polygon fill="none" stroke="#000000" points="193,-99.7 193,-118.7 258,-118.7 258,-99.7 193,-99.7"/>
<text text-anchor="start" x="233.2904" y="-105.8" font-family="Helvetica,sans-Serif" font-size="11.00" fill="#000000">10 &gt;</text>
</a>
</g>
</g>
<!-- SCREENING_PLANS&#45;&gt;TARGETS -->
<g id="edge3" class="edge">
<title>SCREENING_PLANS:w&#45;&gt;TARGETS:e</title>
<path fill="none" stroke="#000000" d="M881.9078,-250.77C627.956,-253.2157 548.1153,-318.4077 299,-241.7 278.1476,-235.2791 279.8186,-214.7 258,-214.7"/>
<polygon fill="#000000" stroke="#000000" points="888.5001,-250.7385 896.5173,-254.3 892.5,-250.7192 896.5,-250.7 896.5,-250.7 896.5,-250.7 892.5,-250.7192 896.4827,-247.1 888.5001,-250.7385 888.5001,-250.7385"/>
<ellipse fill="none" stroke="#000000" cx="885.3001" cy="-250.7538" rx="3.2" ry="3.2"/>
</g>
<!-- SUPPLEMENTS&#45;&gt;TARGET_FORMS -->
<g id="edge4" class="edge">
<title>SUPPLEMENTS:w&#45;&gt;TARGET_FORMS:e</title>
<path fill="none" stroke="#000000" d="M643.3684,-152.5774C629.6953,-164.9714 633.157,-196.7 608.5,-196.7"/>
<polygon fill="#000000" stroke="#000000" points="649.4676,-150.3951 658.2128,-151.0896 653.2338,-149.0476 657,-147.7 657,-147.7 657,-147.7 653.2338,-149.0476 655.7872,-144.3104 649.4676,-150.3951 649.4676,-150.3951"/>
<ellipse fill="none" stroke="#000000" cx="646.4547" cy="-151.4732" rx="3.2" ry="3.2"/>
</g>
<!-- TARGET_FORMS&#45;&gt;TARGETS -->
<g id="edge5" class="edge">
<title>TARGET_FORMS:w&#45;&gt;TARGETS:e</title>
<path fill="none" stroke="#000000" d="M293.6565,-179.2885C280.6245,-189.7952 280.3187,-214.7 258,-214.7"/>
<polygon fill="#000000" stroke="#000000" points="299.9063,-177.217 308.6327,-178.1172 303.7031,-175.9585 307.5,-174.7 307.5,-174.7 307.5,-174.7 303.7031,-175.9585 306.3673,-171.2828 299.9063,-177.217 299.9063,-177.217"/>
<ellipse fill="none" stroke="#000000" cx="296.8688" cy="-178.2238" rx="3.2" ry="3.2"/>
</g>
<!-- VERSIONS_PARTS_SCREENING_PLANS -->
<g id="node5" class="node">
<title>VERSIONS_PARTS_SCREENING_PLANS</title>
<g id="a_node5"><a xlink:href="../../tables/VERSIONS_PARTS_SCREENING_PLANS.html" xlink:title="VERSIONS_PARTS_SCREENING_PLANS" target="_top">
<polygon fill="#ffffff" stroke="transparent" points="1284,-312.2 1284,-439.2 1557,-439.2 1557,-312.2 1284,-312.2"/>
<polygon fill="#f5f5f5" stroke="transparent" points="1284.5,-415.7 1284.5,-438.7 1557.5,-438.7 1557.5,-415.7 1284.5,-415.7"/>
<polygon fill="none" stroke="#000000" points="1284.5,-415.7 1284.5,-438.7 1557.5,-438.7 1557.5,-415.7 1284.5,-415.7"/>
<text text-anchor="start" x="1289.5" y="-424.8" font-family="Helvetica,sans-Serif" font-weight="bold" font-size="11.00" fill="#000000">VERSIONS_PARTS_SCREENING_PLANS</text>
<text text-anchor="start" x="1522.5437" y="-423.8" font-family="Helvetica,sans-Serif" font-size="11.00" fill="#000000">[table]</text>
<polygon fill="none" stroke="#000000" points="1284.5,-393.7 1284.5,-415.7 1557.5,-415.7 1557.5,-393.7 1284.5,-393.7"/>
<image xlink:href="../../images/primaryKeys.png" width="11px" height="12px" preserveAspectRatio="xMinYMin meet" x="1289.5" y="-410.7"/>
<text text-anchor="start" x="1304.5" y="-400.8" font-family="Helvetica,sans-Serif" font-size="11.00" fill="#000000">ID</text>
<polygon fill="none" stroke="#000000" points="1284.5,-371.7 1284.5,-393.7 1557.5,-393.7 1557.5,-371.7 1284.5,-371.7"/>
<image xlink:href="../../images/primaryKeys.png" width="11px" height="12px" preserveAspectRatio="xMinYMin meet" x="1289.5" y="-388.7"/>
<text text-anchor="start" x="1304.5" y="-378.8" font-family="Helvetica,sans-Serif" font-size="11.00" fill="#000000">VERSION_PART_ID</text>
<polygon fill="none" stroke="#000000" points="1284.5,-349.7 1284.5,-371.7 1557.5,-371.7 1557.5,-349.7 1284.5,-349.7"/>
<image xlink:href="../../images/primaryKeys.png" width="11px" height="12px" preserveAspectRatio="xMinYMin meet" x="1289.5" y="-366.7"/>
<text text-anchor="start" x="1304.5" y="-356.8" font-family="Helvetica,sans-Serif" font-size="11.00" fill="#000000">SCREENING_PLAN_ID</text>
<polygon fill="none" stroke="#000000" points="1284.5,-330.7 1284.5,-349.7 1557.5,-349.7 1557.5,-330.7 1284.5,-330.7"/>
<text text-anchor="start" x="1287.5" y="-336.8" font-family="Helvetica,sans-Serif" font-size="11.00" fill="#000000">...</text>
<polygon fill="#ffffff" stroke="transparent" points="1284.5,-311.7 1284.5,-330.7 1400.5,-330.7 1400.5,-311.7 1284.5,-311.7"/>
<polygon fill="none" stroke="#000000" points="1284.5,-311.7 1284.5,-330.7 1400.5,-330.7 1400.5,-311.7 1284.5,-311.7"/>
<text text-anchor="start" x="1287.5" y="-317.8" font-family="Helvetica,sans-Serif" font-size="11.00" fill="#000000">&lt; 2</text>
<polygon fill="#ffffff" stroke="transparent" points="1400.5,-311.7 1400.5,-330.7 1497.5,-330.7 1497.5,-311.7 1400.5,-311.7"/>
<polygon fill="none" stroke="#000000" points="1400.5,-311.7 1400.5,-330.7 1497.5,-330.7 1497.5,-311.7 1400.5,-311.7"/>
<text text-anchor="start" x="1449.8807" y="-317.8" font-family="Helvetica,sans-Serif" font-size="11.00" fill="#000000">376 rows</text>
<polygon fill="#ffffff" stroke="transparent" points="1497.5,-311.7 1497.5,-330.7 1557.5,-330.7 1557.5,-311.7 1497.5,-311.7"/>
<polygon fill="none" stroke="#000000" points="1497.5,-311.7 1497.5,-330.7 1557.5,-330.7 1557.5,-311.7 1497.5,-311.7"/>
<text text-anchor="start" x="1548.3862" y="-317.8" font-family="Helvetica,sans-Serif" font-size="11.00" fill="#000000"> &#160;</text>
</a>
</g>
</g>
<!-- VERSIONS_PARTS_SCREENING_PLANS&#45;&gt;SCREENING_PLANS -->
<g id="edge6" class="edge">
<title>VERSIONS_PARTS_SCREENING_PLANS:w&#45;&gt;SCREENING_PLANS:e</title>
<path fill="none" stroke="#000000" d="M1269.776,-360.7C1257.7815,-360.7 1250.3229,-360.7 1233.5,-360.7"/>
<polygon fill="#000000" stroke="#000000" points="1276.5,-360.7001 1284.5,-364.3 1280.5,-360.7 1284.5,-360.7 1284.5,-360.7 1284.5,-360.7 1280.5,-360.7 1284.5,-357.1 1276.5,-360.7001 1276.5,-360.7001"/>
<ellipse fill="none" stroke="#000000" cx="1273.3" cy="-360.7001" rx="3.2" ry="3.2"/>
</g>
</g>
</svg>
