<?xml version="1.0" encoding="UTF-8" standalone="no"?>
<!DOCTYPE svg PUBLIC "-//W3C//DTD SVG 1.1//EN"
 "http://www.w3.org/Graphics/SVG/1.1/DTD/svg11.dtd">
<!-- Generated by graphviz version 2.40.1 (20161225.0304)
 -->
<!-- Title: oneDegreeRelationshipsDiagram Pages: 1 -->
<svg width="910pt" height="373pt"
 viewBox="0.00 0.00 910.00 372.70" xmlns="http://www.w3.org/2000/svg" xmlns:xlink="http://www.w3.org/1999/xlink">
<g id="graph0" class="graph" transform="scale(1 1) rotate(0) translate(4 368.7)">
<title>oneDegreeRelationshipsDiagram</title>
<polygon fill="#ffffff" stroke="transparent" points="-4,4 -4,-368.7 906,-368.7 906,4 -4,4"/>
<text text-anchor="middle" x="72.4936" y="-7.3" font-family="Helvetica,sans-Serif" font-size="11.00" fill="#000000">Generated by SchemaSpy</text>
<!-- SCREENING_CONDITIONS -->
<g id="node1" class="node">
<title>SCREENING_CONDITIONS</title>
<g id="a_node1"><a xlink:href="../../tables/SCREENING_CONDITIONS.html" xlink:title="SCREENING_CONDITIONS" target="_top">
<polygon fill="#ffffff" stroke="transparent" points="185,-38.2 185,-209.2 423,-209.2 423,-38.2 185,-38.2"/>
<polygon fill="#f5f5f5" stroke="transparent" points="185,-185.7 185,-208.7 423,-208.7 423,-185.7 185,-185.7"/>
<polygon fill="none" stroke="#000000" points="185,-185.7 185,-208.7 423,-208.7 423,-185.7 185,-185.7"/>
<text text-anchor="start" x="190" y="-194.8" font-family="Helvetica,sans-Serif" font-weight="bold" font-size="11.00" fill="#000000">SCREENING_CONDITIONS</text>
<text text-anchor="start" x="388.0437" y="-193.8" font-family="Helvetica,sans-Serif" font-size="11.00" fill="#000000">[table]</text>
<polygon fill="none" stroke="#000000" points="185,-163.7 185,-185.7 423,-185.7 423,-163.7 185,-163.7"/>
<image xlink:href="../../images/primaryKeys.png" width="11px" height="12px" preserveAspectRatio="xMinYMin meet" x="190" y="-180.7"/>
<text text-anchor="start" x="205" y="-170.8" font-family="Helvetica,sans-Serif" font-size="11.00" fill="#000000">ID</text>
<polygon fill="none" stroke="#000000" points="185,-141.7 185,-163.7 423,-163.7 423,-141.7 185,-141.7"/>
<image xlink:href="../../images/foreignKeys.png" width="11px" height="12px" preserveAspectRatio="xMinYMin meet" x="190" y="-158.7"/>
<text text-anchor="start" x="205" y="-148.8" font-family="Helvetica,sans-Serif" font-size="11.00" fill="#000000">DEL_LIBRARY_ID</text>
<polygon fill="none" stroke="#000000" points="185,-119.7 185,-141.7 423,-141.7 423,-119.7 185,-119.7"/>
<image xlink:href="../../images/foreignKeys.png" width="11px" height="12px" preserveAspectRatio="xMinYMin meet" x="190" y="-136.7"/>
<text text-anchor="start" x="205" y="-126.8" font-family="Helvetica,sans-Serif" font-size="11.00" fill="#000000">SCREEN_MODE_ID</text>
<polygon fill="none" stroke="#000000" points="185,-97.7 185,-119.7 423,-119.7 423,-97.7 185,-97.7"/>
<image xlink:href="../../images/foreignKeys.png" width="11px" height="12px" preserveAspectRatio="xMinYMin meet" x="190" y="-114.7"/>
<text text-anchor="start" x="205" y="-104.8" font-family="Helvetica,sans-Serif" font-size="11.00" fill="#000000">TEMPLATE_REFERENCE_ID</text>
<polygon fill="none" stroke="#000000" points="185,-75.7 185,-97.7 423,-97.7 423,-75.7 185,-75.7"/>
<image xlink:href="../../images/foreignKeys.png" width="11px" height="12px" preserveAspectRatio="xMinYMin meet" x="190" y="-92.7"/>
<text text-anchor="start" x="205" y="-82.8" font-family="Helvetica,sans-Serif" font-size="11.00" fill="#000000">TEMPLATE_DATA_REFERENCE_ID</text>
<polygon fill="none" stroke="#000000" points="185,-56.7 185,-75.7 423,-75.7 423,-56.7 185,-56.7"/>
<text text-anchor="start" x="188" y="-62.8" font-family="Helvetica,sans-Serif" font-size="11.00" fill="#000000">...</text>
<polygon fill="#ffffff" stroke="transparent" points="185,-37.7 185,-56.7 279,-56.7 279,-37.7 185,-37.7"/>
<polygon fill="none" stroke="#000000" points="185,-37.7 185,-56.7 279,-56.7 279,-37.7 185,-37.7"/>
<text text-anchor="start" x="188" y="-43.8" font-family="Helvetica,sans-Serif" font-size="11.00" fill="#000000">&lt; 4</text>
<polygon fill="#ffffff" stroke="transparent" points="279,-37.7 279,-56.7 365,-56.7 365,-37.7 279,-37.7"/>
<polygon fill="none" stroke="#000000" points="279,-37.7 279,-56.7 365,-56.7 365,-37.7 279,-37.7"/>
<text text-anchor="start" x="317.3807" y="-43.8" font-family="Helvetica,sans-Serif" font-size="11.00" fill="#000000">128 rows</text>
<polygon fill="#ffffff" stroke="transparent" points="365,-37.7 365,-56.7 423,-56.7 423,-37.7 365,-37.7"/>
<polygon fill="none" stroke="#000000" points="365,-37.7 365,-56.7 423,-56.7 423,-37.7 365,-37.7"/>
<text text-anchor="start" x="404.4053" y="-43.8" font-family="Helvetica,sans-Serif" font-size="11.00" fill="#000000">3 &gt;</text>
</a>
</g>
</g>
<!-- REFERENCES -->
<g id="node2" class="node">
<title>REFERENCES</title>
<g id="a_node2"><a xlink:href="../../tables/REFERENCES.html" xlink:title="REFERENCES" target="_top">
<polygon fill="#ffffff" stroke="transparent" points="8,-38.2 8,-143.2 136,-143.2 136,-38.2 8,-38.2"/>
<polygon fill="#f5f5f5" stroke="transparent" points="8,-119.7 8,-142.7 136,-142.7 136,-119.7 8,-119.7"/>
<polygon fill="none" stroke="#000000" points="8,-119.7 8,-142.7 136,-142.7 136,-119.7 8,-119.7"/>
<text text-anchor="start" x="13" y="-128.8" font-family="Helvetica,sans-Serif" font-weight="bold" font-size="11.00" fill="#000000">REFERENCES</text>
<text text-anchor="start" x="101.0437" y="-127.8" font-family="Helvetica,sans-Serif" font-size="11.00" fill="#000000">[table]</text>
<polygon fill="none" stroke="#000000" points="8,-97.7 8,-119.7 136,-119.7 136,-97.7 8,-97.7"/>
<image xlink:href="../../images/primaryKeys.png" width="11px" height="12px" preserveAspectRatio="xMinYMin meet" x="13" y="-114.7"/>
<text text-anchor="start" x="28" y="-104.8" font-family="Helvetica,sans-Serif" font-size="11.00" fill="#000000">ID</text>
<polygon fill="none" stroke="#000000" points="8,-75.7 8,-97.7 136,-97.7 136,-75.7 8,-75.7"/>
<image xlink:href="../../images/foreignKeys.png" width="11px" height="12px" preserveAspectRatio="xMinYMin meet" x="13" y="-92.7"/>
<text text-anchor="start" x="28" y="-82.8" font-family="Helvetica,sans-Serif" font-size="11.00" fill="#000000">USER_ID</text>
<polygon fill="none" stroke="#000000" points="8,-56.7 8,-75.7 136,-75.7 136,-56.7 8,-56.7"/>
<text text-anchor="start" x="11" y="-62.8" font-family="Helvetica,sans-Serif" font-size="11.00" fill="#000000">...</text>
<polygon fill="#ffffff" stroke="transparent" points="8,-37.7 8,-56.7 39,-56.7 39,-37.7 8,-37.7"/>
<polygon fill="none" stroke="#000000" points="8,-37.7 8,-56.7 39,-56.7 39,-37.7 8,-37.7"/>
<text text-anchor="start" x="11" y="-43.8" font-family="Helvetica,sans-Serif" font-size="11.00" fill="#000000">&lt; 1</text>
<polygon fill="#ffffff" stroke="transparent" points="39,-37.7 39,-56.7 103,-56.7 103,-37.7 39,-37.7"/>
<polygon fill="none" stroke="#000000" points="39,-37.7 39,-56.7 103,-56.7 103,-37.7 39,-37.7"/>
<text text-anchor="start" x="46.2089" y="-43.8" font-family="Helvetica,sans-Serif" font-size="11.00" fill="#000000">2,900 rows</text>
<polygon fill="#ffffff" stroke="transparent" points="103,-37.7 103,-56.7 136,-56.7 136,-37.7 103,-37.7"/>
<polygon fill="none" stroke="#000000" points="103,-37.7 103,-56.7 136,-56.7 136,-37.7 103,-37.7"/>
<text text-anchor="start" x="111.2904" y="-43.8" font-family="Helvetica,sans-Serif" font-size="11.00" fill="#000000">20 &gt;</text>
</a>
</g>
</g>
<!-- SCREENING_CONDITIONS&#45;&gt;REFERENCES -->
<g id="edge1" class="edge">
<title>SCREENING_CONDITIONS:w&#45;&gt;REFERENCES:e</title>
<path fill="none" stroke="#000000" d="M170.6297,-90.1375C159.0865,-96.325 153.9041,-108.7 136,-108.7"/>
<polygon fill="#000000" stroke="#000000" points="177.2195,-88.5612 185.8375,-90.2012 181.1098,-87.6306 185,-86.7 185,-86.7 185,-86.7 181.1098,-87.6306 184.1625,-83.1988 177.2195,-88.5612 177.2195,-88.5612"/>
<ellipse fill="none" stroke="#000000" cx="174.1073" cy="-89.3057" rx="3.2" ry="3.2"/>
</g>
<!-- SCREENING_CONDITIONS&#45;&gt;REFERENCES -->
<g id="edge2" class="edge">
<title>SCREENING_CONDITIONS:w&#45;&gt;REFERENCES:e</title>
<path fill="none" stroke="#000000" d="M170.4909,-108.7C159.1774,-108.7 151.9931,-108.7 136,-108.7"/>
<polygon fill="#000000" stroke="#000000" points="177,-108.7001 185,-112.3 181,-108.7 185,-108.7 185,-108.7 185,-108.7 181,-108.7 185,-105.1 177,-108.7001 177,-108.7001"/>
<ellipse fill="none" stroke="#000000" cx="173.8" cy="-108.7001" rx="3.2" ry="3.2"/>
</g>
<!-- SCREENING_CONDITIONS_IMAGES -->
<g id="node3" class="node">
<title>SCREENING_CONDITIONS_IMAGES</title>
<g id="a_node3"><a xlink:href="../../tables/SCREENING_CONDITIONS_IMAGES.html" xlink:title="SCREENING_CONDITIONS_IMAGES" target="_top">
<polygon fill="#ffffff" stroke="transparent" points="472,-138.7 472,-360.7 894,-360.7 894,-138.7 472,-138.7"/>
<polygon fill="#f5f5f5" stroke="transparent" points="474,-335.7 474,-358.7 892,-358.7 892,-335.7 474,-335.7"/>
<polygon fill="none" stroke="#000000" points="474,-335.7 474,-358.7 892,-358.7 892,-335.7 474,-335.7"/>
<text text-anchor="start" x="479" y="-344.8" font-family="Helvetica,sans-Serif" font-weight="bold" font-size="11.00" fill="#000000">SCREENING_CONDITIONS_IMAGES</text>
<text text-anchor="start" x="857.0437" y="-343.8" font-family="Helvetica,sans-Serif" font-size="11.00" fill="#000000">[table]</text>
<polygon fill="none" stroke="#000000" points="474,-313.7 474,-335.7 721,-335.7 721,-313.7 474,-313.7"/>
<image xlink:href="../../images/primaryKeys.png" width="11px" height="12px" preserveAspectRatio="xMinYMin meet" x="479" y="-330.7"/>
<text text-anchor="start" x="494" y="-320.8" font-family="Helvetica,sans-Serif" font-size="11.00" fill="#000000">ID</text>
<polygon fill="none" stroke="#000000" points="721,-313.7 721,-335.7 892,-335.7 892,-313.7 721,-313.7"/>
<text text-anchor="start" x="724" y="-321.4" font-family="Helvetica,sans-Serif" font-size="11.00" fill="#000000">number[19]</text>
<polygon fill="none" stroke="#000000" points="474,-291.7 474,-313.7 721,-313.7 721,-291.7 474,-291.7"/>
<text text-anchor="start" x="494" y="-298.8" font-family="Helvetica,sans-Serif" font-size="11.00" fill="#000000">CREATED_AT</text>
<polygon fill="none" stroke="#000000" points="721,-291.7 721,-313.7 892,-313.7 892,-291.7 721,-291.7"/>
<text text-anchor="start" x="723.9896" y="-299.4" font-family="Helvetica,sans-Serif" font-size="11.00" fill="#000000">timestamp(6) with time zone[13,6]</text>
<polygon fill="none" stroke="#000000" points="474,-269.7 474,-291.7 721,-291.7 721,-269.7 474,-269.7"/>
<text text-anchor="start" x="494" y="-276.8" font-family="Helvetica,sans-Serif" font-size="11.00" fill="#000000">CREATED_BY</text>
<polygon fill="none" stroke="#000000" points="721,-269.7 721,-291.7 892,-291.7 892,-269.7 721,-269.7"/>
<text text-anchor="start" x="724" y="-277.4" font-family="Helvetica,sans-Serif" font-size="11.00" fill="#000000">number[19]</text>
<polygon fill="none" stroke="#000000" points="474,-247.7 474,-269.7 721,-269.7 721,-247.7 474,-247.7"/>
<text text-anchor="start" x="494" y="-254.8" font-family="Helvetica,sans-Serif" font-size="11.00" fill="#000000">UPDATED_AT</text>
<polygon fill="none" stroke="#000000" points="721,-247.7 721,-269.7 892,-269.7 892,-247.7 721,-247.7"/>
<text text-anchor="start" x="723.9896" y="-255.4" font-family="Helvetica,sans-Serif" font-size="11.00" fill="#000000">timestamp(6) with time zone[13,6]</text>
<polygon fill="none" stroke="#000000" points="474,-225.7 474,-247.7 721,-247.7 721,-225.7 474,-225.7"/>
<text text-anchor="start" x="494" y="-232.8" font-family="Helvetica,sans-Serif" font-size="11.00" fill="#000000">UPDATED_BY</text>
<polygon fill="none" stroke="#000000" points="721,-225.7 721,-247.7 892,-247.7 892,-225.7 721,-225.7"/>
<text text-anchor="start" x="724" y="-233.4" font-family="Helvetica,sans-Serif" font-size="11.00" fill="#000000">number[19]</text>
<polygon fill="none" stroke="#000000" points="474,-203.7 474,-225.7 721,-225.7 721,-203.7 474,-203.7"/>
<image xlink:href="../../images/foreignKeys.png" width="11px" height="12px" preserveAspectRatio="xMinYMin meet" x="479" y="-220.7"/>
<text text-anchor="start" x="494" y="-210.8" font-family="Helvetica,sans-Serif" font-size="11.00" fill="#000000">IMAGE_ID</text>
<polygon fill="none" stroke="#000000" points="721,-203.7 721,-225.7 892,-225.7 892,-203.7 721,-203.7"/>
<text text-anchor="start" x="724" y="-211.4" font-family="Helvetica,sans-Serif" font-size="11.00" fill="#000000">number[19]</text>
<polygon fill="none" stroke="#000000" points="474,-181.7 474,-203.7 721,-203.7 721,-181.7 474,-181.7"/>
<image xlink:href="../../images/foreignKeys.png" width="11px" height="12px" preserveAspectRatio="xMinYMin meet" x="479" y="-198.7"/>
<text text-anchor="start" x="494" y="-188.8" font-family="Helvetica,sans-Serif" font-size="11.00" fill="#000000">SCREENING_CONDITION_ID</text>
<polygon fill="none" stroke="#000000" points="721,-181.7 721,-203.7 892,-203.7 892,-181.7 721,-181.7"/>
<text text-anchor="start" x="724" y="-189.4" font-family="Helvetica,sans-Serif" font-size="11.00" fill="#000000">number[19]</text>
<polygon fill="none" stroke="#000000" points="474,-159.7 474,-181.7 721,-181.7 721,-159.7 474,-159.7"/>
<text text-anchor="start" x="494" y="-166.8" font-family="Helvetica,sans-Serif" font-size="11.00" fill="#000000">IMAGE_ORDER</text>
<polygon fill="none" stroke="#000000" points="721,-159.7 721,-181.7 892,-181.7 892,-159.7 721,-159.7"/>
<text text-anchor="start" x="724" y="-167.4" font-family="Helvetica,sans-Serif" font-size="11.00" fill="#000000">number[10]</text>
<polygon fill="#ffffff" stroke="transparent" points="474,-140.7 474,-159.7 583,-159.7 583,-140.7 474,-140.7"/>
<polygon fill="none" stroke="#000000" points="474,-140.7 474,-159.7 583,-159.7 583,-140.7 474,-140.7"/>
<text text-anchor="start" x="477" y="-146.8" font-family="Helvetica,sans-Serif" font-size="11.00" fill="#000000">&lt; 2</text>
<polygon fill="#ffffff" stroke="transparent" points="583,-140.7 583,-159.7 721,-159.7 721,-140.7 583,-140.7"/>
<polygon fill="none" stroke="#000000" points="583,-140.7 583,-159.7 721,-159.7 721,-140.7 583,-140.7"/>
<text text-anchor="start" x="673.3807" y="-146.8" font-family="Helvetica,sans-Serif" font-size="11.00" fill="#000000">680 rows</text>
<polygon fill="#ffffff" stroke="transparent" points="721,-140.7 721,-159.7 892,-159.7 892,-140.7 721,-140.7"/>
<polygon fill="none" stroke="#000000" points="721,-140.7 721,-159.7 892,-159.7 892,-140.7 721,-140.7"/>
<text text-anchor="start" x="873.4053" y="-146.8" font-family="Helvetica,sans-Serif" font-size="11.00" fill="#000000">0 &gt;</text>
<polygon fill="none" stroke="#000000" stroke-width="2" points="473,-139.7 473,-359.7 893,-359.7 893,-139.7 473,-139.7"/>
</a>
</g>
</g>
<!-- SCREENING_CONDITIONS_IMAGES&#45;&gt;SCREENING_CONDITIONS -->
<g id="edge4" class="edge">
<title>SCREENING_CONDITIONS_IMAGES:w&#45;&gt;SCREENING_CONDITIONS:e</title>
<path fill="none" stroke="#000000" d="M459.6506,-190.044C447.3075,-185.037 441.2155,-174.7 423,-174.7"/>
<polygon fill="#000000" stroke="#000000" points="466.1336,-191.2439 473.3448,-196.2399 470.0668,-191.972 474,-192.7 474,-192.7 474,-192.7 470.0668,-191.972 474.6552,-189.1601 466.1336,-191.2439 466.1336,-191.2439"/>
<ellipse fill="none" stroke="#000000" cx="462.9871" cy="-190.6615" rx="3.2" ry="3.2"/>
</g>
<!-- SCREENING_CONDITIONS_IMAGES&#45;&gt;REFERENCES -->
<g id="edge3" class="edge">
<title>SCREENING_CONDITIONS_IMAGES:w&#45;&gt;REFERENCES:e</title>
<path fill="none" stroke="#000000" d="M459.3701,-215.6355C450.4837,-216.8585 444.2053,-218.9348 431,-219.7 318.3001,-226.2303 269.627,-284.2302 177,-219.7 133.8482,-189.6376 188.5911,-108.7 136,-108.7"/>
<polygon fill="#000000" stroke="#000000" points="466.0163,-215.2106 474.2298,-218.2927 470.0082,-214.9553 474,-214.7 474,-214.7 474,-214.7 470.0082,-214.9553 473.7702,-211.1073 466.0163,-215.2106 466.0163,-215.2106"/>
<ellipse fill="none" stroke="#000000" cx="462.8228" cy="-215.4148" rx="3.2" ry="3.2"/>
</g>
</g>
</svg>
