<?xml version="1.0" encoding="UTF-8" standalone="no"?>
<!DOCTYPE svg PUBLIC "-//W3C//DTD SVG 1.1//EN"
 "http://www.w3.org/Graphics/SVG/1.1/DTD/svg11.dtd">
<!-- Generated by graphviz version 2.40.1 (20161225.0304)
 -->
<!-- Title: oneDegreeRelationshipsDiagram Pages: 1 -->
<svg width="578pt" height="341pt"
 viewBox="0.00 0.00 578.00 340.70" xmlns="http://www.w3.org/2000/svg" xmlns:xlink="http://www.w3.org/1999/xlink">
<g id="graph0" class="graph" transform="scale(1 1) rotate(0) translate(4 336.7)">
<title>oneDegreeRelationshipsDiagram</title>
<polygon fill="#ffffff" stroke="transparent" points="-4,4 -4,-336.7 574,-336.7 574,4 -4,4"/>
<text text-anchor="middle" x="72.4936" y="-7.3" font-family="Helvetica,sans-Serif" font-size="11.00" fill="#000000">Generated by SchemaSpy</text>
<!-- STRUCTURES_REFERENCES -->
<g id="node1" class="node">
<title>STRUCTURES_REFERENCES</title>
<g id="a_node1"><a xlink:href="../../tables/STRUCTURES_REFERENCES.html" xlink:title="STRUCTURES_REFERENCES" target="_top">
<polygon fill="#ffffff" stroke="transparent" points="185,-128.7 185,-328.7 562,-328.7 562,-128.7 185,-128.7"/>
<polygon fill="#f5f5f5" stroke="transparent" points="187.5,-303.7 187.5,-326.7 560.5,-326.7 560.5,-303.7 187.5,-303.7"/>
<polygon fill="none" stroke="#000000" points="187.5,-303.7 187.5,-326.7 560.5,-326.7 560.5,-303.7 187.5,-303.7"/>
<text text-anchor="start" x="192.5" y="-312.8" font-family="Helvetica,sans-Serif" font-weight="bold" font-size="11.00" fill="#000000">STRUCTURES_REFERENCES</text>
<text text-anchor="start" x="525.5437" y="-311.8" font-family="Helvetica,sans-Serif" font-size="11.00" fill="#000000">[table]</text>
<polygon fill="none" stroke="#000000" points="187.5,-281.7 187.5,-303.7 389.5,-303.7 389.5,-281.7 187.5,-281.7"/>
<image xlink:href="../../images/primaryKeys.png" width="11px" height="12px" preserveAspectRatio="xMinYMin meet" x="192.5" y="-298.7"/>
<text text-anchor="start" x="207.5" y="-288.8" font-family="Helvetica,sans-Serif" font-size="11.00" fill="#000000">ID</text>
<polygon fill="none" stroke="#000000" points="389.5,-281.7 389.5,-303.7 560.5,-303.7 560.5,-281.7 389.5,-281.7"/>
<text text-anchor="start" x="392.5" y="-289.4" font-family="Helvetica,sans-Serif" font-size="11.00" fill="#000000">number[19]</text>
<polygon fill="none" stroke="#000000" points="187.5,-259.7 187.5,-281.7 389.5,-281.7 389.5,-259.7 187.5,-259.7"/>
<text text-anchor="start" x="207.5" y="-266.8" font-family="Helvetica,sans-Serif" font-size="11.00" fill="#000000">CREATED_AT</text>
<polygon fill="none" stroke="#000000" points="389.5,-259.7 389.5,-281.7 560.5,-281.7 560.5,-259.7 389.5,-259.7"/>
<text text-anchor="start" x="392.4896" y="-267.4" font-family="Helvetica,sans-Serif" font-size="11.00" fill="#000000">timestamp(6) with time zone[13,6]</text>
<polygon fill="none" stroke="#000000" points="187.5,-237.7 187.5,-259.7 389.5,-259.7 389.5,-237.7 187.5,-237.7"/>
<text text-anchor="start" x="207.5" y="-244.8" font-family="Helvetica,sans-Serif" font-size="11.00" fill="#000000">CREATED_BY</text>
<polygon fill="none" stroke="#000000" points="389.5,-237.7 389.5,-259.7 560.5,-259.7 560.5,-237.7 389.5,-237.7"/>
<text text-anchor="start" x="392.5" y="-245.4" font-family="Helvetica,sans-Serif" font-size="11.00" fill="#000000">number[19]</text>
<polygon fill="none" stroke="#000000" points="187.5,-215.7 187.5,-237.7 389.5,-237.7 389.5,-215.7 187.5,-215.7"/>
<text text-anchor="start" x="207.5" y="-222.8" font-family="Helvetica,sans-Serif" font-size="11.00" fill="#000000">UPDATED_AT</text>
<polygon fill="none" stroke="#000000" points="389.5,-215.7 389.5,-237.7 560.5,-237.7 560.5,-215.7 389.5,-215.7"/>
<text text-anchor="start" x="392.4896" y="-223.4" font-family="Helvetica,sans-Serif" font-size="11.00" fill="#000000">timestamp(6) with time zone[13,6]</text>
<polygon fill="none" stroke="#000000" points="187.5,-193.7 187.5,-215.7 389.5,-215.7 389.5,-193.7 187.5,-193.7"/>
<text text-anchor="start" x="207.5" y="-200.8" font-family="Helvetica,sans-Serif" font-size="11.00" fill="#000000">UPDATED_BY</text>
<polygon fill="none" stroke="#000000" points="389.5,-193.7 389.5,-215.7 560.5,-215.7 560.5,-193.7 389.5,-193.7"/>
<text text-anchor="start" x="392.5" y="-201.4" font-family="Helvetica,sans-Serif" font-size="11.00" fill="#000000">number[19]</text>
<polygon fill="none" stroke="#000000" points="187.5,-171.7 187.5,-193.7 389.5,-193.7 389.5,-171.7 187.5,-171.7"/>
<image xlink:href="../../images/foreignKeys.png" width="11px" height="12px" preserveAspectRatio="xMinYMin meet" x="192.5" y="-188.7"/>
<text text-anchor="start" x="207.5" y="-178.8" font-family="Helvetica,sans-Serif" font-size="11.00" fill="#000000">REFERENCE_ID</text>
<polygon fill="none" stroke="#000000" points="389.5,-171.7 389.5,-193.7 560.5,-193.7 560.5,-171.7 389.5,-171.7"/>
<text text-anchor="start" x="392.5" y="-179.4" font-family="Helvetica,sans-Serif" font-size="11.00" fill="#000000">number[19]</text>
<polygon fill="none" stroke="#000000" points="187.5,-149.7 187.5,-171.7 389.5,-171.7 389.5,-149.7 187.5,-149.7"/>
<image xlink:href="../../images/foreignKeys.png" width="11px" height="12px" preserveAspectRatio="xMinYMin meet" x="192.5" y="-166.7"/>
<text text-anchor="start" x="207.5" y="-156.8" font-family="Helvetica,sans-Serif" font-size="11.00" fill="#000000">STRUCTURE_ID</text>
<polygon fill="none" stroke="#000000" points="389.5,-149.7 389.5,-171.7 560.5,-171.7 560.5,-149.7 389.5,-149.7"/>
<text text-anchor="start" x="392.5" y="-157.4" font-family="Helvetica,sans-Serif" font-size="11.00" fill="#000000">number[19]</text>
<polygon fill="#ffffff" stroke="transparent" points="187.5,-130.7 187.5,-149.7 279.5,-149.7 279.5,-130.7 187.5,-130.7"/>
<polygon fill="none" stroke="#000000" points="187.5,-130.7 187.5,-149.7 279.5,-149.7 279.5,-130.7 187.5,-130.7"/>
<text text-anchor="start" x="190.5" y="-136.8" font-family="Helvetica,sans-Serif" font-size="11.00" fill="#000000">&lt; 2</text>
<polygon fill="#ffffff" stroke="transparent" points="279.5,-130.7 279.5,-149.7 389.5,-149.7 389.5,-130.7 279.5,-130.7"/>
<polygon fill="none" stroke="#000000" points="279.5,-130.7 279.5,-149.7 389.5,-149.7 389.5,-130.7 279.5,-130.7"/>
<text text-anchor="start" x="354.1105" y="-136.8" font-family="Helvetica,sans-Serif" font-size="11.00" fill="#000000">6 rows</text>
<polygon fill="#ffffff" stroke="transparent" points="389.5,-130.7 389.5,-149.7 560.5,-149.7 560.5,-130.7 389.5,-130.7"/>
<polygon fill="none" stroke="#000000" points="389.5,-130.7 389.5,-149.7 560.5,-149.7 560.5,-130.7 389.5,-130.7"/>
<text text-anchor="start" x="541.9053" y="-136.8" font-family="Helvetica,sans-Serif" font-size="11.00" fill="#000000">0 &gt;</text>
<polygon fill="none" stroke="#000000" stroke-width="2" points="186,-129.7 186,-327.7 561,-327.7 561,-129.7 186,-129.7"/>
</a>
</g>
</g>
<!-- REFERENCES -->
<g id="node2" class="node">
<title>REFERENCES</title>
<g id="a_node2"><a xlink:href="../../tables/REFERENCES.html" xlink:title="REFERENCES" target="_top">
<polygon fill="#ffffff" stroke="transparent" points="8,-164.2 8,-269.2 136,-269.2 136,-164.2 8,-164.2"/>
<polygon fill="#f5f5f5" stroke="transparent" points="8,-245.7 8,-268.7 136,-268.7 136,-245.7 8,-245.7"/>
<polygon fill="none" stroke="#000000" points="8,-245.7 8,-268.7 136,-268.7 136,-245.7 8,-245.7"/>
<text text-anchor="start" x="13" y="-254.8" font-family="Helvetica,sans-Serif" font-weight="bold" font-size="11.00" fill="#000000">REFERENCES</text>
<text text-anchor="start" x="101.0437" y="-253.8" font-family="Helvetica,sans-Serif" font-size="11.00" fill="#000000">[table]</text>
<polygon fill="none" stroke="#000000" points="8,-223.7 8,-245.7 136,-245.7 136,-223.7 8,-223.7"/>
<image xlink:href="../../images/primaryKeys.png" width="11px" height="12px" preserveAspectRatio="xMinYMin meet" x="13" y="-240.7"/>
<text text-anchor="start" x="28" y="-230.8" font-family="Helvetica,sans-Serif" font-size="11.00" fill="#000000">ID</text>
<polygon fill="none" stroke="#000000" points="8,-201.7 8,-223.7 136,-223.7 136,-201.7 8,-201.7"/>
<image xlink:href="../../images/foreignKeys.png" width="11px" height="12px" preserveAspectRatio="xMinYMin meet" x="13" y="-218.7"/>
<text text-anchor="start" x="28" y="-208.8" font-family="Helvetica,sans-Serif" font-size="11.00" fill="#000000">USER_ID</text>
<polygon fill="none" stroke="#000000" points="8,-182.7 8,-201.7 136,-201.7 136,-182.7 8,-182.7"/>
<text text-anchor="start" x="11" y="-188.8" font-family="Helvetica,sans-Serif" font-size="11.00" fill="#000000">...</text>
<polygon fill="#ffffff" stroke="transparent" points="8,-163.7 8,-182.7 39,-182.7 39,-163.7 8,-163.7"/>
<polygon fill="none" stroke="#000000" points="8,-163.7 8,-182.7 39,-182.7 39,-163.7 8,-163.7"/>
<text text-anchor="start" x="11" y="-169.8" font-family="Helvetica,sans-Serif" font-size="11.00" fill="#000000">&lt; 1</text>
<polygon fill="#ffffff" stroke="transparent" points="39,-163.7 39,-182.7 103,-182.7 103,-163.7 39,-163.7"/>
<polygon fill="none" stroke="#000000" points="39,-163.7 39,-182.7 103,-182.7 103,-163.7 39,-163.7"/>
<text text-anchor="start" x="46.2089" y="-169.8" font-family="Helvetica,sans-Serif" font-size="11.00" fill="#000000">2,900 rows</text>
<polygon fill="#ffffff" stroke="transparent" points="103,-163.7 103,-182.7 136,-182.7 136,-163.7 103,-163.7"/>
<polygon fill="none" stroke="#000000" points="103,-163.7 103,-182.7 136,-182.7 136,-163.7 103,-163.7"/>
<text text-anchor="start" x="111.2904" y="-169.8" font-family="Helvetica,sans-Serif" font-size="11.00" fill="#000000">20 &gt;</text>
</a>
</g>
</g>
<!-- STRUCTURES_REFERENCES&#45;&gt;REFERENCES -->
<g id="edge1" class="edge">
<title>STRUCTURES_REFERENCES:w&#45;&gt;REFERENCES:e</title>
<path fill="none" stroke="#000000" d="M173.4561,-187.4988C158.4356,-200.3719 162.4284,-234.7 136,-234.7"/>
<polygon fill="#000000" stroke="#000000" points="179.9297,-185.2868 188.6641,-186.1066 183.7149,-183.9934 187.5,-182.7 187.5,-182.7 187.5,-182.7 183.7149,-183.9934 186.3359,-179.2934 179.9297,-185.2868 179.9297,-185.2868"/>
<ellipse fill="none" stroke="#000000" cx="176.9016" cy="-186.3215" rx="3.2" ry="3.2"/>
</g>
<!-- STRUCTURES -->
<g id="node3" class="node">
<title>STRUCTURES</title>
<g id="a_node3"><a xlink:href="../../tables/STRUCTURES.html" xlink:title="STRUCTURES" target="_top">
<polygon fill="#ffffff" stroke="transparent" points="12.5,-38.2 12.5,-143.2 131.5,-143.2 131.5,-38.2 12.5,-38.2"/>
<polygon fill="#f5f5f5" stroke="transparent" points="13,-119.7 13,-142.7 132,-142.7 132,-119.7 13,-119.7"/>
<polygon fill="none" stroke="#000000" points="13,-119.7 13,-142.7 132,-142.7 132,-119.7 13,-119.7"/>
<text text-anchor="start" x="18" y="-128.8" font-family="Helvetica,sans-Serif" font-weight="bold" font-size="11.00" fill="#000000">STRUCTURES</text>
<text text-anchor="start" x="97.5219" y="-127.8" font-family="Helvetica,sans-Serif" font-size="11.00" fill="#000000">[table]</text>
<polygon fill="none" stroke="#000000" points="13,-97.7 13,-119.7 132,-119.7 132,-97.7 13,-97.7"/>
<image xlink:href="../../images/primaryKeys.png" width="11px" height="12px" preserveAspectRatio="xMinYMin meet" x="18" y="-114.7"/>
<text text-anchor="start" x="33" y="-104.8" font-family="Helvetica,sans-Serif" font-size="11.00" fill="#000000">ID</text>
<polygon fill="none" stroke="#000000" points="13,-75.7 13,-97.7 132,-97.7 132,-75.7 13,-75.7"/>
<image xlink:href="../../images/foreignKeys.png" width="11px" height="12px" preserveAspectRatio="xMinYMin meet" x="18" y="-92.7"/>
<text text-anchor="start" x="33" y="-82.8" font-family="Helvetica,sans-Serif" font-size="11.00" fill="#000000">ISOFORM_ID</text>
<polygon fill="none" stroke="#000000" points="13,-56.7 13,-75.7 132,-75.7 132,-56.7 13,-56.7"/>
<text text-anchor="start" x="16" y="-62.8" font-family="Helvetica,sans-Serif" font-size="11.00" fill="#000000">...</text>
<polygon fill="#ffffff" stroke="transparent" points="13,-37.7 13,-56.7 43,-56.7 43,-37.7 13,-37.7"/>
<polygon fill="none" stroke="#000000" points="13,-37.7 13,-56.7 43,-56.7 43,-37.7 13,-37.7"/>
<text text-anchor="start" x="16" y="-43.8" font-family="Helvetica,sans-Serif" font-size="11.00" fill="#000000">&lt; 1</text>
<polygon fill="#ffffff" stroke="transparent" points="43,-37.7 43,-56.7 106,-56.7 106,-37.7 43,-37.7"/>
<polygon fill="none" stroke="#000000" points="43,-37.7 43,-56.7 106,-56.7 106,-37.7 43,-37.7"/>
<text text-anchor="start" x="49.2089" y="-43.8" font-family="Helvetica,sans-Serif" font-size="11.00" fill="#000000">5,581 rows</text>
<polygon fill="#ffffff" stroke="transparent" points="106,-37.7 106,-56.7 132,-56.7 132,-37.7 106,-37.7"/>
<polygon fill="none" stroke="#000000" points="106,-37.7 106,-56.7 132,-56.7 132,-37.7 106,-37.7"/>
<text text-anchor="start" x="113.4053" y="-43.8" font-family="Helvetica,sans-Serif" font-size="11.00" fill="#000000">2 &gt;</text>
</a>
</g>
</g>
<!-- STRUCTURES_REFERENCES&#45;&gt;STRUCTURES -->
<g id="edge2" class="edge">
<title>STRUCTURES_REFERENCES:w&#45;&gt;STRUCTURES:e</title>
<path fill="none" stroke="#000000" d="M173.673,-156.6196C156.5027,-144.3611 159.9922,-108.7 132,-108.7"/>
<polygon fill="#000000" stroke="#000000" points="179.8271,-158.4357 186.4811,-164.1528 183.6636,-159.5678 187.5,-160.7 187.5,-160.7 187.5,-160.7 183.6636,-159.5678 188.5189,-157.2472 179.8271,-158.4357 179.8271,-158.4357"/>
<ellipse fill="none" stroke="#000000" cx="176.758" cy="-157.53" rx="3.2" ry="3.2"/>
</g>
</g>
</svg>
