<?xml version="1.0" encoding="UTF-8" standalone="no"?>
<!DOCTYPE svg PUBLIC "-//W3C//DTD SVG 1.1//EN"
 "http://www.w3.org/Graphics/SVG/1.1/DTD/svg11.dtd">
<!-- Generated by graphviz version 2.40.1 (20161225.0304)
 -->
<!-- Title: oneDegreeRelationshipsDiagram Pages: 1 -->
<svg width="551pt" height="363pt"
 viewBox="0.00 0.00 551.00 362.70" xmlns="http://www.w3.org/2000/svg" xmlns:xlink="http://www.w3.org/1999/xlink">
<g id="graph0" class="graph" transform="scale(1 1) rotate(0) translate(4 358.7)">
<title>oneDegreeRelationshipsDiagram</title>
<polygon fill="#ffffff" stroke="transparent" points="-4,4 -4,-358.7 547,-358.7 547,4 -4,4"/>
<text text-anchor="middle" x="72.4936" y="-7.3" font-family="Helvetica,sans-Serif" font-size="11.00" fill="#000000">Generated by SchemaSpy</text>
<!-- STRUCTURE_COMMENTS -->
<g id="node1" class="node">
<title>STRUCTURE_COMMENTS</title>
<g id="a_node1"><a xlink:href="../../tables/STRUCTURE_COMMENTS.html" xlink:title="STRUCTURE_COMMENTS" target="_top">
<polygon fill="#ffffff" stroke="transparent" points="176,-128.7 176,-350.7 535,-350.7 535,-128.7 176,-128.7"/>
<polygon fill="#f5f5f5" stroke="transparent" points="178.5,-325.7 178.5,-348.7 533.5,-348.7 533.5,-325.7 178.5,-325.7"/>
<polygon fill="none" stroke="#000000" points="178.5,-325.7 178.5,-348.7 533.5,-348.7 533.5,-325.7 178.5,-325.7"/>
<text text-anchor="start" x="183.5" y="-334.8" font-family="Helvetica,sans-Serif" font-weight="bold" font-size="11.00" fill="#000000">STRUCTURE_COMMENTS</text>
<text text-anchor="start" x="498.5437" y="-333.8" font-family="Helvetica,sans-Serif" font-size="11.00" fill="#000000">[table]</text>
<polygon fill="none" stroke="#000000" points="178.5,-303.7 178.5,-325.7 362.5,-325.7 362.5,-303.7 178.5,-303.7"/>
<image xlink:href="../../images/primaryKeys.png" width="11px" height="12px" preserveAspectRatio="xMinYMin meet" x="183.5" y="-320.7"/>
<text text-anchor="start" x="198.5" y="-310.8" font-family="Helvetica,sans-Serif" font-size="11.00" fill="#000000">ID</text>
<polygon fill="none" stroke="#000000" points="362.5,-303.7 362.5,-325.7 533.5,-325.7 533.5,-303.7 362.5,-303.7"/>
<text text-anchor="start" x="365.5" y="-311.4" font-family="Helvetica,sans-Serif" font-size="11.00" fill="#000000">number[19]</text>
<polygon fill="none" stroke="#000000" points="178.5,-281.7 178.5,-303.7 362.5,-303.7 362.5,-281.7 178.5,-281.7"/>
<text text-anchor="start" x="198.5" y="-288.8" font-family="Helvetica,sans-Serif" font-size="11.00" fill="#000000">CREATED_AT</text>
<polygon fill="none" stroke="#000000" points="362.5,-281.7 362.5,-303.7 533.5,-303.7 533.5,-281.7 362.5,-281.7"/>
<text text-anchor="start" x="365.4896" y="-289.4" font-family="Helvetica,sans-Serif" font-size="11.00" fill="#000000">timestamp(6) with time zone[13,6]</text>
<polygon fill="none" stroke="#000000" points="178.5,-259.7 178.5,-281.7 362.5,-281.7 362.5,-259.7 178.5,-259.7"/>
<text text-anchor="start" x="198.5" y="-266.8" font-family="Helvetica,sans-Serif" font-size="11.00" fill="#000000">CREATED_BY</text>
<polygon fill="none" stroke="#000000" points="362.5,-259.7 362.5,-281.7 533.5,-281.7 533.5,-259.7 362.5,-259.7"/>
<text text-anchor="start" x="365.5" y="-267.4" font-family="Helvetica,sans-Serif" font-size="11.00" fill="#000000">number[19]</text>
<polygon fill="none" stroke="#000000" points="178.5,-237.7 178.5,-259.7 362.5,-259.7 362.5,-237.7 178.5,-237.7"/>
<text text-anchor="start" x="198.5" y="-244.8" font-family="Helvetica,sans-Serif" font-size="11.00" fill="#000000">UPDATED_AT</text>
<polygon fill="none" stroke="#000000" points="362.5,-237.7 362.5,-259.7 533.5,-259.7 533.5,-237.7 362.5,-237.7"/>
<text text-anchor="start" x="365.4896" y="-245.4" font-family="Helvetica,sans-Serif" font-size="11.00" fill="#000000">timestamp(6) with time zone[13,6]</text>
<polygon fill="none" stroke="#000000" points="178.5,-215.7 178.5,-237.7 362.5,-237.7 362.5,-215.7 178.5,-215.7"/>
<text text-anchor="start" x="198.5" y="-222.8" font-family="Helvetica,sans-Serif" font-size="11.00" fill="#000000">UPDATED_BY</text>
<polygon fill="none" stroke="#000000" points="362.5,-215.7 362.5,-237.7 533.5,-237.7 533.5,-215.7 362.5,-215.7"/>
<text text-anchor="start" x="365.5" y="-223.4" font-family="Helvetica,sans-Serif" font-size="11.00" fill="#000000">number[19]</text>
<polygon fill="none" stroke="#000000" points="178.5,-193.7 178.5,-215.7 362.5,-215.7 362.5,-193.7 178.5,-193.7"/>
<text text-anchor="start" x="198.5" y="-200.8" font-family="Helvetica,sans-Serif" font-size="11.00" fill="#000000">DESCRIPTION</text>
<polygon fill="none" stroke="#000000" points="362.5,-193.7 362.5,-215.7 533.5,-215.7 533.5,-193.7 362.5,-193.7"/>
<text text-anchor="start" x="365.5" y="-201.4" font-family="Helvetica,sans-Serif" font-size="11.00" fill="#000000">clob[4000]</text>
<polygon fill="none" stroke="#000000" points="178.5,-171.7 178.5,-193.7 362.5,-193.7 362.5,-171.7 178.5,-171.7"/>
<image xlink:href="../../images/foreignKeys.png" width="11px" height="12px" preserveAspectRatio="xMinYMin meet" x="183.5" y="-188.7"/>
<text text-anchor="start" x="198.5" y="-178.8" font-family="Helvetica,sans-Serif" font-size="11.00" fill="#000000">STRUCTURE_ID</text>
<polygon fill="none" stroke="#000000" points="362.5,-171.7 362.5,-193.7 533.5,-193.7 533.5,-171.7 362.5,-171.7"/>
<text text-anchor="start" x="365.5" y="-179.4" font-family="Helvetica,sans-Serif" font-size="11.00" fill="#000000">number[19]</text>
<polygon fill="none" stroke="#000000" points="178.5,-149.7 178.5,-171.7 362.5,-171.7 362.5,-149.7 178.5,-149.7"/>
<image xlink:href="../../images/foreignKeys.png" width="11px" height="12px" preserveAspectRatio="xMinYMin meet" x="183.5" y="-166.7"/>
<text text-anchor="start" x="198.5" y="-156.8" font-family="Helvetica,sans-Serif" font-size="11.00" fill="#000000">USER_ID</text>
<polygon fill="none" stroke="#000000" points="362.5,-149.7 362.5,-171.7 533.5,-171.7 533.5,-149.7 362.5,-149.7"/>
<text text-anchor="start" x="365.5" y="-157.4" font-family="Helvetica,sans-Serif" font-size="11.00" fill="#000000">number[19]</text>
<polygon fill="#ffffff" stroke="transparent" points="178.5,-130.7 178.5,-149.7 258.5,-149.7 258.5,-130.7 178.5,-130.7"/>
<polygon fill="none" stroke="#000000" points="178.5,-130.7 178.5,-149.7 258.5,-149.7 258.5,-130.7 178.5,-130.7"/>
<text text-anchor="start" x="181.5" y="-136.8" font-family="Helvetica,sans-Serif" font-size="11.00" fill="#000000">&lt; 2</text>
<polygon fill="#ffffff" stroke="transparent" points="258.5,-130.7 258.5,-149.7 362.5,-149.7 362.5,-130.7 258.5,-130.7"/>
<polygon fill="none" stroke="#000000" points="258.5,-130.7 258.5,-149.7 362.5,-149.7 362.5,-130.7 258.5,-130.7"/>
<text text-anchor="start" x="320.9956" y="-136.8" font-family="Helvetica,sans-Serif" font-size="11.00" fill="#000000">10 rows</text>
<polygon fill="#ffffff" stroke="transparent" points="362.5,-130.7 362.5,-149.7 533.5,-149.7 533.5,-130.7 362.5,-130.7"/>
<polygon fill="none" stroke="#000000" points="362.5,-130.7 362.5,-149.7 533.5,-149.7 533.5,-130.7 362.5,-130.7"/>
<text text-anchor="start" x="514.9053" y="-136.8" font-family="Helvetica,sans-Serif" font-size="11.00" fill="#000000">0 &gt;</text>
<polygon fill="none" stroke="#000000" stroke-width="2" points="177,-129.7 177,-349.7 534,-349.7 534,-129.7 177,-129.7"/>
</a>
</g>
</g>
<!-- STRUCTURES -->
<g id="node2" class="node">
<title>STRUCTURES</title>
<g id="a_node2"><a xlink:href="../../tables/STRUCTURES.html" xlink:title="STRUCTURES" target="_top">
<polygon fill="#ffffff" stroke="transparent" points="8,-164.2 8,-269.2 127,-269.2 127,-164.2 8,-164.2"/>
<polygon fill="#f5f5f5" stroke="transparent" points="8.5,-245.7 8.5,-268.7 127.5,-268.7 127.5,-245.7 8.5,-245.7"/>
<polygon fill="none" stroke="#000000" points="8.5,-245.7 8.5,-268.7 127.5,-268.7 127.5,-245.7 8.5,-245.7"/>
<text text-anchor="start" x="13.5" y="-254.8" font-family="Helvetica,sans-Serif" font-weight="bold" font-size="11.00" fill="#000000">STRUCTURES</text>
<text text-anchor="start" x="93.0219" y="-253.8" font-family="Helvetica,sans-Serif" font-size="11.00" fill="#000000">[table]</text>
<polygon fill="none" stroke="#000000" points="8.5,-223.7 8.5,-245.7 127.5,-245.7 127.5,-223.7 8.5,-223.7"/>
<image xlink:href="../../images/primaryKeys.png" width="11px" height="12px" preserveAspectRatio="xMinYMin meet" x="13.5" y="-240.7"/>
<text text-anchor="start" x="28.5" y="-230.8" font-family="Helvetica,sans-Serif" font-size="11.00" fill="#000000">ID</text>
<polygon fill="none" stroke="#000000" points="8.5,-201.7 8.5,-223.7 127.5,-223.7 127.5,-201.7 8.5,-201.7"/>
<image xlink:href="../../images/foreignKeys.png" width="11px" height="12px" preserveAspectRatio="xMinYMin meet" x="13.5" y="-218.7"/>
<text text-anchor="start" x="28.5" y="-208.8" font-family="Helvetica,sans-Serif" font-size="11.00" fill="#000000">ISOFORM_ID</text>
<polygon fill="none" stroke="#000000" points="8.5,-182.7 8.5,-201.7 127.5,-201.7 127.5,-182.7 8.5,-182.7"/>
<text text-anchor="start" x="11.5" y="-188.8" font-family="Helvetica,sans-Serif" font-size="11.00" fill="#000000">...</text>
<polygon fill="#ffffff" stroke="transparent" points="8.5,-163.7 8.5,-182.7 38.5,-182.7 38.5,-163.7 8.5,-163.7"/>
<polygon fill="none" stroke="#000000" points="8.5,-163.7 8.5,-182.7 38.5,-182.7 38.5,-163.7 8.5,-163.7"/>
<text text-anchor="start" x="11.5" y="-169.8" font-family="Helvetica,sans-Serif" font-size="11.00" fill="#000000">&lt; 1</text>
<polygon fill="#ffffff" stroke="transparent" points="38.5,-163.7 38.5,-182.7 101.5,-182.7 101.5,-163.7 38.5,-163.7"/>
<polygon fill="none" stroke="#000000" points="38.5,-163.7 38.5,-182.7 101.5,-182.7 101.5,-163.7 38.5,-163.7"/>
<text text-anchor="start" x="44.7089" y="-169.8" font-family="Helvetica,sans-Serif" font-size="11.00" fill="#000000">5,581 rows</text>
<polygon fill="#ffffff" stroke="transparent" points="101.5,-163.7 101.5,-182.7 127.5,-182.7 127.5,-163.7 101.5,-163.7"/>
<polygon fill="none" stroke="#000000" points="101.5,-163.7 101.5,-182.7 127.5,-182.7 127.5,-163.7 101.5,-163.7"/>
<text text-anchor="start" x="108.9053" y="-169.8" font-family="Helvetica,sans-Serif" font-size="11.00" fill="#000000">2 &gt;</text>
</a>
</g>
</g>
<!-- STRUCTURE_COMMENTS&#45;&gt;STRUCTURES -->
<g id="edge1" class="edge">
<title>STRUCTURE_COMMENTS:w&#45;&gt;STRUCTURES:e</title>
<path fill="none" stroke="#000000" d="M164.5468,-187.4988C149.661,-200.3719 153.8017,-234.7 127.5,-234.7"/>
<polygon fill="#000000" stroke="#000000" points="170.9349,-185.3018 179.6708,-186.1043 174.7175,-184.0009 178.5,-182.7 178.5,-182.7 178.5,-182.7 174.7175,-184.0009 177.3292,-179.2957 170.9349,-185.3018 170.9349,-185.3018"/>
<ellipse fill="none" stroke="#000000" cx="167.9089" cy="-186.3426" rx="3.2" ry="3.2"/>
</g>
<!-- USERS -->
<g id="node3" class="node">
<title>USERS</title>
<g id="a_node3"><a xlink:href="../../tables/USERS.html" xlink:title="USERS" target="_top">
<polygon fill="#ffffff" stroke="transparent" points="10.5,-38.2 10.5,-143.2 124.5,-143.2 124.5,-38.2 10.5,-38.2"/>
<polygon fill="#f5f5f5" stroke="transparent" points="10.5,-119.7 10.5,-142.7 124.5,-142.7 124.5,-119.7 10.5,-119.7"/>
<polygon fill="none" stroke="#000000" points="10.5,-119.7 10.5,-142.7 124.5,-142.7 124.5,-119.7 10.5,-119.7"/>
<text text-anchor="start" x="15.5" y="-128.8" font-family="Helvetica,sans-Serif" font-weight="bold" font-size="11.00" fill="#000000">USERS</text>
<text text-anchor="start" x="89.5437" y="-127.8" font-family="Helvetica,sans-Serif" font-size="11.00" fill="#000000">[table]</text>
<polygon fill="none" stroke="#000000" points="10.5,-97.7 10.5,-119.7 124.5,-119.7 124.5,-97.7 10.5,-97.7"/>
<image xlink:href="../../images/primaryKeys.png" width="11px" height="12px" preserveAspectRatio="xMinYMin meet" x="15.5" y="-114.7"/>
<text text-anchor="start" x="30.5" y="-104.8" font-family="Helvetica,sans-Serif" font-size="11.00" fill="#000000">ID</text>
<polygon fill="none" stroke="#000000" points="10.5,-75.7 10.5,-97.7 124.5,-97.7 124.5,-75.7 10.5,-75.7"/>
<image xlink:href="../../images/primaryKeys.png" width="11px" height="12px" preserveAspectRatio="xMinYMin meet" x="15.5" y="-92.7"/>
<text text-anchor="start" x="30.5" y="-82.8" font-family="Helvetica,sans-Serif" font-size="11.00" fill="#000000">USERNAME</text>
<polygon fill="none" stroke="#000000" points="10.5,-56.7 10.5,-75.7 124.5,-75.7 124.5,-56.7 10.5,-56.7"/>
<text text-anchor="start" x="13.5" y="-62.8" font-family="Helvetica,sans-Serif" font-size="11.00" fill="#000000">...</text>
<polygon fill="#ffffff" stroke="transparent" points="10.5,-37.7 10.5,-56.7 40.5,-56.7 40.5,-37.7 10.5,-37.7"/>
<polygon fill="none" stroke="#000000" points="10.5,-37.7 10.5,-56.7 40.5,-56.7 40.5,-37.7 10.5,-37.7"/>
<text text-anchor="start" x="13.5" y="-43.8" font-family="Helvetica,sans-Serif" font-size="11.00" fill="#000000"> &#160;</text>
<polygon fill="#ffffff" stroke="transparent" points="40.5,-37.7 40.5,-56.7 93.5,-56.7 93.5,-37.7 40.5,-37.7"/>
<polygon fill="none" stroke="#000000" points="40.5,-37.7 40.5,-56.7 93.5,-56.7 93.5,-37.7 40.5,-37.7"/>
<text text-anchor="start" x="51.9956" y="-43.8" font-family="Helvetica,sans-Serif" font-size="11.00" fill="#000000">33 rows</text>
<polygon fill="#ffffff" stroke="transparent" points="93.5,-37.7 93.5,-56.7 124.5,-56.7 124.5,-37.7 93.5,-37.7"/>
<polygon fill="none" stroke="#000000" points="93.5,-37.7 93.5,-56.7 124.5,-56.7 124.5,-37.7 93.5,-37.7"/>
<text text-anchor="start" x="105.9053" y="-43.8" font-family="Helvetica,sans-Serif" font-size="11.00" fill="#000000">9 &gt;</text>
</a>
</g>
</g>
<!-- STRUCTURE_COMMENTS&#45;&gt;USERS -->
<g id="edge2" class="edge">
<title>STRUCTURE_COMMENTS:w&#45;&gt;USERS:e</title>
<path fill="none" stroke="#000000" d="M164.4574,-156.2665C148.2391,-143.6915 151.8316,-108.7 124.5,-108.7"/>
<polygon fill="#000000" stroke="#000000" points="170.8712,-158.2914 177.4161,-164.133 174.6856,-159.4957 178.5,-160.7 178.5,-160.7 178.5,-160.7 174.6856,-159.4957 179.5839,-157.267 170.8712,-158.2914 170.8712,-158.2914"/>
<ellipse fill="none" stroke="#000000" cx="167.8196" cy="-157.328" rx="3.2" ry="3.2"/>
</g>
</g>
</svg>
