<?xml version="1.0" encoding="UTF-8" standalone="no"?>
<!DOCTYPE svg PUBLIC "-//W3C//DTD SVG 1.1//EN"
 "http://www.w3.org/Graphics/SVG/1.1/DTD/svg11.dtd">
<!-- Generated by graphviz version 2.40.1 (20161225.0304)
 -->
<!-- Title: twoDegreesRelationshipsDiagram Pages: 1 -->
<svg width="583pt" height="355pt"
 viewBox="0.00 0.00 583.00 354.70" xmlns="http://www.w3.org/2000/svg" xmlns:xlink="http://www.w3.org/1999/xlink">
<g id="graph0" class="graph" transform="scale(1 1) rotate(0) translate(4 350.7)">
<title>twoDegreesRelationshipsDiagram</title>
<polygon fill="#ffffff" stroke="transparent" points="-4,4 -4,-350.7 579,-350.7 579,4 -4,4"/>
<text text-anchor="middle" x="72.4936" y="-7.3" font-family="Helvetica,sans-Serif" font-size="11.00" fill="#000000">Generated by SchemaSpy</text>
<!-- CLONE_FORMS_SUBSTRATES -->
<g id="node1" class="node">
<title>CLONE_FORMS_SUBSTRATES</title>
<g id="a_node1"><a xlink:href="../../tables/CLONE_FORMS_SUBSTRATES.html" xlink:title="CLONE_FORMS_SUBSTRATES" target="_top">
<polygon fill="#ffffff" stroke="transparent" points="353,-206.7 353,-333.7 567,-333.7 567,-206.7 353,-206.7"/>
<polygon fill="#f5f5f5" stroke="transparent" points="353,-310.2 353,-333.2 567,-333.2 567,-310.2 353,-310.2"/>
<polygon fill="none" stroke="#000000" points="353,-310.2 353,-333.2 567,-333.2 567,-310.2 353,-310.2"/>
<text text-anchor="start" x="358" y="-319.3" font-family="Helvetica,sans-Serif" font-weight="bold" font-size="11.00" fill="#000000">CLONE_FORMS_SUBSTRATES</text>
<text text-anchor="start" x="532.0437" y="-318.3" font-family="Helvetica,sans-Serif" font-size="11.00" fill="#000000">[table]</text>
<polygon fill="none" stroke="#000000" points="353,-288.2 353,-310.2 567,-310.2 567,-288.2 353,-288.2"/>
<image xlink:href="../../images/primaryKeys.png" width="11px" height="12px" preserveAspectRatio="xMinYMin meet" x="358" y="-305.2"/>
<text text-anchor="start" x="373" y="-295.3" font-family="Helvetica,sans-Serif" font-size="11.00" fill="#000000">ID</text>
<polygon fill="none" stroke="#000000" points="353,-266.2 353,-288.2 567,-288.2 567,-266.2 353,-266.2"/>
<image xlink:href="../../images/foreignKeys.png" width="11px" height="12px" preserveAspectRatio="xMinYMin meet" x="358" y="-283.2"/>
<text text-anchor="start" x="373" y="-273.3" font-family="Helvetica,sans-Serif" font-size="11.00" fill="#000000">CLONE_FORM_ID</text>
<polygon fill="none" stroke="#000000" points="353,-244.2 353,-266.2 567,-266.2 567,-244.2 353,-244.2"/>
<image xlink:href="../../images/foreignKeys.png" width="11px" height="12px" preserveAspectRatio="xMinYMin meet" x="358" y="-261.2"/>
<text text-anchor="start" x="373" y="-251.3" font-family="Helvetica,sans-Serif" font-size="11.00" fill="#000000">SUBSTRATE_ID</text>
<polygon fill="none" stroke="#000000" points="353,-225.2 353,-244.2 567,-244.2 567,-225.2 353,-225.2"/>
<text text-anchor="start" x="356" y="-231.3" font-family="Helvetica,sans-Serif" font-size="11.00" fill="#000000">...</text>
<polygon fill="#ffffff" stroke="transparent" points="353,-206.2 353,-225.2 445,-225.2 445,-206.2 353,-206.2"/>
<polygon fill="none" stroke="#000000" points="353,-206.2 353,-225.2 445,-225.2 445,-206.2 353,-206.2"/>
<text text-anchor="start" x="356" y="-212.3" font-family="Helvetica,sans-Serif" font-size="11.00" fill="#000000">&lt; 2</text>
<polygon fill="#ffffff" stroke="transparent" points="445,-206.2 445,-225.2 519,-225.2 519,-206.2 445,-206.2"/>
<polygon fill="none" stroke="#000000" points="445,-206.2 445,-225.2 519,-225.2 519,-206.2 445,-206.2"/>
<text text-anchor="start" x="483.6105" y="-212.3" font-family="Helvetica,sans-Serif" font-size="11.00" fill="#000000">0 rows</text>
<polygon fill="#ffffff" stroke="transparent" points="519,-206.2 519,-225.2 567,-225.2 567,-206.2 519,-206.2"/>
<polygon fill="none" stroke="#000000" points="519,-206.2 519,-225.2 567,-225.2 567,-206.2 519,-206.2"/>
<text text-anchor="start" x="557.8862" y="-212.3" font-family="Helvetica,sans-Serif" font-size="11.00" fill="#000000"> &#160;</text>
</a>
</g>
</g>
<!-- CLONE_FORMS -->
<g id="node2" class="node">
<title>CLONE_FORMS</title>
<g id="a_node2"><a xlink:href="../../tables/CLONE_FORMS.html" xlink:title="CLONE_FORMS" target="_top">
<polygon fill="#ffffff" stroke="transparent" points="93,-281.7 93,-342.7 219,-342.7 219,-281.7 93,-281.7"/>
<polygon fill="#f5f5f5" stroke="transparent" points="93,-319.2 93,-342.2 219,-342.2 219,-319.2 93,-319.2"/>
<polygon fill="none" stroke="#000000" points="93,-319.2 93,-342.2 219,-342.2 219,-319.2 93,-319.2"/>
<text text-anchor="start" x="97.6401" y="-328.3" font-family="Helvetica,sans-Serif" font-weight="bold" font-size="11.00" fill="#000000">CLONE_FORMS</text>
<text text-anchor="start" x="184.5219" y="-327.3" font-family="Helvetica,sans-Serif" font-size="11.00" fill="#000000">[table]</text>
<polygon fill="none" stroke="#000000" points="93,-300.2 93,-319.2 219,-319.2 219,-300.2 93,-300.2"/>
<text text-anchor="start" x="96" y="-306.3" font-family="Helvetica,sans-Serif" font-size="11.00" fill="#000000">...</text>
<polygon fill="#ffffff" stroke="transparent" points="93,-281.2 93,-300.2 128,-300.2 128,-281.2 93,-281.2"/>
<polygon fill="none" stroke="#000000" points="93,-281.2 93,-300.2 128,-300.2 128,-281.2 93,-281.2"/>
<text text-anchor="start" x="96" y="-287.3" font-family="Helvetica,sans-Serif" font-size="11.00" fill="#000000">&lt; 4</text>
<polygon fill="#ffffff" stroke="transparent" points="128,-281.2 128,-300.2 185,-300.2 185,-281.2 128,-281.2"/>
<polygon fill="none" stroke="#000000" points="128,-281.2 128,-300.2 185,-300.2 185,-281.2 128,-281.2"/>
<text text-anchor="start" x="137.3807" y="-287.3" font-family="Helvetica,sans-Serif" font-size="11.00" fill="#000000">467 rows</text>
<polygon fill="#ffffff" stroke="transparent" points="185,-281.2 185,-300.2 219,-300.2 219,-281.2 185,-281.2"/>
<polygon fill="none" stroke="#000000" points="185,-281.2 185,-300.2 219,-300.2 219,-281.2 185,-281.2"/>
<text text-anchor="start" x="194.2904" y="-287.3" font-family="Helvetica,sans-Serif" font-size="11.00" fill="#000000">14 &gt;</text>
</a>
</g>
</g>
<!-- CLONE_FORMS_SUBSTRATES&#45;&gt;CLONE_FORMS -->
<g id="edge1" class="edge">
<title>CLONE_FORMS_SUBSTRATES:w&#45;&gt;CLONE_FORMS:e</title>
<path fill="none" stroke="#000000" d="M338.5655,-277.8392C289.481,-282.3493 275.0878,-309.2 219,-309.2"/>
<polygon fill="#000000" stroke="#000000" points="345.0078,-277.554 353.1593,-280.7965 349.0039,-277.377 353,-277.2 353,-277.2 353,-277.2 349.0039,-277.377 352.8407,-273.6035 345.0078,-277.554 345.0078,-277.554"/>
<ellipse fill="none" stroke="#000000" cx="341.811" cy="-277.6956" rx="3.2" ry="3.2"/>
</g>
<!-- SUBSTRATES -->
<g id="node3" class="node">
<title>SUBSTRATES</title>
<g id="a_node3"><a xlink:href="../../tables/SUBSTRATES.html" xlink:title="SUBSTRATES" target="_top">
<polygon fill="#ffffff" stroke="transparent" points="8,-38.2 8,-260.2 304,-260.2 304,-38.2 8,-38.2"/>
<polygon fill="#f5f5f5" stroke="transparent" points="10,-235.2 10,-258.2 302,-258.2 302,-235.2 10,-235.2"/>
<polygon fill="none" stroke="#000000" points="10,-235.2 10,-258.2 302,-258.2 302,-235.2 10,-235.2"/>
<text text-anchor="start" x="15" y="-244.3" font-family="Helvetica,sans-Serif" font-weight="bold" font-size="11.00" fill="#000000">SUBSTRATES</text>
<text text-anchor="start" x="267.0437" y="-243.3" font-family="Helvetica,sans-Serif" font-size="11.00" fill="#000000">[table]</text>
<polygon fill="none" stroke="#000000" points="10,-213.2 10,-235.2 131,-235.2 131,-213.2 10,-213.2"/>
<image xlink:href="../../images/primaryKeys.png" width="11px" height="12px" preserveAspectRatio="xMinYMin meet" x="15" y="-230.2"/>
<text text-anchor="start" x="30" y="-220.3" font-family="Helvetica,sans-Serif" font-size="11.00" fill="#000000">ID</text>
<polygon fill="none" stroke="#000000" points="131,-213.2 131,-235.2 302,-235.2 302,-213.2 131,-213.2"/>
<text text-anchor="start" x="134" y="-220.9" font-family="Helvetica,sans-Serif" font-size="11.00" fill="#000000">number[19]</text>
<polygon fill="none" stroke="#000000" points="10,-191.2 10,-213.2 131,-213.2 131,-191.2 10,-191.2"/>
<text text-anchor="start" x="30" y="-198.3" font-family="Helvetica,sans-Serif" font-size="11.00" fill="#000000">ABBREVIATION</text>
<polygon fill="none" stroke="#000000" points="131,-191.2 131,-213.2 302,-213.2 302,-191.2 131,-191.2"/>
<text text-anchor="start" x="134" y="-198.9" font-family="Helvetica,sans-Serif" font-size="11.00" fill="#000000">varchar2[255]</text>
<polygon fill="none" stroke="#000000" points="10,-169.2 10,-191.2 131,-191.2 131,-169.2 10,-169.2"/>
<text text-anchor="start" x="30" y="-176.3" font-family="Helvetica,sans-Serif" font-size="11.00" fill="#000000">META_INFO</text>
<polygon fill="none" stroke="#000000" points="131,-169.2 131,-191.2 302,-191.2 302,-169.2 131,-169.2"/>
<text text-anchor="start" x="134" y="-176.9" font-family="Helvetica,sans-Serif" font-size="11.00" fill="#000000">varchar2[255]</text>
<polygon fill="none" stroke="#000000" points="10,-147.2 10,-169.2 131,-169.2 131,-147.2 10,-147.2"/>
<text text-anchor="start" x="30" y="-154.3" font-family="Helvetica,sans-Serif" font-size="11.00" fill="#000000">NAME</text>
<polygon fill="none" stroke="#000000" points="131,-147.2 131,-169.2 302,-169.2 302,-147.2 131,-147.2"/>
<text text-anchor="start" x="134" y="-154.9" font-family="Helvetica,sans-Serif" font-size="11.00" fill="#000000">varchar2[255]</text>
<polygon fill="none" stroke="#000000" points="10,-125.2 10,-147.2 131,-147.2 131,-125.2 10,-125.2"/>
<text text-anchor="start" x="30" y="-132.3" font-family="Helvetica,sans-Serif" font-size="11.00" fill="#000000">CREATED_AT</text>
<polygon fill="none" stroke="#000000" points="131,-125.2 131,-147.2 302,-147.2 302,-125.2 131,-125.2"/>
<text text-anchor="start" x="133.9896" y="-132.9" font-family="Helvetica,sans-Serif" font-size="11.00" fill="#000000">timestamp(6) with time zone[13,6]</text>
<polygon fill="none" stroke="#000000" points="10,-103.2 10,-125.2 131,-125.2 131,-103.2 10,-103.2"/>
<text text-anchor="start" x="30" y="-110.3" font-family="Helvetica,sans-Serif" font-size="11.00" fill="#000000">CREATED_BY</text>
<polygon fill="none" stroke="#000000" points="131,-103.2 131,-125.2 302,-125.2 302,-103.2 131,-103.2"/>
<text text-anchor="start" x="134" y="-110.9" font-family="Helvetica,sans-Serif" font-size="11.00" fill="#000000">number[19]</text>
<polygon fill="none" stroke="#000000" points="10,-81.2 10,-103.2 131,-103.2 131,-81.2 10,-81.2"/>
<text text-anchor="start" x="30" y="-88.3" font-family="Helvetica,sans-Serif" font-size="11.00" fill="#000000">UPDATED_AT</text>
<polygon fill="none" stroke="#000000" points="131,-81.2 131,-103.2 302,-103.2 302,-81.2 131,-81.2"/>
<text text-anchor="start" x="133.9896" y="-88.9" font-family="Helvetica,sans-Serif" font-size="11.00" fill="#000000">timestamp(6) with time zone[13,6]</text>
<polygon fill="none" stroke="#000000" points="10,-59.2 10,-81.2 131,-81.2 131,-59.2 10,-59.2"/>
<text text-anchor="start" x="30" y="-66.3" font-family="Helvetica,sans-Serif" font-size="11.00" fill="#000000">UPDATED_BY</text>
<polygon fill="none" stroke="#000000" points="131,-59.2 131,-81.2 302,-81.2 302,-59.2 131,-59.2"/>
<text text-anchor="start" x="134" y="-66.9" font-family="Helvetica,sans-Serif" font-size="11.00" fill="#000000">number[19]</text>
<polygon fill="#ffffff" stroke="transparent" points="10,-40.2 10,-59.2 62,-59.2 62,-40.2 10,-40.2"/>
<polygon fill="none" stroke="#000000" points="10,-40.2 10,-59.2 62,-59.2 62,-40.2 10,-40.2"/>
<text text-anchor="start" x="13" y="-46.3" font-family="Helvetica,sans-Serif" font-size="11.00" fill="#000000">&lt; 0</text>
<polygon fill="#ffffff" stroke="transparent" points="62,-40.2 62,-59.2 131,-59.2 131,-40.2 62,-40.2"/>
<polygon fill="none" stroke="#000000" points="62,-40.2 62,-59.2 131,-59.2 131,-40.2 62,-40.2"/>
<text text-anchor="start" x="95.6105" y="-46.3" font-family="Helvetica,sans-Serif" font-size="11.00" fill="#000000">0 rows</text>
<polygon fill="#ffffff" stroke="transparent" points="131,-40.2 131,-59.2 302,-59.2 302,-40.2 131,-40.2"/>
<polygon fill="none" stroke="#000000" points="131,-40.2 131,-59.2 302,-59.2 302,-40.2 131,-40.2"/>
<text text-anchor="start" x="283.4053" y="-46.3" font-family="Helvetica,sans-Serif" font-size="11.00" fill="#000000">1 &gt;</text>
<polygon fill="none" stroke="#000000" stroke-width="2" points="9,-39.2 9,-259.2 303,-259.2 303,-39.2 9,-39.2"/>
</a>
</g>
</g>
<!-- CLONE_FORMS_SUBSTRATES&#45;&gt;SUBSTRATES -->
<g id="edge2" class="edge">
<title>CLONE_FORMS_SUBSTRATES:w&#45;&gt;SUBSTRATES:e</title>
<path fill="none" stroke="#000000" d="M339.0967,-251.3988C326.0044,-243.1209 322.7231,-224.2 302,-224.2"/>
<polygon fill="#000000" stroke="#000000" points="345.2832,-253.0902 352.0506,-258.6726 349.1416,-254.1451 353,-255.2 353,-255.2 353,-255.2 349.1416,-254.1451 353.9494,-251.7274 345.2832,-253.0902 345.2832,-253.0902"/>
<ellipse fill="none" stroke="#000000" cx="342.1965" cy="-252.2462" rx="3.2" ry="3.2"/>
</g>
</g>
</svg>
