<?xml version="1.0" encoding="UTF-8" standalone="no"?>
<!DOCTYPE svg PUBLIC "-//W3C//DTD SVG 1.1//EN"
 "http://www.w3.org/Graphics/SVG/1.1/DTD/svg11.dtd">
<!-- Generated by graphviz version 2.40.1 (20161225.0304)
 -->
<!-- Title: oneDegreeRelationshipsDiagram Pages: 1 -->
<svg width="945pt" height="375pt"
 viewBox="0.00 0.00 945.00 375.20" xmlns="http://www.w3.org/2000/svg" xmlns:xlink="http://www.w3.org/1999/xlink">
<g id="graph0" class="graph" transform="scale(1 1) rotate(0) translate(4 371.2)">
<title>oneDegreeRelationshipsDiagram</title>
<polygon fill="#ffffff" stroke="transparent" points="-4,4 -4,-371.2 941,-371.2 941,4 -4,4"/>
<text text-anchor="middle" x="72.4936" y="-7.3" font-family="Helvetica,sans-Serif" font-size="11.00" fill="#000000">Generated by SchemaSpy</text>
<!-- SUBUNIT_ANNOTATIONS -->
<g id="node1" class="node">
<title>SUBUNIT_ANNOTATIONS</title>
<g id="a_node1"><a xlink:href="../../tables/SUBUNIT_ANNOTATIONS.html" xlink:title="SUBUNIT_ANNOTATIONS" target="_top">
<polygon fill="#ffffff" stroke="transparent" points="242,-54.7 242,-342.7 602,-342.7 602,-54.7 242,-54.7"/>
<polygon fill="#f5f5f5" stroke="transparent" points="244,-317.7 244,-340.7 600,-340.7 600,-317.7 244,-317.7"/>
<polygon fill="none" stroke="#000000" points="244,-317.7 244,-340.7 600,-340.7 600,-317.7 244,-317.7"/>
<text text-anchor="start" x="249" y="-326.8" font-family="Helvetica,sans-Serif" font-weight="bold" font-size="11.00" fill="#000000">SUBUNIT_ANNOTATIONS</text>
<text text-anchor="start" x="565.0437" y="-325.8" font-family="Helvetica,sans-Serif" font-size="11.00" fill="#000000">[table]</text>
<polygon fill="none" stroke="#000000" points="244,-295.7 244,-317.7 429,-317.7 429,-295.7 244,-295.7"/>
<image xlink:href="../../images/primaryKeys.png" width="11px" height="12px" preserveAspectRatio="xMinYMin meet" x="249" y="-312.7"/>
<text text-anchor="start" x="264" y="-302.8" font-family="Helvetica,sans-Serif" font-size="11.00" fill="#000000">ID</text>
<polygon fill="none" stroke="#000000" points="429,-295.7 429,-317.7 600,-317.7 600,-295.7 429,-295.7"/>
<text text-anchor="start" x="432" y="-303.4" font-family="Helvetica,sans-Serif" font-size="11.00" fill="#000000">number[19]</text>
<polygon fill="none" stroke="#000000" points="244,-273.7 244,-295.7 429,-295.7 429,-273.7 244,-273.7"/>
<text text-anchor="start" x="264" y="-280.8" font-family="Helvetica,sans-Serif" font-size="11.00" fill="#000000">CREATED_AT</text>
<polygon fill="none" stroke="#000000" points="429,-273.7 429,-295.7 600,-295.7 600,-273.7 429,-273.7"/>
<text text-anchor="start" x="431.9896" y="-281.4" font-family="Helvetica,sans-Serif" font-size="11.00" fill="#000000">timestamp(6) with time zone[13,6]</text>
<polygon fill="none" stroke="#000000" points="244,-251.7 244,-273.7 429,-273.7 429,-251.7 244,-251.7"/>
<text text-anchor="start" x="264" y="-258.8" font-family="Helvetica,sans-Serif" font-size="11.00" fill="#000000">CREATED_BY</text>
<polygon fill="none" stroke="#000000" points="429,-251.7 429,-273.7 600,-273.7 600,-251.7 429,-251.7"/>
<text text-anchor="start" x="432" y="-259.4" font-family="Helvetica,sans-Serif" font-size="11.00" fill="#000000">number[19]</text>
<polygon fill="none" stroke="#000000" points="244,-229.7 244,-251.7 429,-251.7 429,-229.7 244,-229.7"/>
<text text-anchor="start" x="264" y="-236.8" font-family="Helvetica,sans-Serif" font-size="11.00" fill="#000000">UPDATED_AT</text>
<polygon fill="none" stroke="#000000" points="429,-229.7 429,-251.7 600,-251.7 600,-229.7 429,-229.7"/>
<text text-anchor="start" x="431.9896" y="-237.4" font-family="Helvetica,sans-Serif" font-size="11.00" fill="#000000">timestamp(6) with time zone[13,6]</text>
<polygon fill="none" stroke="#000000" points="244,-207.7 244,-229.7 429,-229.7 429,-207.7 244,-207.7"/>
<text text-anchor="start" x="264" y="-214.8" font-family="Helvetica,sans-Serif" font-size="11.00" fill="#000000">UPDATED_BY</text>
<polygon fill="none" stroke="#000000" points="429,-207.7 429,-229.7 600,-229.7 600,-207.7 429,-207.7"/>
<text text-anchor="start" x="432" y="-215.4" font-family="Helvetica,sans-Serif" font-size="11.00" fill="#000000">number[19]</text>
<polygon fill="none" stroke="#000000" points="244,-185.7 244,-207.7 429,-207.7 429,-185.7 244,-185.7"/>
<text text-anchor="start" x="264" y="-192.8" font-family="Helvetica,sans-Serif" font-size="11.00" fill="#000000">COLOR</text>
<polygon fill="none" stroke="#000000" points="429,-185.7 429,-207.7 600,-207.7 600,-185.7 429,-185.7"/>
<text text-anchor="start" x="432" y="-193.4" font-family="Helvetica,sans-Serif" font-size="11.00" fill="#000000">varchar2[255]</text>
<polygon fill="none" stroke="#000000" points="244,-163.7 244,-185.7 429,-185.7 429,-163.7 244,-163.7"/>
<text text-anchor="start" x="264" y="-170.8" font-family="Helvetica,sans-Serif" font-size="11.00" fill="#000000">DESCRIPTION</text>
<polygon fill="none" stroke="#000000" points="429,-163.7 429,-185.7 600,-185.7 600,-163.7 429,-163.7"/>
<text text-anchor="start" x="432" y="-171.4" font-family="Helvetica,sans-Serif" font-size="11.00" fill="#000000">clob[4000]</text>
<polygon fill="none" stroke="#000000" points="244,-141.7 244,-163.7 429,-163.7 429,-141.7 244,-141.7"/>
<text text-anchor="start" x="264" y="-148.8" font-family="Helvetica,sans-Serif" font-size="11.00" fill="#000000">END_RANGE</text>
<polygon fill="none" stroke="#000000" points="429,-141.7 429,-163.7 600,-163.7 600,-141.7 429,-141.7"/>
<text text-anchor="start" x="432" y="-149.4" font-family="Helvetica,sans-Serif" font-size="11.00" fill="#000000">number[19]</text>
<polygon fill="none" stroke="#000000" points="244,-119.7 244,-141.7 429,-141.7 429,-119.7 244,-119.7"/>
<image xlink:href="../../images/foreignKeys.png" width="11px" height="12px" preserveAspectRatio="xMinYMin meet" x="249" y="-136.7"/>
<text text-anchor="start" x="264" y="-126.8" font-family="Helvetica,sans-Serif" font-size="11.00" fill="#000000">SUBUNIT_ID</text>
<polygon fill="none" stroke="#000000" points="429,-119.7 429,-141.7 600,-141.7 600,-119.7 429,-119.7"/>
<text text-anchor="start" x="432" y="-127.4" font-family="Helvetica,sans-Serif" font-size="11.00" fill="#000000">number[19]</text>
<polygon fill="none" stroke="#000000" points="244,-97.7 244,-119.7 429,-119.7 429,-97.7 244,-97.7"/>
<text text-anchor="start" x="264" y="-104.8" font-family="Helvetica,sans-Serif" font-size="11.00" fill="#000000">START_RANGE</text>
<polygon fill="none" stroke="#000000" points="429,-97.7 429,-119.7 600,-119.7 600,-97.7 429,-97.7"/>
<text text-anchor="start" x="432" y="-105.4" font-family="Helvetica,sans-Serif" font-size="11.00" fill="#000000">number[19]</text>
<polygon fill="none" stroke="#000000" points="244,-75.7 244,-97.7 429,-97.7 429,-75.7 244,-75.7"/>
<text text-anchor="start" x="264" y="-82.8" font-family="Helvetica,sans-Serif" font-size="11.00" fill="#000000">TITLE</text>
<polygon fill="none" stroke="#000000" points="429,-75.7 429,-97.7 600,-97.7 600,-75.7 429,-75.7"/>
<text text-anchor="start" x="432" y="-83.4" font-family="Helvetica,sans-Serif" font-size="11.00" fill="#000000">varchar2[255]</text>
<polygon fill="#ffffff" stroke="transparent" points="244,-56.7 244,-75.7 328,-75.7 328,-56.7 244,-56.7"/>
<polygon fill="none" stroke="#000000" points="244,-56.7 244,-75.7 328,-75.7 328,-56.7 244,-56.7"/>
<text text-anchor="start" x="247" y="-62.8" font-family="Helvetica,sans-Serif" font-size="11.00" fill="#000000">&lt; 1</text>
<polygon fill="#ffffff" stroke="transparent" points="328,-56.7 328,-75.7 429,-75.7 429,-56.7 328,-56.7"/>
<polygon fill="none" stroke="#000000" points="328,-56.7 328,-75.7 429,-75.7 429,-56.7 328,-56.7"/>
<text text-anchor="start" x="393.6105" y="-62.8" font-family="Helvetica,sans-Serif" font-size="11.00" fill="#000000">0 rows</text>
<polygon fill="#ffffff" stroke="transparent" points="429,-56.7 429,-75.7 600,-75.7 600,-56.7 429,-56.7"/>
<polygon fill="none" stroke="#000000" points="429,-56.7 429,-75.7 600,-75.7 600,-56.7 429,-56.7"/>
<text text-anchor="start" x="581.4053" y="-62.8" font-family="Helvetica,sans-Serif" font-size="11.00" fill="#000000">1 &gt;</text>
<polygon fill="none" stroke="#000000" stroke-width="2" points="243,-55.7 243,-341.7 601,-341.7 601,-55.7 243,-55.7"/>
</a>
</g>
</g>
<!-- SUBUNITS -->
<g id="node2" class="node">
<title>SUBUNITS</title>
<g id="a_node2"><a xlink:href="../../tables/SUBUNITS.html" xlink:title="SUBUNITS" target="_top">
<polygon fill="#ffffff" stroke="transparent" points="8,-38.2 8,-165.2 193,-165.2 193,-38.2 8,-38.2"/>
<polygon fill="#f5f5f5" stroke="transparent" points="8.5,-141.7 8.5,-164.7 193.5,-164.7 193.5,-141.7 8.5,-141.7"/>
<polygon fill="none" stroke="#000000" points="8.5,-141.7 8.5,-164.7 193.5,-164.7 193.5,-141.7 8.5,-141.7"/>
<text text-anchor="start" x="13.5" y="-150.8" font-family="Helvetica,sans-Serif" font-weight="bold" font-size="11.00" fill="#000000">SUBUNITS</text>
<text text-anchor="start" x="158.5437" y="-149.8" font-family="Helvetica,sans-Serif" font-size="11.00" fill="#000000">[table]</text>
<polygon fill="none" stroke="#000000" points="8.5,-119.7 8.5,-141.7 193.5,-141.7 193.5,-119.7 8.5,-119.7"/>
<image xlink:href="../../images/primaryKeys.png" width="11px" height="12px" preserveAspectRatio="xMinYMin meet" x="13.5" y="-136.7"/>
<text text-anchor="start" x="28.5" y="-126.8" font-family="Helvetica,sans-Serif" font-size="11.00" fill="#000000">ID</text>
<polygon fill="none" stroke="#000000" points="8.5,-97.7 8.5,-119.7 193.5,-119.7 193.5,-97.7 8.5,-97.7"/>
<image xlink:href="../../images/foreignKeys.png" width="11px" height="12px" preserveAspectRatio="xMinYMin meet" x="13.5" y="-114.7"/>
<text text-anchor="start" x="28.5" y="-104.8" font-family="Helvetica,sans-Serif" font-size="11.00" fill="#000000">TARGET_ID</text>
<polygon fill="none" stroke="#000000" points="8.5,-75.7 8.5,-97.7 193.5,-97.7 193.5,-75.7 8.5,-75.7"/>
<image xlink:href="../../images/foreignKeys.png" width="11px" height="12px" preserveAspectRatio="xMinYMin meet" x="13.5" y="-92.7"/>
<text text-anchor="start" x="28.5" y="-82.8" font-family="Helvetica,sans-Serif" font-size="11.00" fill="#000000">SUBUNIT_TYPE_ID</text>
<polygon fill="none" stroke="#000000" points="8.5,-56.7 8.5,-75.7 193.5,-75.7 193.5,-56.7 8.5,-56.7"/>
<text text-anchor="start" x="11.5" y="-62.8" font-family="Helvetica,sans-Serif" font-size="11.00" fill="#000000">...</text>
<polygon fill="#ffffff" stroke="transparent" points="8.5,-37.7 8.5,-56.7 81.5,-56.7 81.5,-37.7 8.5,-37.7"/>
<polygon fill="none" stroke="#000000" points="8.5,-37.7 8.5,-56.7 81.5,-56.7 81.5,-37.7 8.5,-37.7"/>
<text text-anchor="start" x="11.5" y="-43.8" font-family="Helvetica,sans-Serif" font-size="11.00" fill="#000000">&lt; 2</text>
<polygon fill="#ffffff" stroke="transparent" points="81.5,-37.7 81.5,-56.7 145.5,-56.7 145.5,-37.7 81.5,-37.7"/>
<polygon fill="none" stroke="#000000" points="81.5,-37.7 81.5,-56.7 145.5,-56.7 145.5,-37.7 81.5,-37.7"/>
<text text-anchor="start" x="110.1105" y="-43.8" font-family="Helvetica,sans-Serif" font-size="11.00" fill="#000000">0 rows</text>
<polygon fill="#ffffff" stroke="transparent" points="145.5,-37.7 145.5,-56.7 193.5,-56.7 193.5,-37.7 145.5,-37.7"/>
<polygon fill="none" stroke="#000000" points="145.5,-37.7 145.5,-56.7 193.5,-56.7 193.5,-37.7 145.5,-37.7"/>
<text text-anchor="start" x="174.9053" y="-43.8" font-family="Helvetica,sans-Serif" font-size="11.00" fill="#000000">3 &gt;</text>
</a>
</g>
</g>
<!-- SUBUNIT_ANNOTATIONS&#45;&gt;SUBUNITS -->
<g id="edge1" class="edge">
<title>SUBUNIT_ANNOTATIONS:w&#45;&gt;SUBUNITS:e</title>
<path fill="none" stroke="#000000" d="M229.4203,-130.7C217.5435,-130.7 210.158,-130.7 193.5,-130.7"/>
<polygon fill="#000000" stroke="#000000" points="236,-130.7001 244,-134.3 240,-130.7 244,-130.7 244,-130.7 244,-130.7 240,-130.7 244,-127.1 236,-130.7001 236,-130.7001"/>
<ellipse fill="none" stroke="#000000" cx="232.8" cy="-130.7001" rx="3.2" ry="3.2"/>
</g>
<!-- SUBUNIT_ANNOTATIONS_REFERENCES -->
<g id="node3" class="node">
<title>SUBUNIT_ANNOTATIONS_REFERENCES</title>
<g id="a_node3"><a xlink:href="../../tables/SUBUNIT_ANNOTATIONS_REFERENCES.html" xlink:title="SUBUNIT_ANNOTATIONS_REFERENCES" target="_top">
<polygon fill="#ffffff" stroke="transparent" points="651,-236.2 651,-363.2 929,-363.2 929,-236.2 651,-236.2"/>
<polygon fill="#f5f5f5" stroke="transparent" points="651,-339.7 651,-362.7 929,-362.7 929,-339.7 651,-339.7"/>
<polygon fill="none" stroke="#000000" points="651,-339.7 651,-362.7 929,-362.7 929,-339.7 651,-339.7"/>
<text text-anchor="start" x="656" y="-348.8" font-family="Helvetica,sans-Serif" font-weight="bold" font-size="11.00" fill="#000000">SUBUNIT_ANNOTATIONS_REFERENCES</text>
<text text-anchor="start" x="894.0437" y="-347.8" font-family="Helvetica,sans-Serif" font-size="11.00" fill="#000000">[table]</text>
<polygon fill="none" stroke="#000000" points="651,-317.7 651,-339.7 929,-339.7 929,-317.7 651,-317.7"/>
<image xlink:href="../../images/primaryKeys.png" width="11px" height="12px" preserveAspectRatio="xMinYMin meet" x="656" y="-334.7"/>
<text text-anchor="start" x="671" y="-324.8" font-family="Helvetica,sans-Serif" font-size="11.00" fill="#000000">ID</text>
<polygon fill="none" stroke="#000000" points="651,-295.7 651,-317.7 929,-317.7 929,-295.7 651,-295.7"/>
<image xlink:href="../../images/foreignKeys.png" width="11px" height="12px" preserveAspectRatio="xMinYMin meet" x="656" y="-312.7"/>
<text text-anchor="start" x="671" y="-302.8" font-family="Helvetica,sans-Serif" font-size="11.00" fill="#000000">SUBUNIT_ANNOTATION_ID</text>
<polygon fill="none" stroke="#000000" points="651,-273.7 651,-295.7 929,-295.7 929,-273.7 651,-273.7"/>
<image xlink:href="../../images/foreignKeys.png" width="11px" height="12px" preserveAspectRatio="xMinYMin meet" x="656" y="-290.7"/>
<text text-anchor="start" x="671" y="-280.8" font-family="Helvetica,sans-Serif" font-size="11.00" fill="#000000">REFERENCE_ID</text>
<polygon fill="none" stroke="#000000" points="651,-254.7 651,-273.7 929,-273.7 929,-254.7 651,-254.7"/>
<text text-anchor="start" x="654" y="-260.8" font-family="Helvetica,sans-Serif" font-size="11.00" fill="#000000">...</text>
<polygon fill="#ffffff" stroke="transparent" points="651,-235.7 651,-254.7 775,-254.7 775,-235.7 651,-235.7"/>
<polygon fill="none" stroke="#000000" points="651,-235.7 651,-254.7 775,-254.7 775,-235.7 651,-235.7"/>
<text text-anchor="start" x="654" y="-241.8" font-family="Helvetica,sans-Serif" font-size="11.00" fill="#000000">&lt; 2</text>
<polygon fill="#ffffff" stroke="transparent" points="775,-235.7 775,-254.7 865,-254.7 865,-235.7 775,-235.7"/>
<polygon fill="none" stroke="#000000" points="775,-235.7 775,-254.7 865,-254.7 865,-235.7 775,-235.7"/>
<text text-anchor="start" x="829.6105" y="-241.8" font-family="Helvetica,sans-Serif" font-size="11.00" fill="#000000">0 rows</text>
<polygon fill="#ffffff" stroke="transparent" points="865,-235.7 865,-254.7 929,-254.7 929,-235.7 865,-235.7"/>
<polygon fill="none" stroke="#000000" points="865,-235.7 865,-254.7 929,-254.7 929,-235.7 865,-235.7"/>
<text text-anchor="start" x="919.8862" y="-241.8" font-family="Helvetica,sans-Serif" font-size="11.00" fill="#000000"> &#160;</text>
</a>
</g>
</g>
<!-- SUBUNIT_ANNOTATIONS_REFERENCES&#45;&gt;SUBUNIT_ANNOTATIONS -->
<g id="edge2" class="edge">
<title>SUBUNIT_ANNOTATIONS_REFERENCES:w&#45;&gt;SUBUNIT_ANNOTATIONS:e</title>
<path fill="none" stroke="#000000" d="M636.276,-306.7C624.2815,-306.7 616.8229,-306.7 600,-306.7"/>
<polygon fill="#000000" stroke="#000000" points="643,-306.7001 651,-310.3 647,-306.7 651,-306.7 651,-306.7 651,-306.7 647,-306.7 651,-303.1 643,-306.7001 643,-306.7001"/>
<ellipse fill="none" stroke="#000000" cx="639.8" cy="-306.7001" rx="3.2" ry="3.2"/>
</g>
</g>
</svg>
