<?xml version="1.0" encoding="UTF-8" standalone="no"?>
<!DOCTYPE svg PUBLIC "-//W3C//DTD SVG 1.1//EN"
 "http://www.w3.org/Graphics/SVG/1.1/DTD/svg11.dtd">
<!-- Generated by graphviz version 2.40.1 (20161225.0304)
 -->
<!-- Title: twoDegreesRelationshipsDiagram Pages: 1 -->
<svg width="1067pt" height="563pt"
 viewBox="0.00 0.00 1067.00 563.20" xmlns="http://www.w3.org/2000/svg" xmlns:xlink="http://www.w3.org/1999/xlink">
<g id="graph0" class="graph" transform="scale(1 1) rotate(0) translate(4 559.2)">
<title>twoDegreesRelationshipsDiagram</title>
<polygon fill="#ffffff" stroke="transparent" points="-4,4 -4,-559.2 1063,-559.2 1063,4 -4,4"/>
<text text-anchor="middle" x="72.4936" y="-7.3" font-family="Helvetica,sans-Serif" font-size="11.00" fill="#000000">Generated by SchemaSpy</text>
<!-- SUBUNIT_ANNOTATIONS -->
<g id="node1" class="node">
<title>SUBUNIT_ANNOTATIONS</title>
<g id="a_node1"><a xlink:href="../../tables/SUBUNIT_ANNOTATIONS.html" xlink:title="SUBUNIT_ANNOTATIONS" target="_top">
<polygon fill="#ffffff" stroke="transparent" points="501,-490.2 501,-551.2 677,-551.2 677,-490.2 501,-490.2"/>
<polygon fill="#f5f5f5" stroke="transparent" points="501,-527.7 501,-550.7 677,-550.7 677,-527.7 501,-527.7"/>
<polygon fill="none" stroke="#000000" points="501,-527.7 501,-550.7 677,-550.7 677,-527.7 501,-527.7"/>
<text text-anchor="start" x="505.5865" y="-536.8" font-family="Helvetica,sans-Serif" font-weight="bold" font-size="11.00" fill="#000000">SUBUNIT_ANNOTATIONS</text>
<text text-anchor="start" x="642.5219" y="-535.8" font-family="Helvetica,sans-Serif" font-size="11.00" fill="#000000">[table]</text>
<polygon fill="none" stroke="#000000" points="501,-508.7 501,-527.7 677,-527.7 677,-508.7 501,-508.7"/>
<text text-anchor="start" x="504" y="-514.8" font-family="Helvetica,sans-Serif" font-size="11.00" fill="#000000">...</text>
<polygon fill="#ffffff" stroke="transparent" points="501,-489.7 501,-508.7 570,-508.7 570,-489.7 501,-489.7"/>
<polygon fill="none" stroke="#000000" points="501,-489.7 501,-508.7 570,-508.7 570,-489.7 501,-489.7"/>
<text text-anchor="start" x="504" y="-495.8" font-family="Helvetica,sans-Serif" font-size="11.00" fill="#000000">&lt; 1</text>
<polygon fill="#ffffff" stroke="transparent" points="570,-489.7 570,-508.7 632,-508.7 632,-489.7 570,-489.7"/>
<polygon fill="none" stroke="#000000" points="570,-489.7 570,-508.7 632,-508.7 632,-489.7 570,-489.7"/>
<text text-anchor="start" x="596.6105" y="-495.8" font-family="Helvetica,sans-Serif" font-size="11.00" fill="#000000">0 rows</text>
<polygon fill="#ffffff" stroke="transparent" points="632,-489.7 632,-508.7 677,-508.7 677,-489.7 632,-489.7"/>
<polygon fill="none" stroke="#000000" points="632,-489.7 632,-508.7 677,-508.7 677,-489.7 632,-489.7"/>
<text text-anchor="start" x="658.4053" y="-495.8" font-family="Helvetica,sans-Serif" font-size="11.00" fill="#000000">1 &gt;</text>
</a>
</g>
</g>
<!-- SUBUNITS -->
<g id="node2" class="node">
<title>SUBUNITS</title>
<g id="a_node2"><a xlink:href="../../tables/SUBUNITS.html" xlink:title="SUBUNITS" target="_top">
<polygon fill="#ffffff" stroke="transparent" points="190,-343.2 190,-470.2 375,-470.2 375,-343.2 190,-343.2"/>
<polygon fill="#f5f5f5" stroke="transparent" points="190.5,-446.7 190.5,-469.7 375.5,-469.7 375.5,-446.7 190.5,-446.7"/>
<polygon fill="none" stroke="#000000" points="190.5,-446.7 190.5,-469.7 375.5,-469.7 375.5,-446.7 190.5,-446.7"/>
<text text-anchor="start" x="195.5" y="-455.8" font-family="Helvetica,sans-Serif" font-weight="bold" font-size="11.00" fill="#000000">SUBUNITS</text>
<text text-anchor="start" x="340.5437" y="-454.8" font-family="Helvetica,sans-Serif" font-size="11.00" fill="#000000">[table]</text>
<polygon fill="none" stroke="#000000" points="190.5,-424.7 190.5,-446.7 375.5,-446.7 375.5,-424.7 190.5,-424.7"/>
<image xlink:href="../../images/primaryKeys.png" width="11px" height="12px" preserveAspectRatio="xMinYMin meet" x="195.5" y="-441.7"/>
<text text-anchor="start" x="210.5" y="-431.8" font-family="Helvetica,sans-Serif" font-size="11.00" fill="#000000">ID</text>
<polygon fill="none" stroke="#000000" points="190.5,-402.7 190.5,-424.7 375.5,-424.7 375.5,-402.7 190.5,-402.7"/>
<image xlink:href="../../images/foreignKeys.png" width="11px" height="12px" preserveAspectRatio="xMinYMin meet" x="195.5" y="-419.7"/>
<text text-anchor="start" x="210.5" y="-409.8" font-family="Helvetica,sans-Serif" font-size="11.00" fill="#000000">TARGET_ID</text>
<polygon fill="none" stroke="#000000" points="190.5,-380.7 190.5,-402.7 375.5,-402.7 375.5,-380.7 190.5,-380.7"/>
<image xlink:href="../../images/foreignKeys.png" width="11px" height="12px" preserveAspectRatio="xMinYMin meet" x="195.5" y="-397.7"/>
<text text-anchor="start" x="210.5" y="-387.8" font-family="Helvetica,sans-Serif" font-size="11.00" fill="#000000">SUBUNIT_TYPE_ID</text>
<polygon fill="none" stroke="#000000" points="190.5,-361.7 190.5,-380.7 375.5,-380.7 375.5,-361.7 190.5,-361.7"/>
<text text-anchor="start" x="193.5" y="-367.8" font-family="Helvetica,sans-Serif" font-size="11.00" fill="#000000">...</text>
<polygon fill="#ffffff" stroke="transparent" points="190.5,-342.7 190.5,-361.7 263.5,-361.7 263.5,-342.7 190.5,-342.7"/>
<polygon fill="none" stroke="#000000" points="190.5,-342.7 190.5,-361.7 263.5,-361.7 263.5,-342.7 190.5,-342.7"/>
<text text-anchor="start" x="193.5" y="-348.8" font-family="Helvetica,sans-Serif" font-size="11.00" fill="#000000">&lt; 2</text>
<polygon fill="#ffffff" stroke="transparent" points="263.5,-342.7 263.5,-361.7 327.5,-361.7 327.5,-342.7 263.5,-342.7"/>
<polygon fill="none" stroke="#000000" points="263.5,-342.7 263.5,-361.7 327.5,-361.7 327.5,-342.7 263.5,-342.7"/>
<text text-anchor="start" x="292.1105" y="-348.8" font-family="Helvetica,sans-Serif" font-size="11.00" fill="#000000">0 rows</text>
<polygon fill="#ffffff" stroke="transparent" points="327.5,-342.7 327.5,-361.7 375.5,-361.7 375.5,-342.7 327.5,-342.7"/>
<polygon fill="none" stroke="#000000" points="327.5,-342.7 327.5,-361.7 375.5,-361.7 375.5,-342.7 327.5,-342.7"/>
<text text-anchor="start" x="356.9053" y="-348.8" font-family="Helvetica,sans-Serif" font-size="11.00" fill="#000000">3 &gt;</text>
</a>
</g>
</g>
<!-- SUBUNIT_ANNOTATIONS&#45;&gt;SUBUNITS -->
<g id="edge1" class="edge">
<title>SUBUNIT_ANNOTATIONS:w&#45;&gt;SUBUNITS:e</title>
<path fill="none" stroke="#000000" d="M486.4426,-517.0178C456.6424,-513.9615 445.2621,-500.7499 416,-479.7 394.424,-464.1791 402.0786,-435.7 375.5,-435.7"/>
<polygon fill="#000000" stroke="#000000" points="493.0088,-517.3255 500.8315,-521.2961 497.0044,-517.5127 501,-517.7 501,-517.7 501,-517.7 497.0044,-517.5127 501.1685,-514.1039 493.0088,-517.3255 493.0088,-517.3255"/>
<ellipse fill="none" stroke="#000000" cx="489.8123" cy="-517.1757" rx="3.2" ry="3.2"/>
</g>
<!-- SUBUNIT_TYPES -->
<g id="node7" class="node">
<title>SUBUNIT_TYPES</title>
<g id="a_node7"><a xlink:href="../../tables/SUBUNIT_TYPES.html" xlink:title="SUBUNIT_TYPES" target="_top">
<polygon fill="#ffffff" stroke="transparent" points="8,-334.2 8,-395.2 141,-395.2 141,-334.2 8,-334.2"/>
<polygon fill="#f5f5f5" stroke="transparent" points="8.5,-371.7 8.5,-394.7 141.5,-394.7 141.5,-371.7 8.5,-371.7"/>
<polygon fill="none" stroke="#000000" points="8.5,-371.7 8.5,-394.7 141.5,-394.7 141.5,-371.7 8.5,-371.7"/>
<text text-anchor="start" x="13.2752" y="-380.8" font-family="Helvetica,sans-Serif" font-weight="bold" font-size="11.00" fill="#000000">SUBUNIT_TYPES</text>
<text text-anchor="start" x="107.0219" y="-379.8" font-family="Helvetica,sans-Serif" font-size="11.00" fill="#000000">[table]</text>
<polygon fill="none" stroke="#000000" points="8.5,-352.7 8.5,-371.7 141.5,-371.7 141.5,-352.7 8.5,-352.7"/>
<text text-anchor="start" x="11.5" y="-358.8" font-family="Helvetica,sans-Serif" font-size="11.00" fill="#000000">...</text>
<polygon fill="#ffffff" stroke="transparent" points="8.5,-333.7 8.5,-352.7 51.5,-352.7 51.5,-333.7 8.5,-333.7"/>
<polygon fill="none" stroke="#000000" points="8.5,-333.7 8.5,-352.7 51.5,-352.7 51.5,-333.7 8.5,-333.7"/>
<text text-anchor="start" x="11.5" y="-339.8" font-family="Helvetica,sans-Serif" font-size="11.00" fill="#000000"> &#160;</text>
<polygon fill="#ffffff" stroke="transparent" points="51.5,-333.7 51.5,-352.7 104.5,-352.7 104.5,-333.7 51.5,-333.7"/>
<polygon fill="none" stroke="#000000" points="51.5,-333.7 51.5,-352.7 104.5,-352.7 104.5,-333.7 51.5,-333.7"/>
<text text-anchor="start" x="69.1105" y="-339.8" font-family="Helvetica,sans-Serif" font-size="11.00" fill="#000000">0 rows</text>
<polygon fill="#ffffff" stroke="transparent" points="104.5,-333.7 104.5,-352.7 141.5,-352.7 141.5,-333.7 104.5,-333.7"/>
<polygon fill="none" stroke="#000000" points="104.5,-333.7 104.5,-352.7 141.5,-352.7 141.5,-333.7 104.5,-333.7"/>
<text text-anchor="start" x="122.9053" y="-339.8" font-family="Helvetica,sans-Serif" font-size="11.00" fill="#000000">1 &gt;</text>
</a>
</g>
</g>
<!-- SUBUNITS&#45;&gt;SUBUNIT_TYPES -->
<g id="edge6" class="edge">
<title>SUBUNITS:w&#45;&gt;SUBUNIT_TYPES:e</title>
<path fill="none" stroke="#000000" d="M176.384,-387.5286C164.4189,-379.2854 161.0504,-361.7 141.5,-361.7"/>
<polygon fill="#000000" stroke="#000000" points="182.828,-389.4328 189.4798,-395.1524 186.664,-390.5664 190.5,-391.7 190.5,-391.7 190.5,-391.7 186.664,-390.5664 191.5202,-388.2476 182.828,-389.4328 182.828,-389.4328"/>
<ellipse fill="none" stroke="#000000" cx="179.7591" cy="-388.526" rx="3.2" ry="3.2"/>
</g>
<!-- TARGETS -->
<g id="node8" class="node">
<title>TARGETS</title>
<g id="a_node8"><a xlink:href="../../tables/TARGETS.html" xlink:title="TARGETS" target="_top">
<polygon fill="#ffffff" stroke="transparent" points="25.5,-416.2 25.5,-477.2 123.5,-477.2 123.5,-416.2 25.5,-416.2"/>
<polygon fill="#f5f5f5" stroke="transparent" points="25.5,-453.7 25.5,-476.7 123.5,-476.7 123.5,-453.7 25.5,-453.7"/>
<polygon fill="none" stroke="#000000" points="25.5,-453.7 25.5,-476.7 123.5,-476.7 123.5,-453.7 25.5,-453.7"/>
<text text-anchor="start" x="30.5" y="-462.8" font-family="Helvetica,sans-Serif" font-weight="bold" font-size="11.00" fill="#000000">TARGETS</text>
<text text-anchor="start" x="88.5437" y="-461.8" font-family="Helvetica,sans-Serif" font-size="11.00" fill="#000000">[table]</text>
<polygon fill="none" stroke="#000000" points="25.5,-434.7 25.5,-453.7 123.5,-453.7 123.5,-434.7 25.5,-434.7"/>
<text text-anchor="start" x="28.5" y="-440.8" font-family="Helvetica,sans-Serif" font-size="11.00" fill="#000000">...</text>
<polygon fill="#ffffff" stroke="transparent" points="25.5,-415.7 25.5,-434.7 46.5,-434.7 46.5,-415.7 25.5,-415.7"/>
<polygon fill="none" stroke="#000000" points="25.5,-415.7 25.5,-434.7 46.5,-434.7 46.5,-415.7 25.5,-415.7"/>
<text text-anchor="start" x="28.2027" y="-421.8" font-family="Helvetica,sans-Serif" font-size="11.00" fill="#000000">&lt; 3</text>
<polygon fill="#ffffff" stroke="transparent" points="46.5,-415.7 46.5,-434.7 96.5,-434.7 96.5,-415.7 46.5,-415.7"/>
<polygon fill="none" stroke="#000000" points="46.5,-415.7 46.5,-434.7 96.5,-434.7 96.5,-415.7 46.5,-415.7"/>
<text text-anchor="start" x="49.1903" y="-421.8" font-family="Helvetica,sans-Serif" font-size="11.00" fill="#000000">146 rows</text>
<polygon fill="#ffffff" stroke="transparent" points="96.5,-415.7 96.5,-434.7 123.5,-434.7 123.5,-415.7 96.5,-415.7"/>
<polygon fill="none" stroke="#000000" points="96.5,-415.7 96.5,-434.7 123.5,-434.7 123.5,-415.7 96.5,-415.7"/>
<text text-anchor="start" x="99.1452" y="-421.8" font-family="Helvetica,sans-Serif" font-size="11.00" fill="#000000">10 &gt;</text>
</a>
</g>
</g>
<!-- SUBUNITS&#45;&gt;TARGETS -->
<g id="edge7" class="edge">
<title>SUBUNITS:w&#45;&gt;TARGETS:e</title>
<path fill="none" stroke="#000000" d="M176.1,-416.054C156.3607,-423.1263 150.5189,-443.7 123.5,-443.7"/>
<polygon fill="#000000" stroke="#000000" points="182.6048,-414.9907 191.0808,-417.2528 186.5524,-414.3454 190.5,-413.7 190.5,-413.7 190.5,-413.7 186.5524,-414.3454 189.9192,-410.1472 182.6048,-414.9907 182.6048,-414.9907"/>
<ellipse fill="none" stroke="#000000" cx="179.4467" cy="-415.507" rx="3.2" ry="3.2"/>
</g>
<!-- SUBUNIT_DOMAINS -->
<g id="node3" class="node">
<title>SUBUNIT_DOMAINS</title>
<g id="a_node3"><a xlink:href="../../tables/SUBUNIT_DOMAINS.html" xlink:title="SUBUNIT_DOMAINS" target="_top">
<polygon fill="#ffffff" stroke="transparent" points="515,-408.2 515,-469.2 663,-469.2 663,-408.2 515,-408.2"/>
<polygon fill="#f5f5f5" stroke="transparent" points="515,-445.7 515,-468.7 663,-468.7 663,-445.7 515,-445.7"/>
<polygon fill="none" stroke="#000000" points="515,-445.7 515,-468.7 663,-468.7 663,-445.7 515,-445.7"/>
<text text-anchor="start" x="519.6423" y="-454.8" font-family="Helvetica,sans-Serif" font-weight="bold" font-size="11.00" fill="#000000">SUBUNIT_DOMAINS</text>
<text text-anchor="start" x="628.5219" y="-453.8" font-family="Helvetica,sans-Serif" font-size="11.00" fill="#000000">[table]</text>
<polygon fill="none" stroke="#000000" points="515,-426.7 515,-445.7 663,-445.7 663,-426.7 515,-426.7"/>
<text text-anchor="start" x="518" y="-432.8" font-family="Helvetica,sans-Serif" font-size="11.00" fill="#000000">...</text>
<polygon fill="#ffffff" stroke="transparent" points="515,-407.7 515,-426.7 570,-426.7 570,-407.7 515,-407.7"/>
<polygon fill="none" stroke="#000000" points="515,-407.7 515,-426.7 570,-426.7 570,-407.7 515,-407.7"/>
<text text-anchor="start" x="518" y="-413.8" font-family="Helvetica,sans-Serif" font-size="11.00" fill="#000000">&lt; 1</text>
<polygon fill="#ffffff" stroke="transparent" points="570,-407.7 570,-426.7 625,-426.7 625,-407.7 570,-407.7"/>
<polygon fill="none" stroke="#000000" points="570,-407.7 570,-426.7 625,-426.7 625,-407.7 570,-407.7"/>
<text text-anchor="start" x="589.6105" y="-413.8" font-family="Helvetica,sans-Serif" font-size="11.00" fill="#000000">0 rows</text>
<polygon fill="#ffffff" stroke="transparent" points="625,-407.7 625,-426.7 663,-426.7 663,-407.7 625,-407.7"/>
<polygon fill="none" stroke="#000000" points="625,-407.7 625,-426.7 663,-426.7 663,-407.7 625,-407.7"/>
<text text-anchor="start" x="644.4053" y="-413.8" font-family="Helvetica,sans-Serif" font-size="11.00" fill="#000000">1 &gt;</text>
</a>
</g>
</g>
<!-- SUBUNIT_DOMAINS&#45;&gt;SUBUNITS -->
<g id="edge2" class="edge">
<title>SUBUNIT_DOMAINS:w&#45;&gt;SUBUNITS:e</title>
<path fill="none" stroke="#000000" d="M500.3078,-435.7C450.0685,-435.7 432.293,-435.7 375.5,-435.7"/>
<polygon fill="#000000" stroke="#000000" points="507,-435.7001 515,-439.3 511,-435.7 515,-435.7 515,-435.7 515,-435.7 511,-435.7 515,-432.1 507,-435.7001 507,-435.7001"/>
<ellipse fill="none" stroke="#000000" cx="503.8" cy="-435.7001" rx="3.2" ry="3.2"/>
</g>
<!-- SUBUNIT_VARIANTS -->
<g id="node4" class="node">
<title>SUBUNIT_VARIANTS</title>
<g id="a_node4"><a xlink:href="../../tables/SUBUNIT_VARIANTS.html" xlink:title="SUBUNIT_VARIANTS" target="_top">
<polygon fill="#ffffff" stroke="transparent" points="424,-120.7 424,-386.7 754,-386.7 754,-120.7 424,-120.7"/>
<polygon fill="#f5f5f5" stroke="transparent" points="426,-361.7 426,-384.7 752,-384.7 752,-361.7 426,-361.7"/>
<polygon fill="none" stroke="#000000" points="426,-361.7 426,-384.7 752,-384.7 752,-361.7 426,-361.7"/>
<text text-anchor="start" x="431" y="-370.8" font-family="Helvetica,sans-Serif" font-weight="bold" font-size="11.00" fill="#000000">SUBUNIT_VARIANTS</text>
<text text-anchor="start" x="717.0437" y="-369.8" font-family="Helvetica,sans-Serif" font-size="11.00" fill="#000000">[table]</text>
<polygon fill="none" stroke="#000000" points="426,-339.7 426,-361.7 581,-361.7 581,-339.7 426,-339.7"/>
<image xlink:href="../../images/primaryKeys.png" width="11px" height="12px" preserveAspectRatio="xMinYMin meet" x="431" y="-356.7"/>
<text text-anchor="start" x="446" y="-346.8" font-family="Helvetica,sans-Serif" font-size="11.00" fill="#000000">ID</text>
<polygon fill="none" stroke="#000000" points="581,-339.7 581,-361.7 752,-361.7 752,-339.7 581,-339.7"/>
<text text-anchor="start" x="584" y="-347.4" font-family="Helvetica,sans-Serif" font-size="11.00" fill="#000000">number[19]</text>
<polygon fill="none" stroke="#000000" points="426,-317.7 426,-339.7 581,-339.7 581,-317.7 426,-317.7"/>
<text text-anchor="start" x="446" y="-324.8" font-family="Helvetica,sans-Serif" font-size="11.00" fill="#000000">CREATED_AT</text>
<polygon fill="none" stroke="#000000" points="581,-317.7 581,-339.7 752,-339.7 752,-317.7 581,-317.7"/>
<text text-anchor="start" x="583.9896" y="-325.4" font-family="Helvetica,sans-Serif" font-size="11.00" fill="#000000">timestamp(6) with time zone[13,6]</text>
<polygon fill="none" stroke="#000000" points="426,-295.7 426,-317.7 581,-317.7 581,-295.7 426,-295.7"/>
<text text-anchor="start" x="446" y="-302.8" font-family="Helvetica,sans-Serif" font-size="11.00" fill="#000000">CREATED_BY</text>
<polygon fill="none" stroke="#000000" points="581,-295.7 581,-317.7 752,-317.7 752,-295.7 581,-295.7"/>
<text text-anchor="start" x="584" y="-303.4" font-family="Helvetica,sans-Serif" font-size="11.00" fill="#000000">number[19]</text>
<polygon fill="none" stroke="#000000" points="426,-273.7 426,-295.7 581,-295.7 581,-273.7 426,-273.7"/>
<text text-anchor="start" x="446" y="-280.8" font-family="Helvetica,sans-Serif" font-size="11.00" fill="#000000">UPDATED_AT</text>
<polygon fill="none" stroke="#000000" points="581,-273.7 581,-295.7 752,-295.7 752,-273.7 581,-273.7"/>
<text text-anchor="start" x="583.9896" y="-281.4" font-family="Helvetica,sans-Serif" font-size="11.00" fill="#000000">timestamp(6) with time zone[13,6]</text>
<polygon fill="none" stroke="#000000" points="426,-251.7 426,-273.7 581,-273.7 581,-251.7 426,-251.7"/>
<text text-anchor="start" x="446" y="-258.8" font-family="Helvetica,sans-Serif" font-size="11.00" fill="#000000">UPDATED_BY</text>
<polygon fill="none" stroke="#000000" points="581,-251.7 581,-273.7 752,-273.7 752,-251.7 581,-251.7"/>
<text text-anchor="start" x="584" y="-259.4" font-family="Helvetica,sans-Serif" font-size="11.00" fill="#000000">number[19]</text>
<polygon fill="none" stroke="#000000" points="426,-229.7 426,-251.7 581,-251.7 581,-229.7 426,-229.7"/>
<text text-anchor="start" x="446" y="-236.8" font-family="Helvetica,sans-Serif" font-size="11.00" fill="#000000">COLOR</text>
<polygon fill="none" stroke="#000000" points="581,-229.7 581,-251.7 752,-251.7 752,-229.7 581,-229.7"/>
<text text-anchor="start" x="584" y="-237.4" font-family="Helvetica,sans-Serif" font-size="11.00" fill="#000000">varchar2[255]</text>
<polygon fill="none" stroke="#000000" points="426,-207.7 426,-229.7 581,-229.7 581,-207.7 426,-207.7"/>
<text text-anchor="start" x="446" y="-214.8" font-family="Helvetica,sans-Serif" font-size="11.00" fill="#000000">END_RANGE</text>
<polygon fill="none" stroke="#000000" points="581,-207.7 581,-229.7 752,-229.7 752,-207.7 581,-207.7"/>
<text text-anchor="start" x="584" y="-215.4" font-family="Helvetica,sans-Serif" font-size="11.00" fill="#000000">number[19]</text>
<polygon fill="none" stroke="#000000" points="426,-185.7 426,-207.7 581,-207.7 581,-185.7 426,-185.7"/>
<image xlink:href="../../images/foreignKeys.png" width="11px" height="12px" preserveAspectRatio="xMinYMin meet" x="431" y="-202.7"/>
<text text-anchor="start" x="446" y="-192.8" font-family="Helvetica,sans-Serif" font-size="11.00" fill="#000000">SUBUNIT_ID</text>
<polygon fill="none" stroke="#000000" points="581,-185.7 581,-207.7 752,-207.7 752,-185.7 581,-185.7"/>
<text text-anchor="start" x="584" y="-193.4" font-family="Helvetica,sans-Serif" font-size="11.00" fill="#000000">number[19]</text>
<polygon fill="none" stroke="#000000" points="426,-163.7 426,-185.7 581,-185.7 581,-163.7 426,-163.7"/>
<text text-anchor="start" x="446" y="-170.8" font-family="Helvetica,sans-Serif" font-size="11.00" fill="#000000">START_RANGE</text>
<polygon fill="none" stroke="#000000" points="581,-163.7 581,-185.7 752,-185.7 752,-163.7 581,-163.7"/>
<text text-anchor="start" x="584" y="-171.4" font-family="Helvetica,sans-Serif" font-size="11.00" fill="#000000">number[19]</text>
<polygon fill="none" stroke="#000000" points="426,-141.7 426,-163.7 581,-163.7 581,-141.7 426,-141.7"/>
<text text-anchor="start" x="446" y="-148.8" font-family="Helvetica,sans-Serif" font-size="11.00" fill="#000000">TITLE</text>
<polygon fill="none" stroke="#000000" points="581,-141.7 581,-163.7 752,-163.7 752,-141.7 581,-141.7"/>
<text text-anchor="start" x="584" y="-149.4" font-family="Helvetica,sans-Serif" font-size="11.00" fill="#000000">varchar2[255]</text>
<polygon fill="#ffffff" stroke="transparent" points="426,-122.7 426,-141.7 495,-141.7 495,-122.7 426,-122.7"/>
<polygon fill="none" stroke="#000000" points="426,-122.7 426,-141.7 495,-141.7 495,-122.7 426,-122.7"/>
<text text-anchor="start" x="429" y="-128.8" font-family="Helvetica,sans-Serif" font-size="11.00" fill="#000000">&lt; 1</text>
<polygon fill="#ffffff" stroke="transparent" points="495,-122.7 495,-141.7 581,-141.7 581,-122.7 495,-122.7"/>
<polygon fill="none" stroke="#000000" points="495,-122.7 495,-141.7 581,-141.7 581,-122.7 495,-122.7"/>
<text text-anchor="start" x="545.6105" y="-128.8" font-family="Helvetica,sans-Serif" font-size="11.00" fill="#000000">0 rows</text>
<polygon fill="#ffffff" stroke="transparent" points="581,-122.7 581,-141.7 752,-141.7 752,-122.7 581,-122.7"/>
<polygon fill="none" stroke="#000000" points="581,-122.7 581,-141.7 752,-141.7 752,-122.7 581,-122.7"/>
<text text-anchor="start" x="733.4053" y="-128.8" font-family="Helvetica,sans-Serif" font-size="11.00" fill="#000000">1 &gt;</text>
<polygon fill="none" stroke="#000000" stroke-width="2" points="425,-121.7 425,-385.7 753,-385.7 753,-121.7 425,-121.7"/>
</a>
</g>
</g>
<!-- SUBUNIT_VARIANTS&#45;&gt;SUBUNITS -->
<g id="edge3" class="edge">
<title>SUBUNIT_VARIANTS:w&#45;&gt;SUBUNITS:e</title>
<path fill="none" stroke="#000000" d="M411.5174,-198.4864C333.6467,-220.3571 478.5544,-435.7 375.5,-435.7"/>
<polygon fill="#000000" stroke="#000000" points="418.0602,-197.6794 426.4407,-200.2729 422.0301,-197.1897 426,-196.7 426,-196.7 426,-196.7 422.0301,-197.1897 425.5593,-193.1271 418.0602,-197.6794 418.0602,-197.6794"/>
<ellipse fill="none" stroke="#000000" cx="414.8842" cy="-198.0711" rx="3.2" ry="3.2"/>
</g>
<!-- SUBUNIT_VARIANTS_REFERENCES -->
<g id="node5" class="node">
<title>SUBUNIT_VARIANTS_REFERENCES</title>
<g id="a_node5"><a xlink:href="../../tables/SUBUNIT_VARIANTS_REFERENCES.html" xlink:title="SUBUNIT_VARIANTS_REFERENCES" target="_top">
<polygon fill="#ffffff" stroke="transparent" points="803,-148.2 803,-275.2 1051,-275.2 1051,-148.2 803,-148.2"/>
<polygon fill="#f5f5f5" stroke="transparent" points="803,-251.7 803,-274.7 1051,-274.7 1051,-251.7 803,-251.7"/>
<polygon fill="none" stroke="#000000" points="803,-251.7 803,-274.7 1051,-274.7 1051,-251.7 803,-251.7"/>
<text text-anchor="start" x="808" y="-260.8" font-family="Helvetica,sans-Serif" font-weight="bold" font-size="11.00" fill="#000000">SUBUNIT_VARIANTS_REFERENCES</text>
<text text-anchor="start" x="1016.0437" y="-259.8" font-family="Helvetica,sans-Serif" font-size="11.00" fill="#000000">[table]</text>
<polygon fill="none" stroke="#000000" points="803,-229.7 803,-251.7 1051,-251.7 1051,-229.7 803,-229.7"/>
<image xlink:href="../../images/primaryKeys.png" width="11px" height="12px" preserveAspectRatio="xMinYMin meet" x="808" y="-246.7"/>
<text text-anchor="start" x="823" y="-236.8" font-family="Helvetica,sans-Serif" font-size="11.00" fill="#000000">ID</text>
<polygon fill="none" stroke="#000000" points="803,-207.7 803,-229.7 1051,-229.7 1051,-207.7 803,-207.7"/>
<image xlink:href="../../images/foreignKeys.png" width="11px" height="12px" preserveAspectRatio="xMinYMin meet" x="808" y="-224.7"/>
<text text-anchor="start" x="823" y="-214.8" font-family="Helvetica,sans-Serif" font-size="11.00" fill="#000000">SUBUNIT_VARIANT_ID</text>
<polygon fill="none" stroke="#000000" points="803,-185.7 803,-207.7 1051,-207.7 1051,-185.7 803,-185.7"/>
<image xlink:href="../../images/foreignKeys.png" width="11px" height="12px" preserveAspectRatio="xMinYMin meet" x="808" y="-202.7"/>
<text text-anchor="start" x="823" y="-192.8" font-family="Helvetica,sans-Serif" font-size="11.00" fill="#000000">REFERENCE_ID</text>
<polygon fill="none" stroke="#000000" points="803,-166.7 803,-185.7 1051,-185.7 1051,-166.7 803,-166.7"/>
<text text-anchor="start" x="806" y="-172.8" font-family="Helvetica,sans-Serif" font-size="11.00" fill="#000000">...</text>
<polygon fill="#ffffff" stroke="transparent" points="803,-147.7 803,-166.7 912,-166.7 912,-147.7 803,-147.7"/>
<polygon fill="none" stroke="#000000" points="803,-147.7 803,-166.7 912,-166.7 912,-147.7 803,-147.7"/>
<text text-anchor="start" x="806" y="-153.8" font-family="Helvetica,sans-Serif" font-size="11.00" fill="#000000">&lt; 2</text>
<polygon fill="#ffffff" stroke="transparent" points="912,-147.7 912,-166.7 994,-166.7 994,-147.7 912,-147.7"/>
<polygon fill="none" stroke="#000000" points="912,-147.7 912,-166.7 994,-166.7 994,-147.7 912,-147.7"/>
<text text-anchor="start" x="958.6105" y="-153.8" font-family="Helvetica,sans-Serif" font-size="11.00" fill="#000000">0 rows</text>
<polygon fill="#ffffff" stroke="transparent" points="994,-147.7 994,-166.7 1051,-166.7 1051,-147.7 994,-147.7"/>
<polygon fill="none" stroke="#000000" points="994,-147.7 994,-166.7 1051,-166.7 1051,-147.7 994,-147.7"/>
<text text-anchor="start" x="1041.8862" y="-153.8" font-family="Helvetica,sans-Serif" font-size="11.00" fill="#000000"> &#160;</text>
</a>
</g>
</g>
<!-- SUBUNIT_VARIANTS_REFERENCES&#45;&gt;SUBUNIT_VARIANTS -->
<g id="edge5" class="edge">
<title>SUBUNIT_VARIANTS_REFERENCES:w&#45;&gt;SUBUNIT_VARIANTS:e</title>
<path fill="none" stroke="#000000" d="M788.7146,-221.9629C752.9192,-242.2898 808.997,-350.7 752,-350.7"/>
<polygon fill="#000000" stroke="#000000" points="795.2009,-220.4815 803.8017,-222.2096 799.1004,-219.5907 803,-218.7 803,-218.7 803,-218.7 799.1004,-219.5907 802.1983,-215.1904 795.2009,-220.4815 795.2009,-220.4815"/>
<ellipse fill="none" stroke="#000000" cx="792.0812" cy="-221.194" rx="3.2" ry="3.2"/>
</g>
<!-- REFERENCES -->
<g id="node6" class="node">
<title>REFERENCES</title>
<g id="a_node6"><a xlink:href="../../tables/REFERENCES.html" xlink:title="REFERENCES" target="_top">
<polygon fill="#ffffff" stroke="transparent" points="530,-38.2 530,-99.2 648,-99.2 648,-38.2 530,-38.2"/>
<polygon fill="#f5f5f5" stroke="transparent" points="530,-75.7 530,-98.7 648,-98.7 648,-75.7 530,-75.7"/>
<polygon fill="none" stroke="#000000" points="530,-75.7 530,-98.7 648,-98.7 648,-75.7 530,-75.7"/>
<text text-anchor="start" x="534.9185" y="-84.8" font-family="Helvetica,sans-Serif" font-weight="bold" font-size="11.00" fill="#000000">REFERENCES</text>
<text text-anchor="start" x="613.5219" y="-83.8" font-family="Helvetica,sans-Serif" font-size="11.00" fill="#000000">[table]</text>
<polygon fill="none" stroke="#000000" points="530,-56.7 530,-75.7 648,-75.7 648,-56.7 530,-56.7"/>
<text text-anchor="start" x="533" y="-62.8" font-family="Helvetica,sans-Serif" font-size="11.00" fill="#000000">...</text>
<polygon fill="#ffffff" stroke="transparent" points="530,-37.7 530,-56.7 556,-56.7 556,-37.7 530,-37.7"/>
<polygon fill="none" stroke="#000000" points="530,-37.7 530,-56.7 556,-56.7 556,-37.7 530,-37.7"/>
<text text-anchor="start" x="533" y="-43.8" font-family="Helvetica,sans-Serif" font-size="11.00" fill="#000000">&lt; 1</text>
<polygon fill="#ffffff" stroke="transparent" points="556,-37.7 556,-56.7 618,-56.7 618,-37.7 556,-37.7"/>
<polygon fill="none" stroke="#000000" points="556,-37.7 556,-56.7 618,-56.7 618,-37.7 556,-37.7"/>
<text text-anchor="start" x="561.2089" y="-43.8" font-family="Helvetica,sans-Serif" font-size="11.00" fill="#000000">2,900 rows</text>
<polygon fill="#ffffff" stroke="transparent" points="618,-37.7 618,-56.7 648,-56.7 648,-37.7 618,-37.7"/>
<polygon fill="none" stroke="#000000" points="618,-37.7 618,-56.7 648,-56.7 648,-37.7 618,-37.7"/>
<text text-anchor="start" x="623.2904" y="-43.8" font-family="Helvetica,sans-Serif" font-size="11.00" fill="#000000">20 &gt;</text>
</a>
</g>
</g>
<!-- SUBUNIT_VARIANTS_REFERENCES&#45;&gt;REFERENCES -->
<g id="edge4" class="edge">
<title>SUBUNIT_VARIANTS_REFERENCES:w&#45;&gt;REFERENCES:e</title>
<path fill="none" stroke="#000000" d="M788.9014,-193.3788C768.6714,-180.7817 788.4812,-135.4165 762,-110.7 722.1791,-73.5327 702.4712,-65.7 648,-65.7"/>
<polygon fill="#000000" stroke="#000000" points="795.2131,-194.8656 802.1745,-200.2041 799.1066,-195.7828 803,-196.7 803,-196.7 803,-196.7 799.1066,-195.7828 803.8255,-193.1959 795.2131,-194.8656 795.2131,-194.8656"/>
<ellipse fill="none" stroke="#000000" cx="792.0984" cy="-194.1318" rx="3.2" ry="3.2"/>
</g>
</g>
</svg>
