<?xml version="1.0" encoding="UTF-8" standalone="no"?>
<!DOCTYPE svg PUBLIC "-//W3C//DTD SVG 1.1//EN"
 "http://www.w3.org/Graphics/SVG/1.1/DTD/svg11.dtd">
<!-- Generated by graphviz version 2.40.1 (20161225.0304)
 -->
<!-- Title: oneDegreeRelationshipsDiagram Pages: 1 -->
<svg width="917pt" height="509pt"
 viewBox="0.00 0.00 917.00 509.20" xmlns="http://www.w3.org/2000/svg" xmlns:xlink="http://www.w3.org/1999/xlink">
<g id="graph0" class="graph" transform="scale(1 1) rotate(0) translate(4 505.2)">
<title>oneDegreeRelationshipsDiagram</title>
<polygon fill="#ffffff" stroke="transparent" points="-4,4 -4,-505.2 913,-505.2 913,4 -4,4"/>
<text text-anchor="middle" x="72.4936" y="-7.3" font-family="Helvetica,sans-Serif" font-size="11.00" fill="#000000">Generated by SchemaSpy</text>
<!-- SUBUNIT_ANNOTATIONS -->
<g id="node1" class="node">
<title>SUBUNIT_ANNOTATIONS</title>
<g id="a_node1"><a xlink:href="../../tables/SUBUNIT_ANNOTATIONS.html" xlink:title="SUBUNIT_ANNOTATIONS" target="_top">
<polygon fill="#ffffff" stroke="transparent" points="716,-392.2 716,-497.2 901,-497.2 901,-392.2 716,-392.2"/>
<polygon fill="#f5f5f5" stroke="transparent" points="716.5,-473.7 716.5,-496.7 901.5,-496.7 901.5,-473.7 716.5,-473.7"/>
<polygon fill="none" stroke="#000000" points="716.5,-473.7 716.5,-496.7 901.5,-496.7 901.5,-473.7 716.5,-473.7"/>
<text text-anchor="start" x="721.5" y="-482.8" font-family="Helvetica,sans-Serif" font-weight="bold" font-size="11.00" fill="#000000">SUBUNIT_ANNOTATIONS</text>
<text text-anchor="start" x="866.5437" y="-481.8" font-family="Helvetica,sans-Serif" font-size="11.00" fill="#000000">[table]</text>
<polygon fill="none" stroke="#000000" points="716.5,-451.7 716.5,-473.7 901.5,-473.7 901.5,-451.7 716.5,-451.7"/>
<image xlink:href="../../images/primaryKeys.png" width="11px" height="12px" preserveAspectRatio="xMinYMin meet" x="721.5" y="-468.7"/>
<text text-anchor="start" x="736.5" y="-458.8" font-family="Helvetica,sans-Serif" font-size="11.00" fill="#000000">ID</text>
<polygon fill="none" stroke="#000000" points="716.5,-429.7 716.5,-451.7 901.5,-451.7 901.5,-429.7 716.5,-429.7"/>
<image xlink:href="../../images/foreignKeys.png" width="11px" height="12px" preserveAspectRatio="xMinYMin meet" x="721.5" y="-446.7"/>
<text text-anchor="start" x="736.5" y="-436.8" font-family="Helvetica,sans-Serif" font-size="11.00" fill="#000000">SUBUNIT_ID</text>
<polygon fill="none" stroke="#000000" points="716.5,-410.7 716.5,-429.7 901.5,-429.7 901.5,-410.7 716.5,-410.7"/>
<text text-anchor="start" x="719.5" y="-416.8" font-family="Helvetica,sans-Serif" font-size="11.00" fill="#000000">...</text>
<polygon fill="#ffffff" stroke="transparent" points="716.5,-391.7 716.5,-410.7 789.5,-410.7 789.5,-391.7 716.5,-391.7"/>
<polygon fill="none" stroke="#000000" points="716.5,-391.7 716.5,-410.7 789.5,-410.7 789.5,-391.7 716.5,-391.7"/>
<text text-anchor="start" x="719.5" y="-397.8" font-family="Helvetica,sans-Serif" font-size="11.00" fill="#000000">&lt; 1</text>
<polygon fill="#ffffff" stroke="transparent" points="789.5,-391.7 789.5,-410.7 853.5,-410.7 853.5,-391.7 789.5,-391.7"/>
<polygon fill="none" stroke="#000000" points="789.5,-391.7 789.5,-410.7 853.5,-410.7 853.5,-391.7 789.5,-391.7"/>
<text text-anchor="start" x="818.1105" y="-397.8" font-family="Helvetica,sans-Serif" font-size="11.00" fill="#000000">0 rows</text>
<polygon fill="#ffffff" stroke="transparent" points="853.5,-391.7 853.5,-410.7 901.5,-410.7 901.5,-391.7 853.5,-391.7"/>
<polygon fill="none" stroke="#000000" points="853.5,-391.7 853.5,-410.7 901.5,-410.7 901.5,-391.7 853.5,-391.7"/>
<text text-anchor="start" x="882.9053" y="-397.8" font-family="Helvetica,sans-Serif" font-size="11.00" fill="#000000">1 &gt;</text>
</a>
</g>
</g>
<!-- SUBUNITS -->
<g id="node2" class="node">
<title>SUBUNITS</title>
<g id="a_node2"><a xlink:href="../../tables/SUBUNITS.html" xlink:title="SUBUNITS" target="_top">
<polygon fill="#ffffff" stroke="transparent" points="307,-106.7 307,-350.7 667,-350.7 667,-106.7 307,-106.7"/>
<polygon fill="#f5f5f5" stroke="transparent" points="309,-325.7 309,-348.7 665,-348.7 665,-325.7 309,-325.7"/>
<polygon fill="none" stroke="#000000" points="309,-325.7 309,-348.7 665,-348.7 665,-325.7 309,-325.7"/>
<text text-anchor="start" x="314" y="-334.8" font-family="Helvetica,sans-Serif" font-weight="bold" font-size="11.00" fill="#000000">SUBUNITS</text>
<text text-anchor="start" x="630.0437" y="-333.8" font-family="Helvetica,sans-Serif" font-size="11.00" fill="#000000">[table]</text>
<polygon fill="none" stroke="#000000" points="309,-303.7 309,-325.7 494,-325.7 494,-303.7 309,-303.7"/>
<image xlink:href="../../images/primaryKeys.png" width="11px" height="12px" preserveAspectRatio="xMinYMin meet" x="314" y="-320.7"/>
<text text-anchor="start" x="329" y="-310.8" font-family="Helvetica,sans-Serif" font-size="11.00" fill="#000000">ID</text>
<polygon fill="none" stroke="#000000" points="494,-303.7 494,-325.7 665,-325.7 665,-303.7 494,-303.7"/>
<text text-anchor="start" x="497" y="-311.4" font-family="Helvetica,sans-Serif" font-size="11.00" fill="#000000">number[19]</text>
<polygon fill="none" stroke="#000000" points="309,-281.7 309,-303.7 494,-303.7 494,-281.7 309,-281.7"/>
<text text-anchor="start" x="329" y="-288.8" font-family="Helvetica,sans-Serif" font-size="11.00" fill="#000000">CREATED_AT</text>
<polygon fill="none" stroke="#000000" points="494,-281.7 494,-303.7 665,-303.7 665,-281.7 494,-281.7"/>
<text text-anchor="start" x="496.9896" y="-289.4" font-family="Helvetica,sans-Serif" font-size="11.00" fill="#000000">timestamp(6) with time zone[13,6]</text>
<polygon fill="none" stroke="#000000" points="309,-259.7 309,-281.7 494,-281.7 494,-259.7 309,-259.7"/>
<text text-anchor="start" x="329" y="-266.8" font-family="Helvetica,sans-Serif" font-size="11.00" fill="#000000">CREATED_BY</text>
<polygon fill="none" stroke="#000000" points="494,-259.7 494,-281.7 665,-281.7 665,-259.7 494,-259.7"/>
<text text-anchor="start" x="497" y="-267.4" font-family="Helvetica,sans-Serif" font-size="11.00" fill="#000000">number[19]</text>
<polygon fill="none" stroke="#000000" points="309,-237.7 309,-259.7 494,-259.7 494,-237.7 309,-237.7"/>
<text text-anchor="start" x="329" y="-244.8" font-family="Helvetica,sans-Serif" font-size="11.00" fill="#000000">UPDATED_AT</text>
<polygon fill="none" stroke="#000000" points="494,-237.7 494,-259.7 665,-259.7 665,-237.7 494,-237.7"/>
<text text-anchor="start" x="496.9896" y="-245.4" font-family="Helvetica,sans-Serif" font-size="11.00" fill="#000000">timestamp(6) with time zone[13,6]</text>
<polygon fill="none" stroke="#000000" points="309,-215.7 309,-237.7 494,-237.7 494,-215.7 309,-215.7"/>
<text text-anchor="start" x="329" y="-222.8" font-family="Helvetica,sans-Serif" font-size="11.00" fill="#000000">UPDATED_BY</text>
<polygon fill="none" stroke="#000000" points="494,-215.7 494,-237.7 665,-237.7 665,-215.7 494,-215.7"/>
<text text-anchor="start" x="497" y="-223.4" font-family="Helvetica,sans-Serif" font-size="11.00" fill="#000000">number[19]</text>
<polygon fill="none" stroke="#000000" points="309,-193.7 309,-215.7 494,-215.7 494,-193.7 309,-193.7"/>
<text text-anchor="start" x="329" y="-200.8" font-family="Helvetica,sans-Serif" font-size="11.00" fill="#000000">SUBUNIT_SEQUENCE</text>
<polygon fill="none" stroke="#000000" points="494,-193.7 494,-215.7 665,-215.7 665,-193.7 494,-193.7"/>
<text text-anchor="start" x="497" y="-201.4" font-family="Helvetica,sans-Serif" font-size="11.00" fill="#000000">clob[4000]</text>
<polygon fill="none" stroke="#000000" points="309,-171.7 309,-193.7 494,-193.7 494,-171.7 309,-171.7"/>
<image xlink:href="../../images/foreignKeys.png" width="11px" height="12px" preserveAspectRatio="xMinYMin meet" x="314" y="-188.7"/>
<text text-anchor="start" x="329" y="-178.8" font-family="Helvetica,sans-Serif" font-size="11.00" fill="#000000">TARGET_ID</text>
<polygon fill="none" stroke="#000000" points="494,-171.7 494,-193.7 665,-193.7 665,-171.7 494,-171.7"/>
<text text-anchor="start" x="497" y="-179.4" font-family="Helvetica,sans-Serif" font-size="11.00" fill="#000000">number[19]</text>
<polygon fill="none" stroke="#000000" points="309,-149.7 309,-171.7 494,-171.7 494,-149.7 309,-149.7"/>
<image xlink:href="../../images/foreignKeys.png" width="11px" height="12px" preserveAspectRatio="xMinYMin meet" x="314" y="-166.7"/>
<text text-anchor="start" x="329" y="-156.8" font-family="Helvetica,sans-Serif" font-size="11.00" fill="#000000">SUBUNIT_TYPE_ID</text>
<polygon fill="none" stroke="#000000" points="494,-149.7 494,-171.7 665,-171.7 665,-149.7 494,-149.7"/>
<text text-anchor="start" x="497" y="-157.4" font-family="Helvetica,sans-Serif" font-size="11.00" fill="#000000">number[19]</text>
<polygon fill="none" stroke="#000000" points="309,-127.7 309,-149.7 494,-149.7 494,-127.7 309,-127.7"/>
<text text-anchor="start" x="329" y="-134.8" font-family="Helvetica,sans-Serif" font-size="11.00" fill="#000000">UNIPROT_ACCESSION_ID</text>
<polygon fill="none" stroke="#000000" points="494,-127.7 494,-149.7 665,-149.7 665,-127.7 494,-127.7"/>
<text text-anchor="start" x="497" y="-135.4" font-family="Helvetica,sans-Serif" font-size="11.00" fill="#000000">varchar2[255]</text>
<polygon fill="#ffffff" stroke="transparent" points="309,-108.7 309,-127.7 393,-127.7 393,-108.7 309,-108.7"/>
<polygon fill="none" stroke="#000000" points="309,-108.7 309,-127.7 393,-127.7 393,-108.7 309,-108.7"/>
<text text-anchor="start" x="312" y="-114.8" font-family="Helvetica,sans-Serif" font-size="11.00" fill="#000000">&lt; 2</text>
<polygon fill="#ffffff" stroke="transparent" points="393,-108.7 393,-127.7 494,-127.7 494,-108.7 393,-108.7"/>
<polygon fill="none" stroke="#000000" points="393,-108.7 393,-127.7 494,-127.7 494,-108.7 393,-108.7"/>
<text text-anchor="start" x="458.6105" y="-114.8" font-family="Helvetica,sans-Serif" font-size="11.00" fill="#000000">0 rows</text>
<polygon fill="#ffffff" stroke="transparent" points="494,-108.7 494,-127.7 665,-127.7 665,-108.7 494,-108.7"/>
<polygon fill="none" stroke="#000000" points="494,-108.7 494,-127.7 665,-127.7 665,-108.7 494,-108.7"/>
<text text-anchor="start" x="646.4053" y="-114.8" font-family="Helvetica,sans-Serif" font-size="11.00" fill="#000000">3 &gt;</text>
<polygon fill="none" stroke="#000000" stroke-width="2" points="308,-107.7 308,-349.7 666,-349.7 666,-107.7 308,-107.7"/>
</a>
</g>
</g>
<!-- SUBUNIT_ANNOTATIONS&#45;&gt;SUBUNITS -->
<g id="edge1" class="edge">
<title>SUBUNIT_ANNOTATIONS:w&#45;&gt;SUBUNITS:e</title>
<path fill="none" stroke="#000000" d="M702.2532,-437.3298C668.3363,-417.2923 719.5892,-314.7 665,-314.7"/>
<polygon fill="#000000" stroke="#000000" points="708.7149,-438.8583 715.6712,-444.2033 712.6074,-439.7792 716.5,-440.7 716.5,-440.7 716.5,-440.7 712.6074,-439.7792 717.3288,-437.1967 708.7149,-438.8583 708.7149,-438.8583"/>
<ellipse fill="none" stroke="#000000" cx="705.6008" cy="-438.1217" rx="3.2" ry="3.2"/>
</g>
<!-- SUBUNIT_TYPES -->
<g id="node5" class="node">
<title>SUBUNIT_TYPES</title>
<g id="a_node5"><a xlink:href="../../tables/SUBUNIT_TYPES.html" xlink:title="SUBUNIT_TYPES" target="_top">
<polygon fill="#ffffff" stroke="transparent" points="66.5,-38.2 66.5,-121.2 199.5,-121.2 199.5,-38.2 66.5,-38.2"/>
<polygon fill="#f5f5f5" stroke="transparent" points="67,-97.7 67,-120.7 200,-120.7 200,-97.7 67,-97.7"/>
<polygon fill="none" stroke="#000000" points="67,-97.7 67,-120.7 200,-120.7 200,-97.7 67,-97.7"/>
<text text-anchor="start" x="71.7752" y="-106.8" font-family="Helvetica,sans-Serif" font-weight="bold" font-size="11.00" fill="#000000">SUBUNIT_TYPES</text>
<text text-anchor="start" x="165.5219" y="-105.8" font-family="Helvetica,sans-Serif" font-size="11.00" fill="#000000">[table]</text>
<polygon fill="none" stroke="#000000" points="67,-75.7 67,-97.7 200,-97.7 200,-75.7 67,-75.7"/>
<image xlink:href="../../images/primaryKeys.png" width="11px" height="12px" preserveAspectRatio="xMinYMin meet" x="72" y="-92.7"/>
<text text-anchor="start" x="89" y="-82.8" font-family="Helvetica,sans-Serif" font-size="11.00" fill="#000000">ID</text>
<polygon fill="none" stroke="#000000" points="67,-56.7 67,-75.7 200,-75.7 200,-56.7 67,-56.7"/>
<text text-anchor="start" x="70" y="-62.8" font-family="Helvetica,sans-Serif" font-size="11.00" fill="#000000">...</text>
<polygon fill="#ffffff" stroke="transparent" points="67,-37.7 67,-56.7 110,-56.7 110,-37.7 67,-37.7"/>
<polygon fill="none" stroke="#000000" points="67,-37.7 67,-56.7 110,-56.7 110,-37.7 67,-37.7"/>
<text text-anchor="start" x="70" y="-43.8" font-family="Helvetica,sans-Serif" font-size="11.00" fill="#000000"> &#160;</text>
<polygon fill="#ffffff" stroke="transparent" points="110,-37.7 110,-56.7 163,-56.7 163,-37.7 110,-37.7"/>
<polygon fill="none" stroke="#000000" points="110,-37.7 110,-56.7 163,-56.7 163,-37.7 110,-37.7"/>
<text text-anchor="start" x="127.6105" y="-43.8" font-family="Helvetica,sans-Serif" font-size="11.00" fill="#000000">0 rows</text>
<polygon fill="#ffffff" stroke="transparent" points="163,-37.7 163,-56.7 200,-56.7 200,-37.7 163,-37.7"/>
<polygon fill="none" stroke="#000000" points="163,-37.7 163,-56.7 200,-56.7 200,-37.7 163,-37.7"/>
<text text-anchor="start" x="181.4053" y="-43.8" font-family="Helvetica,sans-Serif" font-size="11.00" fill="#000000">1 &gt;</text>
</a>
</g>
</g>
<!-- SUBUNITS&#45;&gt;SUBUNIT_TYPES -->
<g id="edge4" class="edge">
<title>SUBUNITS:w&#45;&gt;SUBUNIT_TYPES:e</title>
<path fill="none" stroke="#000000" d="M296.8075,-152.7807C268.6465,-133.6907 201.4581,-86.7 200,-86.7"/>
<polygon fill="#000000" stroke="#000000" points="302.291,-156.3423 307.039,-163.7191 305.6455,-158.5212 309,-160.7 309,-160.7 309,-160.7 305.6455,-158.5212 310.961,-157.6809 302.291,-156.3423 302.291,-156.3423"/>
<ellipse fill="none" stroke="#000000" cx="299.6074" cy="-154.5992" rx="3.2" ry="3.2"/>
</g>
<!-- TARGETS -->
<g id="node6" class="node">
<title>TARGETS</title>
<g id="a_node6"><a xlink:href="../../tables/TARGETS.html" xlink:title="TARGETS" target="_top">
<polygon fill="#ffffff" stroke="transparent" points="8,-142.2 8,-291.2 258,-291.2 258,-142.2 8,-142.2"/>
<polygon fill="#f5f5f5" stroke="transparent" points="8,-267.7 8,-290.7 258,-290.7 258,-267.7 8,-267.7"/>
<polygon fill="none" stroke="#000000" points="8,-267.7 8,-290.7 258,-290.7 258,-267.7 8,-267.7"/>
<text text-anchor="start" x="13" y="-276.8" font-family="Helvetica,sans-Serif" font-weight="bold" font-size="11.00" fill="#000000">TARGETS</text>
<text text-anchor="start" x="223.0437" y="-275.8" font-family="Helvetica,sans-Serif" font-size="11.00" fill="#000000">[table]</text>
<polygon fill="none" stroke="#000000" points="8,-245.7 8,-267.7 258,-267.7 258,-245.7 8,-245.7"/>
<image xlink:href="../../images/primaryKeys.png" width="11px" height="12px" preserveAspectRatio="xMinYMin meet" x="13" y="-262.7"/>
<text text-anchor="start" x="28" y="-252.8" font-family="Helvetica,sans-Serif" font-size="11.00" fill="#000000">ID</text>
<polygon fill="none" stroke="#000000" points="8,-223.7 8,-245.7 258,-245.7 258,-223.7 8,-223.7"/>
<image xlink:href="../../images/foreignKeys.png" width="11px" height="12px" preserveAspectRatio="xMinYMin meet" x="13" y="-240.7"/>
<text text-anchor="start" x="28" y="-230.8" font-family="Helvetica,sans-Serif" font-size="11.00" fill="#000000">PROJECT_ID</text>
<polygon fill="none" stroke="#000000" points="8,-201.7 8,-223.7 258,-223.7 258,-201.7 8,-201.7"/>
<image xlink:href="../../images/foreignKeys.png" width="11px" height="12px" preserveAspectRatio="xMinYMin meet" x="13" y="-218.7"/>
<text text-anchor="start" x="28" y="-208.8" font-family="Helvetica,sans-Serif" font-size="11.00" fill="#000000">TARGET_CATEGORY_ID</text>
<polygon fill="none" stroke="#000000" points="8,-179.7 8,-201.7 258,-201.7 258,-179.7 8,-179.7"/>
<image xlink:href="../../images/foreignKeys.png" width="11px" height="12px" preserveAspectRatio="xMinYMin meet" x="13" y="-196.7"/>
<text text-anchor="start" x="28" y="-186.8" font-family="Helvetica,sans-Serif" font-size="11.00" fill="#000000">THERAPEUTIC_ID</text>
<polygon fill="none" stroke="#000000" points="8,-160.7 8,-179.7 258,-179.7 258,-160.7 8,-160.7"/>
<text text-anchor="start" x="11" y="-166.8" font-family="Helvetica,sans-Serif" font-size="11.00" fill="#000000">...</text>
<polygon fill="#ffffff" stroke="transparent" points="8,-141.7 8,-160.7 105,-160.7 105,-141.7 8,-141.7"/>
<polygon fill="none" stroke="#000000" points="8,-141.7 8,-160.7 105,-160.7 105,-141.7 8,-141.7"/>
<text text-anchor="start" x="11" y="-147.8" font-family="Helvetica,sans-Serif" font-size="11.00" fill="#000000">&lt; 3</text>
<polygon fill="#ffffff" stroke="transparent" points="105,-141.7 105,-160.7 193,-160.7 193,-141.7 105,-141.7"/>
<polygon fill="none" stroke="#000000" points="105,-141.7 105,-160.7 193,-160.7 193,-141.7 105,-141.7"/>
<text text-anchor="start" x="145.3807" y="-147.8" font-family="Helvetica,sans-Serif" font-size="11.00" fill="#000000">146 rows</text>
<polygon fill="#ffffff" stroke="transparent" points="193,-141.7 193,-160.7 258,-160.7 258,-141.7 193,-141.7"/>
<polygon fill="none" stroke="#000000" points="193,-141.7 193,-160.7 258,-160.7 258,-141.7 193,-141.7"/>
<text text-anchor="start" x="233.2904" y="-147.8" font-family="Helvetica,sans-Serif" font-size="11.00" fill="#000000">10 &gt;</text>
</a>
</g>
</g>
<!-- SUBUNITS&#45;&gt;TARGETS -->
<g id="edge5" class="edge">
<title>SUBUNITS:w&#45;&gt;TARGETS:e</title>
<path fill="none" stroke="#000000" d="M295.0503,-187.329C276.2607,-203.5294 291.8581,-256.7 258,-256.7"/>
<polygon fill="#000000" stroke="#000000" points="301.4071,-185.2196 310.1338,-186.1168 305.2036,-183.9598 309,-182.7 309,-182.7 309,-182.7 305.2036,-183.9598 307.8662,-179.2832 301.4071,-185.2196 301.4071,-185.2196"/>
<ellipse fill="none" stroke="#000000" cx="298.37" cy="-186.2275" rx="3.2" ry="3.2"/>
</g>
<!-- SUBUNIT_DOMAINS -->
<g id="node3" class="node">
<title>SUBUNIT_DOMAINS</title>
<g id="a_node3"><a xlink:href="../../tables/SUBUNIT_DOMAINS.html" xlink:title="SUBUNIT_DOMAINS" target="_top">
<polygon fill="#ffffff" stroke="transparent" points="733,-266.2 733,-371.2 884,-371.2 884,-266.2 733,-266.2"/>
<polygon fill="#f5f5f5" stroke="transparent" points="733.5,-347.7 733.5,-370.7 884.5,-370.7 884.5,-347.7 733.5,-347.7"/>
<polygon fill="none" stroke="#000000" points="733.5,-347.7 733.5,-370.7 884.5,-370.7 884.5,-347.7 733.5,-347.7"/>
<text text-anchor="start" x="738.5" y="-356.8" font-family="Helvetica,sans-Serif" font-weight="bold" font-size="11.00" fill="#000000">SUBUNIT_DOMAINS</text>
<text text-anchor="start" x="849.5437" y="-355.8" font-family="Helvetica,sans-Serif" font-size="11.00" fill="#000000">[table]</text>
<polygon fill="none" stroke="#000000" points="733.5,-325.7 733.5,-347.7 884.5,-347.7 884.5,-325.7 733.5,-325.7"/>
<image xlink:href="../../images/primaryKeys.png" width="11px" height="12px" preserveAspectRatio="xMinYMin meet" x="738.5" y="-342.7"/>
<text text-anchor="start" x="753.5" y="-332.8" font-family="Helvetica,sans-Serif" font-size="11.00" fill="#000000">ID</text>
<polygon fill="none" stroke="#000000" points="733.5,-303.7 733.5,-325.7 884.5,-325.7 884.5,-303.7 733.5,-303.7"/>
<image xlink:href="../../images/foreignKeys.png" width="11px" height="12px" preserveAspectRatio="xMinYMin meet" x="738.5" y="-320.7"/>
<text text-anchor="start" x="753.5" y="-310.8" font-family="Helvetica,sans-Serif" font-size="11.00" fill="#000000">SUBUNIT_ID</text>
<polygon fill="none" stroke="#000000" points="733.5,-284.7 733.5,-303.7 884.5,-303.7 884.5,-284.7 733.5,-284.7"/>
<text text-anchor="start" x="736.5" y="-290.8" font-family="Helvetica,sans-Serif" font-size="11.00" fill="#000000">...</text>
<polygon fill="#ffffff" stroke="transparent" points="733.5,-265.7 733.5,-284.7 789.5,-284.7 789.5,-265.7 733.5,-265.7"/>
<polygon fill="none" stroke="#000000" points="733.5,-265.7 733.5,-284.7 789.5,-284.7 789.5,-265.7 733.5,-265.7"/>
<text text-anchor="start" x="736.5" y="-271.8" font-family="Helvetica,sans-Serif" font-size="11.00" fill="#000000">&lt; 1</text>
<polygon fill="#ffffff" stroke="transparent" points="789.5,-265.7 789.5,-284.7 845.5,-284.7 845.5,-265.7 789.5,-265.7"/>
<polygon fill="none" stroke="#000000" points="789.5,-265.7 789.5,-284.7 845.5,-284.7 845.5,-265.7 789.5,-265.7"/>
<text text-anchor="start" x="810.1105" y="-271.8" font-family="Helvetica,sans-Serif" font-size="11.00" fill="#000000">0 rows</text>
<polygon fill="#ffffff" stroke="transparent" points="845.5,-265.7 845.5,-284.7 884.5,-284.7 884.5,-265.7 845.5,-265.7"/>
<polygon fill="none" stroke="#000000" points="845.5,-265.7 845.5,-284.7 884.5,-284.7 884.5,-265.7 845.5,-265.7"/>
<text text-anchor="start" x="865.9053" y="-271.8" font-family="Helvetica,sans-Serif" font-size="11.00" fill="#000000">1 &gt;</text>
</a>
</g>
</g>
<!-- SUBUNIT_DOMAINS&#45;&gt;SUBUNITS -->
<g id="edge2" class="edge">
<title>SUBUNIT_DOMAINS:w&#45;&gt;SUBUNITS:e</title>
<path fill="none" stroke="#000000" d="M719.0353,-314.7C699.5831,-314.7 689.974,-314.7 665,-314.7"/>
<polygon fill="#000000" stroke="#000000" points="725.5,-314.7001 733.5,-318.3 729.5,-314.7 733.5,-314.7 733.5,-314.7 733.5,-314.7 729.5,-314.7 733.5,-311.1 725.5,-314.7001 725.5,-314.7001"/>
<ellipse fill="none" stroke="#000000" cx="722.3" cy="-314.7001" rx="3.2" ry="3.2"/>
</g>
<!-- SUBUNIT_VARIANTS -->
<g id="node4" class="node">
<title>SUBUNIT_VARIANTS</title>
<g id="a_node4"><a xlink:href="../../tables/SUBUNIT_VARIANTS.html" xlink:title="SUBUNIT_VARIANTS" target="_top">
<polygon fill="#ffffff" stroke="transparent" points="731,-140.2 731,-245.2 886,-245.2 886,-140.2 731,-140.2"/>
<polygon fill="#f5f5f5" stroke="transparent" points="731.5,-221.7 731.5,-244.7 886.5,-244.7 886.5,-221.7 731.5,-221.7"/>
<polygon fill="none" stroke="#000000" points="731.5,-221.7 731.5,-244.7 886.5,-244.7 886.5,-221.7 731.5,-221.7"/>
<text text-anchor="start" x="736.5" y="-230.8" font-family="Helvetica,sans-Serif" font-weight="bold" font-size="11.00" fill="#000000">SUBUNIT_VARIANTS</text>
<text text-anchor="start" x="851.5437" y="-229.8" font-family="Helvetica,sans-Serif" font-size="11.00" fill="#000000">[table]</text>
<polygon fill="none" stroke="#000000" points="731.5,-199.7 731.5,-221.7 886.5,-221.7 886.5,-199.7 731.5,-199.7"/>
<image xlink:href="../../images/primaryKeys.png" width="11px" height="12px" preserveAspectRatio="xMinYMin meet" x="736.5" y="-216.7"/>
<text text-anchor="start" x="751.5" y="-206.8" font-family="Helvetica,sans-Serif" font-size="11.00" fill="#000000">ID</text>
<polygon fill="none" stroke="#000000" points="731.5,-177.7 731.5,-199.7 886.5,-199.7 886.5,-177.7 731.5,-177.7"/>
<image xlink:href="../../images/foreignKeys.png" width="11px" height="12px" preserveAspectRatio="xMinYMin meet" x="736.5" y="-194.7"/>
<text text-anchor="start" x="751.5" y="-184.8" font-family="Helvetica,sans-Serif" font-size="11.00" fill="#000000">SUBUNIT_ID</text>
<polygon fill="none" stroke="#000000" points="731.5,-158.7 731.5,-177.7 886.5,-177.7 886.5,-158.7 731.5,-158.7"/>
<text text-anchor="start" x="734.5" y="-164.8" font-family="Helvetica,sans-Serif" font-size="11.00" fill="#000000">...</text>
<polygon fill="#ffffff" stroke="transparent" points="731.5,-139.7 731.5,-158.7 789.5,-158.7 789.5,-139.7 731.5,-139.7"/>
<polygon fill="none" stroke="#000000" points="731.5,-139.7 731.5,-158.7 789.5,-158.7 789.5,-139.7 731.5,-139.7"/>
<text text-anchor="start" x="734.5" y="-145.8" font-family="Helvetica,sans-Serif" font-size="11.00" fill="#000000">&lt; 1</text>
<polygon fill="#ffffff" stroke="transparent" points="789.5,-139.7 789.5,-158.7 846.5,-158.7 846.5,-139.7 789.5,-139.7"/>
<polygon fill="none" stroke="#000000" points="789.5,-139.7 789.5,-158.7 846.5,-158.7 846.5,-139.7 789.5,-139.7"/>
<text text-anchor="start" x="811.1105" y="-145.8" font-family="Helvetica,sans-Serif" font-size="11.00" fill="#000000">0 rows</text>
<polygon fill="#ffffff" stroke="transparent" points="846.5,-139.7 846.5,-158.7 886.5,-158.7 886.5,-139.7 846.5,-139.7"/>
<polygon fill="none" stroke="#000000" points="846.5,-139.7 846.5,-158.7 886.5,-158.7 886.5,-139.7 846.5,-139.7"/>
<text text-anchor="start" x="867.9053" y="-145.8" font-family="Helvetica,sans-Serif" font-size="11.00" fill="#000000">1 &gt;</text>
</a>
</g>
</g>
<!-- SUBUNIT_VARIANTS&#45;&gt;SUBUNITS -->
<g id="edge3" class="edge">
<title>SUBUNIT_VARIANTS:w&#45;&gt;SUBUNITS:e</title>
<path fill="none" stroke="#000000" d="M717.2437,-191.5684C677.9893,-210.3236 722.6319,-314.7 665,-314.7"/>
<polygon fill="#000000" stroke="#000000" points="723.6572,-190.2781 732.2101,-192.2293 727.5786,-189.489 731.5,-188.7 731.5,-188.7 731.5,-188.7 727.5786,-189.489 730.7899,-185.1707 723.6572,-190.2781 723.6572,-190.2781"/>
<ellipse fill="none" stroke="#000000" cx="720.52" cy="-190.9093" rx="3.2" ry="3.2"/>
</g>
</g>
</svg>
