<?xml version="1.0" encoding="UTF-8" standalone="no"?>
<!DOCTYPE svg PUBLIC "-//W3C//DTD SVG 1.1//EN"
 "http://www.w3.org/Graphics/SVG/1.1/DTD/svg11.dtd">
<!-- Generated by graphviz version 2.40.1 (20161225.0304)
 -->
<!-- Title: oneDegreeRelationshipsDiagram Pages: 1 -->
<svg width="885pt" height="353pt"
 viewBox="0.00 0.00 885.00 353.20" xmlns="http://www.w3.org/2000/svg" xmlns:xlink="http://www.w3.org/1999/xlink">
<g id="graph0" class="graph" transform="scale(1 1) rotate(0) translate(4 349.2)">
<title>oneDegreeRelationshipsDiagram</title>
<polygon fill="#ffffff" stroke="transparent" points="-4,4 -4,-349.2 881,-349.2 881,4 -4,4"/>
<text text-anchor="middle" x="72.4936" y="-7.3" font-family="Helvetica,sans-Serif" font-size="11.00" fill="#000000">Generated by SchemaSpy</text>
<!-- SUBUNIT_VARIANTS -->
<g id="node1" class="node">
<title>SUBUNIT_VARIANTS</title>
<g id="a_node1"><a xlink:href="../../tables/SUBUNIT_VARIANTS.html" xlink:title="SUBUNIT_VARIANTS" target="_top">
<polygon fill="#ffffff" stroke="transparent" points="242,-54.7 242,-320.7 572,-320.7 572,-54.7 242,-54.7"/>
<polygon fill="#f5f5f5" stroke="transparent" points="244,-295.7 244,-318.7 570,-318.7 570,-295.7 244,-295.7"/>
<polygon fill="none" stroke="#000000" points="244,-295.7 244,-318.7 570,-318.7 570,-295.7 244,-295.7"/>
<text text-anchor="start" x="249" y="-304.8" font-family="Helvetica,sans-Serif" font-weight="bold" font-size="11.00" fill="#000000">SUBUNIT_VARIANTS</text>
<text text-anchor="start" x="535.0437" y="-303.8" font-family="Helvetica,sans-Serif" font-size="11.00" fill="#000000">[table]</text>
<polygon fill="none" stroke="#000000" points="244,-273.7 244,-295.7 399,-295.7 399,-273.7 244,-273.7"/>
<image xlink:href="../../images/primaryKeys.png" width="11px" height="12px" preserveAspectRatio="xMinYMin meet" x="249" y="-290.7"/>
<text text-anchor="start" x="264" y="-280.8" font-family="Helvetica,sans-Serif" font-size="11.00" fill="#000000">ID</text>
<polygon fill="none" stroke="#000000" points="399,-273.7 399,-295.7 570,-295.7 570,-273.7 399,-273.7"/>
<text text-anchor="start" x="402" y="-281.4" font-family="Helvetica,sans-Serif" font-size="11.00" fill="#000000">number[19]</text>
<polygon fill="none" stroke="#000000" points="244,-251.7 244,-273.7 399,-273.7 399,-251.7 244,-251.7"/>
<text text-anchor="start" x="264" y="-258.8" font-family="Helvetica,sans-Serif" font-size="11.00" fill="#000000">CREATED_AT</text>
<polygon fill="none" stroke="#000000" points="399,-251.7 399,-273.7 570,-273.7 570,-251.7 399,-251.7"/>
<text text-anchor="start" x="401.9896" y="-259.4" font-family="Helvetica,sans-Serif" font-size="11.00" fill="#000000">timestamp(6) with time zone[13,6]</text>
<polygon fill="none" stroke="#000000" points="244,-229.7 244,-251.7 399,-251.7 399,-229.7 244,-229.7"/>
<text text-anchor="start" x="264" y="-236.8" font-family="Helvetica,sans-Serif" font-size="11.00" fill="#000000">CREATED_BY</text>
<polygon fill="none" stroke="#000000" points="399,-229.7 399,-251.7 570,-251.7 570,-229.7 399,-229.7"/>
<text text-anchor="start" x="402" y="-237.4" font-family="Helvetica,sans-Serif" font-size="11.00" fill="#000000">number[19]</text>
<polygon fill="none" stroke="#000000" points="244,-207.7 244,-229.7 399,-229.7 399,-207.7 244,-207.7"/>
<text text-anchor="start" x="264" y="-214.8" font-family="Helvetica,sans-Serif" font-size="11.00" fill="#000000">UPDATED_AT</text>
<polygon fill="none" stroke="#000000" points="399,-207.7 399,-229.7 570,-229.7 570,-207.7 399,-207.7"/>
<text text-anchor="start" x="401.9896" y="-215.4" font-family="Helvetica,sans-Serif" font-size="11.00" fill="#000000">timestamp(6) with time zone[13,6]</text>
<polygon fill="none" stroke="#000000" points="244,-185.7 244,-207.7 399,-207.7 399,-185.7 244,-185.7"/>
<text text-anchor="start" x="264" y="-192.8" font-family="Helvetica,sans-Serif" font-size="11.00" fill="#000000">UPDATED_BY</text>
<polygon fill="none" stroke="#000000" points="399,-185.7 399,-207.7 570,-207.7 570,-185.7 399,-185.7"/>
<text text-anchor="start" x="402" y="-193.4" font-family="Helvetica,sans-Serif" font-size="11.00" fill="#000000">number[19]</text>
<polygon fill="none" stroke="#000000" points="244,-163.7 244,-185.7 399,-185.7 399,-163.7 244,-163.7"/>
<text text-anchor="start" x="264" y="-170.8" font-family="Helvetica,sans-Serif" font-size="11.00" fill="#000000">COLOR</text>
<polygon fill="none" stroke="#000000" points="399,-163.7 399,-185.7 570,-185.7 570,-163.7 399,-163.7"/>
<text text-anchor="start" x="402" y="-171.4" font-family="Helvetica,sans-Serif" font-size="11.00" fill="#000000">varchar2[255]</text>
<polygon fill="none" stroke="#000000" points="244,-141.7 244,-163.7 399,-163.7 399,-141.7 244,-141.7"/>
<text text-anchor="start" x="264" y="-148.8" font-family="Helvetica,sans-Serif" font-size="11.00" fill="#000000">END_RANGE</text>
<polygon fill="none" stroke="#000000" points="399,-141.7 399,-163.7 570,-163.7 570,-141.7 399,-141.7"/>
<text text-anchor="start" x="402" y="-149.4" font-family="Helvetica,sans-Serif" font-size="11.00" fill="#000000">number[19]</text>
<polygon fill="none" stroke="#000000" points="244,-119.7 244,-141.7 399,-141.7 399,-119.7 244,-119.7"/>
<image xlink:href="../../images/foreignKeys.png" width="11px" height="12px" preserveAspectRatio="xMinYMin meet" x="249" y="-136.7"/>
<text text-anchor="start" x="264" y="-126.8" font-family="Helvetica,sans-Serif" font-size="11.00" fill="#000000">SUBUNIT_ID</text>
<polygon fill="none" stroke="#000000" points="399,-119.7 399,-141.7 570,-141.7 570,-119.7 399,-119.7"/>
<text text-anchor="start" x="402" y="-127.4" font-family="Helvetica,sans-Serif" font-size="11.00" fill="#000000">number[19]</text>
<polygon fill="none" stroke="#000000" points="244,-97.7 244,-119.7 399,-119.7 399,-97.7 244,-97.7"/>
<text text-anchor="start" x="264" y="-104.8" font-family="Helvetica,sans-Serif" font-size="11.00" fill="#000000">START_RANGE</text>
<polygon fill="none" stroke="#000000" points="399,-97.7 399,-119.7 570,-119.7 570,-97.7 399,-97.7"/>
<text text-anchor="start" x="402" y="-105.4" font-family="Helvetica,sans-Serif" font-size="11.00" fill="#000000">number[19]</text>
<polygon fill="none" stroke="#000000" points="244,-75.7 244,-97.7 399,-97.7 399,-75.7 244,-75.7"/>
<text text-anchor="start" x="264" y="-82.8" font-family="Helvetica,sans-Serif" font-size="11.00" fill="#000000">TITLE</text>
<polygon fill="none" stroke="#000000" points="399,-75.7 399,-97.7 570,-97.7 570,-75.7 399,-75.7"/>
<text text-anchor="start" x="402" y="-83.4" font-family="Helvetica,sans-Serif" font-size="11.00" fill="#000000">varchar2[255]</text>
<polygon fill="#ffffff" stroke="transparent" points="244,-56.7 244,-75.7 313,-75.7 313,-56.7 244,-56.7"/>
<polygon fill="none" stroke="#000000" points="244,-56.7 244,-75.7 313,-75.7 313,-56.7 244,-56.7"/>
<text text-anchor="start" x="247" y="-62.8" font-family="Helvetica,sans-Serif" font-size="11.00" fill="#000000">&lt; 1</text>
<polygon fill="#ffffff" stroke="transparent" points="313,-56.7 313,-75.7 399,-75.7 399,-56.7 313,-56.7"/>
<polygon fill="none" stroke="#000000" points="313,-56.7 313,-75.7 399,-75.7 399,-56.7 313,-56.7"/>
<text text-anchor="start" x="363.6105" y="-62.8" font-family="Helvetica,sans-Serif" font-size="11.00" fill="#000000">0 rows</text>
<polygon fill="#ffffff" stroke="transparent" points="399,-56.7 399,-75.7 570,-75.7 570,-56.7 399,-56.7"/>
<polygon fill="none" stroke="#000000" points="399,-56.7 399,-75.7 570,-75.7 570,-56.7 399,-56.7"/>
<text text-anchor="start" x="551.4053" y="-62.8" font-family="Helvetica,sans-Serif" font-size="11.00" fill="#000000">1 &gt;</text>
<polygon fill="none" stroke="#000000" stroke-width="2" points="243,-55.7 243,-319.7 571,-319.7 571,-55.7 243,-55.7"/>
</a>
</g>
</g>
<!-- SUBUNITS -->
<g id="node2" class="node">
<title>SUBUNITS</title>
<g id="a_node2"><a xlink:href="../../tables/SUBUNITS.html" xlink:title="SUBUNITS" target="_top">
<polygon fill="#ffffff" stroke="transparent" points="8,-38.2 8,-165.2 193,-165.2 193,-38.2 8,-38.2"/>
<polygon fill="#f5f5f5" stroke="transparent" points="8.5,-141.7 8.5,-164.7 193.5,-164.7 193.5,-141.7 8.5,-141.7"/>
<polygon fill="none" stroke="#000000" points="8.5,-141.7 8.5,-164.7 193.5,-164.7 193.5,-141.7 8.5,-141.7"/>
<text text-anchor="start" x="13.5" y="-150.8" font-family="Helvetica,sans-Serif" font-weight="bold" font-size="11.00" fill="#000000">SUBUNITS</text>
<text text-anchor="start" x="158.5437" y="-149.8" font-family="Helvetica,sans-Serif" font-size="11.00" fill="#000000">[table]</text>
<polygon fill="none" stroke="#000000" points="8.5,-119.7 8.5,-141.7 193.5,-141.7 193.5,-119.7 8.5,-119.7"/>
<image xlink:href="../../images/primaryKeys.png" width="11px" height="12px" preserveAspectRatio="xMinYMin meet" x="13.5" y="-136.7"/>
<text text-anchor="start" x="28.5" y="-126.8" font-family="Helvetica,sans-Serif" font-size="11.00" fill="#000000">ID</text>
<polygon fill="none" stroke="#000000" points="8.5,-97.7 8.5,-119.7 193.5,-119.7 193.5,-97.7 8.5,-97.7"/>
<image xlink:href="../../images/foreignKeys.png" width="11px" height="12px" preserveAspectRatio="xMinYMin meet" x="13.5" y="-114.7"/>
<text text-anchor="start" x="28.5" y="-104.8" font-family="Helvetica,sans-Serif" font-size="11.00" fill="#000000">TARGET_ID</text>
<polygon fill="none" stroke="#000000" points="8.5,-75.7 8.5,-97.7 193.5,-97.7 193.5,-75.7 8.5,-75.7"/>
<image xlink:href="../../images/foreignKeys.png" width="11px" height="12px" preserveAspectRatio="xMinYMin meet" x="13.5" y="-92.7"/>
<text text-anchor="start" x="28.5" y="-82.8" font-family="Helvetica,sans-Serif" font-size="11.00" fill="#000000">SUBUNIT_TYPE_ID</text>
<polygon fill="none" stroke="#000000" points="8.5,-56.7 8.5,-75.7 193.5,-75.7 193.5,-56.7 8.5,-56.7"/>
<text text-anchor="start" x="11.5" y="-62.8" font-family="Helvetica,sans-Serif" font-size="11.00" fill="#000000">...</text>
<polygon fill="#ffffff" stroke="transparent" points="8.5,-37.7 8.5,-56.7 81.5,-56.7 81.5,-37.7 8.5,-37.7"/>
<polygon fill="none" stroke="#000000" points="8.5,-37.7 8.5,-56.7 81.5,-56.7 81.5,-37.7 8.5,-37.7"/>
<text text-anchor="start" x="11.5" y="-43.8" font-family="Helvetica,sans-Serif" font-size="11.00" fill="#000000">&lt; 2</text>
<polygon fill="#ffffff" stroke="transparent" points="81.5,-37.7 81.5,-56.7 145.5,-56.7 145.5,-37.7 81.5,-37.7"/>
<polygon fill="none" stroke="#000000" points="81.5,-37.7 81.5,-56.7 145.5,-56.7 145.5,-37.7 81.5,-37.7"/>
<text text-anchor="start" x="110.1105" y="-43.8" font-family="Helvetica,sans-Serif" font-size="11.00" fill="#000000">0 rows</text>
<polygon fill="#ffffff" stroke="transparent" points="145.5,-37.7 145.5,-56.7 193.5,-56.7 193.5,-37.7 145.5,-37.7"/>
<polygon fill="none" stroke="#000000" points="145.5,-37.7 145.5,-56.7 193.5,-56.7 193.5,-37.7 145.5,-37.7"/>
<text text-anchor="start" x="174.9053" y="-43.8" font-family="Helvetica,sans-Serif" font-size="11.00" fill="#000000">3 &gt;</text>
</a>
</g>
</g>
<!-- SUBUNIT_VARIANTS&#45;&gt;SUBUNITS -->
<g id="edge1" class="edge">
<title>SUBUNIT_VARIANTS:w&#45;&gt;SUBUNITS:e</title>
<path fill="none" stroke="#000000" d="M229.4203,-130.7C217.5435,-130.7 210.158,-130.7 193.5,-130.7"/>
<polygon fill="#000000" stroke="#000000" points="236,-130.7001 244,-134.3 240,-130.7 244,-130.7 244,-130.7 244,-130.7 240,-130.7 244,-127.1 236,-130.7001 236,-130.7001"/>
<ellipse fill="none" stroke="#000000" cx="232.8" cy="-130.7001" rx="3.2" ry="3.2"/>
</g>
<!-- SUBUNIT_VARIANTS_REFERENCES -->
<g id="node3" class="node">
<title>SUBUNIT_VARIANTS_REFERENCES</title>
<g id="a_node3"><a xlink:href="../../tables/SUBUNIT_VARIANTS_REFERENCES.html" xlink:title="SUBUNIT_VARIANTS_REFERENCES" target="_top">
<polygon fill="#ffffff" stroke="transparent" points="621,-214.2 621,-341.2 869,-341.2 869,-214.2 621,-214.2"/>
<polygon fill="#f5f5f5" stroke="transparent" points="621,-317.7 621,-340.7 869,-340.7 869,-317.7 621,-317.7"/>
<polygon fill="none" stroke="#000000" points="621,-317.7 621,-340.7 869,-340.7 869,-317.7 621,-317.7"/>
<text text-anchor="start" x="626" y="-326.8" font-family="Helvetica,sans-Serif" font-weight="bold" font-size="11.00" fill="#000000">SUBUNIT_VARIANTS_REFERENCES</text>
<text text-anchor="start" x="834.0437" y="-325.8" font-family="Helvetica,sans-Serif" font-size="11.00" fill="#000000">[table]</text>
<polygon fill="none" stroke="#000000" points="621,-295.7 621,-317.7 869,-317.7 869,-295.7 621,-295.7"/>
<image xlink:href="../../images/primaryKeys.png" width="11px" height="12px" preserveAspectRatio="xMinYMin meet" x="626" y="-312.7"/>
<text text-anchor="start" x="641" y="-302.8" font-family="Helvetica,sans-Serif" font-size="11.00" fill="#000000">ID</text>
<polygon fill="none" stroke="#000000" points="621,-273.7 621,-295.7 869,-295.7 869,-273.7 621,-273.7"/>
<image xlink:href="../../images/foreignKeys.png" width="11px" height="12px" preserveAspectRatio="xMinYMin meet" x="626" y="-290.7"/>
<text text-anchor="start" x="641" y="-280.8" font-family="Helvetica,sans-Serif" font-size="11.00" fill="#000000">SUBUNIT_VARIANT_ID</text>
<polygon fill="none" stroke="#000000" points="621,-251.7 621,-273.7 869,-273.7 869,-251.7 621,-251.7"/>
<image xlink:href="../../images/foreignKeys.png" width="11px" height="12px" preserveAspectRatio="xMinYMin meet" x="626" y="-268.7"/>
<text text-anchor="start" x="641" y="-258.8" font-family="Helvetica,sans-Serif" font-size="11.00" fill="#000000">REFERENCE_ID</text>
<polygon fill="none" stroke="#000000" points="621,-232.7 621,-251.7 869,-251.7 869,-232.7 621,-232.7"/>
<text text-anchor="start" x="624" y="-238.8" font-family="Helvetica,sans-Serif" font-size="11.00" fill="#000000">...</text>
<polygon fill="#ffffff" stroke="transparent" points="621,-213.7 621,-232.7 730,-232.7 730,-213.7 621,-213.7"/>
<polygon fill="none" stroke="#000000" points="621,-213.7 621,-232.7 730,-232.7 730,-213.7 621,-213.7"/>
<text text-anchor="start" x="624" y="-219.8" font-family="Helvetica,sans-Serif" font-size="11.00" fill="#000000">&lt; 2</text>
<polygon fill="#ffffff" stroke="transparent" points="730,-213.7 730,-232.7 812,-232.7 812,-213.7 730,-213.7"/>
<polygon fill="none" stroke="#000000" points="730,-213.7 730,-232.7 812,-232.7 812,-213.7 730,-213.7"/>
<text text-anchor="start" x="776.6105" y="-219.8" font-family="Helvetica,sans-Serif" font-size="11.00" fill="#000000">0 rows</text>
<polygon fill="#ffffff" stroke="transparent" points="812,-213.7 812,-232.7 869,-232.7 869,-213.7 812,-213.7"/>
<polygon fill="none" stroke="#000000" points="812,-213.7 812,-232.7 869,-232.7 869,-213.7 812,-213.7"/>
<text text-anchor="start" x="859.8862" y="-219.8" font-family="Helvetica,sans-Serif" font-size="11.00" fill="#000000"> &#160;</text>
</a>
</g>
</g>
<!-- SUBUNIT_VARIANTS_REFERENCES&#45;&gt;SUBUNIT_VARIANTS -->
<g id="edge2" class="edge">
<title>SUBUNIT_VARIANTS_REFERENCES:w&#45;&gt;SUBUNIT_VARIANTS:e</title>
<path fill="none" stroke="#000000" d="M606.276,-284.7C594.2815,-284.7 586.8229,-284.7 570,-284.7"/>
<polygon fill="#000000" stroke="#000000" points="613,-284.7001 621,-288.3 617,-284.7 621,-284.7 621,-284.7 621,-284.7 617,-284.7 621,-281.1 613,-284.7001 613,-284.7001"/>
<ellipse fill="none" stroke="#000000" cx="609.8" cy="-284.7001" rx="3.2" ry="3.2"/>
</g>
</g>
</svg>
