<?xml version="1.0" encoding="UTF-8" standalone="no"?>
<!DOCTYPE svg PUBLIC "-//W3C//DTD SVG 1.1//EN"
 "http://www.w3.org/Graphics/SVG/1.1/DTD/svg11.dtd">
<!-- Generated by graphviz version 2.40.1 (20161225.0304)
 -->
<!-- Title: oneDegreeRelationshipsDiagram Pages: 1 -->
<svg width="711pt" height="341pt"
 viewBox="0.00 0.00 711.00 340.70" xmlns="http://www.w3.org/2000/svg" xmlns:xlink="http://www.w3.org/1999/xlink">
<g id="graph0" class="graph" transform="scale(1 1) rotate(0) translate(4 336.7)">
<title>oneDegreeRelationshipsDiagram</title>
<polygon fill="#ffffff" stroke="transparent" points="-4,4 -4,-336.7 707,-336.7 707,4 -4,4"/>
<text text-anchor="middle" x="72.4936" y="-7.3" font-family="Helvetica,sans-Serif" font-size="11.00" fill="#000000">Generated by SchemaSpy</text>
<!-- SUBUNIT_ANNOTATIONS_REFERENCES -->
<g id="node1" class="node">
<title>SUBUNIT_ANNOTATIONS_REFERENCES</title>
<g id="a_node1"><a xlink:href="../../tables/SUBUNIT_ANNOTATIONS_REFERENCES.html" xlink:title="SUBUNIT_ANNOTATIONS_REFERENCES" target="_top">
<polygon fill="#ffffff" stroke="transparent" points="242,-128.7 242,-328.7 695,-328.7 695,-128.7 242,-128.7"/>
<polygon fill="#f5f5f5" stroke="transparent" points="244.5,-303.7 244.5,-326.7 693.5,-326.7 693.5,-303.7 244.5,-303.7"/>
<polygon fill="none" stroke="#000000" points="244.5,-303.7 244.5,-326.7 693.5,-326.7 693.5,-303.7 244.5,-303.7"/>
<text text-anchor="start" x="249.5" y="-312.8" font-family="Helvetica,sans-Serif" font-weight="bold" font-size="11.00" fill="#000000">SUBUNIT_ANNOTATIONS_REFERENCES</text>
<text text-anchor="start" x="658.5437" y="-311.8" font-family="Helvetica,sans-Serif" font-size="11.00" fill="#000000">[table]</text>
<polygon fill="none" stroke="#000000" points="244.5,-281.7 244.5,-303.7 522.5,-303.7 522.5,-281.7 244.5,-281.7"/>
<image xlink:href="../../images/primaryKeys.png" width="11px" height="12px" preserveAspectRatio="xMinYMin meet" x="249.5" y="-298.7"/>
<text text-anchor="start" x="264.5" y="-288.8" font-family="Helvetica,sans-Serif" font-size="11.00" fill="#000000">ID</text>
<polygon fill="none" stroke="#000000" points="522.5,-281.7 522.5,-303.7 693.5,-303.7 693.5,-281.7 522.5,-281.7"/>
<text text-anchor="start" x="525.5" y="-289.4" font-family="Helvetica,sans-Serif" font-size="11.00" fill="#000000">number[19]</text>
<polygon fill="none" stroke="#000000" points="244.5,-259.7 244.5,-281.7 522.5,-281.7 522.5,-259.7 244.5,-259.7"/>
<text text-anchor="start" x="264.5" y="-266.8" font-family="Helvetica,sans-Serif" font-size="11.00" fill="#000000">CREATED_AT</text>
<polygon fill="none" stroke="#000000" points="522.5,-259.7 522.5,-281.7 693.5,-281.7 693.5,-259.7 522.5,-259.7"/>
<text text-anchor="start" x="525.4896" y="-267.4" font-family="Helvetica,sans-Serif" font-size="11.00" fill="#000000">timestamp(6) with time zone[13,6]</text>
<polygon fill="none" stroke="#000000" points="244.5,-237.7 244.5,-259.7 522.5,-259.7 522.5,-237.7 244.5,-237.7"/>
<text text-anchor="start" x="264.5" y="-244.8" font-family="Helvetica,sans-Serif" font-size="11.00" fill="#000000">CREATED_BY</text>
<polygon fill="none" stroke="#000000" points="522.5,-237.7 522.5,-259.7 693.5,-259.7 693.5,-237.7 522.5,-237.7"/>
<text text-anchor="start" x="525.5" y="-245.4" font-family="Helvetica,sans-Serif" font-size="11.00" fill="#000000">number[19]</text>
<polygon fill="none" stroke="#000000" points="244.5,-215.7 244.5,-237.7 522.5,-237.7 522.5,-215.7 244.5,-215.7"/>
<text text-anchor="start" x="264.5" y="-222.8" font-family="Helvetica,sans-Serif" font-size="11.00" fill="#000000">UPDATED_AT</text>
<polygon fill="none" stroke="#000000" points="522.5,-215.7 522.5,-237.7 693.5,-237.7 693.5,-215.7 522.5,-215.7"/>
<text text-anchor="start" x="525.4896" y="-223.4" font-family="Helvetica,sans-Serif" font-size="11.00" fill="#000000">timestamp(6) with time zone[13,6]</text>
<polygon fill="none" stroke="#000000" points="244.5,-193.7 244.5,-215.7 522.5,-215.7 522.5,-193.7 244.5,-193.7"/>
<text text-anchor="start" x="264.5" y="-200.8" font-family="Helvetica,sans-Serif" font-size="11.00" fill="#000000">UPDATED_BY</text>
<polygon fill="none" stroke="#000000" points="522.5,-193.7 522.5,-215.7 693.5,-215.7 693.5,-193.7 522.5,-193.7"/>
<text text-anchor="start" x="525.5" y="-201.4" font-family="Helvetica,sans-Serif" font-size="11.00" fill="#000000">number[19]</text>
<polygon fill="none" stroke="#000000" points="244.5,-171.7 244.5,-193.7 522.5,-193.7 522.5,-171.7 244.5,-171.7"/>
<image xlink:href="../../images/foreignKeys.png" width="11px" height="12px" preserveAspectRatio="xMinYMin meet" x="249.5" y="-188.7"/>
<text text-anchor="start" x="264.5" y="-178.8" font-family="Helvetica,sans-Serif" font-size="11.00" fill="#000000">SUBUNIT_ANNOTATION_ID</text>
<polygon fill="none" stroke="#000000" points="522.5,-171.7 522.5,-193.7 693.5,-193.7 693.5,-171.7 522.5,-171.7"/>
<text text-anchor="start" x="525.5" y="-179.4" font-family="Helvetica,sans-Serif" font-size="11.00" fill="#000000">number[19]</text>
<polygon fill="none" stroke="#000000" points="244.5,-149.7 244.5,-171.7 522.5,-171.7 522.5,-149.7 244.5,-149.7"/>
<image xlink:href="../../images/foreignKeys.png" width="11px" height="12px" preserveAspectRatio="xMinYMin meet" x="249.5" y="-166.7"/>
<text text-anchor="start" x="264.5" y="-156.8" font-family="Helvetica,sans-Serif" font-size="11.00" fill="#000000">REFERENCE_ID</text>
<polygon fill="none" stroke="#000000" points="522.5,-149.7 522.5,-171.7 693.5,-171.7 693.5,-149.7 522.5,-149.7"/>
<text text-anchor="start" x="525.5" y="-157.4" font-family="Helvetica,sans-Serif" font-size="11.00" fill="#000000">number[19]</text>
<polygon fill="#ffffff" stroke="transparent" points="244.5,-130.7 244.5,-149.7 374.5,-149.7 374.5,-130.7 244.5,-130.7"/>
<polygon fill="none" stroke="#000000" points="244.5,-130.7 244.5,-149.7 374.5,-149.7 374.5,-130.7 244.5,-130.7"/>
<text text-anchor="start" x="247.5" y="-136.8" font-family="Helvetica,sans-Serif" font-size="11.00" fill="#000000">&lt; 2</text>
<polygon fill="#ffffff" stroke="transparent" points="374.5,-130.7 374.5,-149.7 522.5,-149.7 522.5,-130.7 374.5,-130.7"/>
<polygon fill="none" stroke="#000000" points="374.5,-130.7 374.5,-149.7 522.5,-149.7 522.5,-130.7 374.5,-130.7"/>
<text text-anchor="start" x="487.1105" y="-136.8" font-family="Helvetica,sans-Serif" font-size="11.00" fill="#000000">0 rows</text>
<polygon fill="#ffffff" stroke="transparent" points="522.5,-130.7 522.5,-149.7 693.5,-149.7 693.5,-130.7 522.5,-130.7"/>
<polygon fill="none" stroke="#000000" points="522.5,-130.7 522.5,-149.7 693.5,-149.7 693.5,-130.7 522.5,-130.7"/>
<text text-anchor="start" x="674.9053" y="-136.8" font-family="Helvetica,sans-Serif" font-size="11.00" fill="#000000">0 &gt;</text>
<polygon fill="none" stroke="#000000" stroke-width="2" points="243,-129.7 243,-327.7 694,-327.7 694,-129.7 243,-129.7"/>
</a>
</g>
</g>
<!-- REFERENCES -->
<g id="node2" class="node">
<title>REFERENCES</title>
<g id="a_node2"><a xlink:href="../../tables/REFERENCES.html" xlink:title="REFERENCES" target="_top">
<polygon fill="#ffffff" stroke="transparent" points="36.5,-38.2 36.5,-143.2 164.5,-143.2 164.5,-38.2 36.5,-38.2"/>
<polygon fill="#f5f5f5" stroke="transparent" points="36.5,-119.7 36.5,-142.7 164.5,-142.7 164.5,-119.7 36.5,-119.7"/>
<polygon fill="none" stroke="#000000" points="36.5,-119.7 36.5,-142.7 164.5,-142.7 164.5,-119.7 36.5,-119.7"/>
<text text-anchor="start" x="41.5" y="-128.8" font-family="Helvetica,sans-Serif" font-weight="bold" font-size="11.00" fill="#000000">REFERENCES</text>
<text text-anchor="start" x="129.5437" y="-127.8" font-family="Helvetica,sans-Serif" font-size="11.00" fill="#000000">[table]</text>
<polygon fill="none" stroke="#000000" points="36.5,-97.7 36.5,-119.7 164.5,-119.7 164.5,-97.7 36.5,-97.7"/>
<image xlink:href="../../images/primaryKeys.png" width="11px" height="12px" preserveAspectRatio="xMinYMin meet" x="41.5" y="-114.7"/>
<text text-anchor="start" x="56.5" y="-104.8" font-family="Helvetica,sans-Serif" font-size="11.00" fill="#000000">ID</text>
<polygon fill="none" stroke="#000000" points="36.5,-75.7 36.5,-97.7 164.5,-97.7 164.5,-75.7 36.5,-75.7"/>
<image xlink:href="../../images/foreignKeys.png" width="11px" height="12px" preserveAspectRatio="xMinYMin meet" x="41.5" y="-92.7"/>
<text text-anchor="start" x="56.5" y="-82.8" font-family="Helvetica,sans-Serif" font-size="11.00" fill="#000000">USER_ID</text>
<polygon fill="none" stroke="#000000" points="36.5,-56.7 36.5,-75.7 164.5,-75.7 164.5,-56.7 36.5,-56.7"/>
<text text-anchor="start" x="39.5" y="-62.8" font-family="Helvetica,sans-Serif" font-size="11.00" fill="#000000">...</text>
<polygon fill="#ffffff" stroke="transparent" points="36.5,-37.7 36.5,-56.7 67.5,-56.7 67.5,-37.7 36.5,-37.7"/>
<polygon fill="none" stroke="#000000" points="36.5,-37.7 36.5,-56.7 67.5,-56.7 67.5,-37.7 36.5,-37.7"/>
<text text-anchor="start" x="39.5" y="-43.8" font-family="Helvetica,sans-Serif" font-size="11.00" fill="#000000">&lt; 1</text>
<polygon fill="#ffffff" stroke="transparent" points="67.5,-37.7 67.5,-56.7 131.5,-56.7 131.5,-37.7 67.5,-37.7"/>
<polygon fill="none" stroke="#000000" points="67.5,-37.7 67.5,-56.7 131.5,-56.7 131.5,-37.7 67.5,-37.7"/>
<text text-anchor="start" x="74.7089" y="-43.8" font-family="Helvetica,sans-Serif" font-size="11.00" fill="#000000">2,900 rows</text>
<polygon fill="#ffffff" stroke="transparent" points="131.5,-37.7 131.5,-56.7 164.5,-56.7 164.5,-37.7 131.5,-37.7"/>
<polygon fill="none" stroke="#000000" points="131.5,-37.7 131.5,-56.7 164.5,-56.7 164.5,-37.7 131.5,-37.7"/>
<text text-anchor="start" x="139.7904" y="-43.8" font-family="Helvetica,sans-Serif" font-size="11.00" fill="#000000">20 &gt;</text>
</a>
</g>
</g>
<!-- SUBUNIT_ANNOTATIONS_REFERENCES&#45;&gt;REFERENCES -->
<g id="edge1" class="edge">
<title>SUBUNIT_ANNOTATIONS_REFERENCES:w&#45;&gt;REFERENCES:e</title>
<path fill="none" stroke="#000000" d="M230.2522,-158.3305C202.5497,-148.1578 201.4401,-108.7 164.5,-108.7"/>
<polygon fill="#000000" stroke="#000000" points="236.6084,-159.3876 243.9094,-164.2512 240.5542,-160.0438 244.5,-160.7 244.5,-160.7 244.5,-160.7 240.5542,-160.0438 245.0906,-157.1488 236.6084,-159.3876 236.6084,-159.3876"/>
<ellipse fill="none" stroke="#000000" cx="233.4517" cy="-158.8626" rx="3.2" ry="3.2"/>
</g>
<!-- SUBUNIT_ANNOTATIONS -->
<g id="node3" class="node">
<title>SUBUNIT_ANNOTATIONS</title>
<g id="a_node3"><a xlink:href="../../tables/SUBUNIT_ANNOTATIONS.html" xlink:title="SUBUNIT_ANNOTATIONS" target="_top">
<polygon fill="#ffffff" stroke="transparent" points="8,-164.2 8,-269.2 193,-269.2 193,-164.2 8,-164.2"/>
<polygon fill="#f5f5f5" stroke="transparent" points="8.5,-245.7 8.5,-268.7 193.5,-268.7 193.5,-245.7 8.5,-245.7"/>
<polygon fill="none" stroke="#000000" points="8.5,-245.7 8.5,-268.7 193.5,-268.7 193.5,-245.7 8.5,-245.7"/>
<text text-anchor="start" x="13.5" y="-254.8" font-family="Helvetica,sans-Serif" font-weight="bold" font-size="11.00" fill="#000000">SUBUNIT_ANNOTATIONS</text>
<text text-anchor="start" x="158.5437" y="-253.8" font-family="Helvetica,sans-Serif" font-size="11.00" fill="#000000">[table]</text>
<polygon fill="none" stroke="#000000" points="8.5,-223.7 8.5,-245.7 193.5,-245.7 193.5,-223.7 8.5,-223.7"/>
<image xlink:href="../../images/primaryKeys.png" width="11px" height="12px" preserveAspectRatio="xMinYMin meet" x="13.5" y="-240.7"/>
<text text-anchor="start" x="28.5" y="-230.8" font-family="Helvetica,sans-Serif" font-size="11.00" fill="#000000">ID</text>
<polygon fill="none" stroke="#000000" points="8.5,-201.7 8.5,-223.7 193.5,-223.7 193.5,-201.7 8.5,-201.7"/>
<image xlink:href="../../images/foreignKeys.png" width="11px" height="12px" preserveAspectRatio="xMinYMin meet" x="13.5" y="-218.7"/>
<text text-anchor="start" x="28.5" y="-208.8" font-family="Helvetica,sans-Serif" font-size="11.00" fill="#000000">SUBUNIT_ID</text>
<polygon fill="none" stroke="#000000" points="8.5,-182.7 8.5,-201.7 193.5,-201.7 193.5,-182.7 8.5,-182.7"/>
<text text-anchor="start" x="11.5" y="-188.8" font-family="Helvetica,sans-Serif" font-size="11.00" fill="#000000">...</text>
<polygon fill="#ffffff" stroke="transparent" points="8.5,-163.7 8.5,-182.7 81.5,-182.7 81.5,-163.7 8.5,-163.7"/>
<polygon fill="none" stroke="#000000" points="8.5,-163.7 8.5,-182.7 81.5,-182.7 81.5,-163.7 8.5,-163.7"/>
<text text-anchor="start" x="11.5" y="-169.8" font-family="Helvetica,sans-Serif" font-size="11.00" fill="#000000">&lt; 1</text>
<polygon fill="#ffffff" stroke="transparent" points="81.5,-163.7 81.5,-182.7 145.5,-182.7 145.5,-163.7 81.5,-163.7"/>
<polygon fill="none" stroke="#000000" points="81.5,-163.7 81.5,-182.7 145.5,-182.7 145.5,-163.7 81.5,-163.7"/>
<text text-anchor="start" x="110.1105" y="-169.8" font-family="Helvetica,sans-Serif" font-size="11.00" fill="#000000">0 rows</text>
<polygon fill="#ffffff" stroke="transparent" points="145.5,-163.7 145.5,-182.7 193.5,-182.7 193.5,-163.7 145.5,-163.7"/>
<polygon fill="none" stroke="#000000" points="145.5,-163.7 145.5,-182.7 193.5,-182.7 193.5,-163.7 145.5,-163.7"/>
<text text-anchor="start" x="174.9053" y="-169.8" font-family="Helvetica,sans-Serif" font-size="11.00" fill="#000000">1 &gt;</text>
</a>
</g>
</g>
<!-- SUBUNIT_ANNOTATIONS_REFERENCES&#45;&gt;SUBUNIT_ANNOTATIONS -->
<g id="edge2" class="edge">
<title>SUBUNIT_ANNOTATIONS_REFERENCES:w&#45;&gt;SUBUNIT_ANNOTATIONS:e</title>
<path fill="none" stroke="#000000" d="M230.5468,-187.4988C215.661,-200.3719 219.8017,-234.7 193.5,-234.7"/>
<polygon fill="#000000" stroke="#000000" points="236.9349,-185.3018 245.6708,-186.1043 240.7175,-184.0009 244.5,-182.7 244.5,-182.7 244.5,-182.7 240.7175,-184.0009 243.3292,-179.2957 236.9349,-185.3018 236.9349,-185.3018"/>
<ellipse fill="none" stroke="#000000" cx="233.9089" cy="-186.3426" rx="3.2" ry="3.2"/>
</g>
</g>
</svg>
