<?xml version="1.0" encoding="UTF-8" standalone="no"?>
<!DOCTYPE svg PUBLIC "-//W3C//DTD SVG 1.1//EN"
 "http://www.w3.org/Graphics/SVG/1.1/DTD/svg11.dtd">
<!-- Generated by graphviz version 2.40.1 (20161225.0304)
 -->
<!-- Title: oneDegreeRelationshipsDiagram Pages: 1 -->
<svg width="806pt" height="371pt"
 viewBox="0.00 0.00 806.00 370.70" xmlns="http://www.w3.org/2000/svg" xmlns:xlink="http://www.w3.org/1999/xlink">
<g id="graph0" class="graph" transform="scale(1 1) rotate(0) translate(4 366.7)">
<title>oneDegreeRelationshipsDiagram</title>
<polygon fill="#ffffff" stroke="transparent" points="-4,4 -4,-366.7 802,-366.7 802,4 -4,4"/>
<text text-anchor="middle" x="72.4936" y="-7.3" font-family="Helvetica,sans-Serif" font-size="11.00" fill="#000000">Generated by SchemaSpy</text>
<!-- SUPPLEMENTS_ASSAY_TYPES_BINDING_CONSTANTS -->
<g id="node1" class="node">
<title>SUPPLEMENTS_ASSAY_TYPES_BINDING_CONSTANTS</title>
<g id="a_node1"><a xlink:href="../../tables/SUPPLEMENTS_ASSAY_TYPES_BINDING_CONSTANTS.html" xlink:title="SUPPLEMENTS_ASSAY_TYPES_BINDING_CONSTANTS" target="_top">
<polygon fill="#ffffff" stroke="transparent" points="245,-114.7 245,-358.7 790,-358.7 790,-114.7 245,-114.7"/>
<polygon fill="#f5f5f5" stroke="transparent" points="247.5,-333.7 247.5,-356.7 788.5,-356.7 788.5,-333.7 247.5,-333.7"/>
<polygon fill="none" stroke="#000000" points="247.5,-333.7 247.5,-356.7 788.5,-356.7 788.5,-333.7 247.5,-333.7"/>
<text text-anchor="start" x="252.5" y="-342.8" font-family="Helvetica,sans-Serif" font-weight="bold" font-size="11.00" fill="#000000">SUPPLEMENTS_ASSAY_TYPES_BINDING_CONSTANTS</text>
<text text-anchor="start" x="753.5437" y="-341.8" font-family="Helvetica,sans-Serif" font-size="11.00" fill="#000000">[table]</text>
<polygon fill="none" stroke="#000000" points="247.5,-311.7 247.5,-333.7 617.5,-333.7 617.5,-311.7 247.5,-311.7"/>
<image xlink:href="../../images/primaryKeys.png" width="11px" height="12px" preserveAspectRatio="xMinYMin meet" x="252.5" y="-328.7"/>
<text text-anchor="start" x="267.5" y="-318.8" font-family="Helvetica,sans-Serif" font-size="11.00" fill="#000000">ID</text>
<polygon fill="none" stroke="#000000" points="617.5,-311.7 617.5,-333.7 788.5,-333.7 788.5,-311.7 617.5,-311.7"/>
<text text-anchor="start" x="620.5" y="-319.4" font-family="Helvetica,sans-Serif" font-size="11.00" fill="#000000">number[19]</text>
<polygon fill="none" stroke="#000000" points="247.5,-289.7 247.5,-311.7 617.5,-311.7 617.5,-289.7 247.5,-289.7"/>
<text text-anchor="start" x="267.5" y="-296.8" font-family="Helvetica,sans-Serif" font-size="11.00" fill="#000000">CREATED_AT</text>
<polygon fill="none" stroke="#000000" points="617.5,-289.7 617.5,-311.7 788.5,-311.7 788.5,-289.7 617.5,-289.7"/>
<text text-anchor="start" x="620.4896" y="-297.4" font-family="Helvetica,sans-Serif" font-size="11.00" fill="#000000">timestamp(6) with time zone[13,6]</text>
<polygon fill="none" stroke="#000000" points="247.5,-267.7 247.5,-289.7 617.5,-289.7 617.5,-267.7 247.5,-267.7"/>
<text text-anchor="start" x="267.5" y="-274.8" font-family="Helvetica,sans-Serif" font-size="11.00" fill="#000000">CREATED_BY</text>
<polygon fill="none" stroke="#000000" points="617.5,-267.7 617.5,-289.7 788.5,-289.7 788.5,-267.7 617.5,-267.7"/>
<text text-anchor="start" x="620.5" y="-275.4" font-family="Helvetica,sans-Serif" font-size="11.00" fill="#000000">number[19]</text>
<polygon fill="none" stroke="#000000" points="247.5,-245.7 247.5,-267.7 617.5,-267.7 617.5,-245.7 247.5,-245.7"/>
<text text-anchor="start" x="267.5" y="-252.8" font-family="Helvetica,sans-Serif" font-size="11.00" fill="#000000">UPDATED_AT</text>
<polygon fill="none" stroke="#000000" points="617.5,-245.7 617.5,-267.7 788.5,-267.7 788.5,-245.7 617.5,-245.7"/>
<text text-anchor="start" x="620.4896" y="-253.4" font-family="Helvetica,sans-Serif" font-size="11.00" fill="#000000">timestamp(6) with time zone[13,6]</text>
<polygon fill="none" stroke="#000000" points="247.5,-223.7 247.5,-245.7 617.5,-245.7 617.5,-223.7 247.5,-223.7"/>
<text text-anchor="start" x="267.5" y="-230.8" font-family="Helvetica,sans-Serif" font-size="11.00" fill="#000000">UPDATED_BY</text>
<polygon fill="none" stroke="#000000" points="617.5,-223.7 617.5,-245.7 788.5,-245.7 788.5,-223.7 617.5,-223.7"/>
<text text-anchor="start" x="620.5" y="-231.4" font-family="Helvetica,sans-Serif" font-size="11.00" fill="#000000">number[19]</text>
<polygon fill="none" stroke="#000000" points="247.5,-201.7 247.5,-223.7 617.5,-223.7 617.5,-201.7 247.5,-201.7"/>
<image xlink:href="../../images/foreignKeys.png" width="11px" height="12px" preserveAspectRatio="xMinYMin meet" x="252.5" y="-218.7"/>
<text text-anchor="start" x="267.5" y="-208.8" font-family="Helvetica,sans-Serif" font-size="11.00" fill="#000000">SUPPLEMENT_ID</text>
<polygon fill="none" stroke="#000000" points="617.5,-201.7 617.5,-223.7 788.5,-223.7 788.5,-201.7 617.5,-201.7"/>
<text text-anchor="start" x="620.5" y="-209.4" font-family="Helvetica,sans-Serif" font-size="11.00" fill="#000000">number[19]</text>
<polygon fill="none" stroke="#000000" points="247.5,-179.7 247.5,-201.7 617.5,-201.7 617.5,-179.7 247.5,-179.7"/>
<image xlink:href="../../images/foreignKeys.png" width="11px" height="12px" preserveAspectRatio="xMinYMin meet" x="252.5" y="-196.7"/>
<text text-anchor="start" x="267.5" y="-186.8" font-family="Helvetica,sans-Serif" font-size="11.00" fill="#000000">ASSAY_TYPE_ID</text>
<polygon fill="none" stroke="#000000" points="617.5,-179.7 617.5,-201.7 788.5,-201.7 788.5,-179.7 617.5,-179.7"/>
<text text-anchor="start" x="620.5" y="-187.4" font-family="Helvetica,sans-Serif" font-size="11.00" fill="#000000">number[19]</text>
<polygon fill="none" stroke="#000000" points="247.5,-157.7 247.5,-179.7 617.5,-179.7 617.5,-157.7 247.5,-157.7"/>
<image xlink:href="../../images/foreignKeys.png" width="11px" height="12px" preserveAspectRatio="xMinYMin meet" x="252.5" y="-174.7"/>
<text text-anchor="start" x="267.5" y="-164.8" font-family="Helvetica,sans-Serif" font-size="11.00" fill="#000000">BINDING_CONSTANT_ID</text>
<polygon fill="none" stroke="#000000" points="617.5,-157.7 617.5,-179.7 788.5,-179.7 788.5,-157.7 617.5,-157.7"/>
<text text-anchor="start" x="620.5" y="-165.4" font-family="Helvetica,sans-Serif" font-size="11.00" fill="#000000">number[19]</text>
<polygon fill="none" stroke="#000000" points="247.5,-135.7 247.5,-157.7 617.5,-157.7 617.5,-135.7 247.5,-135.7"/>
<text text-anchor="start" x="267.5" y="-142.8" font-family="Helvetica,sans-Serif" font-size="11.00" fill="#000000">BINDING_CONSTANT_VALUE</text>
<polygon fill="none" stroke="#000000" points="617.5,-135.7 617.5,-157.7 788.5,-157.7 788.5,-135.7 617.5,-135.7"/>
<text text-anchor="start" x="620.5" y="-143.4" font-family="Helvetica,sans-Serif" font-size="11.00" fill="#000000">varchar2[255]</text>
<polygon fill="#ffffff" stroke="transparent" points="247.5,-116.7 247.5,-135.7 420.5,-135.7 420.5,-116.7 247.5,-116.7"/>
<polygon fill="none" stroke="#000000" points="247.5,-116.7 247.5,-135.7 420.5,-135.7 420.5,-116.7 247.5,-116.7"/>
<text text-anchor="start" x="250.5" y="-122.8" font-family="Helvetica,sans-Serif" font-size="11.00" fill="#000000">&lt; 3</text>
<polygon fill="#ffffff" stroke="transparent" points="420.5,-116.7 420.5,-135.7 617.5,-135.7 617.5,-116.7 420.5,-116.7"/>
<polygon fill="none" stroke="#000000" points="420.5,-116.7 420.5,-135.7 617.5,-135.7 617.5,-116.7 420.5,-116.7"/>
<text text-anchor="start" x="575.9956" y="-122.8" font-family="Helvetica,sans-Serif" font-size="11.00" fill="#000000">62 rows</text>
<polygon fill="#ffffff" stroke="transparent" points="617.5,-116.7 617.5,-135.7 788.5,-135.7 788.5,-116.7 617.5,-116.7"/>
<polygon fill="none" stroke="#000000" points="617.5,-116.7 617.5,-135.7 788.5,-135.7 788.5,-116.7 617.5,-116.7"/>
<text text-anchor="start" x="769.9053" y="-122.8" font-family="Helvetica,sans-Serif" font-size="11.00" fill="#000000">0 &gt;</text>
<polygon fill="none" stroke="#000000" stroke-width="2" points="246,-115.7 246,-357.7 789,-357.7 789,-115.7 246,-115.7"/>
</a>
</g>
</g>
<!-- ASSAY_TYPES -->
<g id="node2" class="node">
<title>ASSAY_TYPES</title>
<g id="a_node2"><a xlink:href="../../tables/ASSAY_TYPES.html" xlink:title="ASSAY_TYPES" target="_top">
<polygon fill="#ffffff" stroke="transparent" points="41.5,-142.2 41.5,-225.2 162.5,-225.2 162.5,-142.2 41.5,-142.2"/>
<polygon fill="#f5f5f5" stroke="transparent" points="42,-201.7 42,-224.7 163,-224.7 163,-201.7 42,-201.7"/>
<polygon fill="none" stroke="#000000" points="42,-201.7 42,-224.7 163,-224.7 163,-201.7 42,-201.7"/>
<text text-anchor="start" x="46.5711" y="-210.8" font-family="Helvetica,sans-Serif" font-weight="bold" font-size="11.00" fill="#000000">ASSAY_TYPES</text>
<text text-anchor="start" x="128.5219" y="-209.8" font-family="Helvetica,sans-Serif" font-size="11.00" fill="#000000">[table]</text>
<polygon fill="none" stroke="#000000" points="42,-179.7 42,-201.7 163,-201.7 163,-179.7 42,-179.7"/>
<image xlink:href="../../images/primaryKeys.png" width="11px" height="12px" preserveAspectRatio="xMinYMin meet" x="47" y="-196.7"/>
<text text-anchor="start" x="66" y="-186.8" font-family="Helvetica,sans-Serif" font-size="11.00" fill="#000000">ID</text>
<polygon fill="none" stroke="#000000" points="42,-160.7 42,-179.7 163,-179.7 163,-160.7 42,-160.7"/>
<text text-anchor="start" x="45" y="-166.8" font-family="Helvetica,sans-Serif" font-size="11.00" fill="#000000">...</text>
<polygon fill="#ffffff" stroke="transparent" points="42,-141.7 42,-160.7 76,-160.7 76,-141.7 42,-141.7"/>
<polygon fill="none" stroke="#000000" points="42,-141.7 42,-160.7 76,-160.7 76,-141.7 42,-141.7"/>
<text text-anchor="start" x="45" y="-147.8" font-family="Helvetica,sans-Serif" font-size="11.00" fill="#000000"> &#160;</text>
<polygon fill="#ffffff" stroke="transparent" points="76,-141.7 76,-160.7 131,-160.7 131,-141.7 76,-141.7"/>
<polygon fill="none" stroke="#000000" points="76,-141.7 76,-160.7 131,-160.7 131,-141.7 76,-141.7"/>
<text text-anchor="start" x="89.4956" y="-147.8" font-family="Helvetica,sans-Serif" font-size="11.00" fill="#000000">10 rows</text>
<polygon fill="#ffffff" stroke="transparent" points="131,-141.7 131,-160.7 163,-160.7 163,-141.7 131,-141.7"/>
<polygon fill="none" stroke="#000000" points="131,-141.7 131,-160.7 163,-160.7 163,-141.7 131,-141.7"/>
<text text-anchor="start" x="144.4053" y="-147.8" font-family="Helvetica,sans-Serif" font-size="11.00" fill="#000000">3 &gt;</text>
</a>
</g>
</g>
<!-- SUPPLEMENTS_ASSAY_TYPES_BINDING_CONSTANTS&#45;&gt;ASSAY_TYPES -->
<g id="edge1" class="edge">
<title>SUPPLEMENTS_ASSAY_TYPES_BINDING_CONSTANTS:w&#45;&gt;ASSAY_TYPES:e</title>
<path fill="none" stroke="#000000" d="M232.8112,-190.7C206.6421,-190.7 195.1276,-190.7 163,-190.7"/>
<polygon fill="#000000" stroke="#000000" points="239.5,-190.7001 247.5,-194.3 243.5,-190.7 247.5,-190.7 247.5,-190.7 247.5,-190.7 243.5,-190.7 247.5,-187.1 239.5,-190.7001 239.5,-190.7001"/>
<ellipse fill="none" stroke="#000000" cx="236.3" cy="-190.7001" rx="3.2" ry="3.2"/>
</g>
<!-- BINDING_CONSTANTS -->
<g id="node3" class="node">
<title>BINDING_CONSTANTS</title>
<g id="a_node3"><a xlink:href="../../tables/BINDING_CONSTANTS.html" xlink:title="BINDING_CONSTANTS" target="_top">
<polygon fill="#ffffff" stroke="transparent" points="18.5,-38.2 18.5,-121.2 185.5,-121.2 185.5,-38.2 18.5,-38.2"/>
<polygon fill="#f5f5f5" stroke="transparent" points="19,-97.7 19,-120.7 186,-120.7 186,-97.7 19,-97.7"/>
<polygon fill="none" stroke="#000000" points="19,-97.7 19,-120.7 186,-120.7 186,-97.7 19,-97.7"/>
<text text-anchor="start" x="24" y="-106.8" font-family="Helvetica,sans-Serif" font-weight="bold" font-size="11.00" fill="#000000">BINDING_CONSTANTS</text>
<text text-anchor="start" x="151.0437" y="-105.8" font-family="Helvetica,sans-Serif" font-size="11.00" fill="#000000">[table]</text>
<polygon fill="none" stroke="#000000" points="19,-75.7 19,-97.7 186,-97.7 186,-75.7 19,-75.7"/>
<image xlink:href="../../images/primaryKeys.png" width="11px" height="12px" preserveAspectRatio="xMinYMin meet" x="24" y="-92.7"/>
<text text-anchor="start" x="39" y="-82.8" font-family="Helvetica,sans-Serif" font-size="11.00" fill="#000000">ID</text>
<polygon fill="none" stroke="#000000" points="19,-56.7 19,-75.7 186,-75.7 186,-56.7 19,-56.7"/>
<text text-anchor="start" x="22" y="-62.8" font-family="Helvetica,sans-Serif" font-size="11.00" fill="#000000">...</text>
<polygon fill="#ffffff" stroke="transparent" points="19,-37.7 19,-56.7 79,-56.7 79,-37.7 19,-37.7"/>
<polygon fill="none" stroke="#000000" points="19,-37.7 19,-56.7 79,-56.7 79,-37.7 19,-37.7"/>
<text text-anchor="start" x="22" y="-43.8" font-family="Helvetica,sans-Serif" font-size="11.00" fill="#000000"> &#160;</text>
<polygon fill="#ffffff" stroke="transparent" points="79,-37.7 79,-56.7 141,-56.7 141,-37.7 79,-37.7"/>
<polygon fill="none" stroke="#000000" points="79,-37.7 79,-56.7 141,-56.7 141,-37.7 79,-37.7"/>
<text text-anchor="start" x="105.6105" y="-43.8" font-family="Helvetica,sans-Serif" font-size="11.00" fill="#000000">7 rows</text>
<polygon fill="#ffffff" stroke="transparent" points="141,-37.7 141,-56.7 186,-56.7 186,-37.7 141,-37.7"/>
<polygon fill="none" stroke="#000000" points="141,-37.7 141,-56.7 186,-56.7 186,-37.7 141,-37.7"/>
<text text-anchor="start" x="167.4053" y="-43.8" font-family="Helvetica,sans-Serif" font-size="11.00" fill="#000000">1 &gt;</text>
</a>
</g>
</g>
<!-- SUPPLEMENTS_ASSAY_TYPES_BINDING_CONSTANTS&#45;&gt;BINDING_CONSTANTS -->
<g id="edge2" class="edge">
<title>SUPPLEMENTS_ASSAY_TYPES_BINDING_CONSTANTS:w&#45;&gt;BINDING_CONSTANTS:e</title>
<path fill="none" stroke="#000000" d="M233.3079,-164.9636C208.3295,-148.922 225.6832,-86.7 186,-86.7"/>
<polygon fill="#000000" stroke="#000000" points="239.7636,-166.6632 246.5834,-172.1814 243.6318,-167.6816 247.5,-168.7 247.5,-168.7 247.5,-168.7 243.6318,-167.6816 248.4166,-165.2186 239.7636,-166.6632 239.7636,-166.6632"/>
<ellipse fill="none" stroke="#000000" cx="236.6691" cy="-165.8484" rx="3.2" ry="3.2"/>
</g>
<!-- SUPPLEMENTS -->
<g id="node4" class="node">
<title>SUPPLEMENTS</title>
<g id="a_node4"><a xlink:href="../../tables/SUPPLEMENTS.html" xlink:title="SUPPLEMENTS" target="_top">
<polygon fill="#ffffff" stroke="transparent" points="8,-246.2 8,-351.2 196,-351.2 196,-246.2 8,-246.2"/>
<polygon fill="#f5f5f5" stroke="transparent" points="8,-327.7 8,-350.7 196,-350.7 196,-327.7 8,-327.7"/>
<polygon fill="none" stroke="#000000" points="8,-327.7 8,-350.7 196,-350.7 196,-327.7 8,-327.7"/>
<text text-anchor="start" x="13" y="-336.8" font-family="Helvetica,sans-Serif" font-weight="bold" font-size="11.00" fill="#000000">SUPPLEMENTS</text>
<text text-anchor="start" x="161.0437" y="-335.8" font-family="Helvetica,sans-Serif" font-size="11.00" fill="#000000">[table]</text>
<polygon fill="none" stroke="#000000" points="8,-305.7 8,-327.7 196,-327.7 196,-305.7 8,-305.7"/>
<image xlink:href="../../images/primaryKeys.png" width="11px" height="12px" preserveAspectRatio="xMinYMin meet" x="13" y="-322.7"/>
<text text-anchor="start" x="28" y="-312.8" font-family="Helvetica,sans-Serif" font-size="11.00" fill="#000000">ID</text>
<polygon fill="none" stroke="#000000" points="8,-283.7 8,-305.7 196,-305.7 196,-283.7 8,-283.7"/>
<image xlink:href="../../images/foreignKeys.png" width="11px" height="12px" preserveAspectRatio="xMinYMin meet" x="13" y="-300.7"/>
<text text-anchor="start" x="28" y="-290.8" font-family="Helvetica,sans-Serif" font-size="11.00" fill="#000000">TARGET_FORM_ID</text>
<polygon fill="none" stroke="#000000" points="8,-264.7 8,-283.7 196,-283.7 196,-264.7 8,-264.7"/>
<text text-anchor="start" x="11" y="-270.8" font-family="Helvetica,sans-Serif" font-size="11.00" fill="#000000">...</text>
<polygon fill="#ffffff" stroke="transparent" points="8,-245.7 8,-264.7 80,-264.7 80,-245.7 8,-245.7"/>
<polygon fill="none" stroke="#000000" points="8,-245.7 8,-264.7 80,-264.7 80,-245.7 8,-245.7"/>
<text text-anchor="start" x="11" y="-251.8" font-family="Helvetica,sans-Serif" font-size="11.00" fill="#000000">&lt; 1</text>
<polygon fill="#ffffff" stroke="transparent" points="80,-245.7 80,-264.7 149,-264.7 149,-245.7 80,-245.7"/>
<polygon fill="none" stroke="#000000" points="80,-245.7 80,-264.7 149,-264.7 149,-245.7 80,-245.7"/>
<text text-anchor="start" x="107.4956" y="-251.8" font-family="Helvetica,sans-Serif" font-size="11.00" fill="#000000">77 rows</text>
<polygon fill="#ffffff" stroke="transparent" points="149,-245.7 149,-264.7 196,-264.7 196,-245.7 149,-245.7"/>
<polygon fill="none" stroke="#000000" points="149,-245.7 149,-264.7 196,-264.7 196,-245.7 149,-245.7"/>
<text text-anchor="start" x="177.4053" y="-251.8" font-family="Helvetica,sans-Serif" font-size="11.00" fill="#000000">5 &gt;</text>
</a>
</g>
</g>
<!-- SUPPLEMENTS_ASSAY_TYPES_BINDING_CONSTANTS&#45;&gt;SUPPLEMENTS -->
<g id="edge3" class="edge">
<title>SUPPLEMENTS_ASSAY_TYPES_BINDING_CONSTANTS:w&#45;&gt;SUPPLEMENTS:e</title>
<path fill="none" stroke="#000000" d="M233.2877,-216.6499C206.6106,-235.6468 241.5346,-316.7 196,-316.7"/>
<polygon fill="#000000" stroke="#000000" points="239.7921,-214.8422 248.464,-216.1685 243.6461,-213.7711 247.5,-212.7 247.5,-212.7 247.5,-212.7 243.6461,-213.7711 246.536,-209.2315 239.7921,-214.8422 239.7921,-214.8422"/>
<ellipse fill="none" stroke="#000000" cx="236.709" cy="-215.6991" rx="3.2" ry="3.2"/>
</g>
</g>
</svg>
