<?xml version="1.0" encoding="UTF-8" standalone="no"?>
<!DOCTYPE svg PUBLIC "-//W3C//DTD SVG 1.1//EN"
 "http://www.w3.org/Graphics/SVG/1.1/DTD/svg11.dtd">
<!-- Generated by graphviz version 2.40.1 (20161225.0304)
 -->
<!-- Title: oneDegreeRelationshipsDiagram Pages: 1 -->
<svg width="1156pt" height="813pt"
 viewBox="0.00 0.00 1156.00 813.20" xmlns="http://www.w3.org/2000/svg" xmlns:xlink="http://www.w3.org/1999/xlink">
<g id="graph0" class="graph" transform="scale(1 1) rotate(0) translate(4 809.2)">
<title>oneDegreeRelationshipsDiagram</title>
<polygon fill="#ffffff" stroke="transparent" points="-4,4 -4,-809.2 1152,-809.2 1152,4 -4,4"/>
<text text-anchor="middle" x="72.4936" y="-7.3" font-family="Helvetica,sans-Serif" font-size="11.00" fill="#000000">Generated by SchemaSpy</text>
<!-- SCREENING_PLANS -->
<g id="node1" class="node">
<title>SCREENING_PLANS</title>
<g id="a_node1"><a xlink:href="../../tables/SCREENING_PLANS.html" xlink:title="SCREENING_PLANS" target="_top">
<polygon fill="#ffffff" stroke="transparent" points="872,-652.2 872,-801.2 1038,-801.2 1038,-652.2 872,-652.2"/>
<polygon fill="#f5f5f5" stroke="transparent" points="872,-777.7 872,-800.7 1038,-800.7 1038,-777.7 872,-777.7"/>
<polygon fill="none" stroke="#000000" points="872,-777.7 872,-800.7 1038,-800.7 1038,-777.7 872,-777.7"/>
<text text-anchor="start" x="877" y="-786.8" font-family="Helvetica,sans-Serif" font-weight="bold" font-size="11.00" fill="#000000">SCREENING_PLANS</text>
<text text-anchor="start" x="1003.0437" y="-785.8" font-family="Helvetica,sans-Serif" font-size="11.00" fill="#000000">[table]</text>
<polygon fill="none" stroke="#000000" points="872,-755.7 872,-777.7 1038,-777.7 1038,-755.7 872,-755.7"/>
<image xlink:href="../../images/primaryKeys.png" width="11px" height="12px" preserveAspectRatio="xMinYMin meet" x="877" y="-772.7"/>
<text text-anchor="start" x="892" y="-762.8" font-family="Helvetica,sans-Serif" font-size="11.00" fill="#000000">ID</text>
<polygon fill="none" stroke="#000000" points="872,-733.7 872,-755.7 1038,-755.7 1038,-733.7 872,-733.7"/>
<image xlink:href="../../images/foreignKeys.png" width="11px" height="12px" preserveAspectRatio="xMinYMin meet" x="877" y="-750.7"/>
<text text-anchor="start" x="892" y="-740.8" font-family="Helvetica,sans-Serif" font-size="11.00" fill="#000000">TARGET_ID</text>
<polygon fill="none" stroke="#000000" points="872,-711.7 872,-733.7 1038,-733.7 1038,-711.7 872,-711.7"/>
<image xlink:href="../../images/foreignKeys.png" width="11px" height="12px" preserveAspectRatio="xMinYMin meet" x="877" y="-728.7"/>
<text text-anchor="start" x="892" y="-718.8" font-family="Helvetica,sans-Serif" font-size="11.00" fill="#000000">TARGET_FORM_ID</text>
<polygon fill="none" stroke="#000000" points="872,-689.7 872,-711.7 1038,-711.7 1038,-689.7 872,-689.7"/>
<image xlink:href="../../images/foreignKeys.png" width="11px" height="12px" preserveAspectRatio="xMinYMin meet" x="877" y="-706.7"/>
<text text-anchor="start" x="892" y="-696.8" font-family="Helvetica,sans-Serif" font-size="11.00" fill="#000000">SUPPLEMENT_ID</text>
<polygon fill="none" stroke="#000000" points="872,-670.7 872,-689.7 1038,-689.7 1038,-670.7 872,-670.7"/>
<text text-anchor="start" x="875" y="-676.8" font-family="Helvetica,sans-Serif" font-size="11.00" fill="#000000">...</text>
<polygon fill="#ffffff" stroke="transparent" points="872,-651.7 872,-670.7 930,-670.7 930,-651.7 872,-651.7"/>
<polygon fill="none" stroke="#000000" points="872,-651.7 872,-670.7 930,-670.7 930,-651.7 872,-651.7"/>
<text text-anchor="start" x="875" y="-657.8" font-family="Helvetica,sans-Serif" font-size="11.00" fill="#000000">&lt; 3</text>
<polygon fill="#ffffff" stroke="transparent" points="930,-651.7 930,-670.7 998,-670.7 998,-651.7 930,-651.7"/>
<polygon fill="none" stroke="#000000" points="930,-651.7 930,-670.7 998,-670.7 998,-651.7 930,-651.7"/>
<text text-anchor="start" x="950.3807" y="-657.8" font-family="Helvetica,sans-Serif" font-size="11.00" fill="#000000">137 rows</text>
<polygon fill="#ffffff" stroke="transparent" points="998,-651.7 998,-670.7 1038,-670.7 1038,-651.7 998,-651.7"/>
<polygon fill="none" stroke="#000000" points="998,-651.7 998,-670.7 1038,-670.7 1038,-651.7 998,-651.7"/>
<text text-anchor="start" x="1019.4053" y="-657.8" font-family="Helvetica,sans-Serif" font-size="11.00" fill="#000000">1 &gt;</text>
</a>
</g>
</g>
<!-- SUPPLEMENTS -->
<g id="node2" class="node">
<title>SUPPLEMENTS</title>
<g id="a_node2"><a xlink:href="../../tables/SUPPLEMENTS.html" xlink:title="SUPPLEMENTS" target="_top">
<polygon fill="#ffffff" stroke="transparent" points="358,-237.7 358,-525.7 721,-525.7 721,-237.7 358,-237.7"/>
<polygon fill="#f5f5f5" stroke="transparent" points="360.5,-500.7 360.5,-523.7 719.5,-523.7 719.5,-500.7 360.5,-500.7"/>
<polygon fill="none" stroke="#000000" points="360.5,-500.7 360.5,-523.7 719.5,-523.7 719.5,-500.7 360.5,-500.7"/>
<text text-anchor="start" x="365.5" y="-509.8" font-family="Helvetica,sans-Serif" font-weight="bold" font-size="11.00" fill="#000000">SUPPLEMENTS</text>
<text text-anchor="start" x="684.5437" y="-508.8" font-family="Helvetica,sans-Serif" font-size="11.00" fill="#000000">[table]</text>
<polygon fill="none" stroke="#000000" points="360.5,-478.7 360.5,-500.7 548.5,-500.7 548.5,-478.7 360.5,-478.7"/>
<image xlink:href="../../images/primaryKeys.png" width="11px" height="12px" preserveAspectRatio="xMinYMin meet" x="365.5" y="-495.7"/>
<text text-anchor="start" x="380.5" y="-485.8" font-family="Helvetica,sans-Serif" font-size="11.00" fill="#000000">ID</text>
<polygon fill="none" stroke="#000000" points="548.5,-478.7 548.5,-500.7 719.5,-500.7 719.5,-478.7 548.5,-478.7"/>
<text text-anchor="start" x="551.5" y="-486.4" font-family="Helvetica,sans-Serif" font-size="11.00" fill="#000000">number[19]</text>
<polygon fill="none" stroke="#000000" points="360.5,-456.7 360.5,-478.7 548.5,-478.7 548.5,-456.7 360.5,-456.7"/>
<text text-anchor="start" x="380.5" y="-463.8" font-family="Helvetica,sans-Serif" font-size="11.00" fill="#000000">CREATED_AT</text>
<polygon fill="none" stroke="#000000" points="548.5,-456.7 548.5,-478.7 719.5,-478.7 719.5,-456.7 548.5,-456.7"/>
<text text-anchor="start" x="551.4896" y="-464.4" font-family="Helvetica,sans-Serif" font-size="11.00" fill="#000000">timestamp(6) with time zone[13,6]</text>
<polygon fill="none" stroke="#000000" points="360.5,-434.7 360.5,-456.7 548.5,-456.7 548.5,-434.7 360.5,-434.7"/>
<text text-anchor="start" x="380.5" y="-441.8" font-family="Helvetica,sans-Serif" font-size="11.00" fill="#000000">CREATED_BY</text>
<polygon fill="none" stroke="#000000" points="548.5,-434.7 548.5,-456.7 719.5,-456.7 719.5,-434.7 548.5,-434.7"/>
<text text-anchor="start" x="551.5" y="-442.4" font-family="Helvetica,sans-Serif" font-size="11.00" fill="#000000">number[19]</text>
<polygon fill="none" stroke="#000000" points="360.5,-412.7 360.5,-434.7 548.5,-434.7 548.5,-412.7 360.5,-412.7"/>
<text text-anchor="start" x="380.5" y="-419.8" font-family="Helvetica,sans-Serif" font-size="11.00" fill="#000000">UPDATED_AT</text>
<polygon fill="none" stroke="#000000" points="548.5,-412.7 548.5,-434.7 719.5,-434.7 719.5,-412.7 548.5,-412.7"/>
<text text-anchor="start" x="551.4896" y="-420.4" font-family="Helvetica,sans-Serif" font-size="11.00" fill="#000000">timestamp(6) with time zone[13,6]</text>
<polygon fill="none" stroke="#000000" points="360.5,-390.7 360.5,-412.7 548.5,-412.7 548.5,-390.7 360.5,-390.7"/>
<text text-anchor="start" x="380.5" y="-397.8" font-family="Helvetica,sans-Serif" font-size="11.00" fill="#000000">UPDATED_BY</text>
<polygon fill="none" stroke="#000000" points="548.5,-390.7 548.5,-412.7 719.5,-412.7 719.5,-390.7 548.5,-390.7"/>
<text text-anchor="start" x="551.5" y="-398.4" font-family="Helvetica,sans-Serif" font-size="11.00" fill="#000000">number[19]</text>
<polygon fill="none" stroke="#000000" points="360.5,-368.7 360.5,-390.7 548.5,-390.7 548.5,-368.7 360.5,-368.7"/>
<text text-anchor="start" x="380.5" y="-375.8" font-family="Helvetica,sans-Serif" font-size="11.00" fill="#000000">SMILE_STRING</text>
<polygon fill="none" stroke="#000000" points="548.5,-368.7 548.5,-390.7 719.5,-390.7 719.5,-368.7 548.5,-368.7"/>
<text text-anchor="start" x="551.5" y="-376.4" font-family="Helvetica,sans-Serif" font-size="11.00" fill="#000000">clob[4000]</text>
<polygon fill="none" stroke="#000000" points="360.5,-346.7 360.5,-368.7 548.5,-368.7 548.5,-346.7 360.5,-346.7"/>
<text text-anchor="start" x="380.5" y="-353.8" font-family="Helvetica,sans-Serif" font-size="11.00" fill="#000000">NURIX_ID</text>
<polygon fill="none" stroke="#000000" points="548.5,-346.7 548.5,-368.7 719.5,-368.7 719.5,-346.7 548.5,-346.7"/>
<text text-anchor="start" x="551.5" y="-354.4" font-family="Helvetica,sans-Serif" font-size="11.00" fill="#000000">varchar2[255]</text>
<polygon fill="none" stroke="#000000" points="360.5,-324.7 360.5,-346.7 548.5,-346.7 548.5,-324.7 360.5,-324.7"/>
<text text-anchor="start" x="380.5" y="-331.8" font-family="Helvetica,sans-Serif" font-size="11.00" fill="#000000">STRUCTURE_IMAGE_LINK</text>
<polygon fill="none" stroke="#000000" points="548.5,-324.7 548.5,-346.7 719.5,-346.7 719.5,-324.7 548.5,-324.7"/>
<text text-anchor="start" x="551.5" y="-332.4" font-family="Helvetica,sans-Serif" font-size="11.00" fill="#000000">varchar2[2000]</text>
<polygon fill="none" stroke="#000000" points="360.5,-302.7 360.5,-324.7 548.5,-324.7 548.5,-302.7 360.5,-302.7"/>
<text text-anchor="start" x="380.5" y="-309.8" font-family="Helvetica,sans-Serif" font-size="11.00" fill="#000000">ALIAS</text>
<polygon fill="none" stroke="#000000" points="548.5,-302.7 548.5,-324.7 719.5,-324.7 719.5,-302.7 548.5,-302.7"/>
<text text-anchor="start" x="551.5" y="-310.4" font-family="Helvetica,sans-Serif" font-size="11.00" fill="#000000">varchar2[255]</text>
<polygon fill="none" stroke="#000000" points="360.5,-280.7 360.5,-302.7 548.5,-302.7 548.5,-280.7 360.5,-280.7"/>
<text text-anchor="start" x="380.5" y="-287.8" font-family="Helvetica,sans-Serif" font-size="11.00" fill="#000000">IS_DELETED</text>
<polygon fill="none" stroke="#000000" points="548.5,-280.7 548.5,-302.7 719.5,-302.7 719.5,-280.7 548.5,-280.7"/>
<text text-anchor="start" x="551.5" y="-288.4" font-family="Helvetica,sans-Serif" font-size="11.00" fill="#000000">number[1]</text>
<polygon fill="none" stroke="#000000" points="360.5,-258.7 360.5,-280.7 548.5,-280.7 548.5,-258.7 360.5,-258.7"/>
<image xlink:href="../../images/foreignKeys.png" width="11px" height="12px" preserveAspectRatio="xMinYMin meet" x="365.5" y="-275.7"/>
<text text-anchor="start" x="380.5" y="-265.8" font-family="Helvetica,sans-Serif" font-size="11.00" fill="#000000">TARGET_FORM_ID</text>
<polygon fill="none" stroke="#000000" points="548.5,-258.7 548.5,-280.7 719.5,-280.7 719.5,-258.7 548.5,-258.7"/>
<text text-anchor="start" x="551.5" y="-266.4" font-family="Helvetica,sans-Serif" font-size="11.00" fill="#000000">number[19]</text>
<polygon fill="#ffffff" stroke="transparent" points="360.5,-239.7 360.5,-258.7 442.5,-258.7 442.5,-239.7 360.5,-239.7"/>
<polygon fill="none" stroke="#000000" points="360.5,-239.7 360.5,-258.7 442.5,-258.7 442.5,-239.7 360.5,-239.7"/>
<text text-anchor="start" x="363.5" y="-245.8" font-family="Helvetica,sans-Serif" font-size="11.00" fill="#000000">&lt; 1</text>
<polygon fill="#ffffff" stroke="transparent" points="442.5,-239.7 442.5,-258.7 548.5,-258.7 548.5,-239.7 442.5,-239.7"/>
<polygon fill="none" stroke="#000000" points="442.5,-239.7 442.5,-258.7 548.5,-258.7 548.5,-239.7 442.5,-239.7"/>
<text text-anchor="start" x="506.9956" y="-245.8" font-family="Helvetica,sans-Serif" font-size="11.00" fill="#000000">77 rows</text>
<polygon fill="#ffffff" stroke="transparent" points="548.5,-239.7 548.5,-258.7 719.5,-258.7 719.5,-239.7 548.5,-239.7"/>
<polygon fill="none" stroke="#000000" points="548.5,-239.7 548.5,-258.7 719.5,-258.7 719.5,-239.7 548.5,-239.7"/>
<text text-anchor="start" x="700.9053" y="-245.8" font-family="Helvetica,sans-Serif" font-size="11.00" fill="#000000">5 &gt;</text>
<polygon fill="none" stroke="#000000" stroke-width="2" points="359,-238.7 359,-524.7 720,-524.7 720,-238.7 359,-238.7"/>
</a>
</g>
</g>
<!-- SCREENING_PLANS&#45;&gt;SUPPLEMENTS -->
<g id="edge1" class="edge">
<title>SCREENING_PLANS:w&#45;&gt;SUPPLEMENTS:e</title>
<path fill="none" stroke="#000000" d="M857.5842,-700.2937C812.7567,-697.5837 793.5074,-681.0179 762,-641.7 718.1348,-586.9607 789.6466,-489.7 719.5,-489.7"/>
<polygon fill="#000000" stroke="#000000" points="864.0032,-700.4746 871.8986,-704.2986 868.0016,-700.5873 872,-700.7 872,-700.7 872,-700.7 868.0016,-700.5873 872.1014,-697.1014 864.0032,-700.4746 864.0032,-700.4746"/>
<ellipse fill="none" stroke="#000000" cx="860.8044" cy="-700.3844" rx="3.2" ry="3.2"/>
</g>
<!-- TARGET_FORMS -->
<g id="node3" class="node">
<title>TARGET_FORMS</title>
<g id="a_node3"><a xlink:href="../../tables/TARGET_FORMS.html" xlink:title="TARGET_FORMS" target="_top">
<polygon fill="#ffffff" stroke="transparent" points="8,-294.2 8,-487.2 309,-487.2 309,-294.2 8,-294.2"/>
<polygon fill="#f5f5f5" stroke="transparent" points="8.5,-463.7 8.5,-486.7 309.5,-486.7 309.5,-463.7 8.5,-463.7"/>
<polygon fill="none" stroke="#000000" points="8.5,-463.7 8.5,-486.7 309.5,-486.7 309.5,-463.7 8.5,-463.7"/>
<text text-anchor="start" x="13.5" y="-472.8" font-family="Helvetica,sans-Serif" font-weight="bold" font-size="11.00" fill="#000000">TARGET_FORMS</text>
<text text-anchor="start" x="274.5437" y="-471.8" font-family="Helvetica,sans-Serif" font-size="11.00" fill="#000000">[table]</text>
<polygon fill="none" stroke="#000000" points="8.5,-441.7 8.5,-463.7 309.5,-463.7 309.5,-441.7 8.5,-441.7"/>
<image xlink:href="../../images/primaryKeys.png" width="11px" height="12px" preserveAspectRatio="xMinYMin meet" x="13.5" y="-458.7"/>
<text text-anchor="start" x="28.5" y="-448.8" font-family="Helvetica,sans-Serif" font-size="11.00" fill="#000000">ID</text>
<polygon fill="none" stroke="#000000" points="8.5,-419.7 8.5,-441.7 309.5,-441.7 309.5,-419.7 8.5,-419.7"/>
<image xlink:href="../../images/foreignKeys.png" width="11px" height="12px" preserveAspectRatio="xMinYMin meet" x="13.5" y="-436.7"/>
<text text-anchor="start" x="28.5" y="-426.8" font-family="Helvetica,sans-Serif" font-size="11.00" fill="#000000">TARGET_ID</text>
<polygon fill="none" stroke="#000000" points="8.5,-397.7 8.5,-419.7 309.5,-419.7 309.5,-397.7 8.5,-397.7"/>
<image xlink:href="../../images/foreignKeys.png" width="11px" height="12px" preserveAspectRatio="xMinYMin meet" x="13.5" y="-414.7"/>
<text text-anchor="start" x="28.5" y="-404.8" font-family="Helvetica,sans-Serif" font-size="11.00" fill="#000000">SPECIES_ID</text>
<polygon fill="none" stroke="#000000" points="8.5,-375.7 8.5,-397.7 309.5,-397.7 309.5,-375.7 8.5,-375.7"/>
<image xlink:href="../../images/foreignKeys.png" width="11px" height="12px" preserveAspectRatio="xMinYMin meet" x="13.5" y="-392.7"/>
<text text-anchor="start" x="28.5" y="-382.8" font-family="Helvetica,sans-Serif" font-size="11.00" fill="#000000">POST_TRANSLATIONAL_MODIFICATION_ID</text>
<polygon fill="none" stroke="#000000" points="8.5,-353.7 8.5,-375.7 309.5,-375.7 309.5,-353.7 8.5,-353.7"/>
<image xlink:href="../../images/foreignKeys.png" width="11px" height="12px" preserveAspectRatio="xMinYMin meet" x="13.5" y="-370.7"/>
<text text-anchor="start" x="28.5" y="-360.8" font-family="Helvetica,sans-Serif" font-size="11.00" fill="#000000">ISOFORM_ID</text>
<polygon fill="none" stroke="#000000" points="8.5,-331.7 8.5,-353.7 309.5,-353.7 309.5,-331.7 8.5,-331.7"/>
<image xlink:href="../../images/foreignKeys.png" width="11px" height="12px" preserveAspectRatio="xMinYMin meet" x="13.5" y="-348.7"/>
<text text-anchor="start" x="28.5" y="-338.8" font-family="Helvetica,sans-Serif" font-size="11.00" fill="#000000">EXPRESSION_SYSTEM_ID</text>
<polygon fill="none" stroke="#000000" points="8.5,-312.7 8.5,-331.7 309.5,-331.7 309.5,-312.7 8.5,-312.7"/>
<text text-anchor="start" x="11.5" y="-318.8" font-family="Helvetica,sans-Serif" font-size="11.00" fill="#000000">...</text>
<polygon fill="#ffffff" stroke="transparent" points="8.5,-293.7 8.5,-312.7 130.5,-312.7 130.5,-293.7 8.5,-293.7"/>
<polygon fill="none" stroke="#000000" points="8.5,-293.7 8.5,-312.7 130.5,-312.7 130.5,-293.7 8.5,-293.7"/>
<text text-anchor="start" x="11.5" y="-299.8" font-family="Helvetica,sans-Serif" font-size="11.00" fill="#000000">&lt; 5</text>
<polygon fill="#ffffff" stroke="transparent" points="130.5,-293.7 130.5,-312.7 231.5,-312.7 231.5,-293.7 130.5,-293.7"/>
<polygon fill="none" stroke="#000000" points="130.5,-293.7 130.5,-312.7 231.5,-312.7 231.5,-293.7 130.5,-293.7"/>
<text text-anchor="start" x="183.8807" y="-299.8" font-family="Helvetica,sans-Serif" font-size="11.00" fill="#000000">541 rows</text>
<polygon fill="#ffffff" stroke="transparent" points="231.5,-293.7 231.5,-312.7 309.5,-312.7 309.5,-293.7 231.5,-293.7"/>
<polygon fill="none" stroke="#000000" points="231.5,-293.7 231.5,-312.7 309.5,-312.7 309.5,-293.7 231.5,-293.7"/>
<text text-anchor="start" x="284.7904" y="-299.8" font-family="Helvetica,sans-Serif" font-size="11.00" fill="#000000">18 &gt;</text>
</a>
</g>
</g>
<!-- SCREENING_PLANS&#45;&gt;TARGET_FORMS -->
<g id="edge2" class="edge">
<title>SCREENING_PLANS:w&#45;&gt;TARGET_FORMS:e</title>
<path fill="none" stroke="#000000" d="M857.3912,-722.6733C621.9721,-721.7855 529.5447,-697.9982 350,-536.7 319.1685,-509.0017 350.9461,-452.7 309.5,-452.7"/>
<polygon fill="#000000" stroke="#000000" points="864,-722.6853 871.9934,-726.3 868,-722.6927 872,-722.7 872,-722.7 872,-722.7 868,-722.6927 872.0066,-719.1 864,-722.6853 864,-722.6853"/>
<ellipse fill="none" stroke="#000000" cx="860.8" cy="-722.6794" rx="3.2" ry="3.2"/>
</g>
<!-- SUPPLEMENTS&#45;&gt;TARGET_FORMS -->
<g id="edge3" class="edge">
<title>SUPPLEMENTS:w&#45;&gt;TARGET_FORMS:e</title>
<path fill="none" stroke="#000000" d="M346.2372,-272.0138C290.8292,-293.1977 388.3259,-452.7 309.5,-452.7"/>
<polygon fill="#000000" stroke="#000000" points="352.6032,-270.9811 361.0765,-273.2535 356.5516,-270.3406 360.5,-269.7 360.5,-269.7 360.5,-269.7 356.5516,-270.3406 359.9235,-266.1465 352.6032,-270.9811 352.6032,-270.9811"/>
<ellipse fill="none" stroke="#000000" cx="349.4445" cy="-271.4936" rx="3.2" ry="3.2"/>
</g>
<!-- SUPPLEMENTS_ASSAY_TYPES_BINDING_CONSTANTS -->
<g id="node4" class="node">
<title>SUPPLEMENTS_ASSAY_TYPES_BINDING_CONSTANTS</title>
<g id="a_node4"><a xlink:href="../../tables/SUPPLEMENTS_ASSAY_TYPES_BINDING_CONSTANTS.html" xlink:title="SUPPLEMENTS_ASSAY_TYPES_BINDING_CONSTANTS" target="_top">
<polygon fill="#ffffff" stroke="transparent" points="770,-482.2 770,-631.2 1140,-631.2 1140,-482.2 770,-482.2"/>
<polygon fill="#f5f5f5" stroke="transparent" points="770,-607.7 770,-630.7 1140,-630.7 1140,-607.7 770,-607.7"/>
<polygon fill="none" stroke="#000000" points="770,-607.7 770,-630.7 1140,-630.7 1140,-607.7 770,-607.7"/>
<text text-anchor="start" x="775" y="-616.8" font-family="Helvetica,sans-Serif" font-weight="bold" font-size="11.00" fill="#000000">SUPPLEMENTS_ASSAY_TYPES_BINDING_CONSTANTS</text>
<text text-anchor="start" x="1105.0437" y="-615.8" font-family="Helvetica,sans-Serif" font-size="11.00" fill="#000000">[table]</text>
<polygon fill="none" stroke="#000000" points="770,-585.7 770,-607.7 1140,-607.7 1140,-585.7 770,-585.7"/>
<image xlink:href="../../images/primaryKeys.png" width="11px" height="12px" preserveAspectRatio="xMinYMin meet" x="775" y="-602.7"/>
<text text-anchor="start" x="790" y="-592.8" font-family="Helvetica,sans-Serif" font-size="11.00" fill="#000000">ID</text>
<polygon fill="none" stroke="#000000" points="770,-563.7 770,-585.7 1140,-585.7 1140,-563.7 770,-563.7"/>
<image xlink:href="../../images/foreignKeys.png" width="11px" height="12px" preserveAspectRatio="xMinYMin meet" x="775" y="-580.7"/>
<text text-anchor="start" x="790" y="-570.8" font-family="Helvetica,sans-Serif" font-size="11.00" fill="#000000">SUPPLEMENT_ID</text>
<polygon fill="none" stroke="#000000" points="770,-541.7 770,-563.7 1140,-563.7 1140,-541.7 770,-541.7"/>
<image xlink:href="../../images/foreignKeys.png" width="11px" height="12px" preserveAspectRatio="xMinYMin meet" x="775" y="-558.7"/>
<text text-anchor="start" x="790" y="-548.8" font-family="Helvetica,sans-Serif" font-size="11.00" fill="#000000">ASSAY_TYPE_ID</text>
<polygon fill="none" stroke="#000000" points="770,-519.7 770,-541.7 1140,-541.7 1140,-519.7 770,-519.7"/>
<image xlink:href="../../images/foreignKeys.png" width="11px" height="12px" preserveAspectRatio="xMinYMin meet" x="775" y="-536.7"/>
<text text-anchor="start" x="790" y="-526.8" font-family="Helvetica,sans-Serif" font-size="11.00" fill="#000000">BINDING_CONSTANT_ID</text>
<polygon fill="none" stroke="#000000" points="770,-500.7 770,-519.7 1140,-519.7 1140,-500.7 770,-500.7"/>
<text text-anchor="start" x="773" y="-506.8" font-family="Helvetica,sans-Serif" font-size="11.00" fill="#000000">...</text>
<polygon fill="#ffffff" stroke="transparent" points="770,-481.7 770,-500.7 937,-500.7 937,-481.7 770,-481.7"/>
<polygon fill="none" stroke="#000000" points="770,-481.7 770,-500.7 937,-500.7 937,-481.7 770,-481.7"/>
<text text-anchor="start" x="773" y="-487.8" font-family="Helvetica,sans-Serif" font-size="11.00" fill="#000000">&lt; 3</text>
<polygon fill="#ffffff" stroke="transparent" points="937,-481.7 937,-500.7 1054,-500.7 1054,-481.7 937,-481.7"/>
<polygon fill="none" stroke="#000000" points="937,-481.7 937,-500.7 1054,-500.7 1054,-481.7 937,-481.7"/>
<text text-anchor="start" x="1012.4956" y="-487.8" font-family="Helvetica,sans-Serif" font-size="11.00" fill="#000000">62 rows</text>
<polygon fill="#ffffff" stroke="transparent" points="1054,-481.7 1054,-500.7 1140,-500.7 1140,-481.7 1054,-481.7"/>
<polygon fill="none" stroke="#000000" points="1054,-481.7 1054,-500.7 1140,-500.7 1140,-481.7 1054,-481.7"/>
<text text-anchor="start" x="1130.8862" y="-487.8" font-family="Helvetica,sans-Serif" font-size="11.00" fill="#000000"> &#160;</text>
</a>
</g>
</g>
<!-- SUPPLEMENTS_ASSAY_TYPES_BINDING_CONSTANTS&#45;&gt;SUPPLEMENTS -->
<g id="edge4" class="edge">
<title>SUPPLEMENTS_ASSAY_TYPES_BINDING_CONSTANTS:w&#45;&gt;SUPPLEMENTS:e</title>
<path fill="none" stroke="#000000" d="M756.1216,-570.368C734.76,-553.0466 757.4344,-489.7 719.5,-489.7"/>
<polygon fill="#000000" stroke="#000000" points="762.3634,-572.3163 768.9273,-578.1365 766.1817,-573.5081 770,-574.7 770,-574.7 770,-574.7 766.1817,-573.5081 771.0727,-571.2635 762.3634,-572.3163 762.3634,-572.3163"/>
<ellipse fill="none" stroke="#000000" cx="759.3087" cy="-571.3628" rx="3.2" ry="3.2"/>
</g>
<!-- SUPPLEMENTS_ISOFORM_DOMAINS -->
<g id="node5" class="node">
<title>SUPPLEMENTS_ISOFORM_DOMAINS</title>
<g id="a_node5"><a xlink:href="../../tables/SUPPLEMENTS_ISOFORM_DOMAINS.html" xlink:title="SUPPLEMENTS_ISOFORM_DOMAINS" target="_top">
<polygon fill="#ffffff" stroke="transparent" points="825.5,-334.2 825.5,-461.2 1084.5,-461.2 1084.5,-334.2 825.5,-334.2"/>
<polygon fill="#f5f5f5" stroke="transparent" points="826,-437.7 826,-460.7 1085,-460.7 1085,-437.7 826,-437.7"/>
<polygon fill="none" stroke="#000000" points="826,-437.7 826,-460.7 1085,-460.7 1085,-437.7 826,-437.7"/>
<text text-anchor="start" x="831" y="-446.8" font-family="Helvetica,sans-Serif" font-weight="bold" font-size="11.00" fill="#000000">SUPPLEMENTS_ISOFORM_DOMAINS</text>
<text text-anchor="start" x="1050.0437" y="-445.8" font-family="Helvetica,sans-Serif" font-size="11.00" fill="#000000">[table]</text>
<polygon fill="none" stroke="#000000" points="826,-415.7 826,-437.7 1085,-437.7 1085,-415.7 826,-415.7"/>
<image xlink:href="../../images/primaryKeys.png" width="11px" height="12px" preserveAspectRatio="xMinYMin meet" x="831" y="-432.7"/>
<text text-anchor="start" x="846" y="-422.8" font-family="Helvetica,sans-Serif" font-size="11.00" fill="#000000">ID</text>
<polygon fill="none" stroke="#000000" points="826,-393.7 826,-415.7 1085,-415.7 1085,-393.7 826,-393.7"/>
<image xlink:href="../../images/foreignKeys.png" width="11px" height="12px" preserveAspectRatio="xMinYMin meet" x="831" y="-410.7"/>
<text text-anchor="start" x="846" y="-400.8" font-family="Helvetica,sans-Serif" font-size="11.00" fill="#000000">SUPPLEMENT_ID</text>
<polygon fill="none" stroke="#000000" points="826,-371.7 826,-393.7 1085,-393.7 1085,-371.7 826,-371.7"/>
<image xlink:href="../../images/foreignKeys.png" width="11px" height="12px" preserveAspectRatio="xMinYMin meet" x="831" y="-388.7"/>
<text text-anchor="start" x="846" y="-378.8" font-family="Helvetica,sans-Serif" font-size="11.00" fill="#000000">ISOFORM_DOMAIN_ID</text>
<polygon fill="none" stroke="#000000" points="826,-352.7 826,-371.7 1085,-371.7 1085,-352.7 826,-352.7"/>
<text text-anchor="start" x="829" y="-358.8" font-family="Helvetica,sans-Serif" font-size="11.00" fill="#000000">...</text>
<polygon fill="#ffffff" stroke="transparent" points="826,-333.7 826,-352.7 938,-352.7 938,-333.7 826,-333.7"/>
<polygon fill="none" stroke="#000000" points="826,-333.7 826,-352.7 938,-352.7 938,-333.7 826,-333.7"/>
<text text-anchor="start" x="829" y="-339.8" font-family="Helvetica,sans-Serif" font-size="11.00" fill="#000000">&lt; 2</text>
<polygon fill="#ffffff" stroke="transparent" points="938,-333.7 938,-352.7 1027,-352.7 1027,-333.7 938,-333.7"/>
<polygon fill="none" stroke="#000000" points="938,-333.7 938,-352.7 1027,-352.7 1027,-333.7 938,-333.7"/>
<text text-anchor="start" x="985.4956" y="-339.8" font-family="Helvetica,sans-Serif" font-size="11.00" fill="#000000">50 rows</text>
<polygon fill="#ffffff" stroke="transparent" points="1027,-333.7 1027,-352.7 1085,-352.7 1085,-333.7 1027,-333.7"/>
<polygon fill="none" stroke="#000000" points="1027,-333.7 1027,-352.7 1085,-352.7 1085,-333.7 1027,-333.7"/>
<text text-anchor="start" x="1075.8862" y="-339.8" font-family="Helvetica,sans-Serif" font-size="11.00" fill="#000000"> &#160;</text>
</a>
</g>
</g>
<!-- SUPPLEMENTS_ISOFORM_DOMAINS&#45;&gt;SUPPLEMENTS -->
<g id="edge5" class="edge">
<title>SUPPLEMENTS_ISOFORM_DOMAINS:w&#45;&gt;SUPPLEMENTS:e</title>
<path fill="none" stroke="#000000" d="M811.672,-406.5544C767.4287,-418.9848 774.738,-489.7 719.5,-489.7"/>
<polygon fill="#000000" stroke="#000000" points="818.0662,-405.7269 826.4621,-408.2702 822.0331,-405.2134 826,-404.7 826,-404.7 826,-404.7 822.0331,-405.2134 825.5379,-401.1298 818.0662,-405.7269 818.0662,-405.7269"/>
<ellipse fill="none" stroke="#000000" cx="814.8926" cy="-406.1376" rx="3.2" ry="3.2"/>
</g>
<!-- SUPPLEMENTS_REFERENCES -->
<g id="node6" class="node">
<title>SUPPLEMENTS_REFERENCES</title>
<g id="a_node6"><a xlink:href="../../tables/SUPPLEMENTS_REFERENCES.html" xlink:title="SUPPLEMENTS_REFERENCES" target="_top">
<polygon fill="#ffffff" stroke="transparent" points="849,-186.2 849,-313.2 1061,-313.2 1061,-186.2 849,-186.2"/>
<polygon fill="#f5f5f5" stroke="transparent" points="849,-289.7 849,-312.7 1061,-312.7 1061,-289.7 849,-289.7"/>
<polygon fill="none" stroke="#000000" points="849,-289.7 849,-312.7 1061,-312.7 1061,-289.7 849,-289.7"/>
<text text-anchor="start" x="854" y="-298.8" font-family="Helvetica,sans-Serif" font-weight="bold" font-size="11.00" fill="#000000">SUPPLEMENTS_REFERENCES</text>
<text text-anchor="start" x="1026.0437" y="-297.8" font-family="Helvetica,sans-Serif" font-size="11.00" fill="#000000">[table]</text>
<polygon fill="none" stroke="#000000" points="849,-267.7 849,-289.7 1061,-289.7 1061,-267.7 849,-267.7"/>
<image xlink:href="../../images/primaryKeys.png" width="11px" height="12px" preserveAspectRatio="xMinYMin meet" x="854" y="-284.7"/>
<text text-anchor="start" x="869" y="-274.8" font-family="Helvetica,sans-Serif" font-size="11.00" fill="#000000">ID</text>
<polygon fill="none" stroke="#000000" points="849,-245.7 849,-267.7 1061,-267.7 1061,-245.7 849,-245.7"/>
<image xlink:href="../../images/foreignKeys.png" width="11px" height="12px" preserveAspectRatio="xMinYMin meet" x="854" y="-262.7"/>
<text text-anchor="start" x="869" y="-252.8" font-family="Helvetica,sans-Serif" font-size="11.00" fill="#000000">SUPPLEMENT_ID</text>
<polygon fill="none" stroke="#000000" points="849,-223.7 849,-245.7 1061,-245.7 1061,-223.7 849,-223.7"/>
<image xlink:href="../../images/foreignKeys.png" width="11px" height="12px" preserveAspectRatio="xMinYMin meet" x="854" y="-240.7"/>
<text text-anchor="start" x="869" y="-230.8" font-family="Helvetica,sans-Serif" font-size="11.00" fill="#000000">REFERENCE_ID</text>
<polygon fill="none" stroke="#000000" points="849,-204.7 849,-223.7 1061,-223.7 1061,-204.7 849,-204.7"/>
<text text-anchor="start" x="852" y="-210.8" font-family="Helvetica,sans-Serif" font-size="11.00" fill="#000000">...</text>
<polygon fill="#ffffff" stroke="transparent" points="849,-185.7 849,-204.7 937,-204.7 937,-185.7 849,-185.7"/>
<polygon fill="none" stroke="#000000" points="849,-185.7 849,-204.7 937,-204.7 937,-185.7 849,-185.7"/>
<text text-anchor="start" x="852" y="-191.8" font-family="Helvetica,sans-Serif" font-size="11.00" fill="#000000">&lt; 2</text>
<polygon fill="#ffffff" stroke="transparent" points="937,-185.7 937,-204.7 1015,-204.7 1015,-185.7 937,-185.7"/>
<polygon fill="none" stroke="#000000" points="937,-185.7 937,-204.7 1015,-204.7 1015,-185.7 937,-185.7"/>
<text text-anchor="start" x="973.4956" y="-191.8" font-family="Helvetica,sans-Serif" font-size="11.00" fill="#000000">43 rows</text>
<polygon fill="#ffffff" stroke="transparent" points="1015,-185.7 1015,-204.7 1061,-204.7 1061,-185.7 1015,-185.7"/>
<polygon fill="none" stroke="#000000" points="1015,-185.7 1015,-204.7 1061,-204.7 1061,-185.7 1015,-185.7"/>
<text text-anchor="start" x="1051.8862" y="-191.8" font-family="Helvetica,sans-Serif" font-size="11.00" fill="#000000"> &#160;</text>
</a>
</g>
</g>
<!-- SUPPLEMENTS_REFERENCES&#45;&gt;SUPPLEMENTS -->
<g id="edge6" class="edge">
<title>SUPPLEMENTS_REFERENCES:w&#45;&gt;SUPPLEMENTS:e</title>
<path fill="none" stroke="#000000" d="M834.2613,-257.6266C797.5289,-262.615 785.9146,-287.4042 762,-323.7 720.0989,-387.2944 795.6574,-489.7 719.5,-489.7"/>
<polygon fill="#000000" stroke="#000000" points="841.0158,-257.202 849.2259,-260.2929 845.0079,-256.951 849,-256.7 849,-256.7 849,-256.7 845.0079,-256.951 848.7741,-253.1071 841.0158,-257.202 841.0158,-257.202"/>
<ellipse fill="none" stroke="#000000" cx="837.8221" cy="-257.4028" rx="3.2" ry="3.2"/>
</g>
<!-- VERSIONS_SUPPLEMENTS -->
<g id="node7" class="node">
<title>VERSIONS_SUPPLEMENTS</title>
<g id="a_node7"><a xlink:href="../../tables/VERSIONS_SUPPLEMENTS.html" xlink:title="VERSIONS_SUPPLEMENTS" target="_top">
<polygon fill="#ffffff" stroke="transparent" points="858,-38.2 858,-165.2 1052,-165.2 1052,-38.2 858,-38.2"/>
<polygon fill="#f5f5f5" stroke="transparent" points="858,-141.7 858,-164.7 1052,-164.7 1052,-141.7 858,-141.7"/>
<polygon fill="none" stroke="#000000" points="858,-141.7 858,-164.7 1052,-164.7 1052,-141.7 858,-141.7"/>
<text text-anchor="start" x="863" y="-150.8" font-family="Helvetica,sans-Serif" font-weight="bold" font-size="11.00" fill="#000000">VERSIONS_SUPPLEMENTS</text>
<text text-anchor="start" x="1017.0437" y="-149.8" font-family="Helvetica,sans-Serif" font-size="11.00" fill="#000000">[table]</text>
<polygon fill="none" stroke="#000000" points="858,-119.7 858,-141.7 1052,-141.7 1052,-119.7 858,-119.7"/>
<image xlink:href="../../images/primaryKeys.png" width="11px" height="12px" preserveAspectRatio="xMinYMin meet" x="863" y="-136.7"/>
<text text-anchor="start" x="878" y="-126.8" font-family="Helvetica,sans-Serif" font-size="11.00" fill="#000000">ID</text>
<polygon fill="none" stroke="#000000" points="858,-97.7 858,-119.7 1052,-119.7 1052,-97.7 858,-97.7"/>
<image xlink:href="../../images/primaryKeys.png" width="11px" height="12px" preserveAspectRatio="xMinYMin meet" x="863" y="-114.7"/>
<text text-anchor="start" x="878" y="-104.8" font-family="Helvetica,sans-Serif" font-size="11.00" fill="#000000">VERSION_ID</text>
<polygon fill="none" stroke="#000000" points="858,-75.7 858,-97.7 1052,-97.7 1052,-75.7 858,-75.7"/>
<image xlink:href="../../images/primaryKeys.png" width="11px" height="12px" preserveAspectRatio="xMinYMin meet" x="863" y="-92.7"/>
<text text-anchor="start" x="878" y="-82.8" font-family="Helvetica,sans-Serif" font-size="11.00" fill="#000000">SUPPLEMENT_ID</text>
<polygon fill="none" stroke="#000000" points="858,-56.7 858,-75.7 1052,-75.7 1052,-56.7 858,-56.7"/>
<text text-anchor="start" x="861" y="-62.8" font-family="Helvetica,sans-Serif" font-size="11.00" fill="#000000">...</text>
<polygon fill="#ffffff" stroke="transparent" points="858,-37.7 858,-56.7 934,-56.7 934,-37.7 858,-37.7"/>
<polygon fill="none" stroke="#000000" points="858,-37.7 858,-56.7 934,-56.7 934,-37.7 858,-37.7"/>
<text text-anchor="start" x="861" y="-43.8" font-family="Helvetica,sans-Serif" font-size="11.00" fill="#000000">&lt; 2</text>
<polygon fill="#ffffff" stroke="transparent" points="934,-37.7 934,-56.7 1012,-56.7 1012,-37.7 934,-37.7"/>
<polygon fill="none" stroke="#000000" points="934,-37.7 934,-56.7 1012,-56.7 1012,-37.7 934,-37.7"/>
<text text-anchor="start" x="964.3807" y="-43.8" font-family="Helvetica,sans-Serif" font-size="11.00" fill="#000000">190 rows</text>
<polygon fill="#ffffff" stroke="transparent" points="1012,-37.7 1012,-56.7 1052,-56.7 1052,-37.7 1012,-37.7"/>
<polygon fill="none" stroke="#000000" points="1012,-37.7 1012,-56.7 1052,-56.7 1052,-37.7 1012,-37.7"/>
<text text-anchor="start" x="1042.8862" y="-43.8" font-family="Helvetica,sans-Serif" font-size="11.00" fill="#000000"> &#160;</text>
</a>
</g>
</g>
<!-- VERSIONS_SUPPLEMENTS&#45;&gt;SUPPLEMENTS -->
<g id="edge7" class="edge">
<title>VERSIONS_SUPPLEMENTS:w&#45;&gt;SUPPLEMENTS:e</title>
<path fill="none" stroke="#000000" d="M843.4149,-87.588C797.7127,-93.5289 786.4003,-128.7024 762,-175.7 729.5545,-238.1934 789.914,-489.7 719.5,-489.7"/>
<polygon fill="#000000" stroke="#000000" points="850.0148,-87.1862 858.2188,-90.2933 854.0074,-86.9431 858,-86.7 858,-86.7 858,-86.7 854.0074,-86.9431 857.7812,-83.1067 850.0148,-87.1862 850.0148,-87.1862"/>
<ellipse fill="none" stroke="#000000" cx="846.8207" cy="-87.3807" rx="3.2" ry="3.2"/>
</g>
</g>
</svg>
