<?xml version="1.0" encoding="UTF-8" standalone="no"?>
<!DOCTYPE svg PUBLIC "-//W3C//DTD SVG 1.1//EN"
 "http://www.w3.org/Graphics/SVG/1.1/DTD/svg11.dtd">
<!-- Generated by graphviz version 2.40.1 (20161225.0304)
 -->
<!-- Title: oneDegreeRelationshipsDiagram Pages: 1 -->
<svg width="695pt" height="341pt"
 viewBox="0.00 0.00 695.00 340.70" xmlns="http://www.w3.org/2000/svg" xmlns:xlink="http://www.w3.org/1999/xlink">
<g id="graph0" class="graph" transform="scale(1 1) rotate(0) translate(4 336.7)">
<title>oneDegreeRelationshipsDiagram</title>
<polygon fill="#ffffff" stroke="transparent" points="-4,4 -4,-336.7 691,-336.7 691,4 -4,4"/>
<text text-anchor="middle" x="72.4936" y="-7.3" font-family="Helvetica,sans-Serif" font-size="11.00" fill="#000000">Generated by SchemaSpy</text>
<!-- SUPPLEMENTS_ISOFORM_DOMAINS -->
<g id="node1" class="node">
<title>SUPPLEMENTS_ISOFORM_DOMAINS</title>
<g id="a_node1"><a xlink:href="../../tables/SUPPLEMENTS_ISOFORM_DOMAINS.html" xlink:title="SUPPLEMENTS_ISOFORM_DOMAINS" target="_top">
<polygon fill="#ffffff" stroke="transparent" points="245,-106.7 245,-328.7 679,-328.7 679,-106.7 245,-106.7"/>
<polygon fill="#f5f5f5" stroke="transparent" points="247,-303.7 247,-326.7 677,-326.7 677,-303.7 247,-303.7"/>
<polygon fill="none" stroke="#000000" points="247,-303.7 247,-326.7 677,-326.7 677,-303.7 247,-303.7"/>
<text text-anchor="start" x="252" y="-312.8" font-family="Helvetica,sans-Serif" font-weight="bold" font-size="11.00" fill="#000000">SUPPLEMENTS_ISOFORM_DOMAINS</text>
<text text-anchor="start" x="642.0437" y="-311.8" font-family="Helvetica,sans-Serif" font-size="11.00" fill="#000000">[table]</text>
<polygon fill="none" stroke="#000000" points="247,-281.7 247,-303.7 506,-303.7 506,-281.7 247,-281.7"/>
<image xlink:href="../../images/primaryKeys.png" width="11px" height="12px" preserveAspectRatio="xMinYMin meet" x="252" y="-298.7"/>
<text text-anchor="start" x="267" y="-288.8" font-family="Helvetica,sans-Serif" font-size="11.00" fill="#000000">ID</text>
<polygon fill="none" stroke="#000000" points="506,-281.7 506,-303.7 677,-303.7 677,-281.7 506,-281.7"/>
<text text-anchor="start" x="509" y="-289.4" font-family="Helvetica,sans-Serif" font-size="11.00" fill="#000000">number[19]</text>
<polygon fill="none" stroke="#000000" points="247,-259.7 247,-281.7 506,-281.7 506,-259.7 247,-259.7"/>
<text text-anchor="start" x="267" y="-266.8" font-family="Helvetica,sans-Serif" font-size="11.00" fill="#000000">CREATED_AT</text>
<polygon fill="none" stroke="#000000" points="506,-259.7 506,-281.7 677,-281.7 677,-259.7 506,-259.7"/>
<text text-anchor="start" x="508.9896" y="-267.4" font-family="Helvetica,sans-Serif" font-size="11.00" fill="#000000">timestamp(6) with time zone[13,6]</text>
<polygon fill="none" stroke="#000000" points="247,-237.7 247,-259.7 506,-259.7 506,-237.7 247,-237.7"/>
<text text-anchor="start" x="267" y="-244.8" font-family="Helvetica,sans-Serif" font-size="11.00" fill="#000000">CREATED_BY</text>
<polygon fill="none" stroke="#000000" points="506,-237.7 506,-259.7 677,-259.7 677,-237.7 506,-237.7"/>
<text text-anchor="start" x="509" y="-245.4" font-family="Helvetica,sans-Serif" font-size="11.00" fill="#000000">number[19]</text>
<polygon fill="none" stroke="#000000" points="247,-215.7 247,-237.7 506,-237.7 506,-215.7 247,-215.7"/>
<text text-anchor="start" x="267" y="-222.8" font-family="Helvetica,sans-Serif" font-size="11.00" fill="#000000">UPDATED_AT</text>
<polygon fill="none" stroke="#000000" points="506,-215.7 506,-237.7 677,-237.7 677,-215.7 506,-215.7"/>
<text text-anchor="start" x="508.9896" y="-223.4" font-family="Helvetica,sans-Serif" font-size="11.00" fill="#000000">timestamp(6) with time zone[13,6]</text>
<polygon fill="none" stroke="#000000" points="247,-193.7 247,-215.7 506,-215.7 506,-193.7 247,-193.7"/>
<text text-anchor="start" x="267" y="-200.8" font-family="Helvetica,sans-Serif" font-size="11.00" fill="#000000">UPDATED_BY</text>
<polygon fill="none" stroke="#000000" points="506,-193.7 506,-215.7 677,-215.7 677,-193.7 506,-193.7"/>
<text text-anchor="start" x="509" y="-201.4" font-family="Helvetica,sans-Serif" font-size="11.00" fill="#000000">number[19]</text>
<polygon fill="none" stroke="#000000" points="247,-171.7 247,-193.7 506,-193.7 506,-171.7 247,-171.7"/>
<image xlink:href="../../images/foreignKeys.png" width="11px" height="12px" preserveAspectRatio="xMinYMin meet" x="252" y="-188.7"/>
<text text-anchor="start" x="267" y="-178.8" font-family="Helvetica,sans-Serif" font-size="11.00" fill="#000000">SUPPLEMENT_ID</text>
<polygon fill="none" stroke="#000000" points="506,-171.7 506,-193.7 677,-193.7 677,-171.7 506,-171.7"/>
<text text-anchor="start" x="509" y="-179.4" font-family="Helvetica,sans-Serif" font-size="11.00" fill="#000000">number[19]</text>
<polygon fill="none" stroke="#000000" points="247,-149.7 247,-171.7 506,-171.7 506,-149.7 247,-149.7"/>
<image xlink:href="../../images/foreignKeys.png" width="11px" height="12px" preserveAspectRatio="xMinYMin meet" x="252" y="-166.7"/>
<text text-anchor="start" x="267" y="-156.8" font-family="Helvetica,sans-Serif" font-size="11.00" fill="#000000">ISOFORM_DOMAIN_ID</text>
<polygon fill="none" stroke="#000000" points="506,-149.7 506,-171.7 677,-171.7 677,-149.7 506,-149.7"/>
<text text-anchor="start" x="509" y="-157.4" font-family="Helvetica,sans-Serif" font-size="11.00" fill="#000000">number[19]</text>
<polygon fill="none" stroke="#000000" points="247,-127.7 247,-149.7 506,-149.7 506,-127.7 247,-127.7"/>
<text text-anchor="start" x="267" y="-134.8" font-family="Helvetica,sans-Serif" font-size="11.00" fill="#000000">IS_INCLUDED</text>
<polygon fill="none" stroke="#000000" points="506,-127.7 506,-149.7 677,-149.7 677,-127.7 506,-127.7"/>
<text text-anchor="start" x="509" y="-135.4" font-family="Helvetica,sans-Serif" font-size="11.00" fill="#000000">number[1]</text>
<polygon fill="#ffffff" stroke="transparent" points="247,-108.7 247,-127.7 365,-127.7 365,-108.7 247,-108.7"/>
<polygon fill="none" stroke="#000000" points="247,-108.7 247,-127.7 365,-127.7 365,-108.7 247,-108.7"/>
<text text-anchor="start" x="250" y="-114.8" font-family="Helvetica,sans-Serif" font-size="11.00" fill="#000000">&lt; 2</text>
<polygon fill="#ffffff" stroke="transparent" points="365,-108.7 365,-127.7 506,-127.7 506,-108.7 365,-108.7"/>
<polygon fill="none" stroke="#000000" points="365,-108.7 365,-127.7 506,-127.7 506,-108.7 365,-108.7"/>
<text text-anchor="start" x="464.4956" y="-114.8" font-family="Helvetica,sans-Serif" font-size="11.00" fill="#000000">50 rows</text>
<polygon fill="#ffffff" stroke="transparent" points="506,-108.7 506,-127.7 677,-127.7 677,-108.7 506,-108.7"/>
<polygon fill="none" stroke="#000000" points="506,-108.7 506,-127.7 677,-127.7 677,-108.7 506,-108.7"/>
<text text-anchor="start" x="658.4053" y="-114.8" font-family="Helvetica,sans-Serif" font-size="11.00" fill="#000000">0 &gt;</text>
<polygon fill="none" stroke="#000000" stroke-width="2" points="246,-107.7 246,-327.7 678,-327.7 678,-107.7 246,-107.7"/>
</a>
</g>
</g>
<!-- ISOFORM_DOMAINS -->
<g id="node2" class="node">
<title>ISOFORM_DOMAINS</title>
<g id="a_node2"><a xlink:href="../../tables/ISOFORM_DOMAINS.html" xlink:title="ISOFORM_DOMAINS" target="_top">
<polygon fill="#ffffff" stroke="transparent" points="25,-38.2 25,-143.2 179,-143.2 179,-38.2 25,-38.2"/>
<polygon fill="#f5f5f5" stroke="transparent" points="25,-119.7 25,-142.7 179,-142.7 179,-119.7 25,-119.7"/>
<polygon fill="none" stroke="#000000" points="25,-119.7 25,-142.7 179,-142.7 179,-119.7 25,-119.7"/>
<text text-anchor="start" x="30" y="-128.8" font-family="Helvetica,sans-Serif" font-weight="bold" font-size="11.00" fill="#000000">ISOFORM_DOMAINS</text>
<text text-anchor="start" x="144.0437" y="-127.8" font-family="Helvetica,sans-Serif" font-size="11.00" fill="#000000">[table]</text>
<polygon fill="none" stroke="#000000" points="25,-97.7 25,-119.7 179,-119.7 179,-97.7 25,-97.7"/>
<image xlink:href="../../images/primaryKeys.png" width="11px" height="12px" preserveAspectRatio="xMinYMin meet" x="30" y="-114.7"/>
<text text-anchor="start" x="45" y="-104.8" font-family="Helvetica,sans-Serif" font-size="11.00" fill="#000000">ID</text>
<polygon fill="none" stroke="#000000" points="25,-75.7 25,-97.7 179,-97.7 179,-75.7 25,-75.7"/>
<image xlink:href="../../images/foreignKeys.png" width="11px" height="12px" preserveAspectRatio="xMinYMin meet" x="30" y="-92.7"/>
<text text-anchor="start" x="45" y="-82.8" font-family="Helvetica,sans-Serif" font-size="11.00" fill="#000000">ISOFORM_ID</text>
<polygon fill="none" stroke="#000000" points="25,-56.7 25,-75.7 179,-75.7 179,-56.7 25,-56.7"/>
<text text-anchor="start" x="28" y="-62.8" font-family="Helvetica,sans-Serif" font-size="11.00" fill="#000000">...</text>
<polygon fill="#ffffff" stroke="transparent" points="25,-37.7 25,-56.7 77,-56.7 77,-37.7 25,-37.7"/>
<polygon fill="none" stroke="#000000" points="25,-37.7 25,-56.7 77,-56.7 77,-37.7 25,-37.7"/>
<text text-anchor="start" x="28" y="-43.8" font-family="Helvetica,sans-Serif" font-size="11.00" fill="#000000">&lt; 1</text>
<polygon fill="#ffffff" stroke="transparent" points="77,-37.7 77,-56.7 142,-56.7 142,-37.7 77,-37.7"/>
<polygon fill="none" stroke="#000000" points="77,-37.7 77,-56.7 142,-56.7 142,-37.7 77,-37.7"/>
<text text-anchor="start" x="94.3807" y="-43.8" font-family="Helvetica,sans-Serif" font-size="11.00" fill="#000000">727 rows</text>
<polygon fill="#ffffff" stroke="transparent" points="142,-37.7 142,-56.7 179,-56.7 179,-37.7 142,-37.7"/>
<polygon fill="none" stroke="#000000" points="142,-37.7 142,-56.7 179,-56.7 179,-37.7 142,-37.7"/>
<text text-anchor="start" x="160.4053" y="-43.8" font-family="Helvetica,sans-Serif" font-size="11.00" fill="#000000">5 &gt;</text>
</a>
</g>
</g>
<!-- SUPPLEMENTS_ISOFORM_DOMAINS&#45;&gt;ISOFORM_DOMAINS -->
<g id="edge1" class="edge">
<title>SUPPLEMENTS_ISOFORM_DOMAINS:w&#45;&gt;ISOFORM_DOMAINS:e</title>
<path fill="none" stroke="#000000" d="M232.8056,-157.6029C210.3397,-146.4083 211.3986,-108.7 179,-108.7"/>
<polygon fill="#000000" stroke="#000000" points="239.1839,-158.9945 246.2325,-164.2172 243.0919,-159.8473 247,-160.7 247,-160.7 247,-160.7 243.0919,-159.8473 247.7675,-157.1828 239.1839,-158.9945 239.1839,-158.9945"/>
<ellipse fill="none" stroke="#000000" cx="236.0574" cy="-158.3124" rx="3.2" ry="3.2"/>
</g>
<!-- SUPPLEMENTS -->
<g id="node3" class="node">
<title>SUPPLEMENTS</title>
<g id="a_node3"><a xlink:href="../../tables/SUPPLEMENTS.html" xlink:title="SUPPLEMENTS" target="_top">
<polygon fill="#ffffff" stroke="transparent" points="8,-164.2 8,-269.2 196,-269.2 196,-164.2 8,-164.2"/>
<polygon fill="#f5f5f5" stroke="transparent" points="8,-245.7 8,-268.7 196,-268.7 196,-245.7 8,-245.7"/>
<polygon fill="none" stroke="#000000" points="8,-245.7 8,-268.7 196,-268.7 196,-245.7 8,-245.7"/>
<text text-anchor="start" x="13" y="-254.8" font-family="Helvetica,sans-Serif" font-weight="bold" font-size="11.00" fill="#000000">SUPPLEMENTS</text>
<text text-anchor="start" x="161.0437" y="-253.8" font-family="Helvetica,sans-Serif" font-size="11.00" fill="#000000">[table]</text>
<polygon fill="none" stroke="#000000" points="8,-223.7 8,-245.7 196,-245.7 196,-223.7 8,-223.7"/>
<image xlink:href="../../images/primaryKeys.png" width="11px" height="12px" preserveAspectRatio="xMinYMin meet" x="13" y="-240.7"/>
<text text-anchor="start" x="28" y="-230.8" font-family="Helvetica,sans-Serif" font-size="11.00" fill="#000000">ID</text>
<polygon fill="none" stroke="#000000" points="8,-201.7 8,-223.7 196,-223.7 196,-201.7 8,-201.7"/>
<image xlink:href="../../images/foreignKeys.png" width="11px" height="12px" preserveAspectRatio="xMinYMin meet" x="13" y="-218.7"/>
<text text-anchor="start" x="28" y="-208.8" font-family="Helvetica,sans-Serif" font-size="11.00" fill="#000000">TARGET_FORM_ID</text>
<polygon fill="none" stroke="#000000" points="8,-182.7 8,-201.7 196,-201.7 196,-182.7 8,-182.7"/>
<text text-anchor="start" x="11" y="-188.8" font-family="Helvetica,sans-Serif" font-size="11.00" fill="#000000">...</text>
<polygon fill="#ffffff" stroke="transparent" points="8,-163.7 8,-182.7 80,-182.7 80,-163.7 8,-163.7"/>
<polygon fill="none" stroke="#000000" points="8,-163.7 8,-182.7 80,-182.7 80,-163.7 8,-163.7"/>
<text text-anchor="start" x="11" y="-169.8" font-family="Helvetica,sans-Serif" font-size="11.00" fill="#000000">&lt; 1</text>
<polygon fill="#ffffff" stroke="transparent" points="80,-163.7 80,-182.7 149,-182.7 149,-163.7 80,-163.7"/>
<polygon fill="none" stroke="#000000" points="80,-163.7 80,-182.7 149,-182.7 149,-163.7 80,-163.7"/>
<text text-anchor="start" x="107.4956" y="-169.8" font-family="Helvetica,sans-Serif" font-size="11.00" fill="#000000">77 rows</text>
<polygon fill="#ffffff" stroke="transparent" points="149,-163.7 149,-182.7 196,-182.7 196,-163.7 149,-163.7"/>
<polygon fill="none" stroke="#000000" points="149,-163.7 149,-182.7 196,-182.7 196,-163.7 149,-163.7"/>
<text text-anchor="start" x="177.4053" y="-169.8" font-family="Helvetica,sans-Serif" font-size="11.00" fill="#000000">5 &gt;</text>
</a>
</g>
</g>
<!-- SUPPLEMENTS_ISOFORM_DOMAINS&#45;&gt;SUPPLEMENTS -->
<g id="edge2" class="edge">
<title>SUPPLEMENTS_ISOFORM_DOMAINS:w&#45;&gt;SUPPLEMENTS:e</title>
<path fill="none" stroke="#000000" d="M233.0468,-187.4988C218.161,-200.3719 222.3017,-234.7 196,-234.7"/>
<polygon fill="#000000" stroke="#000000" points="239.4349,-185.3018 248.1708,-186.1043 243.2175,-184.0009 247,-182.7 247,-182.7 247,-182.7 243.2175,-184.0009 245.8292,-179.2957 239.4349,-185.3018 239.4349,-185.3018"/>
<ellipse fill="none" stroke="#000000" cx="236.4089" cy="-186.3426" rx="3.2" ry="3.2"/>
</g>
</g>
</svg>
