<?xml version="1.0" encoding="UTF-8" standalone="no"?>
<!DOCTYPE svg PUBLIC "-//W3C//DTD SVG 1.1//EN"
 "http://www.w3.org/Graphics/SVG/1.1/DTD/svg11.dtd">
<!-- Generated by graphviz version 2.40.1 (20161225.0304)
 -->
<!-- Title: oneDegreeRelationshipsDiagram Pages: 1 -->
<svg width="526pt" height="473pt"
 viewBox="0.00 0.00 526.00 473.20" xmlns="http://www.w3.org/2000/svg" xmlns:xlink="http://www.w3.org/1999/xlink">
<g id="graph0" class="graph" transform="scale(1 1) rotate(0) translate(4 469.2)">
<title>oneDegreeRelationshipsDiagram</title>
<polygon fill="#ffffff" stroke="transparent" points="-4,4 -4,-469.2 522,-469.2 522,4 -4,4"/>
<text text-anchor="middle" x="72.4936" y="-7.3" font-family="Helvetica,sans-Serif" font-size="11.00" fill="#000000">Generated by SchemaSpy</text>
<!-- CLONE_FORMS_TAGS -->
<g id="node1" class="node">
<title>CLONE_FORMS_TAGS</title>
<g id="a_node1"><a xlink:href="../../tables/CLONE_FORMS_TAGS.html" xlink:title="CLONE_FORMS_TAGS" target="_top">
<polygon fill="#ffffff" stroke="transparent" points="344,-334.2 344,-461.2 506,-461.2 506,-334.2 344,-334.2"/>
<polygon fill="#f5f5f5" stroke="transparent" points="344,-437.7 344,-460.7 506,-460.7 506,-437.7 344,-437.7"/>
<polygon fill="none" stroke="#000000" points="344,-437.7 344,-460.7 506,-460.7 506,-437.7 344,-437.7"/>
<text text-anchor="start" x="348.6083" y="-446.8" font-family="Helvetica,sans-Serif" font-weight="bold" font-size="11.00" fill="#000000">CLONE_FORMS_TAGS</text>
<text text-anchor="start" x="471.5219" y="-445.8" font-family="Helvetica,sans-Serif" font-size="11.00" fill="#000000">[table]</text>
<polygon fill="none" stroke="#000000" points="344,-415.7 344,-437.7 506,-437.7 506,-415.7 344,-415.7"/>
<image xlink:href="../../images/primaryKeys.png" width="11px" height="12px" preserveAspectRatio="xMinYMin meet" x="349" y="-432.7"/>
<text text-anchor="start" x="364" y="-422.8" font-family="Helvetica,sans-Serif" font-size="11.00" fill="#000000">ID</text>
<polygon fill="none" stroke="#000000" points="344,-393.7 344,-415.7 506,-415.7 506,-393.7 344,-393.7"/>
<image xlink:href="../../images/foreignKeys.png" width="11px" height="12px" preserveAspectRatio="xMinYMin meet" x="349" y="-410.7"/>
<text text-anchor="start" x="364" y="-400.8" font-family="Helvetica,sans-Serif" font-size="11.00" fill="#000000">TAG_ID</text>
<polygon fill="none" stroke="#000000" points="344,-371.7 344,-393.7 506,-393.7 506,-371.7 344,-371.7"/>
<image xlink:href="../../images/foreignKeys.png" width="11px" height="12px" preserveAspectRatio="xMinYMin meet" x="349" y="-388.7"/>
<text text-anchor="start" x="364" y="-378.8" font-family="Helvetica,sans-Serif" font-size="11.00" fill="#000000">CLONE_FORM_ID</text>
<polygon fill="none" stroke="#000000" points="344,-352.7 344,-371.7 506,-371.7 506,-352.7 344,-352.7"/>
<text text-anchor="start" x="347" y="-358.8" font-family="Helvetica,sans-Serif" font-size="11.00" fill="#000000">...</text>
<polygon fill="#ffffff" stroke="transparent" points="344,-333.7 344,-352.7 410,-352.7 410,-333.7 344,-333.7"/>
<polygon fill="none" stroke="#000000" points="344,-333.7 344,-352.7 410,-352.7 410,-333.7 344,-333.7"/>
<text text-anchor="start" x="347" y="-339.8" font-family="Helvetica,sans-Serif" font-size="11.00" fill="#000000">&lt; 2</text>
<polygon fill="#ffffff" stroke="transparent" points="410,-333.7 410,-352.7 471,-352.7 471,-333.7 410,-333.7"/>
<polygon fill="none" stroke="#000000" points="410,-333.7 410,-352.7 471,-352.7 471,-333.7 410,-333.7"/>
<text text-anchor="start" x="435.6105" y="-339.8" font-family="Helvetica,sans-Serif" font-size="11.00" fill="#000000">0 rows</text>
<polygon fill="#ffffff" stroke="transparent" points="471,-333.7 471,-352.7 506,-352.7 506,-333.7 471,-333.7"/>
<polygon fill="none" stroke="#000000" points="471,-333.7 471,-352.7 506,-352.7 506,-333.7 471,-333.7"/>
<text text-anchor="start" x="496.8862" y="-339.8" font-family="Helvetica,sans-Serif" font-size="11.00" fill="#000000"> &#160;</text>
</a>
</g>
</g>
<!-- TAGS -->
<g id="node2" class="node">
<title>TAGS</title>
<g id="a_node2"><a xlink:href="../../tables/TAGS.html" xlink:title="TAGS" target="_top">
<polygon fill="#ffffff" stroke="transparent" points="8,-70.7 8,-270.7 291,-270.7 291,-70.7 8,-70.7"/>
<polygon fill="#f5f5f5" stroke="transparent" points="10.5,-245.7 10.5,-268.7 289.5,-268.7 289.5,-245.7 10.5,-245.7"/>
<polygon fill="none" stroke="#000000" points="10.5,-245.7 10.5,-268.7 289.5,-268.7 289.5,-245.7 10.5,-245.7"/>
<text text-anchor="start" x="15.5" y="-254.8" font-family="Helvetica,sans-Serif" font-weight="bold" font-size="11.00" fill="#000000">TAGS</text>
<text text-anchor="start" x="254.5437" y="-253.8" font-family="Helvetica,sans-Serif" font-size="11.00" fill="#000000">[table]</text>
<polygon fill="none" stroke="#000000" points="10.5,-223.7 10.5,-245.7 118.5,-245.7 118.5,-223.7 10.5,-223.7"/>
<image xlink:href="../../images/primaryKeys.png" width="11px" height="12px" preserveAspectRatio="xMinYMin meet" x="15.5" y="-240.7"/>
<text text-anchor="start" x="30.5" y="-230.8" font-family="Helvetica,sans-Serif" font-size="11.00" fill="#000000">ID</text>
<polygon fill="none" stroke="#000000" points="118.5,-223.7 118.5,-245.7 289.5,-245.7 289.5,-223.7 118.5,-223.7"/>
<text text-anchor="start" x="121.5" y="-231.4" font-family="Helvetica,sans-Serif" font-size="11.00" fill="#000000">number[19]</text>
<polygon fill="none" stroke="#000000" points="10.5,-201.7 10.5,-223.7 118.5,-223.7 118.5,-201.7 10.5,-201.7"/>
<text text-anchor="start" x="30.5" y="-208.8" font-family="Helvetica,sans-Serif" font-size="11.00" fill="#000000">CREATED_AT</text>
<polygon fill="none" stroke="#000000" points="118.5,-201.7 118.5,-223.7 289.5,-223.7 289.5,-201.7 118.5,-201.7"/>
<text text-anchor="start" x="121.4896" y="-209.4" font-family="Helvetica,sans-Serif" font-size="11.00" fill="#000000">timestamp(6) with time zone[13,6]</text>
<polygon fill="none" stroke="#000000" points="10.5,-179.7 10.5,-201.7 118.5,-201.7 118.5,-179.7 10.5,-179.7"/>
<text text-anchor="start" x="30.5" y="-186.8" font-family="Helvetica,sans-Serif" font-size="11.00" fill="#000000">CREATED_BY</text>
<polygon fill="none" stroke="#000000" points="118.5,-179.7 118.5,-201.7 289.5,-201.7 289.5,-179.7 118.5,-179.7"/>
<text text-anchor="start" x="121.5" y="-187.4" font-family="Helvetica,sans-Serif" font-size="11.00" fill="#000000">number[19]</text>
<polygon fill="none" stroke="#000000" points="10.5,-157.7 10.5,-179.7 118.5,-179.7 118.5,-157.7 10.5,-157.7"/>
<text text-anchor="start" x="30.5" y="-164.8" font-family="Helvetica,sans-Serif" font-size="11.00" fill="#000000">UPDATED_AT</text>
<polygon fill="none" stroke="#000000" points="118.5,-157.7 118.5,-179.7 289.5,-179.7 289.5,-157.7 118.5,-157.7"/>
<text text-anchor="start" x="121.4896" y="-165.4" font-family="Helvetica,sans-Serif" font-size="11.00" fill="#000000">timestamp(6) with time zone[13,6]</text>
<polygon fill="none" stroke="#000000" points="10.5,-135.7 10.5,-157.7 118.5,-157.7 118.5,-135.7 10.5,-135.7"/>
<text text-anchor="start" x="30.5" y="-142.8" font-family="Helvetica,sans-Serif" font-size="11.00" fill="#000000">UPDATED_BY</text>
<polygon fill="none" stroke="#000000" points="118.5,-135.7 118.5,-157.7 289.5,-157.7 289.5,-135.7 118.5,-135.7"/>
<text text-anchor="start" x="121.5" y="-143.4" font-family="Helvetica,sans-Serif" font-size="11.00" fill="#000000">number[19]</text>
<polygon fill="none" stroke="#000000" points="10.5,-113.7 10.5,-135.7 118.5,-135.7 118.5,-113.7 10.5,-113.7"/>
<image xlink:href="../../images/primaryKeys.png" width="11px" height="12px" preserveAspectRatio="xMinYMin meet" x="15.5" y="-130.7"/>
<text text-anchor="start" x="30.5" y="-120.8" font-family="Helvetica,sans-Serif" font-size="11.00" fill="#000000">COLOR</text>
<polygon fill="none" stroke="#000000" points="118.5,-113.7 118.5,-135.7 289.5,-135.7 289.5,-113.7 118.5,-113.7"/>
<text text-anchor="start" x="121.5" y="-121.4" font-family="Helvetica,sans-Serif" font-size="11.00" fill="#000000">varchar2[255]</text>
<polygon fill="none" stroke="#000000" points="10.5,-91.7 10.5,-113.7 118.5,-113.7 118.5,-91.7 10.5,-91.7"/>
<image xlink:href="../../images/primaryKeys.png" width="11px" height="12px" preserveAspectRatio="xMinYMin meet" x="15.5" y="-108.7"/>
<text text-anchor="start" x="30.5" y="-98.8" font-family="Helvetica,sans-Serif" font-size="11.00" fill="#000000">TITLE</text>
<polygon fill="none" stroke="#000000" points="118.5,-91.7 118.5,-113.7 289.5,-113.7 289.5,-91.7 118.5,-91.7"/>
<text text-anchor="start" x="121.5" y="-99.4" font-family="Helvetica,sans-Serif" font-size="11.00" fill="#000000">varchar2[255]</text>
<polygon fill="#ffffff" stroke="transparent" points="10.5,-72.7 10.5,-91.7 52.5,-91.7 52.5,-72.7 10.5,-72.7"/>
<polygon fill="none" stroke="#000000" points="10.5,-72.7 10.5,-91.7 52.5,-91.7 52.5,-72.7 10.5,-72.7"/>
<text text-anchor="start" x="13.5" y="-78.8" font-family="Helvetica,sans-Serif" font-size="11.00" fill="#000000">&lt; 0</text>
<polygon fill="#ffffff" stroke="transparent" points="52.5,-72.7 52.5,-91.7 118.5,-91.7 118.5,-72.7 52.5,-72.7"/>
<polygon fill="none" stroke="#000000" points="52.5,-72.7 52.5,-91.7 118.5,-91.7 118.5,-72.7 52.5,-72.7"/>
<text text-anchor="start" x="76.9956" y="-78.8" font-family="Helvetica,sans-Serif" font-size="11.00" fill="#000000">21 rows</text>
<polygon fill="#ffffff" stroke="transparent" points="118.5,-72.7 118.5,-91.7 289.5,-91.7 289.5,-72.7 118.5,-72.7"/>
<polygon fill="none" stroke="#000000" points="118.5,-72.7 118.5,-91.7 289.5,-91.7 289.5,-72.7 118.5,-72.7"/>
<text text-anchor="start" x="270.9053" y="-78.8" font-family="Helvetica,sans-Serif" font-size="11.00" fill="#000000">3 &gt;</text>
<polygon fill="none" stroke="#000000" stroke-width="2" points="9,-71.7 9,-269.7 290,-269.7 290,-71.7 9,-71.7"/>
</a>
</g>
</g>
<!-- CLONE_FORMS_TAGS&#45;&gt;TAGS -->
<g id="edge1" class="edge">
<title>CLONE_FORMS_TAGS:w&#45;&gt;TAGS:e</title>
<path fill="none" stroke="#000000" d="M329.5355,-402.1649C278.7565,-381.0175 363.1095,-234.7 289.5,-234.7"/>
<polygon fill="#000000" stroke="#000000" points="336.1201,-403.3189 343.3785,-408.246 340.0601,-404.0095 344,-404.7 344,-404.7 344,-404.7 340.0601,-404.0095 344.6215,-401.154 336.1201,-403.3189 336.1201,-403.3189"/>
<ellipse fill="none" stroke="#000000" cx="332.9681" cy="-402.7665" rx="3.2" ry="3.2"/>
</g>
<!-- REFERENCES_TAGS -->
<g id="node3" class="node">
<title>REFERENCES_TAGS</title>
<g id="a_node3"><a xlink:href="../../tables/REFERENCES_TAGS.html" xlink:title="REFERENCES_TAGS" target="_top">
<polygon fill="#ffffff" stroke="transparent" points="348,-186.2 348,-313.2 502,-313.2 502,-186.2 348,-186.2"/>
<polygon fill="#f5f5f5" stroke="transparent" points="348,-289.7 348,-312.7 502,-312.7 502,-289.7 348,-289.7"/>
<polygon fill="none" stroke="#000000" points="348,-289.7 348,-312.7 502,-312.7 502,-289.7 348,-289.7"/>
<text text-anchor="start" x="352.8868" y="-298.8" font-family="Helvetica,sans-Serif" font-weight="bold" font-size="11.00" fill="#000000">REFERENCES_TAGS</text>
<text text-anchor="start" x="467.5219" y="-297.8" font-family="Helvetica,sans-Serif" font-size="11.00" fill="#000000">[table]</text>
<polygon fill="none" stroke="#000000" points="348,-267.7 348,-289.7 502,-289.7 502,-267.7 348,-267.7"/>
<image xlink:href="../../images/primaryKeys.png" width="11px" height="12px" preserveAspectRatio="xMinYMin meet" x="353" y="-284.7"/>
<text text-anchor="start" x="371" y="-274.8" font-family="Helvetica,sans-Serif" font-size="11.00" fill="#000000">ID</text>
<polygon fill="none" stroke="#000000" points="348,-245.7 348,-267.7 502,-267.7 502,-245.7 348,-245.7"/>
<image xlink:href="../../images/foreignKeys.png" width="11px" height="12px" preserveAspectRatio="xMinYMin meet" x="353" y="-262.7"/>
<text text-anchor="start" x="371" y="-252.8" font-family="Helvetica,sans-Serif" font-size="11.00" fill="#000000">REFERENCE_ID</text>
<polygon fill="none" stroke="#000000" points="348,-223.7 348,-245.7 502,-245.7 502,-223.7 348,-223.7"/>
<image xlink:href="../../images/foreignKeys.png" width="11px" height="12px" preserveAspectRatio="xMinYMin meet" x="353" y="-240.7"/>
<text text-anchor="start" x="371" y="-230.8" font-family="Helvetica,sans-Serif" font-size="11.00" fill="#000000">TAG_ID</text>
<polygon fill="none" stroke="#000000" points="348,-204.7 348,-223.7 502,-223.7 502,-204.7 348,-204.7"/>
<text text-anchor="start" x="351" y="-210.8" font-family="Helvetica,sans-Serif" font-size="11.00" fill="#000000">...</text>
<polygon fill="#ffffff" stroke="transparent" points="348,-185.7 348,-204.7 407,-204.7 407,-185.7 348,-185.7"/>
<polygon fill="none" stroke="#000000" points="348,-185.7 348,-204.7 407,-204.7 407,-185.7 348,-185.7"/>
<text text-anchor="start" x="351" y="-191.8" font-family="Helvetica,sans-Serif" font-size="11.00" fill="#000000">&lt; 2</text>
<polygon fill="#ffffff" stroke="transparent" points="407,-185.7 407,-204.7 470,-204.7 470,-185.7 407,-185.7"/>
<polygon fill="none" stroke="#000000" points="407,-185.7 407,-204.7 470,-204.7 470,-185.7 407,-185.7"/>
<text text-anchor="start" x="428.4956" y="-191.8" font-family="Helvetica,sans-Serif" font-size="11.00" fill="#000000">17 rows</text>
<polygon fill="#ffffff" stroke="transparent" points="470,-185.7 470,-204.7 502,-204.7 502,-185.7 470,-185.7"/>
<polygon fill="none" stroke="#000000" points="470,-185.7 470,-204.7 502,-204.7 502,-185.7 470,-185.7"/>
<text text-anchor="start" x="492.8862" y="-191.8" font-family="Helvetica,sans-Serif" font-size="11.00" fill="#000000"> &#160;</text>
</a>
</g>
</g>
<!-- REFERENCES_TAGS&#45;&gt;TAGS -->
<g id="edge2" class="edge">
<title>REFERENCES_TAGS:w&#45;&gt;TAGS:e</title>
<path fill="none" stroke="#000000" d="M333.3286,-234.7C318.2231,-234.7 309.8125,-234.7 289.5,-234.7"/>
<polygon fill="#000000" stroke="#000000" points="340,-234.7001 348,-238.3 344,-234.7 348,-234.7 348,-234.7 348,-234.7 344,-234.7 348,-231.1 340,-234.7001 340,-234.7001"/>
<ellipse fill="none" stroke="#000000" cx="336.8" cy="-234.7001" rx="3.2" ry="3.2"/>
</g>
<!-- TARGET_FORMS_TAGS -->
<g id="node4" class="node">
<title>TARGET_FORMS_TAGS</title>
<g id="a_node4"><a xlink:href="../../tables/TARGET_FORMS_TAGS.html" xlink:title="TARGET_FORMS_TAGS" target="_top">
<polygon fill="#ffffff" stroke="transparent" points="340,-38.2 340,-165.2 510,-165.2 510,-38.2 340,-38.2"/>
<polygon fill="#f5f5f5" stroke="transparent" points="340,-141.7 340,-164.7 510,-164.7 510,-141.7 340,-141.7"/>
<polygon fill="none" stroke="#000000" points="340,-141.7 340,-164.7 510,-164.7 510,-141.7 340,-141.7"/>
<text text-anchor="start" x="345" y="-150.8" font-family="Helvetica,sans-Serif" font-weight="bold" font-size="11.00" fill="#000000">TARGET_FORMS_TAGS</text>
<text text-anchor="start" x="475.5219" y="-149.8" font-family="Helvetica,sans-Serif" font-size="11.00" fill="#000000">[table]</text>
<polygon fill="none" stroke="#000000" points="340,-119.7 340,-141.7 510,-141.7 510,-119.7 340,-119.7"/>
<image xlink:href="../../images/primaryKeys.png" width="11px" height="12px" preserveAspectRatio="xMinYMin meet" x="345" y="-136.7"/>
<text text-anchor="start" x="360" y="-126.8" font-family="Helvetica,sans-Serif" font-size="11.00" fill="#000000">ID</text>
<polygon fill="none" stroke="#000000" points="340,-97.7 340,-119.7 510,-119.7 510,-97.7 340,-97.7"/>
<image xlink:href="../../images/foreignKeys.png" width="11px" height="12px" preserveAspectRatio="xMinYMin meet" x="345" y="-114.7"/>
<text text-anchor="start" x="360" y="-104.8" font-family="Helvetica,sans-Serif" font-size="11.00" fill="#000000">TAG_ID</text>
<polygon fill="none" stroke="#000000" points="340,-75.7 340,-97.7 510,-97.7 510,-75.7 340,-75.7"/>
<image xlink:href="../../images/foreignKeys.png" width="11px" height="12px" preserveAspectRatio="xMinYMin meet" x="345" y="-92.7"/>
<text text-anchor="start" x="360" y="-82.8" font-family="Helvetica,sans-Serif" font-size="11.00" fill="#000000">TARGET_FORM_ID</text>
<polygon fill="none" stroke="#000000" points="340,-56.7 340,-75.7 510,-75.7 510,-56.7 340,-56.7"/>
<text text-anchor="start" x="343" y="-62.8" font-family="Helvetica,sans-Serif" font-size="11.00" fill="#000000">...</text>
<polygon fill="#ffffff" stroke="transparent" points="340,-37.7 340,-56.7 410,-56.7 410,-37.7 340,-37.7"/>
<polygon fill="none" stroke="#000000" points="340,-37.7 340,-56.7 410,-56.7 410,-37.7 340,-37.7"/>
<text text-anchor="start" x="343" y="-43.8" font-family="Helvetica,sans-Serif" font-size="11.00" fill="#000000">&lt; 2</text>
<polygon fill="#ffffff" stroke="transparent" points="410,-37.7 410,-56.7 473,-56.7 473,-37.7 410,-37.7"/>
<polygon fill="none" stroke="#000000" points="410,-37.7 410,-56.7 473,-56.7 473,-37.7 410,-37.7"/>
<text text-anchor="start" x="437.6105" y="-43.8" font-family="Helvetica,sans-Serif" font-size="11.00" fill="#000000">8 rows</text>
<polygon fill="#ffffff" stroke="transparent" points="473,-37.7 473,-56.7 510,-56.7 510,-37.7 473,-37.7"/>
<polygon fill="none" stroke="#000000" points="473,-37.7 473,-56.7 510,-56.7 510,-37.7 473,-37.7"/>
<text text-anchor="start" x="500.8862" y="-43.8" font-family="Helvetica,sans-Serif" font-size="11.00" fill="#000000"> &#160;</text>
</a>
</g>
</g>
<!-- TARGET_FORMS_TAGS&#45;&gt;TAGS -->
<g id="edge3" class="edge">
<title>TARGET_FORMS_TAGS:w&#45;&gt;TAGS:e</title>
<path fill="none" stroke="#000000" d="M325.8154,-112.0702C292.1284,-132.1077 343.9387,-234.7 289.5,-234.7"/>
<polygon fill="#000000" stroke="#000000" points="332.2167,-110.5493 340.8322,-112.2025 336.1083,-109.6247 340,-108.7 340,-108.7 340,-108.7 336.1083,-109.6247 339.1678,-105.1975 332.2167,-110.5493 332.2167,-110.5493"/>
<ellipse fill="none" stroke="#000000" cx="329.1033" cy="-111.2891" rx="3.2" ry="3.2"/>
</g>
</g>
</svg>
