<?xml version="1.0" encoding="UTF-8" standalone="no"?>
<!DOCTYPE svg PUBLIC "-//W3C//DTD SVG 1.1//EN"
 "http://www.w3.org/Graphics/SVG/1.1/DTD/svg11.dtd">
<!-- Generated by graphviz version 2.40.1 (20161225.0304)
 -->
<!-- Title: twoDegreesRelationshipsDiagram Pages: 1 -->
<svg width="1398pt" height="884pt"
 viewBox="0.00 0.00 1398.00 883.70" xmlns="http://www.w3.org/2000/svg" xmlns:xlink="http://www.w3.org/1999/xlink">
<g id="graph0" class="graph" transform="scale(1 1) rotate(0) translate(4 879.6983)">
<title>twoDegreesRelationshipsDiagram</title>
<polygon fill="#ffffff" stroke="transparent" points="-4,4 -4,-879.6983 1394,-879.6983 1394,4 -4,4"/>
<text text-anchor="middle" x="72.4936" y="-7.3" font-family="Helvetica,sans-Serif" font-size="11.00" fill="#000000">Generated by SchemaSpy</text>
<!-- ISOFORMS -->
<g id="node1" class="node">
<title>ISOFORMS</title>
<g id="a_node1"><a xlink:href="../../tables/ISOFORMS.html" xlink:title="ISOFORMS" target="_top">
<polygon fill="#ffffff" stroke="transparent" points="674,-394.2 674,-455.2 775,-455.2 775,-394.2 674,-394.2"/>
<polygon fill="#f5f5f5" stroke="transparent" points="674.5,-431.7 674.5,-454.7 775.5,-454.7 775.5,-431.7 674.5,-431.7"/>
<polygon fill="none" stroke="#000000" points="674.5,-431.7 674.5,-454.7 775.5,-454.7 775.5,-431.7 674.5,-431.7"/>
<text text-anchor="start" x="679.1674" y="-440.8" font-family="Helvetica,sans-Serif" font-weight="bold" font-size="11.00" fill="#000000">ISOFORMS</text>
<text text-anchor="start" x="741.0219" y="-439.8" font-family="Helvetica,sans-Serif" font-size="11.00" fill="#000000">[table]</text>
<polygon fill="none" stroke="#000000" points="674.5,-412.7 674.5,-431.7 775.5,-431.7 775.5,-412.7 674.5,-412.7"/>
<text text-anchor="start" x="677.5" y="-418.8" font-family="Helvetica,sans-Serif" font-size="11.00" fill="#000000">...</text>
<polygon fill="#ffffff" stroke="transparent" points="674.5,-393.7 674.5,-412.7 696.5,-412.7 696.5,-393.7 674.5,-393.7"/>
<polygon fill="none" stroke="#000000" points="674.5,-393.7 674.5,-412.7 696.5,-412.7 696.5,-393.7 674.5,-393.7"/>
<text text-anchor="start" x="677.5" y="-399.8" font-family="Helvetica,sans-Serif" font-size="11.00" fill="#000000">&lt; 1</text>
<polygon fill="#ffffff" stroke="transparent" points="696.5,-393.7 696.5,-412.7 747.5,-412.7 747.5,-393.7 696.5,-393.7"/>
<polygon fill="none" stroke="#000000" points="696.5,-393.7 696.5,-412.7 747.5,-412.7 747.5,-393.7 696.5,-393.7"/>
<text text-anchor="start" x="699.8807" y="-399.8" font-family="Helvetica,sans-Serif" font-size="11.00" fill="#000000">519 rows</text>
<polygon fill="#ffffff" stroke="transparent" points="747.5,-393.7 747.5,-412.7 775.5,-412.7 775.5,-393.7 747.5,-393.7"/>
<polygon fill="none" stroke="#000000" points="747.5,-393.7 747.5,-412.7 775.5,-412.7 775.5,-393.7 747.5,-393.7"/>
<text text-anchor="start" x="750.7904" y="-399.8" font-family="Helvetica,sans-Serif" font-size="11.00" fill="#000000">10 &gt;</text>
</a>
</g>
</g>
<!-- TARGETS -->
<g id="node2" class="node">
<title>TARGETS</title>
<g id="a_node2"><a xlink:href="../../tables/TARGETS.html" xlink:title="TARGETS" target="_top">
<polygon fill="#ffffff" stroke="transparent" points="222,-281.2 222,-430.2 472,-430.2 472,-281.2 222,-281.2"/>
<polygon fill="#f5f5f5" stroke="transparent" points="222,-406.7 222,-429.7 472,-429.7 472,-406.7 222,-406.7"/>
<polygon fill="none" stroke="#000000" points="222,-406.7 222,-429.7 472,-429.7 472,-406.7 222,-406.7"/>
<text text-anchor="start" x="227" y="-415.8" font-family="Helvetica,sans-Serif" font-weight="bold" font-size="11.00" fill="#000000">TARGETS</text>
<text text-anchor="start" x="437.0437" y="-414.8" font-family="Helvetica,sans-Serif" font-size="11.00" fill="#000000">[table]</text>
<polygon fill="none" stroke="#000000" points="222,-384.7 222,-406.7 472,-406.7 472,-384.7 222,-384.7"/>
<image xlink:href="../../images/primaryKeys.png" width="11px" height="12px" preserveAspectRatio="xMinYMin meet" x="227" y="-401.7"/>
<text text-anchor="start" x="242" y="-391.8" font-family="Helvetica,sans-Serif" font-size="11.00" fill="#000000">ID</text>
<polygon fill="none" stroke="#000000" points="222,-362.7 222,-384.7 472,-384.7 472,-362.7 222,-362.7"/>
<image xlink:href="../../images/foreignKeys.png" width="11px" height="12px" preserveAspectRatio="xMinYMin meet" x="227" y="-379.7"/>
<text text-anchor="start" x="242" y="-369.8" font-family="Helvetica,sans-Serif" font-size="11.00" fill="#000000">PROJECT_ID</text>
<polygon fill="none" stroke="#000000" points="222,-340.7 222,-362.7 472,-362.7 472,-340.7 222,-340.7"/>
<image xlink:href="../../images/foreignKeys.png" width="11px" height="12px" preserveAspectRatio="xMinYMin meet" x="227" y="-357.7"/>
<text text-anchor="start" x="242" y="-347.8" font-family="Helvetica,sans-Serif" font-size="11.00" fill="#000000">TARGET_CATEGORY_ID</text>
<polygon fill="none" stroke="#000000" points="222,-318.7 222,-340.7 472,-340.7 472,-318.7 222,-318.7"/>
<image xlink:href="../../images/foreignKeys.png" width="11px" height="12px" preserveAspectRatio="xMinYMin meet" x="227" y="-335.7"/>
<text text-anchor="start" x="242" y="-325.8" font-family="Helvetica,sans-Serif" font-size="11.00" fill="#000000">THERAPEUTIC_ID</text>
<polygon fill="none" stroke="#000000" points="222,-299.7 222,-318.7 472,-318.7 472,-299.7 222,-299.7"/>
<text text-anchor="start" x="225" y="-305.8" font-family="Helvetica,sans-Serif" font-size="11.00" fill="#000000">...</text>
<polygon fill="#ffffff" stroke="transparent" points="222,-280.7 222,-299.7 319,-299.7 319,-280.7 222,-280.7"/>
<polygon fill="none" stroke="#000000" points="222,-280.7 222,-299.7 319,-299.7 319,-280.7 222,-280.7"/>
<text text-anchor="start" x="225" y="-286.8" font-family="Helvetica,sans-Serif" font-size="11.00" fill="#000000">&lt; 3</text>
<polygon fill="#ffffff" stroke="transparent" points="319,-280.7 319,-299.7 407,-299.7 407,-280.7 319,-280.7"/>
<polygon fill="none" stroke="#000000" points="319,-280.7 319,-299.7 407,-299.7 407,-280.7 319,-280.7"/>
<text text-anchor="start" x="359.3807" y="-286.8" font-family="Helvetica,sans-Serif" font-size="11.00" fill="#000000">146 rows</text>
<polygon fill="#ffffff" stroke="transparent" points="407,-280.7 407,-299.7 472,-299.7 472,-280.7 407,-280.7"/>
<polygon fill="none" stroke="#000000" points="407,-280.7 407,-299.7 472,-299.7 472,-280.7 407,-280.7"/>
<text text-anchor="start" x="447.2904" y="-286.8" font-family="Helvetica,sans-Serif" font-size="11.00" fill="#000000">10 &gt;</text>
</a>
</g>
</g>
<!-- ISOFORMS&#45;&gt;TARGETS -->
<g id="edge1" class="edge">
<title>ISOFORMS:w&#45;&gt;TARGETS:e</title>
<path fill="none" stroke="#000000" d="M659.7271,-421.4592C581.1561,-418.8381 557.5993,-395.7 472,-395.7"/>
<polygon fill="#000000" stroke="#000000" points="666.5011,-421.5696 674.4413,-425.2995 670.5005,-421.6348 674.5,-421.7 674.5,-421.7 674.5,-421.7 670.5005,-421.6348 674.5587,-418.1005 666.5011,-421.5696 666.5011,-421.5696"/>
<ellipse fill="none" stroke="#000000" cx="663.3015" cy="-421.5174" rx="3.2" ry="3.2"/>
</g>
<!-- PROJECTS -->
<g id="node6" class="node">
<title>PROJECTS</title>
<g id="a_node6"><a xlink:href="../../tables/PROJECTS.html" xlink:title="PROJECTS" target="_top">
<polygon fill="#ffffff" stroke="transparent" points="40,-346.2 40,-407.2 141,-407.2 141,-346.2 40,-346.2"/>
<polygon fill="#f5f5f5" stroke="transparent" points="40.5,-383.7 40.5,-406.7 141.5,-406.7 141.5,-383.7 40.5,-383.7"/>
<polygon fill="none" stroke="#000000" points="40.5,-383.7 40.5,-406.7 141.5,-406.7 141.5,-383.7 40.5,-383.7"/>
<text text-anchor="start" x="45.1668" y="-392.8" font-family="Helvetica,sans-Serif" font-weight="bold" font-size="11.00" fill="#000000">PROJECTS</text>
<text text-anchor="start" x="107.0219" y="-391.8" font-family="Helvetica,sans-Serif" font-size="11.00" fill="#000000">[table]</text>
<polygon fill="none" stroke="#000000" points="40.5,-364.7 40.5,-383.7 141.5,-383.7 141.5,-364.7 40.5,-364.7"/>
<text text-anchor="start" x="43.5" y="-370.8" font-family="Helvetica,sans-Serif" font-size="11.00" fill="#000000">...</text>
<polygon fill="#ffffff" stroke="transparent" points="40.5,-345.7 40.5,-364.7 64.5,-364.7 64.5,-345.7 40.5,-345.7"/>
<polygon fill="none" stroke="#000000" points="40.5,-345.7 40.5,-364.7 64.5,-364.7 64.5,-345.7 40.5,-345.7"/>
<text text-anchor="start" x="43.5" y="-351.8" font-family="Helvetica,sans-Serif" font-size="11.00" fill="#000000"> &#160;</text>
<polygon fill="#ffffff" stroke="transparent" points="64.5,-345.7 64.5,-364.7 114.5,-364.7 114.5,-345.7 64.5,-345.7"/>
<polygon fill="none" stroke="#000000" points="64.5,-345.7 64.5,-364.7 114.5,-364.7 114.5,-345.7 64.5,-345.7"/>
<text text-anchor="start" x="72.9956" y="-351.8" font-family="Helvetica,sans-Serif" font-size="11.00" fill="#000000">55 rows</text>
<polygon fill="#ffffff" stroke="transparent" points="114.5,-345.7 114.5,-364.7 141.5,-364.7 141.5,-345.7 114.5,-345.7"/>
<polygon fill="none" stroke="#000000" points="114.5,-345.7 114.5,-364.7 141.5,-364.7 141.5,-345.7 114.5,-345.7"/>
<text text-anchor="start" x="122.9053" y="-351.8" font-family="Helvetica,sans-Serif" font-size="11.00" fill="#000000">1 &gt;</text>
</a>
</g>
</g>
<!-- TARGETS&#45;&gt;PROJECTS -->
<g id="edge7" class="edge">
<title>TARGETS:w&#45;&gt;PROJECTS:e</title>
<path fill="none" stroke="#000000" d="M207.327,-373.7C182.8742,-373.7 171.8273,-373.7 141.5,-373.7"/>
<polygon fill="#000000" stroke="#000000" points="214,-373.7001 222,-377.3 218,-373.7 222,-373.7 222,-373.7 222,-373.7 218,-373.7 222,-370.1 214,-373.7001 214,-373.7001"/>
<ellipse fill="none" stroke="#000000" cx="210.8" cy="-373.7001" rx="3.2" ry="3.2"/>
</g>
<!-- TARGET_CATEGORIES -->
<g id="node7" class="node">
<title>TARGET_CATEGORIES</title>
<g id="a_node7"><a xlink:href="../../tables/TARGET_CATEGORIES.html" xlink:title="TARGET_CATEGORIES" target="_top">
<polygon fill="#ffffff" stroke="transparent" points="8,-575.2 8,-680.2 173,-680.2 173,-575.2 8,-575.2"/>
<polygon fill="#f5f5f5" stroke="transparent" points="8.5,-656.7 8.5,-679.7 173.5,-679.7 173.5,-656.7 8.5,-656.7"/>
<polygon fill="none" stroke="#000000" points="8.5,-656.7 8.5,-679.7 173.5,-679.7 173.5,-656.7 8.5,-656.7"/>
<text text-anchor="start" x="13.0798" y="-665.8" font-family="Helvetica,sans-Serif" font-weight="bold" font-size="11.00" fill="#000000">TARGET_CATEGORIES</text>
<text text-anchor="start" x="139.0219" y="-664.8" font-family="Helvetica,sans-Serif" font-size="11.00" fill="#000000">[table]</text>
<polygon fill="none" stroke="#000000" points="8.5,-634.7 8.5,-656.7 173.5,-656.7 173.5,-634.7 8.5,-634.7"/>
<image xlink:href="../../images/primaryKeys.png" width="11px" height="12px" preserveAspectRatio="xMinYMin meet" x="13.5" y="-651.7"/>
<text text-anchor="start" x="28.5" y="-641.8" font-family="Helvetica,sans-Serif" font-size="11.00" fill="#000000">ID</text>
<polygon fill="none" stroke="#000000" points="8.5,-612.7 8.5,-634.7 173.5,-634.7 173.5,-612.7 8.5,-612.7"/>
<image xlink:href="../../images/primaryKeys.png" width="11px" height="12px" preserveAspectRatio="xMinYMin meet" x="13.5" y="-629.7"/>
<text text-anchor="start" x="28.5" y="-619.8" font-family="Helvetica,sans-Serif" font-size="11.00" fill="#000000">TITLE</text>
<polygon fill="none" stroke="#000000" points="8.5,-593.7 8.5,-612.7 173.5,-612.7 173.5,-593.7 8.5,-593.7"/>
<text text-anchor="start" x="11.5" y="-599.8" font-family="Helvetica,sans-Serif" font-size="11.00" fill="#000000">...</text>
<polygon fill="#ffffff" stroke="transparent" points="8.5,-574.7 8.5,-593.7 64.5,-593.7 64.5,-574.7 8.5,-574.7"/>
<polygon fill="none" stroke="#000000" points="8.5,-574.7 8.5,-593.7 64.5,-593.7 64.5,-574.7 8.5,-574.7"/>
<text text-anchor="start" x="11.5" y="-580.8" font-family="Helvetica,sans-Serif" font-size="11.00" fill="#000000"> &#160;</text>
<polygon fill="#ffffff" stroke="transparent" points="64.5,-574.7 64.5,-593.7 130.5,-593.7 130.5,-574.7 64.5,-574.7"/>
<polygon fill="none" stroke="#000000" points="64.5,-574.7 64.5,-593.7 130.5,-593.7 130.5,-574.7 64.5,-574.7"/>
<text text-anchor="start" x="88.9956" y="-580.8" font-family="Helvetica,sans-Serif" font-size="11.00" fill="#000000">11 rows</text>
<polygon fill="#ffffff" stroke="transparent" points="130.5,-574.7 130.5,-593.7 173.5,-593.7 173.5,-574.7 130.5,-574.7"/>
<polygon fill="none" stroke="#000000" points="130.5,-574.7 130.5,-593.7 173.5,-593.7 173.5,-574.7 130.5,-574.7"/>
<text text-anchor="start" x="154.9053" y="-580.8" font-family="Helvetica,sans-Serif" font-size="11.00" fill="#000000">3 &gt;</text>
</a>
</g>
</g>
<!-- TARGETS&#45;&gt;TARGET_CATEGORIES -->
<g id="edge8" class="edge">
<title>TARGETS:w&#45;&gt;TARGET_CATEGORIES:e</title>
<path fill="none" stroke="#000000" d="M208.5699,-357.3105C168.5435,-397.956 234.2845,-645.7 173.5,-645.7"/>
<polygon fill="#000000" stroke="#000000" points="214.6182,-354.7838 223.3877,-355.0218 218.3091,-353.2419 222,-351.7 222,-351.7 222,-351.7 218.3091,-353.2419 220.6123,-348.3782 214.6182,-354.7838 214.6182,-354.7838"/>
<ellipse fill="none" stroke="#000000" cx="211.6655" cy="-356.0173" rx="3.2" ry="3.2"/>
</g>
<!-- THERAPEUTIC_AREAS -->
<g id="node8" class="node">
<title>THERAPEUTIC_AREAS</title>
<g id="a_node8"><a xlink:href="../../tables/THERAPEUTIC_AREAS.html" xlink:title="THERAPEUTIC_AREAS" target="_top">
<polygon fill="#ffffff" stroke="transparent" points="8.5,-247.2 8.5,-308.2 172.5,-308.2 172.5,-247.2 8.5,-247.2"/>
<polygon fill="#f5f5f5" stroke="transparent" points="8.5,-284.7 8.5,-307.7 172.5,-307.7 172.5,-284.7 8.5,-284.7"/>
<polygon fill="none" stroke="#000000" points="8.5,-284.7 8.5,-307.7 172.5,-307.7 172.5,-284.7 8.5,-284.7"/>
<text text-anchor="start" x="13.4984" y="-293.8" font-family="Helvetica,sans-Serif" font-weight="bold" font-size="11.00" fill="#000000">THERAPEUTIC_AREAS</text>
<text text-anchor="start" x="138.0219" y="-292.8" font-family="Helvetica,sans-Serif" font-size="11.00" fill="#000000">[table]</text>
<polygon fill="none" stroke="#000000" points="8.5,-265.7 8.5,-284.7 172.5,-284.7 172.5,-265.7 8.5,-265.7"/>
<text text-anchor="start" x="11.5" y="-271.8" font-family="Helvetica,sans-Serif" font-size="11.00" fill="#000000">...</text>
<polygon fill="#ffffff" stroke="transparent" points="8.5,-246.7 8.5,-265.7 63.5,-265.7 63.5,-246.7 8.5,-246.7"/>
<polygon fill="none" stroke="#000000" points="8.5,-246.7 8.5,-265.7 63.5,-265.7 63.5,-246.7 8.5,-246.7"/>
<text text-anchor="start" x="11.5" y="-252.8" font-family="Helvetica,sans-Serif" font-size="11.00" fill="#000000"> &#160;</text>
<polygon fill="#ffffff" stroke="transparent" points="63.5,-246.7 63.5,-265.7 129.5,-265.7 129.5,-246.7 63.5,-246.7"/>
<polygon fill="none" stroke="#000000" points="63.5,-246.7 63.5,-265.7 129.5,-265.7 129.5,-246.7 63.5,-246.7"/>
<text text-anchor="start" x="87.9956" y="-252.8" font-family="Helvetica,sans-Serif" font-size="11.00" fill="#000000">15 rows</text>
<polygon fill="#ffffff" stroke="transparent" points="129.5,-246.7 129.5,-265.7 172.5,-265.7 172.5,-246.7 129.5,-246.7"/>
<polygon fill="none" stroke="#000000" points="129.5,-246.7 129.5,-265.7 172.5,-265.7 172.5,-246.7 129.5,-246.7"/>
<text text-anchor="start" x="153.9053" y="-252.8" font-family="Helvetica,sans-Serif" font-size="11.00" fill="#000000">2 &gt;</text>
</a>
</g>
</g>
<!-- TARGETS&#45;&gt;THERAPEUTIC_AREAS -->
<g id="edge9" class="edge">
<title>TARGETS:w&#45;&gt;THERAPEUTIC_AREAS:e</title>
<path fill="none" stroke="#000000" d="M208.038,-324.6243C193.4876,-311.0086 199.2204,-274.7 172.5,-274.7"/>
<polygon fill="#000000" stroke="#000000" points="214.4814,-326.9667 220.77,-333.0834 218.2407,-328.3333 222,-329.7 222,-329.7 222,-329.7 218.2407,-328.3333 223.23,-326.3166 214.4814,-326.9667 214.4814,-326.9667"/>
<ellipse fill="none" stroke="#000000" cx="211.474" cy="-325.8734" rx="3.2" ry="3.2"/>
</g>
<!-- SCREENING_PLANS -->
<g id="node3" class="node">
<title>SCREENING_PLANS</title>
<g id="a_node3"><a xlink:href="../../tables/SCREENING_PLANS.html" xlink:title="SCREENING_PLANS" target="_top">
<polygon fill="#ffffff" stroke="transparent" points="1195.5,-370.2 1195.5,-431.2 1345.5,-431.2 1345.5,-370.2 1195.5,-370.2"/>
<polygon fill="#f5f5f5" stroke="transparent" points="1195.5,-407.7 1195.5,-430.7 1345.5,-430.7 1345.5,-407.7 1195.5,-407.7"/>
<polygon fill="none" stroke="#000000" points="1195.5,-407.7 1195.5,-430.7 1345.5,-430.7 1345.5,-407.7 1195.5,-407.7"/>
<text text-anchor="start" x="1200.2182" y="-416.8" font-family="Helvetica,sans-Serif" font-weight="bold" font-size="11.00" fill="#000000">SCREENING_PLANS</text>
<text text-anchor="start" x="1311.0219" y="-415.8" font-family="Helvetica,sans-Serif" font-size="11.00" fill="#000000">[table]</text>
<polygon fill="none" stroke="#000000" points="1195.5,-388.7 1195.5,-407.7 1345.5,-407.7 1345.5,-388.7 1195.5,-388.7"/>
<text text-anchor="start" x="1198.5" y="-394.8" font-family="Helvetica,sans-Serif" font-size="11.00" fill="#000000">...</text>
<polygon fill="#ffffff" stroke="transparent" points="1195.5,-369.7 1195.5,-388.7 1245.5,-388.7 1245.5,-369.7 1195.5,-369.7"/>
<polygon fill="none" stroke="#000000" points="1195.5,-369.7 1195.5,-388.7 1245.5,-388.7 1245.5,-369.7 1195.5,-369.7"/>
<text text-anchor="start" x="1198.5" y="-375.8" font-family="Helvetica,sans-Serif" font-size="11.00" fill="#000000">&lt; 3</text>
<polygon fill="#ffffff" stroke="transparent" points="1245.5,-369.7 1245.5,-388.7 1309.5,-388.7 1309.5,-369.7 1245.5,-369.7"/>
<polygon fill="none" stroke="#000000" points="1245.5,-369.7 1245.5,-388.7 1309.5,-388.7 1309.5,-369.7 1245.5,-369.7"/>
<text text-anchor="start" x="1261.8807" y="-375.8" font-family="Helvetica,sans-Serif" font-size="11.00" fill="#000000">137 rows</text>
<polygon fill="#ffffff" stroke="transparent" points="1309.5,-369.7 1309.5,-388.7 1345.5,-388.7 1345.5,-369.7 1309.5,-369.7"/>
<polygon fill="none" stroke="#000000" points="1309.5,-369.7 1309.5,-388.7 1345.5,-388.7 1345.5,-369.7 1309.5,-369.7"/>
<text text-anchor="start" x="1326.9053" y="-375.8" font-family="Helvetica,sans-Serif" font-size="11.00" fill="#000000">1 &gt;</text>
</a>
</g>
</g>
<!-- SCREENING_PLANS&#45;&gt;TARGETS -->
<g id="edge3" class="edge">
<title>SCREENING_PLANS:w&#45;&gt;TARGETS:e</title>
<path fill="none" stroke="#000000" d="M1181.0791,-397.6412C1077.3858,-396.7787 1046.498,-386.6785 936,-383.7 748.0683,-378.6342 699.098,-357.0257 513,-383.7 494.2054,-386.3939 490.9867,-395.7 472,-395.7"/>
<polygon fill="#000000" stroke="#000000" points="1187.5001,-397.6673 1195.4853,-401.3 1191.5,-397.6837 1195.5,-397.7 1195.5,-397.7 1195.5,-397.7 1191.5,-397.6837 1195.5147,-394.1 1187.5001,-397.6673 1187.5001,-397.6673"/>
<ellipse fill="none" stroke="#000000" cx="1184.3001" cy="-397.6542" rx="3.2" ry="3.2"/>
</g>
<!-- TARGET_FORMS -->
<g id="node4" class="node">
<title>TARGET_FORMS</title>
<g id="a_node4"><a xlink:href="../../tables/TARGET_FORMS.html" xlink:title="TARGET_FORMS" target="_top">
<polygon fill="#ffffff" stroke="transparent" points="977,-408.2 977,-469.2 1110,-469.2 1110,-408.2 977,-408.2"/>
<polygon fill="#f5f5f5" stroke="transparent" points="977.5,-445.7 977.5,-468.7 1110.5,-468.7 1110.5,-445.7 977.5,-445.7"/>
<polygon fill="none" stroke="#000000" points="977.5,-445.7 977.5,-468.7 1110.5,-468.7 1110.5,-445.7 977.5,-445.7"/>
<text text-anchor="start" x="982.2801" y="-454.8" font-family="Helvetica,sans-Serif" font-weight="bold" font-size="11.00" fill="#000000">TARGET_FORMS</text>
<text text-anchor="start" x="1076.0219" y="-453.8" font-family="Helvetica,sans-Serif" font-size="11.00" fill="#000000">[table]</text>
<polygon fill="none" stroke="#000000" points="977.5,-426.7 977.5,-445.7 1110.5,-445.7 1110.5,-426.7 977.5,-426.7"/>
<text text-anchor="start" x="980.5" y="-432.8" font-family="Helvetica,sans-Serif" font-size="11.00" fill="#000000">...</text>
<polygon fill="#ffffff" stroke="transparent" points="977.5,-407.7 977.5,-426.7 1015.5,-426.7 1015.5,-407.7 977.5,-407.7"/>
<polygon fill="none" stroke="#000000" points="977.5,-407.7 977.5,-426.7 1015.5,-426.7 1015.5,-407.7 977.5,-407.7"/>
<text text-anchor="start" x="980.5" y="-413.8" font-family="Helvetica,sans-Serif" font-size="11.00" fill="#000000">&lt; 5</text>
<polygon fill="#ffffff" stroke="transparent" points="1015.5,-407.7 1015.5,-426.7 1074.5,-426.7 1074.5,-407.7 1015.5,-407.7"/>
<polygon fill="none" stroke="#000000" points="1015.5,-407.7 1015.5,-426.7 1074.5,-426.7 1074.5,-407.7 1015.5,-407.7"/>
<text text-anchor="start" x="1026.8807" y="-413.8" font-family="Helvetica,sans-Serif" font-size="11.00" fill="#000000">541 rows</text>
<polygon fill="#ffffff" stroke="transparent" points="1074.5,-407.7 1074.5,-426.7 1110.5,-426.7 1110.5,-407.7 1074.5,-407.7"/>
<polygon fill="none" stroke="#000000" points="1074.5,-407.7 1074.5,-426.7 1110.5,-426.7 1110.5,-407.7 1074.5,-407.7"/>
<text text-anchor="start" x="1085.7904" y="-413.8" font-family="Helvetica,sans-Serif" font-size="11.00" fill="#000000">18 &gt;</text>
</a>
</g>
</g>
<!-- SCREENING_PLANS&#45;&gt;TARGET_FORMS -->
<g id="edge2" class="edge">
<title>SCREENING_PLANS:w&#45;&gt;TARGET_FORMS:e</title>
<path fill="none" stroke="#000000" d="M1180.9002,-399.5328C1152.834,-407.1235 1146.3852,-435.7 1110.5,-435.7"/>
<polygon fill="#000000" stroke="#000000" points="1187.5623,-398.6965 1195.9484,-401.272 1191.5312,-398.1983 1195.5,-397.7 1195.5,-397.7 1195.5,-397.7 1191.5312,-398.1983 1195.0516,-394.128 1187.5623,-398.6965 1187.5623,-398.6965"/>
<ellipse fill="none" stroke="#000000" cx="1184.3872" cy="-399.0951" rx="3.2" ry="3.2"/>
</g>
<!-- TARGET_FORMS&#45;&gt;ISOFORMS -->
<g id="edge5" class="edge">
<title>TARGET_FORMS:w&#45;&gt;ISOFORMS:e</title>
<path fill="none" stroke="#000000" d="M962.8378,-435.5703C884.795,-434.159 860.3959,-421.7 775.5,-421.7"/>
<polygon fill="#000000" stroke="#000000" points="969.5003,-435.6292 977.4681,-439.2999 973.5002,-435.6646 977.5,-435.7 977.5,-435.7 977.5,-435.7 973.5002,-435.6646 977.5319,-432.1001 969.5003,-435.6292 969.5003,-435.6292"/>
<ellipse fill="none" stroke="#000000" cx="966.3004" cy="-435.6009" rx="3.2" ry="3.2"/>
</g>
<!-- TARGET_FORMS&#45;&gt;TARGETS -->
<g id="edge6" class="edge">
<title>TARGET_FORMS:w&#45;&gt;TARGETS:e</title>
<path fill="none" stroke="#000000" d="M963.5616,-440.0605C954.497,-447.079 951.7327,-460.609 936,-465.7 846.566,-494.6406 594.5529,-512.4454 513,-465.7 481.7194,-447.7703 508.0548,-395.7 472,-395.7"/>
<polygon fill="#000000" stroke="#000000" points="969.8649,-438.0886 978.5749,-439.1358 973.6825,-436.8943 977.5,-435.7 977.5,-435.7 977.5,-435.7 973.6825,-436.8943 976.4251,-432.2642 969.8649,-438.0886 969.8649,-438.0886"/>
<ellipse fill="none" stroke="#000000" cx="966.8109" cy="-439.0441" rx="3.2" ry="3.2"/>
</g>
<!-- SUBUNITS -->
<g id="node5" class="node">
<title>SUBUNITS</title>
<g id="a_node5"><a xlink:href="../../tables/SUBUNITS.html" xlink:title="SUBUNITS" target="_top">
<polygon fill="#ffffff" stroke="transparent" points="675.5,-284.2 675.5,-345.2 773.5,-345.2 773.5,-284.2 675.5,-284.2"/>
<polygon fill="#f5f5f5" stroke="transparent" points="675.5,-321.7 675.5,-344.7 773.5,-344.7 773.5,-321.7 675.5,-321.7"/>
<polygon fill="none" stroke="#000000" points="675.5,-321.7 675.5,-344.7 773.5,-344.7 773.5,-321.7 675.5,-321.7"/>
<text text-anchor="start" x="680.1964" y="-330.8" font-family="Helvetica,sans-Serif" font-weight="bold" font-size="11.00" fill="#000000">SUBUNITS</text>
<text text-anchor="start" x="739.0219" y="-329.8" font-family="Helvetica,sans-Serif" font-size="11.00" fill="#000000">[table]</text>
<polygon fill="none" stroke="#000000" points="675.5,-302.7 675.5,-321.7 773.5,-321.7 773.5,-302.7 675.5,-302.7"/>
<text text-anchor="start" x="678.5" y="-308.8" font-family="Helvetica,sans-Serif" font-size="11.00" fill="#000000">...</text>
<polygon fill="#ffffff" stroke="transparent" points="675.5,-283.7 675.5,-302.7 705.5,-302.7 705.5,-283.7 675.5,-283.7"/>
<polygon fill="none" stroke="#000000" points="675.5,-283.7 675.5,-302.7 705.5,-302.7 705.5,-283.7 675.5,-283.7"/>
<text text-anchor="start" x="678.5" y="-289.8" font-family="Helvetica,sans-Serif" font-size="11.00" fill="#000000">&lt; 2</text>
<polygon fill="#ffffff" stroke="transparent" points="705.5,-283.7 705.5,-302.7 747.5,-302.7 747.5,-283.7 705.5,-283.7"/>
<polygon fill="none" stroke="#000000" points="705.5,-283.7 705.5,-302.7 747.5,-302.7 747.5,-283.7 705.5,-283.7"/>
<text text-anchor="start" x="712.1105" y="-289.8" font-family="Helvetica,sans-Serif" font-size="11.00" fill="#000000">0 rows</text>
<polygon fill="#ffffff" stroke="transparent" points="747.5,-283.7 747.5,-302.7 773.5,-302.7 773.5,-283.7 747.5,-283.7"/>
<polygon fill="none" stroke="#000000" points="747.5,-283.7 747.5,-302.7 773.5,-302.7 773.5,-283.7 747.5,-283.7"/>
<text text-anchor="start" x="754.9053" y="-289.8" font-family="Helvetica,sans-Serif" font-size="11.00" fill="#000000">3 &gt;</text>
</a>
</g>
</g>
<!-- SUBUNITS&#45;&gt;TARGETS -->
<g id="edge4" class="edge">
<title>SUBUNITS:w&#45;&gt;TARGETS:e</title>
<path fill="none" stroke="#000000" d="M660.7825,-311.8674C597.0793,-313.4068 574.4393,-325.8249 513,-359.7 491.7642,-371.4085 496.2497,-395.7 472,-395.7"/>
<polygon fill="#000000" stroke="#000000" points="667.5005,-311.791 675.541,-315.2998 671.5003,-311.7455 675.5,-311.7 675.5,-311.7 675.5,-311.7 671.5003,-311.7455 675.459,-308.1002 667.5005,-311.791 667.5005,-311.791"/>
<ellipse fill="none" stroke="#000000" cx="664.3007" cy="-311.8274" rx="3.2" ry="3.2"/>
</g>
<!-- TARGETS_INDICATIONS -->
<g id="node9" class="node">
<title>TARGETS_INDICATIONS</title>
<g id="a_node9"><a xlink:href="../../tables/TARGETS_INDICATIONS.html" xlink:title="TARGETS_INDICATIONS" target="_top">
<polygon fill="#ffffff" stroke="transparent" points="639,-202.2 639,-263.2 810,-263.2 810,-202.2 639,-202.2"/>
<polygon fill="#f5f5f5" stroke="transparent" points="639.5,-239.7 639.5,-262.7 810.5,-262.7 810.5,-239.7 639.5,-239.7"/>
<polygon fill="none" stroke="#000000" points="639.5,-239.7 639.5,-262.7 810.5,-262.7 810.5,-239.7 639.5,-239.7"/>
<text text-anchor="start" x="644.0285" y="-248.8" font-family="Helvetica,sans-Serif" font-weight="bold" font-size="11.00" fill="#000000">TARGETS_INDICATIONS</text>
<text text-anchor="start" x="776.0219" y="-247.8" font-family="Helvetica,sans-Serif" font-size="11.00" fill="#000000">[table]</text>
<polygon fill="none" stroke="#000000" points="639.5,-220.7 639.5,-239.7 810.5,-239.7 810.5,-220.7 639.5,-220.7"/>
<text text-anchor="start" x="642.5" y="-226.8" font-family="Helvetica,sans-Serif" font-size="11.00" fill="#000000">...</text>
<polygon fill="#ffffff" stroke="transparent" points="639.5,-201.7 639.5,-220.7 707.5,-220.7 707.5,-201.7 639.5,-201.7"/>
<polygon fill="none" stroke="#000000" points="639.5,-201.7 639.5,-220.7 707.5,-220.7 707.5,-201.7 639.5,-201.7"/>
<text text-anchor="start" x="642.5" y="-207.8" font-family="Helvetica,sans-Serif" font-size="11.00" fill="#000000">&lt; 2</text>
<polygon fill="#ffffff" stroke="transparent" points="707.5,-201.7 707.5,-220.7 774.5,-220.7 774.5,-201.7 707.5,-201.7"/>
<polygon fill="none" stroke="#000000" points="707.5,-201.7 707.5,-220.7 774.5,-220.7 774.5,-201.7 707.5,-201.7"/>
<text text-anchor="start" x="732.9956" y="-207.8" font-family="Helvetica,sans-Serif" font-size="11.00" fill="#000000">22 rows</text>
<polygon fill="#ffffff" stroke="transparent" points="774.5,-201.7 774.5,-220.7 810.5,-220.7 810.5,-201.7 774.5,-201.7"/>
<polygon fill="none" stroke="#000000" points="774.5,-201.7 774.5,-220.7 810.5,-220.7 810.5,-201.7 774.5,-201.7"/>
<text text-anchor="start" x="801.3862" y="-207.8" font-family="Helvetica,sans-Serif" font-size="11.00" fill="#000000"> &#160;</text>
</a>
</g>
</g>
<!-- TARGETS_INDICATIONS&#45;&gt;TARGETS -->
<g id="edge10" class="edge">
<title>TARGETS_INDICATIONS:w&#45;&gt;TARGETS:e</title>
<path fill="none" stroke="#000000" d="M624.8836,-229.7621C575.5352,-230.2901 551.271,-235.0239 513,-273.7 472.7654,-314.3605 529.2023,-395.7 472,-395.7"/>
<polygon fill="#000000" stroke="#000000" points="631.5001,-229.734 639.5153,-233.3 635.5,-229.717 639.5,-229.7 639.5,-229.7 639.5,-229.7 635.5,-229.717 639.4847,-226.1 631.5001,-229.734 631.5001,-229.734"/>
<ellipse fill="none" stroke="#000000" cx="628.3001" cy="-229.7477" rx="3.2" ry="3.2"/>
</g>
<!-- TARGETS_REFERENCES -->
<g id="node10" class="node">
<title>TARGETS_REFERENCES</title>
<g id="a_node10"><a xlink:href="../../tables/TARGETS_REFERENCES.html" xlink:title="TARGETS_REFERENCES" target="_top">
<polygon fill="#ffffff" stroke="transparent" points="636.5,-120.2 636.5,-181.2 812.5,-181.2 812.5,-120.2 636.5,-120.2"/>
<polygon fill="#f5f5f5" stroke="transparent" points="636.5,-157.7 636.5,-180.7 812.5,-180.7 812.5,-157.7 636.5,-157.7"/>
<polygon fill="none" stroke="#000000" points="636.5,-157.7 636.5,-180.7 812.5,-180.7 812.5,-157.7 636.5,-157.7"/>
<text text-anchor="start" x="641.3884" y="-166.8" font-family="Helvetica,sans-Serif" font-weight="bold" font-size="11.00" fill="#000000">TARGETS_REFERENCES</text>
<text text-anchor="start" x="778.0219" y="-165.8" font-family="Helvetica,sans-Serif" font-size="11.00" fill="#000000">[table]</text>
<polygon fill="none" stroke="#000000" points="636.5,-138.7 636.5,-157.7 812.5,-157.7 812.5,-138.7 636.5,-138.7"/>
<text text-anchor="start" x="639.5" y="-144.8" font-family="Helvetica,sans-Serif" font-size="11.00" fill="#000000">...</text>
<polygon fill="#ffffff" stroke="transparent" points="636.5,-119.7 636.5,-138.7 706.5,-138.7 706.5,-119.7 636.5,-119.7"/>
<polygon fill="none" stroke="#000000" points="636.5,-119.7 636.5,-138.7 706.5,-138.7 706.5,-119.7 636.5,-119.7"/>
<text text-anchor="start" x="639.5" y="-125.8" font-family="Helvetica,sans-Serif" font-size="11.00" fill="#000000">&lt; 2</text>
<polygon fill="#ffffff" stroke="transparent" points="706.5,-119.7 706.5,-138.7 775.5,-138.7 775.5,-119.7 706.5,-119.7"/>
<polygon fill="none" stroke="#000000" points="706.5,-119.7 706.5,-138.7 775.5,-138.7 775.5,-119.7 706.5,-119.7"/>
<text text-anchor="start" x="733.9956" y="-125.8" font-family="Helvetica,sans-Serif" font-size="11.00" fill="#000000">48 rows</text>
<polygon fill="#ffffff" stroke="transparent" points="775.5,-119.7 775.5,-138.7 812.5,-138.7 812.5,-119.7 775.5,-119.7"/>
<polygon fill="none" stroke="#000000" points="775.5,-119.7 775.5,-138.7 812.5,-138.7 812.5,-119.7 775.5,-119.7"/>
<text text-anchor="start" x="803.3862" y="-125.8" font-family="Helvetica,sans-Serif" font-size="11.00" fill="#000000"> &#160;</text>
</a>
</g>
</g>
<!-- TARGETS_REFERENCES&#45;&gt;TARGETS -->
<g id="edge11" class="edge">
<title>TARGETS_REFERENCES:w&#45;&gt;TARGETS:e</title>
<path fill="none" stroke="#000000" d="M621.8299,-147.7287C573.3829,-148.0306 547.7816,-151.5146 513,-191.7 452.4777,-261.6253 564.4797,-395.7 472,-395.7"/>
<polygon fill="#000000" stroke="#000000" points="628.5,-147.7157 636.5071,-151.3 632.5,-147.7078 636.5,-147.7 636.5,-147.7 636.5,-147.7 632.5,-147.7078 636.4929,-144.1 628.5,-147.7157 628.5,-147.7157"/>
<ellipse fill="none" stroke="#000000" cx="625.3" cy="-147.722" rx="3.2" ry="3.2"/>
</g>
<!-- TARGETS_TARGET_CATEGORIES -->
<g id="node11" class="node">
<title>TARGETS_TARGET_CATEGORIES</title>
<g id="a_node11"><a xlink:href="../../tables/TARGETS_TARGET_CATEGORIES.html" xlink:title="TARGETS_TARGET_CATEGORIES" target="_top">
<polygon fill="#ffffff" stroke="transparent" points="521,-613.7 521,-813.7 928,-813.7 928,-613.7 521,-613.7"/>
<polygon fill="#f5f5f5" stroke="transparent" points="523.5,-788.7 523.5,-811.7 926.5,-811.7 926.5,-788.7 523.5,-788.7"/>
<polygon fill="none" stroke="#000000" points="523.5,-788.7 523.5,-811.7 926.5,-811.7 926.5,-788.7 523.5,-788.7"/>
<text text-anchor="start" x="528.5" y="-797.8" font-family="Helvetica,sans-Serif" font-weight="bold" font-size="11.00" fill="#000000">TARGETS_TARGET_CATEGORIES</text>
<text text-anchor="start" x="891.5437" y="-796.8" font-family="Helvetica,sans-Serif" font-size="11.00" fill="#000000">[table]</text>
<polygon fill="none" stroke="#000000" points="523.5,-766.7 523.5,-788.7 755.5,-788.7 755.5,-766.7 523.5,-766.7"/>
<image xlink:href="../../images/primaryKeys.png" width="11px" height="12px" preserveAspectRatio="xMinYMin meet" x="528.5" y="-783.7"/>
<text text-anchor="start" x="543.5" y="-773.8" font-family="Helvetica,sans-Serif" font-size="11.00" fill="#000000">ID</text>
<polygon fill="none" stroke="#000000" points="755.5,-766.7 755.5,-788.7 926.5,-788.7 926.5,-766.7 755.5,-766.7"/>
<text text-anchor="start" x="758.5" y="-774.4" font-family="Helvetica,sans-Serif" font-size="11.00" fill="#000000">number[19]</text>
<polygon fill="none" stroke="#000000" points="523.5,-744.7 523.5,-766.7 755.5,-766.7 755.5,-744.7 523.5,-744.7"/>
<text text-anchor="start" x="543.5" y="-751.8" font-family="Helvetica,sans-Serif" font-size="11.00" fill="#000000">CREATED_AT</text>
<polygon fill="none" stroke="#000000" points="755.5,-744.7 755.5,-766.7 926.5,-766.7 926.5,-744.7 755.5,-744.7"/>
<text text-anchor="start" x="758.4896" y="-752.4" font-family="Helvetica,sans-Serif" font-size="11.00" fill="#000000">timestamp(6) with time zone[13,6]</text>
<polygon fill="none" stroke="#000000" points="523.5,-722.7 523.5,-744.7 755.5,-744.7 755.5,-722.7 523.5,-722.7"/>
<text text-anchor="start" x="543.5" y="-729.8" font-family="Helvetica,sans-Serif" font-size="11.00" fill="#000000">CREATED_BY</text>
<polygon fill="none" stroke="#000000" points="755.5,-722.7 755.5,-744.7 926.5,-744.7 926.5,-722.7 755.5,-722.7"/>
<text text-anchor="start" x="758.5" y="-730.4" font-family="Helvetica,sans-Serif" font-size="11.00" fill="#000000">number[19]</text>
<polygon fill="none" stroke="#000000" points="523.5,-700.7 523.5,-722.7 755.5,-722.7 755.5,-700.7 523.5,-700.7"/>
<text text-anchor="start" x="543.5" y="-707.8" font-family="Helvetica,sans-Serif" font-size="11.00" fill="#000000">UPDATED_AT</text>
<polygon fill="none" stroke="#000000" points="755.5,-700.7 755.5,-722.7 926.5,-722.7 926.5,-700.7 755.5,-700.7"/>
<text text-anchor="start" x="758.4896" y="-708.4" font-family="Helvetica,sans-Serif" font-size="11.00" fill="#000000">timestamp(6) with time zone[13,6]</text>
<polygon fill="none" stroke="#000000" points="523.5,-678.7 523.5,-700.7 755.5,-700.7 755.5,-678.7 523.5,-678.7"/>
<text text-anchor="start" x="543.5" y="-685.8" font-family="Helvetica,sans-Serif" font-size="11.00" fill="#000000">UPDATED_BY</text>
<polygon fill="none" stroke="#000000" points="755.5,-678.7 755.5,-700.7 926.5,-700.7 926.5,-678.7 755.5,-678.7"/>
<text text-anchor="start" x="758.5" y="-686.4" font-family="Helvetica,sans-Serif" font-size="11.00" fill="#000000">number[19]</text>
<polygon fill="none" stroke="#000000" points="523.5,-656.7 523.5,-678.7 755.5,-678.7 755.5,-656.7 523.5,-656.7"/>
<image xlink:href="../../images/foreignKeys.png" width="11px" height="12px" preserveAspectRatio="xMinYMin meet" x="528.5" y="-673.7"/>
<text text-anchor="start" x="543.5" y="-663.8" font-family="Helvetica,sans-Serif" font-size="11.00" fill="#000000">TARGET_ID</text>
<polygon fill="none" stroke="#000000" points="755.5,-656.7 755.5,-678.7 926.5,-678.7 926.5,-656.7 755.5,-656.7"/>
<text text-anchor="start" x="758.5" y="-664.4" font-family="Helvetica,sans-Serif" font-size="11.00" fill="#000000">number[19]</text>
<polygon fill="none" stroke="#000000" points="523.5,-634.7 523.5,-656.7 755.5,-656.7 755.5,-634.7 523.5,-634.7"/>
<image xlink:href="../../images/foreignKeys.png" width="11px" height="12px" preserveAspectRatio="xMinYMin meet" x="528.5" y="-651.7"/>
<text text-anchor="start" x="543.5" y="-641.8" font-family="Helvetica,sans-Serif" font-size="11.00" fill="#000000">TARGET_CATEGORY_ID</text>
<polygon fill="none" stroke="#000000" points="755.5,-634.7 755.5,-656.7 926.5,-656.7 926.5,-634.7 755.5,-634.7"/>
<text text-anchor="start" x="758.5" y="-642.4" font-family="Helvetica,sans-Serif" font-size="11.00" fill="#000000">number[19]</text>
<polygon fill="#ffffff" stroke="transparent" points="523.5,-615.7 523.5,-634.7 627.5,-634.7 627.5,-615.7 523.5,-615.7"/>
<polygon fill="none" stroke="#000000" points="523.5,-615.7 523.5,-634.7 627.5,-634.7 627.5,-615.7 523.5,-615.7"/>
<text text-anchor="start" x="526.5" y="-621.8" font-family="Helvetica,sans-Serif" font-size="11.00" fill="#000000">&lt; 2</text>
<polygon fill="#ffffff" stroke="transparent" points="627.5,-615.7 627.5,-634.7 755.5,-634.7 755.5,-615.7 627.5,-615.7"/>
<polygon fill="none" stroke="#000000" points="627.5,-615.7 627.5,-634.7 755.5,-634.7 755.5,-615.7 627.5,-615.7"/>
<text text-anchor="start" x="713.9956" y="-621.8" font-family="Helvetica,sans-Serif" font-size="11.00" fill="#000000">25 rows</text>
<polygon fill="#ffffff" stroke="transparent" points="755.5,-615.7 755.5,-634.7 926.5,-634.7 926.5,-615.7 755.5,-615.7"/>
<polygon fill="none" stroke="#000000" points="755.5,-615.7 755.5,-634.7 926.5,-634.7 926.5,-615.7 755.5,-615.7"/>
<text text-anchor="start" x="907.9053" y="-621.8" font-family="Helvetica,sans-Serif" font-size="11.00" fill="#000000">0 &gt;</text>
<polygon fill="none" stroke="#000000" stroke-width="2" points="522,-614.7 522,-812.7 927,-812.7 927,-614.7 522,-614.7"/>
</a>
</g>
</g>
<!-- TARGETS_TARGET_CATEGORIES&#45;&gt;TARGETS -->
<g id="edge13" class="edge">
<title>TARGETS_TARGET_CATEGORIES:w&#45;&gt;TARGETS:e</title>
<path fill="none" stroke="#000000" d="M510.1821,-661.7659C473.5286,-621.9886 528.1115,-395.7 472,-395.7"/>
<polygon fill="#000000" stroke="#000000" points="516.1926,-664.444 522.0348,-670.9883 519.8463,-666.072 523.5,-667.7 523.5,-667.7 523.5,-667.7 519.8463,-666.072 524.9652,-664.4117 516.1926,-664.444 516.1926,-664.444"/>
<ellipse fill="none" stroke="#000000" cx="513.2696" cy="-663.1416" rx="3.2" ry="3.2"/>
</g>
<!-- TARGETS_TARGET_CATEGORIES&#45;&gt;TARGET_CATEGORIES -->
<g id="edge12" class="edge">
<title>TARGETS_TARGET_CATEGORIES:w&#45;&gt;TARGET_CATEGORIES:e</title>
<path fill="none" stroke="#000000" d="M508.8166,-645.7C365.3168,-645.7 324.0425,-645.7 173.5,-645.7"/>
<polygon fill="#000000" stroke="#000000" points="515.5,-645.7001 523.5,-649.3 519.5,-645.7 523.5,-645.7 523.5,-645.7 523.5,-645.7 519.5,-645.7 523.5,-642.1 515.5,-645.7001 515.5,-645.7001"/>
<ellipse fill="none" stroke="#000000" cx="512.3" cy="-645.7001" rx="3.2" ry="3.2"/>
</g>
<!-- TARGETS_THERAPEUTIC_AREAS -->
<g id="node12" class="node">
<title>TARGETS_THERAPEUTIC_AREAS</title>
<g id="a_node12"><a xlink:href="../../tables/TARGETS_THERAPEUTIC_AREAS.html" xlink:title="TARGETS_THERAPEUTIC_AREAS" target="_top">
<polygon fill="#ffffff" stroke="transparent" points="613.5,-38.2 613.5,-99.2 835.5,-99.2 835.5,-38.2 613.5,-38.2"/>
<polygon fill="#f5f5f5" stroke="transparent" points="613.5,-75.7 613.5,-98.7 835.5,-98.7 835.5,-75.7 613.5,-75.7"/>
<polygon fill="none" stroke="#000000" points="613.5,-75.7 613.5,-98.7 835.5,-98.7 835.5,-75.7 613.5,-75.7"/>
<text text-anchor="start" x="618.4683" y="-84.8" font-family="Helvetica,sans-Serif" font-weight="bold" font-size="11.00" fill="#000000">TARGETS_THERAPEUTIC_AREAS</text>
<text text-anchor="start" x="801.0219" y="-83.8" font-family="Helvetica,sans-Serif" font-size="11.00" fill="#000000">[table]</text>
<polygon fill="none" stroke="#000000" points="613.5,-56.7 613.5,-75.7 835.5,-75.7 835.5,-56.7 613.5,-56.7"/>
<text text-anchor="start" x="616.5" y="-62.8" font-family="Helvetica,sans-Serif" font-size="11.00" fill="#000000">...</text>
<polygon fill="#ffffff" stroke="transparent" points="613.5,-37.7 613.5,-56.7 706.5,-56.7 706.5,-37.7 613.5,-37.7"/>
<polygon fill="none" stroke="#000000" points="613.5,-37.7 613.5,-56.7 706.5,-56.7 706.5,-37.7 613.5,-37.7"/>
<text text-anchor="start" x="616.5" y="-43.8" font-family="Helvetica,sans-Serif" font-size="11.00" fill="#000000">&lt; 2</text>
<polygon fill="#ffffff" stroke="transparent" points="706.5,-37.7 706.5,-56.7 786.5,-56.7 786.5,-37.7 706.5,-37.7"/>
<polygon fill="none" stroke="#000000" points="706.5,-37.7 706.5,-56.7 786.5,-56.7 786.5,-37.7 706.5,-37.7"/>
<text text-anchor="start" x="744.9956" y="-43.8" font-family="Helvetica,sans-Serif" font-size="11.00" fill="#000000">28 rows</text>
<polygon fill="#ffffff" stroke="transparent" points="786.5,-37.7 786.5,-56.7 835.5,-56.7 835.5,-37.7 786.5,-37.7"/>
<polygon fill="none" stroke="#000000" points="786.5,-37.7 786.5,-56.7 835.5,-56.7 835.5,-37.7 786.5,-37.7"/>
<text text-anchor="start" x="826.3862" y="-43.8" font-family="Helvetica,sans-Serif" font-size="11.00" fill="#000000"> &#160;</text>
</a>
</g>
</g>
<!-- TARGETS_THERAPEUTIC_AREAS&#45;&gt;TARGETS -->
<g id="edge14" class="edge">
<title>TARGETS_THERAPEUTIC_AREAS:w&#45;&gt;TARGETS:e</title>
<path fill="none" stroke="#000000" d="M598.918,-65.9066C559.9716,-67.1688 539.4055,-74.9837 513,-109.7 474.1308,-160.8029 536.2053,-395.7 472,-395.7"/>
<polygon fill="#000000" stroke="#000000" points="605.5008,-65.8134 613.551,-69.2996 609.5004,-65.7567 613.5,-65.7 613.5,-65.7 613.5,-65.7 609.5004,-65.7567 613.449,-62.1004 605.5008,-65.8134 605.5008,-65.8134"/>
<ellipse fill="none" stroke="#000000" cx="602.3011" cy="-65.8587" rx="3.2" ry="3.2"/>
</g>
<!-- TARGETS_THERAPEUTIC_AREAS&#45;&gt;THERAPEUTIC_AREAS -->
<g id="edge15" class="edge">
<title>TARGETS_THERAPEUTIC_AREAS:w&#45;&gt;THERAPEUTIC_AREAS:e</title>
<path fill="none" stroke="#000000" d="M598.8981,-66.8245C486.0061,-83.2751 276.2886,-274.7 172.5,-274.7"/>
<polygon fill="#000000" stroke="#000000" points="605.5236,-66.3143 613.7764,-69.2894 609.5118,-66.0072 613.5,-65.7 613.5,-65.7 613.5,-65.7 609.5118,-66.0072 613.2236,-62.1106 605.5236,-66.3143 605.5236,-66.3143"/>
<ellipse fill="none" stroke="#000000" cx="602.3331" cy="-66.56" rx="3.2" ry="3.2"/>
</g>
<!-- TARGETS_USERS -->
<g id="node13" class="node">
<title>TARGETS_USERS</title>
<g id="a_node13"><a xlink:href="../../tables/TARGETS_USERS.html" xlink:title="TARGETS_USERS" target="_top">
<polygon fill="#ffffff" stroke="transparent" points="655.5,-531.2 655.5,-592.2 793.5,-592.2 793.5,-531.2 655.5,-531.2"/>
<polygon fill="#f5f5f5" stroke="transparent" points="655.5,-568.7 655.5,-591.7 793.5,-591.7 793.5,-568.7 655.5,-568.7"/>
<polygon fill="none" stroke="#000000" points="655.5,-568.7 655.5,-591.7 793.5,-591.7 793.5,-568.7 655.5,-568.7"/>
<text text-anchor="start" x="660.0251" y="-577.8" font-family="Helvetica,sans-Serif" font-weight="bold" font-size="11.00" fill="#000000">TARGETS_USERS</text>
<text text-anchor="start" x="759.0219" y="-576.8" font-family="Helvetica,sans-Serif" font-size="11.00" fill="#000000">[table]</text>
<polygon fill="none" stroke="#000000" points="655.5,-549.7 655.5,-568.7 793.5,-568.7 793.5,-549.7 655.5,-549.7"/>
<text text-anchor="start" x="658.5" y="-555.8" font-family="Helvetica,sans-Serif" font-size="11.00" fill="#000000">...</text>
<polygon fill="#ffffff" stroke="transparent" points="655.5,-530.7 655.5,-549.7 706.5,-549.7 706.5,-530.7 655.5,-530.7"/>
<polygon fill="none" stroke="#000000" points="655.5,-530.7 655.5,-549.7 706.5,-549.7 706.5,-530.7 655.5,-530.7"/>
<text text-anchor="start" x="658.5" y="-536.8" font-family="Helvetica,sans-Serif" font-size="11.00" fill="#000000">&lt; 3</text>
<polygon fill="#ffffff" stroke="transparent" points="706.5,-530.7 706.5,-549.7 765.5,-549.7 765.5,-530.7 706.5,-530.7"/>
<polygon fill="none" stroke="#000000" points="706.5,-530.7 706.5,-549.7 765.5,-549.7 765.5,-530.7 706.5,-530.7"/>
<text text-anchor="start" x="723.9956" y="-536.8" font-family="Helvetica,sans-Serif" font-size="11.00" fill="#000000">35 rows</text>
<polygon fill="#ffffff" stroke="transparent" points="765.5,-530.7 765.5,-549.7 793.5,-549.7 793.5,-530.7 765.5,-530.7"/>
<polygon fill="none" stroke="#000000" points="765.5,-530.7 765.5,-549.7 793.5,-549.7 793.5,-530.7 765.5,-530.7"/>
<text text-anchor="start" x="784.3862" y="-536.8" font-family="Helvetica,sans-Serif" font-size="11.00" fill="#000000"> &#160;</text>
</a>
</g>
</g>
<!-- TARGETS_USERS&#45;&gt;TARGETS -->
<g id="edge16" class="edge">
<title>TARGETS_USERS:w&#45;&gt;TARGETS:e</title>
<path fill="none" stroke="#000000" d="M641.0341,-558.7416C584.9678,-558.9831 556.9874,-558.9588 513,-516.7 472.0532,-477.3623 528.7811,-395.7 472,-395.7"/>
<polygon fill="#000000" stroke="#000000" points="647.5,-558.7231 655.5104,-562.3 651.5,-558.7115 655.5,-558.7 655.5,-558.7 655.5,-558.7 651.5,-558.7115 655.4896,-555.1 647.5,-558.7231 647.5,-558.7231"/>
<ellipse fill="none" stroke="#000000" cx="644.3" cy="-558.7323" rx="3.2" ry="3.2"/>
</g>
<!-- TRACER_SYNTHESIS_REQUESTS -->
<g id="node14" class="node">
<title>TRACER_SYNTHESIS_REQUESTS</title>
<g id="a_node14"><a xlink:href="../../tables/TRACER_SYNTHESIS_REQUESTS.html" xlink:title="TRACER_SYNTHESIS_REQUESTS" target="_top">
<polygon fill="#ffffff" stroke="transparent" points="1159,-479.2 1159,-540.2 1382,-540.2 1382,-479.2 1159,-479.2"/>
<polygon fill="#f5f5f5" stroke="transparent" points="1159.5,-516.7 1159.5,-539.7 1382.5,-539.7 1382.5,-516.7 1159.5,-516.7"/>
<polygon fill="none" stroke="#000000" points="1159.5,-516.7 1159.5,-539.7 1382.5,-539.7 1382.5,-516.7 1159.5,-516.7"/>
<text text-anchor="start" x="1164.3578" y="-525.8" font-family="Helvetica,sans-Serif" font-weight="bold" font-size="11.00" fill="#000000">TRACER_SYNTHESIS_REQUESTS</text>
<text text-anchor="start" x="1348.0219" y="-524.8" font-family="Helvetica,sans-Serif" font-size="11.00" fill="#000000">[table]</text>
<polygon fill="none" stroke="#000000" points="1159.5,-497.7 1159.5,-516.7 1382.5,-516.7 1382.5,-497.7 1159.5,-497.7"/>
<text text-anchor="start" x="1162.5" y="-503.8" font-family="Helvetica,sans-Serif" font-size="11.00" fill="#000000">...</text>
<polygon fill="#ffffff" stroke="transparent" points="1159.5,-478.7 1159.5,-497.7 1251.5,-497.7 1251.5,-478.7 1159.5,-478.7"/>
<polygon fill="none" stroke="#000000" points="1159.5,-478.7 1159.5,-497.7 1251.5,-497.7 1251.5,-478.7 1159.5,-478.7"/>
<text text-anchor="start" x="1162.5" y="-484.8" font-family="Helvetica,sans-Serif" font-size="11.00" fill="#000000">&lt; 12</text>
<polygon fill="#ffffff" stroke="transparent" points="1251.5,-478.7 1251.5,-497.7 1328.5,-497.7 1328.5,-478.7 1251.5,-478.7"/>
<polygon fill="none" stroke="#000000" points="1251.5,-478.7 1251.5,-497.7 1328.5,-497.7 1328.5,-478.7 1251.5,-478.7"/>
<text text-anchor="start" x="1286.9956" y="-484.8" font-family="Helvetica,sans-Serif" font-size="11.00" fill="#000000">21 rows</text>
<polygon fill="#ffffff" stroke="transparent" points="1328.5,-478.7 1328.5,-497.7 1382.5,-497.7 1382.5,-478.7 1328.5,-478.7"/>
<polygon fill="none" stroke="#000000" points="1328.5,-478.7 1328.5,-497.7 1382.5,-497.7 1382.5,-478.7 1328.5,-478.7"/>
<text text-anchor="start" x="1363.9053" y="-484.8" font-family="Helvetica,sans-Serif" font-size="11.00" fill="#000000">2 &gt;</text>
</a>
</g>
</g>
<!-- TRACER_SYNTHESIS_REQUESTS&#45;&gt;TARGETS -->
<g id="edge19" class="edge">
<title>TRACER_SYNTHESIS_REQUESTS:w&#45;&gt;TARGETS:e</title>
<path fill="none" stroke="#000000" d="M1144.9052,-506.8741C1035.5464,-508.927 569.5094,-527.7737 513,-489.7 475.2003,-464.2321 517.5789,-395.7 472,-395.7"/>
<polygon fill="#000000" stroke="#000000" points="1151.5006,-506.7955 1159.543,-510.2997 1155.5003,-506.7477 1159.5,-506.7 1159.5,-506.7 1159.5,-506.7 1155.5003,-506.7477 1159.457,-503.1003 1151.5006,-506.7955 1151.5006,-506.7955"/>
<ellipse fill="none" stroke="#000000" cx="1148.3008" cy="-506.8337" rx="3.2" ry="3.2"/>
</g>
<!-- TRACER_SYNTHESIS_REQUESTS&#45;&gt;TARGET_FORMS -->
<g id="edge18" class="edge">
<title>TRACER_SYNTHESIS_REQUESTS:w&#45;&gt;TARGET_FORMS:e</title>
<path fill="none" stroke="#000000" d="M1145.8596,-502.0415C1128.1978,-486.2459 1142.8501,-435.7 1110.5,-435.7"/>
<polygon fill="#000000" stroke="#000000" points="1151.9293,-504.1144 1158.3365,-510.1068 1155.7147,-505.4072 1159.5,-506.7 1159.5,-506.7 1159.5,-506.7 1155.7147,-505.4072 1160.6635,-503.2932 1151.9293,-504.1144 1151.9293,-504.1144"/>
<ellipse fill="none" stroke="#000000" cx="1148.9011" cy="-503.0802" rx="3.2" ry="3.2"/>
</g>
<!-- TRACER_SYNTHESIS_REQUESTS&#45;&gt;TARGET_CATEGORIES -->
<g id="edge17" class="edge">
<title>TRACER_SYNTHESIS_REQUESTS:w&#45;&gt;TARGET_CATEGORIES:e</title>
<path fill="none" stroke="#000000" d="M1145.0647,-509.2835C1066.2229,-537.4483 1008.3086,-787.1392 936,-824.7 769.1657,-911.3622 695.4946,-869.8633 513,-824.7 471.6045,-814.4556 216.1443,-645.7 173.5,-645.7"/>
<polygon fill="#000000" stroke="#000000" points="1151.6251,-508.1094 1160.1342,-510.2437 1155.5626,-507.4047 1159.5,-506.7 1159.5,-506.7 1159.5,-506.7 1155.5626,-507.4047 1158.8658,-503.1563 1151.6251,-508.1094 1151.6251,-508.1094"/>
<ellipse fill="none" stroke="#000000" cx="1148.4752" cy="-508.6732" rx="3.2" ry="3.2"/>
</g>
</g>
</svg>
