<?xml version="1.0" encoding="UTF-8" standalone="no"?>
<!DOCTYPE svg PUBLIC "-//W3C//DTD SVG 1.1//EN"
 "http://www.w3.org/Graphics/SVG/1.1/DTD/svg11.dtd">
<!-- Generated by graphviz version 2.40.1 (20161225.0304)
 -->
<!-- Title: oneDegreeRelationshipsDiagram Pages: 1 -->
<svg width="675pt" height="341pt"
 viewBox="0.00 0.00 675.00 340.70" xmlns="http://www.w3.org/2000/svg" xmlns:xlink="http://www.w3.org/1999/xlink">
<g id="graph0" class="graph" transform="scale(1 1) rotate(0) translate(4 336.7)">
<title>oneDegreeRelationshipsDiagram</title>
<polygon fill="#ffffff" stroke="transparent" points="-4,4 -4,-336.7 671,-336.7 671,4 -4,4"/>
<text text-anchor="middle" x="72.4936" y="-7.3" font-family="Helvetica,sans-Serif" font-size="11.00" fill="#000000">Generated by SchemaSpy</text>
<!-- TARGETS_INDICATIONS -->
<g id="node1" class="node">
<title>TARGETS_INDICATIONS</title>
<g id="a_node1"><a xlink:href="../../tables/TARGETS_INDICATIONS.html" xlink:title="TARGETS_INDICATIONS" target="_top">
<polygon fill="#ffffff" stroke="transparent" points="307,-106.7 307,-328.7 659,-328.7 659,-106.7 307,-106.7"/>
<polygon fill="#f5f5f5" stroke="transparent" points="309,-303.7 309,-326.7 657,-326.7 657,-303.7 309,-303.7"/>
<polygon fill="none" stroke="#000000" points="309,-303.7 309,-326.7 657,-326.7 657,-303.7 309,-303.7"/>
<text text-anchor="start" x="314" y="-312.8" font-family="Helvetica,sans-Serif" font-weight="bold" font-size="11.00" fill="#000000">TARGETS_INDICATIONS</text>
<text text-anchor="start" x="622.0437" y="-311.8" font-family="Helvetica,sans-Serif" font-size="11.00" fill="#000000">[table]</text>
<polygon fill="none" stroke="#000000" points="309,-281.7 309,-303.7 486,-303.7 486,-281.7 309,-281.7"/>
<image xlink:href="../../images/primaryKeys.png" width="11px" height="12px" preserveAspectRatio="xMinYMin meet" x="314" y="-298.7"/>
<text text-anchor="start" x="329" y="-288.8" font-family="Helvetica,sans-Serif" font-size="11.00" fill="#000000">ID</text>
<polygon fill="none" stroke="#000000" points="486,-281.7 486,-303.7 657,-303.7 657,-281.7 486,-281.7"/>
<text text-anchor="start" x="489" y="-289.4" font-family="Helvetica,sans-Serif" font-size="11.00" fill="#000000">number[19]</text>
<polygon fill="none" stroke="#000000" points="309,-259.7 309,-281.7 486,-281.7 486,-259.7 309,-259.7"/>
<text text-anchor="start" x="329" y="-266.8" font-family="Helvetica,sans-Serif" font-size="11.00" fill="#000000">CREATED_AT</text>
<polygon fill="none" stroke="#000000" points="486,-259.7 486,-281.7 657,-281.7 657,-259.7 486,-259.7"/>
<text text-anchor="start" x="488.9896" y="-267.4" font-family="Helvetica,sans-Serif" font-size="11.00" fill="#000000">timestamp(6) with time zone[13,6]</text>
<polygon fill="none" stroke="#000000" points="309,-237.7 309,-259.7 486,-259.7 486,-237.7 309,-237.7"/>
<text text-anchor="start" x="329" y="-244.8" font-family="Helvetica,sans-Serif" font-size="11.00" fill="#000000">CREATED_BY</text>
<polygon fill="none" stroke="#000000" points="486,-237.7 486,-259.7 657,-259.7 657,-237.7 486,-237.7"/>
<text text-anchor="start" x="489" y="-245.4" font-family="Helvetica,sans-Serif" font-size="11.00" fill="#000000">number[19]</text>
<polygon fill="none" stroke="#000000" points="309,-215.7 309,-237.7 486,-237.7 486,-215.7 309,-215.7"/>
<text text-anchor="start" x="329" y="-222.8" font-family="Helvetica,sans-Serif" font-size="11.00" fill="#000000">UPDATED_AT</text>
<polygon fill="none" stroke="#000000" points="486,-215.7 486,-237.7 657,-237.7 657,-215.7 486,-215.7"/>
<text text-anchor="start" x="488.9896" y="-223.4" font-family="Helvetica,sans-Serif" font-size="11.00" fill="#000000">timestamp(6) with time zone[13,6]</text>
<polygon fill="none" stroke="#000000" points="309,-193.7 309,-215.7 486,-215.7 486,-193.7 309,-193.7"/>
<text text-anchor="start" x="329" y="-200.8" font-family="Helvetica,sans-Serif" font-size="11.00" fill="#000000">UPDATED_BY</text>
<polygon fill="none" stroke="#000000" points="486,-193.7 486,-215.7 657,-215.7 657,-193.7 486,-193.7"/>
<text text-anchor="start" x="489" y="-201.4" font-family="Helvetica,sans-Serif" font-size="11.00" fill="#000000">number[19]</text>
<polygon fill="none" stroke="#000000" points="309,-171.7 309,-193.7 486,-193.7 486,-171.7 309,-171.7"/>
<image xlink:href="../../images/foreignKeys.png" width="11px" height="12px" preserveAspectRatio="xMinYMin meet" x="314" y="-188.7"/>
<text text-anchor="start" x="329" y="-178.8" font-family="Helvetica,sans-Serif" font-size="11.00" fill="#000000">TARGET_ID</text>
<polygon fill="none" stroke="#000000" points="486,-171.7 486,-193.7 657,-193.7 657,-171.7 486,-171.7"/>
<text text-anchor="start" x="489" y="-179.4" font-family="Helvetica,sans-Serif" font-size="11.00" fill="#000000">number[19]</text>
<polygon fill="none" stroke="#000000" points="309,-149.7 309,-171.7 486,-171.7 486,-149.7 309,-149.7"/>
<image xlink:href="../../images/foreignKeys.png" width="11px" height="12px" preserveAspectRatio="xMinYMin meet" x="314" y="-166.7"/>
<text text-anchor="start" x="329" y="-156.8" font-family="Helvetica,sans-Serif" font-size="11.00" fill="#000000">INDICATION_ID</text>
<polygon fill="none" stroke="#000000" points="486,-149.7 486,-171.7 657,-171.7 657,-149.7 486,-149.7"/>
<text text-anchor="start" x="489" y="-157.4" font-family="Helvetica,sans-Serif" font-size="11.00" fill="#000000">number[19]</text>
<polygon fill="none" stroke="#000000" points="309,-127.7 309,-149.7 486,-149.7 486,-127.7 309,-127.7"/>
<text text-anchor="start" x="329" y="-134.8" font-family="Helvetica,sans-Serif" font-size="11.00" fill="#000000">IS_INTERESTED</text>
<polygon fill="none" stroke="#000000" points="486,-127.7 486,-149.7 657,-149.7 657,-127.7 486,-127.7"/>
<text text-anchor="start" x="489" y="-135.4" font-family="Helvetica,sans-Serif" font-size="11.00" fill="#000000">number[1]</text>
<polygon fill="#ffffff" stroke="transparent" points="309,-108.7 309,-127.7 386,-127.7 386,-108.7 309,-108.7"/>
<polygon fill="none" stroke="#000000" points="309,-108.7 309,-127.7 386,-127.7 386,-108.7 309,-108.7"/>
<text text-anchor="start" x="312" y="-114.8" font-family="Helvetica,sans-Serif" font-size="11.00" fill="#000000">&lt; 2</text>
<polygon fill="#ffffff" stroke="transparent" points="386,-108.7 386,-127.7 486,-127.7 486,-108.7 386,-108.7"/>
<polygon fill="none" stroke="#000000" points="386,-108.7 386,-127.7 486,-127.7 486,-108.7 386,-108.7"/>
<text text-anchor="start" x="444.4956" y="-114.8" font-family="Helvetica,sans-Serif" font-size="11.00" fill="#000000">22 rows</text>
<polygon fill="#ffffff" stroke="transparent" points="486,-108.7 486,-127.7 657,-127.7 657,-108.7 486,-108.7"/>
<polygon fill="none" stroke="#000000" points="486,-108.7 486,-127.7 657,-127.7 657,-108.7 486,-108.7"/>
<text text-anchor="start" x="638.4053" y="-114.8" font-family="Helvetica,sans-Serif" font-size="11.00" fill="#000000">0 &gt;</text>
<polygon fill="none" stroke="#000000" stroke-width="2" points="308,-107.7 308,-327.7 658,-327.7 658,-107.7 308,-107.7"/>
</a>
</g>
</g>
<!-- INDICATIONS -->
<g id="node2" class="node">
<title>INDICATIONS</title>
<g id="a_node2"><a xlink:href="../../tables/INDICATIONS.html" xlink:title="INDICATIONS" target="_top">
<polygon fill="#ffffff" stroke="transparent" points="76.5,-38.2 76.5,-121.2 189.5,-121.2 189.5,-38.2 76.5,-38.2"/>
<polygon fill="#f5f5f5" stroke="transparent" points="77,-97.7 77,-120.7 190,-120.7 190,-97.7 77,-97.7"/>
<polygon fill="none" stroke="#000000" points="77,-97.7 77,-120.7 190,-120.7 190,-97.7 77,-97.7"/>
<text text-anchor="start" x="81.5586" y="-106.8" font-family="Helvetica,sans-Serif" font-weight="bold" font-size="11.00" fill="#000000">INDICATIONS</text>
<text text-anchor="start" x="155.5219" y="-105.8" font-family="Helvetica,sans-Serif" font-size="11.00" fill="#000000">[table]</text>
<polygon fill="none" stroke="#000000" points="77,-75.7 77,-97.7 190,-97.7 190,-75.7 77,-75.7"/>
<image xlink:href="../../images/primaryKeys.png" width="11px" height="12px" preserveAspectRatio="xMinYMin meet" x="82" y="-92.7"/>
<text text-anchor="start" x="99" y="-82.8" font-family="Helvetica,sans-Serif" font-size="11.00" fill="#000000">ID</text>
<polygon fill="none" stroke="#000000" points="77,-56.7 77,-75.7 190,-75.7 190,-56.7 77,-56.7"/>
<text text-anchor="start" x="80" y="-62.8" font-family="Helvetica,sans-Serif" font-size="11.00" fill="#000000">...</text>
<polygon fill="#ffffff" stroke="transparent" points="77,-37.7 77,-56.7 107,-56.7 107,-37.7 77,-37.7"/>
<polygon fill="none" stroke="#000000" points="77,-37.7 77,-56.7 107,-56.7 107,-37.7 77,-37.7"/>
<text text-anchor="start" x="80" y="-43.8" font-family="Helvetica,sans-Serif" font-size="11.00" fill="#000000"> &#160;</text>
<polygon fill="#ffffff" stroke="transparent" points="107,-37.7 107,-56.7 160,-56.7 160,-37.7 107,-37.7"/>
<polygon fill="none" stroke="#000000" points="107,-37.7 107,-56.7 160,-56.7 160,-37.7 107,-37.7"/>
<text text-anchor="start" x="118.4956" y="-43.8" font-family="Helvetica,sans-Serif" font-size="11.00" fill="#000000">13 rows</text>
<polygon fill="#ffffff" stroke="transparent" points="160,-37.7 160,-56.7 190,-56.7 190,-37.7 160,-37.7"/>
<polygon fill="none" stroke="#000000" points="160,-37.7 160,-56.7 190,-56.7 190,-37.7 160,-37.7"/>
<text text-anchor="start" x="171.4053" y="-43.8" font-family="Helvetica,sans-Serif" font-size="11.00" fill="#000000">1 &gt;</text>
</a>
</g>
</g>
<!-- TARGETS_INDICATIONS&#45;&gt;INDICATIONS -->
<g id="edge1" class="edge">
<title>TARGETS_INDICATIONS:w&#45;&gt;INDICATIONS:e</title>
<path fill="none" stroke="#000000" d="M294.6318,-157.564C284.359,-152.1471 280.3067,-140.7489 266,-131.7 232.8243,-110.7165 229.2548,-86.7 190,-86.7"/>
<polygon fill="#000000" stroke="#000000" points="301.184,-158.994 308.2323,-164.2172 305.092,-159.847 309,-160.7 309,-160.7 309,-160.7 305.092,-159.847 309.7677,-157.1828 301.184,-158.994 301.184,-158.994"/>
<ellipse fill="none" stroke="#000000" cx="298.0576" cy="-158.3116" rx="3.2" ry="3.2"/>
</g>
<!-- TARGETS -->
<g id="node3" class="node">
<title>TARGETS</title>
<g id="a_node3"><a xlink:href="../../tables/TARGETS.html" xlink:title="TARGETS" target="_top">
<polygon fill="#ffffff" stroke="transparent" points="8,-142.2 8,-291.2 258,-291.2 258,-142.2 8,-142.2"/>
<polygon fill="#f5f5f5" stroke="transparent" points="8,-267.7 8,-290.7 258,-290.7 258,-267.7 8,-267.7"/>
<polygon fill="none" stroke="#000000" points="8,-267.7 8,-290.7 258,-290.7 258,-267.7 8,-267.7"/>
<text text-anchor="start" x="13" y="-276.8" font-family="Helvetica,sans-Serif" font-weight="bold" font-size="11.00" fill="#000000">TARGETS</text>
<text text-anchor="start" x="223.0437" y="-275.8" font-family="Helvetica,sans-Serif" font-size="11.00" fill="#000000">[table]</text>
<polygon fill="none" stroke="#000000" points="8,-245.7 8,-267.7 258,-267.7 258,-245.7 8,-245.7"/>
<image xlink:href="../../images/primaryKeys.png" width="11px" height="12px" preserveAspectRatio="xMinYMin meet" x="13" y="-262.7"/>
<text text-anchor="start" x="28" y="-252.8" font-family="Helvetica,sans-Serif" font-size="11.00" fill="#000000">ID</text>
<polygon fill="none" stroke="#000000" points="8,-223.7 8,-245.7 258,-245.7 258,-223.7 8,-223.7"/>
<image xlink:href="../../images/foreignKeys.png" width="11px" height="12px" preserveAspectRatio="xMinYMin meet" x="13" y="-240.7"/>
<text text-anchor="start" x="28" y="-230.8" font-family="Helvetica,sans-Serif" font-size="11.00" fill="#000000">PROJECT_ID</text>
<polygon fill="none" stroke="#000000" points="8,-201.7 8,-223.7 258,-223.7 258,-201.7 8,-201.7"/>
<image xlink:href="../../images/foreignKeys.png" width="11px" height="12px" preserveAspectRatio="xMinYMin meet" x="13" y="-218.7"/>
<text text-anchor="start" x="28" y="-208.8" font-family="Helvetica,sans-Serif" font-size="11.00" fill="#000000">TARGET_CATEGORY_ID</text>
<polygon fill="none" stroke="#000000" points="8,-179.7 8,-201.7 258,-201.7 258,-179.7 8,-179.7"/>
<image xlink:href="../../images/foreignKeys.png" width="11px" height="12px" preserveAspectRatio="xMinYMin meet" x="13" y="-196.7"/>
<text text-anchor="start" x="28" y="-186.8" font-family="Helvetica,sans-Serif" font-size="11.00" fill="#000000">THERAPEUTIC_ID</text>
<polygon fill="none" stroke="#000000" points="8,-160.7 8,-179.7 258,-179.7 258,-160.7 8,-160.7"/>
<text text-anchor="start" x="11" y="-166.8" font-family="Helvetica,sans-Serif" font-size="11.00" fill="#000000">...</text>
<polygon fill="#ffffff" stroke="transparent" points="8,-141.7 8,-160.7 105,-160.7 105,-141.7 8,-141.7"/>
<polygon fill="none" stroke="#000000" points="8,-141.7 8,-160.7 105,-160.7 105,-141.7 8,-141.7"/>
<text text-anchor="start" x="11" y="-147.8" font-family="Helvetica,sans-Serif" font-size="11.00" fill="#000000">&lt; 3</text>
<polygon fill="#ffffff" stroke="transparent" points="105,-141.7 105,-160.7 193,-160.7 193,-141.7 105,-141.7"/>
<polygon fill="none" stroke="#000000" points="105,-141.7 105,-160.7 193,-160.7 193,-141.7 105,-141.7"/>
<text text-anchor="start" x="145.3807" y="-147.8" font-family="Helvetica,sans-Serif" font-size="11.00" fill="#000000">146 rows</text>
<polygon fill="#ffffff" stroke="transparent" points="193,-141.7 193,-160.7 258,-160.7 258,-141.7 193,-141.7"/>
<polygon fill="none" stroke="#000000" points="193,-141.7 193,-160.7 258,-160.7 258,-141.7 193,-141.7"/>
<text text-anchor="start" x="233.2904" y="-147.8" font-family="Helvetica,sans-Serif" font-size="11.00" fill="#000000">10 &gt;</text>
</a>
</g>
</g>
<!-- TARGETS_INDICATIONS&#45;&gt;TARGETS -->
<g id="edge2" class="edge">
<title>TARGETS_INDICATIONS:w&#45;&gt;TARGETS:e</title>
<path fill="none" stroke="#000000" d="M295.0503,-187.329C276.2607,-203.5294 291.8581,-256.7 258,-256.7"/>
<polygon fill="#000000" stroke="#000000" points="301.4071,-185.2196 310.1338,-186.1168 305.2036,-183.9598 309,-182.7 309,-182.7 309,-182.7 305.2036,-183.9598 307.8662,-179.2832 301.4071,-185.2196 301.4071,-185.2196"/>
<ellipse fill="none" stroke="#000000" cx="298.37" cy="-186.2275" rx="3.2" ry="3.2"/>
</g>
</g>
</svg>
