<?xml version="1.0" encoding="UTF-8" standalone="no"?>
<!DOCTYPE svg PUBLIC "-//W3C//DTD SVG 1.1//EN"
 "http://www.w3.org/Graphics/SVG/1.1/DTD/svg11.dtd">
<!-- Generated by graphviz version 2.40.1 (20161225.0304)
 -->
<!-- Title: oneDegreeRelationshipsDiagram Pages: 1 -->
<svg width="804pt" height="429pt"
 viewBox="0.00 0.00 804.00 428.70" xmlns="http://www.w3.org/2000/svg" xmlns:xlink="http://www.w3.org/1999/xlink">
<g id="graph0" class="graph" transform="scale(1 1) rotate(0) translate(4 424.7)">
<title>oneDegreeRelationshipsDiagram</title>
<polygon fill="#ffffff" stroke="transparent" points="-4,4 -4,-424.7 800,-424.7 800,4 -4,4"/>
<text text-anchor="middle" x="72.4936" y="-7.3" font-family="Helvetica,sans-Serif" font-size="11.00" fill="#000000">Generated by SchemaSpy</text>
<!-- TARGET_FORMS_PROTEIN_GROUPS -->
<g id="node1" class="node">
<title>TARGET_FORMS_PROTEIN_GROUPS</title>
<g id="a_node1"><a xlink:href="../../tables/TARGET_FORMS_PROTEIN_GROUPS.html" xlink:title="TARGET_FORMS_PROTEIN_GROUPS" target="_top">
<polygon fill="#ffffff" stroke="transparent" points="358,-216.7 358,-416.7 788,-416.7 788,-216.7 358,-216.7"/>
<polygon fill="#f5f5f5" stroke="transparent" points="360,-391.7 360,-414.7 786,-414.7 786,-391.7 360,-391.7"/>
<polygon fill="none" stroke="#000000" points="360,-391.7 360,-414.7 786,-414.7 786,-391.7 360,-391.7"/>
<text text-anchor="start" x="365" y="-400.8" font-family="Helvetica,sans-Serif" font-weight="bold" font-size="11.00" fill="#000000">TARGET_FORMS_PROTEIN_GROUPS</text>
<text text-anchor="start" x="751.0437" y="-399.8" font-family="Helvetica,sans-Serif" font-size="11.00" fill="#000000">[table]</text>
<polygon fill="none" stroke="#000000" points="360,-369.7 360,-391.7 615,-391.7 615,-369.7 360,-369.7"/>
<image xlink:href="../../images/primaryKeys.png" width="11px" height="12px" preserveAspectRatio="xMinYMin meet" x="365" y="-386.7"/>
<text text-anchor="start" x="380" y="-376.8" font-family="Helvetica,sans-Serif" font-size="11.00" fill="#000000">ID</text>
<polygon fill="none" stroke="#000000" points="615,-369.7 615,-391.7 786,-391.7 786,-369.7 615,-369.7"/>
<text text-anchor="start" x="618" y="-377.4" font-family="Helvetica,sans-Serif" font-size="11.00" fill="#000000">number[19]</text>
<polygon fill="none" stroke="#000000" points="360,-347.7 360,-369.7 615,-369.7 615,-347.7 360,-347.7"/>
<text text-anchor="start" x="380" y="-354.8" font-family="Helvetica,sans-Serif" font-size="11.00" fill="#000000">CREATED_AT</text>
<polygon fill="none" stroke="#000000" points="615,-347.7 615,-369.7 786,-369.7 786,-347.7 615,-347.7"/>
<text text-anchor="start" x="617.9896" y="-355.4" font-family="Helvetica,sans-Serif" font-size="11.00" fill="#000000">timestamp(6) with time zone[13,6]</text>
<polygon fill="none" stroke="#000000" points="360,-325.7 360,-347.7 615,-347.7 615,-325.7 360,-325.7"/>
<text text-anchor="start" x="380" y="-332.8" font-family="Helvetica,sans-Serif" font-size="11.00" fill="#000000">CREATED_BY</text>
<polygon fill="none" stroke="#000000" points="615,-325.7 615,-347.7 786,-347.7 786,-325.7 615,-325.7"/>
<text text-anchor="start" x="618" y="-333.4" font-family="Helvetica,sans-Serif" font-size="11.00" fill="#000000">number[19]</text>
<polygon fill="none" stroke="#000000" points="360,-303.7 360,-325.7 615,-325.7 615,-303.7 360,-303.7"/>
<text text-anchor="start" x="380" y="-310.8" font-family="Helvetica,sans-Serif" font-size="11.00" fill="#000000">UPDATED_AT</text>
<polygon fill="none" stroke="#000000" points="615,-303.7 615,-325.7 786,-325.7 786,-303.7 615,-303.7"/>
<text text-anchor="start" x="617.9896" y="-311.4" font-family="Helvetica,sans-Serif" font-size="11.00" fill="#000000">timestamp(6) with time zone[13,6]</text>
<polygon fill="none" stroke="#000000" points="360,-281.7 360,-303.7 615,-303.7 615,-281.7 360,-281.7"/>
<text text-anchor="start" x="380" y="-288.8" font-family="Helvetica,sans-Serif" font-size="11.00" fill="#000000">UPDATED_BY</text>
<polygon fill="none" stroke="#000000" points="615,-281.7 615,-303.7 786,-303.7 786,-281.7 615,-281.7"/>
<text text-anchor="start" x="618" y="-289.4" font-family="Helvetica,sans-Serif" font-size="11.00" fill="#000000">number[19]</text>
<polygon fill="none" stroke="#000000" points="360,-259.7 360,-281.7 615,-281.7 615,-259.7 360,-259.7"/>
<image xlink:href="../../images/primaryKeys.png" width="11px" height="12px" preserveAspectRatio="xMinYMin meet" x="365" y="-276.7"/>
<text text-anchor="start" x="380" y="-266.8" font-family="Helvetica,sans-Serif" font-size="11.00" fill="#000000">PROTEIN_GROUP_ID</text>
<polygon fill="none" stroke="#000000" points="615,-259.7 615,-281.7 786,-281.7 786,-259.7 615,-259.7"/>
<text text-anchor="start" x="618" y="-267.4" font-family="Helvetica,sans-Serif" font-size="11.00" fill="#000000">number[19]</text>
<polygon fill="none" stroke="#000000" points="360,-237.7 360,-259.7 615,-259.7 615,-237.7 360,-237.7"/>
<image xlink:href="../../images/primaryKeys.png" width="11px" height="12px" preserveAspectRatio="xMinYMin meet" x="365" y="-254.7"/>
<text text-anchor="start" x="380" y="-244.8" font-family="Helvetica,sans-Serif" font-size="11.00" fill="#000000">TARGET_FORM_ID</text>
<polygon fill="none" stroke="#000000" points="615,-237.7 615,-259.7 786,-259.7 786,-237.7 615,-237.7"/>
<text text-anchor="start" x="618" y="-245.4" font-family="Helvetica,sans-Serif" font-size="11.00" fill="#000000">number[19]</text>
<polygon fill="#ffffff" stroke="transparent" points="360,-218.7 360,-237.7 476,-237.7 476,-218.7 360,-218.7"/>
<polygon fill="none" stroke="#000000" points="360,-218.7 360,-237.7 476,-237.7 476,-218.7 360,-218.7"/>
<text text-anchor="start" x="363" y="-224.8" font-family="Helvetica,sans-Serif" font-size="11.00" fill="#000000">&lt; 2</text>
<polygon fill="#ffffff" stroke="transparent" points="476,-218.7 476,-237.7 615,-237.7 615,-218.7 476,-218.7"/>
<polygon fill="none" stroke="#000000" points="476,-218.7 476,-237.7 615,-237.7 615,-218.7 476,-218.7"/>
<text text-anchor="start" x="573.4956" y="-224.8" font-family="Helvetica,sans-Serif" font-size="11.00" fill="#000000">17 rows</text>
<polygon fill="#ffffff" stroke="transparent" points="615,-218.7 615,-237.7 786,-237.7 786,-218.7 615,-218.7"/>
<polygon fill="none" stroke="#000000" points="615,-218.7 615,-237.7 786,-237.7 786,-218.7 615,-218.7"/>
<text text-anchor="start" x="767.4053" y="-224.8" font-family="Helvetica,sans-Serif" font-size="11.00" fill="#000000">0 &gt;</text>
<polygon fill="none" stroke="#000000" stroke-width="2" points="359,-217.7 359,-415.7 787,-415.7 787,-217.7 359,-217.7"/>
</a>
</g>
</g>
<!-- PROTEIN_GROUPS -->
<g id="node2" class="node">
<title>PROTEIN_GROUPS</title>
<g id="a_node2"><a xlink:href="../../tables/PROTEIN_GROUPS.html" xlink:title="PROTEIN_GROUPS" target="_top">
<polygon fill="#ffffff" stroke="transparent" points="86,-252.2 86,-357.2 231,-357.2 231,-252.2 86,-252.2"/>
<polygon fill="#f5f5f5" stroke="transparent" points="86.5,-333.7 86.5,-356.7 231.5,-356.7 231.5,-333.7 86.5,-333.7"/>
<polygon fill="none" stroke="#000000" points="86.5,-333.7 86.5,-356.7 231.5,-356.7 231.5,-333.7 86.5,-333.7"/>
<text text-anchor="start" x="91.1652" y="-342.8" font-family="Helvetica,sans-Serif" font-weight="bold" font-size="11.00" fill="#000000">PROTEIN_GROUPS</text>
<text text-anchor="start" x="197.0219" y="-341.8" font-family="Helvetica,sans-Serif" font-size="11.00" fill="#000000">[table]</text>
<polygon fill="none" stroke="#000000" points="86.5,-311.7 86.5,-333.7 231.5,-333.7 231.5,-311.7 86.5,-311.7"/>
<image xlink:href="../../images/primaryKeys.png" width="11px" height="12px" preserveAspectRatio="xMinYMin meet" x="91.5" y="-328.7"/>
<text text-anchor="start" x="108.5" y="-318.8" font-family="Helvetica,sans-Serif" font-size="11.00" fill="#000000">ID</text>
<polygon fill="none" stroke="#000000" points="86.5,-289.7 86.5,-311.7 231.5,-311.7 231.5,-289.7 86.5,-289.7"/>
<image xlink:href="../../images/primaryKeys.png" width="11px" height="12px" preserveAspectRatio="xMinYMin meet" x="91.5" y="-306.7"/>
<text text-anchor="start" x="108.5" y="-296.8" font-family="Helvetica,sans-Serif" font-size="11.00" fill="#000000">TITLE</text>
<polygon fill="none" stroke="#000000" points="86.5,-270.7 86.5,-289.7 231.5,-289.7 231.5,-270.7 86.5,-270.7"/>
<text text-anchor="start" x="89.5" y="-276.8" font-family="Helvetica,sans-Serif" font-size="11.00" fill="#000000">...</text>
<polygon fill="#ffffff" stroke="transparent" points="86.5,-251.7 86.5,-270.7 135.5,-270.7 135.5,-251.7 86.5,-251.7"/>
<polygon fill="none" stroke="#000000" points="86.5,-251.7 86.5,-270.7 135.5,-270.7 135.5,-251.7 86.5,-251.7"/>
<text text-anchor="start" x="89.5" y="-257.8" font-family="Helvetica,sans-Serif" font-size="11.00" fill="#000000"> &#160;</text>
<polygon fill="#ffffff" stroke="transparent" points="135.5,-251.7 135.5,-270.7 191.5,-270.7 191.5,-251.7 135.5,-251.7"/>
<polygon fill="none" stroke="#000000" points="135.5,-251.7 135.5,-270.7 191.5,-270.7 191.5,-251.7 135.5,-251.7"/>
<text text-anchor="start" x="156.1105" y="-257.8" font-family="Helvetica,sans-Serif" font-size="11.00" fill="#000000">6 rows</text>
<polygon fill="#ffffff" stroke="transparent" points="191.5,-251.7 191.5,-270.7 231.5,-270.7 231.5,-251.7 191.5,-251.7"/>
<polygon fill="none" stroke="#000000" points="191.5,-251.7 191.5,-270.7 231.5,-270.7 231.5,-251.7 191.5,-251.7"/>
<text text-anchor="start" x="212.9053" y="-257.8" font-family="Helvetica,sans-Serif" font-size="11.00" fill="#000000">1 &gt;</text>
</a>
</g>
</g>
<!-- TARGET_FORMS_PROTEIN_GROUPS&#45;&gt;PROTEIN_GROUPS -->
<g id="edge1" class="edge">
<title>TARGET_FORMS_PROTEIN_GROUPS:w&#45;&gt;PROTEIN_GROUPS:e</title>
<path fill="none" stroke="#000000" d="M345.6024,-271.7387C297.1058,-279.0676 287.9358,-322.7 231.5,-322.7"/>
<polygon fill="#000000" stroke="#000000" points="352.0207,-271.2757 360.2591,-274.2907 356.0104,-270.9879 360,-270.7 360,-270.7 360,-270.7 356.0104,-270.9879 359.7409,-267.1093 352.0207,-271.2757 352.0207,-271.2757"/>
<ellipse fill="none" stroke="#000000" cx="348.829" cy="-271.506" rx="3.2" ry="3.2"/>
</g>
<!-- TARGET_FORMS -->
<g id="node3" class="node">
<title>TARGET_FORMS</title>
<g id="a_node3"><a xlink:href="../../tables/TARGET_FORMS.html" xlink:title="TARGET_FORMS" target="_top">
<polygon fill="#ffffff" stroke="transparent" points="8,-38.2 8,-231.2 309,-231.2 309,-38.2 8,-38.2"/>
<polygon fill="#f5f5f5" stroke="transparent" points="8.5,-207.7 8.5,-230.7 309.5,-230.7 309.5,-207.7 8.5,-207.7"/>
<polygon fill="none" stroke="#000000" points="8.5,-207.7 8.5,-230.7 309.5,-230.7 309.5,-207.7 8.5,-207.7"/>
<text text-anchor="start" x="13.5" y="-216.8" font-family="Helvetica,sans-Serif" font-weight="bold" font-size="11.00" fill="#000000">TARGET_FORMS</text>
<text text-anchor="start" x="274.5437" y="-215.8" font-family="Helvetica,sans-Serif" font-size="11.00" fill="#000000">[table]</text>
<polygon fill="none" stroke="#000000" points="8.5,-185.7 8.5,-207.7 309.5,-207.7 309.5,-185.7 8.5,-185.7"/>
<image xlink:href="../../images/primaryKeys.png" width="11px" height="12px" preserveAspectRatio="xMinYMin meet" x="13.5" y="-202.7"/>
<text text-anchor="start" x="28.5" y="-192.8" font-family="Helvetica,sans-Serif" font-size="11.00" fill="#000000">ID</text>
<polygon fill="none" stroke="#000000" points="8.5,-163.7 8.5,-185.7 309.5,-185.7 309.5,-163.7 8.5,-163.7"/>
<image xlink:href="../../images/foreignKeys.png" width="11px" height="12px" preserveAspectRatio="xMinYMin meet" x="13.5" y="-180.7"/>
<text text-anchor="start" x="28.5" y="-170.8" font-family="Helvetica,sans-Serif" font-size="11.00" fill="#000000">TARGET_ID</text>
<polygon fill="none" stroke="#000000" points="8.5,-141.7 8.5,-163.7 309.5,-163.7 309.5,-141.7 8.5,-141.7"/>
<image xlink:href="../../images/foreignKeys.png" width="11px" height="12px" preserveAspectRatio="xMinYMin meet" x="13.5" y="-158.7"/>
<text text-anchor="start" x="28.5" y="-148.8" font-family="Helvetica,sans-Serif" font-size="11.00" fill="#000000">SPECIES_ID</text>
<polygon fill="none" stroke="#000000" points="8.5,-119.7 8.5,-141.7 309.5,-141.7 309.5,-119.7 8.5,-119.7"/>
<image xlink:href="../../images/foreignKeys.png" width="11px" height="12px" preserveAspectRatio="xMinYMin meet" x="13.5" y="-136.7"/>
<text text-anchor="start" x="28.5" y="-126.8" font-family="Helvetica,sans-Serif" font-size="11.00" fill="#000000">POST_TRANSLATIONAL_MODIFICATION_ID</text>
<polygon fill="none" stroke="#000000" points="8.5,-97.7 8.5,-119.7 309.5,-119.7 309.5,-97.7 8.5,-97.7"/>
<image xlink:href="../../images/foreignKeys.png" width="11px" height="12px" preserveAspectRatio="xMinYMin meet" x="13.5" y="-114.7"/>
<text text-anchor="start" x="28.5" y="-104.8" font-family="Helvetica,sans-Serif" font-size="11.00" fill="#000000">ISOFORM_ID</text>
<polygon fill="none" stroke="#000000" points="8.5,-75.7 8.5,-97.7 309.5,-97.7 309.5,-75.7 8.5,-75.7"/>
<image xlink:href="../../images/foreignKeys.png" width="11px" height="12px" preserveAspectRatio="xMinYMin meet" x="13.5" y="-92.7"/>
<text text-anchor="start" x="28.5" y="-82.8" font-family="Helvetica,sans-Serif" font-size="11.00" fill="#000000">EXPRESSION_SYSTEM_ID</text>
<polygon fill="none" stroke="#000000" points="8.5,-56.7 8.5,-75.7 309.5,-75.7 309.5,-56.7 8.5,-56.7"/>
<text text-anchor="start" x="11.5" y="-62.8" font-family="Helvetica,sans-Serif" font-size="11.00" fill="#000000">...</text>
<polygon fill="#ffffff" stroke="transparent" points="8.5,-37.7 8.5,-56.7 130.5,-56.7 130.5,-37.7 8.5,-37.7"/>
<polygon fill="none" stroke="#000000" points="8.5,-37.7 8.5,-56.7 130.5,-56.7 130.5,-37.7 8.5,-37.7"/>
<text text-anchor="start" x="11.5" y="-43.8" font-family="Helvetica,sans-Serif" font-size="11.00" fill="#000000">&lt; 5</text>
<polygon fill="#ffffff" stroke="transparent" points="130.5,-37.7 130.5,-56.7 231.5,-56.7 231.5,-37.7 130.5,-37.7"/>
<polygon fill="none" stroke="#000000" points="130.5,-37.7 130.5,-56.7 231.5,-56.7 231.5,-37.7 130.5,-37.7"/>
<text text-anchor="start" x="183.8807" y="-43.8" font-family="Helvetica,sans-Serif" font-size="11.00" fill="#000000">541 rows</text>
<polygon fill="#ffffff" stroke="transparent" points="231.5,-37.7 231.5,-56.7 309.5,-56.7 309.5,-37.7 231.5,-37.7"/>
<polygon fill="none" stroke="#000000" points="231.5,-37.7 231.5,-56.7 309.5,-56.7 309.5,-37.7 231.5,-37.7"/>
<text text-anchor="start" x="284.7904" y="-43.8" font-family="Helvetica,sans-Serif" font-size="11.00" fill="#000000">18 &gt;</text>
</a>
</g>
</g>
<!-- TARGET_FORMS_PROTEIN_GROUPS&#45;&gt;TARGET_FORMS -->
<g id="edge2" class="edge">
<title>TARGET_FORMS_PROTEIN_GROUPS:w&#45;&gt;TARGET_FORMS:e</title>
<path fill="none" stroke="#000000" d="M346.1372,-243.9012C331.3861,-231.0281 335.6756,-196.7 309.5,-196.7"/>
<polygon fill="#000000" stroke="#000000" points="352.4401,-246.083 358.8223,-252.1019 356.2201,-247.3915 360,-248.7 360,-248.7 360,-248.7 356.2201,-247.3915 361.1777,-245.2981 352.4401,-246.083 352.4401,-246.083"/>
<ellipse fill="none" stroke="#000000" cx="349.4162" cy="-245.0362" rx="3.2" ry="3.2"/>
</g>
</g>
</svg>
