<?xml version="1.0" encoding="UTF-8" standalone="no"?>
<!DOCTYPE svg PUBLIC "-//W3C//DTD SVG 1.1//EN"
 "http://www.w3.org/Graphics/SVG/1.1/DTD/svg11.dtd">
<!-- Generated by graphviz version 2.40.1 (20161225.0304)
 -->
<!-- Title: oneDegreeRelationshipsDiagram Pages: 1 -->
<svg width="805pt" height="343pt"
 viewBox="0.00 0.00 805.00 342.70" xmlns="http://www.w3.org/2000/svg" xmlns:xlink="http://www.w3.org/1999/xlink">
<g id="graph0" class="graph" transform="scale(1 1) rotate(0) translate(4 338.7)">
<title>oneDegreeRelationshipsDiagram</title>
<polygon fill="#ffffff" stroke="transparent" points="-4,4 -4,-338.7 801,-338.7 801,4 -4,4"/>
<text text-anchor="middle" x="72.4936" y="-7.3" font-family="Helvetica,sans-Serif" font-size="11.00" fill="#000000">Generated by SchemaSpy</text>
<!-- TARGET_FORMS_PROTEIN_LINKERS -->
<g id="node1" class="node">
<title>TARGET_FORMS_PROTEIN_LINKERS</title>
<g id="a_node1"><a xlink:href="../../tables/TARGET_FORMS_PROTEIN_LINKERS.html" xlink:title="TARGET_FORMS_PROTEIN_LINKERS" target="_top">
<polygon fill="#ffffff" stroke="transparent" points="358,-108.7 358,-330.7 789,-330.7 789,-108.7 358,-108.7"/>
<polygon fill="#f5f5f5" stroke="transparent" points="360.5,-305.7 360.5,-328.7 787.5,-328.7 787.5,-305.7 360.5,-305.7"/>
<polygon fill="none" stroke="#000000" points="360.5,-305.7 360.5,-328.7 787.5,-328.7 787.5,-305.7 360.5,-305.7"/>
<text text-anchor="start" x="365.5" y="-314.8" font-family="Helvetica,sans-Serif" font-weight="bold" font-size="11.00" fill="#000000">TARGET_FORMS_PROTEIN_LINKERS</text>
<text text-anchor="start" x="752.5437" y="-313.8" font-family="Helvetica,sans-Serif" font-size="11.00" fill="#000000">[table]</text>
<polygon fill="none" stroke="#000000" points="360.5,-283.7 360.5,-305.7 616.5,-305.7 616.5,-283.7 360.5,-283.7"/>
<image xlink:href="../../images/primaryKeys.png" width="11px" height="12px" preserveAspectRatio="xMinYMin meet" x="365.5" y="-300.7"/>
<text text-anchor="start" x="380.5" y="-290.8" font-family="Helvetica,sans-Serif" font-size="11.00" fill="#000000">ID</text>
<polygon fill="none" stroke="#000000" points="616.5,-283.7 616.5,-305.7 787.5,-305.7 787.5,-283.7 616.5,-283.7"/>
<text text-anchor="start" x="619.5" y="-291.4" font-family="Helvetica,sans-Serif" font-size="11.00" fill="#000000">number[19]</text>
<polygon fill="none" stroke="#000000" points="360.5,-261.7 360.5,-283.7 616.5,-283.7 616.5,-261.7 360.5,-261.7"/>
<text text-anchor="start" x="380.5" y="-268.8" font-family="Helvetica,sans-Serif" font-size="11.00" fill="#000000">CREATED_AT</text>
<polygon fill="none" stroke="#000000" points="616.5,-261.7 616.5,-283.7 787.5,-283.7 787.5,-261.7 616.5,-261.7"/>
<text text-anchor="start" x="619.4896" y="-269.4" font-family="Helvetica,sans-Serif" font-size="11.00" fill="#000000">timestamp(6) with time zone[13,6]</text>
<polygon fill="none" stroke="#000000" points="360.5,-239.7 360.5,-261.7 616.5,-261.7 616.5,-239.7 360.5,-239.7"/>
<text text-anchor="start" x="380.5" y="-246.8" font-family="Helvetica,sans-Serif" font-size="11.00" fill="#000000">CREATED_BY</text>
<polygon fill="none" stroke="#000000" points="616.5,-239.7 616.5,-261.7 787.5,-261.7 787.5,-239.7 616.5,-239.7"/>
<text text-anchor="start" x="619.5" y="-247.4" font-family="Helvetica,sans-Serif" font-size="11.00" fill="#000000">number[19]</text>
<polygon fill="none" stroke="#000000" points="360.5,-217.7 360.5,-239.7 616.5,-239.7 616.5,-217.7 360.5,-217.7"/>
<text text-anchor="start" x="380.5" y="-224.8" font-family="Helvetica,sans-Serif" font-size="11.00" fill="#000000">UPDATED_AT</text>
<polygon fill="none" stroke="#000000" points="616.5,-217.7 616.5,-239.7 787.5,-239.7 787.5,-217.7 616.5,-217.7"/>
<text text-anchor="start" x="619.4896" y="-225.4" font-family="Helvetica,sans-Serif" font-size="11.00" fill="#000000">timestamp(6) with time zone[13,6]</text>
<polygon fill="none" stroke="#000000" points="360.5,-195.7 360.5,-217.7 616.5,-217.7 616.5,-195.7 360.5,-195.7"/>
<text text-anchor="start" x="380.5" y="-202.8" font-family="Helvetica,sans-Serif" font-size="11.00" fill="#000000">UPDATED_BY</text>
<polygon fill="none" stroke="#000000" points="616.5,-195.7 616.5,-217.7 787.5,-217.7 787.5,-195.7 616.5,-195.7"/>
<text text-anchor="start" x="619.5" y="-203.4" font-family="Helvetica,sans-Serif" font-size="11.00" fill="#000000">number[19]</text>
<polygon fill="none" stroke="#000000" points="360.5,-173.7 360.5,-195.7 616.5,-195.7 616.5,-173.7 360.5,-173.7"/>
<image xlink:href="../../images/foreignKeys.png" width="11px" height="12px" preserveAspectRatio="xMinYMin meet" x="365.5" y="-190.7"/>
<text text-anchor="start" x="380.5" y="-180.8" font-family="Helvetica,sans-Serif" font-size="11.00" fill="#000000">TARGET_FORM_ID</text>
<polygon fill="none" stroke="#000000" points="616.5,-173.7 616.5,-195.7 787.5,-195.7 787.5,-173.7 616.5,-173.7"/>
<text text-anchor="start" x="619.5" y="-181.4" font-family="Helvetica,sans-Serif" font-size="11.00" fill="#000000">number[19]</text>
<polygon fill="none" stroke="#000000" points="360.5,-151.7 360.5,-173.7 616.5,-173.7 616.5,-151.7 360.5,-151.7"/>
<image xlink:href="../../images/foreignKeys.png" width="11px" height="12px" preserveAspectRatio="xMinYMin meet" x="365.5" y="-168.7"/>
<text text-anchor="start" x="380.5" y="-158.8" font-family="Helvetica,sans-Serif" font-size="11.00" fill="#000000">PROTEIN_LINKER_ID</text>
<polygon fill="none" stroke="#000000" points="616.5,-151.7 616.5,-173.7 787.5,-173.7 787.5,-151.7 616.5,-151.7"/>
<text text-anchor="start" x="619.5" y="-159.4" font-family="Helvetica,sans-Serif" font-size="11.00" fill="#000000">number[19]</text>
<polygon fill="none" stroke="#000000" points="360.5,-129.7 360.5,-151.7 616.5,-151.7 616.5,-129.7 360.5,-129.7"/>
<text text-anchor="start" x="380.5" y="-136.8" font-family="Helvetica,sans-Serif" font-size="11.00" fill="#000000">CARTOON_ORDER</text>
<polygon fill="none" stroke="#000000" points="616.5,-129.7 616.5,-151.7 787.5,-151.7 787.5,-129.7 616.5,-129.7"/>
<text text-anchor="start" x="619.5" y="-137.4" font-family="Helvetica,sans-Serif" font-size="11.00" fill="#000000">number[2]</text>
<polygon fill="#ffffff" stroke="transparent" points="360.5,-110.7 360.5,-129.7 473.5,-129.7 473.5,-110.7 360.5,-110.7"/>
<polygon fill="none" stroke="#000000" points="360.5,-110.7 360.5,-129.7 473.5,-129.7 473.5,-110.7 360.5,-110.7"/>
<text text-anchor="start" x="363.5" y="-116.8" font-family="Helvetica,sans-Serif" font-size="11.00" fill="#000000">&lt; 2</text>
<polygon fill="#ffffff" stroke="transparent" points="473.5,-110.7 473.5,-129.7 616.5,-129.7 616.5,-110.7 473.5,-110.7"/>
<polygon fill="none" stroke="#000000" points="473.5,-110.7 473.5,-129.7 616.5,-129.7 616.5,-110.7 473.5,-110.7"/>
<text text-anchor="start" x="568.8807" y="-116.8" font-family="Helvetica,sans-Serif" font-size="11.00" fill="#000000">149 rows</text>
<polygon fill="#ffffff" stroke="transparent" points="616.5,-110.7 616.5,-129.7 787.5,-129.7 787.5,-110.7 616.5,-110.7"/>
<polygon fill="none" stroke="#000000" points="616.5,-110.7 616.5,-129.7 787.5,-129.7 787.5,-110.7 616.5,-110.7"/>
<text text-anchor="start" x="768.9053" y="-116.8" font-family="Helvetica,sans-Serif" font-size="11.00" fill="#000000">0 &gt;</text>
<polygon fill="none" stroke="#000000" stroke-width="2" points="359,-109.7 359,-329.7 788,-329.7 788,-109.7 359,-109.7"/>
</a>
</g>
</g>
<!-- PROTEIN_PRODUCTION.PROTEIN_LINKERS -->
<g id="node2" class="node">
<title>PROTEIN_PRODUCTION.PROTEIN_LINKERS</title>
<g id="a_node2"><a xlink:title="PROTEIN_PRODUCTION.PROTEIN_LINKERS">
<polygon fill="#ffffff" stroke="transparent" points="20,-38.2 20,-99.2 297,-99.2 297,-38.2 20,-38.2"/>
<polygon fill="#f5f5f5" stroke="transparent" points="20.5,-75.7 20.5,-98.7 297.5,-98.7 297.5,-75.7 20.5,-75.7"/>
<polygon fill="none" stroke="#000000" points="20.5,-75.7 20.5,-98.7 297.5,-98.7 297.5,-75.7 20.5,-75.7"/>
<text text-anchor="start" x="25.4732" y="-84.8" font-family="Helvetica,sans-Serif" font-weight="bold" font-size="11.00" fill="#000000">PROTEIN_PRODUCTION.PROTEIN_LINKERS</text>
<text text-anchor="start" x="263.0219" y="-83.8" font-family="Helvetica,sans-Serif" font-size="11.00" fill="#000000">[table]</text>
<polygon fill="none" stroke="#000000" points="20.5,-56.7 20.5,-75.7 297.5,-75.7 297.5,-56.7 20.5,-56.7"/>
<text text-anchor="start" x="23.5" y="-62.8" font-family="Helvetica,sans-Serif" font-size="11.00" fill="#000000">...</text>
<polygon fill="#ffffff" stroke="transparent" points="20.5,-37.7 20.5,-56.7 135.5,-56.7 135.5,-37.7 20.5,-37.7"/>
<polygon fill="none" stroke="#000000" points="20.5,-37.7 20.5,-56.7 135.5,-56.7 135.5,-37.7 20.5,-37.7"/>
<text text-anchor="start" x="23.5" y="-43.8" font-family="Helvetica,sans-Serif" font-size="11.00" fill="#000000"> &#160;</text>
<polygon fill="#ffffff" stroke="transparent" points="135.5,-37.7 135.5,-56.7 224.5,-56.7 224.5,-37.7 135.5,-37.7"/>
<polygon fill="none" stroke="#000000" points="135.5,-37.7 135.5,-56.7 224.5,-56.7 224.5,-37.7 135.5,-37.7"/>
<text text-anchor="start" x="189.1105" y="-43.8" font-family="Helvetica,sans-Serif" font-size="11.00" fill="#000000">0 rows</text>
<polygon fill="#ffffff" stroke="transparent" points="224.5,-37.7 224.5,-56.7 297.5,-56.7 297.5,-37.7 224.5,-37.7"/>
<polygon fill="none" stroke="#000000" points="224.5,-37.7 224.5,-56.7 297.5,-56.7 297.5,-37.7 224.5,-37.7"/>
<text text-anchor="start" x="278.9053" y="-43.8" font-family="Helvetica,sans-Serif" font-size="11.00" fill="#000000">2 &gt;</text>
</a>
</g>
</g>
<!-- TARGET_FORMS_PROTEIN_LINKERS&#45;&gt;PROTEIN_PRODUCTION.PROTEIN_LINKERS -->
<g id="edge1" class="edge">
<title>TARGET_FORMS_PROTEIN_LINKERS:w&#45;&gt;PROTEIN_PRODUCTION.PROTEIN_LINKERS:e</title>
<path fill="none" stroke="#000000" d="M346.586,-158.6459C333.5863,-148.6652 337.4663,-122.77 317,-109.7 313.1672,-107.2523 309.1943,-104.9505 305.1139,-102.7857"/>
<polygon fill="#000000" stroke="#000000" points="352.8194,-160.4621 359.4929,-166.1563 356.6597,-161.581 360.5,-162.7 360.5,-162.7 360.5,-162.7 356.6597,-161.581 361.5071,-159.2437 352.8194,-160.4621 352.8194,-160.4621"/>
<ellipse fill="none" stroke="#000000" cx="349.7471" cy="-159.5669" rx="3.2" ry="3.2"/>
</g>
<!-- TARGET_FORMS -->
<g id="node3" class="node">
<title>TARGET_FORMS</title>
<g id="a_node3"><a xlink:href="../../tables/TARGET_FORMS.html" xlink:title="TARGET_FORMS" target="_top">
<polygon fill="#ffffff" stroke="transparent" points="8,-120.2 8,-313.2 309,-313.2 309,-120.2 8,-120.2"/>
<polygon fill="#f5f5f5" stroke="transparent" points="8.5,-289.7 8.5,-312.7 309.5,-312.7 309.5,-289.7 8.5,-289.7"/>
<polygon fill="none" stroke="#000000" points="8.5,-289.7 8.5,-312.7 309.5,-312.7 309.5,-289.7 8.5,-289.7"/>
<text text-anchor="start" x="13.5" y="-298.8" font-family="Helvetica,sans-Serif" font-weight="bold" font-size="11.00" fill="#000000">TARGET_FORMS</text>
<text text-anchor="start" x="274.5437" y="-297.8" font-family="Helvetica,sans-Serif" font-size="11.00" fill="#000000">[table]</text>
<polygon fill="none" stroke="#000000" points="8.5,-267.7 8.5,-289.7 309.5,-289.7 309.5,-267.7 8.5,-267.7"/>
<image xlink:href="../../images/primaryKeys.png" width="11px" height="12px" preserveAspectRatio="xMinYMin meet" x="13.5" y="-284.7"/>
<text text-anchor="start" x="28.5" y="-274.8" font-family="Helvetica,sans-Serif" font-size="11.00" fill="#000000">ID</text>
<polygon fill="none" stroke="#000000" points="8.5,-245.7 8.5,-267.7 309.5,-267.7 309.5,-245.7 8.5,-245.7"/>
<image xlink:href="../../images/foreignKeys.png" width="11px" height="12px" preserveAspectRatio="xMinYMin meet" x="13.5" y="-262.7"/>
<text text-anchor="start" x="28.5" y="-252.8" font-family="Helvetica,sans-Serif" font-size="11.00" fill="#000000">TARGET_ID</text>
<polygon fill="none" stroke="#000000" points="8.5,-223.7 8.5,-245.7 309.5,-245.7 309.5,-223.7 8.5,-223.7"/>
<image xlink:href="../../images/foreignKeys.png" width="11px" height="12px" preserveAspectRatio="xMinYMin meet" x="13.5" y="-240.7"/>
<text text-anchor="start" x="28.5" y="-230.8" font-family="Helvetica,sans-Serif" font-size="11.00" fill="#000000">SPECIES_ID</text>
<polygon fill="none" stroke="#000000" points="8.5,-201.7 8.5,-223.7 309.5,-223.7 309.5,-201.7 8.5,-201.7"/>
<image xlink:href="../../images/foreignKeys.png" width="11px" height="12px" preserveAspectRatio="xMinYMin meet" x="13.5" y="-218.7"/>
<text text-anchor="start" x="28.5" y="-208.8" font-family="Helvetica,sans-Serif" font-size="11.00" fill="#000000">POST_TRANSLATIONAL_MODIFICATION_ID</text>
<polygon fill="none" stroke="#000000" points="8.5,-179.7 8.5,-201.7 309.5,-201.7 309.5,-179.7 8.5,-179.7"/>
<image xlink:href="../../images/foreignKeys.png" width="11px" height="12px" preserveAspectRatio="xMinYMin meet" x="13.5" y="-196.7"/>
<text text-anchor="start" x="28.5" y="-186.8" font-family="Helvetica,sans-Serif" font-size="11.00" fill="#000000">ISOFORM_ID</text>
<polygon fill="none" stroke="#000000" points="8.5,-157.7 8.5,-179.7 309.5,-179.7 309.5,-157.7 8.5,-157.7"/>
<image xlink:href="../../images/foreignKeys.png" width="11px" height="12px" preserveAspectRatio="xMinYMin meet" x="13.5" y="-174.7"/>
<text text-anchor="start" x="28.5" y="-164.8" font-family="Helvetica,sans-Serif" font-size="11.00" fill="#000000">EXPRESSION_SYSTEM_ID</text>
<polygon fill="none" stroke="#000000" points="8.5,-138.7 8.5,-157.7 309.5,-157.7 309.5,-138.7 8.5,-138.7"/>
<text text-anchor="start" x="11.5" y="-144.8" font-family="Helvetica,sans-Serif" font-size="11.00" fill="#000000">...</text>
<polygon fill="#ffffff" stroke="transparent" points="8.5,-119.7 8.5,-138.7 130.5,-138.7 130.5,-119.7 8.5,-119.7"/>
<polygon fill="none" stroke="#000000" points="8.5,-119.7 8.5,-138.7 130.5,-138.7 130.5,-119.7 8.5,-119.7"/>
<text text-anchor="start" x="11.5" y="-125.8" font-family="Helvetica,sans-Serif" font-size="11.00" fill="#000000">&lt; 5</text>
<polygon fill="#ffffff" stroke="transparent" points="130.5,-119.7 130.5,-138.7 231.5,-138.7 231.5,-119.7 130.5,-119.7"/>
<polygon fill="none" stroke="#000000" points="130.5,-119.7 130.5,-138.7 231.5,-138.7 231.5,-119.7 130.5,-119.7"/>
<text text-anchor="start" x="183.8807" y="-125.8" font-family="Helvetica,sans-Serif" font-size="11.00" fill="#000000">541 rows</text>
<polygon fill="#ffffff" stroke="transparent" points="231.5,-119.7 231.5,-138.7 309.5,-138.7 309.5,-119.7 231.5,-119.7"/>
<polygon fill="none" stroke="#000000" points="231.5,-119.7 231.5,-138.7 309.5,-138.7 309.5,-119.7 231.5,-119.7"/>
<text text-anchor="start" x="284.7904" y="-125.8" font-family="Helvetica,sans-Serif" font-size="11.00" fill="#000000">18 &gt;</text>
</a>
</g>
</g>
<!-- TARGET_FORMS_PROTEIN_LINKERS&#45;&gt;TARGET_FORMS -->
<g id="edge2" class="edge">
<title>TARGET_FORMS_PROTEIN_LINKERS:w&#45;&gt;TARGET_FORMS:e</title>
<path fill="none" stroke="#000000" d="M346.6116,-188.7391C322.5536,-206.7313 351.0893,-278.7 309.5,-278.7"/>
<polygon fill="#000000" stroke="#000000" points="352.8183,-186.9341 361.5053,-188.1568 356.6591,-185.817 360.5,-184.7 360.5,-184.7 360.5,-184.7 356.6591,-185.817 359.4947,-181.2432 352.8183,-186.9341 352.8183,-186.9341"/>
<ellipse fill="none" stroke="#000000" cx="349.7456" cy="-187.8277" rx="3.2" ry="3.2"/>
</g>
</g>
</svg>
