<?xml version="1.0" encoding="UTF-8" standalone="no"?>
<!DOCTYPE svg PUBLIC "-//W3C//DTD SVG 1.1//EN"
 "http://www.w3.org/Graphics/SVG/1.1/DTD/svg11.dtd">
<!-- Generated by graphviz version 2.40.1 (20161225.0304)
 -->
<!-- Title: oneDegreeRelationshipsDiagram Pages: 1 -->
<svg width="770pt" height="429pt"
 viewBox="0.00 0.00 770.00 428.70" xmlns="http://www.w3.org/2000/svg" xmlns:xlink="http://www.w3.org/1999/xlink">
<g id="graph0" class="graph" transform="scale(1 1) rotate(0) translate(4 424.7)">
<title>oneDegreeRelationshipsDiagram</title>
<polygon fill="#ffffff" stroke="transparent" points="-4,4 -4,-424.7 766,-424.7 766,4 -4,4"/>
<text text-anchor="middle" x="72.4936" y="-7.3" font-family="Helvetica,sans-Serif" font-size="11.00" fill="#000000">Generated by SchemaSpy</text>
<!-- TARGET_FORMS_REFERENCES -->
<g id="node1" class="node">
<title>TARGET_FORMS_REFERENCES</title>
<g id="a_node1"><a xlink:href="../../tables/TARGET_FORMS_REFERENCES.html" xlink:title="TARGET_FORMS_REFERENCES" target="_top">
<polygon fill="#ffffff" stroke="transparent" points="358,-194.7 358,-416.7 754,-416.7 754,-194.7 358,-194.7"/>
<polygon fill="#f5f5f5" stroke="transparent" points="360,-391.7 360,-414.7 752,-414.7 752,-391.7 360,-391.7"/>
<polygon fill="none" stroke="#000000" points="360,-391.7 360,-414.7 752,-414.7 752,-391.7 360,-391.7"/>
<text text-anchor="start" x="365" y="-400.8" font-family="Helvetica,sans-Serif" font-weight="bold" font-size="11.00" fill="#000000">TARGET_FORMS_REFERENCES</text>
<text text-anchor="start" x="717.0437" y="-399.8" font-family="Helvetica,sans-Serif" font-size="11.00" fill="#000000">[table]</text>
<polygon fill="none" stroke="#000000" points="360,-369.7 360,-391.7 581,-391.7 581,-369.7 360,-369.7"/>
<image xlink:href="../../images/primaryKeys.png" width="11px" height="12px" preserveAspectRatio="xMinYMin meet" x="365" y="-386.7"/>
<text text-anchor="start" x="380" y="-376.8" font-family="Helvetica,sans-Serif" font-size="11.00" fill="#000000">ID</text>
<polygon fill="none" stroke="#000000" points="581,-369.7 581,-391.7 752,-391.7 752,-369.7 581,-369.7"/>
<text text-anchor="start" x="584" y="-377.4" font-family="Helvetica,sans-Serif" font-size="11.00" fill="#000000">number[19]</text>
<polygon fill="none" stroke="#000000" points="360,-347.7 360,-369.7 581,-369.7 581,-347.7 360,-347.7"/>
<text text-anchor="start" x="380" y="-354.8" font-family="Helvetica,sans-Serif" font-size="11.00" fill="#000000">CREATED_AT</text>
<polygon fill="none" stroke="#000000" points="581,-347.7 581,-369.7 752,-369.7 752,-347.7 581,-347.7"/>
<text text-anchor="start" x="583.9896" y="-355.4" font-family="Helvetica,sans-Serif" font-size="11.00" fill="#000000">timestamp(6) with time zone[13,6]</text>
<polygon fill="none" stroke="#000000" points="360,-325.7 360,-347.7 581,-347.7 581,-325.7 360,-325.7"/>
<text text-anchor="start" x="380" y="-332.8" font-family="Helvetica,sans-Serif" font-size="11.00" fill="#000000">CREATED_BY</text>
<polygon fill="none" stroke="#000000" points="581,-325.7 581,-347.7 752,-347.7 752,-325.7 581,-325.7"/>
<text text-anchor="start" x="584" y="-333.4" font-family="Helvetica,sans-Serif" font-size="11.00" fill="#000000">number[19]</text>
<polygon fill="none" stroke="#000000" points="360,-303.7 360,-325.7 581,-325.7 581,-303.7 360,-303.7"/>
<text text-anchor="start" x="380" y="-310.8" font-family="Helvetica,sans-Serif" font-size="11.00" fill="#000000">UPDATED_AT</text>
<polygon fill="none" stroke="#000000" points="581,-303.7 581,-325.7 752,-325.7 752,-303.7 581,-303.7"/>
<text text-anchor="start" x="583.9896" y="-311.4" font-family="Helvetica,sans-Serif" font-size="11.00" fill="#000000">timestamp(6) with time zone[13,6]</text>
<polygon fill="none" stroke="#000000" points="360,-281.7 360,-303.7 581,-303.7 581,-281.7 360,-281.7"/>
<text text-anchor="start" x="380" y="-288.8" font-family="Helvetica,sans-Serif" font-size="11.00" fill="#000000">UPDATED_BY</text>
<polygon fill="none" stroke="#000000" points="581,-281.7 581,-303.7 752,-303.7 752,-281.7 581,-281.7"/>
<text text-anchor="start" x="584" y="-289.4" font-family="Helvetica,sans-Serif" font-size="11.00" fill="#000000">number[19]</text>
<polygon fill="none" stroke="#000000" points="360,-259.7 360,-281.7 581,-281.7 581,-259.7 360,-259.7"/>
<image xlink:href="../../images/foreignKeys.png" width="11px" height="12px" preserveAspectRatio="xMinYMin meet" x="365" y="-276.7"/>
<text text-anchor="start" x="380" y="-266.8" font-family="Helvetica,sans-Serif" font-size="11.00" fill="#000000">REFERENCE_ID</text>
<polygon fill="none" stroke="#000000" points="581,-259.7 581,-281.7 752,-281.7 752,-259.7 581,-259.7"/>
<text text-anchor="start" x="584" y="-267.4" font-family="Helvetica,sans-Serif" font-size="11.00" fill="#000000">number[19]</text>
<polygon fill="none" stroke="#000000" points="360,-237.7 360,-259.7 581,-259.7 581,-237.7 360,-237.7"/>
<image xlink:href="../../images/foreignKeys.png" width="11px" height="12px" preserveAspectRatio="xMinYMin meet" x="365" y="-254.7"/>
<text text-anchor="start" x="380" y="-244.8" font-family="Helvetica,sans-Serif" font-size="11.00" fill="#000000">TARGET_FORM_ID</text>
<polygon fill="none" stroke="#000000" points="581,-237.7 581,-259.7 752,-259.7 752,-237.7 581,-237.7"/>
<text text-anchor="start" x="584" y="-245.4" font-family="Helvetica,sans-Serif" font-size="11.00" fill="#000000">number[19]</text>
<polygon fill="none" stroke="#000000" points="360,-215.7 360,-237.7 581,-237.7 581,-215.7 360,-215.7"/>
<text text-anchor="start" x="380" y="-222.8" font-family="Helvetica,sans-Serif" font-size="11.00" fill="#000000">TYPE</text>
<polygon fill="none" stroke="#000000" points="581,-215.7 581,-237.7 752,-237.7 752,-215.7 581,-215.7"/>
<text text-anchor="start" x="584" y="-223.4" font-family="Helvetica,sans-Serif" font-size="11.00" fill="#000000">varchar2[255]</text>
<polygon fill="#ffffff" stroke="transparent" points="360,-196.7 360,-215.7 456,-215.7 456,-196.7 360,-196.7"/>
<polygon fill="none" stroke="#000000" points="360,-196.7 360,-215.7 456,-215.7 456,-196.7 360,-196.7"/>
<text text-anchor="start" x="363" y="-202.8" font-family="Helvetica,sans-Serif" font-size="11.00" fill="#000000">&lt; 2</text>
<polygon fill="#ffffff" stroke="transparent" points="456,-196.7 456,-215.7 581,-215.7 581,-196.7 456,-196.7"/>
<polygon fill="none" stroke="#000000" points="456,-196.7 456,-215.7 581,-215.7 581,-196.7 456,-196.7"/>
<text text-anchor="start" x="533.3807" y="-202.8" font-family="Helvetica,sans-Serif" font-size="11.00" fill="#000000">105 rows</text>
<polygon fill="#ffffff" stroke="transparent" points="581,-196.7 581,-215.7 752,-215.7 752,-196.7 581,-196.7"/>
<polygon fill="none" stroke="#000000" points="581,-196.7 581,-215.7 752,-215.7 752,-196.7 581,-196.7"/>
<text text-anchor="start" x="733.4053" y="-202.8" font-family="Helvetica,sans-Serif" font-size="11.00" fill="#000000">0 &gt;</text>
<polygon fill="none" stroke="#000000" stroke-width="2" points="359,-195.7 359,-415.7 753,-415.7 753,-195.7 359,-195.7"/>
</a>
</g>
</g>
<!-- REFERENCES -->
<g id="node2" class="node">
<title>REFERENCES</title>
<g id="a_node2"><a xlink:href="../../tables/REFERENCES.html" xlink:title="REFERENCES" target="_top">
<polygon fill="#ffffff" stroke="transparent" points="94.5,-252.2 94.5,-357.2 222.5,-357.2 222.5,-252.2 94.5,-252.2"/>
<polygon fill="#f5f5f5" stroke="transparent" points="94.5,-333.7 94.5,-356.7 222.5,-356.7 222.5,-333.7 94.5,-333.7"/>
<polygon fill="none" stroke="#000000" points="94.5,-333.7 94.5,-356.7 222.5,-356.7 222.5,-333.7 94.5,-333.7"/>
<text text-anchor="start" x="99.5" y="-342.8" font-family="Helvetica,sans-Serif" font-weight="bold" font-size="11.00" fill="#000000">REFERENCES</text>
<text text-anchor="start" x="187.5437" y="-341.8" font-family="Helvetica,sans-Serif" font-size="11.00" fill="#000000">[table]</text>
<polygon fill="none" stroke="#000000" points="94.5,-311.7 94.5,-333.7 222.5,-333.7 222.5,-311.7 94.5,-311.7"/>
<image xlink:href="../../images/primaryKeys.png" width="11px" height="12px" preserveAspectRatio="xMinYMin meet" x="99.5" y="-328.7"/>
<text text-anchor="start" x="114.5" y="-318.8" font-family="Helvetica,sans-Serif" font-size="11.00" fill="#000000">ID</text>
<polygon fill="none" stroke="#000000" points="94.5,-289.7 94.5,-311.7 222.5,-311.7 222.5,-289.7 94.5,-289.7"/>
<image xlink:href="../../images/foreignKeys.png" width="11px" height="12px" preserveAspectRatio="xMinYMin meet" x="99.5" y="-306.7"/>
<text text-anchor="start" x="114.5" y="-296.8" font-family="Helvetica,sans-Serif" font-size="11.00" fill="#000000">USER_ID</text>
<polygon fill="none" stroke="#000000" points="94.5,-270.7 94.5,-289.7 222.5,-289.7 222.5,-270.7 94.5,-270.7"/>
<text text-anchor="start" x="97.5" y="-276.8" font-family="Helvetica,sans-Serif" font-size="11.00" fill="#000000">...</text>
<polygon fill="#ffffff" stroke="transparent" points="94.5,-251.7 94.5,-270.7 125.5,-270.7 125.5,-251.7 94.5,-251.7"/>
<polygon fill="none" stroke="#000000" points="94.5,-251.7 94.5,-270.7 125.5,-270.7 125.5,-251.7 94.5,-251.7"/>
<text text-anchor="start" x="97.5" y="-257.8" font-family="Helvetica,sans-Serif" font-size="11.00" fill="#000000">&lt; 1</text>
<polygon fill="#ffffff" stroke="transparent" points="125.5,-251.7 125.5,-270.7 189.5,-270.7 189.5,-251.7 125.5,-251.7"/>
<polygon fill="none" stroke="#000000" points="125.5,-251.7 125.5,-270.7 189.5,-270.7 189.5,-251.7 125.5,-251.7"/>
<text text-anchor="start" x="132.7089" y="-257.8" font-family="Helvetica,sans-Serif" font-size="11.00" fill="#000000">2,900 rows</text>
<polygon fill="#ffffff" stroke="transparent" points="189.5,-251.7 189.5,-270.7 222.5,-270.7 222.5,-251.7 189.5,-251.7"/>
<polygon fill="none" stroke="#000000" points="189.5,-251.7 189.5,-270.7 222.5,-270.7 222.5,-251.7 189.5,-251.7"/>
<text text-anchor="start" x="197.7904" y="-257.8" font-family="Helvetica,sans-Serif" font-size="11.00" fill="#000000">20 &gt;</text>
</a>
</g>
</g>
<!-- TARGET_FORMS_REFERENCES&#45;&gt;REFERENCES -->
<g id="edge1" class="edge">
<title>TARGET_FORMS_REFERENCES:w&#45;&gt;REFERENCES:e</title>
<path fill="none" stroke="#000000" d="M345.3697,-271.6469C293.1958,-278.6947 282.6033,-322.7 222.5,-322.7"/>
<polygon fill="#000000" stroke="#000000" points="352.0167,-271.2168 360.2325,-274.2925 356.0084,-270.9584 360,-270.7 360,-270.7 360,-270.7 356.0084,-270.9584 359.7675,-267.1075 352.0167,-271.2168 352.0167,-271.2168"/>
<ellipse fill="none" stroke="#000000" cx="348.8234" cy="-271.4235" rx="3.2" ry="3.2"/>
</g>
<!-- TARGET_FORMS -->
<g id="node3" class="node">
<title>TARGET_FORMS</title>
<g id="a_node3"><a xlink:href="../../tables/TARGET_FORMS.html" xlink:title="TARGET_FORMS" target="_top">
<polygon fill="#ffffff" stroke="transparent" points="8,-38.2 8,-231.2 309,-231.2 309,-38.2 8,-38.2"/>
<polygon fill="#f5f5f5" stroke="transparent" points="8.5,-207.7 8.5,-230.7 309.5,-230.7 309.5,-207.7 8.5,-207.7"/>
<polygon fill="none" stroke="#000000" points="8.5,-207.7 8.5,-230.7 309.5,-230.7 309.5,-207.7 8.5,-207.7"/>
<text text-anchor="start" x="13.5" y="-216.8" font-family="Helvetica,sans-Serif" font-weight="bold" font-size="11.00" fill="#000000">TARGET_FORMS</text>
<text text-anchor="start" x="274.5437" y="-215.8" font-family="Helvetica,sans-Serif" font-size="11.00" fill="#000000">[table]</text>
<polygon fill="none" stroke="#000000" points="8.5,-185.7 8.5,-207.7 309.5,-207.7 309.5,-185.7 8.5,-185.7"/>
<image xlink:href="../../images/primaryKeys.png" width="11px" height="12px" preserveAspectRatio="xMinYMin meet" x="13.5" y="-202.7"/>
<text text-anchor="start" x="28.5" y="-192.8" font-family="Helvetica,sans-Serif" font-size="11.00" fill="#000000">ID</text>
<polygon fill="none" stroke="#000000" points="8.5,-163.7 8.5,-185.7 309.5,-185.7 309.5,-163.7 8.5,-163.7"/>
<image xlink:href="../../images/foreignKeys.png" width="11px" height="12px" preserveAspectRatio="xMinYMin meet" x="13.5" y="-180.7"/>
<text text-anchor="start" x="28.5" y="-170.8" font-family="Helvetica,sans-Serif" font-size="11.00" fill="#000000">TARGET_ID</text>
<polygon fill="none" stroke="#000000" points="8.5,-141.7 8.5,-163.7 309.5,-163.7 309.5,-141.7 8.5,-141.7"/>
<image xlink:href="../../images/foreignKeys.png" width="11px" height="12px" preserveAspectRatio="xMinYMin meet" x="13.5" y="-158.7"/>
<text text-anchor="start" x="28.5" y="-148.8" font-family="Helvetica,sans-Serif" font-size="11.00" fill="#000000">SPECIES_ID</text>
<polygon fill="none" stroke="#000000" points="8.5,-119.7 8.5,-141.7 309.5,-141.7 309.5,-119.7 8.5,-119.7"/>
<image xlink:href="../../images/foreignKeys.png" width="11px" height="12px" preserveAspectRatio="xMinYMin meet" x="13.5" y="-136.7"/>
<text text-anchor="start" x="28.5" y="-126.8" font-family="Helvetica,sans-Serif" font-size="11.00" fill="#000000">POST_TRANSLATIONAL_MODIFICATION_ID</text>
<polygon fill="none" stroke="#000000" points="8.5,-97.7 8.5,-119.7 309.5,-119.7 309.5,-97.7 8.5,-97.7"/>
<image xlink:href="../../images/foreignKeys.png" width="11px" height="12px" preserveAspectRatio="xMinYMin meet" x="13.5" y="-114.7"/>
<text text-anchor="start" x="28.5" y="-104.8" font-family="Helvetica,sans-Serif" font-size="11.00" fill="#000000">ISOFORM_ID</text>
<polygon fill="none" stroke="#000000" points="8.5,-75.7 8.5,-97.7 309.5,-97.7 309.5,-75.7 8.5,-75.7"/>
<image xlink:href="../../images/foreignKeys.png" width="11px" height="12px" preserveAspectRatio="xMinYMin meet" x="13.5" y="-92.7"/>
<text text-anchor="start" x="28.5" y="-82.8" font-family="Helvetica,sans-Serif" font-size="11.00" fill="#000000">EXPRESSION_SYSTEM_ID</text>
<polygon fill="none" stroke="#000000" points="8.5,-56.7 8.5,-75.7 309.5,-75.7 309.5,-56.7 8.5,-56.7"/>
<text text-anchor="start" x="11.5" y="-62.8" font-family="Helvetica,sans-Serif" font-size="11.00" fill="#000000">...</text>
<polygon fill="#ffffff" stroke="transparent" points="8.5,-37.7 8.5,-56.7 130.5,-56.7 130.5,-37.7 8.5,-37.7"/>
<polygon fill="none" stroke="#000000" points="8.5,-37.7 8.5,-56.7 130.5,-56.7 130.5,-37.7 8.5,-37.7"/>
<text text-anchor="start" x="11.5" y="-43.8" font-family="Helvetica,sans-Serif" font-size="11.00" fill="#000000">&lt; 5</text>
<polygon fill="#ffffff" stroke="transparent" points="130.5,-37.7 130.5,-56.7 231.5,-56.7 231.5,-37.7 130.5,-37.7"/>
<polygon fill="none" stroke="#000000" points="130.5,-37.7 130.5,-56.7 231.5,-56.7 231.5,-37.7 130.5,-37.7"/>
<text text-anchor="start" x="183.8807" y="-43.8" font-family="Helvetica,sans-Serif" font-size="11.00" fill="#000000">541 rows</text>
<polygon fill="#ffffff" stroke="transparent" points="231.5,-37.7 231.5,-56.7 309.5,-56.7 309.5,-37.7 231.5,-37.7"/>
<polygon fill="none" stroke="#000000" points="231.5,-37.7 231.5,-56.7 309.5,-56.7 309.5,-37.7 231.5,-37.7"/>
<text text-anchor="start" x="284.7904" y="-43.8" font-family="Helvetica,sans-Serif" font-size="11.00" fill="#000000">18 &gt;</text>
</a>
</g>
</g>
<!-- TARGET_FORMS_REFERENCES&#45;&gt;TARGET_FORMS -->
<g id="edge2" class="edge">
<title>TARGET_FORMS_REFERENCES:w&#45;&gt;TARGET_FORMS:e</title>
<path fill="none" stroke="#000000" d="M346.1372,-243.9012C331.3861,-231.0281 335.6756,-196.7 309.5,-196.7"/>
<polygon fill="#000000" stroke="#000000" points="352.4401,-246.083 358.8223,-252.1019 356.2201,-247.3915 360,-248.7 360,-248.7 360,-248.7 356.2201,-247.3915 361.1777,-245.2981 352.4401,-246.083 352.4401,-246.083"/>
<ellipse fill="none" stroke="#000000" cx="349.4162" cy="-245.0362" rx="3.2" ry="3.2"/>
</g>
</g>
</svg>
