<?xml version="1.0" encoding="UTF-8" standalone="no"?>
<!DOCTYPE svg PUBLIC "-//W3C//DTD SVG 1.1//EN"
 "http://www.w3.org/Graphics/SVG/1.1/DTD/svg11.dtd">
<!-- Generated by graphviz version 2.40.1 (20161225.0304)
 -->
<!-- Title: oneDegreeRelationshipsDiagram Pages: 1 -->
<svg width="943pt" height="311pt"
 viewBox="0.00 0.00 943.00 310.70" xmlns="http://www.w3.org/2000/svg" xmlns:xlink="http://www.w3.org/1999/xlink">
<g id="graph0" class="graph" transform="scale(1 1) rotate(0) translate(4 306.7)">
<title>oneDegreeRelationshipsDiagram</title>
<polygon fill="#ffffff" stroke="transparent" points="-4,4 -4,-306.7 939,-306.7 939,4 -4,4"/>
<text text-anchor="middle" x="72.4936" y="-7.3" font-family="Helvetica,sans-Serif" font-size="11.00" fill="#000000">Generated by SchemaSpy</text>
<!-- TARGETS -->
<g id="node1" class="node">
<title>TARGETS</title>
<g id="a_node1"><a xlink:href="../../tables/TARGETS.html" xlink:title="TARGETS" target="_top">
<polygon fill="#ffffff" stroke="transparent" points="221,-97.2 221,-246.2 471,-246.2 471,-97.2 221,-97.2"/>
<polygon fill="#f5f5f5" stroke="transparent" points="221,-222.7 221,-245.7 471,-245.7 471,-222.7 221,-222.7"/>
<polygon fill="none" stroke="#000000" points="221,-222.7 221,-245.7 471,-245.7 471,-222.7 221,-222.7"/>
<text text-anchor="start" x="226" y="-231.8" font-family="Helvetica,sans-Serif" font-weight="bold" font-size="11.00" fill="#000000">TARGETS</text>
<text text-anchor="start" x="436.0437" y="-230.8" font-family="Helvetica,sans-Serif" font-size="11.00" fill="#000000">[table]</text>
<polygon fill="none" stroke="#000000" points="221,-200.7 221,-222.7 471,-222.7 471,-200.7 221,-200.7"/>
<image xlink:href="../../images/primaryKeys.png" width="11px" height="12px" preserveAspectRatio="xMinYMin meet" x="226" y="-217.7"/>
<text text-anchor="start" x="241" y="-207.8" font-family="Helvetica,sans-Serif" font-size="11.00" fill="#000000">ID</text>
<polygon fill="none" stroke="#000000" points="221,-178.7 221,-200.7 471,-200.7 471,-178.7 221,-178.7"/>
<image xlink:href="../../images/foreignKeys.png" width="11px" height="12px" preserveAspectRatio="xMinYMin meet" x="226" y="-195.7"/>
<text text-anchor="start" x="241" y="-185.8" font-family="Helvetica,sans-Serif" font-size="11.00" fill="#000000">PROJECT_ID</text>
<polygon fill="none" stroke="#000000" points="221,-156.7 221,-178.7 471,-178.7 471,-156.7 221,-156.7"/>
<image xlink:href="../../images/foreignKeys.png" width="11px" height="12px" preserveAspectRatio="xMinYMin meet" x="226" y="-173.7"/>
<text text-anchor="start" x="241" y="-163.8" font-family="Helvetica,sans-Serif" font-size="11.00" fill="#000000">TARGET_CATEGORY_ID</text>
<polygon fill="none" stroke="#000000" points="221,-134.7 221,-156.7 471,-156.7 471,-134.7 221,-134.7"/>
<image xlink:href="../../images/foreignKeys.png" width="11px" height="12px" preserveAspectRatio="xMinYMin meet" x="226" y="-151.7"/>
<text text-anchor="start" x="241" y="-141.8" font-family="Helvetica,sans-Serif" font-size="11.00" fill="#000000">THERAPEUTIC_ID</text>
<polygon fill="none" stroke="#000000" points="221,-115.7 221,-134.7 471,-134.7 471,-115.7 221,-115.7"/>
<text text-anchor="start" x="224" y="-121.8" font-family="Helvetica,sans-Serif" font-size="11.00" fill="#000000">...</text>
<polygon fill="#ffffff" stroke="transparent" points="221,-96.7 221,-115.7 318,-115.7 318,-96.7 221,-96.7"/>
<polygon fill="none" stroke="#000000" points="221,-96.7 221,-115.7 318,-115.7 318,-96.7 221,-96.7"/>
<text text-anchor="start" x="224" y="-102.8" font-family="Helvetica,sans-Serif" font-size="11.00" fill="#000000">&lt; 3</text>
<polygon fill="#ffffff" stroke="transparent" points="318,-96.7 318,-115.7 406,-115.7 406,-96.7 318,-96.7"/>
<polygon fill="none" stroke="#000000" points="318,-96.7 318,-115.7 406,-115.7 406,-96.7 318,-96.7"/>
<text text-anchor="start" x="358.3807" y="-102.8" font-family="Helvetica,sans-Serif" font-size="11.00" fill="#000000">146 rows</text>
<polygon fill="#ffffff" stroke="transparent" points="406,-96.7 406,-115.7 471,-115.7 471,-96.7 406,-96.7"/>
<polygon fill="none" stroke="#000000" points="406,-96.7 406,-115.7 471,-115.7 471,-96.7 406,-96.7"/>
<text text-anchor="start" x="446.2904" y="-102.8" font-family="Helvetica,sans-Serif" font-size="11.00" fill="#000000">10 &gt;</text>
</a>
</g>
</g>
<!-- THERAPEUTIC_AREAS -->
<g id="node2" class="node">
<title>THERAPEUTIC_AREAS</title>
<g id="a_node2"><a xlink:href="../../tables/THERAPEUTIC_AREAS.html" xlink:title="THERAPEUTIC_AREAS" target="_top">
<polygon fill="#ffffff" stroke="transparent" points="8,-38.2 8,-143.2 172,-143.2 172,-38.2 8,-38.2"/>
<polygon fill="#f5f5f5" stroke="transparent" points="8,-119.7 8,-142.7 172,-142.7 172,-119.7 8,-119.7"/>
<polygon fill="none" stroke="#000000" points="8,-119.7 8,-142.7 172,-142.7 172,-119.7 8,-119.7"/>
<text text-anchor="start" x="12.9984" y="-128.8" font-family="Helvetica,sans-Serif" font-weight="bold" font-size="11.00" fill="#000000">THERAPEUTIC_AREAS</text>
<text text-anchor="start" x="137.5219" y="-127.8" font-family="Helvetica,sans-Serif" font-size="11.00" fill="#000000">[table]</text>
<polygon fill="none" stroke="#000000" points="8,-97.7 8,-119.7 172,-119.7 172,-97.7 8,-97.7"/>
<image xlink:href="../../images/primaryKeys.png" width="11px" height="12px" preserveAspectRatio="xMinYMin meet" x="13" y="-114.7"/>
<text text-anchor="start" x="28" y="-104.8" font-family="Helvetica,sans-Serif" font-size="11.00" fill="#000000">ID</text>
<polygon fill="none" stroke="#000000" points="8,-75.7 8,-97.7 172,-97.7 172,-75.7 8,-75.7"/>
<image xlink:href="../../images/primaryKeys.png" width="11px" height="12px" preserveAspectRatio="xMinYMin meet" x="13" y="-92.7"/>
<text text-anchor="start" x="28" y="-82.8" font-family="Helvetica,sans-Serif" font-size="11.00" fill="#000000">TITLE</text>
<polygon fill="none" stroke="#000000" points="8,-56.7 8,-75.7 172,-75.7 172,-56.7 8,-56.7"/>
<text text-anchor="start" x="11" y="-62.8" font-family="Helvetica,sans-Serif" font-size="11.00" fill="#000000">...</text>
<polygon fill="#ffffff" stroke="transparent" points="8,-37.7 8,-56.7 63,-56.7 63,-37.7 8,-37.7"/>
<polygon fill="none" stroke="#000000" points="8,-37.7 8,-56.7 63,-56.7 63,-37.7 8,-37.7"/>
<text text-anchor="start" x="11" y="-43.8" font-family="Helvetica,sans-Serif" font-size="11.00" fill="#000000"> &#160;</text>
<polygon fill="#ffffff" stroke="transparent" points="63,-37.7 63,-56.7 129,-56.7 129,-37.7 63,-37.7"/>
<polygon fill="none" stroke="#000000" points="63,-37.7 63,-56.7 129,-56.7 129,-37.7 63,-37.7"/>
<text text-anchor="start" x="87.4956" y="-43.8" font-family="Helvetica,sans-Serif" font-size="11.00" fill="#000000">15 rows</text>
<polygon fill="#ffffff" stroke="transparent" points="129,-37.7 129,-56.7 172,-56.7 172,-37.7 129,-37.7"/>
<polygon fill="none" stroke="#000000" points="129,-37.7 129,-56.7 172,-56.7 172,-37.7 129,-37.7"/>
<text text-anchor="start" x="153.4053" y="-43.8" font-family="Helvetica,sans-Serif" font-size="11.00" fill="#000000">2 &gt;</text>
</a>
</g>
</g>
<!-- TARGETS&#45;&gt;THERAPEUTIC_AREAS -->
<g id="edge1" class="edge">
<title>TARGETS:w&#45;&gt;THERAPEUTIC_AREAS:e</title>
<path fill="none" stroke="#000000" d="M207.1217,-141.1631C194.5786,-131.283 193.3196,-108.7 172,-108.7"/>
<polygon fill="#000000" stroke="#000000" points="213.396,-143.2142 219.8814,-149.1218 217.198,-144.4571 221,-145.7 221,-145.7 221,-145.7 217.198,-144.4571 222.1186,-142.2782 213.396,-143.2142 213.396,-143.2142"/>
<ellipse fill="none" stroke="#000000" cx="210.3544" cy="-142.2198" rx="3.2" ry="3.2"/>
</g>
<!-- TARGETS_THERAPEUTIC_AREAS -->
<g id="node3" class="node">
<title>TARGETS_THERAPEUTIC_AREAS</title>
<g id="a_node3"><a xlink:href="../../tables/TARGETS_THERAPEUTIC_AREAS.html" xlink:title="TARGETS_THERAPEUTIC_AREAS" target="_top">
<polygon fill="#ffffff" stroke="transparent" points="520,-98.7 520,-298.7 927,-298.7 927,-98.7 520,-98.7"/>
<polygon fill="#f5f5f5" stroke="transparent" points="522.5,-273.7 522.5,-296.7 925.5,-296.7 925.5,-273.7 522.5,-273.7"/>
<polygon fill="none" stroke="#000000" points="522.5,-273.7 522.5,-296.7 925.5,-296.7 925.5,-273.7 522.5,-273.7"/>
<text text-anchor="start" x="527.5" y="-282.8" font-family="Helvetica,sans-Serif" font-weight="bold" font-size="11.00" fill="#000000">TARGETS_THERAPEUTIC_AREAS</text>
<text text-anchor="start" x="890.5437" y="-281.8" font-family="Helvetica,sans-Serif" font-size="11.00" fill="#000000">[table]</text>
<polygon fill="none" stroke="#000000" points="522.5,-251.7 522.5,-273.7 754.5,-273.7 754.5,-251.7 522.5,-251.7"/>
<image xlink:href="../../images/primaryKeys.png" width="11px" height="12px" preserveAspectRatio="xMinYMin meet" x="527.5" y="-268.7"/>
<text text-anchor="start" x="542.5" y="-258.8" font-family="Helvetica,sans-Serif" font-size="11.00" fill="#000000">ID</text>
<polygon fill="none" stroke="#000000" points="754.5,-251.7 754.5,-273.7 925.5,-273.7 925.5,-251.7 754.5,-251.7"/>
<text text-anchor="start" x="757.5" y="-259.4" font-family="Helvetica,sans-Serif" font-size="11.00" fill="#000000">number[19]</text>
<polygon fill="none" stroke="#000000" points="522.5,-229.7 522.5,-251.7 754.5,-251.7 754.5,-229.7 522.5,-229.7"/>
<text text-anchor="start" x="542.5" y="-236.8" font-family="Helvetica,sans-Serif" font-size="11.00" fill="#000000">CREATED_AT</text>
<polygon fill="none" stroke="#000000" points="754.5,-229.7 754.5,-251.7 925.5,-251.7 925.5,-229.7 754.5,-229.7"/>
<text text-anchor="start" x="757.4896" y="-237.4" font-family="Helvetica,sans-Serif" font-size="11.00" fill="#000000">timestamp(6) with time zone[13,6]</text>
<polygon fill="none" stroke="#000000" points="522.5,-207.7 522.5,-229.7 754.5,-229.7 754.5,-207.7 522.5,-207.7"/>
<text text-anchor="start" x="542.5" y="-214.8" font-family="Helvetica,sans-Serif" font-size="11.00" fill="#000000">CREATED_BY</text>
<polygon fill="none" stroke="#000000" points="754.5,-207.7 754.5,-229.7 925.5,-229.7 925.5,-207.7 754.5,-207.7"/>
<text text-anchor="start" x="757.5" y="-215.4" font-family="Helvetica,sans-Serif" font-size="11.00" fill="#000000">number[19]</text>
<polygon fill="none" stroke="#000000" points="522.5,-185.7 522.5,-207.7 754.5,-207.7 754.5,-185.7 522.5,-185.7"/>
<text text-anchor="start" x="542.5" y="-192.8" font-family="Helvetica,sans-Serif" font-size="11.00" fill="#000000">UPDATED_AT</text>
<polygon fill="none" stroke="#000000" points="754.5,-185.7 754.5,-207.7 925.5,-207.7 925.5,-185.7 754.5,-185.7"/>
<text text-anchor="start" x="757.4896" y="-193.4" font-family="Helvetica,sans-Serif" font-size="11.00" fill="#000000">timestamp(6) with time zone[13,6]</text>
<polygon fill="none" stroke="#000000" points="522.5,-163.7 522.5,-185.7 754.5,-185.7 754.5,-163.7 522.5,-163.7"/>
<text text-anchor="start" x="542.5" y="-170.8" font-family="Helvetica,sans-Serif" font-size="11.00" fill="#000000">UPDATED_BY</text>
<polygon fill="none" stroke="#000000" points="754.5,-163.7 754.5,-185.7 925.5,-185.7 925.5,-163.7 754.5,-163.7"/>
<text text-anchor="start" x="757.5" y="-171.4" font-family="Helvetica,sans-Serif" font-size="11.00" fill="#000000">number[19]</text>
<polygon fill="none" stroke="#000000" points="522.5,-141.7 522.5,-163.7 754.5,-163.7 754.5,-141.7 522.5,-141.7"/>
<image xlink:href="../../images/foreignKeys.png" width="11px" height="12px" preserveAspectRatio="xMinYMin meet" x="527.5" y="-158.7"/>
<text text-anchor="start" x="542.5" y="-148.8" font-family="Helvetica,sans-Serif" font-size="11.00" fill="#000000">TARGET_ID</text>
<polygon fill="none" stroke="#000000" points="754.5,-141.7 754.5,-163.7 925.5,-163.7 925.5,-141.7 754.5,-141.7"/>
<text text-anchor="start" x="757.5" y="-149.4" font-family="Helvetica,sans-Serif" font-size="11.00" fill="#000000">number[19]</text>
<polygon fill="none" stroke="#000000" points="522.5,-119.7 522.5,-141.7 754.5,-141.7 754.5,-119.7 522.5,-119.7"/>
<image xlink:href="../../images/foreignKeys.png" width="11px" height="12px" preserveAspectRatio="xMinYMin meet" x="527.5" y="-136.7"/>
<text text-anchor="start" x="542.5" y="-126.8" font-family="Helvetica,sans-Serif" font-size="11.00" fill="#000000">THERAPEUTIC_AREA_ID</text>
<polygon fill="none" stroke="#000000" points="754.5,-119.7 754.5,-141.7 925.5,-141.7 925.5,-119.7 754.5,-119.7"/>
<text text-anchor="start" x="757.5" y="-127.4" font-family="Helvetica,sans-Serif" font-size="11.00" fill="#000000">number[19]</text>
<polygon fill="#ffffff" stroke="transparent" points="522.5,-100.7 522.5,-119.7 626.5,-119.7 626.5,-100.7 522.5,-100.7"/>
<polygon fill="none" stroke="#000000" points="522.5,-100.7 522.5,-119.7 626.5,-119.7 626.5,-100.7 522.5,-100.7"/>
<text text-anchor="start" x="525.5" y="-106.8" font-family="Helvetica,sans-Serif" font-size="11.00" fill="#000000">&lt; 2</text>
<polygon fill="#ffffff" stroke="transparent" points="626.5,-100.7 626.5,-119.7 754.5,-119.7 754.5,-100.7 626.5,-100.7"/>
<polygon fill="none" stroke="#000000" points="626.5,-100.7 626.5,-119.7 754.5,-119.7 754.5,-100.7 626.5,-100.7"/>
<text text-anchor="start" x="712.9956" y="-106.8" font-family="Helvetica,sans-Serif" font-size="11.00" fill="#000000">28 rows</text>
<polygon fill="#ffffff" stroke="transparent" points="754.5,-100.7 754.5,-119.7 925.5,-119.7 925.5,-100.7 754.5,-100.7"/>
<polygon fill="none" stroke="#000000" points="754.5,-100.7 754.5,-119.7 925.5,-119.7 925.5,-100.7 754.5,-100.7"/>
<text text-anchor="start" x="906.9053" y="-106.8" font-family="Helvetica,sans-Serif" font-size="11.00" fill="#000000">0 &gt;</text>
<polygon fill="none" stroke="#000000" stroke-width="2" points="521,-99.7 521,-297.7 926,-297.7 926,-99.7 521,-99.7"/>
</a>
</g>
</g>
<!-- TARGETS_THERAPEUTIC_AREAS&#45;&gt;TARGETS -->
<g id="edge2" class="edge">
<title>TARGETS_THERAPEUTIC_AREAS:w&#45;&gt;TARGETS:e</title>
<path fill="none" stroke="#000000" d="M508.7053,-157.3296C492.3565,-171.2383 499.8243,-211.7 471,-211.7"/>
<polygon fill="#000000" stroke="#000000" points="514.9157,-155.2454 523.6454,-156.1129 518.7079,-153.9727 522.5,-152.7 522.5,-152.7 522.5,-152.7 518.7079,-153.9727 521.3546,-149.2871 514.9157,-155.2454 514.9157,-155.2454"/>
<ellipse fill="none" stroke="#000000" cx="511.882" cy="-156.2636" rx="3.2" ry="3.2"/>
</g>
<!-- TARGETS_THERAPEUTIC_AREAS&#45;&gt;THERAPEUTIC_AREAS -->
<g id="edge3" class="edge">
<title>TARGETS_THERAPEUTIC_AREAS:w&#45;&gt;THERAPEUTIC_AREAS:e</title>
<path fill="none" stroke="#000000" d="M508.6545,-126.2098C497.4651,-116.7346 498.6265,-94.8953 479,-86.7 369.9066,-41.1464 327.6561,-57.8819 213,-86.7 192.944,-91.7409 192.6798,-108.7 172,-108.7"/>
<polygon fill="#000000" stroke="#000000" points="514.8902,-128.232 521.3894,-134.1244 518.6951,-129.466 522.5,-130.7 522.5,-130.7 522.5,-130.7 518.6951,-129.466 523.6106,-127.2756 514.8902,-128.232 514.8902,-128.232"/>
<ellipse fill="none" stroke="#000000" cx="511.8463" cy="-127.2448" rx="3.2" ry="3.2"/>
</g>
</g>
</svg>
