<?xml version="1.0" encoding="UTF-8" standalone="no"?>
<!DOCTYPE svg PUBLIC "-//W3C//DTD SVG 1.1//EN"
 "http://www.w3.org/Graphics/SVG/1.1/DTD/svg11.dtd">
<!-- Generated by graphviz version 2.40.1 (20161225.0304)
 -->
<!-- Title: oneDegreeRelationshipsDiagram Pages: 1 -->
<svg width="752pt" height="407pt"
 viewBox="0.00 0.00 752.00 406.70" xmlns="http://www.w3.org/2000/svg" xmlns:xlink="http://www.w3.org/1999/xlink">
<g id="graph0" class="graph" transform="scale(1 1) rotate(0) translate(4 402.7)">
<title>oneDegreeRelationshipsDiagram</title>
<polygon fill="#ffffff" stroke="transparent" points="-4,4 -4,-402.7 748,-402.7 748,4 -4,4"/>
<text text-anchor="middle" x="72.4936" y="-7.3" font-family="Helvetica,sans-Serif" font-size="11.00" fill="#000000">Generated by SchemaSpy</text>
<!-- TARGET_FORM_COMMENTS -->
<g id="node1" class="node">
<title>TARGET_FORM_COMMENTS</title>
<g id="a_node1"><a xlink:href="../../tables/TARGET_FORM_COMMENTS.html" xlink:title="TARGET_FORM_COMMENTS" target="_top">
<polygon fill="#ffffff" stroke="transparent" points="358,-172.7 358,-394.7 736,-394.7 736,-172.7 358,-172.7"/>
<polygon fill="#f5f5f5" stroke="transparent" points="360,-369.7 360,-392.7 734,-392.7 734,-369.7 360,-369.7"/>
<polygon fill="none" stroke="#000000" points="360,-369.7 360,-392.7 734,-392.7 734,-369.7 360,-369.7"/>
<text text-anchor="start" x="365" y="-378.8" font-family="Helvetica,sans-Serif" font-weight="bold" font-size="11.00" fill="#000000">TARGET_FORM_COMMENTS</text>
<text text-anchor="start" x="699.0437" y="-377.8" font-family="Helvetica,sans-Serif" font-size="11.00" fill="#000000">[table]</text>
<polygon fill="none" stroke="#000000" points="360,-347.7 360,-369.7 563,-369.7 563,-347.7 360,-347.7"/>
<image xlink:href="../../images/primaryKeys.png" width="11px" height="12px" preserveAspectRatio="xMinYMin meet" x="365" y="-364.7"/>
<text text-anchor="start" x="380" y="-354.8" font-family="Helvetica,sans-Serif" font-size="11.00" fill="#000000">ID</text>
<polygon fill="none" stroke="#000000" points="563,-347.7 563,-369.7 734,-369.7 734,-347.7 563,-347.7"/>
<text text-anchor="start" x="566" y="-355.4" font-family="Helvetica,sans-Serif" font-size="11.00" fill="#000000">number[19]</text>
<polygon fill="none" stroke="#000000" points="360,-325.7 360,-347.7 563,-347.7 563,-325.7 360,-325.7"/>
<text text-anchor="start" x="380" y="-332.8" font-family="Helvetica,sans-Serif" font-size="11.00" fill="#000000">CREATED_AT</text>
<polygon fill="none" stroke="#000000" points="563,-325.7 563,-347.7 734,-347.7 734,-325.7 563,-325.7"/>
<text text-anchor="start" x="565.9896" y="-333.4" font-family="Helvetica,sans-Serif" font-size="11.00" fill="#000000">timestamp(6) with time zone[13,6]</text>
<polygon fill="none" stroke="#000000" points="360,-303.7 360,-325.7 563,-325.7 563,-303.7 360,-303.7"/>
<text text-anchor="start" x="380" y="-310.8" font-family="Helvetica,sans-Serif" font-size="11.00" fill="#000000">CREATED_BY</text>
<polygon fill="none" stroke="#000000" points="563,-303.7 563,-325.7 734,-325.7 734,-303.7 563,-303.7"/>
<text text-anchor="start" x="566" y="-311.4" font-family="Helvetica,sans-Serif" font-size="11.00" fill="#000000">number[19]</text>
<polygon fill="none" stroke="#000000" points="360,-281.7 360,-303.7 563,-303.7 563,-281.7 360,-281.7"/>
<text text-anchor="start" x="380" y="-288.8" font-family="Helvetica,sans-Serif" font-size="11.00" fill="#000000">UPDATED_AT</text>
<polygon fill="none" stroke="#000000" points="563,-281.7 563,-303.7 734,-303.7 734,-281.7 563,-281.7"/>
<text text-anchor="start" x="565.9896" y="-289.4" font-family="Helvetica,sans-Serif" font-size="11.00" fill="#000000">timestamp(6) with time zone[13,6]</text>
<polygon fill="none" stroke="#000000" points="360,-259.7 360,-281.7 563,-281.7 563,-259.7 360,-259.7"/>
<text text-anchor="start" x="380" y="-266.8" font-family="Helvetica,sans-Serif" font-size="11.00" fill="#000000">UPDATED_BY</text>
<polygon fill="none" stroke="#000000" points="563,-259.7 563,-281.7 734,-281.7 734,-259.7 563,-259.7"/>
<text text-anchor="start" x="566" y="-267.4" font-family="Helvetica,sans-Serif" font-size="11.00" fill="#000000">number[19]</text>
<polygon fill="none" stroke="#000000" points="360,-237.7 360,-259.7 563,-259.7 563,-237.7 360,-237.7"/>
<text text-anchor="start" x="380" y="-244.8" font-family="Helvetica,sans-Serif" font-size="11.00" fill="#000000">DESCRIPTION</text>
<polygon fill="none" stroke="#000000" points="563,-237.7 563,-259.7 734,-259.7 734,-237.7 563,-237.7"/>
<text text-anchor="start" x="566" y="-245.4" font-family="Helvetica,sans-Serif" font-size="11.00" fill="#000000">clob[4000]</text>
<polygon fill="none" stroke="#000000" points="360,-215.7 360,-237.7 563,-237.7 563,-215.7 360,-215.7"/>
<image xlink:href="../../images/foreignKeys.png" width="11px" height="12px" preserveAspectRatio="xMinYMin meet" x="365" y="-232.7"/>
<text text-anchor="start" x="380" y="-222.8" font-family="Helvetica,sans-Serif" font-size="11.00" fill="#000000">TARGET_FORM_ID</text>
<polygon fill="none" stroke="#000000" points="563,-215.7 563,-237.7 734,-237.7 734,-215.7 563,-215.7"/>
<text text-anchor="start" x="566" y="-223.4" font-family="Helvetica,sans-Serif" font-size="11.00" fill="#000000">number[19]</text>
<polygon fill="none" stroke="#000000" points="360,-193.7 360,-215.7 563,-215.7 563,-193.7 360,-193.7"/>
<image xlink:href="../../images/foreignKeys.png" width="11px" height="12px" preserveAspectRatio="xMinYMin meet" x="365" y="-210.7"/>
<text text-anchor="start" x="380" y="-200.8" font-family="Helvetica,sans-Serif" font-size="11.00" fill="#000000">USER_ID</text>
<polygon fill="none" stroke="#000000" points="563,-193.7 563,-215.7 734,-215.7 734,-193.7 563,-193.7"/>
<text text-anchor="start" x="566" y="-201.4" font-family="Helvetica,sans-Serif" font-size="11.00" fill="#000000">number[19]</text>
<polygon fill="#ffffff" stroke="transparent" points="360,-174.7 360,-193.7 453,-193.7 453,-174.7 360,-174.7"/>
<polygon fill="none" stroke="#000000" points="360,-174.7 360,-193.7 453,-193.7 453,-174.7 360,-174.7"/>
<text text-anchor="start" x="363" y="-180.8" font-family="Helvetica,sans-Serif" font-size="11.00" fill="#000000">&lt; 2</text>
<polygon fill="#ffffff" stroke="transparent" points="453,-174.7 453,-193.7 563,-193.7 563,-174.7 453,-174.7"/>
<polygon fill="none" stroke="#000000" points="453,-174.7 453,-193.7 563,-193.7 563,-174.7 453,-174.7"/>
<text text-anchor="start" x="527.6105" y="-180.8" font-family="Helvetica,sans-Serif" font-size="11.00" fill="#000000">3 rows</text>
<polygon fill="#ffffff" stroke="transparent" points="563,-174.7 563,-193.7 734,-193.7 734,-174.7 563,-174.7"/>
<polygon fill="none" stroke="#000000" points="563,-174.7 563,-193.7 734,-193.7 734,-174.7 563,-174.7"/>
<text text-anchor="start" x="715.4053" y="-180.8" font-family="Helvetica,sans-Serif" font-size="11.00" fill="#000000">0 &gt;</text>
<polygon fill="none" stroke="#000000" stroke-width="2" points="359,-173.7 359,-393.7 735,-393.7 735,-173.7 359,-173.7"/>
</a>
</g>
</g>
<!-- TARGET_FORMS -->
<g id="node2" class="node">
<title>TARGET_FORMS</title>
<g id="a_node2"><a xlink:href="../../tables/TARGET_FORMS.html" xlink:title="TARGET_FORMS" target="_top">
<polygon fill="#ffffff" stroke="transparent" points="8,-164.2 8,-357.2 309,-357.2 309,-164.2 8,-164.2"/>
<polygon fill="#f5f5f5" stroke="transparent" points="8.5,-333.7 8.5,-356.7 309.5,-356.7 309.5,-333.7 8.5,-333.7"/>
<polygon fill="none" stroke="#000000" points="8.5,-333.7 8.5,-356.7 309.5,-356.7 309.5,-333.7 8.5,-333.7"/>
<text text-anchor="start" x="13.5" y="-342.8" font-family="Helvetica,sans-Serif" font-weight="bold" font-size="11.00" fill="#000000">TARGET_FORMS</text>
<text text-anchor="start" x="274.5437" y="-341.8" font-family="Helvetica,sans-Serif" font-size="11.00" fill="#000000">[table]</text>
<polygon fill="none" stroke="#000000" points="8.5,-311.7 8.5,-333.7 309.5,-333.7 309.5,-311.7 8.5,-311.7"/>
<image xlink:href="../../images/primaryKeys.png" width="11px" height="12px" preserveAspectRatio="xMinYMin meet" x="13.5" y="-328.7"/>
<text text-anchor="start" x="28.5" y="-318.8" font-family="Helvetica,sans-Serif" font-size="11.00" fill="#000000">ID</text>
<polygon fill="none" stroke="#000000" points="8.5,-289.7 8.5,-311.7 309.5,-311.7 309.5,-289.7 8.5,-289.7"/>
<image xlink:href="../../images/foreignKeys.png" width="11px" height="12px" preserveAspectRatio="xMinYMin meet" x="13.5" y="-306.7"/>
<text text-anchor="start" x="28.5" y="-296.8" font-family="Helvetica,sans-Serif" font-size="11.00" fill="#000000">TARGET_ID</text>
<polygon fill="none" stroke="#000000" points="8.5,-267.7 8.5,-289.7 309.5,-289.7 309.5,-267.7 8.5,-267.7"/>
<image xlink:href="../../images/foreignKeys.png" width="11px" height="12px" preserveAspectRatio="xMinYMin meet" x="13.5" y="-284.7"/>
<text text-anchor="start" x="28.5" y="-274.8" font-family="Helvetica,sans-Serif" font-size="11.00" fill="#000000">SPECIES_ID</text>
<polygon fill="none" stroke="#000000" points="8.5,-245.7 8.5,-267.7 309.5,-267.7 309.5,-245.7 8.5,-245.7"/>
<image xlink:href="../../images/foreignKeys.png" width="11px" height="12px" preserveAspectRatio="xMinYMin meet" x="13.5" y="-262.7"/>
<text text-anchor="start" x="28.5" y="-252.8" font-family="Helvetica,sans-Serif" font-size="11.00" fill="#000000">POST_TRANSLATIONAL_MODIFICATION_ID</text>
<polygon fill="none" stroke="#000000" points="8.5,-223.7 8.5,-245.7 309.5,-245.7 309.5,-223.7 8.5,-223.7"/>
<image xlink:href="../../images/foreignKeys.png" width="11px" height="12px" preserveAspectRatio="xMinYMin meet" x="13.5" y="-240.7"/>
<text text-anchor="start" x="28.5" y="-230.8" font-family="Helvetica,sans-Serif" font-size="11.00" fill="#000000">ISOFORM_ID</text>
<polygon fill="none" stroke="#000000" points="8.5,-201.7 8.5,-223.7 309.5,-223.7 309.5,-201.7 8.5,-201.7"/>
<image xlink:href="../../images/foreignKeys.png" width="11px" height="12px" preserveAspectRatio="xMinYMin meet" x="13.5" y="-218.7"/>
<text text-anchor="start" x="28.5" y="-208.8" font-family="Helvetica,sans-Serif" font-size="11.00" fill="#000000">EXPRESSION_SYSTEM_ID</text>
<polygon fill="none" stroke="#000000" points="8.5,-182.7 8.5,-201.7 309.5,-201.7 309.5,-182.7 8.5,-182.7"/>
<text text-anchor="start" x="11.5" y="-188.8" font-family="Helvetica,sans-Serif" font-size="11.00" fill="#000000">...</text>
<polygon fill="#ffffff" stroke="transparent" points="8.5,-163.7 8.5,-182.7 130.5,-182.7 130.5,-163.7 8.5,-163.7"/>
<polygon fill="none" stroke="#000000" points="8.5,-163.7 8.5,-182.7 130.5,-182.7 130.5,-163.7 8.5,-163.7"/>
<text text-anchor="start" x="11.5" y="-169.8" font-family="Helvetica,sans-Serif" font-size="11.00" fill="#000000">&lt; 5</text>
<polygon fill="#ffffff" stroke="transparent" points="130.5,-163.7 130.5,-182.7 231.5,-182.7 231.5,-163.7 130.5,-163.7"/>
<polygon fill="none" stroke="#000000" points="130.5,-163.7 130.5,-182.7 231.5,-182.7 231.5,-163.7 130.5,-163.7"/>
<text text-anchor="start" x="183.8807" y="-169.8" font-family="Helvetica,sans-Serif" font-size="11.00" fill="#000000">541 rows</text>
<polygon fill="#ffffff" stroke="transparent" points="231.5,-163.7 231.5,-182.7 309.5,-182.7 309.5,-163.7 231.5,-163.7"/>
<polygon fill="none" stroke="#000000" points="231.5,-163.7 231.5,-182.7 309.5,-182.7 309.5,-163.7 231.5,-163.7"/>
<text text-anchor="start" x="284.7904" y="-169.8" font-family="Helvetica,sans-Serif" font-size="11.00" fill="#000000">18 &gt;</text>
</a>
</g>
</g>
<!-- TARGET_FORM_COMMENTS&#45;&gt;TARGET_FORMS -->
<g id="edge1" class="edge">
<title>TARGET_FORM_COMMENTS:w&#45;&gt;TARGET_FORMS:e</title>
<path fill="none" stroke="#000000" d="M345.9659,-230.825C321.7993,-249.2 351.6837,-322.7 309.5,-322.7"/>
<polygon fill="#000000" stroke="#000000" points="352.3247,-228.956 361.0152,-230.1539 356.1623,-227.828 360,-226.7 360,-226.7 360,-226.7 356.1623,-227.828 358.9848,-223.2461 352.3247,-228.956 352.3247,-228.956"/>
<ellipse fill="none" stroke="#000000" cx="349.2545" cy="-229.8584" rx="3.2" ry="3.2"/>
</g>
<!-- USERS -->
<g id="node3" class="node">
<title>USERS</title>
<g id="a_node3"><a xlink:href="../../tables/USERS.html" xlink:title="USERS" target="_top">
<polygon fill="#ffffff" stroke="transparent" points="101.5,-38.2 101.5,-143.2 215.5,-143.2 215.5,-38.2 101.5,-38.2"/>
<polygon fill="#f5f5f5" stroke="transparent" points="101.5,-119.7 101.5,-142.7 215.5,-142.7 215.5,-119.7 101.5,-119.7"/>
<polygon fill="none" stroke="#000000" points="101.5,-119.7 101.5,-142.7 215.5,-142.7 215.5,-119.7 101.5,-119.7"/>
<text text-anchor="start" x="106.5" y="-128.8" font-family="Helvetica,sans-Serif" font-weight="bold" font-size="11.00" fill="#000000">USERS</text>
<text text-anchor="start" x="180.5437" y="-127.8" font-family="Helvetica,sans-Serif" font-size="11.00" fill="#000000">[table]</text>
<polygon fill="none" stroke="#000000" points="101.5,-97.7 101.5,-119.7 215.5,-119.7 215.5,-97.7 101.5,-97.7"/>
<image xlink:href="../../images/primaryKeys.png" width="11px" height="12px" preserveAspectRatio="xMinYMin meet" x="106.5" y="-114.7"/>
<text text-anchor="start" x="121.5" y="-104.8" font-family="Helvetica,sans-Serif" font-size="11.00" fill="#000000">ID</text>
<polygon fill="none" stroke="#000000" points="101.5,-75.7 101.5,-97.7 215.5,-97.7 215.5,-75.7 101.5,-75.7"/>
<image xlink:href="../../images/primaryKeys.png" width="11px" height="12px" preserveAspectRatio="xMinYMin meet" x="106.5" y="-92.7"/>
<text text-anchor="start" x="121.5" y="-82.8" font-family="Helvetica,sans-Serif" font-size="11.00" fill="#000000">USERNAME</text>
<polygon fill="none" stroke="#000000" points="101.5,-56.7 101.5,-75.7 215.5,-75.7 215.5,-56.7 101.5,-56.7"/>
<text text-anchor="start" x="104.5" y="-62.8" font-family="Helvetica,sans-Serif" font-size="11.00" fill="#000000">...</text>
<polygon fill="#ffffff" stroke="transparent" points="101.5,-37.7 101.5,-56.7 131.5,-56.7 131.5,-37.7 101.5,-37.7"/>
<polygon fill="none" stroke="#000000" points="101.5,-37.7 101.5,-56.7 131.5,-56.7 131.5,-37.7 101.5,-37.7"/>
<text text-anchor="start" x="104.5" y="-43.8" font-family="Helvetica,sans-Serif" font-size="11.00" fill="#000000"> &#160;</text>
<polygon fill="#ffffff" stroke="transparent" points="131.5,-37.7 131.5,-56.7 184.5,-56.7 184.5,-37.7 131.5,-37.7"/>
<polygon fill="none" stroke="#000000" points="131.5,-37.7 131.5,-56.7 184.5,-56.7 184.5,-37.7 131.5,-37.7"/>
<text text-anchor="start" x="142.9956" y="-43.8" font-family="Helvetica,sans-Serif" font-size="11.00" fill="#000000">33 rows</text>
<polygon fill="#ffffff" stroke="transparent" points="184.5,-37.7 184.5,-56.7 215.5,-56.7 215.5,-37.7 184.5,-37.7"/>
<polygon fill="none" stroke="#000000" points="184.5,-37.7 184.5,-56.7 215.5,-56.7 215.5,-37.7 184.5,-37.7"/>
<text text-anchor="start" x="196.9053" y="-43.8" font-family="Helvetica,sans-Serif" font-size="11.00" fill="#000000">9 &gt;</text>
</a>
</g>
</g>
<!-- TARGET_FORM_COMMENTS&#45;&gt;USERS -->
<g id="edge2" class="edge">
<title>TARGET_FORM_COMMENTS:w&#45;&gt;USERS:e</title>
<path fill="none" stroke="#000000" d="M345.8836,-200.7241C333.2069,-191.3777 335.7111,-167.7422 317,-153.7 277.5323,-124.0805 264.8458,-108.7 215.5,-108.7"/>
<polygon fill="#000000" stroke="#000000" points="352.2996,-202.5311 359.024,-208.1652 356.1498,-203.6156 360,-204.7 360,-204.7 360,-204.7 356.1498,-203.6156 360.976,-201.2348 352.2996,-202.5311 352.2996,-202.5311"/>
<ellipse fill="none" stroke="#000000" cx="349.2194" cy="-201.6636" rx="3.2" ry="3.2"/>
</g>
</g>
</svg>
