<?xml version="1.0" encoding="UTF-8" standalone="no"?>
<!DOCTYPE svg PUBLIC "-//W3C//DTD SVG 1.1//EN"
 "http://www.w3.org/Graphics/SVG/1.1/DTD/svg11.dtd">
<!-- Generated by graphviz version 2.40.1 (20161225.0304)
 -->
<!-- Title: oneDegreeRelationshipsDiagram Pages: 1 -->
<svg width="931pt" height="343pt"
 viewBox="0.00 0.00 931.00 342.70" xmlns="http://www.w3.org/2000/svg" xmlns:xlink="http://www.w3.org/1999/xlink">
<g id="graph0" class="graph" transform="scale(1 1) rotate(0) translate(4 338.7)">
<title>oneDegreeRelationshipsDiagram</title>
<polygon fill="#ffffff" stroke="transparent" points="-4,4 -4,-338.7 927,-338.7 927,4 -4,4"/>
<text text-anchor="middle" x="72.4936" y="-7.3" font-family="Helvetica,sans-Serif" font-size="11.00" fill="#000000">Generated by SchemaSpy</text>
<!-- TARGET_FORMS_PROTEIN_FUSION_SEQUENCES -->
<g id="node1" class="node">
<title>TARGET_FORMS_PROTEIN_FUSION_SEQUENCES</title>
<g id="a_node1"><a xlink:href="../../tables/TARGET_FORMS_PROTEIN_FUSION_SEQUENCES.html" xlink:title="TARGET_FORMS_PROTEIN_FUSION_SEQUENCES" target="_top">
<polygon fill="#ffffff" stroke="transparent" points="403,-108.7 403,-330.7 915,-330.7 915,-108.7 403,-108.7"/>
<polygon fill="#f5f5f5" stroke="transparent" points="405,-305.7 405,-328.7 913,-328.7 913,-305.7 405,-305.7"/>
<polygon fill="none" stroke="#000000" points="405,-305.7 405,-328.7 913,-328.7 913,-305.7 405,-305.7"/>
<text text-anchor="start" x="410" y="-314.8" font-family="Helvetica,sans-Serif" font-weight="bold" font-size="11.00" fill="#000000">TARGET_FORMS_PROTEIN_FUSION_SEQUENCES</text>
<text text-anchor="start" x="878.0437" y="-313.8" font-family="Helvetica,sans-Serif" font-size="11.00" fill="#000000">[table]</text>
<polygon fill="none" stroke="#000000" points="405,-283.7 405,-305.7 742,-305.7 742,-283.7 405,-283.7"/>
<image xlink:href="../../images/primaryKeys.png" width="11px" height="12px" preserveAspectRatio="xMinYMin meet" x="410" y="-300.7"/>
<text text-anchor="start" x="425" y="-290.8" font-family="Helvetica,sans-Serif" font-size="11.00" fill="#000000">ID</text>
<polygon fill="none" stroke="#000000" points="742,-283.7 742,-305.7 913,-305.7 913,-283.7 742,-283.7"/>
<text text-anchor="start" x="745" y="-291.4" font-family="Helvetica,sans-Serif" font-size="11.00" fill="#000000">number[19]</text>
<polygon fill="none" stroke="#000000" points="405,-261.7 405,-283.7 742,-283.7 742,-261.7 405,-261.7"/>
<text text-anchor="start" x="425" y="-268.8" font-family="Helvetica,sans-Serif" font-size="11.00" fill="#000000">CREATED_AT</text>
<polygon fill="none" stroke="#000000" points="742,-261.7 742,-283.7 913,-283.7 913,-261.7 742,-261.7"/>
<text text-anchor="start" x="744.9896" y="-269.4" font-family="Helvetica,sans-Serif" font-size="11.00" fill="#000000">timestamp(6) with time zone[13,6]</text>
<polygon fill="none" stroke="#000000" points="405,-239.7 405,-261.7 742,-261.7 742,-239.7 405,-239.7"/>
<text text-anchor="start" x="425" y="-246.8" font-family="Helvetica,sans-Serif" font-size="11.00" fill="#000000">CREATED_BY</text>
<polygon fill="none" stroke="#000000" points="742,-239.7 742,-261.7 913,-261.7 913,-239.7 742,-239.7"/>
<text text-anchor="start" x="745" y="-247.4" font-family="Helvetica,sans-Serif" font-size="11.00" fill="#000000">number[19]</text>
<polygon fill="none" stroke="#000000" points="405,-217.7 405,-239.7 742,-239.7 742,-217.7 405,-217.7"/>
<text text-anchor="start" x="425" y="-224.8" font-family="Helvetica,sans-Serif" font-size="11.00" fill="#000000">UPDATED_AT</text>
<polygon fill="none" stroke="#000000" points="742,-217.7 742,-239.7 913,-239.7 913,-217.7 742,-217.7"/>
<text text-anchor="start" x="744.9896" y="-225.4" font-family="Helvetica,sans-Serif" font-size="11.00" fill="#000000">timestamp(6) with time zone[13,6]</text>
<polygon fill="none" stroke="#000000" points="405,-195.7 405,-217.7 742,-217.7 742,-195.7 405,-195.7"/>
<text text-anchor="start" x="425" y="-202.8" font-family="Helvetica,sans-Serif" font-size="11.00" fill="#000000">UPDATED_BY</text>
<polygon fill="none" stroke="#000000" points="742,-195.7 742,-217.7 913,-217.7 913,-195.7 742,-195.7"/>
<text text-anchor="start" x="745" y="-203.4" font-family="Helvetica,sans-Serif" font-size="11.00" fill="#000000">number[19]</text>
<polygon fill="none" stroke="#000000" points="405,-173.7 405,-195.7 742,-195.7 742,-173.7 405,-173.7"/>
<image xlink:href="../../images/foreignKeys.png" width="11px" height="12px" preserveAspectRatio="xMinYMin meet" x="410" y="-190.7"/>
<text text-anchor="start" x="425" y="-180.8" font-family="Helvetica,sans-Serif" font-size="11.00" fill="#000000">TARGET_FORM_ID</text>
<polygon fill="none" stroke="#000000" points="742,-173.7 742,-195.7 913,-195.7 913,-173.7 742,-173.7"/>
<text text-anchor="start" x="745" y="-181.4" font-family="Helvetica,sans-Serif" font-size="11.00" fill="#000000">number[19]</text>
<polygon fill="none" stroke="#000000" points="405,-151.7 405,-173.7 742,-173.7 742,-151.7 405,-151.7"/>
<image xlink:href="../../images/foreignKeys.png" width="11px" height="12px" preserveAspectRatio="xMinYMin meet" x="410" y="-168.7"/>
<text text-anchor="start" x="425" y="-158.8" font-family="Helvetica,sans-Serif" font-size="11.00" fill="#000000">PROTEIN_FUSION_SEQUENCE_ID</text>
<polygon fill="none" stroke="#000000" points="742,-151.7 742,-173.7 913,-173.7 913,-151.7 742,-151.7"/>
<text text-anchor="start" x="745" y="-159.4" font-family="Helvetica,sans-Serif" font-size="11.00" fill="#000000">number[19]</text>
<polygon fill="none" stroke="#000000" points="405,-129.7 405,-151.7 742,-151.7 742,-129.7 405,-129.7"/>
<text text-anchor="start" x="425" y="-136.8" font-family="Helvetica,sans-Serif" font-size="11.00" fill="#000000">CARTOON_ORDER</text>
<polygon fill="none" stroke="#000000" points="742,-129.7 742,-151.7 913,-151.7 913,-129.7 742,-129.7"/>
<text text-anchor="start" x="745" y="-137.4" font-family="Helvetica,sans-Serif" font-size="11.00" fill="#000000">number[2]</text>
<polygon fill="#ffffff" stroke="transparent" points="405,-110.7 405,-129.7 559,-129.7 559,-110.7 405,-110.7"/>
<polygon fill="none" stroke="#000000" points="405,-110.7 405,-129.7 559,-129.7 559,-110.7 405,-110.7"/>
<text text-anchor="start" x="408" y="-116.8" font-family="Helvetica,sans-Serif" font-size="11.00" fill="#000000">&lt; 2</text>
<polygon fill="#ffffff" stroke="transparent" points="559,-110.7 559,-129.7 742,-129.7 742,-110.7 559,-110.7"/>
<polygon fill="none" stroke="#000000" points="559,-110.7 559,-129.7 742,-129.7 742,-110.7 559,-110.7"/>
<text text-anchor="start" x="694.3807" y="-116.8" font-family="Helvetica,sans-Serif" font-size="11.00" fill="#000000">110 rows</text>
<polygon fill="#ffffff" stroke="transparent" points="742,-110.7 742,-129.7 913,-129.7 913,-110.7 742,-110.7"/>
<polygon fill="none" stroke="#000000" points="742,-110.7 742,-129.7 913,-129.7 913,-110.7 742,-110.7"/>
<text text-anchor="start" x="894.4053" y="-116.8" font-family="Helvetica,sans-Serif" font-size="11.00" fill="#000000">0 &gt;</text>
<polygon fill="none" stroke="#000000" stroke-width="2" points="404,-109.7 404,-329.7 914,-329.7 914,-109.7 404,-109.7"/>
</a>
</g>
</g>
<!-- PROTEIN_PRODUCTION.PROTEIN_FUSION_SEQUENCES -->
<g id="node2" class="node">
<title>PROTEIN_PRODUCTION.PROTEIN_FUSION_SEQUENCES</title>
<g id="a_node2"><a xlink:title="PROTEIN_PRODUCTION.PROTEIN_FUSION_SEQUENCES">
<polygon fill="#ffffff" stroke="transparent" points="8,-38.2 8,-99.2 354,-99.2 354,-38.2 8,-38.2"/>
<polygon fill="#f5f5f5" stroke="transparent" points="8,-75.7 8,-98.7 354,-98.7 354,-75.7 8,-75.7"/>
<polygon fill="none" stroke="#000000" points="8,-75.7 8,-98.7 354,-98.7 354,-75.7 8,-75.7"/>
<text text-anchor="start" x="12.6411" y="-84.8" font-family="Helvetica,sans-Serif" font-weight="bold" font-size="11.00" fill="#000000">PROTEIN_PRODUCTION.PROTEIN_FUSION_SEQUENCES</text>
<text text-anchor="start" x="319.5219" y="-83.8" font-family="Helvetica,sans-Serif" font-size="11.00" fill="#000000">[table]</text>
<polygon fill="none" stroke="#000000" points="8,-56.7 8,-75.7 354,-75.7 354,-56.7 8,-56.7"/>
<text text-anchor="start" x="11" y="-62.8" font-family="Helvetica,sans-Serif" font-size="11.00" fill="#000000">...</text>
<polygon fill="#ffffff" stroke="transparent" points="8,-37.7 8,-56.7 157,-56.7 157,-37.7 8,-37.7"/>
<polygon fill="none" stroke="#000000" points="8,-37.7 8,-56.7 157,-56.7 157,-37.7 8,-37.7"/>
<text text-anchor="start" x="11" y="-43.8" font-family="Helvetica,sans-Serif" font-size="11.00" fill="#000000"> &#160;</text>
<polygon fill="#ffffff" stroke="transparent" points="157,-37.7 157,-56.7 264,-56.7 264,-37.7 157,-37.7"/>
<polygon fill="none" stroke="#000000" points="157,-37.7 157,-56.7 264,-56.7 264,-37.7 157,-37.7"/>
<text text-anchor="start" x="228.6105" y="-43.8" font-family="Helvetica,sans-Serif" font-size="11.00" fill="#000000">0 rows</text>
<polygon fill="#ffffff" stroke="transparent" points="264,-37.7 264,-56.7 354,-56.7 354,-37.7 264,-37.7"/>
<polygon fill="none" stroke="#000000" points="264,-37.7 264,-56.7 354,-56.7 354,-37.7 264,-37.7"/>
<text text-anchor="start" x="335.4053" y="-43.8" font-family="Helvetica,sans-Serif" font-size="11.00" fill="#000000">2 &gt;</text>
</a>
</g>
</g>
<!-- TARGET_FORMS_PROTEIN_FUSION_SEQUENCES&#45;&gt;PROTEIN_PRODUCTION.PROTEIN_FUSION_SEQUENCES -->
<g id="edge1" class="edge">
<title>TARGET_FORMS_PROTEIN_FUSION_SEQUENCES:w&#45;&gt;PROTEIN_PRODUCTION.PROTEIN_FUSION_SEQUENCES:e</title>
<path fill="none" stroke="#000000" d="M390.8298,-158.3064C378.4633,-148.028 382.3298,-122.3321 362,-109.7 358.4423,-107.4894 354.7792,-105.3976 351.0305,-103.4182"/>
<polygon fill="#000000" stroke="#000000" points="397.3589,-160.3308 403.9338,-166.1385 401.1794,-161.5154 405,-162.7 405,-162.7 405,-162.7 401.1794,-161.5154 406.0662,-159.2615 397.3589,-160.3308 397.3589,-160.3308"/>
<ellipse fill="none" stroke="#000000" cx="394.3024" cy="-159.3831" rx="3.2" ry="3.2"/>
</g>
<!-- TARGET_FORMS -->
<g id="node3" class="node">
<title>TARGET_FORMS</title>
<g id="a_node3"><a xlink:href="../../tables/TARGET_FORMS.html" xlink:title="TARGET_FORMS" target="_top">
<polygon fill="#ffffff" stroke="transparent" points="30.5,-120.2 30.5,-313.2 331.5,-313.2 331.5,-120.2 30.5,-120.2"/>
<polygon fill="#f5f5f5" stroke="transparent" points="31,-289.7 31,-312.7 332,-312.7 332,-289.7 31,-289.7"/>
<polygon fill="none" stroke="#000000" points="31,-289.7 31,-312.7 332,-312.7 332,-289.7 31,-289.7"/>
<text text-anchor="start" x="36" y="-298.8" font-family="Helvetica,sans-Serif" font-weight="bold" font-size="11.00" fill="#000000">TARGET_FORMS</text>
<text text-anchor="start" x="297.0437" y="-297.8" font-family="Helvetica,sans-Serif" font-size="11.00" fill="#000000">[table]</text>
<polygon fill="none" stroke="#000000" points="31,-267.7 31,-289.7 332,-289.7 332,-267.7 31,-267.7"/>
<image xlink:href="../../images/primaryKeys.png" width="11px" height="12px" preserveAspectRatio="xMinYMin meet" x="36" y="-284.7"/>
<text text-anchor="start" x="51" y="-274.8" font-family="Helvetica,sans-Serif" font-size="11.00" fill="#000000">ID</text>
<polygon fill="none" stroke="#000000" points="31,-245.7 31,-267.7 332,-267.7 332,-245.7 31,-245.7"/>
<image xlink:href="../../images/foreignKeys.png" width="11px" height="12px" preserveAspectRatio="xMinYMin meet" x="36" y="-262.7"/>
<text text-anchor="start" x="51" y="-252.8" font-family="Helvetica,sans-Serif" font-size="11.00" fill="#000000">TARGET_ID</text>
<polygon fill="none" stroke="#000000" points="31,-223.7 31,-245.7 332,-245.7 332,-223.7 31,-223.7"/>
<image xlink:href="../../images/foreignKeys.png" width="11px" height="12px" preserveAspectRatio="xMinYMin meet" x="36" y="-240.7"/>
<text text-anchor="start" x="51" y="-230.8" font-family="Helvetica,sans-Serif" font-size="11.00" fill="#000000">SPECIES_ID</text>
<polygon fill="none" stroke="#000000" points="31,-201.7 31,-223.7 332,-223.7 332,-201.7 31,-201.7"/>
<image xlink:href="../../images/foreignKeys.png" width="11px" height="12px" preserveAspectRatio="xMinYMin meet" x="36" y="-218.7"/>
<text text-anchor="start" x="51" y="-208.8" font-family="Helvetica,sans-Serif" font-size="11.00" fill="#000000">POST_TRANSLATIONAL_MODIFICATION_ID</text>
<polygon fill="none" stroke="#000000" points="31,-179.7 31,-201.7 332,-201.7 332,-179.7 31,-179.7"/>
<image xlink:href="../../images/foreignKeys.png" width="11px" height="12px" preserveAspectRatio="xMinYMin meet" x="36" y="-196.7"/>
<text text-anchor="start" x="51" y="-186.8" font-family="Helvetica,sans-Serif" font-size="11.00" fill="#000000">ISOFORM_ID</text>
<polygon fill="none" stroke="#000000" points="31,-157.7 31,-179.7 332,-179.7 332,-157.7 31,-157.7"/>
<image xlink:href="../../images/foreignKeys.png" width="11px" height="12px" preserveAspectRatio="xMinYMin meet" x="36" y="-174.7"/>
<text text-anchor="start" x="51" y="-164.8" font-family="Helvetica,sans-Serif" font-size="11.00" fill="#000000">EXPRESSION_SYSTEM_ID</text>
<polygon fill="none" stroke="#000000" points="31,-138.7 31,-157.7 332,-157.7 332,-138.7 31,-138.7"/>
<text text-anchor="start" x="34" y="-144.8" font-family="Helvetica,sans-Serif" font-size="11.00" fill="#000000">...</text>
<polygon fill="#ffffff" stroke="transparent" points="31,-119.7 31,-138.7 153,-138.7 153,-119.7 31,-119.7"/>
<polygon fill="none" stroke="#000000" points="31,-119.7 31,-138.7 153,-138.7 153,-119.7 31,-119.7"/>
<text text-anchor="start" x="34" y="-125.8" font-family="Helvetica,sans-Serif" font-size="11.00" fill="#000000">&lt; 5</text>
<polygon fill="#ffffff" stroke="transparent" points="153,-119.7 153,-138.7 254,-138.7 254,-119.7 153,-119.7"/>
<polygon fill="none" stroke="#000000" points="153,-119.7 153,-138.7 254,-138.7 254,-119.7 153,-119.7"/>
<text text-anchor="start" x="206.3807" y="-125.8" font-family="Helvetica,sans-Serif" font-size="11.00" fill="#000000">541 rows</text>
<polygon fill="#ffffff" stroke="transparent" points="254,-119.7 254,-138.7 332,-138.7 332,-119.7 254,-119.7"/>
<polygon fill="none" stroke="#000000" points="254,-119.7 254,-138.7 332,-138.7 332,-119.7 254,-119.7"/>
<text text-anchor="start" x="307.2904" y="-125.8" font-family="Helvetica,sans-Serif" font-size="11.00" fill="#000000">18 &gt;</text>
</a>
</g>
</g>
<!-- TARGET_FORMS_PROTEIN_FUSION_SEQUENCES&#45;&gt;TARGET_FORMS -->
<g id="edge2" class="edge">
<title>TARGET_FORMS_PROTEIN_FUSION_SEQUENCES:w&#45;&gt;TARGET_FORMS:e</title>
<path fill="none" stroke="#000000" d="M390.4944,-187.8275C358.252,-204.138 379.1108,-278.7 332,-278.7"/>
<polygon fill="#000000" stroke="#000000" points="397.1797,-186.3862 405.7588,-188.2191 401.0899,-185.5431 405,-184.7 405,-184.7 405,-184.7 401.0899,-185.5431 404.2412,-181.1809 397.1797,-186.3862 397.1797,-186.3862"/>
<ellipse fill="none" stroke="#000000" cx="394.0516" cy="-187.0606" rx="3.2" ry="3.2"/>
</g>
</g>
</svg>
