<?xml version="1.0" encoding="UTF-8" standalone="no"?>
<!DOCTYPE svg PUBLIC "-//W3C//DTD SVG 1.1//EN"
 "http://www.w3.org/Graphics/SVG/1.1/DTD/svg11.dtd">
<!-- Generated by graphviz version 2.40.1 (20161225.0304)
 -->
<!-- Title: oneDegreeRelationshipsDiagram Pages: 1 -->
<svg width="719pt" height="440pt"
 viewBox="0.00 0.00 719.00 439.70" xmlns="http://www.w3.org/2000/svg" xmlns:xlink="http://www.w3.org/1999/xlink">
<g id="graph0" class="graph" transform="scale(1 1) rotate(0) translate(4 435.7)">
<title>oneDegreeRelationshipsDiagram</title>
<polygon fill="#ffffff" stroke="transparent" points="-4,4 -4,-435.7 715,-435.7 715,4 -4,4"/>
<text text-anchor="middle" x="72.4936" y="-7.3" font-family="Helvetica,sans-Serif" font-size="11.00" fill="#000000">Generated by SchemaSpy</text>
<!-- TARGET_FORMS_TAGS -->
<g id="node1" class="node">
<title>TARGET_FORMS_TAGS</title>
<g id="a_node1"><a xlink:href="../../tables/TARGET_FORMS_TAGS.html" xlink:title="TARGET_FORMS_TAGS" target="_top">
<polygon fill="#ffffff" stroke="transparent" points="358,-205.7 358,-427.7 703,-427.7 703,-205.7 358,-205.7"/>
<polygon fill="#f5f5f5" stroke="transparent" points="360.5,-402.7 360.5,-425.7 701.5,-425.7 701.5,-402.7 360.5,-402.7"/>
<polygon fill="none" stroke="#000000" points="360.5,-402.7 360.5,-425.7 701.5,-425.7 701.5,-402.7 360.5,-402.7"/>
<text text-anchor="start" x="365.5" y="-411.8" font-family="Helvetica,sans-Serif" font-weight="bold" font-size="11.00" fill="#000000">TARGET_FORMS_TAGS</text>
<text text-anchor="start" x="666.5437" y="-410.8" font-family="Helvetica,sans-Serif" font-size="11.00" fill="#000000">[table]</text>
<polygon fill="none" stroke="#000000" points="360.5,-380.7 360.5,-402.7 530.5,-402.7 530.5,-380.7 360.5,-380.7"/>
<image xlink:href="../../images/primaryKeys.png" width="11px" height="12px" preserveAspectRatio="xMinYMin meet" x="365.5" y="-397.7"/>
<text text-anchor="start" x="380.5" y="-387.8" font-family="Helvetica,sans-Serif" font-size="11.00" fill="#000000">ID</text>
<polygon fill="none" stroke="#000000" points="530.5,-380.7 530.5,-402.7 701.5,-402.7 701.5,-380.7 530.5,-380.7"/>
<text text-anchor="start" x="533.5" y="-388.4" font-family="Helvetica,sans-Serif" font-size="11.00" fill="#000000">number[19]</text>
<polygon fill="none" stroke="#000000" points="360.5,-358.7 360.5,-380.7 530.5,-380.7 530.5,-358.7 360.5,-358.7"/>
<text text-anchor="start" x="380.5" y="-365.8" font-family="Helvetica,sans-Serif" font-size="11.00" fill="#000000">CREATED_AT</text>
<polygon fill="none" stroke="#000000" points="530.5,-358.7 530.5,-380.7 701.5,-380.7 701.5,-358.7 530.5,-358.7"/>
<text text-anchor="start" x="533.4896" y="-366.4" font-family="Helvetica,sans-Serif" font-size="11.00" fill="#000000">timestamp(6) with time zone[13,6]</text>
<polygon fill="none" stroke="#000000" points="360.5,-336.7 360.5,-358.7 530.5,-358.7 530.5,-336.7 360.5,-336.7"/>
<text text-anchor="start" x="380.5" y="-343.8" font-family="Helvetica,sans-Serif" font-size="11.00" fill="#000000">CREATED_BY</text>
<polygon fill="none" stroke="#000000" points="530.5,-336.7 530.5,-358.7 701.5,-358.7 701.5,-336.7 530.5,-336.7"/>
<text text-anchor="start" x="533.5" y="-344.4" font-family="Helvetica,sans-Serif" font-size="11.00" fill="#000000">number[19]</text>
<polygon fill="none" stroke="#000000" points="360.5,-314.7 360.5,-336.7 530.5,-336.7 530.5,-314.7 360.5,-314.7"/>
<text text-anchor="start" x="380.5" y="-321.8" font-family="Helvetica,sans-Serif" font-size="11.00" fill="#000000">UPDATED_AT</text>
<polygon fill="none" stroke="#000000" points="530.5,-314.7 530.5,-336.7 701.5,-336.7 701.5,-314.7 530.5,-314.7"/>
<text text-anchor="start" x="533.4896" y="-322.4" font-family="Helvetica,sans-Serif" font-size="11.00" fill="#000000">timestamp(6) with time zone[13,6]</text>
<polygon fill="none" stroke="#000000" points="360.5,-292.7 360.5,-314.7 530.5,-314.7 530.5,-292.7 360.5,-292.7"/>
<text text-anchor="start" x="380.5" y="-299.8" font-family="Helvetica,sans-Serif" font-size="11.00" fill="#000000">UPDATED_BY</text>
<polygon fill="none" stroke="#000000" points="530.5,-292.7 530.5,-314.7 701.5,-314.7 701.5,-292.7 530.5,-292.7"/>
<text text-anchor="start" x="533.5" y="-300.4" font-family="Helvetica,sans-Serif" font-size="11.00" fill="#000000">number[19]</text>
<polygon fill="none" stroke="#000000" points="360.5,-270.7 360.5,-292.7 530.5,-292.7 530.5,-270.7 360.5,-270.7"/>
<image xlink:href="../../images/foreignKeys.png" width="11px" height="12px" preserveAspectRatio="xMinYMin meet" x="365.5" y="-287.7"/>
<text text-anchor="start" x="380.5" y="-277.8" font-family="Helvetica,sans-Serif" font-size="11.00" fill="#000000">TAG_ID</text>
<polygon fill="none" stroke="#000000" points="530.5,-270.7 530.5,-292.7 701.5,-292.7 701.5,-270.7 530.5,-270.7"/>
<text text-anchor="start" x="533.5" y="-278.4" font-family="Helvetica,sans-Serif" font-size="11.00" fill="#000000">number[19]</text>
<polygon fill="none" stroke="#000000" points="360.5,-248.7 360.5,-270.7 530.5,-270.7 530.5,-248.7 360.5,-248.7"/>
<image xlink:href="../../images/foreignKeys.png" width="11px" height="12px" preserveAspectRatio="xMinYMin meet" x="365.5" y="-265.7"/>
<text text-anchor="start" x="380.5" y="-255.8" font-family="Helvetica,sans-Serif" font-size="11.00" fill="#000000">TARGET_FORM_ID</text>
<polygon fill="none" stroke="#000000" points="530.5,-248.7 530.5,-270.7 701.5,-270.7 701.5,-248.7 530.5,-248.7"/>
<text text-anchor="start" x="533.5" y="-256.4" font-family="Helvetica,sans-Serif" font-size="11.00" fill="#000000">number[19]</text>
<polygon fill="none" stroke="#000000" points="360.5,-226.7 360.5,-248.7 530.5,-248.7 530.5,-226.7 360.5,-226.7"/>
<text text-anchor="start" x="380.5" y="-233.8" font-family="Helvetica,sans-Serif" font-size="11.00" fill="#000000">CARTOON_ORDER</text>
<polygon fill="none" stroke="#000000" points="530.5,-226.7 530.5,-248.7 701.5,-248.7 701.5,-226.7 530.5,-226.7"/>
<text text-anchor="start" x="533.5" y="-234.4" font-family="Helvetica,sans-Serif" font-size="11.00" fill="#000000">number[2]</text>
<polygon fill="#ffffff" stroke="transparent" points="360.5,-207.7 360.5,-226.7 436.5,-226.7 436.5,-207.7 360.5,-207.7"/>
<polygon fill="none" stroke="#000000" points="360.5,-207.7 360.5,-226.7 436.5,-226.7 436.5,-207.7 360.5,-207.7"/>
<text text-anchor="start" x="363.5" y="-213.8" font-family="Helvetica,sans-Serif" font-size="11.00" fill="#000000">&lt; 2</text>
<polygon fill="#ffffff" stroke="transparent" points="436.5,-207.7 436.5,-226.7 530.5,-226.7 530.5,-207.7 436.5,-207.7"/>
<polygon fill="none" stroke="#000000" points="436.5,-207.7 436.5,-226.7 530.5,-226.7 530.5,-207.7 436.5,-207.7"/>
<text text-anchor="start" x="495.1105" y="-213.8" font-family="Helvetica,sans-Serif" font-size="11.00" fill="#000000">8 rows</text>
<polygon fill="#ffffff" stroke="transparent" points="530.5,-207.7 530.5,-226.7 701.5,-226.7 701.5,-207.7 530.5,-207.7"/>
<polygon fill="none" stroke="#000000" points="530.5,-207.7 530.5,-226.7 701.5,-226.7 701.5,-207.7 530.5,-207.7"/>
<text text-anchor="start" x="682.9053" y="-213.8" font-family="Helvetica,sans-Serif" font-size="11.00" fill="#000000">0 &gt;</text>
<polygon fill="none" stroke="#000000" stroke-width="2" points="359,-206.7 359,-426.7 702,-426.7 702,-206.7 359,-206.7"/>
</a>
</g>
</g>
<!-- TAGS -->
<g id="node2" class="node">
<title>TAGS</title>
<g id="a_node2"><a xlink:href="../../tables/TAGS.html" xlink:title="TAGS" target="_top">
<polygon fill="#ffffff" stroke="transparent" points="104.5,-252.2 104.5,-379.2 212.5,-379.2 212.5,-252.2 104.5,-252.2"/>
<polygon fill="#f5f5f5" stroke="transparent" points="104.5,-355.7 104.5,-378.7 212.5,-378.7 212.5,-355.7 104.5,-355.7"/>
<polygon fill="none" stroke="#000000" points="104.5,-355.7 104.5,-378.7 212.5,-378.7 212.5,-355.7 104.5,-355.7"/>
<text text-anchor="start" x="109.5" y="-364.8" font-family="Helvetica,sans-Serif" font-weight="bold" font-size="11.00" fill="#000000">TAGS</text>
<text text-anchor="start" x="177.5437" y="-363.8" font-family="Helvetica,sans-Serif" font-size="11.00" fill="#000000">[table]</text>
<polygon fill="none" stroke="#000000" points="104.5,-333.7 104.5,-355.7 212.5,-355.7 212.5,-333.7 104.5,-333.7"/>
<image xlink:href="../../images/primaryKeys.png" width="11px" height="12px" preserveAspectRatio="xMinYMin meet" x="109.5" y="-350.7"/>
<text text-anchor="start" x="124.5" y="-340.8" font-family="Helvetica,sans-Serif" font-size="11.00" fill="#000000">ID</text>
<polygon fill="none" stroke="#000000" points="104.5,-311.7 104.5,-333.7 212.5,-333.7 212.5,-311.7 104.5,-311.7"/>
<image xlink:href="../../images/primaryKeys.png" width="11px" height="12px" preserveAspectRatio="xMinYMin meet" x="109.5" y="-328.7"/>
<text text-anchor="start" x="124.5" y="-318.8" font-family="Helvetica,sans-Serif" font-size="11.00" fill="#000000">COLOR</text>
<polygon fill="none" stroke="#000000" points="104.5,-289.7 104.5,-311.7 212.5,-311.7 212.5,-289.7 104.5,-289.7"/>
<image xlink:href="../../images/primaryKeys.png" width="11px" height="12px" preserveAspectRatio="xMinYMin meet" x="109.5" y="-306.7"/>
<text text-anchor="start" x="124.5" y="-296.8" font-family="Helvetica,sans-Serif" font-size="11.00" fill="#000000">TITLE</text>
<polygon fill="none" stroke="#000000" points="104.5,-270.7 104.5,-289.7 212.5,-289.7 212.5,-270.7 104.5,-270.7"/>
<text text-anchor="start" x="107.5" y="-276.8" font-family="Helvetica,sans-Serif" font-size="11.00" fill="#000000">...</text>
<polygon fill="#ffffff" stroke="transparent" points="104.5,-251.7 104.5,-270.7 131.5,-270.7 131.5,-251.7 104.5,-251.7"/>
<polygon fill="none" stroke="#000000" points="104.5,-251.7 104.5,-270.7 131.5,-270.7 131.5,-251.7 104.5,-251.7"/>
<text text-anchor="start" x="107.5" y="-257.8" font-family="Helvetica,sans-Serif" font-size="11.00" fill="#000000"> &#160;</text>
<polygon fill="#ffffff" stroke="transparent" points="131.5,-251.7 131.5,-270.7 183.5,-270.7 183.5,-251.7 131.5,-251.7"/>
<polygon fill="none" stroke="#000000" points="131.5,-251.7 131.5,-270.7 183.5,-270.7 183.5,-251.7 131.5,-251.7"/>
<text text-anchor="start" x="141.9956" y="-257.8" font-family="Helvetica,sans-Serif" font-size="11.00" fill="#000000">21 rows</text>
<polygon fill="#ffffff" stroke="transparent" points="183.5,-251.7 183.5,-270.7 212.5,-270.7 212.5,-251.7 183.5,-251.7"/>
<polygon fill="none" stroke="#000000" points="183.5,-251.7 183.5,-270.7 212.5,-270.7 212.5,-251.7 183.5,-251.7"/>
<text text-anchor="start" x="193.9053" y="-257.8" font-family="Helvetica,sans-Serif" font-size="11.00" fill="#000000">3 &gt;</text>
</a>
</g>
</g>
<!-- TARGET_FORMS_TAGS&#45;&gt;TAGS -->
<g id="edge1" class="edge">
<title>TARGET_FORMS_TAGS:w&#45;&gt;TAGS:e</title>
<path fill="none" stroke="#000000" d="M345.9925,-282.6395C287.9379,-290.4765 278.8231,-344.7 212.5,-344.7"/>
<polygon fill="#000000" stroke="#000000" points="352.5167,-282.217 360.7327,-285.2925 356.5084,-281.9585 360.5,-281.7 360.5,-281.7 360.5,-281.7 356.5084,-281.9585 360.2673,-278.1075 352.5167,-282.217 352.5167,-282.217"/>
<ellipse fill="none" stroke="#000000" cx="349.3234" cy="-282.4238" rx="3.2" ry="3.2"/>
</g>
<!-- TARGET_FORMS -->
<g id="node3" class="node">
<title>TARGET_FORMS</title>
<g id="a_node3"><a xlink:href="../../tables/TARGET_FORMS.html" xlink:title="TARGET_FORMS" target="_top">
<polygon fill="#ffffff" stroke="transparent" points="8,-38.2 8,-231.2 309,-231.2 309,-38.2 8,-38.2"/>
<polygon fill="#f5f5f5" stroke="transparent" points="8.5,-207.7 8.5,-230.7 309.5,-230.7 309.5,-207.7 8.5,-207.7"/>
<polygon fill="none" stroke="#000000" points="8.5,-207.7 8.5,-230.7 309.5,-230.7 309.5,-207.7 8.5,-207.7"/>
<text text-anchor="start" x="13.5" y="-216.8" font-family="Helvetica,sans-Serif" font-weight="bold" font-size="11.00" fill="#000000">TARGET_FORMS</text>
<text text-anchor="start" x="274.5437" y="-215.8" font-family="Helvetica,sans-Serif" font-size="11.00" fill="#000000">[table]</text>
<polygon fill="none" stroke="#000000" points="8.5,-185.7 8.5,-207.7 309.5,-207.7 309.5,-185.7 8.5,-185.7"/>
<image xlink:href="../../images/primaryKeys.png" width="11px" height="12px" preserveAspectRatio="xMinYMin meet" x="13.5" y="-202.7"/>
<text text-anchor="start" x="28.5" y="-192.8" font-family="Helvetica,sans-Serif" font-size="11.00" fill="#000000">ID</text>
<polygon fill="none" stroke="#000000" points="8.5,-163.7 8.5,-185.7 309.5,-185.7 309.5,-163.7 8.5,-163.7"/>
<image xlink:href="../../images/foreignKeys.png" width="11px" height="12px" preserveAspectRatio="xMinYMin meet" x="13.5" y="-180.7"/>
<text text-anchor="start" x="28.5" y="-170.8" font-family="Helvetica,sans-Serif" font-size="11.00" fill="#000000">TARGET_ID</text>
<polygon fill="none" stroke="#000000" points="8.5,-141.7 8.5,-163.7 309.5,-163.7 309.5,-141.7 8.5,-141.7"/>
<image xlink:href="../../images/foreignKeys.png" width="11px" height="12px" preserveAspectRatio="xMinYMin meet" x="13.5" y="-158.7"/>
<text text-anchor="start" x="28.5" y="-148.8" font-family="Helvetica,sans-Serif" font-size="11.00" fill="#000000">SPECIES_ID</text>
<polygon fill="none" stroke="#000000" points="8.5,-119.7 8.5,-141.7 309.5,-141.7 309.5,-119.7 8.5,-119.7"/>
<image xlink:href="../../images/foreignKeys.png" width="11px" height="12px" preserveAspectRatio="xMinYMin meet" x="13.5" y="-136.7"/>
<text text-anchor="start" x="28.5" y="-126.8" font-family="Helvetica,sans-Serif" font-size="11.00" fill="#000000">POST_TRANSLATIONAL_MODIFICATION_ID</text>
<polygon fill="none" stroke="#000000" points="8.5,-97.7 8.5,-119.7 309.5,-119.7 309.5,-97.7 8.5,-97.7"/>
<image xlink:href="../../images/foreignKeys.png" width="11px" height="12px" preserveAspectRatio="xMinYMin meet" x="13.5" y="-114.7"/>
<text text-anchor="start" x="28.5" y="-104.8" font-family="Helvetica,sans-Serif" font-size="11.00" fill="#000000">ISOFORM_ID</text>
<polygon fill="none" stroke="#000000" points="8.5,-75.7 8.5,-97.7 309.5,-97.7 309.5,-75.7 8.5,-75.7"/>
<image xlink:href="../../images/foreignKeys.png" width="11px" height="12px" preserveAspectRatio="xMinYMin meet" x="13.5" y="-92.7"/>
<text text-anchor="start" x="28.5" y="-82.8" font-family="Helvetica,sans-Serif" font-size="11.00" fill="#000000">EXPRESSION_SYSTEM_ID</text>
<polygon fill="none" stroke="#000000" points="8.5,-56.7 8.5,-75.7 309.5,-75.7 309.5,-56.7 8.5,-56.7"/>
<text text-anchor="start" x="11.5" y="-62.8" font-family="Helvetica,sans-Serif" font-size="11.00" fill="#000000">...</text>
<polygon fill="#ffffff" stroke="transparent" points="8.5,-37.7 8.5,-56.7 130.5,-56.7 130.5,-37.7 8.5,-37.7"/>
<polygon fill="none" stroke="#000000" points="8.5,-37.7 8.5,-56.7 130.5,-56.7 130.5,-37.7 8.5,-37.7"/>
<text text-anchor="start" x="11.5" y="-43.8" font-family="Helvetica,sans-Serif" font-size="11.00" fill="#000000">&lt; 5</text>
<polygon fill="#ffffff" stroke="transparent" points="130.5,-37.7 130.5,-56.7 231.5,-56.7 231.5,-37.7 130.5,-37.7"/>
<polygon fill="none" stroke="#000000" points="130.5,-37.7 130.5,-56.7 231.5,-56.7 231.5,-37.7 130.5,-37.7"/>
<text text-anchor="start" x="183.8807" y="-43.8" font-family="Helvetica,sans-Serif" font-size="11.00" fill="#000000">541 rows</text>
<polygon fill="#ffffff" stroke="transparent" points="231.5,-37.7 231.5,-56.7 309.5,-56.7 309.5,-37.7 231.5,-37.7"/>
<polygon fill="none" stroke="#000000" points="231.5,-37.7 231.5,-56.7 309.5,-56.7 309.5,-37.7 231.5,-37.7"/>
<text text-anchor="start" x="284.7904" y="-43.8" font-family="Helvetica,sans-Serif" font-size="11.00" fill="#000000">18 &gt;</text>
</a>
</g>
</g>
<!-- TARGET_FORMS_TAGS&#45;&gt;TARGET_FORMS -->
<g id="edge2" class="edge">
<title>TARGET_FORMS_TAGS:w&#45;&gt;TARGET_FORMS:e</title>
<path fill="none" stroke="#000000" d="M346.4033,-254.7565C330.025,-239.9048 339.3329,-196.7 309.5,-196.7"/>
<polygon fill="#000000" stroke="#000000" points="352.9507,-257.0526 359.3087,-263.0972 356.7254,-258.3763 360.5,-259.7 360.5,-259.7 360.5,-259.7 356.7254,-258.3763 361.6913,-256.3028 352.9507,-257.0526 352.9507,-257.0526"/>
<ellipse fill="none" stroke="#000000" cx="349.931" cy="-255.9936" rx="3.2" ry="3.2"/>
</g>
</g>
</svg>
