<?xml version="1.0" encoding="UTF-8" standalone="no"?>
<!DOCTYPE svg PUBLIC "-//W3C//DTD SVG 1.1//EN"
 "http://www.w3.org/Graphics/SVG/1.1/DTD/svg11.dtd">
<!-- Generated by graphviz version 2.40.1 (20161225.0304)
 -->
<!-- Title: oneDegreeRelationshipsDiagram Pages: 1 -->
<svg width="731pt" height="363pt"
 viewBox="0.00 0.00 731.00 362.70" xmlns="http://www.w3.org/2000/svg" xmlns:xlink="http://www.w3.org/1999/xlink">
<g id="graph0" class="graph" transform="scale(1 1) rotate(0) translate(4 358.7)">
<title>oneDegreeRelationshipsDiagram</title>
<polygon fill="#ffffff" stroke="transparent" points="-4,4 -4,-358.7 727,-358.7 727,4 -4,4"/>
<text text-anchor="middle" x="72.4936" y="-7.3" font-family="Helvetica,sans-Serif" font-size="11.00" fill="#000000">Generated by SchemaSpy</text>
<!-- TRACER_LIGANDS_REFERENCES -->
<g id="node1" class="node">
<title>TRACER_LIGANDS_REFERENCES</title>
<g id="a_node1"><a xlink:href="../../tables/TRACER_LIGANDS_REFERENCES.html" xlink:title="TRACER_LIGANDS_REFERENCES" target="_top">
<polygon fill="#ffffff" stroke="transparent" points="308,-150.7 308,-350.7 715,-350.7 715,-150.7 308,-150.7"/>
<polygon fill="#f5f5f5" stroke="transparent" points="310.5,-325.7 310.5,-348.7 713.5,-348.7 713.5,-325.7 310.5,-325.7"/>
<polygon fill="none" stroke="#000000" points="310.5,-325.7 310.5,-348.7 713.5,-348.7 713.5,-325.7 310.5,-325.7"/>
<text text-anchor="start" x="315.5" y="-334.8" font-family="Helvetica,sans-Serif" font-weight="bold" font-size="11.00" fill="#000000">TRACER_LIGANDS_REFERENCES</text>
<text text-anchor="start" x="678.5437" y="-333.8" font-family="Helvetica,sans-Serif" font-size="11.00" fill="#000000">[table]</text>
<polygon fill="none" stroke="#000000" points="310.5,-303.7 310.5,-325.7 542.5,-325.7 542.5,-303.7 310.5,-303.7"/>
<image xlink:href="../../images/primaryKeys.png" width="11px" height="12px" preserveAspectRatio="xMinYMin meet" x="315.5" y="-320.7"/>
<text text-anchor="start" x="330.5" y="-310.8" font-family="Helvetica,sans-Serif" font-size="11.00" fill="#000000">ID</text>
<polygon fill="none" stroke="#000000" points="542.5,-303.7 542.5,-325.7 713.5,-325.7 713.5,-303.7 542.5,-303.7"/>
<text text-anchor="start" x="545.5" y="-311.4" font-family="Helvetica,sans-Serif" font-size="11.00" fill="#000000">number[19]</text>
<polygon fill="none" stroke="#000000" points="310.5,-281.7 310.5,-303.7 542.5,-303.7 542.5,-281.7 310.5,-281.7"/>
<text text-anchor="start" x="330.5" y="-288.8" font-family="Helvetica,sans-Serif" font-size="11.00" fill="#000000">CREATED_AT</text>
<polygon fill="none" stroke="#000000" points="542.5,-281.7 542.5,-303.7 713.5,-303.7 713.5,-281.7 542.5,-281.7"/>
<text text-anchor="start" x="545.4896" y="-289.4" font-family="Helvetica,sans-Serif" font-size="11.00" fill="#000000">timestamp(6) with time zone[13,6]</text>
<polygon fill="none" stroke="#000000" points="310.5,-259.7 310.5,-281.7 542.5,-281.7 542.5,-259.7 310.5,-259.7"/>
<text text-anchor="start" x="330.5" y="-266.8" font-family="Helvetica,sans-Serif" font-size="11.00" fill="#000000">CREATED_BY</text>
<polygon fill="none" stroke="#000000" points="542.5,-259.7 542.5,-281.7 713.5,-281.7 713.5,-259.7 542.5,-259.7"/>
<text text-anchor="start" x="545.5" y="-267.4" font-family="Helvetica,sans-Serif" font-size="11.00" fill="#000000">number[19]</text>
<polygon fill="none" stroke="#000000" points="310.5,-237.7 310.5,-259.7 542.5,-259.7 542.5,-237.7 310.5,-237.7"/>
<text text-anchor="start" x="330.5" y="-244.8" font-family="Helvetica,sans-Serif" font-size="11.00" fill="#000000">UPDATED_AT</text>
<polygon fill="none" stroke="#000000" points="542.5,-237.7 542.5,-259.7 713.5,-259.7 713.5,-237.7 542.5,-237.7"/>
<text text-anchor="start" x="545.4896" y="-245.4" font-family="Helvetica,sans-Serif" font-size="11.00" fill="#000000">timestamp(6) with time zone[13,6]</text>
<polygon fill="none" stroke="#000000" points="310.5,-215.7 310.5,-237.7 542.5,-237.7 542.5,-215.7 310.5,-215.7"/>
<text text-anchor="start" x="330.5" y="-222.8" font-family="Helvetica,sans-Serif" font-size="11.00" fill="#000000">UPDATED_BY</text>
<polygon fill="none" stroke="#000000" points="542.5,-215.7 542.5,-237.7 713.5,-237.7 713.5,-215.7 542.5,-215.7"/>
<text text-anchor="start" x="545.5" y="-223.4" font-family="Helvetica,sans-Serif" font-size="11.00" fill="#000000">number[19]</text>
<polygon fill="none" stroke="#000000" points="310.5,-193.7 310.5,-215.7 542.5,-215.7 542.5,-193.7 310.5,-193.7"/>
<image xlink:href="../../images/foreignKeys.png" width="11px" height="12px" preserveAspectRatio="xMinYMin meet" x="315.5" y="-210.7"/>
<text text-anchor="start" x="330.5" y="-200.8" font-family="Helvetica,sans-Serif" font-size="11.00" fill="#000000">TRACER_LIGAND_ID</text>
<polygon fill="none" stroke="#000000" points="542.5,-193.7 542.5,-215.7 713.5,-215.7 713.5,-193.7 542.5,-193.7"/>
<text text-anchor="start" x="545.5" y="-201.4" font-family="Helvetica,sans-Serif" font-size="11.00" fill="#000000">number[19]</text>
<polygon fill="none" stroke="#000000" points="310.5,-171.7 310.5,-193.7 542.5,-193.7 542.5,-171.7 310.5,-171.7"/>
<image xlink:href="../../images/foreignKeys.png" width="11px" height="12px" preserveAspectRatio="xMinYMin meet" x="315.5" y="-188.7"/>
<text text-anchor="start" x="330.5" y="-178.8" font-family="Helvetica,sans-Serif" font-size="11.00" fill="#000000">REFERENCE_ID</text>
<polygon fill="none" stroke="#000000" points="542.5,-171.7 542.5,-193.7 713.5,-193.7 713.5,-171.7 542.5,-171.7"/>
<text text-anchor="start" x="545.5" y="-179.4" font-family="Helvetica,sans-Serif" font-size="11.00" fill="#000000">number[19]</text>
<polygon fill="#ffffff" stroke="transparent" points="310.5,-152.7 310.5,-171.7 414.5,-171.7 414.5,-152.7 310.5,-152.7"/>
<polygon fill="none" stroke="#000000" points="310.5,-152.7 310.5,-171.7 414.5,-171.7 414.5,-152.7 310.5,-152.7"/>
<text text-anchor="start" x="313.5" y="-158.8" font-family="Helvetica,sans-Serif" font-size="11.00" fill="#000000">&lt; 2</text>
<polygon fill="#ffffff" stroke="transparent" points="414.5,-152.7 414.5,-171.7 542.5,-171.7 542.5,-152.7 414.5,-152.7"/>
<polygon fill="none" stroke="#000000" points="414.5,-152.7 414.5,-171.7 542.5,-171.7 542.5,-152.7 414.5,-152.7"/>
<text text-anchor="start" x="500.9956" y="-158.8" font-family="Helvetica,sans-Serif" font-size="11.00" fill="#000000">18 rows</text>
<polygon fill="#ffffff" stroke="transparent" points="542.5,-152.7 542.5,-171.7 713.5,-171.7 713.5,-152.7 542.5,-152.7"/>
<polygon fill="none" stroke="#000000" points="542.5,-152.7 542.5,-171.7 713.5,-171.7 713.5,-152.7 542.5,-152.7"/>
<text text-anchor="start" x="694.9053" y="-158.8" font-family="Helvetica,sans-Serif" font-size="11.00" fill="#000000">0 &gt;</text>
<polygon fill="none" stroke="#000000" stroke-width="2" points="309,-151.7 309,-349.7 714,-349.7 714,-151.7 309,-151.7"/>
</a>
</g>
</g>
<!-- REFERENCES -->
<g id="node2" class="node">
<title>REFERENCES</title>
<g id="a_node2"><a xlink:href="../../tables/REFERENCES.html" xlink:title="REFERENCES" target="_top">
<polygon fill="#ffffff" stroke="transparent" points="69.5,-38.2 69.5,-143.2 197.5,-143.2 197.5,-38.2 69.5,-38.2"/>
<polygon fill="#f5f5f5" stroke="transparent" points="69.5,-119.7 69.5,-142.7 197.5,-142.7 197.5,-119.7 69.5,-119.7"/>
<polygon fill="none" stroke="#000000" points="69.5,-119.7 69.5,-142.7 197.5,-142.7 197.5,-119.7 69.5,-119.7"/>
<text text-anchor="start" x="74.5" y="-128.8" font-family="Helvetica,sans-Serif" font-weight="bold" font-size="11.00" fill="#000000">REFERENCES</text>
<text text-anchor="start" x="162.5437" y="-127.8" font-family="Helvetica,sans-Serif" font-size="11.00" fill="#000000">[table]</text>
<polygon fill="none" stroke="#000000" points="69.5,-97.7 69.5,-119.7 197.5,-119.7 197.5,-97.7 69.5,-97.7"/>
<image xlink:href="../../images/primaryKeys.png" width="11px" height="12px" preserveAspectRatio="xMinYMin meet" x="74.5" y="-114.7"/>
<text text-anchor="start" x="89.5" y="-104.8" font-family="Helvetica,sans-Serif" font-size="11.00" fill="#000000">ID</text>
<polygon fill="none" stroke="#000000" points="69.5,-75.7 69.5,-97.7 197.5,-97.7 197.5,-75.7 69.5,-75.7"/>
<image xlink:href="../../images/foreignKeys.png" width="11px" height="12px" preserveAspectRatio="xMinYMin meet" x="74.5" y="-92.7"/>
<text text-anchor="start" x="89.5" y="-82.8" font-family="Helvetica,sans-Serif" font-size="11.00" fill="#000000">USER_ID</text>
<polygon fill="none" stroke="#000000" points="69.5,-56.7 69.5,-75.7 197.5,-75.7 197.5,-56.7 69.5,-56.7"/>
<text text-anchor="start" x="72.5" y="-62.8" font-family="Helvetica,sans-Serif" font-size="11.00" fill="#000000">...</text>
<polygon fill="#ffffff" stroke="transparent" points="69.5,-37.7 69.5,-56.7 100.5,-56.7 100.5,-37.7 69.5,-37.7"/>
<polygon fill="none" stroke="#000000" points="69.5,-37.7 69.5,-56.7 100.5,-56.7 100.5,-37.7 69.5,-37.7"/>
<text text-anchor="start" x="72.5" y="-43.8" font-family="Helvetica,sans-Serif" font-size="11.00" fill="#000000">&lt; 1</text>
<polygon fill="#ffffff" stroke="transparent" points="100.5,-37.7 100.5,-56.7 164.5,-56.7 164.5,-37.7 100.5,-37.7"/>
<polygon fill="none" stroke="#000000" points="100.5,-37.7 100.5,-56.7 164.5,-56.7 164.5,-37.7 100.5,-37.7"/>
<text text-anchor="start" x="107.7089" y="-43.8" font-family="Helvetica,sans-Serif" font-size="11.00" fill="#000000">2,900 rows</text>
<polygon fill="#ffffff" stroke="transparent" points="164.5,-37.7 164.5,-56.7 197.5,-56.7 197.5,-37.7 164.5,-37.7"/>
<polygon fill="none" stroke="#000000" points="164.5,-37.7 164.5,-56.7 197.5,-56.7 197.5,-37.7 164.5,-37.7"/>
<text text-anchor="start" x="172.7904" y="-43.8" font-family="Helvetica,sans-Serif" font-size="11.00" fill="#000000">20 &gt;</text>
</a>
</g>
</g>
<!-- TRACER_LIGANDS_REFERENCES&#45;&gt;REFERENCES -->
<g id="edge1" class="edge">
<title>TRACER_LIGANDS_REFERENCES:w&#45;&gt;REFERENCES:e</title>
<path fill="none" stroke="#000000" d="M296.2914,-179.7995C285.594,-174.5572 281.4127,-163.1696 267,-153.7 236.2458,-133.4935 234.2984,-108.7 197.5,-108.7"/>
<polygon fill="#000000" stroke="#000000" points="302.6617,-181.0999 309.7799,-186.2273 306.5808,-181.8999 310.5,-182.7 310.5,-182.7 310.5,-182.7 306.5808,-181.8999 311.2201,-179.1727 302.6617,-181.0999 302.6617,-181.0999"/>
<ellipse fill="none" stroke="#000000" cx="299.5263" cy="-180.4598" rx="3.2" ry="3.2"/>
</g>
<!-- TRACER_LIGANDS -->
<g id="node3" class="node">
<title>TRACER_LIGANDS</title>
<g id="a_node3"><a xlink:href="../../tables/TRACER_LIGANDS.html" xlink:title="TRACER_LIGANDS" target="_top">
<polygon fill="#ffffff" stroke="transparent" points="8,-164.2 8,-313.2 259,-313.2 259,-164.2 8,-164.2"/>
<polygon fill="#f5f5f5" stroke="transparent" points="8.5,-289.7 8.5,-312.7 259.5,-312.7 259.5,-289.7 8.5,-289.7"/>
<polygon fill="none" stroke="#000000" points="8.5,-289.7 8.5,-312.7 259.5,-312.7 259.5,-289.7 8.5,-289.7"/>
<text text-anchor="start" x="13.5" y="-298.8" font-family="Helvetica,sans-Serif" font-weight="bold" font-size="11.00" fill="#000000">TRACER_LIGANDS</text>
<text text-anchor="start" x="224.5437" y="-297.8" font-family="Helvetica,sans-Serif" font-size="11.00" fill="#000000">[table]</text>
<polygon fill="none" stroke="#000000" points="8.5,-267.7 8.5,-289.7 259.5,-289.7 259.5,-267.7 8.5,-267.7"/>
<image xlink:href="../../images/primaryKeys.png" width="11px" height="12px" preserveAspectRatio="xMinYMin meet" x="13.5" y="-284.7"/>
<text text-anchor="start" x="28.5" y="-274.8" font-family="Helvetica,sans-Serif" font-size="11.00" fill="#000000">ID</text>
<polygon fill="none" stroke="#000000" points="8.5,-245.7 8.5,-267.7 259.5,-267.7 259.5,-245.7 8.5,-245.7"/>
<image xlink:href="../../images/foreignKeys.png" width="11px" height="12px" preserveAspectRatio="xMinYMin meet" x="13.5" y="-262.7"/>
<text text-anchor="start" x="28.5" y="-252.8" font-family="Helvetica,sans-Serif" font-size="11.00" fill="#000000">TYPE_ID</text>
<polygon fill="none" stroke="#000000" points="8.5,-223.7 8.5,-245.7 259.5,-245.7 259.5,-223.7 8.5,-223.7"/>
<image xlink:href="../../images/foreignKeys.png" width="11px" height="12px" preserveAspectRatio="xMinYMin meet" x="13.5" y="-240.7"/>
<text text-anchor="start" x="28.5" y="-230.8" font-family="Helvetica,sans-Serif" font-size="11.00" fill="#000000">TRACER_SYNTHESIS_SCIENTIST_ID</text>
<polygon fill="none" stroke="#000000" points="8.5,-201.7 8.5,-223.7 259.5,-223.7 259.5,-201.7 8.5,-201.7"/>
<image xlink:href="../../images/foreignKeys.png" width="11px" height="12px" preserveAspectRatio="xMinYMin meet" x="13.5" y="-218.7"/>
<text text-anchor="start" x="28.5" y="-208.8" font-family="Helvetica,sans-Serif" font-size="11.00" fill="#000000">DNA_ATTACHMENT_SITE_ID</text>
<polygon fill="none" stroke="#000000" points="8.5,-182.7 8.5,-201.7 259.5,-201.7 259.5,-182.7 8.5,-182.7"/>
<text text-anchor="start" x="11.5" y="-188.8" font-family="Helvetica,sans-Serif" font-size="11.00" fill="#000000">...</text>
<polygon fill="#ffffff" stroke="transparent" points="8.5,-163.7 8.5,-182.7 108.5,-182.7 108.5,-163.7 8.5,-163.7"/>
<polygon fill="none" stroke="#000000" points="8.5,-163.7 8.5,-182.7 108.5,-182.7 108.5,-163.7 8.5,-163.7"/>
<text text-anchor="start" x="11.5" y="-169.8" font-family="Helvetica,sans-Serif" font-size="11.00" fill="#000000">&lt; 3</text>
<polygon fill="#ffffff" stroke="transparent" points="108.5,-163.7 108.5,-182.7 198.5,-182.7 198.5,-163.7 108.5,-163.7"/>
<polygon fill="none" stroke="#000000" points="108.5,-163.7 108.5,-182.7 198.5,-182.7 198.5,-163.7 108.5,-163.7"/>
<text text-anchor="start" x="150.8807" y="-169.8" font-family="Helvetica,sans-Serif" font-size="11.00" fill="#000000">416 rows</text>
<polygon fill="#ffffff" stroke="transparent" points="198.5,-163.7 198.5,-182.7 259.5,-182.7 259.5,-163.7 198.5,-163.7"/>
<polygon fill="none" stroke="#000000" points="198.5,-163.7 198.5,-182.7 259.5,-182.7 259.5,-163.7 198.5,-163.7"/>
<text text-anchor="start" x="240.9053" y="-169.8" font-family="Helvetica,sans-Serif" font-size="11.00" fill="#000000">7 &gt;</text>
</a>
</g>
</g>
<!-- TRACER_LIGANDS_REFERENCES&#45;&gt;TRACER_LIGANDS -->
<g id="edge2" class="edge">
<title>TRACER_LIGANDS_REFERENCES:w&#45;&gt;TRACER_LIGANDS:e</title>
<path fill="none" stroke="#000000" d="M296.5503,-209.329C277.7607,-225.5294 293.3581,-278.7 259.5,-278.7"/>
<polygon fill="#000000" stroke="#000000" points="302.9071,-207.2196 311.6338,-208.1168 306.7036,-205.9598 310.5,-204.7 310.5,-204.7 310.5,-204.7 306.7036,-205.9598 309.3662,-201.2832 302.9071,-207.2196 302.9071,-207.2196"/>
<ellipse fill="none" stroke="#000000" cx="299.87" cy="-208.2275" rx="3.2" ry="3.2"/>
</g>
</g>
</svg>
