<?xml version="1.0" encoding="UTF-8" standalone="no"?>
<!DOCTYPE svg PUBLIC "-//W3C//DTD SVG 1.1//EN"
 "http://www.w3.org/Graphics/SVG/1.1/DTD/svg11.dtd">
<!-- Generated by graphviz version 2.40.1 (20161225.0304)
 -->
<!-- Title: twoDegreesRelationshipsDiagram Pages: 1 -->
<svg width="1023pt" height="364pt"
 viewBox="0.00 0.00 1023.00 363.70" xmlns="http://www.w3.org/2000/svg" xmlns:xlink="http://www.w3.org/1999/xlink">
<g id="graph0" class="graph" transform="scale(1 1) rotate(0) translate(4 359.7)">
<title>twoDegreesRelationshipsDiagram</title>
<polygon fill="#ffffff" stroke="transparent" points="-4,4 -4,-359.7 1019,-359.7 1019,4 -4,4"/>
<text text-anchor="middle" x="72.4936" y="-7.3" font-family="Helvetica,sans-Serif" font-size="11.00" fill="#000000">Generated by SchemaSpy</text>
<!-- VERSION_TRACERS_TRACER_SYNTHESIS_REQUESTS -->
<g id="node1" class="node">
<title>VERSION_TRACERS_TRACER_SYNTHESIS_REQUESTS</title>
<g id="a_node1"><a xlink:href="../../tables/VERSION_TRACERS_TRACER_SYNTHESIS_REQUESTS.html" xlink:title="VERSION_TRACERS_TRACER_SYNTHESIS_REQUESTS" target="_top">
<polygon fill="#ffffff" stroke="transparent" points="670,-290.7 670,-351.7 1007,-351.7 1007,-290.7 670,-290.7"/>
<polygon fill="#f5f5f5" stroke="transparent" points="670.5,-328.2 670.5,-351.2 1007.5,-351.2 1007.5,-328.2 670.5,-328.2"/>
<polygon fill="none" stroke="#000000" points="670.5,-328.2 670.5,-351.2 1007.5,-351.2 1007.5,-328.2 670.5,-328.2"/>
<text text-anchor="start" x="675.2161" y="-337.3" font-family="Helvetica,sans-Serif" font-weight="bold" font-size="11.00" fill="#000000">VERSION_TRACERS_TRACER_SYNTHESIS_REQUESTS</text>
<text text-anchor="start" x="973.0219" y="-336.3" font-family="Helvetica,sans-Serif" font-size="11.00" fill="#000000">[table]</text>
<polygon fill="none" stroke="#000000" points="670.5,-309.2 670.5,-328.2 1007.5,-328.2 1007.5,-309.2 670.5,-309.2"/>
<text text-anchor="start" x="673.5" y="-315.3" font-family="Helvetica,sans-Serif" font-size="11.00" fill="#000000">...</text>
<polygon fill="#ffffff" stroke="transparent" points="670.5,-290.2 670.5,-309.2 821.5,-309.2 821.5,-290.2 670.5,-290.2"/>
<polygon fill="none" stroke="#000000" points="670.5,-290.2 670.5,-309.2 821.5,-309.2 821.5,-290.2 670.5,-290.2"/>
<text text-anchor="start" x="673.5" y="-296.3" font-family="Helvetica,sans-Serif" font-size="11.00" fill="#000000">&lt; 2</text>
<polygon fill="#ffffff" stroke="transparent" points="821.5,-290.2 821.5,-309.2 930.5,-309.2 930.5,-290.2 821.5,-290.2"/>
<polygon fill="none" stroke="#000000" points="821.5,-290.2 821.5,-309.2 930.5,-309.2 930.5,-290.2 821.5,-290.2"/>
<text text-anchor="start" x="888.9956" y="-296.3" font-family="Helvetica,sans-Serif" font-size="11.00" fill="#000000">21 rows</text>
<polygon fill="#ffffff" stroke="transparent" points="930.5,-290.2 930.5,-309.2 1007.5,-309.2 1007.5,-290.2 930.5,-290.2"/>
<polygon fill="none" stroke="#000000" points="930.5,-290.2 930.5,-309.2 1007.5,-309.2 1007.5,-290.2 930.5,-290.2"/>
<text text-anchor="start" x="998.3862" y="-296.3" font-family="Helvetica,sans-Serif" font-size="11.00" fill="#000000"> &#160;</text>
</a>
</g>
</g>
<!-- VERSIONS_TRACERS -->
<g id="node2" class="node">
<title>VERSIONS_TRACERS</title>
<g id="a_node2"><a xlink:href="../../tables/VERSIONS_TRACERS.html" xlink:title="VERSIONS_TRACERS" target="_top">
<polygon fill="#ffffff" stroke="transparent" points="463,-184.7 463,-311.7 621,-311.7 621,-184.7 463,-184.7"/>
<polygon fill="#f5f5f5" stroke="transparent" points="463,-288.2 463,-311.2 621,-311.2 621,-288.2 463,-288.2"/>
<polygon fill="none" stroke="#000000" points="463,-288.2 463,-311.2 621,-311.2 621,-288.2 463,-288.2"/>
<text text-anchor="start" x="467.7478" y="-297.3" font-family="Helvetica,sans-Serif" font-weight="bold" font-size="11.00" fill="#000000">VERSIONS_TRACERS</text>
<text text-anchor="start" x="586.5219" y="-296.3" font-family="Helvetica,sans-Serif" font-size="11.00" fill="#000000">[table]</text>
<polygon fill="none" stroke="#000000" points="463,-266.2 463,-288.2 621,-288.2 621,-266.2 463,-266.2"/>
<image xlink:href="../../images/primaryKeys.png" width="11px" height="12px" preserveAspectRatio="xMinYMin meet" x="468" y="-283.2"/>
<text text-anchor="start" x="484" y="-273.3" font-family="Helvetica,sans-Serif" font-size="11.00" fill="#000000">ID</text>
<polygon fill="none" stroke="#000000" points="463,-244.2 463,-266.2 621,-266.2 621,-244.2 463,-244.2"/>
<image xlink:href="../../images/primaryKeys.png" width="11px" height="12px" preserveAspectRatio="xMinYMin meet" x="468" y="-261.2"/>
<text text-anchor="start" x="484" y="-251.3" font-family="Helvetica,sans-Serif" font-size="11.00" fill="#000000">VERSION_ID</text>
<polygon fill="none" stroke="#000000" points="463,-222.2 463,-244.2 621,-244.2 621,-222.2 463,-222.2"/>
<image xlink:href="../../images/primaryKeys.png" width="11px" height="12px" preserveAspectRatio="xMinYMin meet" x="468" y="-239.2"/>
<text text-anchor="start" x="484" y="-229.3" font-family="Helvetica,sans-Serif" font-size="11.00" fill="#000000">TRACER_ID</text>
<polygon fill="none" stroke="#000000" points="463,-203.2 463,-222.2 621,-222.2 621,-203.2 463,-203.2"/>
<text text-anchor="start" x="466" y="-209.3" font-family="Helvetica,sans-Serif" font-size="11.00" fill="#000000">...</text>
<polygon fill="#ffffff" stroke="transparent" points="463,-184.2 463,-203.2 512,-203.2 512,-184.2 463,-184.2"/>
<polygon fill="none" stroke="#000000" points="463,-184.2 463,-203.2 512,-203.2 512,-184.2 463,-184.2"/>
<text text-anchor="start" x="466" y="-190.3" font-family="Helvetica,sans-Serif" font-size="11.00" fill="#000000">&lt; 2</text>
<polygon fill="#ffffff" stroke="transparent" points="512,-184.2 512,-203.2 585,-203.2 585,-184.2 512,-184.2"/>
<polygon fill="none" stroke="#000000" points="512,-184.2 512,-203.2 585,-203.2 585,-184.2 512,-184.2"/>
<text text-anchor="start" x="528.2089" y="-190.3" font-family="Helvetica,sans-Serif" font-size="11.00" fill="#000000">1,279 rows</text>
<polygon fill="#ffffff" stroke="transparent" points="585,-184.2 585,-203.2 621,-203.2 621,-184.2 585,-184.2"/>
<polygon fill="none" stroke="#000000" points="585,-184.2 585,-203.2 621,-203.2 621,-184.2 585,-184.2"/>
<text text-anchor="start" x="602.4053" y="-190.3" font-family="Helvetica,sans-Serif" font-size="11.00" fill="#000000">2 &gt;</text>
</a>
</g>
</g>
<!-- VERSION_TRACERS_TRACER_SYNTHESIS_REQUESTS&#45;&gt;VERSIONS_TRACERS -->
<g id="edge1" class="edge">
<title>VERSION_TRACERS_TRACER_SYNTHESIS_REQUESTS:w&#45;&gt;VERSIONS_TRACERS:e</title>
<path fill="none" stroke="#000000" d="M656.5753,-313.4968C643.543,-302.7274 643.5408,-277.2 621,-277.2"/>
<polygon fill="#000000" stroke="#000000" points="662.9207,-315.64 669.348,-321.6107 666.7103,-316.92 670.5,-318.2 670.5,-318.2 670.5,-318.2 666.7103,-316.92 671.652,-314.7893 662.9207,-315.64 662.9207,-315.64"/>
<ellipse fill="none" stroke="#000000" cx="659.8889" cy="-314.6159" rx="3.2" ry="3.2"/>
</g>
<!-- TRACERS -->
<g id="node3" class="node">
<title>TRACERS</title>
<g id="a_node3"><a xlink:href="../../tables/TRACERS.html" xlink:title="TRACERS" target="_top">
<polygon fill="#ffffff" stroke="transparent" points="8,-38.2 8,-238.2 414,-238.2 414,-38.2 8,-38.2"/>
<polygon fill="#f5f5f5" stroke="transparent" points="10,-213.2 10,-236.2 412,-236.2 412,-213.2 10,-213.2"/>
<polygon fill="none" stroke="#000000" points="10,-213.2 10,-236.2 412,-236.2 412,-213.2 10,-213.2"/>
<text text-anchor="start" x="15" y="-222.3" font-family="Helvetica,sans-Serif" font-weight="bold" font-size="11.00" fill="#000000">TRACERS</text>
<text text-anchor="start" x="377.0437" y="-221.3" font-family="Helvetica,sans-Serif" font-size="11.00" fill="#000000">[table]</text>
<polygon fill="none" stroke="#000000" points="10,-191.2 10,-213.2 241,-213.2 241,-191.2 10,-191.2"/>
<image xlink:href="../../images/primaryKeys.png" width="11px" height="12px" preserveAspectRatio="xMinYMin meet" x="15" y="-208.2"/>
<text text-anchor="start" x="30" y="-198.3" font-family="Helvetica,sans-Serif" font-size="11.00" fill="#000000">ID</text>
<polygon fill="none" stroke="#000000" points="241,-191.2 241,-213.2 412,-213.2 412,-191.2 241,-191.2"/>
<text text-anchor="start" x="244" y="-198.9" font-family="Helvetica,sans-Serif" font-size="11.00" fill="#000000">number[19]</text>
<polygon fill="none" stroke="#000000" points="10,-169.2 10,-191.2 241,-191.2 241,-169.2 10,-169.2"/>
<text text-anchor="start" x="30" y="-176.3" font-family="Helvetica,sans-Serif" font-size="11.00" fill="#000000">CREATED_AT</text>
<polygon fill="none" stroke="#000000" points="241,-169.2 241,-191.2 412,-191.2 412,-169.2 241,-169.2"/>
<text text-anchor="start" x="243.9896" y="-176.9" font-family="Helvetica,sans-Serif" font-size="11.00" fill="#000000">timestamp(6) with time zone[13,6]</text>
<polygon fill="none" stroke="#000000" points="10,-147.2 10,-169.2 241,-169.2 241,-147.2 10,-147.2"/>
<text text-anchor="start" x="30" y="-154.3" font-family="Helvetica,sans-Serif" font-size="11.00" fill="#000000">CREATED_BY</text>
<polygon fill="none" stroke="#000000" points="241,-147.2 241,-169.2 412,-169.2 412,-147.2 241,-147.2"/>
<text text-anchor="start" x="244" y="-154.9" font-family="Helvetica,sans-Serif" font-size="11.00" fill="#000000">number[19]</text>
<polygon fill="none" stroke="#000000" points="10,-125.2 10,-147.2 241,-147.2 241,-125.2 10,-125.2"/>
<text text-anchor="start" x="30" y="-132.3" font-family="Helvetica,sans-Serif" font-size="11.00" fill="#000000">UPDATED_AT</text>
<polygon fill="none" stroke="#000000" points="241,-125.2 241,-147.2 412,-147.2 412,-125.2 241,-125.2"/>
<text text-anchor="start" x="243.9896" y="-132.9" font-family="Helvetica,sans-Serif" font-size="11.00" fill="#000000">timestamp(6) with time zone[13,6]</text>
<polygon fill="none" stroke="#000000" points="10,-103.2 10,-125.2 241,-125.2 241,-103.2 10,-103.2"/>
<text text-anchor="start" x="30" y="-110.3" font-family="Helvetica,sans-Serif" font-size="11.00" fill="#000000">UPDATED_BY</text>
<polygon fill="none" stroke="#000000" points="241,-103.2 241,-125.2 412,-125.2 412,-103.2 241,-103.2"/>
<text text-anchor="start" x="244" y="-110.9" font-family="Helvetica,sans-Serif" font-size="11.00" fill="#000000">number[19]</text>
<polygon fill="none" stroke="#000000" points="10,-81.2 10,-103.2 241,-103.2 241,-81.2 10,-81.2"/>
<text text-anchor="start" x="30" y="-88.3" font-family="Helvetica,sans-Serif" font-size="11.00" fill="#000000">NAME</text>
<polygon fill="none" stroke="#000000" points="241,-81.2 241,-103.2 412,-103.2 412,-81.2 241,-81.2"/>
<text text-anchor="start" x="244" y="-88.9" font-family="Helvetica,sans-Serif" font-size="11.00" fill="#000000">varchar2[255]</text>
<polygon fill="none" stroke="#000000" points="10,-59.2 10,-81.2 241,-81.2 241,-59.2 10,-59.2"/>
<text text-anchor="start" x="30" y="-66.3" font-family="Helvetica,sans-Serif" font-size="11.00" fill="#000000">LITERATURE_SAME_AS_PARENT</text>
<polygon fill="none" stroke="#000000" points="241,-59.2 241,-81.2 412,-81.2 412,-59.2 241,-59.2"/>
<text text-anchor="start" x="244" y="-66.9" font-family="Helvetica,sans-Serif" font-size="11.00" fill="#000000">number[19]</text>
<polygon fill="#ffffff" stroke="transparent" points="10,-40.2 10,-59.2 111,-59.2 111,-40.2 10,-40.2"/>
<polygon fill="none" stroke="#000000" points="10,-40.2 10,-59.2 111,-59.2 111,-40.2 10,-40.2"/>
<text text-anchor="start" x="13" y="-46.3" font-family="Helvetica,sans-Serif" font-size="11.00" fill="#000000">&lt; 0</text>
<polygon fill="#ffffff" stroke="transparent" points="111,-40.2 111,-59.2 241,-59.2 241,-40.2 111,-40.2"/>
<polygon fill="none" stroke="#000000" points="111,-40.2 111,-59.2 241,-59.2 241,-40.2 111,-40.2"/>
<text text-anchor="start" x="193.3807" y="-46.3" font-family="Helvetica,sans-Serif" font-size="11.00" fill="#000000">163 rows</text>
<polygon fill="#ffffff" stroke="transparent" points="241,-40.2 241,-59.2 412,-59.2 412,-40.2 241,-40.2"/>
<polygon fill="none" stroke="#000000" points="241,-40.2 241,-59.2 412,-59.2 412,-40.2 241,-40.2"/>
<text text-anchor="start" x="393.4053" y="-46.3" font-family="Helvetica,sans-Serif" font-size="11.00" fill="#000000">1 &gt;</text>
<polygon fill="none" stroke="#000000" stroke-width="2" points="9,-39.2 9,-237.2 413,-237.2 413,-39.2 9,-39.2"/>
</a>
</g>
</g>
<!-- VERSIONS_TRACERS&#45;&gt;TRACERS -->
<g id="edge2" class="edge">
<title>VERSIONS_TRACERS:w&#45;&gt;TRACERS:e</title>
<path fill="none" stroke="#000000" d="M449.0967,-229.3988C436.0044,-221.1209 432.7231,-202.2 412,-202.2"/>
<polygon fill="#000000" stroke="#000000" points="455.2832,-231.0902 462.0506,-236.6726 459.1416,-232.1451 463,-233.2 463,-233.2 463,-233.2 459.1416,-232.1451 463.9494,-229.7274 455.2832,-231.0902 455.2832,-231.0902"/>
<ellipse fill="none" stroke="#000000" cx="452.1965" cy="-230.2462" rx="3.2" ry="3.2"/>
</g>
<!-- VERSIONS -->
<g id="node4" class="node">
<title>VERSIONS</title>
<g id="a_node4"><a xlink:href="../../tables/VERSIONS.html" xlink:title="VERSIONS" target="_top">
<polygon fill="#ffffff" stroke="transparent" points="161.5,-259.7 161.5,-320.7 260.5,-320.7 260.5,-259.7 161.5,-259.7"/>
<polygon fill="#f5f5f5" stroke="transparent" points="162,-297.2 162,-320.2 261,-320.2 261,-297.2 162,-297.2"/>
<polygon fill="none" stroke="#000000" points="162,-297.2 162,-320.2 261,-320.2 261,-297.2 162,-297.2"/>
<text text-anchor="start" x="166.5804" y="-306.3" font-family="Helvetica,sans-Serif" font-weight="bold" font-size="11.00" fill="#000000">VERSIONS</text>
<text text-anchor="start" x="226.5219" y="-305.3" font-family="Helvetica,sans-Serif" font-size="11.00" fill="#000000">[table]</text>
<polygon fill="none" stroke="#000000" points="162,-278.2 162,-297.2 261,-297.2 261,-278.2 162,-278.2"/>
<text text-anchor="start" x="165" y="-284.3" font-family="Helvetica,sans-Serif" font-size="11.00" fill="#000000">...</text>
<polygon fill="#ffffff" stroke="transparent" points="162,-259.2 162,-278.2 186,-278.2 186,-259.2 162,-259.2"/>
<polygon fill="none" stroke="#000000" points="162,-259.2 162,-278.2 186,-278.2 186,-259.2 162,-259.2"/>
<text text-anchor="start" x="165" y="-265.3" font-family="Helvetica,sans-Serif" font-size="11.00" fill="#000000">&lt; 1</text>
<polygon fill="#ffffff" stroke="transparent" points="186,-259.2 186,-278.2 238,-278.2 238,-259.2 186,-259.2"/>
<polygon fill="none" stroke="#000000" points="186,-259.2 186,-278.2 238,-278.2 238,-259.2 186,-259.2"/>
<text text-anchor="start" x="190.3807" y="-265.3" font-family="Helvetica,sans-Serif" font-size="11.00" fill="#000000">222 rows</text>
<polygon fill="#ffffff" stroke="transparent" points="238,-259.2 238,-278.2 261,-278.2 261,-259.2 238,-259.2"/>
<polygon fill="none" stroke="#000000" points="238,-259.2 238,-278.2 261,-278.2 261,-259.2 238,-259.2"/>
<text text-anchor="start" x="242.4053" y="-265.3" font-family="Helvetica,sans-Serif" font-size="11.00" fill="#000000">4 &gt;</text>
</a>
</g>
</g>
<!-- VERSIONS_TRACERS&#45;&gt;VERSIONS -->
<g id="edge3" class="edge">
<title>VERSIONS_TRACERS:w&#45;&gt;VERSIONS:e</title>
<path fill="none" stroke="#000000" d="M448.2092,-255.4964C369.587,-258.7223 346.7488,-287.2 261,-287.2"/>
<polygon fill="#000000" stroke="#000000" points="455.0016,-255.3603 463.0721,-258.7993 459.0008,-255.2802 463,-255.2 463,-255.2 463,-255.2 459.0008,-255.2802 462.9279,-251.6007 455.0016,-255.3603 455.0016,-255.3603"/>
<ellipse fill="none" stroke="#000000" cx="451.8022" cy="-255.4244" rx="3.2" ry="3.2"/>
</g>
<!-- VERSIONS_TRACERS_TRACER_LIGANDS -->
<g id="node5" class="node">
<title>VERSIONS_TRACERS_TRACER_LIGANDS</title>
<g id="a_node5"><a xlink:href="../../tables/VERSIONS_TRACERS_TRACER_LIGANDS.html" xlink:title="VERSIONS_TRACERS_TRACER_LIGANDS" target="_top">
<polygon fill="#ffffff" stroke="transparent" points="706.5,-208.7 706.5,-269.7 970.5,-269.7 970.5,-208.7 706.5,-208.7"/>
<polygon fill="#f5f5f5" stroke="transparent" points="706.5,-246.2 706.5,-269.2 970.5,-269.2 970.5,-246.2 706.5,-246.2"/>
<polygon fill="none" stroke="#000000" points="706.5,-246.2 706.5,-269.2 970.5,-269.2 970.5,-246.2 706.5,-246.2"/>
<text text-anchor="start" x="711.3846" y="-255.3" font-family="Helvetica,sans-Serif" font-weight="bold" font-size="11.00" fill="#000000">VERSIONS_TRACERS_TRACER_LIGANDS</text>
<text text-anchor="start" x="936.0219" y="-254.3" font-family="Helvetica,sans-Serif" font-size="11.00" fill="#000000">[table]</text>
<polygon fill="none" stroke="#000000" points="706.5,-227.2 706.5,-246.2 970.5,-246.2 970.5,-227.2 706.5,-227.2"/>
<text text-anchor="start" x="709.5" y="-233.3" font-family="Helvetica,sans-Serif" font-size="11.00" fill="#000000">...</text>
<polygon fill="#ffffff" stroke="transparent" points="706.5,-208.2 706.5,-227.2 813.5,-227.2 813.5,-208.2 706.5,-208.2"/>
<polygon fill="none" stroke="#000000" points="706.5,-208.2 706.5,-227.2 813.5,-227.2 813.5,-208.2 706.5,-208.2"/>
<text text-anchor="start" x="709.5" y="-214.3" font-family="Helvetica,sans-Serif" font-size="11.00" fill="#000000">&lt; 2</text>
<polygon fill="#ffffff" stroke="transparent" points="813.5,-208.2 813.5,-227.2 915.5,-227.2 915.5,-208.2 813.5,-208.2"/>
<polygon fill="none" stroke="#000000" points="813.5,-208.2 813.5,-227.2 915.5,-227.2 915.5,-208.2 813.5,-208.2"/>
<text text-anchor="start" x="858.7089" y="-214.3" font-family="Helvetica,sans-Serif" font-size="11.00" fill="#000000">2,328 rows</text>
<polygon fill="#ffffff" stroke="transparent" points="915.5,-208.2 915.5,-227.2 970.5,-227.2 970.5,-208.2 915.5,-208.2"/>
<polygon fill="none" stroke="#000000" points="915.5,-208.2 915.5,-227.2 970.5,-227.2 970.5,-208.2 915.5,-208.2"/>
<text text-anchor="start" x="961.3862" y="-214.3" font-family="Helvetica,sans-Serif" font-size="11.00" fill="#000000"> &#160;</text>
</a>
</g>
</g>
<!-- VERSIONS_TRACERS_TRACER_LIGANDS&#45;&gt;VERSIONS_TRACERS -->
<g id="edge4" class="edge">
<title>VERSIONS_TRACERS_TRACER_LIGANDS:w&#45;&gt;VERSIONS_TRACERS:e</title>
<path fill="none" stroke="#000000" d="M692.0675,-238.0682C663.3638,-246.089 657.7107,-277.2 621,-277.2"/>
<polygon fill="#000000" stroke="#000000" points="698.5662,-237.227 706.9622,-239.7702 702.5331,-236.7135 706.5,-236.2 706.5,-236.2 706.5,-236.2 702.5331,-236.7135 706.0378,-232.6298 698.5662,-237.227 698.5662,-237.227"/>
<ellipse fill="none" stroke="#000000" cx="695.3927" cy="-237.6379" rx="3.2" ry="3.2"/>
</g>
</g>
</svg>
