<?xml version="1.0" encoding="UTF-8" standalone="no"?>
<!DOCTYPE svg PUBLIC "-//W3C//DTD SVG 1.1//EN"
 "http://www.w3.org/Graphics/SVG/1.1/DTD/svg11.dtd">
<!-- Generated by graphviz version 2.40.1 (20161225.0304)
 -->
<!-- Title: twoDegreesRelationshipsDiagram Pages: 1 -->
<svg width="831pt" height="1115pt"
 viewBox="0.00 0.00 831.00 1115.20" xmlns="http://www.w3.org/2000/svg" xmlns:xlink="http://www.w3.org/1999/xlink">
<g id="graph0" class="graph" transform="scale(1 1) rotate(0) translate(4 1111.2)">
<title>twoDegreesRelationshipsDiagram</title>
<polygon fill="#ffffff" stroke="transparent" points="-4,4 -4,-1111.2 827,-1111.2 827,4 -4,4"/>
<text text-anchor="middle" x="72.4936" y="-7.3" font-family="Helvetica,sans-Serif" font-size="11.00" fill="#000000">Generated by SchemaSpy</text>
<!-- ACTIVITIES -->
<g id="node1" class="node">
<title>ACTIVITIES</title>
<g id="a_node1"><a xlink:href="../../tables/ACTIVITIES.html" xlink:title="ACTIVITIES" target="_top">
<polygon fill="#ffffff" stroke="transparent" points="561,-1042.2 561,-1103.2 663,-1103.2 663,-1042.2 561,-1042.2"/>
<polygon fill="#f5f5f5" stroke="transparent" points="561,-1079.7 561,-1102.7 663,-1102.7 663,-1079.7 561,-1079.7"/>
<polygon fill="none" stroke="#000000" points="561,-1079.7 561,-1102.7 663,-1102.7 663,-1079.7 561,-1079.7"/>
<text text-anchor="start" x="565.5525" y="-1088.8" font-family="Helvetica,sans-Serif" font-weight="bold" font-size="11.00" fill="#000000">ACTIVITIES</text>
<text text-anchor="start" x="628.5219" y="-1087.8" font-family="Helvetica,sans-Serif" font-size="11.00" fill="#000000">[table]</text>
<polygon fill="none" stroke="#000000" points="561,-1060.7 561,-1079.7 663,-1079.7 663,-1060.7 561,-1060.7"/>
<text text-anchor="start" x="564" y="-1066.8" font-family="Helvetica,sans-Serif" font-size="11.00" fill="#000000">...</text>
<polygon fill="#ffffff" stroke="transparent" points="561,-1041.7 561,-1060.7 587,-1060.7 587,-1041.7 561,-1041.7"/>
<polygon fill="none" stroke="#000000" points="561,-1041.7 561,-1060.7 587,-1060.7 587,-1041.7 561,-1041.7"/>
<text text-anchor="start" x="564" y="-1047.8" font-family="Helvetica,sans-Serif" font-size="11.00" fill="#000000">&lt; 1</text>
<polygon fill="#ffffff" stroke="transparent" points="587,-1041.7 587,-1060.7 648,-1060.7 648,-1041.7 587,-1041.7"/>
<polygon fill="none" stroke="#000000" points="587,-1041.7 587,-1060.7 648,-1060.7 648,-1041.7 587,-1041.7"/>
<text text-anchor="start" x="591.2089" y="-1047.8" font-family="Helvetica,sans-Serif" font-size="11.00" fill="#000000">1,600 rows</text>
<polygon fill="#ffffff" stroke="transparent" points="648,-1041.7 648,-1060.7 663,-1060.7 663,-1041.7 648,-1041.7"/>
<polygon fill="none" stroke="#000000" points="648,-1041.7 648,-1060.7 663,-1060.7 663,-1041.7 648,-1041.7"/>
<text text-anchor="start" x="653.8862" y="-1047.8" font-family="Helvetica,sans-Serif" font-size="11.00" fill="#000000"> &#160;</text>
</a>
</g>
</g>
<!-- ACTIVITY_TYPES -->
<g id="node2" class="node">
<title>ACTIVITY_TYPES</title>
<g id="a_node2"><a xlink:href="../../tables/ACTIVITY_TYPES.html" xlink:title="ACTIVITY_TYPES" target="_top">
<polygon fill="#ffffff" stroke="transparent" points="199,-917.2 199,-1022.2 360,-1022.2 360,-917.2 199,-917.2"/>
<polygon fill="#f5f5f5" stroke="transparent" points="199.5,-998.7 199.5,-1021.7 360.5,-1021.7 360.5,-998.7 199.5,-998.7"/>
<polygon fill="none" stroke="#000000" points="199.5,-998.7 199.5,-1021.7 360.5,-1021.7 360.5,-998.7 199.5,-998.7"/>
<text text-anchor="start" x="204.5" y="-1007.8" font-family="Helvetica,sans-Serif" font-weight="bold" font-size="11.00" fill="#000000">ACTIVITY_TYPES</text>
<text text-anchor="start" x="325.5437" y="-1006.8" font-family="Helvetica,sans-Serif" font-size="11.00" fill="#000000">[table]</text>
<polygon fill="none" stroke="#000000" points="199.5,-976.7 199.5,-998.7 360.5,-998.7 360.5,-976.7 199.5,-976.7"/>
<image xlink:href="../../images/primaryKeys.png" width="11px" height="12px" preserveAspectRatio="xMinYMin meet" x="204.5" y="-993.7"/>
<text text-anchor="start" x="219.5" y="-983.8" font-family="Helvetica,sans-Serif" font-size="11.00" fill="#000000">ID</text>
<polygon fill="none" stroke="#000000" points="199.5,-954.7 199.5,-976.7 360.5,-976.7 360.5,-954.7 199.5,-954.7"/>
<image xlink:href="../../images/foreignKeys.png" width="11px" height="12px" preserveAspectRatio="xMinYMin meet" x="204.5" y="-971.7"/>
<text text-anchor="start" x="219.5" y="-961.8" font-family="Helvetica,sans-Serif" font-size="11.00" fill="#000000">ACTIVITY_STATUS_ID</text>
<polygon fill="none" stroke="#000000" points="199.5,-935.7 199.5,-954.7 360.5,-954.7 360.5,-935.7 199.5,-935.7"/>
<text text-anchor="start" x="202.5" y="-941.8" font-family="Helvetica,sans-Serif" font-size="11.00" fill="#000000">...</text>
<polygon fill="#ffffff" stroke="transparent" points="199.5,-916.7 199.5,-935.7 257.5,-935.7 257.5,-916.7 199.5,-916.7"/>
<polygon fill="none" stroke="#000000" points="199.5,-916.7 199.5,-935.7 257.5,-935.7 257.5,-916.7 199.5,-916.7"/>
<text text-anchor="start" x="202.5" y="-922.8" font-family="Helvetica,sans-Serif" font-size="11.00" fill="#000000">&lt; 1</text>
<polygon fill="#ffffff" stroke="transparent" points="257.5,-916.7 257.5,-935.7 320.5,-935.7 320.5,-916.7 257.5,-916.7"/>
<polygon fill="none" stroke="#000000" points="257.5,-916.7 257.5,-935.7 320.5,-935.7 320.5,-916.7 257.5,-916.7"/>
<text text-anchor="start" x="278.9956" y="-922.8" font-family="Helvetica,sans-Serif" font-size="11.00" fill="#000000">69 rows</text>
<polygon fill="#ffffff" stroke="transparent" points="320.5,-916.7 320.5,-935.7 360.5,-935.7 360.5,-916.7 320.5,-916.7"/>
<polygon fill="none" stroke="#000000" points="320.5,-916.7 320.5,-935.7 360.5,-935.7 360.5,-916.7 320.5,-916.7"/>
<text text-anchor="start" x="341.9053" y="-922.8" font-family="Helvetica,sans-Serif" font-size="11.00" fill="#000000">3 &gt;</text>
</a>
</g>
</g>
<!-- ACTIVITIES&#45;&gt;ACTIVITY_TYPES -->
<g id="edge1" class="edge">
<title>ACTIVITIES:w&#45;&gt;ACTIVITY_TYPES:e</title>
<path fill="none" stroke="#000000" d="M546.2823,-1069.6723C484.3633,-1069.3746 459.6282,-1066.0503 401,-1031.7 378.0677,-1018.2639 387.0786,-987.7 360.5,-987.7"/>
<polygon fill="#000000" stroke="#000000" points="553,-1069.6849 560.9932,-1073.3 557,-1069.6924 561,-1069.7 561,-1069.7 561,-1069.7 557,-1069.6924 561.0068,-1066.1 553,-1069.6849 553,-1069.6849"/>
<ellipse fill="none" stroke="#000000" cx="549.8" cy="-1069.6788" rx="3.2" ry="3.2"/>
</g>
<!-- ACTIVITY_STATUS -->
<g id="node3" class="node">
<title>ACTIVITY_STATUS</title>
<g id="a_node3"><a xlink:href="../../tables/ACTIVITY_STATUS.html" xlink:title="ACTIVITY_STATUS" target="_top">
<polygon fill="#ffffff" stroke="transparent" points="8,-938.2 8,-999.2 150,-999.2 150,-938.2 8,-938.2"/>
<polygon fill="#f5f5f5" stroke="transparent" points="8,-975.7 8,-998.7 150,-998.7 150,-975.7 8,-975.7"/>
<polygon fill="none" stroke="#000000" points="8,-975.7 8,-998.7 150,-998.7 150,-975.7 8,-975.7"/>
<text text-anchor="start" x="12.9972" y="-984.8" font-family="Helvetica,sans-Serif" font-weight="bold" font-size="11.00" fill="#000000">ACTIVITY_STATUS</text>
<text text-anchor="start" x="115.5219" y="-983.8" font-family="Helvetica,sans-Serif" font-size="11.00" fill="#000000">[table]</text>
<polygon fill="none" stroke="#000000" points="8,-956.7 8,-975.7 150,-975.7 150,-956.7 8,-956.7"/>
<text text-anchor="start" x="11" y="-962.8" font-family="Helvetica,sans-Serif" font-size="11.00" fill="#000000">...</text>
<polygon fill="#ffffff" stroke="transparent" points="8,-937.7 8,-956.7 52,-956.7 52,-937.7 8,-937.7"/>
<polygon fill="none" stroke="#000000" points="8,-937.7 8,-956.7 52,-956.7 52,-937.7 8,-937.7"/>
<text text-anchor="start" x="11" y="-943.8" font-family="Helvetica,sans-Serif" font-size="11.00" fill="#000000"> &#160;</text>
<polygon fill="#ffffff" stroke="transparent" points="52,-937.7 52,-956.7 112,-956.7 112,-937.7 52,-937.7"/>
<polygon fill="none" stroke="#000000" points="52,-937.7 52,-956.7 112,-956.7 112,-937.7 52,-937.7"/>
<text text-anchor="start" x="70.4956" y="-943.8" font-family="Helvetica,sans-Serif" font-size="11.00" fill="#000000">19 rows</text>
<polygon fill="#ffffff" stroke="transparent" points="112,-937.7 112,-956.7 150,-956.7 150,-937.7 112,-937.7"/>
<polygon fill="none" stroke="#000000" points="112,-937.7 112,-956.7 150,-956.7 150,-937.7 112,-937.7"/>
<text text-anchor="start" x="131.4053" y="-943.8" font-family="Helvetica,sans-Serif" font-size="11.00" fill="#000000">1 &gt;</text>
</a>
</g>
</g>
<!-- ACTIVITY_TYPES&#45;&gt;ACTIVITY_STATUS -->
<g id="edge2" class="edge">
<title>ACTIVITY_TYPES:w&#45;&gt;ACTIVITY_STATUS:e</title>
<path fill="none" stroke="#000000" d="M184.8428,-965.7C173.4139,-965.7 166.1563,-965.7 150,-965.7"/>
<polygon fill="#000000" stroke="#000000" points="191.5,-965.7001 199.5,-969.3 195.5,-965.7 199.5,-965.7 199.5,-965.7 199.5,-965.7 195.5,-965.7 199.5,-962.1 191.5,-965.7001 191.5,-965.7001"/>
<ellipse fill="none" stroke="#000000" cx="188.3" cy="-965.7001" rx="3.2" ry="3.2"/>
</g>
<!-- CLONE_FORM_COMMENTS -->
<g id="node4" class="node">
<title>CLONE_FORM_COMMENTS</title>
<g id="a_node4"><a xlink:href="../../tables/CLONE_FORM_COMMENTS.html" xlink:title="CLONE_FORM_COMMENTS" target="_top">
<polygon fill="#ffffff" stroke="transparent" points="517.5,-612.2 517.5,-673.2 706.5,-673.2 706.5,-612.2 517.5,-612.2"/>
<polygon fill="#f5f5f5" stroke="transparent" points="518,-649.7 518,-672.7 707,-672.7 707,-649.7 518,-649.7"/>
<polygon fill="none" stroke="#000000" points="518,-649.7 518,-672.7 707,-672.7 707,-649.7 518,-649.7"/>
<text text-anchor="start" x="522.6735" y="-658.8" font-family="Helvetica,sans-Serif" font-weight="bold" font-size="11.00" fill="#000000">CLONE_FORM_COMMENTS</text>
<text text-anchor="start" x="672.5219" y="-657.8" font-family="Helvetica,sans-Serif" font-size="11.00" fill="#000000">[table]</text>
<polygon fill="none" stroke="#000000" points="518,-630.7 518,-649.7 707,-649.7 707,-630.7 518,-630.7"/>
<text text-anchor="start" x="521" y="-636.8" font-family="Helvetica,sans-Serif" font-size="11.00" fill="#000000">...</text>
<polygon fill="#ffffff" stroke="transparent" points="518,-611.7 518,-630.7 601,-630.7 601,-611.7 518,-611.7"/>
<polygon fill="none" stroke="#000000" points="518,-611.7 518,-630.7 601,-630.7 601,-611.7 518,-611.7"/>
<text text-anchor="start" x="521" y="-617.8" font-family="Helvetica,sans-Serif" font-size="11.00" fill="#000000">&lt; 2</text>
<polygon fill="#ffffff" stroke="transparent" points="601,-611.7 601,-630.7 664,-630.7 664,-611.7 601,-611.7"/>
<polygon fill="none" stroke="#000000" points="601,-611.7 601,-630.7 664,-630.7 664,-611.7 601,-611.7"/>
<text text-anchor="start" x="634.1105" y="-617.8" font-family="Helvetica,sans-Serif" font-size="11.00" fill="#000000">1 row</text>
<polygon fill="#ffffff" stroke="transparent" points="664,-611.7 664,-630.7 707,-630.7 707,-611.7 664,-611.7"/>
<polygon fill="none" stroke="#000000" points="664,-611.7 664,-630.7 707,-630.7 707,-611.7 664,-611.7"/>
<text text-anchor="start" x="697.8862" y="-617.8" font-family="Helvetica,sans-Serif" font-size="11.00" fill="#000000"> &#160;</text>
</a>
</g>
</g>
<!-- USERS -->
<g id="node5" class="node">
<title>USERS</title>
<g id="a_node5"><a xlink:href="../../tables/USERS.html" xlink:title="USERS" target="_top">
<polygon fill="#ffffff" stroke="transparent" points="222.5,-323.2 222.5,-428.2 336.5,-428.2 336.5,-323.2 222.5,-323.2"/>
<polygon fill="#f5f5f5" stroke="transparent" points="222.5,-404.7 222.5,-427.7 336.5,-427.7 336.5,-404.7 222.5,-404.7"/>
<polygon fill="none" stroke="#000000" points="222.5,-404.7 222.5,-427.7 336.5,-427.7 336.5,-404.7 222.5,-404.7"/>
<text text-anchor="start" x="227.5" y="-413.8" font-family="Helvetica,sans-Serif" font-weight="bold" font-size="11.00" fill="#000000">USERS</text>
<text text-anchor="start" x="301.5437" y="-412.8" font-family="Helvetica,sans-Serif" font-size="11.00" fill="#000000">[table]</text>
<polygon fill="none" stroke="#000000" points="222.5,-382.7 222.5,-404.7 336.5,-404.7 336.5,-382.7 222.5,-382.7"/>
<image xlink:href="../../images/primaryKeys.png" width="11px" height="12px" preserveAspectRatio="xMinYMin meet" x="227.5" y="-399.7"/>
<text text-anchor="start" x="242.5" y="-389.8" font-family="Helvetica,sans-Serif" font-size="11.00" fill="#000000">ID</text>
<polygon fill="none" stroke="#000000" points="222.5,-360.7 222.5,-382.7 336.5,-382.7 336.5,-360.7 222.5,-360.7"/>
<image xlink:href="../../images/primaryKeys.png" width="11px" height="12px" preserveAspectRatio="xMinYMin meet" x="227.5" y="-377.7"/>
<text text-anchor="start" x="242.5" y="-367.8" font-family="Helvetica,sans-Serif" font-size="11.00" fill="#000000">USERNAME</text>
<polygon fill="none" stroke="#000000" points="222.5,-341.7 222.5,-360.7 336.5,-360.7 336.5,-341.7 222.5,-341.7"/>
<text text-anchor="start" x="225.5" y="-347.8" font-family="Helvetica,sans-Serif" font-size="11.00" fill="#000000">...</text>
<polygon fill="#ffffff" stroke="transparent" points="222.5,-322.7 222.5,-341.7 252.5,-341.7 252.5,-322.7 222.5,-322.7"/>
<polygon fill="none" stroke="#000000" points="222.5,-322.7 222.5,-341.7 252.5,-341.7 252.5,-322.7 222.5,-322.7"/>
<text text-anchor="start" x="225.5" y="-328.8" font-family="Helvetica,sans-Serif" font-size="11.00" fill="#000000"> &#160;</text>
<polygon fill="#ffffff" stroke="transparent" points="252.5,-322.7 252.5,-341.7 305.5,-341.7 305.5,-322.7 252.5,-322.7"/>
<polygon fill="none" stroke="#000000" points="252.5,-322.7 252.5,-341.7 305.5,-341.7 305.5,-322.7 252.5,-322.7"/>
<text text-anchor="start" x="263.9956" y="-328.8" font-family="Helvetica,sans-Serif" font-size="11.00" fill="#000000">33 rows</text>
<polygon fill="#ffffff" stroke="transparent" points="305.5,-322.7 305.5,-341.7 336.5,-341.7 336.5,-322.7 305.5,-322.7"/>
<polygon fill="none" stroke="#000000" points="305.5,-322.7 305.5,-341.7 336.5,-341.7 336.5,-322.7 305.5,-322.7"/>
<text text-anchor="start" x="317.9053" y="-328.8" font-family="Helvetica,sans-Serif" font-size="11.00" fill="#000000">9 &gt;</text>
</a>
</g>
</g>
<!-- CLONE_FORM_COMMENTS&#45;&gt;USERS -->
<g id="edge3" class="edge">
<title>CLONE_FORM_COMMENTS:w&#45;&gt;USERS:e</title>
<path fill="none" stroke="#000000" d="M503.3965,-639.6906C458.713,-639.5219 435.8013,-636.9689 401,-601.7 333.0193,-532.806 433.2872,-393.7 336.5,-393.7"/>
<polygon fill="#000000" stroke="#000000" points="510,-639.6948 517.9977,-643.3 514,-639.6974 518,-639.7 518,-639.7 518,-639.7 514,-639.6974 518.0023,-636.1 510,-639.6948 510,-639.6948"/>
<ellipse fill="none" stroke="#000000" cx="506.8" cy="-639.6927" rx="3.2" ry="3.2"/>
</g>
<!-- ISOFORM_COMMENTS -->
<g id="node6" class="node">
<title>ISOFORM_COMMENTS</title>
<g id="a_node6"><a xlink:href="../../tables/ISOFORM_COMMENTS.html" xlink:title="ISOFORM_COMMENTS" target="_top">
<polygon fill="#ffffff" stroke="transparent" points="530,-530.2 530,-591.2 694,-591.2 694,-530.2 530,-530.2"/>
<polygon fill="#f5f5f5" stroke="transparent" points="530,-567.7 530,-590.7 694,-590.7 694,-567.7 530,-567.7"/>
<polygon fill="none" stroke="#000000" points="530,-567.7 530,-590.7 694,-590.7 694,-567.7 530,-567.7"/>
<text text-anchor="start" x="534.7008" y="-576.8" font-family="Helvetica,sans-Serif" font-weight="bold" font-size="11.00" fill="#000000">ISOFORM_COMMENTS</text>
<text text-anchor="start" x="659.5219" y="-575.8" font-family="Helvetica,sans-Serif" font-size="11.00" fill="#000000">[table]</text>
<polygon fill="none" stroke="#000000" points="530,-548.7 530,-567.7 694,-567.7 694,-548.7 530,-548.7"/>
<text text-anchor="start" x="533" y="-554.8" font-family="Helvetica,sans-Serif" font-size="11.00" fill="#000000">...</text>
<polygon fill="#ffffff" stroke="transparent" points="530,-529.7 530,-548.7 597,-548.7 597,-529.7 530,-529.7"/>
<polygon fill="none" stroke="#000000" points="530,-529.7 530,-548.7 597,-548.7 597,-529.7 530,-529.7"/>
<text text-anchor="start" x="533" y="-535.8" font-family="Helvetica,sans-Serif" font-size="11.00" fill="#000000">&lt; 2</text>
<polygon fill="#ffffff" stroke="transparent" points="597,-529.7 597,-548.7 658,-548.7 658,-529.7 597,-529.7"/>
<polygon fill="none" stroke="#000000" points="597,-529.7 597,-548.7 658,-548.7 658,-529.7 597,-529.7"/>
<text text-anchor="start" x="622.6105" y="-535.8" font-family="Helvetica,sans-Serif" font-size="11.00" fill="#000000">8 rows</text>
<polygon fill="#ffffff" stroke="transparent" points="658,-529.7 658,-548.7 694,-548.7 694,-529.7 658,-529.7"/>
<polygon fill="none" stroke="#000000" points="658,-529.7 658,-548.7 694,-548.7 694,-529.7 658,-529.7"/>
<text text-anchor="start" x="684.8862" y="-535.8" font-family="Helvetica,sans-Serif" font-size="11.00" fill="#000000"> &#160;</text>
</a>
</g>
</g>
<!-- ISOFORM_COMMENTS&#45;&gt;USERS -->
<g id="edge4" class="edge">
<title>ISOFORM_COMMENTS:w&#45;&gt;USERS:e</title>
<path fill="none" stroke="#000000" d="M515.363,-557.6787C466.0727,-557.4415 443.0631,-554.5629 401,-519.7 352.5633,-479.5545 399.4109,-393.7 336.5,-393.7"/>
<polygon fill="#000000" stroke="#000000" points="522,-557.6883 529.9947,-561.3 526,-557.6942 530,-557.7 530,-557.7 530,-557.7 526,-557.6942 530.0053,-554.1 522,-557.6883 522,-557.6883"/>
<ellipse fill="none" stroke="#000000" cx="518.8" cy="-557.6836" rx="3.2" ry="3.2"/>
</g>
<!-- NOTIFICATION_SETTINGS -->
<g id="node7" class="node">
<title>NOTIFICATION_SETTINGS</title>
<g id="a_node7"><a xlink:href="../../tables/NOTIFICATION_SETTINGS.html" xlink:title="NOTIFICATION_SETTINGS" target="_top">
<polygon fill="#ffffff" stroke="transparent" points="521.5,-960.2 521.5,-1021.2 702.5,-1021.2 702.5,-960.2 521.5,-960.2"/>
<polygon fill="#f5f5f5" stroke="transparent" points="522,-997.7 522,-1020.7 703,-1020.7 703,-997.7 522,-997.7"/>
<polygon fill="none" stroke="#000000" points="522,-997.7 522,-1020.7 703,-1020.7 703,-997.7 522,-997.7"/>
<text text-anchor="start" x="526.6401" y="-1006.8" font-family="Helvetica,sans-Serif" font-weight="bold" font-size="11.00" fill="#000000">NOTIFICATION_SETTINGS</text>
<text text-anchor="start" x="668.5219" y="-1005.8" font-family="Helvetica,sans-Serif" font-size="11.00" fill="#000000">[table]</text>
<polygon fill="none" stroke="#000000" points="522,-978.7 522,-997.7 703,-997.7 703,-978.7 522,-978.7"/>
<text text-anchor="start" x="525" y="-984.8" font-family="Helvetica,sans-Serif" font-size="11.00" fill="#000000">...</text>
<polygon fill="#ffffff" stroke="transparent" points="522,-959.7 522,-978.7 592,-978.7 592,-959.7 522,-959.7"/>
<polygon fill="none" stroke="#000000" points="522,-959.7 522,-978.7 592,-978.7 592,-959.7 522,-959.7"/>
<text text-anchor="start" x="525" y="-965.8" font-family="Helvetica,sans-Serif" font-size="11.00" fill="#000000">&lt; 2</text>
<polygon fill="#ffffff" stroke="transparent" points="592,-959.7 592,-978.7 666,-978.7 666,-959.7 592,-959.7"/>
<polygon fill="none" stroke="#000000" points="592,-959.7 592,-978.7 666,-978.7 666,-959.7 592,-959.7"/>
<text text-anchor="start" x="618.3807" y="-965.8" font-family="Helvetica,sans-Serif" font-size="11.00" fill="#000000">108 rows</text>
<polygon fill="#ffffff" stroke="transparent" points="666,-959.7 666,-978.7 703,-978.7 703,-959.7 666,-959.7"/>
<polygon fill="none" stroke="#000000" points="666,-959.7 666,-978.7 703,-978.7 703,-959.7 666,-959.7"/>
<text text-anchor="start" x="693.8862" y="-965.8" font-family="Helvetica,sans-Serif" font-size="11.00" fill="#000000"> &#160;</text>
</a>
</g>
</g>
<!-- NOTIFICATION_SETTINGS&#45;&gt;ACTIVITY_TYPES -->
<g id="edge5" class="edge">
<title>NOTIFICATION_SETTINGS:w&#45;&gt;ACTIVITY_TYPES:e</title>
<path fill="none" stroke="#000000" d="M507.2416,-987.7C447.3476,-987.7 427.0907,-987.7 360.5,-987.7"/>
<polygon fill="#000000" stroke="#000000" points="514,-987.7001 522,-991.3 518,-987.7 522,-987.7 522,-987.7 522,-987.7 518,-987.7 522,-984.1 514,-987.7001 514,-987.7001"/>
<ellipse fill="none" stroke="#000000" cx="510.8" cy="-987.7001" rx="3.2" ry="3.2"/>
</g>
<!-- REFERENCES -->
<g id="node8" class="node">
<title>REFERENCES</title>
<g id="a_node8"><a xlink:href="../../tables/REFERENCES.html" xlink:title="REFERENCES" target="_top">
<polygon fill="#ffffff" stroke="transparent" points="553,-448.2 553,-509.2 671,-509.2 671,-448.2 553,-448.2"/>
<polygon fill="#f5f5f5" stroke="transparent" points="553,-485.7 553,-508.7 671,-508.7 671,-485.7 553,-485.7"/>
<polygon fill="none" stroke="#000000" points="553,-485.7 553,-508.7 671,-508.7 671,-485.7 553,-485.7"/>
<text text-anchor="start" x="557.9185" y="-494.8" font-family="Helvetica,sans-Serif" font-weight="bold" font-size="11.00" fill="#000000">REFERENCES</text>
<text text-anchor="start" x="636.5219" y="-493.8" font-family="Helvetica,sans-Serif" font-size="11.00" fill="#000000">[table]</text>
<polygon fill="none" stroke="#000000" points="553,-466.7 553,-485.7 671,-485.7 671,-466.7 553,-466.7"/>
<text text-anchor="start" x="556" y="-472.8" font-family="Helvetica,sans-Serif" font-size="11.00" fill="#000000">...</text>
<polygon fill="#ffffff" stroke="transparent" points="553,-447.7 553,-466.7 579,-466.7 579,-447.7 553,-447.7"/>
<polygon fill="none" stroke="#000000" points="553,-447.7 553,-466.7 579,-466.7 579,-447.7 553,-447.7"/>
<text text-anchor="start" x="556" y="-453.8" font-family="Helvetica,sans-Serif" font-size="11.00" fill="#000000">&lt; 1</text>
<polygon fill="#ffffff" stroke="transparent" points="579,-447.7 579,-466.7 641,-466.7 641,-447.7 579,-447.7"/>
<polygon fill="none" stroke="#000000" points="579,-447.7 579,-466.7 641,-466.7 641,-447.7 579,-447.7"/>
<text text-anchor="start" x="584.2089" y="-453.8" font-family="Helvetica,sans-Serif" font-size="11.00" fill="#000000">2,900 rows</text>
<polygon fill="#ffffff" stroke="transparent" points="641,-447.7 641,-466.7 671,-466.7 671,-447.7 641,-447.7"/>
<polygon fill="none" stroke="#000000" points="641,-447.7 641,-466.7 671,-466.7 671,-447.7 641,-447.7"/>
<text text-anchor="start" x="646.2904" y="-453.8" font-family="Helvetica,sans-Serif" font-size="11.00" fill="#000000">20 &gt;</text>
</a>
</g>
</g>
<!-- REFERENCES&#45;&gt;USERS -->
<g id="edge6" class="edge">
<title>REFERENCES:w&#45;&gt;USERS:e</title>
<path fill="none" stroke="#000000" d="M538.2959,-475.5393C480.3234,-474.1865 459.8157,-464.0939 401,-437.7 369.3402,-423.4925 371.2015,-393.7 336.5,-393.7"/>
<polygon fill="#000000" stroke="#000000" points="545.0005,-475.6125 552.9606,-479.2998 549.0002,-475.6563 553,-475.7 553,-475.7 553,-475.7 549.0002,-475.6563 553.0394,-472.1002 545.0005,-475.6125 545.0005,-475.6125"/>
<ellipse fill="none" stroke="#000000" cx="541.8007" cy="-475.5775" rx="3.2" ry="3.2"/>
</g>
<!-- STRUCTURE_COMMENTS -->
<g id="node9" class="node">
<title>STRUCTURE_COMMENTS</title>
<g id="a_node9"><a xlink:href="../../tables/STRUCTURE_COMMENTS.html" xlink:title="STRUCTURE_COMMENTS" target="_top">
<polygon fill="#ffffff" stroke="transparent" points="521.5,-366.2 521.5,-427.2 702.5,-427.2 702.5,-366.2 521.5,-366.2"/>
<polygon fill="#f5f5f5" stroke="transparent" points="522,-403.7 522,-426.7 703,-426.7 703,-403.7 522,-403.7"/>
<polygon fill="none" stroke="#000000" points="522,-403.7 522,-426.7 703,-426.7 703,-403.7 522,-403.7"/>
<text text-anchor="start" x="526.9574" y="-412.8" font-family="Helvetica,sans-Serif" font-weight="bold" font-size="11.00" fill="#000000">STRUCTURE_COMMENTS</text>
<text text-anchor="start" x="668.5219" y="-411.8" font-family="Helvetica,sans-Serif" font-size="11.00" fill="#000000">[table]</text>
<polygon fill="none" stroke="#000000" points="522,-384.7 522,-403.7 703,-403.7 703,-384.7 522,-384.7"/>
<text text-anchor="start" x="525" y="-390.8" font-family="Helvetica,sans-Serif" font-size="11.00" fill="#000000">...</text>
<polygon fill="#ffffff" stroke="transparent" points="522,-365.7 522,-384.7 595,-384.7 595,-365.7 522,-365.7"/>
<polygon fill="none" stroke="#000000" points="522,-365.7 522,-384.7 595,-384.7 595,-365.7 522,-365.7"/>
<text text-anchor="start" x="525" y="-371.8" font-family="Helvetica,sans-Serif" font-size="11.00" fill="#000000">&lt; 2</text>
<polygon fill="#ffffff" stroke="transparent" points="595,-365.7 595,-384.7 665,-384.7 665,-365.7 595,-365.7"/>
<polygon fill="none" stroke="#000000" points="595,-365.7 595,-384.7 665,-384.7 665,-365.7 595,-365.7"/>
<text text-anchor="start" x="623.4956" y="-371.8" font-family="Helvetica,sans-Serif" font-size="11.00" fill="#000000">10 rows</text>
<polygon fill="#ffffff" stroke="transparent" points="665,-365.7 665,-384.7 703,-384.7 703,-365.7 665,-365.7"/>
<polygon fill="none" stroke="#000000" points="665,-365.7 665,-384.7 703,-384.7 703,-365.7 665,-365.7"/>
<text text-anchor="start" x="693.8862" y="-371.8" font-family="Helvetica,sans-Serif" font-size="11.00" fill="#000000"> &#160;</text>
</a>
</g>
</g>
<!-- STRUCTURE_COMMENTS&#45;&gt;USERS -->
<g id="edge7" class="edge">
<title>STRUCTURE_COMMENTS:w&#45;&gt;USERS:e</title>
<path fill="none" stroke="#000000" d="M507.2361,-393.7C436.7376,-393.7 413.7917,-393.7 336.5,-393.7"/>
<polygon fill="#000000" stroke="#000000" points="514,-393.7001 522,-397.3 518,-393.7 522,-393.7 522,-393.7 522,-393.7 518,-393.7 522,-390.1 514,-393.7001 514,-393.7001"/>
<ellipse fill="none" stroke="#000000" cx="510.8" cy="-393.7001" rx="3.2" ry="3.2"/>
</g>
<!-- TARGET_FORM_COMMENTS -->
<g id="node10" class="node">
<title>TARGET_FORM_COMMENTS</title>
<g id="a_node10"><a xlink:href="../../tables/TARGET_FORM_COMMENTS.html" xlink:title="TARGET_FORM_COMMENTS" target="_top">
<polygon fill="#ffffff" stroke="transparent" points="514,-284.2 514,-345.2 710,-345.2 710,-284.2 514,-284.2"/>
<polygon fill="#f5f5f5" stroke="transparent" points="514,-321.7 514,-344.7 710,-344.7 710,-321.7 514,-321.7"/>
<polygon fill="none" stroke="#000000" points="514,-321.7 514,-344.7 710,-344.7 710,-321.7 514,-321.7"/>
<text text-anchor="start" x="518.8135" y="-330.8" font-family="Helvetica,sans-Serif" font-weight="bold" font-size="11.00" fill="#000000">TARGET_FORM_COMMENTS</text>
<text text-anchor="start" x="675.5219" y="-329.8" font-family="Helvetica,sans-Serif" font-size="11.00" fill="#000000">[table]</text>
<polygon fill="none" stroke="#000000" points="514,-302.7 514,-321.7 710,-321.7 710,-302.7 514,-302.7"/>
<text text-anchor="start" x="517" y="-308.8" font-family="Helvetica,sans-Serif" font-size="11.00" fill="#000000">...</text>
<polygon fill="#ffffff" stroke="transparent" points="514,-283.7 514,-302.7 597,-302.7 597,-283.7 514,-283.7"/>
<polygon fill="none" stroke="#000000" points="514,-283.7 514,-302.7 597,-302.7 597,-283.7 514,-283.7"/>
<text text-anchor="start" x="517" y="-289.8" font-family="Helvetica,sans-Serif" font-size="11.00" fill="#000000">&lt; 2</text>
<polygon fill="#ffffff" stroke="transparent" points="597,-283.7 597,-302.7 666,-302.7 666,-283.7 597,-283.7"/>
<polygon fill="none" stroke="#000000" points="597,-283.7 597,-302.7 666,-302.7 666,-283.7 597,-283.7"/>
<text text-anchor="start" x="630.6105" y="-289.8" font-family="Helvetica,sans-Serif" font-size="11.00" fill="#000000">3 rows</text>
<polygon fill="#ffffff" stroke="transparent" points="666,-283.7 666,-302.7 710,-302.7 710,-283.7 666,-283.7"/>
<polygon fill="none" stroke="#000000" points="666,-283.7 666,-302.7 710,-302.7 710,-283.7 666,-283.7"/>
<text text-anchor="start" x="700.8862" y="-289.8" font-family="Helvetica,sans-Serif" font-size="11.00" fill="#000000"> &#160;</text>
</a>
</g>
</g>
<!-- TARGET_FORM_COMMENTS&#45;&gt;USERS -->
<g id="edge8" class="edge">
<title>TARGET_FORM_COMMENTS:w&#45;&gt;USERS:e</title>
<path fill="none" stroke="#000000" d="M499.373,-312.2694C457.6697,-315.7267 444.7511,-334.4654 401,-355.7 371.0675,-370.2278 369.7718,-393.7 336.5,-393.7"/>
<polygon fill="#000000" stroke="#000000" points="506.0061,-312.0112 514.14,-315.2973 510.003,-311.8556 514,-311.7 514,-311.7 514,-311.7 510.003,-311.8556 513.86,-308.1027 506.0061,-312.0112 506.0061,-312.0112"/>
<ellipse fill="none" stroke="#000000" cx="502.8085" cy="-312.1357" rx="3.2" ry="3.2"/>
</g>
<!-- TARGETS_USERS -->
<g id="node11" class="node">
<title>TARGETS_USERS</title>
<g id="a_node11"><a xlink:href="../../tables/TARGETS_USERS.html" xlink:title="TARGETS_USERS" target="_top">
<polygon fill="#ffffff" stroke="transparent" points="543,-202.2 543,-263.2 681,-263.2 681,-202.2 543,-202.2"/>
<polygon fill="#f5f5f5" stroke="transparent" points="543,-239.7 543,-262.7 681,-262.7 681,-239.7 543,-239.7"/>
<polygon fill="none" stroke="#000000" points="543,-239.7 543,-262.7 681,-262.7 681,-239.7 543,-239.7"/>
<text text-anchor="start" x="547.5251" y="-248.8" font-family="Helvetica,sans-Serif" font-weight="bold" font-size="11.00" fill="#000000">TARGETS_USERS</text>
<text text-anchor="start" x="646.5219" y="-247.8" font-family="Helvetica,sans-Serif" font-size="11.00" fill="#000000">[table]</text>
<polygon fill="none" stroke="#000000" points="543,-220.7 543,-239.7 681,-239.7 681,-220.7 543,-220.7"/>
<text text-anchor="start" x="546" y="-226.8" font-family="Helvetica,sans-Serif" font-size="11.00" fill="#000000">...</text>
<polygon fill="#ffffff" stroke="transparent" points="543,-201.7 543,-220.7 594,-220.7 594,-201.7 543,-201.7"/>
<polygon fill="none" stroke="#000000" points="543,-201.7 543,-220.7 594,-220.7 594,-201.7 543,-201.7"/>
<text text-anchor="start" x="546" y="-207.8" font-family="Helvetica,sans-Serif" font-size="11.00" fill="#000000">&lt; 3</text>
<polygon fill="#ffffff" stroke="transparent" points="594,-201.7 594,-220.7 653,-220.7 653,-201.7 594,-201.7"/>
<polygon fill="none" stroke="#000000" points="594,-201.7 594,-220.7 653,-220.7 653,-201.7 594,-201.7"/>
<text text-anchor="start" x="611.4956" y="-207.8" font-family="Helvetica,sans-Serif" font-size="11.00" fill="#000000">35 rows</text>
<polygon fill="#ffffff" stroke="transparent" points="653,-201.7 653,-220.7 681,-220.7 681,-201.7 653,-201.7"/>
<polygon fill="none" stroke="#000000" points="653,-201.7 653,-220.7 681,-220.7 681,-201.7 653,-201.7"/>
<text text-anchor="start" x="671.8862" y="-207.8" font-family="Helvetica,sans-Serif" font-size="11.00" fill="#000000"> &#160;</text>
</a>
</g>
</g>
<!-- TARGETS_USERS&#45;&gt;USERS -->
<g id="edge9" class="edge">
<title>TARGETS_USERS:w&#45;&gt;USERS:e</title>
<path fill="none" stroke="#000000" d="M528.5881,-229.7515C472.9793,-230.2357 448.1131,-234.8919 401,-273.7 354.2645,-312.197 397.0493,-393.7 336.5,-393.7"/>
<polygon fill="#000000" stroke="#000000" points="535.0001,-229.7286 543.0129,-233.3 539,-229.7143 543,-229.7 543,-229.7 543,-229.7 539,-229.7143 542.9871,-226.1 535.0001,-229.7286 535.0001,-229.7286"/>
<ellipse fill="none" stroke="#000000" cx="531.8001" cy="-229.7401" rx="3.2" ry="3.2"/>
</g>
<!-- TRACER_LIGANDS -->
<g id="node12" class="node">
<title>TRACER_LIGANDS</title>
<g id="a_node12"><a xlink:href="../../tables/TRACER_LIGANDS.html" xlink:title="TRACER_LIGANDS" target="_top">
<polygon fill="#ffffff" stroke="transparent" points="541,-120.2 541,-181.2 683,-181.2 683,-120.2 541,-120.2"/>
<polygon fill="#f5f5f5" stroke="transparent" points="541,-157.7 541,-180.7 683,-180.7 683,-157.7 541,-157.7"/>
<polygon fill="none" stroke="#000000" points="541,-157.7 541,-180.7 683,-180.7 683,-157.7 541,-157.7"/>
<text text-anchor="start" x="545.6942" y="-166.8" font-family="Helvetica,sans-Serif" font-weight="bold" font-size="11.00" fill="#000000">TRACER_LIGANDS</text>
<text text-anchor="start" x="648.5219" y="-165.8" font-family="Helvetica,sans-Serif" font-size="11.00" fill="#000000">[table]</text>
<polygon fill="none" stroke="#000000" points="541,-138.7 541,-157.7 683,-157.7 683,-138.7 541,-138.7"/>
<text text-anchor="start" x="544" y="-144.8" font-family="Helvetica,sans-Serif" font-size="11.00" fill="#000000">...</text>
<polygon fill="#ffffff" stroke="transparent" points="541,-119.7 541,-138.7 587,-138.7 587,-119.7 541,-119.7"/>
<polygon fill="none" stroke="#000000" points="541,-119.7 541,-138.7 587,-138.7 587,-119.7 541,-119.7"/>
<text text-anchor="start" x="544" y="-125.8" font-family="Helvetica,sans-Serif" font-size="11.00" fill="#000000">&lt; 3</text>
<polygon fill="#ffffff" stroke="transparent" points="587,-119.7 587,-138.7 649,-138.7 649,-119.7 587,-119.7"/>
<polygon fill="none" stroke="#000000" points="587,-119.7 587,-138.7 649,-138.7 649,-119.7 587,-119.7"/>
<text text-anchor="start" x="601.3807" y="-125.8" font-family="Helvetica,sans-Serif" font-size="11.00" fill="#000000">416 rows</text>
<polygon fill="#ffffff" stroke="transparent" points="649,-119.7 649,-138.7 683,-138.7 683,-119.7 649,-119.7"/>
<polygon fill="none" stroke="#000000" points="649,-119.7 649,-138.7 683,-138.7 683,-119.7 649,-119.7"/>
<text text-anchor="start" x="664.4053" y="-125.8" font-family="Helvetica,sans-Serif" font-size="11.00" fill="#000000">7 &gt;</text>
</a>
</g>
</g>
<!-- TRACER_LIGANDS&#45;&gt;USERS -->
<g id="edge10" class="edge">
<title>TRACER_LIGANDS:w&#45;&gt;USERS:e</title>
<path fill="none" stroke="#000000" d="M526.3589,-147.687C471.2079,-147.6784 443.6134,-149.2807 401,-191.7 334.2079,-258.188 430.7434,-393.7 336.5,-393.7"/>
<polygon fill="#000000" stroke="#000000" points="533,-147.6928 540.9968,-151.3 537,-147.6964 541,-147.7 541,-147.7 541,-147.7 537,-147.6964 541.0032,-144.1 533,-147.6928 533,-147.6928"/>
<ellipse fill="none" stroke="#000000" cx="529.8" cy="-147.69" rx="3.2" ry="3.2"/>
</g>
<!-- TRACER_SYNTHESIS_REQUESTS -->
<g id="node13" class="node">
<title>TRACER_SYNTHESIS_REQUESTS</title>
<g id="a_node13"><a xlink:href="../../tables/TRACER_SYNTHESIS_REQUESTS.html" xlink:title="TRACER_SYNTHESIS_REQUESTS" target="_top">
<polygon fill="#ffffff" stroke="transparent" points="500.5,-38.2 500.5,-99.2 723.5,-99.2 723.5,-38.2 500.5,-38.2"/>
<polygon fill="#f5f5f5" stroke="transparent" points="501,-75.7 501,-98.7 724,-98.7 724,-75.7 501,-75.7"/>
<polygon fill="none" stroke="#000000" points="501,-75.7 501,-98.7 724,-98.7 724,-75.7 501,-75.7"/>
<text text-anchor="start" x="505.8578" y="-84.8" font-family="Helvetica,sans-Serif" font-weight="bold" font-size="11.00" fill="#000000">TRACER_SYNTHESIS_REQUESTS</text>
<text text-anchor="start" x="689.5219" y="-83.8" font-family="Helvetica,sans-Serif" font-size="11.00" fill="#000000">[table]</text>
<polygon fill="none" stroke="#000000" points="501,-56.7 501,-75.7 724,-75.7 724,-56.7 501,-56.7"/>
<text text-anchor="start" x="504" y="-62.8" font-family="Helvetica,sans-Serif" font-size="11.00" fill="#000000">...</text>
<polygon fill="#ffffff" stroke="transparent" points="501,-37.7 501,-56.7 593,-56.7 593,-37.7 501,-37.7"/>
<polygon fill="none" stroke="#000000" points="501,-37.7 501,-56.7 593,-56.7 593,-37.7 501,-37.7"/>
<text text-anchor="start" x="504" y="-43.8" font-family="Helvetica,sans-Serif" font-size="11.00" fill="#000000">&lt; 12</text>
<polygon fill="#ffffff" stroke="transparent" points="593,-37.7 593,-56.7 670,-56.7 670,-37.7 593,-37.7"/>
<polygon fill="none" stroke="#000000" points="593,-37.7 593,-56.7 670,-56.7 670,-37.7 593,-37.7"/>
<text text-anchor="start" x="628.4956" y="-43.8" font-family="Helvetica,sans-Serif" font-size="11.00" fill="#000000">21 rows</text>
<polygon fill="#ffffff" stroke="transparent" points="670,-37.7 670,-56.7 724,-56.7 724,-37.7 670,-37.7"/>
<polygon fill="none" stroke="#000000" points="670,-37.7 670,-56.7 724,-56.7 724,-37.7 670,-37.7"/>
<text text-anchor="start" x="705.4053" y="-43.8" font-family="Helvetica,sans-Serif" font-size="11.00" fill="#000000">2 &gt;</text>
</a>
</g>
</g>
<!-- TRACER_SYNTHESIS_REQUESTS&#45;&gt;USERS -->
<g id="edge11" class="edge">
<title>TRACER_SYNTHESIS_REQUESTS:w&#45;&gt;USERS:e</title>
<path fill="none" stroke="#000000" d="M486.5263,-65.947C447.9951,-67.4244 428.6417,-76.1954 401,-109.7 318.6281,-209.5433 465.9366,-393.7 336.5,-393.7"/>
<polygon fill="#000000" stroke="#000000" points="493.0012,-65.8366 501.0615,-69.2995 497.0006,-65.7683 501,-65.7 501,-65.7 501,-65.7 497.0006,-65.7683 500.9385,-62.1005 493.0012,-65.8366 493.0012,-65.8366"/>
<ellipse fill="none" stroke="#000000" cx="489.8016" cy="-65.8912" rx="3.2" ry="3.2"/>
</g>
<!-- USER_NOTIFICATION_SETTINGS -->
<g id="node14" class="node">
<title>USER_NOTIFICATION_SETTINGS</title>
<g id="a_node14"><a xlink:href="../../tables/USER_NOTIFICATION_SETTINGS.html" xlink:title="USER_NOTIFICATION_SETTINGS" target="_top">
<polygon fill="#ffffff" stroke="transparent" points="409,-694.7 409,-938.7 815,-938.7 815,-694.7 409,-694.7"/>
<polygon fill="#f5f5f5" stroke="transparent" points="411,-913.7 411,-936.7 813,-936.7 813,-913.7 411,-913.7"/>
<polygon fill="none" stroke="#000000" points="411,-913.7 411,-936.7 813,-936.7 813,-913.7 411,-913.7"/>
<text text-anchor="start" x="416" y="-922.8" font-family="Helvetica,sans-Serif" font-weight="bold" font-size="11.00" fill="#000000">USER_NOTIFICATION_SETTINGS</text>
<text text-anchor="start" x="778.0437" y="-921.8" font-family="Helvetica,sans-Serif" font-size="11.00" fill="#000000">[table]</text>
<polygon fill="none" stroke="#000000" points="411,-891.7 411,-913.7 642,-913.7 642,-891.7 411,-891.7"/>
<image xlink:href="../../images/primaryKeys.png" width="11px" height="12px" preserveAspectRatio="xMinYMin meet" x="416" y="-908.7"/>
<text text-anchor="start" x="431" y="-898.8" font-family="Helvetica,sans-Serif" font-size="11.00" fill="#000000">ID</text>
<polygon fill="none" stroke="#000000" points="642,-891.7 642,-913.7 813,-913.7 813,-891.7 642,-891.7"/>
<text text-anchor="start" x="645" y="-899.4" font-family="Helvetica,sans-Serif" font-size="11.00" fill="#000000">number[19]</text>
<polygon fill="none" stroke="#000000" points="411,-869.7 411,-891.7 642,-891.7 642,-869.7 411,-869.7"/>
<text text-anchor="start" x="431" y="-876.8" font-family="Helvetica,sans-Serif" font-size="11.00" fill="#000000">CREATED_AT</text>
<polygon fill="none" stroke="#000000" points="642,-869.7 642,-891.7 813,-891.7 813,-869.7 642,-869.7"/>
<text text-anchor="start" x="644.9896" y="-877.4" font-family="Helvetica,sans-Serif" font-size="11.00" fill="#000000">timestamp(6) with time zone[13,6]</text>
<polygon fill="none" stroke="#000000" points="411,-847.7 411,-869.7 642,-869.7 642,-847.7 411,-847.7"/>
<text text-anchor="start" x="431" y="-854.8" font-family="Helvetica,sans-Serif" font-size="11.00" fill="#000000">CREATED_BY</text>
<polygon fill="none" stroke="#000000" points="642,-847.7 642,-869.7 813,-869.7 813,-847.7 642,-847.7"/>
<text text-anchor="start" x="645" y="-855.4" font-family="Helvetica,sans-Serif" font-size="11.00" fill="#000000">number[19]</text>
<polygon fill="none" stroke="#000000" points="411,-825.7 411,-847.7 642,-847.7 642,-825.7 411,-825.7"/>
<text text-anchor="start" x="431" y="-832.8" font-family="Helvetica,sans-Serif" font-size="11.00" fill="#000000">UPDATED_AT</text>
<polygon fill="none" stroke="#000000" points="642,-825.7 642,-847.7 813,-847.7 813,-825.7 642,-825.7"/>
<text text-anchor="start" x="644.9896" y="-833.4" font-family="Helvetica,sans-Serif" font-size="11.00" fill="#000000">timestamp(6) with time zone[13,6]</text>
<polygon fill="none" stroke="#000000" points="411,-803.7 411,-825.7 642,-825.7 642,-803.7 411,-803.7"/>
<text text-anchor="start" x="431" y="-810.8" font-family="Helvetica,sans-Serif" font-size="11.00" fill="#000000">UPDATED_BY</text>
<polygon fill="none" stroke="#000000" points="642,-803.7 642,-825.7 813,-825.7 813,-803.7 642,-803.7"/>
<text text-anchor="start" x="645" y="-811.4" font-family="Helvetica,sans-Serif" font-size="11.00" fill="#000000">number[19]</text>
<polygon fill="none" stroke="#000000" points="411,-781.7 411,-803.7 642,-803.7 642,-781.7 411,-781.7"/>
<image xlink:href="../../images/foreignKeys.png" width="11px" height="12px" preserveAspectRatio="xMinYMin meet" x="416" y="-798.7"/>
<text text-anchor="start" x="431" y="-788.8" font-family="Helvetica,sans-Serif" font-size="11.00" fill="#000000">ACTIVITY_TYPE_ID</text>
<polygon fill="none" stroke="#000000" points="642,-781.7 642,-803.7 813,-803.7 813,-781.7 642,-781.7"/>
<text text-anchor="start" x="645" y="-789.4" font-family="Helvetica,sans-Serif" font-size="11.00" fill="#000000">number[19]</text>
<polygon fill="none" stroke="#000000" points="411,-759.7 411,-781.7 642,-781.7 642,-759.7 411,-759.7"/>
<image xlink:href="../../images/foreignKeys.png" width="11px" height="12px" preserveAspectRatio="xMinYMin meet" x="416" y="-776.7"/>
<text text-anchor="start" x="431" y="-766.8" font-family="Helvetica,sans-Serif" font-size="11.00" fill="#000000">USER_ID</text>
<polygon fill="none" stroke="#000000" points="642,-759.7 642,-781.7 813,-781.7 813,-759.7 642,-759.7"/>
<text text-anchor="start" x="645" y="-767.4" font-family="Helvetica,sans-Serif" font-size="11.00" fill="#000000">number[19]</text>
<polygon fill="none" stroke="#000000" points="411,-737.7 411,-759.7 642,-759.7 642,-737.7 411,-737.7"/>
<text text-anchor="start" x="431" y="-744.8" font-family="Helvetica,sans-Serif" font-size="11.00" fill="#000000">NOTIFICATION_TYPE</text>
<polygon fill="none" stroke="#000000" points="642,-737.7 642,-759.7 813,-759.7 813,-737.7 642,-737.7"/>
<text text-anchor="start" x="645" y="-745.4" font-family="Helvetica,sans-Serif" font-size="11.00" fill="#000000">varchar2[255]</text>
<polygon fill="none" stroke="#000000" points="411,-715.7 411,-737.7 642,-737.7 642,-715.7 411,-715.7"/>
<text text-anchor="start" x="431" y="-722.8" font-family="Helvetica,sans-Serif" font-size="11.00" fill="#000000">STATUS</text>
<polygon fill="none" stroke="#000000" points="642,-715.7 642,-737.7 813,-737.7 813,-715.7 642,-715.7"/>
<text text-anchor="start" x="645" y="-723.4" font-family="Helvetica,sans-Serif" font-size="11.00" fill="#000000">varchar2[255]</text>
<polygon fill="#ffffff" stroke="transparent" points="411,-696.7 411,-715.7 515,-715.7 515,-696.7 411,-696.7"/>
<polygon fill="none" stroke="#000000" points="411,-696.7 411,-715.7 515,-715.7 515,-696.7 411,-696.7"/>
<text text-anchor="start" x="414" y="-702.8" font-family="Helvetica,sans-Serif" font-size="11.00" fill="#000000">&lt; 2</text>
<polygon fill="#ffffff" stroke="transparent" points="515,-696.7 515,-715.7 642,-715.7 642,-696.7 515,-696.7"/>
<polygon fill="none" stroke="#000000" points="515,-696.7 515,-715.7 642,-715.7 642,-696.7 515,-696.7"/>
<text text-anchor="start" x="600.4956" y="-702.8" font-family="Helvetica,sans-Serif" font-size="11.00" fill="#000000">19 rows</text>
<polygon fill="#ffffff" stroke="transparent" points="642,-696.7 642,-715.7 813,-715.7 813,-696.7 642,-696.7"/>
<polygon fill="none" stroke="#000000" points="642,-696.7 642,-715.7 813,-715.7 813,-696.7 642,-696.7"/>
<text text-anchor="start" x="794.4053" y="-702.8" font-family="Helvetica,sans-Serif" font-size="11.00" fill="#000000">0 &gt;</text>
<polygon fill="none" stroke="#000000" stroke-width="2" points="410,-695.7 410,-937.7 814,-937.7 814,-695.7 410,-695.7"/>
</a>
</g>
</g>
<!-- USER_NOTIFICATION_SETTINGS&#45;&gt;ACTIVITY_TYPES -->
<g id="edge12" class="edge">
<title>USER_NOTIFICATION_SETTINGS:w&#45;&gt;ACTIVITY_TYPES:e</title>
<path fill="none" stroke="#000000" d="M396.663,-794.8899C336.6913,-816.3133 444.4304,-987.7 360.5,-987.7"/>
<polygon fill="#000000" stroke="#000000" points="403.0917,-793.908 411.5436,-796.2587 407.0459,-793.304 411,-792.7 411,-792.7 411,-792.7 407.0459,-793.304 410.4564,-789.1413 403.0917,-793.908 403.0917,-793.908"/>
<ellipse fill="none" stroke="#000000" cx="399.9284" cy="-794.3912" rx="3.2" ry="3.2"/>
</g>
<!-- USER_NOTIFICATION_SETTINGS&#45;&gt;USERS -->
<g id="edge13" class="edge">
<title>USER_NOTIFICATION_SETTINGS:w&#45;&gt;USERS:e</title>
<path fill="none" stroke="#000000" d="M396.244,-769.6185C256.4698,-747.5057 501.9584,-393.7 336.5,-393.7"/>
<polygon fill="#000000" stroke="#000000" points="403.0214,-770.1152 410.7368,-774.2904 407.0107,-770.4076 411,-770.7 411,-770.7 411,-770.7 407.0107,-770.4076 411.2632,-767.1096 403.0214,-770.1152 403.0214,-770.1152"/>
<ellipse fill="none" stroke="#000000" cx="399.83" cy="-769.8813" rx="3.2" ry="3.2"/>
</g>
</g>
</svg>
