<?xml version="1.0" encoding="UTF-8" standalone="no"?>
<!DOCTYPE svg PUBLIC "-//W3C//DTD SVG 1.1//EN"
 "http://www.w3.org/Graphics/SVG/1.1/DTD/svg11.dtd">
<!-- Generated by graphviz version 2.40.1 (20161225.0304)
 -->
<!-- Title: oneDegreeRelationshipsDiagram Pages: 1 -->
<svg width="640pt" height="341pt"
 viewBox="0.00 0.00 640.00 340.70" xmlns="http://www.w3.org/2000/svg" xmlns:xlink="http://www.w3.org/1999/xlink">
<g id="graph0" class="graph" transform="scale(1 1) rotate(0) translate(4 336.7)">
<title>oneDegreeRelationshipsDiagram</title>
<polygon fill="#ffffff" stroke="transparent" points="-4,4 -4,-336.7 636,-336.7 636,4 -4,4"/>
<text text-anchor="middle" x="72.4936" y="-7.3" font-family="Helvetica,sans-Serif" font-size="11.00" fill="#000000">Generated by SchemaSpy</text>
<!-- USER_NOTIFICATION_SETTINGS -->
<g id="node1" class="node">
<title>USER_NOTIFICATION_SETTINGS</title>
<g id="a_node1"><a xlink:href="../../tables/USER_NOTIFICATION_SETTINGS.html" xlink:title="USER_NOTIFICATION_SETTINGS" target="_top">
<polygon fill="#ffffff" stroke="transparent" points="218,-84.7 218,-328.7 624,-328.7 624,-84.7 218,-84.7"/>
<polygon fill="#f5f5f5" stroke="transparent" points="220,-303.7 220,-326.7 622,-326.7 622,-303.7 220,-303.7"/>
<polygon fill="none" stroke="#000000" points="220,-303.7 220,-326.7 622,-326.7 622,-303.7 220,-303.7"/>
<text text-anchor="start" x="225" y="-312.8" font-family="Helvetica,sans-Serif" font-weight="bold" font-size="11.00" fill="#000000">USER_NOTIFICATION_SETTINGS</text>
<text text-anchor="start" x="587.0437" y="-311.8" font-family="Helvetica,sans-Serif" font-size="11.00" fill="#000000">[table]</text>
<polygon fill="none" stroke="#000000" points="220,-281.7 220,-303.7 451,-303.7 451,-281.7 220,-281.7"/>
<image xlink:href="../../images/primaryKeys.png" width="11px" height="12px" preserveAspectRatio="xMinYMin meet" x="225" y="-298.7"/>
<text text-anchor="start" x="240" y="-288.8" font-family="Helvetica,sans-Serif" font-size="11.00" fill="#000000">ID</text>
<polygon fill="none" stroke="#000000" points="451,-281.7 451,-303.7 622,-303.7 622,-281.7 451,-281.7"/>
<text text-anchor="start" x="454" y="-289.4" font-family="Helvetica,sans-Serif" font-size="11.00" fill="#000000">number[19]</text>
<polygon fill="none" stroke="#000000" points="220,-259.7 220,-281.7 451,-281.7 451,-259.7 220,-259.7"/>
<text text-anchor="start" x="240" y="-266.8" font-family="Helvetica,sans-Serif" font-size="11.00" fill="#000000">CREATED_AT</text>
<polygon fill="none" stroke="#000000" points="451,-259.7 451,-281.7 622,-281.7 622,-259.7 451,-259.7"/>
<text text-anchor="start" x="453.9896" y="-267.4" font-family="Helvetica,sans-Serif" font-size="11.00" fill="#000000">timestamp(6) with time zone[13,6]</text>
<polygon fill="none" stroke="#000000" points="220,-237.7 220,-259.7 451,-259.7 451,-237.7 220,-237.7"/>
<text text-anchor="start" x="240" y="-244.8" font-family="Helvetica,sans-Serif" font-size="11.00" fill="#000000">CREATED_BY</text>
<polygon fill="none" stroke="#000000" points="451,-237.7 451,-259.7 622,-259.7 622,-237.7 451,-237.7"/>
<text text-anchor="start" x="454" y="-245.4" font-family="Helvetica,sans-Serif" font-size="11.00" fill="#000000">number[19]</text>
<polygon fill="none" stroke="#000000" points="220,-215.7 220,-237.7 451,-237.7 451,-215.7 220,-215.7"/>
<text text-anchor="start" x="240" y="-222.8" font-family="Helvetica,sans-Serif" font-size="11.00" fill="#000000">UPDATED_AT</text>
<polygon fill="none" stroke="#000000" points="451,-215.7 451,-237.7 622,-237.7 622,-215.7 451,-215.7"/>
<text text-anchor="start" x="453.9896" y="-223.4" font-family="Helvetica,sans-Serif" font-size="11.00" fill="#000000">timestamp(6) with time zone[13,6]</text>
<polygon fill="none" stroke="#000000" points="220,-193.7 220,-215.7 451,-215.7 451,-193.7 220,-193.7"/>
<text text-anchor="start" x="240" y="-200.8" font-family="Helvetica,sans-Serif" font-size="11.00" fill="#000000">UPDATED_BY</text>
<polygon fill="none" stroke="#000000" points="451,-193.7 451,-215.7 622,-215.7 622,-193.7 451,-193.7"/>
<text text-anchor="start" x="454" y="-201.4" font-family="Helvetica,sans-Serif" font-size="11.00" fill="#000000">number[19]</text>
<polygon fill="none" stroke="#000000" points="220,-171.7 220,-193.7 451,-193.7 451,-171.7 220,-171.7"/>
<image xlink:href="../../images/foreignKeys.png" width="11px" height="12px" preserveAspectRatio="xMinYMin meet" x="225" y="-188.7"/>
<text text-anchor="start" x="240" y="-178.8" font-family="Helvetica,sans-Serif" font-size="11.00" fill="#000000">ACTIVITY_TYPE_ID</text>
<polygon fill="none" stroke="#000000" points="451,-171.7 451,-193.7 622,-193.7 622,-171.7 451,-171.7"/>
<text text-anchor="start" x="454" y="-179.4" font-family="Helvetica,sans-Serif" font-size="11.00" fill="#000000">number[19]</text>
<polygon fill="none" stroke="#000000" points="220,-149.7 220,-171.7 451,-171.7 451,-149.7 220,-149.7"/>
<image xlink:href="../../images/foreignKeys.png" width="11px" height="12px" preserveAspectRatio="xMinYMin meet" x="225" y="-166.7"/>
<text text-anchor="start" x="240" y="-156.8" font-family="Helvetica,sans-Serif" font-size="11.00" fill="#000000">USER_ID</text>
<polygon fill="none" stroke="#000000" points="451,-149.7 451,-171.7 622,-171.7 622,-149.7 451,-149.7"/>
<text text-anchor="start" x="454" y="-157.4" font-family="Helvetica,sans-Serif" font-size="11.00" fill="#000000">number[19]</text>
<polygon fill="none" stroke="#000000" points="220,-127.7 220,-149.7 451,-149.7 451,-127.7 220,-127.7"/>
<text text-anchor="start" x="240" y="-134.8" font-family="Helvetica,sans-Serif" font-size="11.00" fill="#000000">NOTIFICATION_TYPE</text>
<polygon fill="none" stroke="#000000" points="451,-127.7 451,-149.7 622,-149.7 622,-127.7 451,-127.7"/>
<text text-anchor="start" x="454" y="-135.4" font-family="Helvetica,sans-Serif" font-size="11.00" fill="#000000">varchar2[255]</text>
<polygon fill="none" stroke="#000000" points="220,-105.7 220,-127.7 451,-127.7 451,-105.7 220,-105.7"/>
<text text-anchor="start" x="240" y="-112.8" font-family="Helvetica,sans-Serif" font-size="11.00" fill="#000000">STATUS</text>
<polygon fill="none" stroke="#000000" points="451,-105.7 451,-127.7 622,-127.7 622,-105.7 451,-105.7"/>
<text text-anchor="start" x="454" y="-113.4" font-family="Helvetica,sans-Serif" font-size="11.00" fill="#000000">varchar2[255]</text>
<polygon fill="#ffffff" stroke="transparent" points="220,-86.7 220,-105.7 324,-105.7 324,-86.7 220,-86.7"/>
<polygon fill="none" stroke="#000000" points="220,-86.7 220,-105.7 324,-105.7 324,-86.7 220,-86.7"/>
<text text-anchor="start" x="223" y="-92.8" font-family="Helvetica,sans-Serif" font-size="11.00" fill="#000000">&lt; 2</text>
<polygon fill="#ffffff" stroke="transparent" points="324,-86.7 324,-105.7 451,-105.7 451,-86.7 324,-86.7"/>
<polygon fill="none" stroke="#000000" points="324,-86.7 324,-105.7 451,-105.7 451,-86.7 324,-86.7"/>
<text text-anchor="start" x="409.4956" y="-92.8" font-family="Helvetica,sans-Serif" font-size="11.00" fill="#000000">19 rows</text>
<polygon fill="#ffffff" stroke="transparent" points="451,-86.7 451,-105.7 622,-105.7 622,-86.7 451,-86.7"/>
<polygon fill="none" stroke="#000000" points="451,-86.7 451,-105.7 622,-105.7 622,-86.7 451,-86.7"/>
<text text-anchor="start" x="603.4053" y="-92.8" font-family="Helvetica,sans-Serif" font-size="11.00" fill="#000000">0 &gt;</text>
<polygon fill="none" stroke="#000000" stroke-width="2" points="219,-85.7 219,-327.7 623,-327.7 623,-85.7 219,-85.7"/>
</a>
</g>
</g>
<!-- ACTIVITY_TYPES -->
<g id="node2" class="node">
<title>ACTIVITY_TYPES</title>
<g id="a_node2"><a xlink:href="../../tables/ACTIVITY_TYPES.html" xlink:title="ACTIVITY_TYPES" target="_top">
<polygon fill="#ffffff" stroke="transparent" points="8,-164.2 8,-269.2 169,-269.2 169,-164.2 8,-164.2"/>
<polygon fill="#f5f5f5" stroke="transparent" points="8.5,-245.7 8.5,-268.7 169.5,-268.7 169.5,-245.7 8.5,-245.7"/>
<polygon fill="none" stroke="#000000" points="8.5,-245.7 8.5,-268.7 169.5,-268.7 169.5,-245.7 8.5,-245.7"/>
<text text-anchor="start" x="13.5" y="-254.8" font-family="Helvetica,sans-Serif" font-weight="bold" font-size="11.00" fill="#000000">ACTIVITY_TYPES</text>
<text text-anchor="start" x="134.5437" y="-253.8" font-family="Helvetica,sans-Serif" font-size="11.00" fill="#000000">[table]</text>
<polygon fill="none" stroke="#000000" points="8.5,-223.7 8.5,-245.7 169.5,-245.7 169.5,-223.7 8.5,-223.7"/>
<image xlink:href="../../images/primaryKeys.png" width="11px" height="12px" preserveAspectRatio="xMinYMin meet" x="13.5" y="-240.7"/>
<text text-anchor="start" x="28.5" y="-230.8" font-family="Helvetica,sans-Serif" font-size="11.00" fill="#000000">ID</text>
<polygon fill="none" stroke="#000000" points="8.5,-201.7 8.5,-223.7 169.5,-223.7 169.5,-201.7 8.5,-201.7"/>
<image xlink:href="../../images/foreignKeys.png" width="11px" height="12px" preserveAspectRatio="xMinYMin meet" x="13.5" y="-218.7"/>
<text text-anchor="start" x="28.5" y="-208.8" font-family="Helvetica,sans-Serif" font-size="11.00" fill="#000000">ACTIVITY_STATUS_ID</text>
<polygon fill="none" stroke="#000000" points="8.5,-182.7 8.5,-201.7 169.5,-201.7 169.5,-182.7 8.5,-182.7"/>
<text text-anchor="start" x="11.5" y="-188.8" font-family="Helvetica,sans-Serif" font-size="11.00" fill="#000000">...</text>
<polygon fill="#ffffff" stroke="transparent" points="8.5,-163.7 8.5,-182.7 66.5,-182.7 66.5,-163.7 8.5,-163.7"/>
<polygon fill="none" stroke="#000000" points="8.5,-163.7 8.5,-182.7 66.5,-182.7 66.5,-163.7 8.5,-163.7"/>
<text text-anchor="start" x="11.5" y="-169.8" font-family="Helvetica,sans-Serif" font-size="11.00" fill="#000000">&lt; 1</text>
<polygon fill="#ffffff" stroke="transparent" points="66.5,-163.7 66.5,-182.7 129.5,-182.7 129.5,-163.7 66.5,-163.7"/>
<polygon fill="none" stroke="#000000" points="66.5,-163.7 66.5,-182.7 129.5,-182.7 129.5,-163.7 66.5,-163.7"/>
<text text-anchor="start" x="87.9956" y="-169.8" font-family="Helvetica,sans-Serif" font-size="11.00" fill="#000000">69 rows</text>
<polygon fill="#ffffff" stroke="transparent" points="129.5,-163.7 129.5,-182.7 169.5,-182.7 169.5,-163.7 129.5,-163.7"/>
<polygon fill="none" stroke="#000000" points="129.5,-163.7 129.5,-182.7 169.5,-182.7 169.5,-163.7 129.5,-163.7"/>
<text text-anchor="start" x="150.9053" y="-169.8" font-family="Helvetica,sans-Serif" font-size="11.00" fill="#000000">3 &gt;</text>
</a>
</g>
</g>
<!-- USER_NOTIFICATION_SETTINGS&#45;&gt;ACTIVITY_TYPES -->
<g id="edge1" class="edge">
<title>USER_NOTIFICATION_SETTINGS:w&#45;&gt;ACTIVITY_TYPES:e</title>
<path fill="none" stroke="#000000" d="M206.1372,-187.4988C191.3861,-200.3719 195.6756,-234.7 169.5,-234.7"/>
<polygon fill="#000000" stroke="#000000" points="212.4401,-185.317 221.1777,-186.1019 216.2201,-184.0085 220,-182.7 220,-182.7 220,-182.7 216.2201,-184.0085 218.8223,-179.2981 212.4401,-185.317 212.4401,-185.317"/>
<ellipse fill="none" stroke="#000000" cx="209.4162" cy="-186.3638" rx="3.2" ry="3.2"/>
</g>
<!-- USERS -->
<g id="node3" class="node">
<title>USERS</title>
<g id="a_node3"><a xlink:href="../../tables/USERS.html" xlink:title="USERS" target="_top">
<polygon fill="#ffffff" stroke="transparent" points="31.5,-38.2 31.5,-143.2 145.5,-143.2 145.5,-38.2 31.5,-38.2"/>
<polygon fill="#f5f5f5" stroke="transparent" points="31.5,-119.7 31.5,-142.7 145.5,-142.7 145.5,-119.7 31.5,-119.7"/>
<polygon fill="none" stroke="#000000" points="31.5,-119.7 31.5,-142.7 145.5,-142.7 145.5,-119.7 31.5,-119.7"/>
<text text-anchor="start" x="36.5" y="-128.8" font-family="Helvetica,sans-Serif" font-weight="bold" font-size="11.00" fill="#000000">USERS</text>
<text text-anchor="start" x="110.5437" y="-127.8" font-family="Helvetica,sans-Serif" font-size="11.00" fill="#000000">[table]</text>
<polygon fill="none" stroke="#000000" points="31.5,-97.7 31.5,-119.7 145.5,-119.7 145.5,-97.7 31.5,-97.7"/>
<image xlink:href="../../images/primaryKeys.png" width="11px" height="12px" preserveAspectRatio="xMinYMin meet" x="36.5" y="-114.7"/>
<text text-anchor="start" x="51.5" y="-104.8" font-family="Helvetica,sans-Serif" font-size="11.00" fill="#000000">ID</text>
<polygon fill="none" stroke="#000000" points="31.5,-75.7 31.5,-97.7 145.5,-97.7 145.5,-75.7 31.5,-75.7"/>
<image xlink:href="../../images/primaryKeys.png" width="11px" height="12px" preserveAspectRatio="xMinYMin meet" x="36.5" y="-92.7"/>
<text text-anchor="start" x="51.5" y="-82.8" font-family="Helvetica,sans-Serif" font-size="11.00" fill="#000000">USERNAME</text>
<polygon fill="none" stroke="#000000" points="31.5,-56.7 31.5,-75.7 145.5,-75.7 145.5,-56.7 31.5,-56.7"/>
<text text-anchor="start" x="34.5" y="-62.8" font-family="Helvetica,sans-Serif" font-size="11.00" fill="#000000">...</text>
<polygon fill="#ffffff" stroke="transparent" points="31.5,-37.7 31.5,-56.7 61.5,-56.7 61.5,-37.7 31.5,-37.7"/>
<polygon fill="none" stroke="#000000" points="31.5,-37.7 31.5,-56.7 61.5,-56.7 61.5,-37.7 31.5,-37.7"/>
<text text-anchor="start" x="34.5" y="-43.8" font-family="Helvetica,sans-Serif" font-size="11.00" fill="#000000"> &#160;</text>
<polygon fill="#ffffff" stroke="transparent" points="61.5,-37.7 61.5,-56.7 114.5,-56.7 114.5,-37.7 61.5,-37.7"/>
<polygon fill="none" stroke="#000000" points="61.5,-37.7 61.5,-56.7 114.5,-56.7 114.5,-37.7 61.5,-37.7"/>
<text text-anchor="start" x="72.9956" y="-43.8" font-family="Helvetica,sans-Serif" font-size="11.00" fill="#000000">33 rows</text>
<polygon fill="#ffffff" stroke="transparent" points="114.5,-37.7 114.5,-56.7 145.5,-56.7 145.5,-37.7 114.5,-37.7"/>
<polygon fill="none" stroke="#000000" points="114.5,-37.7 114.5,-56.7 145.5,-56.7 145.5,-37.7 114.5,-37.7"/>
<text text-anchor="start" x="126.9053" y="-43.8" font-family="Helvetica,sans-Serif" font-size="11.00" fill="#000000">9 &gt;</text>
</a>
</g>
</g>
<!-- USER_NOTIFICATION_SETTINGS&#45;&gt;USERS -->
<g id="edge2" class="edge">
<title>USER_NOTIFICATION_SETTINGS:w&#45;&gt;USERS:e</title>
<path fill="none" stroke="#000000" d="M205.8151,-158.0498C180.4604,-147.4532 180.3585,-108.7 145.5,-108.7"/>
<polygon fill="#000000" stroke="#000000" points="212.1361,-159.2307 219.3388,-164.2388 216.068,-159.9654 220,-160.7 220,-160.7 220,-160.7 216.068,-159.9654 220.6612,-157.1612 212.1361,-159.2307 212.1361,-159.2307"/>
<ellipse fill="none" stroke="#000000" cx="208.9905" cy="-158.643" rx="3.2" ry="3.2"/>
</g>
</g>
</svg>
