<?xml version="1.0" encoding="UTF-8" standalone="no"?>
<!DOCTYPE svg PUBLIC "-//W3C//DTD SVG 1.1//EN"
 "http://www.w3.org/Graphics/SVG/1.1/DTD/svg11.dtd">
<!-- Generated by graphviz version 2.40.1 (20161225.0304)
 -->
<!-- Title: twoDegreesRelationshipsDiagram Pages: 1 -->
<svg width="984pt" height="542pt"
 viewBox="0.00 0.00 984.00 542.20" xmlns="http://www.w3.org/2000/svg" xmlns:xlink="http://www.w3.org/1999/xlink">
<g id="graph0" class="graph" transform="scale(1 1) rotate(0) translate(4 538.2)">
<title>twoDegreesRelationshipsDiagram</title>
<polygon fill="#ffffff" stroke="transparent" points="-4,4 -4,-538.2 980,-538.2 980,4 -4,4"/>
<text text-anchor="middle" x="72.4936" y="-7.3" font-family="Helvetica,sans-Serif" font-size="11.00" fill="#000000">Generated by SchemaSpy</text>
<!-- SCREENING_CONDITIONS -->
<g id="node1" class="node">
<title>SCREENING_CONDITIONS</title>
<g id="a_node1"><a xlink:href="../../tables/SCREENING_CONDITIONS.html" xlink:title="SCREENING_CONDITIONS" target="_top">
<polygon fill="#ffffff" stroke="transparent" points="192,-319.2 192,-490.2 430,-490.2 430,-319.2 192,-319.2"/>
<polygon fill="#f5f5f5" stroke="transparent" points="192,-466.7 192,-489.7 430,-489.7 430,-466.7 192,-466.7"/>
<polygon fill="none" stroke="#000000" points="192,-466.7 192,-489.7 430,-489.7 430,-466.7 192,-466.7"/>
<text text-anchor="start" x="197" y="-475.8" font-family="Helvetica,sans-Serif" font-weight="bold" font-size="11.00" fill="#000000">SCREENING_CONDITIONS</text>
<text text-anchor="start" x="395.0437" y="-474.8" font-family="Helvetica,sans-Serif" font-size="11.00" fill="#000000">[table]</text>
<polygon fill="none" stroke="#000000" points="192,-444.7 192,-466.7 430,-466.7 430,-444.7 192,-444.7"/>
<image xlink:href="../../images/primaryKeys.png" width="11px" height="12px" preserveAspectRatio="xMinYMin meet" x="197" y="-461.7"/>
<text text-anchor="start" x="212" y="-451.8" font-family="Helvetica,sans-Serif" font-size="11.00" fill="#000000">ID</text>
<polygon fill="none" stroke="#000000" points="192,-422.7 192,-444.7 430,-444.7 430,-422.7 192,-422.7"/>
<image xlink:href="../../images/foreignKeys.png" width="11px" height="12px" preserveAspectRatio="xMinYMin meet" x="197" y="-439.7"/>
<text text-anchor="start" x="212" y="-429.8" font-family="Helvetica,sans-Serif" font-size="11.00" fill="#000000">DEL_LIBRARY_ID</text>
<polygon fill="none" stroke="#000000" points="192,-400.7 192,-422.7 430,-422.7 430,-400.7 192,-400.7"/>
<image xlink:href="../../images/foreignKeys.png" width="11px" height="12px" preserveAspectRatio="xMinYMin meet" x="197" y="-417.7"/>
<text text-anchor="start" x="212" y="-407.8" font-family="Helvetica,sans-Serif" font-size="11.00" fill="#000000">SCREEN_MODE_ID</text>
<polygon fill="none" stroke="#000000" points="192,-378.7 192,-400.7 430,-400.7 430,-378.7 192,-378.7"/>
<image xlink:href="../../images/foreignKeys.png" width="11px" height="12px" preserveAspectRatio="xMinYMin meet" x="197" y="-395.7"/>
<text text-anchor="start" x="212" y="-385.8" font-family="Helvetica,sans-Serif" font-size="11.00" fill="#000000">TEMPLATE_REFERENCE_ID</text>
<polygon fill="none" stroke="#000000" points="192,-356.7 192,-378.7 430,-378.7 430,-356.7 192,-356.7"/>
<image xlink:href="../../images/foreignKeys.png" width="11px" height="12px" preserveAspectRatio="xMinYMin meet" x="197" y="-373.7"/>
<text text-anchor="start" x="212" y="-363.8" font-family="Helvetica,sans-Serif" font-size="11.00" fill="#000000">TEMPLATE_DATA_REFERENCE_ID</text>
<polygon fill="none" stroke="#000000" points="192,-337.7 192,-356.7 430,-356.7 430,-337.7 192,-337.7"/>
<text text-anchor="start" x="195" y="-343.8" font-family="Helvetica,sans-Serif" font-size="11.00" fill="#000000">...</text>
<polygon fill="#ffffff" stroke="transparent" points="192,-318.7 192,-337.7 286,-337.7 286,-318.7 192,-318.7"/>
<polygon fill="none" stroke="#000000" points="192,-318.7 192,-337.7 286,-337.7 286,-318.7 192,-318.7"/>
<text text-anchor="start" x="195" y="-324.8" font-family="Helvetica,sans-Serif" font-size="11.00" fill="#000000">&lt; 4</text>
<polygon fill="#ffffff" stroke="transparent" points="286,-318.7 286,-337.7 372,-337.7 372,-318.7 286,-318.7"/>
<polygon fill="none" stroke="#000000" points="286,-318.7 286,-337.7 372,-337.7 372,-318.7 286,-318.7"/>
<text text-anchor="start" x="324.3807" y="-324.8" font-family="Helvetica,sans-Serif" font-size="11.00" fill="#000000">128 rows</text>
<polygon fill="#ffffff" stroke="transparent" points="372,-318.7 372,-337.7 430,-337.7 430,-318.7 372,-318.7"/>
<polygon fill="none" stroke="#000000" points="372,-318.7 372,-337.7 430,-337.7 430,-318.7 372,-318.7"/>
<text text-anchor="start" x="411.4053" y="-324.8" font-family="Helvetica,sans-Serif" font-size="11.00" fill="#000000">3 &gt;</text>
</a>
</g>
</g>
<!-- DEL_LIBRARIES -->
<g id="node2" class="node">
<title>DEL_LIBRARIES</title>
<g id="a_node2"><a xlink:href="../../tables/DEL_LIBRARIES.html" xlink:title="DEL_LIBRARIES" target="_top">
<polygon fill="#ffffff" stroke="transparent" points="12,-466.2 12,-527.2 139,-527.2 139,-466.2 12,-466.2"/>
<polygon fill="#f5f5f5" stroke="transparent" points="12.5,-503.7 12.5,-526.7 139.5,-526.7 139.5,-503.7 12.5,-503.7"/>
<polygon fill="none" stroke="#000000" points="12.5,-503.7 12.5,-526.7 139.5,-526.7 139.5,-503.7 12.5,-503.7"/>
<text text-anchor="start" x="17.0197" y="-512.8" font-family="Helvetica,sans-Serif" font-weight="bold" font-size="11.00" fill="#000000">DEL_LIBRARIES</text>
<text text-anchor="start" x="105.0219" y="-511.8" font-family="Helvetica,sans-Serif" font-size="11.00" fill="#000000">[table]</text>
<polygon fill="none" stroke="#000000" points="12.5,-484.7 12.5,-503.7 139.5,-503.7 139.5,-484.7 12.5,-484.7"/>
<text text-anchor="start" x="15.5" y="-490.8" font-family="Helvetica,sans-Serif" font-size="11.00" fill="#000000">...</text>
<polygon fill="#ffffff" stroke="transparent" points="12.5,-465.7 12.5,-484.7 49.5,-484.7 49.5,-465.7 12.5,-465.7"/>
<polygon fill="none" stroke="#000000" points="12.5,-465.7 12.5,-484.7 49.5,-484.7 49.5,-465.7 12.5,-465.7"/>
<text text-anchor="start" x="15.5" y="-471.8" font-family="Helvetica,sans-Serif" font-size="11.00" fill="#000000"> &#160;</text>
<polygon fill="#ffffff" stroke="transparent" points="49.5,-465.7 49.5,-484.7 105.5,-484.7 105.5,-465.7 49.5,-465.7"/>
<polygon fill="none" stroke="#000000" points="49.5,-465.7 49.5,-484.7 105.5,-484.7 105.5,-465.7 49.5,-465.7"/>
<text text-anchor="start" x="63.9956" y="-471.8" font-family="Helvetica,sans-Serif" font-size="11.00" fill="#000000">23 rows</text>
<polygon fill="#ffffff" stroke="transparent" points="105.5,-465.7 105.5,-484.7 139.5,-484.7 139.5,-465.7 105.5,-465.7"/>
<polygon fill="none" stroke="#000000" points="105.5,-465.7 105.5,-484.7 139.5,-484.7 139.5,-465.7 105.5,-465.7"/>
<text text-anchor="start" x="120.9053" y="-471.8" font-family="Helvetica,sans-Serif" font-size="11.00" fill="#000000">1 &gt;</text>
</a>
</g>
</g>
<!-- SCREENING_CONDITIONS&#45;&gt;DEL_LIBRARIES -->
<g id="edge1" class="edge">
<title>SCREENING_CONDITIONS:w&#45;&gt;DEL_LIBRARIES:e</title>
<path fill="none" stroke="#000000" d="M177.9511,-438.4081C161.2907,-452.5525 168.8436,-493.7 139.5,-493.7"/>
<polygon fill="#000000" stroke="#000000" points="184.4146,-436.2421 193.1439,-437.1134 188.2073,-434.971 192,-433.7 192,-433.7 192,-433.7 188.2073,-434.971 190.8561,-430.2866 184.4146,-436.2421 184.4146,-436.2421"/>
<ellipse fill="none" stroke="#000000" cx="181.3805" cy="-437.2589" rx="3.2" ry="3.2"/>
</g>
<!-- SCREEN_MODES -->
<g id="node3" class="node">
<title>SCREEN_MODES</title>
<g id="a_node3"><a xlink:href="../../tables/SCREEN_MODES.html" xlink:title="SCREEN_MODES" target="_top">
<polygon fill="#ffffff" stroke="transparent" points="8,-384.2 8,-445.2 143,-445.2 143,-384.2 8,-384.2"/>
<polygon fill="#f5f5f5" stroke="transparent" points="8.5,-421.7 8.5,-444.7 143.5,-444.7 143.5,-421.7 8.5,-421.7"/>
<polygon fill="none" stroke="#000000" points="8.5,-421.7 8.5,-444.7 143.5,-444.7 143.5,-421.7 8.5,-421.7"/>
<text text-anchor="start" x="13.3616" y="-430.8" font-family="Helvetica,sans-Serif" font-weight="bold" font-size="11.00" fill="#000000">SCREEN_MODES</text>
<text text-anchor="start" x="109.0219" y="-429.8" font-family="Helvetica,sans-Serif" font-size="11.00" fill="#000000">[table]</text>
<polygon fill="none" stroke="#000000" points="8.5,-402.7 8.5,-421.7 143.5,-421.7 143.5,-402.7 8.5,-402.7"/>
<text text-anchor="start" x="11.5" y="-408.8" font-family="Helvetica,sans-Serif" font-size="11.00" fill="#000000">...</text>
<polygon fill="#ffffff" stroke="transparent" points="8.5,-383.7 8.5,-402.7 49.5,-402.7 49.5,-383.7 8.5,-383.7"/>
<polygon fill="none" stroke="#000000" points="8.5,-383.7 8.5,-402.7 49.5,-402.7 49.5,-383.7 8.5,-383.7"/>
<text text-anchor="start" x="11.5" y="-389.8" font-family="Helvetica,sans-Serif" font-size="11.00" fill="#000000"> &#160;</text>
<polygon fill="#ffffff" stroke="transparent" points="49.5,-383.7 49.5,-402.7 107.5,-402.7 107.5,-383.7 49.5,-383.7"/>
<polygon fill="none" stroke="#000000" points="49.5,-383.7 49.5,-402.7 107.5,-402.7 107.5,-383.7 49.5,-383.7"/>
<text text-anchor="start" x="65.9956" y="-389.8" font-family="Helvetica,sans-Serif" font-size="11.00" fill="#000000">12 rows</text>
<polygon fill="#ffffff" stroke="transparent" points="107.5,-383.7 107.5,-402.7 143.5,-402.7 143.5,-383.7 107.5,-383.7"/>
<polygon fill="none" stroke="#000000" points="107.5,-383.7 107.5,-402.7 143.5,-402.7 143.5,-383.7 107.5,-383.7"/>
<text text-anchor="start" x="124.9053" y="-389.8" font-family="Helvetica,sans-Serif" font-size="11.00" fill="#000000">1 &gt;</text>
</a>
</g>
</g>
<!-- SCREENING_CONDITIONS&#45;&gt;SCREEN_MODES -->
<g id="edge2" class="edge">
<title>SCREENING_CONDITIONS:w&#45;&gt;SCREEN_MODES:e</title>
<path fill="none" stroke="#000000" d="M177.2829,-411.7C166.2886,-411.7 159.1615,-411.7 143.5,-411.7"/>
<polygon fill="#000000" stroke="#000000" points="184,-411.7001 192,-415.3 188,-411.7 192,-411.7 192,-411.7 192,-411.7 188,-411.7 192,-408.1 184,-411.7001 184,-411.7001"/>
<ellipse fill="none" stroke="#000000" cx="180.8" cy="-411.7001" rx="3.2" ry="3.2"/>
</g>
<!-- REFERENCES -->
<g id="node4" class="node">
<title>REFERENCES</title>
<g id="a_node4"><a xlink:href="../../tables/REFERENCES.html" xlink:title="REFERENCES" target="_top">
<polygon fill="#ffffff" stroke="transparent" points="16.5,-302.2 16.5,-363.2 134.5,-363.2 134.5,-302.2 16.5,-302.2"/>
<polygon fill="#f5f5f5" stroke="transparent" points="16.5,-339.7 16.5,-362.7 134.5,-362.7 134.5,-339.7 16.5,-339.7"/>
<polygon fill="none" stroke="#000000" points="16.5,-339.7 16.5,-362.7 134.5,-362.7 134.5,-339.7 16.5,-339.7"/>
<text text-anchor="start" x="21.4185" y="-348.8" font-family="Helvetica,sans-Serif" font-weight="bold" font-size="11.00" fill="#000000">REFERENCES</text>
<text text-anchor="start" x="100.0219" y="-347.8" font-family="Helvetica,sans-Serif" font-size="11.00" fill="#000000">[table]</text>
<polygon fill="none" stroke="#000000" points="16.5,-320.7 16.5,-339.7 134.5,-339.7 134.5,-320.7 16.5,-320.7"/>
<text text-anchor="start" x="19.5" y="-326.8" font-family="Helvetica,sans-Serif" font-size="11.00" fill="#000000">...</text>
<polygon fill="#ffffff" stroke="transparent" points="16.5,-301.7 16.5,-320.7 42.5,-320.7 42.5,-301.7 16.5,-301.7"/>
<polygon fill="none" stroke="#000000" points="16.5,-301.7 16.5,-320.7 42.5,-320.7 42.5,-301.7 16.5,-301.7"/>
<text text-anchor="start" x="19.5" y="-307.8" font-family="Helvetica,sans-Serif" font-size="11.00" fill="#000000">&lt; 1</text>
<polygon fill="#ffffff" stroke="transparent" points="42.5,-301.7 42.5,-320.7 104.5,-320.7 104.5,-301.7 42.5,-301.7"/>
<polygon fill="none" stroke="#000000" points="42.5,-301.7 42.5,-320.7 104.5,-320.7 104.5,-301.7 42.5,-301.7"/>
<text text-anchor="start" x="47.7089" y="-307.8" font-family="Helvetica,sans-Serif" font-size="11.00" fill="#000000">2,900 rows</text>
<polygon fill="#ffffff" stroke="transparent" points="104.5,-301.7 104.5,-320.7 134.5,-320.7 134.5,-301.7 104.5,-301.7"/>
<polygon fill="none" stroke="#000000" points="104.5,-301.7 104.5,-320.7 134.5,-320.7 134.5,-301.7 104.5,-301.7"/>
<text text-anchor="start" x="109.7904" y="-307.8" font-family="Helvetica,sans-Serif" font-size="11.00" fill="#000000">20 &gt;</text>
</a>
</g>
</g>
<!-- SCREENING_CONDITIONS&#45;&gt;REFERENCES -->
<g id="edge3" class="edge">
<title>SCREENING_CONDITIONS:w&#45;&gt;REFERENCES:e</title>
<path fill="none" stroke="#000000" d="M177.9437,-364.1932C161.5703,-354.7859 159.3885,-329.7 134.5,-329.7"/>
<polygon fill="#000000" stroke="#000000" points="184.2379,-365.7634 191.1285,-371.1929 188.119,-366.7317 192,-367.7 192,-367.7 192,-367.7 188.119,-366.7317 192.8715,-364.2071 184.2379,-365.7634 184.2379,-365.7634"/>
<ellipse fill="none" stroke="#000000" cx="181.1331" cy="-364.9888" rx="3.2" ry="3.2"/>
</g>
<!-- SCREENING_CONDITIONS&#45;&gt;REFERENCES -->
<g id="edge4" class="edge">
<title>SCREENING_CONDITIONS:w&#45;&gt;REFERENCES:e</title>
<path fill="none" stroke="#000000" d="M177.9177,-385.576C158.9412,-372.0203 165.5197,-329.7 134.5,-329.7"/>
<polygon fill="#000000" stroke="#000000" points="184.3225,-387.4516 190.9882,-393.1549 188.1612,-388.5758 192,-389.7 192,-389.7 192,-389.7 188.1612,-388.5758 193.0118,-386.2451 184.3225,-387.4516 184.3225,-387.4516"/>
<ellipse fill="none" stroke="#000000" cx="181.2514" cy="-386.5522" rx="3.2" ry="3.2"/>
</g>
<!-- SCREENING_CONDITIONS_IMAGES -->
<g id="node5" class="node">
<title>SCREENING_CONDITIONS_IMAGES</title>
<g id="a_node5"><a xlink:href="../../tables/SCREENING_CONDITIONS_IMAGES.html" xlink:title="SCREENING_CONDITIONS_IMAGES" target="_top">
<polygon fill="#ffffff" stroke="transparent" points="607.5,-387.2 607.5,-448.2 839.5,-448.2 839.5,-387.2 607.5,-387.2"/>
<polygon fill="#f5f5f5" stroke="transparent" points="607.5,-424.7 607.5,-447.7 839.5,-447.7 839.5,-424.7 607.5,-424.7"/>
<polygon fill="none" stroke="#000000" points="607.5,-424.7 607.5,-447.7 839.5,-447.7 839.5,-424.7 607.5,-424.7"/>
<text text-anchor="start" x="612.2774" y="-433.8" font-family="Helvetica,sans-Serif" font-weight="bold" font-size="11.00" fill="#000000">SCREENING_CONDITIONS_IMAGES</text>
<text text-anchor="start" x="805.0219" y="-432.8" font-family="Helvetica,sans-Serif" font-size="11.00" fill="#000000">[table]</text>
<polygon fill="none" stroke="#000000" points="607.5,-405.7 607.5,-424.7 839.5,-424.7 839.5,-405.7 607.5,-405.7"/>
<text text-anchor="start" x="610.5" y="-411.8" font-family="Helvetica,sans-Serif" font-size="11.00" fill="#000000">...</text>
<polygon fill="#ffffff" stroke="transparent" points="607.5,-386.7 607.5,-405.7 702.5,-405.7 702.5,-386.7 607.5,-386.7"/>
<polygon fill="none" stroke="#000000" points="607.5,-386.7 607.5,-405.7 702.5,-405.7 702.5,-386.7 607.5,-386.7"/>
<text text-anchor="start" x="610.5" y="-392.8" font-family="Helvetica,sans-Serif" font-size="11.00" fill="#000000">&lt; 2</text>
<polygon fill="#ffffff" stroke="transparent" points="702.5,-386.7 702.5,-405.7 789.5,-405.7 789.5,-386.7 702.5,-386.7"/>
<polygon fill="none" stroke="#000000" points="702.5,-386.7 702.5,-405.7 789.5,-405.7 789.5,-386.7 702.5,-386.7"/>
<text text-anchor="start" x="741.8807" y="-392.8" font-family="Helvetica,sans-Serif" font-size="11.00" fill="#000000">680 rows</text>
<polygon fill="#ffffff" stroke="transparent" points="789.5,-386.7 789.5,-405.7 839.5,-405.7 839.5,-386.7 789.5,-386.7"/>
<polygon fill="none" stroke="#000000" points="789.5,-386.7 789.5,-405.7 839.5,-405.7 839.5,-386.7 789.5,-386.7"/>
<text text-anchor="start" x="830.3862" y="-392.8" font-family="Helvetica,sans-Serif" font-size="11.00" fill="#000000"> &#160;</text>
</a>
</g>
</g>
<!-- SCREENING_CONDITIONS_IMAGES&#45;&gt;SCREENING_CONDITIONS -->
<g id="edge6" class="edge">
<title>SCREENING_CONDITIONS_IMAGES:w&#45;&gt;SCREENING_CONDITIONS:e</title>
<path fill="none" stroke="#000000" d="M593.0533,-415.1604C524.3325,-419.6648 505.9057,-455.7 430,-455.7"/>
<polygon fill="#000000" stroke="#000000" points="599.5041,-414.9549 607.6147,-418.2982 603.502,-414.8275 607.5,-414.7 607.5,-414.7 607.5,-414.7 603.502,-414.8275 607.3853,-411.1018 599.5041,-414.9549 599.5041,-414.9549"/>
<ellipse fill="none" stroke="#000000" cx="596.3057" cy="-415.0569" rx="3.2" ry="3.2"/>
</g>
<!-- SCREENING_CONDITIONS_IMAGES&#45;&gt;REFERENCES -->
<g id="edge5" class="edge">
<title>SCREENING_CONDITIONS_IMAGES:w&#45;&gt;REFERENCES:e</title>
<path fill="none" stroke="#000000" d="M593.0675,-414.7219C540.3467,-414.801 515.4848,-413.8091 471,-376.7 445.2041,-355.1811 466.471,-326.5297 438,-308.7 342.3238,-248.7836 294.6248,-286.2045 184,-308.7 160.5814,-313.4622 158.3979,-329.7 134.5,-329.7"/>
<polygon fill="#000000" stroke="#000000" points="599.5,-414.7122 607.5055,-418.3 603.5,-414.7061 607.5,-414.7 607.5,-414.7 607.5,-414.7 603.5,-414.7061 607.4945,-411.1 599.5,-414.7122 599.5,-414.7122"/>
<ellipse fill="none" stroke="#000000" cx="596.3" cy="-414.7171" rx="3.2" ry="3.2"/>
</g>
<!-- SCREENING_CONDITIONS_TRACER_LIGANDS -->
<g id="node6" class="node">
<title>SCREENING_CONDITIONS_TRACER_LIGANDS</title>
<g id="a_node6"><a xlink:href="../../tables/SCREENING_CONDITIONS_TRACER_LIGANDS.html" xlink:title="SCREENING_CONDITIONS_TRACER_LIGANDS" target="_top">
<polygon fill="#ffffff" stroke="transparent" points="579,-469.2 579,-530.2 868,-530.2 868,-469.2 579,-469.2"/>
<polygon fill="#f5f5f5" stroke="transparent" points="579.5,-506.7 579.5,-529.7 868.5,-529.7 868.5,-506.7 579.5,-506.7"/>
<polygon fill="none" stroke="#000000" points="579.5,-506.7 579.5,-529.7 868.5,-529.7 868.5,-506.7 579.5,-506.7"/>
<text text-anchor="start" x="584.3633" y="-515.8" font-family="Helvetica,sans-Serif" font-weight="bold" font-size="11.00" fill="#000000">SCREENING_CONDITIONS_TRACER_LIGANDS</text>
<text text-anchor="start" x="834.0219" y="-514.8" font-family="Helvetica,sans-Serif" font-size="11.00" fill="#000000">[table]</text>
<polygon fill="none" stroke="#000000" points="579.5,-487.7 579.5,-506.7 868.5,-506.7 868.5,-487.7 579.5,-487.7"/>
<text text-anchor="start" x="582.5" y="-493.8" font-family="Helvetica,sans-Serif" font-size="11.00" fill="#000000">...</text>
<polygon fill="#ffffff" stroke="transparent" points="579.5,-468.7 579.5,-487.7 706.5,-487.7 706.5,-468.7 579.5,-468.7"/>
<polygon fill="none" stroke="#000000" points="579.5,-468.7 579.5,-487.7 706.5,-487.7 706.5,-468.7 579.5,-468.7"/>
<text text-anchor="start" x="582.5" y="-474.8" font-family="Helvetica,sans-Serif" font-size="11.00" fill="#000000">&lt; 2</text>
<polygon fill="#ffffff" stroke="transparent" points="706.5,-468.7 706.5,-487.7 803.5,-487.7 803.5,-468.7 706.5,-468.7"/>
<polygon fill="none" stroke="#000000" points="706.5,-468.7 706.5,-487.7 803.5,-487.7 803.5,-468.7 706.5,-468.7"/>
<text text-anchor="start" x="761.9956" y="-474.8" font-family="Helvetica,sans-Serif" font-size="11.00" fill="#000000">26 rows</text>
<polygon fill="#ffffff" stroke="transparent" points="803.5,-468.7 803.5,-487.7 868.5,-487.7 868.5,-468.7 803.5,-468.7"/>
<polygon fill="none" stroke="#000000" points="803.5,-468.7 803.5,-487.7 868.5,-487.7 868.5,-468.7 803.5,-468.7"/>
<text text-anchor="start" x="859.3862" y="-474.8" font-family="Helvetica,sans-Serif" font-size="11.00" fill="#000000"> &#160;</text>
</a>
</g>
</g>
<!-- SCREENING_CONDITIONS_TRACER_LIGANDS&#45;&gt;SCREENING_CONDITIONS -->
<g id="edge7" class="edge">
<title>SCREENING_CONDITIONS_TRACER_LIGANDS:w&#45;&gt;SCREENING_CONDITIONS:e</title>
<path fill="none" stroke="#000000" d="M565.0578,-496.056C508.5497,-490.8399 493.7843,-455.7 430,-455.7"/>
<polygon fill="#000000" stroke="#000000" points="571.5079,-496.3436 579.3396,-500.2964 575.504,-496.5218 579.5,-496.7 579.5,-496.7 579.5,-496.7 575.504,-496.5218 579.6604,-493.1036 571.5079,-496.3436 571.5079,-496.3436"/>
<ellipse fill="none" stroke="#000000" cx="568.3111" cy="-496.201" rx="3.2" ry="3.2"/>
</g>
<!-- VERSIONS_PARTS -->
<g id="node7" class="node">
<title>VERSIONS_PARTS</title>
<g id="a_node7"><a xlink:href="../../tables/VERSIONS_PARTS.html" xlink:title="VERSIONS_PARTS" target="_top">
<polygon fill="#ffffff" stroke="transparent" points="240,-47.2 240,-174.2 382,-174.2 382,-47.2 240,-47.2"/>
<polygon fill="#f5f5f5" stroke="transparent" points="240,-150.7 240,-173.7 382,-173.7 382,-150.7 240,-150.7"/>
<polygon fill="none" stroke="#000000" points="240,-150.7 240,-173.7 382,-173.7 382,-150.7 240,-150.7"/>
<text text-anchor="start" x="244.6887" y="-159.8" font-family="Helvetica,sans-Serif" font-weight="bold" font-size="11.00" fill="#000000">VERSIONS_PARTS</text>
<text text-anchor="start" x="347.5219" y="-158.8" font-family="Helvetica,sans-Serif" font-size="11.00" fill="#000000">[table]</text>
<polygon fill="none" stroke="#000000" points="240,-128.7 240,-150.7 382,-150.7 382,-128.7 240,-128.7"/>
<image xlink:href="../../images/primaryKeys.png" width="11px" height="12px" preserveAspectRatio="xMinYMin meet" x="245" y="-145.7"/>
<text text-anchor="start" x="262" y="-135.8" font-family="Helvetica,sans-Serif" font-size="11.00" fill="#000000">ID</text>
<polygon fill="none" stroke="#000000" points="240,-106.7 240,-128.7 382,-128.7 382,-106.7 240,-106.7"/>
<image xlink:href="../../images/primaryKeys.png" width="11px" height="12px" preserveAspectRatio="xMinYMin meet" x="245" y="-123.7"/>
<text text-anchor="start" x="262" y="-113.8" font-family="Helvetica,sans-Serif" font-size="11.00" fill="#000000">VERSION_ID</text>
<polygon fill="none" stroke="#000000" points="240,-84.7 240,-106.7 382,-106.7 382,-84.7 240,-84.7"/>
<image xlink:href="../../images/primaryKeys.png" width="11px" height="12px" preserveAspectRatio="xMinYMin meet" x="245" y="-101.7"/>
<text text-anchor="start" x="262" y="-91.8" font-family="Helvetica,sans-Serif" font-size="11.00" fill="#000000">PART_ID</text>
<polygon fill="none" stroke="#000000" points="240,-65.7 240,-84.7 382,-84.7 382,-65.7 240,-65.7"/>
<text text-anchor="start" x="243" y="-71.8" font-family="Helvetica,sans-Serif" font-size="11.00" fill="#000000">...</text>
<polygon fill="#ffffff" stroke="transparent" points="240,-46.7 240,-65.7 286,-65.7 286,-46.7 240,-46.7"/>
<polygon fill="none" stroke="#000000" points="240,-46.7 240,-65.7 286,-65.7 286,-46.7 240,-46.7"/>
<text text-anchor="start" x="243" y="-52.8" font-family="Helvetica,sans-Serif" font-size="11.00" fill="#000000">&lt; 2</text>
<polygon fill="#ffffff" stroke="transparent" points="286,-46.7 286,-65.7 348,-65.7 348,-46.7 286,-46.7"/>
<polygon fill="none" stroke="#000000" points="286,-46.7 286,-65.7 348,-65.7 348,-46.7 286,-46.7"/>
<text text-anchor="start" x="300.3807" y="-52.8" font-family="Helvetica,sans-Serif" font-size="11.00" fill="#000000">449 rows</text>
<polygon fill="#ffffff" stroke="transparent" points="348,-46.7 348,-65.7 382,-65.7 382,-46.7 348,-46.7"/>
<polygon fill="none" stroke="#000000" points="348,-46.7 348,-65.7 382,-65.7 382,-46.7 348,-46.7"/>
<text text-anchor="start" x="363.4053" y="-52.8" font-family="Helvetica,sans-Serif" font-size="11.00" fill="#000000">2 &gt;</text>
</a>
</g>
</g>
<!-- PARTS -->
<g id="node8" class="node">
<title>PARTS</title>
<g id="a_node8"><a xlink:href="../../tables/PARTS.html" xlink:title="PARTS" target="_top">
<polygon fill="#ffffff" stroke="transparent" points="34,-38.2 34,-99.2 117,-99.2 117,-38.2 34,-38.2"/>
<polygon fill="#f5f5f5" stroke="transparent" points="34.5,-75.7 34.5,-98.7 117.5,-98.7 117.5,-75.7 34.5,-75.7"/>
<polygon fill="none" stroke="#000000" points="34.5,-75.7 34.5,-98.7 117.5,-98.7 117.5,-75.7 34.5,-75.7"/>
<text text-anchor="start" x="39.5" y="-84.8" font-family="Helvetica,sans-Serif" font-weight="bold" font-size="11.00" fill="#000000">PARTS</text>
<text text-anchor="start" x="82.5437" y="-83.8" font-family="Helvetica,sans-Serif" font-size="11.00" fill="#000000">[table]</text>
<polygon fill="none" stroke="#000000" points="34.5,-56.7 34.5,-75.7 117.5,-75.7 117.5,-56.7 34.5,-56.7"/>
<text text-anchor="start" x="37.5" y="-62.8" font-family="Helvetica,sans-Serif" font-size="11.00" fill="#000000">...</text>
<polygon fill="#ffffff" stroke="transparent" points="34.5,-37.7 34.5,-56.7 46.5,-56.7 46.5,-37.7 34.5,-37.7"/>
<polygon fill="none" stroke="#000000" points="34.5,-37.7 34.5,-56.7 46.5,-56.7 46.5,-37.7 34.5,-37.7"/>
<text text-anchor="start" x="37.4431" y="-43.8" font-family="Helvetica,sans-Serif" font-size="11.00" fill="#000000"> &#160;</text>
<polygon fill="#ffffff" stroke="transparent" points="46.5,-37.7 46.5,-56.7 96.5,-56.7 96.5,-37.7 46.5,-37.7"/>
<polygon fill="none" stroke="#000000" points="46.5,-37.7 46.5,-56.7 96.5,-56.7 96.5,-37.7 46.5,-37.7"/>
<text text-anchor="start" x="49.1903" y="-43.8" font-family="Helvetica,sans-Serif" font-size="11.00" fill="#000000">118 rows</text>
<polygon fill="#ffffff" stroke="transparent" points="96.5,-37.7 96.5,-56.7 117.5,-56.7 117.5,-37.7 96.5,-37.7"/>
<polygon fill="none" stroke="#000000" points="96.5,-37.7 96.5,-56.7 117.5,-56.7 117.5,-37.7 96.5,-37.7"/>
<text text-anchor="start" x="99.2027" y="-43.8" font-family="Helvetica,sans-Serif" font-size="11.00" fill="#000000">1 &gt;</text>
</a>
</g>
</g>
<!-- VERSIONS_PARTS&#45;&gt;PARTS -->
<g id="edge8" class="edge">
<title>VERSIONS_PARTS:w&#45;&gt;PARTS:e</title>
<path fill="none" stroke="#000000" d="M225.3637,-94.9584C181.5966,-90.3387 168.2983,-65.7 117.5,-65.7"/>
<polygon fill="#000000" stroke="#000000" points="232.0102,-95.2951 239.8178,-99.2954 236.0051,-95.4976 240,-95.7 240,-95.7 240,-95.7 236.0051,-95.4976 240.1822,-92.1046 232.0102,-95.2951 232.0102,-95.2951"/>
<ellipse fill="none" stroke="#000000" cx="228.8143" cy="-95.1332" rx="3.2" ry="3.2"/>
</g>
<!-- VERSIONS -->
<g id="node9" class="node">
<title>VERSIONS</title>
<g id="a_node9"><a xlink:href="../../tables/VERSIONS.html" xlink:title="VERSIONS" target="_top">
<polygon fill="#ffffff" stroke="transparent" points="26,-120.2 26,-181.2 125,-181.2 125,-120.2 26,-120.2"/>
<polygon fill="#f5f5f5" stroke="transparent" points="26.5,-157.7 26.5,-180.7 125.5,-180.7 125.5,-157.7 26.5,-157.7"/>
<polygon fill="none" stroke="#000000" points="26.5,-157.7 26.5,-180.7 125.5,-180.7 125.5,-157.7 26.5,-157.7"/>
<text text-anchor="start" x="31.0804" y="-166.8" font-family="Helvetica,sans-Serif" font-weight="bold" font-size="11.00" fill="#000000">VERSIONS</text>
<text text-anchor="start" x="91.0219" y="-165.8" font-family="Helvetica,sans-Serif" font-size="11.00" fill="#000000">[table]</text>
<polygon fill="none" stroke="#000000" points="26.5,-138.7 26.5,-157.7 125.5,-157.7 125.5,-138.7 26.5,-138.7"/>
<text text-anchor="start" x="29.5" y="-144.8" font-family="Helvetica,sans-Serif" font-size="11.00" fill="#000000">...</text>
<polygon fill="#ffffff" stroke="transparent" points="26.5,-119.7 26.5,-138.7 50.5,-138.7 50.5,-119.7 26.5,-119.7"/>
<polygon fill="none" stroke="#000000" points="26.5,-119.7 26.5,-138.7 50.5,-138.7 50.5,-119.7 26.5,-119.7"/>
<text text-anchor="start" x="29.5" y="-125.8" font-family="Helvetica,sans-Serif" font-size="11.00" fill="#000000">&lt; 1</text>
<polygon fill="#ffffff" stroke="transparent" points="50.5,-119.7 50.5,-138.7 102.5,-138.7 102.5,-119.7 50.5,-119.7"/>
<polygon fill="none" stroke="#000000" points="50.5,-119.7 50.5,-138.7 102.5,-138.7 102.5,-119.7 50.5,-119.7"/>
<text text-anchor="start" x="54.8807" y="-125.8" font-family="Helvetica,sans-Serif" font-size="11.00" fill="#000000">222 rows</text>
<polygon fill="#ffffff" stroke="transparent" points="102.5,-119.7 102.5,-138.7 125.5,-138.7 125.5,-119.7 102.5,-119.7"/>
<polygon fill="none" stroke="#000000" points="102.5,-119.7 102.5,-138.7 125.5,-138.7 125.5,-119.7 102.5,-119.7"/>
<text text-anchor="start" x="106.9053" y="-125.8" font-family="Helvetica,sans-Serif" font-size="11.00" fill="#000000">4 &gt;</text>
</a>
</g>
</g>
<!-- VERSIONS_PARTS&#45;&gt;VERSIONS -->
<g id="edge9" class="edge">
<title>VERSIONS_PARTS:w&#45;&gt;VERSIONS:e</title>
<path fill="none" stroke="#000000" d="M225.4835,-118.5337C185.1135,-123.3789 172.8665,-147.7 125.5,-147.7"/>
<polygon fill="#000000" stroke="#000000" points="232.0132,-118.1587 240.2064,-121.2941 236.0066,-117.9294 240,-117.7 240,-117.7 240,-117.7 236.0066,-117.9294 239.7936,-114.1059 232.0132,-118.1587 232.0132,-118.1587"/>
<ellipse fill="none" stroke="#000000" cx="228.8184" cy="-118.3422" rx="3.2" ry="3.2"/>
</g>
<!-- VERSIONS_PARTS_SCREENING_CONDITIONS -->
<g id="node10" class="node">
<title>VERSIONS_PARTS_SCREENING_CONDITIONS</title>
<g id="a_node10"><a xlink:href="../../tables/VERSIONS_PARTS_SCREENING_CONDITIONS.html" xlink:title="VERSIONS_PARTS_SCREENING_CONDITIONS" target="_top">
<polygon fill="#ffffff" stroke="transparent" points="479,-165.7 479,-365.7 968,-365.7 968,-165.7 479,-165.7"/>
<polygon fill="#f5f5f5" stroke="transparent" points="481.5,-340.7 481.5,-363.7 966.5,-363.7 966.5,-340.7 481.5,-340.7"/>
<polygon fill="none" stroke="#000000" points="481.5,-340.7 481.5,-363.7 966.5,-363.7 966.5,-340.7 481.5,-340.7"/>
<text text-anchor="start" x="486.5" y="-349.8" font-family="Helvetica,sans-Serif" font-weight="bold" font-size="11.00" fill="#000000">VERSIONS_PARTS_SCREENING_CONDITIONS</text>
<text text-anchor="start" x="931.5437" y="-348.8" font-family="Helvetica,sans-Serif" font-size="11.00" fill="#000000">[table]</text>
<polygon fill="none" stroke="#000000" points="481.5,-318.7 481.5,-340.7 795.5,-340.7 795.5,-318.7 481.5,-318.7"/>
<image xlink:href="../../images/primaryKeys.png" width="11px" height="12px" preserveAspectRatio="xMinYMin meet" x="486.5" y="-335.7"/>
<text text-anchor="start" x="501.5" y="-325.8" font-family="Helvetica,sans-Serif" font-size="11.00" fill="#000000">ID</text>
<polygon fill="none" stroke="#000000" points="795.5,-318.7 795.5,-340.7 966.5,-340.7 966.5,-318.7 795.5,-318.7"/>
<text text-anchor="start" x="798.5" y="-326.4" font-family="Helvetica,sans-Serif" font-size="11.00" fill="#000000">number[19]</text>
<polygon fill="none" stroke="#000000" points="481.5,-296.7 481.5,-318.7 795.5,-318.7 795.5,-296.7 481.5,-296.7"/>
<image xlink:href="../../images/primaryKeys.png" width="11px" height="12px" preserveAspectRatio="xMinYMin meet" x="486.5" y="-313.7"/>
<text text-anchor="start" x="501.5" y="-303.8" font-family="Helvetica,sans-Serif" font-size="11.00" fill="#000000">VERSION_PART_ID</text>
<polygon fill="none" stroke="#000000" points="795.5,-296.7 795.5,-318.7 966.5,-318.7 966.5,-296.7 795.5,-296.7"/>
<text text-anchor="start" x="798.5" y="-304.4" font-family="Helvetica,sans-Serif" font-size="11.00" fill="#000000">number[19]</text>
<polygon fill="none" stroke="#000000" points="481.5,-274.7 481.5,-296.7 795.5,-296.7 795.5,-274.7 481.5,-274.7"/>
<image xlink:href="../../images/primaryKeys.png" width="11px" height="12px" preserveAspectRatio="xMinYMin meet" x="486.5" y="-291.7"/>
<text text-anchor="start" x="501.5" y="-281.8" font-family="Helvetica,sans-Serif" font-size="11.00" fill="#000000">SCREENING_CONDITION_ID</text>
<polygon fill="none" stroke="#000000" points="795.5,-274.7 795.5,-296.7 966.5,-296.7 966.5,-274.7 795.5,-274.7"/>
<text text-anchor="start" x="798.5" y="-282.4" font-family="Helvetica,sans-Serif" font-size="11.00" fill="#000000">number[19]</text>
<polygon fill="none" stroke="#000000" points="481.5,-252.7 481.5,-274.7 795.5,-274.7 795.5,-252.7 481.5,-252.7"/>
<text text-anchor="start" x="501.5" y="-259.8" font-family="Helvetica,sans-Serif" font-size="11.00" fill="#000000">CREATED_AT</text>
<polygon fill="none" stroke="#000000" points="795.5,-252.7 795.5,-274.7 966.5,-274.7 966.5,-252.7 795.5,-252.7"/>
<text text-anchor="start" x="798.4896" y="-260.4" font-family="Helvetica,sans-Serif" font-size="11.00" fill="#000000">timestamp(6) with time zone[13,6]</text>
<polygon fill="none" stroke="#000000" points="481.5,-230.7 481.5,-252.7 795.5,-252.7 795.5,-230.7 481.5,-230.7"/>
<text text-anchor="start" x="501.5" y="-237.8" font-family="Helvetica,sans-Serif" font-size="11.00" fill="#000000">CREATED_BY</text>
<polygon fill="none" stroke="#000000" points="795.5,-230.7 795.5,-252.7 966.5,-252.7 966.5,-230.7 795.5,-230.7"/>
<text text-anchor="start" x="798.5" y="-238.4" font-family="Helvetica,sans-Serif" font-size="11.00" fill="#000000">number[19]</text>
<polygon fill="none" stroke="#000000" points="481.5,-208.7 481.5,-230.7 795.5,-230.7 795.5,-208.7 481.5,-208.7"/>
<text text-anchor="start" x="501.5" y="-215.8" font-family="Helvetica,sans-Serif" font-size="11.00" fill="#000000">UPDATED_AT</text>
<polygon fill="none" stroke="#000000" points="795.5,-208.7 795.5,-230.7 966.5,-230.7 966.5,-208.7 795.5,-208.7"/>
<text text-anchor="start" x="798.4896" y="-216.4" font-family="Helvetica,sans-Serif" font-size="11.00" fill="#000000">timestamp(6) with time zone[13,6]</text>
<polygon fill="none" stroke="#000000" points="481.5,-186.7 481.5,-208.7 795.5,-208.7 795.5,-186.7 481.5,-186.7"/>
<text text-anchor="start" x="501.5" y="-193.8" font-family="Helvetica,sans-Serif" font-size="11.00" fill="#000000">UPDATED_BY</text>
<polygon fill="none" stroke="#000000" points="795.5,-186.7 795.5,-208.7 966.5,-208.7 966.5,-186.7 795.5,-186.7"/>
<text text-anchor="start" x="798.5" y="-194.4" font-family="Helvetica,sans-Serif" font-size="11.00" fill="#000000">number[19]</text>
<polygon fill="#ffffff" stroke="transparent" points="481.5,-167.7 481.5,-186.7 623.5,-186.7 623.5,-167.7 481.5,-167.7"/>
<polygon fill="none" stroke="#000000" points="481.5,-167.7 481.5,-186.7 623.5,-186.7 623.5,-167.7 481.5,-167.7"/>
<text text-anchor="start" x="484.5" y="-173.8" font-family="Helvetica,sans-Serif" font-size="11.00" fill="#000000">&lt; 2</text>
<polygon fill="#ffffff" stroke="transparent" points="623.5,-167.7 623.5,-186.7 795.5,-186.7 795.5,-167.7 623.5,-167.7"/>
<polygon fill="none" stroke="#000000" points="623.5,-167.7 623.5,-186.7 795.5,-186.7 795.5,-167.7 623.5,-167.7"/>
<text text-anchor="start" x="747.8807" y="-173.8" font-family="Helvetica,sans-Serif" font-size="11.00" fill="#000000">415 rows</text>
<polygon fill="#ffffff" stroke="transparent" points="795.5,-167.7 795.5,-186.7 966.5,-186.7 966.5,-167.7 795.5,-167.7"/>
<polygon fill="none" stroke="#000000" points="795.5,-167.7 795.5,-186.7 966.5,-186.7 966.5,-167.7 795.5,-167.7"/>
<text text-anchor="start" x="947.9053" y="-173.8" font-family="Helvetica,sans-Serif" font-size="11.00" fill="#000000">0 &gt;</text>
<polygon fill="none" stroke="#000000" stroke-width="2" points="480,-166.7 480,-364.7 967,-364.7 967,-166.7 480,-166.7"/>
</a>
</g>
</g>
<!-- VERSIONS_PARTS_SCREENING_CONDITIONS&#45;&gt;SCREENING_CONDITIONS -->
<g id="edge10" class="edge">
<title>VERSIONS_PARTS_SCREENING_CONDITIONS:w&#45;&gt;SCREENING_CONDITIONS:e</title>
<path fill="none" stroke="#000000" d="M467.1485,-288.2351C416.9627,-309.3825 503.2413,-455.7 430,-455.7"/>
<polygon fill="#000000" stroke="#000000" points="473.622,-287.0916 482.1262,-289.2451 477.561,-286.3958 481.5,-285.7 481.5,-285.7 481.5,-285.7 477.561,-286.3958 480.8738,-282.1549 473.622,-287.0916 473.622,-287.0916"/>
<ellipse fill="none" stroke="#000000" cx="470.4707" cy="-287.6483" rx="3.2" ry="3.2"/>
</g>
<!-- VERSIONS_PARTS_SCREENING_CONDITIONS&#45;&gt;VERSIONS_PARTS -->
<g id="edge11" class="edge">
<title>VERSIONS_PARTS_SCREENING_CONDITIONS:w&#45;&gt;VERSIONS_PARTS:e</title>
<path fill="none" stroke="#000000" d="M467.0351,-305.8133C403.3494,-287.3563 463.356,-139.7 382,-139.7"/>
<polygon fill="#000000" stroke="#000000" points="473.5672,-306.6652 481.0344,-311.2698 477.5336,-307.1826 481.5,-307.7 481.5,-307.7 481.5,-307.7 477.5336,-307.1826 481.9656,-304.1302 473.5672,-306.6652 473.5672,-306.6652"/>
<ellipse fill="none" stroke="#000000" cx="470.3941" cy="-306.2513" rx="3.2" ry="3.2"/>
</g>
<!-- VERSIONS_PARTS_SCREENING_PLANS -->
<g id="node11" class="node">
<title>VERSIONS_PARTS_SCREENING_PLANS</title>
<g id="a_node11"><a xlink:href="../../tables/VERSIONS_PARTS_SCREENING_PLANS.html" xlink:title="VERSIONS_PARTS_SCREENING_PLANS" target="_top">
<polygon fill="#ffffff" stroke="transparent" points="595.5,-83.2 595.5,-144.2 851.5,-144.2 851.5,-83.2 595.5,-83.2"/>
<polygon fill="#f5f5f5" stroke="transparent" points="595.5,-120.7 595.5,-143.7 851.5,-143.7 851.5,-120.7 595.5,-120.7"/>
<polygon fill="none" stroke="#000000" points="595.5,-120.7 595.5,-143.7 851.5,-143.7 851.5,-120.7 595.5,-120.7"/>
<text text-anchor="start" x="600.3495" y="-129.8" font-family="Helvetica,sans-Serif" font-weight="bold" font-size="11.00" fill="#000000">VERSIONS_PARTS_SCREENING_PLANS</text>
<text text-anchor="start" x="817.0219" y="-128.8" font-family="Helvetica,sans-Serif" font-size="11.00" fill="#000000">[table]</text>
<polygon fill="none" stroke="#000000" points="595.5,-101.7 595.5,-120.7 851.5,-120.7 851.5,-101.7 595.5,-101.7"/>
<text text-anchor="start" x="598.5" y="-107.8" font-family="Helvetica,sans-Serif" font-size="11.00" fill="#000000">...</text>
<polygon fill="#ffffff" stroke="transparent" points="595.5,-82.7 595.5,-101.7 702.5,-101.7 702.5,-82.7 595.5,-82.7"/>
<polygon fill="none" stroke="#000000" points="595.5,-82.7 595.5,-101.7 702.5,-101.7 702.5,-82.7 595.5,-82.7"/>
<text text-anchor="start" x="598.5" y="-88.8" font-family="Helvetica,sans-Serif" font-size="11.00" fill="#000000">&lt; 2</text>
<polygon fill="#ffffff" stroke="transparent" points="702.5,-82.7 702.5,-101.7 795.5,-101.7 795.5,-82.7 702.5,-82.7"/>
<polygon fill="none" stroke="#000000" points="702.5,-82.7 702.5,-101.7 795.5,-101.7 795.5,-82.7 702.5,-82.7"/>
<text text-anchor="start" x="747.8807" y="-88.8" font-family="Helvetica,sans-Serif" font-size="11.00" fill="#000000">376 rows</text>
<polygon fill="#ffffff" stroke="transparent" points="795.5,-82.7 795.5,-101.7 851.5,-101.7 851.5,-82.7 795.5,-82.7"/>
<polygon fill="none" stroke="#000000" points="795.5,-82.7 795.5,-101.7 851.5,-101.7 851.5,-82.7 795.5,-82.7"/>
<text text-anchor="start" x="842.3862" y="-88.8" font-family="Helvetica,sans-Serif" font-size="11.00" fill="#000000"> &#160;</text>
</a>
</g>
</g>
<!-- VERSIONS_PARTS_SCREENING_PLANS&#45;&gt;VERSIONS_PARTS -->
<g id="edge12" class="edge">
<title>VERSIONS_PARTS_SCREENING_PLANS:w&#45;&gt;VERSIONS_PARTS:e</title>
<path fill="none" stroke="#000000" d="M580.9443,-110.9334C497.2164,-113.6779 472.7104,-139.7 382,-139.7"/>
<polygon fill="#000000" stroke="#000000" points="587.501,-110.8283 595.5578,-114.2995 591.5005,-110.7642 595.5,-110.7 595.5,-110.7 595.5,-110.7 591.5005,-110.7642 595.4422,-107.1005 587.501,-110.8283 587.501,-110.8283"/>
<ellipse fill="none" stroke="#000000" cx="584.3014" cy="-110.8797" rx="3.2" ry="3.2"/>
</g>
</g>
</svg>
