<?xml version="1.0" encoding="UTF-8" standalone="no"?>
<!DOCTYPE svg PUBLIC "-//W3C//DTD SVG 1.1//EN"
 "http://www.w3.org/Graphics/SVG/1.1/DTD/svg11.dtd">
<!-- Generated by graphviz version 2.40.1 (20161225.0304)
 -->
<!-- Title: oneDegreeRelationshipsDiagram Pages: 1 -->
<svg width="1051pt" height="413pt"
 viewBox="0.00 0.00 1051.00 413.20" xmlns="http://www.w3.org/2000/svg" xmlns:xlink="http://www.w3.org/1999/xlink">
<g id="graph0" class="graph" transform="scale(1 1) rotate(0) translate(4 409.2)">
<title>oneDegreeRelationshipsDiagram</title>
<polygon fill="#ffffff" stroke="transparent" points="-4,4 -4,-409.2 1047,-409.2 1047,4 -4,4"/>
<text text-anchor="middle" x="72.4936" y="-7.3" font-family="Helvetica,sans-Serif" font-size="11.00" fill="#000000">Generated by SchemaSpy</text>
<!-- VERSION_TRACERS_TRACER_SYNTHESIS_REQUESTS -->
<g id="node1" class="node">
<title>VERSION_TRACERS_TRACER_SYNTHESIS_REQUESTS</title>
<g id="a_node1"><a xlink:href="../../tables/VERSION_TRACERS_TRACER_SYNTHESIS_REQUESTS.html" xlink:title="VERSION_TRACERS_TRACER_SYNTHESIS_REQUESTS" target="_top">
<polygon fill="#ffffff" stroke="transparent" points="669,-274.2 669,-401.2 1035,-401.2 1035,-274.2 669,-274.2"/>
<polygon fill="#f5f5f5" stroke="transparent" points="669,-377.7 669,-400.7 1035,-400.7 1035,-377.7 669,-377.7"/>
<polygon fill="none" stroke="#000000" points="669,-377.7 669,-400.7 1035,-400.7 1035,-377.7 669,-377.7"/>
<text text-anchor="start" x="674" y="-386.8" font-family="Helvetica,sans-Serif" font-weight="bold" font-size="11.00" fill="#000000">VERSION_TRACERS_TRACER_SYNTHESIS_REQUESTS</text>
<text text-anchor="start" x="1000.0437" y="-385.8" font-family="Helvetica,sans-Serif" font-size="11.00" fill="#000000">[table]</text>
<polygon fill="none" stroke="#000000" points="669,-355.7 669,-377.7 1035,-377.7 1035,-355.7 669,-355.7"/>
<image xlink:href="../../images/primaryKeys.png" width="11px" height="12px" preserveAspectRatio="xMinYMin meet" x="674" y="-372.7"/>
<text text-anchor="start" x="689" y="-362.8" font-family="Helvetica,sans-Serif" font-size="11.00" fill="#000000">ID</text>
<polygon fill="none" stroke="#000000" points="669,-333.7 669,-355.7 1035,-355.7 1035,-333.7 669,-333.7"/>
<image xlink:href="../../images/primaryKeys.png" width="11px" height="12px" preserveAspectRatio="xMinYMin meet" x="674" y="-350.7"/>
<text text-anchor="start" x="689" y="-340.8" font-family="Helvetica,sans-Serif" font-size="11.00" fill="#000000">VERSION_TRACER_ID</text>
<polygon fill="none" stroke="#000000" points="669,-311.7 669,-333.7 1035,-333.7 1035,-311.7 669,-311.7"/>
<image xlink:href="../../images/primaryKeys.png" width="11px" height="12px" preserveAspectRatio="xMinYMin meet" x="674" y="-328.7"/>
<text text-anchor="start" x="689" y="-318.8" font-family="Helvetica,sans-Serif" font-size="11.00" fill="#000000">TRACER_SYNTHESIS_REQUEST_ID</text>
<polygon fill="none" stroke="#000000" points="669,-292.7 669,-311.7 1035,-311.7 1035,-292.7 669,-292.7"/>
<text text-anchor="start" x="672" y="-298.8" font-family="Helvetica,sans-Serif" font-size="11.00" fill="#000000">...</text>
<polygon fill="#ffffff" stroke="transparent" points="669,-273.7 669,-292.7 834,-292.7 834,-273.7 669,-273.7"/>
<polygon fill="none" stroke="#000000" points="669,-273.7 669,-292.7 834,-292.7 834,-273.7 669,-273.7"/>
<text text-anchor="start" x="672" y="-279.8" font-family="Helvetica,sans-Serif" font-size="11.00" fill="#000000">&lt; 2</text>
<polygon fill="#ffffff" stroke="transparent" points="834,-273.7 834,-292.7 950,-292.7 950,-273.7 834,-273.7"/>
<polygon fill="none" stroke="#000000" points="834,-273.7 834,-292.7 950,-292.7 950,-273.7 834,-273.7"/>
<text text-anchor="start" x="908.4956" y="-279.8" font-family="Helvetica,sans-Serif" font-size="11.00" fill="#000000">21 rows</text>
<polygon fill="#ffffff" stroke="transparent" points="950,-273.7 950,-292.7 1035,-292.7 1035,-273.7 950,-273.7"/>
<polygon fill="none" stroke="#000000" points="950,-273.7 950,-292.7 1035,-292.7 1035,-273.7 950,-273.7"/>
<text text-anchor="start" x="1025.8862" y="-279.8" font-family="Helvetica,sans-Serif" font-size="11.00" fill="#000000"> &#160;</text>
</a>
</g>
</g>
<!-- VERSIONS_TRACERS -->
<g id="node2" class="node">
<title>VERSIONS_TRACERS</title>
<g id="a_node2"><a xlink:href="../../tables/VERSIONS_TRACERS.html" xlink:title="VERSIONS_TRACERS" target="_top">
<polygon fill="#ffffff" stroke="transparent" points="288,-106.7 288,-306.7 620,-306.7 620,-106.7 288,-106.7"/>
<polygon fill="#f5f5f5" stroke="transparent" points="290,-281.7 290,-304.7 618,-304.7 618,-281.7 290,-281.7"/>
<polygon fill="none" stroke="#000000" points="290,-281.7 290,-304.7 618,-304.7 618,-281.7 290,-281.7"/>
<text text-anchor="start" x="295" y="-290.8" font-family="Helvetica,sans-Serif" font-weight="bold" font-size="11.00" fill="#000000">VERSIONS_TRACERS</text>
<text text-anchor="start" x="583.0437" y="-289.8" font-family="Helvetica,sans-Serif" font-size="11.00" fill="#000000">[table]</text>
<polygon fill="none" stroke="#000000" points="290,-259.7 290,-281.7 447,-281.7 447,-259.7 290,-259.7"/>
<image xlink:href="../../images/primaryKeys.png" width="11px" height="12px" preserveAspectRatio="xMinYMin meet" x="295" y="-276.7"/>
<text text-anchor="start" x="310" y="-266.8" font-family="Helvetica,sans-Serif" font-size="11.00" fill="#000000">ID</text>
<polygon fill="none" stroke="#000000" points="447,-259.7 447,-281.7 618,-281.7 618,-259.7 447,-259.7"/>
<text text-anchor="start" x="450" y="-267.4" font-family="Helvetica,sans-Serif" font-size="11.00" fill="#000000">number[19]</text>
<polygon fill="none" stroke="#000000" points="290,-237.7 290,-259.7 447,-259.7 447,-237.7 290,-237.7"/>
<text text-anchor="start" x="310" y="-244.8" font-family="Helvetica,sans-Serif" font-size="11.00" fill="#000000">CREATED_AT</text>
<polygon fill="none" stroke="#000000" points="447,-237.7 447,-259.7 618,-259.7 618,-237.7 447,-237.7"/>
<text text-anchor="start" x="449.9896" y="-245.4" font-family="Helvetica,sans-Serif" font-size="11.00" fill="#000000">timestamp(6) with time zone[13,6]</text>
<polygon fill="none" stroke="#000000" points="290,-215.7 290,-237.7 447,-237.7 447,-215.7 290,-215.7"/>
<text text-anchor="start" x="310" y="-222.8" font-family="Helvetica,sans-Serif" font-size="11.00" fill="#000000">CREATED_BY</text>
<polygon fill="none" stroke="#000000" points="447,-215.7 447,-237.7 618,-237.7 618,-215.7 447,-215.7"/>
<text text-anchor="start" x="450" y="-223.4" font-family="Helvetica,sans-Serif" font-size="11.00" fill="#000000">number[19]</text>
<polygon fill="none" stroke="#000000" points="290,-193.7 290,-215.7 447,-215.7 447,-193.7 290,-193.7"/>
<text text-anchor="start" x="310" y="-200.8" font-family="Helvetica,sans-Serif" font-size="11.00" fill="#000000">UPDATED_AT</text>
<polygon fill="none" stroke="#000000" points="447,-193.7 447,-215.7 618,-215.7 618,-193.7 447,-193.7"/>
<text text-anchor="start" x="449.9896" y="-201.4" font-family="Helvetica,sans-Serif" font-size="11.00" fill="#000000">timestamp(6) with time zone[13,6]</text>
<polygon fill="none" stroke="#000000" points="290,-171.7 290,-193.7 447,-193.7 447,-171.7 290,-171.7"/>
<text text-anchor="start" x="310" y="-178.8" font-family="Helvetica,sans-Serif" font-size="11.00" fill="#000000">UPDATED_BY</text>
<polygon fill="none" stroke="#000000" points="447,-171.7 447,-193.7 618,-193.7 618,-171.7 447,-171.7"/>
<text text-anchor="start" x="450" y="-179.4" font-family="Helvetica,sans-Serif" font-size="11.00" fill="#000000">number[19]</text>
<polygon fill="none" stroke="#000000" points="290,-149.7 290,-171.7 447,-171.7 447,-149.7 290,-149.7"/>
<image xlink:href="../../images/primaryKeys.png" width="11px" height="12px" preserveAspectRatio="xMinYMin meet" x="295" y="-166.7"/>
<text text-anchor="start" x="310" y="-156.8" font-family="Helvetica,sans-Serif" font-size="11.00" fill="#000000">VERSION_ID</text>
<polygon fill="none" stroke="#000000" points="447,-149.7 447,-171.7 618,-171.7 618,-149.7 447,-149.7"/>
<text text-anchor="start" x="450" y="-157.4" font-family="Helvetica,sans-Serif" font-size="11.00" fill="#000000">number[19]</text>
<polygon fill="none" stroke="#000000" points="290,-127.7 290,-149.7 447,-149.7 447,-127.7 290,-127.7"/>
<image xlink:href="../../images/primaryKeys.png" width="11px" height="12px" preserveAspectRatio="xMinYMin meet" x="295" y="-144.7"/>
<text text-anchor="start" x="310" y="-134.8" font-family="Helvetica,sans-Serif" font-size="11.00" fill="#000000">TRACER_ID</text>
<polygon fill="none" stroke="#000000" points="447,-127.7 447,-149.7 618,-149.7 618,-127.7 447,-127.7"/>
<text text-anchor="start" x="450" y="-135.4" font-family="Helvetica,sans-Serif" font-size="11.00" fill="#000000">number[19]</text>
<polygon fill="#ffffff" stroke="transparent" points="290,-108.7 290,-127.7 349,-127.7 349,-108.7 290,-108.7"/>
<polygon fill="none" stroke="#000000" points="290,-108.7 290,-127.7 349,-127.7 349,-108.7 290,-108.7"/>
<text text-anchor="start" x="293" y="-114.8" font-family="Helvetica,sans-Serif" font-size="11.00" fill="#000000">&lt; 2</text>
<polygon fill="#ffffff" stroke="transparent" points="349,-108.7 349,-127.7 447,-127.7 447,-108.7 349,-108.7"/>
<polygon fill="none" stroke="#000000" points="349,-108.7 349,-127.7 447,-127.7 447,-108.7 349,-108.7"/>
<text text-anchor="start" x="390.2089" y="-114.8" font-family="Helvetica,sans-Serif" font-size="11.00" fill="#000000">1,279 rows</text>
<polygon fill="#ffffff" stroke="transparent" points="447,-108.7 447,-127.7 618,-127.7 618,-108.7 447,-108.7"/>
<polygon fill="none" stroke="#000000" points="447,-108.7 447,-127.7 618,-127.7 618,-108.7 447,-108.7"/>
<text text-anchor="start" x="599.4053" y="-114.8" font-family="Helvetica,sans-Serif" font-size="11.00" fill="#000000">2 &gt;</text>
<polygon fill="none" stroke="#000000" stroke-width="2" points="289,-107.7 289,-305.7 619,-305.7 619,-107.7 289,-107.7"/>
</a>
</g>
</g>
<!-- VERSION_TRACERS_TRACER_SYNTHESIS_REQUESTS&#45;&gt;VERSIONS_TRACERS -->
<g id="edge1" class="edge">
<title>VERSION_TRACERS_TRACER_SYNTHESIS_REQUESTS:w&#45;&gt;VERSIONS_TRACERS:e</title>
<path fill="none" stroke="#000000" d="M655.0503,-340.071C636.2607,-323.8706 651.8581,-270.7 618,-270.7"/>
<polygon fill="#000000" stroke="#000000" points="661.4071,-342.1804 667.8662,-348.1168 665.2036,-343.4402 669,-344.7 669,-344.7 669,-344.7 665.2036,-343.4402 670.1338,-341.2832 661.4071,-342.1804 661.4071,-342.1804"/>
<ellipse fill="none" stroke="#000000" cx="658.37" cy="-341.1725" rx="3.2" ry="3.2"/>
</g>
<!-- TRACERS -->
<g id="node3" class="node">
<title>TRACERS</title>
<g id="a_node3"><a xlink:href="../../tables/TRACERS.html" xlink:title="TRACERS" target="_top">
<polygon fill="#ffffff" stroke="transparent" points="8,-38.2 8,-121.2 239,-121.2 239,-38.2 8,-38.2"/>
<polygon fill="#f5f5f5" stroke="transparent" points="8.5,-97.7 8.5,-120.7 239.5,-120.7 239.5,-97.7 8.5,-97.7"/>
<polygon fill="none" stroke="#000000" points="8.5,-97.7 8.5,-120.7 239.5,-120.7 239.5,-97.7 8.5,-97.7"/>
<text text-anchor="start" x="13.5" y="-106.8" font-family="Helvetica,sans-Serif" font-weight="bold" font-size="11.00" fill="#000000">TRACERS</text>
<text text-anchor="start" x="204.5437" y="-105.8" font-family="Helvetica,sans-Serif" font-size="11.00" fill="#000000">[table]</text>
<polygon fill="none" stroke="#000000" points="8.5,-75.7 8.5,-97.7 239.5,-97.7 239.5,-75.7 8.5,-75.7"/>
<image xlink:href="../../images/primaryKeys.png" width="11px" height="12px" preserveAspectRatio="xMinYMin meet" x="13.5" y="-92.7"/>
<text text-anchor="start" x="28.5" y="-82.8" font-family="Helvetica,sans-Serif" font-size="11.00" fill="#000000">ID</text>
<polygon fill="none" stroke="#000000" points="8.5,-56.7 8.5,-75.7 239.5,-75.7 239.5,-56.7 8.5,-56.7"/>
<text text-anchor="start" x="11.5" y="-62.8" font-family="Helvetica,sans-Serif" font-size="11.00" fill="#000000">...</text>
<polygon fill="#ffffff" stroke="transparent" points="8.5,-37.7 8.5,-56.7 94.5,-56.7 94.5,-37.7 8.5,-37.7"/>
<polygon fill="none" stroke="#000000" points="8.5,-37.7 8.5,-56.7 94.5,-56.7 94.5,-37.7 8.5,-37.7"/>
<text text-anchor="start" x="11.5" y="-43.8" font-family="Helvetica,sans-Serif" font-size="11.00" fill="#000000"> &#160;</text>
<polygon fill="#ffffff" stroke="transparent" points="94.5,-37.7 94.5,-56.7 181.5,-56.7 181.5,-37.7 94.5,-37.7"/>
<polygon fill="none" stroke="#000000" points="94.5,-37.7 94.5,-56.7 181.5,-56.7 181.5,-37.7 94.5,-37.7"/>
<text text-anchor="start" x="133.8807" y="-43.8" font-family="Helvetica,sans-Serif" font-size="11.00" fill="#000000">163 rows</text>
<polygon fill="#ffffff" stroke="transparent" points="181.5,-37.7 181.5,-56.7 239.5,-56.7 239.5,-37.7 181.5,-37.7"/>
<polygon fill="none" stroke="#000000" points="181.5,-37.7 181.5,-56.7 239.5,-56.7 239.5,-37.7 181.5,-37.7"/>
<text text-anchor="start" x="220.9053" y="-43.8" font-family="Helvetica,sans-Serif" font-size="11.00" fill="#000000">1 &gt;</text>
</a>
</g>
</g>
<!-- VERSIONS_TRACERS&#45;&gt;TRACERS -->
<g id="edge2" class="edge">
<title>VERSIONS_TRACERS:w&#45;&gt;TRACERS:e</title>
<path fill="none" stroke="#000000" d="M276.1372,-133.9012C261.3861,-121.0281 265.6756,-86.7 239.5,-86.7"/>
<polygon fill="#000000" stroke="#000000" points="282.4401,-136.083 288.8223,-142.1019 286.2201,-137.3915 290,-138.7 290,-138.7 290,-138.7 286.2201,-137.3915 291.1777,-135.2981 282.4401,-136.083 282.4401,-136.083"/>
<ellipse fill="none" stroke="#000000" cx="279.4162" cy="-135.0362" rx="3.2" ry="3.2"/>
</g>
<!-- VERSIONS -->
<g id="node4" class="node">
<title>VERSIONS</title>
<g id="a_node4"><a xlink:href="../../tables/VERSIONS.html" xlink:title="VERSIONS" target="_top">
<polygon fill="#ffffff" stroke="transparent" points="67,-142.2 67,-247.2 180,-247.2 180,-142.2 67,-142.2"/>
<polygon fill="#f5f5f5" stroke="transparent" points="67.5,-223.7 67.5,-246.7 180.5,-246.7 180.5,-223.7 67.5,-223.7"/>
<polygon fill="none" stroke="#000000" points="67.5,-223.7 67.5,-246.7 180.5,-246.7 180.5,-223.7 67.5,-223.7"/>
<text text-anchor="start" x="72.5" y="-232.8" font-family="Helvetica,sans-Serif" font-weight="bold" font-size="11.00" fill="#000000">VERSIONS</text>
<text text-anchor="start" x="145.5437" y="-231.8" font-family="Helvetica,sans-Serif" font-size="11.00" fill="#000000">[table]</text>
<polygon fill="none" stroke="#000000" points="67.5,-201.7 67.5,-223.7 180.5,-223.7 180.5,-201.7 67.5,-201.7"/>
<image xlink:href="../../images/primaryKeys.png" width="11px" height="12px" preserveAspectRatio="xMinYMin meet" x="72.5" y="-218.7"/>
<text text-anchor="start" x="87.5" y="-208.8" font-family="Helvetica,sans-Serif" font-size="11.00" fill="#000000">ID</text>
<polygon fill="none" stroke="#000000" points="67.5,-179.7 67.5,-201.7 180.5,-201.7 180.5,-179.7 67.5,-179.7"/>
<image xlink:href="../../images/foreignKeys.png" width="11px" height="12px" preserveAspectRatio="xMinYMin meet" x="72.5" y="-196.7"/>
<text text-anchor="start" x="87.5" y="-186.8" font-family="Helvetica,sans-Serif" font-size="11.00" fill="#000000">CAMPAIGN_ID</text>
<polygon fill="none" stroke="#000000" points="67.5,-160.7 67.5,-179.7 180.5,-179.7 180.5,-160.7 67.5,-160.7"/>
<text text-anchor="start" x="70.5" y="-166.8" font-family="Helvetica,sans-Serif" font-size="11.00" fill="#000000">...</text>
<polygon fill="#ffffff" stroke="transparent" points="67.5,-141.7 67.5,-160.7 98.5,-160.7 98.5,-141.7 67.5,-141.7"/>
<polygon fill="none" stroke="#000000" points="67.5,-141.7 67.5,-160.7 98.5,-160.7 98.5,-141.7 67.5,-141.7"/>
<text text-anchor="start" x="70.5" y="-147.8" font-family="Helvetica,sans-Serif" font-size="11.00" fill="#000000">&lt; 1</text>
<polygon fill="#ffffff" stroke="transparent" points="98.5,-141.7 98.5,-160.7 153.5,-160.7 153.5,-141.7 98.5,-141.7"/>
<polygon fill="none" stroke="#000000" points="98.5,-141.7 98.5,-160.7 153.5,-160.7 153.5,-141.7 98.5,-141.7"/>
<text text-anchor="start" x="105.8807" y="-147.8" font-family="Helvetica,sans-Serif" font-size="11.00" fill="#000000">222 rows</text>
<polygon fill="#ffffff" stroke="transparent" points="153.5,-141.7 153.5,-160.7 180.5,-160.7 180.5,-141.7 153.5,-141.7"/>
<polygon fill="none" stroke="#000000" points="153.5,-141.7 153.5,-160.7 180.5,-160.7 180.5,-141.7 153.5,-141.7"/>
<text text-anchor="start" x="161.9053" y="-147.8" font-family="Helvetica,sans-Serif" font-size="11.00" fill="#000000">4 &gt;</text>
</a>
</g>
</g>
<!-- VERSIONS_TRACERS&#45;&gt;VERSIONS -->
<g id="edge3" class="edge">
<title>VERSIONS_TRACERS:w&#45;&gt;VERSIONS:e</title>
<path fill="none" stroke="#000000" d="M275.6104,-162.0909C235.2858,-170.3603 229.1142,-212.7 180.5,-212.7"/>
<polygon fill="#000000" stroke="#000000" points="282.0371,-161.4697 290.3464,-164.2833 286.0186,-161.0849 290,-160.7 290,-160.7 290,-160.7 286.0186,-161.0849 289.6536,-157.1167 282.0371,-161.4697 282.0371,-161.4697"/>
<ellipse fill="none" stroke="#000000" cx="278.852" cy="-161.7776" rx="3.2" ry="3.2"/>
</g>
<!-- VERSIONS_TRACERS_TRACER_LIGANDS -->
<g id="node5" class="node">
<title>VERSIONS_TRACERS_TRACER_LIGANDS</title>
<g id="a_node5"><a xlink:href="../../tables/VERSIONS_TRACERS_TRACER_LIGANDS.html" xlink:title="VERSIONS_TRACERS_TRACER_LIGANDS" target="_top">
<polygon fill="#ffffff" stroke="transparent" points="711,-126.2 711,-253.2 993,-253.2 993,-126.2 711,-126.2"/>
<polygon fill="#f5f5f5" stroke="transparent" points="711,-229.7 711,-252.7 993,-252.7 993,-229.7 711,-229.7"/>
<polygon fill="none" stroke="#000000" points="711,-229.7 711,-252.7 993,-252.7 993,-229.7 711,-229.7"/>
<text text-anchor="start" x="716" y="-238.8" font-family="Helvetica,sans-Serif" font-weight="bold" font-size="11.00" fill="#000000">VERSIONS_TRACERS_TRACER_LIGANDS</text>
<text text-anchor="start" x="958.0437" y="-237.8" font-family="Helvetica,sans-Serif" font-size="11.00" fill="#000000">[table]</text>
<polygon fill="none" stroke="#000000" points="711,-207.7 711,-229.7 993,-229.7 993,-207.7 711,-207.7"/>
<image xlink:href="../../images/primaryKeys.png" width="11px" height="12px" preserveAspectRatio="xMinYMin meet" x="716" y="-224.7"/>
<text text-anchor="start" x="731" y="-214.8" font-family="Helvetica,sans-Serif" font-size="11.00" fill="#000000">ID</text>
<polygon fill="none" stroke="#000000" points="711,-185.7 711,-207.7 993,-207.7 993,-185.7 711,-185.7"/>
<image xlink:href="../../images/primaryKeys.png" width="11px" height="12px" preserveAspectRatio="xMinYMin meet" x="716" y="-202.7"/>
<text text-anchor="start" x="731" y="-192.8" font-family="Helvetica,sans-Serif" font-size="11.00" fill="#000000">VERSION_TRACER_ID</text>
<polygon fill="none" stroke="#000000" points="711,-163.7 711,-185.7 993,-185.7 993,-163.7 711,-163.7"/>
<image xlink:href="../../images/primaryKeys.png" width="11px" height="12px" preserveAspectRatio="xMinYMin meet" x="716" y="-180.7"/>
<text text-anchor="start" x="731" y="-170.8" font-family="Helvetica,sans-Serif" font-size="11.00" fill="#000000">TRACER_LIGAND_ID</text>
<polygon fill="none" stroke="#000000" points="711,-144.7 711,-163.7 993,-163.7 993,-144.7 711,-144.7"/>
<text text-anchor="start" x="714" y="-150.8" font-family="Helvetica,sans-Serif" font-size="11.00" fill="#000000">...</text>
<polygon fill="#ffffff" stroke="transparent" points="711,-125.7 711,-144.7 827,-144.7 827,-125.7 711,-125.7"/>
<polygon fill="none" stroke="#000000" points="711,-125.7 711,-144.7 827,-144.7 827,-125.7 711,-125.7"/>
<text text-anchor="start" x="714" y="-131.8" font-family="Helvetica,sans-Serif" font-size="11.00" fill="#000000">&lt; 2</text>
<polygon fill="#ffffff" stroke="transparent" points="827,-125.7 827,-144.7 933,-144.7 933,-125.7 827,-125.7"/>
<polygon fill="none" stroke="#000000" points="827,-125.7 827,-144.7 933,-144.7 933,-125.7 827,-125.7"/>
<text text-anchor="start" x="876.2089" y="-131.8" font-family="Helvetica,sans-Serif" font-size="11.00" fill="#000000">2,328 rows</text>
<polygon fill="#ffffff" stroke="transparent" points="933,-125.7 933,-144.7 993,-144.7 993,-125.7 933,-125.7"/>
<polygon fill="none" stroke="#000000" points="933,-125.7 933,-144.7 993,-144.7 993,-125.7 933,-125.7"/>
<text text-anchor="start" x="983.8862" y="-131.8" font-family="Helvetica,sans-Serif" font-size="11.00" fill="#000000"> &#160;</text>
</a>
</g>
</g>
<!-- VERSIONS_TRACERS_TRACER_LIGANDS&#45;&gt;VERSIONS_TRACERS -->
<g id="edge4" class="edge">
<title>VERSIONS_TRACERS_TRACER_LIGANDS:w&#45;&gt;VERSIONS_TRACERS:e</title>
<path fill="none" stroke="#000000" d="M696.3179,-198.9958C660.1171,-211.4862 665.2506,-270.7 618,-270.7"/>
<polygon fill="#000000" stroke="#000000" points="703.096,-197.936 711.5562,-200.2568 707.048,-197.318 711,-196.7 711,-196.7 711,-196.7 707.048,-197.318 710.4438,-193.1432 703.096,-197.936 703.096,-197.936"/>
<ellipse fill="none" stroke="#000000" cx="699.9345" cy="-198.4304" rx="3.2" ry="3.2"/>
</g>
</g>
</svg>
