<?xml version="1.0" encoding="UTF-8" standalone="no"?>
<!DOCTYPE svg PUBLIC "-//W3C//DTD SVG 1.1//EN"
 "http://www.w3.org/Graphics/SVG/1.1/DTD/svg11.dtd">
<!-- Generated by graphviz version 2.40.1 (20161225.0304)
 -->
<!-- Title: oneDegreeRelationshipsDiagram Pages: 1 -->
<svg width="526pt" height="267pt"
 viewBox="0.00 0.00 526.00 266.70" xmlns="http://www.w3.org/2000/svg" xmlns:xlink="http://www.w3.org/1999/xlink">
<g id="graph0" class="graph" transform="scale(1 1) rotate(0) translate(4 262.7)">
<title>oneDegreeRelationshipsDiagram</title>
<polygon fill="#ffffff" stroke="transparent" points="-4,4 -4,-262.7 522,-262.7 522,4 -4,4"/>
<text text-anchor="middle" x="72.4936" y="-7.3" font-family="Helvetica,sans-Serif" font-size="11.00" fill="#000000">Generated by SchemaSpy</text>
<!-- VERSION_COMMENTS -->
<g id="node1" class="node">
<title>VERSION_COMMENTS</title>
<g id="a_node1"><a xlink:href="../../tables/VERSION_COMMENTS.html" xlink:title="VERSION_COMMENTS" target="_top">
<polygon fill="#ffffff" stroke="transparent" points="170,-54.7 170,-254.7 510,-254.7 510,-54.7 170,-54.7"/>
<polygon fill="#f5f5f5" stroke="transparent" points="172,-229.7 172,-252.7 508,-252.7 508,-229.7 172,-229.7"/>
<polygon fill="none" stroke="#000000" points="172,-229.7 172,-252.7 508,-252.7 508,-229.7 172,-229.7"/>
<text text-anchor="start" x="177" y="-238.8" font-family="Helvetica,sans-Serif" font-weight="bold" font-size="11.00" fill="#000000">VERSION_COMMENTS</text>
<text text-anchor="start" x="473.0437" y="-237.8" font-family="Helvetica,sans-Serif" font-size="11.00" fill="#000000">[table]</text>
<polygon fill="none" stroke="#000000" points="172,-207.7 172,-229.7 337,-229.7 337,-207.7 172,-207.7"/>
<image xlink:href="../../images/primaryKeys.png" width="11px" height="12px" preserveAspectRatio="xMinYMin meet" x="177" y="-224.7"/>
<text text-anchor="start" x="192" y="-214.8" font-family="Helvetica,sans-Serif" font-size="11.00" fill="#000000">ID</text>
<polygon fill="none" stroke="#000000" points="337,-207.7 337,-229.7 508,-229.7 508,-207.7 337,-207.7"/>
<text text-anchor="start" x="340" y="-215.4" font-family="Helvetica,sans-Serif" font-size="11.00" fill="#000000">number[19]</text>
<polygon fill="none" stroke="#000000" points="172,-185.7 172,-207.7 337,-207.7 337,-185.7 172,-185.7"/>
<text text-anchor="start" x="192" y="-192.8" font-family="Helvetica,sans-Serif" font-size="11.00" fill="#000000">CREATED_AT</text>
<polygon fill="none" stroke="#000000" points="337,-185.7 337,-207.7 508,-207.7 508,-185.7 337,-185.7"/>
<text text-anchor="start" x="339.9896" y="-193.4" font-family="Helvetica,sans-Serif" font-size="11.00" fill="#000000">timestamp(6) with time zone[13,6]</text>
<polygon fill="none" stroke="#000000" points="172,-163.7 172,-185.7 337,-185.7 337,-163.7 172,-163.7"/>
<text text-anchor="start" x="192" y="-170.8" font-family="Helvetica,sans-Serif" font-size="11.00" fill="#000000">CREATED_BY</text>
<polygon fill="none" stroke="#000000" points="337,-163.7 337,-185.7 508,-185.7 508,-163.7 337,-163.7"/>
<text text-anchor="start" x="340" y="-171.4" font-family="Helvetica,sans-Serif" font-size="11.00" fill="#000000">number[19]</text>
<polygon fill="none" stroke="#000000" points="172,-141.7 172,-163.7 337,-163.7 337,-141.7 172,-141.7"/>
<text text-anchor="start" x="192" y="-148.8" font-family="Helvetica,sans-Serif" font-size="11.00" fill="#000000">UPDATED_AT</text>
<polygon fill="none" stroke="#000000" points="337,-141.7 337,-163.7 508,-163.7 508,-141.7 337,-141.7"/>
<text text-anchor="start" x="339.9896" y="-149.4" font-family="Helvetica,sans-Serif" font-size="11.00" fill="#000000">timestamp(6) with time zone[13,6]</text>
<polygon fill="none" stroke="#000000" points="172,-119.7 172,-141.7 337,-141.7 337,-119.7 172,-119.7"/>
<text text-anchor="start" x="192" y="-126.8" font-family="Helvetica,sans-Serif" font-size="11.00" fill="#000000">UPDATED_BY</text>
<polygon fill="none" stroke="#000000" points="337,-119.7 337,-141.7 508,-141.7 508,-119.7 337,-119.7"/>
<text text-anchor="start" x="340" y="-127.4" font-family="Helvetica,sans-Serif" font-size="11.00" fill="#000000">number[19]</text>
<polygon fill="none" stroke="#000000" points="172,-97.7 172,-119.7 337,-119.7 337,-97.7 172,-97.7"/>
<image xlink:href="../../images/foreignKeys.png" width="11px" height="12px" preserveAspectRatio="xMinYMin meet" x="177" y="-114.7"/>
<text text-anchor="start" x="192" y="-104.8" font-family="Helvetica,sans-Serif" font-size="11.00" fill="#000000">VERSION_ID</text>
<polygon fill="none" stroke="#000000" points="337,-97.7 337,-119.7 508,-119.7 508,-97.7 337,-97.7"/>
<text text-anchor="start" x="340" y="-105.4" font-family="Helvetica,sans-Serif" font-size="11.00" fill="#000000">number[19]</text>
<polygon fill="none" stroke="#000000" points="172,-75.7 172,-97.7 337,-97.7 337,-75.7 172,-75.7"/>
<text text-anchor="start" x="192" y="-82.8" font-family="Helvetica,sans-Serif" font-size="11.00" fill="#000000">DESCRIPTION</text>
<polygon fill="none" stroke="#000000" points="337,-75.7 337,-97.7 508,-97.7 508,-75.7 337,-75.7"/>
<text text-anchor="start" x="340" y="-83.4" font-family="Helvetica,sans-Serif" font-size="11.00" fill="#000000">clob[4000]</text>
<polygon fill="#ffffff" stroke="transparent" points="172,-56.7 172,-75.7 243,-75.7 243,-56.7 172,-56.7"/>
<polygon fill="none" stroke="#000000" points="172,-56.7 172,-75.7 243,-75.7 243,-56.7 172,-56.7"/>
<text text-anchor="start" x="175" y="-62.8" font-family="Helvetica,sans-Serif" font-size="11.00" fill="#000000">&lt; 1</text>
<polygon fill="#ffffff" stroke="transparent" points="243,-56.7 243,-75.7 337,-75.7 337,-56.7 243,-56.7"/>
<polygon fill="none" stroke="#000000" points="243,-56.7 243,-75.7 337,-75.7 337,-56.7 243,-56.7"/>
<text text-anchor="start" x="295.4956" y="-62.8" font-family="Helvetica,sans-Serif" font-size="11.00" fill="#000000">21 rows</text>
<polygon fill="#ffffff" stroke="transparent" points="337,-56.7 337,-75.7 508,-75.7 508,-56.7 337,-56.7"/>
<polygon fill="none" stroke="#000000" points="337,-56.7 337,-75.7 508,-75.7 508,-56.7 337,-56.7"/>
<text text-anchor="start" x="489.4053" y="-62.8" font-family="Helvetica,sans-Serif" font-size="11.00" fill="#000000">0 &gt;</text>
<polygon fill="none" stroke="#000000" stroke-width="2" points="171,-55.7 171,-253.7 509,-253.7 509,-55.7 171,-55.7"/>
</a>
</g>
</g>
<!-- VERSIONS -->
<g id="node2" class="node">
<title>VERSIONS</title>
<g id="a_node2"><a xlink:href="../../tables/VERSIONS.html" xlink:title="VERSIONS" target="_top">
<polygon fill="#ffffff" stroke="transparent" points="8,-38.2 8,-143.2 121,-143.2 121,-38.2 8,-38.2"/>
<polygon fill="#f5f5f5" stroke="transparent" points="8.5,-119.7 8.5,-142.7 121.5,-142.7 121.5,-119.7 8.5,-119.7"/>
<polygon fill="none" stroke="#000000" points="8.5,-119.7 8.5,-142.7 121.5,-142.7 121.5,-119.7 8.5,-119.7"/>
<text text-anchor="start" x="13.5" y="-128.8" font-family="Helvetica,sans-Serif" font-weight="bold" font-size="11.00" fill="#000000">VERSIONS</text>
<text text-anchor="start" x="86.5437" y="-127.8" font-family="Helvetica,sans-Serif" font-size="11.00" fill="#000000">[table]</text>
<polygon fill="none" stroke="#000000" points="8.5,-97.7 8.5,-119.7 121.5,-119.7 121.5,-97.7 8.5,-97.7"/>
<image xlink:href="../../images/primaryKeys.png" width="11px" height="12px" preserveAspectRatio="xMinYMin meet" x="13.5" y="-114.7"/>
<text text-anchor="start" x="28.5" y="-104.8" font-family="Helvetica,sans-Serif" font-size="11.00" fill="#000000">ID</text>
<polygon fill="none" stroke="#000000" points="8.5,-75.7 8.5,-97.7 121.5,-97.7 121.5,-75.7 8.5,-75.7"/>
<image xlink:href="../../images/foreignKeys.png" width="11px" height="12px" preserveAspectRatio="xMinYMin meet" x="13.5" y="-92.7"/>
<text text-anchor="start" x="28.5" y="-82.8" font-family="Helvetica,sans-Serif" font-size="11.00" fill="#000000">CAMPAIGN_ID</text>
<polygon fill="none" stroke="#000000" points="8.5,-56.7 8.5,-75.7 121.5,-75.7 121.5,-56.7 8.5,-56.7"/>
<text text-anchor="start" x="11.5" y="-62.8" font-family="Helvetica,sans-Serif" font-size="11.00" fill="#000000">...</text>
<polygon fill="#ffffff" stroke="transparent" points="8.5,-37.7 8.5,-56.7 39.5,-56.7 39.5,-37.7 8.5,-37.7"/>
<polygon fill="none" stroke="#000000" points="8.5,-37.7 8.5,-56.7 39.5,-56.7 39.5,-37.7 8.5,-37.7"/>
<text text-anchor="start" x="11.5" y="-43.8" font-family="Helvetica,sans-Serif" font-size="11.00" fill="#000000">&lt; 1</text>
<polygon fill="#ffffff" stroke="transparent" points="39.5,-37.7 39.5,-56.7 94.5,-56.7 94.5,-37.7 39.5,-37.7"/>
<polygon fill="none" stroke="#000000" points="39.5,-37.7 39.5,-56.7 94.5,-56.7 94.5,-37.7 39.5,-37.7"/>
<text text-anchor="start" x="46.8807" y="-43.8" font-family="Helvetica,sans-Serif" font-size="11.00" fill="#000000">222 rows</text>
<polygon fill="#ffffff" stroke="transparent" points="94.5,-37.7 94.5,-56.7 121.5,-56.7 121.5,-37.7 94.5,-37.7"/>
<polygon fill="none" stroke="#000000" points="94.5,-37.7 94.5,-56.7 121.5,-56.7 121.5,-37.7 94.5,-37.7"/>
<text text-anchor="start" x="102.9053" y="-43.8" font-family="Helvetica,sans-Serif" font-size="11.00" fill="#000000">4 &gt;</text>
</a>
</g>
</g>
<!-- VERSION_COMMENTS&#45;&gt;VERSIONS -->
<g id="edge1" class="edge">
<title>VERSION_COMMENTS:w&#45;&gt;VERSIONS:e</title>
<path fill="none" stroke="#000000" d="M157.4203,-108.7C145.5435,-108.7 138.158,-108.7 121.5,-108.7"/>
<polygon fill="#000000" stroke="#000000" points="164,-108.7001 172,-112.3 168,-108.7 172,-108.7 172,-108.7 172,-108.7 168,-108.7 172,-105.1 164,-108.7001 164,-108.7001"/>
<ellipse fill="none" stroke="#000000" cx="160.8" cy="-108.7001" rx="3.2" ry="3.2"/>
</g>
</g>
</svg>
