<?xml version="1.0" encoding="UTF-8" standalone="no"?>
<!DOCTYPE svg PUBLIC "-//W3C//DTD SVG 1.1//EN"
 "http://www.w3.org/Graphics/SVG/1.1/DTD/svg11.dtd">
<!-- Generated by graphviz version 2.40.1 (20161225.0304)
 -->
<!-- Title: oneDegreeRelationshipsDiagram Pages: 1 -->
<svg width="630pt" height="341pt"
 viewBox="0.00 0.00 630.00 340.70" xmlns="http://www.w3.org/2000/svg" xmlns:xlink="http://www.w3.org/1999/xlink">
<g id="graph0" class="graph" transform="scale(1 1) rotate(0) translate(4 336.7)">
<title>oneDegreeRelationshipsDiagram</title>
<polygon fill="#ffffff" stroke="transparent" points="-4,4 -4,-336.7 626,-336.7 626,4 -4,4"/>
<text text-anchor="middle" x="72.4936" y="-7.3" font-family="Helvetica,sans-Serif" font-size="11.00" fill="#000000">Generated by SchemaSpy</text>
<!-- VERSIONS_SUPPLEMENTS -->
<g id="node1" class="node">
<title>VERSIONS_SUPPLEMENTS</title>
<g id="a_node1"><a xlink:href="../../tables/VERSIONS_SUPPLEMENTS.html" xlink:title="VERSIONS_SUPPLEMENTS" target="_top">
<polygon fill="#ffffff" stroke="transparent" points="245,-128.7 245,-328.7 614,-328.7 614,-128.7 245,-128.7"/>
<polygon fill="#f5f5f5" stroke="transparent" points="247.5,-303.7 247.5,-326.7 612.5,-326.7 612.5,-303.7 247.5,-303.7"/>
<polygon fill="none" stroke="#000000" points="247.5,-303.7 247.5,-326.7 612.5,-326.7 612.5,-303.7 247.5,-303.7"/>
<text text-anchor="start" x="252.5" y="-312.8" font-family="Helvetica,sans-Serif" font-weight="bold" font-size="11.00" fill="#000000">VERSIONS_SUPPLEMENTS</text>
<text text-anchor="start" x="577.5437" y="-311.8" font-family="Helvetica,sans-Serif" font-size="11.00" fill="#000000">[table]</text>
<polygon fill="none" stroke="#000000" points="247.5,-281.7 247.5,-303.7 441.5,-303.7 441.5,-281.7 247.5,-281.7"/>
<image xlink:href="../../images/primaryKeys.png" width="11px" height="12px" preserveAspectRatio="xMinYMin meet" x="252.5" y="-298.7"/>
<text text-anchor="start" x="267.5" y="-288.8" font-family="Helvetica,sans-Serif" font-size="11.00" fill="#000000">ID</text>
<polygon fill="none" stroke="#000000" points="441.5,-281.7 441.5,-303.7 612.5,-303.7 612.5,-281.7 441.5,-281.7"/>
<text text-anchor="start" x="444.5" y="-289.4" font-family="Helvetica,sans-Serif" font-size="11.00" fill="#000000">number[19]</text>
<polygon fill="none" stroke="#000000" points="247.5,-259.7 247.5,-281.7 441.5,-281.7 441.5,-259.7 247.5,-259.7"/>
<text text-anchor="start" x="267.5" y="-266.8" font-family="Helvetica,sans-Serif" font-size="11.00" fill="#000000">CREATED_AT</text>
<polygon fill="none" stroke="#000000" points="441.5,-259.7 441.5,-281.7 612.5,-281.7 612.5,-259.7 441.5,-259.7"/>
<text text-anchor="start" x="444.4896" y="-267.4" font-family="Helvetica,sans-Serif" font-size="11.00" fill="#000000">timestamp(6) with time zone[13,6]</text>
<polygon fill="none" stroke="#000000" points="247.5,-237.7 247.5,-259.7 441.5,-259.7 441.5,-237.7 247.5,-237.7"/>
<text text-anchor="start" x="267.5" y="-244.8" font-family="Helvetica,sans-Serif" font-size="11.00" fill="#000000">CREATED_BY</text>
<polygon fill="none" stroke="#000000" points="441.5,-237.7 441.5,-259.7 612.5,-259.7 612.5,-237.7 441.5,-237.7"/>
<text text-anchor="start" x="444.5" y="-245.4" font-family="Helvetica,sans-Serif" font-size="11.00" fill="#000000">number[19]</text>
<polygon fill="none" stroke="#000000" points="247.5,-215.7 247.5,-237.7 441.5,-237.7 441.5,-215.7 247.5,-215.7"/>
<text text-anchor="start" x="267.5" y="-222.8" font-family="Helvetica,sans-Serif" font-size="11.00" fill="#000000">UPDATED_AT</text>
<polygon fill="none" stroke="#000000" points="441.5,-215.7 441.5,-237.7 612.5,-237.7 612.5,-215.7 441.5,-215.7"/>
<text text-anchor="start" x="444.4896" y="-223.4" font-family="Helvetica,sans-Serif" font-size="11.00" fill="#000000">timestamp(6) with time zone[13,6]</text>
<polygon fill="none" stroke="#000000" points="247.5,-193.7 247.5,-215.7 441.5,-215.7 441.5,-193.7 247.5,-193.7"/>
<text text-anchor="start" x="267.5" y="-200.8" font-family="Helvetica,sans-Serif" font-size="11.00" fill="#000000">UPDATED_BY</text>
<polygon fill="none" stroke="#000000" points="441.5,-193.7 441.5,-215.7 612.5,-215.7 612.5,-193.7 441.5,-193.7"/>
<text text-anchor="start" x="444.5" y="-201.4" font-family="Helvetica,sans-Serif" font-size="11.00" fill="#000000">number[19]</text>
<polygon fill="none" stroke="#000000" points="247.5,-171.7 247.5,-193.7 441.5,-193.7 441.5,-171.7 247.5,-171.7"/>
<image xlink:href="../../images/primaryKeys.png" width="11px" height="12px" preserveAspectRatio="xMinYMin meet" x="252.5" y="-188.7"/>
<text text-anchor="start" x="267.5" y="-178.8" font-family="Helvetica,sans-Serif" font-size="11.00" fill="#000000">VERSION_ID</text>
<polygon fill="none" stroke="#000000" points="441.5,-171.7 441.5,-193.7 612.5,-193.7 612.5,-171.7 441.5,-171.7"/>
<text text-anchor="start" x="444.5" y="-179.4" font-family="Helvetica,sans-Serif" font-size="11.00" fill="#000000">number[19]</text>
<polygon fill="none" stroke="#000000" points="247.5,-149.7 247.5,-171.7 441.5,-171.7 441.5,-149.7 247.5,-149.7"/>
<image xlink:href="../../images/primaryKeys.png" width="11px" height="12px" preserveAspectRatio="xMinYMin meet" x="252.5" y="-166.7"/>
<text text-anchor="start" x="267.5" y="-156.8" font-family="Helvetica,sans-Serif" font-size="11.00" fill="#000000">SUPPLEMENT_ID</text>
<polygon fill="none" stroke="#000000" points="441.5,-149.7 441.5,-171.7 612.5,-171.7 612.5,-149.7 441.5,-149.7"/>
<text text-anchor="start" x="444.5" y="-157.4" font-family="Helvetica,sans-Serif" font-size="11.00" fill="#000000">number[19]</text>
<polygon fill="#ffffff" stroke="transparent" points="247.5,-130.7 247.5,-149.7 329.5,-149.7 329.5,-130.7 247.5,-130.7"/>
<polygon fill="none" stroke="#000000" points="247.5,-130.7 247.5,-149.7 329.5,-149.7 329.5,-130.7 247.5,-130.7"/>
<text text-anchor="start" x="250.5" y="-136.8" font-family="Helvetica,sans-Serif" font-size="11.00" fill="#000000">&lt; 2</text>
<polygon fill="#ffffff" stroke="transparent" points="329.5,-130.7 329.5,-149.7 441.5,-149.7 441.5,-130.7 329.5,-130.7"/>
<polygon fill="none" stroke="#000000" points="329.5,-130.7 329.5,-149.7 441.5,-149.7 441.5,-130.7 329.5,-130.7"/>
<text text-anchor="start" x="393.8807" y="-136.8" font-family="Helvetica,sans-Serif" font-size="11.00" fill="#000000">190 rows</text>
<polygon fill="#ffffff" stroke="transparent" points="441.5,-130.7 441.5,-149.7 612.5,-149.7 612.5,-130.7 441.5,-130.7"/>
<polygon fill="none" stroke="#000000" points="441.5,-130.7 441.5,-149.7 612.5,-149.7 612.5,-130.7 441.5,-130.7"/>
<text text-anchor="start" x="593.9053" y="-136.8" font-family="Helvetica,sans-Serif" font-size="11.00" fill="#000000">0 &gt;</text>
<polygon fill="none" stroke="#000000" stroke-width="2" points="246,-129.7 246,-327.7 613,-327.7 613,-129.7 246,-129.7"/>
</a>
</g>
</g>
<!-- SUPPLEMENTS -->
<g id="node2" class="node">
<title>SUPPLEMENTS</title>
<g id="a_node2"><a xlink:href="../../tables/SUPPLEMENTS.html" xlink:title="SUPPLEMENTS" target="_top">
<polygon fill="#ffffff" stroke="transparent" points="8,-38.2 8,-143.2 196,-143.2 196,-38.2 8,-38.2"/>
<polygon fill="#f5f5f5" stroke="transparent" points="8,-119.7 8,-142.7 196,-142.7 196,-119.7 8,-119.7"/>
<polygon fill="none" stroke="#000000" points="8,-119.7 8,-142.7 196,-142.7 196,-119.7 8,-119.7"/>
<text text-anchor="start" x="13" y="-128.8" font-family="Helvetica,sans-Serif" font-weight="bold" font-size="11.00" fill="#000000">SUPPLEMENTS</text>
<text text-anchor="start" x="161.0437" y="-127.8" font-family="Helvetica,sans-Serif" font-size="11.00" fill="#000000">[table]</text>
<polygon fill="none" stroke="#000000" points="8,-97.7 8,-119.7 196,-119.7 196,-97.7 8,-97.7"/>
<image xlink:href="../../images/primaryKeys.png" width="11px" height="12px" preserveAspectRatio="xMinYMin meet" x="13" y="-114.7"/>
<text text-anchor="start" x="28" y="-104.8" font-family="Helvetica,sans-Serif" font-size="11.00" fill="#000000">ID</text>
<polygon fill="none" stroke="#000000" points="8,-75.7 8,-97.7 196,-97.7 196,-75.7 8,-75.7"/>
<image xlink:href="../../images/foreignKeys.png" width="11px" height="12px" preserveAspectRatio="xMinYMin meet" x="13" y="-92.7"/>
<text text-anchor="start" x="28" y="-82.8" font-family="Helvetica,sans-Serif" font-size="11.00" fill="#000000">TARGET_FORM_ID</text>
<polygon fill="none" stroke="#000000" points="8,-56.7 8,-75.7 196,-75.7 196,-56.7 8,-56.7"/>
<text text-anchor="start" x="11" y="-62.8" font-family="Helvetica,sans-Serif" font-size="11.00" fill="#000000">...</text>
<polygon fill="#ffffff" stroke="transparent" points="8,-37.7 8,-56.7 80,-56.7 80,-37.7 8,-37.7"/>
<polygon fill="none" stroke="#000000" points="8,-37.7 8,-56.7 80,-56.7 80,-37.7 8,-37.7"/>
<text text-anchor="start" x="11" y="-43.8" font-family="Helvetica,sans-Serif" font-size="11.00" fill="#000000">&lt; 1</text>
<polygon fill="#ffffff" stroke="transparent" points="80,-37.7 80,-56.7 149,-56.7 149,-37.7 80,-37.7"/>
<polygon fill="none" stroke="#000000" points="80,-37.7 80,-56.7 149,-56.7 149,-37.7 80,-37.7"/>
<text text-anchor="start" x="107.4956" y="-43.8" font-family="Helvetica,sans-Serif" font-size="11.00" fill="#000000">77 rows</text>
<polygon fill="#ffffff" stroke="transparent" points="149,-37.7 149,-56.7 196,-56.7 196,-37.7 149,-37.7"/>
<polygon fill="none" stroke="#000000" points="149,-37.7 149,-56.7 196,-56.7 196,-37.7 149,-37.7"/>
<text text-anchor="start" x="177.4053" y="-43.8" font-family="Helvetica,sans-Serif" font-size="11.00" fill="#000000">5 &gt;</text>
</a>
</g>
</g>
<!-- VERSIONS_SUPPLEMENTS&#45;&gt;SUPPLEMENTS -->
<g id="edge1" class="edge">
<title>VERSIONS_SUPPLEMENTS:w&#45;&gt;SUPPLEMENTS:e</title>
<path fill="none" stroke="#000000" d="M233.4561,-155.9012C218.4356,-143.0281 222.4284,-108.7 196,-108.7"/>
<polygon fill="#000000" stroke="#000000" points="239.9297,-158.1132 246.3359,-164.1066 243.7149,-159.4066 247.5,-160.7 247.5,-160.7 247.5,-160.7 243.7149,-159.4066 248.6641,-157.2934 239.9297,-158.1132 239.9297,-158.1132"/>
<ellipse fill="none" stroke="#000000" cx="236.9016" cy="-157.0785" rx="3.2" ry="3.2"/>
</g>
<!-- VERSIONS -->
<g id="node3" class="node">
<title>VERSIONS</title>
<g id="a_node3"><a xlink:href="../../tables/VERSIONS.html" xlink:title="VERSIONS" target="_top">
<polygon fill="#ffffff" stroke="transparent" points="45.5,-164.2 45.5,-269.2 158.5,-269.2 158.5,-164.2 45.5,-164.2"/>
<polygon fill="#f5f5f5" stroke="transparent" points="46,-245.7 46,-268.7 159,-268.7 159,-245.7 46,-245.7"/>
<polygon fill="none" stroke="#000000" points="46,-245.7 46,-268.7 159,-268.7 159,-245.7 46,-245.7"/>
<text text-anchor="start" x="51" y="-254.8" font-family="Helvetica,sans-Serif" font-weight="bold" font-size="11.00" fill="#000000">VERSIONS</text>
<text text-anchor="start" x="124.0437" y="-253.8" font-family="Helvetica,sans-Serif" font-size="11.00" fill="#000000">[table]</text>
<polygon fill="none" stroke="#000000" points="46,-223.7 46,-245.7 159,-245.7 159,-223.7 46,-223.7"/>
<image xlink:href="../../images/primaryKeys.png" width="11px" height="12px" preserveAspectRatio="xMinYMin meet" x="51" y="-240.7"/>
<text text-anchor="start" x="66" y="-230.8" font-family="Helvetica,sans-Serif" font-size="11.00" fill="#000000">ID</text>
<polygon fill="none" stroke="#000000" points="46,-201.7 46,-223.7 159,-223.7 159,-201.7 46,-201.7"/>
<image xlink:href="../../images/foreignKeys.png" width="11px" height="12px" preserveAspectRatio="xMinYMin meet" x="51" y="-218.7"/>
<text text-anchor="start" x="66" y="-208.8" font-family="Helvetica,sans-Serif" font-size="11.00" fill="#000000">CAMPAIGN_ID</text>
<polygon fill="none" stroke="#000000" points="46,-182.7 46,-201.7 159,-201.7 159,-182.7 46,-182.7"/>
<text text-anchor="start" x="49" y="-188.8" font-family="Helvetica,sans-Serif" font-size="11.00" fill="#000000">...</text>
<polygon fill="#ffffff" stroke="transparent" points="46,-163.7 46,-182.7 77,-182.7 77,-163.7 46,-163.7"/>
<polygon fill="none" stroke="#000000" points="46,-163.7 46,-182.7 77,-182.7 77,-163.7 46,-163.7"/>
<text text-anchor="start" x="49" y="-169.8" font-family="Helvetica,sans-Serif" font-size="11.00" fill="#000000">&lt; 1</text>
<polygon fill="#ffffff" stroke="transparent" points="77,-163.7 77,-182.7 132,-182.7 132,-163.7 77,-163.7"/>
<polygon fill="none" stroke="#000000" points="77,-163.7 77,-182.7 132,-182.7 132,-163.7 77,-163.7"/>
<text text-anchor="start" x="84.3807" y="-169.8" font-family="Helvetica,sans-Serif" font-size="11.00" fill="#000000">222 rows</text>
<polygon fill="#ffffff" stroke="transparent" points="132,-163.7 132,-182.7 159,-182.7 159,-163.7 132,-163.7"/>
<polygon fill="none" stroke="#000000" points="132,-163.7 132,-182.7 159,-182.7 159,-163.7 132,-163.7"/>
<text text-anchor="start" x="140.4053" y="-169.8" font-family="Helvetica,sans-Serif" font-size="11.00" fill="#000000">4 &gt;</text>
</a>
</g>
</g>
<!-- VERSIONS_SUPPLEMENTS&#45;&gt;VERSIONS -->
<g id="edge2" class="edge">
<title>VERSIONS_SUPPLEMENTS:w&#45;&gt;VERSIONS:e</title>
<path fill="none" stroke="#000000" d="M232.8826,-184.8029C201.8341,-194.5312 199.0962,-234.7 159,-234.7"/>
<polygon fill="#000000" stroke="#000000" points="239.5815,-183.8392 248.0126,-186.2633 243.5408,-183.2696 247.5,-182.7 247.5,-182.7 247.5,-182.7 243.5408,-183.2696 246.9874,-179.1367 239.5815,-183.8392 239.5815,-183.8392"/>
<ellipse fill="none" stroke="#000000" cx="236.4141" cy="-184.2949" rx="3.2" ry="3.2"/>
</g>
</g>
</svg>
