<?xml version="1.0" encoding="UTF-8" standalone="no"?>
<!DOCTYPE svg PUBLIC "-//W3C//DTD SVG 1.1//EN"
 "http://www.w3.org/Graphics/SVG/1.1/DTD/svg11.dtd">
<!-- Generated by graphviz version 2.40.1 (20161225.0304)
 -->
<!-- Title: twoDegreesRelationshipsDiagram Pages: 1 -->
<svg width="684pt" height="497pt"
 viewBox="0.00 0.00 684.00 496.70" xmlns="http://www.w3.org/2000/svg" xmlns:xlink="http://www.w3.org/1999/xlink">
<g id="graph0" class="graph" transform="scale(1 1) rotate(0) translate(4 492.7)">
<title>twoDegreesRelationshipsDiagram</title>
<polygon fill="#ffffff" stroke="transparent" points="-4,4 -4,-492.7 680,-492.7 680,4 -4,4"/>
<text text-anchor="middle" x="72.4936" y="-7.3" font-family="Helvetica,sans-Serif" font-size="11.00" fill="#000000">Generated by SchemaSpy</text>
<!-- VERSION_COMMENTS -->
<g id="node1" class="node">
<title>VERSION_COMMENTS</title>
<g id="a_node1"><a xlink:href="../../tables/VERSION_COMMENTS.html" xlink:title="VERSION_COMMENTS" target="_top">
<polygon fill="#ffffff" stroke="transparent" points="328,-284.7 328,-484.7 668,-484.7 668,-284.7 328,-284.7"/>
<polygon fill="#f5f5f5" stroke="transparent" points="330,-459.7 330,-482.7 666,-482.7 666,-459.7 330,-459.7"/>
<polygon fill="none" stroke="#000000" points="330,-459.7 330,-482.7 666,-482.7 666,-459.7 330,-459.7"/>
<text text-anchor="start" x="335" y="-468.8" font-family="Helvetica,sans-Serif" font-weight="bold" font-size="11.00" fill="#000000">VERSION_COMMENTS</text>
<text text-anchor="start" x="631.0437" y="-467.8" font-family="Helvetica,sans-Serif" font-size="11.00" fill="#000000">[table]</text>
<polygon fill="none" stroke="#000000" points="330,-437.7 330,-459.7 495,-459.7 495,-437.7 330,-437.7"/>
<image xlink:href="../../images/primaryKeys.png" width="11px" height="12px" preserveAspectRatio="xMinYMin meet" x="335" y="-454.7"/>
<text text-anchor="start" x="350" y="-444.8" font-family="Helvetica,sans-Serif" font-size="11.00" fill="#000000">ID</text>
<polygon fill="none" stroke="#000000" points="495,-437.7 495,-459.7 666,-459.7 666,-437.7 495,-437.7"/>
<text text-anchor="start" x="498" y="-445.4" font-family="Helvetica,sans-Serif" font-size="11.00" fill="#000000">number[19]</text>
<polygon fill="none" stroke="#000000" points="330,-415.7 330,-437.7 495,-437.7 495,-415.7 330,-415.7"/>
<text text-anchor="start" x="350" y="-422.8" font-family="Helvetica,sans-Serif" font-size="11.00" fill="#000000">CREATED_AT</text>
<polygon fill="none" stroke="#000000" points="495,-415.7 495,-437.7 666,-437.7 666,-415.7 495,-415.7"/>
<text text-anchor="start" x="497.9896" y="-423.4" font-family="Helvetica,sans-Serif" font-size="11.00" fill="#000000">timestamp(6) with time zone[13,6]</text>
<polygon fill="none" stroke="#000000" points="330,-393.7 330,-415.7 495,-415.7 495,-393.7 330,-393.7"/>
<text text-anchor="start" x="350" y="-400.8" font-family="Helvetica,sans-Serif" font-size="11.00" fill="#000000">CREATED_BY</text>
<polygon fill="none" stroke="#000000" points="495,-393.7 495,-415.7 666,-415.7 666,-393.7 495,-393.7"/>
<text text-anchor="start" x="498" y="-401.4" font-family="Helvetica,sans-Serif" font-size="11.00" fill="#000000">number[19]</text>
<polygon fill="none" stroke="#000000" points="330,-371.7 330,-393.7 495,-393.7 495,-371.7 330,-371.7"/>
<text text-anchor="start" x="350" y="-378.8" font-family="Helvetica,sans-Serif" font-size="11.00" fill="#000000">UPDATED_AT</text>
<polygon fill="none" stroke="#000000" points="495,-371.7 495,-393.7 666,-393.7 666,-371.7 495,-371.7"/>
<text text-anchor="start" x="497.9896" y="-379.4" font-family="Helvetica,sans-Serif" font-size="11.00" fill="#000000">timestamp(6) with time zone[13,6]</text>
<polygon fill="none" stroke="#000000" points="330,-349.7 330,-371.7 495,-371.7 495,-349.7 330,-349.7"/>
<text text-anchor="start" x="350" y="-356.8" font-family="Helvetica,sans-Serif" font-size="11.00" fill="#000000">UPDATED_BY</text>
<polygon fill="none" stroke="#000000" points="495,-349.7 495,-371.7 666,-371.7 666,-349.7 495,-349.7"/>
<text text-anchor="start" x="498" y="-357.4" font-family="Helvetica,sans-Serif" font-size="11.00" fill="#000000">number[19]</text>
<polygon fill="none" stroke="#000000" points="330,-327.7 330,-349.7 495,-349.7 495,-327.7 330,-327.7"/>
<image xlink:href="../../images/foreignKeys.png" width="11px" height="12px" preserveAspectRatio="xMinYMin meet" x="335" y="-344.7"/>
<text text-anchor="start" x="350" y="-334.8" font-family="Helvetica,sans-Serif" font-size="11.00" fill="#000000">VERSION_ID</text>
<polygon fill="none" stroke="#000000" points="495,-327.7 495,-349.7 666,-349.7 666,-327.7 495,-327.7"/>
<text text-anchor="start" x="498" y="-335.4" font-family="Helvetica,sans-Serif" font-size="11.00" fill="#000000">number[19]</text>
<polygon fill="none" stroke="#000000" points="330,-305.7 330,-327.7 495,-327.7 495,-305.7 330,-305.7"/>
<text text-anchor="start" x="350" y="-312.8" font-family="Helvetica,sans-Serif" font-size="11.00" fill="#000000">DESCRIPTION</text>
<polygon fill="none" stroke="#000000" points="495,-305.7 495,-327.7 666,-327.7 666,-305.7 495,-305.7"/>
<text text-anchor="start" x="498" y="-313.4" font-family="Helvetica,sans-Serif" font-size="11.00" fill="#000000">clob[4000]</text>
<polygon fill="#ffffff" stroke="transparent" points="330,-286.7 330,-305.7 401,-305.7 401,-286.7 330,-286.7"/>
<polygon fill="none" stroke="#000000" points="330,-286.7 330,-305.7 401,-305.7 401,-286.7 330,-286.7"/>
<text text-anchor="start" x="333" y="-292.8" font-family="Helvetica,sans-Serif" font-size="11.00" fill="#000000">&lt; 1</text>
<polygon fill="#ffffff" stroke="transparent" points="401,-286.7 401,-305.7 495,-305.7 495,-286.7 401,-286.7"/>
<polygon fill="none" stroke="#000000" points="401,-286.7 401,-305.7 495,-305.7 495,-286.7 401,-286.7"/>
<text text-anchor="start" x="453.4956" y="-292.8" font-family="Helvetica,sans-Serif" font-size="11.00" fill="#000000">21 rows</text>
<polygon fill="#ffffff" stroke="transparent" points="495,-286.7 495,-305.7 666,-305.7 666,-286.7 495,-286.7"/>
<polygon fill="none" stroke="#000000" points="495,-286.7 495,-305.7 666,-305.7 666,-286.7 495,-286.7"/>
<text text-anchor="start" x="647.4053" y="-292.8" font-family="Helvetica,sans-Serif" font-size="11.00" fill="#000000">0 &gt;</text>
<polygon fill="none" stroke="#000000" stroke-width="2" points="329,-285.7 329,-483.7 667,-483.7 667,-285.7 329,-285.7"/>
</a>
</g>
</g>
<!-- VERSIONS -->
<g id="node2" class="node">
<title>VERSIONS</title>
<g id="a_node2"><a xlink:href="../../tables/VERSIONS.html" xlink:title="VERSIONS" target="_top">
<polygon fill="#ffffff" stroke="transparent" points="166,-118.2 166,-223.2 279,-223.2 279,-118.2 166,-118.2"/>
<polygon fill="#f5f5f5" stroke="transparent" points="166.5,-199.7 166.5,-222.7 279.5,-222.7 279.5,-199.7 166.5,-199.7"/>
<polygon fill="none" stroke="#000000" points="166.5,-199.7 166.5,-222.7 279.5,-222.7 279.5,-199.7 166.5,-199.7"/>
<text text-anchor="start" x="171.5" y="-208.8" font-family="Helvetica,sans-Serif" font-weight="bold" font-size="11.00" fill="#000000">VERSIONS</text>
<text text-anchor="start" x="244.5437" y="-207.8" font-family="Helvetica,sans-Serif" font-size="11.00" fill="#000000">[table]</text>
<polygon fill="none" stroke="#000000" points="166.5,-177.7 166.5,-199.7 279.5,-199.7 279.5,-177.7 166.5,-177.7"/>
<image xlink:href="../../images/primaryKeys.png" width="11px" height="12px" preserveAspectRatio="xMinYMin meet" x="171.5" y="-194.7"/>
<text text-anchor="start" x="186.5" y="-184.8" font-family="Helvetica,sans-Serif" font-size="11.00" fill="#000000">ID</text>
<polygon fill="none" stroke="#000000" points="166.5,-155.7 166.5,-177.7 279.5,-177.7 279.5,-155.7 166.5,-155.7"/>
<image xlink:href="../../images/foreignKeys.png" width="11px" height="12px" preserveAspectRatio="xMinYMin meet" x="171.5" y="-172.7"/>
<text text-anchor="start" x="186.5" y="-162.8" font-family="Helvetica,sans-Serif" font-size="11.00" fill="#000000">CAMPAIGN_ID</text>
<polygon fill="none" stroke="#000000" points="166.5,-136.7 166.5,-155.7 279.5,-155.7 279.5,-136.7 166.5,-136.7"/>
<text text-anchor="start" x="169.5" y="-142.8" font-family="Helvetica,sans-Serif" font-size="11.00" fill="#000000">...</text>
<polygon fill="#ffffff" stroke="transparent" points="166.5,-117.7 166.5,-136.7 197.5,-136.7 197.5,-117.7 166.5,-117.7"/>
<polygon fill="none" stroke="#000000" points="166.5,-117.7 166.5,-136.7 197.5,-136.7 197.5,-117.7 166.5,-117.7"/>
<text text-anchor="start" x="169.5" y="-123.8" font-family="Helvetica,sans-Serif" font-size="11.00" fill="#000000">&lt; 1</text>
<polygon fill="#ffffff" stroke="transparent" points="197.5,-117.7 197.5,-136.7 252.5,-136.7 252.5,-117.7 197.5,-117.7"/>
<polygon fill="none" stroke="#000000" points="197.5,-117.7 197.5,-136.7 252.5,-136.7 252.5,-117.7 197.5,-117.7"/>
<text text-anchor="start" x="204.8807" y="-123.8" font-family="Helvetica,sans-Serif" font-size="11.00" fill="#000000">222 rows</text>
<polygon fill="#ffffff" stroke="transparent" points="252.5,-117.7 252.5,-136.7 279.5,-136.7 279.5,-117.7 252.5,-117.7"/>
<polygon fill="none" stroke="#000000" points="252.5,-117.7 252.5,-136.7 279.5,-136.7 279.5,-117.7 252.5,-117.7"/>
<text text-anchor="start" x="260.9053" y="-123.8" font-family="Helvetica,sans-Serif" font-size="11.00" fill="#000000">4 &gt;</text>
</a>
</g>
</g>
<!-- VERSION_COMMENTS&#45;&gt;VERSIONS -->
<g id="edge1" class="edge">
<title>VERSION_COMMENTS:w&#45;&gt;VERSIONS:e</title>
<path fill="none" stroke="#000000" d="M315.7524,-335.8375C273.3726,-315.1 344.0731,-188.7 279.5,-188.7"/>
<polygon fill="#000000" stroke="#000000" points="322.1567,-337.1242 329.2909,-342.2295 326.0784,-337.9121 330,-338.7 330,-338.7 330,-338.7 326.0784,-337.9121 330.7091,-335.1705 322.1567,-337.1242 322.1567,-337.1242"/>
<ellipse fill="none" stroke="#000000" cx="319.0194" cy="-336.4938" rx="3.2" ry="3.2"/>
</g>
<!-- CAMPAIGNS -->
<g id="node3" class="node">
<title>CAMPAIGNS</title>
<g id="a_node3"><a xlink:href="../../tables/CAMPAIGNS.html" xlink:title="CAMPAIGNS" target="_top">
<polygon fill="#ffffff" stroke="transparent" points="8,-139.2 8,-200.2 117,-200.2 117,-139.2 8,-139.2"/>
<polygon fill="#f5f5f5" stroke="transparent" points="8.5,-176.7 8.5,-199.7 117.5,-199.7 117.5,-176.7 8.5,-176.7"/>
<polygon fill="none" stroke="#000000" points="8.5,-176.7 8.5,-199.7 117.5,-199.7 117.5,-176.7 8.5,-176.7"/>
<text text-anchor="start" x="13.4995" y="-185.8" font-family="Helvetica,sans-Serif" font-weight="bold" font-size="11.00" fill="#000000">CAMPAIGNS</text>
<text text-anchor="start" x="83.0219" y="-184.8" font-family="Helvetica,sans-Serif" font-size="11.00" fill="#000000">[table]</text>
<polygon fill="none" stroke="#000000" points="8.5,-157.7 8.5,-176.7 117.5,-176.7 117.5,-157.7 8.5,-157.7"/>
<text text-anchor="start" x="11.5" y="-163.8" font-family="Helvetica,sans-Serif" font-size="11.00" fill="#000000">...</text>
<polygon fill="#ffffff" stroke="transparent" points="8.5,-138.7 8.5,-157.7 36.5,-157.7 36.5,-138.7 8.5,-138.7"/>
<polygon fill="none" stroke="#000000" points="8.5,-138.7 8.5,-157.7 36.5,-157.7 36.5,-138.7 8.5,-138.7"/>
<text text-anchor="start" x="11.5" y="-144.8" font-family="Helvetica,sans-Serif" font-size="11.00" fill="#000000"> &#160;</text>
<polygon fill="#ffffff" stroke="transparent" points="36.5,-138.7 36.5,-157.7 88.5,-157.7 88.5,-138.7 36.5,-138.7"/>
<polygon fill="none" stroke="#000000" points="36.5,-138.7 36.5,-157.7 88.5,-157.7 88.5,-138.7 36.5,-138.7"/>
<text text-anchor="start" x="46.9956" y="-144.8" font-family="Helvetica,sans-Serif" font-size="11.00" fill="#000000">86 rows</text>
<polygon fill="#ffffff" stroke="transparent" points="88.5,-138.7 88.5,-157.7 117.5,-157.7 117.5,-138.7 88.5,-138.7"/>
<polygon fill="none" stroke="#000000" points="88.5,-138.7 88.5,-157.7 117.5,-157.7 117.5,-138.7 88.5,-138.7"/>
<text text-anchor="start" x="98.9053" y="-144.8" font-family="Helvetica,sans-Serif" font-size="11.00" fill="#000000">2 &gt;</text>
</a>
</g>
</g>
<!-- VERSIONS&#45;&gt;CAMPAIGNS -->
<g id="edge2" class="edge">
<title>VERSIONS:w&#45;&gt;CAMPAIGNS:e</title>
<path fill="none" stroke="#000000" d="M151.9909,-166.7C140.6774,-166.7 133.4931,-166.7 117.5,-166.7"/>
<polygon fill="#000000" stroke="#000000" points="158.5,-166.7001 166.5,-170.3 162.5,-166.7 166.5,-166.7 166.5,-166.7 166.5,-166.7 162.5,-166.7 166.5,-163.1 158.5,-166.7001 158.5,-166.7001"/>
<ellipse fill="none" stroke="#000000" cx="155.3" cy="-166.7001" rx="3.2" ry="3.2"/>
</g>
<!-- VERSIONS_PARTS -->
<g id="node4" class="node">
<title>VERSIONS_PARTS</title>
<g id="a_node4"><a xlink:href="../../tables/VERSIONS_PARTS.html" xlink:title="VERSIONS_PARTS" target="_top">
<polygon fill="#ffffff" stroke="transparent" points="427,-202.2 427,-263.2 569,-263.2 569,-202.2 427,-202.2"/>
<polygon fill="#f5f5f5" stroke="transparent" points="427,-239.7 427,-262.7 569,-262.7 569,-239.7 427,-239.7"/>
<polygon fill="none" stroke="#000000" points="427,-239.7 427,-262.7 569,-262.7 569,-239.7 427,-239.7"/>
<text text-anchor="start" x="431.6887" y="-248.8" font-family="Helvetica,sans-Serif" font-weight="bold" font-size="11.00" fill="#000000">VERSIONS_PARTS</text>
<text text-anchor="start" x="534.5219" y="-247.8" font-family="Helvetica,sans-Serif" font-size="11.00" fill="#000000">[table]</text>
<polygon fill="none" stroke="#000000" points="427,-220.7 427,-239.7 569,-239.7 569,-220.7 427,-220.7"/>
<text text-anchor="start" x="430" y="-226.8" font-family="Helvetica,sans-Serif" font-size="11.00" fill="#000000">...</text>
<polygon fill="#ffffff" stroke="transparent" points="427,-201.7 427,-220.7 473,-220.7 473,-201.7 427,-201.7"/>
<polygon fill="none" stroke="#000000" points="427,-201.7 427,-220.7 473,-220.7 473,-201.7 427,-201.7"/>
<text text-anchor="start" x="430" y="-207.8" font-family="Helvetica,sans-Serif" font-size="11.00" fill="#000000">&lt; 2</text>
<polygon fill="#ffffff" stroke="transparent" points="473,-201.7 473,-220.7 535,-220.7 535,-201.7 473,-201.7"/>
<polygon fill="none" stroke="#000000" points="473,-201.7 473,-220.7 535,-220.7 535,-201.7 473,-201.7"/>
<text text-anchor="start" x="487.3807" y="-207.8" font-family="Helvetica,sans-Serif" font-size="11.00" fill="#000000">449 rows</text>
<polygon fill="#ffffff" stroke="transparent" points="535,-201.7 535,-220.7 569,-220.7 569,-201.7 535,-201.7"/>
<polygon fill="none" stroke="#000000" points="535,-201.7 535,-220.7 569,-220.7 569,-201.7 535,-201.7"/>
<text text-anchor="start" x="550.4053" y="-207.8" font-family="Helvetica,sans-Serif" font-size="11.00" fill="#000000">2 &gt;</text>
</a>
</g>
</g>
<!-- VERSIONS_PARTS&#45;&gt;VERSIONS -->
<g id="edge3" class="edge">
<title>VERSIONS_PARTS:w&#45;&gt;VERSIONS:e</title>
<path fill="none" stroke="#000000" d="M412.3871,-229.0226C356.891,-223.6918 342.3582,-188.7 279.5,-188.7"/>
<polygon fill="#000000" stroke="#000000" points="419.0086,-229.3295 426.8333,-233.2961 423.0043,-229.5147 427,-229.7 427,-229.7 427,-229.7 423.0043,-229.5147 427.1667,-226.1039 419.0086,-229.3295 419.0086,-229.3295"/>
<ellipse fill="none" stroke="#000000" cx="415.812" cy="-229.1813" rx="3.2" ry="3.2"/>
</g>
<!-- VERSIONS_SUPPLEMENTS -->
<g id="node5" class="node">
<title>VERSIONS_SUPPLEMENTS</title>
<g id="a_node5"><a xlink:href="../../tables/VERSIONS_SUPPLEMENTS.html" xlink:title="VERSIONS_SUPPLEMENTS" target="_top">
<polygon fill="#ffffff" stroke="transparent" points="404.5,-120.2 404.5,-181.2 591.5,-181.2 591.5,-120.2 404.5,-120.2"/>
<polygon fill="#f5f5f5" stroke="transparent" points="405,-157.7 405,-180.7 592,-180.7 592,-157.7 405,-157.7"/>
<polygon fill="none" stroke="#000000" points="405,-157.7 405,-180.7 592,-180.7 592,-157.7 405,-157.7"/>
<text text-anchor="start" x="409.576" y="-166.8" font-family="Helvetica,sans-Serif" font-weight="bold" font-size="11.00" fill="#000000">VERSIONS_SUPPLEMENTS</text>
<text text-anchor="start" x="557.5219" y="-165.8" font-family="Helvetica,sans-Serif" font-size="11.00" fill="#000000">[table]</text>
<polygon fill="none" stroke="#000000" points="405,-138.7 405,-157.7 592,-157.7 592,-138.7 405,-138.7"/>
<text text-anchor="start" x="408" y="-144.8" font-family="Helvetica,sans-Serif" font-size="11.00" fill="#000000">...</text>
<polygon fill="#ffffff" stroke="transparent" points="405,-119.7 405,-138.7 478,-138.7 478,-119.7 405,-119.7"/>
<polygon fill="none" stroke="#000000" points="405,-119.7 405,-138.7 478,-138.7 478,-119.7 405,-119.7"/>
<text text-anchor="start" x="408" y="-125.8" font-family="Helvetica,sans-Serif" font-size="11.00" fill="#000000">&lt; 2</text>
<polygon fill="#ffffff" stroke="transparent" points="478,-119.7 478,-138.7 554,-138.7 554,-119.7 478,-119.7"/>
<polygon fill="none" stroke="#000000" points="478,-119.7 478,-138.7 554,-138.7 554,-119.7 478,-119.7"/>
<text text-anchor="start" x="506.3807" y="-125.8" font-family="Helvetica,sans-Serif" font-size="11.00" fill="#000000">190 rows</text>
<polygon fill="#ffffff" stroke="transparent" points="554,-119.7 554,-138.7 592,-138.7 592,-119.7 554,-119.7"/>
<polygon fill="none" stroke="#000000" points="554,-119.7 554,-138.7 592,-138.7 592,-119.7 554,-119.7"/>
<text text-anchor="start" x="582.8862" y="-125.8" font-family="Helvetica,sans-Serif" font-size="11.00" fill="#000000"> &#160;</text>
</a>
</g>
</g>
<!-- VERSIONS_SUPPLEMENTS&#45;&gt;VERSIONS -->
<g id="edge4" class="edge">
<title>VERSIONS_SUPPLEMENTS:w&#45;&gt;VERSIONS:e</title>
<path fill="none" stroke="#000000" d="M390.3347,-148.6334C344.4501,-154.7362 332.9069,-188.7 279.5,-188.7"/>
<polygon fill="#000000" stroke="#000000" points="397.0162,-148.2082 405.2287,-151.2927 401.0081,-147.9541 405,-147.7 405,-147.7 405,-147.7 401.0081,-147.9541 404.7713,-144.1073 397.0162,-148.2082 397.0162,-148.2082"/>
<ellipse fill="none" stroke="#000000" cx="393.8226" cy="-148.4115" rx="3.2" ry="3.2"/>
</g>
<!-- VERSIONS_TRACERS -->
<g id="node6" class="node">
<title>VERSIONS_TRACERS</title>
<g id="a_node6"><a xlink:href="../../tables/VERSIONS_TRACERS.html" xlink:title="VERSIONS_TRACERS" target="_top">
<polygon fill="#ffffff" stroke="transparent" points="419,-38.2 419,-99.2 577,-99.2 577,-38.2 419,-38.2"/>
<polygon fill="#f5f5f5" stroke="transparent" points="419,-75.7 419,-98.7 577,-98.7 577,-75.7 419,-75.7"/>
<polygon fill="none" stroke="#000000" points="419,-75.7 419,-98.7 577,-98.7 577,-75.7 419,-75.7"/>
<text text-anchor="start" x="423.7478" y="-84.8" font-family="Helvetica,sans-Serif" font-weight="bold" font-size="11.00" fill="#000000">VERSIONS_TRACERS</text>
<text text-anchor="start" x="542.5219" y="-83.8" font-family="Helvetica,sans-Serif" font-size="11.00" fill="#000000">[table]</text>
<polygon fill="none" stroke="#000000" points="419,-56.7 419,-75.7 577,-75.7 577,-56.7 419,-56.7"/>
<text text-anchor="start" x="422" y="-62.8" font-family="Helvetica,sans-Serif" font-size="11.00" fill="#000000">...</text>
<polygon fill="#ffffff" stroke="transparent" points="419,-37.7 419,-56.7 468,-56.7 468,-37.7 419,-37.7"/>
<polygon fill="none" stroke="#000000" points="419,-37.7 419,-56.7 468,-56.7 468,-37.7 419,-37.7"/>
<text text-anchor="start" x="422" y="-43.8" font-family="Helvetica,sans-Serif" font-size="11.00" fill="#000000">&lt; 2</text>
<polygon fill="#ffffff" stroke="transparent" points="468,-37.7 468,-56.7 541,-56.7 541,-37.7 468,-37.7"/>
<polygon fill="none" stroke="#000000" points="468,-37.7 468,-56.7 541,-56.7 541,-37.7 468,-37.7"/>
<text text-anchor="start" x="484.2089" y="-43.8" font-family="Helvetica,sans-Serif" font-size="11.00" fill="#000000">1,279 rows</text>
<polygon fill="#ffffff" stroke="transparent" points="541,-37.7 541,-56.7 577,-56.7 577,-37.7 541,-37.7"/>
<polygon fill="none" stroke="#000000" points="541,-37.7 541,-56.7 577,-56.7 577,-37.7 541,-37.7"/>
<text text-anchor="start" x="558.4053" y="-43.8" font-family="Helvetica,sans-Serif" font-size="11.00" fill="#000000">2 &gt;</text>
</a>
</g>
</g>
<!-- VERSIONS_TRACERS&#45;&gt;VERSIONS -->
<g id="edge5" class="edge">
<title>VERSIONS_TRACERS:w&#45;&gt;VERSIONS:e</title>
<path fill="none" stroke="#000000" d="M404.292,-66.1063C367.1496,-68.352 351.1529,-80.2298 320,-109.7 291.3369,-136.8149 318.9562,-188.7 279.5,-188.7"/>
<polygon fill="#000000" stroke="#000000" points="411.0031,-65.921 419.0994,-69.2986 415.0015,-65.8105 419,-65.7 419,-65.7 419,-65.7 415.0015,-65.8105 418.9006,-62.1014 411.0031,-65.921 411.0031,-65.921"/>
<ellipse fill="none" stroke="#000000" cx="407.8043" cy="-66.0094" rx="3.2" ry="3.2"/>
</g>
</g>
</svg>
