<?xml version="1.0" encoding="UTF-8" standalone="no"?>
<!DOCTYPE svg PUBLIC "-//W3C//DTD SVG 1.1//EN"
 "http://www.w3.org/Graphics/SVG/1.1/DTD/svg11.dtd">
<!-- Generated by graphviz version 2.40.1 (20161225.0304)
 -->
<!-- Title: twoDegreesRelationshipsDiagram Pages: 1 -->
<svg width="1209pt" height="661pt"
 viewBox="0.00 0.00 1209.00 661.20" xmlns="http://www.w3.org/2000/svg" xmlns:xlink="http://www.w3.org/1999/xlink">
<g id="graph0" class="graph" transform="scale(1 1) rotate(0) translate(4 657.2)">
<title>twoDegreesRelationshipsDiagram</title>
<polygon fill="#ffffff" stroke="transparent" points="-4,4 -4,-657.2 1205,-657.2 1205,4 -4,4"/>
<text text-anchor="middle" x="72.4936" y="-7.3" font-family="Helvetica,sans-Serif" font-size="11.00" fill="#000000">Generated by SchemaSpy</text>
<!-- VERSION_COMMENTS -->
<g id="node1" class="node">
<title>VERSION_COMMENTS</title>
<g id="a_node1"><a xlink:href="../../tables/VERSION_COMMENTS.html" xlink:title="VERSION_COMMENTS" target="_top">
<polygon fill="#ffffff" stroke="transparent" points="531,-588.2 531,-649.2 693,-649.2 693,-588.2 531,-588.2"/>
<polygon fill="#f5f5f5" stroke="transparent" points="531,-625.7 531,-648.7 693,-648.7 693,-625.7 531,-625.7"/>
<polygon fill="none" stroke="#000000" points="531,-625.7 531,-648.7 693,-648.7 693,-625.7 531,-625.7"/>
<text text-anchor="start" x="535.6138" y="-634.8" font-family="Helvetica,sans-Serif" font-weight="bold" font-size="11.00" fill="#000000">VERSION_COMMENTS</text>
<text text-anchor="start" x="658.5219" y="-633.8" font-family="Helvetica,sans-Serif" font-size="11.00" fill="#000000">[table]</text>
<polygon fill="none" stroke="#000000" points="531,-606.7 531,-625.7 693,-625.7 693,-606.7 531,-606.7"/>
<text text-anchor="start" x="534" y="-612.8" font-family="Helvetica,sans-Serif" font-size="11.00" fill="#000000">...</text>
<polygon fill="#ffffff" stroke="transparent" points="531,-587.7 531,-606.7 594,-606.7 594,-587.7 531,-587.7"/>
<polygon fill="none" stroke="#000000" points="531,-587.7 531,-606.7 594,-606.7 594,-587.7 531,-587.7"/>
<text text-anchor="start" x="534" y="-593.8" font-family="Helvetica,sans-Serif" font-size="11.00" fill="#000000">&lt; 1</text>
<polygon fill="#ffffff" stroke="transparent" points="594,-587.7 594,-606.7 659,-606.7 659,-587.7 594,-587.7"/>
<polygon fill="none" stroke="#000000" points="594,-587.7 594,-606.7 659,-606.7 659,-587.7 594,-587.7"/>
<text text-anchor="start" x="617.4956" y="-593.8" font-family="Helvetica,sans-Serif" font-size="11.00" fill="#000000">21 rows</text>
<polygon fill="#ffffff" stroke="transparent" points="659,-587.7 659,-606.7 693,-606.7 693,-587.7 659,-587.7"/>
<polygon fill="none" stroke="#000000" points="659,-587.7 659,-606.7 693,-606.7 693,-587.7 659,-587.7"/>
<text text-anchor="start" x="683.8862" y="-593.8" font-family="Helvetica,sans-Serif" font-size="11.00" fill="#000000"> &#160;</text>
</a>
</g>
</g>
<!-- VERSIONS -->
<g id="node2" class="node">
<title>VERSIONS</title>
<g id="a_node2"><a xlink:href="../../tables/VERSIONS.html" xlink:title="VERSIONS" target="_top">
<polygon fill="#ffffff" stroke="transparent" points="225,-422.2 225,-527.2 338,-527.2 338,-422.2 225,-422.2"/>
<polygon fill="#f5f5f5" stroke="transparent" points="225.5,-503.7 225.5,-526.7 338.5,-526.7 338.5,-503.7 225.5,-503.7"/>
<polygon fill="none" stroke="#000000" points="225.5,-503.7 225.5,-526.7 338.5,-526.7 338.5,-503.7 225.5,-503.7"/>
<text text-anchor="start" x="230.5" y="-512.8" font-family="Helvetica,sans-Serif" font-weight="bold" font-size="11.00" fill="#000000">VERSIONS</text>
<text text-anchor="start" x="303.5437" y="-511.8" font-family="Helvetica,sans-Serif" font-size="11.00" fill="#000000">[table]</text>
<polygon fill="none" stroke="#000000" points="225.5,-481.7 225.5,-503.7 338.5,-503.7 338.5,-481.7 225.5,-481.7"/>
<image xlink:href="../../images/primaryKeys.png" width="11px" height="12px" preserveAspectRatio="xMinYMin meet" x="230.5" y="-498.7"/>
<text text-anchor="start" x="245.5" y="-488.8" font-family="Helvetica,sans-Serif" font-size="11.00" fill="#000000">ID</text>
<polygon fill="none" stroke="#000000" points="225.5,-459.7 225.5,-481.7 338.5,-481.7 338.5,-459.7 225.5,-459.7"/>
<image xlink:href="../../images/foreignKeys.png" width="11px" height="12px" preserveAspectRatio="xMinYMin meet" x="230.5" y="-476.7"/>
<text text-anchor="start" x="245.5" y="-466.8" font-family="Helvetica,sans-Serif" font-size="11.00" fill="#000000">CAMPAIGN_ID</text>
<polygon fill="none" stroke="#000000" points="225.5,-440.7 225.5,-459.7 338.5,-459.7 338.5,-440.7 225.5,-440.7"/>
<text text-anchor="start" x="228.5" y="-446.8" font-family="Helvetica,sans-Serif" font-size="11.00" fill="#000000">...</text>
<polygon fill="#ffffff" stroke="transparent" points="225.5,-421.7 225.5,-440.7 256.5,-440.7 256.5,-421.7 225.5,-421.7"/>
<polygon fill="none" stroke="#000000" points="225.5,-421.7 225.5,-440.7 256.5,-440.7 256.5,-421.7 225.5,-421.7"/>
<text text-anchor="start" x="228.5" y="-427.8" font-family="Helvetica,sans-Serif" font-size="11.00" fill="#000000">&lt; 1</text>
<polygon fill="#ffffff" stroke="transparent" points="256.5,-421.7 256.5,-440.7 311.5,-440.7 311.5,-421.7 256.5,-421.7"/>
<polygon fill="none" stroke="#000000" points="256.5,-421.7 256.5,-440.7 311.5,-440.7 311.5,-421.7 256.5,-421.7"/>
<text text-anchor="start" x="263.8807" y="-427.8" font-family="Helvetica,sans-Serif" font-size="11.00" fill="#000000">222 rows</text>
<polygon fill="#ffffff" stroke="transparent" points="311.5,-421.7 311.5,-440.7 338.5,-440.7 338.5,-421.7 311.5,-421.7"/>
<polygon fill="none" stroke="#000000" points="311.5,-421.7 311.5,-440.7 338.5,-440.7 338.5,-421.7 311.5,-421.7"/>
<text text-anchor="start" x="319.9053" y="-427.8" font-family="Helvetica,sans-Serif" font-size="11.00" fill="#000000">4 &gt;</text>
</a>
</g>
</g>
<!-- VERSION_COMMENTS&#45;&gt;VERSIONS -->
<g id="edge1" class="edge">
<title>VERSION_COMMENTS:w&#45;&gt;VERSIONS:e</title>
<path fill="none" stroke="#000000" d="M516.1831,-615.0619C483.4641,-612.0011 471.5088,-598.1263 438,-577.7 388.338,-547.427 396.6615,-492.7 338.5,-492.7"/>
<polygon fill="#000000" stroke="#000000" points="523.0074,-615.3557 530.8451,-619.2967 527.0037,-615.5279 531,-615.7 531,-615.7 531,-615.7 527.0037,-615.5279 531.1549,-612.1033 523.0074,-615.3557 523.0074,-615.3557"/>
<ellipse fill="none" stroke="#000000" cx="519.8104" cy="-615.218" rx="3.2" ry="3.2"/>
</g>
<!-- CAMPAIGNS -->
<g id="node6" class="node">
<title>CAMPAIGNS</title>
<g id="a_node6"><a xlink:href="../../tables/CAMPAIGNS.html" xlink:title="CAMPAIGNS" target="_top">
<polygon fill="#ffffff" stroke="transparent" points="8,-443.2 8,-504.2 117,-504.2 117,-443.2 8,-443.2"/>
<polygon fill="#f5f5f5" stroke="transparent" points="8.5,-480.7 8.5,-503.7 117.5,-503.7 117.5,-480.7 8.5,-480.7"/>
<polygon fill="none" stroke="#000000" points="8.5,-480.7 8.5,-503.7 117.5,-503.7 117.5,-480.7 8.5,-480.7"/>
<text text-anchor="start" x="13.4995" y="-489.8" font-family="Helvetica,sans-Serif" font-weight="bold" font-size="11.00" fill="#000000">CAMPAIGNS</text>
<text text-anchor="start" x="83.0219" y="-488.8" font-family="Helvetica,sans-Serif" font-size="11.00" fill="#000000">[table]</text>
<polygon fill="none" stroke="#000000" points="8.5,-461.7 8.5,-480.7 117.5,-480.7 117.5,-461.7 8.5,-461.7"/>
<text text-anchor="start" x="11.5" y="-467.8" font-family="Helvetica,sans-Serif" font-size="11.00" fill="#000000">...</text>
<polygon fill="#ffffff" stroke="transparent" points="8.5,-442.7 8.5,-461.7 36.5,-461.7 36.5,-442.7 8.5,-442.7"/>
<polygon fill="none" stroke="#000000" points="8.5,-442.7 8.5,-461.7 36.5,-461.7 36.5,-442.7 8.5,-442.7"/>
<text text-anchor="start" x="11.5" y="-448.8" font-family="Helvetica,sans-Serif" font-size="11.00" fill="#000000"> &#160;</text>
<polygon fill="#ffffff" stroke="transparent" points="36.5,-442.7 36.5,-461.7 88.5,-461.7 88.5,-442.7 36.5,-442.7"/>
<polygon fill="none" stroke="#000000" points="36.5,-442.7 36.5,-461.7 88.5,-461.7 88.5,-442.7 36.5,-442.7"/>
<text text-anchor="start" x="46.9956" y="-448.8" font-family="Helvetica,sans-Serif" font-size="11.00" fill="#000000">86 rows</text>
<polygon fill="#ffffff" stroke="transparent" points="88.5,-442.7 88.5,-461.7 117.5,-461.7 117.5,-442.7 88.5,-442.7"/>
<polygon fill="none" stroke="#000000" points="88.5,-442.7 88.5,-461.7 117.5,-461.7 117.5,-442.7 88.5,-442.7"/>
<text text-anchor="start" x="98.9053" y="-448.8" font-family="Helvetica,sans-Serif" font-size="11.00" fill="#000000">2 &gt;</text>
</a>
</g>
</g>
<!-- VERSIONS&#45;&gt;CAMPAIGNS -->
<g id="edge4" class="edge">
<title>VERSIONS:w&#45;&gt;CAMPAIGNS:e</title>
<path fill="none" stroke="#000000" d="M210.9478,-470.7C174.4443,-470.7 160.25,-470.7 117.5,-470.7"/>
<polygon fill="#000000" stroke="#000000" points="217.5,-470.7001 225.5,-474.3 221.5,-470.7 225.5,-470.7 225.5,-470.7 225.5,-470.7 221.5,-470.7 225.5,-467.1 217.5,-470.7001 217.5,-470.7001"/>
<ellipse fill="none" stroke="#000000" cx="214.3" cy="-470.7001" rx="3.2" ry="3.2"/>
</g>
<!-- VERSION_TRACERS_TRACER_SYNTHESIS_REQUESTS -->
<g id="node3" class="node">
<title>VERSION_TRACERS_TRACER_SYNTHESIS_REQUESTS</title>
<g id="a_node3"><a xlink:href="../../tables/VERSION_TRACERS_TRACER_SYNTHESIS_REQUESTS.html" xlink:title="VERSION_TRACERS_TRACER_SYNTHESIS_REQUESTS" target="_top">
<polygon fill="#ffffff" stroke="transparent" points="827,-267.2 827,-394.2 1193,-394.2 1193,-267.2 827,-267.2"/>
<polygon fill="#f5f5f5" stroke="transparent" points="827,-370.7 827,-393.7 1193,-393.7 1193,-370.7 827,-370.7"/>
<polygon fill="none" stroke="#000000" points="827,-370.7 827,-393.7 1193,-393.7 1193,-370.7 827,-370.7"/>
<text text-anchor="start" x="832" y="-379.8" font-family="Helvetica,sans-Serif" font-weight="bold" font-size="11.00" fill="#000000">VERSION_TRACERS_TRACER_SYNTHESIS_REQUESTS</text>
<text text-anchor="start" x="1158.0437" y="-378.8" font-family="Helvetica,sans-Serif" font-size="11.00" fill="#000000">[table]</text>
<polygon fill="none" stroke="#000000" points="827,-348.7 827,-370.7 1193,-370.7 1193,-348.7 827,-348.7"/>
<image xlink:href="../../images/primaryKeys.png" width="11px" height="12px" preserveAspectRatio="xMinYMin meet" x="832" y="-365.7"/>
<text text-anchor="start" x="847" y="-355.8" font-family="Helvetica,sans-Serif" font-size="11.00" fill="#000000">ID</text>
<polygon fill="none" stroke="#000000" points="827,-326.7 827,-348.7 1193,-348.7 1193,-326.7 827,-326.7"/>
<image xlink:href="../../images/primaryKeys.png" width="11px" height="12px" preserveAspectRatio="xMinYMin meet" x="832" y="-343.7"/>
<text text-anchor="start" x="847" y="-333.8" font-family="Helvetica,sans-Serif" font-size="11.00" fill="#000000">VERSION_TRACER_ID</text>
<polygon fill="none" stroke="#000000" points="827,-304.7 827,-326.7 1193,-326.7 1193,-304.7 827,-304.7"/>
<image xlink:href="../../images/primaryKeys.png" width="11px" height="12px" preserveAspectRatio="xMinYMin meet" x="832" y="-321.7"/>
<text text-anchor="start" x="847" y="-311.8" font-family="Helvetica,sans-Serif" font-size="11.00" fill="#000000">TRACER_SYNTHESIS_REQUEST_ID</text>
<polygon fill="none" stroke="#000000" points="827,-285.7 827,-304.7 1193,-304.7 1193,-285.7 827,-285.7"/>
<text text-anchor="start" x="830" y="-291.8" font-family="Helvetica,sans-Serif" font-size="11.00" fill="#000000">...</text>
<polygon fill="#ffffff" stroke="transparent" points="827,-266.7 827,-285.7 992,-285.7 992,-266.7 827,-266.7"/>
<polygon fill="none" stroke="#000000" points="827,-266.7 827,-285.7 992,-285.7 992,-266.7 827,-266.7"/>
<text text-anchor="start" x="830" y="-272.8" font-family="Helvetica,sans-Serif" font-size="11.00" fill="#000000">&lt; 2</text>
<polygon fill="#ffffff" stroke="transparent" points="992,-266.7 992,-285.7 1108,-285.7 1108,-266.7 992,-266.7"/>
<polygon fill="none" stroke="#000000" points="992,-266.7 992,-285.7 1108,-285.7 1108,-266.7 992,-266.7"/>
<text text-anchor="start" x="1066.4956" y="-272.8" font-family="Helvetica,sans-Serif" font-size="11.00" fill="#000000">21 rows</text>
<polygon fill="#ffffff" stroke="transparent" points="1108,-266.7 1108,-285.7 1193,-285.7 1193,-266.7 1108,-266.7"/>
<polygon fill="none" stroke="#000000" points="1108,-266.7 1108,-285.7 1193,-285.7 1193,-266.7 1108,-266.7"/>
<text text-anchor="start" x="1183.8862" y="-272.8" font-family="Helvetica,sans-Serif" font-size="11.00" fill="#000000"> &#160;</text>
</a>
</g>
</g>
<!-- TRACER_SYNTHESIS_REQUESTS -->
<g id="node4" class="node">
<title>TRACER_SYNTHESIS_REQUESTS</title>
<g id="a_node4"><a xlink:href="../../tables/TRACER_SYNTHESIS_REQUESTS.html" xlink:title="TRACER_SYNTHESIS_REQUESTS" target="_top">
<polygon fill="#ffffff" stroke="transparent" points="500.5,-342.2 500.5,-403.2 723.5,-403.2 723.5,-342.2 500.5,-342.2"/>
<polygon fill="#f5f5f5" stroke="transparent" points="501,-379.7 501,-402.7 724,-402.7 724,-379.7 501,-379.7"/>
<polygon fill="none" stroke="#000000" points="501,-379.7 501,-402.7 724,-402.7 724,-379.7 501,-379.7"/>
<text text-anchor="start" x="505.8578" y="-388.8" font-family="Helvetica,sans-Serif" font-weight="bold" font-size="11.00" fill="#000000">TRACER_SYNTHESIS_REQUESTS</text>
<text text-anchor="start" x="689.5219" y="-387.8" font-family="Helvetica,sans-Serif" font-size="11.00" fill="#000000">[table]</text>
<polygon fill="none" stroke="#000000" points="501,-360.7 501,-379.7 724,-379.7 724,-360.7 501,-360.7"/>
<text text-anchor="start" x="504" y="-366.8" font-family="Helvetica,sans-Serif" font-size="11.00" fill="#000000">...</text>
<polygon fill="#ffffff" stroke="transparent" points="501,-341.7 501,-360.7 593,-360.7 593,-341.7 501,-341.7"/>
<polygon fill="none" stroke="#000000" points="501,-341.7 501,-360.7 593,-360.7 593,-341.7 501,-341.7"/>
<text text-anchor="start" x="504" y="-347.8" font-family="Helvetica,sans-Serif" font-size="11.00" fill="#000000">&lt; 12</text>
<polygon fill="#ffffff" stroke="transparent" points="593,-341.7 593,-360.7 670,-360.7 670,-341.7 593,-341.7"/>
<polygon fill="none" stroke="#000000" points="593,-341.7 593,-360.7 670,-360.7 670,-341.7 593,-341.7"/>
<text text-anchor="start" x="628.4956" y="-347.8" font-family="Helvetica,sans-Serif" font-size="11.00" fill="#000000">21 rows</text>
<polygon fill="#ffffff" stroke="transparent" points="670,-341.7 670,-360.7 724,-360.7 724,-341.7 670,-341.7"/>
<polygon fill="none" stroke="#000000" points="670,-341.7 670,-360.7 724,-360.7 724,-341.7 670,-341.7"/>
<text text-anchor="start" x="705.4053" y="-347.8" font-family="Helvetica,sans-Serif" font-size="11.00" fill="#000000">2 &gt;</text>
</a>
</g>
</g>
<!-- VERSION_TRACERS_TRACER_SYNTHESIS_REQUESTS&#45;&gt;TRACER_SYNTHESIS_REQUESTS -->
<g id="edge2" class="edge">
<title>VERSION_TRACERS_TRACER_SYNTHESIS_REQUESTS:w&#45;&gt;TRACER_SYNTHESIS_REQUESTS:e</title>
<path fill="none" stroke="#000000" d="M812.261,-317.3753C774.8124,-326.4899 770.2361,-369.7 724,-369.7"/>
<polygon fill="#000000" stroke="#000000" points="819.0512,-316.6036 827.4066,-319.277 823.0256,-316.1518 827,-315.7 827,-315.7 827,-315.7 823.0256,-316.1518 826.5934,-312.123 819.0512,-316.6036 819.0512,-316.6036"/>
<ellipse fill="none" stroke="#000000" cx="815.8717" cy="-316.965" rx="3.2" ry="3.2"/>
</g>
<!-- VERSIONS_TRACERS -->
<g id="node5" class="node">
<title>VERSIONS_TRACERS</title>
<g id="a_node5"><a xlink:href="../../tables/VERSIONS_TRACERS.html" xlink:title="VERSIONS_TRACERS" target="_top">
<polygon fill="#ffffff" stroke="transparent" points="446,-120.7 446,-320.7 778,-320.7 778,-120.7 446,-120.7"/>
<polygon fill="#f5f5f5" stroke="transparent" points="448,-295.7 448,-318.7 776,-318.7 776,-295.7 448,-295.7"/>
<polygon fill="none" stroke="#000000" points="448,-295.7 448,-318.7 776,-318.7 776,-295.7 448,-295.7"/>
<text text-anchor="start" x="453" y="-304.8" font-family="Helvetica,sans-Serif" font-weight="bold" font-size="11.00" fill="#000000">VERSIONS_TRACERS</text>
<text text-anchor="start" x="741.0437" y="-303.8" font-family="Helvetica,sans-Serif" font-size="11.00" fill="#000000">[table]</text>
<polygon fill="none" stroke="#000000" points="448,-273.7 448,-295.7 605,-295.7 605,-273.7 448,-273.7"/>
<image xlink:href="../../images/primaryKeys.png" width="11px" height="12px" preserveAspectRatio="xMinYMin meet" x="453" y="-290.7"/>
<text text-anchor="start" x="468" y="-280.8" font-family="Helvetica,sans-Serif" font-size="11.00" fill="#000000">ID</text>
<polygon fill="none" stroke="#000000" points="605,-273.7 605,-295.7 776,-295.7 776,-273.7 605,-273.7"/>
<text text-anchor="start" x="608" y="-281.4" font-family="Helvetica,sans-Serif" font-size="11.00" fill="#000000">number[19]</text>
<polygon fill="none" stroke="#000000" points="448,-251.7 448,-273.7 605,-273.7 605,-251.7 448,-251.7"/>
<text text-anchor="start" x="468" y="-258.8" font-family="Helvetica,sans-Serif" font-size="11.00" fill="#000000">CREATED_AT</text>
<polygon fill="none" stroke="#000000" points="605,-251.7 605,-273.7 776,-273.7 776,-251.7 605,-251.7"/>
<text text-anchor="start" x="607.9896" y="-259.4" font-family="Helvetica,sans-Serif" font-size="11.00" fill="#000000">timestamp(6) with time zone[13,6]</text>
<polygon fill="none" stroke="#000000" points="448,-229.7 448,-251.7 605,-251.7 605,-229.7 448,-229.7"/>
<text text-anchor="start" x="468" y="-236.8" font-family="Helvetica,sans-Serif" font-size="11.00" fill="#000000">CREATED_BY</text>
<polygon fill="none" stroke="#000000" points="605,-229.7 605,-251.7 776,-251.7 776,-229.7 605,-229.7"/>
<text text-anchor="start" x="608" y="-237.4" font-family="Helvetica,sans-Serif" font-size="11.00" fill="#000000">number[19]</text>
<polygon fill="none" stroke="#000000" points="448,-207.7 448,-229.7 605,-229.7 605,-207.7 448,-207.7"/>
<text text-anchor="start" x="468" y="-214.8" font-family="Helvetica,sans-Serif" font-size="11.00" fill="#000000">UPDATED_AT</text>
<polygon fill="none" stroke="#000000" points="605,-207.7 605,-229.7 776,-229.7 776,-207.7 605,-207.7"/>
<text text-anchor="start" x="607.9896" y="-215.4" font-family="Helvetica,sans-Serif" font-size="11.00" fill="#000000">timestamp(6) with time zone[13,6]</text>
<polygon fill="none" stroke="#000000" points="448,-185.7 448,-207.7 605,-207.7 605,-185.7 448,-185.7"/>
<text text-anchor="start" x="468" y="-192.8" font-family="Helvetica,sans-Serif" font-size="11.00" fill="#000000">UPDATED_BY</text>
<polygon fill="none" stroke="#000000" points="605,-185.7 605,-207.7 776,-207.7 776,-185.7 605,-185.7"/>
<text text-anchor="start" x="608" y="-193.4" font-family="Helvetica,sans-Serif" font-size="11.00" fill="#000000">number[19]</text>
<polygon fill="none" stroke="#000000" points="448,-163.7 448,-185.7 605,-185.7 605,-163.7 448,-163.7"/>
<image xlink:href="../../images/primaryKeys.png" width="11px" height="12px" preserveAspectRatio="xMinYMin meet" x="453" y="-180.7"/>
<text text-anchor="start" x="468" y="-170.8" font-family="Helvetica,sans-Serif" font-size="11.00" fill="#000000">VERSION_ID</text>
<polygon fill="none" stroke="#000000" points="605,-163.7 605,-185.7 776,-185.7 776,-163.7 605,-163.7"/>
<text text-anchor="start" x="608" y="-171.4" font-family="Helvetica,sans-Serif" font-size="11.00" fill="#000000">number[19]</text>
<polygon fill="none" stroke="#000000" points="448,-141.7 448,-163.7 605,-163.7 605,-141.7 448,-141.7"/>
<image xlink:href="../../images/primaryKeys.png" width="11px" height="12px" preserveAspectRatio="xMinYMin meet" x="453" y="-158.7"/>
<text text-anchor="start" x="468" y="-148.8" font-family="Helvetica,sans-Serif" font-size="11.00" fill="#000000">TRACER_ID</text>
<polygon fill="none" stroke="#000000" points="605,-141.7 605,-163.7 776,-163.7 776,-141.7 605,-141.7"/>
<text text-anchor="start" x="608" y="-149.4" font-family="Helvetica,sans-Serif" font-size="11.00" fill="#000000">number[19]</text>
<polygon fill="#ffffff" stroke="transparent" points="448,-122.7 448,-141.7 507,-141.7 507,-122.7 448,-122.7"/>
<polygon fill="none" stroke="#000000" points="448,-122.7 448,-141.7 507,-141.7 507,-122.7 448,-122.7"/>
<text text-anchor="start" x="451" y="-128.8" font-family="Helvetica,sans-Serif" font-size="11.00" fill="#000000">&lt; 2</text>
<polygon fill="#ffffff" stroke="transparent" points="507,-122.7 507,-141.7 605,-141.7 605,-122.7 507,-122.7"/>
<polygon fill="none" stroke="#000000" points="507,-122.7 507,-141.7 605,-141.7 605,-122.7 507,-122.7"/>
<text text-anchor="start" x="548.2089" y="-128.8" font-family="Helvetica,sans-Serif" font-size="11.00" fill="#000000">1,279 rows</text>
<polygon fill="#ffffff" stroke="transparent" points="605,-122.7 605,-141.7 776,-141.7 776,-122.7 605,-122.7"/>
<polygon fill="none" stroke="#000000" points="605,-122.7 605,-141.7 776,-141.7 776,-122.7 605,-122.7"/>
<text text-anchor="start" x="757.4053" y="-128.8" font-family="Helvetica,sans-Serif" font-size="11.00" fill="#000000">2 &gt;</text>
<polygon fill="none" stroke="#000000" stroke-width="2" points="447,-121.7 447,-319.7 777,-319.7 777,-121.7 447,-121.7"/>
</a>
</g>
</g>
<!-- VERSION_TRACERS_TRACER_SYNTHESIS_REQUESTS&#45;&gt;VERSIONS_TRACERS -->
<g id="edge3" class="edge">
<title>VERSION_TRACERS_TRACER_SYNTHESIS_REQUESTS:w&#45;&gt;VERSIONS_TRACERS:e</title>
<path fill="none" stroke="#000000" d="M812.9557,-332.8089C798.0477,-319.6883 802.5607,-284.7 776,-284.7"/>
<polygon fill="#000000" stroke="#000000" points="819.445,-335.0689 825.816,-341.0997 823.2225,-336.3844 827,-337.7 827,-337.7 827,-337.7 823.2225,-336.3844 828.184,-334.3003 819.445,-335.0689 819.445,-335.0689"/>
<ellipse fill="none" stroke="#000000" cx="816.4231" cy="-334.0164" rx="3.2" ry="3.2"/>
</g>
<!-- VERSIONS_TRACERS&#45;&gt;VERSIONS -->
<g id="edge8" class="edge">
<title>VERSIONS_TRACERS:w&#45;&gt;VERSIONS:e</title>
<path fill="none" stroke="#000000" d="M434.2076,-178.9549C378.1908,-216.6905 408.1297,-492.7 338.5,-492.7"/>
<polygon fill="#000000" stroke="#000000" points="440.3555,-177.0583 449.0612,-178.14 444.1777,-175.8792 448,-174.7 448,-174.7 448,-174.7 444.1777,-175.8792 446.9388,-171.26 440.3555,-177.0583 440.3555,-177.0583"/>
<ellipse fill="none" stroke="#000000" cx="437.2977" cy="-178.0017" rx="3.2" ry="3.2"/>
</g>
<!-- TRACERS -->
<g id="node9" class="node">
<title>TRACERS</title>
<g id="a_node9"><a xlink:href="../../tables/TRACERS.html" xlink:title="TRACERS" target="_top">
<polygon fill="#ffffff" stroke="transparent" points="166,-104.2 166,-187.2 397,-187.2 397,-104.2 166,-104.2"/>
<polygon fill="#f5f5f5" stroke="transparent" points="166.5,-163.7 166.5,-186.7 397.5,-186.7 397.5,-163.7 166.5,-163.7"/>
<polygon fill="none" stroke="#000000" points="166.5,-163.7 166.5,-186.7 397.5,-186.7 397.5,-163.7 166.5,-163.7"/>
<text text-anchor="start" x="171.5" y="-172.8" font-family="Helvetica,sans-Serif" font-weight="bold" font-size="11.00" fill="#000000">TRACERS</text>
<text text-anchor="start" x="362.5437" y="-171.8" font-family="Helvetica,sans-Serif" font-size="11.00" fill="#000000">[table]</text>
<polygon fill="none" stroke="#000000" points="166.5,-141.7 166.5,-163.7 397.5,-163.7 397.5,-141.7 166.5,-141.7"/>
<image xlink:href="../../images/primaryKeys.png" width="11px" height="12px" preserveAspectRatio="xMinYMin meet" x="171.5" y="-158.7"/>
<text text-anchor="start" x="186.5" y="-148.8" font-family="Helvetica,sans-Serif" font-size="11.00" fill="#000000">ID</text>
<polygon fill="none" stroke="#000000" points="166.5,-122.7 166.5,-141.7 397.5,-141.7 397.5,-122.7 166.5,-122.7"/>
<text text-anchor="start" x="169.5" y="-128.8" font-family="Helvetica,sans-Serif" font-size="11.00" fill="#000000">...</text>
<polygon fill="#ffffff" stroke="transparent" points="166.5,-103.7 166.5,-122.7 252.5,-122.7 252.5,-103.7 166.5,-103.7"/>
<polygon fill="none" stroke="#000000" points="166.5,-103.7 166.5,-122.7 252.5,-122.7 252.5,-103.7 166.5,-103.7"/>
<text text-anchor="start" x="169.5" y="-109.8" font-family="Helvetica,sans-Serif" font-size="11.00" fill="#000000"> &#160;</text>
<polygon fill="#ffffff" stroke="transparent" points="252.5,-103.7 252.5,-122.7 339.5,-122.7 339.5,-103.7 252.5,-103.7"/>
<polygon fill="none" stroke="#000000" points="252.5,-103.7 252.5,-122.7 339.5,-122.7 339.5,-103.7 252.5,-103.7"/>
<text text-anchor="start" x="291.8807" y="-109.8" font-family="Helvetica,sans-Serif" font-size="11.00" fill="#000000">163 rows</text>
<polygon fill="#ffffff" stroke="transparent" points="339.5,-103.7 339.5,-122.7 397.5,-122.7 397.5,-103.7 339.5,-103.7"/>
<polygon fill="none" stroke="#000000" points="339.5,-103.7 339.5,-122.7 397.5,-122.7 397.5,-103.7 339.5,-103.7"/>
<text text-anchor="start" x="378.9053" y="-109.8" font-family="Helvetica,sans-Serif" font-size="11.00" fill="#000000">1 &gt;</text>
</a>
</g>
</g>
<!-- VERSIONS_TRACERS&#45;&gt;TRACERS -->
<g id="edge7" class="edge">
<title>VERSIONS_TRACERS:w&#45;&gt;TRACERS:e</title>
<path fill="none" stroke="#000000" d="M433.4203,-152.7C421.5435,-152.7 414.158,-152.7 397.5,-152.7"/>
<polygon fill="#000000" stroke="#000000" points="440,-152.7001 448,-156.3 444,-152.7 448,-152.7 448,-152.7 448,-152.7 444,-152.7 448,-149.1 440,-152.7001 440,-152.7001"/>
<ellipse fill="none" stroke="#000000" cx="436.8" cy="-152.7001" rx="3.2" ry="3.2"/>
</g>
<!-- VERSIONS_PARTS -->
<g id="node7" class="node">
<title>VERSIONS_PARTS</title>
<g id="a_node7"><a xlink:href="../../tables/VERSIONS_PARTS.html" xlink:title="VERSIONS_PARTS" target="_top">
<polygon fill="#ffffff" stroke="transparent" points="541,-506.2 541,-567.2 683,-567.2 683,-506.2 541,-506.2"/>
<polygon fill="#f5f5f5" stroke="transparent" points="541,-543.7 541,-566.7 683,-566.7 683,-543.7 541,-543.7"/>
<polygon fill="none" stroke="#000000" points="541,-543.7 541,-566.7 683,-566.7 683,-543.7 541,-543.7"/>
<text text-anchor="start" x="545.6887" y="-552.8" font-family="Helvetica,sans-Serif" font-weight="bold" font-size="11.00" fill="#000000">VERSIONS_PARTS</text>
<text text-anchor="start" x="648.5219" y="-551.8" font-family="Helvetica,sans-Serif" font-size="11.00" fill="#000000">[table]</text>
<polygon fill="none" stroke="#000000" points="541,-524.7 541,-543.7 683,-543.7 683,-524.7 541,-524.7"/>
<text text-anchor="start" x="544" y="-530.8" font-family="Helvetica,sans-Serif" font-size="11.00" fill="#000000">...</text>
<polygon fill="#ffffff" stroke="transparent" points="541,-505.7 541,-524.7 587,-524.7 587,-505.7 541,-505.7"/>
<polygon fill="none" stroke="#000000" points="541,-505.7 541,-524.7 587,-524.7 587,-505.7 541,-505.7"/>
<text text-anchor="start" x="544" y="-511.8" font-family="Helvetica,sans-Serif" font-size="11.00" fill="#000000">&lt; 2</text>
<polygon fill="#ffffff" stroke="transparent" points="587,-505.7 587,-524.7 649,-524.7 649,-505.7 587,-505.7"/>
<polygon fill="none" stroke="#000000" points="587,-505.7 587,-524.7 649,-524.7 649,-505.7 587,-505.7"/>
<text text-anchor="start" x="601.3807" y="-511.8" font-family="Helvetica,sans-Serif" font-size="11.00" fill="#000000">449 rows</text>
<polygon fill="#ffffff" stroke="transparent" points="649,-505.7 649,-524.7 683,-524.7 683,-505.7 649,-505.7"/>
<polygon fill="none" stroke="#000000" points="649,-505.7 649,-524.7 683,-524.7 683,-505.7 649,-505.7"/>
<text text-anchor="start" x="664.4053" y="-511.8" font-family="Helvetica,sans-Serif" font-size="11.00" fill="#000000">2 &gt;</text>
</a>
</g>
</g>
<!-- VERSIONS_PARTS&#45;&gt;VERSIONS -->
<g id="edge5" class="edge">
<title>VERSIONS_PARTS:w&#45;&gt;VERSIONS:e</title>
<path fill="none" stroke="#000000" d="M526.5657,-533.3456C446.8941,-529.3382 425.3044,-492.7 338.5,-492.7"/>
<polygon fill="#000000" stroke="#000000" points="533.0024,-533.5036 540.9116,-537.2989 537.0012,-533.6018 541,-533.7 541,-533.7 541,-533.7 537.0012,-533.6018 541.0884,-530.1011 533.0024,-533.5036 533.0024,-533.5036"/>
<ellipse fill="none" stroke="#000000" cx="529.8034" cy="-533.425" rx="3.2" ry="3.2"/>
</g>
<!-- VERSIONS_SUPPLEMENTS -->
<g id="node8" class="node">
<title>VERSIONS_SUPPLEMENTS</title>
<g id="a_node8"><a xlink:href="../../tables/VERSIONS_SUPPLEMENTS.html" xlink:title="VERSIONS_SUPPLEMENTS" target="_top">
<polygon fill="#ffffff" stroke="transparent" points="518.5,-424.2 518.5,-485.2 705.5,-485.2 705.5,-424.2 518.5,-424.2"/>
<polygon fill="#f5f5f5" stroke="transparent" points="519,-461.7 519,-484.7 706,-484.7 706,-461.7 519,-461.7"/>
<polygon fill="none" stroke="#000000" points="519,-461.7 519,-484.7 706,-484.7 706,-461.7 519,-461.7"/>
<text text-anchor="start" x="523.576" y="-470.8" font-family="Helvetica,sans-Serif" font-weight="bold" font-size="11.00" fill="#000000">VERSIONS_SUPPLEMENTS</text>
<text text-anchor="start" x="671.5219" y="-469.8" font-family="Helvetica,sans-Serif" font-size="11.00" fill="#000000">[table]</text>
<polygon fill="none" stroke="#000000" points="519,-442.7 519,-461.7 706,-461.7 706,-442.7 519,-442.7"/>
<text text-anchor="start" x="522" y="-448.8" font-family="Helvetica,sans-Serif" font-size="11.00" fill="#000000">...</text>
<polygon fill="#ffffff" stroke="transparent" points="519,-423.7 519,-442.7 592,-442.7 592,-423.7 519,-423.7"/>
<polygon fill="none" stroke="#000000" points="519,-423.7 519,-442.7 592,-442.7 592,-423.7 519,-423.7"/>
<text text-anchor="start" x="522" y="-429.8" font-family="Helvetica,sans-Serif" font-size="11.00" fill="#000000">&lt; 2</text>
<polygon fill="#ffffff" stroke="transparent" points="592,-423.7 592,-442.7 668,-442.7 668,-423.7 592,-423.7"/>
<polygon fill="none" stroke="#000000" points="592,-423.7 592,-442.7 668,-442.7 668,-423.7 592,-423.7"/>
<text text-anchor="start" x="620.3807" y="-429.8" font-family="Helvetica,sans-Serif" font-size="11.00" fill="#000000">190 rows</text>
<polygon fill="#ffffff" stroke="transparent" points="668,-423.7 668,-442.7 706,-442.7 706,-423.7 668,-423.7"/>
<polygon fill="none" stroke="#000000" points="668,-423.7 668,-442.7 706,-442.7 706,-423.7 668,-423.7"/>
<text text-anchor="start" x="696.8862" y="-429.8" font-family="Helvetica,sans-Serif" font-size="11.00" fill="#000000"> &#160;</text>
</a>
</g>
</g>
<!-- VERSIONS_SUPPLEMENTS&#45;&gt;VERSIONS -->
<g id="edge6" class="edge">
<title>VERSIONS_SUPPLEMENTS:w&#45;&gt;VERSIONS:e</title>
<path fill="none" stroke="#000000" d="M504.3197,-452.1604C434.4792,-456.6648 415.6241,-492.7 338.5,-492.7"/>
<polygon fill="#000000" stroke="#000000" points="511.0039,-451.9509 519.1129,-455.2982 515.002,-451.8254 519,-451.7 519,-451.7 519,-451.7 515.002,-451.8254 518.8871,-448.1018 511.0039,-451.9509 511.0039,-451.9509"/>
<ellipse fill="none" stroke="#000000" cx="507.8055" cy="-452.0512" rx="3.2" ry="3.2"/>
</g>
<!-- VERSIONS_TRACERS_TRACER_LIGANDS -->
<g id="node10" class="node">
<title>VERSIONS_TRACERS_TRACER_LIGANDS</title>
<g id="a_node10"><a xlink:href="../../tables/VERSIONS_TRACERS_TRACER_LIGANDS.html" xlink:title="VERSIONS_TRACERS_TRACER_LIGANDS" target="_top">
<polygon fill="#ffffff" stroke="transparent" points="869,-95.2 869,-222.2 1151,-222.2 1151,-95.2 869,-95.2"/>
<polygon fill="#f5f5f5" stroke="transparent" points="869,-198.7 869,-221.7 1151,-221.7 1151,-198.7 869,-198.7"/>
<polygon fill="none" stroke="#000000" points="869,-198.7 869,-221.7 1151,-221.7 1151,-198.7 869,-198.7"/>
<text text-anchor="start" x="874" y="-207.8" font-family="Helvetica,sans-Serif" font-weight="bold" font-size="11.00" fill="#000000">VERSIONS_TRACERS_TRACER_LIGANDS</text>
<text text-anchor="start" x="1116.0437" y="-206.8" font-family="Helvetica,sans-Serif" font-size="11.00" fill="#000000">[table]</text>
<polygon fill="none" stroke="#000000" points="869,-176.7 869,-198.7 1151,-198.7 1151,-176.7 869,-176.7"/>
<image xlink:href="../../images/primaryKeys.png" width="11px" height="12px" preserveAspectRatio="xMinYMin meet" x="874" y="-193.7"/>
<text text-anchor="start" x="889" y="-183.8" font-family="Helvetica,sans-Serif" font-size="11.00" fill="#000000">ID</text>
<polygon fill="none" stroke="#000000" points="869,-154.7 869,-176.7 1151,-176.7 1151,-154.7 869,-154.7"/>
<image xlink:href="../../images/primaryKeys.png" width="11px" height="12px" preserveAspectRatio="xMinYMin meet" x="874" y="-171.7"/>
<text text-anchor="start" x="889" y="-161.8" font-family="Helvetica,sans-Serif" font-size="11.00" fill="#000000">VERSION_TRACER_ID</text>
<polygon fill="none" stroke="#000000" points="869,-132.7 869,-154.7 1151,-154.7 1151,-132.7 869,-132.7"/>
<image xlink:href="../../images/primaryKeys.png" width="11px" height="12px" preserveAspectRatio="xMinYMin meet" x="874" y="-149.7"/>
<text text-anchor="start" x="889" y="-139.8" font-family="Helvetica,sans-Serif" font-size="11.00" fill="#000000">TRACER_LIGAND_ID</text>
<polygon fill="none" stroke="#000000" points="869,-113.7 869,-132.7 1151,-132.7 1151,-113.7 869,-113.7"/>
<text text-anchor="start" x="872" y="-119.8" font-family="Helvetica,sans-Serif" font-size="11.00" fill="#000000">...</text>
<polygon fill="#ffffff" stroke="transparent" points="869,-94.7 869,-113.7 985,-113.7 985,-94.7 869,-94.7"/>
<polygon fill="none" stroke="#000000" points="869,-94.7 869,-113.7 985,-113.7 985,-94.7 869,-94.7"/>
<text text-anchor="start" x="872" y="-100.8" font-family="Helvetica,sans-Serif" font-size="11.00" fill="#000000">&lt; 2</text>
<polygon fill="#ffffff" stroke="transparent" points="985,-94.7 985,-113.7 1091,-113.7 1091,-94.7 985,-94.7"/>
<polygon fill="none" stroke="#000000" points="985,-94.7 985,-113.7 1091,-113.7 1091,-94.7 985,-94.7"/>
<text text-anchor="start" x="1034.2089" y="-100.8" font-family="Helvetica,sans-Serif" font-size="11.00" fill="#000000">2,328 rows</text>
<polygon fill="#ffffff" stroke="transparent" points="1091,-94.7 1091,-113.7 1151,-113.7 1151,-94.7 1091,-94.7"/>
<polygon fill="none" stroke="#000000" points="1091,-94.7 1091,-113.7 1151,-113.7 1151,-94.7 1091,-94.7"/>
<text text-anchor="start" x="1141.8862" y="-100.8" font-family="Helvetica,sans-Serif" font-size="11.00" fill="#000000"> &#160;</text>
</a>
</g>
</g>
<!-- VERSIONS_TRACERS_TRACER_LIGANDS&#45;&gt;VERSIONS_TRACERS -->
<g id="edge10" class="edge">
<title>VERSIONS_TRACERS_TRACER_LIGANDS:w&#45;&gt;VERSIONS_TRACERS:e</title>
<path fill="none" stroke="#000000" d="M854.5492,-167.9709C807.9138,-184.4227 837.6181,-284.7 776,-284.7"/>
<polygon fill="#000000" stroke="#000000" points="861.097,-166.942 869.5589,-169.2564 865.0485,-166.321 869,-165.7 869,-165.7 869,-165.7 865.0485,-166.321 868.4411,-162.1436 861.097,-166.942 861.097,-166.942"/>
<ellipse fill="none" stroke="#000000" cx="857.9358" cy="-167.4388" rx="3.2" ry="3.2"/>
</g>
<!-- TRACER_LIGANDS -->
<g id="node11" class="node">
<title>TRACER_LIGANDS</title>
<g id="a_node11"><a xlink:href="../../tables/TRACER_LIGANDS.html" xlink:title="TRACER_LIGANDS" target="_top">
<polygon fill="#ffffff" stroke="transparent" points="541,-38.2 541,-99.2 683,-99.2 683,-38.2 541,-38.2"/>
<polygon fill="#f5f5f5" stroke="transparent" points="541,-75.7 541,-98.7 683,-98.7 683,-75.7 541,-75.7"/>
<polygon fill="none" stroke="#000000" points="541,-75.7 541,-98.7 683,-98.7 683,-75.7 541,-75.7"/>
<text text-anchor="start" x="545.6942" y="-84.8" font-family="Helvetica,sans-Serif" font-weight="bold" font-size="11.00" fill="#000000">TRACER_LIGANDS</text>
<text text-anchor="start" x="648.5219" y="-83.8" font-family="Helvetica,sans-Serif" font-size="11.00" fill="#000000">[table]</text>
<polygon fill="none" stroke="#000000" points="541,-56.7 541,-75.7 683,-75.7 683,-56.7 541,-56.7"/>
<text text-anchor="start" x="544" y="-62.8" font-family="Helvetica,sans-Serif" font-size="11.00" fill="#000000">...</text>
<polygon fill="#ffffff" stroke="transparent" points="541,-37.7 541,-56.7 587,-56.7 587,-37.7 541,-37.7"/>
<polygon fill="none" stroke="#000000" points="541,-37.7 541,-56.7 587,-56.7 587,-37.7 541,-37.7"/>
<text text-anchor="start" x="544" y="-43.8" font-family="Helvetica,sans-Serif" font-size="11.00" fill="#000000">&lt; 3</text>
<polygon fill="#ffffff" stroke="transparent" points="587,-37.7 587,-56.7 649,-56.7 649,-37.7 587,-37.7"/>
<polygon fill="none" stroke="#000000" points="587,-37.7 587,-56.7 649,-56.7 649,-37.7 587,-37.7"/>
<text text-anchor="start" x="601.3807" y="-43.8" font-family="Helvetica,sans-Serif" font-size="11.00" fill="#000000">416 rows</text>
<polygon fill="#ffffff" stroke="transparent" points="649,-37.7 649,-56.7 683,-56.7 683,-37.7 649,-37.7"/>
<polygon fill="none" stroke="#000000" points="649,-37.7 649,-56.7 683,-56.7 683,-37.7 649,-37.7"/>
<text text-anchor="start" x="664.4053" y="-43.8" font-family="Helvetica,sans-Serif" font-size="11.00" fill="#000000">7 &gt;</text>
</a>
</g>
</g>
<!-- VERSIONS_TRACERS_TRACER_LIGANDS&#45;&gt;TRACER_LIGANDS -->
<g id="edge9" class="edge">
<title>VERSIONS_TRACERS_TRACER_LIGANDS:w&#45;&gt;TRACER_LIGANDS:e</title>
<path fill="none" stroke="#000000" d="M854.9216,-140.1458C812.1654,-124.8867 702.5215,-65.7 683,-65.7"/>
<polygon fill="#000000" stroke="#000000" points="861.2434,-141.7417 868.1188,-147.1905 865.1217,-142.7209 869,-143.7 869,-143.7 869,-143.7 865.1217,-142.7209 869.8812,-140.2095 861.2434,-141.7417 861.2434,-141.7417"/>
<ellipse fill="none" stroke="#000000" cx="858.1407" cy="-140.9584" rx="3.2" ry="3.2"/>
</g>
</g>
</svg>
