<?xml version="1.0" encoding="UTF-8" standalone="no"?>
<!DOCTYPE svg PUBLIC "-//W3C//DTD SVG 1.1//EN"
 "http://www.w3.org/Graphics/SVG/1.1/DTD/svg11.dtd">
<!-- Generated by graphviz version 2.40.1 (20161225.0304)
 -->
<!-- Title: oneDegreeRelationshipsDiagram Pages: 1 -->
<svg width="846pt" height="545pt"
 viewBox="0.00 0.00 846.00 545.20" xmlns="http://www.w3.org/2000/svg" xmlns:xlink="http://www.w3.org/1999/xlink">
<g id="graph0" class="graph" transform="scale(1 1) rotate(0) translate(4 541.2)">
<title>oneDegreeRelationshipsDiagram</title>
<polygon fill="#ffffff" stroke="transparent" points="-4,4 -4,-541.2 842,-541.2 842,4 -4,4"/>
<text text-anchor="middle" x="72.4936" y="-7.3" font-family="Helvetica,sans-Serif" font-size="11.00" fill="#000000">Generated by SchemaSpy</text>
<!-- VERSION_TRACERS_TRACER_SYNTHESIS_REQUESTS -->
<g id="node1" class="node">
<title>VERSION_TRACERS_TRACER_SYNTHESIS_REQUESTS</title>
<g id="a_node1"><a xlink:href="../../tables/VERSION_TRACERS_TRACER_SYNTHESIS_REQUESTS.html" xlink:title="VERSION_TRACERS_TRACER_SYNTHESIS_REQUESTS" target="_top">
<polygon fill="#ffffff" stroke="transparent" points="289,-293.7 289,-493.7 830,-493.7 830,-293.7 289,-293.7"/>
<polygon fill="#f5f5f5" stroke="transparent" points="291.5,-468.7 291.5,-491.7 828.5,-491.7 828.5,-468.7 291.5,-468.7"/>
<polygon fill="none" stroke="#000000" points="291.5,-468.7 291.5,-491.7 828.5,-491.7 828.5,-468.7 291.5,-468.7"/>
<text text-anchor="start" x="296.5" y="-477.8" font-family="Helvetica,sans-Serif" font-weight="bold" font-size="11.00" fill="#000000">VERSION_TRACERS_TRACER_SYNTHESIS_REQUESTS</text>
<text text-anchor="start" x="793.5437" y="-476.8" font-family="Helvetica,sans-Serif" font-size="11.00" fill="#000000">[table]</text>
<polygon fill="none" stroke="#000000" points="291.5,-446.7 291.5,-468.7 657.5,-468.7 657.5,-446.7 291.5,-446.7"/>
<image xlink:href="../../images/primaryKeys.png" width="11px" height="12px" preserveAspectRatio="xMinYMin meet" x="296.5" y="-463.7"/>
<text text-anchor="start" x="311.5" y="-453.8" font-family="Helvetica,sans-Serif" font-size="11.00" fill="#000000">ID</text>
<polygon fill="none" stroke="#000000" points="657.5,-446.7 657.5,-468.7 828.5,-468.7 828.5,-446.7 657.5,-446.7"/>
<text text-anchor="start" x="660.5" y="-454.4" font-family="Helvetica,sans-Serif" font-size="11.00" fill="#000000">number[19]</text>
<polygon fill="none" stroke="#000000" points="291.5,-424.7 291.5,-446.7 657.5,-446.7 657.5,-424.7 291.5,-424.7"/>
<image xlink:href="../../images/primaryKeys.png" width="11px" height="12px" preserveAspectRatio="xMinYMin meet" x="296.5" y="-441.7"/>
<text text-anchor="start" x="311.5" y="-431.8" font-family="Helvetica,sans-Serif" font-size="11.00" fill="#000000">VERSION_TRACER_ID</text>
<polygon fill="none" stroke="#000000" points="657.5,-424.7 657.5,-446.7 828.5,-446.7 828.5,-424.7 657.5,-424.7"/>
<text text-anchor="start" x="660.5" y="-432.4" font-family="Helvetica,sans-Serif" font-size="11.00" fill="#000000">number[19]</text>
<polygon fill="none" stroke="#000000" points="291.5,-402.7 291.5,-424.7 657.5,-424.7 657.5,-402.7 291.5,-402.7"/>
<image xlink:href="../../images/primaryKeys.png" width="11px" height="12px" preserveAspectRatio="xMinYMin meet" x="296.5" y="-419.7"/>
<text text-anchor="start" x="311.5" y="-409.8" font-family="Helvetica,sans-Serif" font-size="11.00" fill="#000000">TRACER_SYNTHESIS_REQUEST_ID</text>
<polygon fill="none" stroke="#000000" points="657.5,-402.7 657.5,-424.7 828.5,-424.7 828.5,-402.7 657.5,-402.7"/>
<text text-anchor="start" x="660.5" y="-410.4" font-family="Helvetica,sans-Serif" font-size="11.00" fill="#000000">number[19]</text>
<polygon fill="none" stroke="#000000" points="291.5,-380.7 291.5,-402.7 657.5,-402.7 657.5,-380.7 291.5,-380.7"/>
<text text-anchor="start" x="311.5" y="-387.8" font-family="Helvetica,sans-Serif" font-size="11.00" fill="#000000">CREATED_AT</text>
<polygon fill="none" stroke="#000000" points="657.5,-380.7 657.5,-402.7 828.5,-402.7 828.5,-380.7 657.5,-380.7"/>
<text text-anchor="start" x="660.4896" y="-388.4" font-family="Helvetica,sans-Serif" font-size="11.00" fill="#000000">timestamp(6) with time zone[13,6]</text>
<polygon fill="none" stroke="#000000" points="291.5,-358.7 291.5,-380.7 657.5,-380.7 657.5,-358.7 291.5,-358.7"/>
<text text-anchor="start" x="311.5" y="-365.8" font-family="Helvetica,sans-Serif" font-size="11.00" fill="#000000">CREATED_BY</text>
<polygon fill="none" stroke="#000000" points="657.5,-358.7 657.5,-380.7 828.5,-380.7 828.5,-358.7 657.5,-358.7"/>
<text text-anchor="start" x="660.5" y="-366.4" font-family="Helvetica,sans-Serif" font-size="11.00" fill="#000000">number[19]</text>
<polygon fill="none" stroke="#000000" points="291.5,-336.7 291.5,-358.7 657.5,-358.7 657.5,-336.7 291.5,-336.7"/>
<text text-anchor="start" x="311.5" y="-343.8" font-family="Helvetica,sans-Serif" font-size="11.00" fill="#000000">UPDATED_AT</text>
<polygon fill="none" stroke="#000000" points="657.5,-336.7 657.5,-358.7 828.5,-358.7 828.5,-336.7 657.5,-336.7"/>
<text text-anchor="start" x="660.4896" y="-344.4" font-family="Helvetica,sans-Serif" font-size="11.00" fill="#000000">timestamp(6) with time zone[13,6]</text>
<polygon fill="none" stroke="#000000" points="291.5,-314.7 291.5,-336.7 657.5,-336.7 657.5,-314.7 291.5,-314.7"/>
<text text-anchor="start" x="311.5" y="-321.8" font-family="Helvetica,sans-Serif" font-size="11.00" fill="#000000">UPDATED_BY</text>
<polygon fill="none" stroke="#000000" points="657.5,-314.7 657.5,-336.7 828.5,-336.7 828.5,-314.7 657.5,-314.7"/>
<text text-anchor="start" x="660.5" y="-322.4" font-family="Helvetica,sans-Serif" font-size="11.00" fill="#000000">number[19]</text>
<polygon fill="#ffffff" stroke="transparent" points="291.5,-295.7 291.5,-314.7 462.5,-314.7 462.5,-295.7 291.5,-295.7"/>
<polygon fill="none" stroke="#000000" points="291.5,-295.7 291.5,-314.7 462.5,-314.7 462.5,-295.7 291.5,-295.7"/>
<text text-anchor="start" x="294.5" y="-301.8" font-family="Helvetica,sans-Serif" font-size="11.00" fill="#000000">&lt; 2</text>
<polygon fill="#ffffff" stroke="transparent" points="462.5,-295.7 462.5,-314.7 657.5,-314.7 657.5,-295.7 462.5,-295.7"/>
<polygon fill="none" stroke="#000000" points="462.5,-295.7 462.5,-314.7 657.5,-314.7 657.5,-295.7 462.5,-295.7"/>
<text text-anchor="start" x="615.9956" y="-301.8" font-family="Helvetica,sans-Serif" font-size="11.00" fill="#000000">21 rows</text>
<polygon fill="#ffffff" stroke="transparent" points="657.5,-295.7 657.5,-314.7 828.5,-314.7 828.5,-295.7 657.5,-295.7"/>
<polygon fill="none" stroke="#000000" points="657.5,-295.7 657.5,-314.7 828.5,-314.7 828.5,-295.7 657.5,-295.7"/>
<text text-anchor="start" x="809.9053" y="-301.8" font-family="Helvetica,sans-Serif" font-size="11.00" fill="#000000">0 &gt;</text>
<polygon fill="none" stroke="#000000" stroke-width="2" points="290,-294.7 290,-492.7 829,-492.7 829,-294.7 290,-294.7"/>
</a>
</g>
</g>
<!-- TRACER_SYNTHESIS_REQUESTS -->
<g id="node2" class="node">
<title>TRACER_SYNTHESIS_REQUESTS</title>
<g id="a_node2"><a xlink:href="../../tables/TRACER_SYNTHESIS_REQUESTS.html" xlink:title="TRACER_SYNTHESIS_REQUESTS" target="_top">
<polygon fill="#ffffff" stroke="transparent" points="8,-38.2 8,-385.2 240,-385.2 240,-38.2 8,-38.2"/>
<polygon fill="#f5f5f5" stroke="transparent" points="8,-361.7 8,-384.7 240,-384.7 240,-361.7 8,-361.7"/>
<polygon fill="none" stroke="#000000" points="8,-361.7 8,-384.7 240,-384.7 240,-361.7 8,-361.7"/>
<text text-anchor="start" x="13" y="-370.8" font-family="Helvetica,sans-Serif" font-weight="bold" font-size="11.00" fill="#000000">TRACER_SYNTHESIS_REQUESTS</text>
<text text-anchor="start" x="205.0437" y="-369.8" font-family="Helvetica,sans-Serif" font-size="11.00" fill="#000000">[table]</text>
<polygon fill="none" stroke="#000000" points="8,-339.7 8,-361.7 240,-361.7 240,-339.7 8,-339.7"/>
<image xlink:href="../../images/primaryKeys.png" width="11px" height="12px" preserveAspectRatio="xMinYMin meet" x="13" y="-356.7"/>
<text text-anchor="start" x="28" y="-346.8" font-family="Helvetica,sans-Serif" font-size="11.00" fill="#000000">ID</text>
<polygon fill="none" stroke="#000000" points="8,-317.7 8,-339.7 240,-339.7 240,-317.7 8,-317.7"/>
<image xlink:href="../../images/foreignKeys.png" width="11px" height="12px" preserveAspectRatio="xMinYMin meet" x="13" y="-334.7"/>
<text text-anchor="start" x="28" y="-324.8" font-family="Helvetica,sans-Serif" font-size="11.00" fill="#000000">TRACER_TYPE_ID</text>
<polygon fill="none" stroke="#000000" points="8,-295.7 8,-317.7 240,-317.7 240,-295.7 8,-295.7"/>
<image xlink:href="../../images/foreignKeys.png" width="11px" height="12px" preserveAspectRatio="xMinYMin meet" x="13" y="-312.7"/>
<text text-anchor="start" x="28" y="-302.8" font-family="Helvetica,sans-Serif" font-size="11.00" fill="#000000">TARGET_ID</text>
<polygon fill="none" stroke="#000000" points="8,-273.7 8,-295.7 240,-295.7 240,-273.7 8,-273.7"/>
<image xlink:href="../../images/foreignKeys.png" width="11px" height="12px" preserveAspectRatio="xMinYMin meet" x="13" y="-290.7"/>
<text text-anchor="start" x="28" y="-280.8" font-family="Helvetica,sans-Serif" font-size="11.00" fill="#000000">OFF_DNA_ID</text>
<polygon fill="none" stroke="#000000" points="8,-251.7 8,-273.7 240,-273.7 240,-251.7 8,-251.7"/>
<image xlink:href="../../images/foreignKeys.png" width="11px" height="12px" preserveAspectRatio="xMinYMin meet" x="13" y="-268.7"/>
<text text-anchor="start" x="28" y="-258.8" font-family="Helvetica,sans-Serif" font-size="11.00" fill="#000000">OFF_DNA_IC50_ID</text>
<polygon fill="none" stroke="#000000" points="8,-229.7 8,-251.7 240,-251.7 240,-229.7 8,-229.7"/>
<image xlink:href="../../images/foreignKeys.png" width="11px" height="12px" preserveAspectRatio="xMinYMin meet" x="13" y="-246.7"/>
<text text-anchor="start" x="28" y="-236.8" font-family="Helvetica,sans-Serif" font-size="11.00" fill="#000000">TARGET_FORM_ID</text>
<polygon fill="none" stroke="#000000" points="8,-207.7 8,-229.7 240,-229.7 240,-207.7 8,-207.7"/>
<image xlink:href="../../images/foreignKeys.png" width="11px" height="12px" preserveAspectRatio="xMinYMin meet" x="13" y="-224.7"/>
<text text-anchor="start" x="28" y="-214.8" font-family="Helvetica,sans-Serif" font-size="11.00" fill="#000000">ASSIGNEE_ID</text>
<polygon fill="none" stroke="#000000" points="8,-185.7 8,-207.7 240,-207.7 240,-185.7 8,-185.7"/>
<image xlink:href="../../images/foreignKeys.png" width="11px" height="12px" preserveAspectRatio="xMinYMin meet" x="13" y="-202.7"/>
<text text-anchor="start" x="28" y="-192.8" font-family="Helvetica,sans-Serif" font-size="11.00" fill="#000000">TARGET_CATEGORY_ID</text>
<polygon fill="none" stroke="#000000" points="8,-163.7 8,-185.7 240,-185.7 240,-163.7 8,-163.7"/>
<image xlink:href="../../images/foreignKeys.png" width="11px" height="12px" preserveAspectRatio="xMinYMin meet" x="13" y="-180.7"/>
<text text-anchor="start" x="28" y="-170.8" font-family="Helvetica,sans-Serif" font-size="11.00" fill="#000000">CHEMISTRY_ID</text>
<polygon fill="none" stroke="#000000" points="8,-141.7 8,-163.7 240,-163.7 240,-141.7 8,-141.7"/>
<image xlink:href="../../images/foreignKeys.png" width="11px" height="12px" preserveAspectRatio="xMinYMin meet" x="13" y="-158.7"/>
<text text-anchor="start" x="28" y="-148.8" font-family="Helvetica,sans-Serif" font-size="11.00" fill="#000000">REGISTRATION_ID</text>
<polygon fill="none" stroke="#000000" points="8,-119.7 8,-141.7 240,-141.7 240,-119.7 8,-119.7"/>
<image xlink:href="../../images/foreignKeys.png" width="11px" height="12px" preserveAspectRatio="xMinYMin meet" x="13" y="-136.7"/>
<text text-anchor="start" x="28" y="-126.8" font-family="Helvetica,sans-Serif" font-size="11.00" fill="#000000">HEAD_PIECE_ID</text>
<polygon fill="none" stroke="#000000" points="8,-97.7 8,-119.7 240,-119.7 240,-97.7 8,-97.7"/>
<image xlink:href="../../images/foreignKeys.png" width="11px" height="12px" preserveAspectRatio="xMinYMin meet" x="13" y="-114.7"/>
<text text-anchor="start" x="28" y="-104.8" font-family="Helvetica,sans-Serif" font-size="11.00" fill="#000000">QUANTIFICATION_METHOD_ID</text>
<polygon fill="none" stroke="#000000" points="8,-75.7 8,-97.7 240,-97.7 240,-75.7 8,-75.7"/>
<image xlink:href="../../images/foreignKeys.png" width="11px" height="12px" preserveAspectRatio="xMinYMin meet" x="13" y="-92.7"/>
<text text-anchor="start" x="28" y="-82.8" font-family="Helvetica,sans-Serif" font-size="11.00" fill="#000000">DELIVERED_CONDITION_ID</text>
<polygon fill="none" stroke="#000000" points="8,-56.7 8,-75.7 240,-75.7 240,-56.7 8,-56.7"/>
<text text-anchor="start" x="11" y="-62.8" font-family="Helvetica,sans-Serif" font-size="11.00" fill="#000000">...</text>
<polygon fill="#ffffff" stroke="transparent" points="8,-37.7 8,-56.7 105,-56.7 105,-37.7 8,-37.7"/>
<polygon fill="none" stroke="#000000" points="8,-37.7 8,-56.7 105,-56.7 105,-37.7 8,-37.7"/>
<text text-anchor="start" x="11" y="-43.8" font-family="Helvetica,sans-Serif" font-size="11.00" fill="#000000">&lt; 12</text>
<polygon fill="#ffffff" stroke="transparent" points="105,-37.7 105,-56.7 184,-56.7 184,-37.7 105,-37.7"/>
<polygon fill="none" stroke="#000000" points="105,-37.7 105,-56.7 184,-56.7 184,-37.7 105,-37.7"/>
<text text-anchor="start" x="142.4956" y="-43.8" font-family="Helvetica,sans-Serif" font-size="11.00" fill="#000000">21 rows</text>
<polygon fill="#ffffff" stroke="transparent" points="184,-37.7 184,-56.7 240,-56.7 240,-37.7 184,-37.7"/>
<polygon fill="none" stroke="#000000" points="184,-37.7 184,-56.7 240,-56.7 240,-37.7 184,-37.7"/>
<text text-anchor="start" x="221.4053" y="-43.8" font-family="Helvetica,sans-Serif" font-size="11.00" fill="#000000">2 &gt;</text>
</a>
</g>
</g>
<!-- VERSION_TRACERS_TRACER_SYNTHESIS_REQUESTS&#45;&gt;TRACER_SYNTHESIS_REQUESTS -->
<g id="edge1" class="edge">
<title>VERSION_TRACERS_TRACER_SYNTHESIS_REQUESTS:w&#45;&gt;TRACER_SYNTHESIS_REQUESTS:e</title>
<path fill="none" stroke="#000000" d="M277.799,-409.1692C260.6358,-394.7239 270.2316,-350.7 240,-350.7"/>
<polygon fill="#000000" stroke="#000000" points="283.9045,-411.1882 290.3697,-417.118 287.7023,-412.4441 291.5,-413.7 291.5,-413.7 291.5,-413.7 287.7023,-412.4441 292.6303,-410.282 283.9045,-411.1882 283.9045,-411.1882"/>
<ellipse fill="none" stroke="#000000" cx="280.8663" cy="-410.1835" rx="3.2" ry="3.2"/>
</g>
<!-- VERSIONS_TRACERS -->
<g id="node3" class="node">
<title>VERSIONS_TRACERS</title>
<g id="a_node3"><a xlink:href="../../tables/VERSIONS_TRACERS.html" xlink:title="VERSIONS_TRACERS" target="_top">
<polygon fill="#ffffff" stroke="transparent" points="45,-406.2 45,-533.2 203,-533.2 203,-406.2 45,-406.2"/>
<polygon fill="#f5f5f5" stroke="transparent" points="45,-509.7 45,-532.7 203,-532.7 203,-509.7 45,-509.7"/>
<polygon fill="none" stroke="#000000" points="45,-509.7 45,-532.7 203,-532.7 203,-509.7 45,-509.7"/>
<text text-anchor="start" x="49.7478" y="-518.8" font-family="Helvetica,sans-Serif" font-weight="bold" font-size="11.00" fill="#000000">VERSIONS_TRACERS</text>
<text text-anchor="start" x="168.5219" y="-517.8" font-family="Helvetica,sans-Serif" font-size="11.00" fill="#000000">[table]</text>
<polygon fill="none" stroke="#000000" points="45,-487.7 45,-509.7 203,-509.7 203,-487.7 45,-487.7"/>
<image xlink:href="../../images/primaryKeys.png" width="11px" height="12px" preserveAspectRatio="xMinYMin meet" x="50" y="-504.7"/>
<text text-anchor="start" x="66" y="-494.8" font-family="Helvetica,sans-Serif" font-size="11.00" fill="#000000">ID</text>
<polygon fill="none" stroke="#000000" points="45,-465.7 45,-487.7 203,-487.7 203,-465.7 45,-465.7"/>
<image xlink:href="../../images/primaryKeys.png" width="11px" height="12px" preserveAspectRatio="xMinYMin meet" x="50" y="-482.7"/>
<text text-anchor="start" x="66" y="-472.8" font-family="Helvetica,sans-Serif" font-size="11.00" fill="#000000">VERSION_ID</text>
<polygon fill="none" stroke="#000000" points="45,-443.7 45,-465.7 203,-465.7 203,-443.7 45,-443.7"/>
<image xlink:href="../../images/primaryKeys.png" width="11px" height="12px" preserveAspectRatio="xMinYMin meet" x="50" y="-460.7"/>
<text text-anchor="start" x="66" y="-450.8" font-family="Helvetica,sans-Serif" font-size="11.00" fill="#000000">TRACER_ID</text>
<polygon fill="none" stroke="#000000" points="45,-424.7 45,-443.7 203,-443.7 203,-424.7 45,-424.7"/>
<text text-anchor="start" x="48" y="-430.8" font-family="Helvetica,sans-Serif" font-size="11.00" fill="#000000">...</text>
<polygon fill="#ffffff" stroke="transparent" points="45,-405.7 45,-424.7 94,-424.7 94,-405.7 45,-405.7"/>
<polygon fill="none" stroke="#000000" points="45,-405.7 45,-424.7 94,-424.7 94,-405.7 45,-405.7"/>
<text text-anchor="start" x="48" y="-411.8" font-family="Helvetica,sans-Serif" font-size="11.00" fill="#000000">&lt; 2</text>
<polygon fill="#ffffff" stroke="transparent" points="94,-405.7 94,-424.7 167,-424.7 167,-405.7 94,-405.7"/>
<polygon fill="none" stroke="#000000" points="94,-405.7 94,-424.7 167,-424.7 167,-405.7 94,-405.7"/>
<text text-anchor="start" x="110.2089" y="-411.8" font-family="Helvetica,sans-Serif" font-size="11.00" fill="#000000">1,279 rows</text>
<polygon fill="#ffffff" stroke="transparent" points="167,-405.7 167,-424.7 203,-424.7 203,-405.7 167,-405.7"/>
<polygon fill="none" stroke="#000000" points="167,-405.7 167,-424.7 203,-424.7 203,-405.7 167,-405.7"/>
<text text-anchor="start" x="184.4053" y="-411.8" font-family="Helvetica,sans-Serif" font-size="11.00" fill="#000000">2 &gt;</text>
</a>
</g>
</g>
<!-- VERSION_TRACERS_TRACER_SYNTHESIS_REQUESTS&#45;&gt;VERSIONS_TRACERS -->
<g id="edge2" class="edge">
<title>VERSION_TRACERS_TRACER_SYNTHESIS_REQUESTS:w&#45;&gt;VERSIONS_TRACERS:e</title>
<path fill="none" stroke="#000000" d="M277.0971,-437.9422C244.3222,-449.165 245.8122,-498.7 203,-498.7"/>
<polygon fill="#000000" stroke="#000000" points="283.5952,-436.9306 292.0538,-439.2572 287.5476,-436.3153 291.5,-435.7 291.5,-435.7 291.5,-435.7 287.5476,-436.3153 290.9462,-432.1428 283.5952,-436.9306 283.5952,-436.9306"/>
<ellipse fill="none" stroke="#000000" cx="280.4333" cy="-437.4229" rx="3.2" ry="3.2"/>
</g>
</g>
</svg>
