<?xml version="1.0" encoding="UTF-8" standalone="no"?>
<!DOCTYPE svg PUBLIC "-//W3C//DTD SVG 1.1//EN"
 "http://www.w3.org/Graphics/SVG/1.1/DTD/svg11.dtd">
<!-- Generated by graphviz version 2.40.1 (20161225.0304)
 -->
<!-- Title: twoDegreesRelationshipsDiagram Pages: 1 -->
<svg width="1189pt" height="430pt"
 viewBox="0.00 0.00 1189.00 429.70" xmlns="http://www.w3.org/2000/svg" xmlns:xlink="http://www.w3.org/1999/xlink">
<g id="graph0" class="graph" transform="scale(1 1) rotate(0) translate(4 425.7)">
<title>twoDegreesRelationshipsDiagram</title>
<polygon fill="#ffffff" stroke="transparent" points="-4,4 -4,-425.7 1185,-425.7 1185,4 -4,4"/>
<text text-anchor="middle" x="72.4936" y="-7.3" font-family="Helvetica,sans-Serif" font-size="11.00" fill="#000000">Generated by SchemaSpy</text>
<!-- SCREENING_PLANS -->
<g id="node1" class="node">
<title>SCREENING_PLANS</title>
<g id="a_node1"><a xlink:href="../../tables/SCREENING_PLANS.html" xlink:title="SCREENING_PLANS" target="_top">
<polygon fill="#ffffff" stroke="transparent" points="510,-223.2 510,-372.2 676,-372.2 676,-223.2 510,-223.2"/>
<polygon fill="#f5f5f5" stroke="transparent" points="510,-348.7 510,-371.7 676,-371.7 676,-348.7 510,-348.7"/>
<polygon fill="none" stroke="#000000" points="510,-348.7 510,-371.7 676,-371.7 676,-348.7 510,-348.7"/>
<text text-anchor="start" x="515" y="-357.8" font-family="Helvetica,sans-Serif" font-weight="bold" font-size="11.00" fill="#000000">SCREENING_PLANS</text>
<text text-anchor="start" x="641.0437" y="-356.8" font-family="Helvetica,sans-Serif" font-size="11.00" fill="#000000">[table]</text>
<polygon fill="none" stroke="#000000" points="510,-326.7 510,-348.7 676,-348.7 676,-326.7 510,-326.7"/>
<image xlink:href="../../images/primaryKeys.png" width="11px" height="12px" preserveAspectRatio="xMinYMin meet" x="515" y="-343.7"/>
<text text-anchor="start" x="530" y="-333.8" font-family="Helvetica,sans-Serif" font-size="11.00" fill="#000000">ID</text>
<polygon fill="none" stroke="#000000" points="510,-304.7 510,-326.7 676,-326.7 676,-304.7 510,-304.7"/>
<image xlink:href="../../images/foreignKeys.png" width="11px" height="12px" preserveAspectRatio="xMinYMin meet" x="515" y="-321.7"/>
<text text-anchor="start" x="530" y="-311.8" font-family="Helvetica,sans-Serif" font-size="11.00" fill="#000000">TARGET_ID</text>
<polygon fill="none" stroke="#000000" points="510,-282.7 510,-304.7 676,-304.7 676,-282.7 510,-282.7"/>
<image xlink:href="../../images/foreignKeys.png" width="11px" height="12px" preserveAspectRatio="xMinYMin meet" x="515" y="-299.7"/>
<text text-anchor="start" x="530" y="-289.8" font-family="Helvetica,sans-Serif" font-size="11.00" fill="#000000">TARGET_FORM_ID</text>
<polygon fill="none" stroke="#000000" points="510,-260.7 510,-282.7 676,-282.7 676,-260.7 510,-260.7"/>
<image xlink:href="../../images/foreignKeys.png" width="11px" height="12px" preserveAspectRatio="xMinYMin meet" x="515" y="-277.7"/>
<text text-anchor="start" x="530" y="-267.8" font-family="Helvetica,sans-Serif" font-size="11.00" fill="#000000">SUPPLEMENT_ID</text>
<polygon fill="none" stroke="#000000" points="510,-241.7 510,-260.7 676,-260.7 676,-241.7 510,-241.7"/>
<text text-anchor="start" x="513" y="-247.8" font-family="Helvetica,sans-Serif" font-size="11.00" fill="#000000">...</text>
<polygon fill="#ffffff" stroke="transparent" points="510,-222.7 510,-241.7 568,-241.7 568,-222.7 510,-222.7"/>
<polygon fill="none" stroke="#000000" points="510,-222.7 510,-241.7 568,-241.7 568,-222.7 510,-222.7"/>
<text text-anchor="start" x="513" y="-228.8" font-family="Helvetica,sans-Serif" font-size="11.00" fill="#000000">&lt; 3</text>
<polygon fill="#ffffff" stroke="transparent" points="568,-222.7 568,-241.7 636,-241.7 636,-222.7 568,-222.7"/>
<polygon fill="none" stroke="#000000" points="568,-222.7 568,-241.7 636,-241.7 636,-222.7 568,-222.7"/>
<text text-anchor="start" x="588.3807" y="-228.8" font-family="Helvetica,sans-Serif" font-size="11.00" fill="#000000">137 rows</text>
<polygon fill="#ffffff" stroke="transparent" points="636,-222.7 636,-241.7 676,-241.7 676,-222.7 636,-222.7"/>
<polygon fill="none" stroke="#000000" points="636,-222.7 636,-241.7 676,-241.7 676,-222.7 636,-222.7"/>
<text text-anchor="start" x="657.4053" y="-228.8" font-family="Helvetica,sans-Serif" font-size="11.00" fill="#000000">1 &gt;</text>
</a>
</g>
</g>
<!-- SUPPLEMENTS -->
<g id="node2" class="node">
<title>SUPPLEMENTS</title>
<g id="a_node2"><a xlink:href="../../tables/SUPPLEMENTS.html" xlink:title="SUPPLEMENTS" target="_top">
<polygon fill="#ffffff" stroke="transparent" points="337,-208.2 337,-269.2 461,-269.2 461,-208.2 337,-208.2"/>
<polygon fill="#f5f5f5" stroke="transparent" points="337,-245.7 337,-268.7 461,-268.7 461,-245.7 337,-245.7"/>
<polygon fill="none" stroke="#000000" points="337,-245.7 337,-268.7 461,-268.7 461,-245.7 337,-245.7"/>
<text text-anchor="start" x="341.5531" y="-254.8" font-family="Helvetica,sans-Serif" font-weight="bold" font-size="11.00" fill="#000000">SUPPLEMENTS</text>
<text text-anchor="start" x="426.5219" y="-253.8" font-family="Helvetica,sans-Serif" font-size="11.00" fill="#000000">[table]</text>
<polygon fill="none" stroke="#000000" points="337,-226.7 337,-245.7 461,-245.7 461,-226.7 337,-226.7"/>
<text text-anchor="start" x="340" y="-232.8" font-family="Helvetica,sans-Serif" font-size="11.00" fill="#000000">...</text>
<polygon fill="#ffffff" stroke="transparent" points="337,-207.7 337,-226.7 377,-226.7 377,-207.7 337,-207.7"/>
<polygon fill="none" stroke="#000000" points="337,-207.7 337,-226.7 377,-226.7 377,-207.7 337,-207.7"/>
<text text-anchor="start" x="340" y="-213.8" font-family="Helvetica,sans-Serif" font-size="11.00" fill="#000000">&lt; 1</text>
<polygon fill="#ffffff" stroke="transparent" points="377,-207.7 377,-226.7 430,-226.7 430,-207.7 377,-207.7"/>
<polygon fill="none" stroke="#000000" points="377,-207.7 377,-226.7 430,-226.7 430,-207.7 377,-207.7"/>
<text text-anchor="start" x="388.4956" y="-213.8" font-family="Helvetica,sans-Serif" font-size="11.00" fill="#000000">77 rows</text>
<polygon fill="#ffffff" stroke="transparent" points="430,-207.7 430,-226.7 461,-226.7 461,-207.7 430,-207.7"/>
<polygon fill="none" stroke="#000000" points="430,-207.7 430,-226.7 461,-226.7 461,-207.7 430,-207.7"/>
<text text-anchor="start" x="442.4053" y="-213.8" font-family="Helvetica,sans-Serif" font-size="11.00" fill="#000000">5 &gt;</text>
</a>
</g>
</g>
<!-- SCREENING_PLANS&#45;&gt;SUPPLEMENTS -->
<g id="edge1" class="edge">
<title>SCREENING_PLANS:w&#45;&gt;SUPPLEMENTS:e</title>
<path fill="none" stroke="#000000" d="M496.1983,-267.2857C483.6499,-257.6727 482.1121,-235.7 461,-235.7"/>
<polygon fill="#000000" stroke="#000000" points="502.3802,-269.2629 508.9033,-275.1289 506.1901,-270.4814 510,-271.7 510,-271.7 510,-271.7 506.1901,-270.4814 511.0967,-268.2711 502.3802,-269.2629 502.3802,-269.2629"/>
<ellipse fill="none" stroke="#000000" cx="499.3323" cy="-268.288" rx="3.2" ry="3.2"/>
</g>
<!-- TARGET_FORMS -->
<g id="node3" class="node">
<title>TARGET_FORMS</title>
<g id="a_node3"><a xlink:href="../../tables/TARGET_FORMS.html" xlink:title="TARGET_FORMS" target="_top">
<polygon fill="#ffffff" stroke="transparent" points="155,-235.2 155,-296.2 288,-296.2 288,-235.2 155,-235.2"/>
<polygon fill="#f5f5f5" stroke="transparent" points="155.5,-272.7 155.5,-295.7 288.5,-295.7 288.5,-272.7 155.5,-272.7"/>
<polygon fill="none" stroke="#000000" points="155.5,-272.7 155.5,-295.7 288.5,-295.7 288.5,-272.7 155.5,-272.7"/>
<text text-anchor="start" x="160.2801" y="-281.8" font-family="Helvetica,sans-Serif" font-weight="bold" font-size="11.00" fill="#000000">TARGET_FORMS</text>
<text text-anchor="start" x="254.0219" y="-280.8" font-family="Helvetica,sans-Serif" font-size="11.00" fill="#000000">[table]</text>
<polygon fill="none" stroke="#000000" points="155.5,-253.7 155.5,-272.7 288.5,-272.7 288.5,-253.7 155.5,-253.7"/>
<text text-anchor="start" x="158.5" y="-259.8" font-family="Helvetica,sans-Serif" font-size="11.00" fill="#000000">...</text>
<polygon fill="#ffffff" stroke="transparent" points="155.5,-234.7 155.5,-253.7 193.5,-253.7 193.5,-234.7 155.5,-234.7"/>
<polygon fill="none" stroke="#000000" points="155.5,-234.7 155.5,-253.7 193.5,-253.7 193.5,-234.7 155.5,-234.7"/>
<text text-anchor="start" x="158.5" y="-240.8" font-family="Helvetica,sans-Serif" font-size="11.00" fill="#000000">&lt; 5</text>
<polygon fill="#ffffff" stroke="transparent" points="193.5,-234.7 193.5,-253.7 252.5,-253.7 252.5,-234.7 193.5,-234.7"/>
<polygon fill="none" stroke="#000000" points="193.5,-234.7 193.5,-253.7 252.5,-253.7 252.5,-234.7 193.5,-234.7"/>
<text text-anchor="start" x="204.8807" y="-240.8" font-family="Helvetica,sans-Serif" font-size="11.00" fill="#000000">541 rows</text>
<polygon fill="#ffffff" stroke="transparent" points="252.5,-234.7 252.5,-253.7 288.5,-253.7 288.5,-234.7 252.5,-234.7"/>
<polygon fill="none" stroke="#000000" points="252.5,-234.7 252.5,-253.7 288.5,-253.7 288.5,-234.7 252.5,-234.7"/>
<text text-anchor="start" x="263.7904" y="-240.8" font-family="Helvetica,sans-Serif" font-size="11.00" fill="#000000">18 &gt;</text>
</a>
</g>
</g>
<!-- SCREENING_PLANS&#45;&gt;TARGET_FORMS -->
<g id="edge2" class="edge">
<title>SCREENING_PLANS:w&#45;&gt;TARGET_FORMS:e</title>
<path fill="none" stroke="#000000" d="M495.5324,-293.7512C426.358,-294.2275 402.522,-297.4823 329,-279.7 310.0257,-275.1108 308.0214,-262.7 288.5,-262.7"/>
<polygon fill="#000000" stroke="#000000" points="502.0001,-293.7283 510.0128,-297.3 506,-293.7142 510,-293.7 510,-293.7 510,-293.7 506,-293.7142 509.9872,-290.1 502.0001,-293.7283 502.0001,-293.7283"/>
<ellipse fill="none" stroke="#000000" cx="498.8001" cy="-293.7397" rx="3.2" ry="3.2"/>
</g>
<!-- TARGETS -->
<g id="node4" class="node">
<title>TARGETS</title>
<g id="a_node4"><a xlink:href="../../tables/TARGETS.html" xlink:title="TARGETS" target="_top">
<polygon fill="#ffffff" stroke="transparent" points="8,-264.2 8,-325.2 106,-325.2 106,-264.2 8,-264.2"/>
<polygon fill="#f5f5f5" stroke="transparent" points="8,-301.7 8,-324.7 106,-324.7 106,-301.7 8,-301.7"/>
<polygon fill="none" stroke="#000000" points="8,-301.7 8,-324.7 106,-324.7 106,-301.7 8,-301.7"/>
<text text-anchor="start" x="13" y="-310.8" font-family="Helvetica,sans-Serif" font-weight="bold" font-size="11.00" fill="#000000">TARGETS</text>
<text text-anchor="start" x="71.0437" y="-309.8" font-family="Helvetica,sans-Serif" font-size="11.00" fill="#000000">[table]</text>
<polygon fill="none" stroke="#000000" points="8,-282.7 8,-301.7 106,-301.7 106,-282.7 8,-282.7"/>
<text text-anchor="start" x="11" y="-288.8" font-family="Helvetica,sans-Serif" font-size="11.00" fill="#000000">...</text>
<polygon fill="#ffffff" stroke="transparent" points="8,-263.7 8,-282.7 29,-282.7 29,-263.7 8,-263.7"/>
<polygon fill="none" stroke="#000000" points="8,-263.7 8,-282.7 29,-282.7 29,-263.7 8,-263.7"/>
<text text-anchor="start" x="10.7027" y="-269.8" font-family="Helvetica,sans-Serif" font-size="11.00" fill="#000000">&lt; 3</text>
<polygon fill="#ffffff" stroke="transparent" points="29,-263.7 29,-282.7 79,-282.7 79,-263.7 29,-263.7"/>
<polygon fill="none" stroke="#000000" points="29,-263.7 29,-282.7 79,-282.7 79,-263.7 29,-263.7"/>
<text text-anchor="start" x="31.6904" y="-269.8" font-family="Helvetica,sans-Serif" font-size="11.00" fill="#000000">146 rows</text>
<polygon fill="#ffffff" stroke="transparent" points="79,-263.7 79,-282.7 106,-282.7 106,-263.7 79,-263.7"/>
<polygon fill="none" stroke="#000000" points="79,-263.7 79,-282.7 106,-282.7 106,-263.7 79,-263.7"/>
<text text-anchor="start" x="81.6452" y="-269.8" font-family="Helvetica,sans-Serif" font-size="11.00" fill="#000000">10 &gt;</text>
</a>
</g>
</g>
<!-- SCREENING_PLANS&#45;&gt;TARGETS -->
<g id="edge3" class="edge">
<title>SCREENING_PLANS:w&#45;&gt;TARGETS:e</title>
<path fill="none" stroke="#000000" d="M495.2098,-315.7597C345.8124,-316.9702 300.5921,-335.8819 147,-306.7 127.9376,-303.0782 125.4034,-291.7 106,-291.7"/>
<polygon fill="#000000" stroke="#000000" points="502.0001,-315.7323 510.0145,-319.3 506,-315.7162 510,-315.7 510,-315.7 510,-315.7 506,-315.7162 509.9855,-312.1 502.0001,-315.7323 502.0001,-315.7323"/>
<ellipse fill="none" stroke="#000000" cx="498.8001" cy="-315.7453" rx="3.2" ry="3.2"/>
</g>
<!-- SUPPLEMENTS&#45;&gt;TARGET_FORMS -->
<g id="edge4" class="edge">
<title>SUPPLEMENTS:w&#45;&gt;TARGET_FORMS:e</title>
<path fill="none" stroke="#000000" d="M322.8396,-239.6839C311.2405,-247.1944 307.1957,-262.7 288.5,-262.7"/>
<polygon fill="#000000" stroke="#000000" points="329.299,-237.8667 337.975,-239.1655 333.1495,-236.7833 337,-235.7 337,-235.7 337,-235.7 333.1495,-236.7833 336.025,-232.2345 329.299,-237.8667 329.299,-237.8667"/>
<ellipse fill="none" stroke="#000000" cx="326.2186" cy="-238.7333" rx="3.2" ry="3.2"/>
</g>
<!-- TARGET_FORMS&#45;&gt;TARGETS -->
<g id="edge5" class="edge">
<title>TARGET_FORMS:w&#45;&gt;TARGETS:e</title>
<path fill="none" stroke="#000000" d="M141.3253,-266.7323C129.2205,-274.7007 125.5215,-291.7 106,-291.7"/>
<polygon fill="#000000" stroke="#000000" points="147.8053,-264.889 156.485,-266.1626 151.6526,-263.7945 155.5,-262.7 155.5,-262.7 155.5,-262.7 151.6526,-263.7945 154.515,-259.2374 147.8053,-264.889 147.8053,-264.889"/>
<ellipse fill="none" stroke="#000000" cx="144.7274" cy="-265.7646" rx="3.2" ry="3.2"/>
</g>
<!-- VERSIONS_PARTS -->
<g id="node5" class="node">
<title>VERSIONS_PARTS</title>
<g id="a_node5"><a xlink:href="../../tables/VERSIONS_PARTS.html" xlink:title="VERSIONS_PARTS" target="_top">
<polygon fill="#ffffff" stroke="transparent" points="522,-72.2 522,-199.2 664,-199.2 664,-72.2 522,-72.2"/>
<polygon fill="#f5f5f5" stroke="transparent" points="522,-175.7 522,-198.7 664,-198.7 664,-175.7 522,-175.7"/>
<polygon fill="none" stroke="#000000" points="522,-175.7 522,-198.7 664,-198.7 664,-175.7 522,-175.7"/>
<text text-anchor="start" x="526.6887" y="-184.8" font-family="Helvetica,sans-Serif" font-weight="bold" font-size="11.00" fill="#000000">VERSIONS_PARTS</text>
<text text-anchor="start" x="629.5219" y="-183.8" font-family="Helvetica,sans-Serif" font-size="11.00" fill="#000000">[table]</text>
<polygon fill="none" stroke="#000000" points="522,-153.7 522,-175.7 664,-175.7 664,-153.7 522,-153.7"/>
<image xlink:href="../../images/primaryKeys.png" width="11px" height="12px" preserveAspectRatio="xMinYMin meet" x="527" y="-170.7"/>
<text text-anchor="start" x="544" y="-160.8" font-family="Helvetica,sans-Serif" font-size="11.00" fill="#000000">ID</text>
<polygon fill="none" stroke="#000000" points="522,-131.7 522,-153.7 664,-153.7 664,-131.7 522,-131.7"/>
<image xlink:href="../../images/primaryKeys.png" width="11px" height="12px" preserveAspectRatio="xMinYMin meet" x="527" y="-148.7"/>
<text text-anchor="start" x="544" y="-138.8" font-family="Helvetica,sans-Serif" font-size="11.00" fill="#000000">VERSION_ID</text>
<polygon fill="none" stroke="#000000" points="522,-109.7 522,-131.7 664,-131.7 664,-109.7 522,-109.7"/>
<image xlink:href="../../images/primaryKeys.png" width="11px" height="12px" preserveAspectRatio="xMinYMin meet" x="527" y="-126.7"/>
<text text-anchor="start" x="544" y="-116.8" font-family="Helvetica,sans-Serif" font-size="11.00" fill="#000000">PART_ID</text>
<polygon fill="none" stroke="#000000" points="522,-90.7 522,-109.7 664,-109.7 664,-90.7 522,-90.7"/>
<text text-anchor="start" x="525" y="-96.8" font-family="Helvetica,sans-Serif" font-size="11.00" fill="#000000">...</text>
<polygon fill="#ffffff" stroke="transparent" points="522,-71.7 522,-90.7 568,-90.7 568,-71.7 522,-71.7"/>
<polygon fill="none" stroke="#000000" points="522,-71.7 522,-90.7 568,-90.7 568,-71.7 522,-71.7"/>
<text text-anchor="start" x="525" y="-77.8" font-family="Helvetica,sans-Serif" font-size="11.00" fill="#000000">&lt; 2</text>
<polygon fill="#ffffff" stroke="transparent" points="568,-71.7 568,-90.7 630,-90.7 630,-71.7 568,-71.7"/>
<polygon fill="none" stroke="#000000" points="568,-71.7 568,-90.7 630,-90.7 630,-71.7 568,-71.7"/>
<text text-anchor="start" x="582.3807" y="-77.8" font-family="Helvetica,sans-Serif" font-size="11.00" fill="#000000">449 rows</text>
<polygon fill="#ffffff" stroke="transparent" points="630,-71.7 630,-90.7 664,-90.7 664,-71.7 630,-71.7"/>
<polygon fill="none" stroke="#000000" points="630,-71.7 630,-90.7 664,-90.7 664,-71.7 630,-71.7"/>
<text text-anchor="start" x="645.4053" y="-77.8" font-family="Helvetica,sans-Serif" font-size="11.00" fill="#000000">2 &gt;</text>
</a>
</g>
</g>
<!-- PARTS -->
<g id="node6" class="node">
<title>PARTS</title>
<g id="a_node6"><a xlink:href="../../tables/PARTS.html" xlink:title="PARTS" target="_top">
<polygon fill="#ffffff" stroke="transparent" points="357.5,-38.2 357.5,-99.2 440.5,-99.2 440.5,-38.2 357.5,-38.2"/>
<polygon fill="#f5f5f5" stroke="transparent" points="358,-75.7 358,-98.7 441,-98.7 441,-75.7 358,-75.7"/>
<polygon fill="none" stroke="#000000" points="358,-75.7 358,-98.7 441,-98.7 441,-75.7 358,-75.7"/>
<text text-anchor="start" x="363" y="-84.8" font-family="Helvetica,sans-Serif" font-weight="bold" font-size="11.00" fill="#000000">PARTS</text>
<text text-anchor="start" x="406.0437" y="-83.8" font-family="Helvetica,sans-Serif" font-size="11.00" fill="#000000">[table]</text>
<polygon fill="none" stroke="#000000" points="358,-56.7 358,-75.7 441,-75.7 441,-56.7 358,-56.7"/>
<text text-anchor="start" x="361" y="-62.8" font-family="Helvetica,sans-Serif" font-size="11.00" fill="#000000">...</text>
<polygon fill="#ffffff" stroke="transparent" points="358,-37.7 358,-56.7 370,-56.7 370,-37.7 358,-37.7"/>
<polygon fill="none" stroke="#000000" points="358,-37.7 358,-56.7 370,-56.7 370,-37.7 358,-37.7"/>
<text text-anchor="start" x="360.9431" y="-43.8" font-family="Helvetica,sans-Serif" font-size="11.00" fill="#000000"> &#160;</text>
<polygon fill="#ffffff" stroke="transparent" points="370,-37.7 370,-56.7 420,-56.7 420,-37.7 370,-37.7"/>
<polygon fill="none" stroke="#000000" points="370,-37.7 370,-56.7 420,-56.7 420,-37.7 370,-37.7"/>
<text text-anchor="start" x="372.6904" y="-43.8" font-family="Helvetica,sans-Serif" font-size="11.00" fill="#000000">118 rows</text>
<polygon fill="#ffffff" stroke="transparent" points="420,-37.7 420,-56.7 441,-56.7 441,-37.7 420,-37.7"/>
<polygon fill="none" stroke="#000000" points="420,-37.7 420,-56.7 441,-56.7 441,-37.7 420,-37.7"/>
<text text-anchor="start" x="422.7027" y="-43.8" font-family="Helvetica,sans-Serif" font-size="11.00" fill="#000000">1 &gt;</text>
</a>
</g>
</g>
<!-- VERSIONS_PARTS&#45;&gt;PARTS -->
<g id="edge6" class="edge">
<title>VERSIONS_PARTS:w&#45;&gt;PARTS:e</title>
<path fill="none" stroke="#000000" d="M507.4296,-118.1938C479.2165,-107.4342 478.9054,-65.7 441,-65.7"/>
<polygon fill="#000000" stroke="#000000" points="514.1158,-119.3438 521.3897,-124.2479 518.0579,-120.0219 522,-120.7 522,-120.7 522,-120.7 518.0579,-120.0219 522.6103,-117.1521 514.1158,-119.3438 514.1158,-119.3438"/>
<ellipse fill="none" stroke="#000000" cx="510.9621" cy="-118.8014" rx="3.2" ry="3.2"/>
</g>
<!-- VERSIONS -->
<g id="node7" class="node">
<title>VERSIONS</title>
<g id="a_node7"><a xlink:href="../../tables/VERSIONS.html" xlink:title="VERSIONS" target="_top">
<polygon fill="#ffffff" stroke="transparent" points="349.5,-120.2 349.5,-181.2 448.5,-181.2 448.5,-120.2 349.5,-120.2"/>
<polygon fill="#f5f5f5" stroke="transparent" points="350,-157.7 350,-180.7 449,-180.7 449,-157.7 350,-157.7"/>
<polygon fill="none" stroke="#000000" points="350,-157.7 350,-180.7 449,-180.7 449,-157.7 350,-157.7"/>
<text text-anchor="start" x="354.5804" y="-166.8" font-family="Helvetica,sans-Serif" font-weight="bold" font-size="11.00" fill="#000000">VERSIONS</text>
<text text-anchor="start" x="414.5219" y="-165.8" font-family="Helvetica,sans-Serif" font-size="11.00" fill="#000000">[table]</text>
<polygon fill="none" stroke="#000000" points="350,-138.7 350,-157.7 449,-157.7 449,-138.7 350,-138.7"/>
<text text-anchor="start" x="353" y="-144.8" font-family="Helvetica,sans-Serif" font-size="11.00" fill="#000000">...</text>
<polygon fill="#ffffff" stroke="transparent" points="350,-119.7 350,-138.7 374,-138.7 374,-119.7 350,-119.7"/>
<polygon fill="none" stroke="#000000" points="350,-119.7 350,-138.7 374,-138.7 374,-119.7 350,-119.7"/>
<text text-anchor="start" x="353" y="-125.8" font-family="Helvetica,sans-Serif" font-size="11.00" fill="#000000">&lt; 1</text>
<polygon fill="#ffffff" stroke="transparent" points="374,-119.7 374,-138.7 426,-138.7 426,-119.7 374,-119.7"/>
<polygon fill="none" stroke="#000000" points="374,-119.7 374,-138.7 426,-138.7 426,-119.7 374,-119.7"/>
<text text-anchor="start" x="378.3807" y="-125.8" font-family="Helvetica,sans-Serif" font-size="11.00" fill="#000000">222 rows</text>
<polygon fill="#ffffff" stroke="transparent" points="426,-119.7 426,-138.7 449,-138.7 449,-119.7 426,-119.7"/>
<polygon fill="none" stroke="#000000" points="426,-119.7 426,-138.7 449,-138.7 449,-119.7 426,-119.7"/>
<text text-anchor="start" x="430.4053" y="-125.8" font-family="Helvetica,sans-Serif" font-size="11.00" fill="#000000">4 &gt;</text>
</a>
</g>
</g>
<!-- VERSIONS_PARTS&#45;&gt;VERSIONS -->
<g id="edge7" class="edge">
<title>VERSIONS_PARTS:w&#45;&gt;VERSIONS:e</title>
<path fill="none" stroke="#000000" d="M507.4588,-143.0758C486.1128,-144.2386 476.058,-147.7 449,-147.7"/>
<polygon fill="#000000" stroke="#000000" points="514.0027,-142.9067 522.093,-146.2988 518.0013,-142.8034 522,-142.7 522,-142.7 522,-142.7 518.0013,-142.8034 521.907,-139.1012 514.0027,-142.9067 514.0027,-142.9067"/>
<ellipse fill="none" stroke="#000000" cx="510.8037" cy="-142.9894" rx="3.2" ry="3.2"/>
</g>
<!-- VERSIONS_PARTS_SCREENING_CONDITIONS -->
<g id="node8" class="node">
<title>VERSIONS_PARTS_SCREENING_CONDITIONS</title>
<g id="a_node8"><a xlink:href="../../tables/VERSIONS_PARTS_SCREENING_CONDITIONS.html" xlink:title="VERSIONS_PARTS_SCREENING_CONDITIONS" target="_top">
<polygon fill="#ffffff" stroke="transparent" points="804.5,-135.2 804.5,-196.2 1093.5,-196.2 1093.5,-135.2 804.5,-135.2"/>
<polygon fill="#f5f5f5" stroke="transparent" points="805,-172.7 805,-195.7 1094,-195.7 1094,-172.7 805,-172.7"/>
<polygon fill="none" stroke="#000000" points="805,-172.7 805,-195.7 1094,-195.7 1094,-172.7 805,-172.7"/>
<text text-anchor="start" x="809.8578" y="-181.8" font-family="Helvetica,sans-Serif" font-weight="bold" font-size="11.00" fill="#000000">VERSIONS_PARTS_SCREENING_CONDITIONS</text>
<text text-anchor="start" x="1059.5219" y="-180.8" font-family="Helvetica,sans-Serif" font-size="11.00" fill="#000000">[table]</text>
<polygon fill="none" stroke="#000000" points="805,-153.7 805,-172.7 1094,-172.7 1094,-153.7 805,-153.7"/>
<text text-anchor="start" x="808" y="-159.8" font-family="Helvetica,sans-Serif" font-size="11.00" fill="#000000">...</text>
<polygon fill="#ffffff" stroke="transparent" points="805,-134.7 805,-153.7 929,-153.7 929,-134.7 805,-134.7"/>
<polygon fill="none" stroke="#000000" points="805,-134.7 805,-153.7 929,-153.7 929,-134.7 805,-134.7"/>
<text text-anchor="start" x="808" y="-140.8" font-family="Helvetica,sans-Serif" font-size="11.00" fill="#000000">&lt; 2</text>
<polygon fill="#ffffff" stroke="transparent" points="929,-134.7 929,-153.7 1030,-153.7 1030,-134.7 929,-134.7"/>
<polygon fill="none" stroke="#000000" points="929,-134.7 929,-153.7 1030,-153.7 1030,-134.7 929,-134.7"/>
<text text-anchor="start" x="982.3807" y="-140.8" font-family="Helvetica,sans-Serif" font-size="11.00" fill="#000000">415 rows</text>
<polygon fill="#ffffff" stroke="transparent" points="1030,-134.7 1030,-153.7 1094,-153.7 1094,-134.7 1030,-134.7"/>
<polygon fill="none" stroke="#000000" points="1030,-134.7 1030,-153.7 1094,-153.7 1094,-134.7 1030,-134.7"/>
<text text-anchor="start" x="1084.8862" y="-140.8" font-family="Helvetica,sans-Serif" font-size="11.00" fill="#000000"> &#160;</text>
</a>
</g>
</g>
<!-- VERSIONS_PARTS_SCREENING_CONDITIONS&#45;&gt;VERSIONS_PARTS -->
<g id="edge8" class="edge">
<title>VERSIONS_PARTS_SCREENING_CONDITIONS:w&#45;&gt;VERSIONS_PARTS:e</title>
<path fill="none" stroke="#000000" d="M790.4739,-162.7382C739.4424,-163.0147 721.5318,-164.7 664,-164.7"/>
<polygon fill="#000000" stroke="#000000" points="797,-162.7211 805.0095,-166.3 801,-162.7105 805,-162.7 805,-162.7 805,-162.7 801,-162.7105 804.9905,-159.1 797,-162.7211 797,-162.7211"/>
<ellipse fill="none" stroke="#000000" cx="793.8" cy="-162.7295" rx="3.2" ry="3.2"/>
</g>
<!-- VERSIONS_PARTS_SCREENING_PLANS -->
<g id="node9" class="node">
<title>VERSIONS_PARTS_SCREENING_PLANS</title>
<g id="a_node9"><a xlink:href="../../tables/VERSIONS_PARTS_SCREENING_PLANS.html" xlink:title="VERSIONS_PARTS_SCREENING_PLANS" target="_top">
<polygon fill="#ffffff" stroke="transparent" points="725,-217.7 725,-417.7 1173,-417.7 1173,-217.7 725,-217.7"/>
<polygon fill="#f5f5f5" stroke="transparent" points="727,-392.7 727,-415.7 1171,-415.7 1171,-392.7 727,-392.7"/>
<polygon fill="none" stroke="#000000" points="727,-392.7 727,-415.7 1171,-415.7 1171,-392.7 727,-392.7"/>
<text text-anchor="start" x="732" y="-401.8" font-family="Helvetica,sans-Serif" font-weight="bold" font-size="11.00" fill="#000000">VERSIONS_PARTS_SCREENING_PLANS</text>
<text text-anchor="start" x="1136.0437" y="-400.8" font-family="Helvetica,sans-Serif" font-size="11.00" fill="#000000">[table]</text>
<polygon fill="none" stroke="#000000" points="727,-370.7 727,-392.7 1000,-392.7 1000,-370.7 727,-370.7"/>
<image xlink:href="../../images/primaryKeys.png" width="11px" height="12px" preserveAspectRatio="xMinYMin meet" x="732" y="-387.7"/>
<text text-anchor="start" x="747" y="-377.8" font-family="Helvetica,sans-Serif" font-size="11.00" fill="#000000">ID</text>
<polygon fill="none" stroke="#000000" points="1000,-370.7 1000,-392.7 1171,-392.7 1171,-370.7 1000,-370.7"/>
<text text-anchor="start" x="1003" y="-378.4" font-family="Helvetica,sans-Serif" font-size="11.00" fill="#000000">number[19]</text>
<polygon fill="none" stroke="#000000" points="727,-348.7 727,-370.7 1000,-370.7 1000,-348.7 727,-348.7"/>
<image xlink:href="../../images/primaryKeys.png" width="11px" height="12px" preserveAspectRatio="xMinYMin meet" x="732" y="-365.7"/>
<text text-anchor="start" x="747" y="-355.8" font-family="Helvetica,sans-Serif" font-size="11.00" fill="#000000">VERSION_PART_ID</text>
<polygon fill="none" stroke="#000000" points="1000,-348.7 1000,-370.7 1171,-370.7 1171,-348.7 1000,-348.7"/>
<text text-anchor="start" x="1003" y="-356.4" font-family="Helvetica,sans-Serif" font-size="11.00" fill="#000000">number[19]</text>
<polygon fill="none" stroke="#000000" points="727,-326.7 727,-348.7 1000,-348.7 1000,-326.7 727,-326.7"/>
<image xlink:href="../../images/primaryKeys.png" width="11px" height="12px" preserveAspectRatio="xMinYMin meet" x="732" y="-343.7"/>
<text text-anchor="start" x="747" y="-333.8" font-family="Helvetica,sans-Serif" font-size="11.00" fill="#000000">SCREENING_PLAN_ID</text>
<polygon fill="none" stroke="#000000" points="1000,-326.7 1000,-348.7 1171,-348.7 1171,-326.7 1000,-326.7"/>
<text text-anchor="start" x="1003" y="-334.4" font-family="Helvetica,sans-Serif" font-size="11.00" fill="#000000">number[19]</text>
<polygon fill="none" stroke="#000000" points="727,-304.7 727,-326.7 1000,-326.7 1000,-304.7 727,-304.7"/>
<text text-anchor="start" x="747" y="-311.8" font-family="Helvetica,sans-Serif" font-size="11.00" fill="#000000">CREATED_AT</text>
<polygon fill="none" stroke="#000000" points="1000,-304.7 1000,-326.7 1171,-326.7 1171,-304.7 1000,-304.7"/>
<text text-anchor="start" x="1002.9896" y="-312.4" font-family="Helvetica,sans-Serif" font-size="11.00" fill="#000000">timestamp(6) with time zone[13,6]</text>
<polygon fill="none" stroke="#000000" points="727,-282.7 727,-304.7 1000,-304.7 1000,-282.7 727,-282.7"/>
<text text-anchor="start" x="747" y="-289.8" font-family="Helvetica,sans-Serif" font-size="11.00" fill="#000000">CREATED_BY</text>
<polygon fill="none" stroke="#000000" points="1000,-282.7 1000,-304.7 1171,-304.7 1171,-282.7 1000,-282.7"/>
<text text-anchor="start" x="1003" y="-290.4" font-family="Helvetica,sans-Serif" font-size="11.00" fill="#000000">number[19]</text>
<polygon fill="none" stroke="#000000" points="727,-260.7 727,-282.7 1000,-282.7 1000,-260.7 727,-260.7"/>
<text text-anchor="start" x="747" y="-267.8" font-family="Helvetica,sans-Serif" font-size="11.00" fill="#000000">UPDATED_AT</text>
<polygon fill="none" stroke="#000000" points="1000,-260.7 1000,-282.7 1171,-282.7 1171,-260.7 1000,-260.7"/>
<text text-anchor="start" x="1002.9896" y="-268.4" font-family="Helvetica,sans-Serif" font-size="11.00" fill="#000000">timestamp(6) with time zone[13,6]</text>
<polygon fill="none" stroke="#000000" points="727,-238.7 727,-260.7 1000,-260.7 1000,-238.7 727,-238.7"/>
<text text-anchor="start" x="747" y="-245.8" font-family="Helvetica,sans-Serif" font-size="11.00" fill="#000000">UPDATED_BY</text>
<polygon fill="none" stroke="#000000" points="1000,-238.7 1000,-260.7 1171,-260.7 1171,-238.7 1000,-238.7"/>
<text text-anchor="start" x="1003" y="-246.4" font-family="Helvetica,sans-Serif" font-size="11.00" fill="#000000">number[19]</text>
<polygon fill="#ffffff" stroke="transparent" points="727,-219.7 727,-238.7 849,-238.7 849,-219.7 727,-219.7"/>
<polygon fill="none" stroke="#000000" points="727,-219.7 727,-238.7 849,-238.7 849,-219.7 727,-219.7"/>
<text text-anchor="start" x="730" y="-225.8" font-family="Helvetica,sans-Serif" font-size="11.00" fill="#000000">&lt; 2</text>
<polygon fill="#ffffff" stroke="transparent" points="849,-219.7 849,-238.7 1000,-238.7 1000,-219.7 849,-219.7"/>
<polygon fill="none" stroke="#000000" points="849,-219.7 849,-238.7 1000,-238.7 1000,-219.7 849,-219.7"/>
<text text-anchor="start" x="952.3807" y="-225.8" font-family="Helvetica,sans-Serif" font-size="11.00" fill="#000000">376 rows</text>
<polygon fill="#ffffff" stroke="transparent" points="1000,-219.7 1000,-238.7 1171,-238.7 1171,-219.7 1000,-219.7"/>
<polygon fill="none" stroke="#000000" points="1000,-219.7 1000,-238.7 1171,-238.7 1171,-219.7 1000,-219.7"/>
<text text-anchor="start" x="1152.4053" y="-225.8" font-family="Helvetica,sans-Serif" font-size="11.00" fill="#000000">0 &gt;</text>
<polygon fill="none" stroke="#000000" stroke-width="2" points="726,-218.7 726,-416.7 1172,-416.7 1172,-218.7 726,-218.7"/>
</a>
</g>
</g>
<!-- VERSIONS_PARTS_SCREENING_PLANS&#45;&gt;SCREENING_PLANS -->
<g id="edge9" class="edge">
<title>VERSIONS_PARTS_SCREENING_PLANS:w&#45;&gt;SCREENING_PLANS:e</title>
<path fill="none" stroke="#000000" d="M712.276,-337.7C700.2815,-337.7 692.8229,-337.7 676,-337.7"/>
<polygon fill="#000000" stroke="#000000" points="719,-337.7001 727,-341.3 723,-337.7 727,-337.7 727,-337.7 727,-337.7 723,-337.7 727,-334.1 719,-337.7001 719,-337.7001"/>
<ellipse fill="none" stroke="#000000" cx="715.8" cy="-337.7001" rx="3.2" ry="3.2"/>
</g>
<!-- VERSIONS_PARTS_SCREENING_PLANS&#45;&gt;VERSIONS_PARTS -->
<g id="edge10" class="edge">
<title>VERSIONS_PARTS_SCREENING_PLANS:w&#45;&gt;VERSIONS_PARTS:e</title>
<path fill="none" stroke="#000000" d="M712.6754,-357.642C649.5807,-336.8016 749.563,-164.7 664,-164.7"/>
<polygon fill="#000000" stroke="#000000" points="719.0813,-358.5623 726.488,-363.2634 723.0407,-359.1311 727,-359.7 727,-359.7 727,-359.7 723.0407,-359.1311 727.512,-356.1366 719.0813,-358.5623 719.0813,-358.5623"/>
<ellipse fill="none" stroke="#000000" cx="715.9138" cy="-358.1072" rx="3.2" ry="3.2"/>
</g>
</g>
</svg>
