<?xml version="1.0" encoding="UTF-8" standalone="no"?>
<!DOCTYPE svg PUBLIC "-//W3C//DTD SVG 1.1//EN"
 "http://www.w3.org/Graphics/SVG/1.1/DTD/svg11.dtd">
<!-- Generated by graphviz version 2.40.1 (20161225.0304)
 -->
<!-- Title: DATABASECHANGELOGLOCK Pages: 1 -->
<svg width="337pt" height="150pt"
 viewBox="0.00 0.00 337.00 150.00" xmlns="http://www.w3.org/2000/svg" xmlns:xlink="http://www.w3.org/1999/xlink">
<g id="graph0" class="graph" transform="scale(1 1) rotate(0) translate(4 146)">
<title>DATABASECHANGELOGLOCK</title>
<polygon fill="#ffffff" stroke="transparent" points="-4,4 -4,-146 333,-146 333,4 -4,4"/>
<!-- DATABASECHANGELOGLOCK -->
<g id="node1" class="node">
<title>DATABASECHANGELOGLOCK</title>
<g id="a_node1"><a xlink:href="../../tables/DATABASECHANGELOGLOCK.html" xlink:title="DATABASECHANGELOGLOCK" target="_top">
<polygon fill="#ffffff" stroke="transparent" points="8,-4 8,-138 321,-138 321,-4 8,-4"/>
<polygon fill="#f5f5f5" stroke="transparent" points="10.5,-113 10.5,-136 319.5,-136 319.5,-113 10.5,-113"/>
<polygon fill="none" stroke="#000000" points="10.5,-113 10.5,-136 319.5,-136 319.5,-113 10.5,-113"/>
<text text-anchor="start" x="15.5" y="-122.1" font-family="Helvetica,sans-Serif" font-weight="bold" font-size="11.00" fill="#000000">DATABASECHANGELOGLOCK</text>
<text text-anchor="start" x="284.5437" y="-121.1" font-family="Helvetica,sans-Serif" font-size="11.00" fill="#000000">[table]</text>
<polygon fill="none" stroke="#000000" points="10.5,-91 10.5,-113 222.5,-113 222.5,-91 10.5,-91"/>
<image xlink:href="../../images/primaryKeys.png" width="11px" height="12px" preserveAspectRatio="xMinYMin meet" x="15.5" y="-108"/>
<text text-anchor="start" x="30.5" y="-98.1" font-family="Helvetica,sans-Serif" font-size="11.00" fill="#000000">ID</text>
<polygon fill="none" stroke="#000000" points="222.5,-91 222.5,-113 319.5,-113 319.5,-91 222.5,-91"/>
<text text-anchor="start" x="225.5" y="-98.7" font-family="Helvetica,sans-Serif" font-size="11.00" fill="#000000">number[38]</text>
<polygon fill="none" stroke="#000000" points="10.5,-69 10.5,-91 222.5,-91 222.5,-69 10.5,-69"/>
<text text-anchor="start" x="30.5" y="-76.1" font-family="Helvetica,sans-Serif" font-size="11.00" fill="#000000">LOCKED</text>
<polygon fill="none" stroke="#000000" points="222.5,-69 222.5,-91 319.5,-91 319.5,-69 222.5,-69"/>
<text text-anchor="start" x="225.5" y="-76.7" font-family="Helvetica,sans-Serif" font-size="11.00" fill="#000000">number[1]</text>
<polygon fill="none" stroke="#000000" points="10.5,-47 10.5,-69 222.5,-69 222.5,-47 10.5,-47"/>
<text text-anchor="start" x="30.5" y="-54.1" font-family="Helvetica,sans-Serif" font-size="11.00" fill="#000000">LOCKGRANTED</text>
<polygon fill="none" stroke="#000000" points="222.5,-47 222.5,-69 319.5,-69 319.5,-47 222.5,-47"/>
<text text-anchor="start" x="225.1614" y="-54.7" font-family="Helvetica,sans-Serif" font-size="11.00" fill="#000000">timestamp(6)[11,6]</text>
<polygon fill="none" stroke="#000000" points="10.5,-25 10.5,-47 222.5,-47 222.5,-25 10.5,-25"/>
<text text-anchor="start" x="30.5" y="-32.1" font-family="Helvetica,sans-Serif" font-size="11.00" fill="#000000">LOCKEDBY</text>
<polygon fill="none" stroke="#000000" points="222.5,-25 222.5,-47 319.5,-47 319.5,-25 222.5,-25"/>
<text text-anchor="start" x="225.5" y="-32.7" font-family="Helvetica,sans-Serif" font-size="11.00" fill="#000000">varchar2[255]</text>
<polygon fill="#ffffff" stroke="transparent" points="10.5,-6 10.5,-25 110.5,-25 110.5,-6 10.5,-6"/>
<polygon fill="none" stroke="#000000" points="10.5,-6 10.5,-25 110.5,-25 110.5,-6 10.5,-6"/>
<text text-anchor="start" x="13.5" y="-12.1" font-family="Helvetica,sans-Serif" font-size="11.00" fill="#000000">&lt; 0</text>
<polygon fill="#ffffff" stroke="transparent" points="110.5,-6 110.5,-25 222.5,-25 222.5,-6 110.5,-6"/>
<polygon fill="none" stroke="#000000" points="110.5,-6 110.5,-25 222.5,-25 222.5,-6 110.5,-6"/>
<text text-anchor="start" x="192.6105" y="-12.1" font-family="Helvetica,sans-Serif" font-size="11.00" fill="#000000">1 row</text>
<polygon fill="#ffffff" stroke="transparent" points="222.5,-6 222.5,-25 319.5,-25 319.5,-6 222.5,-6"/>
<polygon fill="none" stroke="#000000" points="222.5,-6 222.5,-25 319.5,-25 319.5,-6 222.5,-6"/>
<text text-anchor="start" x="300.9053" y="-12.1" font-family="Helvetica,sans-Serif" font-size="11.00" fill="#000000">0 &gt;</text>
<polygon fill="none" stroke="#000000" stroke-width="2" points="9,-5 9,-137 320,-137 320,-5 9,-5"/>
</a>
</g>
</g>
</g>
</svg>
