<?xml version="1.0" encoding="UTF-8" standalone="no"?>
<!DOCTYPE svg PUBLIC "-//W3C//DTD SVG 1.1//EN"
 "http://www.w3.org/Graphics/SVG/1.1/DTD/svg11.dtd">
<!-- Generated by graphviz version 2.40.1 (20161225.0304)
 -->
<!-- Title: COLORS Pages: 1 -->
<svg width="186pt" height="128pt"
 viewBox="0.00 0.00 186.00 128.00" xmlns="http://www.w3.org/2000/svg" xmlns:xlink="http://www.w3.org/1999/xlink">
<g id="graph0" class="graph" transform="scale(1 1) rotate(0) translate(4 124)">
<title>COLORS</title>
<polygon fill="#ffffff" stroke="transparent" points="-4,4 -4,-124 182,-124 182,4 -4,4"/>
<!-- COLORS -->
<g id="node1" class="node">
<title>COLORS</title>
<g id="a_node1"><a xlink:href="../../tables/COLORS.html" xlink:title="COLORS" target="_top">
<polygon fill="#ffffff" stroke="transparent" points="8,-4 8,-116 170,-116 170,-4 8,-4"/>
<polygon fill="#f5f5f5" stroke="transparent" points="10,-91 10,-114 168,-114 168,-91 10,-91"/>
<polygon fill="none" stroke="#000000" points="10,-91 10,-114 168,-114 168,-91 10,-91"/>
<text text-anchor="start" x="15" y="-100.1" font-family="Helvetica,sans-Serif" font-weight="bold" font-size="11.00" fill="#000000">COLORS</text>
<text text-anchor="start" x="133.0437" y="-99.1" font-family="Helvetica,sans-Serif" font-size="11.00" fill="#000000">[table]</text>
<polygon fill="none" stroke="#000000" points="10,-69 10,-91 101,-91 101,-69 10,-69"/>
<image xlink:href="../../images/primaryKeys.png" width="11px" height="12px" preserveAspectRatio="xMinYMin meet" x="15" y="-86"/>
<text text-anchor="start" x="30" y="-76.1" font-family="Helvetica,sans-Serif" font-size="11.00" fill="#000000">ID</text>
<polygon fill="none" stroke="#000000" points="101,-69 101,-91 168,-91 168,-69 101,-69"/>
<text text-anchor="start" x="104" y="-76.7" font-family="Helvetica,sans-Serif" font-size="11.00" fill="#000000">number[19]</text>
<polygon fill="none" stroke="#000000" points="10,-47 10,-69 101,-69 101,-47 10,-47"/>
<text text-anchor="start" x="30" y="-54.1" font-family="Helvetica,sans-Serif" font-size="11.00" fill="#000000">VALUE</text>
<polygon fill="none" stroke="#000000" points="101,-47 101,-69 168,-69 168,-47 101,-47"/>
<text text-anchor="start" x="103.9365" y="-54.7" font-family="Helvetica,sans-Serif" font-size="11.00" fill="#000000">varchar2[30]</text>
<polygon fill="none" stroke="#000000" points="10,-25 10,-47 101,-47 101,-25 10,-25"/>
<text text-anchor="start" x="30" y="-32.1" font-family="Helvetica,sans-Serif" font-size="11.00" fill="#000000">IS_BRIGHT</text>
<polygon fill="none" stroke="#000000" points="101,-25 101,-47 168,-47 168,-25 101,-25"/>
<text text-anchor="start" x="104" y="-32.7" font-family="Helvetica,sans-Serif" font-size="11.00" fill="#000000">number[1]</text>
<polygon fill="#ffffff" stroke="transparent" points="10,-6 10,-25 44,-25 44,-6 10,-6"/>
<polygon fill="none" stroke="#000000" points="10,-6 10,-25 44,-25 44,-6 10,-6"/>
<text text-anchor="start" x="13" y="-12.1" font-family="Helvetica,sans-Serif" font-size="11.00" fill="#000000">&lt; 0</text>
<polygon fill="#ffffff" stroke="transparent" points="44,-6 44,-25 101,-25 101,-6 44,-6"/>
<polygon fill="none" stroke="#000000" points="44,-6 44,-25 101,-25 101,-6 44,-6"/>
<text text-anchor="start" x="59.4956" y="-12.1" font-family="Helvetica,sans-Serif" font-size="11.00" fill="#000000">20 rows</text>
<polygon fill="#ffffff" stroke="transparent" points="101,-6 101,-25 168,-25 168,-6 101,-6"/>
<polygon fill="none" stroke="#000000" points="101,-6 101,-25 168,-25 168,-6 101,-6"/>
<text text-anchor="start" x="149.4053" y="-12.1" font-family="Helvetica,sans-Serif" font-size="11.00" fill="#000000">0 &gt;</text>
<polygon fill="none" stroke="#000000" stroke-width="2" points="9,-5 9,-115 169,-115 169,-5 9,-5"/>
</a>
</g>
</g>
</g>
</svg>
