<?xml version="1.0" encoding="UTF-8" standalone="no"?>
<!DOCTYPE svg PUBLIC "-//W3C//DTD SVG 1.1//EN"
 "http://www.w3.org/Graphics/SVG/1.1/DTD/svg11.dtd">
<!-- Generated by graphviz version 2.40.1 (20161225.0304)
 -->
<!-- Title: DATABASECHANGELOG Pages: 1 -->
<svg width="301pt" height="370pt"
 viewBox="0.00 0.00 301.00 370.00" xmlns="http://www.w3.org/2000/svg" xmlns:xlink="http://www.w3.org/1999/xlink">
<g id="graph0" class="graph" transform="scale(1 1) rotate(0) translate(4 366)">
<title>DATABASECHANGELOG</title>
<polygon fill="#ffffff" stroke="transparent" points="-4,4 -4,-366 297,-366 297,4 -4,4"/>
<!-- DATABASECHANGELOG -->
<g id="node1" class="node">
<title>DATABASECHANGELOG</title>
<g id="a_node1"><a xlink:href="../../tables/DATABASECHANGELOG.html" xlink:title="DATABASECHANGELOG" target="_top">
<polygon fill="#ffffff" stroke="transparent" points="8,-4 8,-358 285,-358 285,-4 8,-4"/>
<polygon fill="#f5f5f5" stroke="transparent" points="10.5,-333 10.5,-356 283.5,-356 283.5,-333 10.5,-333"/>
<polygon fill="none" stroke="#000000" points="10.5,-333 10.5,-356 283.5,-356 283.5,-333 10.5,-333"/>
<text text-anchor="start" x="15.5" y="-342.1" font-family="Helvetica,sans-Serif" font-weight="bold" font-size="11.00" fill="#000000">DATABASECHANGELOG</text>
<text text-anchor="start" x="248.5437" y="-341.1" font-family="Helvetica,sans-Serif" font-size="11.00" fill="#000000">[table]</text>
<polygon fill="none" stroke="#000000" points="10.5,-311 10.5,-333 186.5,-333 186.5,-311 10.5,-311"/>
<text text-anchor="start" x="30.5" y="-318.1" font-family="Helvetica,sans-Serif" font-size="11.00" fill="#000000">ID</text>
<polygon fill="none" stroke="#000000" points="186.5,-311 186.5,-333 283.5,-333 283.5,-311 186.5,-311"/>
<text text-anchor="start" x="189.5" y="-318.7" font-family="Helvetica,sans-Serif" font-size="11.00" fill="#000000">varchar2[255]</text>
<polygon fill="none" stroke="#000000" points="10.5,-289 10.5,-311 186.5,-311 186.5,-289 10.5,-289"/>
<text text-anchor="start" x="30.5" y="-296.1" font-family="Helvetica,sans-Serif" font-size="11.00" fill="#000000">AUTHOR</text>
<polygon fill="none" stroke="#000000" points="186.5,-289 186.5,-311 283.5,-311 283.5,-289 186.5,-289"/>
<text text-anchor="start" x="189.5" y="-296.7" font-family="Helvetica,sans-Serif" font-size="11.00" fill="#000000">varchar2[255]</text>
<polygon fill="none" stroke="#000000" points="10.5,-267 10.5,-289 186.5,-289 186.5,-267 10.5,-267"/>
<text text-anchor="start" x="30.5" y="-274.1" font-family="Helvetica,sans-Serif" font-size="11.00" fill="#000000">FILENAME</text>
<polygon fill="none" stroke="#000000" points="186.5,-267 186.5,-289 283.5,-289 283.5,-267 186.5,-267"/>
<text text-anchor="start" x="189.5" y="-274.7" font-family="Helvetica,sans-Serif" font-size="11.00" fill="#000000">varchar2[255]</text>
<polygon fill="none" stroke="#000000" points="10.5,-245 10.5,-267 186.5,-267 186.5,-245 10.5,-245"/>
<text text-anchor="start" x="30.5" y="-252.1" font-family="Helvetica,sans-Serif" font-size="11.00" fill="#000000">DATEEXECUTED</text>
<polygon fill="none" stroke="#000000" points="186.5,-245 186.5,-267 283.5,-267 283.5,-245 186.5,-245"/>
<text text-anchor="start" x="189.1614" y="-252.7" font-family="Helvetica,sans-Serif" font-size="11.00" fill="#000000">timestamp(6)[11,6]</text>
<polygon fill="none" stroke="#000000" points="10.5,-223 10.5,-245 186.5,-245 186.5,-223 10.5,-223"/>
<text text-anchor="start" x="30.5" y="-230.1" font-family="Helvetica,sans-Serif" font-size="11.00" fill="#000000">ORDEREXECUTED</text>
<polygon fill="none" stroke="#000000" points="186.5,-223 186.5,-245 283.5,-245 283.5,-223 186.5,-223"/>
<text text-anchor="start" x="189.5" y="-230.7" font-family="Helvetica,sans-Serif" font-size="11.00" fill="#000000">number[38]</text>
<polygon fill="none" stroke="#000000" points="10.5,-201 10.5,-223 186.5,-223 186.5,-201 10.5,-201"/>
<text text-anchor="start" x="30.5" y="-208.1" font-family="Helvetica,sans-Serif" font-size="11.00" fill="#000000">EXECTYPE</text>
<polygon fill="none" stroke="#000000" points="186.5,-201 186.5,-223 283.5,-223 283.5,-201 186.5,-201"/>
<text text-anchor="start" x="189.5" y="-208.7" font-family="Helvetica,sans-Serif" font-size="11.00" fill="#000000">varchar2[10]</text>
<polygon fill="none" stroke="#000000" points="10.5,-179 10.5,-201 186.5,-201 186.5,-179 10.5,-179"/>
<text text-anchor="start" x="30.5" y="-186.1" font-family="Helvetica,sans-Serif" font-size="11.00" fill="#000000">MD5SUM</text>
<polygon fill="none" stroke="#000000" points="186.5,-179 186.5,-201 283.5,-201 283.5,-179 186.5,-179"/>
<text text-anchor="start" x="189.5" y="-186.7" font-family="Helvetica,sans-Serif" font-size="11.00" fill="#000000">varchar2[35]</text>
<polygon fill="none" stroke="#000000" points="10.5,-157 10.5,-179 186.5,-179 186.5,-157 10.5,-157"/>
<text text-anchor="start" x="30.5" y="-164.1" font-family="Helvetica,sans-Serif" font-size="11.00" fill="#000000">DESCRIPTION</text>
<polygon fill="none" stroke="#000000" points="186.5,-157 186.5,-179 283.5,-179 283.5,-157 186.5,-157"/>
<text text-anchor="start" x="189.5" y="-164.7" font-family="Helvetica,sans-Serif" font-size="11.00" fill="#000000">varchar2[255]</text>
<polygon fill="none" stroke="#000000" points="10.5,-135 10.5,-157 186.5,-157 186.5,-135 10.5,-135"/>
<text text-anchor="start" x="30.5" y="-142.1" font-family="Helvetica,sans-Serif" font-size="11.00" fill="#000000">COMMENTS</text>
<polygon fill="none" stroke="#000000" points="186.5,-135 186.5,-157 283.5,-157 283.5,-135 186.5,-135"/>
<text text-anchor="start" x="189.5" y="-142.7" font-family="Helvetica,sans-Serif" font-size="11.00" fill="#000000">varchar2[255]</text>
<polygon fill="none" stroke="#000000" points="10.5,-113 10.5,-135 186.5,-135 186.5,-113 10.5,-113"/>
<text text-anchor="start" x="30.5" y="-120.1" font-family="Helvetica,sans-Serif" font-size="11.00" fill="#000000">TAG</text>
<polygon fill="none" stroke="#000000" points="186.5,-113 186.5,-135 283.5,-135 283.5,-113 186.5,-113"/>
<text text-anchor="start" x="189.5" y="-120.7" font-family="Helvetica,sans-Serif" font-size="11.00" fill="#000000">varchar2[255]</text>
<polygon fill="none" stroke="#000000" points="10.5,-91 10.5,-113 186.5,-113 186.5,-91 10.5,-91"/>
<text text-anchor="start" x="30.5" y="-98.1" font-family="Helvetica,sans-Serif" font-size="11.00" fill="#000000">LIQUIBASE</text>
<polygon fill="none" stroke="#000000" points="186.5,-91 186.5,-113 283.5,-113 283.5,-91 186.5,-91"/>
<text text-anchor="start" x="189.5" y="-98.7" font-family="Helvetica,sans-Serif" font-size="11.00" fill="#000000">varchar2[20]</text>
<polygon fill="none" stroke="#000000" points="10.5,-69 10.5,-91 186.5,-91 186.5,-69 10.5,-69"/>
<text text-anchor="start" x="30.5" y="-76.1" font-family="Helvetica,sans-Serif" font-size="11.00" fill="#000000">CONTEXTS</text>
<polygon fill="none" stroke="#000000" points="186.5,-69 186.5,-91 283.5,-91 283.5,-69 186.5,-69"/>
<text text-anchor="start" x="189.5" y="-76.7" font-family="Helvetica,sans-Serif" font-size="11.00" fill="#000000">varchar2[255]</text>
<polygon fill="none" stroke="#000000" points="10.5,-47 10.5,-69 186.5,-69 186.5,-47 10.5,-47"/>
<text text-anchor="start" x="30.5" y="-54.1" font-family="Helvetica,sans-Serif" font-size="11.00" fill="#000000">LABELS</text>
<polygon fill="none" stroke="#000000" points="186.5,-47 186.5,-69 283.5,-69 283.5,-47 186.5,-47"/>
<text text-anchor="start" x="189.5" y="-54.7" font-family="Helvetica,sans-Serif" font-size="11.00" fill="#000000">varchar2[255]</text>
<polygon fill="none" stroke="#000000" points="10.5,-25 10.5,-47 186.5,-47 186.5,-25 10.5,-25"/>
<text text-anchor="start" x="30.5" y="-32.1" font-family="Helvetica,sans-Serif" font-size="11.00" fill="#000000">DEPLOYMENT_ID</text>
<polygon fill="none" stroke="#000000" points="186.5,-25 186.5,-47 283.5,-47 283.5,-25 186.5,-25"/>
<text text-anchor="start" x="189.5" y="-32.7" font-family="Helvetica,sans-Serif" font-size="11.00" fill="#000000">varchar2[10]</text>
<polygon fill="#ffffff" stroke="transparent" points="10.5,-6 10.5,-25 83.5,-25 83.5,-6 10.5,-6"/>
<polygon fill="none" stroke="#000000" points="10.5,-6 10.5,-25 83.5,-25 83.5,-6 10.5,-6"/>
<text text-anchor="start" x="13.5" y="-12.1" font-family="Helvetica,sans-Serif" font-size="11.00" fill="#000000">&lt; 0</text>
<polygon fill="#ffffff" stroke="transparent" points="83.5,-6 83.5,-25 186.5,-25 186.5,-6 83.5,-6"/>
<polygon fill="none" stroke="#000000" points="83.5,-6 83.5,-25 186.5,-25 186.5,-6 83.5,-6"/>
<text text-anchor="start" x="138.8807" y="-12.1" font-family="Helvetica,sans-Serif" font-size="11.00" fill="#000000">298 rows</text>
<polygon fill="#ffffff" stroke="transparent" points="186.5,-6 186.5,-25 283.5,-25 283.5,-6 186.5,-6"/>
<polygon fill="none" stroke="#000000" points="186.5,-6 186.5,-25 283.5,-25 283.5,-6 186.5,-6"/>
<text text-anchor="start" x="264.9053" y="-12.1" font-family="Helvetica,sans-Serif" font-size="11.00" fill="#000000">0 &gt;</text>
<polygon fill="none" stroke="#000000" stroke-width="2" points="9,-5 9,-357 284,-357 284,-5 9,-5"/>
</a>
</g>
</g>
</g>
</svg>
