<?xml version="1.0" encoding="UTF-8" standalone="no"?>
<!DOCTYPE svg PUBLIC "-//W3C//DTD SVG 1.1//EN"
 "http://www.w3.org/Graphics/SVG/1.1/DTD/svg11.dtd">
<!-- Generated by graphviz version 2.40.1 (20161225.0304)
 -->
<!-- Title: twoDegreesRelationshipsDiagram Pages: 1 -->
<svg width="817pt" height="330pt"
 viewBox="0.00 0.00 817.00 329.70" xmlns="http://www.w3.org/2000/svg" xmlns:xlink="http://www.w3.org/1999/xlink">
<g id="graph0" class="graph" transform="scale(1 1) rotate(0) translate(4 325.7)">
<title>twoDegreesRelationshipsDiagram</title>
<polygon fill="#ffffff" stroke="transparent" points="-4,4 -4,-325.7 813,-325.7 813,4 -4,4"/>
<text text-anchor="middle" x="72.4936" y="-7.3" font-family="Helvetica,sans-Serif" font-size="11.00" fill="#000000">Generated by SchemaSpy</text>
<!-- ACTIVITIES -->
<g id="node1" class="node">
<title>ACTIVITIES</title>
<g id="a_node1"><a xlink:href="../../tables/ACTIVITIES.html" xlink:title="ACTIVITIES" target="_top">
<polygon fill="#ffffff" stroke="transparent" points="641,-256.7 641,-317.7 743,-317.7 743,-256.7 641,-256.7"/>
<polygon fill="#f5f5f5" stroke="transparent" points="641,-294.2 641,-317.2 743,-317.2 743,-294.2 641,-294.2"/>
<polygon fill="none" stroke="#000000" points="641,-294.2 641,-317.2 743,-317.2 743,-294.2 641,-294.2"/>
<text text-anchor="start" x="645.5525" y="-303.3" font-family="Helvetica,sans-Serif" font-weight="bold" font-size="11.00" fill="#000000">ACTIVITIES</text>
<text text-anchor="start" x="708.5219" y="-302.3" font-family="Helvetica,sans-Serif" font-size="11.00" fill="#000000">[table]</text>
<polygon fill="none" stroke="#000000" points="641,-275.2 641,-294.2 743,-294.2 743,-275.2 641,-275.2"/>
<text text-anchor="start" x="644" y="-281.3" font-family="Helvetica,sans-Serif" font-size="11.00" fill="#000000">...</text>
<polygon fill="#ffffff" stroke="transparent" points="641,-256.2 641,-275.2 667,-275.2 667,-256.2 641,-256.2"/>
<polygon fill="none" stroke="#000000" points="641,-256.2 641,-275.2 667,-275.2 667,-256.2 641,-256.2"/>
<text text-anchor="start" x="644" y="-262.3" font-family="Helvetica,sans-Serif" font-size="11.00" fill="#000000">&lt; 1</text>
<polygon fill="#ffffff" stroke="transparent" points="667,-256.2 667,-275.2 728,-275.2 728,-256.2 667,-256.2"/>
<polygon fill="none" stroke="#000000" points="667,-256.2 667,-275.2 728,-275.2 728,-256.2 667,-256.2"/>
<text text-anchor="start" x="671.2089" y="-262.3" font-family="Helvetica,sans-Serif" font-size="11.00" fill="#000000">1,600 rows</text>
<polygon fill="#ffffff" stroke="transparent" points="728,-256.2 728,-275.2 743,-275.2 743,-256.2 728,-256.2"/>
<polygon fill="none" stroke="#000000" points="728,-256.2 728,-275.2 743,-275.2 743,-256.2 728,-256.2"/>
<text text-anchor="start" x="733.8862" y="-262.3" font-family="Helvetica,sans-Serif" font-size="11.00" fill="#000000"> &#160;</text>
</a>
</g>
</g>
<!-- ACTIVITY_TYPES -->
<g id="node2" class="node">
<title>ACTIVITY_TYPES</title>
<g id="a_node2"><a xlink:href="../../tables/ACTIVITY_TYPES.html" xlink:title="ACTIVITY_TYPES" target="_top">
<polygon fill="#ffffff" stroke="transparent" points="373,-131.7 373,-236.7 534,-236.7 534,-131.7 373,-131.7"/>
<polygon fill="#f5f5f5" stroke="transparent" points="373.5,-213.2 373.5,-236.2 534.5,-236.2 534.5,-213.2 373.5,-213.2"/>
<polygon fill="none" stroke="#000000" points="373.5,-213.2 373.5,-236.2 534.5,-236.2 534.5,-213.2 373.5,-213.2"/>
<text text-anchor="start" x="378.5" y="-222.3" font-family="Helvetica,sans-Serif" font-weight="bold" font-size="11.00" fill="#000000">ACTIVITY_TYPES</text>
<text text-anchor="start" x="499.5437" y="-221.3" font-family="Helvetica,sans-Serif" font-size="11.00" fill="#000000">[table]</text>
<polygon fill="none" stroke="#000000" points="373.5,-191.2 373.5,-213.2 534.5,-213.2 534.5,-191.2 373.5,-191.2"/>
<image xlink:href="../../images/primaryKeys.png" width="11px" height="12px" preserveAspectRatio="xMinYMin meet" x="378.5" y="-208.2"/>
<text text-anchor="start" x="393.5" y="-198.3" font-family="Helvetica,sans-Serif" font-size="11.00" fill="#000000">ID</text>
<polygon fill="none" stroke="#000000" points="373.5,-169.2 373.5,-191.2 534.5,-191.2 534.5,-169.2 373.5,-169.2"/>
<image xlink:href="../../images/foreignKeys.png" width="11px" height="12px" preserveAspectRatio="xMinYMin meet" x="378.5" y="-186.2"/>
<text text-anchor="start" x="393.5" y="-176.3" font-family="Helvetica,sans-Serif" font-size="11.00" fill="#000000">ACTIVITY_STATUS_ID</text>
<polygon fill="none" stroke="#000000" points="373.5,-150.2 373.5,-169.2 534.5,-169.2 534.5,-150.2 373.5,-150.2"/>
<text text-anchor="start" x="376.5" y="-156.3" font-family="Helvetica,sans-Serif" font-size="11.00" fill="#000000">...</text>
<polygon fill="#ffffff" stroke="transparent" points="373.5,-131.2 373.5,-150.2 431.5,-150.2 431.5,-131.2 373.5,-131.2"/>
<polygon fill="none" stroke="#000000" points="373.5,-131.2 373.5,-150.2 431.5,-150.2 431.5,-131.2 373.5,-131.2"/>
<text text-anchor="start" x="376.5" y="-137.3" font-family="Helvetica,sans-Serif" font-size="11.00" fill="#000000">&lt; 1</text>
<polygon fill="#ffffff" stroke="transparent" points="431.5,-131.2 431.5,-150.2 494.5,-150.2 494.5,-131.2 431.5,-131.2"/>
<polygon fill="none" stroke="#000000" points="431.5,-131.2 431.5,-150.2 494.5,-150.2 494.5,-131.2 431.5,-131.2"/>
<text text-anchor="start" x="452.9956" y="-137.3" font-family="Helvetica,sans-Serif" font-size="11.00" fill="#000000">69 rows</text>
<polygon fill="#ffffff" stroke="transparent" points="494.5,-131.2 494.5,-150.2 534.5,-150.2 534.5,-131.2 494.5,-131.2"/>
<polygon fill="none" stroke="#000000" points="494.5,-131.2 494.5,-150.2 534.5,-150.2 534.5,-131.2 494.5,-131.2"/>
<text text-anchor="start" x="515.9053" y="-137.3" font-family="Helvetica,sans-Serif" font-size="11.00" fill="#000000">3 &gt;</text>
</a>
</g>
</g>
<!-- ACTIVITIES&#45;&gt;ACTIVITY_TYPES -->
<g id="edge1" class="edge">
<title>ACTIVITIES:w&#45;&gt;ACTIVITY_TYPES:e</title>
<path fill="none" stroke="#000000" d="M626.3962,-282.8942C604.7182,-278.5528 597.097,-263.8724 575,-246.2 554.2433,-229.5995 561.0786,-202.2 534.5,-202.2"/>
<polygon fill="#000000" stroke="#000000" points="633.0318,-283.4875 640.6794,-287.7857 637.0159,-283.8437 641,-284.2 641,-284.2 641,-284.2 637.0159,-283.8437 641.3206,-280.6143 633.0318,-283.4875 633.0318,-283.4875"/>
<ellipse fill="none" stroke="#000000" cx="629.8445" cy="-283.2024" rx="3.2" ry="3.2"/>
</g>
<!-- ACTIVITY_STATUS -->
<g id="node3" class="node">
<title>ACTIVITY_STATUS</title>
<g id="a_node3"><a xlink:href="../../tables/ACTIVITY_STATUS.html" xlink:title="ACTIVITY_STATUS" target="_top">
<polygon fill="#ffffff" stroke="transparent" points="8,-38.2 8,-216.2 324,-216.2 324,-38.2 8,-38.2"/>
<polygon fill="#f5f5f5" stroke="transparent" points="10,-191.2 10,-214.2 322,-214.2 322,-191.2 10,-191.2"/>
<polygon fill="none" stroke="#000000" points="10,-191.2 10,-214.2 322,-214.2 322,-191.2 10,-191.2"/>
<text text-anchor="start" x="15" y="-200.3" font-family="Helvetica,sans-Serif" font-weight="bold" font-size="11.00" fill="#000000">ACTIVITY_STATUS</text>
<text text-anchor="start" x="287.0437" y="-199.3" font-family="Helvetica,sans-Serif" font-size="11.00" fill="#000000">[table]</text>
<polygon fill="none" stroke="#000000" points="10,-169.2 10,-191.2 151,-191.2 151,-169.2 10,-169.2"/>
<image xlink:href="../../images/primaryKeys.png" width="11px" height="12px" preserveAspectRatio="xMinYMin meet" x="15" y="-186.2"/>
<text text-anchor="start" x="30" y="-176.3" font-family="Helvetica,sans-Serif" font-size="11.00" fill="#000000">ID</text>
<polygon fill="none" stroke="#000000" points="151,-169.2 151,-191.2 322,-191.2 322,-169.2 151,-169.2"/>
<text text-anchor="start" x="154" y="-176.9" font-family="Helvetica,sans-Serif" font-size="11.00" fill="#000000">number[19]</text>
<polygon fill="none" stroke="#000000" points="10,-147.2 10,-169.2 151,-169.2 151,-147.2 10,-147.2"/>
<text text-anchor="start" x="30" y="-154.3" font-family="Helvetica,sans-Serif" font-size="11.00" fill="#000000">CREATED_AT</text>
<polygon fill="none" stroke="#000000" points="151,-147.2 151,-169.2 322,-169.2 322,-147.2 151,-147.2"/>
<text text-anchor="start" x="153.9896" y="-154.9" font-family="Helvetica,sans-Serif" font-size="11.00" fill="#000000">timestamp(6) with time zone[13,6]</text>
<polygon fill="none" stroke="#000000" points="10,-125.2 10,-147.2 151,-147.2 151,-125.2 10,-125.2"/>
<text text-anchor="start" x="30" y="-132.3" font-family="Helvetica,sans-Serif" font-size="11.00" fill="#000000">CREATED_BY</text>
<polygon fill="none" stroke="#000000" points="151,-125.2 151,-147.2 322,-147.2 322,-125.2 151,-125.2"/>
<text text-anchor="start" x="154" y="-132.9" font-family="Helvetica,sans-Serif" font-size="11.00" fill="#000000">number[19]</text>
<polygon fill="none" stroke="#000000" points="10,-103.2 10,-125.2 151,-125.2 151,-103.2 10,-103.2"/>
<text text-anchor="start" x="30" y="-110.3" font-family="Helvetica,sans-Serif" font-size="11.00" fill="#000000">UPDATED_AT</text>
<polygon fill="none" stroke="#000000" points="151,-103.2 151,-125.2 322,-125.2 322,-103.2 151,-103.2"/>
<text text-anchor="start" x="153.9896" y="-110.9" font-family="Helvetica,sans-Serif" font-size="11.00" fill="#000000">timestamp(6) with time zone[13,6]</text>
<polygon fill="none" stroke="#000000" points="10,-81.2 10,-103.2 151,-103.2 151,-81.2 10,-81.2"/>
<text text-anchor="start" x="30" y="-88.3" font-family="Helvetica,sans-Serif" font-size="11.00" fill="#000000">UPDATED_BY</text>
<polygon fill="none" stroke="#000000" points="151,-81.2 151,-103.2 322,-103.2 322,-81.2 151,-81.2"/>
<text text-anchor="start" x="154" y="-88.9" font-family="Helvetica,sans-Serif" font-size="11.00" fill="#000000">number[19]</text>
<polygon fill="none" stroke="#000000" points="10,-59.2 10,-81.2 151,-81.2 151,-59.2 10,-59.2"/>
<text text-anchor="start" x="30" y="-66.3" font-family="Helvetica,sans-Serif" font-size="11.00" fill="#000000">TITLE</text>
<polygon fill="none" stroke="#000000" points="151,-59.2 151,-81.2 322,-81.2 322,-59.2 151,-59.2"/>
<text text-anchor="start" x="154" y="-66.9" font-family="Helvetica,sans-Serif" font-size="11.00" fill="#000000">varchar2[255]</text>
<polygon fill="#ffffff" stroke="transparent" points="10,-40.2 10,-59.2 69,-59.2 69,-40.2 10,-40.2"/>
<polygon fill="none" stroke="#000000" points="10,-40.2 10,-59.2 69,-59.2 69,-40.2 10,-40.2"/>
<text text-anchor="start" x="13" y="-46.3" font-family="Helvetica,sans-Serif" font-size="11.00" fill="#000000">&lt; 0</text>
<polygon fill="#ffffff" stroke="transparent" points="69,-40.2 69,-59.2 151,-59.2 151,-40.2 69,-40.2"/>
<polygon fill="none" stroke="#000000" points="69,-40.2 69,-59.2 151,-59.2 151,-40.2 69,-40.2"/>
<text text-anchor="start" x="109.4956" y="-46.3" font-family="Helvetica,sans-Serif" font-size="11.00" fill="#000000">19 rows</text>
<polygon fill="#ffffff" stroke="transparent" points="151,-40.2 151,-59.2 322,-59.2 322,-40.2 151,-40.2"/>
<polygon fill="none" stroke="#000000" points="151,-40.2 151,-59.2 322,-59.2 322,-40.2 151,-40.2"/>
<text text-anchor="start" x="303.4053" y="-46.3" font-family="Helvetica,sans-Serif" font-size="11.00" fill="#000000">1 &gt;</text>
<polygon fill="none" stroke="#000000" stroke-width="2" points="9,-39.2 9,-215.2 323,-215.2 323,-39.2 9,-39.2"/>
</a>
</g>
</g>
<!-- ACTIVITY_TYPES&#45;&gt;ACTIVITY_STATUS -->
<g id="edge2" class="edge">
<title>ACTIVITY_TYPES:w&#45;&gt;ACTIVITY_STATUS:e</title>
<path fill="none" stroke="#000000" d="M359.0156,-180.2C346.6771,-180.2 339.1667,-180.2 322,-180.2"/>
<polygon fill="#000000" stroke="#000000" points="365.5,-180.2001 373.5,-183.8 369.5,-180.2 373.5,-180.2 373.5,-180.2 373.5,-180.2 369.5,-180.2 373.5,-176.6 365.5,-180.2001 365.5,-180.2001"/>
<ellipse fill="none" stroke="#000000" cx="362.3" cy="-180.2001" rx="3.2" ry="3.2"/>
</g>
<!-- NOTIFICATION_SETTINGS -->
<g id="node4" class="node">
<title>NOTIFICATION_SETTINGS</title>
<g id="a_node4"><a xlink:href="../../tables/NOTIFICATION_SETTINGS.html" xlink:title="NOTIFICATION_SETTINGS" target="_top">
<polygon fill="#ffffff" stroke="transparent" points="601.5,-174.7 601.5,-235.7 782.5,-235.7 782.5,-174.7 601.5,-174.7"/>
<polygon fill="#f5f5f5" stroke="transparent" points="602,-212.2 602,-235.2 783,-235.2 783,-212.2 602,-212.2"/>
<polygon fill="none" stroke="#000000" points="602,-212.2 602,-235.2 783,-235.2 783,-212.2 602,-212.2"/>
<text text-anchor="start" x="606.6401" y="-221.3" font-family="Helvetica,sans-Serif" font-weight="bold" font-size="11.00" fill="#000000">NOTIFICATION_SETTINGS</text>
<text text-anchor="start" x="748.5219" y="-220.3" font-family="Helvetica,sans-Serif" font-size="11.00" fill="#000000">[table]</text>
<polygon fill="none" stroke="#000000" points="602,-193.2 602,-212.2 783,-212.2 783,-193.2 602,-193.2"/>
<text text-anchor="start" x="605" y="-199.3" font-family="Helvetica,sans-Serif" font-size="11.00" fill="#000000">...</text>
<polygon fill="#ffffff" stroke="transparent" points="602,-174.2 602,-193.2 672,-193.2 672,-174.2 602,-174.2"/>
<polygon fill="none" stroke="#000000" points="602,-174.2 602,-193.2 672,-193.2 672,-174.2 602,-174.2"/>
<text text-anchor="start" x="605" y="-180.3" font-family="Helvetica,sans-Serif" font-size="11.00" fill="#000000">&lt; 2</text>
<polygon fill="#ffffff" stroke="transparent" points="672,-174.2 672,-193.2 746,-193.2 746,-174.2 672,-174.2"/>
<polygon fill="none" stroke="#000000" points="672,-174.2 672,-193.2 746,-193.2 746,-174.2 672,-174.2"/>
<text text-anchor="start" x="698.3807" y="-180.3" font-family="Helvetica,sans-Serif" font-size="11.00" fill="#000000">108 rows</text>
<polygon fill="#ffffff" stroke="transparent" points="746,-174.2 746,-193.2 783,-193.2 783,-174.2 746,-174.2"/>
<polygon fill="none" stroke="#000000" points="746,-174.2 746,-193.2 783,-193.2 783,-174.2 746,-174.2"/>
<text text-anchor="start" x="773.8862" y="-180.3" font-family="Helvetica,sans-Serif" font-size="11.00" fill="#000000"> &#160;</text>
</a>
</g>
</g>
<!-- NOTIFICATION_SETTINGS&#45;&gt;ACTIVITY_TYPES -->
<g id="edge3" class="edge">
<title>NOTIFICATION_SETTINGS:w&#45;&gt;ACTIVITY_TYPES:e</title>
<path fill="none" stroke="#000000" d="M587.4733,-202.2C568.4877,-202.2 558.9922,-202.2 534.5,-202.2"/>
<polygon fill="#000000" stroke="#000000" points="594,-202.2001 602,-205.8 598,-202.2 602,-202.2 602,-202.2 602,-202.2 598,-202.2 602,-198.6 594,-202.2001 594,-202.2001"/>
<ellipse fill="none" stroke="#000000" cx="590.8" cy="-202.2001" rx="3.2" ry="3.2"/>
</g>
<!-- USER_NOTIFICATION_SETTINGS -->
<g id="node5" class="node">
<title>USER_NOTIFICATION_SETTINGS</title>
<g id="a_node5"><a xlink:href="../../tables/USER_NOTIFICATION_SETTINGS.html" xlink:title="USER_NOTIFICATION_SETTINGS" target="_top">
<polygon fill="#ffffff" stroke="transparent" points="583,-92.7 583,-153.7 801,-153.7 801,-92.7 583,-92.7"/>
<polygon fill="#f5f5f5" stroke="transparent" points="583,-130.2 583,-153.2 801,-153.2 801,-130.2 583,-130.2"/>
<polygon fill="none" stroke="#000000" points="583,-130.2 583,-153.2 801,-153.2 801,-130.2 583,-130.2"/>
<text text-anchor="start" x="587.8058" y="-139.3" font-family="Helvetica,sans-Serif" font-weight="bold" font-size="11.00" fill="#000000">USER_NOTIFICATION_SETTINGS</text>
<text text-anchor="start" x="766.5219" y="-138.3" font-family="Helvetica,sans-Serif" font-size="11.00" fill="#000000">[table]</text>
<polygon fill="none" stroke="#000000" points="583,-111.2 583,-130.2 801,-130.2 801,-111.2 583,-111.2"/>
<text text-anchor="start" x="586" y="-117.3" font-family="Helvetica,sans-Serif" font-size="11.00" fill="#000000">...</text>
<polygon fill="#ffffff" stroke="transparent" points="583,-92.2 583,-111.2 674,-111.2 674,-92.2 583,-92.2"/>
<polygon fill="none" stroke="#000000" points="583,-92.2 583,-111.2 674,-111.2 674,-92.2 583,-92.2"/>
<text text-anchor="start" x="586" y="-98.3" font-family="Helvetica,sans-Serif" font-size="11.00" fill="#000000">&lt; 2</text>
<polygon fill="#ffffff" stroke="transparent" points="674,-92.2 674,-111.2 753,-111.2 753,-92.2 674,-92.2"/>
<polygon fill="none" stroke="#000000" points="674,-92.2 674,-111.2 753,-111.2 753,-92.2 674,-92.2"/>
<text text-anchor="start" x="711.4956" y="-98.3" font-family="Helvetica,sans-Serif" font-size="11.00" fill="#000000">19 rows</text>
<polygon fill="#ffffff" stroke="transparent" points="753,-92.2 753,-111.2 801,-111.2 801,-92.2 753,-92.2"/>
<polygon fill="none" stroke="#000000" points="753,-92.2 753,-111.2 801,-111.2 801,-92.2 753,-92.2"/>
<text text-anchor="start" x="791.8862" y="-98.3" font-family="Helvetica,sans-Serif" font-size="11.00" fill="#000000"> &#160;</text>
</a>
</g>
</g>
<!-- USER_NOTIFICATION_SETTINGS&#45;&gt;ACTIVITY_TYPES -->
<g id="edge4" class="edge">
<title>USER_NOTIFICATION_SETTINGS:w&#45;&gt;ACTIVITY_TYPES:e</title>
<path fill="none" stroke="#000000" d="M569.0877,-124.8436C549.4771,-142.1902 570.7222,-202.2 534.5,-202.2"/>
<polygon fill="#000000" stroke="#000000" points="575.4115,-122.7329 584.1398,-123.6148 579.2058,-121.4664 583,-120.2 583,-120.2 583,-120.2 579.2058,-121.4664 581.8602,-116.7852 575.4115,-122.7329 575.4115,-122.7329"/>
<ellipse fill="none" stroke="#000000" cx="572.3762" cy="-123.7461" rx="3.2" ry="3.2"/>
</g>
</g>
</svg>
