<?xml version="1.0" encoding="UTF-8" standalone="no"?>
<!DOCTYPE svg PUBLIC "-//W3C//DTD SVG 1.1//EN"
 "http://www.w3.org/Graphics/SVG/1.1/DTD/svg11.dtd">
<!-- Generated by graphviz version 2.40.1 (20161225.0304)
 -->
<!-- Title: oneDegreeRelationshipsDiagram Pages: 1 -->
<svg width="551pt" height="360pt"
 viewBox="0.00 0.00 551.00 360.20" xmlns="http://www.w3.org/2000/svg" xmlns:xlink="http://www.w3.org/1999/xlink">
<g id="graph0" class="graph" transform="scale(1 1) rotate(0) translate(4 356.2)">
<title>oneDegreeRelationshipsDiagram</title>
<polygon fill="#ffffff" stroke="transparent" points="-4,4 -4,-356.2 547,-356.2 547,4 -4,4"/>
<text text-anchor="middle" x="72.4936" y="-7.3" font-family="Helvetica,sans-Serif" font-size="11.00" fill="#000000">Generated by SchemaSpy</text>
<!-- ACTIVITIES -->
<g id="node1" class="node">
<title>ACTIVITIES</title>
<g id="a_node1"><a xlink:href="../../tables/ACTIVITIES.html" xlink:title="ACTIVITIES" target="_top">
<polygon fill="#ffffff" stroke="transparent" points="218,-38.2 218,-348.2 535,-348.2 535,-38.2 218,-38.2"/>
<polygon fill="#f5f5f5" stroke="transparent" points="220.5,-323.2 220.5,-346.2 533.5,-346.2 533.5,-323.2 220.5,-323.2"/>
<polygon fill="none" stroke="#000000" points="220.5,-323.2 220.5,-346.2 533.5,-346.2 533.5,-323.2 220.5,-323.2"/>
<text text-anchor="start" x="225.5" y="-332.3" font-family="Helvetica,sans-Serif" font-weight="bold" font-size="11.00" fill="#000000">ACTIVITIES</text>
<text text-anchor="start" x="498.5437" y="-331.3" font-family="Helvetica,sans-Serif" font-size="11.00" fill="#000000">[table]</text>
<polygon fill="none" stroke="#000000" points="220.5,-301.2 220.5,-323.2 362.5,-323.2 362.5,-301.2 220.5,-301.2"/>
<image xlink:href="../../images/primaryKeys.png" width="11px" height="12px" preserveAspectRatio="xMinYMin meet" x="225.5" y="-318.2"/>
<text text-anchor="start" x="240.5" y="-308.3" font-family="Helvetica,sans-Serif" font-size="11.00" fill="#000000">ID</text>
<polygon fill="none" stroke="#000000" points="362.5,-301.2 362.5,-323.2 533.5,-323.2 533.5,-301.2 362.5,-301.2"/>
<text text-anchor="start" x="365.5" y="-308.9" font-family="Helvetica,sans-Serif" font-size="11.00" fill="#000000">number[19]</text>
<polygon fill="none" stroke="#000000" points="220.5,-279.2 220.5,-301.2 362.5,-301.2 362.5,-279.2 220.5,-279.2"/>
<text text-anchor="start" x="240.5" y="-286.3" font-family="Helvetica,sans-Serif" font-size="11.00" fill="#000000">CREATED_AT</text>
<polygon fill="none" stroke="#000000" points="362.5,-279.2 362.5,-301.2 533.5,-301.2 533.5,-279.2 362.5,-279.2"/>
<text text-anchor="start" x="365.4896" y="-286.9" font-family="Helvetica,sans-Serif" font-size="11.00" fill="#000000">timestamp(6) with time zone[13,6]</text>
<polygon fill="none" stroke="#000000" points="220.5,-257.2 220.5,-279.2 362.5,-279.2 362.5,-257.2 220.5,-257.2"/>
<text text-anchor="start" x="240.5" y="-264.3" font-family="Helvetica,sans-Serif" font-size="11.00" fill="#000000">CREATED_BY</text>
<polygon fill="none" stroke="#000000" points="362.5,-257.2 362.5,-279.2 533.5,-279.2 533.5,-257.2 362.5,-257.2"/>
<text text-anchor="start" x="365.5" y="-264.9" font-family="Helvetica,sans-Serif" font-size="11.00" fill="#000000">clob[4000]</text>
<polygon fill="none" stroke="#000000" points="220.5,-235.2 220.5,-257.2 362.5,-257.2 362.5,-235.2 220.5,-235.2"/>
<image xlink:href="../../images/foreignKeys.png" width="11px" height="12px" preserveAspectRatio="xMinYMin meet" x="225.5" y="-252.2"/>
<text text-anchor="start" x="240.5" y="-242.3" font-family="Helvetica,sans-Serif" font-size="11.00" fill="#000000">ACTIVITY_TYPE_ID</text>
<polygon fill="none" stroke="#000000" points="362.5,-235.2 362.5,-257.2 533.5,-257.2 533.5,-235.2 362.5,-235.2"/>
<text text-anchor="start" x="365.5" y="-242.9" font-family="Helvetica,sans-Serif" font-size="11.00" fill="#000000">number[19]</text>
<polygon fill="none" stroke="#000000" points="220.5,-213.2 220.5,-235.2 362.5,-235.2 362.5,-213.2 220.5,-213.2"/>
<text text-anchor="start" x="240.5" y="-220.3" font-family="Helvetica,sans-Serif" font-size="11.00" fill="#000000">MODULE</text>
<polygon fill="none" stroke="#000000" points="362.5,-213.2 362.5,-235.2 533.5,-235.2 533.5,-213.2 362.5,-213.2"/>
<text text-anchor="start" x="365.5" y="-220.9" font-family="Helvetica,sans-Serif" font-size="11.00" fill="#000000">varchar2[255]</text>
<polygon fill="none" stroke="#000000" points="220.5,-191.2 220.5,-213.2 362.5,-213.2 362.5,-191.2 220.5,-191.2"/>
<text text-anchor="start" x="240.5" y="-198.3" font-family="Helvetica,sans-Serif" font-size="11.00" fill="#000000">ATTRIBUTE</text>
<polygon fill="none" stroke="#000000" points="362.5,-191.2 362.5,-213.2 533.5,-213.2 533.5,-191.2 362.5,-191.2"/>
<text text-anchor="start" x="365.5" y="-198.9" font-family="Helvetica,sans-Serif" font-size="11.00" fill="#000000">varchar2[255]</text>
<polygon fill="none" stroke="#000000" points="220.5,-169.2 220.5,-191.2 362.5,-191.2 362.5,-169.2 220.5,-169.2"/>
<text text-anchor="start" x="240.5" y="-176.3" font-family="Helvetica,sans-Serif" font-size="11.00" fill="#000000">ATTRIBUTE_TYPE</text>
<polygon fill="none" stroke="#000000" points="362.5,-169.2 362.5,-191.2 533.5,-191.2 533.5,-169.2 362.5,-169.2"/>
<text text-anchor="start" x="365.5" y="-176.9" font-family="Helvetica,sans-Serif" font-size="11.00" fill="#000000">varchar2[255]</text>
<polygon fill="none" stroke="#000000" points="220.5,-147.2 220.5,-169.2 362.5,-169.2 362.5,-147.2 220.5,-147.2"/>
<text text-anchor="start" x="240.5" y="-154.3" font-family="Helvetica,sans-Serif" font-size="11.00" fill="#000000">PREVIOUS_VALUE</text>
<polygon fill="none" stroke="#000000" points="362.5,-147.2 362.5,-169.2 533.5,-169.2 533.5,-147.2 362.5,-147.2"/>
<text text-anchor="start" x="365.5" y="-154.9" font-family="Helvetica,sans-Serif" font-size="11.00" fill="#000000">clob[4000]</text>
<polygon fill="none" stroke="#000000" points="220.5,-125.2 220.5,-147.2 362.5,-147.2 362.5,-125.2 220.5,-125.2"/>
<text text-anchor="start" x="240.5" y="-132.3" font-family="Helvetica,sans-Serif" font-size="11.00" fill="#000000">NEW_VALUE</text>
<polygon fill="none" stroke="#000000" points="362.5,-125.2 362.5,-147.2 533.5,-147.2 533.5,-125.2 362.5,-125.2"/>
<text text-anchor="start" x="365.5" y="-132.9" font-family="Helvetica,sans-Serif" font-size="11.00" fill="#000000">clob[4000]</text>
<polygon fill="none" stroke="#000000" points="220.5,-103.2 220.5,-125.2 362.5,-125.2 362.5,-103.2 220.5,-103.2"/>
<text text-anchor="start" x="240.5" y="-110.3" font-family="Helvetica,sans-Serif" font-size="11.00" fill="#000000">MESSAGE</text>
<polygon fill="none" stroke="#000000" points="362.5,-103.2 362.5,-125.2 533.5,-125.2 533.5,-103.2 362.5,-103.2"/>
<text text-anchor="start" x="365.5" y="-110.9" font-family="Helvetica,sans-Serif" font-size="11.00" fill="#000000">varchar2[255]</text>
<polygon fill="none" stroke="#000000" points="220.5,-81.2 220.5,-103.2 362.5,-103.2 362.5,-81.2 220.5,-81.2"/>
<text text-anchor="start" x="240.5" y="-88.3" font-family="Helvetica,sans-Serif" font-size="11.00" fill="#000000">URL</text>
<polygon fill="none" stroke="#000000" points="362.5,-81.2 362.5,-103.2 533.5,-103.2 533.5,-81.2 362.5,-81.2"/>
<text text-anchor="start" x="365.5" y="-88.9" font-family="Helvetica,sans-Serif" font-size="11.00" fill="#000000">varchar2[255]</text>
<polygon fill="none" stroke="#000000" points="220.5,-59.2 220.5,-81.2 362.5,-81.2 362.5,-59.2 220.5,-59.2"/>
<text text-anchor="start" x="240.5" y="-66.3" font-family="Helvetica,sans-Serif" font-size="11.00" fill="#000000">META_DATA</text>
<polygon fill="none" stroke="#000000" points="362.5,-59.2 362.5,-81.2 533.5,-81.2 533.5,-59.2 362.5,-59.2"/>
<text text-anchor="start" x="365.5" y="-66.9" font-family="Helvetica,sans-Serif" font-size="11.00" fill="#000000">clob[4000]</text>
<polygon fill="#ffffff" stroke="transparent" points="220.5,-40.2 220.5,-59.2 272.5,-59.2 272.5,-40.2 220.5,-40.2"/>
<polygon fill="none" stroke="#000000" points="220.5,-40.2 220.5,-59.2 272.5,-59.2 272.5,-40.2 220.5,-40.2"/>
<text text-anchor="start" x="223.5" y="-46.3" font-family="Helvetica,sans-Serif" font-size="11.00" fill="#000000">&lt; 1</text>
<polygon fill="#ffffff" stroke="transparent" points="272.5,-40.2 272.5,-59.2 362.5,-59.2 362.5,-40.2 272.5,-40.2"/>
<polygon fill="none" stroke="#000000" points="272.5,-40.2 272.5,-59.2 362.5,-59.2 362.5,-40.2 272.5,-40.2"/>
<text text-anchor="start" x="305.7089" y="-46.3" font-family="Helvetica,sans-Serif" font-size="11.00" fill="#000000">1,600 rows</text>
<polygon fill="#ffffff" stroke="transparent" points="362.5,-40.2 362.5,-59.2 533.5,-59.2 533.5,-40.2 362.5,-40.2"/>
<polygon fill="none" stroke="#000000" points="362.5,-40.2 362.5,-59.2 533.5,-59.2 533.5,-40.2 362.5,-40.2"/>
<text text-anchor="start" x="514.9053" y="-46.3" font-family="Helvetica,sans-Serif" font-size="11.00" fill="#000000">0 &gt;</text>
<polygon fill="none" stroke="#000000" stroke-width="2" points="219,-39.2 219,-347.2 534,-347.2 534,-39.2 219,-39.2"/>
</a>
</g>
</g>
<!-- ACTIVITY_TYPES -->
<g id="node2" class="node">
<title>ACTIVITY_TYPES</title>
<g id="a_node2"><a xlink:href="../../tables/ACTIVITY_TYPES.html" xlink:title="ACTIVITY_TYPES" target="_top">
<polygon fill="#ffffff" stroke="transparent" points="8,-175.7 8,-280.7 169,-280.7 169,-175.7 8,-175.7"/>
<polygon fill="#f5f5f5" stroke="transparent" points="8.5,-257.2 8.5,-280.2 169.5,-280.2 169.5,-257.2 8.5,-257.2"/>
<polygon fill="none" stroke="#000000" points="8.5,-257.2 8.5,-280.2 169.5,-280.2 169.5,-257.2 8.5,-257.2"/>
<text text-anchor="start" x="13.5" y="-266.3" font-family="Helvetica,sans-Serif" font-weight="bold" font-size="11.00" fill="#000000">ACTIVITY_TYPES</text>
<text text-anchor="start" x="134.5437" y="-265.3" font-family="Helvetica,sans-Serif" font-size="11.00" fill="#000000">[table]</text>
<polygon fill="none" stroke="#000000" points="8.5,-235.2 8.5,-257.2 169.5,-257.2 169.5,-235.2 8.5,-235.2"/>
<image xlink:href="../../images/primaryKeys.png" width="11px" height="12px" preserveAspectRatio="xMinYMin meet" x="13.5" y="-252.2"/>
<text text-anchor="start" x="28.5" y="-242.3" font-family="Helvetica,sans-Serif" font-size="11.00" fill="#000000">ID</text>
<polygon fill="none" stroke="#000000" points="8.5,-213.2 8.5,-235.2 169.5,-235.2 169.5,-213.2 8.5,-213.2"/>
<image xlink:href="../../images/foreignKeys.png" width="11px" height="12px" preserveAspectRatio="xMinYMin meet" x="13.5" y="-230.2"/>
<text text-anchor="start" x="28.5" y="-220.3" font-family="Helvetica,sans-Serif" font-size="11.00" fill="#000000">ACTIVITY_STATUS_ID</text>
<polygon fill="none" stroke="#000000" points="8.5,-194.2 8.5,-213.2 169.5,-213.2 169.5,-194.2 8.5,-194.2"/>
<text text-anchor="start" x="11.5" y="-200.3" font-family="Helvetica,sans-Serif" font-size="11.00" fill="#000000">...</text>
<polygon fill="#ffffff" stroke="transparent" points="8.5,-175.2 8.5,-194.2 66.5,-194.2 66.5,-175.2 8.5,-175.2"/>
<polygon fill="none" stroke="#000000" points="8.5,-175.2 8.5,-194.2 66.5,-194.2 66.5,-175.2 8.5,-175.2"/>
<text text-anchor="start" x="11.5" y="-181.3" font-family="Helvetica,sans-Serif" font-size="11.00" fill="#000000">&lt; 1</text>
<polygon fill="#ffffff" stroke="transparent" points="66.5,-175.2 66.5,-194.2 129.5,-194.2 129.5,-175.2 66.5,-175.2"/>
<polygon fill="none" stroke="#000000" points="66.5,-175.2 66.5,-194.2 129.5,-194.2 129.5,-175.2 66.5,-175.2"/>
<text text-anchor="start" x="87.9956" y="-181.3" font-family="Helvetica,sans-Serif" font-size="11.00" fill="#000000">69 rows</text>
<polygon fill="#ffffff" stroke="transparent" points="129.5,-175.2 129.5,-194.2 169.5,-194.2 169.5,-175.2 129.5,-175.2"/>
<polygon fill="none" stroke="#000000" points="129.5,-175.2 129.5,-194.2 169.5,-194.2 169.5,-175.2 129.5,-175.2"/>
<text text-anchor="start" x="150.9053" y="-181.3" font-family="Helvetica,sans-Serif" font-size="11.00" fill="#000000">3 &gt;</text>
</a>
</g>
</g>
<!-- ACTIVITIES&#45;&gt;ACTIVITY_TYPES -->
<g id="edge1" class="edge">
<title>ACTIVITIES:w&#45;&gt;ACTIVITY_TYPES:e</title>
<path fill="none" stroke="#000000" d="M205.776,-246.2C193.7815,-246.2 186.3229,-246.2 169.5,-246.2"/>
<polygon fill="#000000" stroke="#000000" points="212.5,-246.2001 220.5,-249.8 216.5,-246.2 220.5,-246.2 220.5,-246.2 220.5,-246.2 216.5,-246.2 220.5,-242.6 212.5,-246.2001 212.5,-246.2001"/>
<ellipse fill="none" stroke="#000000" cx="209.3" cy="-246.2001" rx="3.2" ry="3.2"/>
</g>
</g>
</svg>
