<?xml version="1.0" encoding="UTF-8" standalone="no"?>
<!DOCTYPE svg PUBLIC "-//W3C//DTD SVG 1.1//EN"
 "http://www.w3.org/Graphics/SVG/1.1/DTD/svg11.dtd">
<!-- Generated by graphviz version 2.40.1 (20161225.0304)
 -->
<!-- Title: twoDegreesRelationshipsDiagram Pages: 1 -->
<svg width="742pt" height="525pt"
 viewBox="0.00 0.00 742.00 524.70" xmlns="http://www.w3.org/2000/svg" xmlns:xlink="http://www.w3.org/1999/xlink">
<g id="graph0" class="graph" transform="scale(1 1) rotate(0) translate(4 520.7)">
<title>twoDegreesRelationshipsDiagram</title>
<polygon fill="#ffffff" stroke="transparent" points="-4,4 -4,-520.7 738,-520.7 738,4 -4,4"/>
<text text-anchor="middle" x="72.4936" y="-7.3" font-family="Helvetica,sans-Serif" font-size="11.00" fill="#000000">Generated by SchemaSpy</text>
<!-- ACTIVITIES -->
<g id="node1" class="node">
<title>ACTIVITIES</title>
<g id="a_node1"><a xlink:href="../../tables/ACTIVITIES.html" xlink:title="ACTIVITIES" target="_top">
<polygon fill="#ffffff" stroke="transparent" points="409,-202.7 409,-512.7 726,-512.7 726,-202.7 409,-202.7"/>
<polygon fill="#f5f5f5" stroke="transparent" points="411.5,-487.7 411.5,-510.7 724.5,-510.7 724.5,-487.7 411.5,-487.7"/>
<polygon fill="none" stroke="#000000" points="411.5,-487.7 411.5,-510.7 724.5,-510.7 724.5,-487.7 411.5,-487.7"/>
<text text-anchor="start" x="416.5" y="-496.8" font-family="Helvetica,sans-Serif" font-weight="bold" font-size="11.00" fill="#000000">ACTIVITIES</text>
<text text-anchor="start" x="689.5437" y="-495.8" font-family="Helvetica,sans-Serif" font-size="11.00" fill="#000000">[table]</text>
<polygon fill="none" stroke="#000000" points="411.5,-465.7 411.5,-487.7 553.5,-487.7 553.5,-465.7 411.5,-465.7"/>
<image xlink:href="../../images/primaryKeys.png" width="11px" height="12px" preserveAspectRatio="xMinYMin meet" x="416.5" y="-482.7"/>
<text text-anchor="start" x="431.5" y="-472.8" font-family="Helvetica,sans-Serif" font-size="11.00" fill="#000000">ID</text>
<polygon fill="none" stroke="#000000" points="553.5,-465.7 553.5,-487.7 724.5,-487.7 724.5,-465.7 553.5,-465.7"/>
<text text-anchor="start" x="556.5" y="-473.4" font-family="Helvetica,sans-Serif" font-size="11.00" fill="#000000">number[19]</text>
<polygon fill="none" stroke="#000000" points="411.5,-443.7 411.5,-465.7 553.5,-465.7 553.5,-443.7 411.5,-443.7"/>
<text text-anchor="start" x="431.5" y="-450.8" font-family="Helvetica,sans-Serif" font-size="11.00" fill="#000000">CREATED_AT</text>
<polygon fill="none" stroke="#000000" points="553.5,-443.7 553.5,-465.7 724.5,-465.7 724.5,-443.7 553.5,-443.7"/>
<text text-anchor="start" x="556.4896" y="-451.4" font-family="Helvetica,sans-Serif" font-size="11.00" fill="#000000">timestamp(6) with time zone[13,6]</text>
<polygon fill="none" stroke="#000000" points="411.5,-421.7 411.5,-443.7 553.5,-443.7 553.5,-421.7 411.5,-421.7"/>
<text text-anchor="start" x="431.5" y="-428.8" font-family="Helvetica,sans-Serif" font-size="11.00" fill="#000000">CREATED_BY</text>
<polygon fill="none" stroke="#000000" points="553.5,-421.7 553.5,-443.7 724.5,-443.7 724.5,-421.7 553.5,-421.7"/>
<text text-anchor="start" x="556.5" y="-429.4" font-family="Helvetica,sans-Serif" font-size="11.00" fill="#000000">clob[4000]</text>
<polygon fill="none" stroke="#000000" points="411.5,-399.7 411.5,-421.7 553.5,-421.7 553.5,-399.7 411.5,-399.7"/>
<image xlink:href="../../images/foreignKeys.png" width="11px" height="12px" preserveAspectRatio="xMinYMin meet" x="416.5" y="-416.7"/>
<text text-anchor="start" x="431.5" y="-406.8" font-family="Helvetica,sans-Serif" font-size="11.00" fill="#000000">ACTIVITY_TYPE_ID</text>
<polygon fill="none" stroke="#000000" points="553.5,-399.7 553.5,-421.7 724.5,-421.7 724.5,-399.7 553.5,-399.7"/>
<text text-anchor="start" x="556.5" y="-407.4" font-family="Helvetica,sans-Serif" font-size="11.00" fill="#000000">number[19]</text>
<polygon fill="none" stroke="#000000" points="411.5,-377.7 411.5,-399.7 553.5,-399.7 553.5,-377.7 411.5,-377.7"/>
<text text-anchor="start" x="431.5" y="-384.8" font-family="Helvetica,sans-Serif" font-size="11.00" fill="#000000">MODULE</text>
<polygon fill="none" stroke="#000000" points="553.5,-377.7 553.5,-399.7 724.5,-399.7 724.5,-377.7 553.5,-377.7"/>
<text text-anchor="start" x="556.5" y="-385.4" font-family="Helvetica,sans-Serif" font-size="11.00" fill="#000000">varchar2[255]</text>
<polygon fill="none" stroke="#000000" points="411.5,-355.7 411.5,-377.7 553.5,-377.7 553.5,-355.7 411.5,-355.7"/>
<text text-anchor="start" x="431.5" y="-362.8" font-family="Helvetica,sans-Serif" font-size="11.00" fill="#000000">ATTRIBUTE</text>
<polygon fill="none" stroke="#000000" points="553.5,-355.7 553.5,-377.7 724.5,-377.7 724.5,-355.7 553.5,-355.7"/>
<text text-anchor="start" x="556.5" y="-363.4" font-family="Helvetica,sans-Serif" font-size="11.00" fill="#000000">varchar2[255]</text>
<polygon fill="none" stroke="#000000" points="411.5,-333.7 411.5,-355.7 553.5,-355.7 553.5,-333.7 411.5,-333.7"/>
<text text-anchor="start" x="431.5" y="-340.8" font-family="Helvetica,sans-Serif" font-size="11.00" fill="#000000">ATTRIBUTE_TYPE</text>
<polygon fill="none" stroke="#000000" points="553.5,-333.7 553.5,-355.7 724.5,-355.7 724.5,-333.7 553.5,-333.7"/>
<text text-anchor="start" x="556.5" y="-341.4" font-family="Helvetica,sans-Serif" font-size="11.00" fill="#000000">varchar2[255]</text>
<polygon fill="none" stroke="#000000" points="411.5,-311.7 411.5,-333.7 553.5,-333.7 553.5,-311.7 411.5,-311.7"/>
<text text-anchor="start" x="431.5" y="-318.8" font-family="Helvetica,sans-Serif" font-size="11.00" fill="#000000">PREVIOUS_VALUE</text>
<polygon fill="none" stroke="#000000" points="553.5,-311.7 553.5,-333.7 724.5,-333.7 724.5,-311.7 553.5,-311.7"/>
<text text-anchor="start" x="556.5" y="-319.4" font-family="Helvetica,sans-Serif" font-size="11.00" fill="#000000">clob[4000]</text>
<polygon fill="none" stroke="#000000" points="411.5,-289.7 411.5,-311.7 553.5,-311.7 553.5,-289.7 411.5,-289.7"/>
<text text-anchor="start" x="431.5" y="-296.8" font-family="Helvetica,sans-Serif" font-size="11.00" fill="#000000">NEW_VALUE</text>
<polygon fill="none" stroke="#000000" points="553.5,-289.7 553.5,-311.7 724.5,-311.7 724.5,-289.7 553.5,-289.7"/>
<text text-anchor="start" x="556.5" y="-297.4" font-family="Helvetica,sans-Serif" font-size="11.00" fill="#000000">clob[4000]</text>
<polygon fill="none" stroke="#000000" points="411.5,-267.7 411.5,-289.7 553.5,-289.7 553.5,-267.7 411.5,-267.7"/>
<text text-anchor="start" x="431.5" y="-274.8" font-family="Helvetica,sans-Serif" font-size="11.00" fill="#000000">MESSAGE</text>
<polygon fill="none" stroke="#000000" points="553.5,-267.7 553.5,-289.7 724.5,-289.7 724.5,-267.7 553.5,-267.7"/>
<text text-anchor="start" x="556.5" y="-275.4" font-family="Helvetica,sans-Serif" font-size="11.00" fill="#000000">varchar2[255]</text>
<polygon fill="none" stroke="#000000" points="411.5,-245.7 411.5,-267.7 553.5,-267.7 553.5,-245.7 411.5,-245.7"/>
<text text-anchor="start" x="431.5" y="-252.8" font-family="Helvetica,sans-Serif" font-size="11.00" fill="#000000">URL</text>
<polygon fill="none" stroke="#000000" points="553.5,-245.7 553.5,-267.7 724.5,-267.7 724.5,-245.7 553.5,-245.7"/>
<text text-anchor="start" x="556.5" y="-253.4" font-family="Helvetica,sans-Serif" font-size="11.00" fill="#000000">varchar2[255]</text>
<polygon fill="none" stroke="#000000" points="411.5,-223.7 411.5,-245.7 553.5,-245.7 553.5,-223.7 411.5,-223.7"/>
<text text-anchor="start" x="431.5" y="-230.8" font-family="Helvetica,sans-Serif" font-size="11.00" fill="#000000">META_DATA</text>
<polygon fill="none" stroke="#000000" points="553.5,-223.7 553.5,-245.7 724.5,-245.7 724.5,-223.7 553.5,-223.7"/>
<text text-anchor="start" x="556.5" y="-231.4" font-family="Helvetica,sans-Serif" font-size="11.00" fill="#000000">clob[4000]</text>
<polygon fill="#ffffff" stroke="transparent" points="411.5,-204.7 411.5,-223.7 463.5,-223.7 463.5,-204.7 411.5,-204.7"/>
<polygon fill="none" stroke="#000000" points="411.5,-204.7 411.5,-223.7 463.5,-223.7 463.5,-204.7 411.5,-204.7"/>
<text text-anchor="start" x="414.5" y="-210.8" font-family="Helvetica,sans-Serif" font-size="11.00" fill="#000000">&lt; 1</text>
<polygon fill="#ffffff" stroke="transparent" points="463.5,-204.7 463.5,-223.7 553.5,-223.7 553.5,-204.7 463.5,-204.7"/>
<polygon fill="none" stroke="#000000" points="463.5,-204.7 463.5,-223.7 553.5,-223.7 553.5,-204.7 463.5,-204.7"/>
<text text-anchor="start" x="496.7089" y="-210.8" font-family="Helvetica,sans-Serif" font-size="11.00" fill="#000000">1,600 rows</text>
<polygon fill="#ffffff" stroke="transparent" points="553.5,-204.7 553.5,-223.7 724.5,-223.7 724.5,-204.7 553.5,-204.7"/>
<polygon fill="none" stroke="#000000" points="553.5,-204.7 553.5,-223.7 724.5,-223.7 724.5,-204.7 553.5,-204.7"/>
<text text-anchor="start" x="705.9053" y="-210.8" font-family="Helvetica,sans-Serif" font-size="11.00" fill="#000000">0 &gt;</text>
<polygon fill="none" stroke="#000000" stroke-width="2" points="410,-203.7 410,-511.7 725,-511.7 725,-203.7 410,-203.7"/>
</a>
</g>
</g>
<!-- ACTIVITY_TYPES -->
<g id="node2" class="node">
<title>ACTIVITY_TYPES</title>
<g id="a_node2"><a xlink:href="../../tables/ACTIVITY_TYPES.html" xlink:title="ACTIVITY_TYPES" target="_top">
<polygon fill="#ffffff" stroke="transparent" points="199,-77.2 199,-182.2 360,-182.2 360,-77.2 199,-77.2"/>
<polygon fill="#f5f5f5" stroke="transparent" points="199.5,-158.7 199.5,-181.7 360.5,-181.7 360.5,-158.7 199.5,-158.7"/>
<polygon fill="none" stroke="#000000" points="199.5,-158.7 199.5,-181.7 360.5,-181.7 360.5,-158.7 199.5,-158.7"/>
<text text-anchor="start" x="204.5" y="-167.8" font-family="Helvetica,sans-Serif" font-weight="bold" font-size="11.00" fill="#000000">ACTIVITY_TYPES</text>
<text text-anchor="start" x="325.5437" y="-166.8" font-family="Helvetica,sans-Serif" font-size="11.00" fill="#000000">[table]</text>
<polygon fill="none" stroke="#000000" points="199.5,-136.7 199.5,-158.7 360.5,-158.7 360.5,-136.7 199.5,-136.7"/>
<image xlink:href="../../images/primaryKeys.png" width="11px" height="12px" preserveAspectRatio="xMinYMin meet" x="204.5" y="-153.7"/>
<text text-anchor="start" x="219.5" y="-143.8" font-family="Helvetica,sans-Serif" font-size="11.00" fill="#000000">ID</text>
<polygon fill="none" stroke="#000000" points="199.5,-114.7 199.5,-136.7 360.5,-136.7 360.5,-114.7 199.5,-114.7"/>
<image xlink:href="../../images/foreignKeys.png" width="11px" height="12px" preserveAspectRatio="xMinYMin meet" x="204.5" y="-131.7"/>
<text text-anchor="start" x="219.5" y="-121.8" font-family="Helvetica,sans-Serif" font-size="11.00" fill="#000000">ACTIVITY_STATUS_ID</text>
<polygon fill="none" stroke="#000000" points="199.5,-95.7 199.5,-114.7 360.5,-114.7 360.5,-95.7 199.5,-95.7"/>
<text text-anchor="start" x="202.5" y="-101.8" font-family="Helvetica,sans-Serif" font-size="11.00" fill="#000000">...</text>
<polygon fill="#ffffff" stroke="transparent" points="199.5,-76.7 199.5,-95.7 257.5,-95.7 257.5,-76.7 199.5,-76.7"/>
<polygon fill="none" stroke="#000000" points="199.5,-76.7 199.5,-95.7 257.5,-95.7 257.5,-76.7 199.5,-76.7"/>
<text text-anchor="start" x="202.5" y="-82.8" font-family="Helvetica,sans-Serif" font-size="11.00" fill="#000000">&lt; 1</text>
<polygon fill="#ffffff" stroke="transparent" points="257.5,-76.7 257.5,-95.7 320.5,-95.7 320.5,-76.7 257.5,-76.7"/>
<polygon fill="none" stroke="#000000" points="257.5,-76.7 257.5,-95.7 320.5,-95.7 320.5,-76.7 257.5,-76.7"/>
<text text-anchor="start" x="278.9956" y="-82.8" font-family="Helvetica,sans-Serif" font-size="11.00" fill="#000000">69 rows</text>
<polygon fill="#ffffff" stroke="transparent" points="320.5,-76.7 320.5,-95.7 360.5,-95.7 360.5,-76.7 320.5,-76.7"/>
<polygon fill="none" stroke="#000000" points="320.5,-76.7 320.5,-95.7 360.5,-95.7 360.5,-76.7 320.5,-76.7"/>
<text text-anchor="start" x="341.9053" y="-82.8" font-family="Helvetica,sans-Serif" font-size="11.00" fill="#000000">3 &gt;</text>
</a>
</g>
</g>
<!-- ACTIVITIES&#45;&gt;ACTIVITY_TYPES -->
<g id="edge1" class="edge">
<title>ACTIVITIES:w&#45;&gt;ACTIVITY_TYPES:e</title>
<path fill="none" stroke="#000000" d="M398.3588,-404.7127C363.1675,-365.5651 414.6845,-147.7 360.5,-147.7"/>
<polygon fill="#000000" stroke="#000000" points="404.22,-407.3831 410.0074,-413.976 407.86,-409.0416 411.5,-410.7 411.5,-410.7 411.5,-410.7 407.86,-409.0416 412.9926,-407.424 404.22,-407.3831 404.22,-407.3831"/>
<ellipse fill="none" stroke="#000000" cx="401.308" cy="-406.0564" rx="3.2" ry="3.2"/>
</g>
<!-- ACTIVITY_STATUS -->
<g id="node3" class="node">
<title>ACTIVITY_STATUS</title>
<g id="a_node3"><a xlink:href="../../tables/ACTIVITY_STATUS.html" xlink:title="ACTIVITY_STATUS" target="_top">
<polygon fill="#ffffff" stroke="transparent" points="8,-98.2 8,-159.2 150,-159.2 150,-98.2 8,-98.2"/>
<polygon fill="#f5f5f5" stroke="transparent" points="8,-135.7 8,-158.7 150,-158.7 150,-135.7 8,-135.7"/>
<polygon fill="none" stroke="#000000" points="8,-135.7 8,-158.7 150,-158.7 150,-135.7 8,-135.7"/>
<text text-anchor="start" x="12.9972" y="-144.8" font-family="Helvetica,sans-Serif" font-weight="bold" font-size="11.00" fill="#000000">ACTIVITY_STATUS</text>
<text text-anchor="start" x="115.5219" y="-143.8" font-family="Helvetica,sans-Serif" font-size="11.00" fill="#000000">[table]</text>
<polygon fill="none" stroke="#000000" points="8,-116.7 8,-135.7 150,-135.7 150,-116.7 8,-116.7"/>
<text text-anchor="start" x="11" y="-122.8" font-family="Helvetica,sans-Serif" font-size="11.00" fill="#000000">...</text>
<polygon fill="#ffffff" stroke="transparent" points="8,-97.7 8,-116.7 52,-116.7 52,-97.7 8,-97.7"/>
<polygon fill="none" stroke="#000000" points="8,-97.7 8,-116.7 52,-116.7 52,-97.7 8,-97.7"/>
<text text-anchor="start" x="11" y="-103.8" font-family="Helvetica,sans-Serif" font-size="11.00" fill="#000000"> &#160;</text>
<polygon fill="#ffffff" stroke="transparent" points="52,-97.7 52,-116.7 112,-116.7 112,-97.7 52,-97.7"/>
<polygon fill="none" stroke="#000000" points="52,-97.7 52,-116.7 112,-116.7 112,-97.7 52,-97.7"/>
<text text-anchor="start" x="70.4956" y="-103.8" font-family="Helvetica,sans-Serif" font-size="11.00" fill="#000000">19 rows</text>
<polygon fill="#ffffff" stroke="transparent" points="112,-97.7 112,-116.7 150,-116.7 150,-97.7 112,-97.7"/>
<polygon fill="none" stroke="#000000" points="112,-97.7 112,-116.7 150,-116.7 150,-97.7 112,-97.7"/>
<text text-anchor="start" x="131.4053" y="-103.8" font-family="Helvetica,sans-Serif" font-size="11.00" fill="#000000">1 &gt;</text>
</a>
</g>
</g>
<!-- ACTIVITY_TYPES&#45;&gt;ACTIVITY_STATUS -->
<g id="edge2" class="edge">
<title>ACTIVITY_TYPES:w&#45;&gt;ACTIVITY_STATUS:e</title>
<path fill="none" stroke="#000000" d="M184.8428,-125.7C173.4139,-125.7 166.1563,-125.7 150,-125.7"/>
<polygon fill="#000000" stroke="#000000" points="191.5,-125.7001 199.5,-129.3 195.5,-125.7 199.5,-125.7 199.5,-125.7 199.5,-125.7 195.5,-125.7 199.5,-122.1 191.5,-125.7001 191.5,-125.7001"/>
<ellipse fill="none" stroke="#000000" cx="188.3" cy="-125.7001" rx="3.2" ry="3.2"/>
</g>
<!-- NOTIFICATION_SETTINGS -->
<g id="node4" class="node">
<title>NOTIFICATION_SETTINGS</title>
<g id="a_node4"><a xlink:href="../../tables/NOTIFICATION_SETTINGS.html" xlink:title="NOTIFICATION_SETTINGS" target="_top">
<polygon fill="#ffffff" stroke="transparent" points="477,-120.2 477,-181.2 658,-181.2 658,-120.2 477,-120.2"/>
<polygon fill="#f5f5f5" stroke="transparent" points="477.5,-157.7 477.5,-180.7 658.5,-180.7 658.5,-157.7 477.5,-157.7"/>
<polygon fill="none" stroke="#000000" points="477.5,-157.7 477.5,-180.7 658.5,-180.7 658.5,-157.7 477.5,-157.7"/>
<text text-anchor="start" x="482.1401" y="-166.8" font-family="Helvetica,sans-Serif" font-weight="bold" font-size="11.00" fill="#000000">NOTIFICATION_SETTINGS</text>
<text text-anchor="start" x="624.0219" y="-165.8" font-family="Helvetica,sans-Serif" font-size="11.00" fill="#000000">[table]</text>
<polygon fill="none" stroke="#000000" points="477.5,-138.7 477.5,-157.7 658.5,-157.7 658.5,-138.7 477.5,-138.7"/>
<text text-anchor="start" x="480.5" y="-144.8" font-family="Helvetica,sans-Serif" font-size="11.00" fill="#000000">...</text>
<polygon fill="#ffffff" stroke="transparent" points="477.5,-119.7 477.5,-138.7 547.5,-138.7 547.5,-119.7 477.5,-119.7"/>
<polygon fill="none" stroke="#000000" points="477.5,-119.7 477.5,-138.7 547.5,-138.7 547.5,-119.7 477.5,-119.7"/>
<text text-anchor="start" x="480.5" y="-125.8" font-family="Helvetica,sans-Serif" font-size="11.00" fill="#000000">&lt; 2</text>
<polygon fill="#ffffff" stroke="transparent" points="547.5,-119.7 547.5,-138.7 621.5,-138.7 621.5,-119.7 547.5,-119.7"/>
<polygon fill="none" stroke="#000000" points="547.5,-119.7 547.5,-138.7 621.5,-138.7 621.5,-119.7 547.5,-119.7"/>
<text text-anchor="start" x="573.8807" y="-125.8" font-family="Helvetica,sans-Serif" font-size="11.00" fill="#000000">108 rows</text>
<polygon fill="#ffffff" stroke="transparent" points="621.5,-119.7 621.5,-138.7 658.5,-138.7 658.5,-119.7 621.5,-119.7"/>
<polygon fill="none" stroke="#000000" points="621.5,-119.7 621.5,-138.7 658.5,-138.7 658.5,-119.7 621.5,-119.7"/>
<text text-anchor="start" x="649.3862" y="-125.8" font-family="Helvetica,sans-Serif" font-size="11.00" fill="#000000"> &#160;</text>
</a>
</g>
</g>
<!-- NOTIFICATION_SETTINGS&#45;&gt;ACTIVITY_TYPES -->
<g id="edge3" class="edge">
<title>NOTIFICATION_SETTINGS:w&#45;&gt;ACTIVITY_TYPES:e</title>
<path fill="none" stroke="#000000" d="M463.0447,-147.7C422.5232,-147.7 407.3203,-147.7 360.5,-147.7"/>
<polygon fill="#000000" stroke="#000000" points="469.5,-147.7001 477.5,-151.3 473.5,-147.7 477.5,-147.7 477.5,-147.7 477.5,-147.7 473.5,-147.7 477.5,-144.1 469.5,-147.7001 469.5,-147.7001"/>
<ellipse fill="none" stroke="#000000" cx="466.3" cy="-147.7001" rx="3.2" ry="3.2"/>
</g>
<!-- USER_NOTIFICATION_SETTINGS -->
<g id="node5" class="node">
<title>USER_NOTIFICATION_SETTINGS</title>
<g id="a_node5"><a xlink:href="../../tables/USER_NOTIFICATION_SETTINGS.html" xlink:title="USER_NOTIFICATION_SETTINGS" target="_top">
<polygon fill="#ffffff" stroke="transparent" points="458.5,-38.2 458.5,-99.2 676.5,-99.2 676.5,-38.2 458.5,-38.2"/>
<polygon fill="#f5f5f5" stroke="transparent" points="458.5,-75.7 458.5,-98.7 676.5,-98.7 676.5,-75.7 458.5,-75.7"/>
<polygon fill="none" stroke="#000000" points="458.5,-75.7 458.5,-98.7 676.5,-98.7 676.5,-75.7 458.5,-75.7"/>
<text text-anchor="start" x="463.3058" y="-84.8" font-family="Helvetica,sans-Serif" font-weight="bold" font-size="11.00" fill="#000000">USER_NOTIFICATION_SETTINGS</text>
<text text-anchor="start" x="642.0219" y="-83.8" font-family="Helvetica,sans-Serif" font-size="11.00" fill="#000000">[table]</text>
<polygon fill="none" stroke="#000000" points="458.5,-56.7 458.5,-75.7 676.5,-75.7 676.5,-56.7 458.5,-56.7"/>
<text text-anchor="start" x="461.5" y="-62.8" font-family="Helvetica,sans-Serif" font-size="11.00" fill="#000000">...</text>
<polygon fill="#ffffff" stroke="transparent" points="458.5,-37.7 458.5,-56.7 549.5,-56.7 549.5,-37.7 458.5,-37.7"/>
<polygon fill="none" stroke="#000000" points="458.5,-37.7 458.5,-56.7 549.5,-56.7 549.5,-37.7 458.5,-37.7"/>
<text text-anchor="start" x="461.5" y="-43.8" font-family="Helvetica,sans-Serif" font-size="11.00" fill="#000000">&lt; 2</text>
<polygon fill="#ffffff" stroke="transparent" points="549.5,-37.7 549.5,-56.7 628.5,-56.7 628.5,-37.7 549.5,-37.7"/>
<polygon fill="none" stroke="#000000" points="549.5,-37.7 549.5,-56.7 628.5,-56.7 628.5,-37.7 549.5,-37.7"/>
<text text-anchor="start" x="586.9956" y="-43.8" font-family="Helvetica,sans-Serif" font-size="11.00" fill="#000000">19 rows</text>
<polygon fill="#ffffff" stroke="transparent" points="628.5,-37.7 628.5,-56.7 676.5,-56.7 676.5,-37.7 628.5,-37.7"/>
<polygon fill="none" stroke="#000000" points="628.5,-37.7 628.5,-56.7 676.5,-56.7 676.5,-37.7 628.5,-37.7"/>
<text text-anchor="start" x="667.3862" y="-43.8" font-family="Helvetica,sans-Serif" font-size="11.00" fill="#000000"> &#160;</text>
</a>
</g>
</g>
<!-- USER_NOTIFICATION_SETTINGS&#45;&gt;ACTIVITY_TYPES -->
<g id="edge4" class="edge">
<title>USER_NOTIFICATION_SETTINGS:w&#45;&gt;ACTIVITY_TYPES:e</title>
<path fill="none" stroke="#000000" d="M444.1416,-67.7105C425.3127,-73.7783 421.2281,-92.5454 401,-109.7 382.1753,-125.6645 385.1827,-147.7 360.5,-147.7"/>
<polygon fill="#000000" stroke="#000000" points="450.5773,-66.8094 458.9992,-69.2652 454.5386,-66.2547 458.5,-65.7 458.5,-65.7 458.5,-65.7 454.5386,-66.2547 458.0008,-62.1348 450.5773,-66.8094 450.5773,-66.8094"/>
<ellipse fill="none" stroke="#000000" cx="447.4082" cy="-67.2532" rx="3.2" ry="3.2"/>
</g>
</g>
</svg>
