<?xml version="1.0" encoding="UTF-8" standalone="no"?>
<!DOCTYPE svg PUBLIC "-//W3C//DTD SVG 1.1//EN"
 "http://www.w3.org/Graphics/SVG/1.1/DTD/svg11.dtd">
<!-- Generated by graphviz version 2.40.1 (20161225.0304)
 -->
<!-- Title: twoDegreesRelationshipsDiagram Pages: 1 -->
<svg width="831pt" height="454pt"
 viewBox="0.00 0.00 831.00 454.20" xmlns="http://www.w3.org/2000/svg" xmlns:xlink="http://www.w3.org/1999/xlink">
<g id="graph0" class="graph" transform="scale(1 1) rotate(0) translate(4 450.2)">
<title>twoDegreesRelationshipsDiagram</title>
<polygon fill="#ffffff" stroke="transparent" points="-4,4 -4,-450.2 827,-450.2 827,4 -4,4"/>
<text text-anchor="middle" x="72.4936" y="-7.3" font-family="Helvetica,sans-Serif" font-size="11.00" fill="#000000">Generated by SchemaSpy</text>
<!-- ACTIVITIES -->
<g id="node1" class="node">
<title>ACTIVITIES</title>
<g id="a_node1"><a xlink:href="../../tables/ACTIVITIES.html" xlink:title="ACTIVITIES" target="_top">
<polygon fill="#ffffff" stroke="transparent" points="628.5,-337.2 628.5,-442.2 770.5,-442.2 770.5,-337.2 628.5,-337.2"/>
<polygon fill="#f5f5f5" stroke="transparent" points="628.5,-418.7 628.5,-441.7 770.5,-441.7 770.5,-418.7 628.5,-418.7"/>
<polygon fill="none" stroke="#000000" points="628.5,-418.7 628.5,-441.7 770.5,-441.7 770.5,-418.7 628.5,-418.7"/>
<text text-anchor="start" x="633.5" y="-427.8" font-family="Helvetica,sans-Serif" font-weight="bold" font-size="11.00" fill="#000000">ACTIVITIES</text>
<text text-anchor="start" x="735.5437" y="-426.8" font-family="Helvetica,sans-Serif" font-size="11.00" fill="#000000">[table]</text>
<polygon fill="none" stroke="#000000" points="628.5,-396.7 628.5,-418.7 770.5,-418.7 770.5,-396.7 628.5,-396.7"/>
<image xlink:href="../../images/primaryKeys.png" width="11px" height="12px" preserveAspectRatio="xMinYMin meet" x="633.5" y="-413.7"/>
<text text-anchor="start" x="648.5" y="-403.8" font-family="Helvetica,sans-Serif" font-size="11.00" fill="#000000">ID</text>
<polygon fill="none" stroke="#000000" points="628.5,-374.7 628.5,-396.7 770.5,-396.7 770.5,-374.7 628.5,-374.7"/>
<image xlink:href="../../images/foreignKeys.png" width="11px" height="12px" preserveAspectRatio="xMinYMin meet" x="633.5" y="-391.7"/>
<text text-anchor="start" x="648.5" y="-381.8" font-family="Helvetica,sans-Serif" font-size="11.00" fill="#000000">ACTIVITY_TYPE_ID</text>
<polygon fill="none" stroke="#000000" points="628.5,-355.7 628.5,-374.7 770.5,-374.7 770.5,-355.7 628.5,-355.7"/>
<text text-anchor="start" x="631.5" y="-361.8" font-family="Helvetica,sans-Serif" font-size="11.00" fill="#000000">...</text>
<polygon fill="#ffffff" stroke="transparent" points="628.5,-336.7 628.5,-355.7 674.5,-355.7 674.5,-336.7 628.5,-336.7"/>
<polygon fill="none" stroke="#000000" points="628.5,-336.7 628.5,-355.7 674.5,-355.7 674.5,-336.7 628.5,-336.7"/>
<text text-anchor="start" x="631.5" y="-342.8" font-family="Helvetica,sans-Serif" font-size="11.00" fill="#000000">&lt; 1</text>
<polygon fill="#ffffff" stroke="transparent" points="674.5,-336.7 674.5,-355.7 745.5,-355.7 745.5,-336.7 674.5,-336.7"/>
<polygon fill="none" stroke="#000000" points="674.5,-336.7 674.5,-355.7 745.5,-355.7 745.5,-336.7 674.5,-336.7"/>
<text text-anchor="start" x="688.7089" y="-342.8" font-family="Helvetica,sans-Serif" font-size="11.00" fill="#000000">1,600 rows</text>
<polygon fill="#ffffff" stroke="transparent" points="745.5,-336.7 745.5,-355.7 770.5,-355.7 770.5,-336.7 745.5,-336.7"/>
<polygon fill="none" stroke="#000000" points="745.5,-336.7 745.5,-355.7 770.5,-355.7 770.5,-336.7 745.5,-336.7"/>
<text text-anchor="start" x="761.3862" y="-342.8" font-family="Helvetica,sans-Serif" font-size="11.00" fill="#000000"> &#160;</text>
</a>
</g>
</g>
<!-- ACTIVITY_TYPES -->
<g id="node2" class="node">
<title>ACTIVITY_TYPES</title>
<g id="a_node2"><a xlink:href="../../tables/ACTIVITY_TYPES.html" xlink:title="ACTIVITY_TYPES" target="_top">
<polygon fill="#ffffff" stroke="transparent" points="199,-221.7 199,-421.7 535,-421.7 535,-221.7 199,-221.7"/>
<polygon fill="#f5f5f5" stroke="transparent" points="201,-396.7 201,-419.7 533,-419.7 533,-396.7 201,-396.7"/>
<polygon fill="none" stroke="#000000" points="201,-396.7 201,-419.7 533,-419.7 533,-396.7 201,-396.7"/>
<text text-anchor="start" x="206" y="-405.8" font-family="Helvetica,sans-Serif" font-weight="bold" font-size="11.00" fill="#000000">ACTIVITY_TYPES</text>
<text text-anchor="start" x="498.0437" y="-404.8" font-family="Helvetica,sans-Serif" font-size="11.00" fill="#000000">[table]</text>
<polygon fill="none" stroke="#000000" points="201,-374.7 201,-396.7 362,-396.7 362,-374.7 201,-374.7"/>
<image xlink:href="../../images/primaryKeys.png" width="11px" height="12px" preserveAspectRatio="xMinYMin meet" x="206" y="-391.7"/>
<text text-anchor="start" x="221" y="-381.8" font-family="Helvetica,sans-Serif" font-size="11.00" fill="#000000">ID</text>
<polygon fill="none" stroke="#000000" points="362,-374.7 362,-396.7 533,-396.7 533,-374.7 362,-374.7"/>
<text text-anchor="start" x="365" y="-382.4" font-family="Helvetica,sans-Serif" font-size="11.00" fill="#000000">number[19]</text>
<polygon fill="none" stroke="#000000" points="201,-352.7 201,-374.7 362,-374.7 362,-352.7 201,-352.7"/>
<text text-anchor="start" x="221" y="-359.8" font-family="Helvetica,sans-Serif" font-size="11.00" fill="#000000">CREATED_AT</text>
<polygon fill="none" stroke="#000000" points="362,-352.7 362,-374.7 533,-374.7 533,-352.7 362,-352.7"/>
<text text-anchor="start" x="364.9896" y="-360.4" font-family="Helvetica,sans-Serif" font-size="11.00" fill="#000000">timestamp(6) with time zone[13,6]</text>
<polygon fill="none" stroke="#000000" points="201,-330.7 201,-352.7 362,-352.7 362,-330.7 201,-330.7"/>
<text text-anchor="start" x="221" y="-337.8" font-family="Helvetica,sans-Serif" font-size="11.00" fill="#000000">CREATED_BY</text>
<polygon fill="none" stroke="#000000" points="362,-330.7 362,-352.7 533,-352.7 533,-330.7 362,-330.7"/>
<text text-anchor="start" x="365" y="-338.4" font-family="Helvetica,sans-Serif" font-size="11.00" fill="#000000">number[19]</text>
<polygon fill="none" stroke="#000000" points="201,-308.7 201,-330.7 362,-330.7 362,-308.7 201,-308.7"/>
<text text-anchor="start" x="221" y="-315.8" font-family="Helvetica,sans-Serif" font-size="11.00" fill="#000000">UPDATED_AT</text>
<polygon fill="none" stroke="#000000" points="362,-308.7 362,-330.7 533,-330.7 533,-308.7 362,-308.7"/>
<text text-anchor="start" x="364.9896" y="-316.4" font-family="Helvetica,sans-Serif" font-size="11.00" fill="#000000">timestamp(6) with time zone[13,6]</text>
<polygon fill="none" stroke="#000000" points="201,-286.7 201,-308.7 362,-308.7 362,-286.7 201,-286.7"/>
<text text-anchor="start" x="221" y="-293.8" font-family="Helvetica,sans-Serif" font-size="11.00" fill="#000000">UPDATED_BY</text>
<polygon fill="none" stroke="#000000" points="362,-286.7 362,-308.7 533,-308.7 533,-286.7 362,-286.7"/>
<text text-anchor="start" x="365" y="-294.4" font-family="Helvetica,sans-Serif" font-size="11.00" fill="#000000">number[19]</text>
<polygon fill="none" stroke="#000000" points="201,-264.7 201,-286.7 362,-286.7 362,-264.7 201,-264.7"/>
<image xlink:href="../../images/foreignKeys.png" width="11px" height="12px" preserveAspectRatio="xMinYMin meet" x="206" y="-281.7"/>
<text text-anchor="start" x="221" y="-271.8" font-family="Helvetica,sans-Serif" font-size="11.00" fill="#000000">ACTIVITY_STATUS_ID</text>
<polygon fill="none" stroke="#000000" points="362,-264.7 362,-286.7 533,-286.7 533,-264.7 362,-264.7"/>
<text text-anchor="start" x="365" y="-272.4" font-family="Helvetica,sans-Serif" font-size="11.00" fill="#000000">number[19]</text>
<polygon fill="none" stroke="#000000" points="201,-242.7 201,-264.7 362,-264.7 362,-242.7 201,-242.7"/>
<text text-anchor="start" x="221" y="-249.8" font-family="Helvetica,sans-Serif" font-size="11.00" fill="#000000">TITLE</text>
<polygon fill="none" stroke="#000000" points="362,-242.7 362,-264.7 533,-264.7 533,-242.7 362,-242.7"/>
<text text-anchor="start" x="365" y="-250.4" font-family="Helvetica,sans-Serif" font-size="11.00" fill="#000000">varchar2[255]</text>
<polygon fill="#ffffff" stroke="transparent" points="201,-223.7 201,-242.7 270,-242.7 270,-223.7 201,-223.7"/>
<polygon fill="none" stroke="#000000" points="201,-223.7 201,-242.7 270,-242.7 270,-223.7 201,-223.7"/>
<text text-anchor="start" x="204" y="-229.8" font-family="Helvetica,sans-Serif" font-size="11.00" fill="#000000">&lt; 1</text>
<polygon fill="#ffffff" stroke="transparent" points="270,-223.7 270,-242.7 362,-242.7 362,-223.7 270,-223.7"/>
<polygon fill="none" stroke="#000000" points="270,-223.7 270,-242.7 362,-242.7 362,-223.7 270,-223.7"/>
<text text-anchor="start" x="320.4956" y="-229.8" font-family="Helvetica,sans-Serif" font-size="11.00" fill="#000000">69 rows</text>
<polygon fill="#ffffff" stroke="transparent" points="362,-223.7 362,-242.7 533,-242.7 533,-223.7 362,-223.7"/>
<polygon fill="none" stroke="#000000" points="362,-223.7 362,-242.7 533,-242.7 533,-223.7 362,-223.7"/>
<text text-anchor="start" x="514.4053" y="-229.8" font-family="Helvetica,sans-Serif" font-size="11.00" fill="#000000">3 &gt;</text>
<polygon fill="none" stroke="#000000" stroke-width="2" points="200,-222.7 200,-420.7 534,-420.7 534,-222.7 200,-222.7"/>
</a>
</g>
</g>
<!-- ACTIVITIES&#45;&gt;ACTIVITY_TYPES -->
<g id="edge1" class="edge">
<title>ACTIVITIES:w&#45;&gt;ACTIVITY_TYPES:e</title>
<path fill="none" stroke="#000000" d="M613.9512,-385.7C582.9054,-385.7 570.1389,-385.7 533,-385.7"/>
<polygon fill="#000000" stroke="#000000" points="620.5,-385.7001 628.5,-389.3 624.5,-385.7 628.5,-385.7 628.5,-385.7 628.5,-385.7 624.5,-385.7 628.5,-382.1 620.5,-385.7001 620.5,-385.7001"/>
<ellipse fill="none" stroke="#000000" cx="617.3" cy="-385.7001" rx="3.2" ry="3.2"/>
</g>
<!-- ACTIVITY_STATUS -->
<g id="node3" class="node">
<title>ACTIVITY_STATUS</title>
<g id="a_node3"><a xlink:href="../../tables/ACTIVITY_STATUS.html" xlink:title="ACTIVITY_STATUS" target="_top">
<polygon fill="#ffffff" stroke="transparent" points="8,-227.2 8,-310.2 150,-310.2 150,-227.2 8,-227.2"/>
<polygon fill="#f5f5f5" stroke="transparent" points="8,-286.7 8,-309.7 150,-309.7 150,-286.7 8,-286.7"/>
<polygon fill="none" stroke="#000000" points="8,-286.7 8,-309.7 150,-309.7 150,-286.7 8,-286.7"/>
<text text-anchor="start" x="12.9972" y="-295.8" font-family="Helvetica,sans-Serif" font-weight="bold" font-size="11.00" fill="#000000">ACTIVITY_STATUS</text>
<text text-anchor="start" x="115.5219" y="-294.8" font-family="Helvetica,sans-Serif" font-size="11.00" fill="#000000">[table]</text>
<polygon fill="none" stroke="#000000" points="8,-264.7 8,-286.7 150,-286.7 150,-264.7 8,-264.7"/>
<image xlink:href="../../images/primaryKeys.png" width="11px" height="12px" preserveAspectRatio="xMinYMin meet" x="13" y="-281.7"/>
<text text-anchor="start" x="29" y="-271.8" font-family="Helvetica,sans-Serif" font-size="11.00" fill="#000000">ID</text>
<polygon fill="none" stroke="#000000" points="8,-245.7 8,-264.7 150,-264.7 150,-245.7 8,-245.7"/>
<text text-anchor="start" x="11" y="-251.8" font-family="Helvetica,sans-Serif" font-size="11.00" fill="#000000">...</text>
<polygon fill="#ffffff" stroke="transparent" points="8,-226.7 8,-245.7 52,-245.7 52,-226.7 8,-226.7"/>
<polygon fill="none" stroke="#000000" points="8,-226.7 8,-245.7 52,-245.7 52,-226.7 8,-226.7"/>
<text text-anchor="start" x="11" y="-232.8" font-family="Helvetica,sans-Serif" font-size="11.00" fill="#000000"> &#160;</text>
<polygon fill="#ffffff" stroke="transparent" points="52,-226.7 52,-245.7 112,-245.7 112,-226.7 52,-226.7"/>
<polygon fill="none" stroke="#000000" points="52,-226.7 52,-245.7 112,-245.7 112,-226.7 52,-226.7"/>
<text text-anchor="start" x="70.4956" y="-232.8" font-family="Helvetica,sans-Serif" font-size="11.00" fill="#000000">19 rows</text>
<polygon fill="#ffffff" stroke="transparent" points="112,-226.7 112,-245.7 150,-245.7 150,-226.7 112,-226.7"/>
<polygon fill="none" stroke="#000000" points="112,-226.7 112,-245.7 150,-245.7 150,-226.7 112,-226.7"/>
<text text-anchor="start" x="131.4053" y="-232.8" font-family="Helvetica,sans-Serif" font-size="11.00" fill="#000000">1 &gt;</text>
</a>
</g>
</g>
<!-- ACTIVITY_TYPES&#45;&gt;ACTIVITY_STATUS -->
<g id="edge2" class="edge">
<title>ACTIVITY_TYPES:w&#45;&gt;ACTIVITY_STATUS:e</title>
<path fill="none" stroke="#000000" d="M186.276,-275.7C174.2815,-275.7 166.8229,-275.7 150,-275.7"/>
<polygon fill="#000000" stroke="#000000" points="193,-275.7001 201,-279.3 197,-275.7 201,-275.7 201,-275.7 201,-275.7 197,-275.7 201,-272.1 193,-275.7001 193,-275.7001"/>
<ellipse fill="none" stroke="#000000" cx="189.8" cy="-275.7001" rx="3.2" ry="3.2"/>
</g>
<!-- NOTIFICATION_SETTINGS -->
<g id="node4" class="node">
<title>NOTIFICATION_SETTINGS</title>
<g id="a_node4"><a xlink:href="../../tables/NOTIFICATION_SETTINGS.html" xlink:title="NOTIFICATION_SETTINGS" target="_top">
<polygon fill="#ffffff" stroke="transparent" points="605,-188.2 605,-315.2 794,-315.2 794,-188.2 605,-188.2"/>
<polygon fill="#f5f5f5" stroke="transparent" points="605.5,-291.7 605.5,-314.7 794.5,-314.7 794.5,-291.7 605.5,-291.7"/>
<polygon fill="none" stroke="#000000" points="605.5,-291.7 605.5,-314.7 794.5,-314.7 794.5,-291.7 605.5,-291.7"/>
<text text-anchor="start" x="610.5" y="-300.8" font-family="Helvetica,sans-Serif" font-weight="bold" font-size="11.00" fill="#000000">NOTIFICATION_SETTINGS</text>
<text text-anchor="start" x="759.5437" y="-299.8" font-family="Helvetica,sans-Serif" font-size="11.00" fill="#000000">[table]</text>
<polygon fill="none" stroke="#000000" points="605.5,-269.7 605.5,-291.7 794.5,-291.7 794.5,-269.7 605.5,-269.7"/>
<image xlink:href="../../images/primaryKeys.png" width="11px" height="12px" preserveAspectRatio="xMinYMin meet" x="610.5" y="-286.7"/>
<text text-anchor="start" x="625.5" y="-276.8" font-family="Helvetica,sans-Serif" font-size="11.00" fill="#000000">ID</text>
<polygon fill="none" stroke="#000000" points="605.5,-247.7 605.5,-269.7 794.5,-269.7 794.5,-247.7 605.5,-247.7"/>
<image xlink:href="../../images/foreignKeys.png" width="11px" height="12px" preserveAspectRatio="xMinYMin meet" x="610.5" y="-264.7"/>
<text text-anchor="start" x="625.5" y="-254.8" font-family="Helvetica,sans-Serif" font-size="11.00" fill="#000000">ACTIVITY_TYPE_ID</text>
<polygon fill="none" stroke="#000000" points="605.5,-225.7 605.5,-247.7 794.5,-247.7 794.5,-225.7 605.5,-225.7"/>
<image xlink:href="../../images/foreignKeys.png" width="11px" height="12px" preserveAspectRatio="xMinYMin meet" x="610.5" y="-242.7"/>
<text text-anchor="start" x="625.5" y="-232.8" font-family="Helvetica,sans-Serif" font-size="11.00" fill="#000000">ROLE_ID</text>
<polygon fill="none" stroke="#000000" points="605.5,-206.7 605.5,-225.7 794.5,-225.7 794.5,-206.7 605.5,-206.7"/>
<text text-anchor="start" x="608.5" y="-212.8" font-family="Helvetica,sans-Serif" font-size="11.00" fill="#000000">...</text>
<polygon fill="#ffffff" stroke="transparent" points="605.5,-187.7 605.5,-206.7 679.5,-206.7 679.5,-187.7 605.5,-187.7"/>
<polygon fill="none" stroke="#000000" points="605.5,-187.7 605.5,-206.7 679.5,-206.7 679.5,-187.7 605.5,-187.7"/>
<text text-anchor="start" x="608.5" y="-193.8" font-family="Helvetica,sans-Serif" font-size="11.00" fill="#000000">&lt; 2</text>
<polygon fill="#ffffff" stroke="transparent" points="679.5,-187.7 679.5,-206.7 755.5,-206.7 755.5,-187.7 679.5,-187.7"/>
<polygon fill="none" stroke="#000000" points="679.5,-187.7 679.5,-206.7 755.5,-206.7 755.5,-187.7 679.5,-187.7"/>
<text text-anchor="start" x="707.8807" y="-193.8" font-family="Helvetica,sans-Serif" font-size="11.00" fill="#000000">108 rows</text>
<polygon fill="#ffffff" stroke="transparent" points="755.5,-187.7 755.5,-206.7 794.5,-206.7 794.5,-187.7 755.5,-187.7"/>
<polygon fill="none" stroke="#000000" points="755.5,-187.7 755.5,-206.7 794.5,-206.7 794.5,-187.7 755.5,-187.7"/>
<text text-anchor="start" x="785.3862" y="-193.8" font-family="Helvetica,sans-Serif" font-size="11.00" fill="#000000"> &#160;</text>
</a>
</g>
</g>
<!-- NOTIFICATION_SETTINGS&#45;&gt;ACTIVITY_TYPES -->
<g id="edge3" class="edge">
<title>NOTIFICATION_SETTINGS:w&#45;&gt;ACTIVITY_TYPES:e</title>
<path fill="none" stroke="#000000" d="M591.3019,-261.3526C549.482,-279.5902 592.4088,-385.7 533,-385.7"/>
<polygon fill="#000000" stroke="#000000" points="597.6361,-260.1692 606.1612,-262.2388 601.568,-259.4346 605.5,-258.7 605.5,-258.7 605.5,-258.7 601.568,-259.4346 604.8388,-255.1612 597.6361,-260.1692 597.6361,-260.1692"/>
<ellipse fill="none" stroke="#000000" cx="594.4905" cy="-260.7569" rx="3.2" ry="3.2"/>
</g>
<!-- ROLES -->
<g id="node5" class="node">
<title>ROLES</title>
<g id="a_node5"><a xlink:href="../../tables/ROLES.html" xlink:title="ROLES" target="_top">
<polygon fill="#ffffff" stroke="transparent" points="327,-139.2 327,-200.2 407,-200.2 407,-139.2 327,-139.2"/>
<polygon fill="#f5f5f5" stroke="transparent" points="327,-176.7 327,-199.7 407,-199.7 407,-176.7 327,-176.7"/>
<polygon fill="none" stroke="#000000" points="327,-176.7 327,-199.7 407,-199.7 407,-176.7 327,-176.7"/>
<text text-anchor="start" x="331.8578" y="-185.8" font-family="Helvetica,sans-Serif" font-weight="bold" font-size="11.00" fill="#000000">ROLES</text>
<text text-anchor="start" x="372.5219" y="-184.8" font-family="Helvetica,sans-Serif" font-size="11.00" fill="#000000">[table]</text>
<polygon fill="none" stroke="#000000" points="327,-157.7 327,-176.7 407,-176.7 407,-157.7 327,-157.7"/>
<text text-anchor="start" x="330" y="-163.8" font-family="Helvetica,sans-Serif" font-size="11.00" fill="#000000">...</text>
<polygon fill="#ffffff" stroke="transparent" points="327,-138.7 327,-157.7 340,-157.7 340,-138.7 327,-138.7"/>
<polygon fill="none" stroke="#000000" points="327,-138.7 327,-157.7 340,-157.7 340,-138.7 327,-138.7"/>
<text text-anchor="start" x="330" y="-144.8" font-family="Helvetica,sans-Serif" font-size="11.00" fill="#000000"> &#160;</text>
<polygon fill="#ffffff" stroke="transparent" points="340,-138.7 340,-157.7 385,-157.7 385,-138.7 340,-138.7"/>
<polygon fill="none" stroke="#000000" points="340,-138.7 340,-157.7 385,-157.7 385,-138.7 340,-138.7"/>
<text text-anchor="start" x="343.4956" y="-144.8" font-family="Helvetica,sans-Serif" font-size="11.00" fill="#000000">11 rows</text>
<polygon fill="#ffffff" stroke="transparent" points="385,-138.7 385,-157.7 407,-157.7 407,-138.7 385,-138.7"/>
<polygon fill="none" stroke="#000000" points="385,-138.7 385,-157.7 407,-157.7 407,-138.7 385,-138.7"/>
<text text-anchor="start" x="388.4053" y="-144.8" font-family="Helvetica,sans-Serif" font-size="11.00" fill="#000000">2 &gt;</text>
</a>
</g>
</g>
<!-- NOTIFICATION_SETTINGS&#45;&gt;ROLES -->
<g id="edge4" class="edge">
<title>NOTIFICATION_SETTINGS:w&#45;&gt;ROLES:e</title>
<path fill="none" stroke="#000000" d="M591.0309,-235.272C573.0723,-231.3298 565.8341,-220.0357 543,-211.7 483.1932,-189.8671 470.6673,-166.7 407,-166.7"/>
<polygon fill="#000000" stroke="#000000" points="597.5387,-235.9142 605.1464,-240.2826 601.5193,-236.3071 605.5,-236.7 605.5,-236.7 605.5,-236.7 601.5193,-236.3071 605.8536,-233.1174 597.5387,-235.9142 597.5387,-235.9142"/>
<ellipse fill="none" stroke="#000000" cx="594.3541" cy="-235.5999" rx="3.2" ry="3.2"/>
</g>
<!-- USER_NOTIFICATION_SETTINGS -->
<g id="node6" class="node">
<title>USER_NOTIFICATION_SETTINGS</title>
<g id="a_node6"><a xlink:href="../../tables/USER_NOTIFICATION_SETTINGS.html" xlink:title="USER_NOTIFICATION_SETTINGS" target="_top">
<polygon fill="#ffffff" stroke="transparent" points="584,-38.2 584,-165.2 815,-165.2 815,-38.2 584,-38.2"/>
<polygon fill="#f5f5f5" stroke="transparent" points="584.5,-141.7 584.5,-164.7 815.5,-164.7 815.5,-141.7 584.5,-141.7"/>
<polygon fill="none" stroke="#000000" points="584.5,-141.7 584.5,-164.7 815.5,-164.7 815.5,-141.7 584.5,-141.7"/>
<text text-anchor="start" x="589.5" y="-150.8" font-family="Helvetica,sans-Serif" font-weight="bold" font-size="11.00" fill="#000000">USER_NOTIFICATION_SETTINGS</text>
<text text-anchor="start" x="780.5437" y="-149.8" font-family="Helvetica,sans-Serif" font-size="11.00" fill="#000000">[table]</text>
<polygon fill="none" stroke="#000000" points="584.5,-119.7 584.5,-141.7 815.5,-141.7 815.5,-119.7 584.5,-119.7"/>
<image xlink:href="../../images/primaryKeys.png" width="11px" height="12px" preserveAspectRatio="xMinYMin meet" x="589.5" y="-136.7"/>
<text text-anchor="start" x="604.5" y="-126.8" font-family="Helvetica,sans-Serif" font-size="11.00" fill="#000000">ID</text>
<polygon fill="none" stroke="#000000" points="584.5,-97.7 584.5,-119.7 815.5,-119.7 815.5,-97.7 584.5,-97.7"/>
<image xlink:href="../../images/foreignKeys.png" width="11px" height="12px" preserveAspectRatio="xMinYMin meet" x="589.5" y="-114.7"/>
<text text-anchor="start" x="604.5" y="-104.8" font-family="Helvetica,sans-Serif" font-size="11.00" fill="#000000">ACTIVITY_TYPE_ID</text>
<polygon fill="none" stroke="#000000" points="584.5,-75.7 584.5,-97.7 815.5,-97.7 815.5,-75.7 584.5,-75.7"/>
<image xlink:href="../../images/foreignKeys.png" width="11px" height="12px" preserveAspectRatio="xMinYMin meet" x="589.5" y="-92.7"/>
<text text-anchor="start" x="604.5" y="-82.8" font-family="Helvetica,sans-Serif" font-size="11.00" fill="#000000">USER_ID</text>
<polygon fill="none" stroke="#000000" points="584.5,-56.7 584.5,-75.7 815.5,-75.7 815.5,-56.7 584.5,-56.7"/>
<text text-anchor="start" x="587.5" y="-62.8" font-family="Helvetica,sans-Serif" font-size="11.00" fill="#000000">...</text>
<polygon fill="#ffffff" stroke="transparent" points="584.5,-37.7 584.5,-56.7 682.5,-56.7 682.5,-37.7 584.5,-37.7"/>
<polygon fill="none" stroke="#000000" points="584.5,-37.7 584.5,-56.7 682.5,-56.7 682.5,-37.7 584.5,-37.7"/>
<text text-anchor="start" x="587.5" y="-43.8" font-family="Helvetica,sans-Serif" font-size="11.00" fill="#000000">&lt; 2</text>
<polygon fill="#ffffff" stroke="transparent" points="682.5,-37.7 682.5,-56.7 764.5,-56.7 764.5,-37.7 682.5,-37.7"/>
<polygon fill="none" stroke="#000000" points="682.5,-37.7 682.5,-56.7 764.5,-56.7 764.5,-37.7 682.5,-37.7"/>
<text text-anchor="start" x="722.9956" y="-43.8" font-family="Helvetica,sans-Serif" font-size="11.00" fill="#000000">19 rows</text>
<polygon fill="#ffffff" stroke="transparent" points="764.5,-37.7 764.5,-56.7 815.5,-56.7 815.5,-37.7 764.5,-37.7"/>
<polygon fill="none" stroke="#000000" points="764.5,-37.7 764.5,-56.7 815.5,-56.7 815.5,-37.7 764.5,-37.7"/>
<text text-anchor="start" x="806.3862" y="-43.8" font-family="Helvetica,sans-Serif" font-size="11.00" fill="#000000"> &#160;</text>
</a>
</g>
</g>
<!-- USER_NOTIFICATION_SETTINGS&#45;&gt;ACTIVITY_TYPES -->
<g id="edge5" class="edge">
<title>USER_NOTIFICATION_SETTINGS:w&#45;&gt;ACTIVITY_TYPES:e</title>
<path fill="none" stroke="#000000" d="M571.2057,-114.4855C533.5535,-154.2637 590.2298,-385.7 533,-385.7"/>
<polygon fill="#000000" stroke="#000000" points="577.1645,-111.8924 585.9366,-112.001 580.8323,-110.2962 584.5,-108.7 584.5,-108.7 584.5,-108.7 580.8323,-110.2962 583.0634,-105.399 577.1645,-111.8924 577.1645,-111.8924"/>
<ellipse fill="none" stroke="#000000" cx="574.2303" cy="-113.1693" rx="3.2" ry="3.2"/>
</g>
<!-- USERS -->
<g id="node7" class="node">
<title>USERS</title>
<g id="a_node7"><a xlink:href="../../tables/USERS.html" xlink:title="USERS" target="_top">
<polygon fill="#ffffff" stroke="transparent" points="327,-57.2 327,-118.2 407,-118.2 407,-57.2 327,-57.2"/>
<polygon fill="#f5f5f5" stroke="transparent" points="327,-94.7 327,-117.7 407,-117.7 407,-94.7 327,-94.7"/>
<polygon fill="none" stroke="#000000" points="327,-94.7 327,-117.7 407,-117.7 407,-94.7 327,-94.7"/>
<text text-anchor="start" x="331.5553" y="-103.8" font-family="Helvetica,sans-Serif" font-weight="bold" font-size="11.00" fill="#000000">USERS</text>
<text text-anchor="start" x="372.5219" y="-102.8" font-family="Helvetica,sans-Serif" font-size="11.00" fill="#000000">[table]</text>
<polygon fill="none" stroke="#000000" points="327,-75.7 327,-94.7 407,-94.7 407,-75.7 327,-75.7"/>
<text text-anchor="start" x="330" y="-81.8" font-family="Helvetica,sans-Serif" font-size="11.00" fill="#000000">...</text>
<polygon fill="#ffffff" stroke="transparent" points="327,-56.7 327,-75.7 340,-75.7 340,-56.7 327,-56.7"/>
<polygon fill="none" stroke="#000000" points="327,-56.7 327,-75.7 340,-75.7 340,-56.7 327,-56.7"/>
<text text-anchor="start" x="330" y="-62.8" font-family="Helvetica,sans-Serif" font-size="11.00" fill="#000000"> &#160;</text>
<polygon fill="#ffffff" stroke="transparent" points="340,-56.7 340,-75.7 385,-75.7 385,-56.7 340,-56.7"/>
<polygon fill="none" stroke="#000000" points="340,-56.7 340,-75.7 385,-75.7 385,-56.7 340,-56.7"/>
<text text-anchor="start" x="343.4956" y="-62.8" font-family="Helvetica,sans-Serif" font-size="11.00" fill="#000000">33 rows</text>
<polygon fill="#ffffff" stroke="transparent" points="385,-56.7 385,-75.7 407,-75.7 407,-56.7 385,-56.7"/>
<polygon fill="none" stroke="#000000" points="385,-56.7 385,-75.7 407,-75.7 407,-56.7 385,-56.7"/>
<text text-anchor="start" x="388.4053" y="-62.8" font-family="Helvetica,sans-Serif" font-size="11.00" fill="#000000">9 &gt;</text>
</a>
</g>
</g>
<!-- USER_NOTIFICATION_SETTINGS&#45;&gt;USERS -->
<g id="edge6" class="edge">
<title>USER_NOTIFICATION_SETTINGS:w&#45;&gt;USERS:e</title>
<path fill="none" stroke="#000000" d="M569.951,-86.6761C502.8192,-86.4505 480.8089,-84.7 407,-84.7"/>
<polygon fill="#000000" stroke="#000000" points="576.5,-86.6868 584.4941,-90.3 580.5,-86.6934 584.5,-86.7 584.5,-86.7 584.5,-86.7 580.5,-86.6934 584.5059,-83.1 576.5,-86.6868 576.5,-86.6868"/>
<ellipse fill="none" stroke="#000000" cx="573.3" cy="-86.6816" rx="3.2" ry="3.2"/>
</g>
</g>
</svg>
