<?xml version="1.0" encoding="UTF-8" standalone="no"?>
<!DOCTYPE svg PUBLIC "-//W3C//DTD SVG 1.1//EN"
 "http://www.w3.org/Graphics/SVG/1.1/DTD/svg11.dtd">
<!-- Generated by graphviz version 2.40.1 (20161225.0304)
 -->
<!-- Title: oneDegreeRelationshipsDiagram Pages: 1 -->
<svg width="732pt" height="561pt"
 viewBox="0.00 0.00 732.00 561.20" xmlns="http://www.w3.org/2000/svg" xmlns:xlink="http://www.w3.org/1999/xlink">
<g id="graph0" class="graph" transform="scale(1 1) rotate(0) translate(4 557.2)">
<title>oneDegreeRelationshipsDiagram</title>
<polygon fill="#ffffff" stroke="transparent" points="-4,4 -4,-557.2 728,-557.2 728,4 -4,4"/>
<text text-anchor="middle" x="72.4936" y="-7.3" font-family="Helvetica,sans-Serif" font-size="11.00" fill="#000000">Generated by SchemaSpy</text>
<!-- IN_HOUSE_ASSAYS -->
<g id="node1" class="node">
<title>IN_HOUSE_ASSAYS</title>
<g id="a_node1"><a xlink:href="../../tables/IN_HOUSE_ASSAYS.html" xlink:title="IN_HOUSE_ASSAYS" target="_top">
<polygon fill="#ffffff" stroke="transparent" points="434.5,-378.2 434.5,-549.2 627.5,-549.2 627.5,-378.2 434.5,-378.2"/>
<polygon fill="#f5f5f5" stroke="transparent" points="435,-525.7 435,-548.7 628,-548.7 628,-525.7 435,-525.7"/>
<polygon fill="none" stroke="#000000" points="435,-525.7 435,-548.7 628,-548.7 628,-525.7 435,-525.7"/>
<text text-anchor="start" x="440" y="-534.8" font-family="Helvetica,sans-Serif" font-weight="bold" font-size="11.00" fill="#000000">IN_HOUSE_ASSAYS</text>
<text text-anchor="start" x="593.0437" y="-533.8" font-family="Helvetica,sans-Serif" font-size="11.00" fill="#000000">[table]</text>
<polygon fill="none" stroke="#000000" points="435,-503.7 435,-525.7 628,-525.7 628,-503.7 435,-503.7"/>
<image xlink:href="../../images/primaryKeys.png" width="11px" height="12px" preserveAspectRatio="xMinYMin meet" x="440" y="-520.7"/>
<text text-anchor="start" x="455" y="-510.8" font-family="Helvetica,sans-Serif" font-size="11.00" fill="#000000">ID</text>
<polygon fill="none" stroke="#000000" points="435,-481.7 435,-503.7 628,-503.7 628,-481.7 435,-481.7"/>
<image xlink:href="../../images/foreignKeys.png" width="11px" height="12px" preserveAspectRatio="xMinYMin meet" x="440" y="-498.7"/>
<text text-anchor="start" x="455" y="-488.8" font-family="Helvetica,sans-Serif" font-size="11.00" fill="#000000">ASSAY_AFFINITY_TYPE_ID</text>
<polygon fill="none" stroke="#000000" points="435,-459.7 435,-481.7 628,-481.7 628,-459.7 435,-459.7"/>
<image xlink:href="../../images/foreignKeys.png" width="11px" height="12px" preserveAspectRatio="xMinYMin meet" x="440" y="-476.7"/>
<text text-anchor="start" x="455" y="-466.8" font-family="Helvetica,sans-Serif" font-size="11.00" fill="#000000">ASSAY_TYPE_ID</text>
<polygon fill="none" stroke="#000000" points="435,-437.7 435,-459.7 628,-459.7 628,-437.7 435,-437.7"/>
<image xlink:href="../../images/foreignKeys.png" width="11px" height="12px" preserveAspectRatio="xMinYMin meet" x="440" y="-454.7"/>
<text text-anchor="start" x="455" y="-444.8" font-family="Helvetica,sans-Serif" font-size="11.00" fill="#000000">TRACER_LIGAND_ID</text>
<polygon fill="none" stroke="#000000" points="435,-415.7 435,-437.7 628,-437.7 628,-415.7 435,-415.7"/>
<image xlink:href="../../images/foreignKeys.png" width="11px" height="12px" preserveAspectRatio="xMinYMin meet" x="440" y="-432.7"/>
<text text-anchor="start" x="455" y="-422.8" font-family="Helvetica,sans-Serif" font-size="11.00" fill="#000000">TARGET_FORM_ID</text>
<polygon fill="none" stroke="#000000" points="435,-396.7 435,-415.7 628,-415.7 628,-396.7 435,-396.7"/>
<text text-anchor="start" x="438" y="-402.8" font-family="Helvetica,sans-Serif" font-size="11.00" fill="#000000">...</text>
<polygon fill="#ffffff" stroke="transparent" points="435,-377.7 435,-396.7 509,-396.7 509,-377.7 435,-377.7"/>
<polygon fill="none" stroke="#000000" points="435,-377.7 435,-396.7 509,-396.7 509,-377.7 435,-377.7"/>
<text text-anchor="start" x="438" y="-383.8" font-family="Helvetica,sans-Serif" font-size="11.00" fill="#000000">&lt; 4</text>
<polygon fill="#ffffff" stroke="transparent" points="509,-377.7 509,-396.7 580,-396.7 580,-377.7 509,-377.7"/>
<polygon fill="none" stroke="#000000" points="509,-377.7 509,-396.7 580,-396.7 580,-377.7 509,-377.7"/>
<text text-anchor="start" x="538.4956" y="-383.8" font-family="Helvetica,sans-Serif" font-size="11.00" fill="#000000">51 rows</text>
<polygon fill="#ffffff" stroke="transparent" points="580,-377.7 580,-396.7 628,-396.7 628,-377.7 580,-377.7"/>
<polygon fill="none" stroke="#000000" points="580,-377.7 580,-396.7 628,-396.7 628,-377.7 580,-377.7"/>
<text text-anchor="start" x="609.4053" y="-383.8" font-family="Helvetica,sans-Serif" font-size="11.00" fill="#000000">1 &gt;</text>
</a>
</g>
</g>
<!-- ASSAY_TYPES -->
<g id="node2" class="node">
<title>ASSAY_TYPES</title>
<g id="a_node2"><a xlink:href="../../tables/ASSAY_TYPES.html" xlink:title="ASSAY_TYPES" target="_top">
<polygon fill="#ffffff" stroke="transparent" points="8,-136.7 8,-314.7 297,-314.7 297,-136.7 8,-136.7"/>
<polygon fill="#f5f5f5" stroke="transparent" points="10.5,-289.7 10.5,-312.7 295.5,-312.7 295.5,-289.7 10.5,-289.7"/>
<polygon fill="none" stroke="#000000" points="10.5,-289.7 10.5,-312.7 295.5,-312.7 295.5,-289.7 10.5,-289.7"/>
<text text-anchor="start" x="15.5" y="-298.8" font-family="Helvetica,sans-Serif" font-weight="bold" font-size="11.00" fill="#000000">ASSAY_TYPES</text>
<text text-anchor="start" x="260.5437" y="-297.8" font-family="Helvetica,sans-Serif" font-size="11.00" fill="#000000">[table]</text>
<polygon fill="none" stroke="#000000" points="10.5,-267.7 10.5,-289.7 124.5,-289.7 124.5,-267.7 10.5,-267.7"/>
<image xlink:href="../../images/primaryKeys.png" width="11px" height="12px" preserveAspectRatio="xMinYMin meet" x="15.5" y="-284.7"/>
<text text-anchor="start" x="30.5" y="-274.8" font-family="Helvetica,sans-Serif" font-size="11.00" fill="#000000">ID</text>
<polygon fill="none" stroke="#000000" points="124.5,-267.7 124.5,-289.7 295.5,-289.7 295.5,-267.7 124.5,-267.7"/>
<text text-anchor="start" x="127.5" y="-275.4" font-family="Helvetica,sans-Serif" font-size="11.00" fill="#000000">number[19]</text>
<polygon fill="none" stroke="#000000" points="10.5,-245.7 10.5,-267.7 124.5,-267.7 124.5,-245.7 10.5,-245.7"/>
<text text-anchor="start" x="30.5" y="-252.8" font-family="Helvetica,sans-Serif" font-size="11.00" fill="#000000">CREATED_AT</text>
<polygon fill="none" stroke="#000000" points="124.5,-245.7 124.5,-267.7 295.5,-267.7 295.5,-245.7 124.5,-245.7"/>
<text text-anchor="start" x="127.4896" y="-253.4" font-family="Helvetica,sans-Serif" font-size="11.00" fill="#000000">timestamp(6) with time zone[13,6]</text>
<polygon fill="none" stroke="#000000" points="10.5,-223.7 10.5,-245.7 124.5,-245.7 124.5,-223.7 10.5,-223.7"/>
<text text-anchor="start" x="30.5" y="-230.8" font-family="Helvetica,sans-Serif" font-size="11.00" fill="#000000">CREATED_BY</text>
<polygon fill="none" stroke="#000000" points="124.5,-223.7 124.5,-245.7 295.5,-245.7 295.5,-223.7 124.5,-223.7"/>
<text text-anchor="start" x="127.5" y="-231.4" font-family="Helvetica,sans-Serif" font-size="11.00" fill="#000000">number[19]</text>
<polygon fill="none" stroke="#000000" points="10.5,-201.7 10.5,-223.7 124.5,-223.7 124.5,-201.7 10.5,-201.7"/>
<text text-anchor="start" x="30.5" y="-208.8" font-family="Helvetica,sans-Serif" font-size="11.00" fill="#000000">UPDATED_AT</text>
<polygon fill="none" stroke="#000000" points="124.5,-201.7 124.5,-223.7 295.5,-223.7 295.5,-201.7 124.5,-201.7"/>
<text text-anchor="start" x="127.4896" y="-209.4" font-family="Helvetica,sans-Serif" font-size="11.00" fill="#000000">timestamp(6) with time zone[13,6]</text>
<polygon fill="none" stroke="#000000" points="10.5,-179.7 10.5,-201.7 124.5,-201.7 124.5,-179.7 10.5,-179.7"/>
<text text-anchor="start" x="30.5" y="-186.8" font-family="Helvetica,sans-Serif" font-size="11.00" fill="#000000">UPDATED_BY</text>
<polygon fill="none" stroke="#000000" points="124.5,-179.7 124.5,-201.7 295.5,-201.7 295.5,-179.7 124.5,-179.7"/>
<text text-anchor="start" x="127.5" y="-187.4" font-family="Helvetica,sans-Serif" font-size="11.00" fill="#000000">number[19]</text>
<polygon fill="none" stroke="#000000" points="10.5,-157.7 10.5,-179.7 124.5,-179.7 124.5,-157.7 10.5,-157.7"/>
<text text-anchor="start" x="30.5" y="-164.8" font-family="Helvetica,sans-Serif" font-size="11.00" fill="#000000">NAME</text>
<polygon fill="none" stroke="#000000" points="124.5,-157.7 124.5,-179.7 295.5,-179.7 295.5,-157.7 124.5,-157.7"/>
<text text-anchor="start" x="127.5" y="-165.4" font-family="Helvetica,sans-Serif" font-size="11.00" fill="#000000">varchar2[255]</text>
<polygon fill="#ffffff" stroke="transparent" points="10.5,-138.7 10.5,-157.7 55.5,-157.7 55.5,-138.7 10.5,-138.7"/>
<polygon fill="none" stroke="#000000" points="10.5,-138.7 10.5,-157.7 55.5,-157.7 55.5,-138.7 10.5,-138.7"/>
<text text-anchor="start" x="13.5" y="-144.8" font-family="Helvetica,sans-Serif" font-size="11.00" fill="#000000">&lt; 0</text>
<polygon fill="#ffffff" stroke="transparent" points="55.5,-138.7 55.5,-157.7 124.5,-157.7 124.5,-138.7 55.5,-138.7"/>
<polygon fill="none" stroke="#000000" points="55.5,-138.7 55.5,-157.7 124.5,-157.7 124.5,-138.7 55.5,-138.7"/>
<text text-anchor="start" x="82.9956" y="-144.8" font-family="Helvetica,sans-Serif" font-size="11.00" fill="#000000">10 rows</text>
<polygon fill="#ffffff" stroke="transparent" points="124.5,-138.7 124.5,-157.7 295.5,-157.7 295.5,-138.7 124.5,-138.7"/>
<polygon fill="none" stroke="#000000" points="124.5,-138.7 124.5,-157.7 295.5,-157.7 295.5,-138.7 124.5,-138.7"/>
<text text-anchor="start" x="276.9053" y="-144.8" font-family="Helvetica,sans-Serif" font-size="11.00" fill="#000000">3 &gt;</text>
<polygon fill="none" stroke="#000000" stroke-width="2" points="9,-137.7 9,-313.7 296,-313.7 296,-137.7 9,-137.7"/>
</a>
</g>
</g>
<!-- IN_HOUSE_ASSAYS&#45;&gt;ASSAY_TYPES -->
<g id="edge1" class="edge">
<title>IN_HOUSE_ASSAYS:w&#45;&gt;ASSAY_TYPES:e</title>
<path fill="none" stroke="#000000" d="M420.4571,-469.6482C372.0944,-462.1085 370.5458,-415.2253 338,-367.7 313.2328,-331.5335 339.3341,-278.7 295.5,-278.7"/>
<polygon fill="#000000" stroke="#000000" points="427.0208,-470.1229 434.7403,-474.2906 431.0104,-470.4114 435,-470.7 435,-470.7 435,-470.7 431.0104,-470.4114 435.2597,-467.1094 427.0208,-470.1229 427.0208,-470.1229"/>
<ellipse fill="none" stroke="#000000" cx="423.8292" cy="-469.892" rx="3.2" ry="3.2"/>
</g>
<!-- LITERATURE_ASSAYS -->
<g id="node3" class="node">
<title>LITERATURE_ASSAYS</title>
<g id="a_node3"><a xlink:href="../../tables/LITERATURE_ASSAYS.html" xlink:title="LITERATURE_ASSAYS" target="_top">
<polygon fill="#ffffff" stroke="transparent" points="434.5,-208.2 434.5,-357.2 627.5,-357.2 627.5,-208.2 434.5,-208.2"/>
<polygon fill="#f5f5f5" stroke="transparent" points="435,-333.7 435,-356.7 628,-356.7 628,-333.7 435,-333.7"/>
<polygon fill="none" stroke="#000000" points="435,-333.7 435,-356.7 628,-356.7 628,-333.7 435,-333.7"/>
<text text-anchor="start" x="440" y="-342.8" font-family="Helvetica,sans-Serif" font-weight="bold" font-size="11.00" fill="#000000">LITERATURE_ASSAYS</text>
<text text-anchor="start" x="593.0437" y="-341.8" font-family="Helvetica,sans-Serif" font-size="11.00" fill="#000000">[table]</text>
<polygon fill="none" stroke="#000000" points="435,-311.7 435,-333.7 628,-333.7 628,-311.7 435,-311.7"/>
<image xlink:href="../../images/primaryKeys.png" width="11px" height="12px" preserveAspectRatio="xMinYMin meet" x="440" y="-328.7"/>
<text text-anchor="start" x="455" y="-318.8" font-family="Helvetica,sans-Serif" font-size="11.00" fill="#000000">ID</text>
<polygon fill="none" stroke="#000000" points="435,-289.7 435,-311.7 628,-311.7 628,-289.7 435,-289.7"/>
<image xlink:href="../../images/foreignKeys.png" width="11px" height="12px" preserveAspectRatio="xMinYMin meet" x="440" y="-306.7"/>
<text text-anchor="start" x="455" y="-296.8" font-family="Helvetica,sans-Serif" font-size="11.00" fill="#000000">ASSAY_AFFINITY_TYPE_ID</text>
<polygon fill="none" stroke="#000000" points="435,-267.7 435,-289.7 628,-289.7 628,-267.7 435,-267.7"/>
<image xlink:href="../../images/foreignKeys.png" width="11px" height="12px" preserveAspectRatio="xMinYMin meet" x="440" y="-284.7"/>
<text text-anchor="start" x="455" y="-274.8" font-family="Helvetica,sans-Serif" font-size="11.00" fill="#000000">ASSAY_TYPE_ID</text>
<polygon fill="none" stroke="#000000" points="435,-245.7 435,-267.7 628,-267.7 628,-245.7 435,-245.7"/>
<image xlink:href="../../images/foreignKeys.png" width="11px" height="12px" preserveAspectRatio="xMinYMin meet" x="440" y="-262.7"/>
<text text-anchor="start" x="455" y="-252.8" font-family="Helvetica,sans-Serif" font-size="11.00" fill="#000000">TRACER_LIGAND_ID</text>
<polygon fill="none" stroke="#000000" points="435,-226.7 435,-245.7 628,-245.7 628,-226.7 435,-226.7"/>
<text text-anchor="start" x="438" y="-232.8" font-family="Helvetica,sans-Serif" font-size="11.00" fill="#000000">...</text>
<polygon fill="#ffffff" stroke="transparent" points="435,-207.7 435,-226.7 509,-226.7 509,-207.7 435,-207.7"/>
<polygon fill="none" stroke="#000000" points="435,-207.7 435,-226.7 509,-226.7 509,-207.7 435,-207.7"/>
<text text-anchor="start" x="438" y="-213.8" font-family="Helvetica,sans-Serif" font-size="11.00" fill="#000000">&lt; 3</text>
<polygon fill="#ffffff" stroke="transparent" points="509,-207.7 509,-226.7 580,-226.7 580,-207.7 509,-207.7"/>
<polygon fill="none" stroke="#000000" points="509,-207.7 509,-226.7 580,-226.7 580,-207.7 509,-207.7"/>
<text text-anchor="start" x="538.4956" y="-213.8" font-family="Helvetica,sans-Serif" font-size="11.00" fill="#000000">25 rows</text>
<polygon fill="#ffffff" stroke="transparent" points="580,-207.7 580,-226.7 628,-226.7 628,-207.7 580,-207.7"/>
<polygon fill="none" stroke="#000000" points="580,-207.7 580,-226.7 628,-226.7 628,-207.7 580,-207.7"/>
<text text-anchor="start" x="609.4053" y="-213.8" font-family="Helvetica,sans-Serif" font-size="11.00" fill="#000000">1 &gt;</text>
</a>
</g>
</g>
<!-- LITERATURE_ASSAYS&#45;&gt;ASSAY_TYPES -->
<g id="edge2" class="edge">
<title>LITERATURE_ASSAYS:w&#45;&gt;ASSAY_TYPES:e</title>
<path fill="none" stroke="#000000" d="M420.3078,-278.7C370.0685,-278.7 352.293,-278.7 295.5,-278.7"/>
<polygon fill="#000000" stroke="#000000" points="427,-278.7001 435,-282.3 431,-278.7 435,-278.7 435,-278.7 435,-278.7 431,-278.7 435,-275.1 427,-278.7001 427,-278.7001"/>
<ellipse fill="none" stroke="#000000" cx="423.8" cy="-278.7001" rx="3.2" ry="3.2"/>
</g>
<!-- SUPPLEMENTS_ASSAY_TYPES_BINDING_CONSTANTS -->
<g id="node4" class="node">
<title>SUPPLEMENTS_ASSAY_TYPES_BINDING_CONSTANTS</title>
<g id="a_node4"><a xlink:href="../../tables/SUPPLEMENTS_ASSAY_TYPES_BINDING_CONSTANTS.html" xlink:title="SUPPLEMENTS_ASSAY_TYPES_BINDING_CONSTANTS" target="_top">
<polygon fill="#ffffff" stroke="transparent" points="346,-38.2 346,-187.2 716,-187.2 716,-38.2 346,-38.2"/>
<polygon fill="#f5f5f5" stroke="transparent" points="346,-163.7 346,-186.7 716,-186.7 716,-163.7 346,-163.7"/>
<polygon fill="none" stroke="#000000" points="346,-163.7 346,-186.7 716,-186.7 716,-163.7 346,-163.7"/>
<text text-anchor="start" x="351" y="-172.8" font-family="Helvetica,sans-Serif" font-weight="bold" font-size="11.00" fill="#000000">SUPPLEMENTS_ASSAY_TYPES_BINDING_CONSTANTS</text>
<text text-anchor="start" x="681.0437" y="-171.8" font-family="Helvetica,sans-Serif" font-size="11.00" fill="#000000">[table]</text>
<polygon fill="none" stroke="#000000" points="346,-141.7 346,-163.7 716,-163.7 716,-141.7 346,-141.7"/>
<image xlink:href="../../images/primaryKeys.png" width="11px" height="12px" preserveAspectRatio="xMinYMin meet" x="351" y="-158.7"/>
<text text-anchor="start" x="366" y="-148.8" font-family="Helvetica,sans-Serif" font-size="11.00" fill="#000000">ID</text>
<polygon fill="none" stroke="#000000" points="346,-119.7 346,-141.7 716,-141.7 716,-119.7 346,-119.7"/>
<image xlink:href="../../images/foreignKeys.png" width="11px" height="12px" preserveAspectRatio="xMinYMin meet" x="351" y="-136.7"/>
<text text-anchor="start" x="366" y="-126.8" font-family="Helvetica,sans-Serif" font-size="11.00" fill="#000000">SUPPLEMENT_ID</text>
<polygon fill="none" stroke="#000000" points="346,-97.7 346,-119.7 716,-119.7 716,-97.7 346,-97.7"/>
<image xlink:href="../../images/foreignKeys.png" width="11px" height="12px" preserveAspectRatio="xMinYMin meet" x="351" y="-114.7"/>
<text text-anchor="start" x="366" y="-104.8" font-family="Helvetica,sans-Serif" font-size="11.00" fill="#000000">ASSAY_TYPE_ID</text>
<polygon fill="none" stroke="#000000" points="346,-75.7 346,-97.7 716,-97.7 716,-75.7 346,-75.7"/>
<image xlink:href="../../images/foreignKeys.png" width="11px" height="12px" preserveAspectRatio="xMinYMin meet" x="351" y="-92.7"/>
<text text-anchor="start" x="366" y="-82.8" font-family="Helvetica,sans-Serif" font-size="11.00" fill="#000000">BINDING_CONSTANT_ID</text>
<polygon fill="none" stroke="#000000" points="346,-56.7 346,-75.7 716,-75.7 716,-56.7 346,-56.7"/>
<text text-anchor="start" x="349" y="-62.8" font-family="Helvetica,sans-Serif" font-size="11.00" fill="#000000">...</text>
<polygon fill="#ffffff" stroke="transparent" points="346,-37.7 346,-56.7 513,-56.7 513,-37.7 346,-37.7"/>
<polygon fill="none" stroke="#000000" points="346,-37.7 346,-56.7 513,-56.7 513,-37.7 346,-37.7"/>
<text text-anchor="start" x="349" y="-43.8" font-family="Helvetica,sans-Serif" font-size="11.00" fill="#000000">&lt; 3</text>
<polygon fill="#ffffff" stroke="transparent" points="513,-37.7 513,-56.7 630,-56.7 630,-37.7 513,-37.7"/>
<polygon fill="none" stroke="#000000" points="513,-37.7 513,-56.7 630,-56.7 630,-37.7 513,-37.7"/>
<text text-anchor="start" x="588.4956" y="-43.8" font-family="Helvetica,sans-Serif" font-size="11.00" fill="#000000">62 rows</text>
<polygon fill="#ffffff" stroke="transparent" points="630,-37.7 630,-56.7 716,-56.7 716,-37.7 630,-37.7"/>
<polygon fill="none" stroke="#000000" points="630,-37.7 630,-56.7 716,-56.7 716,-37.7 630,-37.7"/>
<text text-anchor="start" x="706.8862" y="-43.8" font-family="Helvetica,sans-Serif" font-size="11.00" fill="#000000"> &#160;</text>
</a>
</g>
</g>
<!-- SUPPLEMENTS_ASSAY_TYPES_BINDING_CONSTANTS&#45;&gt;ASSAY_TYPES -->
<g id="edge3" class="edge">
<title>SUPPLEMENTS_ASSAY_TYPES_BINDING_CONSTANTS:w&#45;&gt;ASSAY_TYPES:e</title>
<path fill="none" stroke="#000000" d="M331.6854,-111.2351C281.6948,-132.3825 368.6229,-278.7 295.5,-278.7"/>
<polygon fill="#000000" stroke="#000000" points="338.1226,-110.0951 346.6278,-112.2448 342.0613,-109.3976 346,-108.7 346,-108.7 346,-108.7 342.0613,-109.3976 345.3722,-105.1552 338.1226,-110.0951 338.1226,-110.0951"/>
<ellipse fill="none" stroke="#000000" cx="334.9716" cy="-110.6532" rx="3.2" ry="3.2"/>
</g>
</g>
</svg>
