<?xml version="1.0" encoding="UTF-8" standalone="no"?>
<!DOCTYPE svg PUBLIC "-//W3C//DTD SVG 1.1//EN"
 "http://www.w3.org/Graphics/SVG/1.1/DTD/svg11.dtd">
<!-- Generated by graphviz version 2.40.1 (20161225.0304)
 -->
<!-- Title: oneDegreeRelationshipsDiagram Pages: 1 -->
<svg width="622pt" height="391pt"
 viewBox="0.00 0.00 622.00 391.20" xmlns="http://www.w3.org/2000/svg" xmlns:xlink="http://www.w3.org/1999/xlink">
<g id="graph0" class="graph" transform="scale(1 1) rotate(0) translate(4 387.2)">
<title>oneDegreeRelationshipsDiagram</title>
<polygon fill="#ffffff" stroke="transparent" points="-4,4 -4,-387.2 618,-387.2 618,4 -4,4"/>
<text text-anchor="middle" x="72.4936" y="-7.3" font-family="Helvetica,sans-Serif" font-size="11.00" fill="#000000">Generated by SchemaSpy</text>
<!-- IN_HOUSE_ASSAYS -->
<g id="node1" class="node">
<title>IN_HOUSE_ASSAYS</title>
<g id="a_node1"><a xlink:href="../../tables/IN_HOUSE_ASSAYS.html" xlink:title="IN_HOUSE_ASSAYS" target="_top">
<polygon fill="#ffffff" stroke="transparent" points="413,-208.2 413,-379.2 606,-379.2 606,-208.2 413,-208.2"/>
<polygon fill="#f5f5f5" stroke="transparent" points="413.5,-355.7 413.5,-378.7 606.5,-378.7 606.5,-355.7 413.5,-355.7"/>
<polygon fill="none" stroke="#000000" points="413.5,-355.7 413.5,-378.7 606.5,-378.7 606.5,-355.7 413.5,-355.7"/>
<text text-anchor="start" x="418.5" y="-364.8" font-family="Helvetica,sans-Serif" font-weight="bold" font-size="11.00" fill="#000000">IN_HOUSE_ASSAYS</text>
<text text-anchor="start" x="571.5437" y="-363.8" font-family="Helvetica,sans-Serif" font-size="11.00" fill="#000000">[table]</text>
<polygon fill="none" stroke="#000000" points="413.5,-333.7 413.5,-355.7 606.5,-355.7 606.5,-333.7 413.5,-333.7"/>
<image xlink:href="../../images/primaryKeys.png" width="11px" height="12px" preserveAspectRatio="xMinYMin meet" x="418.5" y="-350.7"/>
<text text-anchor="start" x="433.5" y="-340.8" font-family="Helvetica,sans-Serif" font-size="11.00" fill="#000000">ID</text>
<polygon fill="none" stroke="#000000" points="413.5,-311.7 413.5,-333.7 606.5,-333.7 606.5,-311.7 413.5,-311.7"/>
<image xlink:href="../../images/foreignKeys.png" width="11px" height="12px" preserveAspectRatio="xMinYMin meet" x="418.5" y="-328.7"/>
<text text-anchor="start" x="433.5" y="-318.8" font-family="Helvetica,sans-Serif" font-size="11.00" fill="#000000">ASSAY_AFFINITY_TYPE_ID</text>
<polygon fill="none" stroke="#000000" points="413.5,-289.7 413.5,-311.7 606.5,-311.7 606.5,-289.7 413.5,-289.7"/>
<image xlink:href="../../images/foreignKeys.png" width="11px" height="12px" preserveAspectRatio="xMinYMin meet" x="418.5" y="-306.7"/>
<text text-anchor="start" x="433.5" y="-296.8" font-family="Helvetica,sans-Serif" font-size="11.00" fill="#000000">ASSAY_TYPE_ID</text>
<polygon fill="none" stroke="#000000" points="413.5,-267.7 413.5,-289.7 606.5,-289.7 606.5,-267.7 413.5,-267.7"/>
<image xlink:href="../../images/foreignKeys.png" width="11px" height="12px" preserveAspectRatio="xMinYMin meet" x="418.5" y="-284.7"/>
<text text-anchor="start" x="433.5" y="-274.8" font-family="Helvetica,sans-Serif" font-size="11.00" fill="#000000">TRACER_LIGAND_ID</text>
<polygon fill="none" stroke="#000000" points="413.5,-245.7 413.5,-267.7 606.5,-267.7 606.5,-245.7 413.5,-245.7"/>
<image xlink:href="../../images/foreignKeys.png" width="11px" height="12px" preserveAspectRatio="xMinYMin meet" x="418.5" y="-262.7"/>
<text text-anchor="start" x="433.5" y="-252.8" font-family="Helvetica,sans-Serif" font-size="11.00" fill="#000000">TARGET_FORM_ID</text>
<polygon fill="none" stroke="#000000" points="413.5,-226.7 413.5,-245.7 606.5,-245.7 606.5,-226.7 413.5,-226.7"/>
<text text-anchor="start" x="416.5" y="-232.8" font-family="Helvetica,sans-Serif" font-size="11.00" fill="#000000">...</text>
<polygon fill="#ffffff" stroke="transparent" points="413.5,-207.7 413.5,-226.7 487.5,-226.7 487.5,-207.7 413.5,-207.7"/>
<polygon fill="none" stroke="#000000" points="413.5,-207.7 413.5,-226.7 487.5,-226.7 487.5,-207.7 413.5,-207.7"/>
<text text-anchor="start" x="416.5" y="-213.8" font-family="Helvetica,sans-Serif" font-size="11.00" fill="#000000">&lt; 4</text>
<polygon fill="#ffffff" stroke="transparent" points="487.5,-207.7 487.5,-226.7 558.5,-226.7 558.5,-207.7 487.5,-207.7"/>
<polygon fill="none" stroke="#000000" points="487.5,-207.7 487.5,-226.7 558.5,-226.7 558.5,-207.7 487.5,-207.7"/>
<text text-anchor="start" x="516.9956" y="-213.8" font-family="Helvetica,sans-Serif" font-size="11.00" fill="#000000">51 rows</text>
<polygon fill="#ffffff" stroke="transparent" points="558.5,-207.7 558.5,-226.7 606.5,-226.7 606.5,-207.7 558.5,-207.7"/>
<polygon fill="none" stroke="#000000" points="558.5,-207.7 558.5,-226.7 606.5,-226.7 606.5,-207.7 558.5,-207.7"/>
<text text-anchor="start" x="587.9053" y="-213.8" font-family="Helvetica,sans-Serif" font-size="11.00" fill="#000000">1 &gt;</text>
</a>
</g>
</g>
<!-- ASSAY_AFFINITY_TYPES -->
<g id="node2" class="node">
<title>ASSAY_AFFINITY_TYPES</title>
<g id="a_node2"><a xlink:href="../../tables/ASSAY_AFFINITY_TYPES.html" xlink:title="ASSAY_AFFINITY_TYPES" target="_top">
<polygon fill="#ffffff" stroke="transparent" points="8,-84.7 8,-262.7 364,-262.7 364,-84.7 8,-84.7"/>
<polygon fill="#f5f5f5" stroke="transparent" points="10,-237.7 10,-260.7 362,-260.7 362,-237.7 10,-237.7"/>
<polygon fill="none" stroke="#000000" points="10,-237.7 10,-260.7 362,-260.7 362,-237.7 10,-237.7"/>
<text text-anchor="start" x="15" y="-246.8" font-family="Helvetica,sans-Serif" font-weight="bold" font-size="11.00" fill="#000000">ASSAY_AFFINITY_TYPES</text>
<text text-anchor="start" x="327.0437" y="-245.8" font-family="Helvetica,sans-Serif" font-size="11.00" fill="#000000">[table]</text>
<polygon fill="none" stroke="#000000" points="10,-215.7 10,-237.7 191,-237.7 191,-215.7 10,-215.7"/>
<image xlink:href="../../images/primaryKeys.png" width="11px" height="12px" preserveAspectRatio="xMinYMin meet" x="15" y="-232.7"/>
<text text-anchor="start" x="30" y="-222.8" font-family="Helvetica,sans-Serif" font-size="11.00" fill="#000000">ID</text>
<polygon fill="none" stroke="#000000" points="191,-215.7 191,-237.7 362,-237.7 362,-215.7 191,-215.7"/>
<text text-anchor="start" x="194" y="-223.4" font-family="Helvetica,sans-Serif" font-size="11.00" fill="#000000">number[19]</text>
<polygon fill="none" stroke="#000000" points="10,-193.7 10,-215.7 191,-215.7 191,-193.7 10,-193.7"/>
<text text-anchor="start" x="30" y="-200.8" font-family="Helvetica,sans-Serif" font-size="11.00" fill="#000000">CREATED_AT</text>
<polygon fill="none" stroke="#000000" points="191,-193.7 191,-215.7 362,-215.7 362,-193.7 191,-193.7"/>
<text text-anchor="start" x="193.9896" y="-201.4" font-family="Helvetica,sans-Serif" font-size="11.00" fill="#000000">timestamp(6) with time zone[13,6]</text>
<polygon fill="none" stroke="#000000" points="10,-171.7 10,-193.7 191,-193.7 191,-171.7 10,-171.7"/>
<text text-anchor="start" x="30" y="-178.8" font-family="Helvetica,sans-Serif" font-size="11.00" fill="#000000">CREATED_BY</text>
<polygon fill="none" stroke="#000000" points="191,-171.7 191,-193.7 362,-193.7 362,-171.7 191,-171.7"/>
<text text-anchor="start" x="194" y="-179.4" font-family="Helvetica,sans-Serif" font-size="11.00" fill="#000000">number[19]</text>
<polygon fill="none" stroke="#000000" points="10,-149.7 10,-171.7 191,-171.7 191,-149.7 10,-149.7"/>
<text text-anchor="start" x="30" y="-156.8" font-family="Helvetica,sans-Serif" font-size="11.00" fill="#000000">UPDATED_AT</text>
<polygon fill="none" stroke="#000000" points="191,-149.7 191,-171.7 362,-171.7 362,-149.7 191,-149.7"/>
<text text-anchor="start" x="193.9896" y="-157.4" font-family="Helvetica,sans-Serif" font-size="11.00" fill="#000000">timestamp(6) with time zone[13,6]</text>
<polygon fill="none" stroke="#000000" points="10,-127.7 10,-149.7 191,-149.7 191,-127.7 10,-127.7"/>
<text text-anchor="start" x="30" y="-134.8" font-family="Helvetica,sans-Serif" font-size="11.00" fill="#000000">UPDATED_BY</text>
<polygon fill="none" stroke="#000000" points="191,-127.7 191,-149.7 362,-149.7 362,-127.7 191,-127.7"/>
<text text-anchor="start" x="194" y="-135.4" font-family="Helvetica,sans-Serif" font-size="11.00" fill="#000000">number[19]</text>
<polygon fill="none" stroke="#000000" points="10,-105.7 10,-127.7 191,-127.7 191,-105.7 10,-105.7"/>
<text text-anchor="start" x="30" y="-112.8" font-family="Helvetica,sans-Serif" font-size="11.00" fill="#000000">NAME</text>
<polygon fill="none" stroke="#000000" points="191,-105.7 191,-127.7 362,-127.7 362,-105.7 191,-105.7"/>
<text text-anchor="start" x="194" y="-113.4" font-family="Helvetica,sans-Serif" font-size="11.00" fill="#000000">varchar2[30]</text>
<polygon fill="#ffffff" stroke="transparent" points="10,-86.7 10,-105.7 92,-105.7 92,-86.7 10,-86.7"/>
<polygon fill="none" stroke="#000000" points="10,-86.7 10,-105.7 92,-105.7 92,-86.7 10,-86.7"/>
<text text-anchor="start" x="13" y="-92.8" font-family="Helvetica,sans-Serif" font-size="11.00" fill="#000000">&lt; 0</text>
<polygon fill="#ffffff" stroke="transparent" points="92,-86.7 92,-105.7 191,-105.7 191,-86.7 92,-86.7"/>
<polygon fill="none" stroke="#000000" points="92,-86.7 92,-105.7 191,-105.7 191,-86.7 92,-86.7"/>
<text text-anchor="start" x="155.6105" y="-92.8" font-family="Helvetica,sans-Serif" font-size="11.00" fill="#000000">7 rows</text>
<polygon fill="#ffffff" stroke="transparent" points="191,-86.7 191,-105.7 362,-105.7 362,-86.7 191,-86.7"/>
<polygon fill="none" stroke="#000000" points="191,-86.7 191,-105.7 362,-105.7 362,-86.7 191,-86.7"/>
<text text-anchor="start" x="343.4053" y="-92.8" font-family="Helvetica,sans-Serif" font-size="11.00" fill="#000000">2 &gt;</text>
<polygon fill="none" stroke="#000000" stroke-width="2" points="9,-85.7 9,-261.7 363,-261.7 363,-85.7 9,-85.7"/>
</a>
</g>
</g>
<!-- IN_HOUSE_ASSAYS&#45;&gt;ASSAY_AFFINITY_TYPES -->
<g id="edge1" class="edge">
<title>IN_HOUSE_ASSAYS:w&#45;&gt;ASSAY_AFFINITY_TYPES:e</title>
<path fill="none" stroke="#000000" d="M399.3716,-318.575C374.9509,-300.2 404.3661,-226.7 362,-226.7"/>
<polygon fill="#000000" stroke="#000000" points="405.8206,-320.4578 412.491,-326.1557 409.6603,-321.5789 413.5,-322.7 413.5,-322.7 413.5,-322.7 409.6603,-321.5789 414.509,-319.2443 405.8206,-320.4578 405.8206,-320.4578"/>
<ellipse fill="none" stroke="#000000" cx="402.7489" cy="-319.561" rx="3.2" ry="3.2"/>
</g>
<!-- LITERATURE_ASSAYS -->
<g id="node3" class="node">
<title>LITERATURE_ASSAYS</title>
<g id="a_node3"><a xlink:href="../../tables/LITERATURE_ASSAYS.html" xlink:title="LITERATURE_ASSAYS" target="_top">
<polygon fill="#ffffff" stroke="transparent" points="413,-38.2 413,-187.2 606,-187.2 606,-38.2 413,-38.2"/>
<polygon fill="#f5f5f5" stroke="transparent" points="413.5,-163.7 413.5,-186.7 606.5,-186.7 606.5,-163.7 413.5,-163.7"/>
<polygon fill="none" stroke="#000000" points="413.5,-163.7 413.5,-186.7 606.5,-186.7 606.5,-163.7 413.5,-163.7"/>
<text text-anchor="start" x="418.5" y="-172.8" font-family="Helvetica,sans-Serif" font-weight="bold" font-size="11.00" fill="#000000">LITERATURE_ASSAYS</text>
<text text-anchor="start" x="571.5437" y="-171.8" font-family="Helvetica,sans-Serif" font-size="11.00" fill="#000000">[table]</text>
<polygon fill="none" stroke="#000000" points="413.5,-141.7 413.5,-163.7 606.5,-163.7 606.5,-141.7 413.5,-141.7"/>
<image xlink:href="../../images/primaryKeys.png" width="11px" height="12px" preserveAspectRatio="xMinYMin meet" x="418.5" y="-158.7"/>
<text text-anchor="start" x="433.5" y="-148.8" font-family="Helvetica,sans-Serif" font-size="11.00" fill="#000000">ID</text>
<polygon fill="none" stroke="#000000" points="413.5,-119.7 413.5,-141.7 606.5,-141.7 606.5,-119.7 413.5,-119.7"/>
<image xlink:href="../../images/foreignKeys.png" width="11px" height="12px" preserveAspectRatio="xMinYMin meet" x="418.5" y="-136.7"/>
<text text-anchor="start" x="433.5" y="-126.8" font-family="Helvetica,sans-Serif" font-size="11.00" fill="#000000">ASSAY_AFFINITY_TYPE_ID</text>
<polygon fill="none" stroke="#000000" points="413.5,-97.7 413.5,-119.7 606.5,-119.7 606.5,-97.7 413.5,-97.7"/>
<image xlink:href="../../images/foreignKeys.png" width="11px" height="12px" preserveAspectRatio="xMinYMin meet" x="418.5" y="-114.7"/>
<text text-anchor="start" x="433.5" y="-104.8" font-family="Helvetica,sans-Serif" font-size="11.00" fill="#000000">ASSAY_TYPE_ID</text>
<polygon fill="none" stroke="#000000" points="413.5,-75.7 413.5,-97.7 606.5,-97.7 606.5,-75.7 413.5,-75.7"/>
<image xlink:href="../../images/foreignKeys.png" width="11px" height="12px" preserveAspectRatio="xMinYMin meet" x="418.5" y="-92.7"/>
<text text-anchor="start" x="433.5" y="-82.8" font-family="Helvetica,sans-Serif" font-size="11.00" fill="#000000">TRACER_LIGAND_ID</text>
<polygon fill="none" stroke="#000000" points="413.5,-56.7 413.5,-75.7 606.5,-75.7 606.5,-56.7 413.5,-56.7"/>
<text text-anchor="start" x="416.5" y="-62.8" font-family="Helvetica,sans-Serif" font-size="11.00" fill="#000000">...</text>
<polygon fill="#ffffff" stroke="transparent" points="413.5,-37.7 413.5,-56.7 487.5,-56.7 487.5,-37.7 413.5,-37.7"/>
<polygon fill="none" stroke="#000000" points="413.5,-37.7 413.5,-56.7 487.5,-56.7 487.5,-37.7 413.5,-37.7"/>
<text text-anchor="start" x="416.5" y="-43.8" font-family="Helvetica,sans-Serif" font-size="11.00" fill="#000000">&lt; 3</text>
<polygon fill="#ffffff" stroke="transparent" points="487.5,-37.7 487.5,-56.7 558.5,-56.7 558.5,-37.7 487.5,-37.7"/>
<polygon fill="none" stroke="#000000" points="487.5,-37.7 487.5,-56.7 558.5,-56.7 558.5,-37.7 487.5,-37.7"/>
<text text-anchor="start" x="516.9956" y="-43.8" font-family="Helvetica,sans-Serif" font-size="11.00" fill="#000000">25 rows</text>
<polygon fill="#ffffff" stroke="transparent" points="558.5,-37.7 558.5,-56.7 606.5,-56.7 606.5,-37.7 558.5,-37.7"/>
<polygon fill="none" stroke="#000000" points="558.5,-37.7 558.5,-56.7 606.5,-56.7 606.5,-37.7 558.5,-37.7"/>
<text text-anchor="start" x="587.9053" y="-43.8" font-family="Helvetica,sans-Serif" font-size="11.00" fill="#000000">1 &gt;</text>
</a>
</g>
</g>
<!-- LITERATURE_ASSAYS&#45;&gt;ASSAY_AFFINITY_TYPES -->
<g id="edge2" class="edge">
<title>LITERATURE_ASSAYS:w&#45;&gt;ASSAY_AFFINITY_TYPES:e</title>
<path fill="none" stroke="#000000" d="M399.3716,-134.825C374.9509,-153.2 404.3661,-226.7 362,-226.7"/>
<polygon fill="#000000" stroke="#000000" points="405.8206,-132.9422 414.509,-134.1557 409.6603,-131.8211 413.5,-130.7 413.5,-130.7 413.5,-130.7 409.6603,-131.8211 412.491,-127.2443 405.8206,-132.9422 405.8206,-132.9422"/>
<ellipse fill="none" stroke="#000000" cx="402.7489" cy="-133.839" rx="3.2" ry="3.2"/>
</g>
</g>
</svg>
