<?xml version="1.0" encoding="UTF-8" standalone="no"?>
<!DOCTYPE svg PUBLIC "-//W3C//DTD SVG 1.1//EN"
 "http://www.w3.org/Graphics/SVG/1.1/DTD/svg11.dtd">
<!-- Generated by graphviz version 2.40.1 (20161225.0304)
 -->
<!-- Title: twoDegreesRelationshipsDiagram Pages: 1 -->
<svg width="974pt" height="583pt"
 viewBox="0.00 0.00 974.00 583.20" xmlns="http://www.w3.org/2000/svg" xmlns:xlink="http://www.w3.org/1999/xlink">
<g id="graph0" class="graph" transform="scale(1 1) rotate(0) translate(4 579.2)">
<title>twoDegreesRelationshipsDiagram</title>
<polygon fill="#ffffff" stroke="transparent" points="-4,4 -4,-579.2 970,-579.2 970,4 -4,4"/>
<text text-anchor="middle" x="72.4936" y="-7.3" font-family="Helvetica,sans-Serif" font-size="11.00" fill="#000000">Generated by SchemaSpy</text>
<!-- IN_HOUSE_ASSAYS -->
<g id="node1" class="node">
<title>IN_HOUSE_ASSAYS</title>
<g id="a_node1"><a xlink:href="../../tables/IN_HOUSE_ASSAYS.html" xlink:title="IN_HOUSE_ASSAYS" target="_top">
<polygon fill="#ffffff" stroke="transparent" points="346,-230.2 346,-401.2 539,-401.2 539,-230.2 346,-230.2"/>
<polygon fill="#f5f5f5" stroke="transparent" points="346.5,-377.7 346.5,-400.7 539.5,-400.7 539.5,-377.7 346.5,-377.7"/>
<polygon fill="none" stroke="#000000" points="346.5,-377.7 346.5,-400.7 539.5,-400.7 539.5,-377.7 346.5,-377.7"/>
<text text-anchor="start" x="351.5" y="-386.8" font-family="Helvetica,sans-Serif" font-weight="bold" font-size="11.00" fill="#000000">IN_HOUSE_ASSAYS</text>
<text text-anchor="start" x="504.5437" y="-385.8" font-family="Helvetica,sans-Serif" font-size="11.00" fill="#000000">[table]</text>
<polygon fill="none" stroke="#000000" points="346.5,-355.7 346.5,-377.7 539.5,-377.7 539.5,-355.7 346.5,-355.7"/>
<image xlink:href="../../images/primaryKeys.png" width="11px" height="12px" preserveAspectRatio="xMinYMin meet" x="351.5" y="-372.7"/>
<text text-anchor="start" x="366.5" y="-362.8" font-family="Helvetica,sans-Serif" font-size="11.00" fill="#000000">ID</text>
<polygon fill="none" stroke="#000000" points="346.5,-333.7 346.5,-355.7 539.5,-355.7 539.5,-333.7 346.5,-333.7"/>
<image xlink:href="../../images/foreignKeys.png" width="11px" height="12px" preserveAspectRatio="xMinYMin meet" x="351.5" y="-350.7"/>
<text text-anchor="start" x="366.5" y="-340.8" font-family="Helvetica,sans-Serif" font-size="11.00" fill="#000000">ASSAY_AFFINITY_TYPE_ID</text>
<polygon fill="none" stroke="#000000" points="346.5,-311.7 346.5,-333.7 539.5,-333.7 539.5,-311.7 346.5,-311.7"/>
<image xlink:href="../../images/foreignKeys.png" width="11px" height="12px" preserveAspectRatio="xMinYMin meet" x="351.5" y="-328.7"/>
<text text-anchor="start" x="366.5" y="-318.8" font-family="Helvetica,sans-Serif" font-size="11.00" fill="#000000">ASSAY_TYPE_ID</text>
<polygon fill="none" stroke="#000000" points="346.5,-289.7 346.5,-311.7 539.5,-311.7 539.5,-289.7 346.5,-289.7"/>
<image xlink:href="../../images/foreignKeys.png" width="11px" height="12px" preserveAspectRatio="xMinYMin meet" x="351.5" y="-306.7"/>
<text text-anchor="start" x="366.5" y="-296.8" font-family="Helvetica,sans-Serif" font-size="11.00" fill="#000000">TRACER_LIGAND_ID</text>
<polygon fill="none" stroke="#000000" points="346.5,-267.7 346.5,-289.7 539.5,-289.7 539.5,-267.7 346.5,-267.7"/>
<image xlink:href="../../images/foreignKeys.png" width="11px" height="12px" preserveAspectRatio="xMinYMin meet" x="351.5" y="-284.7"/>
<text text-anchor="start" x="366.5" y="-274.8" font-family="Helvetica,sans-Serif" font-size="11.00" fill="#000000">TARGET_FORM_ID</text>
<polygon fill="none" stroke="#000000" points="346.5,-248.7 346.5,-267.7 539.5,-267.7 539.5,-248.7 346.5,-248.7"/>
<text text-anchor="start" x="349.5" y="-254.8" font-family="Helvetica,sans-Serif" font-size="11.00" fill="#000000">...</text>
<polygon fill="#ffffff" stroke="transparent" points="346.5,-229.7 346.5,-248.7 420.5,-248.7 420.5,-229.7 346.5,-229.7"/>
<polygon fill="none" stroke="#000000" points="346.5,-229.7 346.5,-248.7 420.5,-248.7 420.5,-229.7 346.5,-229.7"/>
<text text-anchor="start" x="349.5" y="-235.8" font-family="Helvetica,sans-Serif" font-size="11.00" fill="#000000">&lt; 4</text>
<polygon fill="#ffffff" stroke="transparent" points="420.5,-229.7 420.5,-248.7 491.5,-248.7 491.5,-229.7 420.5,-229.7"/>
<polygon fill="none" stroke="#000000" points="420.5,-229.7 420.5,-248.7 491.5,-248.7 491.5,-229.7 420.5,-229.7"/>
<text text-anchor="start" x="449.9956" y="-235.8" font-family="Helvetica,sans-Serif" font-size="11.00" fill="#000000">51 rows</text>
<polygon fill="#ffffff" stroke="transparent" points="491.5,-229.7 491.5,-248.7 539.5,-248.7 539.5,-229.7 491.5,-229.7"/>
<polygon fill="none" stroke="#000000" points="491.5,-229.7 491.5,-248.7 539.5,-248.7 539.5,-229.7 491.5,-229.7"/>
<text text-anchor="start" x="520.9053" y="-235.8" font-family="Helvetica,sans-Serif" font-size="11.00" fill="#000000">1 &gt;</text>
</a>
</g>
</g>
<!-- ASSAY_AFFINITY_TYPES -->
<g id="node2" class="node">
<title>ASSAY_AFFINITY_TYPES</title>
<g id="a_node2"><a xlink:href="../../tables/ASSAY_AFFINITY_TYPES.html" xlink:title="ASSAY_AFFINITY_TYPES" target="_top">
<polygon fill="#ffffff" stroke="transparent" points="64.5,-486.2 64.5,-547.2 240.5,-547.2 240.5,-486.2 64.5,-486.2"/>
<polygon fill="#f5f5f5" stroke="transparent" points="64.5,-523.7 64.5,-546.7 240.5,-546.7 240.5,-523.7 64.5,-523.7"/>
<polygon fill="none" stroke="#000000" points="64.5,-523.7 64.5,-546.7 240.5,-546.7 240.5,-523.7 64.5,-523.7"/>
<text text-anchor="start" x="69.0705" y="-532.8" font-family="Helvetica,sans-Serif" font-weight="bold" font-size="11.00" fill="#000000">ASSAY_AFFINITY_TYPES</text>
<text text-anchor="start" x="206.0219" y="-531.8" font-family="Helvetica,sans-Serif" font-size="11.00" fill="#000000">[table]</text>
<polygon fill="none" stroke="#000000" points="64.5,-504.7 64.5,-523.7 240.5,-523.7 240.5,-504.7 64.5,-504.7"/>
<text text-anchor="start" x="67.5" y="-510.8" font-family="Helvetica,sans-Serif" font-size="11.00" fill="#000000">...</text>
<polygon fill="#ffffff" stroke="transparent" points="64.5,-485.7 64.5,-504.7 128.5,-504.7 128.5,-485.7 64.5,-485.7"/>
<polygon fill="none" stroke="#000000" points="64.5,-485.7 64.5,-504.7 128.5,-504.7 128.5,-485.7 64.5,-485.7"/>
<text text-anchor="start" x="67.5" y="-491.8" font-family="Helvetica,sans-Serif" font-size="11.00" fill="#000000"> &#160;</text>
<polygon fill="#ffffff" stroke="transparent" points="128.5,-485.7 128.5,-504.7 192.5,-504.7 192.5,-485.7 128.5,-485.7"/>
<polygon fill="none" stroke="#000000" points="128.5,-485.7 128.5,-504.7 192.5,-504.7 192.5,-485.7 128.5,-485.7"/>
<text text-anchor="start" x="157.1105" y="-491.8" font-family="Helvetica,sans-Serif" font-size="11.00" fill="#000000">7 rows</text>
<polygon fill="#ffffff" stroke="transparent" points="192.5,-485.7 192.5,-504.7 240.5,-504.7 240.5,-485.7 192.5,-485.7"/>
<polygon fill="none" stroke="#000000" points="192.5,-485.7 192.5,-504.7 240.5,-504.7 240.5,-485.7 192.5,-485.7"/>
<text text-anchor="start" x="221.9053" y="-491.8" font-family="Helvetica,sans-Serif" font-size="11.00" fill="#000000">2 &gt;</text>
</a>
</g>
</g>
<!-- IN_HOUSE_ASSAYS&#45;&gt;ASSAY_AFFINITY_TYPES -->
<g id="edge1" class="edge">
<title>IN_HOUSE_ASSAYS:w&#45;&gt;ASSAY_AFFINITY_TYPES:e</title>
<path fill="none" stroke="#000000" d="M331.8921,-346.9479C296.0281,-360.4592 338.8985,-431.735 305,-474.7 284.2502,-500.9996 273.9996,-513.7 240.5,-513.7"/>
<polygon fill="#000000" stroke="#000000" points="338.5931,-345.9168 347.0476,-348.2581 342.5465,-345.3084 346.5,-344.7 346.5,-344.7 346.5,-344.7 342.5465,-345.3084 345.9524,-341.1419 338.5931,-345.9168 338.5931,-345.9168"/>
<ellipse fill="none" stroke="#000000" cx="335.4303" cy="-346.4035" rx="3.2" ry="3.2"/>
</g>
<!-- ASSAY_TYPES -->
<g id="node3" class="node">
<title>ASSAY_TYPES</title>
<g id="a_node3"><a xlink:href="../../tables/ASSAY_TYPES.html" xlink:title="ASSAY_TYPES" target="_top">
<polygon fill="#ffffff" stroke="transparent" points="8,-202.7 8,-380.7 297,-380.7 297,-202.7 8,-202.7"/>
<polygon fill="#f5f5f5" stroke="transparent" points="10.5,-355.7 10.5,-378.7 295.5,-378.7 295.5,-355.7 10.5,-355.7"/>
<polygon fill="none" stroke="#000000" points="10.5,-355.7 10.5,-378.7 295.5,-378.7 295.5,-355.7 10.5,-355.7"/>
<text text-anchor="start" x="15.5" y="-364.8" font-family="Helvetica,sans-Serif" font-weight="bold" font-size="11.00" fill="#000000">ASSAY_TYPES</text>
<text text-anchor="start" x="260.5437" y="-363.8" font-family="Helvetica,sans-Serif" font-size="11.00" fill="#000000">[table]</text>
<polygon fill="none" stroke="#000000" points="10.5,-333.7 10.5,-355.7 124.5,-355.7 124.5,-333.7 10.5,-333.7"/>
<image xlink:href="../../images/primaryKeys.png" width="11px" height="12px" preserveAspectRatio="xMinYMin meet" x="15.5" y="-350.7"/>
<text text-anchor="start" x="30.5" y="-340.8" font-family="Helvetica,sans-Serif" font-size="11.00" fill="#000000">ID</text>
<polygon fill="none" stroke="#000000" points="124.5,-333.7 124.5,-355.7 295.5,-355.7 295.5,-333.7 124.5,-333.7"/>
<text text-anchor="start" x="127.5" y="-341.4" font-family="Helvetica,sans-Serif" font-size="11.00" fill="#000000">number[19]</text>
<polygon fill="none" stroke="#000000" points="10.5,-311.7 10.5,-333.7 124.5,-333.7 124.5,-311.7 10.5,-311.7"/>
<text text-anchor="start" x="30.5" y="-318.8" font-family="Helvetica,sans-Serif" font-size="11.00" fill="#000000">CREATED_AT</text>
<polygon fill="none" stroke="#000000" points="124.5,-311.7 124.5,-333.7 295.5,-333.7 295.5,-311.7 124.5,-311.7"/>
<text text-anchor="start" x="127.4896" y="-319.4" font-family="Helvetica,sans-Serif" font-size="11.00" fill="#000000">timestamp(6) with time zone[13,6]</text>
<polygon fill="none" stroke="#000000" points="10.5,-289.7 10.5,-311.7 124.5,-311.7 124.5,-289.7 10.5,-289.7"/>
<text text-anchor="start" x="30.5" y="-296.8" font-family="Helvetica,sans-Serif" font-size="11.00" fill="#000000">CREATED_BY</text>
<polygon fill="none" stroke="#000000" points="124.5,-289.7 124.5,-311.7 295.5,-311.7 295.5,-289.7 124.5,-289.7"/>
<text text-anchor="start" x="127.5" y="-297.4" font-family="Helvetica,sans-Serif" font-size="11.00" fill="#000000">number[19]</text>
<polygon fill="none" stroke="#000000" points="10.5,-267.7 10.5,-289.7 124.5,-289.7 124.5,-267.7 10.5,-267.7"/>
<text text-anchor="start" x="30.5" y="-274.8" font-family="Helvetica,sans-Serif" font-size="11.00" fill="#000000">UPDATED_AT</text>
<polygon fill="none" stroke="#000000" points="124.5,-267.7 124.5,-289.7 295.5,-289.7 295.5,-267.7 124.5,-267.7"/>
<text text-anchor="start" x="127.4896" y="-275.4" font-family="Helvetica,sans-Serif" font-size="11.00" fill="#000000">timestamp(6) with time zone[13,6]</text>
<polygon fill="none" stroke="#000000" points="10.5,-245.7 10.5,-267.7 124.5,-267.7 124.5,-245.7 10.5,-245.7"/>
<text text-anchor="start" x="30.5" y="-252.8" font-family="Helvetica,sans-Serif" font-size="11.00" fill="#000000">UPDATED_BY</text>
<polygon fill="none" stroke="#000000" points="124.5,-245.7 124.5,-267.7 295.5,-267.7 295.5,-245.7 124.5,-245.7"/>
<text text-anchor="start" x="127.5" y="-253.4" font-family="Helvetica,sans-Serif" font-size="11.00" fill="#000000">number[19]</text>
<polygon fill="none" stroke="#000000" points="10.5,-223.7 10.5,-245.7 124.5,-245.7 124.5,-223.7 10.5,-223.7"/>
<text text-anchor="start" x="30.5" y="-230.8" font-family="Helvetica,sans-Serif" font-size="11.00" fill="#000000">NAME</text>
<polygon fill="none" stroke="#000000" points="124.5,-223.7 124.5,-245.7 295.5,-245.7 295.5,-223.7 124.5,-223.7"/>
<text text-anchor="start" x="127.5" y="-231.4" font-family="Helvetica,sans-Serif" font-size="11.00" fill="#000000">varchar2[255]</text>
<polygon fill="#ffffff" stroke="transparent" points="10.5,-204.7 10.5,-223.7 55.5,-223.7 55.5,-204.7 10.5,-204.7"/>
<polygon fill="none" stroke="#000000" points="10.5,-204.7 10.5,-223.7 55.5,-223.7 55.5,-204.7 10.5,-204.7"/>
<text text-anchor="start" x="13.5" y="-210.8" font-family="Helvetica,sans-Serif" font-size="11.00" fill="#000000">&lt; 0</text>
<polygon fill="#ffffff" stroke="transparent" points="55.5,-204.7 55.5,-223.7 124.5,-223.7 124.5,-204.7 55.5,-204.7"/>
<polygon fill="none" stroke="#000000" points="55.5,-204.7 55.5,-223.7 124.5,-223.7 124.5,-204.7 55.5,-204.7"/>
<text text-anchor="start" x="82.9956" y="-210.8" font-family="Helvetica,sans-Serif" font-size="11.00" fill="#000000">10 rows</text>
<polygon fill="#ffffff" stroke="transparent" points="124.5,-204.7 124.5,-223.7 295.5,-223.7 295.5,-204.7 124.5,-204.7"/>
<polygon fill="none" stroke="#000000" points="124.5,-204.7 124.5,-223.7 295.5,-223.7 295.5,-204.7 124.5,-204.7"/>
<text text-anchor="start" x="276.9053" y="-210.8" font-family="Helvetica,sans-Serif" font-size="11.00" fill="#000000">3 &gt;</text>
<polygon fill="none" stroke="#000000" stroke-width="2" points="9,-203.7 9,-379.7 296,-379.7 296,-203.7 9,-203.7"/>
</a>
</g>
</g>
<!-- IN_HOUSE_ASSAYS&#45;&gt;ASSAY_TYPES -->
<g id="edge2" class="edge">
<title>IN_HOUSE_ASSAYS:w&#45;&gt;ASSAY_TYPES:e</title>
<path fill="none" stroke="#000000" d="M332.3489,-325.759C319.7843,-331.804 314.4,-344.7 295.5,-344.7"/>
<polygon fill="#000000" stroke="#000000" points="338.6806,-324.3903 347.2607,-326.2187 342.5903,-323.5452 346.5,-322.7 346.5,-322.7 346.5,-322.7 342.5903,-323.5452 345.7393,-319.1813 338.6806,-324.3903 338.6806,-324.3903"/>
<ellipse fill="none" stroke="#000000" cx="335.5528" cy="-325.0665" rx="3.2" ry="3.2"/>
</g>
<!-- TARGET_FORMS -->
<g id="node4" class="node">
<title>TARGET_FORMS</title>
<g id="a_node4"><a xlink:href="../../tables/TARGET_FORMS.html" xlink:title="TARGET_FORMS" target="_top">
<polygon fill="#ffffff" stroke="transparent" points="86,-120.2 86,-181.2 219,-181.2 219,-120.2 86,-120.2"/>
<polygon fill="#f5f5f5" stroke="transparent" points="86.5,-157.7 86.5,-180.7 219.5,-180.7 219.5,-157.7 86.5,-157.7"/>
<polygon fill="none" stroke="#000000" points="86.5,-157.7 86.5,-180.7 219.5,-180.7 219.5,-157.7 86.5,-157.7"/>
<text text-anchor="start" x="91.2801" y="-166.8" font-family="Helvetica,sans-Serif" font-weight="bold" font-size="11.00" fill="#000000">TARGET_FORMS</text>
<text text-anchor="start" x="185.0219" y="-165.8" font-family="Helvetica,sans-Serif" font-size="11.00" fill="#000000">[table]</text>
<polygon fill="none" stroke="#000000" points="86.5,-138.7 86.5,-157.7 219.5,-157.7 219.5,-138.7 86.5,-138.7"/>
<text text-anchor="start" x="89.5" y="-144.8" font-family="Helvetica,sans-Serif" font-size="11.00" fill="#000000">...</text>
<polygon fill="#ffffff" stroke="transparent" points="86.5,-119.7 86.5,-138.7 124.5,-138.7 124.5,-119.7 86.5,-119.7"/>
<polygon fill="none" stroke="#000000" points="86.5,-119.7 86.5,-138.7 124.5,-138.7 124.5,-119.7 86.5,-119.7"/>
<text text-anchor="start" x="89.5" y="-125.8" font-family="Helvetica,sans-Serif" font-size="11.00" fill="#000000">&lt; 5</text>
<polygon fill="#ffffff" stroke="transparent" points="124.5,-119.7 124.5,-138.7 183.5,-138.7 183.5,-119.7 124.5,-119.7"/>
<polygon fill="none" stroke="#000000" points="124.5,-119.7 124.5,-138.7 183.5,-138.7 183.5,-119.7 124.5,-119.7"/>
<text text-anchor="start" x="135.8807" y="-125.8" font-family="Helvetica,sans-Serif" font-size="11.00" fill="#000000">541 rows</text>
<polygon fill="#ffffff" stroke="transparent" points="183.5,-119.7 183.5,-138.7 219.5,-138.7 219.5,-119.7 183.5,-119.7"/>
<polygon fill="none" stroke="#000000" points="183.5,-119.7 183.5,-138.7 219.5,-138.7 219.5,-119.7 183.5,-119.7"/>
<text text-anchor="start" x="194.7904" y="-125.8" font-family="Helvetica,sans-Serif" font-size="11.00" fill="#000000">18 &gt;</text>
</a>
</g>
</g>
<!-- IN_HOUSE_ASSAYS&#45;&gt;TARGET_FORMS -->
<g id="edge3" class="edge">
<title>IN_HOUSE_ASSAYS:w&#45;&gt;TARGET_FORMS:e</title>
<path fill="none" stroke="#000000" d="M332.1552,-275.4216C311.396,-262.9721 330.5205,-218.0027 305,-191.7 275.2402,-161.028 262.2366,-147.7 219.5,-147.7"/>
<polygon fill="#000000" stroke="#000000" points="338.7011,-276.9176 345.6979,-282.2095 342.6005,-277.8088 346.5,-278.7 346.5,-278.7 346.5,-278.7 342.6005,-277.8088 347.3021,-275.1905 338.7011,-276.9176 338.7011,-276.9176"/>
<ellipse fill="none" stroke="#000000" cx="335.5815" cy="-276.2046" rx="3.2" ry="3.2"/>
</g>
<!-- TRACER_LIGANDS -->
<g id="node5" class="node">
<title>TRACER_LIGANDS</title>
<g id="a_node5"><a xlink:href="../../tables/TRACER_LIGANDS.html" xlink:title="TRACER_LIGANDS" target="_top">
<polygon fill="#ffffff" stroke="transparent" points="81.5,-403.2 81.5,-464.2 223.5,-464.2 223.5,-403.2 81.5,-403.2"/>
<polygon fill="#f5f5f5" stroke="transparent" points="81.5,-440.7 81.5,-463.7 223.5,-463.7 223.5,-440.7 81.5,-440.7"/>
<polygon fill="none" stroke="#000000" points="81.5,-440.7 81.5,-463.7 223.5,-463.7 223.5,-440.7 81.5,-440.7"/>
<text text-anchor="start" x="86.1942" y="-449.8" font-family="Helvetica,sans-Serif" font-weight="bold" font-size="11.00" fill="#000000">TRACER_LIGANDS</text>
<text text-anchor="start" x="189.0219" y="-448.8" font-family="Helvetica,sans-Serif" font-size="11.00" fill="#000000">[table]</text>
<polygon fill="none" stroke="#000000" points="81.5,-421.7 81.5,-440.7 223.5,-440.7 223.5,-421.7 81.5,-421.7"/>
<text text-anchor="start" x="84.5" y="-427.8" font-family="Helvetica,sans-Serif" font-size="11.00" fill="#000000">...</text>
<polygon fill="#ffffff" stroke="transparent" points="81.5,-402.7 81.5,-421.7 127.5,-421.7 127.5,-402.7 81.5,-402.7"/>
<polygon fill="none" stroke="#000000" points="81.5,-402.7 81.5,-421.7 127.5,-421.7 127.5,-402.7 81.5,-402.7"/>
<text text-anchor="start" x="84.5" y="-408.8" font-family="Helvetica,sans-Serif" font-size="11.00" fill="#000000">&lt; 3</text>
<polygon fill="#ffffff" stroke="transparent" points="127.5,-402.7 127.5,-421.7 189.5,-421.7 189.5,-402.7 127.5,-402.7"/>
<polygon fill="none" stroke="#000000" points="127.5,-402.7 127.5,-421.7 189.5,-421.7 189.5,-402.7 127.5,-402.7"/>
<text text-anchor="start" x="141.8807" y="-408.8" font-family="Helvetica,sans-Serif" font-size="11.00" fill="#000000">416 rows</text>
<polygon fill="#ffffff" stroke="transparent" points="189.5,-402.7 189.5,-421.7 223.5,-421.7 223.5,-402.7 189.5,-402.7"/>
<polygon fill="none" stroke="#000000" points="189.5,-402.7 189.5,-421.7 223.5,-421.7 223.5,-402.7 189.5,-402.7"/>
<text text-anchor="start" x="204.9053" y="-408.8" font-family="Helvetica,sans-Serif" font-size="11.00" fill="#000000">7 &gt;</text>
</a>
</g>
</g>
<!-- IN_HOUSE_ASSAYS&#45;&gt;TRACER_LIGANDS -->
<g id="edge4" class="edge">
<title>IN_HOUSE_ASSAYS:w&#45;&gt;TRACER_LIGANDS:e</title>
<path fill="none" stroke="#000000" d="M332.4103,-303.7609C310.364,-316.1864 331.5608,-363.4885 305,-390.7 276.8158,-419.5747 263.8497,-430.7 223.5,-430.7"/>
<polygon fill="#000000" stroke="#000000" points="338.6824,-302.3984 347.2643,-304.2179 342.5912,-301.5492 346.5,-300.7 346.5,-300.7 346.5,-300.7 342.5912,-301.5492 345.7357,-297.1821 338.6824,-302.3984 338.6824,-302.3984"/>
<ellipse fill="none" stroke="#000000" cx="335.5553" cy="-303.0778" rx="3.2" ry="3.2"/>
</g>
<!-- IN_HOUSE_ASSAYS_REFERENCES -->
<g id="node6" class="node">
<title>IN_HOUSE_ASSAYS_REFERENCES</title>
<g id="a_node6"><a xlink:href="../../tables/IN_HOUSE_ASSAYS_REFERENCES.html" xlink:title="IN_HOUSE_ASSAYS_REFERENCES" target="_top">
<polygon fill="#ffffff" stroke="transparent" points="658,-339.2 658,-400.2 888,-400.2 888,-339.2 658,-339.2"/>
<polygon fill="#f5f5f5" stroke="transparent" points="658,-376.7 658,-399.7 888,-399.7 888,-376.7 658,-376.7"/>
<polygon fill="none" stroke="#000000" points="658,-376.7 658,-399.7 888,-399.7 888,-376.7 658,-376.7"/>
<text text-anchor="start" x="662.6843" y="-385.8" font-family="Helvetica,sans-Serif" font-weight="bold" font-size="11.00" fill="#000000">IN_HOUSE_ASSAYS_REFERENCES</text>
<text text-anchor="start" x="853.5219" y="-384.8" font-family="Helvetica,sans-Serif" font-size="11.00" fill="#000000">[table]</text>
<polygon fill="none" stroke="#000000" points="658,-357.7 658,-376.7 888,-376.7 888,-357.7 658,-357.7"/>
<text text-anchor="start" x="661" y="-363.8" font-family="Helvetica,sans-Serif" font-size="11.00" fill="#000000">...</text>
<polygon fill="#ffffff" stroke="transparent" points="658,-338.7 658,-357.7 755,-357.7 755,-338.7 658,-338.7"/>
<polygon fill="none" stroke="#000000" points="658,-338.7 658,-357.7 755,-357.7 755,-338.7 658,-338.7"/>
<text text-anchor="start" x="661" y="-344.8" font-family="Helvetica,sans-Serif" font-size="11.00" fill="#000000">&lt; 2</text>
<polygon fill="#ffffff" stroke="transparent" points="755,-338.7 755,-357.7 837,-357.7 837,-338.7 755,-338.7"/>
<polygon fill="none" stroke="#000000" points="755,-338.7 755,-357.7 837,-357.7 837,-338.7 755,-338.7"/>
<text text-anchor="start" x="795.4956" y="-344.8" font-family="Helvetica,sans-Serif" font-size="11.00" fill="#000000">51 rows</text>
<polygon fill="#ffffff" stroke="transparent" points="837,-338.7 837,-357.7 888,-357.7 888,-338.7 837,-338.7"/>
<polygon fill="none" stroke="#000000" points="837,-338.7 837,-357.7 888,-357.7 888,-338.7 837,-338.7"/>
<text text-anchor="start" x="878.8862" y="-344.8" font-family="Helvetica,sans-Serif" font-size="11.00" fill="#000000"> &#160;</text>
</a>
</g>
</g>
<!-- IN_HOUSE_ASSAYS_REFERENCES&#45;&gt;IN_HOUSE_ASSAYS -->
<g id="edge5" class="edge">
<title>IN_HOUSE_ASSAYS_REFERENCES:w&#45;&gt;IN_HOUSE_ASSAYS:e</title>
<path fill="none" stroke="#000000" d="M643.3594,-366.7C602.3184,-366.7 586.9206,-366.7 539.5,-366.7"/>
<polygon fill="#000000" stroke="#000000" points="650,-366.7001 658,-370.3 654,-366.7 658,-366.7 658,-366.7 658,-366.7 654,-366.7 658,-363.1 650,-366.7001 650,-366.7001"/>
<ellipse fill="none" stroke="#000000" cx="646.8" cy="-366.7001" rx="3.2" ry="3.2"/>
</g>
<!-- LITERATURE_ASSAYS -->
<g id="node7" class="node">
<title>LITERATURE_ASSAYS</title>
<g id="a_node7"><a xlink:href="../../tables/LITERATURE_ASSAYS.html" xlink:title="LITERATURE_ASSAYS" target="_top">
<polygon fill="#ffffff" stroke="transparent" points="346,-422.2 346,-571.2 539,-571.2 539,-422.2 346,-422.2"/>
<polygon fill="#f5f5f5" stroke="transparent" points="346.5,-547.7 346.5,-570.7 539.5,-570.7 539.5,-547.7 346.5,-547.7"/>
<polygon fill="none" stroke="#000000" points="346.5,-547.7 346.5,-570.7 539.5,-570.7 539.5,-547.7 346.5,-547.7"/>
<text text-anchor="start" x="351.5" y="-556.8" font-family="Helvetica,sans-Serif" font-weight="bold" font-size="11.00" fill="#000000">LITERATURE_ASSAYS</text>
<text text-anchor="start" x="504.5437" y="-555.8" font-family="Helvetica,sans-Serif" font-size="11.00" fill="#000000">[table]</text>
<polygon fill="none" stroke="#000000" points="346.5,-525.7 346.5,-547.7 539.5,-547.7 539.5,-525.7 346.5,-525.7"/>
<image xlink:href="../../images/primaryKeys.png" width="11px" height="12px" preserveAspectRatio="xMinYMin meet" x="351.5" y="-542.7"/>
<text text-anchor="start" x="366.5" y="-532.8" font-family="Helvetica,sans-Serif" font-size="11.00" fill="#000000">ID</text>
<polygon fill="none" stroke="#000000" points="346.5,-503.7 346.5,-525.7 539.5,-525.7 539.5,-503.7 346.5,-503.7"/>
<image xlink:href="../../images/foreignKeys.png" width="11px" height="12px" preserveAspectRatio="xMinYMin meet" x="351.5" y="-520.7"/>
<text text-anchor="start" x="366.5" y="-510.8" font-family="Helvetica,sans-Serif" font-size="11.00" fill="#000000">ASSAY_AFFINITY_TYPE_ID</text>
<polygon fill="none" stroke="#000000" points="346.5,-481.7 346.5,-503.7 539.5,-503.7 539.5,-481.7 346.5,-481.7"/>
<image xlink:href="../../images/foreignKeys.png" width="11px" height="12px" preserveAspectRatio="xMinYMin meet" x="351.5" y="-498.7"/>
<text text-anchor="start" x="366.5" y="-488.8" font-family="Helvetica,sans-Serif" font-size="11.00" fill="#000000">ASSAY_TYPE_ID</text>
<polygon fill="none" stroke="#000000" points="346.5,-459.7 346.5,-481.7 539.5,-481.7 539.5,-459.7 346.5,-459.7"/>
<image xlink:href="../../images/foreignKeys.png" width="11px" height="12px" preserveAspectRatio="xMinYMin meet" x="351.5" y="-476.7"/>
<text text-anchor="start" x="366.5" y="-466.8" font-family="Helvetica,sans-Serif" font-size="11.00" fill="#000000">TRACER_LIGAND_ID</text>
<polygon fill="none" stroke="#000000" points="346.5,-440.7 346.5,-459.7 539.5,-459.7 539.5,-440.7 346.5,-440.7"/>
<text text-anchor="start" x="349.5" y="-446.8" font-family="Helvetica,sans-Serif" font-size="11.00" fill="#000000">...</text>
<polygon fill="#ffffff" stroke="transparent" points="346.5,-421.7 346.5,-440.7 420.5,-440.7 420.5,-421.7 346.5,-421.7"/>
<polygon fill="none" stroke="#000000" points="346.5,-421.7 346.5,-440.7 420.5,-440.7 420.5,-421.7 346.5,-421.7"/>
<text text-anchor="start" x="349.5" y="-427.8" font-family="Helvetica,sans-Serif" font-size="11.00" fill="#000000">&lt; 3</text>
<polygon fill="#ffffff" stroke="transparent" points="420.5,-421.7 420.5,-440.7 491.5,-440.7 491.5,-421.7 420.5,-421.7"/>
<polygon fill="none" stroke="#000000" points="420.5,-421.7 420.5,-440.7 491.5,-440.7 491.5,-421.7 420.5,-421.7"/>
<text text-anchor="start" x="449.9956" y="-427.8" font-family="Helvetica,sans-Serif" font-size="11.00" fill="#000000">25 rows</text>
<polygon fill="#ffffff" stroke="transparent" points="491.5,-421.7 491.5,-440.7 539.5,-440.7 539.5,-421.7 491.5,-421.7"/>
<polygon fill="none" stroke="#000000" points="491.5,-421.7 491.5,-440.7 539.5,-440.7 539.5,-421.7 491.5,-421.7"/>
<text text-anchor="start" x="520.9053" y="-427.8" font-family="Helvetica,sans-Serif" font-size="11.00" fill="#000000">1 &gt;</text>
</a>
</g>
</g>
<!-- LITERATURE_ASSAYS&#45;&gt;ASSAY_AFFINITY_TYPES -->
<g id="edge6" class="edge">
<title>LITERATURE_ASSAYS:w&#45;&gt;ASSAY_AFFINITY_TYPES:e</title>
<path fill="none" stroke="#000000" d="M331.7466,-514.6644C296.2658,-514.4863 282.2762,-513.7 240.5,-513.7"/>
<polygon fill="#000000" stroke="#000000" points="338.5,-514.6806 346.4913,-518.3 342.5,-514.6903 346.5,-514.7 346.5,-514.7 346.5,-514.7 342.5,-514.6903 346.5087,-511.1 338.5,-514.6806 338.5,-514.6806"/>
<ellipse fill="none" stroke="#000000" cx="335.3" cy="-514.6729" rx="3.2" ry="3.2"/>
</g>
<!-- LITERATURE_ASSAYS&#45;&gt;ASSAY_TYPES -->
<g id="edge7" class="edge">
<title>LITERATURE_ASSAYS:w&#45;&gt;ASSAY_TYPES:e</title>
<path fill="none" stroke="#000000" d="M332.1212,-489.7436C290.6199,-468.8845 359.2306,-344.7 295.5,-344.7"/>
<polygon fill="#000000" stroke="#000000" points="338.6639,-491.0888 345.775,-496.2262 342.582,-491.8944 346.5,-492.7 346.5,-492.7 346.5,-492.7 342.582,-491.8944 347.225,-489.1738 338.6639,-491.0888 338.6639,-491.0888"/>
<ellipse fill="none" stroke="#000000" cx="335.5295" cy="-490.4443" rx="3.2" ry="3.2"/>
</g>
<!-- LITERATURE_ASSAYS&#45;&gt;TRACER_LIGANDS -->
<g id="edge8" class="edge">
<title>LITERATURE_ASSAYS:w&#45;&gt;TRACER_LIGANDS:e</title>
<path fill="none" stroke="#000000" d="M331.8429,-469.7507C287.1242,-463.6933 275.7078,-430.7 223.5,-430.7"/>
<polygon fill="#000000" stroke="#000000" points="338.5167,-470.1829 346.2673,-474.2925 342.5084,-470.4414 346.5,-470.7 346.5,-470.7 346.5,-470.7 342.5084,-470.4414 346.7327,-467.1075 338.5167,-470.1829 338.5167,-470.1829"/>
<ellipse fill="none" stroke="#000000" cx="335.3234" cy="-469.976" rx="3.2" ry="3.2"/>
</g>
<!-- LITERATURE_ASSAYS_REFERENCES -->
<g id="node8" class="node">
<title>LITERATURE_ASSAYS_REFERENCES</title>
<g id="a_node8"><a xlink:href="../../tables/LITERATURE_ASSAYS_REFERENCES.html" xlink:title="LITERATURE_ASSAYS_REFERENCES" target="_top">
<polygon fill="#ffffff" stroke="transparent" points="652,-509.2 652,-570.2 894,-570.2 894,-509.2 652,-509.2"/>
<polygon fill="#f5f5f5" stroke="transparent" points="652,-546.7 652,-569.7 894,-569.7 894,-546.7 652,-546.7"/>
<polygon fill="none" stroke="#000000" points="652,-546.7 652,-569.7 894,-569.7 894,-546.7 652,-546.7"/>
<text text-anchor="start" x="656.5749" y="-555.8" font-family="Helvetica,sans-Serif" font-weight="bold" font-size="11.00" fill="#000000">LITERATURE_ASSAYS_REFERENCES</text>
<text text-anchor="start" x="859.5219" y="-554.8" font-family="Helvetica,sans-Serif" font-size="11.00" fill="#000000">[table]</text>
<polygon fill="none" stroke="#000000" points="652,-527.7 652,-546.7 894,-546.7 894,-527.7 652,-527.7"/>
<text text-anchor="start" x="655" y="-533.8" font-family="Helvetica,sans-Serif" font-size="11.00" fill="#000000">...</text>
<polygon fill="#ffffff" stroke="transparent" points="652,-508.7 652,-527.7 755,-527.7 755,-508.7 652,-508.7"/>
<polygon fill="none" stroke="#000000" points="652,-508.7 652,-527.7 755,-527.7 755,-508.7 652,-508.7"/>
<text text-anchor="start" x="655" y="-514.8" font-family="Helvetica,sans-Serif" font-size="11.00" fill="#000000">&lt; 2</text>
<polygon fill="#ffffff" stroke="transparent" points="755,-508.7 755,-527.7 840,-527.7 840,-508.7 755,-508.7"/>
<polygon fill="none" stroke="#000000" points="755,-508.7 755,-527.7 840,-527.7 840,-508.7 755,-508.7"/>
<text text-anchor="start" x="798.4956" y="-514.8" font-family="Helvetica,sans-Serif" font-size="11.00" fill="#000000">25 rows</text>
<polygon fill="#ffffff" stroke="transparent" points="840,-508.7 840,-527.7 894,-527.7 894,-508.7 840,-508.7"/>
<polygon fill="none" stroke="#000000" points="840,-508.7 840,-527.7 894,-527.7 894,-508.7 840,-508.7"/>
<text text-anchor="start" x="884.8862" y="-514.8" font-family="Helvetica,sans-Serif" font-size="11.00" fill="#000000"> &#160;</text>
</a>
</g>
</g>
<!-- LITERATURE_ASSAYS_REFERENCES&#45;&gt;LITERATURE_ASSAYS -->
<g id="edge9" class="edge">
<title>LITERATURE_ASSAYS_REFERENCES:w&#45;&gt;LITERATURE_ASSAYS:e</title>
<path fill="none" stroke="#000000" d="M637.595,-536.7C599.0103,-536.7 584.3242,-536.7 539.5,-536.7"/>
<polygon fill="#000000" stroke="#000000" points="644,-536.7001 652,-540.3 648,-536.7 652,-536.7 652,-536.7 652,-536.7 648,-536.7 652,-533.1 644,-536.7001 644,-536.7001"/>
<ellipse fill="none" stroke="#000000" cx="640.8" cy="-536.7001" rx="3.2" ry="3.2"/>
</g>
<!-- SUPPLEMENTS -->
<g id="node9" class="node">
<title>SUPPLEMENTS</title>
<g id="a_node9"><a xlink:href="../../tables/SUPPLEMENTS.html" xlink:title="SUPPLEMENTS" target="_top">
<polygon fill="#ffffff" stroke="transparent" points="380.5,-120.2 380.5,-181.2 504.5,-181.2 504.5,-120.2 380.5,-120.2"/>
<polygon fill="#f5f5f5" stroke="transparent" points="380.5,-157.7 380.5,-180.7 504.5,-180.7 504.5,-157.7 380.5,-157.7"/>
<polygon fill="none" stroke="#000000" points="380.5,-157.7 380.5,-180.7 504.5,-180.7 504.5,-157.7 380.5,-157.7"/>
<text text-anchor="start" x="385.0531" y="-166.8" font-family="Helvetica,sans-Serif" font-weight="bold" font-size="11.00" fill="#000000">SUPPLEMENTS</text>
<text text-anchor="start" x="470.0219" y="-165.8" font-family="Helvetica,sans-Serif" font-size="11.00" fill="#000000">[table]</text>
<polygon fill="none" stroke="#000000" points="380.5,-138.7 380.5,-157.7 504.5,-157.7 504.5,-138.7 380.5,-138.7"/>
<text text-anchor="start" x="383.5" y="-144.8" font-family="Helvetica,sans-Serif" font-size="11.00" fill="#000000">...</text>
<polygon fill="#ffffff" stroke="transparent" points="380.5,-119.7 380.5,-138.7 420.5,-138.7 420.5,-119.7 380.5,-119.7"/>
<polygon fill="none" stroke="#000000" points="380.5,-119.7 380.5,-138.7 420.5,-138.7 420.5,-119.7 380.5,-119.7"/>
<text text-anchor="start" x="383.5" y="-125.8" font-family="Helvetica,sans-Serif" font-size="11.00" fill="#000000">&lt; 1</text>
<polygon fill="#ffffff" stroke="transparent" points="420.5,-119.7 420.5,-138.7 473.5,-138.7 473.5,-119.7 420.5,-119.7"/>
<polygon fill="none" stroke="#000000" points="420.5,-119.7 420.5,-138.7 473.5,-138.7 473.5,-119.7 420.5,-119.7"/>
<text text-anchor="start" x="431.9956" y="-125.8" font-family="Helvetica,sans-Serif" font-size="11.00" fill="#000000">77 rows</text>
<polygon fill="#ffffff" stroke="transparent" points="473.5,-119.7 473.5,-138.7 504.5,-138.7 504.5,-119.7 473.5,-119.7"/>
<polygon fill="none" stroke="#000000" points="473.5,-119.7 473.5,-138.7 504.5,-138.7 504.5,-119.7 473.5,-119.7"/>
<text text-anchor="start" x="485.9053" y="-125.8" font-family="Helvetica,sans-Serif" font-size="11.00" fill="#000000">5 &gt;</text>
</a>
</g>
</g>
<!-- SUPPLEMENTS&#45;&gt;TARGET_FORMS -->
<g id="edge10" class="edge">
<title>SUPPLEMENTS:w&#45;&gt;TARGET_FORMS:e</title>
<path fill="none" stroke="#000000" d="M365.7873,-147.7C306.0787,-147.7 285.8845,-147.7 219.5,-147.7"/>
<polygon fill="#000000" stroke="#000000" points="372.5,-147.7001 380.5,-151.3 376.5,-147.7 380.5,-147.7 380.5,-147.7 380.5,-147.7 376.5,-147.7 380.5,-144.1 372.5,-147.7001 372.5,-147.7001"/>
<ellipse fill="none" stroke="#000000" cx="369.3" cy="-147.7001" rx="3.2" ry="3.2"/>
</g>
<!-- SUPPLEMENTS_ASSAY_TYPES_BINDING_CONSTANTS -->
<g id="node10" class="node">
<title>SUPPLEMENTS_ASSAY_TYPES_BINDING_CONSTANTS</title>
<g id="a_node10"><a xlink:href="../../tables/SUPPLEMENTS_ASSAY_TYPES_BINDING_CONSTANTS.html" xlink:title="SUPPLEMENTS_ASSAY_TYPES_BINDING_CONSTANTS" target="_top">
<polygon fill="#ffffff" stroke="transparent" points="588,-55.2 588,-204.2 958,-204.2 958,-55.2 588,-55.2"/>
<polygon fill="#f5f5f5" stroke="transparent" points="588,-180.7 588,-203.7 958,-203.7 958,-180.7 588,-180.7"/>
<polygon fill="none" stroke="#000000" points="588,-180.7 588,-203.7 958,-203.7 958,-180.7 588,-180.7"/>
<text text-anchor="start" x="593" y="-189.8" font-family="Helvetica,sans-Serif" font-weight="bold" font-size="11.00" fill="#000000">SUPPLEMENTS_ASSAY_TYPES_BINDING_CONSTANTS</text>
<text text-anchor="start" x="923.0437" y="-188.8" font-family="Helvetica,sans-Serif" font-size="11.00" fill="#000000">[table]</text>
<polygon fill="none" stroke="#000000" points="588,-158.7 588,-180.7 958,-180.7 958,-158.7 588,-158.7"/>
<image xlink:href="../../images/primaryKeys.png" width="11px" height="12px" preserveAspectRatio="xMinYMin meet" x="593" y="-175.7"/>
<text text-anchor="start" x="608" y="-165.8" font-family="Helvetica,sans-Serif" font-size="11.00" fill="#000000">ID</text>
<polygon fill="none" stroke="#000000" points="588,-136.7 588,-158.7 958,-158.7 958,-136.7 588,-136.7"/>
<image xlink:href="../../images/foreignKeys.png" width="11px" height="12px" preserveAspectRatio="xMinYMin meet" x="593" y="-153.7"/>
<text text-anchor="start" x="608" y="-143.8" font-family="Helvetica,sans-Serif" font-size="11.00" fill="#000000">SUPPLEMENT_ID</text>
<polygon fill="none" stroke="#000000" points="588,-114.7 588,-136.7 958,-136.7 958,-114.7 588,-114.7"/>
<image xlink:href="../../images/foreignKeys.png" width="11px" height="12px" preserveAspectRatio="xMinYMin meet" x="593" y="-131.7"/>
<text text-anchor="start" x="608" y="-121.8" font-family="Helvetica,sans-Serif" font-size="11.00" fill="#000000">ASSAY_TYPE_ID</text>
<polygon fill="none" stroke="#000000" points="588,-92.7 588,-114.7 958,-114.7 958,-92.7 588,-92.7"/>
<image xlink:href="../../images/foreignKeys.png" width="11px" height="12px" preserveAspectRatio="xMinYMin meet" x="593" y="-109.7"/>
<text text-anchor="start" x="608" y="-99.8" font-family="Helvetica,sans-Serif" font-size="11.00" fill="#000000">BINDING_CONSTANT_ID</text>
<polygon fill="none" stroke="#000000" points="588,-73.7 588,-92.7 958,-92.7 958,-73.7 588,-73.7"/>
<text text-anchor="start" x="591" y="-79.8" font-family="Helvetica,sans-Serif" font-size="11.00" fill="#000000">...</text>
<polygon fill="#ffffff" stroke="transparent" points="588,-54.7 588,-73.7 755,-73.7 755,-54.7 588,-54.7"/>
<polygon fill="none" stroke="#000000" points="588,-54.7 588,-73.7 755,-73.7 755,-54.7 588,-54.7"/>
<text text-anchor="start" x="591" y="-60.8" font-family="Helvetica,sans-Serif" font-size="11.00" fill="#000000">&lt; 3</text>
<polygon fill="#ffffff" stroke="transparent" points="755,-54.7 755,-73.7 872,-73.7 872,-54.7 755,-54.7"/>
<polygon fill="none" stroke="#000000" points="755,-54.7 755,-73.7 872,-73.7 872,-54.7 755,-54.7"/>
<text text-anchor="start" x="830.4956" y="-60.8" font-family="Helvetica,sans-Serif" font-size="11.00" fill="#000000">62 rows</text>
<polygon fill="#ffffff" stroke="transparent" points="872,-54.7 872,-73.7 958,-73.7 958,-54.7 872,-54.7"/>
<polygon fill="none" stroke="#000000" points="872,-54.7 872,-73.7 958,-73.7 958,-54.7 872,-54.7"/>
<text text-anchor="start" x="948.8862" y="-60.8" font-family="Helvetica,sans-Serif" font-size="11.00" fill="#000000"> &#160;</text>
</a>
</g>
</g>
<!-- SUPPLEMENTS_ASSAY_TYPES_BINDING_CONSTANTS&#45;&gt;ASSAY_TYPES -->
<g id="edge11" class="edge">
<title>SUPPLEMENTS_ASSAY_TYPES_BINDING_CONSTANTS:w&#45;&gt;ASSAY_TYPES:e</title>
<path fill="none" stroke="#000000" d="M573.8779,-130.1839C560.1046,-142.416 570.5602,-176.4636 547,-191.7 468.3036,-242.5929 410.3924,-160.1806 338,-219.7 292.6739,-256.966 354.1789,-344.7 295.5,-344.7"/>
<polygon fill="#000000" stroke="#000000" points="580.3751,-128.121 589.0894,-129.1312 584.1876,-126.9105 588,-125.7 588,-125.7 588,-125.7 584.1876,-126.9105 586.9106,-122.2688 580.3751,-128.121 580.3751,-128.121"/>
<ellipse fill="none" stroke="#000000" cx="577.3251" cy="-129.0894" rx="3.2" ry="3.2"/>
</g>
<!-- SUPPLEMENTS_ASSAY_TYPES_BINDING_CONSTANTS&#45;&gt;SUPPLEMENTS -->
<g id="edge13" class="edge">
<title>SUPPLEMENTS_ASSAY_TYPES_BINDING_CONSTANTS:w&#45;&gt;SUPPLEMENTS:e</title>
<path fill="none" stroke="#000000" d="M573.485,-147.7C547.6256,-147.7 536.2474,-147.7 504.5,-147.7"/>
<polygon fill="#000000" stroke="#000000" points="580,-147.7001 588,-151.3 584,-147.7 588,-147.7 588,-147.7 588,-147.7 584,-147.7 588,-144.1 580,-147.7001 580,-147.7001"/>
<ellipse fill="none" stroke="#000000" cx="576.8" cy="-147.7001" rx="3.2" ry="3.2"/>
</g>
<!-- BINDING_CONSTANTS -->
<g id="node11" class="node">
<title>BINDING_CONSTANTS</title>
<g id="a_node11"><a xlink:href="../../tables/BINDING_CONSTANTS.html" xlink:title="BINDING_CONSTANTS" target="_top">
<polygon fill="#ffffff" stroke="transparent" points="361.5,-38.2 361.5,-99.2 523.5,-99.2 523.5,-38.2 361.5,-38.2"/>
<polygon fill="#f5f5f5" stroke="transparent" points="361.5,-75.7 361.5,-98.7 523.5,-98.7 523.5,-75.7 361.5,-75.7"/>
<polygon fill="none" stroke="#000000" points="361.5,-75.7 361.5,-98.7 523.5,-98.7 523.5,-75.7 361.5,-75.7"/>
<text text-anchor="start" x="366.1144" y="-84.8" font-family="Helvetica,sans-Serif" font-weight="bold" font-size="11.00" fill="#000000">BINDING_CONSTANTS</text>
<text text-anchor="start" x="489.0219" y="-83.8" font-family="Helvetica,sans-Serif" font-size="11.00" fill="#000000">[table]</text>
<polygon fill="none" stroke="#000000" points="361.5,-56.7 361.5,-75.7 523.5,-75.7 523.5,-56.7 361.5,-56.7"/>
<text text-anchor="start" x="364.5" y="-62.8" font-family="Helvetica,sans-Serif" font-size="11.00" fill="#000000">...</text>
<polygon fill="#ffffff" stroke="transparent" points="361.5,-37.7 361.5,-56.7 418.5,-56.7 418.5,-37.7 361.5,-37.7"/>
<polygon fill="none" stroke="#000000" points="361.5,-37.7 361.5,-56.7 418.5,-56.7 418.5,-37.7 361.5,-37.7"/>
<text text-anchor="start" x="364.5" y="-43.8" font-family="Helvetica,sans-Serif" font-size="11.00" fill="#000000"> &#160;</text>
<polygon fill="#ffffff" stroke="transparent" points="418.5,-37.7 418.5,-56.7 479.5,-56.7 479.5,-37.7 418.5,-37.7"/>
<polygon fill="none" stroke="#000000" points="418.5,-37.7 418.5,-56.7 479.5,-56.7 479.5,-37.7 418.5,-37.7"/>
<text text-anchor="start" x="444.1105" y="-43.8" font-family="Helvetica,sans-Serif" font-size="11.00" fill="#000000">7 rows</text>
<polygon fill="#ffffff" stroke="transparent" points="479.5,-37.7 479.5,-56.7 523.5,-56.7 523.5,-37.7 479.5,-37.7"/>
<polygon fill="none" stroke="#000000" points="479.5,-37.7 479.5,-56.7 523.5,-56.7 523.5,-37.7 479.5,-37.7"/>
<text text-anchor="start" x="504.9053" y="-43.8" font-family="Helvetica,sans-Serif" font-size="11.00" fill="#000000">1 &gt;</text>
</a>
</g>
</g>
<!-- SUPPLEMENTS_ASSAY_TYPES_BINDING_CONSTANTS&#45;&gt;BINDING_CONSTANTS -->
<g id="edge12" class="edge">
<title>SUPPLEMENTS_ASSAY_TYPES_BINDING_CONSTANTS:w&#45;&gt;BINDING_CONSTANTS:e</title>
<path fill="none" stroke="#000000" d="M573.6154,-100.7182C554.3874,-91.7601 551.0532,-65.7 523.5,-65.7"/>
<polygon fill="#000000" stroke="#000000" points="580.1665,-102.0762 587.2693,-107.2251 584.0833,-102.8881 588,-103.7 588,-103.7 588,-103.7 584.0833,-102.8881 588.7307,-100.1749 580.1665,-102.0762 580.1665,-102.0762"/>
<ellipse fill="none" stroke="#000000" cx="577.0331" cy="-101.4266" rx="3.2" ry="3.2"/>
</g>
</g>
</svg>
