<?xml version="1.0" encoding="UTF-8" standalone="no"?>
<!DOCTYPE svg PUBLIC "-//W3C//DTD SVG 1.1//EN"
 "http://www.w3.org/Graphics/SVG/1.1/DTD/svg11.dtd">
<!-- Generated by graphviz version 2.40.1 (20161225.0304)
 -->
<!-- Title: oneDegreeRelationshipsDiagram Pages: 1 -->
<svg width="529pt" height="334pt"
 viewBox="0.00 0.00 529.00 333.70" xmlns="http://www.w3.org/2000/svg" xmlns:xlink="http://www.w3.org/1999/xlink">
<g id="graph0" class="graph" transform="scale(1 1) rotate(0) translate(4 329.7)">
<title>oneDegreeRelationshipsDiagram</title>
<polygon fill="#ffffff" stroke="transparent" points="-4,4 -4,-329.7 525,-329.7 525,4 -4,4"/>
<text text-anchor="middle" x="72.4936" y="-7.3" font-family="Helvetica,sans-Serif" font-size="11.00" fill="#000000">Generated by SchemaSpy</text>
<!-- TARGETS_CAMPAIGNS -->
<g id="node1" class="node">
<title>TARGETS_CAMPAIGNS</title>
<g id="a_node1"><a xlink:href="../../tables/TARGETS_CAMPAIGNS.html" xlink:title="TARGETS_CAMPAIGNS" target="_top">
<polygon fill="#ffffff" stroke="transparent" points="344,-216.7 344,-321.7 513,-321.7 513,-216.7 344,-216.7"/>
<polygon fill="#f5f5f5" stroke="transparent" points="344.5,-298.2 344.5,-321.2 513.5,-321.2 513.5,-298.2 344.5,-298.2"/>
<polygon fill="none" stroke="#000000" points="344.5,-298.2 344.5,-321.2 513.5,-321.2 513.5,-298.2 344.5,-298.2"/>
<text text-anchor="start" x="349.5" y="-307.3" font-family="Helvetica,sans-Serif" font-weight="bold" font-size="11.00" fill="#000000">TARGETS_CAMPAIGNS</text>
<text text-anchor="start" x="478.5437" y="-306.3" font-family="Helvetica,sans-Serif" font-size="11.00" fill="#000000">[table]</text>
<polygon fill="none" stroke="#000000" points="344.5,-276.2 344.5,-298.2 513.5,-298.2 513.5,-276.2 344.5,-276.2"/>
<image xlink:href="../../images/primaryKeys.png" width="11px" height="12px" preserveAspectRatio="xMinYMin meet" x="349.5" y="-293.2"/>
<text text-anchor="start" x="364.5" y="-283.3" font-family="Helvetica,sans-Serif" font-size="11.00" fill="#000000">ID</text>
<polygon fill="none" stroke="#000000" points="344.5,-254.2 344.5,-276.2 513.5,-276.2 513.5,-254.2 344.5,-254.2"/>
<image xlink:href="../../images/foreignKeys.png" width="11px" height="12px" preserveAspectRatio="xMinYMin meet" x="349.5" y="-271.2"/>
<text text-anchor="start" x="364.5" y="-261.3" font-family="Helvetica,sans-Serif" font-size="11.00" fill="#000000">CAMPAIGN_ID</text>
<polygon fill="none" stroke="#000000" points="344.5,-235.2 344.5,-254.2 513.5,-254.2 513.5,-235.2 344.5,-235.2"/>
<text text-anchor="start" x="347.5" y="-241.3" font-family="Helvetica,sans-Serif" font-size="11.00" fill="#000000">...</text>
<polygon fill="#ffffff" stroke="transparent" points="344.5,-216.2 344.5,-235.2 411.5,-235.2 411.5,-216.2 344.5,-216.2"/>
<polygon fill="none" stroke="#000000" points="344.5,-216.2 344.5,-235.2 411.5,-235.2 411.5,-216.2 344.5,-216.2"/>
<text text-anchor="start" x="347.5" y="-222.3" font-family="Helvetica,sans-Serif" font-size="11.00" fill="#000000">&lt; 1</text>
<polygon fill="#ffffff" stroke="transparent" points="411.5,-216.2 411.5,-235.2 478.5,-235.2 478.5,-216.2 411.5,-216.2"/>
<polygon fill="none" stroke="#000000" points="411.5,-216.2 411.5,-235.2 478.5,-235.2 478.5,-216.2 411.5,-216.2"/>
<text text-anchor="start" x="436.9956" y="-222.3" font-family="Helvetica,sans-Serif" font-size="11.00" fill="#000000">81 rows</text>
<polygon fill="#ffffff" stroke="transparent" points="478.5,-216.2 478.5,-235.2 513.5,-235.2 513.5,-216.2 478.5,-216.2"/>
<polygon fill="none" stroke="#000000" points="478.5,-216.2 478.5,-235.2 513.5,-235.2 513.5,-216.2 478.5,-216.2"/>
<text text-anchor="start" x="504.3862" y="-222.3" font-family="Helvetica,sans-Serif" font-size="11.00" fill="#000000"> &#160;</text>
</a>
</g>
</g>
<!-- CAMPAIGNS -->
<g id="node2" class="node">
<title>CAMPAIGNS</title>
<g id="a_node2"><a xlink:href="../../tables/CAMPAIGNS.html" xlink:title="CAMPAIGNS" target="_top">
<polygon fill="#ffffff" stroke="transparent" points="8,-38.2 8,-238.2 295,-238.2 295,-38.2 8,-38.2"/>
<polygon fill="#f5f5f5" stroke="transparent" points="10.5,-213.2 10.5,-236.2 293.5,-236.2 293.5,-213.2 10.5,-213.2"/>
<polygon fill="none" stroke="#000000" points="10.5,-213.2 10.5,-236.2 293.5,-236.2 293.5,-213.2 10.5,-213.2"/>
<text text-anchor="start" x="15.5" y="-222.3" font-family="Helvetica,sans-Serif" font-weight="bold" font-size="11.00" fill="#000000">CAMPAIGNS</text>
<text text-anchor="start" x="258.5437" y="-221.3" font-family="Helvetica,sans-Serif" font-size="11.00" fill="#000000">[table]</text>
<polygon fill="none" stroke="#000000" points="10.5,-191.2 10.5,-213.2 122.5,-213.2 122.5,-191.2 10.5,-191.2"/>
<image xlink:href="../../images/primaryKeys.png" width="11px" height="12px" preserveAspectRatio="xMinYMin meet" x="15.5" y="-208.2"/>
<text text-anchor="start" x="30.5" y="-198.3" font-family="Helvetica,sans-Serif" font-size="11.00" fill="#000000">ID</text>
<polygon fill="none" stroke="#000000" points="122.5,-191.2 122.5,-213.2 293.5,-213.2 293.5,-191.2 122.5,-191.2"/>
<text text-anchor="start" x="125.5" y="-198.9" font-family="Helvetica,sans-Serif" font-size="11.00" fill="#000000">number[19]</text>
<polygon fill="none" stroke="#000000" points="10.5,-169.2 10.5,-191.2 122.5,-191.2 122.5,-169.2 10.5,-169.2"/>
<text text-anchor="start" x="30.5" y="-176.3" font-family="Helvetica,sans-Serif" font-size="11.00" fill="#000000">CREATED_AT</text>
<polygon fill="none" stroke="#000000" points="122.5,-169.2 122.5,-191.2 293.5,-191.2 293.5,-169.2 122.5,-169.2"/>
<text text-anchor="start" x="125.4896" y="-176.9" font-family="Helvetica,sans-Serif" font-size="11.00" fill="#000000">timestamp(6) with time zone[13,6]</text>
<polygon fill="none" stroke="#000000" points="10.5,-147.2 10.5,-169.2 122.5,-169.2 122.5,-147.2 10.5,-147.2"/>
<text text-anchor="start" x="30.5" y="-154.3" font-family="Helvetica,sans-Serif" font-size="11.00" fill="#000000">CREATED_BY</text>
<polygon fill="none" stroke="#000000" points="122.5,-147.2 122.5,-169.2 293.5,-169.2 293.5,-147.2 122.5,-147.2"/>
<text text-anchor="start" x="125.5" y="-154.9" font-family="Helvetica,sans-Serif" font-size="11.00" fill="#000000">number[19]</text>
<polygon fill="none" stroke="#000000" points="10.5,-125.2 10.5,-147.2 122.5,-147.2 122.5,-125.2 10.5,-125.2"/>
<text text-anchor="start" x="30.5" y="-132.3" font-family="Helvetica,sans-Serif" font-size="11.00" fill="#000000">UPDATED_AT</text>
<polygon fill="none" stroke="#000000" points="122.5,-125.2 122.5,-147.2 293.5,-147.2 293.5,-125.2 122.5,-125.2"/>
<text text-anchor="start" x="125.4896" y="-132.9" font-family="Helvetica,sans-Serif" font-size="11.00" fill="#000000">timestamp(6) with time zone[13,6]</text>
<polygon fill="none" stroke="#000000" points="10.5,-103.2 10.5,-125.2 122.5,-125.2 122.5,-103.2 10.5,-103.2"/>
<text text-anchor="start" x="30.5" y="-110.3" font-family="Helvetica,sans-Serif" font-size="11.00" fill="#000000">UPDATED_BY</text>
<polygon fill="none" stroke="#000000" points="122.5,-103.2 122.5,-125.2 293.5,-125.2 293.5,-103.2 122.5,-103.2"/>
<text text-anchor="start" x="125.5" y="-110.9" font-family="Helvetica,sans-Serif" font-size="11.00" fill="#000000">number[19]</text>
<polygon fill="none" stroke="#000000" points="10.5,-81.2 10.5,-103.2 122.5,-103.2 122.5,-81.2 10.5,-81.2"/>
<text text-anchor="start" x="30.5" y="-88.3" font-family="Helvetica,sans-Serif" font-size="11.00" fill="#000000">NAME</text>
<polygon fill="none" stroke="#000000" points="122.5,-81.2 122.5,-103.2 293.5,-103.2 293.5,-81.2 122.5,-81.2"/>
<text text-anchor="start" x="125.5" y="-88.9" font-family="Helvetica,sans-Serif" font-size="11.00" fill="#000000">varchar2[255]</text>
<polygon fill="none" stroke="#000000" points="10.5,-59.2 10.5,-81.2 122.5,-81.2 122.5,-59.2 10.5,-59.2"/>
<text text-anchor="start" x="30.5" y="-66.3" font-family="Helvetica,sans-Serif" font-size="11.00" fill="#000000">DESCRIPTION</text>
<polygon fill="none" stroke="#000000" points="122.5,-59.2 122.5,-81.2 293.5,-81.2 293.5,-59.2 122.5,-59.2"/>
<text text-anchor="start" x="125.5" y="-66.9" font-family="Helvetica,sans-Serif" font-size="11.00" fill="#000000">clob[4000]</text>
<polygon fill="#ffffff" stroke="transparent" points="10.5,-40.2 10.5,-59.2 54.5,-59.2 54.5,-40.2 10.5,-40.2"/>
<polygon fill="none" stroke="#000000" points="10.5,-40.2 10.5,-59.2 54.5,-59.2 54.5,-40.2 10.5,-40.2"/>
<text text-anchor="start" x="13.5" y="-46.3" font-family="Helvetica,sans-Serif" font-size="11.00" fill="#000000">&lt; 0</text>
<polygon fill="#ffffff" stroke="transparent" points="54.5,-40.2 54.5,-59.2 122.5,-59.2 122.5,-40.2 54.5,-40.2"/>
<polygon fill="none" stroke="#000000" points="54.5,-40.2 54.5,-59.2 122.5,-59.2 122.5,-40.2 54.5,-40.2"/>
<text text-anchor="start" x="80.9956" y="-46.3" font-family="Helvetica,sans-Serif" font-size="11.00" fill="#000000">86 rows</text>
<polygon fill="#ffffff" stroke="transparent" points="122.5,-40.2 122.5,-59.2 293.5,-59.2 293.5,-40.2 122.5,-40.2"/>
<polygon fill="none" stroke="#000000" points="122.5,-40.2 122.5,-59.2 293.5,-59.2 293.5,-40.2 122.5,-40.2"/>
<text text-anchor="start" x="274.9053" y="-46.3" font-family="Helvetica,sans-Serif" font-size="11.00" fill="#000000">2 &gt;</text>
<polygon fill="none" stroke="#000000" stroke-width="2" points="9,-39.2 9,-237.2 294,-237.2 294,-39.2 9,-39.2"/>
</a>
</g>
</g>
<!-- TARGETS_CAMPAIGNS&#45;&gt;CAMPAIGNS -->
<g id="edge1" class="edge">
<title>TARGETS_CAMPAIGNS:w&#45;&gt;CAMPAIGNS:e</title>
<path fill="none" stroke="#000000" d="M330.4033,-260.2565C314.025,-245.4048 323.3329,-202.2 293.5,-202.2"/>
<polygon fill="#000000" stroke="#000000" points="336.9507,-262.5526 343.3087,-268.5972 340.7254,-263.8763 344.5,-265.2 344.5,-265.2 344.5,-265.2 340.7254,-263.8763 345.6913,-261.8028 336.9507,-262.5526 336.9507,-262.5526"/>
<ellipse fill="none" stroke="#000000" cx="333.931" cy="-261.4936" rx="3.2" ry="3.2"/>
</g>
<!-- VERSIONS -->
<g id="node3" class="node">
<title>VERSIONS</title>
<g id="a_node3"><a xlink:href="../../tables/VERSIONS.html" xlink:title="VERSIONS" target="_top">
<polygon fill="#ffffff" stroke="transparent" points="372,-90.7 372,-195.7 485,-195.7 485,-90.7 372,-90.7"/>
<polygon fill="#f5f5f5" stroke="transparent" points="372.5,-172.2 372.5,-195.2 485.5,-195.2 485.5,-172.2 372.5,-172.2"/>
<polygon fill="none" stroke="#000000" points="372.5,-172.2 372.5,-195.2 485.5,-195.2 485.5,-172.2 372.5,-172.2"/>
<text text-anchor="start" x="377.5" y="-181.3" font-family="Helvetica,sans-Serif" font-weight="bold" font-size="11.00" fill="#000000">VERSIONS</text>
<text text-anchor="start" x="450.5437" y="-180.3" font-family="Helvetica,sans-Serif" font-size="11.00" fill="#000000">[table]</text>
<polygon fill="none" stroke="#000000" points="372.5,-150.2 372.5,-172.2 485.5,-172.2 485.5,-150.2 372.5,-150.2"/>
<image xlink:href="../../images/primaryKeys.png" width="11px" height="12px" preserveAspectRatio="xMinYMin meet" x="377.5" y="-167.2"/>
<text text-anchor="start" x="392.5" y="-157.3" font-family="Helvetica,sans-Serif" font-size="11.00" fill="#000000">ID</text>
<polygon fill="none" stroke="#000000" points="372.5,-128.2 372.5,-150.2 485.5,-150.2 485.5,-128.2 372.5,-128.2"/>
<image xlink:href="../../images/foreignKeys.png" width="11px" height="12px" preserveAspectRatio="xMinYMin meet" x="377.5" y="-145.2"/>
<text text-anchor="start" x="392.5" y="-135.3" font-family="Helvetica,sans-Serif" font-size="11.00" fill="#000000">CAMPAIGN_ID</text>
<polygon fill="none" stroke="#000000" points="372.5,-109.2 372.5,-128.2 485.5,-128.2 485.5,-109.2 372.5,-109.2"/>
<text text-anchor="start" x="375.5" y="-115.3" font-family="Helvetica,sans-Serif" font-size="11.00" fill="#000000">...</text>
<polygon fill="#ffffff" stroke="transparent" points="372.5,-90.2 372.5,-109.2 403.5,-109.2 403.5,-90.2 372.5,-90.2"/>
<polygon fill="none" stroke="#000000" points="372.5,-90.2 372.5,-109.2 403.5,-109.2 403.5,-90.2 372.5,-90.2"/>
<text text-anchor="start" x="375.5" y="-96.3" font-family="Helvetica,sans-Serif" font-size="11.00" fill="#000000">&lt; 1</text>
<polygon fill="#ffffff" stroke="transparent" points="403.5,-90.2 403.5,-109.2 458.5,-109.2 458.5,-90.2 403.5,-90.2"/>
<polygon fill="none" stroke="#000000" points="403.5,-90.2 403.5,-109.2 458.5,-109.2 458.5,-90.2 403.5,-90.2"/>
<text text-anchor="start" x="410.8807" y="-96.3" font-family="Helvetica,sans-Serif" font-size="11.00" fill="#000000">222 rows</text>
<polygon fill="#ffffff" stroke="transparent" points="458.5,-90.2 458.5,-109.2 485.5,-109.2 485.5,-90.2 458.5,-90.2"/>
<polygon fill="none" stroke="#000000" points="458.5,-90.2 458.5,-109.2 485.5,-109.2 485.5,-90.2 458.5,-90.2"/>
<text text-anchor="start" x="466.9053" y="-96.3" font-family="Helvetica,sans-Serif" font-size="11.00" fill="#000000">4 &gt;</text>
</a>
</g>
</g>
<!-- VERSIONS&#45;&gt;CAMPAIGNS -->
<g id="edge2" class="edge">
<title>VERSIONS:w&#45;&gt;CAMPAIGNS:e</title>
<path fill="none" stroke="#000000" d="M358.0537,-141.907C329.4249,-153.9656 332.7951,-202.2 293.5,-202.2"/>
<polygon fill="#000000" stroke="#000000" points="364.6369,-140.6735 373.1631,-142.7384 368.5684,-139.9367 372.5,-139.2 372.5,-139.2 372.5,-139.2 368.5684,-139.9367 371.8369,-135.6616 364.6369,-140.6735 364.6369,-140.6735"/>
<ellipse fill="none" stroke="#000000" cx="361.4916" cy="-141.2629" rx="3.2" ry="3.2"/>
</g>
</g>
</svg>
