<?xml version="1.0" encoding="UTF-8" standalone="no"?>
<!DOCTYPE svg PUBLIC "-//W3C//DTD SVG 1.1//EN"
 "http://www.w3.org/Graphics/SVG/1.1/DTD/svg11.dtd">
<!-- Generated by graphviz version 2.40.1 (20161225.0304)
 -->
<!-- Title: twoDegreesRelationshipsDiagram Pages: 1 -->
<svg width="765pt" height="361pt"
 viewBox="0.00 0.00 765.00 361.20" xmlns="http://www.w3.org/2000/svg" xmlns:xlink="http://www.w3.org/1999/xlink">
<g id="graph0" class="graph" transform="scale(1 1) rotate(0) translate(4 357.2)">
<title>twoDegreesRelationshipsDiagram</title>
<polygon fill="#ffffff" stroke="transparent" points="-4,4 -4,-357.2 761,-357.2 761,4 -4,4"/>
<text text-anchor="middle" x="72.4936" y="-7.3" font-family="Helvetica,sans-Serif" font-size="11.00" fill="#000000">Generated by SchemaSpy</text>
<!-- TARGETS_CAMPAIGNS -->
<g id="node1" class="node">
<title>TARGETS_CAMPAIGNS</title>
<g id="a_node1"><a xlink:href="../../tables/TARGETS_CAMPAIGNS.html" xlink:title="TARGETS_CAMPAIGNS" target="_top">
<polygon fill="#ffffff" stroke="transparent" points="344,-244.2 344,-349.2 513,-349.2 513,-244.2 344,-244.2"/>
<polygon fill="#f5f5f5" stroke="transparent" points="344.5,-325.7 344.5,-348.7 513.5,-348.7 513.5,-325.7 344.5,-325.7"/>
<polygon fill="none" stroke="#000000" points="344.5,-325.7 344.5,-348.7 513.5,-348.7 513.5,-325.7 344.5,-325.7"/>
<text text-anchor="start" x="349.5" y="-334.8" font-family="Helvetica,sans-Serif" font-weight="bold" font-size="11.00" fill="#000000">TARGETS_CAMPAIGNS</text>
<text text-anchor="start" x="478.5437" y="-333.8" font-family="Helvetica,sans-Serif" font-size="11.00" fill="#000000">[table]</text>
<polygon fill="none" stroke="#000000" points="344.5,-303.7 344.5,-325.7 513.5,-325.7 513.5,-303.7 344.5,-303.7"/>
<image xlink:href="../../images/primaryKeys.png" width="11px" height="12px" preserveAspectRatio="xMinYMin meet" x="349.5" y="-320.7"/>
<text text-anchor="start" x="364.5" y="-310.8" font-family="Helvetica,sans-Serif" font-size="11.00" fill="#000000">ID</text>
<polygon fill="none" stroke="#000000" points="344.5,-281.7 344.5,-303.7 513.5,-303.7 513.5,-281.7 344.5,-281.7"/>
<image xlink:href="../../images/foreignKeys.png" width="11px" height="12px" preserveAspectRatio="xMinYMin meet" x="349.5" y="-298.7"/>
<text text-anchor="start" x="364.5" y="-288.8" font-family="Helvetica,sans-Serif" font-size="11.00" fill="#000000">CAMPAIGN_ID</text>
<polygon fill="none" stroke="#000000" points="344.5,-262.7 344.5,-281.7 513.5,-281.7 513.5,-262.7 344.5,-262.7"/>
<text text-anchor="start" x="347.5" y="-268.8" font-family="Helvetica,sans-Serif" font-size="11.00" fill="#000000">...</text>
<polygon fill="#ffffff" stroke="transparent" points="344.5,-243.7 344.5,-262.7 411.5,-262.7 411.5,-243.7 344.5,-243.7"/>
<polygon fill="none" stroke="#000000" points="344.5,-243.7 344.5,-262.7 411.5,-262.7 411.5,-243.7 344.5,-243.7"/>
<text text-anchor="start" x="347.5" y="-249.8" font-family="Helvetica,sans-Serif" font-size="11.00" fill="#000000">&lt; 1</text>
<polygon fill="#ffffff" stroke="transparent" points="411.5,-243.7 411.5,-262.7 478.5,-262.7 478.5,-243.7 411.5,-243.7"/>
<polygon fill="none" stroke="#000000" points="411.5,-243.7 411.5,-262.7 478.5,-262.7 478.5,-243.7 411.5,-243.7"/>
<text text-anchor="start" x="436.9956" y="-249.8" font-family="Helvetica,sans-Serif" font-size="11.00" fill="#000000">81 rows</text>
<polygon fill="#ffffff" stroke="transparent" points="478.5,-243.7 478.5,-262.7 513.5,-262.7 513.5,-243.7 478.5,-243.7"/>
<polygon fill="none" stroke="#000000" points="478.5,-243.7 478.5,-262.7 513.5,-262.7 513.5,-243.7 478.5,-243.7"/>
<text text-anchor="start" x="504.3862" y="-249.8" font-family="Helvetica,sans-Serif" font-size="11.00" fill="#000000"> &#160;</text>
</a>
</g>
</g>
<!-- CAMPAIGNS -->
<g id="node2" class="node">
<title>CAMPAIGNS</title>
<g id="a_node2"><a xlink:href="../../tables/CAMPAIGNS.html" xlink:title="CAMPAIGNS" target="_top">
<polygon fill="#ffffff" stroke="transparent" points="8,-65.7 8,-265.7 295,-265.7 295,-65.7 8,-65.7"/>
<polygon fill="#f5f5f5" stroke="transparent" points="10.5,-240.7 10.5,-263.7 293.5,-263.7 293.5,-240.7 10.5,-240.7"/>
<polygon fill="none" stroke="#000000" points="10.5,-240.7 10.5,-263.7 293.5,-263.7 293.5,-240.7 10.5,-240.7"/>
<text text-anchor="start" x="15.5" y="-249.8" font-family="Helvetica,sans-Serif" font-weight="bold" font-size="11.00" fill="#000000">CAMPAIGNS</text>
<text text-anchor="start" x="258.5437" y="-248.8" font-family="Helvetica,sans-Serif" font-size="11.00" fill="#000000">[table]</text>
<polygon fill="none" stroke="#000000" points="10.5,-218.7 10.5,-240.7 122.5,-240.7 122.5,-218.7 10.5,-218.7"/>
<image xlink:href="../../images/primaryKeys.png" width="11px" height="12px" preserveAspectRatio="xMinYMin meet" x="15.5" y="-235.7"/>
<text text-anchor="start" x="30.5" y="-225.8" font-family="Helvetica,sans-Serif" font-size="11.00" fill="#000000">ID</text>
<polygon fill="none" stroke="#000000" points="122.5,-218.7 122.5,-240.7 293.5,-240.7 293.5,-218.7 122.5,-218.7"/>
<text text-anchor="start" x="125.5" y="-226.4" font-family="Helvetica,sans-Serif" font-size="11.00" fill="#000000">number[19]</text>
<polygon fill="none" stroke="#000000" points="10.5,-196.7 10.5,-218.7 122.5,-218.7 122.5,-196.7 10.5,-196.7"/>
<text text-anchor="start" x="30.5" y="-203.8" font-family="Helvetica,sans-Serif" font-size="11.00" fill="#000000">CREATED_AT</text>
<polygon fill="none" stroke="#000000" points="122.5,-196.7 122.5,-218.7 293.5,-218.7 293.5,-196.7 122.5,-196.7"/>
<text text-anchor="start" x="125.4896" y="-204.4" font-family="Helvetica,sans-Serif" font-size="11.00" fill="#000000">timestamp(6) with time zone[13,6]</text>
<polygon fill="none" stroke="#000000" points="10.5,-174.7 10.5,-196.7 122.5,-196.7 122.5,-174.7 10.5,-174.7"/>
<text text-anchor="start" x="30.5" y="-181.8" font-family="Helvetica,sans-Serif" font-size="11.00" fill="#000000">CREATED_BY</text>
<polygon fill="none" stroke="#000000" points="122.5,-174.7 122.5,-196.7 293.5,-196.7 293.5,-174.7 122.5,-174.7"/>
<text text-anchor="start" x="125.5" y="-182.4" font-family="Helvetica,sans-Serif" font-size="11.00" fill="#000000">number[19]</text>
<polygon fill="none" stroke="#000000" points="10.5,-152.7 10.5,-174.7 122.5,-174.7 122.5,-152.7 10.5,-152.7"/>
<text text-anchor="start" x="30.5" y="-159.8" font-family="Helvetica,sans-Serif" font-size="11.00" fill="#000000">UPDATED_AT</text>
<polygon fill="none" stroke="#000000" points="122.5,-152.7 122.5,-174.7 293.5,-174.7 293.5,-152.7 122.5,-152.7"/>
<text text-anchor="start" x="125.4896" y="-160.4" font-family="Helvetica,sans-Serif" font-size="11.00" fill="#000000">timestamp(6) with time zone[13,6]</text>
<polygon fill="none" stroke="#000000" points="10.5,-130.7 10.5,-152.7 122.5,-152.7 122.5,-130.7 10.5,-130.7"/>
<text text-anchor="start" x="30.5" y="-137.8" font-family="Helvetica,sans-Serif" font-size="11.00" fill="#000000">UPDATED_BY</text>
<polygon fill="none" stroke="#000000" points="122.5,-130.7 122.5,-152.7 293.5,-152.7 293.5,-130.7 122.5,-130.7"/>
<text text-anchor="start" x="125.5" y="-138.4" font-family="Helvetica,sans-Serif" font-size="11.00" fill="#000000">number[19]</text>
<polygon fill="none" stroke="#000000" points="10.5,-108.7 10.5,-130.7 122.5,-130.7 122.5,-108.7 10.5,-108.7"/>
<text text-anchor="start" x="30.5" y="-115.8" font-family="Helvetica,sans-Serif" font-size="11.00" fill="#000000">NAME</text>
<polygon fill="none" stroke="#000000" points="122.5,-108.7 122.5,-130.7 293.5,-130.7 293.5,-108.7 122.5,-108.7"/>
<text text-anchor="start" x="125.5" y="-116.4" font-family="Helvetica,sans-Serif" font-size="11.00" fill="#000000">varchar2[255]</text>
<polygon fill="none" stroke="#000000" points="10.5,-86.7 10.5,-108.7 122.5,-108.7 122.5,-86.7 10.5,-86.7"/>
<text text-anchor="start" x="30.5" y="-93.8" font-family="Helvetica,sans-Serif" font-size="11.00" fill="#000000">DESCRIPTION</text>
<polygon fill="none" stroke="#000000" points="122.5,-86.7 122.5,-108.7 293.5,-108.7 293.5,-86.7 122.5,-86.7"/>
<text text-anchor="start" x="125.5" y="-94.4" font-family="Helvetica,sans-Serif" font-size="11.00" fill="#000000">clob[4000]</text>
<polygon fill="#ffffff" stroke="transparent" points="10.5,-67.7 10.5,-86.7 54.5,-86.7 54.5,-67.7 10.5,-67.7"/>
<polygon fill="none" stroke="#000000" points="10.5,-67.7 10.5,-86.7 54.5,-86.7 54.5,-67.7 10.5,-67.7"/>
<text text-anchor="start" x="13.5" y="-73.8" font-family="Helvetica,sans-Serif" font-size="11.00" fill="#000000">&lt; 0</text>
<polygon fill="#ffffff" stroke="transparent" points="54.5,-67.7 54.5,-86.7 122.5,-86.7 122.5,-67.7 54.5,-67.7"/>
<polygon fill="none" stroke="#000000" points="54.5,-67.7 54.5,-86.7 122.5,-86.7 122.5,-67.7 54.5,-67.7"/>
<text text-anchor="start" x="80.9956" y="-73.8" font-family="Helvetica,sans-Serif" font-size="11.00" fill="#000000">86 rows</text>
<polygon fill="#ffffff" stroke="transparent" points="122.5,-67.7 122.5,-86.7 293.5,-86.7 293.5,-67.7 122.5,-67.7"/>
<polygon fill="none" stroke="#000000" points="122.5,-67.7 122.5,-86.7 293.5,-86.7 293.5,-67.7 122.5,-67.7"/>
<text text-anchor="start" x="274.9053" y="-73.8" font-family="Helvetica,sans-Serif" font-size="11.00" fill="#000000">2 &gt;</text>
<polygon fill="none" stroke="#000000" stroke-width="2" points="9,-66.7 9,-264.7 294,-264.7 294,-66.7 9,-66.7"/>
</a>
</g>
</g>
<!-- TARGETS_CAMPAIGNS&#45;&gt;CAMPAIGNS -->
<g id="edge1" class="edge">
<title>TARGETS_CAMPAIGNS:w&#45;&gt;CAMPAIGNS:e</title>
<path fill="none" stroke="#000000" d="M330.4033,-287.7565C314.025,-272.9048 323.3329,-229.7 293.5,-229.7"/>
<polygon fill="#000000" stroke="#000000" points="336.9507,-290.0526 343.3087,-296.0972 340.7254,-291.3763 344.5,-292.7 344.5,-292.7 344.5,-292.7 340.7254,-291.3763 345.6913,-289.3028 336.9507,-290.0526 336.9507,-290.0526"/>
<ellipse fill="none" stroke="#000000" cx="333.931" cy="-288.9936" rx="3.2" ry="3.2"/>
</g>
<!-- VERSION_COMMENTS -->
<g id="node3" class="node">
<title>VERSION_COMMENTS</title>
<g id="a_node3"><a xlink:href="../../tables/VERSION_COMMENTS.html" xlink:title="VERSION_COMMENTS" target="_top">
<polygon fill="#ffffff" stroke="transparent" points="574.5,-284.2 574.5,-345.2 736.5,-345.2 736.5,-284.2 574.5,-284.2"/>
<polygon fill="#f5f5f5" stroke="transparent" points="574.5,-321.7 574.5,-344.7 736.5,-344.7 736.5,-321.7 574.5,-321.7"/>
<polygon fill="none" stroke="#000000" points="574.5,-321.7 574.5,-344.7 736.5,-344.7 736.5,-321.7 574.5,-321.7"/>
<text text-anchor="start" x="579.1138" y="-330.8" font-family="Helvetica,sans-Serif" font-weight="bold" font-size="11.00" fill="#000000">VERSION_COMMENTS</text>
<text text-anchor="start" x="702.0219" y="-329.8" font-family="Helvetica,sans-Serif" font-size="11.00" fill="#000000">[table]</text>
<polygon fill="none" stroke="#000000" points="574.5,-302.7 574.5,-321.7 736.5,-321.7 736.5,-302.7 574.5,-302.7"/>
<text text-anchor="start" x="577.5" y="-308.8" font-family="Helvetica,sans-Serif" font-size="11.00" fill="#000000">...</text>
<polygon fill="#ffffff" stroke="transparent" points="574.5,-283.7 574.5,-302.7 637.5,-302.7 637.5,-283.7 574.5,-283.7"/>
<polygon fill="none" stroke="#000000" points="574.5,-283.7 574.5,-302.7 637.5,-302.7 637.5,-283.7 574.5,-283.7"/>
<text text-anchor="start" x="577.5" y="-289.8" font-family="Helvetica,sans-Serif" font-size="11.00" fill="#000000">&lt; 1</text>
<polygon fill="#ffffff" stroke="transparent" points="637.5,-283.7 637.5,-302.7 702.5,-302.7 702.5,-283.7 637.5,-283.7"/>
<polygon fill="none" stroke="#000000" points="637.5,-283.7 637.5,-302.7 702.5,-302.7 702.5,-283.7 637.5,-283.7"/>
<text text-anchor="start" x="660.9956" y="-289.8" font-family="Helvetica,sans-Serif" font-size="11.00" fill="#000000">21 rows</text>
<polygon fill="#ffffff" stroke="transparent" points="702.5,-283.7 702.5,-302.7 736.5,-302.7 736.5,-283.7 702.5,-283.7"/>
<polygon fill="none" stroke="#000000" points="702.5,-283.7 702.5,-302.7 736.5,-302.7 736.5,-283.7 702.5,-283.7"/>
<text text-anchor="start" x="727.3862" y="-289.8" font-family="Helvetica,sans-Serif" font-size="11.00" fill="#000000"> &#160;</text>
</a>
</g>
</g>
<!-- VERSIONS -->
<g id="node4" class="node">
<title>VERSIONS</title>
<g id="a_node4"><a xlink:href="../../tables/VERSIONS.html" xlink:title="VERSIONS" target="_top">
<polygon fill="#ffffff" stroke="transparent" points="372,-118.2 372,-223.2 485,-223.2 485,-118.2 372,-118.2"/>
<polygon fill="#f5f5f5" stroke="transparent" points="372.5,-199.7 372.5,-222.7 485.5,-222.7 485.5,-199.7 372.5,-199.7"/>
<polygon fill="none" stroke="#000000" points="372.5,-199.7 372.5,-222.7 485.5,-222.7 485.5,-199.7 372.5,-199.7"/>
<text text-anchor="start" x="377.5" y="-208.8" font-family="Helvetica,sans-Serif" font-weight="bold" font-size="11.00" fill="#000000">VERSIONS</text>
<text text-anchor="start" x="450.5437" y="-207.8" font-family="Helvetica,sans-Serif" font-size="11.00" fill="#000000">[table]</text>
<polygon fill="none" stroke="#000000" points="372.5,-177.7 372.5,-199.7 485.5,-199.7 485.5,-177.7 372.5,-177.7"/>
<image xlink:href="../../images/primaryKeys.png" width="11px" height="12px" preserveAspectRatio="xMinYMin meet" x="377.5" y="-194.7"/>
<text text-anchor="start" x="392.5" y="-184.8" font-family="Helvetica,sans-Serif" font-size="11.00" fill="#000000">ID</text>
<polygon fill="none" stroke="#000000" points="372.5,-155.7 372.5,-177.7 485.5,-177.7 485.5,-155.7 372.5,-155.7"/>
<image xlink:href="../../images/foreignKeys.png" width="11px" height="12px" preserveAspectRatio="xMinYMin meet" x="377.5" y="-172.7"/>
<text text-anchor="start" x="392.5" y="-162.8" font-family="Helvetica,sans-Serif" font-size="11.00" fill="#000000">CAMPAIGN_ID</text>
<polygon fill="none" stroke="#000000" points="372.5,-136.7 372.5,-155.7 485.5,-155.7 485.5,-136.7 372.5,-136.7"/>
<text text-anchor="start" x="375.5" y="-142.8" font-family="Helvetica,sans-Serif" font-size="11.00" fill="#000000">...</text>
<polygon fill="#ffffff" stroke="transparent" points="372.5,-117.7 372.5,-136.7 403.5,-136.7 403.5,-117.7 372.5,-117.7"/>
<polygon fill="none" stroke="#000000" points="372.5,-117.7 372.5,-136.7 403.5,-136.7 403.5,-117.7 372.5,-117.7"/>
<text text-anchor="start" x="375.5" y="-123.8" font-family="Helvetica,sans-Serif" font-size="11.00" fill="#000000">&lt; 1</text>
<polygon fill="#ffffff" stroke="transparent" points="403.5,-117.7 403.5,-136.7 458.5,-136.7 458.5,-117.7 403.5,-117.7"/>
<polygon fill="none" stroke="#000000" points="403.5,-117.7 403.5,-136.7 458.5,-136.7 458.5,-117.7 403.5,-117.7"/>
<text text-anchor="start" x="410.8807" y="-123.8" font-family="Helvetica,sans-Serif" font-size="11.00" fill="#000000">222 rows</text>
<polygon fill="#ffffff" stroke="transparent" points="458.5,-117.7 458.5,-136.7 485.5,-136.7 485.5,-117.7 458.5,-117.7"/>
<polygon fill="none" stroke="#000000" points="458.5,-117.7 458.5,-136.7 485.5,-136.7 485.5,-117.7 458.5,-117.7"/>
<text text-anchor="start" x="466.9053" y="-123.8" font-family="Helvetica,sans-Serif" font-size="11.00" fill="#000000">4 &gt;</text>
</a>
</g>
</g>
<!-- VERSION_COMMENTS&#45;&gt;VERSIONS -->
<g id="edge2" class="edge">
<title>VERSION_COMMENTS:w&#45;&gt;VERSIONS:e</title>
<path fill="none" stroke="#000000" d="M560.0591,-309.3527C513.7993,-292.348 547.4414,-188.7 485.5,-188.7"/>
<polygon fill="#000000" stroke="#000000" points="566.6036,-310.4165 573.9224,-315.2534 570.5518,-311.0582 574.5,-311.7 574.5,-311.7 574.5,-311.7 570.5518,-311.0582 575.0776,-308.1466 566.6036,-310.4165 566.6036,-310.4165"/>
<ellipse fill="none" stroke="#000000" cx="563.4451" cy="-309.903" rx="3.2" ry="3.2"/>
</g>
<!-- VERSIONS&#45;&gt;CAMPAIGNS -->
<g id="edge3" class="edge">
<title>VERSIONS:w&#45;&gt;CAMPAIGNS:e</title>
<path fill="none" stroke="#000000" d="M358.0537,-169.407C329.4249,-181.4656 332.7951,-229.7 293.5,-229.7"/>
<polygon fill="#000000" stroke="#000000" points="364.6369,-168.1735 373.1631,-170.2384 368.5684,-167.4367 372.5,-166.7 372.5,-166.7 372.5,-166.7 368.5684,-167.4367 371.8369,-163.1616 364.6369,-168.1735 364.6369,-168.1735"/>
<ellipse fill="none" stroke="#000000" cx="361.4916" cy="-168.7629" rx="3.2" ry="3.2"/>
</g>
<!-- VERSIONS_PARTS -->
<g id="node5" class="node">
<title>VERSIONS_PARTS</title>
<g id="a_node5"><a xlink:href="../../tables/VERSIONS_PARTS.html" xlink:title="VERSIONS_PARTS" target="_top">
<polygon fill="#ffffff" stroke="transparent" points="584.5,-202.2 584.5,-263.2 726.5,-263.2 726.5,-202.2 584.5,-202.2"/>
<polygon fill="#f5f5f5" stroke="transparent" points="584.5,-239.7 584.5,-262.7 726.5,-262.7 726.5,-239.7 584.5,-239.7"/>
<polygon fill="none" stroke="#000000" points="584.5,-239.7 584.5,-262.7 726.5,-262.7 726.5,-239.7 584.5,-239.7"/>
<text text-anchor="start" x="589.1887" y="-248.8" font-family="Helvetica,sans-Serif" font-weight="bold" font-size="11.00" fill="#000000">VERSIONS_PARTS</text>
<text text-anchor="start" x="692.0219" y="-247.8" font-family="Helvetica,sans-Serif" font-size="11.00" fill="#000000">[table]</text>
<polygon fill="none" stroke="#000000" points="584.5,-220.7 584.5,-239.7 726.5,-239.7 726.5,-220.7 584.5,-220.7"/>
<text text-anchor="start" x="587.5" y="-226.8" font-family="Helvetica,sans-Serif" font-size="11.00" fill="#000000">...</text>
<polygon fill="#ffffff" stroke="transparent" points="584.5,-201.7 584.5,-220.7 630.5,-220.7 630.5,-201.7 584.5,-201.7"/>
<polygon fill="none" stroke="#000000" points="584.5,-201.7 584.5,-220.7 630.5,-220.7 630.5,-201.7 584.5,-201.7"/>
<text text-anchor="start" x="587.5" y="-207.8" font-family="Helvetica,sans-Serif" font-size="11.00" fill="#000000">&lt; 2</text>
<polygon fill="#ffffff" stroke="transparent" points="630.5,-201.7 630.5,-220.7 692.5,-220.7 692.5,-201.7 630.5,-201.7"/>
<polygon fill="none" stroke="#000000" points="630.5,-201.7 630.5,-220.7 692.5,-220.7 692.5,-201.7 630.5,-201.7"/>
<text text-anchor="start" x="644.8807" y="-207.8" font-family="Helvetica,sans-Serif" font-size="11.00" fill="#000000">449 rows</text>
<polygon fill="#ffffff" stroke="transparent" points="692.5,-201.7 692.5,-220.7 726.5,-220.7 726.5,-201.7 692.5,-201.7"/>
<polygon fill="none" stroke="#000000" points="692.5,-201.7 692.5,-220.7 726.5,-220.7 726.5,-201.7 692.5,-201.7"/>
<text text-anchor="start" x="707.9053" y="-207.8" font-family="Helvetica,sans-Serif" font-size="11.00" fill="#000000">2 &gt;</text>
</a>
</g>
</g>
<!-- VERSIONS_PARTS&#45;&gt;VERSIONS -->
<g id="edge4" class="edge">
<title>VERSIONS_PARTS:w&#45;&gt;VERSIONS:e</title>
<path fill="none" stroke="#000000" d="M569.8767,-228.2408C535.4629,-220.9371 527.7291,-188.7 485.5,-188.7"/>
<polygon fill="#000000" stroke="#000000" points="576.5395,-228.9056 584.1425,-233.2822 580.5198,-229.3028 584.5,-229.7 584.5,-229.7 584.5,-229.7 580.5198,-229.3028 584.8575,-226.1178 576.5395,-228.9056 576.5395,-228.9056"/>
<ellipse fill="none" stroke="#000000" cx="573.3553" cy="-228.5878" rx="3.2" ry="3.2"/>
</g>
<!-- VERSIONS_SUPPLEMENTS -->
<g id="node6" class="node">
<title>VERSIONS_SUPPLEMENTS</title>
<g id="a_node6"><a xlink:href="../../tables/VERSIONS_SUPPLEMENTS.html" xlink:title="VERSIONS_SUPPLEMENTS" target="_top">
<polygon fill="#ffffff" stroke="transparent" points="562,-120.2 562,-181.2 749,-181.2 749,-120.2 562,-120.2"/>
<polygon fill="#f5f5f5" stroke="transparent" points="562.5,-157.7 562.5,-180.7 749.5,-180.7 749.5,-157.7 562.5,-157.7"/>
<polygon fill="none" stroke="#000000" points="562.5,-157.7 562.5,-180.7 749.5,-180.7 749.5,-157.7 562.5,-157.7"/>
<text text-anchor="start" x="567.076" y="-166.8" font-family="Helvetica,sans-Serif" font-weight="bold" font-size="11.00" fill="#000000">VERSIONS_SUPPLEMENTS</text>
<text text-anchor="start" x="715.0219" y="-165.8" font-family="Helvetica,sans-Serif" font-size="11.00" fill="#000000">[table]</text>
<polygon fill="none" stroke="#000000" points="562.5,-138.7 562.5,-157.7 749.5,-157.7 749.5,-138.7 562.5,-138.7"/>
<text text-anchor="start" x="565.5" y="-144.8" font-family="Helvetica,sans-Serif" font-size="11.00" fill="#000000">...</text>
<polygon fill="#ffffff" stroke="transparent" points="562.5,-119.7 562.5,-138.7 635.5,-138.7 635.5,-119.7 562.5,-119.7"/>
<polygon fill="none" stroke="#000000" points="562.5,-119.7 562.5,-138.7 635.5,-138.7 635.5,-119.7 562.5,-119.7"/>
<text text-anchor="start" x="565.5" y="-125.8" font-family="Helvetica,sans-Serif" font-size="11.00" fill="#000000">&lt; 2</text>
<polygon fill="#ffffff" stroke="transparent" points="635.5,-119.7 635.5,-138.7 711.5,-138.7 711.5,-119.7 635.5,-119.7"/>
<polygon fill="none" stroke="#000000" points="635.5,-119.7 635.5,-138.7 711.5,-138.7 711.5,-119.7 635.5,-119.7"/>
<text text-anchor="start" x="663.8807" y="-125.8" font-family="Helvetica,sans-Serif" font-size="11.00" fill="#000000">190 rows</text>
<polygon fill="#ffffff" stroke="transparent" points="711.5,-119.7 711.5,-138.7 749.5,-138.7 749.5,-119.7 711.5,-119.7"/>
<polygon fill="none" stroke="#000000" points="711.5,-119.7 711.5,-138.7 749.5,-138.7 749.5,-119.7 711.5,-119.7"/>
<text text-anchor="start" x="740.3862" y="-125.8" font-family="Helvetica,sans-Serif" font-size="11.00" fill="#000000"> &#160;</text>
</a>
</g>
</g>
<!-- VERSIONS_SUPPLEMENTS&#45;&gt;VERSIONS -->
<g id="edge5" class="edge">
<title>VERSIONS_SUPPLEMENTS:w&#45;&gt;VERSIONS:e</title>
<path fill="none" stroke="#000000" d="M548.2571,-149.9043C523.1039,-158.4205 518.819,-188.7 485.5,-188.7"/>
<polygon fill="#000000" stroke="#000000" points="554.5941,-148.9236 563.0506,-151.2576 558.5471,-148.3118 562.5,-147.7 562.5,-147.7 562.5,-147.7 558.5471,-148.3118 561.9494,-144.1424 554.5941,-148.9236 554.5941,-148.9236"/>
<ellipse fill="none" stroke="#000000" cx="551.4318" cy="-149.4131" rx="3.2" ry="3.2"/>
</g>
<!-- VERSIONS_TRACERS -->
<g id="node7" class="node">
<title>VERSIONS_TRACERS</title>
<g id="a_node7"><a xlink:href="../../tables/VERSIONS_TRACERS.html" xlink:title="VERSIONS_TRACERS" target="_top">
<polygon fill="#ffffff" stroke="transparent" points="576.5,-38.2 576.5,-99.2 734.5,-99.2 734.5,-38.2 576.5,-38.2"/>
<polygon fill="#f5f5f5" stroke="transparent" points="576.5,-75.7 576.5,-98.7 734.5,-98.7 734.5,-75.7 576.5,-75.7"/>
<polygon fill="none" stroke="#000000" points="576.5,-75.7 576.5,-98.7 734.5,-98.7 734.5,-75.7 576.5,-75.7"/>
<text text-anchor="start" x="581.2478" y="-84.8" font-family="Helvetica,sans-Serif" font-weight="bold" font-size="11.00" fill="#000000">VERSIONS_TRACERS</text>
<text text-anchor="start" x="700.0219" y="-83.8" font-family="Helvetica,sans-Serif" font-size="11.00" fill="#000000">[table]</text>
<polygon fill="none" stroke="#000000" points="576.5,-56.7 576.5,-75.7 734.5,-75.7 734.5,-56.7 576.5,-56.7"/>
<text text-anchor="start" x="579.5" y="-62.8" font-family="Helvetica,sans-Serif" font-size="11.00" fill="#000000">...</text>
<polygon fill="#ffffff" stroke="transparent" points="576.5,-37.7 576.5,-56.7 625.5,-56.7 625.5,-37.7 576.5,-37.7"/>
<polygon fill="none" stroke="#000000" points="576.5,-37.7 576.5,-56.7 625.5,-56.7 625.5,-37.7 576.5,-37.7"/>
<text text-anchor="start" x="579.5" y="-43.8" font-family="Helvetica,sans-Serif" font-size="11.00" fill="#000000">&lt; 2</text>
<polygon fill="#ffffff" stroke="transparent" points="625.5,-37.7 625.5,-56.7 698.5,-56.7 698.5,-37.7 625.5,-37.7"/>
<polygon fill="none" stroke="#000000" points="625.5,-37.7 625.5,-56.7 698.5,-56.7 698.5,-37.7 625.5,-37.7"/>
<text text-anchor="start" x="641.7089" y="-43.8" font-family="Helvetica,sans-Serif" font-size="11.00" fill="#000000">1,279 rows</text>
<polygon fill="#ffffff" stroke="transparent" points="698.5,-37.7 698.5,-56.7 734.5,-56.7 734.5,-37.7 698.5,-37.7"/>
<polygon fill="none" stroke="#000000" points="698.5,-37.7 698.5,-56.7 734.5,-56.7 734.5,-37.7 698.5,-37.7"/>
<text text-anchor="start" x="715.9053" y="-43.8" font-family="Helvetica,sans-Serif" font-size="11.00" fill="#000000">2 &gt;</text>
</a>
</g>
</g>
<!-- VERSIONS_TRACERS&#45;&gt;VERSIONS -->
<g id="edge6" class="edge">
<title>VERSIONS_TRACERS:w&#45;&gt;VERSIONS:e</title>
<path fill="none" stroke="#000000" d="M562.2216,-67.9399C514.9814,-84.6105 548.056,-188.7 485.5,-188.7"/>
<polygon fill="#000000" stroke="#000000" points="568.5967,-66.9399 577.0579,-69.2565 572.5483,-66.3199 576.5,-65.7 576.5,-65.7 576.5,-65.7 572.5483,-66.3199 575.9421,-62.1435 568.5967,-66.9399 568.5967,-66.9399"/>
<ellipse fill="none" stroke="#000000" cx="565.4353" cy="-67.4358" rx="3.2" ry="3.2"/>
</g>
</g>
</svg>
