<?xml version="1.0" encoding="UTF-8" standalone="no"?>
<!DOCTYPE svg PUBLIC "-//W3C//DTD SVG 1.1//EN"
 "http://www.w3.org/Graphics/SVG/1.1/DTD/svg11.dtd">
<!-- Generated by graphviz version 2.40.1 (20161225.0304)
 -->
<!-- Title: twoDegreesRelationshipsDiagram Pages: 1 -->
<svg width="1291pt" height="1426pt"
 viewBox="0.00 0.00 1291.00 1425.82" xmlns="http://www.w3.org/2000/svg" xmlns:xlink="http://www.w3.org/1999/xlink">
<g id="graph0" class="graph" transform="scale(1 1) rotate(0) translate(4 1421.8219)">
<title>twoDegreesRelationshipsDiagram</title>
<polygon fill="#ffffff" stroke="transparent" points="-4,4 -4,-1421.8219 1287,-1421.8219 1287,4 -4,4"/>
<text text-anchor="middle" x="72.4936" y="-7.3" font-family="Helvetica,sans-Serif" font-size="11.00" fill="#000000">Generated by SchemaSpy</text>
<!-- BIOREGISTER_CLONES -->
<g id="node1" class="node">
<title>BIOREGISTER_CLONES</title>
<g id="a_node1"><a xlink:href="../../tables/BIOREGISTER_CLONES.html" xlink:title="BIOREGISTER_CLONES" target="_top">
<polygon fill="#ffffff" stroke="transparent" points="979,-860.8219 979,-921.8219 1148,-921.8219 1148,-860.8219 979,-860.8219"/>
<polygon fill="#f5f5f5" stroke="transparent" points="979.5,-898.3219 979.5,-921.3219 1148.5,-921.3219 1148.5,-898.3219 979.5,-898.3219"/>
<polygon fill="none" stroke="#000000" points="979.5,-898.3219 979.5,-921.3219 1148.5,-921.3219 1148.5,-898.3219 979.5,-898.3219"/>
<text text-anchor="start" x="984.2434" y="-907.4219" font-family="Helvetica,sans-Serif" font-weight="bold" font-size="11.00" fill="#000000">BIOREGISTER_CLONES</text>
<text text-anchor="start" x="1114.0219" y="-906.4219" font-family="Helvetica,sans-Serif" font-size="11.00" fill="#000000">[table]</text>
<polygon fill="none" stroke="#000000" points="979.5,-879.3219 979.5,-898.3219 1148.5,-898.3219 1148.5,-879.3219 979.5,-879.3219"/>
<text text-anchor="start" x="982.5" y="-885.4219" font-family="Helvetica,sans-Serif" font-size="11.00" fill="#000000">...</text>
<polygon fill="#ffffff" stroke="transparent" points="979.5,-860.3219 979.5,-879.3219 1043.5,-879.3219 1043.5,-860.3219 979.5,-860.3219"/>
<polygon fill="none" stroke="#000000" points="979.5,-860.3219 979.5,-879.3219 1043.5,-879.3219 1043.5,-860.3219 979.5,-860.3219"/>
<text text-anchor="start" x="982.5" y="-866.4219" font-family="Helvetica,sans-Serif" font-size="11.00" fill="#000000">&lt; 1</text>
<polygon fill="#ffffff" stroke="transparent" points="1043.5,-860.3219 1043.5,-879.3219 1114.5,-879.3219 1114.5,-860.3219 1043.5,-860.3219"/>
<polygon fill="none" stroke="#000000" points="1043.5,-860.3219 1043.5,-879.3219 1114.5,-879.3219 1114.5,-860.3219 1043.5,-860.3219"/>
<text text-anchor="start" x="1066.8807" y="-866.4219" font-family="Helvetica,sans-Serif" font-size="11.00" fill="#000000">111 rows</text>
<polygon fill="#ffffff" stroke="transparent" points="1114.5,-860.3219 1114.5,-879.3219 1148.5,-879.3219 1148.5,-860.3219 1114.5,-860.3219"/>
<polygon fill="none" stroke="#000000" points="1114.5,-860.3219 1114.5,-879.3219 1148.5,-879.3219 1148.5,-860.3219 1114.5,-860.3219"/>
<text text-anchor="start" x="1139.3862" y="-866.4219" font-family="Helvetica,sans-Serif" font-size="11.00" fill="#000000"> &#160;</text>
</a>
</g>
</g>
<!-- CLONE_FORMS -->
<g id="node2" class="node">
<title>CLONE_FORMS</title>
<g id="a_node2"><a xlink:href="../../tables/CLONE_FORMS.html" xlink:title="CLONE_FORMS" target="_top">
<polygon fill="#ffffff" stroke="transparent" points="502,-647.8219 502,-840.8219 803,-840.8219 803,-647.8219 502,-647.8219"/>
<polygon fill="#f5f5f5" stroke="transparent" points="502.5,-817.3219 502.5,-840.3219 803.5,-840.3219 803.5,-817.3219 502.5,-817.3219"/>
<polygon fill="none" stroke="#000000" points="502.5,-817.3219 502.5,-840.3219 803.5,-840.3219 803.5,-817.3219 502.5,-817.3219"/>
<text text-anchor="start" x="507.5" y="-826.4219" font-family="Helvetica,sans-Serif" font-weight="bold" font-size="11.00" fill="#000000">CLONE_FORMS</text>
<text text-anchor="start" x="768.5437" y="-825.4219" font-family="Helvetica,sans-Serif" font-size="11.00" fill="#000000">[table]</text>
<polygon fill="none" stroke="#000000" points="502.5,-795.3219 502.5,-817.3219 803.5,-817.3219 803.5,-795.3219 502.5,-795.3219"/>
<image xlink:href="../../images/primaryKeys.png" width="11px" height="12px" preserveAspectRatio="xMinYMin meet" x="507.5" y="-812.322"/>
<text text-anchor="start" x="522.5" y="-802.4219" font-family="Helvetica,sans-Serif" font-size="11.00" fill="#000000">ID</text>
<polygon fill="none" stroke="#000000" points="502.5,-773.3219 502.5,-795.3219 803.5,-795.3219 803.5,-773.3219 502.5,-773.3219"/>
<image xlink:href="../../images/foreignKeys.png" width="11px" height="12px" preserveAspectRatio="xMinYMin meet" x="507.5" y="-790.322"/>
<text text-anchor="start" x="522.5" y="-780.4219" font-family="Helvetica,sans-Serif" font-size="11.00" fill="#000000">ISOFORM_ID</text>
<polygon fill="none" stroke="#000000" points="502.5,-751.3219 502.5,-773.3219 803.5,-773.3219 803.5,-751.3219 502.5,-751.3219"/>
<image xlink:href="../../images/primaryKeys.png" width="11px" height="12px" preserveAspectRatio="xMinYMin meet" x="507.5" y="-768.322"/>
<text text-anchor="start" x="522.5" y="-758.4219" font-family="Helvetica,sans-Serif" font-size="11.00" fill="#000000">NAME</text>
<polygon fill="none" stroke="#000000" points="502.5,-729.3219 502.5,-751.3219 803.5,-751.3219 803.5,-729.3219 502.5,-729.3219"/>
<image xlink:href="../../images/foreignKeys.png" width="11px" height="12px" preserveAspectRatio="xMinYMin meet" x="507.5" y="-746.322"/>
<text text-anchor="start" x="522.5" y="-736.4219" font-family="Helvetica,sans-Serif" font-size="11.00" fill="#000000">TARGET_FORM_ID</text>
<polygon fill="none" stroke="#000000" points="502.5,-707.3219 502.5,-729.3219 803.5,-729.3219 803.5,-707.3219 502.5,-707.3219"/>
<image xlink:href="../../images/foreignKeys.png" width="11px" height="12px" preserveAspectRatio="xMinYMin meet" x="507.5" y="-724.322"/>
<text text-anchor="start" x="522.5" y="-714.4219" font-family="Helvetica,sans-Serif" font-size="11.00" fill="#000000">POST_TRANSLATIONAL_MODIFICATION_ID</text>
<polygon fill="none" stroke="#000000" points="502.5,-685.3219 502.5,-707.3219 803.5,-707.3219 803.5,-685.3219 502.5,-685.3219"/>
<image xlink:href="../../images/foreignKeys.png" width="11px" height="12px" preserveAspectRatio="xMinYMin meet" x="507.5" y="-702.322"/>
<text text-anchor="start" x="522.5" y="-692.4219" font-family="Helvetica,sans-Serif" font-size="11.00" fill="#000000">SPECIES_ID</text>
<polygon fill="none" stroke="#000000" points="502.5,-666.3219 502.5,-685.3219 803.5,-685.3219 803.5,-666.3219 502.5,-666.3219"/>
<text text-anchor="start" x="505.5" y="-672.4219" font-family="Helvetica,sans-Serif" font-size="11.00" fill="#000000">...</text>
<polygon fill="#ffffff" stroke="transparent" points="502.5,-647.3219 502.5,-666.3219 624.5,-666.3219 624.5,-647.3219 502.5,-647.3219"/>
<polygon fill="none" stroke="#000000" points="502.5,-647.3219 502.5,-666.3219 624.5,-666.3219 624.5,-647.3219 502.5,-647.3219"/>
<text text-anchor="start" x="505.5" y="-653.4219" font-family="Helvetica,sans-Serif" font-size="11.00" fill="#000000">&lt; 4</text>
<polygon fill="#ffffff" stroke="transparent" points="624.5,-647.3219 624.5,-666.3219 725.5,-666.3219 725.5,-647.3219 624.5,-647.3219"/>
<polygon fill="none" stroke="#000000" points="624.5,-647.3219 624.5,-666.3219 725.5,-666.3219 725.5,-647.3219 624.5,-647.3219"/>
<text text-anchor="start" x="677.8807" y="-653.4219" font-family="Helvetica,sans-Serif" font-size="11.00" fill="#000000">467 rows</text>
<polygon fill="#ffffff" stroke="transparent" points="725.5,-647.3219 725.5,-666.3219 803.5,-666.3219 803.5,-647.3219 725.5,-647.3219"/>
<polygon fill="none" stroke="#000000" points="725.5,-647.3219 725.5,-666.3219 803.5,-666.3219 803.5,-647.3219 725.5,-647.3219"/>
<text text-anchor="start" x="778.7904" y="-653.4219" font-family="Helvetica,sans-Serif" font-size="11.00" fill="#000000">14 &gt;</text>
</a>
</g>
</g>
<!-- BIOREGISTER_CLONES&#45;&gt;CLONE_FORMS -->
<g id="edge1" class="edge">
<title>BIOREGISTER_CLONES:w&#45;&gt;CLONE_FORMS:e</title>
<path fill="none" stroke="#000000" d="M964.9319,-888.2027C913.5062,-887.2676 892.9444,-880.3372 844,-850.3219 821.3426,-836.4272 830.0786,-806.3219 803.5,-806.3219"/>
<polygon fill="#000000" stroke="#000000" points="971.5003,-888.2564 979.4705,-891.9218 975.5001,-888.2891 979.5,-888.3219 979.5,-888.3219 979.5,-888.3219 975.5001,-888.2891 979.5295,-884.722 971.5003,-888.2564 971.5003,-888.2564"/>
<ellipse fill="none" stroke="#000000" cx="968.3004" cy="-888.2302" rx="3.2" ry="3.2"/>
</g>
<!-- ISOFORMS -->
<g id="node4" class="node">
<title>ISOFORMS</title>
<g id="a_node4"><a xlink:href="../../tables/ISOFORMS.html" xlink:title="ISOFORMS" target="_top">
<polygon fill="#ffffff" stroke="transparent" points="89,-788.8219 89,-849.8219 190,-849.8219 190,-788.8219 89,-788.8219"/>
<polygon fill="#f5f5f5" stroke="transparent" points="89.5,-826.3219 89.5,-849.3219 190.5,-849.3219 190.5,-826.3219 89.5,-826.3219"/>
<polygon fill="none" stroke="#000000" points="89.5,-826.3219 89.5,-849.3219 190.5,-849.3219 190.5,-826.3219 89.5,-826.3219"/>
<text text-anchor="start" x="94.1674" y="-835.4219" font-family="Helvetica,sans-Serif" font-weight="bold" font-size="11.00" fill="#000000">ISOFORMS</text>
<text text-anchor="start" x="156.0219" y="-834.4219" font-family="Helvetica,sans-Serif" font-size="11.00" fill="#000000">[table]</text>
<polygon fill="none" stroke="#000000" points="89.5,-807.3219 89.5,-826.3219 190.5,-826.3219 190.5,-807.3219 89.5,-807.3219"/>
<text text-anchor="start" x="92.5" y="-813.4219" font-family="Helvetica,sans-Serif" font-size="11.00" fill="#000000">...</text>
<polygon fill="#ffffff" stroke="transparent" points="89.5,-788.3219 89.5,-807.3219 111.5,-807.3219 111.5,-788.3219 89.5,-788.3219"/>
<polygon fill="none" stroke="#000000" points="89.5,-788.3219 89.5,-807.3219 111.5,-807.3219 111.5,-788.3219 89.5,-788.3219"/>
<text text-anchor="start" x="92.5" y="-794.4219" font-family="Helvetica,sans-Serif" font-size="11.00" fill="#000000">&lt; 1</text>
<polygon fill="#ffffff" stroke="transparent" points="111.5,-788.3219 111.5,-807.3219 162.5,-807.3219 162.5,-788.3219 111.5,-788.3219"/>
<polygon fill="none" stroke="#000000" points="111.5,-788.3219 111.5,-807.3219 162.5,-807.3219 162.5,-788.3219 111.5,-788.3219"/>
<text text-anchor="start" x="114.8807" y="-794.4219" font-family="Helvetica,sans-Serif" font-size="11.00" fill="#000000">519 rows</text>
<polygon fill="#ffffff" stroke="transparent" points="162.5,-788.3219 162.5,-807.3219 190.5,-807.3219 190.5,-788.3219 162.5,-788.3219"/>
<polygon fill="none" stroke="#000000" points="162.5,-788.3219 162.5,-807.3219 190.5,-807.3219 190.5,-788.3219 162.5,-788.3219"/>
<text text-anchor="start" x="165.7904" y="-794.4219" font-family="Helvetica,sans-Serif" font-size="11.00" fill="#000000">10 &gt;</text>
</a>
</g>
</g>
<!-- CLONE_FORMS&#45;&gt;ISOFORMS -->
<g id="edge3" class="edge">
<title>CLONE_FORMS:w&#45;&gt;ISOFORMS:e</title>
<path fill="none" stroke="#000000" d="M487.7958,-784.4442C360.5672,-786.5926 324.8574,-816.3219 190.5,-816.3219"/>
<polygon fill="#000000" stroke="#000000" points="494.5003,-784.3885 502.53,-787.9218 498.5001,-784.3552 502.5,-784.3219 502.5,-784.3219 502.5,-784.3219 498.5001,-784.3552 502.47,-780.722 494.5003,-784.3885 494.5003,-784.3885"/>
<ellipse fill="none" stroke="#000000" cx="491.3004" cy="-784.4151" rx="3.2" ry="3.2"/>
</g>
<!-- POST_TRANSLATIONAL_MODIFICATIONS -->
<g id="node5" class="node">
<title>POST_TRANSLATIONAL_MODIFICATIONS</title>
<g id="a_node5"><a xlink:href="../../tables/POST_TRANSLATIONAL_MODIFICATIONS.html" xlink:title="POST_TRANSLATIONAL_MODIFICATIONS" target="_top">
<polygon fill="#ffffff" stroke="transparent" points="8,-706.8219 8,-767.8219 271,-767.8219 271,-706.8219 8,-706.8219"/>
<polygon fill="#f5f5f5" stroke="transparent" points="8.5,-744.3219 8.5,-767.3219 271.5,-767.3219 271.5,-744.3219 8.5,-744.3219"/>
<polygon fill="none" stroke="#000000" points="8.5,-744.3219 8.5,-767.3219 271.5,-767.3219 271.5,-744.3219 8.5,-744.3219"/>
<text text-anchor="start" x="13.4956" y="-753.4219" font-family="Helvetica,sans-Serif" font-weight="bold" font-size="11.00" fill="#000000">POST_TRANSLATIONAL_MODIFICATIONS</text>
<text text-anchor="start" x="237.0219" y="-752.4219" font-family="Helvetica,sans-Serif" font-size="11.00" fill="#000000">[table]</text>
<polygon fill="none" stroke="#000000" points="8.5,-725.3219 8.5,-744.3219 271.5,-744.3219 271.5,-725.3219 8.5,-725.3219"/>
<text text-anchor="start" x="11.5" y="-731.4219" font-family="Helvetica,sans-Serif" font-size="11.00" fill="#000000">...</text>
<polygon fill="#ffffff" stroke="transparent" points="8.5,-706.3219 8.5,-725.3219 116.5,-725.3219 116.5,-706.3219 8.5,-706.3219"/>
<polygon fill="none" stroke="#000000" points="8.5,-706.3219 8.5,-725.3219 116.5,-725.3219 116.5,-706.3219 8.5,-706.3219"/>
<text text-anchor="start" x="11.5" y="-712.4219" font-family="Helvetica,sans-Serif" font-size="11.00" fill="#000000"> &#160;</text>
<polygon fill="#ffffff" stroke="transparent" points="116.5,-706.3219 116.5,-725.3219 202.5,-725.3219 202.5,-706.3219 116.5,-706.3219"/>
<polygon fill="none" stroke="#000000" points="116.5,-706.3219 116.5,-725.3219 202.5,-725.3219 202.5,-706.3219 116.5,-706.3219"/>
<text text-anchor="start" x="167.1105" y="-712.4219" font-family="Helvetica,sans-Serif" font-size="11.00" fill="#000000">2 rows</text>
<polygon fill="#ffffff" stroke="transparent" points="202.5,-706.3219 202.5,-725.3219 271.5,-725.3219 271.5,-706.3219 202.5,-706.3219"/>
<polygon fill="none" stroke="#000000" points="202.5,-706.3219 202.5,-725.3219 271.5,-725.3219 271.5,-706.3219 202.5,-706.3219"/>
<text text-anchor="start" x="252.9053" y="-712.4219" font-family="Helvetica,sans-Serif" font-size="11.00" fill="#000000">2 &gt;</text>
</a>
</g>
</g>
<!-- CLONE_FORMS&#45;&gt;POST_TRANSLATIONAL_MODIFICATIONS -->
<g id="edge4" class="edge">
<title>CLONE_FORMS:w&#45;&gt;POST_TRANSLATIONAL_MODIFICATIONS:e</title>
<path fill="none" stroke="#000000" d="M488.3175,-715.4713C479.741,-711.5896 474.5128,-704.8366 461,-702.3219 395.8955,-690.2063 374.5552,-680.5911 312,-702.3219 290.3297,-709.8499 294.4406,-734.3219 271.5,-734.3219"/>
<polygon fill="#000000" stroke="#000000" points="494.6569,-716.7454 501.7906,-721.8513 498.5784,-717.5337 502.5,-718.3219 502.5,-718.3219 502.5,-718.3219 498.5784,-717.5337 503.2094,-714.7925 494.6569,-716.7454 494.6569,-716.7454"/>
<ellipse fill="none" stroke="#000000" cx="491.5196" cy="-716.1148" rx="3.2" ry="3.2"/>
</g>
<!-- SPECIES -->
<g id="node6" class="node">
<title>SPECIES</title>
<g id="a_node6"><a xlink:href="../../tables/SPECIES.html" xlink:title="SPECIES" target="_top">
<polygon fill="#ffffff" stroke="transparent" points="94.5,-624.8219 94.5,-685.8219 184.5,-685.8219 184.5,-624.8219 94.5,-624.8219"/>
<polygon fill="#f5f5f5" stroke="transparent" points="94.5,-662.3219 94.5,-685.3219 184.5,-685.3219 184.5,-662.3219 94.5,-662.3219"/>
<polygon fill="none" stroke="#000000" points="94.5,-662.3219 94.5,-685.3219 184.5,-685.3219 184.5,-662.3219 94.5,-662.3219"/>
<text text-anchor="start" x="99.1614" y="-671.4219" font-family="Helvetica,sans-Serif" font-weight="bold" font-size="11.00" fill="#000000">SPECIES</text>
<text text-anchor="start" x="150.0219" y="-670.4219" font-family="Helvetica,sans-Serif" font-size="11.00" fill="#000000">[table]</text>
<polygon fill="none" stroke="#000000" points="94.5,-643.3219 94.5,-662.3219 184.5,-662.3219 184.5,-643.3219 94.5,-643.3219"/>
<text text-anchor="start" x="97.5" y="-649.4219" font-family="Helvetica,sans-Serif" font-size="11.00" fill="#000000">...</text>
<polygon fill="#ffffff" stroke="transparent" points="94.5,-624.3219 94.5,-643.3219 115.5,-643.3219 115.5,-624.3219 94.5,-624.3219"/>
<polygon fill="none" stroke="#000000" points="94.5,-624.3219 94.5,-643.3219 115.5,-643.3219 115.5,-624.3219 94.5,-624.3219"/>
<text text-anchor="start" x="97.5" y="-630.4219" font-family="Helvetica,sans-Serif" font-size="11.00" fill="#000000"> &#160;</text>
<polygon fill="#ffffff" stroke="transparent" points="115.5,-624.3219 115.5,-643.3219 158.5,-643.3219 158.5,-624.3219 115.5,-624.3219"/>
<polygon fill="none" stroke="#000000" points="115.5,-624.3219 115.5,-643.3219 158.5,-643.3219 158.5,-624.3219 115.5,-624.3219"/>
<text text-anchor="start" x="123.1105" y="-630.4219" font-family="Helvetica,sans-Serif" font-size="11.00" fill="#000000">3 rows</text>
<polygon fill="#ffffff" stroke="transparent" points="158.5,-624.3219 158.5,-643.3219 184.5,-643.3219 184.5,-624.3219 158.5,-624.3219"/>
<polygon fill="none" stroke="#000000" points="158.5,-624.3219 158.5,-643.3219 184.5,-643.3219 184.5,-624.3219 158.5,-624.3219"/>
<text text-anchor="start" x="165.9053" y="-630.4219" font-family="Helvetica,sans-Serif" font-size="11.00" fill="#000000">2 &gt;</text>
</a>
</g>
</g>
<!-- CLONE_FORMS&#45;&gt;SPECIES -->
<g id="edge5" class="edge">
<title>CLONE_FORMS:w&#45;&gt;SPECIES:e</title>
<path fill="none" stroke="#000000" d="M487.9673,-694.8102C479.5528,-692.8679 473.6435,-689.4888 461,-687.3219 338.9106,-666.3975 308.3695,-652.3219 184.5,-652.3219"/>
<polygon fill="#000000" stroke="#000000" points="494.5429,-695.4942 502.1275,-699.9026 498.5215,-695.908 502.5,-696.3219 502.5,-696.3219 502.5,-696.3219 498.5215,-695.908 502.8725,-692.7412 494.5429,-695.4942 494.5429,-695.4942"/>
<ellipse fill="none" stroke="#000000" cx="491.3601" cy="-695.1631" rx="3.2" ry="3.2"/>
</g>
<!-- TARGET_FORMS -->
<g id="node7" class="node">
<title>TARGET_FORMS</title>
<g id="a_node7"><a xlink:href="../../tables/TARGET_FORMS.html" xlink:title="TARGET_FORMS" target="_top">
<polygon fill="#ffffff" stroke="transparent" points="320,-712.8219 320,-773.8219 453,-773.8219 453,-712.8219 320,-712.8219"/>
<polygon fill="#f5f5f5" stroke="transparent" points="320.5,-750.3219 320.5,-773.3219 453.5,-773.3219 453.5,-750.3219 320.5,-750.3219"/>
<polygon fill="none" stroke="#000000" points="320.5,-750.3219 320.5,-773.3219 453.5,-773.3219 453.5,-750.3219 320.5,-750.3219"/>
<text text-anchor="start" x="325.2801" y="-759.4219" font-family="Helvetica,sans-Serif" font-weight="bold" font-size="11.00" fill="#000000">TARGET_FORMS</text>
<text text-anchor="start" x="419.0219" y="-758.4219" font-family="Helvetica,sans-Serif" font-size="11.00" fill="#000000">[table]</text>
<polygon fill="none" stroke="#000000" points="320.5,-731.3219 320.5,-750.3219 453.5,-750.3219 453.5,-731.3219 320.5,-731.3219"/>
<text text-anchor="start" x="323.5" y="-737.4219" font-family="Helvetica,sans-Serif" font-size="11.00" fill="#000000">...</text>
<polygon fill="#ffffff" stroke="transparent" points="320.5,-712.3219 320.5,-731.3219 358.5,-731.3219 358.5,-712.3219 320.5,-712.3219"/>
<polygon fill="none" stroke="#000000" points="320.5,-712.3219 320.5,-731.3219 358.5,-731.3219 358.5,-712.3219 320.5,-712.3219"/>
<text text-anchor="start" x="323.5" y="-718.4219" font-family="Helvetica,sans-Serif" font-size="11.00" fill="#000000">&lt; 5</text>
<polygon fill="#ffffff" stroke="transparent" points="358.5,-712.3219 358.5,-731.3219 417.5,-731.3219 417.5,-712.3219 358.5,-712.3219"/>
<polygon fill="none" stroke="#000000" points="358.5,-712.3219 358.5,-731.3219 417.5,-731.3219 417.5,-712.3219 358.5,-712.3219"/>
<text text-anchor="start" x="369.8807" y="-718.4219" font-family="Helvetica,sans-Serif" font-size="11.00" fill="#000000">541 rows</text>
<polygon fill="#ffffff" stroke="transparent" points="417.5,-712.3219 417.5,-731.3219 453.5,-731.3219 453.5,-712.3219 417.5,-712.3219"/>
<polygon fill="none" stroke="#000000" points="417.5,-712.3219 417.5,-731.3219 453.5,-731.3219 453.5,-712.3219 417.5,-712.3219"/>
<text text-anchor="start" x="428.7904" y="-718.4219" font-family="Helvetica,sans-Serif" font-size="11.00" fill="#000000">18 &gt;</text>
</a>
</g>
</g>
<!-- CLONE_FORMS&#45;&gt;TARGET_FORMS -->
<g id="edge6" class="edge">
<title>CLONE_FORMS:w&#45;&gt;TARGET_FORMS:e</title>
<path fill="none" stroke="#000000" d="M487.9909,-740.3219C476.6774,-740.3219 469.4931,-740.3219 453.5,-740.3219"/>
<polygon fill="#000000" stroke="#000000" points="494.5,-740.3219 502.5,-743.9219 498.5,-740.3219 502.5,-740.3219 502.5,-740.3219 502.5,-740.3219 498.5,-740.3219 502.5,-736.7219 494.5,-740.3219 494.5,-740.3219"/>
<ellipse fill="none" stroke="#000000" cx="491.3" cy="-740.322" rx="3.2" ry="3.2"/>
</g>
<!-- CLONE_FORM_COMMENTS -->
<g id="node3" class="node">
<title>CLONE_FORM_COMMENTS</title>
<g id="a_node3"><a xlink:href="../../tables/CLONE_FORM_COMMENTS.html" xlink:title="CLONE_FORM_COMMENTS" target="_top">
<polygon fill="#ffffff" stroke="transparent" points="969,-778.8219 969,-839.8219 1158,-839.8219 1158,-778.8219 969,-778.8219"/>
<polygon fill="#f5f5f5" stroke="transparent" points="969.5,-816.3219 969.5,-839.3219 1158.5,-839.3219 1158.5,-816.3219 969.5,-816.3219"/>
<polygon fill="none" stroke="#000000" points="969.5,-816.3219 969.5,-839.3219 1158.5,-839.3219 1158.5,-816.3219 969.5,-816.3219"/>
<text text-anchor="start" x="974.1735" y="-825.4219" font-family="Helvetica,sans-Serif" font-weight="bold" font-size="11.00" fill="#000000">CLONE_FORM_COMMENTS</text>
<text text-anchor="start" x="1124.0219" y="-824.4219" font-family="Helvetica,sans-Serif" font-size="11.00" fill="#000000">[table]</text>
<polygon fill="none" stroke="#000000" points="969.5,-797.3219 969.5,-816.3219 1158.5,-816.3219 1158.5,-797.3219 969.5,-797.3219"/>
<text text-anchor="start" x="972.5" y="-803.4219" font-family="Helvetica,sans-Serif" font-size="11.00" fill="#000000">...</text>
<polygon fill="#ffffff" stroke="transparent" points="969.5,-778.3219 969.5,-797.3219 1052.5,-797.3219 1052.5,-778.3219 969.5,-778.3219"/>
<polygon fill="none" stroke="#000000" points="969.5,-778.3219 969.5,-797.3219 1052.5,-797.3219 1052.5,-778.3219 969.5,-778.3219"/>
<text text-anchor="start" x="972.5" y="-784.4219" font-family="Helvetica,sans-Serif" font-size="11.00" fill="#000000">&lt; 2</text>
<polygon fill="#ffffff" stroke="transparent" points="1052.5,-778.3219 1052.5,-797.3219 1115.5,-797.3219 1115.5,-778.3219 1052.5,-778.3219"/>
<polygon fill="none" stroke="#000000" points="1052.5,-778.3219 1052.5,-797.3219 1115.5,-797.3219 1115.5,-778.3219 1052.5,-778.3219"/>
<text text-anchor="start" x="1085.6105" y="-784.4219" font-family="Helvetica,sans-Serif" font-size="11.00" fill="#000000">1 row</text>
<polygon fill="#ffffff" stroke="transparent" points="1115.5,-778.3219 1115.5,-797.3219 1158.5,-797.3219 1158.5,-778.3219 1115.5,-778.3219"/>
<polygon fill="none" stroke="#000000" points="1115.5,-778.3219 1115.5,-797.3219 1158.5,-797.3219 1158.5,-778.3219 1115.5,-778.3219"/>
<text text-anchor="start" x="1149.3862" y="-784.4219" font-family="Helvetica,sans-Serif" font-size="11.00" fill="#000000"> &#160;</text>
</a>
</g>
</g>
<!-- CLONE_FORM_COMMENTS&#45;&gt;CLONE_FORMS -->
<g id="edge2" class="edge">
<title>CLONE_FORM_COMMENTS:w&#45;&gt;CLONE_FORMS:e</title>
<path fill="none" stroke="#000000" d="M954.7197,-806.3219C892.8549,-806.3219 872.0903,-806.3219 803.5,-806.3219"/>
<polygon fill="#000000" stroke="#000000" points="961.5,-806.3219 969.5,-809.9219 965.5,-806.3219 969.5,-806.3219 969.5,-806.3219 969.5,-806.3219 965.5,-806.3219 969.5,-802.7219 961.5,-806.3219 961.5,-806.3219"/>
<ellipse fill="none" stroke="#000000" cx="958.3" cy="-806.322" rx="3.2" ry="3.2"/>
</g>
<!-- TARGET_FORMS&#45;&gt;ISOFORMS -->
<g id="edge20" class="edge">
<title>TARGET_FORMS:w&#45;&gt;ISOFORMS:e</title>
<path fill="none" stroke="#000000" d="M306.4193,-744.3513C296.1542,-751.8586 294.7557,-768.1453 279,-778.3219 243.0424,-801.5469 233.3059,-816.3219 190.5,-816.3219"/>
<polygon fill="#000000" stroke="#000000" points="312.8087,-742.5229 321.4905,-743.783 316.6544,-741.4224 320.5,-740.3219 320.5,-740.3219 320.5,-740.3219 316.6544,-741.4224 319.5095,-736.8608 312.8087,-742.5229 312.8087,-742.5229"/>
<ellipse fill="none" stroke="#000000" cx="309.7322" cy="-743.4033" rx="3.2" ry="3.2"/>
</g>
<!-- TARGET_FORMS&#45;&gt;POST_TRANSLATIONAL_MODIFICATIONS -->
<g id="edge21" class="edge">
<title>TARGET_FORMS:w&#45;&gt;POST_TRANSLATIONAL_MODIFICATIONS:e</title>
<path fill="none" stroke="#000000" d="M305.9463,-739.2768C294.6532,-737.5577 287.6125,-734.3219 271.5,-734.3219"/>
<polygon fill="#000000" stroke="#000000" points="312.5205,-739.7488 320.2421,-743.9126 316.5103,-740.0354 320.5,-740.3219 320.5,-740.3219 320.5,-740.3219 316.5103,-740.0354 320.7579,-736.7311 312.5205,-739.7488 312.5205,-739.7488"/>
<ellipse fill="none" stroke="#000000" cx="309.3288" cy="-739.5196" rx="3.2" ry="3.2"/>
</g>
<!-- TARGET_FORMS&#45;&gt;SPECIES -->
<g id="edge22" class="edge">
<title>TARGET_FORMS:w&#45;&gt;SPECIES:e</title>
<path fill="none" stroke="#000000" d="M306.4003,-736.1889C295.3917,-727.7601 295.6882,-708.3671 279,-696.3219 241.4338,-669.2074 230.8295,-652.3219 184.5,-652.3219"/>
<polygon fill="#000000" stroke="#000000" points="312.823,-738.0715 319.4873,-743.7765 316.6615,-739.1967 320.5,-740.3219 320.5,-740.3219 320.5,-740.3219 316.6615,-739.1967 321.5127,-736.8673 312.823,-738.0715 312.823,-738.0715"/>
<ellipse fill="none" stroke="#000000" cx="309.7522" cy="-737.1714" rx="3.2" ry="3.2"/>
</g>
<!-- CLONE_FORMS_COFACTORS -->
<g id="node8" class="node">
<title>CLONE_FORMS_COFACTORS</title>
<g id="a_node8"><a xlink:href="../../tables/CLONE_FORMS_COFACTORS.html" xlink:title="CLONE_FORMS_COFACTORS" target="_top">
<polygon fill="#ffffff" stroke="transparent" points="963,-696.8219 963,-757.8219 1164,-757.8219 1164,-696.8219 963,-696.8219"/>
<polygon fill="#f5f5f5" stroke="transparent" points="963.5,-734.3219 963.5,-757.3219 1164.5,-757.3219 1164.5,-734.3219 963.5,-734.3219"/>
<polygon fill="none" stroke="#000000" points="963.5,-734.3219 963.5,-757.3219 1164.5,-757.3219 1164.5,-734.3219 963.5,-734.3219"/>
<text text-anchor="start" x="968.0586" y="-743.4219" font-family="Helvetica,sans-Serif" font-weight="bold" font-size="11.00" fill="#000000">CLONE_FORMS_COFACTORS</text>
<text text-anchor="start" x="1130.0219" y="-742.4219" font-family="Helvetica,sans-Serif" font-size="11.00" fill="#000000">[table]</text>
<polygon fill="none" stroke="#000000" points="963.5,-715.3219 963.5,-734.3219 1164.5,-734.3219 1164.5,-715.3219 963.5,-715.3219"/>
<text text-anchor="start" x="966.5" y="-721.4219" font-family="Helvetica,sans-Serif" font-size="11.00" fill="#000000">...</text>
<polygon fill="#ffffff" stroke="transparent" points="963.5,-696.3219 963.5,-715.3219 1049.5,-715.3219 1049.5,-696.3219 963.5,-696.3219"/>
<polygon fill="none" stroke="#000000" points="963.5,-696.3219 963.5,-715.3219 1049.5,-715.3219 1049.5,-696.3219 963.5,-696.3219"/>
<text text-anchor="start" x="966.5" y="-702.4219" font-family="Helvetica,sans-Serif" font-size="11.00" fill="#000000">&lt; 2</text>
<polygon fill="#ffffff" stroke="transparent" points="1049.5,-696.3219 1049.5,-715.3219 1119.5,-715.3219 1119.5,-696.3219 1049.5,-696.3219"/>
<polygon fill="none" stroke="#000000" points="1049.5,-696.3219 1049.5,-715.3219 1119.5,-715.3219 1119.5,-696.3219 1049.5,-696.3219"/>
<text text-anchor="start" x="1084.1105" y="-702.4219" font-family="Helvetica,sans-Serif" font-size="11.00" fill="#000000">0 rows</text>
<polygon fill="#ffffff" stroke="transparent" points="1119.5,-696.3219 1119.5,-715.3219 1164.5,-715.3219 1164.5,-696.3219 1119.5,-696.3219"/>
<polygon fill="none" stroke="#000000" points="1119.5,-696.3219 1119.5,-715.3219 1164.5,-715.3219 1164.5,-696.3219 1119.5,-696.3219"/>
<text text-anchor="start" x="1155.3862" y="-702.4219" font-family="Helvetica,sans-Serif" font-size="11.00" fill="#000000"> &#160;</text>
</a>
</g>
</g>
<!-- CLONE_FORMS_COFACTORS&#45;&gt;CLONE_FORMS -->
<g id="edge7" class="edge">
<title>CLONE_FORMS_COFACTORS:w&#45;&gt;CLONE_FORMS:e</title>
<path fill="none" stroke="#000000" d="M948.9135,-724.6834C903.9141,-727.0711 887.7354,-741.3158 844,-768.3219 822.9985,-781.29 828.1827,-806.3219 803.5,-806.3219"/>
<polygon fill="#000000" stroke="#000000" points="955.5025,-724.5202 963.5892,-727.9208 959.5012,-724.421 963.5,-724.3219 963.5,-724.3219 963.5,-724.3219 959.5012,-724.421 963.4108,-720.723 955.5025,-724.5202 955.5025,-724.5202"/>
<ellipse fill="none" stroke="#000000" cx="952.3034" cy="-724.5995" rx="3.2" ry="3.2"/>
</g>
<!-- CLONE_FORMS_ISOFORM_ANNOTATIONS -->
<g id="node9" class="node">
<title>CLONE_FORMS_ISOFORM_ANNOTATIONS</title>
<g id="a_node9"><a xlink:href="../../tables/CLONE_FORMS_ISOFORM_ANNOTATIONS.html" xlink:title="CLONE_FORMS_ISOFORM_ANNOTATIONS" target="_top">
<polygon fill="#ffffff" stroke="transparent" points="929,-614.8219 929,-675.8219 1198,-675.8219 1198,-614.8219 929,-614.8219"/>
<polygon fill="#f5f5f5" stroke="transparent" points="929.5,-652.3219 929.5,-675.3219 1198.5,-675.3219 1198.5,-652.3219 929.5,-652.3219"/>
<polygon fill="none" stroke="#000000" points="929.5,-652.3219 929.5,-675.3219 1198.5,-675.3219 1198.5,-652.3219 929.5,-652.3219"/>
<text text-anchor="start" x="934.1401" y="-661.4219" font-family="Helvetica,sans-Serif" font-weight="bold" font-size="11.00" fill="#000000">CLONE_FORMS_ISOFORM_ANNOTATIONS</text>
<text text-anchor="start" x="1164.0219" y="-660.4219" font-family="Helvetica,sans-Serif" font-size="11.00" fill="#000000">[table]</text>
<polygon fill="none" stroke="#000000" points="929.5,-633.3219 929.5,-652.3219 1198.5,-652.3219 1198.5,-633.3219 929.5,-633.3219"/>
<text text-anchor="start" x="932.5" y="-639.4219" font-family="Helvetica,sans-Serif" font-size="11.00" fill="#000000">...</text>
<polygon fill="#ffffff" stroke="transparent" points="929.5,-614.3219 929.5,-633.3219 1049.5,-633.3219 1049.5,-614.3219 929.5,-614.3219"/>
<polygon fill="none" stroke="#000000" points="929.5,-614.3219 929.5,-633.3219 1049.5,-633.3219 1049.5,-614.3219 929.5,-614.3219"/>
<text text-anchor="start" x="932.5" y="-620.4219" font-family="Helvetica,sans-Serif" font-size="11.00" fill="#000000">&lt; 2</text>
<polygon fill="#ffffff" stroke="transparent" points="1049.5,-614.3219 1049.5,-633.3219 1136.5,-633.3219 1136.5,-614.3219 1049.5,-614.3219"/>
<polygon fill="none" stroke="#000000" points="1049.5,-614.3219 1049.5,-633.3219 1136.5,-633.3219 1136.5,-614.3219 1049.5,-614.3219"/>
<text text-anchor="start" x="1101.1105" y="-620.4219" font-family="Helvetica,sans-Serif" font-size="11.00" fill="#000000">2 rows</text>
<polygon fill="#ffffff" stroke="transparent" points="1136.5,-614.3219 1136.5,-633.3219 1198.5,-633.3219 1198.5,-614.3219 1136.5,-614.3219"/>
<polygon fill="none" stroke="#000000" points="1136.5,-614.3219 1136.5,-633.3219 1198.5,-633.3219 1198.5,-614.3219 1136.5,-614.3219"/>
<text text-anchor="start" x="1189.3862" y="-620.4219" font-family="Helvetica,sans-Serif" font-size="11.00" fill="#000000"> &#160;</text>
</a>
</g>
</g>
<!-- CLONE_FORMS_ISOFORM_ANNOTATIONS&#45;&gt;CLONE_FORMS -->
<g id="edge8" class="edge">
<title>CLONE_FORMS_ISOFORM_ANNOTATIONS:w&#45;&gt;CLONE_FORMS:e</title>
<path fill="none" stroke="#000000" d="M914.6993,-642.8838C882.8381,-645.5478 868.3895,-657.9757 844,-686.3219 807.2873,-728.9906 859.7889,-806.3219 803.5,-806.3219"/>
<polygon fill="#000000" stroke="#000000" points="921.5058,-642.6254 929.6366,-645.9193 925.5029,-642.4737 929.5,-642.3219 929.5,-642.3219 929.5,-642.3219 925.5029,-642.4737 929.3634,-638.7245 921.5058,-642.6254 921.5058,-642.6254"/>
<ellipse fill="none" stroke="#000000" cx="918.3081" cy="-642.7469" rx="3.2" ry="3.2"/>
</g>
<!-- CLONE_FORMS_ISOFORM_DOMAINS -->
<g id="node10" class="node">
<title>CLONE_FORMS_ISOFORM_DOMAINS</title>
<g id="a_node10"><a xlink:href="../../tables/CLONE_FORMS_ISOFORM_DOMAINS.html" xlink:title="CLONE_FORMS_ISOFORM_DOMAINS" target="_top">
<polygon fill="#ffffff" stroke="transparent" points="943,-532.8219 943,-593.8219 1184,-593.8219 1184,-532.8219 943,-532.8219"/>
<polygon fill="#f5f5f5" stroke="transparent" points="943.5,-570.3219 943.5,-593.3219 1184.5,-593.3219 1184.5,-570.3219 943.5,-570.3219"/>
<polygon fill="none" stroke="#000000" points="943.5,-570.3219 943.5,-593.3219 1184.5,-593.3219 1184.5,-570.3219 943.5,-570.3219"/>
<text text-anchor="start" x="948.1959" y="-579.4219" font-family="Helvetica,sans-Serif" font-weight="bold" font-size="11.00" fill="#000000">CLONE_FORMS_ISOFORM_DOMAINS</text>
<text text-anchor="start" x="1150.0219" y="-578.4219" font-family="Helvetica,sans-Serif" font-size="11.00" fill="#000000">[table]</text>
<polygon fill="none" stroke="#000000" points="943.5,-551.3219 943.5,-570.3219 1184.5,-570.3219 1184.5,-551.3219 943.5,-551.3219"/>
<text text-anchor="start" x="946.5" y="-557.4219" font-family="Helvetica,sans-Serif" font-size="11.00" fill="#000000">...</text>
<polygon fill="#ffffff" stroke="transparent" points="943.5,-532.3219 943.5,-551.3219 1043.5,-551.3219 1043.5,-532.3219 943.5,-532.3219"/>
<polygon fill="none" stroke="#000000" points="943.5,-532.3219 943.5,-551.3219 1043.5,-551.3219 1043.5,-532.3219 943.5,-532.3219"/>
<text text-anchor="start" x="946.5" y="-538.4219" font-family="Helvetica,sans-Serif" font-size="11.00" fill="#000000">&lt; 2</text>
<polygon fill="#ffffff" stroke="transparent" points="1043.5,-532.3219 1043.5,-551.3219 1132.5,-551.3219 1132.5,-532.3219 1043.5,-532.3219"/>
<polygon fill="none" stroke="#000000" points="1043.5,-532.3219 1043.5,-551.3219 1132.5,-551.3219 1132.5,-532.3219 1043.5,-532.3219"/>
<text text-anchor="start" x="1084.8807" y="-538.4219" font-family="Helvetica,sans-Serif" font-size="11.00" fill="#000000">311 rows</text>
<polygon fill="#ffffff" stroke="transparent" points="1132.5,-532.3219 1132.5,-551.3219 1184.5,-551.3219 1184.5,-532.3219 1132.5,-532.3219"/>
<polygon fill="none" stroke="#000000" points="1132.5,-532.3219 1132.5,-551.3219 1184.5,-551.3219 1184.5,-532.3219 1132.5,-532.3219"/>
<text text-anchor="start" x="1175.3862" y="-538.4219" font-family="Helvetica,sans-Serif" font-size="11.00" fill="#000000"> &#160;</text>
</a>
</g>
</g>
<!-- CLONE_FORMS_ISOFORM_DOMAINS&#45;&gt;CLONE_FORMS -->
<g id="edge9" class="edge">
<title>CLONE_FORMS_ISOFORM_DOMAINS:w&#45;&gt;CLONE_FORMS:e</title>
<path fill="none" stroke="#000000" d="M929.0741,-560.5611C890.6367,-561.9973 871.0679,-570.5849 844,-604.3219 786.6991,-675.7408 895.0645,-806.3219 803.5,-806.3219"/>
<polygon fill="#000000" stroke="#000000" points="935.5011,-560.4546 943.5597,-563.9214 939.5005,-560.3883 943.5,-560.3219 943.5,-560.3219 943.5,-560.3219 939.5005,-560.3883 943.4403,-556.7224 935.5011,-560.4546 935.5011,-560.4546"/>
<ellipse fill="none" stroke="#000000" cx="932.3015" cy="-560.5077" rx="3.2" ry="3.2"/>
</g>
<!-- CLONE_FORMS_ISOFORM_MOTIFS -->
<g id="node11" class="node">
<title>CLONE_FORMS_ISOFORM_MOTIFS</title>
<g id="a_node11"><a xlink:href="../../tables/CLONE_FORMS_ISOFORM_MOTIFS.html" xlink:title="CLONE_FORMS_ISOFORM_MOTIFS" target="_top">
<polygon fill="#ffffff" stroke="transparent" points="948,-450.8219 948,-511.8219 1179,-511.8219 1179,-450.8219 948,-450.8219"/>
<polygon fill="#f5f5f5" stroke="transparent" points="948.5,-488.3219 948.5,-511.3219 1179.5,-511.3219 1179.5,-488.3219 948.5,-488.3219"/>
<polygon fill="none" stroke="#000000" points="948.5,-488.3219 948.5,-511.3219 1179.5,-511.3219 1179.5,-488.3219 948.5,-488.3219"/>
<text text-anchor="start" x="953.0848" y="-497.4219" font-family="Helvetica,sans-Serif" font-weight="bold" font-size="11.00" fill="#000000">CLONE_FORMS_ISOFORM_MOTIFS</text>
<text text-anchor="start" x="1145.0219" y="-496.4219" font-family="Helvetica,sans-Serif" font-size="11.00" fill="#000000">[table]</text>
<polygon fill="none" stroke="#000000" points="948.5,-469.3219 948.5,-488.3219 1179.5,-488.3219 1179.5,-469.3219 948.5,-469.3219"/>
<text text-anchor="start" x="951.5" y="-475.4219" font-family="Helvetica,sans-Serif" font-size="11.00" fill="#000000">...</text>
<polygon fill="#ffffff" stroke="transparent" points="948.5,-450.3219 948.5,-469.3219 1046.5,-469.3219 1046.5,-450.3219 948.5,-450.3219"/>
<polygon fill="none" stroke="#000000" points="948.5,-450.3219 948.5,-469.3219 1046.5,-469.3219 1046.5,-450.3219 948.5,-450.3219"/>
<text text-anchor="start" x="951.5" y="-456.4219" font-family="Helvetica,sans-Serif" font-size="11.00" fill="#000000">&lt; 2</text>
<polygon fill="#ffffff" stroke="transparent" points="1046.5,-450.3219 1046.5,-469.3219 1128.5,-469.3219 1128.5,-450.3219 1046.5,-450.3219"/>
<polygon fill="none" stroke="#000000" points="1046.5,-450.3219 1046.5,-469.3219 1128.5,-469.3219 1128.5,-450.3219 1046.5,-450.3219"/>
<text text-anchor="start" x="1086.9956" y="-456.4219" font-family="Helvetica,sans-Serif" font-size="11.00" fill="#000000">94 rows</text>
<polygon fill="#ffffff" stroke="transparent" points="1128.5,-450.3219 1128.5,-469.3219 1179.5,-469.3219 1179.5,-450.3219 1128.5,-450.3219"/>
<polygon fill="none" stroke="#000000" points="1128.5,-450.3219 1128.5,-469.3219 1179.5,-469.3219 1179.5,-450.3219 1128.5,-450.3219"/>
<text text-anchor="start" x="1170.3862" y="-456.4219" font-family="Helvetica,sans-Serif" font-size="11.00" fill="#000000"> &#160;</text>
</a>
</g>
</g>
<!-- CLONE_FORMS_ISOFORM_MOTIFS&#45;&gt;CLONE_FORMS -->
<g id="edge10" class="edge">
<title>CLONE_FORMS_ISOFORM_MOTIFS:w&#45;&gt;CLONE_FORMS:e</title>
<path fill="none" stroke="#000000" d="M933.947,-478.4819C893.2907,-479.5232 871.6503,-486.4705 844,-522.3219 805.0672,-572.8021 867.2496,-806.3219 803.5,-806.3219"/>
<polygon fill="#000000" stroke="#000000" points="940.5005,-478.4099 948.5396,-481.9217 944.5002,-478.3659 948.5,-478.3219 948.5,-478.3219 948.5,-478.3219 944.5002,-478.3659 948.4604,-474.7221 940.5005,-478.4099 940.5005,-478.4099"/>
<ellipse fill="none" stroke="#000000" cx="937.3007" cy="-478.4451" rx="3.2" ry="3.2"/>
</g>
<!-- CLONE_FORMS_ISOFORM_REGIONS -->
<g id="node12" class="node">
<title>CLONE_FORMS_ISOFORM_REGIONS</title>
<g id="a_node12"><a xlink:href="../../tables/CLONE_FORMS_ISOFORM_REGIONS.html" xlink:title="CLONE_FORMS_ISOFORM_REGIONS" target="_top">
<polygon fill="#ffffff" stroke="transparent" points="943,-368.8219 943,-429.8219 1184,-429.8219 1184,-368.8219 943,-368.8219"/>
<polygon fill="#f5f5f5" stroke="transparent" points="943.5,-406.3219 943.5,-429.3219 1184.5,-429.3219 1184.5,-406.3219 943.5,-406.3219"/>
<polygon fill="none" stroke="#000000" points="943.5,-406.3219 943.5,-429.3219 1184.5,-429.3219 1184.5,-406.3219 943.5,-406.3219"/>
<text text-anchor="start" x="948.4984" y="-415.4219" font-family="Helvetica,sans-Serif" font-weight="bold" font-size="11.00" fill="#000000">CLONE_FORMS_ISOFORM_REGIONS</text>
<text text-anchor="start" x="1150.0219" y="-414.4219" font-family="Helvetica,sans-Serif" font-size="11.00" fill="#000000">[table]</text>
<polygon fill="none" stroke="#000000" points="943.5,-387.3219 943.5,-406.3219 1184.5,-406.3219 1184.5,-387.3219 943.5,-387.3219"/>
<text text-anchor="start" x="946.5" y="-393.4219" font-family="Helvetica,sans-Serif" font-size="11.00" fill="#000000">...</text>
<polygon fill="#ffffff" stroke="transparent" points="943.5,-368.3219 943.5,-387.3219 1046.5,-387.3219 1046.5,-368.3219 943.5,-368.3219"/>
<polygon fill="none" stroke="#000000" points="943.5,-368.3219 943.5,-387.3219 1046.5,-387.3219 1046.5,-368.3219 943.5,-368.3219"/>
<text text-anchor="start" x="946.5" y="-374.4219" font-family="Helvetica,sans-Serif" font-size="11.00" fill="#000000">&lt; 2</text>
<polygon fill="#ffffff" stroke="transparent" points="1046.5,-368.3219 1046.5,-387.3219 1131.5,-387.3219 1131.5,-368.3219 1046.5,-368.3219"/>
<polygon fill="none" stroke="#000000" points="1046.5,-368.3219 1046.5,-387.3219 1131.5,-387.3219 1131.5,-368.3219 1046.5,-368.3219"/>
<text text-anchor="start" x="1089.9956" y="-374.4219" font-family="Helvetica,sans-Serif" font-size="11.00" fill="#000000">73 rows</text>
<polygon fill="#ffffff" stroke="transparent" points="1131.5,-368.3219 1131.5,-387.3219 1184.5,-387.3219 1184.5,-368.3219 1131.5,-368.3219"/>
<polygon fill="none" stroke="#000000" points="1131.5,-368.3219 1131.5,-387.3219 1184.5,-387.3219 1184.5,-368.3219 1131.5,-368.3219"/>
<text text-anchor="start" x="1175.3862" y="-374.4219" font-family="Helvetica,sans-Serif" font-size="11.00" fill="#000000"> &#160;</text>
</a>
</g>
</g>
<!-- CLONE_FORMS_ISOFORM_REGIONS&#45;&gt;CLONE_FORMS -->
<g id="edge11" class="edge">
<title>CLONE_FORMS_ISOFORM_REGIONS:w&#45;&gt;CLONE_FORMS:e</title>
<path fill="none" stroke="#000000" d="M929.0239,-396.5226C890.3193,-397.754 869.5636,-405.4313 844,-440.3219 795.637,-506.3304 885.3298,-806.3219 803.5,-806.3219"/>
<polygon fill="#000000" stroke="#000000" points="935.5008,-396.4329 943.5499,-399.9215 939.5004,-396.3774 943.5,-396.3219 943.5,-396.3219 943.5,-396.3219 939.5004,-396.3774 943.4501,-392.7222 935.5008,-396.4329 935.5008,-396.4329"/>
<ellipse fill="none" stroke="#000000" cx="932.3011" cy="-396.4773" rx="3.2" ry="3.2"/>
</g>
<!-- CLONE_FORMS_ISOFORM_VARIANTS -->
<g id="node13" class="node">
<title>CLONE_FORMS_ISOFORM_VARIANTS</title>
<g id="a_node13"><a xlink:href="../../tables/CLONE_FORMS_ISOFORM_VARIANTS.html" xlink:title="CLONE_FORMS_ISOFORM_VARIANTS" target="_top">
<polygon fill="#ffffff" stroke="transparent" points="941,-1352.8219 941,-1413.8219 1186,-1413.8219 1186,-1352.8219 941,-1352.8219"/>
<polygon fill="#f5f5f5" stroke="transparent" points="941.5,-1390.3219 941.5,-1413.3219 1186.5,-1413.3219 1186.5,-1390.3219 941.5,-1390.3219"/>
<polygon fill="none" stroke="#000000" points="941.5,-1390.3219 941.5,-1413.3219 1186.5,-1413.3219 1186.5,-1390.3219 941.5,-1390.3219"/>
<text text-anchor="start" x="946.3594" y="-1399.4219" font-family="Helvetica,sans-Serif" font-weight="bold" font-size="11.00" fill="#000000">CLONE_FORMS_ISOFORM_VARIANTS</text>
<text text-anchor="start" x="1152.0219" y="-1398.4219" font-family="Helvetica,sans-Serif" font-size="11.00" fill="#000000">[table]</text>
<polygon fill="none" stroke="#000000" points="941.5,-1371.3219 941.5,-1390.3219 1186.5,-1390.3219 1186.5,-1371.3219 941.5,-1371.3219"/>
<text text-anchor="start" x="944.5" y="-1377.4219" font-family="Helvetica,sans-Serif" font-size="11.00" fill="#000000">...</text>
<polygon fill="#ffffff" stroke="transparent" points="941.5,-1352.3219 941.5,-1371.3219 1046.5,-1371.3219 1046.5,-1352.3219 941.5,-1352.3219"/>
<polygon fill="none" stroke="#000000" points="941.5,-1352.3219 941.5,-1371.3219 1046.5,-1371.3219 1046.5,-1352.3219 941.5,-1352.3219"/>
<text text-anchor="start" x="944.5" y="-1358.4219" font-family="Helvetica,sans-Serif" font-size="11.00" fill="#000000">&lt; 2</text>
<polygon fill="#ffffff" stroke="transparent" points="1046.5,-1352.3219 1046.5,-1371.3219 1132.5,-1371.3219 1132.5,-1352.3219 1046.5,-1352.3219"/>
<polygon fill="none" stroke="#000000" points="1046.5,-1352.3219 1046.5,-1371.3219 1132.5,-1371.3219 1132.5,-1352.3219 1046.5,-1352.3219"/>
<text text-anchor="start" x="1090.9956" y="-1358.4219" font-family="Helvetica,sans-Serif" font-size="11.00" fill="#000000">69 rows</text>
<polygon fill="#ffffff" stroke="transparent" points="1132.5,-1352.3219 1132.5,-1371.3219 1186.5,-1371.3219 1186.5,-1352.3219 1132.5,-1352.3219"/>
<polygon fill="none" stroke="#000000" points="1132.5,-1352.3219 1132.5,-1371.3219 1186.5,-1371.3219 1186.5,-1352.3219 1132.5,-1352.3219"/>
<text text-anchor="start" x="1177.3862" y="-1358.4219" font-family="Helvetica,sans-Serif" font-size="11.00" fill="#000000"> &#160;</text>
</a>
</g>
</g>
<!-- CLONE_FORMS_ISOFORM_VARIANTS&#45;&gt;CLONE_FORMS -->
<g id="edge12" class="edge">
<title>CLONE_FORMS_ISOFORM_VARIANTS:w&#45;&gt;CLONE_FORMS:e</title>
<path fill="none" stroke="#000000" d="M927.0357,-1380.2523C889.8388,-1379.7464 868.6465,-1375.6127 844,-1342.3219 808.4623,-1294.32 863.2253,-806.3219 803.5,-806.3219"/>
<polygon fill="#000000" stroke="#000000" points="933.5001,-1380.2834 941.4827,-1383.9219 937.5,-1380.3026 941.5,-1380.3219 941.5,-1380.3219 941.5,-1380.3219 937.5,-1380.3026 941.5173,-1376.7219 933.5001,-1380.2834 933.5001,-1380.2834"/>
<ellipse fill="none" stroke="#000000" cx="930.3001" cy="-1380.268" rx="3.2" ry="3.2"/>
</g>
<!-- CLONE_FORMS_PROTEIN_CLEAVAGE_SITES -->
<g id="node14" class="node">
<title>CLONE_FORMS_PROTEIN_CLEAVAGE_SITES</title>
<g id="a_node14"><a xlink:href="../../tables/CLONE_FORMS_PROTEIN_CLEAVAGE_SITES.html" xlink:title="CLONE_FORMS_PROTEIN_CLEAVAGE_SITES" target="_top">
<polygon fill="#ffffff" stroke="transparent" points="921,-1270.8219 921,-1331.8219 1206,-1331.8219 1206,-1270.8219 921,-1270.8219"/>
<polygon fill="#f5f5f5" stroke="transparent" points="921.5,-1308.3219 921.5,-1331.3219 1206.5,-1331.3219 1206.5,-1308.3219 921.5,-1308.3219"/>
<polygon fill="none" stroke="#000000" points="921.5,-1308.3219 921.5,-1331.3219 1206.5,-1331.3219 1206.5,-1308.3219 921.5,-1308.3219"/>
<text text-anchor="start" x="926.4857" y="-1317.4219" font-family="Helvetica,sans-Serif" font-weight="bold" font-size="11.00" fill="#000000">CLONE_FORMS_PROTEIN_CLEAVAGE_SITES</text>
<text text-anchor="start" x="1172.0219" y="-1316.4219" font-family="Helvetica,sans-Serif" font-size="11.00" fill="#000000">[table]</text>
<polygon fill="none" stroke="#000000" points="921.5,-1289.3219 921.5,-1308.3219 1206.5,-1308.3219 1206.5,-1289.3219 921.5,-1289.3219"/>
<text text-anchor="start" x="924.5" y="-1295.4219" font-family="Helvetica,sans-Serif" font-size="11.00" fill="#000000">...</text>
<polygon fill="#ffffff" stroke="transparent" points="921.5,-1270.3219 921.5,-1289.3219 1046.5,-1289.3219 1046.5,-1270.3219 921.5,-1270.3219"/>
<polygon fill="none" stroke="#000000" points="921.5,-1270.3219 921.5,-1289.3219 1046.5,-1289.3219 1046.5,-1270.3219 921.5,-1270.3219"/>
<text text-anchor="start" x="924.5" y="-1276.4219" font-family="Helvetica,sans-Serif" font-size="11.00" fill="#000000">&lt; 2</text>
<polygon fill="#ffffff" stroke="transparent" points="1046.5,-1270.3219 1046.5,-1289.3219 1142.5,-1289.3219 1142.5,-1270.3219 1046.5,-1270.3219"/>
<polygon fill="none" stroke="#000000" points="1046.5,-1270.3219 1046.5,-1289.3219 1142.5,-1289.3219 1142.5,-1270.3219 1046.5,-1270.3219"/>
<text text-anchor="start" x="1100.9956" y="-1276.4219" font-family="Helvetica,sans-Serif" font-size="11.00" fill="#000000">62 rows</text>
<polygon fill="#ffffff" stroke="transparent" points="1142.5,-1270.3219 1142.5,-1289.3219 1206.5,-1289.3219 1206.5,-1270.3219 1142.5,-1270.3219"/>
<polygon fill="none" stroke="#000000" points="1142.5,-1270.3219 1142.5,-1289.3219 1206.5,-1289.3219 1206.5,-1270.3219 1142.5,-1270.3219"/>
<text text-anchor="start" x="1197.3862" y="-1276.4219" font-family="Helvetica,sans-Serif" font-size="11.00" fill="#000000"> &#160;</text>
</a>
</g>
</g>
<!-- CLONE_FORMS_PROTEIN_CLEAVAGE_SITES&#45;&gt;CLONE_FORMS -->
<g id="edge13" class="edge">
<title>CLONE_FORMS_PROTEIN_CLEAVAGE_SITES:w&#45;&gt;CLONE_FORMS:e</title>
<path fill="none" stroke="#000000" d="M906.8756,-1297.9159C878.2953,-1296.1054 862.7526,-1287.6184 844,-1260.3219 815.3225,-1218.5787 854.1448,-806.3219 803.5,-806.3219"/>
<polygon fill="#000000" stroke="#000000" points="913.5031,-1298.0998 921.4001,-1301.9205 917.5015,-1298.2109 921.5,-1298.3219 921.5,-1298.3219 921.5,-1298.3219 917.5015,-1298.2109 921.5999,-1294.7233 913.5031,-1298.0998 913.5031,-1298.0998"/>
<ellipse fill="none" stroke="#000000" cx="910.3043" cy="-1298.011" rx="3.2" ry="3.2"/>
</g>
<!-- CLONE_FORMS_PROTEIN_FUSION_SEQUENCES -->
<g id="node15" class="node">
<title>CLONE_FORMS_PROTEIN_FUSION_SEQUENCES</title>
<g id="a_node15"><a xlink:href="../../tables/CLONE_FORMS_PROTEIN_FUSION_SEQUENCES.html" xlink:title="CLONE_FORMS_PROTEIN_FUSION_SEQUENCES" target="_top">
<polygon fill="#ffffff" stroke="transparent" points="911.5,-1188.8219 911.5,-1249.8219 1215.5,-1249.8219 1215.5,-1188.8219 911.5,-1188.8219"/>
<polygon fill="#f5f5f5" stroke="transparent" points="911.5,-1226.3219 911.5,-1249.3219 1215.5,-1249.3219 1215.5,-1226.3219 911.5,-1226.3219"/>
<polygon fill="none" stroke="#000000" points="911.5,-1226.3219 911.5,-1249.3219 1215.5,-1249.3219 1215.5,-1226.3219 911.5,-1226.3219"/>
<text text-anchor="start" x="916.2188" y="-1235.4219" font-family="Helvetica,sans-Serif" font-weight="bold" font-size="11.00" fill="#000000">CLONE_FORMS_PROTEIN_FUSION_SEQUENCES</text>
<text text-anchor="start" x="1181.0219" y="-1234.4219" font-family="Helvetica,sans-Serif" font-size="11.00" fill="#000000">[table]</text>
<polygon fill="none" stroke="#000000" points="911.5,-1207.3219 911.5,-1226.3219 1215.5,-1226.3219 1215.5,-1207.3219 911.5,-1207.3219"/>
<text text-anchor="start" x="914.5" y="-1213.4219" font-family="Helvetica,sans-Serif" font-size="11.00" fill="#000000">...</text>
<polygon fill="#ffffff" stroke="transparent" points="911.5,-1188.3219 911.5,-1207.3219 1045.5,-1207.3219 1045.5,-1188.3219 911.5,-1188.3219"/>
<polygon fill="none" stroke="#000000" points="911.5,-1188.3219 911.5,-1207.3219 1045.5,-1207.3219 1045.5,-1188.3219 911.5,-1188.3219"/>
<text text-anchor="start" x="914.5" y="-1194.4219" font-family="Helvetica,sans-Serif" font-size="11.00" fill="#000000">&lt; 2</text>
<polygon fill="#ffffff" stroke="transparent" points="1045.5,-1188.3219 1045.5,-1207.3219 1146.5,-1207.3219 1146.5,-1188.3219 1045.5,-1188.3219"/>
<polygon fill="none" stroke="#000000" points="1045.5,-1188.3219 1045.5,-1207.3219 1146.5,-1207.3219 1146.5,-1188.3219 1045.5,-1188.3219"/>
<text text-anchor="start" x="1104.9956" y="-1194.4219" font-family="Helvetica,sans-Serif" font-size="11.00" fill="#000000">47 rows</text>
<polygon fill="#ffffff" stroke="transparent" points="1146.5,-1188.3219 1146.5,-1207.3219 1215.5,-1207.3219 1215.5,-1188.3219 1146.5,-1188.3219"/>
<polygon fill="none" stroke="#000000" points="1146.5,-1188.3219 1146.5,-1207.3219 1215.5,-1207.3219 1215.5,-1188.3219 1146.5,-1188.3219"/>
<text text-anchor="start" x="1206.3862" y="-1194.4219" font-family="Helvetica,sans-Serif" font-size="11.00" fill="#000000"> &#160;</text>
</a>
</g>
</g>
<!-- CLONE_FORMS_PROTEIN_FUSION_SEQUENCES&#45;&gt;CLONE_FORMS -->
<g id="edge14" class="edge">
<title>CLONE_FORMS_PROTEIN_FUSION_SEQUENCES:w&#45;&gt;CLONE_FORMS:e</title>
<path fill="none" stroke="#000000" d="M897.0912,-1215.6408C872.6604,-1213.0473 860.0719,-1202.6798 844,-1178.3219 798.2032,-1108.9142 886.6551,-806.3219 803.5,-806.3219"/>
<polygon fill="#000000" stroke="#000000" points="903.5089,-1215.9441 911.33,-1219.9179 907.5045,-1216.133 911.5,-1216.3219 911.5,-1216.3219 911.5,-1216.3219 907.5045,-1216.133 911.67,-1212.7259 903.5089,-1215.9441 903.5089,-1215.9441"/>
<ellipse fill="none" stroke="#000000" cx="900.3125" cy="-1215.793" rx="3.2" ry="3.2"/>
</g>
<!-- CLONE_FORMS_PROTEIN_LINKERS -->
<g id="node16" class="node">
<title>CLONE_FORMS_PROTEIN_LINKERS</title>
<g id="a_node16"><a xlink:href="../../tables/CLONE_FORMS_PROTEIN_LINKERS.html" xlink:title="CLONE_FORMS_PROTEIN_LINKERS" target="_top">
<polygon fill="#ffffff" stroke="transparent" points="852,-125.3219 852,-347.3219 1275,-347.3219 1275,-125.3219 852,-125.3219"/>
<polygon fill="#f5f5f5" stroke="transparent" points="854.5,-322.3219 854.5,-345.3219 1273.5,-345.3219 1273.5,-322.3219 854.5,-322.3219"/>
<polygon fill="none" stroke="#000000" points="854.5,-322.3219 854.5,-345.3219 1273.5,-345.3219 1273.5,-322.3219 854.5,-322.3219"/>
<text text-anchor="start" x="859.5" y="-331.4219" font-family="Helvetica,sans-Serif" font-weight="bold" font-size="11.00" fill="#000000">CLONE_FORMS_PROTEIN_LINKERS</text>
<text text-anchor="start" x="1238.5437" y="-330.4219" font-family="Helvetica,sans-Serif" font-size="11.00" fill="#000000">[table]</text>
<polygon fill="none" stroke="#000000" points="854.5,-300.3219 854.5,-322.3219 1102.5,-322.3219 1102.5,-300.3219 854.5,-300.3219"/>
<image xlink:href="../../images/primaryKeys.png" width="11px" height="12px" preserveAspectRatio="xMinYMin meet" x="859.5" y="-317.322"/>
<text text-anchor="start" x="874.5" y="-307.4219" font-family="Helvetica,sans-Serif" font-size="11.00" fill="#000000">ID</text>
<polygon fill="none" stroke="#000000" points="1102.5,-300.3219 1102.5,-322.3219 1273.5,-322.3219 1273.5,-300.3219 1102.5,-300.3219"/>
<text text-anchor="start" x="1105.5" y="-308.0219" font-family="Helvetica,sans-Serif" font-size="11.00" fill="#000000">number[19]</text>
<polygon fill="none" stroke="#000000" points="854.5,-278.3219 854.5,-300.3219 1102.5,-300.3219 1102.5,-278.3219 854.5,-278.3219"/>
<text text-anchor="start" x="874.5" y="-285.4219" font-family="Helvetica,sans-Serif" font-size="11.00" fill="#000000">CREATED_AT</text>
<polygon fill="none" stroke="#000000" points="1102.5,-278.3219 1102.5,-300.3219 1273.5,-300.3219 1273.5,-278.3219 1102.5,-278.3219"/>
<text text-anchor="start" x="1105.4896" y="-286.0219" font-family="Helvetica,sans-Serif" font-size="11.00" fill="#000000">timestamp(6) with time zone[13,6]</text>
<polygon fill="none" stroke="#000000" points="854.5,-256.3219 854.5,-278.3219 1102.5,-278.3219 1102.5,-256.3219 854.5,-256.3219"/>
<text text-anchor="start" x="874.5" y="-263.4219" font-family="Helvetica,sans-Serif" font-size="11.00" fill="#000000">CREATED_BY</text>
<polygon fill="none" stroke="#000000" points="1102.5,-256.3219 1102.5,-278.3219 1273.5,-278.3219 1273.5,-256.3219 1102.5,-256.3219"/>
<text text-anchor="start" x="1105.5" y="-264.0219" font-family="Helvetica,sans-Serif" font-size="11.00" fill="#000000">number[19]</text>
<polygon fill="none" stroke="#000000" points="854.5,-234.3219 854.5,-256.3219 1102.5,-256.3219 1102.5,-234.3219 854.5,-234.3219"/>
<text text-anchor="start" x="874.5" y="-241.4219" font-family="Helvetica,sans-Serif" font-size="11.00" fill="#000000">UPDATED_AT</text>
<polygon fill="none" stroke="#000000" points="1102.5,-234.3219 1102.5,-256.3219 1273.5,-256.3219 1273.5,-234.3219 1102.5,-234.3219"/>
<text text-anchor="start" x="1105.4896" y="-242.0219" font-family="Helvetica,sans-Serif" font-size="11.00" fill="#000000">timestamp(6) with time zone[13,6]</text>
<polygon fill="none" stroke="#000000" points="854.5,-212.3219 854.5,-234.3219 1102.5,-234.3219 1102.5,-212.3219 854.5,-212.3219"/>
<text text-anchor="start" x="874.5" y="-219.4219" font-family="Helvetica,sans-Serif" font-size="11.00" fill="#000000">UPDATED_BY</text>
<polygon fill="none" stroke="#000000" points="1102.5,-212.3219 1102.5,-234.3219 1273.5,-234.3219 1273.5,-212.3219 1102.5,-212.3219"/>
<text text-anchor="start" x="1105.5" y="-220.0219" font-family="Helvetica,sans-Serif" font-size="11.00" fill="#000000">number[19]</text>
<polygon fill="none" stroke="#000000" points="854.5,-190.3219 854.5,-212.3219 1102.5,-212.3219 1102.5,-190.3219 854.5,-190.3219"/>
<image xlink:href="../../images/foreignKeys.png" width="11px" height="12px" preserveAspectRatio="xMinYMin meet" x="859.5" y="-207.322"/>
<text text-anchor="start" x="874.5" y="-197.4219" font-family="Helvetica,sans-Serif" font-size="11.00" fill="#000000">CLONE_FORM_ID</text>
<polygon fill="none" stroke="#000000" points="1102.5,-190.3219 1102.5,-212.3219 1273.5,-212.3219 1273.5,-190.3219 1102.5,-190.3219"/>
<text text-anchor="start" x="1105.5" y="-198.0219" font-family="Helvetica,sans-Serif" font-size="11.00" fill="#000000">number[19]</text>
<polygon fill="none" stroke="#000000" points="854.5,-168.3219 854.5,-190.3219 1102.5,-190.3219 1102.5,-168.3219 854.5,-168.3219"/>
<image xlink:href="../../images/foreignKeys.png" width="11px" height="12px" preserveAspectRatio="xMinYMin meet" x="859.5" y="-185.322"/>
<text text-anchor="start" x="874.5" y="-175.4219" font-family="Helvetica,sans-Serif" font-size="11.00" fill="#000000">PROTEIN_LINKER_ID</text>
<polygon fill="none" stroke="#000000" points="1102.5,-168.3219 1102.5,-190.3219 1273.5,-190.3219 1273.5,-168.3219 1102.5,-168.3219"/>
<text text-anchor="start" x="1105.5" y="-176.0219" font-family="Helvetica,sans-Serif" font-size="11.00" fill="#000000">number[19]</text>
<polygon fill="none" stroke="#000000" points="854.5,-146.3219 854.5,-168.3219 1102.5,-168.3219 1102.5,-146.3219 854.5,-146.3219"/>
<text text-anchor="start" x="874.5" y="-153.4219" font-family="Helvetica,sans-Serif" font-size="11.00" fill="#000000">CARTOON_ORDER</text>
<polygon fill="none" stroke="#000000" points="1102.5,-146.3219 1102.5,-168.3219 1273.5,-168.3219 1273.5,-146.3219 1102.5,-146.3219"/>
<text text-anchor="start" x="1105.5" y="-154.0219" font-family="Helvetica,sans-Serif" font-size="11.00" fill="#000000">number[2]</text>
<polygon fill="#ffffff" stroke="transparent" points="854.5,-127.3219 854.5,-146.3219 966.5,-146.3219 966.5,-127.3219 854.5,-127.3219"/>
<polygon fill="none" stroke="#000000" points="854.5,-127.3219 854.5,-146.3219 966.5,-146.3219 966.5,-127.3219 854.5,-127.3219"/>
<text text-anchor="start" x="857.5" y="-133.4219" font-family="Helvetica,sans-Serif" font-size="11.00" fill="#000000">&lt; 2</text>
<polygon fill="#ffffff" stroke="transparent" points="966.5,-127.3219 966.5,-146.3219 1102.5,-146.3219 1102.5,-127.3219 966.5,-127.3219"/>
<polygon fill="none" stroke="#000000" points="966.5,-127.3219 966.5,-146.3219 1102.5,-146.3219 1102.5,-127.3219 966.5,-127.3219"/>
<text text-anchor="start" x="1060.9956" y="-133.4219" font-family="Helvetica,sans-Serif" font-size="11.00" fill="#000000">71 rows</text>
<polygon fill="#ffffff" stroke="transparent" points="1102.5,-127.3219 1102.5,-146.3219 1273.5,-146.3219 1273.5,-127.3219 1102.5,-127.3219"/>
<polygon fill="none" stroke="#000000" points="1102.5,-127.3219 1102.5,-146.3219 1273.5,-146.3219 1273.5,-127.3219 1102.5,-127.3219"/>
<text text-anchor="start" x="1254.9053" y="-133.4219" font-family="Helvetica,sans-Serif" font-size="11.00" fill="#000000">0 &gt;</text>
<polygon fill="none" stroke="#000000" stroke-width="2" points="853,-126.3219 853,-346.3219 1274,-346.3219 1274,-126.3219 853,-126.3219"/>
</a>
</g>
</g>
<!-- CLONE_FORMS_PROTEIN_LINKERS&#45;&gt;CLONE_FORMS -->
<g id="edge15" class="edge">
<title>CLONE_FORMS_PROTEIN_LINKERS:w&#45;&gt;CLONE_FORMS:e</title>
<path fill="none" stroke="#000000" d="M842.41,-209.8744C798.0924,-283.409 866.2173,-806.3219 803.5,-806.3219"/>
<polygon fill="#000000" stroke="#000000" points="847.9689,-205.942 856.579,-204.2609 851.2345,-203.6319 854.5,-201.3219 854.5,-201.3219 854.5,-201.3219 851.2345,-203.6319 852.421,-198.3829 847.9689,-205.942 847.9689,-205.942"/>
<ellipse fill="none" stroke="#000000" cx="845.3565" cy="-207.79" rx="3.2" ry="3.2"/>
</g>
<!-- PROTEIN_PRODUCTION.PROTEIN_LINKERS -->
<g id="node17" class="node">
<title>PROTEIN_PRODUCTION.PROTEIN_LINKERS</title>
<g id="a_node17"><a xlink:title="PROTEIN_PRODUCTION.PROTEIN_LINKERS">
<polygon fill="#ffffff" stroke="transparent" points="514,-121.8219 514,-182.8219 791,-182.8219 791,-121.8219 514,-121.8219"/>
<polygon fill="#f5f5f5" stroke="transparent" points="514.5,-159.3219 514.5,-182.3219 791.5,-182.3219 791.5,-159.3219 514.5,-159.3219"/>
<polygon fill="none" stroke="#000000" points="514.5,-159.3219 514.5,-182.3219 791.5,-182.3219 791.5,-159.3219 514.5,-159.3219"/>
<text text-anchor="start" x="519.4732" y="-168.4219" font-family="Helvetica,sans-Serif" font-weight="bold" font-size="11.00" fill="#000000">PROTEIN_PRODUCTION.PROTEIN_LINKERS</text>
<text text-anchor="start" x="757.0219" y="-167.4219" font-family="Helvetica,sans-Serif" font-size="11.00" fill="#000000">[table]</text>
<polygon fill="none" stroke="#000000" points="514.5,-140.3219 514.5,-159.3219 791.5,-159.3219 791.5,-140.3219 514.5,-140.3219"/>
<text text-anchor="start" x="517.5" y="-146.4219" font-family="Helvetica,sans-Serif" font-size="11.00" fill="#000000">...</text>
<polygon fill="#ffffff" stroke="transparent" points="514.5,-121.3219 514.5,-140.3219 629.5,-140.3219 629.5,-121.3219 514.5,-121.3219"/>
<polygon fill="none" stroke="#000000" points="514.5,-121.3219 514.5,-140.3219 629.5,-140.3219 629.5,-121.3219 514.5,-121.3219"/>
<text text-anchor="start" x="517.5" y="-127.4219" font-family="Helvetica,sans-Serif" font-size="11.00" fill="#000000"> &#160;</text>
<polygon fill="#ffffff" stroke="transparent" points="629.5,-121.3219 629.5,-140.3219 718.5,-140.3219 718.5,-121.3219 629.5,-121.3219"/>
<polygon fill="none" stroke="#000000" points="629.5,-121.3219 629.5,-140.3219 718.5,-140.3219 718.5,-121.3219 629.5,-121.3219"/>
<text text-anchor="start" x="683.1105" y="-127.4219" font-family="Helvetica,sans-Serif" font-size="11.00" fill="#000000">0 rows</text>
<polygon fill="#ffffff" stroke="transparent" points="718.5,-121.3219 718.5,-140.3219 791.5,-140.3219 791.5,-121.3219 718.5,-121.3219"/>
<polygon fill="none" stroke="#000000" points="718.5,-121.3219 718.5,-140.3219 791.5,-140.3219 791.5,-121.3219 718.5,-121.3219"/>
<text text-anchor="start" x="772.9053" y="-127.4219" font-family="Helvetica,sans-Serif" font-size="11.00" fill="#000000">2 &gt;</text>
</a>
</g>
</g>
<!-- CLONE_FORMS_PROTEIN_LINKERS&#45;&gt;PROTEIN_PRODUCTION.PROTEIN_LINKERS -->
<g id="edge16" class="edge">
<title>CLONE_FORMS_PROTEIN_LINKERS:w&#45;&gt;PROTEIN_PRODUCTION.PROTEIN_LINKERS:e</title>
<path fill="none" stroke="#000000" d="M840.0372,-179.1052C826.5845,-178.713 812.8375,-177.8088 799.2045,-176.5593"/>
<polygon fill="#000000" stroke="#000000" points="846.5009,-179.202 854.446,-182.9215 850.5004,-179.2619 854.5,-179.3219 854.5,-179.3219 854.5,-179.3219 850.5004,-179.2619 854.554,-175.7223 846.5009,-179.202 846.5009,-179.202"/>
<ellipse fill="none" stroke="#000000" cx="843.3013" cy="-179.154" rx="3.2" ry="3.2"/>
</g>
<!-- CLONE_FORMS_PROTEIN_TAGS -->
<g id="node18" class="node">
<title>CLONE_FORMS_PROTEIN_TAGS</title>
<g id="a_node18"><a xlink:href="../../tables/CLONE_FORMS_PROTEIN_TAGS.html" xlink:title="CLONE_FORMS_PROTEIN_TAGS" target="_top">
<polygon fill="#ffffff" stroke="transparent" points="955,-1106.8219 955,-1167.8219 1172,-1167.8219 1172,-1106.8219 955,-1106.8219"/>
<polygon fill="#f5f5f5" stroke="transparent" points="955.5,-1144.3219 955.5,-1167.3219 1172.5,-1167.3219 1172.5,-1144.3219 955.5,-1144.3219"/>
<polygon fill="none" stroke="#000000" points="955.5,-1144.3219 955.5,-1167.3219 1172.5,-1167.3219 1172.5,-1144.3219 955.5,-1144.3219"/>
<text text-anchor="start" x="960.1072" y="-1153.4219" font-family="Helvetica,sans-Serif" font-weight="bold" font-size="11.00" fill="#000000">CLONE_FORMS_PROTEIN_TAGS</text>
<text text-anchor="start" x="1138.0219" y="-1152.4219" font-family="Helvetica,sans-Serif" font-size="11.00" fill="#000000">[table]</text>
<polygon fill="none" stroke="#000000" points="955.5,-1125.3219 955.5,-1144.3219 1172.5,-1144.3219 1172.5,-1125.3219 955.5,-1125.3219"/>
<text text-anchor="start" x="958.5" y="-1131.4219" font-family="Helvetica,sans-Serif" font-size="11.00" fill="#000000">...</text>
<polygon fill="#ffffff" stroke="transparent" points="955.5,-1106.3219 955.5,-1125.3219 1046.5,-1125.3219 1046.5,-1106.3219 955.5,-1106.3219"/>
<polygon fill="none" stroke="#000000" points="955.5,-1106.3219 955.5,-1125.3219 1046.5,-1125.3219 1046.5,-1106.3219 955.5,-1106.3219"/>
<text text-anchor="start" x="958.5" y="-1112.4219" font-family="Helvetica,sans-Serif" font-size="11.00" fill="#000000">&lt; 2</text>
<polygon fill="#ffffff" stroke="transparent" points="1046.5,-1106.3219 1046.5,-1125.3219 1125.5,-1125.3219 1125.5,-1106.3219 1046.5,-1106.3219"/>
<polygon fill="none" stroke="#000000" points="1046.5,-1106.3219 1046.5,-1125.3219 1125.5,-1125.3219 1125.5,-1106.3219 1046.5,-1106.3219"/>
<text text-anchor="start" x="1083.9956" y="-1112.4219" font-family="Helvetica,sans-Serif" font-size="11.00" fill="#000000">86 rows</text>
<polygon fill="#ffffff" stroke="transparent" points="1125.5,-1106.3219 1125.5,-1125.3219 1172.5,-1125.3219 1172.5,-1106.3219 1125.5,-1106.3219"/>
<polygon fill="none" stroke="#000000" points="1125.5,-1106.3219 1125.5,-1125.3219 1172.5,-1125.3219 1172.5,-1106.3219 1125.5,-1106.3219"/>
<text text-anchor="start" x="1163.3862" y="-1112.4219" font-family="Helvetica,sans-Serif" font-size="11.00" fill="#000000"> &#160;</text>
</a>
</g>
</g>
<!-- CLONE_FORMS_PROTEIN_TAGS&#45;&gt;CLONE_FORMS -->
<g id="edge17" class="edge">
<title>CLONE_FORMS_PROTEIN_TAGS:w&#45;&gt;CLONE_FORMS:e</title>
<path fill="none" stroke="#000000" d="M940.8898,-1134.3474C898.0349,-1134.3754 874.091,-1132.7404 844,-1096.3219 802.5532,-1046.1597 868.5699,-806.3219 803.5,-806.3219"/>
<polygon fill="#000000" stroke="#000000" points="947.5,-1134.3359 955.5063,-1137.9219 951.5,-1134.3289 955.5,-1134.3219 955.5,-1134.3219 955.5,-1134.3219 951.5,-1134.3289 955.4937,-1130.7219 947.5,-1134.3359 947.5,-1134.3359"/>
<ellipse fill="none" stroke="#000000" cx="944.3" cy="-1134.3415" rx="3.2" ry="3.2"/>
</g>
<!-- CLONE_FORMS_SUBSTRATES -->
<g id="node19" class="node">
<title>CLONE_FORMS_SUBSTRATES</title>
<g id="a_node19"><a xlink:href="../../tables/CLONE_FORMS_SUBSTRATES.html" xlink:title="CLONE_FORMS_SUBSTRATES" target="_top">
<polygon fill="#ffffff" stroke="transparent" points="960.5,-1024.8219 960.5,-1085.8219 1166.5,-1085.8219 1166.5,-1024.8219 960.5,-1024.8219"/>
<polygon fill="#f5f5f5" stroke="transparent" points="960.5,-1062.3219 960.5,-1085.3219 1166.5,-1085.3219 1166.5,-1062.3219 960.5,-1062.3219"/>
<polygon fill="none" stroke="#000000" points="960.5,-1062.3219 960.5,-1085.3219 1166.5,-1085.3219 1166.5,-1062.3219 960.5,-1062.3219"/>
<text text-anchor="start" x="965.4141" y="-1071.4219" font-family="Helvetica,sans-Serif" font-weight="bold" font-size="11.00" fill="#000000">CLONE_FORMS_SUBSTRATES</text>
<text text-anchor="start" x="1132.0219" y="-1070.4219" font-family="Helvetica,sans-Serif" font-size="11.00" fill="#000000">[table]</text>
<polygon fill="none" stroke="#000000" points="960.5,-1043.3219 960.5,-1062.3219 1166.5,-1062.3219 1166.5,-1043.3219 960.5,-1043.3219"/>
<text text-anchor="start" x="963.5" y="-1049.4219" font-family="Helvetica,sans-Serif" font-size="11.00" fill="#000000">...</text>
<polygon fill="#ffffff" stroke="transparent" points="960.5,-1024.3219 960.5,-1043.3219 1048.5,-1043.3219 1048.5,-1024.3219 960.5,-1024.3219"/>
<polygon fill="none" stroke="#000000" points="960.5,-1024.3219 960.5,-1043.3219 1048.5,-1043.3219 1048.5,-1024.3219 960.5,-1024.3219"/>
<text text-anchor="start" x="963.5" y="-1030.4219" font-family="Helvetica,sans-Serif" font-size="11.00" fill="#000000">&lt; 2</text>
<polygon fill="#ffffff" stroke="transparent" points="1048.5,-1024.3219 1048.5,-1043.3219 1120.5,-1043.3219 1120.5,-1024.3219 1048.5,-1024.3219"/>
<polygon fill="none" stroke="#000000" points="1048.5,-1024.3219 1048.5,-1043.3219 1120.5,-1043.3219 1120.5,-1024.3219 1048.5,-1024.3219"/>
<text text-anchor="start" x="1085.1105" y="-1030.4219" font-family="Helvetica,sans-Serif" font-size="11.00" fill="#000000">0 rows</text>
<polygon fill="#ffffff" stroke="transparent" points="1120.5,-1024.3219 1120.5,-1043.3219 1166.5,-1043.3219 1166.5,-1024.3219 1120.5,-1024.3219"/>
<polygon fill="none" stroke="#000000" points="1120.5,-1024.3219 1120.5,-1043.3219 1166.5,-1043.3219 1166.5,-1024.3219 1120.5,-1024.3219"/>
<text text-anchor="start" x="1157.3862" y="-1030.4219" font-family="Helvetica,sans-Serif" font-size="11.00" fill="#000000"> &#160;</text>
</a>
</g>
</g>
<!-- CLONE_FORMS_SUBSTRATES&#45;&gt;CLONE_FORMS -->
<g id="edge18" class="edge">
<title>CLONE_FORMS_SUBSTRATES:w&#45;&gt;CLONE_FORMS:e</title>
<path fill="none" stroke="#000000" d="M945.902,-1052.3576C901.0799,-1052.4645 876.6896,-1051.3013 844,-1014.3219 781.623,-943.7592 897.6805,-806.3219 803.5,-806.3219"/>
<polygon fill="#000000" stroke="#000000" points="952.5,-1052.3415 960.5088,-1055.9219 956.5,-1052.3317 960.5,-1052.3219 960.5,-1052.3219 960.5,-1052.3219 956.5,-1052.3317 960.4912,-1048.7219 952.5,-1052.3415 952.5,-1052.3415"/>
<ellipse fill="none" stroke="#000000" cx="949.3" cy="-1052.3494" rx="3.2" ry="3.2"/>
</g>
<!-- CLONE_FORMS_TAGS -->
<g id="node20" class="node">
<title>CLONE_FORMS_TAGS</title>
<g id="a_node20"><a xlink:href="../../tables/CLONE_FORMS_TAGS.html" xlink:title="CLONE_FORMS_TAGS" target="_top">
<polygon fill="#ffffff" stroke="transparent" points="982.5,-942.8219 982.5,-1003.8219 1144.5,-1003.8219 1144.5,-942.8219 982.5,-942.8219"/>
<polygon fill="#f5f5f5" stroke="transparent" points="982.5,-980.3219 982.5,-1003.3219 1144.5,-1003.3219 1144.5,-980.3219 982.5,-980.3219"/>
<polygon fill="none" stroke="#000000" points="982.5,-980.3219 982.5,-1003.3219 1144.5,-1003.3219 1144.5,-980.3219 982.5,-980.3219"/>
<text text-anchor="start" x="987.1083" y="-989.4219" font-family="Helvetica,sans-Serif" font-weight="bold" font-size="11.00" fill="#000000">CLONE_FORMS_TAGS</text>
<text text-anchor="start" x="1110.0219" y="-988.4219" font-family="Helvetica,sans-Serif" font-size="11.00" fill="#000000">[table]</text>
<polygon fill="none" stroke="#000000" points="982.5,-961.3219 982.5,-980.3219 1144.5,-980.3219 1144.5,-961.3219 982.5,-961.3219"/>
<text text-anchor="start" x="985.5" y="-967.4219" font-family="Helvetica,sans-Serif" font-size="11.00" fill="#000000">...</text>
<polygon fill="#ffffff" stroke="transparent" points="982.5,-942.3219 982.5,-961.3219 1048.5,-961.3219 1048.5,-942.3219 982.5,-942.3219"/>
<polygon fill="none" stroke="#000000" points="982.5,-942.3219 982.5,-961.3219 1048.5,-961.3219 1048.5,-942.3219 982.5,-942.3219"/>
<text text-anchor="start" x="985.5" y="-948.4219" font-family="Helvetica,sans-Serif" font-size="11.00" fill="#000000">&lt; 2</text>
<polygon fill="#ffffff" stroke="transparent" points="1048.5,-942.3219 1048.5,-961.3219 1109.5,-961.3219 1109.5,-942.3219 1048.5,-942.3219"/>
<polygon fill="none" stroke="#000000" points="1048.5,-942.3219 1048.5,-961.3219 1109.5,-961.3219 1109.5,-942.3219 1048.5,-942.3219"/>
<text text-anchor="start" x="1074.1105" y="-948.4219" font-family="Helvetica,sans-Serif" font-size="11.00" fill="#000000">0 rows</text>
<polygon fill="#ffffff" stroke="transparent" points="1109.5,-942.3219 1109.5,-961.3219 1144.5,-961.3219 1144.5,-942.3219 1109.5,-942.3219"/>
<polygon fill="none" stroke="#000000" points="1109.5,-942.3219 1109.5,-961.3219 1144.5,-961.3219 1144.5,-942.3219 1109.5,-942.3219"/>
<text text-anchor="start" x="1135.3862" y="-948.4219" font-family="Helvetica,sans-Serif" font-size="11.00" fill="#000000"> &#160;</text>
</a>
</g>
</g>
<!-- CLONE_FORMS_TAGS&#45;&gt;CLONE_FORMS -->
<g id="edge19" class="edge">
<title>CLONE_FORMS_TAGS:w&#45;&gt;CLONE_FORMS:e</title>
<path fill="none" stroke="#000000" d="M967.817,-970.4112C913.9815,-970.9842 886.4081,-972.9356 844,-932.3219 801.5177,-891.6371 862.3218,-806.3219 803.5,-806.3219"/>
<polygon fill="#000000" stroke="#000000" points="974.5001,-970.3706 982.5219,-973.9218 978.5001,-970.3463 982.5,-970.3219 982.5,-970.3219 982.5,-970.3219 978.5001,-970.3463 982.4781,-966.722 974.5001,-970.3706 974.5001,-970.3706"/>
<ellipse fill="none" stroke="#000000" cx="971.3002" cy="-970.3901" rx="3.2" ry="3.2"/>
</g>
<!-- TARGET_FORMS_PROTEIN_LINKERS -->
<g id="node21" class="node">
<title>TARGET_FORMS_PROTEIN_LINKERS</title>
<g id="a_node21"><a xlink:href="../../tables/TARGET_FORMS_PROTEIN_LINKERS.html" xlink:title="TARGET_FORMS_PROTEIN_LINKERS" target="_top">
<polygon fill="#ffffff" stroke="transparent" points="943,-42.8219 943,-103.8219 1184,-103.8219 1184,-42.8219 943,-42.8219"/>
<polygon fill="#f5f5f5" stroke="transparent" points="943.5,-80.3219 943.5,-103.3219 1184.5,-103.3219 1184.5,-80.3219 943.5,-80.3219"/>
<polygon fill="none" stroke="#000000" points="943.5,-80.3219 943.5,-103.3219 1184.5,-103.3219 1184.5,-80.3219 943.5,-80.3219"/>
<text text-anchor="start" x="948.1909" y="-89.4219" font-family="Helvetica,sans-Serif" font-weight="bold" font-size="11.00" fill="#000000">TARGET_FORMS_PROTEIN_LINKERS</text>
<text text-anchor="start" x="1150.0219" y="-88.4219" font-family="Helvetica,sans-Serif" font-size="11.00" fill="#000000">[table]</text>
<polygon fill="none" stroke="#000000" points="943.5,-61.3219 943.5,-80.3219 1184.5,-80.3219 1184.5,-61.3219 943.5,-61.3219"/>
<text text-anchor="start" x="946.5" y="-67.4219" font-family="Helvetica,sans-Serif" font-size="11.00" fill="#000000">...</text>
<polygon fill="#ffffff" stroke="transparent" points="943.5,-42.3219 943.5,-61.3219 1043.5,-61.3219 1043.5,-42.3219 943.5,-42.3219"/>
<polygon fill="none" stroke="#000000" points="943.5,-42.3219 943.5,-61.3219 1043.5,-61.3219 1043.5,-42.3219 943.5,-42.3219"/>
<text text-anchor="start" x="946.5" y="-48.4219" font-family="Helvetica,sans-Serif" font-size="11.00" fill="#000000">&lt; 2</text>
<polygon fill="#ffffff" stroke="transparent" points="1043.5,-42.3219 1043.5,-61.3219 1132.5,-61.3219 1132.5,-42.3219 1043.5,-42.3219"/>
<polygon fill="none" stroke="#000000" points="1043.5,-42.3219 1043.5,-61.3219 1132.5,-61.3219 1132.5,-42.3219 1043.5,-42.3219"/>
<text text-anchor="start" x="1084.8807" y="-48.4219" font-family="Helvetica,sans-Serif" font-size="11.00" fill="#000000">149 rows</text>
<polygon fill="#ffffff" stroke="transparent" points="1132.5,-42.3219 1132.5,-61.3219 1184.5,-61.3219 1184.5,-42.3219 1132.5,-42.3219"/>
<polygon fill="none" stroke="#000000" points="1132.5,-42.3219 1132.5,-61.3219 1184.5,-61.3219 1184.5,-42.3219 1132.5,-42.3219"/>
<text text-anchor="start" x="1175.3862" y="-48.4219" font-family="Helvetica,sans-Serif" font-size="11.00" fill="#000000"> &#160;</text>
</a>
</g>
</g>
<!-- TARGET_FORMS_PROTEIN_LINKERS&#45;&gt;TARGET_FORMS -->
<g id="edge24" class="edge">
<title>TARGET_FORMS_PROTEIN_LINKERS:w&#45;&gt;TARGET_FORMS:e</title>
<path fill="none" stroke="#000000" d="M928.9692,-70.1433C737.5548,-65.4527 630.5304,28.8981 494,-111.3219 445.1433,-161.4989 523.5336,-740.3219 453.5,-740.3219"/>
<polygon fill="#000000" stroke="#000000" points="935.5006,-70.2235 943.4557,-73.9216 939.5003,-70.2727 943.5,-70.3219 943.5,-70.3219 943.5,-70.3219 939.5003,-70.2727 943.5443,-66.7222 935.5006,-70.2235 935.5006,-70.2235"/>
<ellipse fill="none" stroke="#000000" cx="932.3008" cy="-70.1842" rx="3.2" ry="3.2"/>
</g>
<!-- TARGET_FORMS_PROTEIN_LINKERS&#45;&gt;PROTEIN_PRODUCTION.PROTEIN_LINKERS -->
<g id="edge23" class="edge">
<title>TARGET_FORMS_PROTEIN_LINKERS:w&#45;&gt;PROTEIN_PRODUCTION.PROTEIN_LINKERS:e</title>
<path fill="none" stroke="#000000" d="M928.8542,-71.2775C886.9951,-76.0606 813.4716,-97.9566 752.7803,-117.7842"/>
<polygon fill="#000000" stroke="#000000" points="935.517,-70.8428 943.7344,-73.9143 939.5085,-70.5824 943.5,-70.3219 943.5,-70.3219 943.5,-70.3219 939.5085,-70.5824 943.2656,-66.7295 935.517,-70.8428 935.517,-70.8428"/>
<ellipse fill="none" stroke="#000000" cx="932.3238" cy="-71.0512" rx="3.2" ry="3.2"/>
</g>
</g>
</svg>
