<?xml version="1.0" encoding="UTF-8" standalone="no"?>
<!DOCTYPE svg PUBLIC "-//W3C//DTD SVG 1.1//EN"
 "http://www.w3.org/Graphics/SVG/1.1/DTD/svg11.dtd">
<!-- Generated by graphviz version 2.40.1 (20161225.0304)
 -->
<!-- Title: oneDegreeRelationshipsDiagram Pages: 1 -->
<svg width="880pt" height="343pt"
 viewBox="0.00 0.00 880.00 342.70" xmlns="http://www.w3.org/2000/svg" xmlns:xlink="http://www.w3.org/1999/xlink">
<g id="graph0" class="graph" transform="scale(1 1) rotate(0) translate(4 338.7)">
<title>oneDegreeRelationshipsDiagram</title>
<polygon fill="#ffffff" stroke="transparent" points="-4,4 -4,-338.7 876,-338.7 876,4 -4,4"/>
<text text-anchor="middle" x="72.4936" y="-7.3" font-family="Helvetica,sans-Serif" font-size="11.00" fill="#000000">Generated by SchemaSpy</text>
<!-- CLONE_FORMS_PROTEIN_CLEAVAGE_SITES -->
<g id="node1" class="node">
<title>CLONE_FORMS_PROTEIN_CLEAVAGE_SITES</title>
<g id="a_node1"><a xlink:href="../../tables/CLONE_FORMS_PROTEIN_CLEAVAGE_SITES.html" xlink:title="CLONE_FORMS_PROTEIN_CLEAVAGE_SITES" target="_top">
<polygon fill="#ffffff" stroke="transparent" points="384,-108.7 384,-330.7 864,-330.7 864,-108.7 384,-108.7"/>
<polygon fill="#f5f5f5" stroke="transparent" points="386,-305.7 386,-328.7 862,-328.7 862,-305.7 386,-305.7"/>
<polygon fill="none" stroke="#000000" points="386,-305.7 386,-328.7 862,-328.7 862,-305.7 386,-305.7"/>
<text text-anchor="start" x="391" y="-314.8" font-family="Helvetica,sans-Serif" font-weight="bold" font-size="11.00" fill="#000000">CLONE_FORMS_PROTEIN_CLEAVAGE_SITES</text>
<text text-anchor="start" x="827.0437" y="-313.8" font-family="Helvetica,sans-Serif" font-size="11.00" fill="#000000">[table]</text>
<polygon fill="none" stroke="#000000" points="386,-283.7 386,-305.7 691,-305.7 691,-283.7 386,-283.7"/>
<image xlink:href="../../images/primaryKeys.png" width="11px" height="12px" preserveAspectRatio="xMinYMin meet" x="391" y="-300.7"/>
<text text-anchor="start" x="406" y="-290.8" font-family="Helvetica,sans-Serif" font-size="11.00" fill="#000000">ID</text>
<polygon fill="none" stroke="#000000" points="691,-283.7 691,-305.7 862,-305.7 862,-283.7 691,-283.7"/>
<text text-anchor="start" x="694" y="-291.4" font-family="Helvetica,sans-Serif" font-size="11.00" fill="#000000">number[19]</text>
<polygon fill="none" stroke="#000000" points="386,-261.7 386,-283.7 691,-283.7 691,-261.7 386,-261.7"/>
<text text-anchor="start" x="406" y="-268.8" font-family="Helvetica,sans-Serif" font-size="11.00" fill="#000000">CREATED_AT</text>
<polygon fill="none" stroke="#000000" points="691,-261.7 691,-283.7 862,-283.7 862,-261.7 691,-261.7"/>
<text text-anchor="start" x="693.9896" y="-269.4" font-family="Helvetica,sans-Serif" font-size="11.00" fill="#000000">timestamp(6) with time zone[13,6]</text>
<polygon fill="none" stroke="#000000" points="386,-239.7 386,-261.7 691,-261.7 691,-239.7 386,-239.7"/>
<text text-anchor="start" x="406" y="-246.8" font-family="Helvetica,sans-Serif" font-size="11.00" fill="#000000">CREATED_BY</text>
<polygon fill="none" stroke="#000000" points="691,-239.7 691,-261.7 862,-261.7 862,-239.7 691,-239.7"/>
<text text-anchor="start" x="694" y="-247.4" font-family="Helvetica,sans-Serif" font-size="11.00" fill="#000000">number[19]</text>
<polygon fill="none" stroke="#000000" points="386,-217.7 386,-239.7 691,-239.7 691,-217.7 386,-217.7"/>
<text text-anchor="start" x="406" y="-224.8" font-family="Helvetica,sans-Serif" font-size="11.00" fill="#000000">UPDATED_AT</text>
<polygon fill="none" stroke="#000000" points="691,-217.7 691,-239.7 862,-239.7 862,-217.7 691,-217.7"/>
<text text-anchor="start" x="693.9896" y="-225.4" font-family="Helvetica,sans-Serif" font-size="11.00" fill="#000000">timestamp(6) with time zone[13,6]</text>
<polygon fill="none" stroke="#000000" points="386,-195.7 386,-217.7 691,-217.7 691,-195.7 386,-195.7"/>
<text text-anchor="start" x="406" y="-202.8" font-family="Helvetica,sans-Serif" font-size="11.00" fill="#000000">UPDATED_BY</text>
<polygon fill="none" stroke="#000000" points="691,-195.7 691,-217.7 862,-217.7 862,-195.7 691,-195.7"/>
<text text-anchor="start" x="694" y="-203.4" font-family="Helvetica,sans-Serif" font-size="11.00" fill="#000000">number[19]</text>
<polygon fill="none" stroke="#000000" points="386,-173.7 386,-195.7 691,-195.7 691,-173.7 386,-173.7"/>
<image xlink:href="../../images/foreignKeys.png" width="11px" height="12px" preserveAspectRatio="xMinYMin meet" x="391" y="-190.7"/>
<text text-anchor="start" x="406" y="-180.8" font-family="Helvetica,sans-Serif" font-size="11.00" fill="#000000">CLONE_FORM_ID</text>
<polygon fill="none" stroke="#000000" points="691,-173.7 691,-195.7 862,-195.7 862,-173.7 691,-173.7"/>
<text text-anchor="start" x="694" y="-181.4" font-family="Helvetica,sans-Serif" font-size="11.00" fill="#000000">number[19]</text>
<polygon fill="none" stroke="#000000" points="386,-151.7 386,-173.7 691,-173.7 691,-151.7 386,-151.7"/>
<image xlink:href="../../images/foreignKeys.png" width="11px" height="12px" preserveAspectRatio="xMinYMin meet" x="391" y="-168.7"/>
<text text-anchor="start" x="406" y="-158.8" font-family="Helvetica,sans-Serif" font-size="11.00" fill="#000000">PROTEIN_CLEAVAGE_SITE_ID</text>
<polygon fill="none" stroke="#000000" points="691,-151.7 691,-173.7 862,-173.7 862,-151.7 691,-151.7"/>
<text text-anchor="start" x="694" y="-159.4" font-family="Helvetica,sans-Serif" font-size="11.00" fill="#000000">number[19]</text>
<polygon fill="none" stroke="#000000" points="386,-129.7 386,-151.7 691,-151.7 691,-129.7 386,-129.7"/>
<text text-anchor="start" x="406" y="-136.8" font-family="Helvetica,sans-Serif" font-size="11.00" fill="#000000">CARTOON_ORDER</text>
<polygon fill="none" stroke="#000000" points="691,-129.7 691,-151.7 862,-151.7 862,-129.7 691,-129.7"/>
<text text-anchor="start" x="694" y="-137.4" font-family="Helvetica,sans-Serif" font-size="11.00" fill="#000000">number[2]</text>
<polygon fill="#ffffff" stroke="transparent" points="386,-110.7 386,-129.7 527,-129.7 527,-110.7 386,-110.7"/>
<polygon fill="none" stroke="#000000" points="386,-110.7 386,-129.7 527,-129.7 527,-110.7 386,-110.7"/>
<text text-anchor="start" x="389" y="-116.8" font-family="Helvetica,sans-Serif" font-size="11.00" fill="#000000">&lt; 2</text>
<polygon fill="#ffffff" stroke="transparent" points="527,-110.7 527,-129.7 691,-129.7 691,-110.7 527,-110.7"/>
<polygon fill="none" stroke="#000000" points="527,-110.7 527,-129.7 691,-129.7 691,-110.7 527,-110.7"/>
<text text-anchor="start" x="649.4956" y="-116.8" font-family="Helvetica,sans-Serif" font-size="11.00" fill="#000000">62 rows</text>
<polygon fill="#ffffff" stroke="transparent" points="691,-110.7 691,-129.7 862,-129.7 862,-110.7 691,-110.7"/>
<polygon fill="none" stroke="#000000" points="691,-110.7 691,-129.7 862,-129.7 862,-110.7 691,-110.7"/>
<text text-anchor="start" x="843.4053" y="-116.8" font-family="Helvetica,sans-Serif" font-size="11.00" fill="#000000">0 &gt;</text>
<polygon fill="none" stroke="#000000" stroke-width="2" points="385,-109.7 385,-329.7 863,-329.7 863,-109.7 385,-109.7"/>
</a>
</g>
</g>
<!-- CLONE_FORMS -->
<g id="node2" class="node">
<title>CLONE_FORMS</title>
<g id="a_node2"><a xlink:href="../../tables/CLONE_FORMS.html" xlink:title="CLONE_FORMS" target="_top">
<polygon fill="#ffffff" stroke="transparent" points="21,-120.2 21,-313.2 322,-313.2 322,-120.2 21,-120.2"/>
<polygon fill="#f5f5f5" stroke="transparent" points="21.5,-289.7 21.5,-312.7 322.5,-312.7 322.5,-289.7 21.5,-289.7"/>
<polygon fill="none" stroke="#000000" points="21.5,-289.7 21.5,-312.7 322.5,-312.7 322.5,-289.7 21.5,-289.7"/>
<text text-anchor="start" x="26.5" y="-298.8" font-family="Helvetica,sans-Serif" font-weight="bold" font-size="11.00" fill="#000000">CLONE_FORMS</text>
<text text-anchor="start" x="287.5437" y="-297.8" font-family="Helvetica,sans-Serif" font-size="11.00" fill="#000000">[table]</text>
<polygon fill="none" stroke="#000000" points="21.5,-267.7 21.5,-289.7 322.5,-289.7 322.5,-267.7 21.5,-267.7"/>
<image xlink:href="../../images/primaryKeys.png" width="11px" height="12px" preserveAspectRatio="xMinYMin meet" x="26.5" y="-284.7"/>
<text text-anchor="start" x="41.5" y="-274.8" font-family="Helvetica,sans-Serif" font-size="11.00" fill="#000000">ID</text>
<polygon fill="none" stroke="#000000" points="21.5,-245.7 21.5,-267.7 322.5,-267.7 322.5,-245.7 21.5,-245.7"/>
<image xlink:href="../../images/foreignKeys.png" width="11px" height="12px" preserveAspectRatio="xMinYMin meet" x="26.5" y="-262.7"/>
<text text-anchor="start" x="41.5" y="-252.8" font-family="Helvetica,sans-Serif" font-size="11.00" fill="#000000">ISOFORM_ID</text>
<polygon fill="none" stroke="#000000" points="21.5,-223.7 21.5,-245.7 322.5,-245.7 322.5,-223.7 21.5,-223.7"/>
<image xlink:href="../../images/primaryKeys.png" width="11px" height="12px" preserveAspectRatio="xMinYMin meet" x="26.5" y="-240.7"/>
<text text-anchor="start" x="41.5" y="-230.8" font-family="Helvetica,sans-Serif" font-size="11.00" fill="#000000">NAME</text>
<polygon fill="none" stroke="#000000" points="21.5,-201.7 21.5,-223.7 322.5,-223.7 322.5,-201.7 21.5,-201.7"/>
<image xlink:href="../../images/foreignKeys.png" width="11px" height="12px" preserveAspectRatio="xMinYMin meet" x="26.5" y="-218.7"/>
<text text-anchor="start" x="41.5" y="-208.8" font-family="Helvetica,sans-Serif" font-size="11.00" fill="#000000">TARGET_FORM_ID</text>
<polygon fill="none" stroke="#000000" points="21.5,-179.7 21.5,-201.7 322.5,-201.7 322.5,-179.7 21.5,-179.7"/>
<image xlink:href="../../images/foreignKeys.png" width="11px" height="12px" preserveAspectRatio="xMinYMin meet" x="26.5" y="-196.7"/>
<text text-anchor="start" x="41.5" y="-186.8" font-family="Helvetica,sans-Serif" font-size="11.00" fill="#000000">POST_TRANSLATIONAL_MODIFICATION_ID</text>
<polygon fill="none" stroke="#000000" points="21.5,-157.7 21.5,-179.7 322.5,-179.7 322.5,-157.7 21.5,-157.7"/>
<image xlink:href="../../images/foreignKeys.png" width="11px" height="12px" preserveAspectRatio="xMinYMin meet" x="26.5" y="-174.7"/>
<text text-anchor="start" x="41.5" y="-164.8" font-family="Helvetica,sans-Serif" font-size="11.00" fill="#000000">SPECIES_ID</text>
<polygon fill="none" stroke="#000000" points="21.5,-138.7 21.5,-157.7 322.5,-157.7 322.5,-138.7 21.5,-138.7"/>
<text text-anchor="start" x="24.5" y="-144.8" font-family="Helvetica,sans-Serif" font-size="11.00" fill="#000000">...</text>
<polygon fill="#ffffff" stroke="transparent" points="21.5,-119.7 21.5,-138.7 143.5,-138.7 143.5,-119.7 21.5,-119.7"/>
<polygon fill="none" stroke="#000000" points="21.5,-119.7 21.5,-138.7 143.5,-138.7 143.5,-119.7 21.5,-119.7"/>
<text text-anchor="start" x="24.5" y="-125.8" font-family="Helvetica,sans-Serif" font-size="11.00" fill="#000000">&lt; 4</text>
<polygon fill="#ffffff" stroke="transparent" points="143.5,-119.7 143.5,-138.7 244.5,-138.7 244.5,-119.7 143.5,-119.7"/>
<polygon fill="none" stroke="#000000" points="143.5,-119.7 143.5,-138.7 244.5,-138.7 244.5,-119.7 143.5,-119.7"/>
<text text-anchor="start" x="196.8807" y="-125.8" font-family="Helvetica,sans-Serif" font-size="11.00" fill="#000000">467 rows</text>
<polygon fill="#ffffff" stroke="transparent" points="244.5,-119.7 244.5,-138.7 322.5,-138.7 322.5,-119.7 244.5,-119.7"/>
<polygon fill="none" stroke="#000000" points="244.5,-119.7 244.5,-138.7 322.5,-138.7 322.5,-119.7 244.5,-119.7"/>
<text text-anchor="start" x="297.7904" y="-125.8" font-family="Helvetica,sans-Serif" font-size="11.00" fill="#000000">14 &gt;</text>
</a>
</g>
</g>
<!-- CLONE_FORMS_PROTEIN_CLEAVAGE_SITES&#45;&gt;CLONE_FORMS -->
<g id="edge1" class="edge">
<title>CLONE_FORMS_PROTEIN_CLEAVAGE_SITES:w&#45;&gt;CLONE_FORMS:e</title>
<path fill="none" stroke="#000000" d="M371.9892,-188.0455C342.9154,-204.7906 367.2057,-278.7 322.5,-278.7"/>
<polygon fill="#000000" stroke="#000000" points="378.2188,-186.5581 386.8361,-188.2016 382.1094,-185.629 386,-184.7 386,-184.7 386,-184.7 382.1094,-185.629 385.1639,-181.1984 378.2188,-186.5581 378.2188,-186.5581"/>
<ellipse fill="none" stroke="#000000" cx="375.1063" cy="-187.3013" rx="3.2" ry="3.2"/>
</g>
<!-- PROTEIN_PRODUCTION.PROTEIN_CLEAVAGE_SITES -->
<g id="node3" class="node">
<title>PROTEIN_PRODUCTION.PROTEIN_CLEAVAGE_SITES</title>
<g id="a_node3"><a xlink:title="PROTEIN_PRODUCTION.PROTEIN_CLEAVAGE_SITES">
<polygon fill="#ffffff" stroke="transparent" points="8,-38.2 8,-99.2 335,-99.2 335,-38.2 8,-38.2"/>
<polygon fill="#f5f5f5" stroke="transparent" points="8.5,-75.7 8.5,-98.7 335.5,-98.7 335.5,-75.7 8.5,-75.7"/>
<polygon fill="none" stroke="#000000" points="8.5,-75.7 8.5,-98.7 335.5,-98.7 335.5,-75.7 8.5,-75.7"/>
<text text-anchor="start" x="13.408" y="-84.8" font-family="Helvetica,sans-Serif" font-weight="bold" font-size="11.00" fill="#000000">PROTEIN_PRODUCTION.PROTEIN_CLEAVAGE_SITES</text>
<text text-anchor="start" x="301.0219" y="-83.8" font-family="Helvetica,sans-Serif" font-size="11.00" fill="#000000">[table]</text>
<polygon fill="none" stroke="#000000" points="8.5,-56.7 8.5,-75.7 335.5,-75.7 335.5,-56.7 8.5,-56.7"/>
<text text-anchor="start" x="11.5" y="-62.8" font-family="Helvetica,sans-Serif" font-size="11.00" fill="#000000">...</text>
<polygon fill="#ffffff" stroke="transparent" points="8.5,-37.7 8.5,-56.7 148.5,-56.7 148.5,-37.7 8.5,-37.7"/>
<polygon fill="none" stroke="#000000" points="8.5,-37.7 8.5,-56.7 148.5,-56.7 148.5,-37.7 8.5,-37.7"/>
<text text-anchor="start" x="11.5" y="-43.8" font-family="Helvetica,sans-Serif" font-size="11.00" fill="#000000"> &#160;</text>
<polygon fill="#ffffff" stroke="transparent" points="148.5,-37.7 148.5,-56.7 250.5,-56.7 250.5,-37.7 148.5,-37.7"/>
<polygon fill="none" stroke="#000000" points="148.5,-37.7 148.5,-56.7 250.5,-56.7 250.5,-37.7 148.5,-37.7"/>
<text text-anchor="start" x="215.1105" y="-43.8" font-family="Helvetica,sans-Serif" font-size="11.00" fill="#000000">0 rows</text>
<polygon fill="#ffffff" stroke="transparent" points="250.5,-37.7 250.5,-56.7 335.5,-56.7 335.5,-37.7 250.5,-37.7"/>
<polygon fill="none" stroke="#000000" points="250.5,-37.7 250.5,-56.7 335.5,-56.7 335.5,-37.7 250.5,-37.7"/>
<text text-anchor="start" x="316.9053" y="-43.8" font-family="Helvetica,sans-Serif" font-size="11.00" fill="#000000">2 &gt;</text>
</a>
</g>
</g>
<!-- CLONE_FORMS_PROTEIN_CLEAVAGE_SITES&#45;&gt;PROTEIN_PRODUCTION.PROTEIN_CLEAVAGE_SITES -->
<g id="edge2" class="edge">
<title>CLONE_FORMS_PROTEIN_CLEAVAGE_SITES:w&#45;&gt;PROTEIN_PRODUCTION.PROTEIN_CLEAVAGE_SITES:e</title>
<path fill="none" stroke="#000000" d="M371.8197,-158.3225C359.4314,-148.0789 363.2543,-122.4528 343,-109.7 339.3732,-107.4164 335.6301,-105.26 331.7944,-103.2236"/>
<polygon fill="#000000" stroke="#000000" points="378.3559,-160.3402 384.9381,-166.1398 382.178,-161.5201 386,-162.7 386,-162.7 386,-162.7 382.178,-161.5201 387.0619,-159.2602 378.3559,-160.3402 378.3559,-160.3402"/>
<ellipse fill="none" stroke="#000000" cx="375.2983" cy="-159.3963" rx="3.2" ry="3.2"/>
</g>
</g>
</svg>
