<?xml version="1.0" encoding="UTF-8" standalone="no"?>
<!DOCTYPE svg PUBLIC "-//W3C//DTD SVG 1.1//EN"
 "http://www.w3.org/Graphics/SVG/1.1/DTD/svg11.dtd">
<!-- Generated by graphviz version 2.40.1 (20161225.0304)
 -->
<!-- Title: oneDegreeRelationshipsDiagram Pages: 1 -->
<svg width="756pt" height="363pt"
 viewBox="0.00 0.00 756.00 362.70" xmlns="http://www.w3.org/2000/svg" xmlns:xlink="http://www.w3.org/1999/xlink">
<g id="graph0" class="graph" transform="scale(1 1) rotate(0) translate(4 358.7)">
<title>oneDegreeRelationshipsDiagram</title>
<polygon fill="#ffffff" stroke="transparent" points="-4,4 -4,-358.7 752,-358.7 752,4 -4,4"/>
<text text-anchor="middle" x="72.4936" y="-7.3" font-family="Helvetica,sans-Serif" font-size="11.00" fill="#000000">Generated by SchemaSpy</text>
<!-- CLONE_FORMS_COFACTORS -->
<g id="node1" class="node">
<title>CLONE_FORMS_COFACTORS</title>
<g id="a_node1"><a xlink:href="../../tables/CLONE_FORMS_COFACTORS.html" xlink:title="CLONE_FORMS_COFACTORS" target="_top">
<polygon fill="#ffffff" stroke="transparent" points="358,-150.7 358,-350.7 740,-350.7 740,-150.7 358,-150.7"/>
<polygon fill="#f5f5f5" stroke="transparent" points="360,-325.7 360,-348.7 738,-348.7 738,-325.7 360,-325.7"/>
<polygon fill="none" stroke="#000000" points="360,-325.7 360,-348.7 738,-348.7 738,-325.7 360,-325.7"/>
<text text-anchor="start" x="365" y="-334.8" font-family="Helvetica,sans-Serif" font-weight="bold" font-size="11.00" fill="#000000">CLONE_FORMS_COFACTORS</text>
<text text-anchor="start" x="703.0437" y="-333.8" font-family="Helvetica,sans-Serif" font-size="11.00" fill="#000000">[table]</text>
<polygon fill="none" stroke="#000000" points="360,-303.7 360,-325.7 567,-325.7 567,-303.7 360,-303.7"/>
<image xlink:href="../../images/primaryKeys.png" width="11px" height="12px" preserveAspectRatio="xMinYMin meet" x="365" y="-320.7"/>
<text text-anchor="start" x="380" y="-310.8" font-family="Helvetica,sans-Serif" font-size="11.00" fill="#000000">ID</text>
<polygon fill="none" stroke="#000000" points="567,-303.7 567,-325.7 738,-325.7 738,-303.7 567,-303.7"/>
<text text-anchor="start" x="570" y="-311.4" font-family="Helvetica,sans-Serif" font-size="11.00" fill="#000000">number[19]</text>
<polygon fill="none" stroke="#000000" points="360,-281.7 360,-303.7 567,-303.7 567,-281.7 360,-281.7"/>
<text text-anchor="start" x="380" y="-288.8" font-family="Helvetica,sans-Serif" font-size="11.00" fill="#000000">CREATED_AT</text>
<polygon fill="none" stroke="#000000" points="567,-281.7 567,-303.7 738,-303.7 738,-281.7 567,-281.7"/>
<text text-anchor="start" x="569.9896" y="-289.4" font-family="Helvetica,sans-Serif" font-size="11.00" fill="#000000">timestamp(6) with time zone[13,6]</text>
<polygon fill="none" stroke="#000000" points="360,-259.7 360,-281.7 567,-281.7 567,-259.7 360,-259.7"/>
<text text-anchor="start" x="380" y="-266.8" font-family="Helvetica,sans-Serif" font-size="11.00" fill="#000000">CREATED_BY</text>
<polygon fill="none" stroke="#000000" points="567,-259.7 567,-281.7 738,-281.7 738,-259.7 567,-259.7"/>
<text text-anchor="start" x="570" y="-267.4" font-family="Helvetica,sans-Serif" font-size="11.00" fill="#000000">number[19]</text>
<polygon fill="none" stroke="#000000" points="360,-237.7 360,-259.7 567,-259.7 567,-237.7 360,-237.7"/>
<text text-anchor="start" x="380" y="-244.8" font-family="Helvetica,sans-Serif" font-size="11.00" fill="#000000">UPDATED_AT</text>
<polygon fill="none" stroke="#000000" points="567,-237.7 567,-259.7 738,-259.7 738,-237.7 567,-237.7"/>
<text text-anchor="start" x="569.9896" y="-245.4" font-family="Helvetica,sans-Serif" font-size="11.00" fill="#000000">timestamp(6) with time zone[13,6]</text>
<polygon fill="none" stroke="#000000" points="360,-215.7 360,-237.7 567,-237.7 567,-215.7 360,-215.7"/>
<text text-anchor="start" x="380" y="-222.8" font-family="Helvetica,sans-Serif" font-size="11.00" fill="#000000">UPDATED_BY</text>
<polygon fill="none" stroke="#000000" points="567,-215.7 567,-237.7 738,-237.7 738,-215.7 567,-215.7"/>
<text text-anchor="start" x="570" y="-223.4" font-family="Helvetica,sans-Serif" font-size="11.00" fill="#000000">number[19]</text>
<polygon fill="none" stroke="#000000" points="360,-193.7 360,-215.7 567,-215.7 567,-193.7 360,-193.7"/>
<image xlink:href="../../images/foreignKeys.png" width="11px" height="12px" preserveAspectRatio="xMinYMin meet" x="365" y="-210.7"/>
<text text-anchor="start" x="380" y="-200.8" font-family="Helvetica,sans-Serif" font-size="11.00" fill="#000000">CLONE_FORM_ID</text>
<polygon fill="none" stroke="#000000" points="567,-193.7 567,-215.7 738,-215.7 738,-193.7 567,-193.7"/>
<text text-anchor="start" x="570" y="-201.4" font-family="Helvetica,sans-Serif" font-size="11.00" fill="#000000">number[19]</text>
<polygon fill="none" stroke="#000000" points="360,-171.7 360,-193.7 567,-193.7 567,-171.7 360,-171.7"/>
<image xlink:href="../../images/foreignKeys.png" width="11px" height="12px" preserveAspectRatio="xMinYMin meet" x="365" y="-188.7"/>
<text text-anchor="start" x="380" y="-178.8" font-family="Helvetica,sans-Serif" font-size="11.00" fill="#000000">COFACTOR_ID</text>
<polygon fill="none" stroke="#000000" points="567,-171.7 567,-193.7 738,-193.7 738,-171.7 567,-171.7"/>
<text text-anchor="start" x="570" y="-179.4" font-family="Helvetica,sans-Serif" font-size="11.00" fill="#000000">number[19]</text>
<polygon fill="#ffffff" stroke="transparent" points="360,-152.7 360,-171.7 455,-171.7 455,-152.7 360,-152.7"/>
<polygon fill="none" stroke="#000000" points="360,-152.7 360,-171.7 455,-171.7 455,-152.7 360,-152.7"/>
<text text-anchor="start" x="363" y="-158.8" font-family="Helvetica,sans-Serif" font-size="11.00" fill="#000000">&lt; 2</text>
<polygon fill="#ffffff" stroke="transparent" points="455,-152.7 455,-171.7 567,-171.7 567,-152.7 455,-152.7"/>
<polygon fill="none" stroke="#000000" points="455,-152.7 455,-171.7 567,-171.7 567,-152.7 455,-152.7"/>
<text text-anchor="start" x="531.6105" y="-158.8" font-family="Helvetica,sans-Serif" font-size="11.00" fill="#000000">0 rows</text>
<polygon fill="#ffffff" stroke="transparent" points="567,-152.7 567,-171.7 738,-171.7 738,-152.7 567,-152.7"/>
<polygon fill="none" stroke="#000000" points="567,-152.7 567,-171.7 738,-171.7 738,-152.7 567,-152.7"/>
<text text-anchor="start" x="719.4053" y="-158.8" font-family="Helvetica,sans-Serif" font-size="11.00" fill="#000000">0 &gt;</text>
<polygon fill="none" stroke="#000000" stroke-width="2" points="359,-151.7 359,-349.7 739,-349.7 739,-151.7 359,-151.7"/>
</a>
</g>
</g>
<!-- CLONE_FORMS -->
<g id="node2" class="node">
<title>CLONE_FORMS</title>
<g id="a_node2"><a xlink:href="../../tables/CLONE_FORMS.html" xlink:title="CLONE_FORMS" target="_top">
<polygon fill="#ffffff" stroke="transparent" points="8,-142.2 8,-335.2 309,-335.2 309,-142.2 8,-142.2"/>
<polygon fill="#f5f5f5" stroke="transparent" points="8.5,-311.7 8.5,-334.7 309.5,-334.7 309.5,-311.7 8.5,-311.7"/>
<polygon fill="none" stroke="#000000" points="8.5,-311.7 8.5,-334.7 309.5,-334.7 309.5,-311.7 8.5,-311.7"/>
<text text-anchor="start" x="13.5" y="-320.8" font-family="Helvetica,sans-Serif" font-weight="bold" font-size="11.00" fill="#000000">CLONE_FORMS</text>
<text text-anchor="start" x="274.5437" y="-319.8" font-family="Helvetica,sans-Serif" font-size="11.00" fill="#000000">[table]</text>
<polygon fill="none" stroke="#000000" points="8.5,-289.7 8.5,-311.7 309.5,-311.7 309.5,-289.7 8.5,-289.7"/>
<image xlink:href="../../images/primaryKeys.png" width="11px" height="12px" preserveAspectRatio="xMinYMin meet" x="13.5" y="-306.7"/>
<text text-anchor="start" x="28.5" y="-296.8" font-family="Helvetica,sans-Serif" font-size="11.00" fill="#000000">ID</text>
<polygon fill="none" stroke="#000000" points="8.5,-267.7 8.5,-289.7 309.5,-289.7 309.5,-267.7 8.5,-267.7"/>
<image xlink:href="../../images/foreignKeys.png" width="11px" height="12px" preserveAspectRatio="xMinYMin meet" x="13.5" y="-284.7"/>
<text text-anchor="start" x="28.5" y="-274.8" font-family="Helvetica,sans-Serif" font-size="11.00" fill="#000000">ISOFORM_ID</text>
<polygon fill="none" stroke="#000000" points="8.5,-245.7 8.5,-267.7 309.5,-267.7 309.5,-245.7 8.5,-245.7"/>
<image xlink:href="../../images/primaryKeys.png" width="11px" height="12px" preserveAspectRatio="xMinYMin meet" x="13.5" y="-262.7"/>
<text text-anchor="start" x="28.5" y="-252.8" font-family="Helvetica,sans-Serif" font-size="11.00" fill="#000000">NAME</text>
<polygon fill="none" stroke="#000000" points="8.5,-223.7 8.5,-245.7 309.5,-245.7 309.5,-223.7 8.5,-223.7"/>
<image xlink:href="../../images/foreignKeys.png" width="11px" height="12px" preserveAspectRatio="xMinYMin meet" x="13.5" y="-240.7"/>
<text text-anchor="start" x="28.5" y="-230.8" font-family="Helvetica,sans-Serif" font-size="11.00" fill="#000000">TARGET_FORM_ID</text>
<polygon fill="none" stroke="#000000" points="8.5,-201.7 8.5,-223.7 309.5,-223.7 309.5,-201.7 8.5,-201.7"/>
<image xlink:href="../../images/foreignKeys.png" width="11px" height="12px" preserveAspectRatio="xMinYMin meet" x="13.5" y="-218.7"/>
<text text-anchor="start" x="28.5" y="-208.8" font-family="Helvetica,sans-Serif" font-size="11.00" fill="#000000">POST_TRANSLATIONAL_MODIFICATION_ID</text>
<polygon fill="none" stroke="#000000" points="8.5,-179.7 8.5,-201.7 309.5,-201.7 309.5,-179.7 8.5,-179.7"/>
<image xlink:href="../../images/foreignKeys.png" width="11px" height="12px" preserveAspectRatio="xMinYMin meet" x="13.5" y="-196.7"/>
<text text-anchor="start" x="28.5" y="-186.8" font-family="Helvetica,sans-Serif" font-size="11.00" fill="#000000">SPECIES_ID</text>
<polygon fill="none" stroke="#000000" points="8.5,-160.7 8.5,-179.7 309.5,-179.7 309.5,-160.7 8.5,-160.7"/>
<text text-anchor="start" x="11.5" y="-166.8" font-family="Helvetica,sans-Serif" font-size="11.00" fill="#000000">...</text>
<polygon fill="#ffffff" stroke="transparent" points="8.5,-141.7 8.5,-160.7 130.5,-160.7 130.5,-141.7 8.5,-141.7"/>
<polygon fill="none" stroke="#000000" points="8.5,-141.7 8.5,-160.7 130.5,-160.7 130.5,-141.7 8.5,-141.7"/>
<text text-anchor="start" x="11.5" y="-147.8" font-family="Helvetica,sans-Serif" font-size="11.00" fill="#000000">&lt; 4</text>
<polygon fill="#ffffff" stroke="transparent" points="130.5,-141.7 130.5,-160.7 231.5,-160.7 231.5,-141.7 130.5,-141.7"/>
<polygon fill="none" stroke="#000000" points="130.5,-141.7 130.5,-160.7 231.5,-160.7 231.5,-141.7 130.5,-141.7"/>
<text text-anchor="start" x="183.8807" y="-147.8" font-family="Helvetica,sans-Serif" font-size="11.00" fill="#000000">467 rows</text>
<polygon fill="#ffffff" stroke="transparent" points="231.5,-141.7 231.5,-160.7 309.5,-160.7 309.5,-141.7 231.5,-141.7"/>
<polygon fill="none" stroke="#000000" points="231.5,-141.7 231.5,-160.7 309.5,-160.7 309.5,-141.7 231.5,-141.7"/>
<text text-anchor="start" x="284.7904" y="-147.8" font-family="Helvetica,sans-Serif" font-size="11.00" fill="#000000">14 &gt;</text>
</a>
</g>
</g>
<!-- CLONE_FORMS_COFACTORS&#45;&gt;CLONE_FORMS -->
<g id="edge1" class="edge">
<title>CLONE_FORMS_COFACTORS:w&#45;&gt;CLONE_FORMS:e</title>
<path fill="none" stroke="#000000" d="M345.9659,-208.825C321.7993,-227.2 351.6837,-300.7 309.5,-300.7"/>
<polygon fill="#000000" stroke="#000000" points="352.3247,-206.956 361.0152,-208.1539 356.1623,-205.828 360,-204.7 360,-204.7 360,-204.7 356.1623,-205.828 358.9848,-201.2461 352.3247,-206.956 352.3247,-206.956"/>
<ellipse fill="none" stroke="#000000" cx="349.2545" cy="-207.8584" rx="3.2" ry="3.2"/>
</g>
<!-- COFACTORS -->
<g id="node3" class="node">
<title>COFACTORS</title>
<g id="a_node3"><a xlink:href="../../tables/COFACTORS.html" xlink:title="COFACTORS" target="_top">
<polygon fill="#ffffff" stroke="transparent" points="98,-38.2 98,-121.2 219,-121.2 219,-38.2 98,-38.2"/>
<polygon fill="#f5f5f5" stroke="transparent" points="98.5,-97.7 98.5,-120.7 219.5,-120.7 219.5,-97.7 98.5,-97.7"/>
<polygon fill="none" stroke="#000000" points="98.5,-97.7 98.5,-120.7 219.5,-120.7 219.5,-97.7 98.5,-97.7"/>
<text text-anchor="start" x="103.5" y="-106.8" font-family="Helvetica,sans-Serif" font-weight="bold" font-size="11.00" fill="#000000">COFACTORS</text>
<text text-anchor="start" x="184.5437" y="-105.8" font-family="Helvetica,sans-Serif" font-size="11.00" fill="#000000">[table]</text>
<polygon fill="none" stroke="#000000" points="98.5,-75.7 98.5,-97.7 219.5,-97.7 219.5,-75.7 98.5,-75.7"/>
<image xlink:href="../../images/primaryKeys.png" width="11px" height="12px" preserveAspectRatio="xMinYMin meet" x="103.5" y="-92.7"/>
<text text-anchor="start" x="118.5" y="-82.8" font-family="Helvetica,sans-Serif" font-size="11.00" fill="#000000">ID</text>
<polygon fill="none" stroke="#000000" points="98.5,-56.7 98.5,-75.7 219.5,-75.7 219.5,-56.7 98.5,-56.7"/>
<text text-anchor="start" x="101.5" y="-62.8" font-family="Helvetica,sans-Serif" font-size="11.00" fill="#000000">...</text>
<polygon fill="#ffffff" stroke="transparent" points="98.5,-37.7 98.5,-56.7 135.5,-56.7 135.5,-37.7 98.5,-37.7"/>
<polygon fill="none" stroke="#000000" points="98.5,-37.7 98.5,-56.7 135.5,-56.7 135.5,-37.7 98.5,-37.7"/>
<text text-anchor="start" x="101.5" y="-43.8" font-family="Helvetica,sans-Serif" font-size="11.00" fill="#000000"> &#160;</text>
<polygon fill="#ffffff" stroke="transparent" points="135.5,-37.7 135.5,-56.7 185.5,-56.7 185.5,-37.7 135.5,-37.7"/>
<polygon fill="none" stroke="#000000" points="135.5,-37.7 135.5,-56.7 185.5,-56.7 185.5,-37.7 135.5,-37.7"/>
<text text-anchor="start" x="150.1105" y="-43.8" font-family="Helvetica,sans-Serif" font-size="11.00" fill="#000000">0 rows</text>
<polygon fill="#ffffff" stroke="transparent" points="185.5,-37.7 185.5,-56.7 219.5,-56.7 219.5,-37.7 185.5,-37.7"/>
<polygon fill="none" stroke="#000000" points="185.5,-37.7 185.5,-56.7 219.5,-56.7 219.5,-37.7 185.5,-37.7"/>
<text text-anchor="start" x="200.9053" y="-43.8" font-family="Helvetica,sans-Serif" font-size="11.00" fill="#000000">1 &gt;</text>
</a>
</g>
</g>
<!-- CLONE_FORMS_COFACTORS&#45;&gt;COFACTORS -->
<g id="edge2" class="edge">
<title>CLONE_FORMS_COFACTORS:w&#45;&gt;COFACTORS:e</title>
<path fill="none" stroke="#000000" d="M345.8694,-178.7429C333.1619,-169.4371 335.6046,-145.8831 317,-131.7 279.0452,-102.7654 267.2261,-86.7 219.5,-86.7"/>
<polygon fill="#000000" stroke="#000000" points="352.2964,-180.5426 359.0292,-186.1666 356.1482,-181.6213 360,-182.7 360,-182.7 360,-182.7 356.1482,-181.6213 360.9708,-179.2334 352.2964,-180.5426 352.2964,-180.5426"/>
<ellipse fill="none" stroke="#000000" cx="349.2149" cy="-179.6797" rx="3.2" ry="3.2"/>
</g>
</g>
</svg>
