<?xml version="1.0" encoding="UTF-8" standalone="no"?>
<!DOCTYPE svg PUBLIC "-//W3C//DTD SVG 1.1//EN"
 "http://www.w3.org/Graphics/SVG/1.1/DTD/svg11.dtd">
<!-- Generated by graphviz version 2.40.1 (20161225.0304)
 -->
<!-- Title: oneDegreeRelationshipsDiagram Pages: 1 -->
<svg width="804pt" height="385pt"
 viewBox="0.00 0.00 804.00 384.70" xmlns="http://www.w3.org/2000/svg" xmlns:xlink="http://www.w3.org/1999/xlink">
<g id="graph0" class="graph" transform="scale(1 1) rotate(0) translate(4 380.7)">
<title>oneDegreeRelationshipsDiagram</title>
<polygon fill="#ffffff" stroke="transparent" points="-4,4 -4,-380.7 800,-380.7 800,4 -4,4"/>
<text text-anchor="middle" x="72.4936" y="-7.3" font-family="Helvetica,sans-Serif" font-size="11.00" fill="#000000">Generated by SchemaSpy</text>
<!-- CLONE_FORMS_ISOFORM_REGIONS -->
<g id="node1" class="node">
<title>CLONE_FORMS_ISOFORM_REGIONS</title>
<g id="a_node1"><a xlink:href="../../tables/CLONE_FORMS_ISOFORM_REGIONS.html" xlink:title="CLONE_FORMS_ISOFORM_REGIONS" target="_top">
<polygon fill="#ffffff" stroke="transparent" points="358,-150.7 358,-372.7 788,-372.7 788,-150.7 358,-150.7"/>
<polygon fill="#f5f5f5" stroke="transparent" points="360,-347.7 360,-370.7 786,-370.7 786,-347.7 360,-347.7"/>
<polygon fill="none" stroke="#000000" points="360,-347.7 360,-370.7 786,-370.7 786,-347.7 360,-347.7"/>
<text text-anchor="start" x="365" y="-356.8" font-family="Helvetica,sans-Serif" font-weight="bold" font-size="11.00" fill="#000000">CLONE_FORMS_ISOFORM_REGIONS</text>
<text text-anchor="start" x="751.0437" y="-355.8" font-family="Helvetica,sans-Serif" font-size="11.00" fill="#000000">[table]</text>
<polygon fill="none" stroke="#000000" points="360,-325.7 360,-347.7 615,-347.7 615,-325.7 360,-325.7"/>
<image xlink:href="../../images/primaryKeys.png" width="11px" height="12px" preserveAspectRatio="xMinYMin meet" x="365" y="-342.7"/>
<text text-anchor="start" x="380" y="-332.8" font-family="Helvetica,sans-Serif" font-size="11.00" fill="#000000">ID</text>
<polygon fill="none" stroke="#000000" points="615,-325.7 615,-347.7 786,-347.7 786,-325.7 615,-325.7"/>
<text text-anchor="start" x="618" y="-333.4" font-family="Helvetica,sans-Serif" font-size="11.00" fill="#000000">number[19]</text>
<polygon fill="none" stroke="#000000" points="360,-303.7 360,-325.7 615,-325.7 615,-303.7 360,-303.7"/>
<text text-anchor="start" x="380" y="-310.8" font-family="Helvetica,sans-Serif" font-size="11.00" fill="#000000">CREATED_AT</text>
<polygon fill="none" stroke="#000000" points="615,-303.7 615,-325.7 786,-325.7 786,-303.7 615,-303.7"/>
<text text-anchor="start" x="617.9896" y="-311.4" font-family="Helvetica,sans-Serif" font-size="11.00" fill="#000000">timestamp(6) with time zone[13,6]</text>
<polygon fill="none" stroke="#000000" points="360,-281.7 360,-303.7 615,-303.7 615,-281.7 360,-281.7"/>
<text text-anchor="start" x="380" y="-288.8" font-family="Helvetica,sans-Serif" font-size="11.00" fill="#000000">CREATED_BY</text>
<polygon fill="none" stroke="#000000" points="615,-281.7 615,-303.7 786,-303.7 786,-281.7 615,-281.7"/>
<text text-anchor="start" x="618" y="-289.4" font-family="Helvetica,sans-Serif" font-size="11.00" fill="#000000">number[19]</text>
<polygon fill="none" stroke="#000000" points="360,-259.7 360,-281.7 615,-281.7 615,-259.7 360,-259.7"/>
<text text-anchor="start" x="380" y="-266.8" font-family="Helvetica,sans-Serif" font-size="11.00" fill="#000000">UPDATED_AT</text>
<polygon fill="none" stroke="#000000" points="615,-259.7 615,-281.7 786,-281.7 786,-259.7 615,-259.7"/>
<text text-anchor="start" x="617.9896" y="-267.4" font-family="Helvetica,sans-Serif" font-size="11.00" fill="#000000">timestamp(6) with time zone[13,6]</text>
<polygon fill="none" stroke="#000000" points="360,-237.7 360,-259.7 615,-259.7 615,-237.7 360,-237.7"/>
<text text-anchor="start" x="380" y="-244.8" font-family="Helvetica,sans-Serif" font-size="11.00" fill="#000000">UPDATED_BY</text>
<polygon fill="none" stroke="#000000" points="615,-237.7 615,-259.7 786,-259.7 786,-237.7 615,-237.7"/>
<text text-anchor="start" x="618" y="-245.4" font-family="Helvetica,sans-Serif" font-size="11.00" fill="#000000">number[19]</text>
<polygon fill="none" stroke="#000000" points="360,-215.7 360,-237.7 615,-237.7 615,-215.7 360,-215.7"/>
<image xlink:href="../../images/primaryKeys.png" width="11px" height="12px" preserveAspectRatio="xMinYMin meet" x="365" y="-232.7"/>
<text text-anchor="start" x="380" y="-222.8" font-family="Helvetica,sans-Serif" font-size="11.00" fill="#000000">CLONE_FORM_ID</text>
<polygon fill="none" stroke="#000000" points="615,-215.7 615,-237.7 786,-237.7 786,-215.7 615,-215.7"/>
<text text-anchor="start" x="618" y="-223.4" font-family="Helvetica,sans-Serif" font-size="11.00" fill="#000000">number[19]</text>
<polygon fill="none" stroke="#000000" points="360,-193.7 360,-215.7 615,-215.7 615,-193.7 360,-193.7"/>
<image xlink:href="../../images/primaryKeys.png" width="11px" height="12px" preserveAspectRatio="xMinYMin meet" x="365" y="-210.7"/>
<text text-anchor="start" x="380" y="-200.8" font-family="Helvetica,sans-Serif" font-size="11.00" fill="#000000">ISOFORM_REGION_ID</text>
<polygon fill="none" stroke="#000000" points="615,-193.7 615,-215.7 786,-215.7 786,-193.7 615,-193.7"/>
<text text-anchor="start" x="618" y="-201.4" font-family="Helvetica,sans-Serif" font-size="11.00" fill="#000000">number[19]</text>
<polygon fill="none" stroke="#000000" points="360,-171.7 360,-193.7 615,-193.7 615,-171.7 360,-171.7"/>
<text text-anchor="start" x="380" y="-178.8" font-family="Helvetica,sans-Serif" font-size="11.00" fill="#000000">IS_INCLUDED</text>
<polygon fill="none" stroke="#000000" points="615,-171.7 615,-193.7 786,-193.7 786,-171.7 615,-171.7"/>
<text text-anchor="start" x="618" y="-179.4" font-family="Helvetica,sans-Serif" font-size="11.00" fill="#000000">number[1]</text>
<polygon fill="#ffffff" stroke="transparent" points="360,-152.7 360,-171.7 476,-171.7 476,-152.7 360,-152.7"/>
<polygon fill="none" stroke="#000000" points="360,-152.7 360,-171.7 476,-171.7 476,-152.7 360,-152.7"/>
<text text-anchor="start" x="363" y="-158.8" font-family="Helvetica,sans-Serif" font-size="11.00" fill="#000000">&lt; 2</text>
<polygon fill="#ffffff" stroke="transparent" points="476,-152.7 476,-171.7 615,-171.7 615,-152.7 476,-152.7"/>
<polygon fill="none" stroke="#000000" points="476,-152.7 476,-171.7 615,-171.7 615,-152.7 476,-152.7"/>
<text text-anchor="start" x="573.4956" y="-158.8" font-family="Helvetica,sans-Serif" font-size="11.00" fill="#000000">73 rows</text>
<polygon fill="#ffffff" stroke="transparent" points="615,-152.7 615,-171.7 786,-171.7 786,-152.7 615,-152.7"/>
<polygon fill="none" stroke="#000000" points="615,-152.7 615,-171.7 786,-171.7 786,-152.7 615,-152.7"/>
<text text-anchor="start" x="767.4053" y="-158.8" font-family="Helvetica,sans-Serif" font-size="11.00" fill="#000000">0 &gt;</text>
<polygon fill="none" stroke="#000000" stroke-width="2" points="359,-151.7 359,-371.7 787,-371.7 787,-151.7 359,-151.7"/>
</a>
</g>
</g>
<!-- CLONE_FORMS -->
<g id="node2" class="node">
<title>CLONE_FORMS</title>
<g id="a_node2"><a xlink:href="../../tables/CLONE_FORMS.html" xlink:title="CLONE_FORMS" target="_top">
<polygon fill="#ffffff" stroke="transparent" points="8,-164.2 8,-357.2 309,-357.2 309,-164.2 8,-164.2"/>
<polygon fill="#f5f5f5" stroke="transparent" points="8.5,-333.7 8.5,-356.7 309.5,-356.7 309.5,-333.7 8.5,-333.7"/>
<polygon fill="none" stroke="#000000" points="8.5,-333.7 8.5,-356.7 309.5,-356.7 309.5,-333.7 8.5,-333.7"/>
<text text-anchor="start" x="13.5" y="-342.8" font-family="Helvetica,sans-Serif" font-weight="bold" font-size="11.00" fill="#000000">CLONE_FORMS</text>
<text text-anchor="start" x="274.5437" y="-341.8" font-family="Helvetica,sans-Serif" font-size="11.00" fill="#000000">[table]</text>
<polygon fill="none" stroke="#000000" points="8.5,-311.7 8.5,-333.7 309.5,-333.7 309.5,-311.7 8.5,-311.7"/>
<image xlink:href="../../images/primaryKeys.png" width="11px" height="12px" preserveAspectRatio="xMinYMin meet" x="13.5" y="-328.7"/>
<text text-anchor="start" x="28.5" y="-318.8" font-family="Helvetica,sans-Serif" font-size="11.00" fill="#000000">ID</text>
<polygon fill="none" stroke="#000000" points="8.5,-289.7 8.5,-311.7 309.5,-311.7 309.5,-289.7 8.5,-289.7"/>
<image xlink:href="../../images/foreignKeys.png" width="11px" height="12px" preserveAspectRatio="xMinYMin meet" x="13.5" y="-306.7"/>
<text text-anchor="start" x="28.5" y="-296.8" font-family="Helvetica,sans-Serif" font-size="11.00" fill="#000000">ISOFORM_ID</text>
<polygon fill="none" stroke="#000000" points="8.5,-267.7 8.5,-289.7 309.5,-289.7 309.5,-267.7 8.5,-267.7"/>
<image xlink:href="../../images/primaryKeys.png" width="11px" height="12px" preserveAspectRatio="xMinYMin meet" x="13.5" y="-284.7"/>
<text text-anchor="start" x="28.5" y="-274.8" font-family="Helvetica,sans-Serif" font-size="11.00" fill="#000000">NAME</text>
<polygon fill="none" stroke="#000000" points="8.5,-245.7 8.5,-267.7 309.5,-267.7 309.5,-245.7 8.5,-245.7"/>
<image xlink:href="../../images/foreignKeys.png" width="11px" height="12px" preserveAspectRatio="xMinYMin meet" x="13.5" y="-262.7"/>
<text text-anchor="start" x="28.5" y="-252.8" font-family="Helvetica,sans-Serif" font-size="11.00" fill="#000000">TARGET_FORM_ID</text>
<polygon fill="none" stroke="#000000" points="8.5,-223.7 8.5,-245.7 309.5,-245.7 309.5,-223.7 8.5,-223.7"/>
<image xlink:href="../../images/foreignKeys.png" width="11px" height="12px" preserveAspectRatio="xMinYMin meet" x="13.5" y="-240.7"/>
<text text-anchor="start" x="28.5" y="-230.8" font-family="Helvetica,sans-Serif" font-size="11.00" fill="#000000">POST_TRANSLATIONAL_MODIFICATION_ID</text>
<polygon fill="none" stroke="#000000" points="8.5,-201.7 8.5,-223.7 309.5,-223.7 309.5,-201.7 8.5,-201.7"/>
<image xlink:href="../../images/foreignKeys.png" width="11px" height="12px" preserveAspectRatio="xMinYMin meet" x="13.5" y="-218.7"/>
<text text-anchor="start" x="28.5" y="-208.8" font-family="Helvetica,sans-Serif" font-size="11.00" fill="#000000">SPECIES_ID</text>
<polygon fill="none" stroke="#000000" points="8.5,-182.7 8.5,-201.7 309.5,-201.7 309.5,-182.7 8.5,-182.7"/>
<text text-anchor="start" x="11.5" y="-188.8" font-family="Helvetica,sans-Serif" font-size="11.00" fill="#000000">...</text>
<polygon fill="#ffffff" stroke="transparent" points="8.5,-163.7 8.5,-182.7 130.5,-182.7 130.5,-163.7 8.5,-163.7"/>
<polygon fill="none" stroke="#000000" points="8.5,-163.7 8.5,-182.7 130.5,-182.7 130.5,-163.7 8.5,-163.7"/>
<text text-anchor="start" x="11.5" y="-169.8" font-family="Helvetica,sans-Serif" font-size="11.00" fill="#000000">&lt; 4</text>
<polygon fill="#ffffff" stroke="transparent" points="130.5,-163.7 130.5,-182.7 231.5,-182.7 231.5,-163.7 130.5,-163.7"/>
<polygon fill="none" stroke="#000000" points="130.5,-163.7 130.5,-182.7 231.5,-182.7 231.5,-163.7 130.5,-163.7"/>
<text text-anchor="start" x="183.8807" y="-169.8" font-family="Helvetica,sans-Serif" font-size="11.00" fill="#000000">467 rows</text>
<polygon fill="#ffffff" stroke="transparent" points="231.5,-163.7 231.5,-182.7 309.5,-182.7 309.5,-163.7 231.5,-163.7"/>
<polygon fill="none" stroke="#000000" points="231.5,-163.7 231.5,-182.7 309.5,-182.7 309.5,-163.7 231.5,-163.7"/>
<text text-anchor="start" x="284.7904" y="-169.8" font-family="Helvetica,sans-Serif" font-size="11.00" fill="#000000">14 &gt;</text>
</a>
</g>
</g>
<!-- CLONE_FORMS_ISOFORM_REGIONS&#45;&gt;CLONE_FORMS -->
<g id="edge1" class="edge">
<title>CLONE_FORMS_ISOFORM_REGIONS:w&#45;&gt;CLONE_FORMS:e</title>
<path fill="none" stroke="#000000" d="M345.9659,-230.825C321.7993,-249.2 351.6837,-322.7 309.5,-322.7"/>
<polygon fill="#000000" stroke="#000000" points="352.3247,-228.956 361.0152,-230.1539 356.1623,-227.828 360,-226.7 360,-226.7 360,-226.7 356.1623,-227.828 358.9848,-223.2461 352.3247,-228.956 352.3247,-228.956"/>
<ellipse fill="none" stroke="#000000" cx="349.2545" cy="-229.8584" rx="3.2" ry="3.2"/>
</g>
<!-- ISOFORM_REGIONS -->
<g id="node3" class="node">
<title>ISOFORM_REGIONS</title>
<g id="a_node3"><a xlink:href="../../tables/ISOFORM_REGIONS.html" xlink:title="ISOFORM_REGIONS" target="_top">
<polygon fill="#ffffff" stroke="transparent" points="83,-38.2 83,-143.2 234,-143.2 234,-38.2 83,-38.2"/>
<polygon fill="#f5f5f5" stroke="transparent" points="83.5,-119.7 83.5,-142.7 234.5,-142.7 234.5,-119.7 83.5,-119.7"/>
<polygon fill="none" stroke="#000000" points="83.5,-119.7 83.5,-142.7 234.5,-142.7 234.5,-119.7 83.5,-119.7"/>
<text text-anchor="start" x="88.4158" y="-128.8" font-family="Helvetica,sans-Serif" font-weight="bold" font-size="11.00" fill="#000000">ISOFORM_REGIONS</text>
<text text-anchor="start" x="200.0219" y="-127.8" font-family="Helvetica,sans-Serif" font-size="11.00" fill="#000000">[table]</text>
<polygon fill="none" stroke="#000000" points="83.5,-97.7 83.5,-119.7 234.5,-119.7 234.5,-97.7 83.5,-97.7"/>
<image xlink:href="../../images/primaryKeys.png" width="11px" height="12px" preserveAspectRatio="xMinYMin meet" x="88.5" y="-114.7"/>
<text text-anchor="start" x="104.5" y="-104.8" font-family="Helvetica,sans-Serif" font-size="11.00" fill="#000000">ID</text>
<polygon fill="none" stroke="#000000" points="83.5,-75.7 83.5,-97.7 234.5,-97.7 234.5,-75.7 83.5,-75.7"/>
<image xlink:href="../../images/foreignKeys.png" width="11px" height="12px" preserveAspectRatio="xMinYMin meet" x="88.5" y="-92.7"/>
<text text-anchor="start" x="104.5" y="-82.8" font-family="Helvetica,sans-Serif" font-size="11.00" fill="#000000">ISOFORM_ID</text>
<polygon fill="none" stroke="#000000" points="83.5,-56.7 83.5,-75.7 234.5,-75.7 234.5,-56.7 83.5,-56.7"/>
<text text-anchor="start" x="86.5" y="-62.8" font-family="Helvetica,sans-Serif" font-size="11.00" fill="#000000">...</text>
<polygon fill="#ffffff" stroke="transparent" points="83.5,-37.7 83.5,-56.7 133.5,-56.7 133.5,-37.7 83.5,-37.7"/>
<polygon fill="none" stroke="#000000" points="83.5,-37.7 83.5,-56.7 133.5,-56.7 133.5,-37.7 83.5,-37.7"/>
<text text-anchor="start" x="86.5" y="-43.8" font-family="Helvetica,sans-Serif" font-size="11.00" fill="#000000">&lt; 1</text>
<polygon fill="#ffffff" stroke="transparent" points="133.5,-37.7 133.5,-56.7 198.5,-56.7 198.5,-37.7 133.5,-37.7"/>
<polygon fill="none" stroke="#000000" points="133.5,-37.7 133.5,-56.7 198.5,-56.7 198.5,-37.7 133.5,-37.7"/>
<text text-anchor="start" x="150.8807" y="-43.8" font-family="Helvetica,sans-Serif" font-size="11.00" fill="#000000">199 rows</text>
<polygon fill="#ffffff" stroke="transparent" points="198.5,-37.7 198.5,-56.7 234.5,-56.7 234.5,-37.7 198.5,-37.7"/>
<polygon fill="none" stroke="#000000" points="198.5,-37.7 198.5,-56.7 234.5,-56.7 234.5,-37.7 198.5,-37.7"/>
<text text-anchor="start" x="215.9053" y="-43.8" font-family="Helvetica,sans-Serif" font-size="11.00" fill="#000000">2 &gt;</text>
</a>
</g>
</g>
<!-- CLONE_FORMS_ISOFORM_REGIONS&#45;&gt;ISOFORM_REGIONS -->
<g id="edge2" class="edge">
<title>CLONE_FORMS_ISOFORM_REGIONS:w&#45;&gt;ISOFORM_REGIONS:e</title>
<path fill="none" stroke="#000000" d="M345.8046,-200.8249C332.9573,-191.6964 335.1196,-168.4977 317,-153.7 284.6505,-127.2811 276.2665,-108.7 234.5,-108.7"/>
<polygon fill="#000000" stroke="#000000" points="352.2824,-202.5932 359.0519,-208.1729 356.1412,-203.6466 360,-204.7 360,-204.7 360,-204.7 356.1412,-203.6466 360.9481,-201.2271 352.2824,-202.5932 352.2824,-202.5932"/>
<ellipse fill="none" stroke="#000000" cx="349.1953" cy="-201.7505" rx="3.2" ry="3.2"/>
</g>
</g>
</svg>
