<?xml version="1.0" encoding="UTF-8" standalone="no"?>
<!DOCTYPE svg PUBLIC "-//W3C//DTD SVG 1.1//EN"
 "http://www.w3.org/Graphics/SVG/1.1/DTD/svg11.dtd">
<!-- Generated by graphviz version 2.40.1 (20161225.0304)
 -->
<!-- Title: oneDegreeRelationshipsDiagram Pages: 1 -->
<svg width="776pt" height="343pt"
 viewBox="0.00 0.00 776.00 342.70" xmlns="http://www.w3.org/2000/svg" xmlns:xlink="http://www.w3.org/1999/xlink">
<g id="graph0" class="graph" transform="scale(1 1) rotate(0) translate(4 338.7)">
<title>oneDegreeRelationshipsDiagram</title>
<polygon fill="#ffffff" stroke="transparent" points="-4,4 -4,-338.7 772,-338.7 772,4 -4,4"/>
<text text-anchor="middle" x="72.4936" y="-7.3" font-family="Helvetica,sans-Serif" font-size="11.00" fill="#000000">Generated by SchemaSpy</text>
<!-- CLONE_FORMS_PROTEIN_TAGS -->
<g id="node1" class="node">
<title>CLONE_FORMS_PROTEIN_TAGS</title>
<g id="a_node1"><a xlink:href="../../tables/CLONE_FORMS_PROTEIN_TAGS.html" xlink:title="CLONE_FORMS_PROTEIN_TAGS" target="_top">
<polygon fill="#ffffff" stroke="transparent" points="358,-108.7 358,-330.7 760,-330.7 760,-108.7 358,-108.7"/>
<polygon fill="#f5f5f5" stroke="transparent" points="360,-305.7 360,-328.7 758,-328.7 758,-305.7 360,-305.7"/>
<polygon fill="none" stroke="#000000" points="360,-305.7 360,-328.7 758,-328.7 758,-305.7 360,-305.7"/>
<text text-anchor="start" x="365" y="-314.8" font-family="Helvetica,sans-Serif" font-weight="bold" font-size="11.00" fill="#000000">CLONE_FORMS_PROTEIN_TAGS</text>
<text text-anchor="start" x="723.0437" y="-313.8" font-family="Helvetica,sans-Serif" font-size="11.00" fill="#000000">[table]</text>
<polygon fill="none" stroke="#000000" points="360,-283.7 360,-305.7 587,-305.7 587,-283.7 360,-283.7"/>
<image xlink:href="../../images/primaryKeys.png" width="11px" height="12px" preserveAspectRatio="xMinYMin meet" x="365" y="-300.7"/>
<text text-anchor="start" x="380" y="-290.8" font-family="Helvetica,sans-Serif" font-size="11.00" fill="#000000">ID</text>
<polygon fill="none" stroke="#000000" points="587,-283.7 587,-305.7 758,-305.7 758,-283.7 587,-283.7"/>
<text text-anchor="start" x="590" y="-291.4" font-family="Helvetica,sans-Serif" font-size="11.00" fill="#000000">number[19]</text>
<polygon fill="none" stroke="#000000" points="360,-261.7 360,-283.7 587,-283.7 587,-261.7 360,-261.7"/>
<text text-anchor="start" x="380" y="-268.8" font-family="Helvetica,sans-Serif" font-size="11.00" fill="#000000">CREATED_AT</text>
<polygon fill="none" stroke="#000000" points="587,-261.7 587,-283.7 758,-283.7 758,-261.7 587,-261.7"/>
<text text-anchor="start" x="589.9896" y="-269.4" font-family="Helvetica,sans-Serif" font-size="11.00" fill="#000000">timestamp(6) with time zone[13,6]</text>
<polygon fill="none" stroke="#000000" points="360,-239.7 360,-261.7 587,-261.7 587,-239.7 360,-239.7"/>
<text text-anchor="start" x="380" y="-246.8" font-family="Helvetica,sans-Serif" font-size="11.00" fill="#000000">CREATED_BY</text>
<polygon fill="none" stroke="#000000" points="587,-239.7 587,-261.7 758,-261.7 758,-239.7 587,-239.7"/>
<text text-anchor="start" x="590" y="-247.4" font-family="Helvetica,sans-Serif" font-size="11.00" fill="#000000">number[19]</text>
<polygon fill="none" stroke="#000000" points="360,-217.7 360,-239.7 587,-239.7 587,-217.7 360,-217.7"/>
<text text-anchor="start" x="380" y="-224.8" font-family="Helvetica,sans-Serif" font-size="11.00" fill="#000000">UPDATED_AT</text>
<polygon fill="none" stroke="#000000" points="587,-217.7 587,-239.7 758,-239.7 758,-217.7 587,-217.7"/>
<text text-anchor="start" x="589.9896" y="-225.4" font-family="Helvetica,sans-Serif" font-size="11.00" fill="#000000">timestamp(6) with time zone[13,6]</text>
<polygon fill="none" stroke="#000000" points="360,-195.7 360,-217.7 587,-217.7 587,-195.7 360,-195.7"/>
<text text-anchor="start" x="380" y="-202.8" font-family="Helvetica,sans-Serif" font-size="11.00" fill="#000000">UPDATED_BY</text>
<polygon fill="none" stroke="#000000" points="587,-195.7 587,-217.7 758,-217.7 758,-195.7 587,-195.7"/>
<text text-anchor="start" x="590" y="-203.4" font-family="Helvetica,sans-Serif" font-size="11.00" fill="#000000">number[19]</text>
<polygon fill="none" stroke="#000000" points="360,-173.7 360,-195.7 587,-195.7 587,-173.7 360,-173.7"/>
<image xlink:href="../../images/foreignKeys.png" width="11px" height="12px" preserveAspectRatio="xMinYMin meet" x="365" y="-190.7"/>
<text text-anchor="start" x="380" y="-180.8" font-family="Helvetica,sans-Serif" font-size="11.00" fill="#000000">CLONE_FORM_ID</text>
<polygon fill="none" stroke="#000000" points="587,-173.7 587,-195.7 758,-195.7 758,-173.7 587,-173.7"/>
<text text-anchor="start" x="590" y="-181.4" font-family="Helvetica,sans-Serif" font-size="11.00" fill="#000000">number[19]</text>
<polygon fill="none" stroke="#000000" points="360,-151.7 360,-173.7 587,-173.7 587,-151.7 360,-151.7"/>
<image xlink:href="../../images/foreignKeys.png" width="11px" height="12px" preserveAspectRatio="xMinYMin meet" x="365" y="-168.7"/>
<text text-anchor="start" x="380" y="-158.8" font-family="Helvetica,sans-Serif" font-size="11.00" fill="#000000">PROTEIN_TAG_ID</text>
<polygon fill="none" stroke="#000000" points="587,-151.7 587,-173.7 758,-173.7 758,-151.7 587,-151.7"/>
<text text-anchor="start" x="590" y="-159.4" font-family="Helvetica,sans-Serif" font-size="11.00" fill="#000000">number[19]</text>
<polygon fill="none" stroke="#000000" points="360,-129.7 360,-151.7 587,-151.7 587,-129.7 360,-129.7"/>
<text text-anchor="start" x="380" y="-136.8" font-family="Helvetica,sans-Serif" font-size="11.00" fill="#000000">CARTOON_ORDER</text>
<polygon fill="none" stroke="#000000" points="587,-129.7 587,-151.7 758,-151.7 758,-129.7 587,-129.7"/>
<text text-anchor="start" x="590" y="-137.4" font-family="Helvetica,sans-Serif" font-size="11.00" fill="#000000">number[2]</text>
<polygon fill="#ffffff" stroke="transparent" points="360,-110.7 360,-129.7 462,-129.7 462,-110.7 360,-110.7"/>
<polygon fill="none" stroke="#000000" points="360,-110.7 360,-129.7 462,-129.7 462,-110.7 360,-110.7"/>
<text text-anchor="start" x="363" y="-116.8" font-family="Helvetica,sans-Serif" font-size="11.00" fill="#000000">&lt; 2</text>
<polygon fill="#ffffff" stroke="transparent" points="462,-110.7 462,-129.7 587,-129.7 587,-110.7 462,-110.7"/>
<polygon fill="none" stroke="#000000" points="462,-110.7 462,-129.7 587,-129.7 587,-110.7 462,-110.7"/>
<text text-anchor="start" x="545.4956" y="-116.8" font-family="Helvetica,sans-Serif" font-size="11.00" fill="#000000">86 rows</text>
<polygon fill="#ffffff" stroke="transparent" points="587,-110.7 587,-129.7 758,-129.7 758,-110.7 587,-110.7"/>
<polygon fill="none" stroke="#000000" points="587,-110.7 587,-129.7 758,-129.7 758,-110.7 587,-110.7"/>
<text text-anchor="start" x="739.4053" y="-116.8" font-family="Helvetica,sans-Serif" font-size="11.00" fill="#000000">0 &gt;</text>
<polygon fill="none" stroke="#000000" stroke-width="2" points="359,-109.7 359,-329.7 759,-329.7 759,-109.7 359,-109.7"/>
</a>
</g>
</g>
<!-- CLONE_FORMS -->
<g id="node2" class="node">
<title>CLONE_FORMS</title>
<g id="a_node2"><a xlink:href="../../tables/CLONE_FORMS.html" xlink:title="CLONE_FORMS" target="_top">
<polygon fill="#ffffff" stroke="transparent" points="8,-120.2 8,-313.2 309,-313.2 309,-120.2 8,-120.2"/>
<polygon fill="#f5f5f5" stroke="transparent" points="8.5,-289.7 8.5,-312.7 309.5,-312.7 309.5,-289.7 8.5,-289.7"/>
<polygon fill="none" stroke="#000000" points="8.5,-289.7 8.5,-312.7 309.5,-312.7 309.5,-289.7 8.5,-289.7"/>
<text text-anchor="start" x="13.5" y="-298.8" font-family="Helvetica,sans-Serif" font-weight="bold" font-size="11.00" fill="#000000">CLONE_FORMS</text>
<text text-anchor="start" x="274.5437" y="-297.8" font-family="Helvetica,sans-Serif" font-size="11.00" fill="#000000">[table]</text>
<polygon fill="none" stroke="#000000" points="8.5,-267.7 8.5,-289.7 309.5,-289.7 309.5,-267.7 8.5,-267.7"/>
<image xlink:href="../../images/primaryKeys.png" width="11px" height="12px" preserveAspectRatio="xMinYMin meet" x="13.5" y="-284.7"/>
<text text-anchor="start" x="28.5" y="-274.8" font-family="Helvetica,sans-Serif" font-size="11.00" fill="#000000">ID</text>
<polygon fill="none" stroke="#000000" points="8.5,-245.7 8.5,-267.7 309.5,-267.7 309.5,-245.7 8.5,-245.7"/>
<image xlink:href="../../images/foreignKeys.png" width="11px" height="12px" preserveAspectRatio="xMinYMin meet" x="13.5" y="-262.7"/>
<text text-anchor="start" x="28.5" y="-252.8" font-family="Helvetica,sans-Serif" font-size="11.00" fill="#000000">ISOFORM_ID</text>
<polygon fill="none" stroke="#000000" points="8.5,-223.7 8.5,-245.7 309.5,-245.7 309.5,-223.7 8.5,-223.7"/>
<image xlink:href="../../images/primaryKeys.png" width="11px" height="12px" preserveAspectRatio="xMinYMin meet" x="13.5" y="-240.7"/>
<text text-anchor="start" x="28.5" y="-230.8" font-family="Helvetica,sans-Serif" font-size="11.00" fill="#000000">NAME</text>
<polygon fill="none" stroke="#000000" points="8.5,-201.7 8.5,-223.7 309.5,-223.7 309.5,-201.7 8.5,-201.7"/>
<image xlink:href="../../images/foreignKeys.png" width="11px" height="12px" preserveAspectRatio="xMinYMin meet" x="13.5" y="-218.7"/>
<text text-anchor="start" x="28.5" y="-208.8" font-family="Helvetica,sans-Serif" font-size="11.00" fill="#000000">TARGET_FORM_ID</text>
<polygon fill="none" stroke="#000000" points="8.5,-179.7 8.5,-201.7 309.5,-201.7 309.5,-179.7 8.5,-179.7"/>
<image xlink:href="../../images/foreignKeys.png" width="11px" height="12px" preserveAspectRatio="xMinYMin meet" x="13.5" y="-196.7"/>
<text text-anchor="start" x="28.5" y="-186.8" font-family="Helvetica,sans-Serif" font-size="11.00" fill="#000000">POST_TRANSLATIONAL_MODIFICATION_ID</text>
<polygon fill="none" stroke="#000000" points="8.5,-157.7 8.5,-179.7 309.5,-179.7 309.5,-157.7 8.5,-157.7"/>
<image xlink:href="../../images/foreignKeys.png" width="11px" height="12px" preserveAspectRatio="xMinYMin meet" x="13.5" y="-174.7"/>
<text text-anchor="start" x="28.5" y="-164.8" font-family="Helvetica,sans-Serif" font-size="11.00" fill="#000000">SPECIES_ID</text>
<polygon fill="none" stroke="#000000" points="8.5,-138.7 8.5,-157.7 309.5,-157.7 309.5,-138.7 8.5,-138.7"/>
<text text-anchor="start" x="11.5" y="-144.8" font-family="Helvetica,sans-Serif" font-size="11.00" fill="#000000">...</text>
<polygon fill="#ffffff" stroke="transparent" points="8.5,-119.7 8.5,-138.7 130.5,-138.7 130.5,-119.7 8.5,-119.7"/>
<polygon fill="none" stroke="#000000" points="8.5,-119.7 8.5,-138.7 130.5,-138.7 130.5,-119.7 8.5,-119.7"/>
<text text-anchor="start" x="11.5" y="-125.8" font-family="Helvetica,sans-Serif" font-size="11.00" fill="#000000">&lt; 4</text>
<polygon fill="#ffffff" stroke="transparent" points="130.5,-119.7 130.5,-138.7 231.5,-138.7 231.5,-119.7 130.5,-119.7"/>
<polygon fill="none" stroke="#000000" points="130.5,-119.7 130.5,-138.7 231.5,-138.7 231.5,-119.7 130.5,-119.7"/>
<text text-anchor="start" x="183.8807" y="-125.8" font-family="Helvetica,sans-Serif" font-size="11.00" fill="#000000">467 rows</text>
<polygon fill="#ffffff" stroke="transparent" points="231.5,-119.7 231.5,-138.7 309.5,-138.7 309.5,-119.7 231.5,-119.7"/>
<polygon fill="none" stroke="#000000" points="231.5,-119.7 231.5,-138.7 309.5,-138.7 309.5,-119.7 231.5,-119.7"/>
<text text-anchor="start" x="284.7904" y="-125.8" font-family="Helvetica,sans-Serif" font-size="11.00" fill="#000000">14 &gt;</text>
</a>
</g>
</g>
<!-- CLONE_FORMS_PROTEIN_TAGS&#45;&gt;CLONE_FORMS -->
<g id="edge1" class="edge">
<title>CLONE_FORMS_PROTEIN_TAGS:w&#45;&gt;CLONE_FORMS:e</title>
<path fill="none" stroke="#000000" d="M346.1591,-188.7391C322.2285,-206.7313 350.9969,-278.7 309.5,-278.7"/>
<polygon fill="#000000" stroke="#000000" points="352.3203,-186.9411 361.0085,-188.1559 356.1602,-185.8206 360,-184.7 360,-184.7 360,-184.7 356.1602,-185.8206 358.9915,-181.2441 352.3203,-186.9411 352.3203,-186.9411"/>
<ellipse fill="none" stroke="#000000" cx="349.2484" cy="-187.8376" rx="3.2" ry="3.2"/>
</g>
<!-- PROTEIN_PRODUCTION.PROTEIN_TAGS -->
<g id="node3" class="node">
<title>PROTEIN_PRODUCTION.PROTEIN_TAGS</title>
<g id="a_node3"><a xlink:title="PROTEIN_PRODUCTION.PROTEIN_TAGS">
<polygon fill="#ffffff" stroke="transparent" points="29,-38.2 29,-99.2 288,-99.2 288,-38.2 29,-38.2"/>
<polygon fill="#f5f5f5" stroke="transparent" points="29.5,-75.7 29.5,-98.7 288.5,-98.7 288.5,-75.7 29.5,-75.7"/>
<polygon fill="none" stroke="#000000" points="29.5,-75.7 29.5,-98.7 288.5,-98.7 288.5,-75.7 29.5,-75.7"/>
<text text-anchor="start" x="34.0295" y="-84.8" font-family="Helvetica,sans-Serif" font-weight="bold" font-size="11.00" fill="#000000">PROTEIN_PRODUCTION.PROTEIN_TAGS</text>
<text text-anchor="start" x="254.0219" y="-83.8" font-family="Helvetica,sans-Serif" font-size="11.00" fill="#000000">[table]</text>
<polygon fill="none" stroke="#000000" points="29.5,-56.7 29.5,-75.7 288.5,-75.7 288.5,-56.7 29.5,-56.7"/>
<text text-anchor="start" x="32.5" y="-62.8" font-family="Helvetica,sans-Serif" font-size="11.00" fill="#000000">...</text>
<polygon fill="#ffffff" stroke="transparent" points="29.5,-37.7 29.5,-56.7 135.5,-56.7 135.5,-37.7 29.5,-37.7"/>
<polygon fill="none" stroke="#000000" points="29.5,-37.7 29.5,-56.7 135.5,-56.7 135.5,-37.7 29.5,-37.7"/>
<text text-anchor="start" x="32.5" y="-43.8" font-family="Helvetica,sans-Serif" font-size="11.00" fill="#000000"> &#160;</text>
<polygon fill="#ffffff" stroke="transparent" points="135.5,-37.7 135.5,-56.7 220.5,-56.7 220.5,-37.7 135.5,-37.7"/>
<polygon fill="none" stroke="#000000" points="135.5,-37.7 135.5,-56.7 220.5,-56.7 220.5,-37.7 135.5,-37.7"/>
<text text-anchor="start" x="185.1105" y="-43.8" font-family="Helvetica,sans-Serif" font-size="11.00" fill="#000000">0 rows</text>
<polygon fill="#ffffff" stroke="transparent" points="220.5,-37.7 220.5,-56.7 288.5,-56.7 288.5,-37.7 220.5,-37.7"/>
<polygon fill="none" stroke="#000000" points="220.5,-37.7 220.5,-56.7 288.5,-56.7 288.5,-37.7 220.5,-37.7"/>
<text text-anchor="start" x="269.9053" y="-43.8" font-family="Helvetica,sans-Serif" font-size="11.00" fill="#000000">2 &gt;</text>
</a>
</g>
</g>
<!-- CLONE_FORMS_PROTEIN_TAGS&#45;&gt;PROTEIN_PRODUCTION.PROTEIN_TAGS -->
<g id="edge2" class="edge">
<title>CLONE_FORMS_PROTEIN_TAGS:w&#45;&gt;PROTEIN_PRODUCTION.PROTEIN_TAGS:e</title>
<path fill="none" stroke="#000000" d="M346.1776,-158.6455C333.3047,-148.6641 337.3351,-122.7674 317,-109.7 310.4243,-105.4744 303.4323,-101.6836 296.1894,-98.2828"/>
<polygon fill="#000000" stroke="#000000" points="352.3234,-160.4482 358.9867,-166.1545 356.1617,-161.5741 360,-162.7 360,-162.7 360,-162.7 356.1617,-161.5741 361.0133,-159.2455 352.3234,-160.4482 352.3234,-160.4482"/>
<ellipse fill="none" stroke="#000000" cx="349.2528" cy="-159.5475" rx="3.2" ry="3.2"/>
</g>
</g>
</svg>
