<?xml version="1.0" encoding="UTF-8" standalone="no"?>
<!DOCTYPE svg PUBLIC "-//W3C//DTD SVG 1.1//EN"
 "http://www.w3.org/Graphics/SVG/1.1/DTD/svg11.dtd">
<!-- Generated by graphviz version 2.40.1 (20161225.0304)
 -->
<!-- Title: oneDegreeRelationshipsDiagram Pages: 1 -->
<svg width="576pt" height="315pt"
 viewBox="0.00 0.00 576.00 314.70" xmlns="http://www.w3.org/2000/svg" xmlns:xlink="http://www.w3.org/1999/xlink">
<g id="graph0" class="graph" transform="scale(1 1) rotate(0) translate(4 310.7)">
<title>oneDegreeRelationshipsDiagram</title>
<polygon fill="#ffffff" stroke="transparent" points="-4,4 -4,-310.7 572,-310.7 572,4 -4,4"/>
<text text-anchor="middle" x="72.4936" y="-7.3" font-family="Helvetica,sans-Serif" font-size="11.00" fill="#000000">Generated by SchemaSpy</text>
<!-- CLONE_FORMS_COFACTORS -->
<g id="node1" class="node">
<title>CLONE_FORMS_COFACTORS</title>
<g id="a_node1"><a xlink:href="../../tables/CLONE_FORMS_COFACTORS.html" xlink:title="CLONE_FORMS_COFACTORS" target="_top">
<polygon fill="#ffffff" stroke="transparent" points="353,-175.7 353,-302.7 560,-302.7 560,-175.7 353,-175.7"/>
<polygon fill="#f5f5f5" stroke="transparent" points="353.5,-279.2 353.5,-302.2 560.5,-302.2 560.5,-279.2 353.5,-279.2"/>
<polygon fill="none" stroke="#000000" points="353.5,-279.2 353.5,-302.2 560.5,-302.2 560.5,-279.2 353.5,-279.2"/>
<text text-anchor="start" x="358.5" y="-288.3" font-family="Helvetica,sans-Serif" font-weight="bold" font-size="11.00" fill="#000000">CLONE_FORMS_COFACTORS</text>
<text text-anchor="start" x="525.5437" y="-287.3" font-family="Helvetica,sans-Serif" font-size="11.00" fill="#000000">[table]</text>
<polygon fill="none" stroke="#000000" points="353.5,-257.2 353.5,-279.2 560.5,-279.2 560.5,-257.2 353.5,-257.2"/>
<image xlink:href="../../images/primaryKeys.png" width="11px" height="12px" preserveAspectRatio="xMinYMin meet" x="358.5" y="-274.2"/>
<text text-anchor="start" x="373.5" y="-264.3" font-family="Helvetica,sans-Serif" font-size="11.00" fill="#000000">ID</text>
<polygon fill="none" stroke="#000000" points="353.5,-235.2 353.5,-257.2 560.5,-257.2 560.5,-235.2 353.5,-235.2"/>
<image xlink:href="../../images/foreignKeys.png" width="11px" height="12px" preserveAspectRatio="xMinYMin meet" x="358.5" y="-252.2"/>
<text text-anchor="start" x="373.5" y="-242.3" font-family="Helvetica,sans-Serif" font-size="11.00" fill="#000000">CLONE_FORM_ID</text>
<polygon fill="none" stroke="#000000" points="353.5,-213.2 353.5,-235.2 560.5,-235.2 560.5,-213.2 353.5,-213.2"/>
<image xlink:href="../../images/foreignKeys.png" width="11px" height="12px" preserveAspectRatio="xMinYMin meet" x="358.5" y="-230.2"/>
<text text-anchor="start" x="373.5" y="-220.3" font-family="Helvetica,sans-Serif" font-size="11.00" fill="#000000">COFACTOR_ID</text>
<polygon fill="none" stroke="#000000" points="353.5,-194.2 353.5,-213.2 560.5,-213.2 560.5,-194.2 353.5,-194.2"/>
<text text-anchor="start" x="356.5" y="-200.3" font-family="Helvetica,sans-Serif" font-size="11.00" fill="#000000">...</text>
<polygon fill="#ffffff" stroke="transparent" points="353.5,-175.2 353.5,-194.2 442.5,-194.2 442.5,-175.2 353.5,-175.2"/>
<polygon fill="none" stroke="#000000" points="353.5,-175.2 353.5,-194.2 442.5,-194.2 442.5,-175.2 353.5,-175.2"/>
<text text-anchor="start" x="356.5" y="-181.3" font-family="Helvetica,sans-Serif" font-size="11.00" fill="#000000">&lt; 2</text>
<polygon fill="#ffffff" stroke="transparent" points="442.5,-175.2 442.5,-194.2 514.5,-194.2 514.5,-175.2 442.5,-175.2"/>
<polygon fill="none" stroke="#000000" points="442.5,-175.2 442.5,-194.2 514.5,-194.2 514.5,-175.2 442.5,-175.2"/>
<text text-anchor="start" x="479.1105" y="-181.3" font-family="Helvetica,sans-Serif" font-size="11.00" fill="#000000">0 rows</text>
<polygon fill="#ffffff" stroke="transparent" points="514.5,-175.2 514.5,-194.2 560.5,-194.2 560.5,-175.2 514.5,-175.2"/>
<polygon fill="none" stroke="#000000" points="514.5,-175.2 514.5,-194.2 560.5,-194.2 560.5,-175.2 514.5,-175.2"/>
<text text-anchor="start" x="551.3862" y="-181.3" font-family="Helvetica,sans-Serif" font-size="11.00" fill="#000000"> &#160;</text>
</a>
</g>
</g>
<!-- COFACTORS -->
<g id="node2" class="node">
<title>COFACTORS</title>
<g id="a_node2"><a xlink:href="../../tables/COFACTORS.html" xlink:title="COFACTORS" target="_top">
<polygon fill="#ffffff" stroke="transparent" points="8,-38.2 8,-260.2 304,-260.2 304,-38.2 8,-38.2"/>
<polygon fill="#f5f5f5" stroke="transparent" points="10,-235.2 10,-258.2 302,-258.2 302,-235.2 10,-235.2"/>
<polygon fill="none" stroke="#000000" points="10,-235.2 10,-258.2 302,-258.2 302,-235.2 10,-235.2"/>
<text text-anchor="start" x="15" y="-244.3" font-family="Helvetica,sans-Serif" font-weight="bold" font-size="11.00" fill="#000000">COFACTORS</text>
<text text-anchor="start" x="267.0437" y="-243.3" font-family="Helvetica,sans-Serif" font-size="11.00" fill="#000000">[table]</text>
<polygon fill="none" stroke="#000000" points="10,-213.2 10,-235.2 131,-235.2 131,-213.2 10,-213.2"/>
<image xlink:href="../../images/primaryKeys.png" width="11px" height="12px" preserveAspectRatio="xMinYMin meet" x="15" y="-230.2"/>
<text text-anchor="start" x="30" y="-220.3" font-family="Helvetica,sans-Serif" font-size="11.00" fill="#000000">ID</text>
<polygon fill="none" stroke="#000000" points="131,-213.2 131,-235.2 302,-235.2 302,-213.2 131,-213.2"/>
<text text-anchor="start" x="134" y="-220.9" font-family="Helvetica,sans-Serif" font-size="11.00" fill="#000000">number[19]</text>
<polygon fill="none" stroke="#000000" points="10,-191.2 10,-213.2 131,-213.2 131,-191.2 10,-191.2"/>
<text text-anchor="start" x="30" y="-198.3" font-family="Helvetica,sans-Serif" font-size="11.00" fill="#000000">ABBREVIATION</text>
<polygon fill="none" stroke="#000000" points="131,-191.2 131,-213.2 302,-213.2 302,-191.2 131,-191.2"/>
<text text-anchor="start" x="134" y="-198.9" font-family="Helvetica,sans-Serif" font-size="11.00" fill="#000000">varchar2[255]</text>
<polygon fill="none" stroke="#000000" points="10,-169.2 10,-191.2 131,-191.2 131,-169.2 10,-169.2"/>
<text text-anchor="start" x="30" y="-176.3" font-family="Helvetica,sans-Serif" font-size="11.00" fill="#000000">META_INFO</text>
<polygon fill="none" stroke="#000000" points="131,-169.2 131,-191.2 302,-191.2 302,-169.2 131,-169.2"/>
<text text-anchor="start" x="134" y="-176.9" font-family="Helvetica,sans-Serif" font-size="11.00" fill="#000000">varchar2[255]</text>
<polygon fill="none" stroke="#000000" points="10,-147.2 10,-169.2 131,-169.2 131,-147.2 10,-147.2"/>
<text text-anchor="start" x="30" y="-154.3" font-family="Helvetica,sans-Serif" font-size="11.00" fill="#000000">NAME</text>
<polygon fill="none" stroke="#000000" points="131,-147.2 131,-169.2 302,-169.2 302,-147.2 131,-147.2"/>
<text text-anchor="start" x="134" y="-154.9" font-family="Helvetica,sans-Serif" font-size="11.00" fill="#000000">varchar2[255]</text>
<polygon fill="none" stroke="#000000" points="10,-125.2 10,-147.2 131,-147.2 131,-125.2 10,-125.2"/>
<text text-anchor="start" x="30" y="-132.3" font-family="Helvetica,sans-Serif" font-size="11.00" fill="#000000">CREATED_AT</text>
<polygon fill="none" stroke="#000000" points="131,-125.2 131,-147.2 302,-147.2 302,-125.2 131,-125.2"/>
<text text-anchor="start" x="133.9896" y="-132.9" font-family="Helvetica,sans-Serif" font-size="11.00" fill="#000000">timestamp(6) with time zone[13,6]</text>
<polygon fill="none" stroke="#000000" points="10,-103.2 10,-125.2 131,-125.2 131,-103.2 10,-103.2"/>
<text text-anchor="start" x="30" y="-110.3" font-family="Helvetica,sans-Serif" font-size="11.00" fill="#000000">CREATED_BY</text>
<polygon fill="none" stroke="#000000" points="131,-103.2 131,-125.2 302,-125.2 302,-103.2 131,-103.2"/>
<text text-anchor="start" x="134" y="-110.9" font-family="Helvetica,sans-Serif" font-size="11.00" fill="#000000">number[19]</text>
<polygon fill="none" stroke="#000000" points="10,-81.2 10,-103.2 131,-103.2 131,-81.2 10,-81.2"/>
<text text-anchor="start" x="30" y="-88.3" font-family="Helvetica,sans-Serif" font-size="11.00" fill="#000000">UPDATED_AT</text>
<polygon fill="none" stroke="#000000" points="131,-81.2 131,-103.2 302,-103.2 302,-81.2 131,-81.2"/>
<text text-anchor="start" x="133.9896" y="-88.9" font-family="Helvetica,sans-Serif" font-size="11.00" fill="#000000">timestamp(6) with time zone[13,6]</text>
<polygon fill="none" stroke="#000000" points="10,-59.2 10,-81.2 131,-81.2 131,-59.2 10,-59.2"/>
<text text-anchor="start" x="30" y="-66.3" font-family="Helvetica,sans-Serif" font-size="11.00" fill="#000000">UPDATED_BY</text>
<polygon fill="none" stroke="#000000" points="131,-59.2 131,-81.2 302,-81.2 302,-59.2 131,-59.2"/>
<text text-anchor="start" x="134" y="-66.9" font-family="Helvetica,sans-Serif" font-size="11.00" fill="#000000">number[19]</text>
<polygon fill="#ffffff" stroke="transparent" points="10,-40.2 10,-59.2 62,-59.2 62,-40.2 10,-40.2"/>
<polygon fill="none" stroke="#000000" points="10,-40.2 10,-59.2 62,-59.2 62,-40.2 10,-40.2"/>
<text text-anchor="start" x="13" y="-46.3" font-family="Helvetica,sans-Serif" font-size="11.00" fill="#000000">&lt; 0</text>
<polygon fill="#ffffff" stroke="transparent" points="62,-40.2 62,-59.2 131,-59.2 131,-40.2 62,-40.2"/>
<polygon fill="none" stroke="#000000" points="62,-40.2 62,-59.2 131,-59.2 131,-40.2 62,-40.2"/>
<text text-anchor="start" x="95.6105" y="-46.3" font-family="Helvetica,sans-Serif" font-size="11.00" fill="#000000">0 rows</text>
<polygon fill="#ffffff" stroke="transparent" points="131,-40.2 131,-59.2 302,-59.2 302,-40.2 131,-40.2"/>
<polygon fill="none" stroke="#000000" points="131,-40.2 131,-59.2 302,-59.2 302,-40.2 131,-40.2"/>
<text text-anchor="start" x="283.4053" y="-46.3" font-family="Helvetica,sans-Serif" font-size="11.00" fill="#000000">1 &gt;</text>
<polygon fill="none" stroke="#000000" stroke-width="2" points="9,-39.2 9,-259.2 303,-259.2 303,-39.2 9,-39.2"/>
</a>
</g>
</g>
<!-- CLONE_FORMS_COFACTORS&#45;&gt;COFACTORS -->
<g id="edge1" class="edge">
<title>CLONE_FORMS_COFACTORS:w&#45;&gt;COFACTORS:e</title>
<path fill="none" stroke="#000000" d="M339.0156,-224.2C326.6771,-224.2 319.1667,-224.2 302,-224.2"/>
<polygon fill="#000000" stroke="#000000" points="345.5,-224.2001 353.5,-227.8 349.5,-224.2 353.5,-224.2 353.5,-224.2 353.5,-224.2 349.5,-224.2 353.5,-220.6 345.5,-224.2001 345.5,-224.2001"/>
<ellipse fill="none" stroke="#000000" cx="342.3" cy="-224.2001" rx="3.2" ry="3.2"/>
</g>
</g>
</svg>
