<?xml version="1.0" encoding="UTF-8" standalone="no"?>
<!DOCTYPE svg PUBLIC "-//W3C//DTD SVG 1.1//EN"
 "http://www.w3.org/Graphics/SVG/1.1/DTD/svg11.dtd">
<!-- Generated by graphviz version 2.40.1 (20161225.0304)
 -->
<!-- Title: twoDegreesRelationshipsDiagram Pages: 1 -->
<svg width="576pt" height="355pt"
 viewBox="0.00 0.00 576.00 354.70" xmlns="http://www.w3.org/2000/svg" xmlns:xlink="http://www.w3.org/1999/xlink">
<g id="graph0" class="graph" transform="scale(1 1) rotate(0) translate(4 350.7)">
<title>twoDegreesRelationshipsDiagram</title>
<polygon fill="#ffffff" stroke="transparent" points="-4,4 -4,-350.7 572,-350.7 572,4 -4,4"/>
<text text-anchor="middle" x="72.4936" y="-7.3" font-family="Helvetica,sans-Serif" font-size="11.00" fill="#000000">Generated by SchemaSpy</text>
<!-- CLONE_FORMS_COFACTORS -->
<g id="node1" class="node">
<title>CLONE_FORMS_COFACTORS</title>
<g id="a_node1"><a xlink:href="../../tables/CLONE_FORMS_COFACTORS.html" xlink:title="CLONE_FORMS_COFACTORS" target="_top">
<polygon fill="#ffffff" stroke="transparent" points="353,-206.7 353,-333.7 560,-333.7 560,-206.7 353,-206.7"/>
<polygon fill="#f5f5f5" stroke="transparent" points="353.5,-310.2 353.5,-333.2 560.5,-333.2 560.5,-310.2 353.5,-310.2"/>
<polygon fill="none" stroke="#000000" points="353.5,-310.2 353.5,-333.2 560.5,-333.2 560.5,-310.2 353.5,-310.2"/>
<text text-anchor="start" x="358.5" y="-319.3" font-family="Helvetica,sans-Serif" font-weight="bold" font-size="11.00" fill="#000000">CLONE_FORMS_COFACTORS</text>
<text text-anchor="start" x="525.5437" y="-318.3" font-family="Helvetica,sans-Serif" font-size="11.00" fill="#000000">[table]</text>
<polygon fill="none" stroke="#000000" points="353.5,-288.2 353.5,-310.2 560.5,-310.2 560.5,-288.2 353.5,-288.2"/>
<image xlink:href="../../images/primaryKeys.png" width="11px" height="12px" preserveAspectRatio="xMinYMin meet" x="358.5" y="-305.2"/>
<text text-anchor="start" x="373.5" y="-295.3" font-family="Helvetica,sans-Serif" font-size="11.00" fill="#000000">ID</text>
<polygon fill="none" stroke="#000000" points="353.5,-266.2 353.5,-288.2 560.5,-288.2 560.5,-266.2 353.5,-266.2"/>
<image xlink:href="../../images/foreignKeys.png" width="11px" height="12px" preserveAspectRatio="xMinYMin meet" x="358.5" y="-283.2"/>
<text text-anchor="start" x="373.5" y="-273.3" font-family="Helvetica,sans-Serif" font-size="11.00" fill="#000000">CLONE_FORM_ID</text>
<polygon fill="none" stroke="#000000" points="353.5,-244.2 353.5,-266.2 560.5,-266.2 560.5,-244.2 353.5,-244.2"/>
<image xlink:href="../../images/foreignKeys.png" width="11px" height="12px" preserveAspectRatio="xMinYMin meet" x="358.5" y="-261.2"/>
<text text-anchor="start" x="373.5" y="-251.3" font-family="Helvetica,sans-Serif" font-size="11.00" fill="#000000">COFACTOR_ID</text>
<polygon fill="none" stroke="#000000" points="353.5,-225.2 353.5,-244.2 560.5,-244.2 560.5,-225.2 353.5,-225.2"/>
<text text-anchor="start" x="356.5" y="-231.3" font-family="Helvetica,sans-Serif" font-size="11.00" fill="#000000">...</text>
<polygon fill="#ffffff" stroke="transparent" points="353.5,-206.2 353.5,-225.2 442.5,-225.2 442.5,-206.2 353.5,-206.2"/>
<polygon fill="none" stroke="#000000" points="353.5,-206.2 353.5,-225.2 442.5,-225.2 442.5,-206.2 353.5,-206.2"/>
<text text-anchor="start" x="356.5" y="-212.3" font-family="Helvetica,sans-Serif" font-size="11.00" fill="#000000">&lt; 2</text>
<polygon fill="#ffffff" stroke="transparent" points="442.5,-206.2 442.5,-225.2 514.5,-225.2 514.5,-206.2 442.5,-206.2"/>
<polygon fill="none" stroke="#000000" points="442.5,-206.2 442.5,-225.2 514.5,-225.2 514.5,-206.2 442.5,-206.2"/>
<text text-anchor="start" x="479.1105" y="-212.3" font-family="Helvetica,sans-Serif" font-size="11.00" fill="#000000">0 rows</text>
<polygon fill="#ffffff" stroke="transparent" points="514.5,-206.2 514.5,-225.2 560.5,-225.2 560.5,-206.2 514.5,-206.2"/>
<polygon fill="none" stroke="#000000" points="514.5,-206.2 514.5,-225.2 560.5,-225.2 560.5,-206.2 514.5,-206.2"/>
<text text-anchor="start" x="551.3862" y="-212.3" font-family="Helvetica,sans-Serif" font-size="11.00" fill="#000000"> &#160;</text>
</a>
</g>
</g>
<!-- CLONE_FORMS -->
<g id="node2" class="node">
<title>CLONE_FORMS</title>
<g id="a_node2"><a xlink:href="../../tables/CLONE_FORMS.html" xlink:title="CLONE_FORMS" target="_top">
<polygon fill="#ffffff" stroke="transparent" points="93,-281.7 93,-342.7 219,-342.7 219,-281.7 93,-281.7"/>
<polygon fill="#f5f5f5" stroke="transparent" points="93,-319.2 93,-342.2 219,-342.2 219,-319.2 93,-319.2"/>
<polygon fill="none" stroke="#000000" points="93,-319.2 93,-342.2 219,-342.2 219,-319.2 93,-319.2"/>
<text text-anchor="start" x="97.6401" y="-328.3" font-family="Helvetica,sans-Serif" font-weight="bold" font-size="11.00" fill="#000000">CLONE_FORMS</text>
<text text-anchor="start" x="184.5219" y="-327.3" font-family="Helvetica,sans-Serif" font-size="11.00" fill="#000000">[table]</text>
<polygon fill="none" stroke="#000000" points="93,-300.2 93,-319.2 219,-319.2 219,-300.2 93,-300.2"/>
<text text-anchor="start" x="96" y="-306.3" font-family="Helvetica,sans-Serif" font-size="11.00" fill="#000000">...</text>
<polygon fill="#ffffff" stroke="transparent" points="93,-281.2 93,-300.2 128,-300.2 128,-281.2 93,-281.2"/>
<polygon fill="none" stroke="#000000" points="93,-281.2 93,-300.2 128,-300.2 128,-281.2 93,-281.2"/>
<text text-anchor="start" x="96" y="-287.3" font-family="Helvetica,sans-Serif" font-size="11.00" fill="#000000">&lt; 4</text>
<polygon fill="#ffffff" stroke="transparent" points="128,-281.2 128,-300.2 185,-300.2 185,-281.2 128,-281.2"/>
<polygon fill="none" stroke="#000000" points="128,-281.2 128,-300.2 185,-300.2 185,-281.2 128,-281.2"/>
<text text-anchor="start" x="137.3807" y="-287.3" font-family="Helvetica,sans-Serif" font-size="11.00" fill="#000000">467 rows</text>
<polygon fill="#ffffff" stroke="transparent" points="185,-281.2 185,-300.2 219,-300.2 219,-281.2 185,-281.2"/>
<polygon fill="none" stroke="#000000" points="185,-281.2 185,-300.2 219,-300.2 219,-281.2 185,-281.2"/>
<text text-anchor="start" x="194.2904" y="-287.3" font-family="Helvetica,sans-Serif" font-size="11.00" fill="#000000">14 &gt;</text>
</a>
</g>
</g>
<!-- CLONE_FORMS_COFACTORS&#45;&gt;CLONE_FORMS -->
<g id="edge1" class="edge">
<title>CLONE_FORMS_COFACTORS:w&#45;&gt;CLONE_FORMS:e</title>
<path fill="none" stroke="#000000" d="M339.014,-277.8392C289.7525,-282.3493 275.2858,-309.2 219,-309.2"/>
<polygon fill="#000000" stroke="#000000" points="345.5078,-277.5527 353.6587,-280.7965 349.5039,-277.3764 353.5,-277.2 353.5,-277.2 353.5,-277.2 349.5039,-277.3764 353.3413,-273.6035 345.5078,-277.5527 345.5078,-277.5527"/>
<ellipse fill="none" stroke="#000000" cx="342.3109" cy="-277.6938" rx="3.2" ry="3.2"/>
</g>
<!-- COFACTORS -->
<g id="node3" class="node">
<title>COFACTORS</title>
<g id="a_node3"><a xlink:href="../../tables/COFACTORS.html" xlink:title="COFACTORS" target="_top">
<polygon fill="#ffffff" stroke="transparent" points="8,-38.2 8,-260.2 304,-260.2 304,-38.2 8,-38.2"/>
<polygon fill="#f5f5f5" stroke="transparent" points="10,-235.2 10,-258.2 302,-258.2 302,-235.2 10,-235.2"/>
<polygon fill="none" stroke="#000000" points="10,-235.2 10,-258.2 302,-258.2 302,-235.2 10,-235.2"/>
<text text-anchor="start" x="15" y="-244.3" font-family="Helvetica,sans-Serif" font-weight="bold" font-size="11.00" fill="#000000">COFACTORS</text>
<text text-anchor="start" x="267.0437" y="-243.3" font-family="Helvetica,sans-Serif" font-size="11.00" fill="#000000">[table]</text>
<polygon fill="none" stroke="#000000" points="10,-213.2 10,-235.2 131,-235.2 131,-213.2 10,-213.2"/>
<image xlink:href="../../images/primaryKeys.png" width="11px" height="12px" preserveAspectRatio="xMinYMin meet" x="15" y="-230.2"/>
<text text-anchor="start" x="30" y="-220.3" font-family="Helvetica,sans-Serif" font-size="11.00" fill="#000000">ID</text>
<polygon fill="none" stroke="#000000" points="131,-213.2 131,-235.2 302,-235.2 302,-213.2 131,-213.2"/>
<text text-anchor="start" x="134" y="-220.9" font-family="Helvetica,sans-Serif" font-size="11.00" fill="#000000">number[19]</text>
<polygon fill="none" stroke="#000000" points="10,-191.2 10,-213.2 131,-213.2 131,-191.2 10,-191.2"/>
<text text-anchor="start" x="30" y="-198.3" font-family="Helvetica,sans-Serif" font-size="11.00" fill="#000000">ABBREVIATION</text>
<polygon fill="none" stroke="#000000" points="131,-191.2 131,-213.2 302,-213.2 302,-191.2 131,-191.2"/>
<text text-anchor="start" x="134" y="-198.9" font-family="Helvetica,sans-Serif" font-size="11.00" fill="#000000">varchar2[255]</text>
<polygon fill="none" stroke="#000000" points="10,-169.2 10,-191.2 131,-191.2 131,-169.2 10,-169.2"/>
<text text-anchor="start" x="30" y="-176.3" font-family="Helvetica,sans-Serif" font-size="11.00" fill="#000000">META_INFO</text>
<polygon fill="none" stroke="#000000" points="131,-169.2 131,-191.2 302,-191.2 302,-169.2 131,-169.2"/>
<text text-anchor="start" x="134" y="-176.9" font-family="Helvetica,sans-Serif" font-size="11.00" fill="#000000">varchar2[255]</text>
<polygon fill="none" stroke="#000000" points="10,-147.2 10,-169.2 131,-169.2 131,-147.2 10,-147.2"/>
<text text-anchor="start" x="30" y="-154.3" font-family="Helvetica,sans-Serif" font-size="11.00" fill="#000000">NAME</text>
<polygon fill="none" stroke="#000000" points="131,-147.2 131,-169.2 302,-169.2 302,-147.2 131,-147.2"/>
<text text-anchor="start" x="134" y="-154.9" font-family="Helvetica,sans-Serif" font-size="11.00" fill="#000000">varchar2[255]</text>
<polygon fill="none" stroke="#000000" points="10,-125.2 10,-147.2 131,-147.2 131,-125.2 10,-125.2"/>
<text text-anchor="start" x="30" y="-132.3" font-family="Helvetica,sans-Serif" font-size="11.00" fill="#000000">CREATED_AT</text>
<polygon fill="none" stroke="#000000" points="131,-125.2 131,-147.2 302,-147.2 302,-125.2 131,-125.2"/>
<text text-anchor="start" x="133.9896" y="-132.9" font-family="Helvetica,sans-Serif" font-size="11.00" fill="#000000">timestamp(6) with time zone[13,6]</text>
<polygon fill="none" stroke="#000000" points="10,-103.2 10,-125.2 131,-125.2 131,-103.2 10,-103.2"/>
<text text-anchor="start" x="30" y="-110.3" font-family="Helvetica,sans-Serif" font-size="11.00" fill="#000000">CREATED_BY</text>
<polygon fill="none" stroke="#000000" points="131,-103.2 131,-125.2 302,-125.2 302,-103.2 131,-103.2"/>
<text text-anchor="start" x="134" y="-110.9" font-family="Helvetica,sans-Serif" font-size="11.00" fill="#000000">number[19]</text>
<polygon fill="none" stroke="#000000" points="10,-81.2 10,-103.2 131,-103.2 131,-81.2 10,-81.2"/>
<text text-anchor="start" x="30" y="-88.3" font-family="Helvetica,sans-Serif" font-size="11.00" fill="#000000">UPDATED_AT</text>
<polygon fill="none" stroke="#000000" points="131,-81.2 131,-103.2 302,-103.2 302,-81.2 131,-81.2"/>
<text text-anchor="start" x="133.9896" y="-88.9" font-family="Helvetica,sans-Serif" font-size="11.00" fill="#000000">timestamp(6) with time zone[13,6]</text>
<polygon fill="none" stroke="#000000" points="10,-59.2 10,-81.2 131,-81.2 131,-59.2 10,-59.2"/>
<text text-anchor="start" x="30" y="-66.3" font-family="Helvetica,sans-Serif" font-size="11.00" fill="#000000">UPDATED_BY</text>
<polygon fill="none" stroke="#000000" points="131,-59.2 131,-81.2 302,-81.2 302,-59.2 131,-59.2"/>
<text text-anchor="start" x="134" y="-66.9" font-family="Helvetica,sans-Serif" font-size="11.00" fill="#000000">number[19]</text>
<polygon fill="#ffffff" stroke="transparent" points="10,-40.2 10,-59.2 62,-59.2 62,-40.2 10,-40.2"/>
<polygon fill="none" stroke="#000000" points="10,-40.2 10,-59.2 62,-59.2 62,-40.2 10,-40.2"/>
<text text-anchor="start" x="13" y="-46.3" font-family="Helvetica,sans-Serif" font-size="11.00" fill="#000000">&lt; 0</text>
<polygon fill="#ffffff" stroke="transparent" points="62,-40.2 62,-59.2 131,-59.2 131,-40.2 62,-40.2"/>
<polygon fill="none" stroke="#000000" points="62,-40.2 62,-59.2 131,-59.2 131,-40.2 62,-40.2"/>
<text text-anchor="start" x="95.6105" y="-46.3" font-family="Helvetica,sans-Serif" font-size="11.00" fill="#000000">0 rows</text>
<polygon fill="#ffffff" stroke="transparent" points="131,-40.2 131,-59.2 302,-59.2 302,-40.2 131,-40.2"/>
<polygon fill="none" stroke="#000000" points="131,-40.2 131,-59.2 302,-59.2 302,-40.2 131,-40.2"/>
<text text-anchor="start" x="283.4053" y="-46.3" font-family="Helvetica,sans-Serif" font-size="11.00" fill="#000000">1 &gt;</text>
<polygon fill="none" stroke="#000000" stroke-width="2" points="9,-39.2 9,-259.2 303,-259.2 303,-39.2 9,-39.2"/>
</a>
</g>
</g>
<!-- CLONE_FORMS_COFACTORS&#45;&gt;COFACTORS -->
<g id="edge2" class="edge">
<title>CLONE_FORMS_COFACTORS:w&#45;&gt;COFACTORS:e</title>
<path fill="none" stroke="#000000" d="M339.4805,-251.3988C326.2585,-243.1209 322.8716,-224.2 302,-224.2"/>
<polygon fill="#000000" stroke="#000000" points="345.7788,-253.1064 352.5579,-258.6745 349.6394,-254.1532 353.5,-255.2 353.5,-255.2 353.5,-255.2 349.6394,-254.1532 354.4421,-251.7255 345.7788,-253.1064 345.7788,-253.1064"/>
<ellipse fill="none" stroke="#000000" cx="342.6903" cy="-252.269" rx="3.2" ry="3.2"/>
</g>
</g>
</svg>
