<?xml version="1.0" encoding="UTF-8" standalone="no"?>
<!DOCTYPE svg PUBLIC "-//W3C//DTD SVG 1.1//EN"
 "http://www.w3.org/Graphics/SVG/1.1/DTD/svg11.dtd">
<!-- Generated by graphviz version 2.40.1 (20161225.0304)
 -->
<!-- Title: oneDegreeRelationshipsDiagram Pages: 1 -->
<svg width="609pt" height="271pt"
 viewBox="0.00 0.00 609.00 270.70" xmlns="http://www.w3.org/2000/svg" xmlns:xlink="http://www.w3.org/1999/xlink">
<g id="graph0" class="graph" transform="scale(1 1) rotate(0) translate(4 266.7)">
<title>oneDegreeRelationshipsDiagram</title>
<polygon fill="#ffffff" stroke="transparent" points="-4,4 -4,-266.7 605,-266.7 605,4 -4,4"/>
<text text-anchor="middle" x="72.4936" y="-7.3" font-family="Helvetica,sans-Serif" font-size="11.00" fill="#000000">Generated by SchemaSpy</text>
<!-- SCREENING_CONDITIONS -->
<g id="node1" class="node">
<title>SCREENING_CONDITIONS</title>
<g id="a_node1"><a xlink:href="../../tables/SCREENING_CONDITIONS.html" xlink:title="SCREENING_CONDITIONS" target="_top">
<polygon fill="#ffffff" stroke="transparent" points="355,-87.7 355,-258.7 593,-258.7 593,-87.7 355,-87.7"/>
<polygon fill="#f5f5f5" stroke="transparent" points="355,-235.2 355,-258.2 593,-258.2 593,-235.2 355,-235.2"/>
<polygon fill="none" stroke="#000000" points="355,-235.2 355,-258.2 593,-258.2 593,-235.2 355,-235.2"/>
<text text-anchor="start" x="360" y="-244.3" font-family="Helvetica,sans-Serif" font-weight="bold" font-size="11.00" fill="#000000">SCREENING_CONDITIONS</text>
<text text-anchor="start" x="558.0437" y="-243.3" font-family="Helvetica,sans-Serif" font-size="11.00" fill="#000000">[table]</text>
<polygon fill="none" stroke="#000000" points="355,-213.2 355,-235.2 593,-235.2 593,-213.2 355,-213.2"/>
<image xlink:href="../../images/primaryKeys.png" width="11px" height="12px" preserveAspectRatio="xMinYMin meet" x="360" y="-230.2"/>
<text text-anchor="start" x="375" y="-220.3" font-family="Helvetica,sans-Serif" font-size="11.00" fill="#000000">ID</text>
<polygon fill="none" stroke="#000000" points="355,-191.2 355,-213.2 593,-213.2 593,-191.2 355,-191.2"/>
<image xlink:href="../../images/foreignKeys.png" width="11px" height="12px" preserveAspectRatio="xMinYMin meet" x="360" y="-208.2"/>
<text text-anchor="start" x="375" y="-198.3" font-family="Helvetica,sans-Serif" font-size="11.00" fill="#000000">DEL_LIBRARY_ID</text>
<polygon fill="none" stroke="#000000" points="355,-169.2 355,-191.2 593,-191.2 593,-169.2 355,-169.2"/>
<image xlink:href="../../images/foreignKeys.png" width="11px" height="12px" preserveAspectRatio="xMinYMin meet" x="360" y="-186.2"/>
<text text-anchor="start" x="375" y="-176.3" font-family="Helvetica,sans-Serif" font-size="11.00" fill="#000000">SCREEN_MODE_ID</text>
<polygon fill="none" stroke="#000000" points="355,-147.2 355,-169.2 593,-169.2 593,-147.2 355,-147.2"/>
<image xlink:href="../../images/foreignKeys.png" width="11px" height="12px" preserveAspectRatio="xMinYMin meet" x="360" y="-164.2"/>
<text text-anchor="start" x="375" y="-154.3" font-family="Helvetica,sans-Serif" font-size="11.00" fill="#000000">TEMPLATE_REFERENCE_ID</text>
<polygon fill="none" stroke="#000000" points="355,-125.2 355,-147.2 593,-147.2 593,-125.2 355,-125.2"/>
<image xlink:href="../../images/foreignKeys.png" width="11px" height="12px" preserveAspectRatio="xMinYMin meet" x="360" y="-142.2"/>
<text text-anchor="start" x="375" y="-132.3" font-family="Helvetica,sans-Serif" font-size="11.00" fill="#000000">TEMPLATE_DATA_REFERENCE_ID</text>
<polygon fill="none" stroke="#000000" points="355,-106.2 355,-125.2 593,-125.2 593,-106.2 355,-106.2"/>
<text text-anchor="start" x="358" y="-112.3" font-family="Helvetica,sans-Serif" font-size="11.00" fill="#000000">...</text>
<polygon fill="#ffffff" stroke="transparent" points="355,-87.2 355,-106.2 449,-106.2 449,-87.2 355,-87.2"/>
<polygon fill="none" stroke="#000000" points="355,-87.2 355,-106.2 449,-106.2 449,-87.2 355,-87.2"/>
<text text-anchor="start" x="358" y="-93.3" font-family="Helvetica,sans-Serif" font-size="11.00" fill="#000000">&lt; 4</text>
<polygon fill="#ffffff" stroke="transparent" points="449,-87.2 449,-106.2 535,-106.2 535,-87.2 449,-87.2"/>
<polygon fill="none" stroke="#000000" points="449,-87.2 449,-106.2 535,-106.2 535,-87.2 449,-87.2"/>
<text text-anchor="start" x="487.3807" y="-93.3" font-family="Helvetica,sans-Serif" font-size="11.00" fill="#000000">128 rows</text>
<polygon fill="#ffffff" stroke="transparent" points="535,-87.2 535,-106.2 593,-106.2 593,-87.2 535,-87.2"/>
<polygon fill="none" stroke="#000000" points="535,-87.2 535,-106.2 593,-106.2 593,-87.2 535,-87.2"/>
<text text-anchor="start" x="574.4053" y="-93.3" font-family="Helvetica,sans-Serif" font-size="11.00" fill="#000000">3 &gt;</text>
</a>
</g>
</g>
<!-- DEL_LIBRARIES -->
<g id="node2" class="node">
<title>DEL_LIBRARIES</title>
<g id="a_node2"><a xlink:href="../../tables/DEL_LIBRARIES.html" xlink:title="DEL_LIBRARIES" target="_top">
<polygon fill="#ffffff" stroke="transparent" points="8,-38.2 8,-238.2 306,-238.2 306,-38.2 8,-38.2"/>
<polygon fill="#f5f5f5" stroke="transparent" points="10,-213.2 10,-236.2 304,-236.2 304,-213.2 10,-213.2"/>
<polygon fill="none" stroke="#000000" points="10,-213.2 10,-236.2 304,-236.2 304,-213.2 10,-213.2"/>
<text text-anchor="start" x="15" y="-222.3" font-family="Helvetica,sans-Serif" font-weight="bold" font-size="11.00" fill="#000000">DEL_LIBRARIES</text>
<text text-anchor="start" x="269.0437" y="-221.3" font-family="Helvetica,sans-Serif" font-size="11.00" fill="#000000">[table]</text>
<polygon fill="none" stroke="#000000" points="10,-191.2 10,-213.2 133,-213.2 133,-191.2 10,-191.2"/>
<image xlink:href="../../images/primaryKeys.png" width="11px" height="12px" preserveAspectRatio="xMinYMin meet" x="15" y="-208.2"/>
<text text-anchor="start" x="30" y="-198.3" font-family="Helvetica,sans-Serif" font-size="11.00" fill="#000000">ID</text>
<polygon fill="none" stroke="#000000" points="133,-191.2 133,-213.2 304,-213.2 304,-191.2 133,-191.2"/>
<text text-anchor="start" x="136" y="-198.9" font-family="Helvetica,sans-Serif" font-size="11.00" fill="#000000">number[19]</text>
<polygon fill="none" stroke="#000000" points="10,-169.2 10,-191.2 133,-191.2 133,-169.2 10,-169.2"/>
<text text-anchor="start" x="30" y="-176.3" font-family="Helvetica,sans-Serif" font-size="11.00" fill="#000000">CREATED_AT</text>
<polygon fill="none" stroke="#000000" points="133,-169.2 133,-191.2 304,-191.2 304,-169.2 133,-169.2"/>
<text text-anchor="start" x="135.9896" y="-176.9" font-family="Helvetica,sans-Serif" font-size="11.00" fill="#000000">timestamp(6) with time zone[13,6]</text>
<polygon fill="none" stroke="#000000" points="10,-147.2 10,-169.2 133,-169.2 133,-147.2 10,-147.2"/>
<text text-anchor="start" x="30" y="-154.3" font-family="Helvetica,sans-Serif" font-size="11.00" fill="#000000">CREATED_BY</text>
<polygon fill="none" stroke="#000000" points="133,-147.2 133,-169.2 304,-169.2 304,-147.2 133,-147.2"/>
<text text-anchor="start" x="136" y="-154.9" font-family="Helvetica,sans-Serif" font-size="11.00" fill="#000000">number[19]</text>
<polygon fill="none" stroke="#000000" points="10,-125.2 10,-147.2 133,-147.2 133,-125.2 10,-125.2"/>
<text text-anchor="start" x="30" y="-132.3" font-family="Helvetica,sans-Serif" font-size="11.00" fill="#000000">UPDATED_AT</text>
<polygon fill="none" stroke="#000000" points="133,-125.2 133,-147.2 304,-147.2 304,-125.2 133,-125.2"/>
<text text-anchor="start" x="135.9896" y="-132.9" font-family="Helvetica,sans-Serif" font-size="11.00" fill="#000000">timestamp(6) with time zone[13,6]</text>
<polygon fill="none" stroke="#000000" points="10,-103.2 10,-125.2 133,-125.2 133,-103.2 10,-103.2"/>
<text text-anchor="start" x="30" y="-110.3" font-family="Helvetica,sans-Serif" font-size="11.00" fill="#000000">UPDATED_BY</text>
<polygon fill="none" stroke="#000000" points="133,-103.2 133,-125.2 304,-125.2 304,-103.2 133,-103.2"/>
<text text-anchor="start" x="136" y="-110.9" font-family="Helvetica,sans-Serif" font-size="11.00" fill="#000000">number[19]</text>
<polygon fill="none" stroke="#000000" points="10,-81.2 10,-103.2 133,-103.2 133,-81.2 10,-81.2"/>
<image xlink:href="../../images/primaryKeys.png" width="11px" height="12px" preserveAspectRatio="xMinYMin meet" x="15" y="-98.2"/>
<text text-anchor="start" x="30" y="-88.3" font-family="Helvetica,sans-Serif" font-size="11.00" fill="#000000">TITLE</text>
<polygon fill="none" stroke="#000000" points="133,-81.2 133,-103.2 304,-103.2 304,-81.2 133,-81.2"/>
<text text-anchor="start" x="136" y="-88.9" font-family="Helvetica,sans-Serif" font-size="11.00" fill="#000000">varchar2[255]</text>
<polygon fill="none" stroke="#000000" points="10,-59.2 10,-81.2 133,-81.2 133,-59.2 10,-59.2"/>
<text text-anchor="start" x="30" y="-66.3" font-family="Helvetica,sans-Serif" font-size="11.00" fill="#000000">DESCRIPTION</text>
<polygon fill="none" stroke="#000000" points="133,-59.2 133,-81.2 304,-81.2 304,-59.2 133,-59.2"/>
<text text-anchor="start" x="136" y="-66.9" font-family="Helvetica,sans-Serif" font-size="11.00" fill="#000000">varchar2[4000]</text>
<polygon fill="#ffffff" stroke="transparent" points="10,-40.2 10,-59.2 60,-59.2 60,-40.2 10,-40.2"/>
<polygon fill="none" stroke="#000000" points="10,-40.2 10,-59.2 60,-59.2 60,-40.2 10,-40.2"/>
<text text-anchor="start" x="13" y="-46.3" font-family="Helvetica,sans-Serif" font-size="11.00" fill="#000000">&lt; 0</text>
<polygon fill="#ffffff" stroke="transparent" points="60,-40.2 60,-59.2 133,-59.2 133,-40.2 60,-40.2"/>
<polygon fill="none" stroke="#000000" points="60,-40.2 60,-59.2 133,-59.2 133,-40.2 60,-40.2"/>
<text text-anchor="start" x="91.4956" y="-46.3" font-family="Helvetica,sans-Serif" font-size="11.00" fill="#000000">23 rows</text>
<polygon fill="#ffffff" stroke="transparent" points="133,-40.2 133,-59.2 304,-59.2 304,-40.2 133,-40.2"/>
<polygon fill="none" stroke="#000000" points="133,-40.2 133,-59.2 304,-59.2 304,-40.2 133,-40.2"/>
<text text-anchor="start" x="285.4053" y="-46.3" font-family="Helvetica,sans-Serif" font-size="11.00" fill="#000000">1 &gt;</text>
<polygon fill="none" stroke="#000000" stroke-width="2" points="9,-39.2 9,-237.2 305,-237.2 305,-39.2 9,-39.2"/>
</a>
</g>
</g>
<!-- SCREENING_CONDITIONS&#45;&gt;DEL_LIBRARIES -->
<g id="edge1" class="edge">
<title>SCREENING_CONDITIONS:w&#45;&gt;DEL_LIBRARIES:e</title>
<path fill="none" stroke="#000000" d="M340.276,-202.2C328.2815,-202.2 320.8229,-202.2 304,-202.2"/>
<polygon fill="#000000" stroke="#000000" points="347,-202.2001 355,-205.8 351,-202.2 355,-202.2 355,-202.2 355,-202.2 351,-202.2 355,-198.6 347,-202.2001 347,-202.2001"/>
<ellipse fill="none" stroke="#000000" cx="343.8" cy="-202.2001" rx="3.2" ry="3.2"/>
</g>
</g>
</svg>
