<?xml version="1.0" encoding="UTF-8" standalone="no"?>
<!DOCTYPE svg PUBLIC "-//W3C//DTD SVG 1.1//EN"
 "http://www.w3.org/Graphics/SVG/1.1/DTD/svg11.dtd">
<!-- Generated by graphviz version 2.40.1 (20161225.0304)
 -->
<!-- Title: twoDegreesRelationshipsDiagram Pages: 1 -->
<svg width="947pt" height="430pt"
 viewBox="0.00 0.00 947.00 429.70" xmlns="http://www.w3.org/2000/svg" xmlns:xlink="http://www.w3.org/1999/xlink">
<g id="graph0" class="graph" transform="scale(1 1) rotate(0) translate(4 425.7)">
<title>twoDegreesRelationshipsDiagram</title>
<polygon fill="#ffffff" stroke="transparent" points="-4,4 -4,-425.7 943,-425.7 943,4 -4,4"/>
<text text-anchor="middle" x="72.4936" y="-7.3" font-family="Helvetica,sans-Serif" font-size="11.00" fill="#000000">Generated by SchemaSpy</text>
<!-- SCREENING_CONDITIONS -->
<g id="node1" class="node">
<title>SCREENING_CONDITIONS</title>
<g id="a_node1"><a xlink:href="../../tables/SCREENING_CONDITIONS.html" xlink:title="SCREENING_CONDITIONS" target="_top">
<polygon fill="#ffffff" stroke="transparent" points="355,-70.2 355,-241.2 593,-241.2 593,-70.2 355,-70.2"/>
<polygon fill="#f5f5f5" stroke="transparent" points="355,-217.7 355,-240.7 593,-240.7 593,-217.7 355,-217.7"/>
<polygon fill="none" stroke="#000000" points="355,-217.7 355,-240.7 593,-240.7 593,-217.7 355,-217.7"/>
<text text-anchor="start" x="360" y="-226.8" font-family="Helvetica,sans-Serif" font-weight="bold" font-size="11.00" fill="#000000">SCREENING_CONDITIONS</text>
<text text-anchor="start" x="558.0437" y="-225.8" font-family="Helvetica,sans-Serif" font-size="11.00" fill="#000000">[table]</text>
<polygon fill="none" stroke="#000000" points="355,-195.7 355,-217.7 593,-217.7 593,-195.7 355,-195.7"/>
<image xlink:href="../../images/primaryKeys.png" width="11px" height="12px" preserveAspectRatio="xMinYMin meet" x="360" y="-212.7"/>
<text text-anchor="start" x="375" y="-202.8" font-family="Helvetica,sans-Serif" font-size="11.00" fill="#000000">ID</text>
<polygon fill="none" stroke="#000000" points="355,-173.7 355,-195.7 593,-195.7 593,-173.7 355,-173.7"/>
<image xlink:href="../../images/foreignKeys.png" width="11px" height="12px" preserveAspectRatio="xMinYMin meet" x="360" y="-190.7"/>
<text text-anchor="start" x="375" y="-180.8" font-family="Helvetica,sans-Serif" font-size="11.00" fill="#000000">DEL_LIBRARY_ID</text>
<polygon fill="none" stroke="#000000" points="355,-151.7 355,-173.7 593,-173.7 593,-151.7 355,-151.7"/>
<image xlink:href="../../images/foreignKeys.png" width="11px" height="12px" preserveAspectRatio="xMinYMin meet" x="360" y="-168.7"/>
<text text-anchor="start" x="375" y="-158.8" font-family="Helvetica,sans-Serif" font-size="11.00" fill="#000000">SCREEN_MODE_ID</text>
<polygon fill="none" stroke="#000000" points="355,-129.7 355,-151.7 593,-151.7 593,-129.7 355,-129.7"/>
<image xlink:href="../../images/foreignKeys.png" width="11px" height="12px" preserveAspectRatio="xMinYMin meet" x="360" y="-146.7"/>
<text text-anchor="start" x="375" y="-136.8" font-family="Helvetica,sans-Serif" font-size="11.00" fill="#000000">TEMPLATE_REFERENCE_ID</text>
<polygon fill="none" stroke="#000000" points="355,-107.7 355,-129.7 593,-129.7 593,-107.7 355,-107.7"/>
<image xlink:href="../../images/foreignKeys.png" width="11px" height="12px" preserveAspectRatio="xMinYMin meet" x="360" y="-124.7"/>
<text text-anchor="start" x="375" y="-114.8" font-family="Helvetica,sans-Serif" font-size="11.00" fill="#000000">TEMPLATE_DATA_REFERENCE_ID</text>
<polygon fill="none" stroke="#000000" points="355,-88.7 355,-107.7 593,-107.7 593,-88.7 355,-88.7"/>
<text text-anchor="start" x="358" y="-94.8" font-family="Helvetica,sans-Serif" font-size="11.00" fill="#000000">...</text>
<polygon fill="#ffffff" stroke="transparent" points="355,-69.7 355,-88.7 449,-88.7 449,-69.7 355,-69.7"/>
<polygon fill="none" stroke="#000000" points="355,-69.7 355,-88.7 449,-88.7 449,-69.7 355,-69.7"/>
<text text-anchor="start" x="358" y="-75.8" font-family="Helvetica,sans-Serif" font-size="11.00" fill="#000000">&lt; 4</text>
<polygon fill="#ffffff" stroke="transparent" points="449,-69.7 449,-88.7 535,-88.7 535,-69.7 449,-69.7"/>
<polygon fill="none" stroke="#000000" points="449,-69.7 449,-88.7 535,-88.7 535,-69.7 449,-69.7"/>
<text text-anchor="start" x="487.3807" y="-75.8" font-family="Helvetica,sans-Serif" font-size="11.00" fill="#000000">128 rows</text>
<polygon fill="#ffffff" stroke="transparent" points="535,-69.7 535,-88.7 593,-88.7 593,-69.7 535,-69.7"/>
<polygon fill="none" stroke="#000000" points="535,-69.7 535,-88.7 593,-88.7 593,-69.7 535,-69.7"/>
<text text-anchor="start" x="574.4053" y="-75.8" font-family="Helvetica,sans-Serif" font-size="11.00" fill="#000000">3 &gt;</text>
</a>
</g>
</g>
<!-- DEL_LIBRARIES -->
<g id="node2" class="node">
<title>DEL_LIBRARIES</title>
<g id="a_node2"><a xlink:href="../../tables/DEL_LIBRARIES.html" xlink:title="DEL_LIBRARIES" target="_top">
<polygon fill="#ffffff" stroke="transparent" points="8,-217.7 8,-417.7 306,-417.7 306,-217.7 8,-217.7"/>
<polygon fill="#f5f5f5" stroke="transparent" points="10,-392.7 10,-415.7 304,-415.7 304,-392.7 10,-392.7"/>
<polygon fill="none" stroke="#000000" points="10,-392.7 10,-415.7 304,-415.7 304,-392.7 10,-392.7"/>
<text text-anchor="start" x="15" y="-401.8" font-family="Helvetica,sans-Serif" font-weight="bold" font-size="11.00" fill="#000000">DEL_LIBRARIES</text>
<text text-anchor="start" x="269.0437" y="-400.8" font-family="Helvetica,sans-Serif" font-size="11.00" fill="#000000">[table]</text>
<polygon fill="none" stroke="#000000" points="10,-370.7 10,-392.7 133,-392.7 133,-370.7 10,-370.7"/>
<image xlink:href="../../images/primaryKeys.png" width="11px" height="12px" preserveAspectRatio="xMinYMin meet" x="15" y="-387.7"/>
<text text-anchor="start" x="30" y="-377.8" font-family="Helvetica,sans-Serif" font-size="11.00" fill="#000000">ID</text>
<polygon fill="none" stroke="#000000" points="133,-370.7 133,-392.7 304,-392.7 304,-370.7 133,-370.7"/>
<text text-anchor="start" x="136" y="-378.4" font-family="Helvetica,sans-Serif" font-size="11.00" fill="#000000">number[19]</text>
<polygon fill="none" stroke="#000000" points="10,-348.7 10,-370.7 133,-370.7 133,-348.7 10,-348.7"/>
<text text-anchor="start" x="30" y="-355.8" font-family="Helvetica,sans-Serif" font-size="11.00" fill="#000000">CREATED_AT</text>
<polygon fill="none" stroke="#000000" points="133,-348.7 133,-370.7 304,-370.7 304,-348.7 133,-348.7"/>
<text text-anchor="start" x="135.9896" y="-356.4" font-family="Helvetica,sans-Serif" font-size="11.00" fill="#000000">timestamp(6) with time zone[13,6]</text>
<polygon fill="none" stroke="#000000" points="10,-326.7 10,-348.7 133,-348.7 133,-326.7 10,-326.7"/>
<text text-anchor="start" x="30" y="-333.8" font-family="Helvetica,sans-Serif" font-size="11.00" fill="#000000">CREATED_BY</text>
<polygon fill="none" stroke="#000000" points="133,-326.7 133,-348.7 304,-348.7 304,-326.7 133,-326.7"/>
<text text-anchor="start" x="136" y="-334.4" font-family="Helvetica,sans-Serif" font-size="11.00" fill="#000000">number[19]</text>
<polygon fill="none" stroke="#000000" points="10,-304.7 10,-326.7 133,-326.7 133,-304.7 10,-304.7"/>
<text text-anchor="start" x="30" y="-311.8" font-family="Helvetica,sans-Serif" font-size="11.00" fill="#000000">UPDATED_AT</text>
<polygon fill="none" stroke="#000000" points="133,-304.7 133,-326.7 304,-326.7 304,-304.7 133,-304.7"/>
<text text-anchor="start" x="135.9896" y="-312.4" font-family="Helvetica,sans-Serif" font-size="11.00" fill="#000000">timestamp(6) with time zone[13,6]</text>
<polygon fill="none" stroke="#000000" points="10,-282.7 10,-304.7 133,-304.7 133,-282.7 10,-282.7"/>
<text text-anchor="start" x="30" y="-289.8" font-family="Helvetica,sans-Serif" font-size="11.00" fill="#000000">UPDATED_BY</text>
<polygon fill="none" stroke="#000000" points="133,-282.7 133,-304.7 304,-304.7 304,-282.7 133,-282.7"/>
<text text-anchor="start" x="136" y="-290.4" font-family="Helvetica,sans-Serif" font-size="11.00" fill="#000000">number[19]</text>
<polygon fill="none" stroke="#000000" points="10,-260.7 10,-282.7 133,-282.7 133,-260.7 10,-260.7"/>
<image xlink:href="../../images/primaryKeys.png" width="11px" height="12px" preserveAspectRatio="xMinYMin meet" x="15" y="-277.7"/>
<text text-anchor="start" x="30" y="-267.8" font-family="Helvetica,sans-Serif" font-size="11.00" fill="#000000">TITLE</text>
<polygon fill="none" stroke="#000000" points="133,-260.7 133,-282.7 304,-282.7 304,-260.7 133,-260.7"/>
<text text-anchor="start" x="136" y="-268.4" font-family="Helvetica,sans-Serif" font-size="11.00" fill="#000000">varchar2[255]</text>
<polygon fill="none" stroke="#000000" points="10,-238.7 10,-260.7 133,-260.7 133,-238.7 10,-238.7"/>
<text text-anchor="start" x="30" y="-245.8" font-family="Helvetica,sans-Serif" font-size="11.00" fill="#000000">DESCRIPTION</text>
<polygon fill="none" stroke="#000000" points="133,-238.7 133,-260.7 304,-260.7 304,-238.7 133,-238.7"/>
<text text-anchor="start" x="136" y="-246.4" font-family="Helvetica,sans-Serif" font-size="11.00" fill="#000000">varchar2[4000]</text>
<polygon fill="#ffffff" stroke="transparent" points="10,-219.7 10,-238.7 60,-238.7 60,-219.7 10,-219.7"/>
<polygon fill="none" stroke="#000000" points="10,-219.7 10,-238.7 60,-238.7 60,-219.7 10,-219.7"/>
<text text-anchor="start" x="13" y="-225.8" font-family="Helvetica,sans-Serif" font-size="11.00" fill="#000000">&lt; 0</text>
<polygon fill="#ffffff" stroke="transparent" points="60,-219.7 60,-238.7 133,-238.7 133,-219.7 60,-219.7"/>
<polygon fill="none" stroke="#000000" points="60,-219.7 60,-238.7 133,-238.7 133,-219.7 60,-219.7"/>
<text text-anchor="start" x="91.4956" y="-225.8" font-family="Helvetica,sans-Serif" font-size="11.00" fill="#000000">23 rows</text>
<polygon fill="#ffffff" stroke="transparent" points="133,-219.7 133,-238.7 304,-238.7 304,-219.7 133,-219.7"/>
<polygon fill="none" stroke="#000000" points="133,-219.7 133,-238.7 304,-238.7 304,-219.7 133,-219.7"/>
<text text-anchor="start" x="285.4053" y="-225.8" font-family="Helvetica,sans-Serif" font-size="11.00" fill="#000000">1 &gt;</text>
<polygon fill="none" stroke="#000000" stroke-width="2" points="9,-218.7 9,-416.7 305,-416.7 305,-218.7 9,-218.7"/>
</a>
</g>
</g>
<!-- SCREENING_CONDITIONS&#45;&gt;DEL_LIBRARIES -->
<g id="edge1" class="edge">
<title>SCREENING_CONDITIONS:w&#45;&gt;DEL_LIBRARIES:e</title>
<path fill="none" stroke="#000000" d="M340.5165,-186.9124C279.9329,-208.5555 388.7894,-381.7 304,-381.7"/>
<polygon fill="#000000" stroke="#000000" points="347.0917,-185.9081 355.5436,-188.2587 351.0459,-185.304 355,-184.7 355,-184.7 355,-184.7 351.0459,-185.304 354.4564,-181.1413 347.0917,-185.9081 347.0917,-185.9081"/>
<ellipse fill="none" stroke="#000000" cx="343.9284" cy="-186.3913" rx="3.2" ry="3.2"/>
</g>
<!-- SCREEN_MODES -->
<g id="node3" class="node">
<title>SCREEN_MODES</title>
<g id="a_node3"><a xlink:href="../../tables/SCREEN_MODES.html" xlink:title="SCREEN_MODES" target="_top">
<polygon fill="#ffffff" stroke="transparent" points="89.5,-135.2 89.5,-196.2 224.5,-196.2 224.5,-135.2 89.5,-135.2"/>
<polygon fill="#f5f5f5" stroke="transparent" points="90,-172.7 90,-195.7 225,-195.7 225,-172.7 90,-172.7"/>
<polygon fill="none" stroke="#000000" points="90,-172.7 90,-195.7 225,-195.7 225,-172.7 90,-172.7"/>
<text text-anchor="start" x="94.8616" y="-181.8" font-family="Helvetica,sans-Serif" font-weight="bold" font-size="11.00" fill="#000000">SCREEN_MODES</text>
<text text-anchor="start" x="190.5219" y="-180.8" font-family="Helvetica,sans-Serif" font-size="11.00" fill="#000000">[table]</text>
<polygon fill="none" stroke="#000000" points="90,-153.7 90,-172.7 225,-172.7 225,-153.7 90,-153.7"/>
<text text-anchor="start" x="93" y="-159.8" font-family="Helvetica,sans-Serif" font-size="11.00" fill="#000000">...</text>
<polygon fill="#ffffff" stroke="transparent" points="90,-134.7 90,-153.7 131,-153.7 131,-134.7 90,-134.7"/>
<polygon fill="none" stroke="#000000" points="90,-134.7 90,-153.7 131,-153.7 131,-134.7 90,-134.7"/>
<text text-anchor="start" x="93" y="-140.8" font-family="Helvetica,sans-Serif" font-size="11.00" fill="#000000"> &#160;</text>
<polygon fill="#ffffff" stroke="transparent" points="131,-134.7 131,-153.7 189,-153.7 189,-134.7 131,-134.7"/>
<polygon fill="none" stroke="#000000" points="131,-134.7 131,-153.7 189,-153.7 189,-134.7 131,-134.7"/>
<text text-anchor="start" x="147.4956" y="-140.8" font-family="Helvetica,sans-Serif" font-size="11.00" fill="#000000">12 rows</text>
<polygon fill="#ffffff" stroke="transparent" points="189,-134.7 189,-153.7 225,-153.7 225,-134.7 189,-134.7"/>
<polygon fill="none" stroke="#000000" points="189,-134.7 189,-153.7 225,-153.7 225,-134.7 189,-134.7"/>
<text text-anchor="start" x="206.4053" y="-140.8" font-family="Helvetica,sans-Serif" font-size="11.00" fill="#000000">1 &gt;</text>
</a>
</g>
</g>
<!-- SCREENING_CONDITIONS&#45;&gt;SCREEN_MODES -->
<g id="edge2" class="edge">
<title>SCREENING_CONDITIONS:w&#45;&gt;SCREEN_MODES:e</title>
<path fill="none" stroke="#000000" d="M340.4136,-162.7C294.277,-162.7 277.5868,-162.7 225,-162.7"/>
<polygon fill="#000000" stroke="#000000" points="347,-162.7001 355,-166.3 351,-162.7 355,-162.7 355,-162.7 355,-162.7 351,-162.7 355,-159.1 347,-162.7001 347,-162.7001"/>
<ellipse fill="none" stroke="#000000" cx="343.8" cy="-162.7001" rx="3.2" ry="3.2"/>
</g>
<!-- REFERENCES -->
<g id="node4" class="node">
<title>REFERENCES</title>
<g id="a_node4"><a xlink:href="../../tables/REFERENCES.html" xlink:title="REFERENCES" target="_top">
<polygon fill="#ffffff" stroke="transparent" points="98,-53.2 98,-114.2 216,-114.2 216,-53.2 98,-53.2"/>
<polygon fill="#f5f5f5" stroke="transparent" points="98,-90.7 98,-113.7 216,-113.7 216,-90.7 98,-90.7"/>
<polygon fill="none" stroke="#000000" points="98,-90.7 98,-113.7 216,-113.7 216,-90.7 98,-90.7"/>
<text text-anchor="start" x="102.9185" y="-99.8" font-family="Helvetica,sans-Serif" font-weight="bold" font-size="11.00" fill="#000000">REFERENCES</text>
<text text-anchor="start" x="181.5219" y="-98.8" font-family="Helvetica,sans-Serif" font-size="11.00" fill="#000000">[table]</text>
<polygon fill="none" stroke="#000000" points="98,-71.7 98,-90.7 216,-90.7 216,-71.7 98,-71.7"/>
<text text-anchor="start" x="101" y="-77.8" font-family="Helvetica,sans-Serif" font-size="11.00" fill="#000000">...</text>
<polygon fill="#ffffff" stroke="transparent" points="98,-52.7 98,-71.7 124,-71.7 124,-52.7 98,-52.7"/>
<polygon fill="none" stroke="#000000" points="98,-52.7 98,-71.7 124,-71.7 124,-52.7 98,-52.7"/>
<text text-anchor="start" x="101" y="-58.8" font-family="Helvetica,sans-Serif" font-size="11.00" fill="#000000">&lt; 1</text>
<polygon fill="#ffffff" stroke="transparent" points="124,-52.7 124,-71.7 186,-71.7 186,-52.7 124,-52.7"/>
<polygon fill="none" stroke="#000000" points="124,-52.7 124,-71.7 186,-71.7 186,-52.7 124,-52.7"/>
<text text-anchor="start" x="129.2089" y="-58.8" font-family="Helvetica,sans-Serif" font-size="11.00" fill="#000000">2,900 rows</text>
<polygon fill="#ffffff" stroke="transparent" points="186,-52.7 186,-71.7 216,-71.7 216,-52.7 186,-52.7"/>
<polygon fill="none" stroke="#000000" points="186,-52.7 186,-71.7 216,-71.7 216,-52.7 186,-52.7"/>
<text text-anchor="start" x="191.2904" y="-58.8" font-family="Helvetica,sans-Serif" font-size="11.00" fill="#000000">20 &gt;</text>
</a>
</g>
</g>
<!-- SCREENING_CONDITIONS&#45;&gt;REFERENCES -->
<g id="edge3" class="edge">
<title>SCREENING_CONDITIONS:w&#45;&gt;REFERENCES:e</title>
<path fill="none" stroke="#000000" d="M340.5819,-118.008C288.8672,-112.8577 274.9162,-80.7 216,-80.7"/>
<polygon fill="#000000" stroke="#000000" points="347.0092,-118.3164 354.8274,-122.2959 351.0046,-118.5082 355,-118.7 355,-118.7 355,-118.7 351.0046,-118.5082 355.1726,-115.1041 347.0092,-118.3164 347.0092,-118.3164"/>
<ellipse fill="none" stroke="#000000" cx="343.8129" cy="-118.163" rx="3.2" ry="3.2"/>
</g>
<!-- SCREENING_CONDITIONS&#45;&gt;REFERENCES -->
<g id="edge4" class="edge">
<title>SCREENING_CONDITIONS:w&#45;&gt;REFERENCES:e</title>
<path fill="none" stroke="#000000" d="M340.8323,-136.576C306.7021,-123.0203 230.1277,-80.7 216,-80.7"/>
<polygon fill="#000000" stroke="#000000" points="347.3188,-138.4641 353.9938,-144.1565 351.1594,-139.582 355,-140.7 355,-140.7 355,-140.7 351.1594,-139.582 356.0062,-137.2435 347.3188,-138.4641 347.3188,-138.4641"/>
<ellipse fill="none" stroke="#000000" cx="344.2463" cy="-137.5697" rx="3.2" ry="3.2"/>
</g>
<!-- SCREENING_CONDITIONS_IMAGES -->
<g id="node5" class="node">
<title>SCREENING_CONDITIONS_IMAGES</title>
<g id="a_node5"><a xlink:href="../../tables/SCREENING_CONDITIONS_IMAGES.html" xlink:title="SCREENING_CONDITIONS_IMAGES" target="_top">
<polygon fill="#ffffff" stroke="transparent" points="670.5,-38.2 670.5,-99.2 902.5,-99.2 902.5,-38.2 670.5,-38.2"/>
<polygon fill="#f5f5f5" stroke="transparent" points="670.5,-75.7 670.5,-98.7 902.5,-98.7 902.5,-75.7 670.5,-75.7"/>
<polygon fill="none" stroke="#000000" points="670.5,-75.7 670.5,-98.7 902.5,-98.7 902.5,-75.7 670.5,-75.7"/>
<text text-anchor="start" x="675.2774" y="-84.8" font-family="Helvetica,sans-Serif" font-weight="bold" font-size="11.00" fill="#000000">SCREENING_CONDITIONS_IMAGES</text>
<text text-anchor="start" x="868.0219" y="-83.8" font-family="Helvetica,sans-Serif" font-size="11.00" fill="#000000">[table]</text>
<polygon fill="none" stroke="#000000" points="670.5,-56.7 670.5,-75.7 902.5,-75.7 902.5,-56.7 670.5,-56.7"/>
<text text-anchor="start" x="673.5" y="-62.8" font-family="Helvetica,sans-Serif" font-size="11.00" fill="#000000">...</text>
<polygon fill="#ffffff" stroke="transparent" points="670.5,-37.7 670.5,-56.7 765.5,-56.7 765.5,-37.7 670.5,-37.7"/>
<polygon fill="none" stroke="#000000" points="670.5,-37.7 670.5,-56.7 765.5,-56.7 765.5,-37.7 670.5,-37.7"/>
<text text-anchor="start" x="673.5" y="-43.8" font-family="Helvetica,sans-Serif" font-size="11.00" fill="#000000">&lt; 2</text>
<polygon fill="#ffffff" stroke="transparent" points="765.5,-37.7 765.5,-56.7 852.5,-56.7 852.5,-37.7 765.5,-37.7"/>
<polygon fill="none" stroke="#000000" points="765.5,-37.7 765.5,-56.7 852.5,-56.7 852.5,-37.7 765.5,-37.7"/>
<text text-anchor="start" x="804.8807" y="-43.8" font-family="Helvetica,sans-Serif" font-size="11.00" fill="#000000">680 rows</text>
<polygon fill="#ffffff" stroke="transparent" points="852.5,-37.7 852.5,-56.7 902.5,-56.7 902.5,-37.7 852.5,-37.7"/>
<polygon fill="none" stroke="#000000" points="852.5,-37.7 852.5,-56.7 902.5,-56.7 902.5,-37.7 852.5,-37.7"/>
<text text-anchor="start" x="893.3862" y="-43.8" font-family="Helvetica,sans-Serif" font-size="11.00" fill="#000000"> &#160;</text>
</a>
</g>
</g>
<!-- SCREENING_CONDITIONS_IMAGES&#45;&gt;SCREENING_CONDITIONS -->
<g id="edge6" class="edge">
<title>SCREENING_CONDITIONS_IMAGES:w&#45;&gt;SCREENING_CONDITIONS:e</title>
<path fill="none" stroke="#000000" d="M656.1184,-68.1473C608.3919,-86.8707 658.9223,-206.7 593,-206.7"/>
<polygon fill="#000000" stroke="#000000" points="662.6134,-67.0421 671.104,-69.249 666.5567,-66.3711 670.5,-65.7 670.5,-65.7 670.5,-65.7 666.5567,-66.3711 669.896,-62.151 662.6134,-67.0421 662.6134,-67.0421"/>
<ellipse fill="none" stroke="#000000" cx="659.4587" cy="-67.579" rx="3.2" ry="3.2"/>
</g>
<!-- SCREENING_CONDITIONS_IMAGES&#45;&gt;REFERENCES -->
<g id="edge5" class="edge">
<title>SCREENING_CONDITIONS_IMAGES:w&#45;&gt;REFERENCES:e</title>
<path fill="none" stroke="#000000" d="M656.0722,-65.311C636.1274,-64.1627 626.5302,-60.8 601,-59.7 488.2157,-54.8407 459.5325,-50.7374 347,-59.7 288.2206,-64.3814 274.9656,-80.7 216,-80.7"/>
<polygon fill="#000000" stroke="#000000" points="662.5029,-65.4843 670.4029,-69.2987 666.5015,-65.5922 670.5,-65.7 670.5,-65.7 670.5,-65.7 666.5015,-65.5922 670.5971,-62.1013 662.5029,-65.4843 662.5029,-65.4843"/>
<ellipse fill="none" stroke="#000000" cx="659.3041" cy="-65.398" rx="3.2" ry="3.2"/>
</g>
<!-- SCREENING_CONDITIONS_TRACER_LIGANDS -->
<g id="node6" class="node">
<title>SCREENING_CONDITIONS_TRACER_LIGANDS</title>
<g id="a_node6"><a xlink:href="../../tables/SCREENING_CONDITIONS_TRACER_LIGANDS.html" xlink:title="SCREENING_CONDITIONS_TRACER_LIGANDS" target="_top">
<polygon fill="#ffffff" stroke="transparent" points="642,-241.2 642,-302.2 931,-302.2 931,-241.2 642,-241.2"/>
<polygon fill="#f5f5f5" stroke="transparent" points="642.5,-278.7 642.5,-301.7 931.5,-301.7 931.5,-278.7 642.5,-278.7"/>
<polygon fill="none" stroke="#000000" points="642.5,-278.7 642.5,-301.7 931.5,-301.7 931.5,-278.7 642.5,-278.7"/>
<text text-anchor="start" x="647.3633" y="-287.8" font-family="Helvetica,sans-Serif" font-weight="bold" font-size="11.00" fill="#000000">SCREENING_CONDITIONS_TRACER_LIGANDS</text>
<text text-anchor="start" x="897.0219" y="-286.8" font-family="Helvetica,sans-Serif" font-size="11.00" fill="#000000">[table]</text>
<polygon fill="none" stroke="#000000" points="642.5,-259.7 642.5,-278.7 931.5,-278.7 931.5,-259.7 642.5,-259.7"/>
<text text-anchor="start" x="645.5" y="-265.8" font-family="Helvetica,sans-Serif" font-size="11.00" fill="#000000">...</text>
<polygon fill="#ffffff" stroke="transparent" points="642.5,-240.7 642.5,-259.7 769.5,-259.7 769.5,-240.7 642.5,-240.7"/>
<polygon fill="none" stroke="#000000" points="642.5,-240.7 642.5,-259.7 769.5,-259.7 769.5,-240.7 642.5,-240.7"/>
<text text-anchor="start" x="645.5" y="-246.8" font-family="Helvetica,sans-Serif" font-size="11.00" fill="#000000">&lt; 2</text>
<polygon fill="#ffffff" stroke="transparent" points="769.5,-240.7 769.5,-259.7 866.5,-259.7 866.5,-240.7 769.5,-240.7"/>
<polygon fill="none" stroke="#000000" points="769.5,-240.7 769.5,-259.7 866.5,-259.7 866.5,-240.7 769.5,-240.7"/>
<text text-anchor="start" x="824.9956" y="-246.8" font-family="Helvetica,sans-Serif" font-size="11.00" fill="#000000">26 rows</text>
<polygon fill="#ffffff" stroke="transparent" points="866.5,-240.7 866.5,-259.7 931.5,-259.7 931.5,-240.7 866.5,-240.7"/>
<polygon fill="none" stroke="#000000" points="866.5,-240.7 866.5,-259.7 931.5,-259.7 931.5,-240.7 866.5,-240.7"/>
<text text-anchor="start" x="922.3862" y="-246.8" font-family="Helvetica,sans-Serif" font-size="11.00" fill="#000000"> &#160;</text>
</a>
</g>
</g>
<!-- SCREENING_CONDITIONS_TRACER_LIGANDS&#45;&gt;SCREENING_CONDITIONS -->
<g id="edge7" class="edge">
<title>SCREENING_CONDITIONS_TRACER_LIGANDS:w&#45;&gt;SCREENING_CONDITIONS:e</title>
<path fill="none" stroke="#000000" d="M628.7351,-263.835C612.8028,-249.219 622.2002,-206.7 593,-206.7"/>
<polygon fill="#000000" stroke="#000000" points="634.9573,-266.0341 641.3003,-272.0942 638.7286,-267.367 642.5,-268.7 642.5,-268.7 642.5,-268.7 638.7286,-267.367 643.6997,-265.3058 634.9573,-266.0341 634.9573,-266.0341"/>
<ellipse fill="none" stroke="#000000" cx="631.9402" cy="-264.9677" rx="3.2" ry="3.2"/>
</g>
<!-- VERSIONS_PARTS_SCREENING_CONDITIONS -->
<g id="node7" class="node">
<title>VERSIONS_PARTS_SCREENING_CONDITIONS</title>
<g id="a_node7"><a xlink:href="../../tables/VERSIONS_PARTS_SCREENING_CONDITIONS.html" xlink:title="VERSIONS_PARTS_SCREENING_CONDITIONS" target="_top">
<polygon fill="#ffffff" stroke="transparent" points="642,-159.2 642,-220.2 931,-220.2 931,-159.2 642,-159.2"/>
<polygon fill="#f5f5f5" stroke="transparent" points="642.5,-196.7 642.5,-219.7 931.5,-219.7 931.5,-196.7 642.5,-196.7"/>
<polygon fill="none" stroke="#000000" points="642.5,-196.7 642.5,-219.7 931.5,-219.7 931.5,-196.7 642.5,-196.7"/>
<text text-anchor="start" x="647.3578" y="-205.8" font-family="Helvetica,sans-Serif" font-weight="bold" font-size="11.00" fill="#000000">VERSIONS_PARTS_SCREENING_CONDITIONS</text>
<text text-anchor="start" x="897.0219" y="-204.8" font-family="Helvetica,sans-Serif" font-size="11.00" fill="#000000">[table]</text>
<polygon fill="none" stroke="#000000" points="642.5,-177.7 642.5,-196.7 931.5,-196.7 931.5,-177.7 642.5,-177.7"/>
<text text-anchor="start" x="645.5" y="-183.8" font-family="Helvetica,sans-Serif" font-size="11.00" fill="#000000">...</text>
<polygon fill="#ffffff" stroke="transparent" points="642.5,-158.7 642.5,-177.7 766.5,-177.7 766.5,-158.7 642.5,-158.7"/>
<polygon fill="none" stroke="#000000" points="642.5,-158.7 642.5,-177.7 766.5,-177.7 766.5,-158.7 642.5,-158.7"/>
<text text-anchor="start" x="645.5" y="-164.8" font-family="Helvetica,sans-Serif" font-size="11.00" fill="#000000">&lt; 2</text>
<polygon fill="#ffffff" stroke="transparent" points="766.5,-158.7 766.5,-177.7 867.5,-177.7 867.5,-158.7 766.5,-158.7"/>
<polygon fill="none" stroke="#000000" points="766.5,-158.7 766.5,-177.7 867.5,-177.7 867.5,-158.7 766.5,-158.7"/>
<text text-anchor="start" x="819.8807" y="-164.8" font-family="Helvetica,sans-Serif" font-size="11.00" fill="#000000">415 rows</text>
<polygon fill="#ffffff" stroke="transparent" points="867.5,-158.7 867.5,-177.7 931.5,-177.7 931.5,-158.7 867.5,-158.7"/>
<polygon fill="none" stroke="#000000" points="867.5,-158.7 867.5,-177.7 931.5,-177.7 931.5,-158.7 867.5,-158.7"/>
<text text-anchor="start" x="922.3862" y="-164.8" font-family="Helvetica,sans-Serif" font-size="11.00" fill="#000000"> &#160;</text>
</a>
</g>
</g>
<!-- VERSIONS_PARTS_SCREENING_CONDITIONS&#45;&gt;SCREENING_CONDITIONS -->
<g id="edge8" class="edge">
<title>VERSIONS_PARTS_SCREENING_CONDITIONS:w&#45;&gt;SCREENING_CONDITIONS:e</title>
<path fill="none" stroke="#000000" d="M628.0922,-189.825C616.3948,-195.45 610.7959,-206.7 593,-206.7"/>
<polygon fill="#000000" stroke="#000000" points="634.6818,-188.3958 643.2631,-190.2182 638.5909,-187.5479 642.5,-186.7 642.5,-186.7 642.5,-186.7 638.5909,-187.5479 641.7369,-183.1818 634.6818,-188.3958 634.6818,-188.3958"/>
<ellipse fill="none" stroke="#000000" cx="631.5545" cy="-189.0741" rx="3.2" ry="3.2"/>
</g>
</g>
</svg>
