<?xml version="1.0" encoding="UTF-8" standalone="no"?>
<!DOCTYPE svg PUBLIC "-//W3C//DTD SVG 1.1//EN"
 "http://www.w3.org/Graphics/SVG/1.1/DTD/svg11.dtd">
<!-- Generated by graphviz version 2.40.1 (20161225.0304)
 -->
<!-- Title: oneDegreeRelationshipsDiagram Pages: 1 -->
<svg width="667pt" height="491pt"
 viewBox="0.00 0.00 667.00 490.70" xmlns="http://www.w3.org/2000/svg" xmlns:xlink="http://www.w3.org/1999/xlink">
<g id="graph0" class="graph" transform="scale(1 1) rotate(0) translate(4 486.7)">
<title>oneDegreeRelationshipsDiagram</title>
<polygon fill="#ffffff" stroke="transparent" points="-4,4 -4,-486.7 663,-486.7 663,4 -4,4"/>
<text text-anchor="middle" x="72.4936" y="-7.3" font-family="Helvetica,sans-Serif" font-size="11.00" fill="#000000">Generated by SchemaSpy</text>
<!-- TRACER_SYNTHESIS_REQUESTS -->
<g id="node1" class="node">
<title>TRACER_SYNTHESIS_REQUESTS</title>
<g id="a_node1"><a xlink:href="../../tables/TRACER_SYNTHESIS_REQUESTS.html" xlink:title="TRACER_SYNTHESIS_REQUESTS" target="_top">
<polygon fill="#ffffff" stroke="transparent" points="419,-131.7 419,-478.7 651,-478.7 651,-131.7 419,-131.7"/>
<polygon fill="#f5f5f5" stroke="transparent" points="419,-455.2 419,-478.2 651,-478.2 651,-455.2 419,-455.2"/>
<polygon fill="none" stroke="#000000" points="419,-455.2 419,-478.2 651,-478.2 651,-455.2 419,-455.2"/>
<text text-anchor="start" x="424" y="-464.3" font-family="Helvetica,sans-Serif" font-weight="bold" font-size="11.00" fill="#000000">TRACER_SYNTHESIS_REQUESTS</text>
<text text-anchor="start" x="616.0437" y="-463.3" font-family="Helvetica,sans-Serif" font-size="11.00" fill="#000000">[table]</text>
<polygon fill="none" stroke="#000000" points="419,-433.2 419,-455.2 651,-455.2 651,-433.2 419,-433.2"/>
<image xlink:href="../../images/primaryKeys.png" width="11px" height="12px" preserveAspectRatio="xMinYMin meet" x="424" y="-450.2"/>
<text text-anchor="start" x="439" y="-440.3" font-family="Helvetica,sans-Serif" font-size="11.00" fill="#000000">ID</text>
<polygon fill="none" stroke="#000000" points="419,-411.2 419,-433.2 651,-433.2 651,-411.2 419,-411.2"/>
<image xlink:href="../../images/foreignKeys.png" width="11px" height="12px" preserveAspectRatio="xMinYMin meet" x="424" y="-428.2"/>
<text text-anchor="start" x="439" y="-418.3" font-family="Helvetica,sans-Serif" font-size="11.00" fill="#000000">TRACER_TYPE_ID</text>
<polygon fill="none" stroke="#000000" points="419,-389.2 419,-411.2 651,-411.2 651,-389.2 419,-389.2"/>
<image xlink:href="../../images/foreignKeys.png" width="11px" height="12px" preserveAspectRatio="xMinYMin meet" x="424" y="-406.2"/>
<text text-anchor="start" x="439" y="-396.3" font-family="Helvetica,sans-Serif" font-size="11.00" fill="#000000">TARGET_ID</text>
<polygon fill="none" stroke="#000000" points="419,-367.2 419,-389.2 651,-389.2 651,-367.2 419,-367.2"/>
<image xlink:href="../../images/foreignKeys.png" width="11px" height="12px" preserveAspectRatio="xMinYMin meet" x="424" y="-384.2"/>
<text text-anchor="start" x="439" y="-374.3" font-family="Helvetica,sans-Serif" font-size="11.00" fill="#000000">OFF_DNA_ID</text>
<polygon fill="none" stroke="#000000" points="419,-345.2 419,-367.2 651,-367.2 651,-345.2 419,-345.2"/>
<image xlink:href="../../images/foreignKeys.png" width="11px" height="12px" preserveAspectRatio="xMinYMin meet" x="424" y="-362.2"/>
<text text-anchor="start" x="439" y="-352.3" font-family="Helvetica,sans-Serif" font-size="11.00" fill="#000000">OFF_DNA_IC50_ID</text>
<polygon fill="none" stroke="#000000" points="419,-323.2 419,-345.2 651,-345.2 651,-323.2 419,-323.2"/>
<image xlink:href="../../images/foreignKeys.png" width="11px" height="12px" preserveAspectRatio="xMinYMin meet" x="424" y="-340.2"/>
<text text-anchor="start" x="439" y="-330.3" font-family="Helvetica,sans-Serif" font-size="11.00" fill="#000000">TARGET_FORM_ID</text>
<polygon fill="none" stroke="#000000" points="419,-301.2 419,-323.2 651,-323.2 651,-301.2 419,-301.2"/>
<image xlink:href="../../images/foreignKeys.png" width="11px" height="12px" preserveAspectRatio="xMinYMin meet" x="424" y="-318.2"/>
<text text-anchor="start" x="439" y="-308.3" font-family="Helvetica,sans-Serif" font-size="11.00" fill="#000000">ASSIGNEE_ID</text>
<polygon fill="none" stroke="#000000" points="419,-279.2 419,-301.2 651,-301.2 651,-279.2 419,-279.2"/>
<image xlink:href="../../images/foreignKeys.png" width="11px" height="12px" preserveAspectRatio="xMinYMin meet" x="424" y="-296.2"/>
<text text-anchor="start" x="439" y="-286.3" font-family="Helvetica,sans-Serif" font-size="11.00" fill="#000000">TARGET_CATEGORY_ID</text>
<polygon fill="none" stroke="#000000" points="419,-257.2 419,-279.2 651,-279.2 651,-257.2 419,-257.2"/>
<image xlink:href="../../images/foreignKeys.png" width="11px" height="12px" preserveAspectRatio="xMinYMin meet" x="424" y="-274.2"/>
<text text-anchor="start" x="439" y="-264.3" font-family="Helvetica,sans-Serif" font-size="11.00" fill="#000000">CHEMISTRY_ID</text>
<polygon fill="none" stroke="#000000" points="419,-235.2 419,-257.2 651,-257.2 651,-235.2 419,-235.2"/>
<image xlink:href="../../images/foreignKeys.png" width="11px" height="12px" preserveAspectRatio="xMinYMin meet" x="424" y="-252.2"/>
<text text-anchor="start" x="439" y="-242.3" font-family="Helvetica,sans-Serif" font-size="11.00" fill="#000000">REGISTRATION_ID</text>
<polygon fill="none" stroke="#000000" points="419,-213.2 419,-235.2 651,-235.2 651,-213.2 419,-213.2"/>
<image xlink:href="../../images/foreignKeys.png" width="11px" height="12px" preserveAspectRatio="xMinYMin meet" x="424" y="-230.2"/>
<text text-anchor="start" x="439" y="-220.3" font-family="Helvetica,sans-Serif" font-size="11.00" fill="#000000">HEAD_PIECE_ID</text>
<polygon fill="none" stroke="#000000" points="419,-191.2 419,-213.2 651,-213.2 651,-191.2 419,-191.2"/>
<image xlink:href="../../images/foreignKeys.png" width="11px" height="12px" preserveAspectRatio="xMinYMin meet" x="424" y="-208.2"/>
<text text-anchor="start" x="439" y="-198.3" font-family="Helvetica,sans-Serif" font-size="11.00" fill="#000000">QUANTIFICATION_METHOD_ID</text>
<polygon fill="none" stroke="#000000" points="419,-169.2 419,-191.2 651,-191.2 651,-169.2 419,-169.2"/>
<image xlink:href="../../images/foreignKeys.png" width="11px" height="12px" preserveAspectRatio="xMinYMin meet" x="424" y="-186.2"/>
<text text-anchor="start" x="439" y="-176.3" font-family="Helvetica,sans-Serif" font-size="11.00" fill="#000000">DELIVERED_CONDITION_ID</text>
<polygon fill="none" stroke="#000000" points="419,-150.2 419,-169.2 651,-169.2 651,-150.2 419,-150.2"/>
<text text-anchor="start" x="422" y="-156.3" font-family="Helvetica,sans-Serif" font-size="11.00" fill="#000000">...</text>
<polygon fill="#ffffff" stroke="transparent" points="419,-131.2 419,-150.2 516,-150.2 516,-131.2 419,-131.2"/>
<polygon fill="none" stroke="#000000" points="419,-131.2 419,-150.2 516,-150.2 516,-131.2 419,-131.2"/>
<text text-anchor="start" x="422" y="-137.3" font-family="Helvetica,sans-Serif" font-size="11.00" fill="#000000">&lt; 12</text>
<polygon fill="#ffffff" stroke="transparent" points="516,-131.2 516,-150.2 595,-150.2 595,-131.2 516,-131.2"/>
<polygon fill="none" stroke="#000000" points="516,-131.2 516,-150.2 595,-150.2 595,-131.2 516,-131.2"/>
<text text-anchor="start" x="553.4956" y="-137.3" font-family="Helvetica,sans-Serif" font-size="11.00" fill="#000000">21 rows</text>
<polygon fill="#ffffff" stroke="transparent" points="595,-131.2 595,-150.2 651,-150.2 651,-131.2 595,-131.2"/>
<polygon fill="none" stroke="#000000" points="595,-131.2 595,-150.2 651,-150.2 651,-131.2 595,-131.2"/>
<text text-anchor="start" x="632.4053" y="-137.3" font-family="Helvetica,sans-Serif" font-size="11.00" fill="#000000">2 &gt;</text>
</a>
</g>
</g>
<!-- DELIVERED_CONDITIONS -->
<g id="node2" class="node">
<title>DELIVERED_CONDITIONS</title>
<g id="a_node2"><a xlink:href="../../tables/DELIVERED_CONDITIONS.html" xlink:title="DELIVERED_CONDITIONS" target="_top">
<polygon fill="#ffffff" stroke="transparent" points="8,-38.2 8,-216.2 370,-216.2 370,-38.2 8,-38.2"/>
<polygon fill="#f5f5f5" stroke="transparent" points="10,-191.2 10,-214.2 368,-214.2 368,-191.2 10,-191.2"/>
<polygon fill="none" stroke="#000000" points="10,-191.2 10,-214.2 368,-214.2 368,-191.2 10,-191.2"/>
<text text-anchor="start" x="15" y="-200.3" font-family="Helvetica,sans-Serif" font-weight="bold" font-size="11.00" fill="#000000">DELIVERED_CONDITIONS</text>
<text text-anchor="start" x="333.0437" y="-199.3" font-family="Helvetica,sans-Serif" font-size="11.00" fill="#000000">[table]</text>
<polygon fill="none" stroke="#000000" points="10,-169.2 10,-191.2 197,-191.2 197,-169.2 10,-169.2"/>
<image xlink:href="../../images/primaryKeys.png" width="11px" height="12px" preserveAspectRatio="xMinYMin meet" x="15" y="-186.2"/>
<text text-anchor="start" x="30" y="-176.3" font-family="Helvetica,sans-Serif" font-size="11.00" fill="#000000">ID</text>
<polygon fill="none" stroke="#000000" points="197,-169.2 197,-191.2 368,-191.2 368,-169.2 197,-169.2"/>
<text text-anchor="start" x="200" y="-176.9" font-family="Helvetica,sans-Serif" font-size="11.00" fill="#000000">number[19]</text>
<polygon fill="none" stroke="#000000" points="10,-147.2 10,-169.2 197,-169.2 197,-147.2 10,-147.2"/>
<text text-anchor="start" x="30" y="-154.3" font-family="Helvetica,sans-Serif" font-size="11.00" fill="#000000">CREATED_AT</text>
<polygon fill="none" stroke="#000000" points="197,-147.2 197,-169.2 368,-169.2 368,-147.2 197,-147.2"/>
<text text-anchor="start" x="199.9896" y="-154.9" font-family="Helvetica,sans-Serif" font-size="11.00" fill="#000000">timestamp(6) with time zone[13,6]</text>
<polygon fill="none" stroke="#000000" points="10,-125.2 10,-147.2 197,-147.2 197,-125.2 10,-125.2"/>
<text text-anchor="start" x="30" y="-132.3" font-family="Helvetica,sans-Serif" font-size="11.00" fill="#000000">CREATED_BY</text>
<polygon fill="none" stroke="#000000" points="197,-125.2 197,-147.2 368,-147.2 368,-125.2 197,-125.2"/>
<text text-anchor="start" x="200" y="-132.9" font-family="Helvetica,sans-Serif" font-size="11.00" fill="#000000">number[19]</text>
<polygon fill="none" stroke="#000000" points="10,-103.2 10,-125.2 197,-125.2 197,-103.2 10,-103.2"/>
<text text-anchor="start" x="30" y="-110.3" font-family="Helvetica,sans-Serif" font-size="11.00" fill="#000000">UPDATED_AT</text>
<polygon fill="none" stroke="#000000" points="197,-103.2 197,-125.2 368,-125.2 368,-103.2 197,-103.2"/>
<text text-anchor="start" x="199.9896" y="-110.9" font-family="Helvetica,sans-Serif" font-size="11.00" fill="#000000">timestamp(6) with time zone[13,6]</text>
<polygon fill="none" stroke="#000000" points="10,-81.2 10,-103.2 197,-103.2 197,-81.2 10,-81.2"/>
<text text-anchor="start" x="30" y="-88.3" font-family="Helvetica,sans-Serif" font-size="11.00" fill="#000000">UPDATED_BY</text>
<polygon fill="none" stroke="#000000" points="197,-81.2 197,-103.2 368,-103.2 368,-81.2 197,-81.2"/>
<text text-anchor="start" x="200" y="-88.9" font-family="Helvetica,sans-Serif" font-size="11.00" fill="#000000">number[19]</text>
<polygon fill="none" stroke="#000000" points="10,-59.2 10,-81.2 197,-81.2 197,-59.2 10,-59.2"/>
<text text-anchor="start" x="30" y="-66.3" font-family="Helvetica,sans-Serif" font-size="11.00" fill="#000000">NAME</text>
<polygon fill="none" stroke="#000000" points="197,-59.2 197,-81.2 368,-81.2 368,-59.2 197,-59.2"/>
<text text-anchor="start" x="200" y="-66.9" font-family="Helvetica,sans-Serif" font-size="11.00" fill="#000000">varchar2[255]</text>
<polygon fill="#ffffff" stroke="transparent" points="10,-40.2 10,-59.2 95,-59.2 95,-40.2 10,-40.2"/>
<polygon fill="none" stroke="#000000" points="10,-40.2 10,-59.2 95,-59.2 95,-40.2 10,-40.2"/>
<text text-anchor="start" x="13" y="-46.3" font-family="Helvetica,sans-Serif" font-size="11.00" fill="#000000">&lt; 0</text>
<polygon fill="#ffffff" stroke="transparent" points="95,-40.2 95,-59.2 197,-59.2 197,-40.2 95,-40.2"/>
<polygon fill="none" stroke="#000000" points="95,-40.2 95,-59.2 197,-59.2 197,-40.2 95,-40.2"/>
<text text-anchor="start" x="161.6105" y="-46.3" font-family="Helvetica,sans-Serif" font-size="11.00" fill="#000000">4 rows</text>
<polygon fill="#ffffff" stroke="transparent" points="197,-40.2 197,-59.2 368,-59.2 368,-40.2 197,-40.2"/>
<polygon fill="none" stroke="#000000" points="197,-40.2 197,-59.2 368,-59.2 368,-40.2 197,-40.2"/>
<text text-anchor="start" x="349.4053" y="-46.3" font-family="Helvetica,sans-Serif" font-size="11.00" fill="#000000">1 &gt;</text>
<polygon fill="none" stroke="#000000" stroke-width="2" points="9,-39.2 9,-215.2 369,-215.2 369,-39.2 9,-39.2"/>
</a>
</g>
</g>
<!-- TRACER_SYNTHESIS_REQUESTS&#45;&gt;DELIVERED_CONDITIONS -->
<g id="edge1" class="edge">
<title>TRACER_SYNTHESIS_REQUESTS:w&#45;&gt;DELIVERED_CONDITIONS:e</title>
<path fill="none" stroke="#000000" d="M404.276,-180.2C392.2815,-180.2 384.8229,-180.2 368,-180.2"/>
<polygon fill="#000000" stroke="#000000" points="411,-180.2001 419,-183.8 415,-180.2 419,-180.2 419,-180.2 419,-180.2 415,-180.2 419,-176.6 411,-180.2001 411,-180.2001"/>
<ellipse fill="none" stroke="#000000" cx="407.8" cy="-180.2001" rx="3.2" ry="3.2"/>
</g>
</g>
</svg>
