<?xml version="1.0" encoding="UTF-8" standalone="no"?>
<!DOCTYPE svg PUBLIC "-//W3C//DTD SVG 1.1//EN"
 "http://www.w3.org/Graphics/SVG/1.1/DTD/svg11.dtd">
<!-- Generated by graphviz version 2.40.1 (20161225.0304)
 -->
<!-- Title: oneDegreeRelationshipsDiagram Pages: 1 -->
<svg width="1025pt" height="459pt"
 viewBox="0.00 0.00 1025.00 458.70" xmlns="http://www.w3.org/2000/svg" xmlns:xlink="http://www.w3.org/1999/xlink">
<g id="graph0" class="graph" transform="scale(1 1) rotate(0) translate(4 454.7)">
<title>oneDegreeRelationshipsDiagram</title>
<polygon fill="#ffffff" stroke="transparent" points="-4,4 -4,-454.7 1021,-454.7 1021,4 -4,4"/>
<text text-anchor="middle" x="72.4936" y="-7.3" font-family="Helvetica,sans-Serif" font-size="11.00" fill="#000000">Generated by SchemaSpy</text>
<!-- DNA_ATTACHMENT_SITES_REFERENCES -->
<g id="node1" class="node">
<title>DNA_ATTACHMENT_SITES_REFERENCES</title>
<g id="a_node1"><a xlink:href="../../tables/DNA_ATTACHMENT_SITES_REFERENCES.html" xlink:title="DNA_ATTACHMENT_SITES_REFERENCES" target="_top">
<polygon fill="#ffffff" stroke="transparent" points="549,-224.7 549,-446.7 1009,-446.7 1009,-224.7 549,-224.7"/>
<polygon fill="#f5f5f5" stroke="transparent" points="551,-421.7 551,-444.7 1007,-444.7 1007,-421.7 551,-421.7"/>
<polygon fill="none" stroke="#000000" points="551,-421.7 551,-444.7 1007,-444.7 1007,-421.7 551,-421.7"/>
<text text-anchor="start" x="556" y="-430.8" font-family="Helvetica,sans-Serif" font-weight="bold" font-size="11.00" fill="#000000">DNA_ATTACHMENT_SITES_REFERENCES</text>
<text text-anchor="start" x="972.0437" y="-429.8" font-family="Helvetica,sans-Serif" font-size="11.00" fill="#000000">[table]</text>
<polygon fill="none" stroke="#000000" points="551,-399.7 551,-421.7 836,-421.7 836,-399.7 551,-399.7"/>
<image xlink:href="../../images/primaryKeys.png" width="11px" height="12px" preserveAspectRatio="xMinYMin meet" x="556" y="-416.7"/>
<text text-anchor="start" x="571" y="-406.8" font-family="Helvetica,sans-Serif" font-size="11.00" fill="#000000">ID</text>
<polygon fill="none" stroke="#000000" points="836,-399.7 836,-421.7 1007,-421.7 1007,-399.7 836,-399.7"/>
<text text-anchor="start" x="839" y="-407.4" font-family="Helvetica,sans-Serif" font-size="11.00" fill="#000000">number[19]</text>
<polygon fill="none" stroke="#000000" points="551,-377.7 551,-399.7 836,-399.7 836,-377.7 551,-377.7"/>
<text text-anchor="start" x="571" y="-384.8" font-family="Helvetica,sans-Serif" font-size="11.00" fill="#000000">CREATED_AT</text>
<polygon fill="none" stroke="#000000" points="836,-377.7 836,-399.7 1007,-399.7 1007,-377.7 836,-377.7"/>
<text text-anchor="start" x="838.9896" y="-385.4" font-family="Helvetica,sans-Serif" font-size="11.00" fill="#000000">timestamp(6) with time zone[13,6]</text>
<polygon fill="none" stroke="#000000" points="551,-355.7 551,-377.7 836,-377.7 836,-355.7 551,-355.7"/>
<text text-anchor="start" x="571" y="-362.8" font-family="Helvetica,sans-Serif" font-size="11.00" fill="#000000">CREATED_BY</text>
<polygon fill="none" stroke="#000000" points="836,-355.7 836,-377.7 1007,-377.7 1007,-355.7 836,-355.7"/>
<text text-anchor="start" x="839" y="-363.4" font-family="Helvetica,sans-Serif" font-size="11.00" fill="#000000">number[19]</text>
<polygon fill="none" stroke="#000000" points="551,-333.7 551,-355.7 836,-355.7 836,-333.7 551,-333.7"/>
<text text-anchor="start" x="571" y="-340.8" font-family="Helvetica,sans-Serif" font-size="11.00" fill="#000000">UPDATED_AT</text>
<polygon fill="none" stroke="#000000" points="836,-333.7 836,-355.7 1007,-355.7 1007,-333.7 836,-333.7"/>
<text text-anchor="start" x="838.9896" y="-341.4" font-family="Helvetica,sans-Serif" font-size="11.00" fill="#000000">timestamp(6) with time zone[13,6]</text>
<polygon fill="none" stroke="#000000" points="551,-311.7 551,-333.7 836,-333.7 836,-311.7 551,-311.7"/>
<text text-anchor="start" x="571" y="-318.8" font-family="Helvetica,sans-Serif" font-size="11.00" fill="#000000">UPDATED_BY</text>
<polygon fill="none" stroke="#000000" points="836,-311.7 836,-333.7 1007,-333.7 1007,-311.7 836,-311.7"/>
<text text-anchor="start" x="839" y="-319.4" font-family="Helvetica,sans-Serif" font-size="11.00" fill="#000000">number[19]</text>
<polygon fill="none" stroke="#000000" points="551,-289.7 551,-311.7 836,-311.7 836,-289.7 551,-289.7"/>
<image xlink:href="../../images/foreignKeys.png" width="11px" height="12px" preserveAspectRatio="xMinYMin meet" x="556" y="-306.7"/>
<text text-anchor="start" x="571" y="-296.8" font-family="Helvetica,sans-Serif" font-size="11.00" fill="#000000">DNA_ATTACHMENT_SITE_ID</text>
<polygon fill="none" stroke="#000000" points="836,-289.7 836,-311.7 1007,-311.7 1007,-289.7 836,-289.7"/>
<text text-anchor="start" x="839" y="-297.4" font-family="Helvetica,sans-Serif" font-size="11.00" fill="#000000">number[19]</text>
<polygon fill="none" stroke="#000000" points="551,-267.7 551,-289.7 836,-289.7 836,-267.7 551,-267.7"/>
<image xlink:href="../../images/foreignKeys.png" width="11px" height="12px" preserveAspectRatio="xMinYMin meet" x="556" y="-284.7"/>
<text text-anchor="start" x="571" y="-274.8" font-family="Helvetica,sans-Serif" font-size="11.00" fill="#000000">REFERENCE_ID</text>
<polygon fill="none" stroke="#000000" points="836,-267.7 836,-289.7 1007,-289.7 1007,-267.7 836,-267.7"/>
<text text-anchor="start" x="839" y="-275.4" font-family="Helvetica,sans-Serif" font-size="11.00" fill="#000000">number[19]</text>
<polygon fill="none" stroke="#000000" points="551,-245.7 551,-267.7 836,-267.7 836,-245.7 551,-245.7"/>
<image xlink:href="../../images/foreignKeys.png" width="11px" height="12px" preserveAspectRatio="xMinYMin meet" x="556" y="-262.7"/>
<text text-anchor="start" x="571" y="-252.8" font-family="Helvetica,sans-Serif" font-size="11.00" fill="#000000">TRACER_LIGAND_ID</text>
<polygon fill="none" stroke="#000000" points="836,-245.7 836,-267.7 1007,-267.7 1007,-245.7 836,-245.7"/>
<text text-anchor="start" x="839" y="-253.4" font-family="Helvetica,sans-Serif" font-size="11.00" fill="#000000">number[19]</text>
<polygon fill="#ffffff" stroke="transparent" points="551,-226.7 551,-245.7 682,-245.7 682,-226.7 551,-226.7"/>
<polygon fill="none" stroke="#000000" points="551,-226.7 551,-245.7 682,-245.7 682,-226.7 551,-226.7"/>
<text text-anchor="start" x="554" y="-232.8" font-family="Helvetica,sans-Serif" font-size="11.00" fill="#000000">&lt; 3</text>
<polygon fill="#ffffff" stroke="transparent" points="682,-226.7 682,-245.7 836,-245.7 836,-226.7 682,-226.7"/>
<polygon fill="none" stroke="#000000" points="682,-226.7 682,-245.7 836,-245.7 836,-226.7 682,-226.7"/>
<text text-anchor="start" x="794.4956" y="-232.8" font-family="Helvetica,sans-Serif" font-size="11.00" fill="#000000">29 rows</text>
<polygon fill="#ffffff" stroke="transparent" points="836,-226.7 836,-245.7 1007,-245.7 1007,-226.7 836,-226.7"/>
<polygon fill="none" stroke="#000000" points="836,-226.7 836,-245.7 1007,-245.7 1007,-226.7 836,-226.7"/>
<text text-anchor="start" x="988.4053" y="-232.8" font-family="Helvetica,sans-Serif" font-size="11.00" fill="#000000">0 &gt;</text>
<polygon fill="none" stroke="#000000" stroke-width="2" points="550,-225.7 550,-445.7 1008,-445.7 1008,-225.7 550,-225.7"/>
</a>
</g>
</g>
<!-- DNA_ATTACHMENT_SITES -->
<g id="node2" class="node">
<title>DNA_ATTACHMENT_SITES</title>
<g id="a_node2"><a xlink:href="../../tables/DNA_ATTACHMENT_SITES.html" xlink:title="DNA_ATTACHMENT_SITES" target="_top">
<polygon fill="#ffffff" stroke="transparent" points="8,-163.2 8,-246.2 200,-246.2 200,-163.2 8,-163.2"/>
<polygon fill="#f5f5f5" stroke="transparent" points="8,-222.7 8,-245.7 200,-245.7 200,-222.7 8,-222.7"/>
<polygon fill="none" stroke="#000000" points="8,-222.7 8,-245.7 200,-245.7 200,-222.7 8,-222.7"/>
<text text-anchor="start" x="13" y="-231.8" font-family="Helvetica,sans-Serif" font-weight="bold" font-size="11.00" fill="#000000">DNA_ATTACHMENT_SITES</text>
<text text-anchor="start" x="165.0437" y="-230.8" font-family="Helvetica,sans-Serif" font-size="11.00" fill="#000000">[table]</text>
<polygon fill="none" stroke="#000000" points="8,-200.7 8,-222.7 200,-222.7 200,-200.7 8,-200.7"/>
<image xlink:href="../../images/primaryKeys.png" width="11px" height="12px" preserveAspectRatio="xMinYMin meet" x="13" y="-217.7"/>
<text text-anchor="start" x="28" y="-207.8" font-family="Helvetica,sans-Serif" font-size="11.00" fill="#000000">ID</text>
<polygon fill="none" stroke="#000000" points="8,-181.7 8,-200.7 200,-200.7 200,-181.7 8,-181.7"/>
<text text-anchor="start" x="11" y="-187.8" font-family="Helvetica,sans-Serif" font-size="11.00" fill="#000000">...</text>
<polygon fill="#ffffff" stroke="transparent" points="8,-162.7 8,-181.7 80,-181.7 80,-162.7 8,-162.7"/>
<polygon fill="none" stroke="#000000" points="8,-162.7 8,-181.7 80,-181.7 80,-162.7 8,-162.7"/>
<text text-anchor="start" x="11" y="-168.8" font-family="Helvetica,sans-Serif" font-size="11.00" fill="#000000"> &#160;</text>
<polygon fill="#ffffff" stroke="transparent" points="80,-162.7 80,-181.7 148,-181.7 148,-162.7 80,-162.7"/>
<polygon fill="none" stroke="#000000" points="80,-162.7 80,-181.7 148,-181.7 148,-162.7 80,-162.7"/>
<text text-anchor="start" x="112.6105" y="-168.8" font-family="Helvetica,sans-Serif" font-size="11.00" fill="#000000">7 rows</text>
<polygon fill="#ffffff" stroke="transparent" points="148,-162.7 148,-181.7 200,-181.7 200,-162.7 148,-162.7"/>
<polygon fill="none" stroke="#000000" points="148,-162.7 148,-181.7 200,-181.7 200,-162.7 148,-162.7"/>
<text text-anchor="start" x="181.4053" y="-168.8" font-family="Helvetica,sans-Serif" font-size="11.00" fill="#000000">2 &gt;</text>
</a>
</g>
</g>
<!-- DNA_ATTACHMENT_SITES_REFERENCES&#45;&gt;DNA_ATTACHMENT_SITES -->
<g id="edge1" class="edge">
<title>DNA_ATTACHMENT_SITES_REFERENCES:w&#45;&gt;DNA_ATTACHMENT_SITES:e</title>
<path fill="none" stroke="#000000" d="M536.8479,-304.2359C527.517,-309.6878 523.1102,-319.9128 508,-323.7 392.8938,-352.5503 338.2691,-391.6743 241,-323.7 197.55,-293.336 253.0083,-211.7 200,-211.7"/>
<polygon fill="#000000" stroke="#000000" points="543.2386,-302.6392 551.8727,-304.1926 547.1193,-301.6696 551,-300.7 551,-300.7 551,-300.7 547.1193,-301.6696 550.1273,-297.2074 543.2386,-302.6392 543.2386,-302.6392"/>
<ellipse fill="none" stroke="#000000" cx="540.134" cy="-303.4149" rx="3.2" ry="3.2"/>
</g>
<!-- REFERENCES -->
<g id="node3" class="node">
<title>REFERENCES</title>
<g id="a_node3"><a xlink:href="../../tables/REFERENCES.html" xlink:title="REFERENCES" target="_top">
<polygon fill="#ffffff" stroke="transparent" points="310.5,-208.2 310.5,-313.2 438.5,-313.2 438.5,-208.2 310.5,-208.2"/>
<polygon fill="#f5f5f5" stroke="transparent" points="310.5,-289.7 310.5,-312.7 438.5,-312.7 438.5,-289.7 310.5,-289.7"/>
<polygon fill="none" stroke="#000000" points="310.5,-289.7 310.5,-312.7 438.5,-312.7 438.5,-289.7 310.5,-289.7"/>
<text text-anchor="start" x="315.5" y="-298.8" font-family="Helvetica,sans-Serif" font-weight="bold" font-size="11.00" fill="#000000">REFERENCES</text>
<text text-anchor="start" x="403.5437" y="-297.8" font-family="Helvetica,sans-Serif" font-size="11.00" fill="#000000">[table]</text>
<polygon fill="none" stroke="#000000" points="310.5,-267.7 310.5,-289.7 438.5,-289.7 438.5,-267.7 310.5,-267.7"/>
<image xlink:href="../../images/primaryKeys.png" width="11px" height="12px" preserveAspectRatio="xMinYMin meet" x="315.5" y="-284.7"/>
<text text-anchor="start" x="330.5" y="-274.8" font-family="Helvetica,sans-Serif" font-size="11.00" fill="#000000">ID</text>
<polygon fill="none" stroke="#000000" points="310.5,-245.7 310.5,-267.7 438.5,-267.7 438.5,-245.7 310.5,-245.7"/>
<image xlink:href="../../images/foreignKeys.png" width="11px" height="12px" preserveAspectRatio="xMinYMin meet" x="315.5" y="-262.7"/>
<text text-anchor="start" x="330.5" y="-252.8" font-family="Helvetica,sans-Serif" font-size="11.00" fill="#000000">USER_ID</text>
<polygon fill="none" stroke="#000000" points="310.5,-226.7 310.5,-245.7 438.5,-245.7 438.5,-226.7 310.5,-226.7"/>
<text text-anchor="start" x="313.5" y="-232.8" font-family="Helvetica,sans-Serif" font-size="11.00" fill="#000000">...</text>
<polygon fill="#ffffff" stroke="transparent" points="310.5,-207.7 310.5,-226.7 341.5,-226.7 341.5,-207.7 310.5,-207.7"/>
<polygon fill="none" stroke="#000000" points="310.5,-207.7 310.5,-226.7 341.5,-226.7 341.5,-207.7 310.5,-207.7"/>
<text text-anchor="start" x="313.5" y="-213.8" font-family="Helvetica,sans-Serif" font-size="11.00" fill="#000000">&lt; 1</text>
<polygon fill="#ffffff" stroke="transparent" points="341.5,-207.7 341.5,-226.7 405.5,-226.7 405.5,-207.7 341.5,-207.7"/>
<polygon fill="none" stroke="#000000" points="341.5,-207.7 341.5,-226.7 405.5,-226.7 405.5,-207.7 341.5,-207.7"/>
<text text-anchor="start" x="348.7089" y="-213.8" font-family="Helvetica,sans-Serif" font-size="11.00" fill="#000000">2,900 rows</text>
<polygon fill="#ffffff" stroke="transparent" points="405.5,-207.7 405.5,-226.7 438.5,-226.7 438.5,-207.7 405.5,-207.7"/>
<polygon fill="none" stroke="#000000" points="405.5,-207.7 405.5,-226.7 438.5,-226.7 438.5,-207.7 405.5,-207.7"/>
<text text-anchor="start" x="413.7904" y="-213.8" font-family="Helvetica,sans-Serif" font-size="11.00" fill="#000000">20 &gt;</text>
</a>
</g>
</g>
<!-- DNA_ATTACHMENT_SITES_REFERENCES&#45;&gt;REFERENCES -->
<g id="edge2" class="edge">
<title>DNA_ATTACHMENT_SITES_REFERENCES:w&#45;&gt;REFERENCES:e</title>
<path fill="none" stroke="#000000" d="M536.595,-278.7C498.0103,-278.7 483.3242,-278.7 438.5,-278.7"/>
<polygon fill="#000000" stroke="#000000" points="543,-278.7001 551,-282.3 547,-278.7 551,-278.7 551,-278.7 551,-278.7 547,-278.7 551,-275.1 543,-278.7001 543,-278.7001"/>
<ellipse fill="none" stroke="#000000" cx="539.8" cy="-278.7001" rx="3.2" ry="3.2"/>
</g>
<!-- TRACER_LIGANDS -->
<g id="node4" class="node">
<title>TRACER_LIGANDS</title>
<g id="a_node4"><a xlink:href="../../tables/TRACER_LIGANDS.html" xlink:title="TRACER_LIGANDS" target="_top">
<polygon fill="#ffffff" stroke="transparent" points="249,-38.2 249,-187.2 500,-187.2 500,-38.2 249,-38.2"/>
<polygon fill="#f5f5f5" stroke="transparent" points="249.5,-163.7 249.5,-186.7 500.5,-186.7 500.5,-163.7 249.5,-163.7"/>
<polygon fill="none" stroke="#000000" points="249.5,-163.7 249.5,-186.7 500.5,-186.7 500.5,-163.7 249.5,-163.7"/>
<text text-anchor="start" x="254.5" y="-172.8" font-family="Helvetica,sans-Serif" font-weight="bold" font-size="11.00" fill="#000000">TRACER_LIGANDS</text>
<text text-anchor="start" x="465.5437" y="-171.8" font-family="Helvetica,sans-Serif" font-size="11.00" fill="#000000">[table]</text>
<polygon fill="none" stroke="#000000" points="249.5,-141.7 249.5,-163.7 500.5,-163.7 500.5,-141.7 249.5,-141.7"/>
<image xlink:href="../../images/primaryKeys.png" width="11px" height="12px" preserveAspectRatio="xMinYMin meet" x="254.5" y="-158.7"/>
<text text-anchor="start" x="269.5" y="-148.8" font-family="Helvetica,sans-Serif" font-size="11.00" fill="#000000">ID</text>
<polygon fill="none" stroke="#000000" points="249.5,-119.7 249.5,-141.7 500.5,-141.7 500.5,-119.7 249.5,-119.7"/>
<image xlink:href="../../images/foreignKeys.png" width="11px" height="12px" preserveAspectRatio="xMinYMin meet" x="254.5" y="-136.7"/>
<text text-anchor="start" x="269.5" y="-126.8" font-family="Helvetica,sans-Serif" font-size="11.00" fill="#000000">TYPE_ID</text>
<polygon fill="none" stroke="#000000" points="249.5,-97.7 249.5,-119.7 500.5,-119.7 500.5,-97.7 249.5,-97.7"/>
<image xlink:href="../../images/foreignKeys.png" width="11px" height="12px" preserveAspectRatio="xMinYMin meet" x="254.5" y="-114.7"/>
<text text-anchor="start" x="269.5" y="-104.8" font-family="Helvetica,sans-Serif" font-size="11.00" fill="#000000">TRACER_SYNTHESIS_SCIENTIST_ID</text>
<polygon fill="none" stroke="#000000" points="249.5,-75.7 249.5,-97.7 500.5,-97.7 500.5,-75.7 249.5,-75.7"/>
<image xlink:href="../../images/foreignKeys.png" width="11px" height="12px" preserveAspectRatio="xMinYMin meet" x="254.5" y="-92.7"/>
<text text-anchor="start" x="269.5" y="-82.8" font-family="Helvetica,sans-Serif" font-size="11.00" fill="#000000">DNA_ATTACHMENT_SITE_ID</text>
<polygon fill="none" stroke="#000000" points="249.5,-56.7 249.5,-75.7 500.5,-75.7 500.5,-56.7 249.5,-56.7"/>
<text text-anchor="start" x="252.5" y="-62.8" font-family="Helvetica,sans-Serif" font-size="11.00" fill="#000000">...</text>
<polygon fill="#ffffff" stroke="transparent" points="249.5,-37.7 249.5,-56.7 349.5,-56.7 349.5,-37.7 249.5,-37.7"/>
<polygon fill="none" stroke="#000000" points="249.5,-37.7 249.5,-56.7 349.5,-56.7 349.5,-37.7 249.5,-37.7"/>
<text text-anchor="start" x="252.5" y="-43.8" font-family="Helvetica,sans-Serif" font-size="11.00" fill="#000000">&lt; 3</text>
<polygon fill="#ffffff" stroke="transparent" points="349.5,-37.7 349.5,-56.7 439.5,-56.7 439.5,-37.7 349.5,-37.7"/>
<polygon fill="none" stroke="#000000" points="349.5,-37.7 349.5,-56.7 439.5,-56.7 439.5,-37.7 349.5,-37.7"/>
<text text-anchor="start" x="391.8807" y="-43.8" font-family="Helvetica,sans-Serif" font-size="11.00" fill="#000000">416 rows</text>
<polygon fill="#ffffff" stroke="transparent" points="439.5,-37.7 439.5,-56.7 500.5,-56.7 500.5,-37.7 439.5,-37.7"/>
<polygon fill="none" stroke="#000000" points="439.5,-37.7 439.5,-56.7 500.5,-56.7 500.5,-37.7 439.5,-37.7"/>
<text text-anchor="start" x="481.9053" y="-43.8" font-family="Helvetica,sans-Serif" font-size="11.00" fill="#000000">7 &gt;</text>
</a>
</g>
</g>
<!-- DNA_ATTACHMENT_SITES_REFERENCES&#45;&gt;TRACER_LIGANDS -->
<g id="edge3" class="edge">
<title>DNA_ATTACHMENT_SITES_REFERENCES:w&#45;&gt;TRACER_LIGANDS:e</title>
<path fill="none" stroke="#000000" d="M536.8722,-252.7501C510.4433,-233.7532 545.8618,-152.7 500.5,-152.7"/>
<polygon fill="#000000" stroke="#000000" points="543.2955,-254.5459 550.0306,-260.167 547.1477,-255.6229 551,-256.7 551,-256.7 551,-256.7 547.1477,-255.6229 551.9694,-253.233 543.2955,-254.5459 543.2955,-254.5459"/>
<ellipse fill="none" stroke="#000000" cx="540.2136" cy="-253.6842" rx="3.2" ry="3.2"/>
</g>
<!-- TRACER_LIGANDS&#45;&gt;DNA_ATTACHMENT_SITES -->
<g id="edge4" class="edge">
<title>TRACER_LIGANDS:w&#45;&gt;DNA_ATTACHMENT_SITES:e</title>
<path fill="none" stroke="#000000" d="M235.465,-90.0434C202.1826,-109.922 253.9177,-211.7 200,-211.7"/>
<polygon fill="#000000" stroke="#000000" points="241.7178,-88.5539 250.3343,-90.202 245.6089,-87.627 249.5,-86.7 249.5,-86.7 249.5,-86.7 245.6089,-87.627 248.6657,-83.198 241.7178,-88.5539 241.7178,-88.5539"/>
<ellipse fill="none" stroke="#000000" cx="238.6049" cy="-89.2955" rx="3.2" ry="3.2"/>
</g>
</g>
</svg>
