<?xml version="1.0" encoding="UTF-8" standalone="no"?>
<!DOCTYPE svg PUBLIC "-//W3C//DTD SVG 1.1//EN"
 "http://www.w3.org/Graphics/SVG/1.1/DTD/svg11.dtd">
<!-- Generated by graphviz version 2.40.1 (20161225.0304)
 -->
<!-- Title: twoDegreesRelationshipsDiagram Pages: 1 -->
<svg width="1430pt" height="1534pt"
 viewBox="0.00 0.00 1430.00 1534.09" xmlns="http://www.w3.org/2000/svg" xmlns:xlink="http://www.w3.org/1999/xlink">
<g id="graph0" class="graph" transform="scale(1 1) rotate(0) translate(4 1530.0921)">
<title>twoDegreesRelationshipsDiagram</title>
<polygon fill="#ffffff" stroke="transparent" points="-4,4 -4,-1530.0921 1426,-1530.0921 1426,4 -4,4"/>
<text text-anchor="middle" x="72.4936" y="-7.3" font-family="Helvetica,sans-Serif" font-size="11.00" fill="#000000">Generated by SchemaSpy</text>
<!-- CLONE_FORMS -->
<g id="node1" class="node">
<title>CLONE_FORMS</title>
<g id="a_node1"><a xlink:href="../../tables/CLONE_FORMS.html" xlink:title="CLONE_FORMS" target="_top">
<polygon fill="#ffffff" stroke="transparent" points="996.5,-121.0921 996.5,-182.0921 1122.5,-182.0921 1122.5,-121.0921 996.5,-121.0921"/>
<polygon fill="#f5f5f5" stroke="transparent" points="996.5,-158.5921 996.5,-181.5921 1122.5,-181.5921 1122.5,-158.5921 996.5,-158.5921"/>
<polygon fill="none" stroke="#000000" points="996.5,-158.5921 996.5,-181.5921 1122.5,-181.5921 1122.5,-158.5921 996.5,-158.5921"/>
<text text-anchor="start" x="1001.1401" y="-167.6921" font-family="Helvetica,sans-Serif" font-weight="bold" font-size="11.00" fill="#000000">CLONE_FORMS</text>
<text text-anchor="start" x="1088.0219" y="-166.6921" font-family="Helvetica,sans-Serif" font-size="11.00" fill="#000000">[table]</text>
<polygon fill="none" stroke="#000000" points="996.5,-139.5921 996.5,-158.5921 1122.5,-158.5921 1122.5,-139.5921 996.5,-139.5921"/>
<text text-anchor="start" x="999.5" y="-145.6921" font-family="Helvetica,sans-Serif" font-size="11.00" fill="#000000">...</text>
<polygon fill="#ffffff" stroke="transparent" points="996.5,-120.5921 996.5,-139.5921 1031.5,-139.5921 1031.5,-120.5921 996.5,-120.5921"/>
<polygon fill="none" stroke="#000000" points="996.5,-120.5921 996.5,-139.5921 1031.5,-139.5921 1031.5,-120.5921 996.5,-120.5921"/>
<text text-anchor="start" x="999.5" y="-126.6921" font-family="Helvetica,sans-Serif" font-size="11.00" fill="#000000">&lt; 4</text>
<polygon fill="#ffffff" stroke="transparent" points="1031.5,-120.5921 1031.5,-139.5921 1088.5,-139.5921 1088.5,-120.5921 1031.5,-120.5921"/>
<polygon fill="none" stroke="#000000" points="1031.5,-120.5921 1031.5,-139.5921 1088.5,-139.5921 1088.5,-120.5921 1031.5,-120.5921"/>
<text text-anchor="start" x="1040.8807" y="-126.6921" font-family="Helvetica,sans-Serif" font-size="11.00" fill="#000000">467 rows</text>
<polygon fill="#ffffff" stroke="transparent" points="1088.5,-120.5921 1088.5,-139.5921 1122.5,-139.5921 1122.5,-120.5921 1088.5,-120.5921"/>
<polygon fill="none" stroke="#000000" points="1088.5,-120.5921 1088.5,-139.5921 1122.5,-139.5921 1122.5,-120.5921 1088.5,-120.5921"/>
<text text-anchor="start" x="1097.7904" y="-126.6921" font-family="Helvetica,sans-Serif" font-size="11.00" fill="#000000">14 &gt;</text>
</a>
</g>
</g>
<!-- ISOFORMS -->
<g id="node2" class="node">
<title>ISOFORMS</title>
<g id="a_node2"><a xlink:href="../../tables/ISOFORMS.html" xlink:title="ISOFORMS" target="_top">
<polygon fill="#ffffff" stroke="transparent" points="279.5,-469.0921 279.5,-530.0921 380.5,-530.0921 380.5,-469.0921 279.5,-469.0921"/>
<polygon fill="#f5f5f5" stroke="transparent" points="280,-506.5921 280,-529.5921 381,-529.5921 381,-506.5921 280,-506.5921"/>
<polygon fill="none" stroke="#000000" points="280,-506.5921 280,-529.5921 381,-529.5921 381,-506.5921 280,-506.5921"/>
<text text-anchor="start" x="284.6674" y="-515.6921" font-family="Helvetica,sans-Serif" font-weight="bold" font-size="11.00" fill="#000000">ISOFORMS</text>
<text text-anchor="start" x="346.5219" y="-514.6921" font-family="Helvetica,sans-Serif" font-size="11.00" fill="#000000">[table]</text>
<polygon fill="none" stroke="#000000" points="280,-487.5921 280,-506.5921 381,-506.5921 381,-487.5921 280,-487.5921"/>
<text text-anchor="start" x="283" y="-493.6921" font-family="Helvetica,sans-Serif" font-size="11.00" fill="#000000">...</text>
<polygon fill="#ffffff" stroke="transparent" points="280,-468.5921 280,-487.5921 302,-487.5921 302,-468.5921 280,-468.5921"/>
<polygon fill="none" stroke="#000000" points="280,-468.5921 280,-487.5921 302,-487.5921 302,-468.5921 280,-468.5921"/>
<text text-anchor="start" x="283" y="-474.6921" font-family="Helvetica,sans-Serif" font-size="11.00" fill="#000000">&lt; 1</text>
<polygon fill="#ffffff" stroke="transparent" points="302,-468.5921 302,-487.5921 353,-487.5921 353,-468.5921 302,-468.5921"/>
<polygon fill="none" stroke="#000000" points="302,-468.5921 302,-487.5921 353,-487.5921 353,-468.5921 302,-468.5921"/>
<text text-anchor="start" x="305.3807" y="-474.6921" font-family="Helvetica,sans-Serif" font-size="11.00" fill="#000000">519 rows</text>
<polygon fill="#ffffff" stroke="transparent" points="353,-468.5921 353,-487.5921 381,-487.5921 381,-468.5921 353,-468.5921"/>
<polygon fill="none" stroke="#000000" points="353,-468.5921 353,-487.5921 381,-487.5921 381,-468.5921 353,-468.5921"/>
<text text-anchor="start" x="356.2904" y="-474.6921" font-family="Helvetica,sans-Serif" font-size="11.00" fill="#000000">10 &gt;</text>
</a>
</g>
</g>
<!-- CLONE_FORMS&#45;&gt;ISOFORMS -->
<g id="edge1" class="edge">
<title>CLONE_FORMS:w&#45;&gt;ISOFORMS:e</title>
<path fill="none" stroke="#000000" d="M981.8661,-148.7887C877.7147,-151.6063 717.0901,-186.6366 546,-375.5921 519.6321,-404.7133 542.0706,-431.1685 513,-457.5921 467.7318,-498.7384 442.1737,-496.5921 381,-496.5921"/>
<polygon fill="#000000" stroke="#000000" points="988.5007,-148.6996 996.5484,-152.1918 992.5004,-148.6459 996.5,-148.5921 996.5,-148.5921 996.5,-148.5921 992.5004,-148.6459 996.4516,-144.9925 988.5007,-148.6996 988.5007,-148.6996"/>
<ellipse fill="none" stroke="#000000" cx="985.301" cy="-148.7426" rx="3.2" ry="3.2"/>
</g>
<!-- POST_TRANSLATIONAL_MODIFICATIONS -->
<g id="node3" class="node">
<title>POST_TRANSLATIONAL_MODIFICATIONS</title>
<g id="a_node3"><a xlink:href="../../tables/POST_TRANSLATIONAL_MODIFICATIONS.html" xlink:title="POST_TRANSLATIONAL_MODIFICATIONS" target="_top">
<polygon fill="#ffffff" stroke="transparent" points="198.5,-551.0921 198.5,-612.0921 461.5,-612.0921 461.5,-551.0921 198.5,-551.0921"/>
<polygon fill="#f5f5f5" stroke="transparent" points="199,-588.5921 199,-611.5921 462,-611.5921 462,-588.5921 199,-588.5921"/>
<polygon fill="none" stroke="#000000" points="199,-588.5921 199,-611.5921 462,-611.5921 462,-588.5921 199,-588.5921"/>
<text text-anchor="start" x="203.9956" y="-597.6921" font-family="Helvetica,sans-Serif" font-weight="bold" font-size="11.00" fill="#000000">POST_TRANSLATIONAL_MODIFICATIONS</text>
<text text-anchor="start" x="427.5219" y="-596.6921" font-family="Helvetica,sans-Serif" font-size="11.00" fill="#000000">[table]</text>
<polygon fill="none" stroke="#000000" points="199,-569.5921 199,-588.5921 462,-588.5921 462,-569.5921 199,-569.5921"/>
<text text-anchor="start" x="202" y="-575.6921" font-family="Helvetica,sans-Serif" font-size="11.00" fill="#000000">...</text>
<polygon fill="#ffffff" stroke="transparent" points="199,-550.5921 199,-569.5921 307,-569.5921 307,-550.5921 199,-550.5921"/>
<polygon fill="none" stroke="#000000" points="199,-550.5921 199,-569.5921 307,-569.5921 307,-550.5921 199,-550.5921"/>
<text text-anchor="start" x="202" y="-556.6921" font-family="Helvetica,sans-Serif" font-size="11.00" fill="#000000"> &#160;</text>
<polygon fill="#ffffff" stroke="transparent" points="307,-550.5921 307,-569.5921 393,-569.5921 393,-550.5921 307,-550.5921"/>
<polygon fill="none" stroke="#000000" points="307,-550.5921 307,-569.5921 393,-569.5921 393,-550.5921 307,-550.5921"/>
<text text-anchor="start" x="357.6105" y="-556.6921" font-family="Helvetica,sans-Serif" font-size="11.00" fill="#000000">2 rows</text>
<polygon fill="#ffffff" stroke="transparent" points="393,-550.5921 393,-569.5921 462,-569.5921 462,-550.5921 393,-550.5921"/>
<polygon fill="none" stroke="#000000" points="393,-550.5921 393,-569.5921 462,-569.5921 462,-550.5921 393,-550.5921"/>
<text text-anchor="start" x="443.4053" y="-556.6921" font-family="Helvetica,sans-Serif" font-size="11.00" fill="#000000">2 &gt;</text>
</a>
</g>
</g>
<!-- CLONE_FORMS&#45;&gt;POST_TRANSLATIONAL_MODIFICATIONS -->
<g id="edge2" class="edge">
<title>CLONE_FORMS:w&#45;&gt;POST_TRANSLATIONAL_MODIFICATIONS:e</title>
<path fill="none" stroke="#000000" d="M982.036,-148.8988C943.7174,-150.6936 925.9412,-160.8747 896,-192.5921 867.0406,-223.2696 890.9511,-249.9932 863,-281.5921 757.9018,-400.4064 649.8603,-325.6942 546,-445.5921 516.7348,-479.3764 539.4191,-504.5386 513,-540.5921 496.2924,-563.3927 490.2668,-578.5921 462,-578.5921"/>
<polygon fill="#000000" stroke="#000000" points="988.5018,-148.7618 996.5763,-152.1913 992.5009,-148.6769 996.5,-148.5921 996.5,-148.5921 996.5,-148.5921 992.5009,-148.6769 996.4237,-144.9929 988.5018,-148.7618 988.5018,-148.7618"/>
<ellipse fill="none" stroke="#000000" cx="985.3025" cy="-148.8296" rx="3.2" ry="3.2"/>
</g>
<!-- SPECIES -->
<g id="node4" class="node">
<title>SPECIES</title>
<g id="a_node4"><a xlink:href="../../tables/SPECIES.html" xlink:title="SPECIES" target="_top">
<polygon fill="#ffffff" stroke="transparent" points="285,-633.0921 285,-694.0921 375,-694.0921 375,-633.0921 285,-633.0921"/>
<polygon fill="#f5f5f5" stroke="transparent" points="285,-670.5921 285,-693.5921 375,-693.5921 375,-670.5921 285,-670.5921"/>
<polygon fill="none" stroke="#000000" points="285,-670.5921 285,-693.5921 375,-693.5921 375,-670.5921 285,-670.5921"/>
<text text-anchor="start" x="289.6614" y="-679.6921" font-family="Helvetica,sans-Serif" font-weight="bold" font-size="11.00" fill="#000000">SPECIES</text>
<text text-anchor="start" x="340.5219" y="-678.6921" font-family="Helvetica,sans-Serif" font-size="11.00" fill="#000000">[table]</text>
<polygon fill="none" stroke="#000000" points="285,-651.5921 285,-670.5921 375,-670.5921 375,-651.5921 285,-651.5921"/>
<text text-anchor="start" x="288" y="-657.6921" font-family="Helvetica,sans-Serif" font-size="11.00" fill="#000000">...</text>
<polygon fill="#ffffff" stroke="transparent" points="285,-632.5921 285,-651.5921 306,-651.5921 306,-632.5921 285,-632.5921"/>
<polygon fill="none" stroke="#000000" points="285,-632.5921 285,-651.5921 306,-651.5921 306,-632.5921 285,-632.5921"/>
<text text-anchor="start" x="288" y="-638.6921" font-family="Helvetica,sans-Serif" font-size="11.00" fill="#000000"> &#160;</text>
<polygon fill="#ffffff" stroke="transparent" points="306,-632.5921 306,-651.5921 349,-651.5921 349,-632.5921 306,-632.5921"/>
<polygon fill="none" stroke="#000000" points="306,-632.5921 306,-651.5921 349,-651.5921 349,-632.5921 306,-632.5921"/>
<text text-anchor="start" x="313.6105" y="-638.6921" font-family="Helvetica,sans-Serif" font-size="11.00" fill="#000000">3 rows</text>
<polygon fill="#ffffff" stroke="transparent" points="349,-632.5921 349,-651.5921 375,-651.5921 375,-632.5921 349,-632.5921"/>
<polygon fill="none" stroke="#000000" points="349,-632.5921 349,-651.5921 375,-651.5921 375,-632.5921 349,-632.5921"/>
<text text-anchor="start" x="356.4053" y="-638.6921" font-family="Helvetica,sans-Serif" font-size="11.00" fill="#000000">2 &gt;</text>
</a>
</g>
</g>
<!-- CLONE_FORMS&#45;&gt;SPECIES -->
<g id="edge3" class="edge">
<title>CLONE_FORMS:w&#45;&gt;SPECIES:e</title>
<path fill="none" stroke="#000000" d="M981.9398,-148.8156C943.1095,-150.168 923.0595,-158.3832 896,-192.5921 845.2709,-256.7246 910.3354,-306.9155 863,-373.5921 769.2111,-505.7032 656.4657,-435.0721 546,-553.5921 522.8228,-578.4592 539.0718,-600.7789 513,-622.5921 464.2086,-663.4138 438.6161,-660.5921 375,-660.5921"/>
<polygon fill="#000000" stroke="#000000" points="988.5009,-148.715 996.5553,-152.1917 992.5005,-148.6536 996.5,-148.5921 996.5,-148.5921 996.5,-148.5921 992.5005,-148.6536 996.4447,-144.9926 988.5009,-148.715 988.5009,-148.715"/>
<ellipse fill="none" stroke="#000000" cx="985.3013" cy="-148.7641" rx="3.2" ry="3.2"/>
</g>
<!-- TARGET_FORMS -->
<g id="node5" class="node">
<title>TARGET_FORMS</title>
<g id="a_node5"><a xlink:href="../../tables/TARGET_FORMS.html" xlink:title="TARGET_FORMS" target="_top">
<polygon fill="#ffffff" stroke="transparent" points="554,-564.0921 554,-757.0921 855,-757.0921 855,-564.0921 554,-564.0921"/>
<polygon fill="#f5f5f5" stroke="transparent" points="554.5,-733.5921 554.5,-756.5921 855.5,-756.5921 855.5,-733.5921 554.5,-733.5921"/>
<polygon fill="none" stroke="#000000" points="554.5,-733.5921 554.5,-756.5921 855.5,-756.5921 855.5,-733.5921 554.5,-733.5921"/>
<text text-anchor="start" x="559.5" y="-742.6921" font-family="Helvetica,sans-Serif" font-weight="bold" font-size="11.00" fill="#000000">TARGET_FORMS</text>
<text text-anchor="start" x="820.5437" y="-741.6921" font-family="Helvetica,sans-Serif" font-size="11.00" fill="#000000">[table]</text>
<polygon fill="none" stroke="#000000" points="554.5,-711.5921 554.5,-733.5921 855.5,-733.5921 855.5,-711.5921 554.5,-711.5921"/>
<image xlink:href="../../images/primaryKeys.png" width="11px" height="12px" preserveAspectRatio="xMinYMin meet" x="559.5" y="-728.592"/>
<text text-anchor="start" x="574.5" y="-718.6921" font-family="Helvetica,sans-Serif" font-size="11.00" fill="#000000">ID</text>
<polygon fill="none" stroke="#000000" points="554.5,-689.5921 554.5,-711.5921 855.5,-711.5921 855.5,-689.5921 554.5,-689.5921"/>
<image xlink:href="../../images/foreignKeys.png" width="11px" height="12px" preserveAspectRatio="xMinYMin meet" x="559.5" y="-706.592"/>
<text text-anchor="start" x="574.5" y="-696.6921" font-family="Helvetica,sans-Serif" font-size="11.00" fill="#000000">TARGET_ID</text>
<polygon fill="none" stroke="#000000" points="554.5,-667.5921 554.5,-689.5921 855.5,-689.5921 855.5,-667.5921 554.5,-667.5921"/>
<image xlink:href="../../images/foreignKeys.png" width="11px" height="12px" preserveAspectRatio="xMinYMin meet" x="559.5" y="-684.592"/>
<text text-anchor="start" x="574.5" y="-674.6921" font-family="Helvetica,sans-Serif" font-size="11.00" fill="#000000">SPECIES_ID</text>
<polygon fill="none" stroke="#000000" points="554.5,-645.5921 554.5,-667.5921 855.5,-667.5921 855.5,-645.5921 554.5,-645.5921"/>
<image xlink:href="../../images/foreignKeys.png" width="11px" height="12px" preserveAspectRatio="xMinYMin meet" x="559.5" y="-662.592"/>
<text text-anchor="start" x="574.5" y="-652.6921" font-family="Helvetica,sans-Serif" font-size="11.00" fill="#000000">POST_TRANSLATIONAL_MODIFICATION_ID</text>
<polygon fill="none" stroke="#000000" points="554.5,-623.5921 554.5,-645.5921 855.5,-645.5921 855.5,-623.5921 554.5,-623.5921"/>
<image xlink:href="../../images/foreignKeys.png" width="11px" height="12px" preserveAspectRatio="xMinYMin meet" x="559.5" y="-640.592"/>
<text text-anchor="start" x="574.5" y="-630.6921" font-family="Helvetica,sans-Serif" font-size="11.00" fill="#000000">ISOFORM_ID</text>
<polygon fill="none" stroke="#000000" points="554.5,-601.5921 554.5,-623.5921 855.5,-623.5921 855.5,-601.5921 554.5,-601.5921"/>
<image xlink:href="../../images/foreignKeys.png" width="11px" height="12px" preserveAspectRatio="xMinYMin meet" x="559.5" y="-618.592"/>
<text text-anchor="start" x="574.5" y="-608.6921" font-family="Helvetica,sans-Serif" font-size="11.00" fill="#000000">EXPRESSION_SYSTEM_ID</text>
<polygon fill="none" stroke="#000000" points="554.5,-582.5921 554.5,-601.5921 855.5,-601.5921 855.5,-582.5921 554.5,-582.5921"/>
<text text-anchor="start" x="557.5" y="-588.6921" font-family="Helvetica,sans-Serif" font-size="11.00" fill="#000000">...</text>
<polygon fill="#ffffff" stroke="transparent" points="554.5,-563.5921 554.5,-582.5921 676.5,-582.5921 676.5,-563.5921 554.5,-563.5921"/>
<polygon fill="none" stroke="#000000" points="554.5,-563.5921 554.5,-582.5921 676.5,-582.5921 676.5,-563.5921 554.5,-563.5921"/>
<text text-anchor="start" x="557.5" y="-569.6921" font-family="Helvetica,sans-Serif" font-size="11.00" fill="#000000">&lt; 5</text>
<polygon fill="#ffffff" stroke="transparent" points="676.5,-563.5921 676.5,-582.5921 777.5,-582.5921 777.5,-563.5921 676.5,-563.5921"/>
<polygon fill="none" stroke="#000000" points="676.5,-563.5921 676.5,-582.5921 777.5,-582.5921 777.5,-563.5921 676.5,-563.5921"/>
<text text-anchor="start" x="729.8807" y="-569.6921" font-family="Helvetica,sans-Serif" font-size="11.00" fill="#000000">541 rows</text>
<polygon fill="#ffffff" stroke="transparent" points="777.5,-563.5921 777.5,-582.5921 855.5,-582.5921 855.5,-563.5921 777.5,-563.5921"/>
<polygon fill="none" stroke="#000000" points="777.5,-563.5921 777.5,-582.5921 855.5,-582.5921 855.5,-563.5921 777.5,-563.5921"/>
<text text-anchor="start" x="830.7904" y="-569.6921" font-family="Helvetica,sans-Serif" font-size="11.00" fill="#000000">18 &gt;</text>
</a>
</g>
</g>
<!-- CLONE_FORMS&#45;&gt;TARGET_FORMS -->
<g id="edge4" class="edge">
<title>CLONE_FORMS:w&#45;&gt;TARGET_FORMS:e</title>
<path fill="none" stroke="#000000" d="M981.8792,-148.7702C942.7265,-149.8809 921.2435,-157.022 896,-192.5921 861.8187,-240.7563 914.5606,-722.5921 855.5,-722.5921"/>
<polygon fill="#000000" stroke="#000000" points="988.5006,-148.6896 996.5439,-152.1919 992.5003,-148.6409 996.5,-148.5921 996.5,-148.5921 996.5,-148.5921 992.5003,-148.6409 996.4561,-144.9924 988.5006,-148.6896 988.5006,-148.6896"/>
<ellipse fill="none" stroke="#000000" cx="985.3008" cy="-148.7286" rx="3.2" ry="3.2"/>
</g>
<!-- TARGETS -->
<g id="node7" class="node">
<title>TARGETS</title>
<g id="a_node7"><a xlink:href="../../tables/TARGETS.html" xlink:title="TARGETS" target="_top">
<polygon fill="#ffffff" stroke="transparent" points="8,-580.0921 8,-641.0921 106,-641.0921 106,-580.0921 8,-580.0921"/>
<polygon fill="#f5f5f5" stroke="transparent" points="8,-617.5921 8,-640.5921 106,-640.5921 106,-617.5921 8,-617.5921"/>
<polygon fill="none" stroke="#000000" points="8,-617.5921 8,-640.5921 106,-640.5921 106,-617.5921 8,-617.5921"/>
<text text-anchor="start" x="13" y="-626.6921" font-family="Helvetica,sans-Serif" font-weight="bold" font-size="11.00" fill="#000000">TARGETS</text>
<text text-anchor="start" x="71.0437" y="-625.6921" font-family="Helvetica,sans-Serif" font-size="11.00" fill="#000000">[table]</text>
<polygon fill="none" stroke="#000000" points="8,-598.5921 8,-617.5921 106,-617.5921 106,-598.5921 8,-598.5921"/>
<text text-anchor="start" x="11" y="-604.6921" font-family="Helvetica,sans-Serif" font-size="11.00" fill="#000000">...</text>
<polygon fill="#ffffff" stroke="transparent" points="8,-579.5921 8,-598.5921 29,-598.5921 29,-579.5921 8,-579.5921"/>
<polygon fill="none" stroke="#000000" points="8,-579.5921 8,-598.5921 29,-598.5921 29,-579.5921 8,-579.5921"/>
<text text-anchor="start" x="10.7027" y="-585.6921" font-family="Helvetica,sans-Serif" font-size="11.00" fill="#000000">&lt; 3</text>
<polygon fill="#ffffff" stroke="transparent" points="29,-579.5921 29,-598.5921 79,-598.5921 79,-579.5921 29,-579.5921"/>
<polygon fill="none" stroke="#000000" points="29,-579.5921 29,-598.5921 79,-598.5921 79,-579.5921 29,-579.5921"/>
<text text-anchor="start" x="31.6904" y="-585.6921" font-family="Helvetica,sans-Serif" font-size="11.00" fill="#000000">146 rows</text>
<polygon fill="#ffffff" stroke="transparent" points="79,-579.5921 79,-598.5921 106,-598.5921 106,-579.5921 79,-579.5921"/>
<polygon fill="none" stroke="#000000" points="79,-579.5921 79,-598.5921 106,-598.5921 106,-579.5921 79,-579.5921"/>
<text text-anchor="start" x="81.6452" y="-585.6921" font-family="Helvetica,sans-Serif" font-size="11.00" fill="#000000">10 &gt;</text>
</a>
</g>
</g>
<!-- ISOFORMS&#45;&gt;TARGETS -->
<g id="edge6" class="edge">
<title>ISOFORMS:w&#45;&gt;TARGETS:e</title>
<path fill="none" stroke="#000000" d="M265.4543,-496.7148C213.9552,-497.6877 191.7787,-505.0746 147,-540.5921 119.6485,-562.2868 140.9108,-607.5921 106,-607.5921"/>
<polygon fill="#000000" stroke="#000000" points="272.0003,-496.6596 280.0304,-500.192 276.0001,-496.6259 280,-496.5921 280,-496.5921 280,-496.5921 276.0001,-496.6259 279.9696,-492.9923 272.0003,-496.6596 272.0003,-496.6596"/>
<ellipse fill="none" stroke="#000000" cx="268.8004" cy="-496.6867" rx="3.2" ry="3.2"/>
</g>
<!-- TARGET_FORMS&#45;&gt;ISOFORMS -->
<g id="edge13" class="edge">
<title>TARGET_FORMS:w&#45;&gt;ISOFORMS:e</title>
<path fill="none" stroke="#000000" d="M540.3647,-631.4689C517.6452,-618.3622 542.2882,-567.2489 513,-540.5921 467.2662,-498.9674 442.8401,-496.5921 381,-496.5921"/>
<polygon fill="#000000" stroke="#000000" points="546.6884,-632.8661 553.7233,-638.1074 550.5942,-633.7291 554.5,-634.5921 554.5,-634.5921 554.5,-634.5921 550.5942,-633.7291 555.2767,-631.0769 546.6884,-632.8661 546.6884,-632.8661"/>
<ellipse fill="none" stroke="#000000" cx="543.5638" cy="-632.1757" rx="3.2" ry="3.2"/>
</g>
<!-- TARGET_FORMS&#45;&gt;POST_TRANSLATIONAL_MODIFICATIONS -->
<g id="edge14" class="edge">
<title>TARGET_FORMS:w&#45;&gt;POST_TRANSLATIONAL_MODIFICATIONS:e</title>
<path fill="none" stroke="#000000" d="M541.7781,-649.1132C517.8501,-629.5904 472.8708,-578.5921 462,-578.5921"/>
<polygon fill="#000000" stroke="#000000" points="547.6035,-652.5378 552.6755,-659.6956 551.0517,-654.5649 554.5,-656.5921 554.5,-656.5921 554.5,-656.5921 551.0517,-654.5649 556.3245,-653.4887 547.6035,-652.5378 547.6035,-652.5378"/>
<ellipse fill="none" stroke="#000000" cx="544.8448" cy="-650.916" rx="3.2" ry="3.2"/>
</g>
<!-- TARGET_FORMS&#45;&gt;SPECIES -->
<g id="edge15" class="edge">
<title>TARGET_FORMS:w&#45;&gt;SPECIES:e</title>
<path fill="none" stroke="#000000" d="M539.7248,-678.3774C471.6008,-676.3466 450.0102,-660.5921 375,-660.5921"/>
<polygon fill="#000000" stroke="#000000" points="546.5008,-678.4759 554.4477,-682.1918 550.5004,-678.534 554.5,-678.5921 554.5,-678.5921 554.5,-678.5921 550.5004,-678.534 554.5523,-674.9925 546.5008,-678.4759 546.5008,-678.4759"/>
<ellipse fill="none" stroke="#000000" cx="543.3012" cy="-678.4293" rx="3.2" ry="3.2"/>
</g>
<!-- TARGET_FORMS&#45;&gt;TARGETS -->
<g id="edge16" class="edge">
<title>TARGET_FORMS:w&#45;&gt;TARGETS:e</title>
<path fill="none" stroke="#000000" d="M540.1002,-701.3742C531.6707,-702.3567 525.58,-703.9873 513,-704.5921 350.521,-712.4043 282.5771,-794.477 147,-704.5921 107.9904,-678.7296 152.804,-607.5921 106,-607.5921"/>
<polygon fill="#000000" stroke="#000000" points="546.5118,-701.0261 554.6953,-704.1868 550.5059,-700.8091 554.5,-700.5921 554.5,-700.5921 554.5,-700.5921 550.5059,-700.8091 554.3047,-696.9974 546.5118,-701.0261 546.5118,-701.0261"/>
<ellipse fill="none" stroke="#000000" cx="543.3165" cy="-701.1996" rx="3.2" ry="3.2"/>
</g>
<!-- EXPRESSION_SYSTEMS -->
<g id="node11" class="node">
<title>EXPRESSION_SYSTEMS</title>
<g id="a_node11"><a xlink:href="../../tables/EXPRESSION_SYSTEMS.html" xlink:title="EXPRESSION_SYSTEMS" target="_top">
<polygon fill="#ffffff" stroke="transparent" points="155,-269.5921 155,-447.5921 505,-447.5921 505,-269.5921 155,-269.5921"/>
<polygon fill="#f5f5f5" stroke="transparent" points="157,-422.5921 157,-445.5921 503,-445.5921 503,-422.5921 157,-422.5921"/>
<polygon fill="none" stroke="#000000" points="157,-422.5921 157,-445.5921 503,-445.5921 503,-422.5921 157,-422.5921"/>
<text text-anchor="start" x="162" y="-431.6921" font-family="Helvetica,sans-Serif" font-weight="bold" font-size="11.00" fill="#000000">EXPRESSION_SYSTEMS</text>
<text text-anchor="start" x="468.0437" y="-430.6921" font-family="Helvetica,sans-Serif" font-size="11.00" fill="#000000">[table]</text>
<polygon fill="none" stroke="#000000" points="157,-400.5921 157,-422.5921 332,-422.5921 332,-400.5921 157,-400.5921"/>
<image xlink:href="../../images/primaryKeys.png" width="11px" height="12px" preserveAspectRatio="xMinYMin meet" x="162" y="-417.592"/>
<text text-anchor="start" x="177" y="-407.6921" font-family="Helvetica,sans-Serif" font-size="11.00" fill="#000000">ID</text>
<polygon fill="none" stroke="#000000" points="332,-400.5921 332,-422.5921 503,-422.5921 503,-400.5921 332,-400.5921"/>
<text text-anchor="start" x="335" y="-408.2921" font-family="Helvetica,sans-Serif" font-size="11.00" fill="#000000">number[19]</text>
<polygon fill="none" stroke="#000000" points="157,-378.5921 157,-400.5921 332,-400.5921 332,-378.5921 157,-378.5921"/>
<text text-anchor="start" x="177" y="-385.6921" font-family="Helvetica,sans-Serif" font-size="11.00" fill="#000000">CREATED_AT</text>
<polygon fill="none" stroke="#000000" points="332,-378.5921 332,-400.5921 503,-400.5921 503,-378.5921 332,-378.5921"/>
<text text-anchor="start" x="334.9896" y="-386.2921" font-family="Helvetica,sans-Serif" font-size="11.00" fill="#000000">timestamp(6) with time zone[13,6]</text>
<polygon fill="none" stroke="#000000" points="157,-356.5921 157,-378.5921 332,-378.5921 332,-356.5921 157,-356.5921"/>
<text text-anchor="start" x="177" y="-363.6921" font-family="Helvetica,sans-Serif" font-size="11.00" fill="#000000">CREATED_BY</text>
<polygon fill="none" stroke="#000000" points="332,-356.5921 332,-378.5921 503,-378.5921 503,-356.5921 332,-356.5921"/>
<text text-anchor="start" x="335" y="-364.2921" font-family="Helvetica,sans-Serif" font-size="11.00" fill="#000000">number[19]</text>
<polygon fill="none" stroke="#000000" points="157,-334.5921 157,-356.5921 332,-356.5921 332,-334.5921 157,-334.5921"/>
<text text-anchor="start" x="177" y="-341.6921" font-family="Helvetica,sans-Serif" font-size="11.00" fill="#000000">UPDATED_AT</text>
<polygon fill="none" stroke="#000000" points="332,-334.5921 332,-356.5921 503,-356.5921 503,-334.5921 332,-334.5921"/>
<text text-anchor="start" x="334.9896" y="-342.2921" font-family="Helvetica,sans-Serif" font-size="11.00" fill="#000000">timestamp(6) with time zone[13,6]</text>
<polygon fill="none" stroke="#000000" points="157,-312.5921 157,-334.5921 332,-334.5921 332,-312.5921 157,-312.5921"/>
<text text-anchor="start" x="177" y="-319.6921" font-family="Helvetica,sans-Serif" font-size="11.00" fill="#000000">UPDATED_BY</text>
<polygon fill="none" stroke="#000000" points="332,-312.5921 332,-334.5921 503,-334.5921 503,-312.5921 332,-312.5921"/>
<text text-anchor="start" x="335" y="-320.2921" font-family="Helvetica,sans-Serif" font-size="11.00" fill="#000000">number[19]</text>
<polygon fill="none" stroke="#000000" points="157,-290.5921 157,-312.5921 332,-312.5921 332,-290.5921 157,-290.5921"/>
<text text-anchor="start" x="177" y="-297.6921" font-family="Helvetica,sans-Serif" font-size="11.00" fill="#000000">NAME</text>
<polygon fill="none" stroke="#000000" points="332,-290.5921 332,-312.5921 503,-312.5921 503,-290.5921 332,-290.5921"/>
<text text-anchor="start" x="335" y="-298.2921" font-family="Helvetica,sans-Serif" font-size="11.00" fill="#000000">varchar2[255]</text>
<polygon fill="#ffffff" stroke="transparent" points="157,-271.5921 157,-290.5921 236,-290.5921 236,-271.5921 157,-271.5921"/>
<polygon fill="none" stroke="#000000" points="157,-271.5921 157,-290.5921 236,-290.5921 236,-271.5921 157,-271.5921"/>
<text text-anchor="start" x="160" y="-277.6921" font-family="Helvetica,sans-Serif" font-size="11.00" fill="#000000">&lt; 0</text>
<polygon fill="#ffffff" stroke="transparent" points="236,-271.5921 236,-290.5921 332,-290.5921 332,-271.5921 236,-271.5921"/>
<polygon fill="none" stroke="#000000" points="236,-271.5921 236,-290.5921 332,-290.5921 332,-271.5921 236,-271.5921"/>
<text text-anchor="start" x="296.6105" y="-277.6921" font-family="Helvetica,sans-Serif" font-size="11.00" fill="#000000">3 rows</text>
<polygon fill="#ffffff" stroke="transparent" points="332,-271.5921 332,-290.5921 503,-290.5921 503,-271.5921 332,-271.5921"/>
<polygon fill="none" stroke="#000000" points="332,-271.5921 332,-290.5921 503,-290.5921 503,-271.5921 332,-271.5921"/>
<text text-anchor="start" x="484.4053" y="-277.6921" font-family="Helvetica,sans-Serif" font-size="11.00" fill="#000000">1 &gt;</text>
<polygon fill="none" stroke="#000000" stroke-width="2" points="156,-270.5921 156,-446.5921 504,-446.5921 504,-270.5921 156,-270.5921"/>
</a>
</g>
</g>
<!-- TARGET_FORMS&#45;&gt;EXPRESSION_SYSTEMS -->
<g id="edge12" class="edge">
<title>TARGET_FORMS:w&#45;&gt;EXPRESSION_SYSTEMS:e</title>
<path fill="none" stroke="#000000" d="M540.1256,-610.4708C477.5535,-588.9891 589.6354,-411.5921 503,-411.5921"/>
<polygon fill="#000000" stroke="#000000" points="546.5857,-611.4241 553.9744,-616.1536 550.5429,-612.0081 554.5,-612.5921 554.5,-612.5921 554.5,-612.5921 550.5429,-612.0081 555.0256,-609.0307 546.5857,-611.4241 546.5857,-611.4241"/>
<ellipse fill="none" stroke="#000000" cx="543.42" cy="-610.9569" rx="3.2" ry="3.2"/>
</g>
<!-- IN_HOUSE_ASSAYS -->
<g id="node6" class="node">
<title>IN_HOUSE_ASSAYS</title>
<g id="a_node6"><a xlink:href="../../tables/IN_HOUSE_ASSAYS.html" xlink:title="IN_HOUSE_ASSAYS" target="_top">
<polygon fill="#ffffff" stroke="transparent" points="985,-1215.0921 985,-1276.0921 1134,-1276.0921 1134,-1215.0921 985,-1215.0921"/>
<polygon fill="#f5f5f5" stroke="transparent" points="985.5,-1252.5921 985.5,-1275.5921 1134.5,-1275.5921 1134.5,-1252.5921 985.5,-1252.5921"/>
<polygon fill="none" stroke="#000000" points="985.5,-1252.5921 985.5,-1275.5921 1134.5,-1275.5921 1134.5,-1252.5921 985.5,-1252.5921"/>
<text text-anchor="start" x="990.3233" y="-1261.6921" font-family="Helvetica,sans-Serif" font-weight="bold" font-size="11.00" fill="#000000">IN_HOUSE_ASSAYS</text>
<text text-anchor="start" x="1100.0219" y="-1260.6921" font-family="Helvetica,sans-Serif" font-size="11.00" fill="#000000">[table]</text>
<polygon fill="none" stroke="#000000" points="985.5,-1233.5921 985.5,-1252.5921 1134.5,-1252.5921 1134.5,-1233.5921 985.5,-1233.5921"/>
<text text-anchor="start" x="988.5" y="-1239.6921" font-family="Helvetica,sans-Serif" font-size="11.00" fill="#000000">...</text>
<polygon fill="#ffffff" stroke="transparent" points="985.5,-1214.5921 985.5,-1233.5921 1037.5,-1233.5921 1037.5,-1214.5921 985.5,-1214.5921"/>
<polygon fill="none" stroke="#000000" points="985.5,-1214.5921 985.5,-1233.5921 1037.5,-1233.5921 1037.5,-1214.5921 985.5,-1214.5921"/>
<text text-anchor="start" x="988.5" y="-1220.6921" font-family="Helvetica,sans-Serif" font-size="11.00" fill="#000000">&lt; 4</text>
<polygon fill="#ffffff" stroke="transparent" points="1037.5,-1214.5921 1037.5,-1233.5921 1097.5,-1233.5921 1097.5,-1214.5921 1037.5,-1214.5921"/>
<polygon fill="none" stroke="#000000" points="1037.5,-1214.5921 1037.5,-1233.5921 1097.5,-1233.5921 1097.5,-1214.5921 1037.5,-1214.5921"/>
<text text-anchor="start" x="1055.9956" y="-1220.6921" font-family="Helvetica,sans-Serif" font-size="11.00" fill="#000000">51 rows</text>
<polygon fill="#ffffff" stroke="transparent" points="1097.5,-1214.5921 1097.5,-1233.5921 1134.5,-1233.5921 1134.5,-1214.5921 1097.5,-1214.5921"/>
<polygon fill="none" stroke="#000000" points="1097.5,-1214.5921 1097.5,-1233.5921 1134.5,-1233.5921 1134.5,-1214.5921 1097.5,-1214.5921"/>
<text text-anchor="start" x="1115.9053" y="-1220.6921" font-family="Helvetica,sans-Serif" font-size="11.00" fill="#000000">1 &gt;</text>
</a>
</g>
</g>
<!-- IN_HOUSE_ASSAYS&#45;&gt;TARGET_FORMS -->
<g id="edge5" class="edge">
<title>IN_HOUSE_ASSAYS:w&#45;&gt;TARGET_FORMS:e</title>
<path fill="none" stroke="#000000" d="M970.9748,-1242.3084C936.703,-1240.786 918.1672,-1232.4251 896,-1200.5921 865.5406,-1156.8512 908.8014,-722.5921 855.5,-722.5921"/>
<polygon fill="#000000" stroke="#000000" points="977.5015,-1242.4359 985.4297,-1246.1914 981.5008,-1242.514 985.5,-1242.5921 985.5,-1242.5921 985.5,-1242.5921 981.5008,-1242.514 985.5703,-1238.9928 977.5015,-1242.4359 977.5015,-1242.4359"/>
<ellipse fill="none" stroke="#000000" cx="974.3021" cy="-1242.3734" rx="3.2" ry="3.2"/>
</g>
<!-- SCREENING_PLANS -->
<g id="node8" class="node">
<title>SCREENING_PLANS</title>
<g id="a_node8"><a xlink:href="../../tables/SCREENING_PLANS.html" xlink:title="SCREENING_PLANS" target="_top">
<polygon fill="#ffffff" stroke="transparent" points="1264,-1163.0921 1264,-1224.0921 1414,-1224.0921 1414,-1163.0921 1264,-1163.0921"/>
<polygon fill="#f5f5f5" stroke="transparent" points="1264,-1200.5921 1264,-1223.5921 1414,-1223.5921 1414,-1200.5921 1264,-1200.5921"/>
<polygon fill="none" stroke="#000000" points="1264,-1200.5921 1264,-1223.5921 1414,-1223.5921 1414,-1200.5921 1264,-1200.5921"/>
<text text-anchor="start" x="1268.7182" y="-1209.6921" font-family="Helvetica,sans-Serif" font-weight="bold" font-size="11.00" fill="#000000">SCREENING_PLANS</text>
<text text-anchor="start" x="1379.5219" y="-1208.6921" font-family="Helvetica,sans-Serif" font-size="11.00" fill="#000000">[table]</text>
<polygon fill="none" stroke="#000000" points="1264,-1181.5921 1264,-1200.5921 1414,-1200.5921 1414,-1181.5921 1264,-1181.5921"/>
<text text-anchor="start" x="1267" y="-1187.6921" font-family="Helvetica,sans-Serif" font-size="11.00" fill="#000000">...</text>
<polygon fill="#ffffff" stroke="transparent" points="1264,-1162.5921 1264,-1181.5921 1314,-1181.5921 1314,-1162.5921 1264,-1162.5921"/>
<polygon fill="none" stroke="#000000" points="1264,-1162.5921 1264,-1181.5921 1314,-1181.5921 1314,-1162.5921 1264,-1162.5921"/>
<text text-anchor="start" x="1267" y="-1168.6921" font-family="Helvetica,sans-Serif" font-size="11.00" fill="#000000">&lt; 3</text>
<polygon fill="#ffffff" stroke="transparent" points="1314,-1162.5921 1314,-1181.5921 1378,-1181.5921 1378,-1162.5921 1314,-1162.5921"/>
<polygon fill="none" stroke="#000000" points="1314,-1162.5921 1314,-1181.5921 1378,-1181.5921 1378,-1162.5921 1314,-1162.5921"/>
<text text-anchor="start" x="1330.3807" y="-1168.6921" font-family="Helvetica,sans-Serif" font-size="11.00" fill="#000000">137 rows</text>
<polygon fill="#ffffff" stroke="transparent" points="1378,-1162.5921 1378,-1181.5921 1414,-1181.5921 1414,-1162.5921 1378,-1162.5921"/>
<polygon fill="none" stroke="#000000" points="1378,-1162.5921 1378,-1181.5921 1414,-1181.5921 1414,-1162.5921 1378,-1162.5921"/>
<text text-anchor="start" x="1395.4053" y="-1168.6921" font-family="Helvetica,sans-Serif" font-size="11.00" fill="#000000">1 &gt;</text>
</a>
</g>
</g>
<!-- SCREENING_PLANS&#45;&gt;TARGET_FORMS -->
<g id="edge8" class="edge">
<title>SCREENING_PLANS:w&#45;&gt;TARGET_FORMS:e</title>
<path fill="none" stroke="#000000" d="M1249.5047,-1190.836C1177.1648,-1192.5926 923.2861,-1202.5223 896,-1176.5921 822.5765,-1106.8171 956.7895,-722.5921 855.5,-722.5921"/>
<polygon fill="#000000" stroke="#000000" points="1256.0011,-1190.7268 1264.0606,-1194.1916 1260.0006,-1190.6595 1264,-1190.5921 1264,-1190.5921 1264,-1190.5921 1260.0006,-1190.6595 1263.9394,-1186.9926 1256.0011,-1190.7268 1256.0011,-1190.7268"/>
<ellipse fill="none" stroke="#000000" cx="1252.8016" cy="-1190.7806" rx="3.2" ry="3.2"/>
</g>
<!-- SCREENING_PLANS&#45;&gt;TARGETS -->
<g id="edge9" class="edge">
<title>SCREENING_PLANS:w&#45;&gt;TARGETS:e</title>
<path fill="none" stroke="#000000" d="M1254.3886,-1179.6242C1211.1137,-1068.5076 1263.6358,-149.7146 1223,-110.5921 1049.1239,56.8083 307.4166,-78.2526 147,-258.5921 95.0998,-316.9381 184.0889,-607.5921 106,-607.5921"/>
<polygon fill="#000000" stroke="#000000" points="1258.7274,-1184.5754 1261.2925,-1192.9648 1261.3637,-1187.5838 1264,-1190.5921 1264,-1190.5921 1264,-1190.5921 1261.3637,-1187.5838 1266.7075,-1188.2195 1258.7274,-1184.5754 1258.7274,-1184.5754"/>
<ellipse fill="none" stroke="#000000" cx="1256.6184" cy="-1182.1688" rx="3.2" ry="3.2"/>
</g>
<!-- SUPPLEMENTS -->
<g id="node9" class="node">
<title>SUPPLEMENTS</title>
<g id="a_node9"><a xlink:href="../../tables/SUPPLEMENTS.html" xlink:title="SUPPLEMENTS" target="_top">
<polygon fill="#ffffff" stroke="transparent" points="997.5,-1297.0921 997.5,-1358.0921 1121.5,-1358.0921 1121.5,-1297.0921 997.5,-1297.0921"/>
<polygon fill="#f5f5f5" stroke="transparent" points="997.5,-1334.5921 997.5,-1357.5921 1121.5,-1357.5921 1121.5,-1334.5921 997.5,-1334.5921"/>
<polygon fill="none" stroke="#000000" points="997.5,-1334.5921 997.5,-1357.5921 1121.5,-1357.5921 1121.5,-1334.5921 997.5,-1334.5921"/>
<text text-anchor="start" x="1002.0531" y="-1343.6921" font-family="Helvetica,sans-Serif" font-weight="bold" font-size="11.00" fill="#000000">SUPPLEMENTS</text>
<text text-anchor="start" x="1087.0219" y="-1342.6921" font-family="Helvetica,sans-Serif" font-size="11.00" fill="#000000">[table]</text>
<polygon fill="none" stroke="#000000" points="997.5,-1315.5921 997.5,-1334.5921 1121.5,-1334.5921 1121.5,-1315.5921 997.5,-1315.5921"/>
<text text-anchor="start" x="1000.5" y="-1321.6921" font-family="Helvetica,sans-Serif" font-size="11.00" fill="#000000">...</text>
<polygon fill="#ffffff" stroke="transparent" points="997.5,-1296.5921 997.5,-1315.5921 1037.5,-1315.5921 1037.5,-1296.5921 997.5,-1296.5921"/>
<polygon fill="none" stroke="#000000" points="997.5,-1296.5921 997.5,-1315.5921 1037.5,-1315.5921 1037.5,-1296.5921 997.5,-1296.5921"/>
<text text-anchor="start" x="1000.5" y="-1302.6921" font-family="Helvetica,sans-Serif" font-size="11.00" fill="#000000">&lt; 1</text>
<polygon fill="#ffffff" stroke="transparent" points="1037.5,-1296.5921 1037.5,-1315.5921 1090.5,-1315.5921 1090.5,-1296.5921 1037.5,-1296.5921"/>
<polygon fill="none" stroke="#000000" points="1037.5,-1296.5921 1037.5,-1315.5921 1090.5,-1315.5921 1090.5,-1296.5921 1037.5,-1296.5921"/>
<text text-anchor="start" x="1048.9956" y="-1302.6921" font-family="Helvetica,sans-Serif" font-size="11.00" fill="#000000">77 rows</text>
<polygon fill="#ffffff" stroke="transparent" points="1090.5,-1296.5921 1090.5,-1315.5921 1121.5,-1315.5921 1121.5,-1296.5921 1090.5,-1296.5921"/>
<polygon fill="none" stroke="#000000" points="1090.5,-1296.5921 1090.5,-1315.5921 1121.5,-1315.5921 1121.5,-1296.5921 1090.5,-1296.5921"/>
<text text-anchor="start" x="1102.9053" y="-1302.6921" font-family="Helvetica,sans-Serif" font-size="11.00" fill="#000000">5 &gt;</text>
</a>
</g>
</g>
<!-- SCREENING_PLANS&#45;&gt;SUPPLEMENTS -->
<g id="edge7" class="edge">
<title>SCREENING_PLANS:w&#45;&gt;SUPPLEMENTS:e</title>
<path fill="none" stroke="#000000" d="M1249.6604,-1193.7515C1226.6693,-1207.0155 1252.0876,-1258.7961 1223,-1286.5921 1188.175,-1319.8708 1169.6689,-1324.5921 1121.5,-1324.5921"/>
<polygon fill="#000000" stroke="#000000" points="1256.1874,-1192.3135 1264.7746,-1194.1078 1260.0937,-1191.4528 1264,-1190.5921 1264,-1190.5921 1264,-1190.5921 1260.0937,-1191.4528 1263.2254,-1187.0765 1256.1874,-1192.3135 1256.1874,-1192.3135"/>
<ellipse fill="none" stroke="#000000" cx="1253.0623" cy="-1193.002" rx="3.2" ry="3.2"/>
</g>
<!-- SUPPLEMENTS&#45;&gt;TARGET_FORMS -->
<g id="edge10" class="edge">
<title>SUPPLEMENTS:w&#45;&gt;TARGET_FORMS:e</title>
<path fill="none" stroke="#000000" d="M983.0166,-1324.5647C944.1182,-1324.2779 921.8057,-1321.0986 896,-1286.5921 858.3724,-1236.2779 918.328,-722.5921 855.5,-722.5921"/>
<polygon fill="#000000" stroke="#000000" points="989.5,-1324.5769 997.4932,-1328.1921 993.5,-1324.5845 997.5,-1324.5921 997.5,-1324.5921 997.5,-1324.5921 993.5,-1324.5845 997.5068,-1320.9921 989.5,-1324.5769 989.5,-1324.5769"/>
<ellipse fill="none" stroke="#000000" cx="986.3" cy="-1324.5709" rx="3.2" ry="3.2"/>
</g>
<!-- TARGET_FORM_COMMENTS -->
<g id="node10" class="node">
<title>TARGET_FORM_COMMENTS</title>
<g id="a_node10"><a xlink:href="../../tables/TARGET_FORM_COMMENTS.html" xlink:title="TARGET_FORM_COMMENTS" target="_top">
<polygon fill="#ffffff" stroke="transparent" points="961.5,-1105.0921 961.5,-1166.0921 1157.5,-1166.0921 1157.5,-1105.0921 961.5,-1105.0921"/>
<polygon fill="#f5f5f5" stroke="transparent" points="961.5,-1142.5921 961.5,-1165.5921 1157.5,-1165.5921 1157.5,-1142.5921 961.5,-1142.5921"/>
<polygon fill="none" stroke="#000000" points="961.5,-1142.5921 961.5,-1165.5921 1157.5,-1165.5921 1157.5,-1142.5921 961.5,-1142.5921"/>
<text text-anchor="start" x="966.3135" y="-1151.6921" font-family="Helvetica,sans-Serif" font-weight="bold" font-size="11.00" fill="#000000">TARGET_FORM_COMMENTS</text>
<text text-anchor="start" x="1123.0219" y="-1150.6921" font-family="Helvetica,sans-Serif" font-size="11.00" fill="#000000">[table]</text>
<polygon fill="none" stroke="#000000" points="961.5,-1123.5921 961.5,-1142.5921 1157.5,-1142.5921 1157.5,-1123.5921 961.5,-1123.5921"/>
<text text-anchor="start" x="964.5" y="-1129.6921" font-family="Helvetica,sans-Serif" font-size="11.00" fill="#000000">...</text>
<polygon fill="#ffffff" stroke="transparent" points="961.5,-1104.5921 961.5,-1123.5921 1044.5,-1123.5921 1044.5,-1104.5921 961.5,-1104.5921"/>
<polygon fill="none" stroke="#000000" points="961.5,-1104.5921 961.5,-1123.5921 1044.5,-1123.5921 1044.5,-1104.5921 961.5,-1104.5921"/>
<text text-anchor="start" x="964.5" y="-1110.6921" font-family="Helvetica,sans-Serif" font-size="11.00" fill="#000000">&lt; 2</text>
<polygon fill="#ffffff" stroke="transparent" points="1044.5,-1104.5921 1044.5,-1123.5921 1113.5,-1123.5921 1113.5,-1104.5921 1044.5,-1104.5921"/>
<polygon fill="none" stroke="#000000" points="1044.5,-1104.5921 1044.5,-1123.5921 1113.5,-1123.5921 1113.5,-1104.5921 1044.5,-1104.5921"/>
<text text-anchor="start" x="1078.1105" y="-1110.6921" font-family="Helvetica,sans-Serif" font-size="11.00" fill="#000000">3 rows</text>
<polygon fill="#ffffff" stroke="transparent" points="1113.5,-1104.5921 1113.5,-1123.5921 1157.5,-1123.5921 1157.5,-1104.5921 1113.5,-1104.5921"/>
<polygon fill="none" stroke="#000000" points="1113.5,-1104.5921 1113.5,-1123.5921 1157.5,-1123.5921 1157.5,-1104.5921 1113.5,-1104.5921"/>
<text text-anchor="start" x="1148.3862" y="-1110.6921" font-family="Helvetica,sans-Serif" font-size="11.00" fill="#000000"> &#160;</text>
</a>
</g>
</g>
<!-- TARGET_FORM_COMMENTS&#45;&gt;TARGET_FORMS -->
<g id="edge11" class="edge">
<title>TARGET_FORM_COMMENTS:w&#45;&gt;TARGET_FORMS:e</title>
<path fill="none" stroke="#000000" d="M947.1054,-1131.8422C923.5097,-1129.0833 911.4854,-1118.3951 896,-1094.5921 850.6538,-1024.8892 938.6551,-722.5921 855.5,-722.5921"/>
<polygon fill="#000000" stroke="#000000" points="953.5108,-1132.1759 961.3127,-1136.1873 957.5054,-1132.384 961.5,-1132.5921 961.5,-1132.5921 961.5,-1132.5921 957.5054,-1132.384 961.6873,-1128.997 953.5108,-1132.1759 953.5108,-1132.1759"/>
<ellipse fill="none" stroke="#000000" cx="950.3152" cy="-1132.0094" rx="3.2" ry="3.2"/>
</g>
<!-- TARGET_FORMS_ISOFORM_ANNOTATIONS -->
<g id="node12" class="node">
<title>TARGET_FORMS_ISOFORM_ANNOTATIONS</title>
<g id="a_node12"><a xlink:href="../../tables/TARGET_FORMS_ISOFORM_ANNOTATIONS.html" xlink:title="TARGET_FORMS_ISOFORM_ANNOTATIONS" target="_top">
<polygon fill="#ffffff" stroke="transparent" points="921.5,-1023.0921 921.5,-1084.0921 1197.5,-1084.0921 1197.5,-1023.0921 921.5,-1023.0921"/>
<polygon fill="#f5f5f5" stroke="transparent" points="921.5,-1060.5921 921.5,-1083.5921 1197.5,-1083.5921 1197.5,-1060.5921 921.5,-1060.5921"/>
<polygon fill="none" stroke="#000000" points="921.5,-1060.5921 921.5,-1083.5921 1197.5,-1083.5921 1197.5,-1060.5921 921.5,-1060.5921"/>
<text text-anchor="start" x="926.2801" y="-1069.6921" font-family="Helvetica,sans-Serif" font-weight="bold" font-size="11.00" fill="#000000">TARGET_FORMS_ISOFORM_ANNOTATIONS</text>
<text text-anchor="start" x="1163.0219" y="-1068.6921" font-family="Helvetica,sans-Serif" font-size="11.00" fill="#000000">[table]</text>
<polygon fill="none" stroke="#000000" points="921.5,-1041.5921 921.5,-1060.5921 1197.5,-1060.5921 1197.5,-1041.5921 921.5,-1041.5921"/>
<text text-anchor="start" x="924.5" y="-1047.6921" font-family="Helvetica,sans-Serif" font-size="11.00" fill="#000000">...</text>
<polygon fill="#ffffff" stroke="transparent" points="921.5,-1022.5921 921.5,-1041.5921 1044.5,-1041.5921 1044.5,-1022.5921 921.5,-1022.5921"/>
<polygon fill="none" stroke="#000000" points="921.5,-1022.5921 921.5,-1041.5921 1044.5,-1041.5921 1044.5,-1022.5921 921.5,-1022.5921"/>
<text text-anchor="start" x="924.5" y="-1028.6921" font-family="Helvetica,sans-Serif" font-size="11.00" fill="#000000">&lt; 2</text>
<polygon fill="#ffffff" stroke="transparent" points="1044.5,-1022.5921 1044.5,-1041.5921 1133.5,-1041.5921 1133.5,-1022.5921 1044.5,-1022.5921"/>
<polygon fill="none" stroke="#000000" points="1044.5,-1022.5921 1044.5,-1041.5921 1133.5,-1041.5921 1133.5,-1022.5921 1044.5,-1022.5921"/>
<text text-anchor="start" x="1098.1105" y="-1028.6921" font-family="Helvetica,sans-Serif" font-size="11.00" fill="#000000">4 rows</text>
<polygon fill="#ffffff" stroke="transparent" points="1133.5,-1022.5921 1133.5,-1041.5921 1197.5,-1041.5921 1197.5,-1022.5921 1133.5,-1022.5921"/>
<polygon fill="none" stroke="#000000" points="1133.5,-1022.5921 1133.5,-1041.5921 1197.5,-1041.5921 1197.5,-1022.5921 1133.5,-1022.5921"/>
<text text-anchor="start" x="1188.3862" y="-1028.6921" font-family="Helvetica,sans-Serif" font-size="11.00" fill="#000000"> &#160;</text>
</a>
</g>
</g>
<!-- TARGET_FORMS_ISOFORM_ANNOTATIONS&#45;&gt;TARGET_FORMS -->
<g id="edge17" class="edge">
<title>TARGET_FORMS_ISOFORM_ANNOTATIONS:w&#45;&gt;TARGET_FORMS:e</title>
<path fill="none" stroke="#000000" d="M907.7231,-1045.7009C858.2827,-1004.8988 924.4769,-722.5921 855.5,-722.5921"/>
<polygon fill="#000000" stroke="#000000" points="913.961,-1047.9155 920.2955,-1053.9847 917.7305,-1049.2538 921.5,-1050.5921 921.5,-1050.5921 921.5,-1050.5921 917.7305,-1049.2538 922.7045,-1047.1996 913.961,-1047.9155 913.961,-1047.9155"/>
<ellipse fill="none" stroke="#000000" cx="910.9454" cy="-1046.8449" rx="3.2" ry="3.2"/>
</g>
<!-- TARGET_FORMS_ISOFORM_DOMAINS -->
<g id="node13" class="node">
<title>TARGET_FORMS_ISOFORM_DOMAINS</title>
<g id="a_node13"><a xlink:href="../../tables/TARGET_FORMS_ISOFORM_DOMAINS.html" xlink:title="TARGET_FORMS_ISOFORM_DOMAINS" target="_top">
<polygon fill="#ffffff" stroke="transparent" points="935.5,-941.0921 935.5,-1002.0921 1183.5,-1002.0921 1183.5,-941.0921 935.5,-941.0921"/>
<polygon fill="#f5f5f5" stroke="transparent" points="935.5,-978.5921 935.5,-1001.5921 1183.5,-1001.5921 1183.5,-978.5921 935.5,-978.5921"/>
<polygon fill="none" stroke="#000000" points="935.5,-978.5921 935.5,-1001.5921 1183.5,-1001.5921 1183.5,-978.5921 935.5,-978.5921"/>
<text text-anchor="start" x="940.3359" y="-987.6921" font-family="Helvetica,sans-Serif" font-weight="bold" font-size="11.00" fill="#000000">TARGET_FORMS_ISOFORM_DOMAINS</text>
<text text-anchor="start" x="1149.0219" y="-986.6921" font-family="Helvetica,sans-Serif" font-size="11.00" fill="#000000">[table]</text>
<polygon fill="none" stroke="#000000" points="935.5,-959.5921 935.5,-978.5921 1183.5,-978.5921 1183.5,-959.5921 935.5,-959.5921"/>
<text text-anchor="start" x="938.5" y="-965.6921" font-family="Helvetica,sans-Serif" font-size="11.00" fill="#000000">...</text>
<polygon fill="#ffffff" stroke="transparent" points="935.5,-940.5921 935.5,-959.5921 1038.5,-959.5921 1038.5,-940.5921 935.5,-940.5921"/>
<polygon fill="none" stroke="#000000" points="935.5,-940.5921 935.5,-959.5921 1038.5,-959.5921 1038.5,-940.5921 935.5,-940.5921"/>
<text text-anchor="start" x="938.5" y="-946.6921" font-family="Helvetica,sans-Serif" font-size="11.00" fill="#000000">&lt; 2</text>
<polygon fill="#ffffff" stroke="transparent" points="1038.5,-940.5921 1038.5,-959.5921 1129.5,-959.5921 1129.5,-940.5921 1038.5,-940.5921"/>
<polygon fill="none" stroke="#000000" points="1038.5,-940.5921 1038.5,-959.5921 1129.5,-959.5921 1129.5,-940.5921 1038.5,-940.5921"/>
<text text-anchor="start" x="1081.8807" y="-946.6921" font-family="Helvetica,sans-Serif" font-size="11.00" fill="#000000">725 rows</text>
<polygon fill="#ffffff" stroke="transparent" points="1129.5,-940.5921 1129.5,-959.5921 1183.5,-959.5921 1183.5,-940.5921 1129.5,-940.5921"/>
<polygon fill="none" stroke="#000000" points="1129.5,-940.5921 1129.5,-959.5921 1183.5,-959.5921 1183.5,-940.5921 1129.5,-940.5921"/>
<text text-anchor="start" x="1174.3862" y="-946.6921" font-family="Helvetica,sans-Serif" font-size="11.00" fill="#000000"> &#160;</text>
</a>
</g>
</g>
<!-- TARGET_FORMS_ISOFORM_DOMAINS&#45;&gt;TARGET_FORMS -->
<g id="edge18" class="edge">
<title>TARGET_FORMS_ISOFORM_DOMAINS:w&#45;&gt;TARGET_FORMS:e</title>
<path fill="none" stroke="#000000" d="M921.0604,-965.8381C908.9697,-960.2683 904.8267,-946.8059 896,-930.5921 873.4846,-889.2333 902.5903,-722.5921 855.5,-722.5921"/>
<polygon fill="#000000" stroke="#000000" points="927.6416,-967.0933 934.8255,-972.1284 931.5708,-967.8427 935.5,-968.5921 935.5,-968.5921 935.5,-968.5921 931.5708,-967.8427 936.1745,-965.0559 927.6416,-967.0933 927.6416,-967.0933"/>
<ellipse fill="none" stroke="#000000" cx="924.4983" cy="-966.4938" rx="3.2" ry="3.2"/>
</g>
<!-- TARGET_FORMS_ISOFORM_MOTIFS -->
<g id="node14" class="node">
<title>TARGET_FORMS_ISOFORM_MOTIFS</title>
<g id="a_node14"><a xlink:href="../../tables/TARGET_FORMS_ISOFORM_MOTIFS.html" xlink:title="TARGET_FORMS_ISOFORM_MOTIFS" target="_top">
<polygon fill="#ffffff" stroke="transparent" points="940.5,-859.0921 940.5,-920.0921 1178.5,-920.0921 1178.5,-859.0921 940.5,-859.0921"/>
<polygon fill="#f5f5f5" stroke="transparent" points="940.5,-896.5921 940.5,-919.5921 1178.5,-919.5921 1178.5,-896.5921 940.5,-896.5921"/>
<polygon fill="none" stroke="#000000" points="940.5,-896.5921 940.5,-919.5921 1178.5,-919.5921 1178.5,-896.5921 940.5,-896.5921"/>
<text text-anchor="start" x="945.2249" y="-905.6921" font-family="Helvetica,sans-Serif" font-weight="bold" font-size="11.00" fill="#000000">TARGET_FORMS_ISOFORM_MOTIFS</text>
<text text-anchor="start" x="1144.0219" y="-904.6921" font-family="Helvetica,sans-Serif" font-size="11.00" fill="#000000">[table]</text>
<polygon fill="none" stroke="#000000" points="940.5,-877.5921 940.5,-896.5921 1178.5,-896.5921 1178.5,-877.5921 940.5,-877.5921"/>
<text text-anchor="start" x="943.5" y="-883.6921" font-family="Helvetica,sans-Serif" font-size="11.00" fill="#000000">...</text>
<polygon fill="#ffffff" stroke="transparent" points="940.5,-858.5921 940.5,-877.5921 1038.5,-877.5921 1038.5,-858.5921 940.5,-858.5921"/>
<polygon fill="none" stroke="#000000" points="940.5,-858.5921 940.5,-877.5921 1038.5,-877.5921 1038.5,-858.5921 940.5,-858.5921"/>
<text text-anchor="start" x="943.5" y="-864.6921" font-family="Helvetica,sans-Serif" font-size="11.00" fill="#000000">&lt; 2</text>
<polygon fill="#ffffff" stroke="transparent" points="1038.5,-858.5921 1038.5,-877.5921 1127.5,-877.5921 1127.5,-858.5921 1038.5,-858.5921"/>
<polygon fill="none" stroke="#000000" points="1038.5,-858.5921 1038.5,-877.5921 1127.5,-877.5921 1127.5,-858.5921 1038.5,-858.5921"/>
<text text-anchor="start" x="1079.8807" y="-864.6921" font-family="Helvetica,sans-Serif" font-size="11.00" fill="#000000">221 rows</text>
<polygon fill="#ffffff" stroke="transparent" points="1127.5,-858.5921 1127.5,-877.5921 1178.5,-877.5921 1178.5,-858.5921 1127.5,-858.5921"/>
<polygon fill="none" stroke="#000000" points="1127.5,-858.5921 1127.5,-877.5921 1178.5,-877.5921 1178.5,-858.5921 1127.5,-858.5921"/>
<text text-anchor="start" x="1169.3862" y="-864.6921" font-family="Helvetica,sans-Serif" font-size="11.00" fill="#000000"> &#160;</text>
</a>
</g>
</g>
<!-- TARGET_FORMS_ISOFORM_MOTIFS&#45;&gt;TARGET_FORMS -->
<g id="edge19" class="edge">
<title>TARGET_FORMS_ISOFORM_MOTIFS:w&#45;&gt;TARGET_FORMS:e</title>
<path fill="none" stroke="#000000" d="M926.243,-884.3603C912.2141,-879.1843 907.2623,-865.5036 896,-848.5921 863.3956,-799.6334 914.3218,-722.5921 855.5,-722.5921"/>
<polygon fill="#000000" stroke="#000000" points="932.5963,-885.3548 939.9432,-890.1488 936.5481,-885.9735 940.5,-886.5921 940.5,-886.5921 940.5,-886.5921 936.5481,-885.9735 941.0568,-883.0354 932.5963,-885.3548 932.5963,-885.3548"/>
<ellipse fill="none" stroke="#000000" cx="929.4348" cy="-884.8599" rx="3.2" ry="3.2"/>
</g>
<!-- TARGET_FORMS_ISOFORM_REGIONS -->
<g id="node15" class="node">
<title>TARGET_FORMS_ISOFORM_REGIONS</title>
<g id="a_node15"><a xlink:href="../../tables/TARGET_FORMS_ISOFORM_REGIONS.html" xlink:title="TARGET_FORMS_ISOFORM_REGIONS" target="_top">
<polygon fill="#ffffff" stroke="transparent" points="936,-777.0921 936,-838.0921 1183,-838.0921 1183,-777.0921 936,-777.0921"/>
<polygon fill="#f5f5f5" stroke="transparent" points="936.5,-814.5921 936.5,-837.5921 1183.5,-837.5921 1183.5,-814.5921 936.5,-814.5921"/>
<polygon fill="none" stroke="#000000" points="936.5,-814.5921 936.5,-837.5921 1183.5,-837.5921 1183.5,-814.5921 936.5,-814.5921"/>
<text text-anchor="start" x="941.1384" y="-823.6921" font-family="Helvetica,sans-Serif" font-weight="bold" font-size="11.00" fill="#000000">TARGET_FORMS_ISOFORM_REGIONS</text>
<text text-anchor="start" x="1149.0219" y="-822.6921" font-family="Helvetica,sans-Serif" font-size="11.00" fill="#000000">[table]</text>
<polygon fill="none" stroke="#000000" points="936.5,-795.5921 936.5,-814.5921 1183.5,-814.5921 1183.5,-795.5921 936.5,-795.5921"/>
<text text-anchor="start" x="939.5" y="-801.6921" font-family="Helvetica,sans-Serif" font-size="11.00" fill="#000000">...</text>
<polygon fill="#ffffff" stroke="transparent" points="936.5,-776.5921 936.5,-795.5921 1039.5,-795.5921 1039.5,-776.5921 936.5,-776.5921"/>
<polygon fill="none" stroke="#000000" points="936.5,-776.5921 936.5,-795.5921 1039.5,-795.5921 1039.5,-776.5921 936.5,-776.5921"/>
<text text-anchor="start" x="939.5" y="-782.6921" font-family="Helvetica,sans-Serif" font-size="11.00" fill="#000000">&lt; 2</text>
<polygon fill="#ffffff" stroke="transparent" points="1039.5,-776.5921 1039.5,-795.5921 1130.5,-795.5921 1130.5,-776.5921 1039.5,-776.5921"/>
<polygon fill="none" stroke="#000000" points="1039.5,-776.5921 1039.5,-795.5921 1130.5,-795.5921 1130.5,-776.5921 1039.5,-776.5921"/>
<text text-anchor="start" x="1082.8807" y="-782.6921" font-family="Helvetica,sans-Serif" font-size="11.00" fill="#000000">153 rows</text>
<polygon fill="#ffffff" stroke="transparent" points="1130.5,-776.5921 1130.5,-795.5921 1183.5,-795.5921 1183.5,-776.5921 1130.5,-776.5921"/>
<polygon fill="none" stroke="#000000" points="1130.5,-776.5921 1130.5,-795.5921 1183.5,-795.5921 1183.5,-776.5921 1130.5,-776.5921"/>
<text text-anchor="start" x="1174.3862" y="-782.6921" font-family="Helvetica,sans-Serif" font-size="11.00" fill="#000000"> &#160;</text>
</a>
</g>
</g>
<!-- TARGET_FORMS_ISOFORM_REGIONS&#45;&gt;TARGET_FORMS -->
<g id="edge20" class="edge">
<title>TARGET_FORMS_ISOFORM_REGIONS:w&#45;&gt;TARGET_FORMS:e</title>
<path fill="none" stroke="#000000" d="M922.2015,-801.1207C911.4109,-794.5433 909.0272,-779.7445 896,-766.5921 877.2962,-747.7086 882.0786,-722.5921 855.5,-722.5921"/>
<polygon fill="#000000" stroke="#000000" points="928.7258,-802.7047 935.6506,-808.0905 932.6129,-803.6484 936.5,-804.5921 936.5,-804.5921 936.5,-804.5921 932.6129,-803.6484 937.3494,-801.0938 928.7258,-802.7047 928.7258,-802.7047"/>
<ellipse fill="none" stroke="#000000" cx="925.6162" cy="-801.9497" rx="3.2" ry="3.2"/>
</g>
<!-- TARGET_FORMS_ISOFORM_VARIANTS -->
<g id="node16" class="node">
<title>TARGET_FORMS_ISOFORM_VARIANTS</title>
<g id="a_node16"><a xlink:href="../../tables/TARGET_FORMS_ISOFORM_VARIANTS.html" xlink:title="TARGET_FORMS_ISOFORM_VARIANTS" target="_top">
<polygon fill="#ffffff" stroke="transparent" points="933.5,-695.0921 933.5,-756.0921 1185.5,-756.0921 1185.5,-695.0921 933.5,-695.0921"/>
<polygon fill="#f5f5f5" stroke="transparent" points="933.5,-732.5921 933.5,-755.5921 1185.5,-755.5921 1185.5,-732.5921 933.5,-732.5921"/>
<polygon fill="none" stroke="#000000" points="933.5,-732.5921 933.5,-755.5921 1185.5,-755.5921 1185.5,-732.5921 933.5,-732.5921"/>
<text text-anchor="start" x="938.4995" y="-741.6921" font-family="Helvetica,sans-Serif" font-weight="bold" font-size="11.00" fill="#000000">TARGET_FORMS_ISOFORM_VARIANTS</text>
<text text-anchor="start" x="1151.0219" y="-740.6921" font-family="Helvetica,sans-Serif" font-size="11.00" fill="#000000">[table]</text>
<polygon fill="none" stroke="#000000" points="933.5,-713.5921 933.5,-732.5921 1185.5,-732.5921 1185.5,-713.5921 933.5,-713.5921"/>
<text text-anchor="start" x="936.5" y="-719.6921" font-family="Helvetica,sans-Serif" font-size="11.00" fill="#000000">...</text>
<polygon fill="#ffffff" stroke="transparent" points="933.5,-694.5921 933.5,-713.5921 1038.5,-713.5921 1038.5,-694.5921 933.5,-694.5921"/>
<polygon fill="none" stroke="#000000" points="933.5,-694.5921 933.5,-713.5921 1038.5,-713.5921 1038.5,-694.5921 933.5,-694.5921"/>
<text text-anchor="start" x="936.5" y="-700.6921" font-family="Helvetica,sans-Serif" font-size="11.00" fill="#000000">&lt; 2</text>
<polygon fill="#ffffff" stroke="transparent" points="1038.5,-694.5921 1038.5,-713.5921 1130.5,-713.5921 1130.5,-694.5921 1038.5,-694.5921"/>
<polygon fill="none" stroke="#000000" points="1038.5,-694.5921 1038.5,-713.5921 1130.5,-713.5921 1130.5,-694.5921 1038.5,-694.5921"/>
<text text-anchor="start" x="1082.8807" y="-700.6921" font-family="Helvetica,sans-Serif" font-size="11.00" fill="#000000">108 rows</text>
<polygon fill="#ffffff" stroke="transparent" points="1130.5,-694.5921 1130.5,-713.5921 1185.5,-713.5921 1185.5,-694.5921 1130.5,-694.5921"/>
<polygon fill="none" stroke="#000000" points="1130.5,-694.5921 1130.5,-713.5921 1185.5,-713.5921 1185.5,-694.5921 1130.5,-694.5921"/>
<text text-anchor="start" x="1176.3862" y="-700.6921" font-family="Helvetica,sans-Serif" font-size="11.00" fill="#000000"> &#160;</text>
</a>
</g>
</g>
<!-- TARGET_FORMS_ISOFORM_VARIANTS&#45;&gt;TARGET_FORMS -->
<g id="edge21" class="edge">
<title>TARGET_FORMS_ISOFORM_VARIANTS:w&#45;&gt;TARGET_FORMS:e</title>
<path fill="none" stroke="#000000" d="M918.9559,-722.5921C895.4902,-722.5921 884.75,-722.5921 855.5,-722.5921"/>
<polygon fill="#000000" stroke="#000000" points="925.5,-722.5922 933.5,-726.1921 929.5,-722.5922 933.5,-722.5921 933.5,-722.5921 933.5,-722.5921 929.5,-722.5922 933.5,-718.9921 925.5,-722.5922 925.5,-722.5922"/>
<ellipse fill="none" stroke="#000000" cx="922.3" cy="-722.5922" rx="3.2" ry="3.2"/>
</g>
<!-- TARGET_FORMS_PROTEIN_CLEAVAGE_SITES -->
<g id="node17" class="node">
<title>TARGET_FORMS_PROTEIN_CLEAVAGE_SITES</title>
<g id="a_node17"><a xlink:href="../../tables/TARGET_FORMS_PROTEIN_CLEAVAGE_SITES.html" xlink:title="TARGET_FORMS_PROTEIN_CLEAVAGE_SITES" target="_top">
<polygon fill="#ffffff" stroke="transparent" points="914,-613.0921 914,-674.0921 1205,-674.0921 1205,-613.0921 914,-613.0921"/>
<polygon fill="#f5f5f5" stroke="transparent" points="914.5,-650.5921 914.5,-673.5921 1205.5,-673.5921 1205.5,-650.5921 914.5,-650.5921"/>
<polygon fill="none" stroke="#000000" points="914.5,-650.5921 914.5,-673.5921 1205.5,-673.5921 1205.5,-650.5921 914.5,-650.5921"/>
<text text-anchor="start" x="919.1258" y="-659.6921" font-family="Helvetica,sans-Serif" font-weight="bold" font-size="11.00" fill="#000000">TARGET_FORMS_PROTEIN_CLEAVAGE_SITES</text>
<text text-anchor="start" x="1171.0219" y="-658.6921" font-family="Helvetica,sans-Serif" font-size="11.00" fill="#000000">[table]</text>
<polygon fill="none" stroke="#000000" points="914.5,-631.5921 914.5,-650.5921 1205.5,-650.5921 1205.5,-631.5921 914.5,-631.5921"/>
<text text-anchor="start" x="917.5" y="-637.6921" font-family="Helvetica,sans-Serif" font-size="11.00" fill="#000000">...</text>
<polygon fill="#ffffff" stroke="transparent" points="914.5,-612.5921 914.5,-631.5921 1039.5,-631.5921 1039.5,-612.5921 914.5,-612.5921"/>
<polygon fill="none" stroke="#000000" points="914.5,-612.5921 914.5,-631.5921 1039.5,-631.5921 1039.5,-612.5921 914.5,-612.5921"/>
<text text-anchor="start" x="917.5" y="-618.6921" font-family="Helvetica,sans-Serif" font-size="11.00" fill="#000000">&lt; 2</text>
<polygon fill="#ffffff" stroke="transparent" points="1039.5,-612.5921 1039.5,-631.5921 1141.5,-631.5921 1141.5,-612.5921 1039.5,-612.5921"/>
<polygon fill="none" stroke="#000000" points="1039.5,-612.5921 1039.5,-631.5921 1141.5,-631.5921 1141.5,-612.5921 1039.5,-612.5921"/>
<text text-anchor="start" x="1093.8807" y="-618.6921" font-family="Helvetica,sans-Serif" font-size="11.00" fill="#000000">112 rows</text>
<polygon fill="#ffffff" stroke="transparent" points="1141.5,-612.5921 1141.5,-631.5921 1205.5,-631.5921 1205.5,-612.5921 1141.5,-612.5921"/>
<polygon fill="none" stroke="#000000" points="1141.5,-612.5921 1141.5,-631.5921 1205.5,-631.5921 1205.5,-612.5921 1141.5,-612.5921"/>
<text text-anchor="start" x="1196.3862" y="-618.6921" font-family="Helvetica,sans-Serif" font-size="11.00" fill="#000000"> &#160;</text>
</a>
</g>
</g>
<!-- TARGET_FORMS_PROTEIN_CLEAVAGE_SITES&#45;&gt;TARGET_FORMS -->
<g id="edge22" class="edge">
<title>TARGET_FORMS_PROTEIN_CLEAVAGE_SITES:w&#45;&gt;TARGET_FORMS:e</title>
<path fill="none" stroke="#000000" d="M900.5863,-644.3286C876.284,-660.3702 894.6101,-722.5921 855.5,-722.5921"/>
<polygon fill="#000000" stroke="#000000" points="906.7737,-642.667 915.4337,-644.069 910.6369,-641.6296 914.5,-640.5921 914.5,-640.5921 914.5,-640.5921 910.6369,-641.6296 913.5663,-637.1153 906.7737,-642.667 906.7737,-642.667"/>
<ellipse fill="none" stroke="#000000" cx="903.6832" cy="-643.497" rx="3.2" ry="3.2"/>
</g>
<!-- TARGET_FORMS_PROTEIN_FUSION_SEQUENCES -->
<g id="node18" class="node">
<title>TARGET_FORMS_PROTEIN_FUSION_SEQUENCES</title>
<g id="a_node18"><a xlink:href="../../tables/TARGET_FORMS_PROTEIN_FUSION_SEQUENCES.html" xlink:title="TARGET_FORMS_PROTEIN_FUSION_SEQUENCES" target="_top">
<polygon fill="#ffffff" stroke="transparent" points="904,-531.0921 904,-592.0921 1215,-592.0921 1215,-531.0921 904,-531.0921"/>
<polygon fill="#f5f5f5" stroke="transparent" points="904.5,-568.5921 904.5,-591.5921 1215.5,-591.5921 1215.5,-568.5921 904.5,-568.5921"/>
<polygon fill="none" stroke="#000000" points="904.5,-568.5921 904.5,-591.5921 1215.5,-591.5921 1215.5,-568.5921 904.5,-568.5921"/>
<text text-anchor="start" x="909.3589" y="-577.6921" font-family="Helvetica,sans-Serif" font-weight="bold" font-size="11.00" fill="#000000">TARGET_FORMS_PROTEIN_FUSION_SEQUENCES</text>
<text text-anchor="start" x="1181.0219" y="-576.6921" font-family="Helvetica,sans-Serif" font-size="11.00" fill="#000000">[table]</text>
<polygon fill="none" stroke="#000000" points="904.5,-549.5921 904.5,-568.5921 1215.5,-568.5921 1215.5,-549.5921 904.5,-549.5921"/>
<text text-anchor="start" x="907.5" y="-555.6921" font-family="Helvetica,sans-Serif" font-size="11.00" fill="#000000">...</text>
<polygon fill="#ffffff" stroke="transparent" points="904.5,-530.5921 904.5,-549.5921 1039.5,-549.5921 1039.5,-530.5921 904.5,-530.5921"/>
<polygon fill="none" stroke="#000000" points="904.5,-530.5921 904.5,-549.5921 1039.5,-549.5921 1039.5,-530.5921 904.5,-530.5921"/>
<text text-anchor="start" x="907.5" y="-536.6921" font-family="Helvetica,sans-Serif" font-size="11.00" fill="#000000">&lt; 2</text>
<polygon fill="#ffffff" stroke="transparent" points="1039.5,-530.5921 1039.5,-549.5921 1146.5,-549.5921 1146.5,-530.5921 1039.5,-530.5921"/>
<polygon fill="none" stroke="#000000" points="1039.5,-530.5921 1039.5,-549.5921 1146.5,-549.5921 1146.5,-530.5921 1039.5,-530.5921"/>
<text text-anchor="start" x="1098.8807" y="-536.6921" font-family="Helvetica,sans-Serif" font-size="11.00" fill="#000000">110 rows</text>
<polygon fill="#ffffff" stroke="transparent" points="1146.5,-530.5921 1146.5,-549.5921 1215.5,-549.5921 1215.5,-530.5921 1146.5,-530.5921"/>
<polygon fill="none" stroke="#000000" points="1146.5,-530.5921 1146.5,-549.5921 1215.5,-549.5921 1215.5,-530.5921 1146.5,-530.5921"/>
<text text-anchor="start" x="1206.3862" y="-536.6921" font-family="Helvetica,sans-Serif" font-size="11.00" fill="#000000"> &#160;</text>
</a>
</g>
</g>
<!-- TARGET_FORMS_PROTEIN_FUSION_SEQUENCES&#45;&gt;TARGET_FORMS -->
<g id="edge23" class="edge">
<title>TARGET_FORMS_PROTEIN_FUSION_SEQUENCES:w&#45;&gt;TARGET_FORMS:e</title>
<path fill="none" stroke="#000000" d="M890.0773,-561.3018C843.101,-582.625 925.7781,-722.5921 855.5,-722.5921"/>
<polygon fill="#000000" stroke="#000000" points="896.6376,-560.0694 905.1647,-562.1302 900.5688,-559.3307 904.5,-558.5921 904.5,-558.5921 904.5,-558.5921 900.5688,-559.3307 903.8353,-555.054 896.6376,-560.0694 896.6376,-560.0694"/>
<ellipse fill="none" stroke="#000000" cx="893.4926" cy="-560.6602" rx="3.2" ry="3.2"/>
</g>
<!-- TARGET_FORMS_PROTEIN_GROUPS -->
<g id="node19" class="node">
<title>TARGET_FORMS_PROTEIN_GROUPS</title>
<g id="a_node19"><a xlink:href="../../tables/TARGET_FORMS_PROTEIN_GROUPS.html" xlink:title="TARGET_FORMS_PROTEIN_GROUPS" target="_top">
<polygon fill="#ffffff" stroke="transparent" points="938.5,-449.0921 938.5,-510.0921 1180.5,-510.0921 1180.5,-449.0921 938.5,-449.0921"/>
<polygon fill="#f5f5f5" stroke="transparent" points="938.5,-486.5921 938.5,-509.5921 1180.5,-509.5921 1180.5,-486.5921 938.5,-486.5921"/>
<polygon fill="none" stroke="#000000" points="938.5,-486.5921 938.5,-509.5921 1180.5,-509.5921 1180.5,-486.5921 938.5,-486.5921"/>
<text text-anchor="start" x="943.3879" y="-495.6921" font-family="Helvetica,sans-Serif" font-weight="bold" font-size="11.00" fill="#000000">TARGET_FORMS_PROTEIN_GROUPS</text>
<text text-anchor="start" x="1146.0219" y="-494.6921" font-family="Helvetica,sans-Serif" font-size="11.00" fill="#000000">[table]</text>
<polygon fill="none" stroke="#000000" points="938.5,-467.5921 938.5,-486.5921 1180.5,-486.5921 1180.5,-467.5921 938.5,-467.5921"/>
<text text-anchor="start" x="941.5" y="-473.6921" font-family="Helvetica,sans-Serif" font-size="11.00" fill="#000000">...</text>
<polygon fill="#ffffff" stroke="transparent" points="938.5,-448.5921 938.5,-467.5921 1041.5,-467.5921 1041.5,-448.5921 938.5,-448.5921"/>
<polygon fill="none" stroke="#000000" points="938.5,-448.5921 938.5,-467.5921 1041.5,-467.5921 1041.5,-448.5921 938.5,-448.5921"/>
<text text-anchor="start" x="941.5" y="-454.6921" font-family="Helvetica,sans-Serif" font-size="11.00" fill="#000000">&lt; 2</text>
<polygon fill="#ffffff" stroke="transparent" points="1041.5,-448.5921 1041.5,-467.5921 1126.5,-467.5921 1126.5,-448.5921 1041.5,-448.5921"/>
<polygon fill="none" stroke="#000000" points="1041.5,-448.5921 1041.5,-467.5921 1126.5,-467.5921 1126.5,-448.5921 1041.5,-448.5921"/>
<text text-anchor="start" x="1084.9956" y="-454.6921" font-family="Helvetica,sans-Serif" font-size="11.00" fill="#000000">17 rows</text>
<polygon fill="#ffffff" stroke="transparent" points="1126.5,-448.5921 1126.5,-467.5921 1180.5,-467.5921 1180.5,-448.5921 1126.5,-448.5921"/>
<polygon fill="none" stroke="#000000" points="1126.5,-448.5921 1126.5,-467.5921 1180.5,-467.5921 1180.5,-448.5921 1126.5,-448.5921"/>
<text text-anchor="start" x="1171.3862" y="-454.6921" font-family="Helvetica,sans-Serif" font-size="11.00" fill="#000000"> &#160;</text>
</a>
</g>
</g>
<!-- TARGET_FORMS_PROTEIN_GROUPS&#45;&gt;TARGET_FORMS -->
<g id="edge24" class="edge">
<title>TARGET_FORMS_PROTEIN_GROUPS:w&#45;&gt;TARGET_FORMS:e</title>
<path fill="none" stroke="#000000" d="M924.2423,-479.1034C909.7365,-485.1814 905.9631,-501.5926 896,-520.5921 874.7384,-561.1379 901.2822,-722.5921 855.5,-722.5921"/>
<polygon fill="#000000" stroke="#000000" points="930.6213,-477.9799 939.1245,-480.1376 934.5606,-477.286 938.5,-476.5921 938.5,-476.5921 938.5,-476.5921 934.5606,-477.286 937.8755,-473.0467 930.6213,-477.9799 930.6213,-477.9799"/>
<ellipse fill="none" stroke="#000000" cx="927.4698" cy="-478.535" rx="3.2" ry="3.2"/>
</g>
<!-- TARGET_FORMS_PROTEIN_LINKERS -->
<g id="node20" class="node">
<title>TARGET_FORMS_PROTEIN_LINKERS</title>
<g id="a_node20"><a xlink:href="../../tables/TARGET_FORMS_PROTEIN_LINKERS.html" xlink:title="TARGET_FORMS_PROTEIN_LINKERS" target="_top">
<polygon fill="#ffffff" stroke="transparent" points="939,-367.0921 939,-428.0921 1180,-428.0921 1180,-367.0921 939,-367.0921"/>
<polygon fill="#f5f5f5" stroke="transparent" points="939.5,-404.5921 939.5,-427.5921 1180.5,-427.5921 1180.5,-404.5921 939.5,-404.5921"/>
<polygon fill="none" stroke="#000000" points="939.5,-404.5921 939.5,-427.5921 1180.5,-427.5921 1180.5,-404.5921 939.5,-404.5921"/>
<text text-anchor="start" x="944.1909" y="-413.6921" font-family="Helvetica,sans-Serif" font-weight="bold" font-size="11.00" fill="#000000">TARGET_FORMS_PROTEIN_LINKERS</text>
<text text-anchor="start" x="1146.0219" y="-412.6921" font-family="Helvetica,sans-Serif" font-size="11.00" fill="#000000">[table]</text>
<polygon fill="none" stroke="#000000" points="939.5,-385.5921 939.5,-404.5921 1180.5,-404.5921 1180.5,-385.5921 939.5,-385.5921"/>
<text text-anchor="start" x="942.5" y="-391.6921" font-family="Helvetica,sans-Serif" font-size="11.00" fill="#000000">...</text>
<polygon fill="#ffffff" stroke="transparent" points="939.5,-366.5921 939.5,-385.5921 1039.5,-385.5921 1039.5,-366.5921 939.5,-366.5921"/>
<polygon fill="none" stroke="#000000" points="939.5,-366.5921 939.5,-385.5921 1039.5,-385.5921 1039.5,-366.5921 939.5,-366.5921"/>
<text text-anchor="start" x="942.5" y="-372.6921" font-family="Helvetica,sans-Serif" font-size="11.00" fill="#000000">&lt; 2</text>
<polygon fill="#ffffff" stroke="transparent" points="1039.5,-366.5921 1039.5,-385.5921 1128.5,-385.5921 1128.5,-366.5921 1039.5,-366.5921"/>
<polygon fill="none" stroke="#000000" points="1039.5,-366.5921 1039.5,-385.5921 1128.5,-385.5921 1128.5,-366.5921 1039.5,-366.5921"/>
<text text-anchor="start" x="1080.8807" y="-372.6921" font-family="Helvetica,sans-Serif" font-size="11.00" fill="#000000">149 rows</text>
<polygon fill="#ffffff" stroke="transparent" points="1128.5,-366.5921 1128.5,-385.5921 1180.5,-385.5921 1180.5,-366.5921 1128.5,-366.5921"/>
<polygon fill="none" stroke="#000000" points="1128.5,-366.5921 1128.5,-385.5921 1180.5,-385.5921 1180.5,-366.5921 1128.5,-366.5921"/>
<text text-anchor="start" x="1171.3862" y="-372.6921" font-family="Helvetica,sans-Serif" font-size="11.00" fill="#000000"> &#160;</text>
</a>
</g>
</g>
<!-- TARGET_FORMS_PROTEIN_LINKERS&#45;&gt;TARGET_FORMS -->
<g id="edge25" class="edge">
<title>TARGET_FORMS_PROTEIN_LINKERS:w&#45;&gt;TARGET_FORMS:e</title>
<path fill="none" stroke="#000000" d="M924.9629,-397.045C910.0319,-402.9971 905.646,-419.1556 896,-438.5921 867.6604,-495.6962 919.2496,-722.5921 855.5,-722.5921"/>
<polygon fill="#000000" stroke="#000000" points="931.6115,-395.9232 940.099,-398.142 935.5558,-395.2577 939.5,-394.5921 939.5,-394.5921 939.5,-394.5921 935.5558,-395.2577 938.901,-391.0423 931.6115,-395.9232 931.6115,-395.9232"/>
<ellipse fill="none" stroke="#000000" cx="928.4561" cy="-396.4557" rx="3.2" ry="3.2"/>
</g>
<!-- TARGET_FORMS_PROTEIN_TAGS -->
<g id="node21" class="node">
<title>TARGET_FORMS_PROTEIN_TAGS</title>
<g id="a_node21"><a xlink:href="../../tables/TARGET_FORMS_PROTEIN_TAGS.html" xlink:title="TARGET_FORMS_PROTEIN_TAGS" target="_top">
<polygon fill="#ffffff" stroke="transparent" points="947.5,-285.0921 947.5,-346.0921 1171.5,-346.0921 1171.5,-285.0921 947.5,-285.0921"/>
<polygon fill="#f5f5f5" stroke="transparent" points="947.5,-322.5921 947.5,-345.5921 1171.5,-345.5921 1171.5,-322.5921 947.5,-322.5921"/>
<polygon fill="none" stroke="#000000" points="947.5,-322.5921 947.5,-345.5921 1171.5,-345.5921 1171.5,-322.5921 947.5,-322.5921"/>
<text text-anchor="start" x="952.2473" y="-331.6921" font-family="Helvetica,sans-Serif" font-weight="bold" font-size="11.00" fill="#000000">TARGET_FORMS_PROTEIN_TAGS</text>
<text text-anchor="start" x="1137.0219" y="-330.6921" font-family="Helvetica,sans-Serif" font-size="11.00" fill="#000000">[table]</text>
<polygon fill="none" stroke="#000000" points="947.5,-303.5921 947.5,-322.5921 1171.5,-322.5921 1171.5,-303.5921 947.5,-303.5921"/>
<text text-anchor="start" x="950.5" y="-309.6921" font-family="Helvetica,sans-Serif" font-size="11.00" fill="#000000">...</text>
<polygon fill="#ffffff" stroke="transparent" points="947.5,-284.5921 947.5,-303.5921 1038.5,-303.5921 1038.5,-284.5921 947.5,-284.5921"/>
<polygon fill="none" stroke="#000000" points="947.5,-284.5921 947.5,-303.5921 1038.5,-303.5921 1038.5,-284.5921 947.5,-284.5921"/>
<text text-anchor="start" x="950.5" y="-290.6921" font-family="Helvetica,sans-Serif" font-size="11.00" fill="#000000">&lt; 2</text>
<polygon fill="#ffffff" stroke="transparent" points="1038.5,-284.5921 1038.5,-303.5921 1123.5,-303.5921 1123.5,-284.5921 1038.5,-284.5921"/>
<polygon fill="none" stroke="#000000" points="1038.5,-284.5921 1038.5,-303.5921 1123.5,-303.5921 1123.5,-284.5921 1038.5,-284.5921"/>
<text text-anchor="start" x="1075.8807" y="-290.6921" font-family="Helvetica,sans-Serif" font-size="11.00" fill="#000000">232 rows</text>
<polygon fill="#ffffff" stroke="transparent" points="1123.5,-284.5921 1123.5,-303.5921 1171.5,-303.5921 1171.5,-284.5921 1123.5,-284.5921"/>
<polygon fill="none" stroke="#000000" points="1123.5,-284.5921 1123.5,-303.5921 1171.5,-303.5921 1171.5,-284.5921 1123.5,-284.5921"/>
<text text-anchor="start" x="1162.3862" y="-290.6921" font-family="Helvetica,sans-Serif" font-size="11.00" fill="#000000"> &#160;</text>
</a>
</g>
</g>
<!-- TARGET_FORMS_PROTEIN_TAGS&#45;&gt;TARGET_FORMS -->
<g id="edge26" class="edge">
<title>TARGET_FORMS_PROTEIN_TAGS:w&#45;&gt;TARGET_FORMS:e</title>
<path fill="none" stroke="#000000" d="M933.041,-314.3004C914.4834,-319.2897 907.5017,-334.8714 896,-356.5921 857.7063,-428.9088 937.3298,-722.5921 855.5,-722.5921"/>
<polygon fill="#000000" stroke="#000000" points="939.5553,-313.5308 947.9224,-316.1673 943.5276,-313.0615 947.5,-312.5921 947.5,-312.5921 947.5,-312.5921 943.5276,-313.0615 947.0776,-309.017 939.5553,-313.5308 939.5553,-313.5308"/>
<ellipse fill="none" stroke="#000000" cx="936.3774" cy="-313.9063" rx="3.2" ry="3.2"/>
</g>
<!-- TARGET_FORMS_REFERENCES -->
<g id="node22" class="node">
<title>TARGET_FORMS_REFERENCES</title>
<g id="a_node22"><a xlink:href="../../tables/TARGET_FORMS_REFERENCES.html" xlink:title="TARGET_FORMS_REFERENCES" target="_top">
<polygon fill="#ffffff" stroke="transparent" points="952.5,-203.0921 952.5,-264.0921 1166.5,-264.0921 1166.5,-203.0921 952.5,-203.0921"/>
<polygon fill="#f5f5f5" stroke="transparent" points="952.5,-240.5921 952.5,-263.5921 1166.5,-263.5921 1166.5,-240.5921 952.5,-240.5921"/>
<polygon fill="none" stroke="#000000" points="952.5,-240.5921 952.5,-263.5921 1166.5,-263.5921 1166.5,-240.5921 952.5,-240.5921"/>
<text text-anchor="start" x="957.1412" y="-249.6921" font-family="Helvetica,sans-Serif" font-weight="bold" font-size="11.00" fill="#000000">TARGET_FORMS_REFERENCES</text>
<text text-anchor="start" x="1132.0219" y="-248.6921" font-family="Helvetica,sans-Serif" font-size="11.00" fill="#000000">[table]</text>
<polygon fill="none" stroke="#000000" points="952.5,-221.5921 952.5,-240.5921 1166.5,-240.5921 1166.5,-221.5921 952.5,-221.5921"/>
<text text-anchor="start" x="955.5" y="-227.6921" font-family="Helvetica,sans-Serif" font-size="11.00" fill="#000000">...</text>
<polygon fill="#ffffff" stroke="transparent" points="952.5,-202.5921 952.5,-221.5921 1038.5,-221.5921 1038.5,-202.5921 952.5,-202.5921"/>
<polygon fill="none" stroke="#000000" points="952.5,-202.5921 952.5,-221.5921 1038.5,-221.5921 1038.5,-202.5921 952.5,-202.5921"/>
<text text-anchor="start" x="955.5" y="-208.6921" font-family="Helvetica,sans-Serif" font-size="11.00" fill="#000000">&lt; 2</text>
<polygon fill="#ffffff" stroke="transparent" points="1038.5,-202.5921 1038.5,-221.5921 1121.5,-221.5921 1121.5,-202.5921 1038.5,-202.5921"/>
<polygon fill="none" stroke="#000000" points="1038.5,-202.5921 1038.5,-221.5921 1121.5,-221.5921 1121.5,-202.5921 1038.5,-202.5921"/>
<text text-anchor="start" x="1073.8807" y="-208.6921" font-family="Helvetica,sans-Serif" font-size="11.00" fill="#000000">105 rows</text>
<polygon fill="#ffffff" stroke="transparent" points="1121.5,-202.5921 1121.5,-221.5921 1166.5,-221.5921 1166.5,-202.5921 1121.5,-202.5921"/>
<polygon fill="none" stroke="#000000" points="1121.5,-202.5921 1121.5,-221.5921 1166.5,-221.5921 1166.5,-202.5921 1121.5,-202.5921"/>
<text text-anchor="start" x="1157.3862" y="-208.6921" font-family="Helvetica,sans-Serif" font-size="11.00" fill="#000000"> &#160;</text>
</a>
</g>
</g>
<!-- TARGET_FORMS_REFERENCES&#45;&gt;TARGET_FORMS -->
<g id="edge27" class="edge">
<title>TARGET_FORMS_REFERENCES:w&#45;&gt;TARGET_FORMS:e</title>
<path fill="none" stroke="#000000" d="M937.9311,-231.9944C917.2611,-236.4647 908.6282,-251.4571 896,-274.5921 872.0534,-318.4628 905.4808,-722.5921 855.5,-722.5921"/>
<polygon fill="#000000" stroke="#000000" points="944.5368,-231.3587 952.8449,-234.1756 948.5184,-230.9754 952.5,-230.5921 952.5,-230.5921 952.5,-230.5921 948.5184,-230.9754 952.1551,-227.0087 944.5368,-231.3587 944.5368,-231.3587"/>
<ellipse fill="none" stroke="#000000" cx="941.3515" cy="-231.6653" rx="3.2" ry="3.2"/>
</g>
<!-- TARGET_FORMS_TAGS -->
<g id="node23" class="node">
<title>TARGET_FORMS_TAGS</title>
<g id="a_node23"><a xlink:href="../../tables/TARGET_FORMS_TAGS.html" xlink:title="TARGET_FORMS_TAGS" target="_top">
<polygon fill="#ffffff" stroke="transparent" points="975,-1379.0921 975,-1440.0921 1144,-1440.0921 1144,-1379.0921 975,-1379.0921"/>
<polygon fill="#f5f5f5" stroke="transparent" points="975.5,-1416.5921 975.5,-1439.5921 1144.5,-1439.5921 1144.5,-1416.5921 975.5,-1416.5921"/>
<polygon fill="none" stroke="#000000" points="975.5,-1416.5921 975.5,-1439.5921 1144.5,-1439.5921 1144.5,-1416.5921 975.5,-1416.5921"/>
<text text-anchor="start" x="980.2484" y="-1425.6921" font-family="Helvetica,sans-Serif" font-weight="bold" font-size="11.00" fill="#000000">TARGET_FORMS_TAGS</text>
<text text-anchor="start" x="1110.0219" y="-1424.6921" font-family="Helvetica,sans-Serif" font-size="11.00" fill="#000000">[table]</text>
<polygon fill="none" stroke="#000000" points="975.5,-1397.5921 975.5,-1416.5921 1144.5,-1416.5921 1144.5,-1397.5921 975.5,-1397.5921"/>
<text text-anchor="start" x="978.5" y="-1403.6921" font-family="Helvetica,sans-Serif" font-size="11.00" fill="#000000">...</text>
<polygon fill="#ffffff" stroke="transparent" points="975.5,-1378.5921 975.5,-1397.5921 1045.5,-1397.5921 1045.5,-1378.5921 975.5,-1378.5921"/>
<polygon fill="none" stroke="#000000" points="975.5,-1378.5921 975.5,-1397.5921 1045.5,-1397.5921 1045.5,-1378.5921 975.5,-1378.5921"/>
<text text-anchor="start" x="978.5" y="-1384.6921" font-family="Helvetica,sans-Serif" font-size="11.00" fill="#000000">&lt; 2</text>
<polygon fill="#ffffff" stroke="transparent" points="1045.5,-1378.5921 1045.5,-1397.5921 1107.5,-1397.5921 1107.5,-1378.5921 1045.5,-1378.5921"/>
<polygon fill="none" stroke="#000000" points="1045.5,-1378.5921 1045.5,-1397.5921 1107.5,-1397.5921 1107.5,-1378.5921 1045.5,-1378.5921"/>
<text text-anchor="start" x="1072.1105" y="-1384.6921" font-family="Helvetica,sans-Serif" font-size="11.00" fill="#000000">8 rows</text>
<polygon fill="#ffffff" stroke="transparent" points="1107.5,-1378.5921 1107.5,-1397.5921 1144.5,-1397.5921 1144.5,-1378.5921 1107.5,-1378.5921"/>
<polygon fill="none" stroke="#000000" points="1107.5,-1378.5921 1107.5,-1397.5921 1144.5,-1397.5921 1144.5,-1378.5921 1107.5,-1378.5921"/>
<text text-anchor="start" x="1135.3862" y="-1384.6921" font-family="Helvetica,sans-Serif" font-size="11.00" fill="#000000"> &#160;</text>
</a>
</g>
</g>
<!-- TARGET_FORMS_TAGS&#45;&gt;TARGET_FORMS -->
<g id="edge28" class="edge">
<title>TARGET_FORMS_TAGS:w&#45;&gt;TARGET_FORMS:e</title>
<path fill="none" stroke="#000000" d="M960.9368,-1406.2489C931.3816,-1404.6456 915.0006,-1396.7404 896,-1368.5921 855.7627,-1308.9829 927.4187,-722.5921 855.5,-722.5921"/>
<polygon fill="#000000" stroke="#000000" points="967.5022,-1406.4036 975.4151,-1410.1911 971.5011,-1406.4978 975.5,-1406.5921 975.5,-1406.5921 975.5,-1406.5921 971.5011,-1406.4978 975.5849,-1402.9931 967.5022,-1406.4036 967.5022,-1406.4036"/>
<ellipse fill="none" stroke="#000000" cx="964.3031" cy="-1406.3281" rx="3.2" ry="3.2"/>
</g>
<!-- TRACER_SYNTHESIS_REQUESTS -->
<g id="node24" class="node">
<title>TRACER_SYNTHESIS_REQUESTS</title>
<g id="a_node24"><a xlink:href="../../tables/TRACER_SYNTHESIS_REQUESTS.html" xlink:title="TRACER_SYNTHESIS_REQUESTS" target="_top">
<polygon fill="#ffffff" stroke="transparent" points="948,-1461.0921 948,-1522.0921 1171,-1522.0921 1171,-1461.0921 948,-1461.0921"/>
<polygon fill="#f5f5f5" stroke="transparent" points="948.5,-1498.5921 948.5,-1521.5921 1171.5,-1521.5921 1171.5,-1498.5921 948.5,-1498.5921"/>
<polygon fill="none" stroke="#000000" points="948.5,-1498.5921 948.5,-1521.5921 1171.5,-1521.5921 1171.5,-1498.5921 948.5,-1498.5921"/>
<text text-anchor="start" x="953.3578" y="-1507.6921" font-family="Helvetica,sans-Serif" font-weight="bold" font-size="11.00" fill="#000000">TRACER_SYNTHESIS_REQUESTS</text>
<text text-anchor="start" x="1137.0219" y="-1506.6921" font-family="Helvetica,sans-Serif" font-size="11.00" fill="#000000">[table]</text>
<polygon fill="none" stroke="#000000" points="948.5,-1479.5921 948.5,-1498.5921 1171.5,-1498.5921 1171.5,-1479.5921 948.5,-1479.5921"/>
<text text-anchor="start" x="951.5" y="-1485.6921" font-family="Helvetica,sans-Serif" font-size="11.00" fill="#000000">...</text>
<polygon fill="#ffffff" stroke="transparent" points="948.5,-1460.5921 948.5,-1479.5921 1040.5,-1479.5921 1040.5,-1460.5921 948.5,-1460.5921"/>
<polygon fill="none" stroke="#000000" points="948.5,-1460.5921 948.5,-1479.5921 1040.5,-1479.5921 1040.5,-1460.5921 948.5,-1460.5921"/>
<text text-anchor="start" x="951.5" y="-1466.6921" font-family="Helvetica,sans-Serif" font-size="11.00" fill="#000000">&lt; 12</text>
<polygon fill="#ffffff" stroke="transparent" points="1040.5,-1460.5921 1040.5,-1479.5921 1117.5,-1479.5921 1117.5,-1460.5921 1040.5,-1460.5921"/>
<polygon fill="none" stroke="#000000" points="1040.5,-1460.5921 1040.5,-1479.5921 1117.5,-1479.5921 1117.5,-1460.5921 1040.5,-1460.5921"/>
<text text-anchor="start" x="1075.9956" y="-1466.6921" font-family="Helvetica,sans-Serif" font-size="11.00" fill="#000000">21 rows</text>
<polygon fill="#ffffff" stroke="transparent" points="1117.5,-1460.5921 1117.5,-1479.5921 1171.5,-1479.5921 1171.5,-1460.5921 1117.5,-1460.5921"/>
<polygon fill="none" stroke="#000000" points="1117.5,-1460.5921 1117.5,-1479.5921 1171.5,-1479.5921 1171.5,-1460.5921 1117.5,-1460.5921"/>
<text text-anchor="start" x="1152.9053" y="-1466.6921" font-family="Helvetica,sans-Serif" font-size="11.00" fill="#000000">2 &gt;</text>
</a>
</g>
</g>
<!-- TRACER_SYNTHESIS_REQUESTS&#45;&gt;TARGET_FORMS -->
<g id="edge29" class="edge">
<title>TRACER_SYNTHESIS_REQUESTS:w&#45;&gt;TARGET_FORMS:e</title>
<path fill="none" stroke="#000000" d="M934.1422,-1487.2515C915.8499,-1483.3803 907.2186,-1471.1314 896,-1450.5921 857.1654,-1379.4927 936.514,-722.5921 855.5,-722.5921"/>
<polygon fill="#000000" stroke="#000000" points="940.5346,-1487.8484 948.1653,-1492.1765 944.5173,-1488.2202 948.5,-1488.5921 948.5,-1488.5921 948.5,-1488.5921 944.5173,-1488.2202 948.8347,-1485.0077 940.5346,-1487.8484 940.5346,-1487.8484"/>
<ellipse fill="none" stroke="#000000" cx="937.3485" cy="-1487.5509" rx="3.2" ry="3.2"/>
</g>
<!-- TRACER_SYNTHESIS_REQUESTS&#45;&gt;TARGETS -->
<g id="edge30" class="edge">
<title>TRACER_SYNTHESIS_REQUESTS:w&#45;&gt;TARGETS:e</title>
<path fill="none" stroke="#000000" d="M934.7643,-1493.0255C875.6558,-1524.8914 745.3729,-1691.4931 147,-735.5921 115.3044,-684.9583 165.736,-607.5921 106,-607.5921"/>
<polygon fill="#000000" stroke="#000000" points="940.8867,-1491.0494 949.6058,-1492.0181 944.6934,-1489.8208 948.5,-1488.5921 948.5,-1488.5921 948.5,-1488.5921 944.6934,-1489.8208 947.3942,-1485.1662 940.8867,-1491.0494 940.8867,-1491.0494"/>
<ellipse fill="none" stroke="#000000" cx="937.8414" cy="-1492.0324" rx="3.2" ry="3.2"/>
</g>
</g>
</svg>
