<?xml version="1.0" encoding="UTF-8" standalone="no"?>
<!DOCTYPE svg PUBLIC "-//W3C//DTD SVG 1.1//EN"
 "http://www.w3.org/Graphics/SVG/1.1/DTD/svg11.dtd">
<!-- Generated by graphviz version 2.40.1 (20161225.0304)
 -->
<!-- Title: oneDegreeRelationshipsDiagram Pages: 1 -->
<svg width="724pt" height="337pt"
 viewBox="0.00 0.00 724.00 336.70" xmlns="http://www.w3.org/2000/svg" xmlns:xlink="http://www.w3.org/1999/xlink">
<g id="graph0" class="graph" transform="scale(1 1) rotate(0) translate(4 332.7)">
<title>oneDegreeRelationshipsDiagram</title>
<polygon fill="#ffffff" stroke="transparent" points="-4,4 -4,-332.7 720,-332.7 720,4 -4,4"/>
<text text-anchor="middle" x="72.4936" y="-7.3" font-family="Helvetica,sans-Serif" font-size="11.00" fill="#000000">Generated by SchemaSpy</text>
<!-- TARGET_FORMS -->
<g id="node1" class="node">
<title>TARGET_FORMS</title>
<g id="a_node1"><a xlink:href="../../tables/TARGET_FORMS.html" xlink:title="TARGET_FORMS" target="_top">
<polygon fill="#ffffff" stroke="transparent" points="407,-131.7 407,-324.7 708,-324.7 708,-131.7 407,-131.7"/>
<polygon fill="#f5f5f5" stroke="transparent" points="407.5,-301.2 407.5,-324.2 708.5,-324.2 708.5,-301.2 407.5,-301.2"/>
<polygon fill="none" stroke="#000000" points="407.5,-301.2 407.5,-324.2 708.5,-324.2 708.5,-301.2 407.5,-301.2"/>
<text text-anchor="start" x="412.5" y="-310.3" font-family="Helvetica,sans-Serif" font-weight="bold" font-size="11.00" fill="#000000">TARGET_FORMS</text>
<text text-anchor="start" x="673.5437" y="-309.3" font-family="Helvetica,sans-Serif" font-size="11.00" fill="#000000">[table]</text>
<polygon fill="none" stroke="#000000" points="407.5,-279.2 407.5,-301.2 708.5,-301.2 708.5,-279.2 407.5,-279.2"/>
<image xlink:href="../../images/primaryKeys.png" width="11px" height="12px" preserveAspectRatio="xMinYMin meet" x="412.5" y="-296.2"/>
<text text-anchor="start" x="427.5" y="-286.3" font-family="Helvetica,sans-Serif" font-size="11.00" fill="#000000">ID</text>
<polygon fill="none" stroke="#000000" points="407.5,-257.2 407.5,-279.2 708.5,-279.2 708.5,-257.2 407.5,-257.2"/>
<image xlink:href="../../images/foreignKeys.png" width="11px" height="12px" preserveAspectRatio="xMinYMin meet" x="412.5" y="-274.2"/>
<text text-anchor="start" x="427.5" y="-264.3" font-family="Helvetica,sans-Serif" font-size="11.00" fill="#000000">TARGET_ID</text>
<polygon fill="none" stroke="#000000" points="407.5,-235.2 407.5,-257.2 708.5,-257.2 708.5,-235.2 407.5,-235.2"/>
<image xlink:href="../../images/foreignKeys.png" width="11px" height="12px" preserveAspectRatio="xMinYMin meet" x="412.5" y="-252.2"/>
<text text-anchor="start" x="427.5" y="-242.3" font-family="Helvetica,sans-Serif" font-size="11.00" fill="#000000">SPECIES_ID</text>
<polygon fill="none" stroke="#000000" points="407.5,-213.2 407.5,-235.2 708.5,-235.2 708.5,-213.2 407.5,-213.2"/>
<image xlink:href="../../images/foreignKeys.png" width="11px" height="12px" preserveAspectRatio="xMinYMin meet" x="412.5" y="-230.2"/>
<text text-anchor="start" x="427.5" y="-220.3" font-family="Helvetica,sans-Serif" font-size="11.00" fill="#000000">POST_TRANSLATIONAL_MODIFICATION_ID</text>
<polygon fill="none" stroke="#000000" points="407.5,-191.2 407.5,-213.2 708.5,-213.2 708.5,-191.2 407.5,-191.2"/>
<image xlink:href="../../images/foreignKeys.png" width="11px" height="12px" preserveAspectRatio="xMinYMin meet" x="412.5" y="-208.2"/>
<text text-anchor="start" x="427.5" y="-198.3" font-family="Helvetica,sans-Serif" font-size="11.00" fill="#000000">ISOFORM_ID</text>
<polygon fill="none" stroke="#000000" points="407.5,-169.2 407.5,-191.2 708.5,-191.2 708.5,-169.2 407.5,-169.2"/>
<image xlink:href="../../images/foreignKeys.png" width="11px" height="12px" preserveAspectRatio="xMinYMin meet" x="412.5" y="-186.2"/>
<text text-anchor="start" x="427.5" y="-176.3" font-family="Helvetica,sans-Serif" font-size="11.00" fill="#000000">EXPRESSION_SYSTEM_ID</text>
<polygon fill="none" stroke="#000000" points="407.5,-150.2 407.5,-169.2 708.5,-169.2 708.5,-150.2 407.5,-150.2"/>
<text text-anchor="start" x="410.5" y="-156.3" font-family="Helvetica,sans-Serif" font-size="11.00" fill="#000000">...</text>
<polygon fill="#ffffff" stroke="transparent" points="407.5,-131.2 407.5,-150.2 529.5,-150.2 529.5,-131.2 407.5,-131.2"/>
<polygon fill="none" stroke="#000000" points="407.5,-131.2 407.5,-150.2 529.5,-150.2 529.5,-131.2 407.5,-131.2"/>
<text text-anchor="start" x="410.5" y="-137.3" font-family="Helvetica,sans-Serif" font-size="11.00" fill="#000000">&lt; 5</text>
<polygon fill="#ffffff" stroke="transparent" points="529.5,-131.2 529.5,-150.2 630.5,-150.2 630.5,-131.2 529.5,-131.2"/>
<polygon fill="none" stroke="#000000" points="529.5,-131.2 529.5,-150.2 630.5,-150.2 630.5,-131.2 529.5,-131.2"/>
<text text-anchor="start" x="582.8807" y="-137.3" font-family="Helvetica,sans-Serif" font-size="11.00" fill="#000000">541 rows</text>
<polygon fill="#ffffff" stroke="transparent" points="630.5,-131.2 630.5,-150.2 708.5,-150.2 708.5,-131.2 630.5,-131.2"/>
<polygon fill="none" stroke="#000000" points="630.5,-131.2 630.5,-150.2 708.5,-150.2 708.5,-131.2 630.5,-131.2"/>
<text text-anchor="start" x="683.7904" y="-137.3" font-family="Helvetica,sans-Serif" font-size="11.00" fill="#000000">18 &gt;</text>
</a>
</g>
</g>
<!-- EXPRESSION_SYSTEMS -->
<g id="node2" class="node">
<title>EXPRESSION_SYSTEMS</title>
<g id="a_node2"><a xlink:href="../../tables/EXPRESSION_SYSTEMS.html" xlink:title="EXPRESSION_SYSTEMS" target="_top">
<polygon fill="#ffffff" stroke="transparent" points="8,-38.2 8,-216.2 358,-216.2 358,-38.2 8,-38.2"/>
<polygon fill="#f5f5f5" stroke="transparent" points="10,-191.2 10,-214.2 356,-214.2 356,-191.2 10,-191.2"/>
<polygon fill="none" stroke="#000000" points="10,-191.2 10,-214.2 356,-214.2 356,-191.2 10,-191.2"/>
<text text-anchor="start" x="15" y="-200.3" font-family="Helvetica,sans-Serif" font-weight="bold" font-size="11.00" fill="#000000">EXPRESSION_SYSTEMS</text>
<text text-anchor="start" x="321.0437" y="-199.3" font-family="Helvetica,sans-Serif" font-size="11.00" fill="#000000">[table]</text>
<polygon fill="none" stroke="#000000" points="10,-169.2 10,-191.2 185,-191.2 185,-169.2 10,-169.2"/>
<image xlink:href="../../images/primaryKeys.png" width="11px" height="12px" preserveAspectRatio="xMinYMin meet" x="15" y="-186.2"/>
<text text-anchor="start" x="30" y="-176.3" font-family="Helvetica,sans-Serif" font-size="11.00" fill="#000000">ID</text>
<polygon fill="none" stroke="#000000" points="185,-169.2 185,-191.2 356,-191.2 356,-169.2 185,-169.2"/>
<text text-anchor="start" x="188" y="-176.9" font-family="Helvetica,sans-Serif" font-size="11.00" fill="#000000">number[19]</text>
<polygon fill="none" stroke="#000000" points="10,-147.2 10,-169.2 185,-169.2 185,-147.2 10,-147.2"/>
<text text-anchor="start" x="30" y="-154.3" font-family="Helvetica,sans-Serif" font-size="11.00" fill="#000000">CREATED_AT</text>
<polygon fill="none" stroke="#000000" points="185,-147.2 185,-169.2 356,-169.2 356,-147.2 185,-147.2"/>
<text text-anchor="start" x="187.9896" y="-154.9" font-family="Helvetica,sans-Serif" font-size="11.00" fill="#000000">timestamp(6) with time zone[13,6]</text>
<polygon fill="none" stroke="#000000" points="10,-125.2 10,-147.2 185,-147.2 185,-125.2 10,-125.2"/>
<text text-anchor="start" x="30" y="-132.3" font-family="Helvetica,sans-Serif" font-size="11.00" fill="#000000">CREATED_BY</text>
<polygon fill="none" stroke="#000000" points="185,-125.2 185,-147.2 356,-147.2 356,-125.2 185,-125.2"/>
<text text-anchor="start" x="188" y="-132.9" font-family="Helvetica,sans-Serif" font-size="11.00" fill="#000000">number[19]</text>
<polygon fill="none" stroke="#000000" points="10,-103.2 10,-125.2 185,-125.2 185,-103.2 10,-103.2"/>
<text text-anchor="start" x="30" y="-110.3" font-family="Helvetica,sans-Serif" font-size="11.00" fill="#000000">UPDATED_AT</text>
<polygon fill="none" stroke="#000000" points="185,-103.2 185,-125.2 356,-125.2 356,-103.2 185,-103.2"/>
<text text-anchor="start" x="187.9896" y="-110.9" font-family="Helvetica,sans-Serif" font-size="11.00" fill="#000000">timestamp(6) with time zone[13,6]</text>
<polygon fill="none" stroke="#000000" points="10,-81.2 10,-103.2 185,-103.2 185,-81.2 10,-81.2"/>
<text text-anchor="start" x="30" y="-88.3" font-family="Helvetica,sans-Serif" font-size="11.00" fill="#000000">UPDATED_BY</text>
<polygon fill="none" stroke="#000000" points="185,-81.2 185,-103.2 356,-103.2 356,-81.2 185,-81.2"/>
<text text-anchor="start" x="188" y="-88.9" font-family="Helvetica,sans-Serif" font-size="11.00" fill="#000000">number[19]</text>
<polygon fill="none" stroke="#000000" points="10,-59.2 10,-81.2 185,-81.2 185,-59.2 10,-59.2"/>
<text text-anchor="start" x="30" y="-66.3" font-family="Helvetica,sans-Serif" font-size="11.00" fill="#000000">NAME</text>
<polygon fill="none" stroke="#000000" points="185,-59.2 185,-81.2 356,-81.2 356,-59.2 185,-59.2"/>
<text text-anchor="start" x="188" y="-66.9" font-family="Helvetica,sans-Serif" font-size="11.00" fill="#000000">varchar2[255]</text>
<polygon fill="#ffffff" stroke="transparent" points="10,-40.2 10,-59.2 89,-59.2 89,-40.2 10,-40.2"/>
<polygon fill="none" stroke="#000000" points="10,-40.2 10,-59.2 89,-59.2 89,-40.2 10,-40.2"/>
<text text-anchor="start" x="13" y="-46.3" font-family="Helvetica,sans-Serif" font-size="11.00" fill="#000000">&lt; 0</text>
<polygon fill="#ffffff" stroke="transparent" points="89,-40.2 89,-59.2 185,-59.2 185,-40.2 89,-40.2"/>
<polygon fill="none" stroke="#000000" points="89,-40.2 89,-59.2 185,-59.2 185,-40.2 89,-40.2"/>
<text text-anchor="start" x="149.6105" y="-46.3" font-family="Helvetica,sans-Serif" font-size="11.00" fill="#000000">3 rows</text>
<polygon fill="#ffffff" stroke="transparent" points="185,-40.2 185,-59.2 356,-59.2 356,-40.2 185,-40.2"/>
<polygon fill="none" stroke="#000000" points="185,-40.2 185,-59.2 356,-59.2 356,-40.2 185,-40.2"/>
<text text-anchor="start" x="337.4053" y="-46.3" font-family="Helvetica,sans-Serif" font-size="11.00" fill="#000000">1 &gt;</text>
<polygon fill="none" stroke="#000000" stroke-width="2" points="9,-39.2 9,-215.2 357,-215.2 357,-39.2 9,-39.2"/>
</a>
</g>
</g>
<!-- TARGET_FORMS&#45;&gt;EXPRESSION_SYSTEMS -->
<g id="edge1" class="edge">
<title>TARGET_FORMS:w&#45;&gt;EXPRESSION_SYSTEMS:e</title>
<path fill="none" stroke="#000000" d="M393.0156,-180.2C380.6771,-180.2 373.1667,-180.2 356,-180.2"/>
<polygon fill="#000000" stroke="#000000" points="399.5,-180.2001 407.5,-183.8 403.5,-180.2 407.5,-180.2 407.5,-180.2 407.5,-180.2 403.5,-180.2 407.5,-176.6 399.5,-180.2001 399.5,-180.2001"/>
<ellipse fill="none" stroke="#000000" cx="396.3" cy="-180.2001" rx="3.2" ry="3.2"/>
</g>
</g>
</svg>
