<?xml version="1.0" encoding="UTF-8" standalone="no"?>
<!DOCTYPE svg PUBLIC "-//W3C//DTD SVG 1.1//EN"
 "http://www.w3.org/Graphics/SVG/1.1/DTD/svg11.dtd">
<!-- Generated by graphviz version 2.40.1 (20161225.0304)
 -->
<!-- Title: oneDegreeRelationshipsDiagram Pages: 1 -->
<svg width="681pt" height="374pt"
 viewBox="0.00 0.00 681.00 373.70" xmlns="http://www.w3.org/2000/svg" xmlns:xlink="http://www.w3.org/1999/xlink">
<g id="graph0" class="graph" transform="scale(1 1) rotate(0) translate(4 369.7)">
<title>oneDegreeRelationshipsDiagram</title>
<polygon fill="#ffffff" stroke="transparent" points="-4,4 -4,-369.7 677,-369.7 677,4 -4,4"/>
<text text-anchor="middle" x="72.4936" y="-7.3" font-family="Helvetica,sans-Serif" font-size="11.00" fill="#000000">Generated by SchemaSpy</text>
<!-- IN_HOUSE_ASSAYS_REFERENCES -->
<g id="node1" class="node">
<title>IN_HOUSE_ASSAYS_REFERENCES</title>
<g id="a_node1"><a xlink:href="../../tables/IN_HOUSE_ASSAYS_REFERENCES.html" xlink:title="IN_HOUSE_ASSAYS_REFERENCES" target="_top">
<polygon fill="#ffffff" stroke="transparent" points="250,-161.7 250,-361.7 665,-361.7 665,-161.7 250,-161.7"/>
<polygon fill="#f5f5f5" stroke="transparent" points="252.5,-336.7 252.5,-359.7 663.5,-359.7 663.5,-336.7 252.5,-336.7"/>
<polygon fill="none" stroke="#000000" points="252.5,-336.7 252.5,-359.7 663.5,-359.7 663.5,-336.7 252.5,-336.7"/>
<text text-anchor="start" x="257.5" y="-345.8" font-family="Helvetica,sans-Serif" font-weight="bold" font-size="11.00" fill="#000000">IN_HOUSE_ASSAYS_REFERENCES</text>
<text text-anchor="start" x="628.5437" y="-344.8" font-family="Helvetica,sans-Serif" font-size="11.00" fill="#000000">[table]</text>
<polygon fill="none" stroke="#000000" points="252.5,-314.7 252.5,-336.7 492.5,-336.7 492.5,-314.7 252.5,-314.7"/>
<image xlink:href="../../images/primaryKeys.png" width="11px" height="12px" preserveAspectRatio="xMinYMin meet" x="257.5" y="-331.7"/>
<text text-anchor="start" x="272.5" y="-321.8" font-family="Helvetica,sans-Serif" font-size="11.00" fill="#000000">ID</text>
<polygon fill="none" stroke="#000000" points="492.5,-314.7 492.5,-336.7 663.5,-336.7 663.5,-314.7 492.5,-314.7"/>
<text text-anchor="start" x="495.5" y="-322.4" font-family="Helvetica,sans-Serif" font-size="11.00" fill="#000000">number[19]</text>
<polygon fill="none" stroke="#000000" points="252.5,-292.7 252.5,-314.7 492.5,-314.7 492.5,-292.7 252.5,-292.7"/>
<text text-anchor="start" x="272.5" y="-299.8" font-family="Helvetica,sans-Serif" font-size="11.00" fill="#000000">CREATED_AT</text>
<polygon fill="none" stroke="#000000" points="492.5,-292.7 492.5,-314.7 663.5,-314.7 663.5,-292.7 492.5,-292.7"/>
<text text-anchor="start" x="495.4896" y="-300.4" font-family="Helvetica,sans-Serif" font-size="11.00" fill="#000000">timestamp(6) with time zone[13,6]</text>
<polygon fill="none" stroke="#000000" points="252.5,-270.7 252.5,-292.7 492.5,-292.7 492.5,-270.7 252.5,-270.7"/>
<text text-anchor="start" x="272.5" y="-277.8" font-family="Helvetica,sans-Serif" font-size="11.00" fill="#000000">CREATED_BY</text>
<polygon fill="none" stroke="#000000" points="492.5,-270.7 492.5,-292.7 663.5,-292.7 663.5,-270.7 492.5,-270.7"/>
<text text-anchor="start" x="495.5" y="-278.4" font-family="Helvetica,sans-Serif" font-size="11.00" fill="#000000">number[19]</text>
<polygon fill="none" stroke="#000000" points="252.5,-248.7 252.5,-270.7 492.5,-270.7 492.5,-248.7 252.5,-248.7"/>
<text text-anchor="start" x="272.5" y="-255.8" font-family="Helvetica,sans-Serif" font-size="11.00" fill="#000000">UPDATED_AT</text>
<polygon fill="none" stroke="#000000" points="492.5,-248.7 492.5,-270.7 663.5,-270.7 663.5,-248.7 492.5,-248.7"/>
<text text-anchor="start" x="495.4896" y="-256.4" font-family="Helvetica,sans-Serif" font-size="11.00" fill="#000000">timestamp(6) with time zone[13,6]</text>
<polygon fill="none" stroke="#000000" points="252.5,-226.7 252.5,-248.7 492.5,-248.7 492.5,-226.7 252.5,-226.7"/>
<text text-anchor="start" x="272.5" y="-233.8" font-family="Helvetica,sans-Serif" font-size="11.00" fill="#000000">UPDATED_BY</text>
<polygon fill="none" stroke="#000000" points="492.5,-226.7 492.5,-248.7 663.5,-248.7 663.5,-226.7 492.5,-226.7"/>
<text text-anchor="start" x="495.5" y="-234.4" font-family="Helvetica,sans-Serif" font-size="11.00" fill="#000000">number[19]</text>
<polygon fill="none" stroke="#000000" points="252.5,-204.7 252.5,-226.7 492.5,-226.7 492.5,-204.7 252.5,-204.7"/>
<image xlink:href="../../images/foreignKeys.png" width="11px" height="12px" preserveAspectRatio="xMinYMin meet" x="257.5" y="-221.7"/>
<text text-anchor="start" x="272.5" y="-211.8" font-family="Helvetica,sans-Serif" font-size="11.00" fill="#000000">IN_HOUSE_ASSAY_ID</text>
<polygon fill="none" stroke="#000000" points="492.5,-204.7 492.5,-226.7 663.5,-226.7 663.5,-204.7 492.5,-204.7"/>
<text text-anchor="start" x="495.5" y="-212.4" font-family="Helvetica,sans-Serif" font-size="11.00" fill="#000000">number[19]</text>
<polygon fill="none" stroke="#000000" points="252.5,-182.7 252.5,-204.7 492.5,-204.7 492.5,-182.7 252.5,-182.7"/>
<image xlink:href="../../images/foreignKeys.png" width="11px" height="12px" preserveAspectRatio="xMinYMin meet" x="257.5" y="-199.7"/>
<text text-anchor="start" x="272.5" y="-189.8" font-family="Helvetica,sans-Serif" font-size="11.00" fill="#000000">REFERENCE_ID</text>
<polygon fill="none" stroke="#000000" points="492.5,-182.7 492.5,-204.7 663.5,-204.7 663.5,-182.7 492.5,-182.7"/>
<text text-anchor="start" x="495.5" y="-190.4" font-family="Helvetica,sans-Serif" font-size="11.00" fill="#000000">number[19]</text>
<polygon fill="#ffffff" stroke="transparent" points="252.5,-163.7 252.5,-182.7 360.5,-182.7 360.5,-163.7 252.5,-163.7"/>
<polygon fill="none" stroke="#000000" points="252.5,-163.7 252.5,-182.7 360.5,-182.7 360.5,-163.7 252.5,-163.7"/>
<text text-anchor="start" x="255.5" y="-169.8" font-family="Helvetica,sans-Serif" font-size="11.00" fill="#000000">&lt; 2</text>
<polygon fill="#ffffff" stroke="transparent" points="360.5,-163.7 360.5,-182.7 492.5,-182.7 492.5,-163.7 360.5,-163.7"/>
<polygon fill="none" stroke="#000000" points="360.5,-163.7 360.5,-182.7 492.5,-182.7 492.5,-163.7 360.5,-163.7"/>
<text text-anchor="start" x="450.9956" y="-169.8" font-family="Helvetica,sans-Serif" font-size="11.00" fill="#000000">51 rows</text>
<polygon fill="#ffffff" stroke="transparent" points="492.5,-163.7 492.5,-182.7 663.5,-182.7 663.5,-163.7 492.5,-163.7"/>
<polygon fill="none" stroke="#000000" points="492.5,-163.7 492.5,-182.7 663.5,-182.7 663.5,-163.7 492.5,-163.7"/>
<text text-anchor="start" x="644.9053" y="-169.8" font-family="Helvetica,sans-Serif" font-size="11.00" fill="#000000">0 &gt;</text>
<polygon fill="none" stroke="#000000" stroke-width="2" points="251,-162.7 251,-360.7 664,-360.7 664,-162.7 251,-162.7"/>
</a>
</g>
</g>
<!-- IN_HOUSE_ASSAYS -->
<g id="node2" class="node">
<title>IN_HOUSE_ASSAYS</title>
<g id="a_node2"><a xlink:href="../../tables/IN_HOUSE_ASSAYS.html" xlink:title="IN_HOUSE_ASSAYS" target="_top">
<polygon fill="#ffffff" stroke="transparent" points="8,-164.2 8,-335.2 201,-335.2 201,-164.2 8,-164.2"/>
<polygon fill="#f5f5f5" stroke="transparent" points="8.5,-311.7 8.5,-334.7 201.5,-334.7 201.5,-311.7 8.5,-311.7"/>
<polygon fill="none" stroke="#000000" points="8.5,-311.7 8.5,-334.7 201.5,-334.7 201.5,-311.7 8.5,-311.7"/>
<text text-anchor="start" x="13.5" y="-320.8" font-family="Helvetica,sans-Serif" font-weight="bold" font-size="11.00" fill="#000000">IN_HOUSE_ASSAYS</text>
<text text-anchor="start" x="166.5437" y="-319.8" font-family="Helvetica,sans-Serif" font-size="11.00" fill="#000000">[table]</text>
<polygon fill="none" stroke="#000000" points="8.5,-289.7 8.5,-311.7 201.5,-311.7 201.5,-289.7 8.5,-289.7"/>
<image xlink:href="../../images/primaryKeys.png" width="11px" height="12px" preserveAspectRatio="xMinYMin meet" x="13.5" y="-306.7"/>
<text text-anchor="start" x="28.5" y="-296.8" font-family="Helvetica,sans-Serif" font-size="11.00" fill="#000000">ID</text>
<polygon fill="none" stroke="#000000" points="8.5,-267.7 8.5,-289.7 201.5,-289.7 201.5,-267.7 8.5,-267.7"/>
<image xlink:href="../../images/foreignKeys.png" width="11px" height="12px" preserveAspectRatio="xMinYMin meet" x="13.5" y="-284.7"/>
<text text-anchor="start" x="28.5" y="-274.8" font-family="Helvetica,sans-Serif" font-size="11.00" fill="#000000">ASSAY_AFFINITY_TYPE_ID</text>
<polygon fill="none" stroke="#000000" points="8.5,-245.7 8.5,-267.7 201.5,-267.7 201.5,-245.7 8.5,-245.7"/>
<image xlink:href="../../images/foreignKeys.png" width="11px" height="12px" preserveAspectRatio="xMinYMin meet" x="13.5" y="-262.7"/>
<text text-anchor="start" x="28.5" y="-252.8" font-family="Helvetica,sans-Serif" font-size="11.00" fill="#000000">ASSAY_TYPE_ID</text>
<polygon fill="none" stroke="#000000" points="8.5,-223.7 8.5,-245.7 201.5,-245.7 201.5,-223.7 8.5,-223.7"/>
<image xlink:href="../../images/foreignKeys.png" width="11px" height="12px" preserveAspectRatio="xMinYMin meet" x="13.5" y="-240.7"/>
<text text-anchor="start" x="28.5" y="-230.8" font-family="Helvetica,sans-Serif" font-size="11.00" fill="#000000">TRACER_LIGAND_ID</text>
<polygon fill="none" stroke="#000000" points="8.5,-201.7 8.5,-223.7 201.5,-223.7 201.5,-201.7 8.5,-201.7"/>
<image xlink:href="../../images/foreignKeys.png" width="11px" height="12px" preserveAspectRatio="xMinYMin meet" x="13.5" y="-218.7"/>
<text text-anchor="start" x="28.5" y="-208.8" font-family="Helvetica,sans-Serif" font-size="11.00" fill="#000000">TARGET_FORM_ID</text>
<polygon fill="none" stroke="#000000" points="8.5,-182.7 8.5,-201.7 201.5,-201.7 201.5,-182.7 8.5,-182.7"/>
<text text-anchor="start" x="11.5" y="-188.8" font-family="Helvetica,sans-Serif" font-size="11.00" fill="#000000">...</text>
<polygon fill="#ffffff" stroke="transparent" points="8.5,-163.7 8.5,-182.7 82.5,-182.7 82.5,-163.7 8.5,-163.7"/>
<polygon fill="none" stroke="#000000" points="8.5,-163.7 8.5,-182.7 82.5,-182.7 82.5,-163.7 8.5,-163.7"/>
<text text-anchor="start" x="11.5" y="-169.8" font-family="Helvetica,sans-Serif" font-size="11.00" fill="#000000">&lt; 4</text>
<polygon fill="#ffffff" stroke="transparent" points="82.5,-163.7 82.5,-182.7 153.5,-182.7 153.5,-163.7 82.5,-163.7"/>
<polygon fill="none" stroke="#000000" points="82.5,-163.7 82.5,-182.7 153.5,-182.7 153.5,-163.7 82.5,-163.7"/>
<text text-anchor="start" x="111.9956" y="-169.8" font-family="Helvetica,sans-Serif" font-size="11.00" fill="#000000">51 rows</text>
<polygon fill="#ffffff" stroke="transparent" points="153.5,-163.7 153.5,-182.7 201.5,-182.7 201.5,-163.7 153.5,-163.7"/>
<polygon fill="none" stroke="#000000" points="153.5,-163.7 153.5,-182.7 201.5,-182.7 201.5,-163.7 153.5,-163.7"/>
<text text-anchor="start" x="182.9053" y="-169.8" font-family="Helvetica,sans-Serif" font-size="11.00" fill="#000000">1 &gt;</text>
</a>
</g>
</g>
<!-- IN_HOUSE_ASSAYS_REFERENCES&#45;&gt;IN_HOUSE_ASSAYS -->
<g id="edge1" class="edge">
<title>IN_HOUSE_ASSAYS_REFERENCES:w&#45;&gt;IN_HOUSE_ASSAYS:e</title>
<path fill="none" stroke="#000000" d="M238.5669,-220.032C217.0746,-237.3534 239.5328,-300.7 201.5,-300.7"/>
<polygon fill="#000000" stroke="#000000" points="244.8607,-218.0752 253.5688,-219.1377 248.6804,-216.8876 252.5,-215.7 252.5,-215.7 252.5,-215.7 248.6804,-216.8876 251.4312,-212.2623 244.8607,-218.0752 244.8607,-218.0752"/>
<ellipse fill="none" stroke="#000000" cx="241.805" cy="-219.0253" rx="3.2" ry="3.2"/>
</g>
<!-- REFERENCES -->
<g id="node3" class="node">
<title>REFERENCES</title>
<g id="a_node3"><a xlink:href="../../tables/REFERENCES.html" xlink:title="REFERENCES" target="_top">
<polygon fill="#ffffff" stroke="transparent" points="40.5,-38.2 40.5,-143.2 168.5,-143.2 168.5,-38.2 40.5,-38.2"/>
<polygon fill="#f5f5f5" stroke="transparent" points="40.5,-119.7 40.5,-142.7 168.5,-142.7 168.5,-119.7 40.5,-119.7"/>
<polygon fill="none" stroke="#000000" points="40.5,-119.7 40.5,-142.7 168.5,-142.7 168.5,-119.7 40.5,-119.7"/>
<text text-anchor="start" x="45.5" y="-128.8" font-family="Helvetica,sans-Serif" font-weight="bold" font-size="11.00" fill="#000000">REFERENCES</text>
<text text-anchor="start" x="133.5437" y="-127.8" font-family="Helvetica,sans-Serif" font-size="11.00" fill="#000000">[table]</text>
<polygon fill="none" stroke="#000000" points="40.5,-97.7 40.5,-119.7 168.5,-119.7 168.5,-97.7 40.5,-97.7"/>
<image xlink:href="../../images/primaryKeys.png" width="11px" height="12px" preserveAspectRatio="xMinYMin meet" x="45.5" y="-114.7"/>
<text text-anchor="start" x="60.5" y="-104.8" font-family="Helvetica,sans-Serif" font-size="11.00" fill="#000000">ID</text>
<polygon fill="none" stroke="#000000" points="40.5,-75.7 40.5,-97.7 168.5,-97.7 168.5,-75.7 40.5,-75.7"/>
<image xlink:href="../../images/foreignKeys.png" width="11px" height="12px" preserveAspectRatio="xMinYMin meet" x="45.5" y="-92.7"/>
<text text-anchor="start" x="60.5" y="-82.8" font-family="Helvetica,sans-Serif" font-size="11.00" fill="#000000">USER_ID</text>
<polygon fill="none" stroke="#000000" points="40.5,-56.7 40.5,-75.7 168.5,-75.7 168.5,-56.7 40.5,-56.7"/>
<text text-anchor="start" x="43.5" y="-62.8" font-family="Helvetica,sans-Serif" font-size="11.00" fill="#000000">...</text>
<polygon fill="#ffffff" stroke="transparent" points="40.5,-37.7 40.5,-56.7 71.5,-56.7 71.5,-37.7 40.5,-37.7"/>
<polygon fill="none" stroke="#000000" points="40.5,-37.7 40.5,-56.7 71.5,-56.7 71.5,-37.7 40.5,-37.7"/>
<text text-anchor="start" x="43.5" y="-43.8" font-family="Helvetica,sans-Serif" font-size="11.00" fill="#000000">&lt; 1</text>
<polygon fill="#ffffff" stroke="transparent" points="71.5,-37.7 71.5,-56.7 135.5,-56.7 135.5,-37.7 71.5,-37.7"/>
<polygon fill="none" stroke="#000000" points="71.5,-37.7 71.5,-56.7 135.5,-56.7 135.5,-37.7 71.5,-37.7"/>
<text text-anchor="start" x="78.7089" y="-43.8" font-family="Helvetica,sans-Serif" font-size="11.00" fill="#000000">2,900 rows</text>
<polygon fill="#ffffff" stroke="transparent" points="135.5,-37.7 135.5,-56.7 168.5,-56.7 168.5,-37.7 135.5,-37.7"/>
<polygon fill="none" stroke="#000000" points="135.5,-37.7 135.5,-56.7 168.5,-56.7 168.5,-37.7 135.5,-37.7"/>
<text text-anchor="start" x="143.7904" y="-43.8" font-family="Helvetica,sans-Serif" font-size="11.00" fill="#000000">20 &gt;</text>
</a>
</g>
</g>
<!-- IN_HOUSE_ASSAYS_REFERENCES&#45;&gt;REFERENCES -->
<g id="edge2" class="edge">
<title>IN_HOUSE_ASSAYS_REFERENCES:w&#45;&gt;REFERENCES:e</title>
<path fill="none" stroke="#000000" d="M238.0322,-191.0629C203.2376,-176.7158 216.0108,-108.7 168.5,-108.7"/>
<polygon fill="#000000" stroke="#000000" points="244.6297,-192.2654 251.8544,-197.2416 248.5648,-192.9827 252.5,-193.7 252.5,-193.7 252.5,-193.7 248.5648,-192.9827 253.1456,-190.1584 244.6297,-192.2654 244.6297,-192.2654"/>
<ellipse fill="none" stroke="#000000" cx="241.4815" cy="-191.6916" rx="3.2" ry="3.2"/>
</g>
</g>
</svg>
