<?xml version="1.0" encoding="UTF-8" standalone="no"?>
<!DOCTYPE svg PUBLIC "-//W3C//DTD SVG 1.1//EN"
 "http://www.w3.org/Graphics/SVG/1.1/DTD/svg11.dtd">
<!-- Generated by graphviz version 2.40.1 (20161225.0304)
 -->
<!-- Title: oneDegreeRelationshipsDiagram Pages: 1 -->
<svg width="534pt" height="271pt"
 viewBox="0.00 0.00 534.00 270.70" xmlns="http://www.w3.org/2000/svg" xmlns:xlink="http://www.w3.org/1999/xlink">
<g id="graph0" class="graph" transform="scale(1 1) rotate(0) translate(4 266.7)">
<title>oneDegreeRelationshipsDiagram</title>
<polygon fill="#ffffff" stroke="transparent" points="-4,4 -4,-266.7 530,-266.7 530,4 -4,4"/>
<text text-anchor="middle" x="72.4936" y="-7.3" font-family="Helvetica,sans-Serif" font-size="11.00" fill="#000000">Generated by SchemaSpy</text>
<!-- TARGETS_INDICATIONS -->
<g id="node1" class="node">
<title>TARGETS_INDICATIONS</title>
<g id="a_node1"><a xlink:href="../../tables/TARGETS_INDICATIONS.html" xlink:title="TARGETS_INDICATIONS" target="_top">
<polygon fill="#ffffff" stroke="transparent" points="341,-131.7 341,-258.7 518,-258.7 518,-131.7 341,-131.7"/>
<polygon fill="#f5f5f5" stroke="transparent" points="341.5,-235.2 341.5,-258.2 518.5,-258.2 518.5,-235.2 341.5,-235.2"/>
<polygon fill="none" stroke="#000000" points="341.5,-235.2 341.5,-258.2 518.5,-258.2 518.5,-235.2 341.5,-235.2"/>
<text text-anchor="start" x="346.5" y="-244.3" font-family="Helvetica,sans-Serif" font-weight="bold" font-size="11.00" fill="#000000">TARGETS_INDICATIONS</text>
<text text-anchor="start" x="483.5437" y="-243.3" font-family="Helvetica,sans-Serif" font-size="11.00" fill="#000000">[table]</text>
<polygon fill="none" stroke="#000000" points="341.5,-213.2 341.5,-235.2 518.5,-235.2 518.5,-213.2 341.5,-213.2"/>
<image xlink:href="../../images/primaryKeys.png" width="11px" height="12px" preserveAspectRatio="xMinYMin meet" x="346.5" y="-230.2"/>
<text text-anchor="start" x="361.5" y="-220.3" font-family="Helvetica,sans-Serif" font-size="11.00" fill="#000000">ID</text>
<polygon fill="none" stroke="#000000" points="341.5,-191.2 341.5,-213.2 518.5,-213.2 518.5,-191.2 341.5,-191.2"/>
<image xlink:href="../../images/foreignKeys.png" width="11px" height="12px" preserveAspectRatio="xMinYMin meet" x="346.5" y="-208.2"/>
<text text-anchor="start" x="361.5" y="-198.3" font-family="Helvetica,sans-Serif" font-size="11.00" fill="#000000">TARGET_ID</text>
<polygon fill="none" stroke="#000000" points="341.5,-169.2 341.5,-191.2 518.5,-191.2 518.5,-169.2 341.5,-169.2"/>
<image xlink:href="../../images/foreignKeys.png" width="11px" height="12px" preserveAspectRatio="xMinYMin meet" x="346.5" y="-186.2"/>
<text text-anchor="start" x="361.5" y="-176.3" font-family="Helvetica,sans-Serif" font-size="11.00" fill="#000000">INDICATION_ID</text>
<polygon fill="none" stroke="#000000" points="341.5,-150.2 341.5,-169.2 518.5,-169.2 518.5,-150.2 341.5,-150.2"/>
<text text-anchor="start" x="344.5" y="-156.3" font-family="Helvetica,sans-Serif" font-size="11.00" fill="#000000">...</text>
<polygon fill="#ffffff" stroke="transparent" points="341.5,-131.2 341.5,-150.2 412.5,-150.2 412.5,-131.2 341.5,-131.2"/>
<polygon fill="none" stroke="#000000" points="341.5,-131.2 341.5,-150.2 412.5,-150.2 412.5,-131.2 341.5,-131.2"/>
<text text-anchor="start" x="344.5" y="-137.3" font-family="Helvetica,sans-Serif" font-size="11.00" fill="#000000">&lt; 2</text>
<polygon fill="#ffffff" stroke="transparent" points="412.5,-131.2 412.5,-150.2 481.5,-150.2 481.5,-131.2 412.5,-131.2"/>
<polygon fill="none" stroke="#000000" points="412.5,-131.2 412.5,-150.2 481.5,-150.2 481.5,-131.2 412.5,-131.2"/>
<text text-anchor="start" x="439.9956" y="-137.3" font-family="Helvetica,sans-Serif" font-size="11.00" fill="#000000">22 rows</text>
<polygon fill="#ffffff" stroke="transparent" points="481.5,-131.2 481.5,-150.2 518.5,-150.2 518.5,-131.2 481.5,-131.2"/>
<polygon fill="none" stroke="#000000" points="481.5,-131.2 481.5,-150.2 518.5,-150.2 518.5,-131.2 481.5,-131.2"/>
<text text-anchor="start" x="509.3862" y="-137.3" font-family="Helvetica,sans-Serif" font-size="11.00" fill="#000000"> &#160;</text>
</a>
</g>
</g>
<!-- INDICATIONS -->
<g id="node2" class="node">
<title>INDICATIONS</title>
<g id="a_node2"><a xlink:href="../../tables/INDICATIONS.html" xlink:title="INDICATIONS" target="_top">
<polygon fill="#ffffff" stroke="transparent" points="8,-38.2 8,-216.2 292,-216.2 292,-38.2 8,-38.2"/>
<polygon fill="#f5f5f5" stroke="transparent" points="10,-191.2 10,-214.2 290,-214.2 290,-191.2 10,-191.2"/>
<polygon fill="none" stroke="#000000" points="10,-191.2 10,-214.2 290,-214.2 290,-191.2 10,-191.2"/>
<text text-anchor="start" x="15" y="-200.3" font-family="Helvetica,sans-Serif" font-weight="bold" font-size="11.00" fill="#000000">INDICATIONS</text>
<text text-anchor="start" x="255.0437" y="-199.3" font-family="Helvetica,sans-Serif" font-size="11.00" fill="#000000">[table]</text>
<polygon fill="none" stroke="#000000" points="10,-169.2 10,-191.2 119,-191.2 119,-169.2 10,-169.2"/>
<image xlink:href="../../images/primaryKeys.png" width="11px" height="12px" preserveAspectRatio="xMinYMin meet" x="15" y="-186.2"/>
<text text-anchor="start" x="30" y="-176.3" font-family="Helvetica,sans-Serif" font-size="11.00" fill="#000000">ID</text>
<polygon fill="none" stroke="#000000" points="119,-169.2 119,-191.2 290,-191.2 290,-169.2 119,-169.2"/>
<text text-anchor="start" x="122" y="-176.9" font-family="Helvetica,sans-Serif" font-size="11.00" fill="#000000">number[19]</text>
<polygon fill="none" stroke="#000000" points="10,-147.2 10,-169.2 119,-169.2 119,-147.2 10,-147.2"/>
<text text-anchor="start" x="30" y="-154.3" font-family="Helvetica,sans-Serif" font-size="11.00" fill="#000000">CREATED_AT</text>
<polygon fill="none" stroke="#000000" points="119,-147.2 119,-169.2 290,-169.2 290,-147.2 119,-147.2"/>
<text text-anchor="start" x="121.9896" y="-154.9" font-family="Helvetica,sans-Serif" font-size="11.00" fill="#000000">timestamp(6) with time zone[13,6]</text>
<polygon fill="none" stroke="#000000" points="10,-125.2 10,-147.2 119,-147.2 119,-125.2 10,-125.2"/>
<text text-anchor="start" x="30" y="-132.3" font-family="Helvetica,sans-Serif" font-size="11.00" fill="#000000">CREATED_BY</text>
<polygon fill="none" stroke="#000000" points="119,-125.2 119,-147.2 290,-147.2 290,-125.2 119,-125.2"/>
<text text-anchor="start" x="122" y="-132.9" font-family="Helvetica,sans-Serif" font-size="11.00" fill="#000000">number[19]</text>
<polygon fill="none" stroke="#000000" points="10,-103.2 10,-125.2 119,-125.2 119,-103.2 10,-103.2"/>
<text text-anchor="start" x="30" y="-110.3" font-family="Helvetica,sans-Serif" font-size="11.00" fill="#000000">UPDATED_AT</text>
<polygon fill="none" stroke="#000000" points="119,-103.2 119,-125.2 290,-125.2 290,-103.2 119,-103.2"/>
<text text-anchor="start" x="121.9896" y="-110.9" font-family="Helvetica,sans-Serif" font-size="11.00" fill="#000000">timestamp(6) with time zone[13,6]</text>
<polygon fill="none" stroke="#000000" points="10,-81.2 10,-103.2 119,-103.2 119,-81.2 10,-81.2"/>
<text text-anchor="start" x="30" y="-88.3" font-family="Helvetica,sans-Serif" font-size="11.00" fill="#000000">UPDATED_BY</text>
<polygon fill="none" stroke="#000000" points="119,-81.2 119,-103.2 290,-103.2 290,-81.2 119,-81.2"/>
<text text-anchor="start" x="122" y="-88.9" font-family="Helvetica,sans-Serif" font-size="11.00" fill="#000000">number[19]</text>
<polygon fill="none" stroke="#000000" points="10,-59.2 10,-81.2 119,-81.2 119,-59.2 10,-59.2"/>
<text text-anchor="start" x="30" y="-66.3" font-family="Helvetica,sans-Serif" font-size="11.00" fill="#000000">NAME</text>
<polygon fill="none" stroke="#000000" points="119,-59.2 119,-81.2 290,-81.2 290,-59.2 119,-59.2"/>
<text text-anchor="start" x="122" y="-66.9" font-family="Helvetica,sans-Serif" font-size="11.00" fill="#000000">varchar2[255]</text>
<polygon fill="#ffffff" stroke="transparent" points="10,-40.2 10,-59.2 53,-59.2 53,-40.2 10,-40.2"/>
<polygon fill="none" stroke="#000000" points="10,-40.2 10,-59.2 53,-59.2 53,-40.2 10,-40.2"/>
<text text-anchor="start" x="13" y="-46.3" font-family="Helvetica,sans-Serif" font-size="11.00" fill="#000000">&lt; 0</text>
<polygon fill="#ffffff" stroke="transparent" points="53,-40.2 53,-59.2 119,-59.2 119,-40.2 53,-40.2"/>
<polygon fill="none" stroke="#000000" points="53,-40.2 53,-59.2 119,-59.2 119,-40.2 53,-40.2"/>
<text text-anchor="start" x="77.4956" y="-46.3" font-family="Helvetica,sans-Serif" font-size="11.00" fill="#000000">13 rows</text>
<polygon fill="#ffffff" stroke="transparent" points="119,-40.2 119,-59.2 290,-59.2 290,-40.2 119,-40.2"/>
<polygon fill="none" stroke="#000000" points="119,-40.2 119,-59.2 290,-59.2 290,-40.2 119,-40.2"/>
<text text-anchor="start" x="271.4053" y="-46.3" font-family="Helvetica,sans-Serif" font-size="11.00" fill="#000000">1 &gt;</text>
<polygon fill="none" stroke="#000000" stroke-width="2" points="9,-39.2 9,-215.2 291,-215.2 291,-39.2 9,-39.2"/>
</a>
</g>
</g>
<!-- TARGETS_INDICATIONS&#45;&gt;INDICATIONS -->
<g id="edge1" class="edge">
<title>TARGETS_INDICATIONS:w&#45;&gt;INDICATIONS:e</title>
<path fill="none" stroke="#000000" d="M327.0156,-180.2C314.6771,-180.2 307.1667,-180.2 290,-180.2"/>
<polygon fill="#000000" stroke="#000000" points="333.5,-180.2001 341.5,-183.8 337.5,-180.2 341.5,-180.2 341.5,-180.2 341.5,-180.2 337.5,-180.2 341.5,-176.6 333.5,-180.2001 333.5,-180.2001"/>
<ellipse fill="none" stroke="#000000" cx="330.3" cy="-180.2001" rx="3.2" ry="3.2"/>
</g>
</g>
</svg>
