<?xml version="1.0" encoding="UTF-8" standalone="no"?>
<!DOCTYPE svg PUBLIC "-//W3C//DTD SVG 1.1//EN"
 "http://www.w3.org/Graphics/SVG/1.1/DTD/svg11.dtd">
<!-- Generated by graphviz version 2.40.1 (20161225.0304)
 -->
<!-- Title: twoDegreesRelationshipsDiagram Pages: 1 -->
<svg width="1319pt" height="987pt"
 viewBox="0.00 0.00 1319.00 987.17" xmlns="http://www.w3.org/2000/svg" xmlns:xlink="http://www.w3.org/1999/xlink">
<g id="graph0" class="graph" transform="scale(1 1) rotate(0) translate(4 983.1715)">
<title>twoDegreesRelationshipsDiagram</title>
<polygon fill="#ffffff" stroke="transparent" points="-4,4 -4,-983.1715 1315,-983.1715 1315,4 -4,4"/>
<text text-anchor="middle" x="72.4936" y="-7.3" font-family="Helvetica,sans-Serif" font-size="11.00" fill="#000000">Generated by SchemaSpy</text>
<!-- CLONE_FORMS -->
<g id="node1" class="node">
<title>CLONE_FORMS</title>
<g id="a_node1"><a xlink:href="../../tables/CLONE_FORMS.html" xlink:title="CLONE_FORMS" target="_top">
<polygon fill="#ffffff" stroke="transparent" points="804.5,-856.2 804.5,-917.2 930.5,-917.2 930.5,-856.2 804.5,-856.2"/>
<polygon fill="#f5f5f5" stroke="transparent" points="804.5,-893.7 804.5,-916.7 930.5,-916.7 930.5,-893.7 804.5,-893.7"/>
<polygon fill="none" stroke="#000000" points="804.5,-893.7 804.5,-916.7 930.5,-916.7 930.5,-893.7 804.5,-893.7"/>
<text text-anchor="start" x="809.1401" y="-902.8" font-family="Helvetica,sans-Serif" font-weight="bold" font-size="11.00" fill="#000000">CLONE_FORMS</text>
<text text-anchor="start" x="896.0219" y="-901.8" font-family="Helvetica,sans-Serif" font-size="11.00" fill="#000000">[table]</text>
<polygon fill="none" stroke="#000000" points="804.5,-874.7 804.5,-893.7 930.5,-893.7 930.5,-874.7 804.5,-874.7"/>
<text text-anchor="start" x="807.5" y="-880.8" font-family="Helvetica,sans-Serif" font-size="11.00" fill="#000000">...</text>
<polygon fill="#ffffff" stroke="transparent" points="804.5,-855.7 804.5,-874.7 839.5,-874.7 839.5,-855.7 804.5,-855.7"/>
<polygon fill="none" stroke="#000000" points="804.5,-855.7 804.5,-874.7 839.5,-874.7 839.5,-855.7 804.5,-855.7"/>
<text text-anchor="start" x="807.5" y="-861.8" font-family="Helvetica,sans-Serif" font-size="11.00" fill="#000000">&lt; 4</text>
<polygon fill="#ffffff" stroke="transparent" points="839.5,-855.7 839.5,-874.7 896.5,-874.7 896.5,-855.7 839.5,-855.7"/>
<polygon fill="none" stroke="#000000" points="839.5,-855.7 839.5,-874.7 896.5,-874.7 896.5,-855.7 839.5,-855.7"/>
<text text-anchor="start" x="848.8807" y="-861.8" font-family="Helvetica,sans-Serif" font-size="11.00" fill="#000000">467 rows</text>
<polygon fill="#ffffff" stroke="transparent" points="896.5,-855.7 896.5,-874.7 930.5,-874.7 930.5,-855.7 896.5,-855.7"/>
<polygon fill="none" stroke="#000000" points="896.5,-855.7 896.5,-874.7 930.5,-874.7 930.5,-855.7 896.5,-855.7"/>
<text text-anchor="start" x="905.7904" y="-861.8" font-family="Helvetica,sans-Serif" font-size="11.00" fill="#000000">14 &gt;</text>
</a>
</g>
</g>
<!-- ISOFORMS -->
<g id="node2" class="node">
<title>ISOFORMS</title>
<g id="a_node2"><a xlink:href="../../tables/ISOFORMS.html" xlink:title="ISOFORMS" target="_top">
<polygon fill="#ffffff" stroke="transparent" points="155,-567.2 155,-672.2 313,-672.2 313,-567.2 155,-567.2"/>
<polygon fill="#f5f5f5" stroke="transparent" points="155,-648.7 155,-671.7 313,-671.7 313,-648.7 155,-648.7"/>
<polygon fill="none" stroke="#000000" points="155,-648.7 155,-671.7 313,-671.7 313,-648.7 155,-648.7"/>
<text text-anchor="start" x="160" y="-657.8" font-family="Helvetica,sans-Serif" font-weight="bold" font-size="11.00" fill="#000000">ISOFORMS</text>
<text text-anchor="start" x="278.0437" y="-656.8" font-family="Helvetica,sans-Serif" font-size="11.00" fill="#000000">[table]</text>
<polygon fill="none" stroke="#000000" points="155,-626.7 155,-648.7 313,-648.7 313,-626.7 155,-626.7"/>
<image xlink:href="../../images/primaryKeys.png" width="11px" height="12px" preserveAspectRatio="xMinYMin meet" x="160" y="-643.7"/>
<text text-anchor="start" x="175" y="-633.8" font-family="Helvetica,sans-Serif" font-size="11.00" fill="#000000">ID</text>
<polygon fill="none" stroke="#000000" points="155,-604.7 155,-626.7 313,-626.7 313,-604.7 155,-604.7"/>
<image xlink:href="../../images/foreignKeys.png" width="11px" height="12px" preserveAspectRatio="xMinYMin meet" x="160" y="-621.7"/>
<text text-anchor="start" x="175" y="-611.8" font-family="Helvetica,sans-Serif" font-size="11.00" fill="#000000">TARGET_ID</text>
<polygon fill="none" stroke="#000000" points="155,-585.7 155,-604.7 313,-604.7 313,-585.7 155,-585.7"/>
<text text-anchor="start" x="158" y="-591.8" font-family="Helvetica,sans-Serif" font-size="11.00" fill="#000000">...</text>
<polygon fill="#ffffff" stroke="transparent" points="155,-566.7 155,-585.7 206,-585.7 206,-566.7 155,-566.7"/>
<polygon fill="none" stroke="#000000" points="155,-566.7 155,-585.7 206,-585.7 206,-566.7 155,-566.7"/>
<text text-anchor="start" x="158" y="-572.8" font-family="Helvetica,sans-Serif" font-size="11.00" fill="#000000">&lt; 1</text>
<polygon fill="#ffffff" stroke="transparent" points="206,-566.7 206,-585.7 271,-585.7 271,-566.7 206,-566.7"/>
<polygon fill="none" stroke="#000000" points="206,-566.7 206,-585.7 271,-585.7 271,-566.7 206,-566.7"/>
<text text-anchor="start" x="223.3807" y="-572.8" font-family="Helvetica,sans-Serif" font-size="11.00" fill="#000000">519 rows</text>
<polygon fill="#ffffff" stroke="transparent" points="271,-566.7 271,-585.7 313,-585.7 313,-566.7 271,-566.7"/>
<polygon fill="none" stroke="#000000" points="271,-566.7 271,-585.7 313,-585.7 313,-566.7 271,-566.7"/>
<text text-anchor="start" x="288.2904" y="-572.8" font-family="Helvetica,sans-Serif" font-size="11.00" fill="#000000">10 &gt;</text>
</a>
</g>
</g>
<!-- CLONE_FORMS&#45;&gt;ISOFORMS -->
<g id="edge1" class="edge">
<title>CLONE_FORMS:w&#45;&gt;ISOFORMS:e</title>
<path fill="none" stroke="#000000" d="M790.1309,-884.6558C750.4885,-890.2427 741.3652,-918.733 695,-927.7 546.2016,-956.4774 468.4213,-1027.0824 354,-927.7 304.8619,-885.0204 378.0853,-637.7 313,-637.7"/>
<polygon fill="#000000" stroke="#000000" points="796.5176,-884.231 804.739,-887.2921 800.5088,-883.9655 804.5,-883.7 804.5,-883.7 804.5,-883.7 800.5088,-883.9655 804.261,-880.1079 796.5176,-884.231 796.5176,-884.231"/>
<ellipse fill="none" stroke="#000000" cx="793.3247" cy="-884.4434" rx="3.2" ry="3.2"/>
</g>
<!-- TARGET_FORMS -->
<g id="node3" class="node">
<title>TARGET_FORMS</title>
<g id="a_node3"><a xlink:href="../../tables/TARGET_FORMS.html" xlink:title="TARGET_FORMS" target="_top">
<polygon fill="#ffffff" stroke="transparent" points="458,-856.2 458,-917.2 591,-917.2 591,-856.2 458,-856.2"/>
<polygon fill="#f5f5f5" stroke="transparent" points="458.5,-893.7 458.5,-916.7 591.5,-916.7 591.5,-893.7 458.5,-893.7"/>
<polygon fill="none" stroke="#000000" points="458.5,-893.7 458.5,-916.7 591.5,-916.7 591.5,-893.7 458.5,-893.7"/>
<text text-anchor="start" x="463.2801" y="-902.8" font-family="Helvetica,sans-Serif" font-weight="bold" font-size="11.00" fill="#000000">TARGET_FORMS</text>
<text text-anchor="start" x="557.0219" y="-901.8" font-family="Helvetica,sans-Serif" font-size="11.00" fill="#000000">[table]</text>
<polygon fill="none" stroke="#000000" points="458.5,-874.7 458.5,-893.7 591.5,-893.7 591.5,-874.7 458.5,-874.7"/>
<text text-anchor="start" x="461.5" y="-880.8" font-family="Helvetica,sans-Serif" font-size="11.00" fill="#000000">...</text>
<polygon fill="#ffffff" stroke="transparent" points="458.5,-855.7 458.5,-874.7 496.5,-874.7 496.5,-855.7 458.5,-855.7"/>
<polygon fill="none" stroke="#000000" points="458.5,-855.7 458.5,-874.7 496.5,-874.7 496.5,-855.7 458.5,-855.7"/>
<text text-anchor="start" x="461.5" y="-861.8" font-family="Helvetica,sans-Serif" font-size="11.00" fill="#000000">&lt; 5</text>
<polygon fill="#ffffff" stroke="transparent" points="496.5,-855.7 496.5,-874.7 555.5,-874.7 555.5,-855.7 496.5,-855.7"/>
<polygon fill="none" stroke="#000000" points="496.5,-855.7 496.5,-874.7 555.5,-874.7 555.5,-855.7 496.5,-855.7"/>
<text text-anchor="start" x="507.8807" y="-861.8" font-family="Helvetica,sans-Serif" font-size="11.00" fill="#000000">541 rows</text>
<polygon fill="#ffffff" stroke="transparent" points="555.5,-855.7 555.5,-874.7 591.5,-874.7 591.5,-855.7 555.5,-855.7"/>
<polygon fill="none" stroke="#000000" points="555.5,-855.7 555.5,-874.7 591.5,-874.7 591.5,-855.7 555.5,-855.7"/>
<text text-anchor="start" x="566.7904" y="-861.8" font-family="Helvetica,sans-Serif" font-size="11.00" fill="#000000">18 &gt;</text>
</a>
</g>
</g>
<!-- CLONE_FORMS&#45;&gt;TARGET_FORMS -->
<g id="edge2" class="edge">
<title>CLONE_FORMS:w&#45;&gt;TARGET_FORMS:e</title>
<path fill="none" stroke="#000000" d="M790.0949,-883.7C707.1398,-883.7 681.1745,-883.7 591.5,-883.7"/>
<polygon fill="#000000" stroke="#000000" points="796.5,-883.7001 804.5,-887.3 800.5,-883.7 804.5,-883.7 804.5,-883.7 804.5,-883.7 800.5,-883.7 804.5,-880.1 796.5,-883.7001 796.5,-883.7001"/>
<ellipse fill="none" stroke="#000000" cx="793.3" cy="-883.7001" rx="3.2" ry="3.2"/>
</g>
<!-- TARGETS -->
<g id="node11" class="node">
<title>TARGETS</title>
<g id="a_node11"><a xlink:href="../../tables/TARGETS.html" xlink:title="TARGETS" target="_top">
<polygon fill="#ffffff" stroke="transparent" points="8,-675.2 8,-736.2 106,-736.2 106,-675.2 8,-675.2"/>
<polygon fill="#f5f5f5" stroke="transparent" points="8,-712.7 8,-735.7 106,-735.7 106,-712.7 8,-712.7"/>
<polygon fill="none" stroke="#000000" points="8,-712.7 8,-735.7 106,-735.7 106,-712.7 8,-712.7"/>
<text text-anchor="start" x="13" y="-721.8" font-family="Helvetica,sans-Serif" font-weight="bold" font-size="11.00" fill="#000000">TARGETS</text>
<text text-anchor="start" x="71.0437" y="-720.8" font-family="Helvetica,sans-Serif" font-size="11.00" fill="#000000">[table]</text>
<polygon fill="none" stroke="#000000" points="8,-693.7 8,-712.7 106,-712.7 106,-693.7 8,-693.7"/>
<text text-anchor="start" x="11" y="-699.8" font-family="Helvetica,sans-Serif" font-size="11.00" fill="#000000">...</text>
<polygon fill="#ffffff" stroke="transparent" points="8,-674.7 8,-693.7 29,-693.7 29,-674.7 8,-674.7"/>
<polygon fill="none" stroke="#000000" points="8,-674.7 8,-693.7 29,-693.7 29,-674.7 8,-674.7"/>
<text text-anchor="start" x="10.7027" y="-680.8" font-family="Helvetica,sans-Serif" font-size="11.00" fill="#000000">&lt; 3</text>
<polygon fill="#ffffff" stroke="transparent" points="29,-674.7 29,-693.7 79,-693.7 79,-674.7 29,-674.7"/>
<polygon fill="none" stroke="#000000" points="29,-674.7 29,-693.7 79,-693.7 79,-674.7 29,-674.7"/>
<text text-anchor="start" x="31.6904" y="-680.8" font-family="Helvetica,sans-Serif" font-size="11.00" fill="#000000">146 rows</text>
<polygon fill="#ffffff" stroke="transparent" points="79,-674.7 79,-693.7 106,-693.7 106,-674.7 79,-674.7"/>
<polygon fill="none" stroke="#000000" points="79,-674.7 79,-693.7 106,-693.7 106,-674.7 79,-674.7"/>
<text text-anchor="start" x="81.6452" y="-680.8" font-family="Helvetica,sans-Serif" font-size="11.00" fill="#000000">10 &gt;</text>
</a>
</g>
</g>
<!-- ISOFORMS&#45;&gt;TARGETS -->
<g id="edge11" class="edge">
<title>ISOFORMS:w&#45;&gt;TARGETS:e</title>
<path fill="none" stroke="#000000" d="M141.086,-620.134C119.9203,-637.8629 144.3105,-702.7 106,-702.7"/>
<polygon fill="#000000" stroke="#000000" points="147.3777,-618.129 156.0931,-619.1301 151.1888,-616.9145 155,-615.7 155,-615.7 155,-615.7 151.1888,-616.9145 153.9069,-612.2699 147.3777,-618.129 147.3777,-618.129"/>
<ellipse fill="none" stroke="#000000" cx="144.3287" cy="-619.1007" rx="3.2" ry="3.2"/>
</g>
<!-- TARGET_FORMS&#45;&gt;ISOFORMS -->
<g id="edge14" class="edge">
<title>TARGET_FORMS:w&#45;&gt;ISOFORMS:e</title>
<path fill="none" stroke="#000000" d="M443.9648,-883.6444C404.2342,-883.206 382.8225,-879.3469 354,-845.7 292.702,-774.1418 407.2233,-637.7 313,-637.7"/>
<polygon fill="#000000" stroke="#000000" points="450.5001,-883.6693 458.4862,-887.3 454.5,-883.6847 458.5,-883.7 458.5,-883.7 458.5,-883.7 454.5,-883.6847 458.5138,-880.1 450.5001,-883.6693 450.5001,-883.6693"/>
<ellipse fill="none" stroke="#000000" cx="447.3001" cy="-883.6571" rx="3.2" ry="3.2"/>
</g>
<!-- TARGET_FORMS&#45;&gt;TARGETS -->
<g id="edge15" class="edge">
<title>TARGET_FORMS:w&#45;&gt;TARGETS:e</title>
<path fill="none" stroke="#000000" d="M443.9524,-883.2727C282.2305,-873.5932 277.1253,-702.7 106,-702.7"/>
<polygon fill="#000000" stroke="#000000" points="450.5034,-883.4651 458.3943,-887.2984 454.5017,-883.5825 458.5,-883.7 458.5,-883.7 458.5,-883.7 454.5017,-883.5825 458.6057,-880.1016 450.5034,-883.4651 450.5034,-883.4651"/>
<ellipse fill="none" stroke="#000000" cx="447.3048" cy="-883.3711" rx="3.2" ry="3.2"/>
</g>
<!-- CLONE_FORMS_ISOFORM_REGIONS -->
<g id="node4" class="node">
<title>CLONE_FORMS_ISOFORM_REGIONS</title>
<g id="a_node4"><a xlink:href="../../tables/CLONE_FORMS_ISOFORM_REGIONS.html" xlink:title="CLONE_FORMS_ISOFORM_REGIONS" target="_top">
<polygon fill="#ffffff" stroke="transparent" points="1048,-626.2 1048,-753.2 1303,-753.2 1303,-626.2 1048,-626.2"/>
<polygon fill="#f5f5f5" stroke="transparent" points="1048.5,-729.7 1048.5,-752.7 1303.5,-752.7 1303.5,-729.7 1048.5,-729.7"/>
<polygon fill="none" stroke="#000000" points="1048.5,-729.7 1048.5,-752.7 1303.5,-752.7 1303.5,-729.7 1048.5,-729.7"/>
<text text-anchor="start" x="1053.5" y="-738.8" font-family="Helvetica,sans-Serif" font-weight="bold" font-size="11.00" fill="#000000">CLONE_FORMS_ISOFORM_REGIONS</text>
<text text-anchor="start" x="1268.5437" y="-737.8" font-family="Helvetica,sans-Serif" font-size="11.00" fill="#000000">[table]</text>
<polygon fill="none" stroke="#000000" points="1048.5,-707.7 1048.5,-729.7 1303.5,-729.7 1303.5,-707.7 1048.5,-707.7"/>
<image xlink:href="../../images/primaryKeys.png" width="11px" height="12px" preserveAspectRatio="xMinYMin meet" x="1053.5" y="-724.7"/>
<text text-anchor="start" x="1068.5" y="-714.8" font-family="Helvetica,sans-Serif" font-size="11.00" fill="#000000">ID</text>
<polygon fill="none" stroke="#000000" points="1048.5,-685.7 1048.5,-707.7 1303.5,-707.7 1303.5,-685.7 1048.5,-685.7"/>
<image xlink:href="../../images/primaryKeys.png" width="11px" height="12px" preserveAspectRatio="xMinYMin meet" x="1053.5" y="-702.7"/>
<text text-anchor="start" x="1068.5" y="-692.8" font-family="Helvetica,sans-Serif" font-size="11.00" fill="#000000">CLONE_FORM_ID</text>
<polygon fill="none" stroke="#000000" points="1048.5,-663.7 1048.5,-685.7 1303.5,-685.7 1303.5,-663.7 1048.5,-663.7"/>
<image xlink:href="../../images/primaryKeys.png" width="11px" height="12px" preserveAspectRatio="xMinYMin meet" x="1053.5" y="-680.7"/>
<text text-anchor="start" x="1068.5" y="-670.8" font-family="Helvetica,sans-Serif" font-size="11.00" fill="#000000">ISOFORM_REGION_ID</text>
<polygon fill="none" stroke="#000000" points="1048.5,-644.7 1048.5,-663.7 1303.5,-663.7 1303.5,-644.7 1048.5,-644.7"/>
<text text-anchor="start" x="1051.5" y="-650.8" font-family="Helvetica,sans-Serif" font-size="11.00" fill="#000000">...</text>
<polygon fill="#ffffff" stroke="transparent" points="1048.5,-625.7 1048.5,-644.7 1158.5,-644.7 1158.5,-625.7 1048.5,-625.7"/>
<polygon fill="none" stroke="#000000" points="1048.5,-625.7 1048.5,-644.7 1158.5,-644.7 1158.5,-625.7 1048.5,-625.7"/>
<text text-anchor="start" x="1051.5" y="-631.8" font-family="Helvetica,sans-Serif" font-size="11.00" fill="#000000">&lt; 2</text>
<polygon fill="#ffffff" stroke="transparent" points="1158.5,-625.7 1158.5,-644.7 1246.5,-644.7 1246.5,-625.7 1158.5,-625.7"/>
<polygon fill="none" stroke="#000000" points="1158.5,-625.7 1158.5,-644.7 1246.5,-644.7 1246.5,-625.7 1158.5,-625.7"/>
<text text-anchor="start" x="1204.9956" y="-631.8" font-family="Helvetica,sans-Serif" font-size="11.00" fill="#000000">73 rows</text>
<polygon fill="#ffffff" stroke="transparent" points="1246.5,-625.7 1246.5,-644.7 1303.5,-644.7 1303.5,-625.7 1246.5,-625.7"/>
<polygon fill="none" stroke="#000000" points="1246.5,-625.7 1246.5,-644.7 1303.5,-644.7 1303.5,-625.7 1246.5,-625.7"/>
<text text-anchor="start" x="1294.3862" y="-631.8" font-family="Helvetica,sans-Serif" font-size="11.00" fill="#000000"> &#160;</text>
</a>
</g>
</g>
<!-- CLONE_FORMS_ISOFORM_REGIONS&#45;&gt;CLONE_FORMS -->
<g id="edge3" class="edge">
<title>CLONE_FORMS_ISOFORM_REGIONS:w&#45;&gt;CLONE_FORMS:e</title>
<path fill="none" stroke="#000000" d="M1034.2493,-698.9344C1002.0821,-711.2539 1033.9702,-771.8135 1007,-812.7 981.4579,-851.4215 976.887,-883.7 930.5,-883.7"/>
<polygon fill="#000000" stroke="#000000" points="1040.5966,-697.9393 1049.0577,-700.2565 1044.5483,-697.3196 1048.5,-696.7 1048.5,-696.7 1048.5,-696.7 1044.5483,-697.3196 1047.9423,-693.1435 1040.5966,-697.9393 1040.5966,-697.9393"/>
<ellipse fill="none" stroke="#000000" cx="1037.4352" cy="-698.435" rx="3.2" ry="3.2"/>
</g>
<!-- ISOFORM_REGIONS -->
<g id="node5" class="node">
<title>ISOFORM_REGIONS</title>
<g id="a_node5"><a xlink:href="../../tables/ISOFORM_REGIONS.html" xlink:title="ISOFORM_REGIONS" target="_top">
<polygon fill="#ffffff" stroke="transparent" points="362,-366.7 362,-588.7 687,-588.7 687,-366.7 362,-366.7"/>
<polygon fill="#f5f5f5" stroke="transparent" points="364.5,-563.7 364.5,-586.7 685.5,-586.7 685.5,-563.7 364.5,-563.7"/>
<polygon fill="none" stroke="#000000" points="364.5,-563.7 364.5,-586.7 685.5,-586.7 685.5,-563.7 364.5,-563.7"/>
<text text-anchor="start" x="369.5" y="-572.8" font-family="Helvetica,sans-Serif" font-weight="bold" font-size="11.00" fill="#000000">ISOFORM_REGIONS</text>
<text text-anchor="start" x="650.5437" y="-571.8" font-family="Helvetica,sans-Serif" font-size="11.00" fill="#000000">[table]</text>
<polygon fill="none" stroke="#000000" points="364.5,-541.7 364.5,-563.7 514.5,-563.7 514.5,-541.7 364.5,-541.7"/>
<image xlink:href="../../images/primaryKeys.png" width="11px" height="12px" preserveAspectRatio="xMinYMin meet" x="369.5" y="-558.7"/>
<text text-anchor="start" x="384.5" y="-548.8" font-family="Helvetica,sans-Serif" font-size="11.00" fill="#000000">ID</text>
<polygon fill="none" stroke="#000000" points="514.5,-541.7 514.5,-563.7 685.5,-563.7 685.5,-541.7 514.5,-541.7"/>
<text text-anchor="start" x="517.5" y="-549.4" font-family="Helvetica,sans-Serif" font-size="11.00" fill="#000000">number[19]</text>
<polygon fill="none" stroke="#000000" points="364.5,-519.7 364.5,-541.7 514.5,-541.7 514.5,-519.7 364.5,-519.7"/>
<text text-anchor="start" x="384.5" y="-526.8" font-family="Helvetica,sans-Serif" font-size="11.00" fill="#000000">CREATED_AT</text>
<polygon fill="none" stroke="#000000" points="514.5,-519.7 514.5,-541.7 685.5,-541.7 685.5,-519.7 514.5,-519.7"/>
<text text-anchor="start" x="517.4896" y="-527.4" font-family="Helvetica,sans-Serif" font-size="11.00" fill="#000000">timestamp(6) with time zone[13,6]</text>
<polygon fill="none" stroke="#000000" points="364.5,-497.7 364.5,-519.7 514.5,-519.7 514.5,-497.7 364.5,-497.7"/>
<text text-anchor="start" x="384.5" y="-504.8" font-family="Helvetica,sans-Serif" font-size="11.00" fill="#000000">CREATED_BY</text>
<polygon fill="none" stroke="#000000" points="514.5,-497.7 514.5,-519.7 685.5,-519.7 685.5,-497.7 514.5,-497.7"/>
<text text-anchor="start" x="517.5" y="-505.4" font-family="Helvetica,sans-Serif" font-size="11.00" fill="#000000">number[19]</text>
<polygon fill="none" stroke="#000000" points="364.5,-475.7 364.5,-497.7 514.5,-497.7 514.5,-475.7 364.5,-475.7"/>
<text text-anchor="start" x="384.5" y="-482.8" font-family="Helvetica,sans-Serif" font-size="11.00" fill="#000000">UPDATED_AT</text>
<polygon fill="none" stroke="#000000" points="514.5,-475.7 514.5,-497.7 685.5,-497.7 685.5,-475.7 514.5,-475.7"/>
<text text-anchor="start" x="517.4896" y="-483.4" font-family="Helvetica,sans-Serif" font-size="11.00" fill="#000000">timestamp(6) with time zone[13,6]</text>
<polygon fill="none" stroke="#000000" points="364.5,-453.7 364.5,-475.7 514.5,-475.7 514.5,-453.7 364.5,-453.7"/>
<text text-anchor="start" x="384.5" y="-460.8" font-family="Helvetica,sans-Serif" font-size="11.00" fill="#000000">UPDATED_BY</text>
<polygon fill="none" stroke="#000000" points="514.5,-453.7 514.5,-475.7 685.5,-475.7 685.5,-453.7 514.5,-453.7"/>
<text text-anchor="start" x="517.5" y="-461.4" font-family="Helvetica,sans-Serif" font-size="11.00" fill="#000000">number[19]</text>
<polygon fill="none" stroke="#000000" points="364.5,-431.7 364.5,-453.7 514.5,-453.7 514.5,-431.7 364.5,-431.7"/>
<text text-anchor="start" x="384.5" y="-438.8" font-family="Helvetica,sans-Serif" font-size="11.00" fill="#000000">COLOR</text>
<polygon fill="none" stroke="#000000" points="514.5,-431.7 514.5,-453.7 685.5,-453.7 685.5,-431.7 514.5,-431.7"/>
<text text-anchor="start" x="517.5" y="-439.4" font-family="Helvetica,sans-Serif" font-size="11.00" fill="#000000">varchar2[255]</text>
<polygon fill="none" stroke="#000000" points="364.5,-409.7 364.5,-431.7 514.5,-431.7 514.5,-409.7 364.5,-409.7"/>
<text text-anchor="start" x="384.5" y="-416.8" font-family="Helvetica,sans-Serif" font-size="11.00" fill="#000000">TITLE</text>
<polygon fill="none" stroke="#000000" points="514.5,-409.7 514.5,-431.7 685.5,-431.7 685.5,-409.7 514.5,-409.7"/>
<text text-anchor="start" x="517.5" y="-417.4" font-family="Helvetica,sans-Serif" font-size="11.00" fill="#000000">varchar2[255]</text>
<polygon fill="none" stroke="#000000" points="364.5,-387.7 364.5,-409.7 514.5,-409.7 514.5,-387.7 364.5,-387.7"/>
<image xlink:href="../../images/foreignKeys.png" width="11px" height="12px" preserveAspectRatio="xMinYMin meet" x="369.5" y="-404.7"/>
<text text-anchor="start" x="384.5" y="-394.8" font-family="Helvetica,sans-Serif" font-size="11.00" fill="#000000">ISOFORM_ID</text>
<polygon fill="none" stroke="#000000" points="514.5,-387.7 514.5,-409.7 685.5,-409.7 685.5,-387.7 514.5,-387.7"/>
<text text-anchor="start" x="517.5" y="-395.4" font-family="Helvetica,sans-Serif" font-size="11.00" fill="#000000">number[19]</text>
<polygon fill="#ffffff" stroke="transparent" points="364.5,-368.7 364.5,-387.7 424.5,-387.7 424.5,-368.7 364.5,-368.7"/>
<polygon fill="none" stroke="#000000" points="364.5,-368.7 364.5,-387.7 424.5,-387.7 424.5,-368.7 364.5,-368.7"/>
<text text-anchor="start" x="367.5" y="-374.8" font-family="Helvetica,sans-Serif" font-size="11.00" fill="#000000">&lt; 1</text>
<polygon fill="#ffffff" stroke="transparent" points="424.5,-368.7 424.5,-387.7 514.5,-387.7 514.5,-368.7 424.5,-368.7"/>
<polygon fill="none" stroke="#000000" points="424.5,-368.7 424.5,-387.7 514.5,-387.7 514.5,-368.7 424.5,-368.7"/>
<text text-anchor="start" x="466.8807" y="-374.8" font-family="Helvetica,sans-Serif" font-size="11.00" fill="#000000">199 rows</text>
<polygon fill="#ffffff" stroke="transparent" points="514.5,-368.7 514.5,-387.7 685.5,-387.7 685.5,-368.7 514.5,-368.7"/>
<polygon fill="none" stroke="#000000" points="514.5,-368.7 514.5,-387.7 685.5,-387.7 685.5,-368.7 514.5,-368.7"/>
<text text-anchor="start" x="666.9053" y="-374.8" font-family="Helvetica,sans-Serif" font-size="11.00" fill="#000000">2 &gt;</text>
<polygon fill="none" stroke="#000000" stroke-width="2" points="363,-367.7 363,-587.7 686,-587.7 686,-367.7 363,-367.7"/>
</a>
</g>
</g>
<!-- CLONE_FORMS_ISOFORM_REGIONS&#45;&gt;ISOFORM_REGIONS -->
<g id="edge4" class="edge">
<title>CLONE_FORMS_ISOFORM_REGIONS:w&#45;&gt;ISOFORM_REGIONS:e</title>
<path fill="none" stroke="#000000" d="M1034.2648,-671.4368C967.4902,-652.0354 704.6975,-552.7 685.5,-552.7"/>
<polygon fill="#000000" stroke="#000000" points="1040.7023,-672.9124 1047.6956,-678.209 1044.6011,-673.8062 1048.5,-674.7 1048.5,-674.7 1048.5,-674.7 1044.6011,-673.8062 1049.3044,-671.191 1040.7023,-672.9124 1040.7023,-672.9124"/>
<ellipse fill="none" stroke="#000000" cx="1037.5832" cy="-672.1974" rx="3.2" ry="3.2"/>
</g>
<!-- ISOFORM_REGIONS&#45;&gt;ISOFORMS -->
<g id="edge9" class="edge">
<title>ISOFORM_REGIONS:w&#45;&gt;ISOFORMS:e</title>
<path fill="none" stroke="#000000" d="M349.9978,-400.4864C271.973,-422.3571 416.1424,-637.7 313,-637.7"/>
<polygon fill="#000000" stroke="#000000" points="356.56,-399.6781 364.9401,-402.273 360.53,-399.189 364.5,-398.7 364.5,-398.7 364.5,-398.7 360.53,-399.189 364.0599,-395.127 356.56,-399.6781 356.56,-399.6781"/>
<ellipse fill="none" stroke="#000000" cx="353.384" cy="-400.0693" rx="3.2" ry="3.2"/>
</g>
<!-- ISOFORM_ANNOTATIONS -->
<g id="node6" class="node">
<title>ISOFORM_ANNOTATIONS</title>
<g id="a_node6"><a xlink:href="../../tables/ISOFORM_ANNOTATIONS.html" xlink:title="ISOFORM_ANNOTATIONS" target="_top">
<polygon fill="#ffffff" stroke="transparent" points="435,-284.2 435,-345.2 614,-345.2 614,-284.2 435,-284.2"/>
<polygon fill="#f5f5f5" stroke="transparent" points="435.5,-321.7 435.5,-344.7 614.5,-344.7 614.5,-321.7 435.5,-321.7"/>
<polygon fill="none" stroke="#000000" points="435.5,-321.7 435.5,-344.7 614.5,-344.7 614.5,-321.7 435.5,-321.7"/>
<text text-anchor="start" x="440.0575" y="-330.8" font-family="Helvetica,sans-Serif" font-weight="bold" font-size="11.00" fill="#000000">ISOFORM_ANNOTATIONS</text>
<text text-anchor="start" x="580.0219" y="-329.8" font-family="Helvetica,sans-Serif" font-size="11.00" fill="#000000">[table]</text>
<polygon fill="none" stroke="#000000" points="435.5,-302.7 435.5,-321.7 614.5,-321.7 614.5,-302.7 435.5,-302.7"/>
<text text-anchor="start" x="438.5" y="-308.8" font-family="Helvetica,sans-Serif" font-size="11.00" fill="#000000">...</text>
<polygon fill="#ffffff" stroke="transparent" points="435.5,-283.7 435.5,-302.7 505.5,-302.7 505.5,-283.7 435.5,-283.7"/>
<polygon fill="none" stroke="#000000" points="435.5,-283.7 435.5,-302.7 505.5,-302.7 505.5,-283.7 435.5,-283.7"/>
<text text-anchor="start" x="438.5" y="-289.8" font-family="Helvetica,sans-Serif" font-size="11.00" fill="#000000">&lt; 1</text>
<polygon fill="#ffffff" stroke="transparent" points="505.5,-283.7 505.5,-302.7 568.5,-302.7 568.5,-283.7 505.5,-283.7"/>
<polygon fill="none" stroke="#000000" points="505.5,-283.7 505.5,-302.7 568.5,-302.7 568.5,-283.7 505.5,-283.7"/>
<text text-anchor="start" x="533.1105" y="-289.8" font-family="Helvetica,sans-Serif" font-size="11.00" fill="#000000">9 rows</text>
<polygon fill="#ffffff" stroke="transparent" points="568.5,-283.7 568.5,-302.7 614.5,-302.7 614.5,-283.7 568.5,-283.7"/>
<polygon fill="none" stroke="#000000" points="568.5,-283.7 568.5,-302.7 614.5,-302.7 614.5,-283.7 568.5,-283.7"/>
<text text-anchor="start" x="595.9053" y="-289.8" font-family="Helvetica,sans-Serif" font-size="11.00" fill="#000000">3 &gt;</text>
</a>
</g>
</g>
<!-- ISOFORM_ANNOTATIONS&#45;&gt;ISOFORMS -->
<g id="edge5" class="edge">
<title>ISOFORM_ANNOTATIONS:w&#45;&gt;ISOFORMS:e</title>
<path fill="none" stroke="#000000" d="M420.7311,-312.2399C389.9036,-314.7357 374.5437,-326.3108 354,-355.7 317.7193,-407.6022 376.3255,-637.7 313,-637.7"/>
<polygon fill="#000000" stroke="#000000" points="427.5053,-311.9923 435.6315,-315.2976 431.5027,-311.8461 435.5,-311.7 435.5,-311.7 435.5,-311.7 431.5027,-311.8461 435.3685,-308.1024 427.5053,-311.9923 427.5053,-311.9923"/>
<ellipse fill="none" stroke="#000000" cx="424.3075" cy="-312.1092" rx="3.2" ry="3.2"/>
</g>
<!-- ISOFORM_COMMENTS -->
<g id="node7" class="node">
<title>ISOFORM_COMMENTS</title>
<g id="a_node7"><a xlink:href="../../tables/ISOFORM_COMMENTS.html" xlink:title="ISOFORM_COMMENTS" target="_top">
<polygon fill="#ffffff" stroke="transparent" points="442.5,-202.2 442.5,-263.2 606.5,-263.2 606.5,-202.2 442.5,-202.2"/>
<polygon fill="#f5f5f5" stroke="transparent" points="442.5,-239.7 442.5,-262.7 606.5,-262.7 606.5,-239.7 442.5,-239.7"/>
<polygon fill="none" stroke="#000000" points="442.5,-239.7 442.5,-262.7 606.5,-262.7 606.5,-239.7 442.5,-239.7"/>
<text text-anchor="start" x="447.2008" y="-248.8" font-family="Helvetica,sans-Serif" font-weight="bold" font-size="11.00" fill="#000000">ISOFORM_COMMENTS</text>
<text text-anchor="start" x="572.0219" y="-247.8" font-family="Helvetica,sans-Serif" font-size="11.00" fill="#000000">[table]</text>
<polygon fill="none" stroke="#000000" points="442.5,-220.7 442.5,-239.7 606.5,-239.7 606.5,-220.7 442.5,-220.7"/>
<text text-anchor="start" x="445.5" y="-226.8" font-family="Helvetica,sans-Serif" font-size="11.00" fill="#000000">...</text>
<polygon fill="#ffffff" stroke="transparent" points="442.5,-201.7 442.5,-220.7 509.5,-220.7 509.5,-201.7 442.5,-201.7"/>
<polygon fill="none" stroke="#000000" points="442.5,-201.7 442.5,-220.7 509.5,-220.7 509.5,-201.7 442.5,-201.7"/>
<text text-anchor="start" x="445.5" y="-207.8" font-family="Helvetica,sans-Serif" font-size="11.00" fill="#000000">&lt; 2</text>
<polygon fill="#ffffff" stroke="transparent" points="509.5,-201.7 509.5,-220.7 570.5,-220.7 570.5,-201.7 509.5,-201.7"/>
<polygon fill="none" stroke="#000000" points="509.5,-201.7 509.5,-220.7 570.5,-220.7 570.5,-201.7 509.5,-201.7"/>
<text text-anchor="start" x="535.1105" y="-207.8" font-family="Helvetica,sans-Serif" font-size="11.00" fill="#000000">8 rows</text>
<polygon fill="#ffffff" stroke="transparent" points="570.5,-201.7 570.5,-220.7 606.5,-220.7 606.5,-201.7 570.5,-201.7"/>
<polygon fill="none" stroke="#000000" points="570.5,-201.7 570.5,-220.7 606.5,-220.7 606.5,-201.7 570.5,-201.7"/>
<text text-anchor="start" x="597.3862" y="-207.8" font-family="Helvetica,sans-Serif" font-size="11.00" fill="#000000"> &#160;</text>
</a>
</g>
</g>
<!-- ISOFORM_COMMENTS&#45;&gt;ISOFORMS -->
<g id="edge6" class="edge">
<title>ISOFORM_COMMENTS:w&#45;&gt;ISOFORMS:e</title>
<path fill="none" stroke="#000000" d="M428.0195,-230.0623C393.9513,-231.9628 376.2401,-241.9325 354,-273.7 307.3158,-340.3829 394.4004,-637.7 313,-637.7"/>
<polygon fill="#000000" stroke="#000000" points="434.5025,-229.9002 442.5901,-233.2989 438.5013,-229.8001 442.5,-229.7 442.5,-229.7 442.5,-229.7 438.5013,-229.8001 442.4099,-226.1011 434.5025,-229.9002 434.5025,-229.9002"/>
<ellipse fill="none" stroke="#000000" cx="431.3035" cy="-229.9802" rx="3.2" ry="3.2"/>
</g>
<!-- ISOFORM_DOMAINS -->
<g id="node8" class="node">
<title>ISOFORM_DOMAINS</title>
<g id="a_node8"><a xlink:href="../../tables/ISOFORM_DOMAINS.html" xlink:title="ISOFORM_DOMAINS" target="_top">
<polygon fill="#ffffff" stroke="transparent" points="449,-120.2 449,-181.2 600,-181.2 600,-120.2 449,-120.2"/>
<polygon fill="#f5f5f5" stroke="transparent" points="449.5,-157.7 449.5,-180.7 600.5,-180.7 600.5,-157.7 449.5,-157.7"/>
<polygon fill="none" stroke="#000000" points="449.5,-157.7 449.5,-180.7 600.5,-180.7 600.5,-157.7 449.5,-157.7"/>
<text text-anchor="start" x="454.1133" y="-166.8" font-family="Helvetica,sans-Serif" font-weight="bold" font-size="11.00" fill="#000000">ISOFORM_DOMAINS</text>
<text text-anchor="start" x="566.0219" y="-165.8" font-family="Helvetica,sans-Serif" font-size="11.00" fill="#000000">[table]</text>
<polygon fill="none" stroke="#000000" points="449.5,-138.7 449.5,-157.7 600.5,-157.7 600.5,-138.7 449.5,-138.7"/>
<text text-anchor="start" x="452.5" y="-144.8" font-family="Helvetica,sans-Serif" font-size="11.00" fill="#000000">...</text>
<polygon fill="#ffffff" stroke="transparent" points="449.5,-119.7 449.5,-138.7 499.5,-138.7 499.5,-119.7 449.5,-119.7"/>
<polygon fill="none" stroke="#000000" points="449.5,-119.7 449.5,-138.7 499.5,-138.7 499.5,-119.7 449.5,-119.7"/>
<text text-anchor="start" x="452.5" y="-125.8" font-family="Helvetica,sans-Serif" font-size="11.00" fill="#000000">&lt; 1</text>
<polygon fill="#ffffff" stroke="transparent" points="499.5,-119.7 499.5,-138.7 564.5,-138.7 564.5,-119.7 499.5,-119.7"/>
<polygon fill="none" stroke="#000000" points="499.5,-119.7 499.5,-138.7 564.5,-138.7 564.5,-119.7 499.5,-119.7"/>
<text text-anchor="start" x="516.8807" y="-125.8" font-family="Helvetica,sans-Serif" font-size="11.00" fill="#000000">727 rows</text>
<polygon fill="#ffffff" stroke="transparent" points="564.5,-119.7 564.5,-138.7 600.5,-138.7 600.5,-119.7 564.5,-119.7"/>
<polygon fill="none" stroke="#000000" points="564.5,-119.7 564.5,-138.7 600.5,-138.7 600.5,-119.7 564.5,-119.7"/>
<text text-anchor="start" x="581.9053" y="-125.8" font-family="Helvetica,sans-Serif" font-size="11.00" fill="#000000">5 &gt;</text>
</a>
</g>
</g>
<!-- ISOFORM_DOMAINS&#45;&gt;ISOFORMS -->
<g id="edge7" class="edge">
<title>ISOFORM_DOMAINS:w&#45;&gt;ISOFORMS:e</title>
<path fill="none" stroke="#000000" d="M435.0215,-147.9442C397.9385,-149.3641 378.0261,-157.7135 354,-191.7 325.2732,-232.3359 362.7645,-637.7 313,-637.7"/>
<polygon fill="#000000" stroke="#000000" points="441.5011,-147.835 449.5607,-151.2995 445.5006,-147.7675 449.5,-147.7 449.5,-147.7 449.5,-147.7 445.5006,-147.7675 449.4393,-144.1005 441.5011,-147.835 441.5011,-147.835"/>
<ellipse fill="none" stroke="#000000" cx="438.3016" cy="-147.889" rx="3.2" ry="3.2"/>
</g>
<!-- ISOFORM_MOTIFS -->
<g id="node9" class="node">
<title>ISOFORM_MOTIFS</title>
<g id="a_node9"><a xlink:href="../../tables/ISOFORM_MOTIFS.html" xlink:title="ISOFORM_MOTIFS" target="_top">
<polygon fill="#ffffff" stroke="transparent" points="454,-38.2 454,-99.2 595,-99.2 595,-38.2 454,-38.2"/>
<polygon fill="#f5f5f5" stroke="transparent" points="454.5,-75.7 454.5,-98.7 595.5,-98.7 595.5,-75.7 454.5,-75.7"/>
<polygon fill="none" stroke="#000000" points="454.5,-75.7 454.5,-98.7 595.5,-98.7 595.5,-75.7 454.5,-75.7"/>
<text text-anchor="start" x="459.0022" y="-84.8" font-family="Helvetica,sans-Serif" font-weight="bold" font-size="11.00" fill="#000000">ISOFORM_MOTIFS</text>
<text text-anchor="start" x="561.0219" y="-83.8" font-family="Helvetica,sans-Serif" font-size="11.00" fill="#000000">[table]</text>
<polygon fill="none" stroke="#000000" points="454.5,-56.7 454.5,-75.7 595.5,-75.7 595.5,-56.7 454.5,-56.7"/>
<text text-anchor="start" x="457.5" y="-62.8" font-family="Helvetica,sans-Serif" font-size="11.00" fill="#000000">...</text>
<polygon fill="#ffffff" stroke="transparent" points="454.5,-37.7 454.5,-56.7 499.5,-56.7 499.5,-37.7 454.5,-37.7"/>
<polygon fill="none" stroke="#000000" points="454.5,-37.7 454.5,-56.7 499.5,-56.7 499.5,-37.7 454.5,-37.7"/>
<text text-anchor="start" x="457.5" y="-43.8" font-family="Helvetica,sans-Serif" font-size="11.00" fill="#000000">&lt; 1</text>
<polygon fill="#ffffff" stroke="transparent" points="499.5,-37.7 499.5,-56.7 561.5,-56.7 561.5,-37.7 499.5,-37.7"/>
<polygon fill="none" stroke="#000000" points="499.5,-37.7 499.5,-56.7 561.5,-56.7 561.5,-37.7 499.5,-37.7"/>
<text text-anchor="start" x="513.8807" y="-43.8" font-family="Helvetica,sans-Serif" font-size="11.00" fill="#000000">183 rows</text>
<polygon fill="#ffffff" stroke="transparent" points="561.5,-37.7 561.5,-56.7 595.5,-56.7 595.5,-37.7 561.5,-37.7"/>
<polygon fill="none" stroke="#000000" points="561.5,-37.7 561.5,-56.7 595.5,-56.7 595.5,-37.7 561.5,-37.7"/>
<text text-anchor="start" x="576.9053" y="-43.8" font-family="Helvetica,sans-Serif" font-size="11.00" fill="#000000">2 &gt;</text>
</a>
</g>
</g>
<!-- ISOFORM_MOTIFS&#45;&gt;ISOFORMS -->
<g id="edge8" class="edge">
<title>ISOFORM_MOTIFS:w&#45;&gt;ISOFORMS:e</title>
<path fill="none" stroke="#000000" d="M439.8799,-65.8786C400.7311,-66.992 379.2654,-74.1454 354,-109.7 319.9149,-157.666 371.8433,-637.7 313,-637.7"/>
<polygon fill="#000000" stroke="#000000" points="446.5006,-65.7978 454.544,-69.2997 450.5003,-65.7489 454.5,-65.7 454.5,-65.7 454.5,-65.7 450.5003,-65.7489 454.456,-62.1003 446.5006,-65.7978 446.5006,-65.7978"/>
<ellipse fill="none" stroke="#000000" cx="443.3008" cy="-65.8369" rx="3.2" ry="3.2"/>
</g>
<!-- ISOFORM_VARIANTS -->
<g id="node10" class="node">
<title>ISOFORM_VARIANTS</title>
<g id="a_node10"><a xlink:href="../../tables/ISOFORM_VARIANTS.html" xlink:title="ISOFORM_VARIANTS" target="_top">
<polygon fill="#ffffff" stroke="transparent" points="447,-774.2 447,-835.2 602,-835.2 602,-774.2 447,-774.2"/>
<polygon fill="#f5f5f5" stroke="transparent" points="447.5,-811.7 447.5,-834.7 602.5,-834.7 602.5,-811.7 447.5,-811.7"/>
<polygon fill="none" stroke="#000000" points="447.5,-811.7 447.5,-834.7 602.5,-834.7 602.5,-811.7 447.5,-811.7"/>
<text text-anchor="start" x="452.2768" y="-820.8" font-family="Helvetica,sans-Serif" font-weight="bold" font-size="11.00" fill="#000000">ISOFORM_VARIANTS</text>
<text text-anchor="start" x="568.0219" y="-819.8" font-family="Helvetica,sans-Serif" font-size="11.00" fill="#000000">[table]</text>
<polygon fill="none" stroke="#000000" points="447.5,-792.7 447.5,-811.7 602.5,-811.7 602.5,-792.7 447.5,-792.7"/>
<text text-anchor="start" x="450.5" y="-798.8" font-family="Helvetica,sans-Serif" font-size="11.00" fill="#000000">...</text>
<polygon fill="#ffffff" stroke="transparent" points="447.5,-773.7 447.5,-792.7 495.5,-792.7 495.5,-773.7 447.5,-773.7"/>
<polygon fill="none" stroke="#000000" points="447.5,-773.7 447.5,-792.7 495.5,-792.7 495.5,-773.7 447.5,-773.7"/>
<text text-anchor="start" x="450.5" y="-779.8" font-family="Helvetica,sans-Serif" font-size="11.00" fill="#000000">&lt; 1</text>
<polygon fill="#ffffff" stroke="transparent" points="495.5,-773.7 495.5,-792.7 567.5,-792.7 567.5,-773.7 495.5,-773.7"/>
<polygon fill="none" stroke="#000000" points="495.5,-773.7 495.5,-792.7 567.5,-792.7 567.5,-773.7 495.5,-773.7"/>
<text text-anchor="start" x="510.7089" y="-779.8" font-family="Helvetica,sans-Serif" font-size="11.00" fill="#000000">4,858 rows</text>
<polygon fill="#ffffff" stroke="transparent" points="567.5,-773.7 567.5,-792.7 602.5,-792.7 602.5,-773.7 567.5,-773.7"/>
<polygon fill="none" stroke="#000000" points="567.5,-773.7 567.5,-792.7 602.5,-792.7 602.5,-773.7 567.5,-773.7"/>
<text text-anchor="start" x="583.9053" y="-779.8" font-family="Helvetica,sans-Serif" font-size="11.00" fill="#000000">3 &gt;</text>
</a>
</g>
</g>
<!-- ISOFORM_VARIANTS&#45;&gt;ISOFORMS -->
<g id="edge10" class="edge">
<title>ISOFORM_VARIANTS:w&#45;&gt;ISOFORMS:e</title>
<path fill="none" stroke="#000000" d="M432.7702,-801.4508C398.235,-800.1086 380.9835,-792.6834 354,-763.7 313.872,-720.5979 371.8901,-637.7 313,-637.7"/>
<polygon fill="#000000" stroke="#000000" points="439.5011,-801.5646 447.4391,-805.2995 443.5006,-801.6323 447.5,-801.7 447.5,-801.7 447.5,-801.7 443.5006,-801.6323 447.5609,-798.1005 439.5011,-801.5646 439.5011,-801.5646"/>
<ellipse fill="none" stroke="#000000" cx="436.3016" cy="-801.5105" rx="3.2" ry="3.2"/>
</g>
<!-- ISOFORMS_REFERENCES -->
<g id="node12" class="node">
<title>ISOFORMS_REFERENCES</title>
<g id="a_node12"><a xlink:href="../../tables/ISOFORMS_REFERENCES.html" xlink:title="ISOFORMS_REFERENCES" target="_top">
<polygon fill="#ffffff" stroke="transparent" points="433.5,-692.2 433.5,-753.2 615.5,-753.2 615.5,-692.2 433.5,-692.2"/>
<polygon fill="#f5f5f5" stroke="transparent" points="433.5,-729.7 433.5,-752.7 615.5,-752.7 615.5,-729.7 433.5,-729.7"/>
<polygon fill="none" stroke="#000000" points="433.5,-729.7 433.5,-752.7 615.5,-752.7 615.5,-729.7 433.5,-729.7"/>
<text text-anchor="start" x="438.0285" y="-738.8" font-family="Helvetica,sans-Serif" font-weight="bold" font-size="11.00" fill="#000000">ISOFORMS_REFERENCES</text>
<text text-anchor="start" x="581.0219" y="-737.8" font-family="Helvetica,sans-Serif" font-size="11.00" fill="#000000">[table]</text>
<polygon fill="none" stroke="#000000" points="433.5,-710.7 433.5,-729.7 615.5,-729.7 615.5,-710.7 433.5,-710.7"/>
<text text-anchor="start" x="436.5" y="-716.8" font-family="Helvetica,sans-Serif" font-size="11.00" fill="#000000">...</text>
<polygon fill="#ffffff" stroke="transparent" points="433.5,-691.7 433.5,-710.7 509.5,-710.7 509.5,-691.7 433.5,-691.7"/>
<polygon fill="none" stroke="#000000" points="433.5,-691.7 433.5,-710.7 509.5,-710.7 509.5,-691.7 433.5,-691.7"/>
<text text-anchor="start" x="436.5" y="-697.8" font-family="Helvetica,sans-Serif" font-size="11.00" fill="#000000">&lt; 2</text>
<polygon fill="#ffffff" stroke="transparent" points="509.5,-691.7 509.5,-710.7 575.5,-710.7 575.5,-691.7 509.5,-691.7"/>
<polygon fill="none" stroke="#000000" points="509.5,-691.7 509.5,-710.7 575.5,-710.7 575.5,-691.7 509.5,-691.7"/>
<text text-anchor="start" x="540.1105" y="-697.8" font-family="Helvetica,sans-Serif" font-size="11.00" fill="#000000">6 rows</text>
<polygon fill="#ffffff" stroke="transparent" points="575.5,-691.7 575.5,-710.7 615.5,-710.7 615.5,-691.7 575.5,-691.7"/>
<polygon fill="none" stroke="#000000" points="575.5,-691.7 575.5,-710.7 615.5,-710.7 615.5,-691.7 575.5,-691.7"/>
<text text-anchor="start" x="606.3862" y="-697.8" font-family="Helvetica,sans-Serif" font-size="11.00" fill="#000000"> &#160;</text>
</a>
</g>
</g>
<!-- ISOFORMS_REFERENCES&#45;&gt;ISOFORMS -->
<g id="edge12" class="edge">
<title>ISOFORMS_REFERENCES:w&#45;&gt;ISOFORMS:e</title>
<path fill="none" stroke="#000000" d="M419.0057,-718.8853C391.5137,-715.4904 381.2523,-701.7073 354,-681.7 332.4536,-665.8817 339.7296,-637.7 313,-637.7"/>
<polygon fill="#000000" stroke="#000000" points="425.5126,-719.251 433.2979,-723.2943 429.5063,-719.4755 433.5,-719.7 433.5,-719.7 433.5,-719.7 429.5063,-719.4755 433.7021,-716.1057 425.5126,-719.251 425.5126,-719.251"/>
<ellipse fill="none" stroke="#000000" cx="422.3177" cy="-719.0714" rx="3.2" ry="3.2"/>
</g>
<!-- STRUCTURES -->
<g id="node13" class="node">
<title>STRUCTURES</title>
<g id="a_node13"><a xlink:href="../../tables/STRUCTURES.html" xlink:title="STRUCTURES" target="_top">
<polygon fill="#ffffff" stroke="transparent" points="465.5,-610.2 465.5,-671.2 583.5,-671.2 583.5,-610.2 465.5,-610.2"/>
<polygon fill="#f5f5f5" stroke="transparent" points="465.5,-647.7 465.5,-670.7 583.5,-670.7 583.5,-647.7 465.5,-647.7"/>
<polygon fill="none" stroke="#000000" points="465.5,-647.7 465.5,-670.7 583.5,-670.7 583.5,-647.7 465.5,-647.7"/>
<text text-anchor="start" x="470.424" y="-656.8" font-family="Helvetica,sans-Serif" font-weight="bold" font-size="11.00" fill="#000000">STRUCTURES</text>
<text text-anchor="start" x="549.0219" y="-655.8" font-family="Helvetica,sans-Serif" font-size="11.00" fill="#000000">[table]</text>
<polygon fill="none" stroke="#000000" points="465.5,-628.7 465.5,-647.7 583.5,-647.7 583.5,-628.7 465.5,-628.7"/>
<text text-anchor="start" x="468.5" y="-634.8" font-family="Helvetica,sans-Serif" font-size="11.00" fill="#000000">...</text>
<polygon fill="#ffffff" stroke="transparent" points="465.5,-609.7 465.5,-628.7 494.5,-628.7 494.5,-609.7 465.5,-609.7"/>
<polygon fill="none" stroke="#000000" points="465.5,-609.7 465.5,-628.7 494.5,-628.7 494.5,-609.7 465.5,-609.7"/>
<text text-anchor="start" x="468.5" y="-615.8" font-family="Helvetica,sans-Serif" font-size="11.00" fill="#000000">&lt; 1</text>
<polygon fill="#ffffff" stroke="transparent" points="494.5,-609.7 494.5,-628.7 557.5,-628.7 557.5,-609.7 494.5,-609.7"/>
<polygon fill="none" stroke="#000000" points="494.5,-609.7 494.5,-628.7 557.5,-628.7 557.5,-609.7 494.5,-609.7"/>
<text text-anchor="start" x="500.7089" y="-615.8" font-family="Helvetica,sans-Serif" font-size="11.00" fill="#000000">5,581 rows</text>
<polygon fill="#ffffff" stroke="transparent" points="557.5,-609.7 557.5,-628.7 583.5,-628.7 583.5,-609.7 557.5,-609.7"/>
<polygon fill="none" stroke="#000000" points="557.5,-609.7 557.5,-628.7 583.5,-628.7 583.5,-609.7 557.5,-609.7"/>
<text text-anchor="start" x="564.9053" y="-615.8" font-family="Helvetica,sans-Serif" font-size="11.00" fill="#000000">2 &gt;</text>
</a>
</g>
</g>
<!-- STRUCTURES&#45;&gt;ISOFORMS -->
<g id="edge13" class="edge">
<title>STRUCTURES:w&#45;&gt;ISOFORMS:e</title>
<path fill="none" stroke="#000000" d="M450.8516,-637.7C394.8459,-637.7 375.615,-637.7 313,-637.7"/>
<polygon fill="#000000" stroke="#000000" points="457.5,-637.7001 465.5,-641.3 461.5,-637.7 465.5,-637.7 465.5,-637.7 465.5,-637.7 461.5,-637.7 465.5,-634.1 457.5,-637.7001 457.5,-637.7001"/>
<ellipse fill="none" stroke="#000000" cx="454.3" cy="-637.7001" rx="3.2" ry="3.2"/>
</g>
<!-- TARGET_FORMS_ISOFORM_REGIONS -->
<g id="node14" class="node">
<title>TARGET_FORMS_ISOFORM_REGIONS</title>
<g id="a_node14"><a xlink:href="../../tables/TARGET_FORMS_ISOFORM_REGIONS.html" xlink:title="TARGET_FORMS_ISOFORM_REGIONS" target="_top">
<polygon fill="#ffffff" stroke="transparent" points="736,-675.2 736,-802.2 999,-802.2 999,-675.2 736,-675.2"/>
<polygon fill="#f5f5f5" stroke="transparent" points="736.5,-778.7 736.5,-801.7 999.5,-801.7 999.5,-778.7 736.5,-778.7"/>
<polygon fill="none" stroke="#000000" points="736.5,-778.7 736.5,-801.7 999.5,-801.7 999.5,-778.7 736.5,-778.7"/>
<text text-anchor="start" x="741.5" y="-787.8" font-family="Helvetica,sans-Serif" font-weight="bold" font-size="11.00" fill="#000000">TARGET_FORMS_ISOFORM_REGIONS</text>
<text text-anchor="start" x="964.5437" y="-786.8" font-family="Helvetica,sans-Serif" font-size="11.00" fill="#000000">[table]</text>
<polygon fill="none" stroke="#000000" points="736.5,-756.7 736.5,-778.7 999.5,-778.7 999.5,-756.7 736.5,-756.7"/>
<image xlink:href="../../images/primaryKeys.png" width="11px" height="12px" preserveAspectRatio="xMinYMin meet" x="741.5" y="-773.7"/>
<text text-anchor="start" x="756.5" y="-763.8" font-family="Helvetica,sans-Serif" font-size="11.00" fill="#000000">ID</text>
<polygon fill="none" stroke="#000000" points="736.5,-734.7 736.5,-756.7 999.5,-756.7 999.5,-734.7 736.5,-734.7"/>
<image xlink:href="../../images/primaryKeys.png" width="11px" height="12px" preserveAspectRatio="xMinYMin meet" x="741.5" y="-751.7"/>
<text text-anchor="start" x="756.5" y="-741.8" font-family="Helvetica,sans-Serif" font-size="11.00" fill="#000000">TARGET_FORM_ID</text>
<polygon fill="none" stroke="#000000" points="736.5,-712.7 736.5,-734.7 999.5,-734.7 999.5,-712.7 736.5,-712.7"/>
<image xlink:href="../../images/primaryKeys.png" width="11px" height="12px" preserveAspectRatio="xMinYMin meet" x="741.5" y="-729.7"/>
<text text-anchor="start" x="756.5" y="-719.8" font-family="Helvetica,sans-Serif" font-size="11.00" fill="#000000">ISOFORM_REGION_ID</text>
<polygon fill="none" stroke="#000000" points="736.5,-693.7 736.5,-712.7 999.5,-712.7 999.5,-693.7 736.5,-693.7"/>
<text text-anchor="start" x="739.5" y="-699.8" font-family="Helvetica,sans-Serif" font-size="11.00" fill="#000000">...</text>
<polygon fill="#ffffff" stroke="transparent" points="736.5,-674.7 736.5,-693.7 847.5,-693.7 847.5,-674.7 736.5,-674.7"/>
<polygon fill="none" stroke="#000000" points="736.5,-674.7 736.5,-693.7 847.5,-693.7 847.5,-674.7 736.5,-674.7"/>
<text text-anchor="start" x="739.5" y="-680.8" font-family="Helvetica,sans-Serif" font-size="11.00" fill="#000000">&lt; 2</text>
<polygon fill="#ffffff" stroke="transparent" points="847.5,-674.7 847.5,-693.7 942.5,-693.7 942.5,-674.7 847.5,-674.7"/>
<polygon fill="none" stroke="#000000" points="847.5,-674.7 847.5,-693.7 942.5,-693.7 942.5,-674.7 847.5,-674.7"/>
<text text-anchor="start" x="894.8807" y="-680.8" font-family="Helvetica,sans-Serif" font-size="11.00" fill="#000000">153 rows</text>
<polygon fill="#ffffff" stroke="transparent" points="942.5,-674.7 942.5,-693.7 999.5,-693.7 999.5,-674.7 942.5,-674.7"/>
<polygon fill="none" stroke="#000000" points="942.5,-674.7 942.5,-693.7 999.5,-693.7 999.5,-674.7 942.5,-674.7"/>
<text text-anchor="start" x="990.3862" y="-680.8" font-family="Helvetica,sans-Serif" font-size="11.00" fill="#000000"> &#160;</text>
</a>
</g>
</g>
<!-- TARGET_FORMS_ISOFORM_REGIONS&#45;&gt;TARGET_FORMS -->
<g id="edge17" class="edge">
<title>TARGET_FORMS_ISOFORM_REGIONS:w&#45;&gt;TARGET_FORMS:e</title>
<path fill="none" stroke="#000000" d="M722.3254,-748.6305C697.5278,-761.8504 725.3839,-816.5516 695,-845.7 659.6386,-879.6235 640.5024,-883.7 591.5,-883.7"/>
<polygon fill="#000000" stroke="#000000" points="728.6657,-747.3198 737.2289,-749.2254 732.5828,-746.5099 736.5,-745.7 736.5,-745.7 736.5,-745.7 732.5828,-746.5099 735.7711,-742.1746 728.6657,-747.3198 728.6657,-747.3198"/>
<ellipse fill="none" stroke="#000000" cx="725.532" cy="-747.9677" rx="3.2" ry="3.2"/>
</g>
<!-- TARGET_FORMS_ISOFORM_REGIONS&#45;&gt;ISOFORM_REGIONS -->
<g id="edge16" class="edge">
<title>TARGET_FORMS_ISOFORM_REGIONS:w&#45;&gt;ISOFORM_REGIONS:e</title>
<path fill="none" stroke="#000000" d="M722.0937,-721.15C671.7696,-699.8782 759.0769,-552.7 685.5,-552.7"/>
<polygon fill="#000000" stroke="#000000" points="728.6225,-722.3056 735.8725,-727.2449 732.5612,-723.0028 736.5,-723.7 736.5,-723.7 736.5,-723.7 732.5612,-723.0028 737.1275,-720.1551 728.6225,-722.3056 728.6225,-722.3056"/>
<ellipse fill="none" stroke="#000000" cx="725.4714" cy="-721.7478" rx="3.2" ry="3.2"/>
</g>
</g>
</svg>
