<?xml version="1.0" encoding="UTF-8" standalone="no"?>
<!DOCTYPE svg PUBLIC "-//W3C//DTD SVG 1.1//EN"
 "http://www.w3.org/Graphics/SVG/1.1/DTD/svg11.dtd">
<!-- Generated by graphviz version 2.40.1 (20161225.0304)
 -->
<!-- Title: oneDegreeRelationshipsDiagram Pages: 1 -->
<svg width="591pt" height="341pt"
 viewBox="0.00 0.00 591.00 340.70" xmlns="http://www.w3.org/2000/svg" xmlns:xlink="http://www.w3.org/1999/xlink">
<g id="graph0" class="graph" transform="scale(1 1) rotate(0) translate(4 336.7)">
<title>oneDegreeRelationshipsDiagram</title>
<polygon fill="#ffffff" stroke="transparent" points="-4,4 -4,-336.7 587,-336.7 587,4 -4,4"/>
<text text-anchor="middle" x="72.4936" y="-7.3" font-family="Helvetica,sans-Serif" font-size="11.00" fill="#000000">Generated by SchemaSpy</text>
<!-- ISOFORMS_REFERENCES -->
<g id="node1" class="node">
<title>ISOFORMS_REFERENCES</title>
<g id="a_node1"><a xlink:href="../../tables/ISOFORMS_REFERENCES.html" xlink:title="ISOFORMS_REFERENCES" target="_top">
<polygon fill="#ffffff" stroke="transparent" points="215,-128.7 215,-328.7 575,-328.7 575,-128.7 215,-128.7"/>
<polygon fill="#f5f5f5" stroke="transparent" points="217,-303.7 217,-326.7 573,-326.7 573,-303.7 217,-303.7"/>
<polygon fill="none" stroke="#000000" points="217,-303.7 217,-326.7 573,-326.7 573,-303.7 217,-303.7"/>
<text text-anchor="start" x="222" y="-312.8" font-family="Helvetica,sans-Serif" font-weight="bold" font-size="11.00" fill="#000000">ISOFORMS_REFERENCES</text>
<text text-anchor="start" x="538.0437" y="-311.8" font-family="Helvetica,sans-Serif" font-size="11.00" fill="#000000">[table]</text>
<polygon fill="none" stroke="#000000" points="217,-281.7 217,-303.7 402,-303.7 402,-281.7 217,-281.7"/>
<image xlink:href="../../images/primaryKeys.png" width="11px" height="12px" preserveAspectRatio="xMinYMin meet" x="222" y="-298.7"/>
<text text-anchor="start" x="237" y="-288.8" font-family="Helvetica,sans-Serif" font-size="11.00" fill="#000000">ID</text>
<polygon fill="none" stroke="#000000" points="402,-281.7 402,-303.7 573,-303.7 573,-281.7 402,-281.7"/>
<text text-anchor="start" x="405" y="-289.4" font-family="Helvetica,sans-Serif" font-size="11.00" fill="#000000">number[19]</text>
<polygon fill="none" stroke="#000000" points="217,-259.7 217,-281.7 402,-281.7 402,-259.7 217,-259.7"/>
<text text-anchor="start" x="237" y="-266.8" font-family="Helvetica,sans-Serif" font-size="11.00" fill="#000000">CREATED_AT</text>
<polygon fill="none" stroke="#000000" points="402,-259.7 402,-281.7 573,-281.7 573,-259.7 402,-259.7"/>
<text text-anchor="start" x="404.9896" y="-267.4" font-family="Helvetica,sans-Serif" font-size="11.00" fill="#000000">timestamp(6) with time zone[13,6]</text>
<polygon fill="none" stroke="#000000" points="217,-237.7 217,-259.7 402,-259.7 402,-237.7 217,-237.7"/>
<text text-anchor="start" x="237" y="-244.8" font-family="Helvetica,sans-Serif" font-size="11.00" fill="#000000">CREATED_BY</text>
<polygon fill="none" stroke="#000000" points="402,-237.7 402,-259.7 573,-259.7 573,-237.7 402,-237.7"/>
<text text-anchor="start" x="405" y="-245.4" font-family="Helvetica,sans-Serif" font-size="11.00" fill="#000000">number[19]</text>
<polygon fill="none" stroke="#000000" points="217,-215.7 217,-237.7 402,-237.7 402,-215.7 217,-215.7"/>
<text text-anchor="start" x="237" y="-222.8" font-family="Helvetica,sans-Serif" font-size="11.00" fill="#000000">UPDATED_AT</text>
<polygon fill="none" stroke="#000000" points="402,-215.7 402,-237.7 573,-237.7 573,-215.7 402,-215.7"/>
<text text-anchor="start" x="404.9896" y="-223.4" font-family="Helvetica,sans-Serif" font-size="11.00" fill="#000000">timestamp(6) with time zone[13,6]</text>
<polygon fill="none" stroke="#000000" points="217,-193.7 217,-215.7 402,-215.7 402,-193.7 217,-193.7"/>
<text text-anchor="start" x="237" y="-200.8" font-family="Helvetica,sans-Serif" font-size="11.00" fill="#000000">UPDATED_BY</text>
<polygon fill="none" stroke="#000000" points="402,-193.7 402,-215.7 573,-215.7 573,-193.7 402,-193.7"/>
<text text-anchor="start" x="405" y="-201.4" font-family="Helvetica,sans-Serif" font-size="11.00" fill="#000000">number[19]</text>
<polygon fill="none" stroke="#000000" points="217,-171.7 217,-193.7 402,-193.7 402,-171.7 217,-171.7"/>
<image xlink:href="../../images/foreignKeys.png" width="11px" height="12px" preserveAspectRatio="xMinYMin meet" x="222" y="-188.7"/>
<text text-anchor="start" x="237" y="-178.8" font-family="Helvetica,sans-Serif" font-size="11.00" fill="#000000">ISOFORM_ID</text>
<polygon fill="none" stroke="#000000" points="402,-171.7 402,-193.7 573,-193.7 573,-171.7 402,-171.7"/>
<text text-anchor="start" x="405" y="-179.4" font-family="Helvetica,sans-Serif" font-size="11.00" fill="#000000">number[19]</text>
<polygon fill="none" stroke="#000000" points="217,-149.7 217,-171.7 402,-171.7 402,-149.7 217,-149.7"/>
<image xlink:href="../../images/foreignKeys.png" width="11px" height="12px" preserveAspectRatio="xMinYMin meet" x="222" y="-166.7"/>
<text text-anchor="start" x="237" y="-156.8" font-family="Helvetica,sans-Serif" font-size="11.00" fill="#000000">REFERENCE_ID</text>
<polygon fill="none" stroke="#000000" points="402,-149.7 402,-171.7 573,-171.7 573,-149.7 402,-149.7"/>
<text text-anchor="start" x="405" y="-157.4" font-family="Helvetica,sans-Serif" font-size="11.00" fill="#000000">number[19]</text>
<polygon fill="#ffffff" stroke="transparent" points="217,-130.7 217,-149.7 301,-149.7 301,-130.7 217,-130.7"/>
<polygon fill="none" stroke="#000000" points="217,-130.7 217,-149.7 301,-149.7 301,-130.7 217,-130.7"/>
<text text-anchor="start" x="220" y="-136.8" font-family="Helvetica,sans-Serif" font-size="11.00" fill="#000000">&lt; 2</text>
<polygon fill="#ffffff" stroke="transparent" points="301,-130.7 301,-149.7 402,-149.7 402,-130.7 301,-130.7"/>
<polygon fill="none" stroke="#000000" points="301,-130.7 301,-149.7 402,-149.7 402,-130.7 301,-130.7"/>
<text text-anchor="start" x="366.6105" y="-136.8" font-family="Helvetica,sans-Serif" font-size="11.00" fill="#000000">6 rows</text>
<polygon fill="#ffffff" stroke="transparent" points="402,-130.7 402,-149.7 573,-149.7 573,-130.7 402,-130.7"/>
<polygon fill="none" stroke="#000000" points="402,-130.7 402,-149.7 573,-149.7 573,-130.7 402,-130.7"/>
<text text-anchor="start" x="554.4053" y="-136.8" font-family="Helvetica,sans-Serif" font-size="11.00" fill="#000000">0 &gt;</text>
<polygon fill="none" stroke="#000000" stroke-width="2" points="216,-129.7 216,-327.7 574,-327.7 574,-129.7 216,-129.7"/>
</a>
</g>
</g>
<!-- ISOFORMS -->
<g id="node2" class="node">
<title>ISOFORMS</title>
<g id="a_node2"><a xlink:href="../../tables/ISOFORMS.html" xlink:title="ISOFORMS" target="_top">
<polygon fill="#ffffff" stroke="transparent" points="8,-164.2 8,-269.2 166,-269.2 166,-164.2 8,-164.2"/>
<polygon fill="#f5f5f5" stroke="transparent" points="8,-245.7 8,-268.7 166,-268.7 166,-245.7 8,-245.7"/>
<polygon fill="none" stroke="#000000" points="8,-245.7 8,-268.7 166,-268.7 166,-245.7 8,-245.7"/>
<text text-anchor="start" x="13" y="-254.8" font-family="Helvetica,sans-Serif" font-weight="bold" font-size="11.00" fill="#000000">ISOFORMS</text>
<text text-anchor="start" x="131.0437" y="-253.8" font-family="Helvetica,sans-Serif" font-size="11.00" fill="#000000">[table]</text>
<polygon fill="none" stroke="#000000" points="8,-223.7 8,-245.7 166,-245.7 166,-223.7 8,-223.7"/>
<image xlink:href="../../images/primaryKeys.png" width="11px" height="12px" preserveAspectRatio="xMinYMin meet" x="13" y="-240.7"/>
<text text-anchor="start" x="28" y="-230.8" font-family="Helvetica,sans-Serif" font-size="11.00" fill="#000000">ID</text>
<polygon fill="none" stroke="#000000" points="8,-201.7 8,-223.7 166,-223.7 166,-201.7 8,-201.7"/>
<image xlink:href="../../images/foreignKeys.png" width="11px" height="12px" preserveAspectRatio="xMinYMin meet" x="13" y="-218.7"/>
<text text-anchor="start" x="28" y="-208.8" font-family="Helvetica,sans-Serif" font-size="11.00" fill="#000000">TARGET_ID</text>
<polygon fill="none" stroke="#000000" points="8,-182.7 8,-201.7 166,-201.7 166,-182.7 8,-182.7"/>
<text text-anchor="start" x="11" y="-188.8" font-family="Helvetica,sans-Serif" font-size="11.00" fill="#000000">...</text>
<polygon fill="#ffffff" stroke="transparent" points="8,-163.7 8,-182.7 59,-182.7 59,-163.7 8,-163.7"/>
<polygon fill="none" stroke="#000000" points="8,-163.7 8,-182.7 59,-182.7 59,-163.7 8,-163.7"/>
<text text-anchor="start" x="11" y="-169.8" font-family="Helvetica,sans-Serif" font-size="11.00" fill="#000000">&lt; 1</text>
<polygon fill="#ffffff" stroke="transparent" points="59,-163.7 59,-182.7 124,-182.7 124,-163.7 59,-163.7"/>
<polygon fill="none" stroke="#000000" points="59,-163.7 59,-182.7 124,-182.7 124,-163.7 59,-163.7"/>
<text text-anchor="start" x="76.3807" y="-169.8" font-family="Helvetica,sans-Serif" font-size="11.00" fill="#000000">519 rows</text>
<polygon fill="#ffffff" stroke="transparent" points="124,-163.7 124,-182.7 166,-182.7 166,-163.7 124,-163.7"/>
<polygon fill="none" stroke="#000000" points="124,-163.7 124,-182.7 166,-182.7 166,-163.7 124,-163.7"/>
<text text-anchor="start" x="141.2904" y="-169.8" font-family="Helvetica,sans-Serif" font-size="11.00" fill="#000000">10 &gt;</text>
</a>
</g>
</g>
<!-- ISOFORMS_REFERENCES&#45;&gt;ISOFORMS -->
<g id="edge1" class="edge">
<title>ISOFORMS_REFERENCES:w&#45;&gt;ISOFORMS:e</title>
<path fill="none" stroke="#000000" d="M203.0468,-187.4988C188.161,-200.3719 192.3017,-234.7 166,-234.7"/>
<polygon fill="#000000" stroke="#000000" points="209.4349,-185.3018 218.1708,-186.1043 213.2175,-184.0009 217,-182.7 217,-182.7 217,-182.7 213.2175,-184.0009 215.8292,-179.2957 209.4349,-185.3018 209.4349,-185.3018"/>
<ellipse fill="none" stroke="#000000" cx="206.4089" cy="-186.3426" rx="3.2" ry="3.2"/>
</g>
<!-- REFERENCES -->
<g id="node3" class="node">
<title>REFERENCES</title>
<g id="a_node3"><a xlink:href="../../tables/REFERENCES.html" xlink:title="REFERENCES" target="_top">
<polygon fill="#ffffff" stroke="transparent" points="23,-38.2 23,-143.2 151,-143.2 151,-38.2 23,-38.2"/>
<polygon fill="#f5f5f5" stroke="transparent" points="23,-119.7 23,-142.7 151,-142.7 151,-119.7 23,-119.7"/>
<polygon fill="none" stroke="#000000" points="23,-119.7 23,-142.7 151,-142.7 151,-119.7 23,-119.7"/>
<text text-anchor="start" x="28" y="-128.8" font-family="Helvetica,sans-Serif" font-weight="bold" font-size="11.00" fill="#000000">REFERENCES</text>
<text text-anchor="start" x="116.0437" y="-127.8" font-family="Helvetica,sans-Serif" font-size="11.00" fill="#000000">[table]</text>
<polygon fill="none" stroke="#000000" points="23,-97.7 23,-119.7 151,-119.7 151,-97.7 23,-97.7"/>
<image xlink:href="../../images/primaryKeys.png" width="11px" height="12px" preserveAspectRatio="xMinYMin meet" x="28" y="-114.7"/>
<text text-anchor="start" x="43" y="-104.8" font-family="Helvetica,sans-Serif" font-size="11.00" fill="#000000">ID</text>
<polygon fill="none" stroke="#000000" points="23,-75.7 23,-97.7 151,-97.7 151,-75.7 23,-75.7"/>
<image xlink:href="../../images/foreignKeys.png" width="11px" height="12px" preserveAspectRatio="xMinYMin meet" x="28" y="-92.7"/>
<text text-anchor="start" x="43" y="-82.8" font-family="Helvetica,sans-Serif" font-size="11.00" fill="#000000">USER_ID</text>
<polygon fill="none" stroke="#000000" points="23,-56.7 23,-75.7 151,-75.7 151,-56.7 23,-56.7"/>
<text text-anchor="start" x="26" y="-62.8" font-family="Helvetica,sans-Serif" font-size="11.00" fill="#000000">...</text>
<polygon fill="#ffffff" stroke="transparent" points="23,-37.7 23,-56.7 54,-56.7 54,-37.7 23,-37.7"/>
<polygon fill="none" stroke="#000000" points="23,-37.7 23,-56.7 54,-56.7 54,-37.7 23,-37.7"/>
<text text-anchor="start" x="26" y="-43.8" font-family="Helvetica,sans-Serif" font-size="11.00" fill="#000000">&lt; 1</text>
<polygon fill="#ffffff" stroke="transparent" points="54,-37.7 54,-56.7 118,-56.7 118,-37.7 54,-37.7"/>
<polygon fill="none" stroke="#000000" points="54,-37.7 54,-56.7 118,-56.7 118,-37.7 54,-37.7"/>
<text text-anchor="start" x="61.2089" y="-43.8" font-family="Helvetica,sans-Serif" font-size="11.00" fill="#000000">2,900 rows</text>
<polygon fill="#ffffff" stroke="transparent" points="118,-37.7 118,-56.7 151,-56.7 151,-37.7 118,-37.7"/>
<polygon fill="none" stroke="#000000" points="118,-37.7 118,-56.7 151,-56.7 151,-37.7 118,-37.7"/>
<text text-anchor="start" x="126.2904" y="-43.8" font-family="Helvetica,sans-Serif" font-size="11.00" fill="#000000">20 &gt;</text>
</a>
</g>
</g>
<!-- ISOFORMS_REFERENCES&#45;&gt;REFERENCES -->
<g id="edge2" class="edge">
<title>ISOFORMS_REFERENCES:w&#45;&gt;REFERENCES:e</title>
<path fill="none" stroke="#000000" d="M202.8122,-157.4472C181.2348,-146.0631 182.6548,-108.7 151,-108.7"/>
<polygon fill="#000000" stroke="#000000" points="209.2023,-158.9122 216.1955,-164.209 213.1012,-159.8061 217,-160.7 217,-160.7 217,-160.7 213.1012,-159.8061 217.8045,-157.191 209.2023,-158.9122 209.2023,-158.9122"/>
<ellipse fill="none" stroke="#000000" cx="206.0832" cy="-158.1971" rx="3.2" ry="3.2"/>
</g>
</g>
</svg>
