<?xml version="1.0" encoding="UTF-8" standalone="no"?>
<!DOCTYPE svg PUBLIC "-//W3C//DTD SVG 1.1//EN"
 "http://www.w3.org/Graphics/SVG/1.1/DTD/svg11.dtd">
<!-- Generated by graphviz version 2.40.1 (20161225.0304)
 -->
<!-- Title: oneDegreeRelationshipsDiagram Pages: 1 -->
<svg width="573pt" height="363pt"
 viewBox="0.00 0.00 573.00 362.70" xmlns="http://www.w3.org/2000/svg" xmlns:xlink="http://www.w3.org/1999/xlink">
<g id="graph0" class="graph" transform="scale(1 1) rotate(0) translate(4 358.7)">
<title>oneDegreeRelationshipsDiagram</title>
<polygon fill="#ffffff" stroke="transparent" points="-4,4 -4,-358.7 569,-358.7 569,4 -4,4"/>
<text text-anchor="middle" x="72.4936" y="-7.3" font-family="Helvetica,sans-Serif" font-size="11.00" fill="#000000">Generated by SchemaSpy</text>
<!-- ISOFORM_COMMENTS -->
<g id="node1" class="node">
<title>ISOFORM_COMMENTS</title>
<g id="a_node1"><a xlink:href="../../tables/ISOFORM_COMMENTS.html" xlink:title="ISOFORM_COMMENTS" target="_top">
<polygon fill="#ffffff" stroke="transparent" points="215,-128.7 215,-350.7 557,-350.7 557,-128.7 215,-128.7"/>
<polygon fill="#f5f5f5" stroke="transparent" points="217,-325.7 217,-348.7 555,-348.7 555,-325.7 217,-325.7"/>
<polygon fill="none" stroke="#000000" points="217,-325.7 217,-348.7 555,-348.7 555,-325.7 217,-325.7"/>
<text text-anchor="start" x="222" y="-334.8" font-family="Helvetica,sans-Serif" font-weight="bold" font-size="11.00" fill="#000000">ISOFORM_COMMENTS</text>
<text text-anchor="start" x="520.0437" y="-333.8" font-family="Helvetica,sans-Serif" font-size="11.00" fill="#000000">[table]</text>
<polygon fill="none" stroke="#000000" points="217,-303.7 217,-325.7 384,-325.7 384,-303.7 217,-303.7"/>
<image xlink:href="../../images/primaryKeys.png" width="11px" height="12px" preserveAspectRatio="xMinYMin meet" x="222" y="-320.7"/>
<text text-anchor="start" x="237" y="-310.8" font-family="Helvetica,sans-Serif" font-size="11.00" fill="#000000">ID</text>
<polygon fill="none" stroke="#000000" points="384,-303.7 384,-325.7 555,-325.7 555,-303.7 384,-303.7"/>
<text text-anchor="start" x="387" y="-311.4" font-family="Helvetica,sans-Serif" font-size="11.00" fill="#000000">number[19]</text>
<polygon fill="none" stroke="#000000" points="217,-281.7 217,-303.7 384,-303.7 384,-281.7 217,-281.7"/>
<text text-anchor="start" x="237" y="-288.8" font-family="Helvetica,sans-Serif" font-size="11.00" fill="#000000">CREATED_AT</text>
<polygon fill="none" stroke="#000000" points="384,-281.7 384,-303.7 555,-303.7 555,-281.7 384,-281.7"/>
<text text-anchor="start" x="386.9896" y="-289.4" font-family="Helvetica,sans-Serif" font-size="11.00" fill="#000000">timestamp(6) with time zone[13,6]</text>
<polygon fill="none" stroke="#000000" points="217,-259.7 217,-281.7 384,-281.7 384,-259.7 217,-259.7"/>
<text text-anchor="start" x="237" y="-266.8" font-family="Helvetica,sans-Serif" font-size="11.00" fill="#000000">CREATED_BY</text>
<polygon fill="none" stroke="#000000" points="384,-259.7 384,-281.7 555,-281.7 555,-259.7 384,-259.7"/>
<text text-anchor="start" x="387" y="-267.4" font-family="Helvetica,sans-Serif" font-size="11.00" fill="#000000">number[19]</text>
<polygon fill="none" stroke="#000000" points="217,-237.7 217,-259.7 384,-259.7 384,-237.7 217,-237.7"/>
<text text-anchor="start" x="237" y="-244.8" font-family="Helvetica,sans-Serif" font-size="11.00" fill="#000000">UPDATED_AT</text>
<polygon fill="none" stroke="#000000" points="384,-237.7 384,-259.7 555,-259.7 555,-237.7 384,-237.7"/>
<text text-anchor="start" x="386.9896" y="-245.4" font-family="Helvetica,sans-Serif" font-size="11.00" fill="#000000">timestamp(6) with time zone[13,6]</text>
<polygon fill="none" stroke="#000000" points="217,-215.7 217,-237.7 384,-237.7 384,-215.7 217,-215.7"/>
<text text-anchor="start" x="237" y="-222.8" font-family="Helvetica,sans-Serif" font-size="11.00" fill="#000000">UPDATED_BY</text>
<polygon fill="none" stroke="#000000" points="384,-215.7 384,-237.7 555,-237.7 555,-215.7 384,-215.7"/>
<text text-anchor="start" x="387" y="-223.4" font-family="Helvetica,sans-Serif" font-size="11.00" fill="#000000">number[19]</text>
<polygon fill="none" stroke="#000000" points="217,-193.7 217,-215.7 384,-215.7 384,-193.7 217,-193.7"/>
<text text-anchor="start" x="237" y="-200.8" font-family="Helvetica,sans-Serif" font-size="11.00" fill="#000000">DESCRIPTION</text>
<polygon fill="none" stroke="#000000" points="384,-193.7 384,-215.7 555,-215.7 555,-193.7 384,-193.7"/>
<text text-anchor="start" x="387" y="-201.4" font-family="Helvetica,sans-Serif" font-size="11.00" fill="#000000">clob[4000]</text>
<polygon fill="none" stroke="#000000" points="217,-171.7 217,-193.7 384,-193.7 384,-171.7 217,-171.7"/>
<image xlink:href="../../images/foreignKeys.png" width="11px" height="12px" preserveAspectRatio="xMinYMin meet" x="222" y="-188.7"/>
<text text-anchor="start" x="237" y="-178.8" font-family="Helvetica,sans-Serif" font-size="11.00" fill="#000000">ISOFORM_ID</text>
<polygon fill="none" stroke="#000000" points="384,-171.7 384,-193.7 555,-193.7 555,-171.7 384,-171.7"/>
<text text-anchor="start" x="387" y="-179.4" font-family="Helvetica,sans-Serif" font-size="11.00" fill="#000000">number[19]</text>
<polygon fill="none" stroke="#000000" points="217,-149.7 217,-171.7 384,-171.7 384,-149.7 217,-149.7"/>
<image xlink:href="../../images/foreignKeys.png" width="11px" height="12px" preserveAspectRatio="xMinYMin meet" x="222" y="-166.7"/>
<text text-anchor="start" x="237" y="-156.8" font-family="Helvetica,sans-Serif" font-size="11.00" fill="#000000">USER_ID</text>
<polygon fill="none" stroke="#000000" points="384,-149.7 384,-171.7 555,-171.7 555,-149.7 384,-149.7"/>
<text text-anchor="start" x="387" y="-157.4" font-family="Helvetica,sans-Serif" font-size="11.00" fill="#000000">number[19]</text>
<polygon fill="#ffffff" stroke="transparent" points="217,-130.7 217,-149.7 292,-149.7 292,-130.7 217,-130.7"/>
<polygon fill="none" stroke="#000000" points="217,-130.7 217,-149.7 292,-149.7 292,-130.7 217,-130.7"/>
<text text-anchor="start" x="220" y="-136.8" font-family="Helvetica,sans-Serif" font-size="11.00" fill="#000000">&lt; 2</text>
<polygon fill="#ffffff" stroke="transparent" points="292,-130.7 292,-149.7 384,-149.7 384,-130.7 292,-130.7"/>
<polygon fill="none" stroke="#000000" points="292,-130.7 292,-149.7 384,-149.7 384,-130.7 292,-130.7"/>
<text text-anchor="start" x="348.6105" y="-136.8" font-family="Helvetica,sans-Serif" font-size="11.00" fill="#000000">8 rows</text>
<polygon fill="#ffffff" stroke="transparent" points="384,-130.7 384,-149.7 555,-149.7 555,-130.7 384,-130.7"/>
<polygon fill="none" stroke="#000000" points="384,-130.7 384,-149.7 555,-149.7 555,-130.7 384,-130.7"/>
<text text-anchor="start" x="536.4053" y="-136.8" font-family="Helvetica,sans-Serif" font-size="11.00" fill="#000000">0 &gt;</text>
<polygon fill="none" stroke="#000000" stroke-width="2" points="216,-129.7 216,-349.7 556,-349.7 556,-129.7 216,-129.7"/>
</a>
</g>
</g>
<!-- ISOFORMS -->
<g id="node2" class="node">
<title>ISOFORMS</title>
<g id="a_node2"><a xlink:href="../../tables/ISOFORMS.html" xlink:title="ISOFORMS" target="_top">
<polygon fill="#ffffff" stroke="transparent" points="8,-164.2 8,-269.2 166,-269.2 166,-164.2 8,-164.2"/>
<polygon fill="#f5f5f5" stroke="transparent" points="8,-245.7 8,-268.7 166,-268.7 166,-245.7 8,-245.7"/>
<polygon fill="none" stroke="#000000" points="8,-245.7 8,-268.7 166,-268.7 166,-245.7 8,-245.7"/>
<text text-anchor="start" x="13" y="-254.8" font-family="Helvetica,sans-Serif" font-weight="bold" font-size="11.00" fill="#000000">ISOFORMS</text>
<text text-anchor="start" x="131.0437" y="-253.8" font-family="Helvetica,sans-Serif" font-size="11.00" fill="#000000">[table]</text>
<polygon fill="none" stroke="#000000" points="8,-223.7 8,-245.7 166,-245.7 166,-223.7 8,-223.7"/>
<image xlink:href="../../images/primaryKeys.png" width="11px" height="12px" preserveAspectRatio="xMinYMin meet" x="13" y="-240.7"/>
<text text-anchor="start" x="28" y="-230.8" font-family="Helvetica,sans-Serif" font-size="11.00" fill="#000000">ID</text>
<polygon fill="none" stroke="#000000" points="8,-201.7 8,-223.7 166,-223.7 166,-201.7 8,-201.7"/>
<image xlink:href="../../images/foreignKeys.png" width="11px" height="12px" preserveAspectRatio="xMinYMin meet" x="13" y="-218.7"/>
<text text-anchor="start" x="28" y="-208.8" font-family="Helvetica,sans-Serif" font-size="11.00" fill="#000000">TARGET_ID</text>
<polygon fill="none" stroke="#000000" points="8,-182.7 8,-201.7 166,-201.7 166,-182.7 8,-182.7"/>
<text text-anchor="start" x="11" y="-188.8" font-family="Helvetica,sans-Serif" font-size="11.00" fill="#000000">...</text>
<polygon fill="#ffffff" stroke="transparent" points="8,-163.7 8,-182.7 59,-182.7 59,-163.7 8,-163.7"/>
<polygon fill="none" stroke="#000000" points="8,-163.7 8,-182.7 59,-182.7 59,-163.7 8,-163.7"/>
<text text-anchor="start" x="11" y="-169.8" font-family="Helvetica,sans-Serif" font-size="11.00" fill="#000000">&lt; 1</text>
<polygon fill="#ffffff" stroke="transparent" points="59,-163.7 59,-182.7 124,-182.7 124,-163.7 59,-163.7"/>
<polygon fill="none" stroke="#000000" points="59,-163.7 59,-182.7 124,-182.7 124,-163.7 59,-163.7"/>
<text text-anchor="start" x="76.3807" y="-169.8" font-family="Helvetica,sans-Serif" font-size="11.00" fill="#000000">519 rows</text>
<polygon fill="#ffffff" stroke="transparent" points="124,-163.7 124,-182.7 166,-182.7 166,-163.7 124,-163.7"/>
<polygon fill="none" stroke="#000000" points="124,-163.7 124,-182.7 166,-182.7 166,-163.7 124,-163.7"/>
<text text-anchor="start" x="141.2904" y="-169.8" font-family="Helvetica,sans-Serif" font-size="11.00" fill="#000000">10 &gt;</text>
</a>
</g>
</g>
<!-- ISOFORM_COMMENTS&#45;&gt;ISOFORMS -->
<g id="edge1" class="edge">
<title>ISOFORM_COMMENTS:w&#45;&gt;ISOFORMS:e</title>
<path fill="none" stroke="#000000" d="M203.0468,-187.4988C188.161,-200.3719 192.3017,-234.7 166,-234.7"/>
<polygon fill="#000000" stroke="#000000" points="209.4349,-185.3018 218.1708,-186.1043 213.2175,-184.0009 217,-182.7 217,-182.7 217,-182.7 213.2175,-184.0009 215.8292,-179.2957 209.4349,-185.3018 209.4349,-185.3018"/>
<ellipse fill="none" stroke="#000000" cx="206.4089" cy="-186.3426" rx="3.2" ry="3.2"/>
</g>
<!-- USERS -->
<g id="node3" class="node">
<title>USERS</title>
<g id="a_node3"><a xlink:href="../../tables/USERS.html" xlink:title="USERS" target="_top">
<polygon fill="#ffffff" stroke="transparent" points="30,-38.2 30,-143.2 144,-143.2 144,-38.2 30,-38.2"/>
<polygon fill="#f5f5f5" stroke="transparent" points="30,-119.7 30,-142.7 144,-142.7 144,-119.7 30,-119.7"/>
<polygon fill="none" stroke="#000000" points="30,-119.7 30,-142.7 144,-142.7 144,-119.7 30,-119.7"/>
<text text-anchor="start" x="35" y="-128.8" font-family="Helvetica,sans-Serif" font-weight="bold" font-size="11.00" fill="#000000">USERS</text>
<text text-anchor="start" x="109.0437" y="-127.8" font-family="Helvetica,sans-Serif" font-size="11.00" fill="#000000">[table]</text>
<polygon fill="none" stroke="#000000" points="30,-97.7 30,-119.7 144,-119.7 144,-97.7 30,-97.7"/>
<image xlink:href="../../images/primaryKeys.png" width="11px" height="12px" preserveAspectRatio="xMinYMin meet" x="35" y="-114.7"/>
<text text-anchor="start" x="50" y="-104.8" font-family="Helvetica,sans-Serif" font-size="11.00" fill="#000000">ID</text>
<polygon fill="none" stroke="#000000" points="30,-75.7 30,-97.7 144,-97.7 144,-75.7 30,-75.7"/>
<image xlink:href="../../images/primaryKeys.png" width="11px" height="12px" preserveAspectRatio="xMinYMin meet" x="35" y="-92.7"/>
<text text-anchor="start" x="50" y="-82.8" font-family="Helvetica,sans-Serif" font-size="11.00" fill="#000000">USERNAME</text>
<polygon fill="none" stroke="#000000" points="30,-56.7 30,-75.7 144,-75.7 144,-56.7 30,-56.7"/>
<text text-anchor="start" x="33" y="-62.8" font-family="Helvetica,sans-Serif" font-size="11.00" fill="#000000">...</text>
<polygon fill="#ffffff" stroke="transparent" points="30,-37.7 30,-56.7 60,-56.7 60,-37.7 30,-37.7"/>
<polygon fill="none" stroke="#000000" points="30,-37.7 30,-56.7 60,-56.7 60,-37.7 30,-37.7"/>
<text text-anchor="start" x="33" y="-43.8" font-family="Helvetica,sans-Serif" font-size="11.00" fill="#000000"> &#160;</text>
<polygon fill="#ffffff" stroke="transparent" points="60,-37.7 60,-56.7 113,-56.7 113,-37.7 60,-37.7"/>
<polygon fill="none" stroke="#000000" points="60,-37.7 60,-56.7 113,-56.7 113,-37.7 60,-37.7"/>
<text text-anchor="start" x="71.4956" y="-43.8" font-family="Helvetica,sans-Serif" font-size="11.00" fill="#000000">33 rows</text>
<polygon fill="#ffffff" stroke="transparent" points="113,-37.7 113,-56.7 144,-56.7 144,-37.7 113,-37.7"/>
<polygon fill="none" stroke="#000000" points="113,-37.7 113,-56.7 144,-56.7 144,-37.7 113,-37.7"/>
<text text-anchor="start" x="125.4053" y="-43.8" font-family="Helvetica,sans-Serif" font-size="11.00" fill="#000000">9 &gt;</text>
</a>
</g>
</g>
<!-- ISOFORM_COMMENTS&#45;&gt;USERS -->
<g id="edge2" class="edge">
<title>ISOFORM_COMMENTS:w&#45;&gt;USERS:e</title>
<path fill="none" stroke="#000000" d="M202.6951,-157.9043C178.1217,-147.1033 178.2325,-108.7 144,-108.7"/>
<polygon fill="#000000" stroke="#000000" points="209.1485,-159.1655 216.3095,-164.2332 213.0743,-159.9327 217,-160.7 217,-160.7 217,-160.7 213.0743,-159.9327 217.6905,-157.1668 209.1485,-159.1655 209.1485,-159.1655"/>
<ellipse fill="none" stroke="#000000" cx="206.008" cy="-158.5517" rx="3.2" ry="3.2"/>
</g>
</g>
</svg>
