<?xml version="1.0" encoding="UTF-8" standalone="no"?>
<!DOCTYPE svg PUBLIC "-//W3C//DTD SVG 1.1//EN"
 "http://www.w3.org/Graphics/SVG/1.1/DTD/svg11.dtd">
<!-- Generated by graphviz version 2.40.1 (20161225.0304)
 -->
<!-- Title: oneDegreeRelationshipsDiagram Pages: 1 -->
<svg width="850pt" height="427pt"
 viewBox="0.00 0.00 850.00 427.20" xmlns="http://www.w3.org/2000/svg" xmlns:xlink="http://www.w3.org/1999/xlink">
<g id="graph0" class="graph" transform="scale(1 1) rotate(0) translate(4 423.2)">
<title>oneDegreeRelationshipsDiagram</title>
<polygon fill="#ffffff" stroke="transparent" points="-4,4 -4,-423.2 846,-423.2 846,4 -4,4"/>
<text text-anchor="middle" x="72.4936" y="-7.3" font-family="Helvetica,sans-Serif" font-size="11.00" fill="#000000">Generated by SchemaSpy</text>
<!-- CLONE_FORMS_ISOFORM_MOTIFS -->
<g id="node1" class="node">
<title>CLONE_FORMS_ISOFORM_MOTIFS</title>
<g id="a_node1"><a xlink:href="../../tables/CLONE_FORMS_ISOFORM_MOTIFS.html" xlink:title="CLONE_FORMS_ISOFORM_MOTIFS" target="_top">
<polygon fill="#ffffff" stroke="transparent" points="584,-288.2 584,-415.2 830,-415.2 830,-288.2 584,-288.2"/>
<polygon fill="#f5f5f5" stroke="transparent" points="584,-391.7 584,-414.7 830,-414.7 830,-391.7 584,-391.7"/>
<polygon fill="none" stroke="#000000" points="584,-391.7 584,-414.7 830,-414.7 830,-391.7 584,-391.7"/>
<text text-anchor="start" x="589" y="-400.8" font-family="Helvetica,sans-Serif" font-weight="bold" font-size="11.00" fill="#000000">CLONE_FORMS_ISOFORM_MOTIFS</text>
<text text-anchor="start" x="795.0437" y="-399.8" font-family="Helvetica,sans-Serif" font-size="11.00" fill="#000000">[table]</text>
<polygon fill="none" stroke="#000000" points="584,-369.7 584,-391.7 830,-391.7 830,-369.7 584,-369.7"/>
<image xlink:href="../../images/primaryKeys.png" width="11px" height="12px" preserveAspectRatio="xMinYMin meet" x="589" y="-386.7"/>
<text text-anchor="start" x="604" y="-376.8" font-family="Helvetica,sans-Serif" font-size="11.00" fill="#000000">ID</text>
<polygon fill="none" stroke="#000000" points="584,-347.7 584,-369.7 830,-369.7 830,-347.7 584,-347.7"/>
<image xlink:href="../../images/primaryKeys.png" width="11px" height="12px" preserveAspectRatio="xMinYMin meet" x="589" y="-364.7"/>
<text text-anchor="start" x="604" y="-354.8" font-family="Helvetica,sans-Serif" font-size="11.00" fill="#000000">CLONE_FORM_ID</text>
<polygon fill="none" stroke="#000000" points="584,-325.7 584,-347.7 830,-347.7 830,-325.7 584,-325.7"/>
<image xlink:href="../../images/primaryKeys.png" width="11px" height="12px" preserveAspectRatio="xMinYMin meet" x="589" y="-342.7"/>
<text text-anchor="start" x="604" y="-332.8" font-family="Helvetica,sans-Serif" font-size="11.00" fill="#000000">ISOFORM_MOTIF_ID</text>
<polygon fill="none" stroke="#000000" points="584,-306.7 584,-325.7 830,-325.7 830,-306.7 584,-306.7"/>
<text text-anchor="start" x="587" y="-312.8" font-family="Helvetica,sans-Serif" font-size="11.00" fill="#000000">...</text>
<polygon fill="#ffffff" stroke="transparent" points="584,-287.7 584,-306.7 689,-306.7 689,-287.7 584,-287.7"/>
<polygon fill="none" stroke="#000000" points="584,-287.7 584,-306.7 689,-306.7 689,-287.7 584,-287.7"/>
<text text-anchor="start" x="587" y="-293.8" font-family="Helvetica,sans-Serif" font-size="11.00" fill="#000000">&lt; 2</text>
<polygon fill="#ffffff" stroke="transparent" points="689,-287.7 689,-306.7 775,-306.7 775,-287.7 689,-287.7"/>
<polygon fill="none" stroke="#000000" points="689,-287.7 689,-306.7 775,-306.7 775,-287.7 689,-287.7"/>
<text text-anchor="start" x="733.4956" y="-293.8" font-family="Helvetica,sans-Serif" font-size="11.00" fill="#000000">94 rows</text>
<polygon fill="#ffffff" stroke="transparent" points="775,-287.7 775,-306.7 830,-306.7 830,-287.7 775,-287.7"/>
<polygon fill="none" stroke="#000000" points="775,-287.7 775,-306.7 830,-306.7 830,-287.7 775,-287.7"/>
<text text-anchor="start" x="820.8862" y="-293.8" font-family="Helvetica,sans-Serif" font-size="11.00" fill="#000000"> &#160;</text>
</a>
</g>
</g>
<!-- ISOFORM_MOTIFS -->
<g id="node2" class="node">
<title>ISOFORM_MOTIFS</title>
<g id="a_node2"><a xlink:href="../../tables/ISOFORM_MOTIFS.html" xlink:title="ISOFORM_MOTIFS" target="_top">
<polygon fill="#ffffff" stroke="transparent" points="215,-76.7 215,-298.7 531,-298.7 531,-76.7 215,-76.7"/>
<polygon fill="#f5f5f5" stroke="transparent" points="217,-273.7 217,-296.7 529,-296.7 529,-273.7 217,-273.7"/>
<polygon fill="none" stroke="#000000" points="217,-273.7 217,-296.7 529,-296.7 529,-273.7 217,-273.7"/>
<text text-anchor="start" x="222" y="-282.8" font-family="Helvetica,sans-Serif" font-weight="bold" font-size="11.00" fill="#000000">ISOFORM_MOTIFS</text>
<text text-anchor="start" x="494.0437" y="-281.8" font-family="Helvetica,sans-Serif" font-size="11.00" fill="#000000">[table]</text>
<polygon fill="none" stroke="#000000" points="217,-251.7 217,-273.7 358,-273.7 358,-251.7 217,-251.7"/>
<image xlink:href="../../images/primaryKeys.png" width="11px" height="12px" preserveAspectRatio="xMinYMin meet" x="222" y="-268.7"/>
<text text-anchor="start" x="237" y="-258.8" font-family="Helvetica,sans-Serif" font-size="11.00" fill="#000000">ID</text>
<polygon fill="none" stroke="#000000" points="358,-251.7 358,-273.7 529,-273.7 529,-251.7 358,-251.7"/>
<text text-anchor="start" x="361" y="-259.4" font-family="Helvetica,sans-Serif" font-size="11.00" fill="#000000">number[19]</text>
<polygon fill="none" stroke="#000000" points="217,-229.7 217,-251.7 358,-251.7 358,-229.7 217,-229.7"/>
<text text-anchor="start" x="237" y="-236.8" font-family="Helvetica,sans-Serif" font-size="11.00" fill="#000000">CREATED_AT</text>
<polygon fill="none" stroke="#000000" points="358,-229.7 358,-251.7 529,-251.7 529,-229.7 358,-229.7"/>
<text text-anchor="start" x="360.9896" y="-237.4" font-family="Helvetica,sans-Serif" font-size="11.00" fill="#000000">timestamp(6) with time zone[13,6]</text>
<polygon fill="none" stroke="#000000" points="217,-207.7 217,-229.7 358,-229.7 358,-207.7 217,-207.7"/>
<text text-anchor="start" x="237" y="-214.8" font-family="Helvetica,sans-Serif" font-size="11.00" fill="#000000">CREATED_BY</text>
<polygon fill="none" stroke="#000000" points="358,-207.7 358,-229.7 529,-229.7 529,-207.7 358,-207.7"/>
<text text-anchor="start" x="361" y="-215.4" font-family="Helvetica,sans-Serif" font-size="11.00" fill="#000000">number[19]</text>
<polygon fill="none" stroke="#000000" points="217,-185.7 217,-207.7 358,-207.7 358,-185.7 217,-185.7"/>
<text text-anchor="start" x="237" y="-192.8" font-family="Helvetica,sans-Serif" font-size="11.00" fill="#000000">UPDATED_AT</text>
<polygon fill="none" stroke="#000000" points="358,-185.7 358,-207.7 529,-207.7 529,-185.7 358,-185.7"/>
<text text-anchor="start" x="360.9896" y="-193.4" font-family="Helvetica,sans-Serif" font-size="11.00" fill="#000000">timestamp(6) with time zone[13,6]</text>
<polygon fill="none" stroke="#000000" points="217,-163.7 217,-185.7 358,-185.7 358,-163.7 217,-163.7"/>
<text text-anchor="start" x="237" y="-170.8" font-family="Helvetica,sans-Serif" font-size="11.00" fill="#000000">UPDATED_BY</text>
<polygon fill="none" stroke="#000000" points="358,-163.7 358,-185.7 529,-185.7 529,-163.7 358,-163.7"/>
<text text-anchor="start" x="361" y="-171.4" font-family="Helvetica,sans-Serif" font-size="11.00" fill="#000000">number[19]</text>
<polygon fill="none" stroke="#000000" points="217,-141.7 217,-163.7 358,-163.7 358,-141.7 217,-141.7"/>
<text text-anchor="start" x="237" y="-148.8" font-family="Helvetica,sans-Serif" font-size="11.00" fill="#000000">COLOR</text>
<polygon fill="none" stroke="#000000" points="358,-141.7 358,-163.7 529,-163.7 529,-141.7 358,-141.7"/>
<text text-anchor="start" x="361" y="-149.4" font-family="Helvetica,sans-Serif" font-size="11.00" fill="#000000">varchar2[255]</text>
<polygon fill="none" stroke="#000000" points="217,-119.7 217,-141.7 358,-141.7 358,-119.7 217,-119.7"/>
<text text-anchor="start" x="237" y="-126.8" font-family="Helvetica,sans-Serif" font-size="11.00" fill="#000000">TITLE</text>
<polygon fill="none" stroke="#000000" points="358,-119.7 358,-141.7 529,-141.7 529,-119.7 358,-119.7"/>
<text text-anchor="start" x="361" y="-127.4" font-family="Helvetica,sans-Serif" font-size="11.00" fill="#000000">varchar2[255]</text>
<polygon fill="none" stroke="#000000" points="217,-97.7 217,-119.7 358,-119.7 358,-97.7 217,-97.7"/>
<image xlink:href="../../images/foreignKeys.png" width="11px" height="12px" preserveAspectRatio="xMinYMin meet" x="222" y="-114.7"/>
<text text-anchor="start" x="237" y="-104.8" font-family="Helvetica,sans-Serif" font-size="11.00" fill="#000000">ISOFORM_ID</text>
<polygon fill="none" stroke="#000000" points="358,-97.7 358,-119.7 529,-119.7 529,-97.7 358,-97.7"/>
<text text-anchor="start" x="361" y="-105.4" font-family="Helvetica,sans-Serif" font-size="11.00" fill="#000000">number[19]</text>
<polygon fill="#ffffff" stroke="transparent" points="217,-78.7 217,-97.7 273,-97.7 273,-78.7 217,-78.7"/>
<polygon fill="none" stroke="#000000" points="217,-78.7 217,-97.7 273,-97.7 273,-78.7 217,-78.7"/>
<text text-anchor="start" x="220" y="-84.8" font-family="Helvetica,sans-Serif" font-size="11.00" fill="#000000">&lt; 1</text>
<polygon fill="#ffffff" stroke="transparent" points="273,-78.7 273,-97.7 358,-97.7 358,-78.7 273,-78.7"/>
<polygon fill="none" stroke="#000000" points="273,-78.7 273,-97.7 358,-97.7 358,-78.7 273,-78.7"/>
<text text-anchor="start" x="310.3807" y="-84.8" font-family="Helvetica,sans-Serif" font-size="11.00" fill="#000000">183 rows</text>
<polygon fill="#ffffff" stroke="transparent" points="358,-78.7 358,-97.7 529,-97.7 529,-78.7 358,-78.7"/>
<polygon fill="none" stroke="#000000" points="358,-78.7 358,-97.7 529,-97.7 529,-78.7 358,-78.7"/>
<text text-anchor="start" x="510.4053" y="-84.8" font-family="Helvetica,sans-Serif" font-size="11.00" fill="#000000">2 &gt;</text>
<polygon fill="none" stroke="#000000" stroke-width="2" points="216,-77.7 216,-297.7 530,-297.7 530,-77.7 216,-77.7"/>
</a>
</g>
</g>
<!-- CLONE_FORMS_ISOFORM_MOTIFS&#45;&gt;ISOFORM_MOTIFS -->
<g id="edge1" class="edge">
<title>CLONE_FORMS_ISOFORM_MOTIFS:w&#45;&gt;ISOFORM_MOTIFS:e</title>
<path fill="none" stroke="#000000" d="M570.0792,-332.5094C549.3948,-316.8552 564.0555,-262.7 529,-262.7"/>
<polygon fill="#000000" stroke="#000000" points="576.3396,-334.3939 582.9623,-340.1472 580.1698,-335.547 584,-336.7 584,-336.7 584,-336.7 580.1698,-335.547 585.0377,-333.2528 576.3396,-334.3939 576.3396,-334.3939"/>
<ellipse fill="none" stroke="#000000" cx="573.2754" cy="-333.4715" rx="3.2" ry="3.2"/>
</g>
<!-- ISOFORMS -->
<g id="node3" class="node">
<title>ISOFORMS</title>
<g id="a_node3"><a xlink:href="../../tables/ISOFORMS.html" xlink:title="ISOFORMS" target="_top">
<polygon fill="#ffffff" stroke="transparent" points="8,-38.2 8,-143.2 166,-143.2 166,-38.2 8,-38.2"/>
<polygon fill="#f5f5f5" stroke="transparent" points="8,-119.7 8,-142.7 166,-142.7 166,-119.7 8,-119.7"/>
<polygon fill="none" stroke="#000000" points="8,-119.7 8,-142.7 166,-142.7 166,-119.7 8,-119.7"/>
<text text-anchor="start" x="13" y="-128.8" font-family="Helvetica,sans-Serif" font-weight="bold" font-size="11.00" fill="#000000">ISOFORMS</text>
<text text-anchor="start" x="131.0437" y="-127.8" font-family="Helvetica,sans-Serif" font-size="11.00" fill="#000000">[table]</text>
<polygon fill="none" stroke="#000000" points="8,-97.7 8,-119.7 166,-119.7 166,-97.7 8,-97.7"/>
<image xlink:href="../../images/primaryKeys.png" width="11px" height="12px" preserveAspectRatio="xMinYMin meet" x="13" y="-114.7"/>
<text text-anchor="start" x="28" y="-104.8" font-family="Helvetica,sans-Serif" font-size="11.00" fill="#000000">ID</text>
<polygon fill="none" stroke="#000000" points="8,-75.7 8,-97.7 166,-97.7 166,-75.7 8,-75.7"/>
<image xlink:href="../../images/foreignKeys.png" width="11px" height="12px" preserveAspectRatio="xMinYMin meet" x="13" y="-92.7"/>
<text text-anchor="start" x="28" y="-82.8" font-family="Helvetica,sans-Serif" font-size="11.00" fill="#000000">TARGET_ID</text>
<polygon fill="none" stroke="#000000" points="8,-56.7 8,-75.7 166,-75.7 166,-56.7 8,-56.7"/>
<text text-anchor="start" x="11" y="-62.8" font-family="Helvetica,sans-Serif" font-size="11.00" fill="#000000">...</text>
<polygon fill="#ffffff" stroke="transparent" points="8,-37.7 8,-56.7 59,-56.7 59,-37.7 8,-37.7"/>
<polygon fill="none" stroke="#000000" points="8,-37.7 8,-56.7 59,-56.7 59,-37.7 8,-37.7"/>
<text text-anchor="start" x="11" y="-43.8" font-family="Helvetica,sans-Serif" font-size="11.00" fill="#000000">&lt; 1</text>
<polygon fill="#ffffff" stroke="transparent" points="59,-37.7 59,-56.7 124,-56.7 124,-37.7 59,-37.7"/>
<polygon fill="none" stroke="#000000" points="59,-37.7 59,-56.7 124,-56.7 124,-37.7 59,-37.7"/>
<text text-anchor="start" x="76.3807" y="-43.8" font-family="Helvetica,sans-Serif" font-size="11.00" fill="#000000">519 rows</text>
<polygon fill="#ffffff" stroke="transparent" points="124,-37.7 124,-56.7 166,-56.7 166,-37.7 124,-37.7"/>
<polygon fill="none" stroke="#000000" points="124,-37.7 124,-56.7 166,-56.7 166,-37.7 124,-37.7"/>
<text text-anchor="start" x="141.2904" y="-43.8" font-family="Helvetica,sans-Serif" font-size="11.00" fill="#000000">10 &gt;</text>
</a>
</g>
</g>
<!-- ISOFORM_MOTIFS&#45;&gt;ISOFORMS -->
<g id="edge2" class="edge">
<title>ISOFORM_MOTIFS:w&#45;&gt;ISOFORMS:e</title>
<path fill="none" stroke="#000000" d="M202.276,-108.7C190.2815,-108.7 182.8229,-108.7 166,-108.7"/>
<polygon fill="#000000" stroke="#000000" points="209,-108.7001 217,-112.3 213,-108.7 217,-108.7 217,-108.7 217,-108.7 213,-108.7 217,-105.1 209,-108.7001 209,-108.7001"/>
<ellipse fill="none" stroke="#000000" cx="205.8" cy="-108.7001" rx="3.2" ry="3.2"/>
</g>
<!-- TARGET_FORMS_ISOFORM_MOTIFS -->
<g id="node4" class="node">
<title>TARGET_FORMS_ISOFORM_MOTIFS</title>
<g id="a_node4"><a xlink:href="../../tables/TARGET_FORMS_ISOFORM_MOTIFS.html" xlink:title="TARGET_FORMS_ISOFORM_MOTIFS" target="_top">
<polygon fill="#ffffff" stroke="transparent" points="580,-140.2 580,-267.2 834,-267.2 834,-140.2 580,-140.2"/>
<polygon fill="#f5f5f5" stroke="transparent" points="580,-243.7 580,-266.7 834,-266.7 834,-243.7 580,-243.7"/>
<polygon fill="none" stroke="#000000" points="580,-243.7 580,-266.7 834,-266.7 834,-243.7 580,-243.7"/>
<text text-anchor="start" x="585" y="-252.8" font-family="Helvetica,sans-Serif" font-weight="bold" font-size="11.00" fill="#000000">TARGET_FORMS_ISOFORM_MOTIFS</text>
<text text-anchor="start" x="799.0437" y="-251.8" font-family="Helvetica,sans-Serif" font-size="11.00" fill="#000000">[table]</text>
<polygon fill="none" stroke="#000000" points="580,-221.7 580,-243.7 834,-243.7 834,-221.7 580,-221.7"/>
<image xlink:href="../../images/primaryKeys.png" width="11px" height="12px" preserveAspectRatio="xMinYMin meet" x="585" y="-238.7"/>
<text text-anchor="start" x="600" y="-228.8" font-family="Helvetica,sans-Serif" font-size="11.00" fill="#000000">ID</text>
<polygon fill="none" stroke="#000000" points="580,-199.7 580,-221.7 834,-221.7 834,-199.7 580,-199.7"/>
<image xlink:href="../../images/primaryKeys.png" width="11px" height="12px" preserveAspectRatio="xMinYMin meet" x="585" y="-216.7"/>
<text text-anchor="start" x="600" y="-206.8" font-family="Helvetica,sans-Serif" font-size="11.00" fill="#000000">TARGET_FORM_ID</text>
<polygon fill="none" stroke="#000000" points="580,-177.7 580,-199.7 834,-199.7 834,-177.7 580,-177.7"/>
<image xlink:href="../../images/primaryKeys.png" width="11px" height="12px" preserveAspectRatio="xMinYMin meet" x="585" y="-194.7"/>
<text text-anchor="start" x="600" y="-184.8" font-family="Helvetica,sans-Serif" font-size="11.00" fill="#000000">ISOFORM_MOTIF_ID</text>
<polygon fill="none" stroke="#000000" points="580,-158.7 580,-177.7 834,-177.7 834,-158.7 580,-158.7"/>
<text text-anchor="start" x="583" y="-164.8" font-family="Helvetica,sans-Serif" font-size="11.00" fill="#000000">...</text>
<polygon fill="#ffffff" stroke="transparent" points="580,-139.7 580,-158.7 686,-158.7 686,-139.7 580,-139.7"/>
<polygon fill="none" stroke="#000000" points="580,-139.7 580,-158.7 686,-158.7 686,-139.7 580,-139.7"/>
<text text-anchor="start" x="583" y="-145.8" font-family="Helvetica,sans-Serif" font-size="11.00" fill="#000000">&lt; 2</text>
<polygon fill="#ffffff" stroke="transparent" points="686,-139.7 686,-158.7 779,-158.7 779,-139.7 686,-139.7"/>
<polygon fill="none" stroke="#000000" points="686,-139.7 686,-158.7 779,-158.7 779,-139.7 686,-139.7"/>
<text text-anchor="start" x="731.3807" y="-145.8" font-family="Helvetica,sans-Serif" font-size="11.00" fill="#000000">221 rows</text>
<polygon fill="#ffffff" stroke="transparent" points="779,-139.7 779,-158.7 834,-158.7 834,-139.7 779,-139.7"/>
<polygon fill="none" stroke="#000000" points="779,-139.7 779,-158.7 834,-158.7 834,-139.7 779,-139.7"/>
<text text-anchor="start" x="824.8862" y="-145.8" font-family="Helvetica,sans-Serif" font-size="11.00" fill="#000000"> &#160;</text>
</a>
</g>
</g>
<!-- TARGET_FORMS_ISOFORM_MOTIFS&#45;&gt;ISOFORM_MOTIFS -->
<g id="edge3" class="edge">
<title>TARGET_FORMS_ISOFORM_MOTIFS:w&#45;&gt;ISOFORM_MOTIFS:e</title>
<path fill="none" stroke="#000000" d="M566.0503,-193.329C547.2607,-209.5294 562.8581,-262.7 529,-262.7"/>
<polygon fill="#000000" stroke="#000000" points="572.4071,-191.2196 581.1338,-192.1168 576.2036,-189.9598 580,-188.7 580,-188.7 580,-188.7 576.2036,-189.9598 578.8662,-185.2832 572.4071,-191.2196 572.4071,-191.2196"/>
<ellipse fill="none" stroke="#000000" cx="569.37" cy="-192.2275" rx="3.2" ry="3.2"/>
</g>
</g>
</svg>
