<?xml version="1.0" encoding="UTF-8" standalone="no"?>
<!DOCTYPE svg PUBLIC "-//W3C//DTD SVG 1.1//EN"
 "http://www.w3.org/Graphics/SVG/1.1/DTD/svg11.dtd">
<!-- Generated by graphviz version 2.40.1 (20161225.0304)
 -->
<!-- Title: twoDegreesRelationshipsDiagram Pages: 1 -->
<svg width="1292pt" height="986pt"
 viewBox="0.00 0.00 1292.00 986.14" xmlns="http://www.w3.org/2000/svg" xmlns:xlink="http://www.w3.org/1999/xlink">
<g id="graph0" class="graph" transform="scale(1 1) rotate(0) translate(4 982.138)">
<title>twoDegreesRelationshipsDiagram</title>
<polygon fill="#ffffff" stroke="transparent" points="-4,4 -4,-982.138 1288,-982.138 1288,4 -4,4"/>
<text text-anchor="middle" x="72.4936" y="-7.3" font-family="Helvetica,sans-Serif" font-size="11.00" fill="#000000">Generated by SchemaSpy</text>
<!-- CLONE_FORMS -->
<g id="node1" class="node">
<title>CLONE_FORMS</title>
<g id="a_node1"><a xlink:href="../../tables/CLONE_FORMS.html" xlink:title="CLONE_FORMS" target="_top">
<polygon fill="#ffffff" stroke="transparent" points="791,-856.2 791,-917.2 917,-917.2 917,-856.2 791,-856.2"/>
<polygon fill="#f5f5f5" stroke="transparent" points="791,-893.7 791,-916.7 917,-916.7 917,-893.7 791,-893.7"/>
<polygon fill="none" stroke="#000000" points="791,-893.7 791,-916.7 917,-916.7 917,-893.7 791,-893.7"/>
<text text-anchor="start" x="795.6401" y="-902.8" font-family="Helvetica,sans-Serif" font-weight="bold" font-size="11.00" fill="#000000">CLONE_FORMS</text>
<text text-anchor="start" x="882.5219" y="-901.8" font-family="Helvetica,sans-Serif" font-size="11.00" fill="#000000">[table]</text>
<polygon fill="none" stroke="#000000" points="791,-874.7 791,-893.7 917,-893.7 917,-874.7 791,-874.7"/>
<text text-anchor="start" x="794" y="-880.8" font-family="Helvetica,sans-Serif" font-size="11.00" fill="#000000">...</text>
<polygon fill="#ffffff" stroke="transparent" points="791,-855.7 791,-874.7 826,-874.7 826,-855.7 791,-855.7"/>
<polygon fill="none" stroke="#000000" points="791,-855.7 791,-874.7 826,-874.7 826,-855.7 791,-855.7"/>
<text text-anchor="start" x="794" y="-861.8" font-family="Helvetica,sans-Serif" font-size="11.00" fill="#000000">&lt; 4</text>
<polygon fill="#ffffff" stroke="transparent" points="826,-855.7 826,-874.7 883,-874.7 883,-855.7 826,-855.7"/>
<polygon fill="none" stroke="#000000" points="826,-855.7 826,-874.7 883,-874.7 883,-855.7 826,-855.7"/>
<text text-anchor="start" x="835.3807" y="-861.8" font-family="Helvetica,sans-Serif" font-size="11.00" fill="#000000">467 rows</text>
<polygon fill="#ffffff" stroke="transparent" points="883,-855.7 883,-874.7 917,-874.7 917,-855.7 883,-855.7"/>
<polygon fill="none" stroke="#000000" points="883,-855.7 883,-874.7 917,-874.7 917,-855.7 883,-855.7"/>
<text text-anchor="start" x="892.2904" y="-861.8" font-family="Helvetica,sans-Serif" font-size="11.00" fill="#000000">14 &gt;</text>
</a>
</g>
</g>
<!-- ISOFORMS -->
<g id="node2" class="node">
<title>ISOFORMS</title>
<g id="a_node2"><a xlink:href="../../tables/ISOFORMS.html" xlink:title="ISOFORMS" target="_top">
<polygon fill="#ffffff" stroke="transparent" points="155,-567.2 155,-672.2 313,-672.2 313,-567.2 155,-567.2"/>
<polygon fill="#f5f5f5" stroke="transparent" points="155,-648.7 155,-671.7 313,-671.7 313,-648.7 155,-648.7"/>
<polygon fill="none" stroke="#000000" points="155,-648.7 155,-671.7 313,-671.7 313,-648.7 155,-648.7"/>
<text text-anchor="start" x="160" y="-657.8" font-family="Helvetica,sans-Serif" font-weight="bold" font-size="11.00" fill="#000000">ISOFORMS</text>
<text text-anchor="start" x="278.0437" y="-656.8" font-family="Helvetica,sans-Serif" font-size="11.00" fill="#000000">[table]</text>
<polygon fill="none" stroke="#000000" points="155,-626.7 155,-648.7 313,-648.7 313,-626.7 155,-626.7"/>
<image xlink:href="../../images/primaryKeys.png" width="11px" height="12px" preserveAspectRatio="xMinYMin meet" x="160" y="-643.7"/>
<text text-anchor="start" x="175" y="-633.8" font-family="Helvetica,sans-Serif" font-size="11.00" fill="#000000">ID</text>
<polygon fill="none" stroke="#000000" points="155,-604.7 155,-626.7 313,-626.7 313,-604.7 155,-604.7"/>
<image xlink:href="../../images/foreignKeys.png" width="11px" height="12px" preserveAspectRatio="xMinYMin meet" x="160" y="-621.7"/>
<text text-anchor="start" x="175" y="-611.8" font-family="Helvetica,sans-Serif" font-size="11.00" fill="#000000">TARGET_ID</text>
<polygon fill="none" stroke="#000000" points="155,-585.7 155,-604.7 313,-604.7 313,-585.7 155,-585.7"/>
<text text-anchor="start" x="158" y="-591.8" font-family="Helvetica,sans-Serif" font-size="11.00" fill="#000000">...</text>
<polygon fill="#ffffff" stroke="transparent" points="155,-566.7 155,-585.7 206,-585.7 206,-566.7 155,-566.7"/>
<polygon fill="none" stroke="#000000" points="155,-566.7 155,-585.7 206,-585.7 206,-566.7 155,-566.7"/>
<text text-anchor="start" x="158" y="-572.8" font-family="Helvetica,sans-Serif" font-size="11.00" fill="#000000">&lt; 1</text>
<polygon fill="#ffffff" stroke="transparent" points="206,-566.7 206,-585.7 271,-585.7 271,-566.7 206,-566.7"/>
<polygon fill="none" stroke="#000000" points="206,-566.7 206,-585.7 271,-585.7 271,-566.7 206,-566.7"/>
<text text-anchor="start" x="223.3807" y="-572.8" font-family="Helvetica,sans-Serif" font-size="11.00" fill="#000000">519 rows</text>
<polygon fill="#ffffff" stroke="transparent" points="271,-566.7 271,-585.7 313,-585.7 313,-566.7 271,-566.7"/>
<polygon fill="none" stroke="#000000" points="271,-566.7 271,-585.7 313,-585.7 313,-566.7 271,-566.7"/>
<text text-anchor="start" x="288.2904" y="-572.8" font-family="Helvetica,sans-Serif" font-size="11.00" fill="#000000">10 &gt;</text>
</a>
</g>
</g>
<!-- CLONE_FORMS&#45;&gt;ISOFORMS -->
<g id="edge1" class="edge">
<title>CLONE_FORMS:w&#45;&gt;ISOFORMS:e</title>
<path fill="none" stroke="#000000" d="M776.4125,-884.7674C738.8915,-890.6099 730.3739,-918.7784 686,-927.7 541.3393,-956.7847 465.4014,-1024.4594 354,-927.7 304.8619,-885.0204 378.0853,-637.7 313,-637.7"/>
<polygon fill="#000000" stroke="#000000" points="783.0213,-884.2838 791.2627,-887.2904 787.0107,-883.9919 791,-883.7 791,-883.7 791,-883.7 787.0107,-883.9919 790.7373,-880.1096 783.0213,-884.2838 783.0213,-884.2838"/>
<ellipse fill="none" stroke="#000000" cx="779.8299" cy="-884.5174" rx="3.2" ry="3.2"/>
</g>
<!-- TARGET_FORMS -->
<g id="node3" class="node">
<title>TARGET_FORMS</title>
<g id="a_node3"><a xlink:href="../../tables/TARGET_FORMS.html" xlink:title="TARGET_FORMS" target="_top">
<polygon fill="#ffffff" stroke="transparent" points="453.5,-856.2 453.5,-917.2 586.5,-917.2 586.5,-856.2 453.5,-856.2"/>
<polygon fill="#f5f5f5" stroke="transparent" points="454,-893.7 454,-916.7 587,-916.7 587,-893.7 454,-893.7"/>
<polygon fill="none" stroke="#000000" points="454,-893.7 454,-916.7 587,-916.7 587,-893.7 454,-893.7"/>
<text text-anchor="start" x="458.7801" y="-902.8" font-family="Helvetica,sans-Serif" font-weight="bold" font-size="11.00" fill="#000000">TARGET_FORMS</text>
<text text-anchor="start" x="552.5219" y="-901.8" font-family="Helvetica,sans-Serif" font-size="11.00" fill="#000000">[table]</text>
<polygon fill="none" stroke="#000000" points="454,-874.7 454,-893.7 587,-893.7 587,-874.7 454,-874.7"/>
<text text-anchor="start" x="457" y="-880.8" font-family="Helvetica,sans-Serif" font-size="11.00" fill="#000000">...</text>
<polygon fill="#ffffff" stroke="transparent" points="454,-855.7 454,-874.7 492,-874.7 492,-855.7 454,-855.7"/>
<polygon fill="none" stroke="#000000" points="454,-855.7 454,-874.7 492,-874.7 492,-855.7 454,-855.7"/>
<text text-anchor="start" x="457" y="-861.8" font-family="Helvetica,sans-Serif" font-size="11.00" fill="#000000">&lt; 5</text>
<polygon fill="#ffffff" stroke="transparent" points="492,-855.7 492,-874.7 551,-874.7 551,-855.7 492,-855.7"/>
<polygon fill="none" stroke="#000000" points="492,-855.7 492,-874.7 551,-874.7 551,-855.7 492,-855.7"/>
<text text-anchor="start" x="503.3807" y="-861.8" font-family="Helvetica,sans-Serif" font-size="11.00" fill="#000000">541 rows</text>
<polygon fill="#ffffff" stroke="transparent" points="551,-855.7 551,-874.7 587,-874.7 587,-855.7 551,-855.7"/>
<polygon fill="none" stroke="#000000" points="551,-855.7 551,-874.7 587,-874.7 587,-855.7 551,-855.7"/>
<text text-anchor="start" x="562.2904" y="-861.8" font-family="Helvetica,sans-Serif" font-size="11.00" fill="#000000">18 &gt;</text>
</a>
</g>
</g>
<!-- CLONE_FORMS&#45;&gt;TARGET_FORMS -->
<g id="edge2" class="edge">
<title>CLONE_FORMS:w&#45;&gt;TARGET_FORMS:e</title>
<path fill="none" stroke="#000000" d="M776.2235,-883.7C697.5475,-883.7 672.5313,-883.7 587,-883.7"/>
<polygon fill="#000000" stroke="#000000" points="783,-883.7001 791,-887.3 787,-883.7 791,-883.7 791,-883.7 791,-883.7 787,-883.7 791,-880.1 783,-883.7001 783,-883.7001"/>
<ellipse fill="none" stroke="#000000" cx="779.8" cy="-883.7001" rx="3.2" ry="3.2"/>
</g>
<!-- TARGETS -->
<g id="node11" class="node">
<title>TARGETS</title>
<g id="a_node11"><a xlink:href="../../tables/TARGETS.html" xlink:title="TARGETS" target="_top">
<polygon fill="#ffffff" stroke="transparent" points="8,-675.2 8,-736.2 106,-736.2 106,-675.2 8,-675.2"/>
<polygon fill="#f5f5f5" stroke="transparent" points="8,-712.7 8,-735.7 106,-735.7 106,-712.7 8,-712.7"/>
<polygon fill="none" stroke="#000000" points="8,-712.7 8,-735.7 106,-735.7 106,-712.7 8,-712.7"/>
<text text-anchor="start" x="13" y="-721.8" font-family="Helvetica,sans-Serif" font-weight="bold" font-size="11.00" fill="#000000">TARGETS</text>
<text text-anchor="start" x="71.0437" y="-720.8" font-family="Helvetica,sans-Serif" font-size="11.00" fill="#000000">[table]</text>
<polygon fill="none" stroke="#000000" points="8,-693.7 8,-712.7 106,-712.7 106,-693.7 8,-693.7"/>
<text text-anchor="start" x="11" y="-699.8" font-family="Helvetica,sans-Serif" font-size="11.00" fill="#000000">...</text>
<polygon fill="#ffffff" stroke="transparent" points="8,-674.7 8,-693.7 29,-693.7 29,-674.7 8,-674.7"/>
<polygon fill="none" stroke="#000000" points="8,-674.7 8,-693.7 29,-693.7 29,-674.7 8,-674.7"/>
<text text-anchor="start" x="10.7027" y="-680.8" font-family="Helvetica,sans-Serif" font-size="11.00" fill="#000000">&lt; 3</text>
<polygon fill="#ffffff" stroke="transparent" points="29,-674.7 29,-693.7 79,-693.7 79,-674.7 29,-674.7"/>
<polygon fill="none" stroke="#000000" points="29,-674.7 29,-693.7 79,-693.7 79,-674.7 29,-674.7"/>
<text text-anchor="start" x="31.6904" y="-680.8" font-family="Helvetica,sans-Serif" font-size="11.00" fill="#000000">146 rows</text>
<polygon fill="#ffffff" stroke="transparent" points="79,-674.7 79,-693.7 106,-693.7 106,-674.7 79,-674.7"/>
<polygon fill="none" stroke="#000000" points="79,-674.7 79,-693.7 106,-693.7 106,-674.7 79,-674.7"/>
<text text-anchor="start" x="81.6452" y="-680.8" font-family="Helvetica,sans-Serif" font-size="11.00" fill="#000000">10 &gt;</text>
</a>
</g>
</g>
<!-- ISOFORMS&#45;&gt;TARGETS -->
<g id="edge11" class="edge">
<title>ISOFORMS:w&#45;&gt;TARGETS:e</title>
<path fill="none" stroke="#000000" d="M141.086,-620.134C119.9203,-637.8629 144.3105,-702.7 106,-702.7"/>
<polygon fill="#000000" stroke="#000000" points="147.3777,-618.129 156.0931,-619.1301 151.1888,-616.9145 155,-615.7 155,-615.7 155,-615.7 151.1888,-616.9145 153.9069,-612.2699 147.3777,-618.129 147.3777,-618.129"/>
<ellipse fill="none" stroke="#000000" cx="144.3287" cy="-619.1007" rx="3.2" ry="3.2"/>
</g>
<!-- TARGET_FORMS&#45;&gt;ISOFORMS -->
<g id="edge14" class="edge">
<title>TARGET_FORMS:w&#45;&gt;ISOFORMS:e</title>
<path fill="none" stroke="#000000" d="M439.2784,-883.5969C401.5832,-882.92 381.3161,-878.0562 354,-845.7 293.218,-773.703 407.2233,-637.7 313,-637.7"/>
<polygon fill="#000000" stroke="#000000" points="446.0002,-883.6439 453.9748,-887.2999 450.0001,-883.672 454,-883.7 454,-883.7 454,-883.7 450.0001,-883.672 454.0252,-880.1001 446.0002,-883.6439 446.0002,-883.6439"/>
<ellipse fill="none" stroke="#000000" cx="442.8003" cy="-883.6215" rx="3.2" ry="3.2"/>
</g>
<!-- TARGET_FORMS&#45;&gt;TARGETS -->
<g id="edge15" class="edge">
<title>TARGET_FORMS:w&#45;&gt;TARGETS:e</title>
<path fill="none" stroke="#000000" d="M439.6014,-883.2727C279.5616,-873.5932 275.3989,-702.7 106,-702.7"/>
<polygon fill="#000000" stroke="#000000" points="446.0035,-883.4626 453.8932,-887.2984 450.0018,-883.5813 454,-883.7 454,-883.7 454,-883.7 450.0018,-883.5813 454.1068,-880.1016 446.0035,-883.4626 446.0035,-883.4626"/>
<ellipse fill="none" stroke="#000000" cx="442.8049" cy="-883.3677" rx="3.2" ry="3.2"/>
</g>
<!-- CLONE_FORMS_ISOFORM_MOTIFS -->
<g id="node4" class="node">
<title>CLONE_FORMS_ISOFORM_MOTIFS</title>
<g id="a_node4"><a xlink:href="../../tables/CLONE_FORMS_ISOFORM_MOTIFS.html" xlink:title="CLONE_FORMS_ISOFORM_MOTIFS" target="_top">
<polygon fill="#ffffff" stroke="transparent" points="1030,-626.2 1030,-753.2 1276,-753.2 1276,-626.2 1030,-626.2"/>
<polygon fill="#f5f5f5" stroke="transparent" points="1030,-729.7 1030,-752.7 1276,-752.7 1276,-729.7 1030,-729.7"/>
<polygon fill="none" stroke="#000000" points="1030,-729.7 1030,-752.7 1276,-752.7 1276,-729.7 1030,-729.7"/>
<text text-anchor="start" x="1035" y="-738.8" font-family="Helvetica,sans-Serif" font-weight="bold" font-size="11.00" fill="#000000">CLONE_FORMS_ISOFORM_MOTIFS</text>
<text text-anchor="start" x="1241.0437" y="-737.8" font-family="Helvetica,sans-Serif" font-size="11.00" fill="#000000">[table]</text>
<polygon fill="none" stroke="#000000" points="1030,-707.7 1030,-729.7 1276,-729.7 1276,-707.7 1030,-707.7"/>
<image xlink:href="../../images/primaryKeys.png" width="11px" height="12px" preserveAspectRatio="xMinYMin meet" x="1035" y="-724.7"/>
<text text-anchor="start" x="1050" y="-714.8" font-family="Helvetica,sans-Serif" font-size="11.00" fill="#000000">ID</text>
<polygon fill="none" stroke="#000000" points="1030,-685.7 1030,-707.7 1276,-707.7 1276,-685.7 1030,-685.7"/>
<image xlink:href="../../images/primaryKeys.png" width="11px" height="12px" preserveAspectRatio="xMinYMin meet" x="1035" y="-702.7"/>
<text text-anchor="start" x="1050" y="-692.8" font-family="Helvetica,sans-Serif" font-size="11.00" fill="#000000">CLONE_FORM_ID</text>
<polygon fill="none" stroke="#000000" points="1030,-663.7 1030,-685.7 1276,-685.7 1276,-663.7 1030,-663.7"/>
<image xlink:href="../../images/primaryKeys.png" width="11px" height="12px" preserveAspectRatio="xMinYMin meet" x="1035" y="-680.7"/>
<text text-anchor="start" x="1050" y="-670.8" font-family="Helvetica,sans-Serif" font-size="11.00" fill="#000000">ISOFORM_MOTIF_ID</text>
<polygon fill="none" stroke="#000000" points="1030,-644.7 1030,-663.7 1276,-663.7 1276,-644.7 1030,-644.7"/>
<text text-anchor="start" x="1033" y="-650.8" font-family="Helvetica,sans-Serif" font-size="11.00" fill="#000000">...</text>
<polygon fill="#ffffff" stroke="transparent" points="1030,-625.7 1030,-644.7 1135,-644.7 1135,-625.7 1030,-625.7"/>
<polygon fill="none" stroke="#000000" points="1030,-625.7 1030,-644.7 1135,-644.7 1135,-625.7 1030,-625.7"/>
<text text-anchor="start" x="1033" y="-631.8" font-family="Helvetica,sans-Serif" font-size="11.00" fill="#000000">&lt; 2</text>
<polygon fill="#ffffff" stroke="transparent" points="1135,-625.7 1135,-644.7 1221,-644.7 1221,-625.7 1135,-625.7"/>
<polygon fill="none" stroke="#000000" points="1135,-625.7 1135,-644.7 1221,-644.7 1221,-625.7 1135,-625.7"/>
<text text-anchor="start" x="1179.4956" y="-631.8" font-family="Helvetica,sans-Serif" font-size="11.00" fill="#000000">94 rows</text>
<polygon fill="#ffffff" stroke="transparent" points="1221,-625.7 1221,-644.7 1276,-644.7 1276,-625.7 1221,-625.7"/>
<polygon fill="none" stroke="#000000" points="1221,-625.7 1221,-644.7 1276,-644.7 1276,-625.7 1221,-625.7"/>
<text text-anchor="start" x="1266.8862" y="-631.8" font-family="Helvetica,sans-Serif" font-size="11.00" fill="#000000"> &#160;</text>
</a>
</g>
</g>
<!-- CLONE_FORMS_ISOFORM_MOTIFS&#45;&gt;CLONE_FORMS -->
<g id="edge3" class="edge">
<title>CLONE_FORMS_ISOFORM_MOTIFS:w&#45;&gt;CLONE_FORMS:e</title>
<path fill="none" stroke="#000000" d="M1015.759,-698.9212C983.5862,-711.17 1015.2334,-771.4158 989,-812.7 964.897,-850.6315 961.9417,-883.7 917,-883.7"/>
<polygon fill="#000000" stroke="#000000" points="1022.0956,-697.9329 1030.5548,-700.257 1026.0478,-697.3164 1030,-696.7 1030,-696.7 1030,-696.7 1026.0478,-697.3164 1029.4452,-693.143 1022.0956,-697.9329 1022.0956,-697.9329"/>
<ellipse fill="none" stroke="#000000" cx="1018.9338" cy="-698.4261" rx="3.2" ry="3.2"/>
</g>
<!-- ISOFORM_MOTIFS -->
<g id="node5" class="node">
<title>ISOFORM_MOTIFS</title>
<g id="a_node5"><a xlink:href="../../tables/ISOFORM_MOTIFS.html" xlink:title="ISOFORM_MOTIFS" target="_top">
<polygon fill="#ffffff" stroke="transparent" points="362,-366.7 362,-588.7 678,-588.7 678,-366.7 362,-366.7"/>
<polygon fill="#f5f5f5" stroke="transparent" points="364,-563.7 364,-586.7 676,-586.7 676,-563.7 364,-563.7"/>
<polygon fill="none" stroke="#000000" points="364,-563.7 364,-586.7 676,-586.7 676,-563.7 364,-563.7"/>
<text text-anchor="start" x="369" y="-572.8" font-family="Helvetica,sans-Serif" font-weight="bold" font-size="11.00" fill="#000000">ISOFORM_MOTIFS</text>
<text text-anchor="start" x="641.0437" y="-571.8" font-family="Helvetica,sans-Serif" font-size="11.00" fill="#000000">[table]</text>
<polygon fill="none" stroke="#000000" points="364,-541.7 364,-563.7 505,-563.7 505,-541.7 364,-541.7"/>
<image xlink:href="../../images/primaryKeys.png" width="11px" height="12px" preserveAspectRatio="xMinYMin meet" x="369" y="-558.7"/>
<text text-anchor="start" x="384" y="-548.8" font-family="Helvetica,sans-Serif" font-size="11.00" fill="#000000">ID</text>
<polygon fill="none" stroke="#000000" points="505,-541.7 505,-563.7 676,-563.7 676,-541.7 505,-541.7"/>
<text text-anchor="start" x="508" y="-549.4" font-family="Helvetica,sans-Serif" font-size="11.00" fill="#000000">number[19]</text>
<polygon fill="none" stroke="#000000" points="364,-519.7 364,-541.7 505,-541.7 505,-519.7 364,-519.7"/>
<text text-anchor="start" x="384" y="-526.8" font-family="Helvetica,sans-Serif" font-size="11.00" fill="#000000">CREATED_AT</text>
<polygon fill="none" stroke="#000000" points="505,-519.7 505,-541.7 676,-541.7 676,-519.7 505,-519.7"/>
<text text-anchor="start" x="507.9896" y="-527.4" font-family="Helvetica,sans-Serif" font-size="11.00" fill="#000000">timestamp(6) with time zone[13,6]</text>
<polygon fill="none" stroke="#000000" points="364,-497.7 364,-519.7 505,-519.7 505,-497.7 364,-497.7"/>
<text text-anchor="start" x="384" y="-504.8" font-family="Helvetica,sans-Serif" font-size="11.00" fill="#000000">CREATED_BY</text>
<polygon fill="none" stroke="#000000" points="505,-497.7 505,-519.7 676,-519.7 676,-497.7 505,-497.7"/>
<text text-anchor="start" x="508" y="-505.4" font-family="Helvetica,sans-Serif" font-size="11.00" fill="#000000">number[19]</text>
<polygon fill="none" stroke="#000000" points="364,-475.7 364,-497.7 505,-497.7 505,-475.7 364,-475.7"/>
<text text-anchor="start" x="384" y="-482.8" font-family="Helvetica,sans-Serif" font-size="11.00" fill="#000000">UPDATED_AT</text>
<polygon fill="none" stroke="#000000" points="505,-475.7 505,-497.7 676,-497.7 676,-475.7 505,-475.7"/>
<text text-anchor="start" x="507.9896" y="-483.4" font-family="Helvetica,sans-Serif" font-size="11.00" fill="#000000">timestamp(6) with time zone[13,6]</text>
<polygon fill="none" stroke="#000000" points="364,-453.7 364,-475.7 505,-475.7 505,-453.7 364,-453.7"/>
<text text-anchor="start" x="384" y="-460.8" font-family="Helvetica,sans-Serif" font-size="11.00" fill="#000000">UPDATED_BY</text>
<polygon fill="none" stroke="#000000" points="505,-453.7 505,-475.7 676,-475.7 676,-453.7 505,-453.7"/>
<text text-anchor="start" x="508" y="-461.4" font-family="Helvetica,sans-Serif" font-size="11.00" fill="#000000">number[19]</text>
<polygon fill="none" stroke="#000000" points="364,-431.7 364,-453.7 505,-453.7 505,-431.7 364,-431.7"/>
<text text-anchor="start" x="384" y="-438.8" font-family="Helvetica,sans-Serif" font-size="11.00" fill="#000000">COLOR</text>
<polygon fill="none" stroke="#000000" points="505,-431.7 505,-453.7 676,-453.7 676,-431.7 505,-431.7"/>
<text text-anchor="start" x="508" y="-439.4" font-family="Helvetica,sans-Serif" font-size="11.00" fill="#000000">varchar2[255]</text>
<polygon fill="none" stroke="#000000" points="364,-409.7 364,-431.7 505,-431.7 505,-409.7 364,-409.7"/>
<text text-anchor="start" x="384" y="-416.8" font-family="Helvetica,sans-Serif" font-size="11.00" fill="#000000">TITLE</text>
<polygon fill="none" stroke="#000000" points="505,-409.7 505,-431.7 676,-431.7 676,-409.7 505,-409.7"/>
<text text-anchor="start" x="508" y="-417.4" font-family="Helvetica,sans-Serif" font-size="11.00" fill="#000000">varchar2[255]</text>
<polygon fill="none" stroke="#000000" points="364,-387.7 364,-409.7 505,-409.7 505,-387.7 364,-387.7"/>
<image xlink:href="../../images/foreignKeys.png" width="11px" height="12px" preserveAspectRatio="xMinYMin meet" x="369" y="-404.7"/>
<text text-anchor="start" x="384" y="-394.8" font-family="Helvetica,sans-Serif" font-size="11.00" fill="#000000">ISOFORM_ID</text>
<polygon fill="none" stroke="#000000" points="505,-387.7 505,-409.7 676,-409.7 676,-387.7 505,-387.7"/>
<text text-anchor="start" x="508" y="-395.4" font-family="Helvetica,sans-Serif" font-size="11.00" fill="#000000">number[19]</text>
<polygon fill="#ffffff" stroke="transparent" points="364,-368.7 364,-387.7 420,-387.7 420,-368.7 364,-368.7"/>
<polygon fill="none" stroke="#000000" points="364,-368.7 364,-387.7 420,-387.7 420,-368.7 364,-368.7"/>
<text text-anchor="start" x="367" y="-374.8" font-family="Helvetica,sans-Serif" font-size="11.00" fill="#000000">&lt; 1</text>
<polygon fill="#ffffff" stroke="transparent" points="420,-368.7 420,-387.7 505,-387.7 505,-368.7 420,-368.7"/>
<polygon fill="none" stroke="#000000" points="420,-368.7 420,-387.7 505,-387.7 505,-368.7 420,-368.7"/>
<text text-anchor="start" x="457.3807" y="-374.8" font-family="Helvetica,sans-Serif" font-size="11.00" fill="#000000">183 rows</text>
<polygon fill="#ffffff" stroke="transparent" points="505,-368.7 505,-387.7 676,-387.7 676,-368.7 505,-368.7"/>
<polygon fill="none" stroke="#000000" points="505,-368.7 505,-387.7 676,-387.7 676,-368.7 505,-368.7"/>
<text text-anchor="start" x="657.4053" y="-374.8" font-family="Helvetica,sans-Serif" font-size="11.00" fill="#000000">2 &gt;</text>
<polygon fill="none" stroke="#000000" stroke-width="2" points="363,-367.7 363,-587.7 677,-587.7 677,-367.7 363,-367.7"/>
</a>
</g>
</g>
<!-- CLONE_FORMS_ISOFORM_MOTIFS&#45;&gt;ISOFORM_MOTIFS -->
<g id="edge4" class="edge">
<title>CLONE_FORMS_ISOFORM_MOTIFS:w&#45;&gt;ISOFORM_MOTIFS:e</title>
<path fill="none" stroke="#000000" d="M1015.3879,-672.3718C945.5117,-655.5053 714.1909,-552.7 676,-552.7"/>
<polygon fill="#000000" stroke="#000000" points="1022.0997,-673.4412 1029.4335,-678.2552 1026.0498,-674.0706 1030,-674.7 1030,-674.7 1030,-674.7 1026.0498,-674.0706 1030.5665,-671.1448 1022.0997,-673.4412 1022.0997,-673.4412"/>
<ellipse fill="none" stroke="#000000" cx="1018.9395" cy="-672.9376" rx="3.2" ry="3.2"/>
</g>
<!-- ISOFORM_MOTIFS&#45;&gt;ISOFORMS -->
<g id="edge8" class="edge">
<title>ISOFORM_MOTIFS:w&#45;&gt;ISOFORMS:e</title>
<path fill="none" stroke="#000000" d="M349.5076,-400.4864C271.56,-422.3571 416.0982,-637.7 313,-637.7"/>
<polygon fill="#000000" stroke="#000000" points="356.0601,-399.6787 364.4404,-402.273 360.03,-399.1894 364,-398.7 364,-398.7 364,-398.7 360.03,-399.1894 363.5596,-395.127 356.0601,-399.6787 356.0601,-399.6787"/>
<ellipse fill="none" stroke="#000000" cx="352.8841" cy="-400.0702" rx="3.2" ry="3.2"/>
</g>
<!-- ISOFORM_ANNOTATIONS -->
<g id="node6" class="node">
<title>ISOFORM_ANNOTATIONS</title>
<g id="a_node6"><a xlink:href="../../tables/ISOFORM_ANNOTATIONS.html" xlink:title="ISOFORM_ANNOTATIONS" target="_top">
<polygon fill="#ffffff" stroke="transparent" points="430.5,-284.2 430.5,-345.2 609.5,-345.2 609.5,-284.2 430.5,-284.2"/>
<polygon fill="#f5f5f5" stroke="transparent" points="431,-321.7 431,-344.7 610,-344.7 610,-321.7 431,-321.7"/>
<polygon fill="none" stroke="#000000" points="431,-321.7 431,-344.7 610,-344.7 610,-321.7 431,-321.7"/>
<text text-anchor="start" x="435.5575" y="-330.8" font-family="Helvetica,sans-Serif" font-weight="bold" font-size="11.00" fill="#000000">ISOFORM_ANNOTATIONS</text>
<text text-anchor="start" x="575.5219" y="-329.8" font-family="Helvetica,sans-Serif" font-size="11.00" fill="#000000">[table]</text>
<polygon fill="none" stroke="#000000" points="431,-302.7 431,-321.7 610,-321.7 610,-302.7 431,-302.7"/>
<text text-anchor="start" x="434" y="-308.8" font-family="Helvetica,sans-Serif" font-size="11.00" fill="#000000">...</text>
<polygon fill="#ffffff" stroke="transparent" points="431,-283.7 431,-302.7 501,-302.7 501,-283.7 431,-283.7"/>
<polygon fill="none" stroke="#000000" points="431,-283.7 431,-302.7 501,-302.7 501,-283.7 431,-283.7"/>
<text text-anchor="start" x="434" y="-289.8" font-family="Helvetica,sans-Serif" font-size="11.00" fill="#000000">&lt; 1</text>
<polygon fill="#ffffff" stroke="transparent" points="501,-283.7 501,-302.7 564,-302.7 564,-283.7 501,-283.7"/>
<polygon fill="none" stroke="#000000" points="501,-283.7 501,-302.7 564,-302.7 564,-283.7 501,-283.7"/>
<text text-anchor="start" x="528.6105" y="-289.8" font-family="Helvetica,sans-Serif" font-size="11.00" fill="#000000">9 rows</text>
<polygon fill="#ffffff" stroke="transparent" points="564,-283.7 564,-302.7 610,-302.7 610,-283.7 564,-283.7"/>
<polygon fill="none" stroke="#000000" points="564,-283.7 564,-302.7 610,-302.7 610,-283.7 564,-283.7"/>
<text text-anchor="start" x="591.4053" y="-289.8" font-family="Helvetica,sans-Serif" font-size="11.00" fill="#000000">3 &gt;</text>
</a>
</g>
</g>
<!-- ISOFORM_ANNOTATIONS&#45;&gt;ISOFORMS -->
<g id="edge5" class="edge">
<title>ISOFORM_ANNOTATIONS:w&#45;&gt;ISOFORMS:e</title>
<path fill="none" stroke="#000000" d="M416.4944,-312.3274C387.3757,-315.1078 373.2438,-327.4513 354,-355.7 318.3476,-408.0357 376.3255,-637.7 313,-637.7"/>
<polygon fill="#000000" stroke="#000000" points="423.0075,-312.0457 431.1556,-315.2966 427.0037,-311.8729 431,-311.7 431,-311.7 431,-311.7 427.0037,-311.8729 430.8444,-308.1034 423.0075,-312.0457 423.0075,-312.0457"/>
<ellipse fill="none" stroke="#000000" cx="419.8105" cy="-312.184" rx="3.2" ry="3.2"/>
</g>
<!-- ISOFORM_COMMENTS -->
<g id="node7" class="node">
<title>ISOFORM_COMMENTS</title>
<g id="a_node7"><a xlink:href="../../tables/ISOFORM_COMMENTS.html" xlink:title="ISOFORM_COMMENTS" target="_top">
<polygon fill="#ffffff" stroke="transparent" points="438,-202.2 438,-263.2 602,-263.2 602,-202.2 438,-202.2"/>
<polygon fill="#f5f5f5" stroke="transparent" points="438,-239.7 438,-262.7 602,-262.7 602,-239.7 438,-239.7"/>
<polygon fill="none" stroke="#000000" points="438,-239.7 438,-262.7 602,-262.7 602,-239.7 438,-239.7"/>
<text text-anchor="start" x="442.7008" y="-248.8" font-family="Helvetica,sans-Serif" font-weight="bold" font-size="11.00" fill="#000000">ISOFORM_COMMENTS</text>
<text text-anchor="start" x="567.5219" y="-247.8" font-family="Helvetica,sans-Serif" font-size="11.00" fill="#000000">[table]</text>
<polygon fill="none" stroke="#000000" points="438,-220.7 438,-239.7 602,-239.7 602,-220.7 438,-220.7"/>
<text text-anchor="start" x="441" y="-226.8" font-family="Helvetica,sans-Serif" font-size="11.00" fill="#000000">...</text>
<polygon fill="#ffffff" stroke="transparent" points="438,-201.7 438,-220.7 505,-220.7 505,-201.7 438,-201.7"/>
<polygon fill="none" stroke="#000000" points="438,-201.7 438,-220.7 505,-220.7 505,-201.7 438,-201.7"/>
<text text-anchor="start" x="441" y="-207.8" font-family="Helvetica,sans-Serif" font-size="11.00" fill="#000000">&lt; 2</text>
<polygon fill="#ffffff" stroke="transparent" points="505,-201.7 505,-220.7 566,-220.7 566,-201.7 505,-201.7"/>
<polygon fill="none" stroke="#000000" points="505,-201.7 505,-220.7 566,-220.7 566,-201.7 505,-201.7"/>
<text text-anchor="start" x="530.6105" y="-207.8" font-family="Helvetica,sans-Serif" font-size="11.00" fill="#000000">8 rows</text>
<polygon fill="#ffffff" stroke="transparent" points="566,-201.7 566,-220.7 602,-220.7 602,-201.7 566,-201.7"/>
<polygon fill="none" stroke="#000000" points="566,-201.7 566,-220.7 602,-220.7 602,-201.7 566,-201.7"/>
<text text-anchor="start" x="592.8862" y="-207.8" font-family="Helvetica,sans-Serif" font-size="11.00" fill="#000000"> &#160;</text>
</a>
</g>
</g>
<!-- ISOFORM_COMMENTS&#45;&gt;ISOFORMS -->
<g id="edge6" class="edge">
<title>ISOFORM_COMMENTS:w&#45;&gt;ISOFORMS:e</title>
<path fill="none" stroke="#000000" d="M423.2668,-230.1642C391.2525,-232.4047 374.829,-243.2689 354,-273.7 308.0228,-340.8724 394.4004,-637.7 313,-637.7"/>
<polygon fill="#000000" stroke="#000000" points="430.004,-229.952 438.1134,-233.2982 434.002,-229.826 438,-229.7 438,-229.7 438,-229.7 434.002,-229.826 437.8866,-226.1018 430.004,-229.952 430.004,-229.952"/>
<ellipse fill="none" stroke="#000000" cx="426.8056" cy="-230.0528" rx="3.2" ry="3.2"/>
</g>
<!-- ISOFORM_DOMAINS -->
<g id="node8" class="node">
<title>ISOFORM_DOMAINS</title>
<g id="a_node8"><a xlink:href="../../tables/ISOFORM_DOMAINS.html" xlink:title="ISOFORM_DOMAINS" target="_top">
<polygon fill="#ffffff" stroke="transparent" points="444.5,-120.2 444.5,-181.2 595.5,-181.2 595.5,-120.2 444.5,-120.2"/>
<polygon fill="#f5f5f5" stroke="transparent" points="445,-157.7 445,-180.7 596,-180.7 596,-157.7 445,-157.7"/>
<polygon fill="none" stroke="#000000" points="445,-157.7 445,-180.7 596,-180.7 596,-157.7 445,-157.7"/>
<text text-anchor="start" x="449.6133" y="-166.8" font-family="Helvetica,sans-Serif" font-weight="bold" font-size="11.00" fill="#000000">ISOFORM_DOMAINS</text>
<text text-anchor="start" x="561.5219" y="-165.8" font-family="Helvetica,sans-Serif" font-size="11.00" fill="#000000">[table]</text>
<polygon fill="none" stroke="#000000" points="445,-138.7 445,-157.7 596,-157.7 596,-138.7 445,-138.7"/>
<text text-anchor="start" x="448" y="-144.8" font-family="Helvetica,sans-Serif" font-size="11.00" fill="#000000">...</text>
<polygon fill="#ffffff" stroke="transparent" points="445,-119.7 445,-138.7 495,-138.7 495,-119.7 445,-119.7"/>
<polygon fill="none" stroke="#000000" points="445,-119.7 445,-138.7 495,-138.7 495,-119.7 445,-119.7"/>
<text text-anchor="start" x="448" y="-125.8" font-family="Helvetica,sans-Serif" font-size="11.00" fill="#000000">&lt; 1</text>
<polygon fill="#ffffff" stroke="transparent" points="495,-119.7 495,-138.7 560,-138.7 560,-119.7 495,-119.7"/>
<polygon fill="none" stroke="#000000" points="495,-119.7 495,-138.7 560,-138.7 560,-119.7 495,-119.7"/>
<text text-anchor="start" x="512.3807" y="-125.8" font-family="Helvetica,sans-Serif" font-size="11.00" fill="#000000">727 rows</text>
<polygon fill="#ffffff" stroke="transparent" points="560,-119.7 560,-138.7 596,-138.7 596,-119.7 560,-119.7"/>
<polygon fill="none" stroke="#000000" points="560,-119.7 560,-138.7 596,-138.7 596,-119.7 560,-119.7"/>
<text text-anchor="start" x="577.4053" y="-125.8" font-family="Helvetica,sans-Serif" font-size="11.00" fill="#000000">5 &gt;</text>
</a>
</g>
</g>
<!-- ISOFORM_DOMAINS&#45;&gt;ISOFORMS -->
<g id="edge7" class="edge">
<title>ISOFORM_DOMAINS:w&#45;&gt;ISOFORMS:e</title>
<path fill="none" stroke="#000000" d="M430.1656,-148.0282C395.2044,-149.7685 376.591,-159.1036 354,-191.7 325.653,-232.6018 362.7645,-637.7 313,-637.7"/>
<polygon fill="#000000" stroke="#000000" points="437.002,-147.877 445.0796,-151.2991 441.001,-147.7885 445,-147.7 445,-147.7 445,-147.7 441.001,-147.7885 444.9204,-144.1009 437.002,-147.877 437.002,-147.877"/>
<ellipse fill="none" stroke="#000000" cx="433.8027" cy="-147.9478" rx="3.2" ry="3.2"/>
</g>
<!-- ISOFORM_REGIONS -->
<g id="node9" class="node">
<title>ISOFORM_REGIONS</title>
<g id="a_node9"><a xlink:href="../../tables/ISOFORM_REGIONS.html" xlink:title="ISOFORM_REGIONS" target="_top">
<polygon fill="#ffffff" stroke="transparent" points="444.5,-38.2 444.5,-99.2 595.5,-99.2 595.5,-38.2 444.5,-38.2"/>
<polygon fill="#f5f5f5" stroke="transparent" points="445,-75.7 445,-98.7 596,-98.7 596,-75.7 445,-75.7"/>
<polygon fill="none" stroke="#000000" points="445,-75.7 445,-98.7 596,-98.7 596,-75.7 445,-75.7"/>
<text text-anchor="start" x="449.9158" y="-84.8" font-family="Helvetica,sans-Serif" font-weight="bold" font-size="11.00" fill="#000000">ISOFORM_REGIONS</text>
<text text-anchor="start" x="561.5219" y="-83.8" font-family="Helvetica,sans-Serif" font-size="11.00" fill="#000000">[table]</text>
<polygon fill="none" stroke="#000000" points="445,-56.7 445,-75.7 596,-75.7 596,-56.7 445,-56.7"/>
<text text-anchor="start" x="448" y="-62.8" font-family="Helvetica,sans-Serif" font-size="11.00" fill="#000000">...</text>
<polygon fill="#ffffff" stroke="transparent" points="445,-37.7 445,-56.7 495,-56.7 495,-37.7 445,-37.7"/>
<polygon fill="none" stroke="#000000" points="445,-37.7 445,-56.7 495,-56.7 495,-37.7 445,-37.7"/>
<text text-anchor="start" x="448" y="-43.8" font-family="Helvetica,sans-Serif" font-size="11.00" fill="#000000">&lt; 1</text>
<polygon fill="#ffffff" stroke="transparent" points="495,-37.7 495,-56.7 560,-56.7 560,-37.7 495,-37.7"/>
<polygon fill="none" stroke="#000000" points="495,-37.7 495,-56.7 560,-56.7 560,-37.7 495,-37.7"/>
<text text-anchor="start" x="512.3807" y="-43.8" font-family="Helvetica,sans-Serif" font-size="11.00" fill="#000000">199 rows</text>
<polygon fill="#ffffff" stroke="transparent" points="560,-37.7 560,-56.7 596,-56.7 596,-37.7 560,-37.7"/>
<polygon fill="none" stroke="#000000" points="560,-37.7 560,-56.7 596,-56.7 596,-37.7 560,-37.7"/>
<text text-anchor="start" x="577.4053" y="-43.8" font-family="Helvetica,sans-Serif" font-size="11.00" fill="#000000">2 &gt;</text>
</a>
</g>
</g>
<!-- ISOFORM_REGIONS&#45;&gt;ISOFORMS -->
<g id="edge9" class="edge">
<title>ISOFORM_REGIONS:w&#45;&gt;ISOFORMS:e</title>
<path fill="none" stroke="#000000" d="M430.1561,-66.0216C395.1501,-67.7311 376.3594,-76.9443 354,-109.7 320.8252,-158.3 371.8433,-637.7 313,-637.7"/>
<polygon fill="#000000" stroke="#000000" points="437.0019,-65.8734 445.078,-69.2992 441.0009,-65.7867 445,-65.7 445,-65.7 445,-65.7 441.0009,-65.7867 444.922,-62.1008 437.0019,-65.8734 437.0019,-65.8734"/>
<ellipse fill="none" stroke="#000000" cx="433.8026" cy="-65.9427" rx="3.2" ry="3.2"/>
</g>
<!-- ISOFORM_VARIANTS -->
<g id="node10" class="node">
<title>ISOFORM_VARIANTS</title>
<g id="a_node10"><a xlink:href="../../tables/ISOFORM_VARIANTS.html" xlink:title="ISOFORM_VARIANTS" target="_top">
<polygon fill="#ffffff" stroke="transparent" points="442.5,-774.2 442.5,-835.2 597.5,-835.2 597.5,-774.2 442.5,-774.2"/>
<polygon fill="#f5f5f5" stroke="transparent" points="443,-811.7 443,-834.7 598,-834.7 598,-811.7 443,-811.7"/>
<polygon fill="none" stroke="#000000" points="443,-811.7 443,-834.7 598,-834.7 598,-811.7 443,-811.7"/>
<text text-anchor="start" x="447.7768" y="-820.8" font-family="Helvetica,sans-Serif" font-weight="bold" font-size="11.00" fill="#000000">ISOFORM_VARIANTS</text>
<text text-anchor="start" x="563.5219" y="-819.8" font-family="Helvetica,sans-Serif" font-size="11.00" fill="#000000">[table]</text>
<polygon fill="none" stroke="#000000" points="443,-792.7 443,-811.7 598,-811.7 598,-792.7 443,-792.7"/>
<text text-anchor="start" x="446" y="-798.8" font-family="Helvetica,sans-Serif" font-size="11.00" fill="#000000">...</text>
<polygon fill="#ffffff" stroke="transparent" points="443,-773.7 443,-792.7 491,-792.7 491,-773.7 443,-773.7"/>
<polygon fill="none" stroke="#000000" points="443,-773.7 443,-792.7 491,-792.7 491,-773.7 443,-773.7"/>
<text text-anchor="start" x="446" y="-779.8" font-family="Helvetica,sans-Serif" font-size="11.00" fill="#000000">&lt; 1</text>
<polygon fill="#ffffff" stroke="transparent" points="491,-773.7 491,-792.7 563,-792.7 563,-773.7 491,-773.7"/>
<polygon fill="none" stroke="#000000" points="491,-773.7 491,-792.7 563,-792.7 563,-773.7 491,-773.7"/>
<text text-anchor="start" x="506.2089" y="-779.8" font-family="Helvetica,sans-Serif" font-size="11.00" fill="#000000">4,858 rows</text>
<polygon fill="#ffffff" stroke="transparent" points="563,-773.7 563,-792.7 598,-792.7 598,-773.7 563,-773.7"/>
<polygon fill="none" stroke="#000000" points="563,-773.7 563,-792.7 598,-792.7 598,-773.7 563,-773.7"/>
<text text-anchor="start" x="579.4053" y="-779.8" font-family="Helvetica,sans-Serif" font-size="11.00" fill="#000000">3 &gt;</text>
</a>
</g>
</g>
<!-- ISOFORM_VARIANTS&#45;&gt;ISOFORMS -->
<g id="edge10" class="edge">
<title>ISOFORM_VARIANTS:w&#45;&gt;ISOFORMS:e</title>
<path fill="none" stroke="#000000" d="M428.4535,-801.3903C395.7055,-799.8092 379.5152,-791.5919 354,-763.7 314.2508,-720.2483 371.8901,-637.7 313,-637.7"/>
<polygon fill="#000000" stroke="#000000" points="435.0018,-801.5297 442.9233,-805.2992 439.0009,-801.6148 443,-801.7 443,-801.7 443,-801.7 439.0009,-801.6148 443.0767,-798.1008 435.0018,-801.5297 435.0018,-801.5297"/>
<ellipse fill="none" stroke="#000000" cx="431.8025" cy="-801.4615" rx="3.2" ry="3.2"/>
</g>
<!-- ISOFORMS_REFERENCES -->
<g id="node12" class="node">
<title>ISOFORMS_REFERENCES</title>
<g id="a_node12"><a xlink:href="../../tables/ISOFORMS_REFERENCES.html" xlink:title="ISOFORMS_REFERENCES" target="_top">
<polygon fill="#ffffff" stroke="transparent" points="429,-692.2 429,-753.2 611,-753.2 611,-692.2 429,-692.2"/>
<polygon fill="#f5f5f5" stroke="transparent" points="429,-729.7 429,-752.7 611,-752.7 611,-729.7 429,-729.7"/>
<polygon fill="none" stroke="#000000" points="429,-729.7 429,-752.7 611,-752.7 611,-729.7 429,-729.7"/>
<text text-anchor="start" x="433.5285" y="-738.8" font-family="Helvetica,sans-Serif" font-weight="bold" font-size="11.00" fill="#000000">ISOFORMS_REFERENCES</text>
<text text-anchor="start" x="576.5219" y="-737.8" font-family="Helvetica,sans-Serif" font-size="11.00" fill="#000000">[table]</text>
<polygon fill="none" stroke="#000000" points="429,-710.7 429,-729.7 611,-729.7 611,-710.7 429,-710.7"/>
<text text-anchor="start" x="432" y="-716.8" font-family="Helvetica,sans-Serif" font-size="11.00" fill="#000000">...</text>
<polygon fill="#ffffff" stroke="transparent" points="429,-691.7 429,-710.7 505,-710.7 505,-691.7 429,-691.7"/>
<polygon fill="none" stroke="#000000" points="429,-691.7 429,-710.7 505,-710.7 505,-691.7 429,-691.7"/>
<text text-anchor="start" x="432" y="-697.8" font-family="Helvetica,sans-Serif" font-size="11.00" fill="#000000">&lt; 2</text>
<polygon fill="#ffffff" stroke="transparent" points="505,-691.7 505,-710.7 571,-710.7 571,-691.7 505,-691.7"/>
<polygon fill="none" stroke="#000000" points="505,-691.7 505,-710.7 571,-710.7 571,-691.7 505,-691.7"/>
<text text-anchor="start" x="535.6105" y="-697.8" font-family="Helvetica,sans-Serif" font-size="11.00" fill="#000000">6 rows</text>
<polygon fill="#ffffff" stroke="transparent" points="571,-691.7 571,-710.7 611,-710.7 611,-691.7 571,-691.7"/>
<polygon fill="none" stroke="#000000" points="571,-691.7 571,-710.7 611,-710.7 611,-691.7 571,-691.7"/>
<text text-anchor="start" x="601.8862" y="-697.8" font-family="Helvetica,sans-Serif" font-size="11.00" fill="#000000"> &#160;</text>
</a>
</g>
</g>
<!-- ISOFORMS_REFERENCES&#45;&gt;ISOFORMS -->
<g id="edge12" class="edge">
<title>ISOFORMS_REFERENCES:w&#45;&gt;ISOFORMS:e</title>
<path fill="none" stroke="#000000" d="M414.4965,-718.7522C388.9253,-715.0634 379.5482,-700.9139 354,-681.7 332.6376,-665.634 339.7296,-637.7 313,-637.7"/>
<polygon fill="#000000" stroke="#000000" points="421.017,-719.1782 428.7652,-723.2923 425.0085,-719.4391 429,-719.7 429,-719.7 429,-719.7 425.0085,-719.4391 429.2348,-716.1077 421.017,-719.1782 421.017,-719.1782"/>
<ellipse fill="none" stroke="#000000" cx="417.8238" cy="-718.9695" rx="3.2" ry="3.2"/>
</g>
<!-- STRUCTURES -->
<g id="node13" class="node">
<title>STRUCTURES</title>
<g id="a_node13"><a xlink:href="../../tables/STRUCTURES.html" xlink:title="STRUCTURES" target="_top">
<polygon fill="#ffffff" stroke="transparent" points="461,-610.2 461,-671.2 579,-671.2 579,-610.2 461,-610.2"/>
<polygon fill="#f5f5f5" stroke="transparent" points="461,-647.7 461,-670.7 579,-670.7 579,-647.7 461,-647.7"/>
<polygon fill="none" stroke="#000000" points="461,-647.7 461,-670.7 579,-670.7 579,-647.7 461,-647.7"/>
<text text-anchor="start" x="465.924" y="-656.8" font-family="Helvetica,sans-Serif" font-weight="bold" font-size="11.00" fill="#000000">STRUCTURES</text>
<text text-anchor="start" x="544.5219" y="-655.8" font-family="Helvetica,sans-Serif" font-size="11.00" fill="#000000">[table]</text>
<polygon fill="none" stroke="#000000" points="461,-628.7 461,-647.7 579,-647.7 579,-628.7 461,-628.7"/>
<text text-anchor="start" x="464" y="-634.8" font-family="Helvetica,sans-Serif" font-size="11.00" fill="#000000">...</text>
<polygon fill="#ffffff" stroke="transparent" points="461,-609.7 461,-628.7 490,-628.7 490,-609.7 461,-609.7"/>
<polygon fill="none" stroke="#000000" points="461,-609.7 461,-628.7 490,-628.7 490,-609.7 461,-609.7"/>
<text text-anchor="start" x="464" y="-615.8" font-family="Helvetica,sans-Serif" font-size="11.00" fill="#000000">&lt; 1</text>
<polygon fill="#ffffff" stroke="transparent" points="490,-609.7 490,-628.7 553,-628.7 553,-609.7 490,-609.7"/>
<polygon fill="none" stroke="#000000" points="490,-609.7 490,-628.7 553,-628.7 553,-609.7 490,-609.7"/>
<text text-anchor="start" x="496.2089" y="-615.8" font-family="Helvetica,sans-Serif" font-size="11.00" fill="#000000">5,581 rows</text>
<polygon fill="#ffffff" stroke="transparent" points="553,-609.7 553,-628.7 579,-628.7 579,-609.7 553,-609.7"/>
<polygon fill="none" stroke="#000000" points="553,-609.7 553,-628.7 579,-628.7 579,-609.7 553,-609.7"/>
<text text-anchor="start" x="560.4053" y="-615.8" font-family="Helvetica,sans-Serif" font-size="11.00" fill="#000000">2 &gt;</text>
</a>
</g>
</g>
<!-- STRUCTURES&#45;&gt;ISOFORMS -->
<g id="edge13" class="edge">
<title>STRUCTURES:w&#45;&gt;ISOFORMS:e</title>
<path fill="none" stroke="#000000" d="M446.4396,-637.7C392.3517,-637.7 373.6389,-637.7 313,-637.7"/>
<polygon fill="#000000" stroke="#000000" points="453,-637.7001 461,-641.3 457,-637.7 461,-637.7 461,-637.7 461,-637.7 457,-637.7 461,-634.1 453,-637.7001 453,-637.7001"/>
<ellipse fill="none" stroke="#000000" cx="449.8" cy="-637.7001" rx="3.2" ry="3.2"/>
</g>
<!-- TARGET_FORMS_ISOFORM_MOTIFS -->
<g id="node14" class="node">
<title>TARGET_FORMS_ISOFORM_MOTIFS</title>
<g id="a_node14"><a xlink:href="../../tables/TARGET_FORMS_ISOFORM_MOTIFS.html" xlink:title="TARGET_FORMS_ISOFORM_MOTIFS" target="_top">
<polygon fill="#ffffff" stroke="transparent" points="727,-675.2 727,-802.2 981,-802.2 981,-675.2 727,-675.2"/>
<polygon fill="#f5f5f5" stroke="transparent" points="727,-778.7 727,-801.7 981,-801.7 981,-778.7 727,-778.7"/>
<polygon fill="none" stroke="#000000" points="727,-778.7 727,-801.7 981,-801.7 981,-778.7 727,-778.7"/>
<text text-anchor="start" x="732" y="-787.8" font-family="Helvetica,sans-Serif" font-weight="bold" font-size="11.00" fill="#000000">TARGET_FORMS_ISOFORM_MOTIFS</text>
<text text-anchor="start" x="946.0437" y="-786.8" font-family="Helvetica,sans-Serif" font-size="11.00" fill="#000000">[table]</text>
<polygon fill="none" stroke="#000000" points="727,-756.7 727,-778.7 981,-778.7 981,-756.7 727,-756.7"/>
<image xlink:href="../../images/primaryKeys.png" width="11px" height="12px" preserveAspectRatio="xMinYMin meet" x="732" y="-773.7"/>
<text text-anchor="start" x="747" y="-763.8" font-family="Helvetica,sans-Serif" font-size="11.00" fill="#000000">ID</text>
<polygon fill="none" stroke="#000000" points="727,-734.7 727,-756.7 981,-756.7 981,-734.7 727,-734.7"/>
<image xlink:href="../../images/primaryKeys.png" width="11px" height="12px" preserveAspectRatio="xMinYMin meet" x="732" y="-751.7"/>
<text text-anchor="start" x="747" y="-741.8" font-family="Helvetica,sans-Serif" font-size="11.00" fill="#000000">TARGET_FORM_ID</text>
<polygon fill="none" stroke="#000000" points="727,-712.7 727,-734.7 981,-734.7 981,-712.7 727,-712.7"/>
<image xlink:href="../../images/primaryKeys.png" width="11px" height="12px" preserveAspectRatio="xMinYMin meet" x="732" y="-729.7"/>
<text text-anchor="start" x="747" y="-719.8" font-family="Helvetica,sans-Serif" font-size="11.00" fill="#000000">ISOFORM_MOTIF_ID</text>
<polygon fill="none" stroke="#000000" points="727,-693.7 727,-712.7 981,-712.7 981,-693.7 727,-693.7"/>
<text text-anchor="start" x="730" y="-699.8" font-family="Helvetica,sans-Serif" font-size="11.00" fill="#000000">...</text>
<polygon fill="#ffffff" stroke="transparent" points="727,-674.7 727,-693.7 833,-693.7 833,-674.7 727,-674.7"/>
<polygon fill="none" stroke="#000000" points="727,-674.7 727,-693.7 833,-693.7 833,-674.7 727,-674.7"/>
<text text-anchor="start" x="730" y="-680.8" font-family="Helvetica,sans-Serif" font-size="11.00" fill="#000000">&lt; 2</text>
<polygon fill="#ffffff" stroke="transparent" points="833,-674.7 833,-693.7 926,-693.7 926,-674.7 833,-674.7"/>
<polygon fill="none" stroke="#000000" points="833,-674.7 833,-693.7 926,-693.7 926,-674.7 833,-674.7"/>
<text text-anchor="start" x="878.3807" y="-680.8" font-family="Helvetica,sans-Serif" font-size="11.00" fill="#000000">221 rows</text>
<polygon fill="#ffffff" stroke="transparent" points="926,-674.7 926,-693.7 981,-693.7 981,-674.7 926,-674.7"/>
<polygon fill="none" stroke="#000000" points="926,-674.7 926,-693.7 981,-693.7 981,-674.7 926,-674.7"/>
<text text-anchor="start" x="971.8862" y="-680.8" font-family="Helvetica,sans-Serif" font-size="11.00" fill="#000000"> &#160;</text>
</a>
</g>
</g>
<!-- TARGET_FORMS_ISOFORM_MOTIFS&#45;&gt;TARGET_FORMS -->
<g id="edge17" class="edge">
<title>TARGET_FORMS_ISOFORM_MOTIFS:w&#45;&gt;TARGET_FORMS:e</title>
<path fill="none" stroke="#000000" d="M712.8558,-748.6196C688.1274,-761.7919 716.0541,-816.3176 686,-845.7 652.2996,-878.6472 634.13,-883.7 587,-883.7"/>
<polygon fill="#000000" stroke="#000000" points="719.1652,-747.3173 727.7278,-749.2257 723.0826,-746.5086 727,-745.7 727,-745.7 727,-745.7 723.0826,-746.5086 726.2722,-742.1743 719.1652,-747.3173 719.1652,-747.3173"/>
<ellipse fill="none" stroke="#000000" cx="716.0312" cy="-747.9642" rx="3.2" ry="3.2"/>
</g>
<!-- TARGET_FORMS_ISOFORM_MOTIFS&#45;&gt;ISOFORM_MOTIFS -->
<g id="edge16" class="edge">
<title>TARGET_FORMS_ISOFORM_MOTIFS:w&#45;&gt;ISOFORM_MOTIFS:e</title>
<path fill="none" stroke="#000000" d="M712.5937,-721.15C662.2696,-699.8782 749.5769,-552.7 676,-552.7"/>
<polygon fill="#000000" stroke="#000000" points="719.1225,-722.3056 726.3725,-727.2449 723.0612,-723.0028 727,-723.7 727,-723.7 727,-723.7 723.0612,-723.0028 727.6275,-720.1551 719.1225,-722.3056 719.1225,-722.3056"/>
<ellipse fill="none" stroke="#000000" cx="715.9714" cy="-721.7478" rx="3.2" ry="3.2"/>
</g>
</g>
</svg>
