<?xml version="1.0" encoding="UTF-8" standalone="no"?>
<!DOCTYPE svg PUBLIC "-//W3C//DTD SVG 1.1//EN"
 "http://www.w3.org/Graphics/SVG/1.1/DTD/svg11.dtd">
<!-- Generated by graphviz version 2.40.1 (20161225.0304)
 -->
<!-- Title: oneDegreeRelationshipsDiagram Pages: 1 -->
<svg width="868pt" height="427pt"
 viewBox="0.00 0.00 868.00 427.20" xmlns="http://www.w3.org/2000/svg" xmlns:xlink="http://www.w3.org/1999/xlink">
<g id="graph0" class="graph" transform="scale(1 1) rotate(0) translate(4 423.2)">
<title>oneDegreeRelationshipsDiagram</title>
<polygon fill="#ffffff" stroke="transparent" points="-4,4 -4,-423.2 864,-423.2 864,4 -4,4"/>
<text text-anchor="middle" x="72.4936" y="-7.3" font-family="Helvetica,sans-Serif" font-size="11.00" fill="#000000">Generated by SchemaSpy</text>
<!-- CLONE_FORMS_ISOFORM_REGIONS -->
<g id="node1" class="node">
<title>CLONE_FORMS_ISOFORM_REGIONS</title>
<g id="a_node1"><a xlink:href="../../tables/CLONE_FORMS_ISOFORM_REGIONS.html" xlink:title="CLONE_FORMS_ISOFORM_REGIONS" target="_top">
<polygon fill="#ffffff" stroke="transparent" points="593,-288.2 593,-415.2 848,-415.2 848,-288.2 593,-288.2"/>
<polygon fill="#f5f5f5" stroke="transparent" points="593.5,-391.7 593.5,-414.7 848.5,-414.7 848.5,-391.7 593.5,-391.7"/>
<polygon fill="none" stroke="#000000" points="593.5,-391.7 593.5,-414.7 848.5,-414.7 848.5,-391.7 593.5,-391.7"/>
<text text-anchor="start" x="598.5" y="-400.8" font-family="Helvetica,sans-Serif" font-weight="bold" font-size="11.00" fill="#000000">CLONE_FORMS_ISOFORM_REGIONS</text>
<text text-anchor="start" x="813.5437" y="-399.8" font-family="Helvetica,sans-Serif" font-size="11.00" fill="#000000">[table]</text>
<polygon fill="none" stroke="#000000" points="593.5,-369.7 593.5,-391.7 848.5,-391.7 848.5,-369.7 593.5,-369.7"/>
<image xlink:href="../../images/primaryKeys.png" width="11px" height="12px" preserveAspectRatio="xMinYMin meet" x="598.5" y="-386.7"/>
<text text-anchor="start" x="613.5" y="-376.8" font-family="Helvetica,sans-Serif" font-size="11.00" fill="#000000">ID</text>
<polygon fill="none" stroke="#000000" points="593.5,-347.7 593.5,-369.7 848.5,-369.7 848.5,-347.7 593.5,-347.7"/>
<image xlink:href="../../images/primaryKeys.png" width="11px" height="12px" preserveAspectRatio="xMinYMin meet" x="598.5" y="-364.7"/>
<text text-anchor="start" x="613.5" y="-354.8" font-family="Helvetica,sans-Serif" font-size="11.00" fill="#000000">CLONE_FORM_ID</text>
<polygon fill="none" stroke="#000000" points="593.5,-325.7 593.5,-347.7 848.5,-347.7 848.5,-325.7 593.5,-325.7"/>
<image xlink:href="../../images/primaryKeys.png" width="11px" height="12px" preserveAspectRatio="xMinYMin meet" x="598.5" y="-342.7"/>
<text text-anchor="start" x="613.5" y="-332.8" font-family="Helvetica,sans-Serif" font-size="11.00" fill="#000000">ISOFORM_REGION_ID</text>
<polygon fill="none" stroke="#000000" points="593.5,-306.7 593.5,-325.7 848.5,-325.7 848.5,-306.7 593.5,-306.7"/>
<text text-anchor="start" x="596.5" y="-312.8" font-family="Helvetica,sans-Serif" font-size="11.00" fill="#000000">...</text>
<polygon fill="#ffffff" stroke="transparent" points="593.5,-287.7 593.5,-306.7 703.5,-306.7 703.5,-287.7 593.5,-287.7"/>
<polygon fill="none" stroke="#000000" points="593.5,-287.7 593.5,-306.7 703.5,-306.7 703.5,-287.7 593.5,-287.7"/>
<text text-anchor="start" x="596.5" y="-293.8" font-family="Helvetica,sans-Serif" font-size="11.00" fill="#000000">&lt; 2</text>
<polygon fill="#ffffff" stroke="transparent" points="703.5,-287.7 703.5,-306.7 791.5,-306.7 791.5,-287.7 703.5,-287.7"/>
<polygon fill="none" stroke="#000000" points="703.5,-287.7 703.5,-306.7 791.5,-306.7 791.5,-287.7 703.5,-287.7"/>
<text text-anchor="start" x="749.9956" y="-293.8" font-family="Helvetica,sans-Serif" font-size="11.00" fill="#000000">73 rows</text>
<polygon fill="#ffffff" stroke="transparent" points="791.5,-287.7 791.5,-306.7 848.5,-306.7 848.5,-287.7 791.5,-287.7"/>
<polygon fill="none" stroke="#000000" points="791.5,-287.7 791.5,-306.7 848.5,-306.7 848.5,-287.7 791.5,-287.7"/>
<text text-anchor="start" x="839.3862" y="-293.8" font-family="Helvetica,sans-Serif" font-size="11.00" fill="#000000"> &#160;</text>
</a>
</g>
</g>
<!-- ISOFORM_REGIONS -->
<g id="node2" class="node">
<title>ISOFORM_REGIONS</title>
<g id="a_node2"><a xlink:href="../../tables/ISOFORM_REGIONS.html" xlink:title="ISOFORM_REGIONS" target="_top">
<polygon fill="#ffffff" stroke="transparent" points="215,-76.7 215,-298.7 540,-298.7 540,-76.7 215,-76.7"/>
<polygon fill="#f5f5f5" stroke="transparent" points="217.5,-273.7 217.5,-296.7 538.5,-296.7 538.5,-273.7 217.5,-273.7"/>
<polygon fill="none" stroke="#000000" points="217.5,-273.7 217.5,-296.7 538.5,-296.7 538.5,-273.7 217.5,-273.7"/>
<text text-anchor="start" x="222.5" y="-282.8" font-family="Helvetica,sans-Serif" font-weight="bold" font-size="11.00" fill="#000000">ISOFORM_REGIONS</text>
<text text-anchor="start" x="503.5437" y="-281.8" font-family="Helvetica,sans-Serif" font-size="11.00" fill="#000000">[table]</text>
<polygon fill="none" stroke="#000000" points="217.5,-251.7 217.5,-273.7 367.5,-273.7 367.5,-251.7 217.5,-251.7"/>
<image xlink:href="../../images/primaryKeys.png" width="11px" height="12px" preserveAspectRatio="xMinYMin meet" x="222.5" y="-268.7"/>
<text text-anchor="start" x="237.5" y="-258.8" font-family="Helvetica,sans-Serif" font-size="11.00" fill="#000000">ID</text>
<polygon fill="none" stroke="#000000" points="367.5,-251.7 367.5,-273.7 538.5,-273.7 538.5,-251.7 367.5,-251.7"/>
<text text-anchor="start" x="370.5" y="-259.4" font-family="Helvetica,sans-Serif" font-size="11.00" fill="#000000">number[19]</text>
<polygon fill="none" stroke="#000000" points="217.5,-229.7 217.5,-251.7 367.5,-251.7 367.5,-229.7 217.5,-229.7"/>
<text text-anchor="start" x="237.5" y="-236.8" font-family="Helvetica,sans-Serif" font-size="11.00" fill="#000000">CREATED_AT</text>
<polygon fill="none" stroke="#000000" points="367.5,-229.7 367.5,-251.7 538.5,-251.7 538.5,-229.7 367.5,-229.7"/>
<text text-anchor="start" x="370.4896" y="-237.4" font-family="Helvetica,sans-Serif" font-size="11.00" fill="#000000">timestamp(6) with time zone[13,6]</text>
<polygon fill="none" stroke="#000000" points="217.5,-207.7 217.5,-229.7 367.5,-229.7 367.5,-207.7 217.5,-207.7"/>
<text text-anchor="start" x="237.5" y="-214.8" font-family="Helvetica,sans-Serif" font-size="11.00" fill="#000000">CREATED_BY</text>
<polygon fill="none" stroke="#000000" points="367.5,-207.7 367.5,-229.7 538.5,-229.7 538.5,-207.7 367.5,-207.7"/>
<text text-anchor="start" x="370.5" y="-215.4" font-family="Helvetica,sans-Serif" font-size="11.00" fill="#000000">number[19]</text>
<polygon fill="none" stroke="#000000" points="217.5,-185.7 217.5,-207.7 367.5,-207.7 367.5,-185.7 217.5,-185.7"/>
<text text-anchor="start" x="237.5" y="-192.8" font-family="Helvetica,sans-Serif" font-size="11.00" fill="#000000">UPDATED_AT</text>
<polygon fill="none" stroke="#000000" points="367.5,-185.7 367.5,-207.7 538.5,-207.7 538.5,-185.7 367.5,-185.7"/>
<text text-anchor="start" x="370.4896" y="-193.4" font-family="Helvetica,sans-Serif" font-size="11.00" fill="#000000">timestamp(6) with time zone[13,6]</text>
<polygon fill="none" stroke="#000000" points="217.5,-163.7 217.5,-185.7 367.5,-185.7 367.5,-163.7 217.5,-163.7"/>
<text text-anchor="start" x="237.5" y="-170.8" font-family="Helvetica,sans-Serif" font-size="11.00" fill="#000000">UPDATED_BY</text>
<polygon fill="none" stroke="#000000" points="367.5,-163.7 367.5,-185.7 538.5,-185.7 538.5,-163.7 367.5,-163.7"/>
<text text-anchor="start" x="370.5" y="-171.4" font-family="Helvetica,sans-Serif" font-size="11.00" fill="#000000">number[19]</text>
<polygon fill="none" stroke="#000000" points="217.5,-141.7 217.5,-163.7 367.5,-163.7 367.5,-141.7 217.5,-141.7"/>
<text text-anchor="start" x="237.5" y="-148.8" font-family="Helvetica,sans-Serif" font-size="11.00" fill="#000000">COLOR</text>
<polygon fill="none" stroke="#000000" points="367.5,-141.7 367.5,-163.7 538.5,-163.7 538.5,-141.7 367.5,-141.7"/>
<text text-anchor="start" x="370.5" y="-149.4" font-family="Helvetica,sans-Serif" font-size="11.00" fill="#000000">varchar2[255]</text>
<polygon fill="none" stroke="#000000" points="217.5,-119.7 217.5,-141.7 367.5,-141.7 367.5,-119.7 217.5,-119.7"/>
<text text-anchor="start" x="237.5" y="-126.8" font-family="Helvetica,sans-Serif" font-size="11.00" fill="#000000">TITLE</text>
<polygon fill="none" stroke="#000000" points="367.5,-119.7 367.5,-141.7 538.5,-141.7 538.5,-119.7 367.5,-119.7"/>
<text text-anchor="start" x="370.5" y="-127.4" font-family="Helvetica,sans-Serif" font-size="11.00" fill="#000000">varchar2[255]</text>
<polygon fill="none" stroke="#000000" points="217.5,-97.7 217.5,-119.7 367.5,-119.7 367.5,-97.7 217.5,-97.7"/>
<image xlink:href="../../images/foreignKeys.png" width="11px" height="12px" preserveAspectRatio="xMinYMin meet" x="222.5" y="-114.7"/>
<text text-anchor="start" x="237.5" y="-104.8" font-family="Helvetica,sans-Serif" font-size="11.00" fill="#000000">ISOFORM_ID</text>
<polygon fill="none" stroke="#000000" points="367.5,-97.7 367.5,-119.7 538.5,-119.7 538.5,-97.7 367.5,-97.7"/>
<text text-anchor="start" x="370.5" y="-105.4" font-family="Helvetica,sans-Serif" font-size="11.00" fill="#000000">number[19]</text>
<polygon fill="#ffffff" stroke="transparent" points="217.5,-78.7 217.5,-97.7 277.5,-97.7 277.5,-78.7 217.5,-78.7"/>
<polygon fill="none" stroke="#000000" points="217.5,-78.7 217.5,-97.7 277.5,-97.7 277.5,-78.7 217.5,-78.7"/>
<text text-anchor="start" x="220.5" y="-84.8" font-family="Helvetica,sans-Serif" font-size="11.00" fill="#000000">&lt; 1</text>
<polygon fill="#ffffff" stroke="transparent" points="277.5,-78.7 277.5,-97.7 367.5,-97.7 367.5,-78.7 277.5,-78.7"/>
<polygon fill="none" stroke="#000000" points="277.5,-78.7 277.5,-97.7 367.5,-97.7 367.5,-78.7 277.5,-78.7"/>
<text text-anchor="start" x="319.8807" y="-84.8" font-family="Helvetica,sans-Serif" font-size="11.00" fill="#000000">199 rows</text>
<polygon fill="#ffffff" stroke="transparent" points="367.5,-78.7 367.5,-97.7 538.5,-97.7 538.5,-78.7 367.5,-78.7"/>
<polygon fill="none" stroke="#000000" points="367.5,-78.7 367.5,-97.7 538.5,-97.7 538.5,-78.7 367.5,-78.7"/>
<text text-anchor="start" x="519.9053" y="-84.8" font-family="Helvetica,sans-Serif" font-size="11.00" fill="#000000">2 &gt;</text>
<polygon fill="none" stroke="#000000" stroke-width="2" points="216,-77.7 216,-297.7 539,-297.7 539,-77.7 216,-77.7"/>
</a>
</g>
</g>
<!-- CLONE_FORMS_ISOFORM_REGIONS&#45;&gt;ISOFORM_REGIONS -->
<g id="edge1" class="edge">
<title>CLONE_FORMS_ISOFORM_REGIONS:w&#45;&gt;ISOFORM_REGIONS:e</title>
<path fill="none" stroke="#000000" d="M579.5792,-332.5094C558.8948,-316.8552 573.5555,-262.7 538.5,-262.7"/>
<polygon fill="#000000" stroke="#000000" points="585.8396,-334.3939 592.4623,-340.1472 589.6698,-335.547 593.5,-336.7 593.5,-336.7 593.5,-336.7 589.6698,-335.547 594.5377,-333.2528 585.8396,-334.3939 585.8396,-334.3939"/>
<ellipse fill="none" stroke="#000000" cx="582.7754" cy="-333.4715" rx="3.2" ry="3.2"/>
</g>
<!-- ISOFORMS -->
<g id="node3" class="node">
<title>ISOFORMS</title>
<g id="a_node3"><a xlink:href="../../tables/ISOFORMS.html" xlink:title="ISOFORMS" target="_top">
<polygon fill="#ffffff" stroke="transparent" points="8,-38.2 8,-143.2 166,-143.2 166,-38.2 8,-38.2"/>
<polygon fill="#f5f5f5" stroke="transparent" points="8,-119.7 8,-142.7 166,-142.7 166,-119.7 8,-119.7"/>
<polygon fill="none" stroke="#000000" points="8,-119.7 8,-142.7 166,-142.7 166,-119.7 8,-119.7"/>
<text text-anchor="start" x="13" y="-128.8" font-family="Helvetica,sans-Serif" font-weight="bold" font-size="11.00" fill="#000000">ISOFORMS</text>
<text text-anchor="start" x="131.0437" y="-127.8" font-family="Helvetica,sans-Serif" font-size="11.00" fill="#000000">[table]</text>
<polygon fill="none" stroke="#000000" points="8,-97.7 8,-119.7 166,-119.7 166,-97.7 8,-97.7"/>
<image xlink:href="../../images/primaryKeys.png" width="11px" height="12px" preserveAspectRatio="xMinYMin meet" x="13" y="-114.7"/>
<text text-anchor="start" x="28" y="-104.8" font-family="Helvetica,sans-Serif" font-size="11.00" fill="#000000">ID</text>
<polygon fill="none" stroke="#000000" points="8,-75.7 8,-97.7 166,-97.7 166,-75.7 8,-75.7"/>
<image xlink:href="../../images/foreignKeys.png" width="11px" height="12px" preserveAspectRatio="xMinYMin meet" x="13" y="-92.7"/>
<text text-anchor="start" x="28" y="-82.8" font-family="Helvetica,sans-Serif" font-size="11.00" fill="#000000">TARGET_ID</text>
<polygon fill="none" stroke="#000000" points="8,-56.7 8,-75.7 166,-75.7 166,-56.7 8,-56.7"/>
<text text-anchor="start" x="11" y="-62.8" font-family="Helvetica,sans-Serif" font-size="11.00" fill="#000000">...</text>
<polygon fill="#ffffff" stroke="transparent" points="8,-37.7 8,-56.7 59,-56.7 59,-37.7 8,-37.7"/>
<polygon fill="none" stroke="#000000" points="8,-37.7 8,-56.7 59,-56.7 59,-37.7 8,-37.7"/>
<text text-anchor="start" x="11" y="-43.8" font-family="Helvetica,sans-Serif" font-size="11.00" fill="#000000">&lt; 1</text>
<polygon fill="#ffffff" stroke="transparent" points="59,-37.7 59,-56.7 124,-56.7 124,-37.7 59,-37.7"/>
<polygon fill="none" stroke="#000000" points="59,-37.7 59,-56.7 124,-56.7 124,-37.7 59,-37.7"/>
<text text-anchor="start" x="76.3807" y="-43.8" font-family="Helvetica,sans-Serif" font-size="11.00" fill="#000000">519 rows</text>
<polygon fill="#ffffff" stroke="transparent" points="124,-37.7 124,-56.7 166,-56.7 166,-37.7 124,-37.7"/>
<polygon fill="none" stroke="#000000" points="124,-37.7 124,-56.7 166,-56.7 166,-37.7 124,-37.7"/>
<text text-anchor="start" x="141.2904" y="-43.8" font-family="Helvetica,sans-Serif" font-size="11.00" fill="#000000">10 &gt;</text>
</a>
</g>
</g>
<!-- ISOFORM_REGIONS&#45;&gt;ISOFORMS -->
<g id="edge2" class="edge">
<title>ISOFORM_REGIONS:w&#45;&gt;ISOFORMS:e</title>
<path fill="none" stroke="#000000" d="M203.0156,-108.7C190.6771,-108.7 183.1667,-108.7 166,-108.7"/>
<polygon fill="#000000" stroke="#000000" points="209.5,-108.7001 217.5,-112.3 213.5,-108.7 217.5,-108.7 217.5,-108.7 217.5,-108.7 213.5,-108.7 217.5,-105.1 209.5,-108.7001 209.5,-108.7001"/>
<ellipse fill="none" stroke="#000000" cx="206.3" cy="-108.7001" rx="3.2" ry="3.2"/>
</g>
<!-- TARGET_FORMS_ISOFORM_REGIONS -->
<g id="node4" class="node">
<title>TARGET_FORMS_ISOFORM_REGIONS</title>
<g id="a_node4"><a xlink:href="../../tables/TARGET_FORMS_ISOFORM_REGIONS.html" xlink:title="TARGET_FORMS_ISOFORM_REGIONS" target="_top">
<polygon fill="#ffffff" stroke="transparent" points="589,-140.2 589,-267.2 852,-267.2 852,-140.2 589,-140.2"/>
<polygon fill="#f5f5f5" stroke="transparent" points="589.5,-243.7 589.5,-266.7 852.5,-266.7 852.5,-243.7 589.5,-243.7"/>
<polygon fill="none" stroke="#000000" points="589.5,-243.7 589.5,-266.7 852.5,-266.7 852.5,-243.7 589.5,-243.7"/>
<text text-anchor="start" x="594.5" y="-252.8" font-family="Helvetica,sans-Serif" font-weight="bold" font-size="11.00" fill="#000000">TARGET_FORMS_ISOFORM_REGIONS</text>
<text text-anchor="start" x="817.5437" y="-251.8" font-family="Helvetica,sans-Serif" font-size="11.00" fill="#000000">[table]</text>
<polygon fill="none" stroke="#000000" points="589.5,-221.7 589.5,-243.7 852.5,-243.7 852.5,-221.7 589.5,-221.7"/>
<image xlink:href="../../images/primaryKeys.png" width="11px" height="12px" preserveAspectRatio="xMinYMin meet" x="594.5" y="-238.7"/>
<text text-anchor="start" x="609.5" y="-228.8" font-family="Helvetica,sans-Serif" font-size="11.00" fill="#000000">ID</text>
<polygon fill="none" stroke="#000000" points="589.5,-199.7 589.5,-221.7 852.5,-221.7 852.5,-199.7 589.5,-199.7"/>
<image xlink:href="../../images/primaryKeys.png" width="11px" height="12px" preserveAspectRatio="xMinYMin meet" x="594.5" y="-216.7"/>
<text text-anchor="start" x="609.5" y="-206.8" font-family="Helvetica,sans-Serif" font-size="11.00" fill="#000000">TARGET_FORM_ID</text>
<polygon fill="none" stroke="#000000" points="589.5,-177.7 589.5,-199.7 852.5,-199.7 852.5,-177.7 589.5,-177.7"/>
<image xlink:href="../../images/primaryKeys.png" width="11px" height="12px" preserveAspectRatio="xMinYMin meet" x="594.5" y="-194.7"/>
<text text-anchor="start" x="609.5" y="-184.8" font-family="Helvetica,sans-Serif" font-size="11.00" fill="#000000">ISOFORM_REGION_ID</text>
<polygon fill="none" stroke="#000000" points="589.5,-158.7 589.5,-177.7 852.5,-177.7 852.5,-158.7 589.5,-158.7"/>
<text text-anchor="start" x="592.5" y="-164.8" font-family="Helvetica,sans-Serif" font-size="11.00" fill="#000000">...</text>
<polygon fill="#ffffff" stroke="transparent" points="589.5,-139.7 589.5,-158.7 700.5,-158.7 700.5,-139.7 589.5,-139.7"/>
<polygon fill="none" stroke="#000000" points="589.5,-139.7 589.5,-158.7 700.5,-158.7 700.5,-139.7 589.5,-139.7"/>
<text text-anchor="start" x="592.5" y="-145.8" font-family="Helvetica,sans-Serif" font-size="11.00" fill="#000000">&lt; 2</text>
<polygon fill="#ffffff" stroke="transparent" points="700.5,-139.7 700.5,-158.7 795.5,-158.7 795.5,-139.7 700.5,-139.7"/>
<polygon fill="none" stroke="#000000" points="700.5,-139.7 700.5,-158.7 795.5,-158.7 795.5,-139.7 700.5,-139.7"/>
<text text-anchor="start" x="747.8807" y="-145.8" font-family="Helvetica,sans-Serif" font-size="11.00" fill="#000000">153 rows</text>
<polygon fill="#ffffff" stroke="transparent" points="795.5,-139.7 795.5,-158.7 852.5,-158.7 852.5,-139.7 795.5,-139.7"/>
<polygon fill="none" stroke="#000000" points="795.5,-139.7 795.5,-158.7 852.5,-158.7 852.5,-139.7 795.5,-139.7"/>
<text text-anchor="start" x="843.3862" y="-145.8" font-family="Helvetica,sans-Serif" font-size="11.00" fill="#000000"> &#160;</text>
</a>
</g>
</g>
<!-- TARGET_FORMS_ISOFORM_REGIONS&#45;&gt;ISOFORM_REGIONS -->
<g id="edge3" class="edge">
<title>TARGET_FORMS_ISOFORM_REGIONS:w&#45;&gt;ISOFORM_REGIONS:e</title>
<path fill="none" stroke="#000000" d="M575.5503,-193.329C556.7607,-209.5294 572.3581,-262.7 538.5,-262.7"/>
<polygon fill="#000000" stroke="#000000" points="581.9071,-191.2196 590.6338,-192.1168 585.7036,-189.9598 589.5,-188.7 589.5,-188.7 589.5,-188.7 585.7036,-189.9598 588.3662,-185.2832 581.9071,-191.2196 581.9071,-191.2196"/>
<ellipse fill="none" stroke="#000000" cx="578.87" cy="-192.2275" rx="3.2" ry="3.2"/>
</g>
</g>
</svg>
