<?xml version="1.0" encoding="UTF-8" standalone="no"?>
<!DOCTYPE svg PUBLIC "-//W3C//DTD SVG 1.1//EN"
 "http://www.w3.org/Graphics/SVG/1.1/DTD/svg11.dtd">
<!-- Generated by graphviz version 2.40.1 (20161225.0304)
 -->
<!-- Title: oneDegreeRelationshipsDiagram Pages: 1 -->
<svg width="944pt" height="507pt"
 viewBox="0.00 0.00 944.00 506.70" xmlns="http://www.w3.org/2000/svg" xmlns:xlink="http://www.w3.org/1999/xlink">
<g id="graph0" class="graph" transform="scale(1 1) rotate(0) translate(4 502.7)">
<title>oneDegreeRelationshipsDiagram</title>
<polygon fill="#ffffff" stroke="transparent" points="-4,4 -4,-502.7 940,-502.7 940,4 -4,4"/>
<text text-anchor="middle" x="72.4936" y="-7.3" font-family="Helvetica,sans-Serif" font-size="11.00" fill="#000000">Generated by SchemaSpy</text>
<!-- CLONE_FORMS_ISOFORM_ANNOTATIONS -->
<g id="node1" class="node">
<title>CLONE_FORMS_ISOFORM_ANNOTATIONS</title>
<g id="a_node1"><a xlink:href="../../tables/CLONE_FORMS_ISOFORM_ANNOTATIONS.html" xlink:title="CLONE_FORMS_ISOFORM_ANNOTATIONS" target="_top">
<polygon fill="#ffffff" stroke="transparent" points="631,-367.7 631,-494.7 924,-494.7 924,-367.7 631,-367.7"/>
<polygon fill="#f5f5f5" stroke="transparent" points="631.5,-471.2 631.5,-494.2 924.5,-494.2 924.5,-471.2 631.5,-471.2"/>
<polygon fill="none" stroke="#000000" points="631.5,-471.2 631.5,-494.2 924.5,-494.2 924.5,-471.2 631.5,-471.2"/>
<text text-anchor="start" x="636.5" y="-480.3" font-family="Helvetica,sans-Serif" font-weight="bold" font-size="11.00" fill="#000000">CLONE_FORMS_ISOFORM_ANNOTATIONS</text>
<text text-anchor="start" x="889.5437" y="-479.3" font-family="Helvetica,sans-Serif" font-size="11.00" fill="#000000">[table]</text>
<polygon fill="none" stroke="#000000" points="631.5,-449.2 631.5,-471.2 924.5,-471.2 924.5,-449.2 631.5,-449.2"/>
<image xlink:href="../../images/primaryKeys.png" width="11px" height="12px" preserveAspectRatio="xMinYMin meet" x="636.5" y="-466.2"/>
<text text-anchor="start" x="651.5" y="-456.3" font-family="Helvetica,sans-Serif" font-size="11.00" fill="#000000">ID</text>
<polygon fill="none" stroke="#000000" points="631.5,-427.2 631.5,-449.2 924.5,-449.2 924.5,-427.2 631.5,-427.2"/>
<image xlink:href="../../images/primaryKeys.png" width="11px" height="12px" preserveAspectRatio="xMinYMin meet" x="636.5" y="-444.2"/>
<text text-anchor="start" x="651.5" y="-434.3" font-family="Helvetica,sans-Serif" font-size="11.00" fill="#000000">CLONE_FORM_ID</text>
<polygon fill="none" stroke="#000000" points="631.5,-405.2 631.5,-427.2 924.5,-427.2 924.5,-405.2 631.5,-405.2"/>
<image xlink:href="../../images/primaryKeys.png" width="11px" height="12px" preserveAspectRatio="xMinYMin meet" x="636.5" y="-422.2"/>
<text text-anchor="start" x="651.5" y="-412.3" font-family="Helvetica,sans-Serif" font-size="11.00" fill="#000000">ISOFORM_ANNOTATION_ID</text>
<polygon fill="none" stroke="#000000" points="631.5,-386.2 631.5,-405.2 924.5,-405.2 924.5,-386.2 631.5,-386.2"/>
<text text-anchor="start" x="634.5" y="-392.3" font-family="Helvetica,sans-Serif" font-size="11.00" fill="#000000">...</text>
<polygon fill="#ffffff" stroke="transparent" points="631.5,-367.2 631.5,-386.2 763.5,-386.2 763.5,-367.2 631.5,-367.2"/>
<polygon fill="none" stroke="#000000" points="631.5,-367.2 631.5,-386.2 763.5,-386.2 763.5,-367.2 631.5,-367.2"/>
<text text-anchor="start" x="634.5" y="-373.3" font-family="Helvetica,sans-Serif" font-size="11.00" fill="#000000">&lt; 2</text>
<polygon fill="#ffffff" stroke="transparent" points="763.5,-367.2 763.5,-386.2 856.5,-386.2 856.5,-367.2 763.5,-367.2"/>
<polygon fill="none" stroke="#000000" points="763.5,-367.2 763.5,-386.2 856.5,-386.2 856.5,-367.2 763.5,-367.2"/>
<text text-anchor="start" x="821.1105" y="-373.3" font-family="Helvetica,sans-Serif" font-size="11.00" fill="#000000">2 rows</text>
<polygon fill="#ffffff" stroke="transparent" points="856.5,-367.2 856.5,-386.2 924.5,-386.2 924.5,-367.2 856.5,-367.2"/>
<polygon fill="none" stroke="#000000" points="856.5,-367.2 856.5,-386.2 924.5,-386.2 924.5,-367.2 856.5,-367.2"/>
<text text-anchor="start" x="915.3862" y="-373.3" font-family="Helvetica,sans-Serif" font-size="11.00" fill="#000000"> &#160;</text>
</a>
</g>
</g>
<!-- ISOFORM_ANNOTATIONS -->
<g id="node2" class="node">
<title>ISOFORM_ANNOTATIONS</title>
<g id="a_node2"><a xlink:href="../../tables/ISOFORM_ANNOTATIONS.html" xlink:title="ISOFORM_ANNOTATIONS" target="_top">
<polygon fill="#ffffff" stroke="transparent" points="215,-38.2 215,-326.2 578,-326.2 578,-38.2 215,-38.2"/>
<polygon fill="#f5f5f5" stroke="transparent" points="217.5,-301.2 217.5,-324.2 576.5,-324.2 576.5,-301.2 217.5,-301.2"/>
<polygon fill="none" stroke="#000000" points="217.5,-301.2 217.5,-324.2 576.5,-324.2 576.5,-301.2 217.5,-301.2"/>
<text text-anchor="start" x="222.5" y="-310.3" font-family="Helvetica,sans-Serif" font-weight="bold" font-size="11.00" fill="#000000">ISOFORM_ANNOTATIONS</text>
<text text-anchor="start" x="541.5437" y="-309.3" font-family="Helvetica,sans-Serif" font-size="11.00" fill="#000000">[table]</text>
<polygon fill="none" stroke="#000000" points="217.5,-279.2 217.5,-301.2 405.5,-301.2 405.5,-279.2 217.5,-279.2"/>
<image xlink:href="../../images/primaryKeys.png" width="11px" height="12px" preserveAspectRatio="xMinYMin meet" x="222.5" y="-296.2"/>
<text text-anchor="start" x="237.5" y="-286.3" font-family="Helvetica,sans-Serif" font-size="11.00" fill="#000000">ID</text>
<polygon fill="none" stroke="#000000" points="405.5,-279.2 405.5,-301.2 576.5,-301.2 576.5,-279.2 405.5,-279.2"/>
<text text-anchor="start" x="408.5" y="-286.9" font-family="Helvetica,sans-Serif" font-size="11.00" fill="#000000">number[19]</text>
<polygon fill="none" stroke="#000000" points="217.5,-257.2 217.5,-279.2 405.5,-279.2 405.5,-257.2 217.5,-257.2"/>
<text text-anchor="start" x="237.5" y="-264.3" font-family="Helvetica,sans-Serif" font-size="11.00" fill="#000000">CREATED_AT</text>
<polygon fill="none" stroke="#000000" points="405.5,-257.2 405.5,-279.2 576.5,-279.2 576.5,-257.2 405.5,-257.2"/>
<text text-anchor="start" x="408.4896" y="-264.9" font-family="Helvetica,sans-Serif" font-size="11.00" fill="#000000">timestamp(6) with time zone[13,6]</text>
<polygon fill="none" stroke="#000000" points="217.5,-235.2 217.5,-257.2 405.5,-257.2 405.5,-235.2 217.5,-235.2"/>
<text text-anchor="start" x="237.5" y="-242.3" font-family="Helvetica,sans-Serif" font-size="11.00" fill="#000000">CREATED_BY</text>
<polygon fill="none" stroke="#000000" points="405.5,-235.2 405.5,-257.2 576.5,-257.2 576.5,-235.2 405.5,-235.2"/>
<text text-anchor="start" x="408.5" y="-242.9" font-family="Helvetica,sans-Serif" font-size="11.00" fill="#000000">number[19]</text>
<polygon fill="none" stroke="#000000" points="217.5,-213.2 217.5,-235.2 405.5,-235.2 405.5,-213.2 217.5,-213.2"/>
<text text-anchor="start" x="237.5" y="-220.3" font-family="Helvetica,sans-Serif" font-size="11.00" fill="#000000">UPDATED_AT</text>
<polygon fill="none" stroke="#000000" points="405.5,-213.2 405.5,-235.2 576.5,-235.2 576.5,-213.2 405.5,-213.2"/>
<text text-anchor="start" x="408.4896" y="-220.9" font-family="Helvetica,sans-Serif" font-size="11.00" fill="#000000">timestamp(6) with time zone[13,6]</text>
<polygon fill="none" stroke="#000000" points="217.5,-191.2 217.5,-213.2 405.5,-213.2 405.5,-191.2 217.5,-191.2"/>
<text text-anchor="start" x="237.5" y="-198.3" font-family="Helvetica,sans-Serif" font-size="11.00" fill="#000000">UPDATED_BY</text>
<polygon fill="none" stroke="#000000" points="405.5,-191.2 405.5,-213.2 576.5,-213.2 576.5,-191.2 405.5,-191.2"/>
<text text-anchor="start" x="408.5" y="-198.9" font-family="Helvetica,sans-Serif" font-size="11.00" fill="#000000">number[19]</text>
<polygon fill="none" stroke="#000000" points="217.5,-169.2 217.5,-191.2 405.5,-191.2 405.5,-169.2 217.5,-169.2"/>
<text text-anchor="start" x="237.5" y="-176.3" font-family="Helvetica,sans-Serif" font-size="11.00" fill="#000000">COLOR</text>
<polygon fill="none" stroke="#000000" points="405.5,-169.2 405.5,-191.2 576.5,-191.2 576.5,-169.2 405.5,-169.2"/>
<text text-anchor="start" x="408.5" y="-176.9" font-family="Helvetica,sans-Serif" font-size="11.00" fill="#000000">varchar2[255]</text>
<polygon fill="none" stroke="#000000" points="217.5,-147.2 217.5,-169.2 405.5,-169.2 405.5,-147.2 217.5,-147.2"/>
<text text-anchor="start" x="237.5" y="-154.3" font-family="Helvetica,sans-Serif" font-size="11.00" fill="#000000">DESCRIPTION</text>
<polygon fill="none" stroke="#000000" points="405.5,-147.2 405.5,-169.2 576.5,-169.2 576.5,-147.2 405.5,-147.2"/>
<text text-anchor="start" x="408.5" y="-154.9" font-family="Helvetica,sans-Serif" font-size="11.00" fill="#000000">clob[4000]</text>
<polygon fill="none" stroke="#000000" points="217.5,-125.2 217.5,-147.2 405.5,-147.2 405.5,-125.2 217.5,-125.2"/>
<text text-anchor="start" x="237.5" y="-132.3" font-family="Helvetica,sans-Serif" font-size="11.00" fill="#000000">END_RANGE</text>
<polygon fill="none" stroke="#000000" points="405.5,-125.2 405.5,-147.2 576.5,-147.2 576.5,-125.2 405.5,-125.2"/>
<text text-anchor="start" x="408.5" y="-132.9" font-family="Helvetica,sans-Serif" font-size="11.00" fill="#000000">number[19]</text>
<polygon fill="none" stroke="#000000" points="217.5,-103.2 217.5,-125.2 405.5,-125.2 405.5,-103.2 217.5,-103.2"/>
<image xlink:href="../../images/foreignKeys.png" width="11px" height="12px" preserveAspectRatio="xMinYMin meet" x="222.5" y="-120.2"/>
<text text-anchor="start" x="237.5" y="-110.3" font-family="Helvetica,sans-Serif" font-size="11.00" fill="#000000">ISOFORM_ID</text>
<polygon fill="none" stroke="#000000" points="405.5,-103.2 405.5,-125.2 576.5,-125.2 576.5,-103.2 405.5,-103.2"/>
<text text-anchor="start" x="408.5" y="-110.9" font-family="Helvetica,sans-Serif" font-size="11.00" fill="#000000">number[19]</text>
<polygon fill="none" stroke="#000000" points="217.5,-81.2 217.5,-103.2 405.5,-103.2 405.5,-81.2 217.5,-81.2"/>
<text text-anchor="start" x="237.5" y="-88.3" font-family="Helvetica,sans-Serif" font-size="11.00" fill="#000000">START_RANGE</text>
<polygon fill="none" stroke="#000000" points="405.5,-81.2 405.5,-103.2 576.5,-103.2 576.5,-81.2 405.5,-81.2"/>
<text text-anchor="start" x="408.5" y="-88.9" font-family="Helvetica,sans-Serif" font-size="11.00" fill="#000000">number[19]</text>
<polygon fill="none" stroke="#000000" points="217.5,-59.2 217.5,-81.2 405.5,-81.2 405.5,-59.2 217.5,-59.2"/>
<text text-anchor="start" x="237.5" y="-66.3" font-family="Helvetica,sans-Serif" font-size="11.00" fill="#000000">TITLE</text>
<polygon fill="none" stroke="#000000" points="405.5,-59.2 405.5,-81.2 576.5,-81.2 576.5,-59.2 405.5,-59.2"/>
<text text-anchor="start" x="408.5" y="-66.9" font-family="Helvetica,sans-Serif" font-size="11.00" fill="#000000">varchar2[255]</text>
<polygon fill="#ffffff" stroke="transparent" points="217.5,-40.2 217.5,-59.2 302.5,-59.2 302.5,-40.2 217.5,-40.2"/>
<polygon fill="none" stroke="#000000" points="217.5,-40.2 217.5,-59.2 302.5,-59.2 302.5,-40.2 217.5,-40.2"/>
<text text-anchor="start" x="220.5" y="-46.3" font-family="Helvetica,sans-Serif" font-size="11.00" fill="#000000">&lt; 1</text>
<polygon fill="#ffffff" stroke="transparent" points="302.5,-40.2 302.5,-59.2 405.5,-59.2 405.5,-40.2 302.5,-40.2"/>
<polygon fill="none" stroke="#000000" points="302.5,-40.2 302.5,-59.2 405.5,-59.2 405.5,-40.2 302.5,-40.2"/>
<text text-anchor="start" x="370.1105" y="-46.3" font-family="Helvetica,sans-Serif" font-size="11.00" fill="#000000">9 rows</text>
<polygon fill="#ffffff" stroke="transparent" points="405.5,-40.2 405.5,-59.2 576.5,-59.2 576.5,-40.2 405.5,-40.2"/>
<polygon fill="none" stroke="#000000" points="405.5,-40.2 405.5,-59.2 576.5,-59.2 576.5,-40.2 405.5,-40.2"/>
<text text-anchor="start" x="557.9053" y="-46.3" font-family="Helvetica,sans-Serif" font-size="11.00" fill="#000000">3 &gt;</text>
<polygon fill="none" stroke="#000000" stroke-width="2" points="216,-39.2 216,-325.2 577,-325.2 577,-39.2 216,-39.2"/>
</a>
</g>
</g>
<!-- CLONE_FORMS_ISOFORM_ANNOTATIONS&#45;&gt;ISOFORM_ANNOTATIONS -->
<g id="edge1" class="edge">
<title>CLONE_FORMS_ISOFORM_ANNOTATIONS:w&#45;&gt;ISOFORM_ANNOTATIONS:e</title>
<path fill="none" stroke="#000000" d="M617.0308,-412.8298C582.2998,-392.7923 631.6356,-290.2 576.5,-290.2"/>
<polygon fill="#000000" stroke="#000000" points="623.7086,-414.3852 630.6833,-419.7061 627.6043,-415.2926 631.5,-416.2 631.5,-416.2 631.5,-416.2 627.6043,-415.2926 632.3167,-412.6939 623.7086,-414.3852 623.7086,-414.3852"/>
<ellipse fill="none" stroke="#000000" cx="620.592" cy="-413.6592" rx="3.2" ry="3.2"/>
</g>
<!-- ISOFORMS -->
<g id="node3" class="node">
<title>ISOFORMS</title>
<g id="a_node3"><a xlink:href="../../tables/ISOFORMS.html" xlink:title="ISOFORMS" target="_top">
<polygon fill="#ffffff" stroke="transparent" points="8,-43.7 8,-148.7 166,-148.7 166,-43.7 8,-43.7"/>
<polygon fill="#f5f5f5" stroke="transparent" points="8,-125.2 8,-148.2 166,-148.2 166,-125.2 8,-125.2"/>
<polygon fill="none" stroke="#000000" points="8,-125.2 8,-148.2 166,-148.2 166,-125.2 8,-125.2"/>
<text text-anchor="start" x="13" y="-134.3" font-family="Helvetica,sans-Serif" font-weight="bold" font-size="11.00" fill="#000000">ISOFORMS</text>
<text text-anchor="start" x="131.0437" y="-133.3" font-family="Helvetica,sans-Serif" font-size="11.00" fill="#000000">[table]</text>
<polygon fill="none" stroke="#000000" points="8,-103.2 8,-125.2 166,-125.2 166,-103.2 8,-103.2"/>
<image xlink:href="../../images/primaryKeys.png" width="11px" height="12px" preserveAspectRatio="xMinYMin meet" x="13" y="-120.2"/>
<text text-anchor="start" x="28" y="-110.3" font-family="Helvetica,sans-Serif" font-size="11.00" fill="#000000">ID</text>
<polygon fill="none" stroke="#000000" points="8,-81.2 8,-103.2 166,-103.2 166,-81.2 8,-81.2"/>
<image xlink:href="../../images/foreignKeys.png" width="11px" height="12px" preserveAspectRatio="xMinYMin meet" x="13" y="-98.2"/>
<text text-anchor="start" x="28" y="-88.3" font-family="Helvetica,sans-Serif" font-size="11.00" fill="#000000">TARGET_ID</text>
<polygon fill="none" stroke="#000000" points="8,-62.2 8,-81.2 166,-81.2 166,-62.2 8,-62.2"/>
<text text-anchor="start" x="11" y="-68.3" font-family="Helvetica,sans-Serif" font-size="11.00" fill="#000000">...</text>
<polygon fill="#ffffff" stroke="transparent" points="8,-43.2 8,-62.2 59,-62.2 59,-43.2 8,-43.2"/>
<polygon fill="none" stroke="#000000" points="8,-43.2 8,-62.2 59,-62.2 59,-43.2 8,-43.2"/>
<text text-anchor="start" x="11" y="-49.3" font-family="Helvetica,sans-Serif" font-size="11.00" fill="#000000">&lt; 1</text>
<polygon fill="#ffffff" stroke="transparent" points="59,-43.2 59,-62.2 124,-62.2 124,-43.2 59,-43.2"/>
<polygon fill="none" stroke="#000000" points="59,-43.2 59,-62.2 124,-62.2 124,-43.2 59,-43.2"/>
<text text-anchor="start" x="76.3807" y="-49.3" font-family="Helvetica,sans-Serif" font-size="11.00" fill="#000000">519 rows</text>
<polygon fill="#ffffff" stroke="transparent" points="124,-43.2 124,-62.2 166,-62.2 166,-43.2 124,-43.2"/>
<polygon fill="none" stroke="#000000" points="124,-43.2 124,-62.2 166,-62.2 166,-43.2 124,-43.2"/>
<text text-anchor="start" x="141.2904" y="-49.3" font-family="Helvetica,sans-Serif" font-size="11.00" fill="#000000">10 &gt;</text>
</a>
</g>
</g>
<!-- ISOFORM_ANNOTATIONS&#45;&gt;ISOFORMS -->
<g id="edge2" class="edge">
<title>ISOFORM_ANNOTATIONS:w&#45;&gt;ISOFORMS:e</title>
<path fill="none" stroke="#000000" d="M203.0156,-114.2C190.6771,-114.2 183.1667,-114.2 166,-114.2"/>
<polygon fill="#000000" stroke="#000000" points="209.5,-114.2001 217.5,-117.8 213.5,-114.2 217.5,-114.2 217.5,-114.2 217.5,-114.2 213.5,-114.2 217.5,-110.6 209.5,-114.2001 209.5,-114.2001"/>
<ellipse fill="none" stroke="#000000" cx="206.3" cy="-114.2001" rx="3.2" ry="3.2"/>
</g>
<!-- ISOFORM_ANNOTATIONS_REFERENCES -->
<g id="node4" class="node">
<title>ISOFORM_ANNOTATIONS_REFERENCES</title>
<g id="a_node4"><a xlink:href="../../tables/ISOFORM_ANNOTATIONS_REFERENCES.html" xlink:title="ISOFORM_ANNOTATIONS_REFERENCES" target="_top">
<polygon fill="#ffffff" stroke="transparent" points="637,-219.7 637,-346.7 918,-346.7 918,-219.7 637,-219.7"/>
<polygon fill="#f5f5f5" stroke="transparent" points="637.5,-323.2 637.5,-346.2 918.5,-346.2 918.5,-323.2 637.5,-323.2"/>
<polygon fill="none" stroke="#000000" points="637.5,-323.2 637.5,-346.2 918.5,-346.2 918.5,-323.2 637.5,-323.2"/>
<text text-anchor="start" x="642.5" y="-332.3" font-family="Helvetica,sans-Serif" font-weight="bold" font-size="11.00" fill="#000000">ISOFORM_ANNOTATIONS_REFERENCES</text>
<text text-anchor="start" x="883.5437" y="-331.3" font-family="Helvetica,sans-Serif" font-size="11.00" fill="#000000">[table]</text>
<polygon fill="none" stroke="#000000" points="637.5,-301.2 637.5,-323.2 918.5,-323.2 918.5,-301.2 637.5,-301.2"/>
<image xlink:href="../../images/primaryKeys.png" width="11px" height="12px" preserveAspectRatio="xMinYMin meet" x="642.5" y="-318.2"/>
<text text-anchor="start" x="657.5" y="-308.3" font-family="Helvetica,sans-Serif" font-size="11.00" fill="#000000">ID</text>
<polygon fill="none" stroke="#000000" points="637.5,-279.2 637.5,-301.2 918.5,-301.2 918.5,-279.2 637.5,-279.2"/>
<image xlink:href="../../images/foreignKeys.png" width="11px" height="12px" preserveAspectRatio="xMinYMin meet" x="642.5" y="-296.2"/>
<text text-anchor="start" x="657.5" y="-286.3" font-family="Helvetica,sans-Serif" font-size="11.00" fill="#000000">ISOFORM_ANNOTATION_ID</text>
<polygon fill="none" stroke="#000000" points="637.5,-257.2 637.5,-279.2 918.5,-279.2 918.5,-257.2 637.5,-257.2"/>
<image xlink:href="../../images/foreignKeys.png" width="11px" height="12px" preserveAspectRatio="xMinYMin meet" x="642.5" y="-274.2"/>
<text text-anchor="start" x="657.5" y="-264.3" font-family="Helvetica,sans-Serif" font-size="11.00" fill="#000000">REFERENCE_ID</text>
<polygon fill="none" stroke="#000000" points="637.5,-238.2 637.5,-257.2 918.5,-257.2 918.5,-238.2 637.5,-238.2"/>
<text text-anchor="start" x="640.5" y="-244.3" font-family="Helvetica,sans-Serif" font-size="11.00" fill="#000000">...</text>
<polygon fill="#ffffff" stroke="transparent" points="637.5,-219.2 637.5,-238.2 763.5,-238.2 763.5,-219.2 637.5,-219.2"/>
<polygon fill="none" stroke="#000000" points="637.5,-219.2 637.5,-238.2 763.5,-238.2 763.5,-219.2 637.5,-219.2"/>
<text text-anchor="start" x="640.5" y="-225.3" font-family="Helvetica,sans-Serif" font-size="11.00" fill="#000000">&lt; 2</text>
<polygon fill="#ffffff" stroke="transparent" points="763.5,-219.2 763.5,-238.2 853.5,-238.2 853.5,-219.2 763.5,-219.2"/>
<polygon fill="none" stroke="#000000" points="763.5,-219.2 763.5,-238.2 853.5,-238.2 853.5,-219.2 763.5,-219.2"/>
<text text-anchor="start" x="818.1105" y="-225.3" font-family="Helvetica,sans-Serif" font-size="11.00" fill="#000000">3 rows</text>
<polygon fill="#ffffff" stroke="transparent" points="853.5,-219.2 853.5,-238.2 918.5,-238.2 918.5,-219.2 853.5,-219.2"/>
<polygon fill="none" stroke="#000000" points="853.5,-219.2 853.5,-238.2 918.5,-238.2 918.5,-219.2 853.5,-219.2"/>
<text text-anchor="start" x="909.3862" y="-225.3" font-family="Helvetica,sans-Serif" font-size="11.00" fill="#000000"> &#160;</text>
</a>
</g>
</g>
<!-- ISOFORM_ANNOTATIONS_REFERENCES&#45;&gt;ISOFORM_ANNOTATIONS -->
<g id="edge3" class="edge">
<title>ISOFORM_ANNOTATIONS_REFERENCES:w&#45;&gt;ISOFORM_ANNOTATIONS:e</title>
<path fill="none" stroke="#000000" d="M622.6762,-290.2C606.6248,-290.2 597.8924,-290.2 576.5,-290.2"/>
<polygon fill="#000000" stroke="#000000" points="629.5,-290.2001 637.5,-293.8 633.5,-290.2 637.5,-290.2 637.5,-290.2 637.5,-290.2 633.5,-290.2 637.5,-286.6 629.5,-290.2001 629.5,-290.2001"/>
<ellipse fill="none" stroke="#000000" cx="626.3" cy="-290.2001" rx="3.2" ry="3.2"/>
</g>
<!-- TARGET_FORMS_ISOFORM_ANNOTATIONS -->
<g id="node5" class="node">
<title>TARGET_FORMS_ISOFORM_ANNOTATIONS</title>
<g id="a_node5"><a xlink:href="../../tables/TARGET_FORMS_ISOFORM_ANNOTATIONS.html" xlink:title="TARGET_FORMS_ISOFORM_ANNOTATIONS" target="_top">
<polygon fill="#ffffff" stroke="transparent" points="627,-71.7 627,-198.7 928,-198.7 928,-71.7 627,-71.7"/>
<polygon fill="#f5f5f5" stroke="transparent" points="627.5,-175.2 627.5,-198.2 928.5,-198.2 928.5,-175.2 627.5,-175.2"/>
<polygon fill="none" stroke="#000000" points="627.5,-175.2 627.5,-198.2 928.5,-198.2 928.5,-175.2 627.5,-175.2"/>
<text text-anchor="start" x="632.5" y="-184.3" font-family="Helvetica,sans-Serif" font-weight="bold" font-size="11.00" fill="#000000">TARGET_FORMS_ISOFORM_ANNOTATIONS</text>
<text text-anchor="start" x="893.5437" y="-183.3" font-family="Helvetica,sans-Serif" font-size="11.00" fill="#000000">[table]</text>
<polygon fill="none" stroke="#000000" points="627.5,-153.2 627.5,-175.2 928.5,-175.2 928.5,-153.2 627.5,-153.2"/>
<image xlink:href="../../images/primaryKeys.png" width="11px" height="12px" preserveAspectRatio="xMinYMin meet" x="632.5" y="-170.2"/>
<text text-anchor="start" x="647.5" y="-160.3" font-family="Helvetica,sans-Serif" font-size="11.00" fill="#000000">ID</text>
<polygon fill="none" stroke="#000000" points="627.5,-131.2 627.5,-153.2 928.5,-153.2 928.5,-131.2 627.5,-131.2"/>
<image xlink:href="../../images/primaryKeys.png" width="11px" height="12px" preserveAspectRatio="xMinYMin meet" x="632.5" y="-148.2"/>
<text text-anchor="start" x="647.5" y="-138.3" font-family="Helvetica,sans-Serif" font-size="11.00" fill="#000000">TARGET_FORM_ID</text>
<polygon fill="none" stroke="#000000" points="627.5,-109.2 627.5,-131.2 928.5,-131.2 928.5,-109.2 627.5,-109.2"/>
<image xlink:href="../../images/primaryKeys.png" width="11px" height="12px" preserveAspectRatio="xMinYMin meet" x="632.5" y="-126.2"/>
<text text-anchor="start" x="647.5" y="-116.3" font-family="Helvetica,sans-Serif" font-size="11.00" fill="#000000">ISOFORM_ANNOTATION_ID</text>
<polygon fill="none" stroke="#000000" points="627.5,-90.2 627.5,-109.2 928.5,-109.2 928.5,-90.2 627.5,-90.2"/>
<text text-anchor="start" x="630.5" y="-96.3" font-family="Helvetica,sans-Serif" font-size="11.00" fill="#000000">...</text>
<polygon fill="#ffffff" stroke="transparent" points="627.5,-71.2 627.5,-90.2 763.5,-90.2 763.5,-71.2 627.5,-71.2"/>
<polygon fill="none" stroke="#000000" points="627.5,-71.2 627.5,-90.2 763.5,-90.2 763.5,-71.2 627.5,-71.2"/>
<text text-anchor="start" x="630.5" y="-77.3" font-family="Helvetica,sans-Serif" font-size="11.00" fill="#000000">&lt; 2</text>
<polygon fill="#ffffff" stroke="transparent" points="763.5,-71.2 763.5,-90.2 858.5,-90.2 858.5,-71.2 763.5,-71.2"/>
<polygon fill="none" stroke="#000000" points="763.5,-71.2 763.5,-90.2 858.5,-90.2 858.5,-71.2 763.5,-71.2"/>
<text text-anchor="start" x="823.1105" y="-77.3" font-family="Helvetica,sans-Serif" font-size="11.00" fill="#000000">4 rows</text>
<polygon fill="#ffffff" stroke="transparent" points="858.5,-71.2 858.5,-90.2 928.5,-90.2 928.5,-71.2 858.5,-71.2"/>
<polygon fill="none" stroke="#000000" points="858.5,-71.2 858.5,-90.2 928.5,-90.2 928.5,-71.2 858.5,-71.2"/>
<text text-anchor="start" x="919.3862" y="-77.3" font-family="Helvetica,sans-Serif" font-size="11.00" fill="#000000"> &#160;</text>
</a>
</g>
</g>
<!-- TARGET_FORMS_ISOFORM_ANNOTATIONS&#45;&gt;ISOFORM_ANNOTATIONS -->
<g id="edge4" class="edge">
<title>TARGET_FORMS_ISOFORM_ANNOTATIONS:w&#45;&gt;ISOFORM_ANNOTATIONS:e</title>
<path fill="none" stroke="#000000" d="M613.167,-122.7351C563.079,-143.8825 649.6818,-290.2 576.5,-290.2"/>
<polygon fill="#000000" stroke="#000000" points="619.6223,-121.5934 628.127,-123.745 623.5611,-120.8967 627.5,-120.2 627.5,-120.2 627.5,-120.2 623.5611,-120.8967 626.873,-116.655 619.6223,-121.5934 619.6223,-121.5934"/>
<ellipse fill="none" stroke="#000000" cx="616.4712" cy="-122.1507" rx="3.2" ry="3.2"/>
</g>
</g>
</svg>
