<?xml version="1.0" encoding="UTF-8" standalone="no"?>
<!DOCTYPE svg PUBLIC "-//W3C//DTD SVG 1.1//EN"
 "http://www.w3.org/Graphics/SVG/1.1/DTD/svg11.dtd">
<!-- Generated by graphviz version 2.40.1 (20161225.0304)
 -->
<!-- Title: oneDegreeRelationshipsDiagram Pages: 1 -->
<svg width="696pt" height="363pt"
 viewBox="0.00 0.00 696.00 362.70" xmlns="http://www.w3.org/2000/svg" xmlns:xlink="http://www.w3.org/1999/xlink">
<g id="graph0" class="graph" transform="scale(1 1) rotate(0) translate(4 358.7)">
<title>oneDegreeRelationshipsDiagram</title>
<polygon fill="#ffffff" stroke="transparent" points="-4,4 -4,-358.7 692,-358.7 692,4 -4,4"/>
<text text-anchor="middle" x="72.4936" y="-7.3" font-family="Helvetica,sans-Serif" font-size="11.00" fill="#000000">Generated by SchemaSpy</text>
<!-- LITERATURE_ASSAYS_REFERENCES -->
<g id="node1" class="node">
<title>LITERATURE_ASSAYS_REFERENCES</title>
<g id="a_node1"><a xlink:href="../../tables/LITERATURE_ASSAYS_REFERENCES.html" xlink:title="LITERATURE_ASSAYS_REFERENCES" target="_top">
<polygon fill="#ffffff" stroke="transparent" points="250,-150.7 250,-350.7 680,-350.7 680,-150.7 250,-150.7"/>
<polygon fill="#f5f5f5" stroke="transparent" points="252,-325.7 252,-348.7 678,-348.7 678,-325.7 252,-325.7"/>
<polygon fill="none" stroke="#000000" points="252,-325.7 252,-348.7 678,-348.7 678,-325.7 252,-325.7"/>
<text text-anchor="start" x="257" y="-334.8" font-family="Helvetica,sans-Serif" font-weight="bold" font-size="11.00" fill="#000000">LITERATURE_ASSAYS_REFERENCES</text>
<text text-anchor="start" x="643.0437" y="-333.8" font-family="Helvetica,sans-Serif" font-size="11.00" fill="#000000">[table]</text>
<polygon fill="none" stroke="#000000" points="252,-303.7 252,-325.7 507,-325.7 507,-303.7 252,-303.7"/>
<image xlink:href="../../images/primaryKeys.png" width="11px" height="12px" preserveAspectRatio="xMinYMin meet" x="257" y="-320.7"/>
<text text-anchor="start" x="272" y="-310.8" font-family="Helvetica,sans-Serif" font-size="11.00" fill="#000000">ID</text>
<polygon fill="none" stroke="#000000" points="507,-303.7 507,-325.7 678,-325.7 678,-303.7 507,-303.7"/>
<text text-anchor="start" x="510" y="-311.4" font-family="Helvetica,sans-Serif" font-size="11.00" fill="#000000">number[19]</text>
<polygon fill="none" stroke="#000000" points="252,-281.7 252,-303.7 507,-303.7 507,-281.7 252,-281.7"/>
<text text-anchor="start" x="272" y="-288.8" font-family="Helvetica,sans-Serif" font-size="11.00" fill="#000000">CREATED_AT</text>
<polygon fill="none" stroke="#000000" points="507,-281.7 507,-303.7 678,-303.7 678,-281.7 507,-281.7"/>
<text text-anchor="start" x="509.9896" y="-289.4" font-family="Helvetica,sans-Serif" font-size="11.00" fill="#000000">timestamp(6) with time zone[13,6]</text>
<polygon fill="none" stroke="#000000" points="252,-259.7 252,-281.7 507,-281.7 507,-259.7 252,-259.7"/>
<text text-anchor="start" x="272" y="-266.8" font-family="Helvetica,sans-Serif" font-size="11.00" fill="#000000">CREATED_BY</text>
<polygon fill="none" stroke="#000000" points="507,-259.7 507,-281.7 678,-281.7 678,-259.7 507,-259.7"/>
<text text-anchor="start" x="510" y="-267.4" font-family="Helvetica,sans-Serif" font-size="11.00" fill="#000000">number[19]</text>
<polygon fill="none" stroke="#000000" points="252,-237.7 252,-259.7 507,-259.7 507,-237.7 252,-237.7"/>
<text text-anchor="start" x="272" y="-244.8" font-family="Helvetica,sans-Serif" font-size="11.00" fill="#000000">UPDATED_AT</text>
<polygon fill="none" stroke="#000000" points="507,-237.7 507,-259.7 678,-259.7 678,-237.7 507,-237.7"/>
<text text-anchor="start" x="509.9896" y="-245.4" font-family="Helvetica,sans-Serif" font-size="11.00" fill="#000000">timestamp(6) with time zone[13,6]</text>
<polygon fill="none" stroke="#000000" points="252,-215.7 252,-237.7 507,-237.7 507,-215.7 252,-215.7"/>
<text text-anchor="start" x="272" y="-222.8" font-family="Helvetica,sans-Serif" font-size="11.00" fill="#000000">UPDATED_BY</text>
<polygon fill="none" stroke="#000000" points="507,-215.7 507,-237.7 678,-237.7 678,-215.7 507,-215.7"/>
<text text-anchor="start" x="510" y="-223.4" font-family="Helvetica,sans-Serif" font-size="11.00" fill="#000000">number[19]</text>
<polygon fill="none" stroke="#000000" points="252,-193.7 252,-215.7 507,-215.7 507,-193.7 252,-193.7"/>
<image xlink:href="../../images/foreignKeys.png" width="11px" height="12px" preserveAspectRatio="xMinYMin meet" x="257" y="-210.7"/>
<text text-anchor="start" x="272" y="-200.8" font-family="Helvetica,sans-Serif" font-size="11.00" fill="#000000">LITERATURE_ASSAY_ID</text>
<polygon fill="none" stroke="#000000" points="507,-193.7 507,-215.7 678,-215.7 678,-193.7 507,-193.7"/>
<text text-anchor="start" x="510" y="-201.4" font-family="Helvetica,sans-Serif" font-size="11.00" fill="#000000">number[19]</text>
<polygon fill="none" stroke="#000000" points="252,-171.7 252,-193.7 507,-193.7 507,-171.7 252,-171.7"/>
<image xlink:href="../../images/foreignKeys.png" width="11px" height="12px" preserveAspectRatio="xMinYMin meet" x="257" y="-188.7"/>
<text text-anchor="start" x="272" y="-178.8" font-family="Helvetica,sans-Serif" font-size="11.00" fill="#000000">REFERENCE_ID</text>
<polygon fill="none" stroke="#000000" points="507,-171.7 507,-193.7 678,-193.7 678,-171.7 507,-171.7"/>
<text text-anchor="start" x="510" y="-179.4" font-family="Helvetica,sans-Serif" font-size="11.00" fill="#000000">number[19]</text>
<polygon fill="#ffffff" stroke="transparent" points="252,-152.7 252,-171.7 368,-171.7 368,-152.7 252,-152.7"/>
<polygon fill="none" stroke="#000000" points="252,-152.7 252,-171.7 368,-171.7 368,-152.7 252,-152.7"/>
<text text-anchor="start" x="255" y="-158.8" font-family="Helvetica,sans-Serif" font-size="11.00" fill="#000000">&lt; 2</text>
<polygon fill="#ffffff" stroke="transparent" points="368,-152.7 368,-171.7 507,-171.7 507,-152.7 368,-152.7"/>
<polygon fill="none" stroke="#000000" points="368,-152.7 368,-171.7 507,-171.7 507,-152.7 368,-152.7"/>
<text text-anchor="start" x="465.4956" y="-158.8" font-family="Helvetica,sans-Serif" font-size="11.00" fill="#000000">25 rows</text>
<polygon fill="#ffffff" stroke="transparent" points="507,-152.7 507,-171.7 678,-171.7 678,-152.7 507,-152.7"/>
<polygon fill="none" stroke="#000000" points="507,-152.7 507,-171.7 678,-171.7 678,-152.7 507,-152.7"/>
<text text-anchor="start" x="659.4053" y="-158.8" font-family="Helvetica,sans-Serif" font-size="11.00" fill="#000000">0 &gt;</text>
<polygon fill="none" stroke="#000000" stroke-width="2" points="251,-151.7 251,-349.7 679,-349.7 679,-151.7 251,-151.7"/>
</a>
</g>
</g>
<!-- LITERATURE_ASSAYS -->
<g id="node2" class="node">
<title>LITERATURE_ASSAYS</title>
<g id="a_node2"><a xlink:href="../../tables/LITERATURE_ASSAYS.html" xlink:title="LITERATURE_ASSAYS" target="_top">
<polygon fill="#ffffff" stroke="transparent" points="8,-164.2 8,-313.2 201,-313.2 201,-164.2 8,-164.2"/>
<polygon fill="#f5f5f5" stroke="transparent" points="8.5,-289.7 8.5,-312.7 201.5,-312.7 201.5,-289.7 8.5,-289.7"/>
<polygon fill="none" stroke="#000000" points="8.5,-289.7 8.5,-312.7 201.5,-312.7 201.5,-289.7 8.5,-289.7"/>
<text text-anchor="start" x="13.5" y="-298.8" font-family="Helvetica,sans-Serif" font-weight="bold" font-size="11.00" fill="#000000">LITERATURE_ASSAYS</text>
<text text-anchor="start" x="166.5437" y="-297.8" font-family="Helvetica,sans-Serif" font-size="11.00" fill="#000000">[table]</text>
<polygon fill="none" stroke="#000000" points="8.5,-267.7 8.5,-289.7 201.5,-289.7 201.5,-267.7 8.5,-267.7"/>
<image xlink:href="../../images/primaryKeys.png" width="11px" height="12px" preserveAspectRatio="xMinYMin meet" x="13.5" y="-284.7"/>
<text text-anchor="start" x="28.5" y="-274.8" font-family="Helvetica,sans-Serif" font-size="11.00" fill="#000000">ID</text>
<polygon fill="none" stroke="#000000" points="8.5,-245.7 8.5,-267.7 201.5,-267.7 201.5,-245.7 8.5,-245.7"/>
<image xlink:href="../../images/foreignKeys.png" width="11px" height="12px" preserveAspectRatio="xMinYMin meet" x="13.5" y="-262.7"/>
<text text-anchor="start" x="28.5" y="-252.8" font-family="Helvetica,sans-Serif" font-size="11.00" fill="#000000">ASSAY_AFFINITY_TYPE_ID</text>
<polygon fill="none" stroke="#000000" points="8.5,-223.7 8.5,-245.7 201.5,-245.7 201.5,-223.7 8.5,-223.7"/>
<image xlink:href="../../images/foreignKeys.png" width="11px" height="12px" preserveAspectRatio="xMinYMin meet" x="13.5" y="-240.7"/>
<text text-anchor="start" x="28.5" y="-230.8" font-family="Helvetica,sans-Serif" font-size="11.00" fill="#000000">ASSAY_TYPE_ID</text>
<polygon fill="none" stroke="#000000" points="8.5,-201.7 8.5,-223.7 201.5,-223.7 201.5,-201.7 8.5,-201.7"/>
<image xlink:href="../../images/foreignKeys.png" width="11px" height="12px" preserveAspectRatio="xMinYMin meet" x="13.5" y="-218.7"/>
<text text-anchor="start" x="28.5" y="-208.8" font-family="Helvetica,sans-Serif" font-size="11.00" fill="#000000">TRACER_LIGAND_ID</text>
<polygon fill="none" stroke="#000000" points="8.5,-182.7 8.5,-201.7 201.5,-201.7 201.5,-182.7 8.5,-182.7"/>
<text text-anchor="start" x="11.5" y="-188.8" font-family="Helvetica,sans-Serif" font-size="11.00" fill="#000000">...</text>
<polygon fill="#ffffff" stroke="transparent" points="8.5,-163.7 8.5,-182.7 82.5,-182.7 82.5,-163.7 8.5,-163.7"/>
<polygon fill="none" stroke="#000000" points="8.5,-163.7 8.5,-182.7 82.5,-182.7 82.5,-163.7 8.5,-163.7"/>
<text text-anchor="start" x="11.5" y="-169.8" font-family="Helvetica,sans-Serif" font-size="11.00" fill="#000000">&lt; 3</text>
<polygon fill="#ffffff" stroke="transparent" points="82.5,-163.7 82.5,-182.7 153.5,-182.7 153.5,-163.7 82.5,-163.7"/>
<polygon fill="none" stroke="#000000" points="82.5,-163.7 82.5,-182.7 153.5,-182.7 153.5,-163.7 82.5,-163.7"/>
<text text-anchor="start" x="111.9956" y="-169.8" font-family="Helvetica,sans-Serif" font-size="11.00" fill="#000000">25 rows</text>
<polygon fill="#ffffff" stroke="transparent" points="153.5,-163.7 153.5,-182.7 201.5,-182.7 201.5,-163.7 153.5,-163.7"/>
<polygon fill="none" stroke="#000000" points="153.5,-163.7 153.5,-182.7 201.5,-182.7 201.5,-163.7 153.5,-163.7"/>
<text text-anchor="start" x="182.9053" y="-169.8" font-family="Helvetica,sans-Serif" font-size="11.00" fill="#000000">1 &gt;</text>
</a>
</g>
</g>
<!-- LITERATURE_ASSAYS_REFERENCES&#45;&gt;LITERATURE_ASSAYS -->
<g id="edge1" class="edge">
<title>LITERATURE_ASSAYS_REFERENCES:w&#45;&gt;LITERATURE_ASSAYS:e</title>
<path fill="none" stroke="#000000" d="M238.1154,-209.329C219.4593,-225.5294 235.2515,-278.7 201.5,-278.7"/>
<polygon fill="#000000" stroke="#000000" points="244.4107,-207.2303 253.1386,-208.1152 248.2053,-205.9651 252,-204.7 252,-204.7 252,-204.7 248.2053,-205.9651 250.8614,-201.2848 244.4107,-207.2303 244.4107,-207.2303"/>
<ellipse fill="none" stroke="#000000" cx="241.3749" cy="-208.2424" rx="3.2" ry="3.2"/>
</g>
<!-- REFERENCES -->
<g id="node3" class="node">
<title>REFERENCES</title>
<g id="a_node3"><a xlink:href="../../tables/REFERENCES.html" xlink:title="REFERENCES" target="_top">
<polygon fill="#ffffff" stroke="transparent" points="40.5,-38.2 40.5,-143.2 168.5,-143.2 168.5,-38.2 40.5,-38.2"/>
<polygon fill="#f5f5f5" stroke="transparent" points="40.5,-119.7 40.5,-142.7 168.5,-142.7 168.5,-119.7 40.5,-119.7"/>
<polygon fill="none" stroke="#000000" points="40.5,-119.7 40.5,-142.7 168.5,-142.7 168.5,-119.7 40.5,-119.7"/>
<text text-anchor="start" x="45.5" y="-128.8" font-family="Helvetica,sans-Serif" font-weight="bold" font-size="11.00" fill="#000000">REFERENCES</text>
<text text-anchor="start" x="133.5437" y="-127.8" font-family="Helvetica,sans-Serif" font-size="11.00" fill="#000000">[table]</text>
<polygon fill="none" stroke="#000000" points="40.5,-97.7 40.5,-119.7 168.5,-119.7 168.5,-97.7 40.5,-97.7"/>
<image xlink:href="../../images/primaryKeys.png" width="11px" height="12px" preserveAspectRatio="xMinYMin meet" x="45.5" y="-114.7"/>
<text text-anchor="start" x="60.5" y="-104.8" font-family="Helvetica,sans-Serif" font-size="11.00" fill="#000000">ID</text>
<polygon fill="none" stroke="#000000" points="40.5,-75.7 40.5,-97.7 168.5,-97.7 168.5,-75.7 40.5,-75.7"/>
<image xlink:href="../../images/foreignKeys.png" width="11px" height="12px" preserveAspectRatio="xMinYMin meet" x="45.5" y="-92.7"/>
<text text-anchor="start" x="60.5" y="-82.8" font-family="Helvetica,sans-Serif" font-size="11.00" fill="#000000">USER_ID</text>
<polygon fill="none" stroke="#000000" points="40.5,-56.7 40.5,-75.7 168.5,-75.7 168.5,-56.7 40.5,-56.7"/>
<text text-anchor="start" x="43.5" y="-62.8" font-family="Helvetica,sans-Serif" font-size="11.00" fill="#000000">...</text>
<polygon fill="#ffffff" stroke="transparent" points="40.5,-37.7 40.5,-56.7 71.5,-56.7 71.5,-37.7 40.5,-37.7"/>
<polygon fill="none" stroke="#000000" points="40.5,-37.7 40.5,-56.7 71.5,-56.7 71.5,-37.7 40.5,-37.7"/>
<text text-anchor="start" x="43.5" y="-43.8" font-family="Helvetica,sans-Serif" font-size="11.00" fill="#000000">&lt; 1</text>
<polygon fill="#ffffff" stroke="transparent" points="71.5,-37.7 71.5,-56.7 135.5,-56.7 135.5,-37.7 71.5,-37.7"/>
<polygon fill="none" stroke="#000000" points="71.5,-37.7 71.5,-56.7 135.5,-56.7 135.5,-37.7 71.5,-37.7"/>
<text text-anchor="start" x="78.7089" y="-43.8" font-family="Helvetica,sans-Serif" font-size="11.00" fill="#000000">2,900 rows</text>
<polygon fill="#ffffff" stroke="transparent" points="135.5,-37.7 135.5,-56.7 168.5,-56.7 168.5,-37.7 135.5,-37.7"/>
<polygon fill="none" stroke="#000000" points="135.5,-37.7 135.5,-56.7 168.5,-56.7 168.5,-37.7 135.5,-37.7"/>
<text text-anchor="start" x="143.7904" y="-43.8" font-family="Helvetica,sans-Serif" font-size="11.00" fill="#000000">20 &gt;</text>
</a>
</g>
</g>
<!-- LITERATURE_ASSAYS_REFERENCES&#45;&gt;REFERENCES -->
<g id="edge2" class="edge">
<title>LITERATURE_ASSAYS_REFERENCES:w&#45;&gt;REFERENCES:e</title>
<path fill="none" stroke="#000000" d="M237.4707,-180.0663C205.1264,-166.884 212.4701,-108.7 168.5,-108.7"/>
<polygon fill="#000000" stroke="#000000" points="244.1283,-181.2731 251.3579,-186.2423 248.0641,-181.9865 252,-182.7 252,-182.7 252,-182.7 248.0641,-181.9865 252.6421,-179.1577 244.1283,-181.2731 244.1283,-181.2731"/>
<ellipse fill="none" stroke="#000000" cx="240.9796" cy="-180.7023" rx="3.2" ry="3.2"/>
</g>
</g>
</svg>
