<?xml version="1.0" encoding="UTF-8" standalone="no"?>
<!DOCTYPE svg PUBLIC "-//W3C//DTD SVG 1.1//EN"
 "http://www.w3.org/Graphics/SVG/1.1/DTD/svg11.dtd">
<!-- Generated by graphviz version 2.40.1 (20161225.0304)
 -->
<!-- Title: oneDegreeRelationshipsDiagram Pages: 1 -->
<svg width="996pt" height="457pt"
 viewBox="0.00 0.00 996.00 457.20" xmlns="http://www.w3.org/2000/svg" xmlns:xlink="http://www.w3.org/1999/xlink">
<g id="graph0" class="graph" transform="scale(1 1) rotate(0) translate(4 453.2)">
<title>oneDegreeRelationshipsDiagram</title>
<polygon fill="#ffffff" stroke="transparent" points="-4,4 -4,-453.2 992,-453.2 992,4 -4,4"/>
<text text-anchor="middle" x="72.4936" y="-7.3" font-family="Helvetica,sans-Serif" font-size="11.00" fill="#000000">Generated by SchemaSpy</text>
<!-- LITERATURE_ASSAYS -->
<g id="node1" class="node">
<title>LITERATURE_ASSAYS</title>
<g id="a_node1"><a xlink:href="../../tables/LITERATURE_ASSAYS.html" xlink:title="LITERATURE_ASSAYS" target="_top">
<polygon fill="#ffffff" stroke="transparent" points="308,-180.7 308,-424.7 676,-424.7 676,-180.7 308,-180.7"/>
<polygon fill="#f5f5f5" stroke="transparent" points="310,-399.7 310,-422.7 674,-422.7 674,-399.7 310,-399.7"/>
<polygon fill="none" stroke="#000000" points="310,-399.7 310,-422.7 674,-422.7 674,-399.7 310,-399.7"/>
<text text-anchor="start" x="315" y="-408.8" font-family="Helvetica,sans-Serif" font-weight="bold" font-size="11.00" fill="#000000">LITERATURE_ASSAYS</text>
<text text-anchor="start" x="639.0437" y="-407.8" font-family="Helvetica,sans-Serif" font-size="11.00" fill="#000000">[table]</text>
<polygon fill="none" stroke="#000000" points="310,-377.7 310,-399.7 503,-399.7 503,-377.7 310,-377.7"/>
<image xlink:href="../../images/primaryKeys.png" width="11px" height="12px" preserveAspectRatio="xMinYMin meet" x="315" y="-394.7"/>
<text text-anchor="start" x="330" y="-384.8" font-family="Helvetica,sans-Serif" font-size="11.00" fill="#000000">ID</text>
<polygon fill="none" stroke="#000000" points="503,-377.7 503,-399.7 674,-399.7 674,-377.7 503,-377.7"/>
<text text-anchor="start" x="506" y="-385.4" font-family="Helvetica,sans-Serif" font-size="11.00" fill="#000000">number[19]</text>
<polygon fill="none" stroke="#000000" points="310,-355.7 310,-377.7 503,-377.7 503,-355.7 310,-355.7"/>
<text text-anchor="start" x="330" y="-362.8" font-family="Helvetica,sans-Serif" font-size="11.00" fill="#000000">CREATED_AT</text>
<polygon fill="none" stroke="#000000" points="503,-355.7 503,-377.7 674,-377.7 674,-355.7 503,-355.7"/>
<text text-anchor="start" x="505.9896" y="-363.4" font-family="Helvetica,sans-Serif" font-size="11.00" fill="#000000">timestamp(6) with time zone[13,6]</text>
<polygon fill="none" stroke="#000000" points="310,-333.7 310,-355.7 503,-355.7 503,-333.7 310,-333.7"/>
<text text-anchor="start" x="330" y="-340.8" font-family="Helvetica,sans-Serif" font-size="11.00" fill="#000000">CREATED_BY</text>
<polygon fill="none" stroke="#000000" points="503,-333.7 503,-355.7 674,-355.7 674,-333.7 503,-333.7"/>
<text text-anchor="start" x="506" y="-341.4" font-family="Helvetica,sans-Serif" font-size="11.00" fill="#000000">number[19]</text>
<polygon fill="none" stroke="#000000" points="310,-311.7 310,-333.7 503,-333.7 503,-311.7 310,-311.7"/>
<text text-anchor="start" x="330" y="-318.8" font-family="Helvetica,sans-Serif" font-size="11.00" fill="#000000">UPDATED_AT</text>
<polygon fill="none" stroke="#000000" points="503,-311.7 503,-333.7 674,-333.7 674,-311.7 503,-311.7"/>
<text text-anchor="start" x="505.9896" y="-319.4" font-family="Helvetica,sans-Serif" font-size="11.00" fill="#000000">timestamp(6) with time zone[13,6]</text>
<polygon fill="none" stroke="#000000" points="310,-289.7 310,-311.7 503,-311.7 503,-289.7 310,-289.7"/>
<text text-anchor="start" x="330" y="-296.8" font-family="Helvetica,sans-Serif" font-size="11.00" fill="#000000">UPDATED_BY</text>
<polygon fill="none" stroke="#000000" points="503,-289.7 503,-311.7 674,-311.7 674,-289.7 503,-289.7"/>
<text text-anchor="start" x="506" y="-297.4" font-family="Helvetica,sans-Serif" font-size="11.00" fill="#000000">number[19]</text>
<polygon fill="none" stroke="#000000" points="310,-267.7 310,-289.7 503,-289.7 503,-267.7 310,-267.7"/>
<image xlink:href="../../images/foreignKeys.png" width="11px" height="12px" preserveAspectRatio="xMinYMin meet" x="315" y="-284.7"/>
<text text-anchor="start" x="330" y="-274.8" font-family="Helvetica,sans-Serif" font-size="11.00" fill="#000000">ASSAY_AFFINITY_TYPE_ID</text>
<polygon fill="none" stroke="#000000" points="503,-267.7 503,-289.7 674,-289.7 674,-267.7 503,-267.7"/>
<text text-anchor="start" x="506" y="-275.4" font-family="Helvetica,sans-Serif" font-size="11.00" fill="#000000">number[19]</text>
<polygon fill="none" stroke="#000000" points="310,-245.7 310,-267.7 503,-267.7 503,-245.7 310,-245.7"/>
<image xlink:href="../../images/foreignKeys.png" width="11px" height="12px" preserveAspectRatio="xMinYMin meet" x="315" y="-262.7"/>
<text text-anchor="start" x="330" y="-252.8" font-family="Helvetica,sans-Serif" font-size="11.00" fill="#000000">ASSAY_TYPE_ID</text>
<polygon fill="none" stroke="#000000" points="503,-245.7 503,-267.7 674,-267.7 674,-245.7 503,-245.7"/>
<text text-anchor="start" x="506" y="-253.4" font-family="Helvetica,sans-Serif" font-size="11.00" fill="#000000">number[19]</text>
<polygon fill="none" stroke="#000000" points="310,-223.7 310,-245.7 503,-245.7 503,-223.7 310,-223.7"/>
<image xlink:href="../../images/foreignKeys.png" width="11px" height="12px" preserveAspectRatio="xMinYMin meet" x="315" y="-240.7"/>
<text text-anchor="start" x="330" y="-230.8" font-family="Helvetica,sans-Serif" font-size="11.00" fill="#000000">TRACER_LIGAND_ID</text>
<polygon fill="none" stroke="#000000" points="503,-223.7 503,-245.7 674,-245.7 674,-223.7 503,-223.7"/>
<text text-anchor="start" x="506" y="-231.4" font-family="Helvetica,sans-Serif" font-size="11.00" fill="#000000">number[19]</text>
<polygon fill="none" stroke="#000000" points="310,-201.7 310,-223.7 503,-223.7 503,-201.7 310,-201.7"/>
<text text-anchor="start" x="330" y="-208.8" font-family="Helvetica,sans-Serif" font-size="11.00" fill="#000000">AFFINITY_VALUE</text>
<polygon fill="none" stroke="#000000" points="503,-201.7 503,-223.7 674,-223.7 674,-201.7 503,-201.7"/>
<text text-anchor="start" x="506" y="-209.4" font-family="Helvetica,sans-Serif" font-size="11.00" fill="#000000">varchar2[30]</text>
<polygon fill="#ffffff" stroke="transparent" points="310,-182.7 310,-201.7 395,-201.7 395,-182.7 310,-182.7"/>
<polygon fill="none" stroke="#000000" points="310,-182.7 310,-201.7 395,-201.7 395,-182.7 310,-182.7"/>
<text text-anchor="start" x="313" y="-188.8" font-family="Helvetica,sans-Serif" font-size="11.00" fill="#000000">&lt; 3</text>
<polygon fill="#ffffff" stroke="transparent" points="395,-182.7 395,-201.7 503,-201.7 503,-182.7 395,-182.7"/>
<polygon fill="none" stroke="#000000" points="395,-182.7 395,-201.7 503,-201.7 503,-182.7 395,-182.7"/>
<text text-anchor="start" x="461.4956" y="-188.8" font-family="Helvetica,sans-Serif" font-size="11.00" fill="#000000">25 rows</text>
<polygon fill="#ffffff" stroke="transparent" points="503,-182.7 503,-201.7 674,-201.7 674,-182.7 503,-182.7"/>
<polygon fill="none" stroke="#000000" points="503,-182.7 503,-201.7 674,-201.7 674,-182.7 503,-182.7"/>
<text text-anchor="start" x="655.4053" y="-188.8" font-family="Helvetica,sans-Serif" font-size="11.00" fill="#000000">1 &gt;</text>
<polygon fill="none" stroke="#000000" stroke-width="2" points="309,-181.7 309,-423.7 675,-423.7 675,-181.7 309,-181.7"/>
</a>
</g>
</g>
<!-- ASSAY_AFFINITY_TYPES -->
<g id="node2" class="node">
<title>ASSAY_AFFINITY_TYPES</title>
<g id="a_node2"><a xlink:href="../../tables/ASSAY_AFFINITY_TYPES.html" xlink:title="ASSAY_AFFINITY_TYPES" target="_top">
<polygon fill="#ffffff" stroke="transparent" points="43,-312.2 43,-395.2 224,-395.2 224,-312.2 43,-312.2"/>
<polygon fill="#f5f5f5" stroke="transparent" points="43.5,-371.7 43.5,-394.7 224.5,-394.7 224.5,-371.7 43.5,-371.7"/>
<polygon fill="none" stroke="#000000" points="43.5,-371.7 43.5,-394.7 224.5,-394.7 224.5,-371.7 43.5,-371.7"/>
<text text-anchor="start" x="48.5" y="-380.8" font-family="Helvetica,sans-Serif" font-weight="bold" font-size="11.00" fill="#000000">ASSAY_AFFINITY_TYPES</text>
<text text-anchor="start" x="189.5437" y="-379.8" font-family="Helvetica,sans-Serif" font-size="11.00" fill="#000000">[table]</text>
<polygon fill="none" stroke="#000000" points="43.5,-349.7 43.5,-371.7 224.5,-371.7 224.5,-349.7 43.5,-349.7"/>
<image xlink:href="../../images/primaryKeys.png" width="11px" height="12px" preserveAspectRatio="xMinYMin meet" x="48.5" y="-366.7"/>
<text text-anchor="start" x="63.5" y="-356.8" font-family="Helvetica,sans-Serif" font-size="11.00" fill="#000000">ID</text>
<polygon fill="none" stroke="#000000" points="43.5,-330.7 43.5,-349.7 224.5,-349.7 224.5,-330.7 43.5,-330.7"/>
<text text-anchor="start" x="46.5" y="-336.8" font-family="Helvetica,sans-Serif" font-size="11.00" fill="#000000">...</text>
<polygon fill="#ffffff" stroke="transparent" points="43.5,-311.7 43.5,-330.7 110.5,-330.7 110.5,-311.7 43.5,-311.7"/>
<polygon fill="none" stroke="#000000" points="43.5,-311.7 43.5,-330.7 110.5,-330.7 110.5,-311.7 43.5,-311.7"/>
<text text-anchor="start" x="46.5" y="-317.8" font-family="Helvetica,sans-Serif" font-size="11.00" fill="#000000"> &#160;</text>
<polygon fill="#ffffff" stroke="transparent" points="110.5,-311.7 110.5,-330.7 175.5,-330.7 175.5,-311.7 110.5,-311.7"/>
<polygon fill="none" stroke="#000000" points="110.5,-311.7 110.5,-330.7 175.5,-330.7 175.5,-311.7 110.5,-311.7"/>
<text text-anchor="start" x="140.1105" y="-317.8" font-family="Helvetica,sans-Serif" font-size="11.00" fill="#000000">7 rows</text>
<polygon fill="#ffffff" stroke="transparent" points="175.5,-311.7 175.5,-330.7 224.5,-330.7 224.5,-311.7 175.5,-311.7"/>
<polygon fill="none" stroke="#000000" points="175.5,-311.7 175.5,-330.7 224.5,-330.7 224.5,-311.7 175.5,-311.7"/>
<text text-anchor="start" x="205.9053" y="-317.8" font-family="Helvetica,sans-Serif" font-size="11.00" fill="#000000">2 &gt;</text>
</a>
</g>
</g>
<!-- LITERATURE_ASSAYS&#45;&gt;ASSAY_AFFINITY_TYPES -->
<g id="edge1" class="edge">
<title>LITERATURE_ASSAYS:w&#45;&gt;ASSAY_AFFINITY_TYPES:e</title>
<path fill="none" stroke="#000000" d="M295.5886,-281.244C260.7196,-295.0847 271.5986,-360.7 224.5,-360.7"/>
<polygon fill="#000000" stroke="#000000" points="302.1218,-280.0908 310.6258,-282.2452 306.0609,-279.3954 310,-278.7 310,-278.7 310,-278.7 306.0609,-279.3954 309.3742,-275.1548 302.1218,-280.0908 302.1218,-280.0908"/>
<ellipse fill="none" stroke="#000000" cx="298.9705" cy="-280.6471" rx="3.2" ry="3.2"/>
</g>
<!-- ASSAY_TYPES -->
<g id="node3" class="node">
<title>ASSAY_TYPES</title>
<g id="a_node3"><a xlink:href="../../tables/ASSAY_TYPES.html" xlink:title="ASSAY_TYPES" target="_top">
<polygon fill="#ffffff" stroke="transparent" points="73,-208.2 73,-291.2 194,-291.2 194,-208.2 73,-208.2"/>
<polygon fill="#f5f5f5" stroke="transparent" points="73.5,-267.7 73.5,-290.7 194.5,-290.7 194.5,-267.7 73.5,-267.7"/>
<polygon fill="none" stroke="#000000" points="73.5,-267.7 73.5,-290.7 194.5,-290.7 194.5,-267.7 73.5,-267.7"/>
<text text-anchor="start" x="78.0711" y="-276.8" font-family="Helvetica,sans-Serif" font-weight="bold" font-size="11.00" fill="#000000">ASSAY_TYPES</text>
<text text-anchor="start" x="160.0219" y="-275.8" font-family="Helvetica,sans-Serif" font-size="11.00" fill="#000000">[table]</text>
<polygon fill="none" stroke="#000000" points="73.5,-245.7 73.5,-267.7 194.5,-267.7 194.5,-245.7 73.5,-245.7"/>
<image xlink:href="../../images/primaryKeys.png" width="11px" height="12px" preserveAspectRatio="xMinYMin meet" x="78.5" y="-262.7"/>
<text text-anchor="start" x="97.5" y="-252.8" font-family="Helvetica,sans-Serif" font-size="11.00" fill="#000000">ID</text>
<polygon fill="none" stroke="#000000" points="73.5,-226.7 73.5,-245.7 194.5,-245.7 194.5,-226.7 73.5,-226.7"/>
<text text-anchor="start" x="76.5" y="-232.8" font-family="Helvetica,sans-Serif" font-size="11.00" fill="#000000">...</text>
<polygon fill="#ffffff" stroke="transparent" points="73.5,-207.7 73.5,-226.7 107.5,-226.7 107.5,-207.7 73.5,-207.7"/>
<polygon fill="none" stroke="#000000" points="73.5,-207.7 73.5,-226.7 107.5,-226.7 107.5,-207.7 73.5,-207.7"/>
<text text-anchor="start" x="76.5" y="-213.8" font-family="Helvetica,sans-Serif" font-size="11.00" fill="#000000"> &#160;</text>
<polygon fill="#ffffff" stroke="transparent" points="107.5,-207.7 107.5,-226.7 162.5,-226.7 162.5,-207.7 107.5,-207.7"/>
<polygon fill="none" stroke="#000000" points="107.5,-207.7 107.5,-226.7 162.5,-226.7 162.5,-207.7 107.5,-207.7"/>
<text text-anchor="start" x="120.9956" y="-213.8" font-family="Helvetica,sans-Serif" font-size="11.00" fill="#000000">10 rows</text>
<polygon fill="#ffffff" stroke="transparent" points="162.5,-207.7 162.5,-226.7 194.5,-226.7 194.5,-207.7 162.5,-207.7"/>
<polygon fill="none" stroke="#000000" points="162.5,-207.7 162.5,-226.7 194.5,-226.7 194.5,-207.7 162.5,-207.7"/>
<text text-anchor="start" x="175.9053" y="-213.8" font-family="Helvetica,sans-Serif" font-size="11.00" fill="#000000">3 &gt;</text>
</a>
</g>
</g>
<!-- LITERATURE_ASSAYS&#45;&gt;ASSAY_TYPES -->
<g id="edge2" class="edge">
<title>LITERATURE_ASSAYS:w&#45;&gt;ASSAY_TYPES:e</title>
<path fill="none" stroke="#000000" d="M295.4701,-256.7C255.6628,-256.7 240.6198,-256.7 194.5,-256.7"/>
<polygon fill="#000000" stroke="#000000" points="302,-256.7001 310,-260.3 306,-256.7 310,-256.7 310,-256.7 310,-256.7 306,-256.7 310,-253.1 302,-256.7001 302,-256.7001"/>
<ellipse fill="none" stroke="#000000" cx="298.8" cy="-256.7001" rx="3.2" ry="3.2"/>
</g>
<!-- TRACER_LIGANDS -->
<g id="node4" class="node">
<title>TRACER_LIGANDS</title>
<g id="a_node4"><a xlink:href="../../tables/TRACER_LIGANDS.html" xlink:title="TRACER_LIGANDS" target="_top">
<polygon fill="#ffffff" stroke="transparent" points="8,-38.2 8,-187.2 259,-187.2 259,-38.2 8,-38.2"/>
<polygon fill="#f5f5f5" stroke="transparent" points="8.5,-163.7 8.5,-186.7 259.5,-186.7 259.5,-163.7 8.5,-163.7"/>
<polygon fill="none" stroke="#000000" points="8.5,-163.7 8.5,-186.7 259.5,-186.7 259.5,-163.7 8.5,-163.7"/>
<text text-anchor="start" x="13.5" y="-172.8" font-family="Helvetica,sans-Serif" font-weight="bold" font-size="11.00" fill="#000000">TRACER_LIGANDS</text>
<text text-anchor="start" x="224.5437" y="-171.8" font-family="Helvetica,sans-Serif" font-size="11.00" fill="#000000">[table]</text>
<polygon fill="none" stroke="#000000" points="8.5,-141.7 8.5,-163.7 259.5,-163.7 259.5,-141.7 8.5,-141.7"/>
<image xlink:href="../../images/primaryKeys.png" width="11px" height="12px" preserveAspectRatio="xMinYMin meet" x="13.5" y="-158.7"/>
<text text-anchor="start" x="28.5" y="-148.8" font-family="Helvetica,sans-Serif" font-size="11.00" fill="#000000">ID</text>
<polygon fill="none" stroke="#000000" points="8.5,-119.7 8.5,-141.7 259.5,-141.7 259.5,-119.7 8.5,-119.7"/>
<image xlink:href="../../images/foreignKeys.png" width="11px" height="12px" preserveAspectRatio="xMinYMin meet" x="13.5" y="-136.7"/>
<text text-anchor="start" x="28.5" y="-126.8" font-family="Helvetica,sans-Serif" font-size="11.00" fill="#000000">TYPE_ID</text>
<polygon fill="none" stroke="#000000" points="8.5,-97.7 8.5,-119.7 259.5,-119.7 259.5,-97.7 8.5,-97.7"/>
<image xlink:href="../../images/foreignKeys.png" width="11px" height="12px" preserveAspectRatio="xMinYMin meet" x="13.5" y="-114.7"/>
<text text-anchor="start" x="28.5" y="-104.8" font-family="Helvetica,sans-Serif" font-size="11.00" fill="#000000">TRACER_SYNTHESIS_SCIENTIST_ID</text>
<polygon fill="none" stroke="#000000" points="8.5,-75.7 8.5,-97.7 259.5,-97.7 259.5,-75.7 8.5,-75.7"/>
<image xlink:href="../../images/foreignKeys.png" width="11px" height="12px" preserveAspectRatio="xMinYMin meet" x="13.5" y="-92.7"/>
<text text-anchor="start" x="28.5" y="-82.8" font-family="Helvetica,sans-Serif" font-size="11.00" fill="#000000">DNA_ATTACHMENT_SITE_ID</text>
<polygon fill="none" stroke="#000000" points="8.5,-56.7 8.5,-75.7 259.5,-75.7 259.5,-56.7 8.5,-56.7"/>
<text text-anchor="start" x="11.5" y="-62.8" font-family="Helvetica,sans-Serif" font-size="11.00" fill="#000000">...</text>
<polygon fill="#ffffff" stroke="transparent" points="8.5,-37.7 8.5,-56.7 108.5,-56.7 108.5,-37.7 8.5,-37.7"/>
<polygon fill="none" stroke="#000000" points="8.5,-37.7 8.5,-56.7 108.5,-56.7 108.5,-37.7 8.5,-37.7"/>
<text text-anchor="start" x="11.5" y="-43.8" font-family="Helvetica,sans-Serif" font-size="11.00" fill="#000000">&lt; 3</text>
<polygon fill="#ffffff" stroke="transparent" points="108.5,-37.7 108.5,-56.7 198.5,-56.7 198.5,-37.7 108.5,-37.7"/>
<polygon fill="none" stroke="#000000" points="108.5,-37.7 108.5,-56.7 198.5,-56.7 198.5,-37.7 108.5,-37.7"/>
<text text-anchor="start" x="150.8807" y="-43.8" font-family="Helvetica,sans-Serif" font-size="11.00" fill="#000000">416 rows</text>
<polygon fill="#ffffff" stroke="transparent" points="198.5,-37.7 198.5,-56.7 259.5,-56.7 259.5,-37.7 198.5,-37.7"/>
<polygon fill="none" stroke="#000000" points="198.5,-37.7 198.5,-56.7 259.5,-56.7 259.5,-37.7 198.5,-37.7"/>
<text text-anchor="start" x="240.9053" y="-43.8" font-family="Helvetica,sans-Serif" font-size="11.00" fill="#000000">7 &gt;</text>
</a>
</g>
</g>
<!-- LITERATURE_ASSAYS&#45;&gt;TRACER_LIGANDS -->
<g id="edge3" class="edge">
<title>LITERATURE_ASSAYS:w&#45;&gt;TRACER_LIGANDS:e</title>
<path fill="none" stroke="#000000" d="M296.1317,-230.2913C275.5307,-213.2591 296.2824,-152.7 259.5,-152.7"/>
<polygon fill="#000000" stroke="#000000" points="302.376,-232.2763 308.9093,-238.1308 306.188,-233.4882 310,-234.7 310,-234.7 310,-234.7 306.188,-233.4882 311.0907,-231.2692 302.376,-232.2763 302.376,-232.2763"/>
<ellipse fill="none" stroke="#000000" cx="299.3263" cy="-231.3068" rx="3.2" ry="3.2"/>
</g>
<!-- LITERATURE_ASSAYS_REFERENCES -->
<g id="node5" class="node">
<title>LITERATURE_ASSAYS_REFERENCES</title>
<g id="a_node5"><a xlink:href="../../tables/LITERATURE_ASSAYS_REFERENCES.html" xlink:title="LITERATURE_ASSAYS_REFERENCES" target="_top">
<polygon fill="#ffffff" stroke="transparent" points="725,-318.2 725,-445.2 980,-445.2 980,-318.2 725,-318.2"/>
<polygon fill="#f5f5f5" stroke="transparent" points="725.5,-421.7 725.5,-444.7 980.5,-444.7 980.5,-421.7 725.5,-421.7"/>
<polygon fill="none" stroke="#000000" points="725.5,-421.7 725.5,-444.7 980.5,-444.7 980.5,-421.7 725.5,-421.7"/>
<text text-anchor="start" x="730.5" y="-430.8" font-family="Helvetica,sans-Serif" font-weight="bold" font-size="11.00" fill="#000000">LITERATURE_ASSAYS_REFERENCES</text>
<text text-anchor="start" x="945.5437" y="-429.8" font-family="Helvetica,sans-Serif" font-size="11.00" fill="#000000">[table]</text>
<polygon fill="none" stroke="#000000" points="725.5,-399.7 725.5,-421.7 980.5,-421.7 980.5,-399.7 725.5,-399.7"/>
<image xlink:href="../../images/primaryKeys.png" width="11px" height="12px" preserveAspectRatio="xMinYMin meet" x="730.5" y="-416.7"/>
<text text-anchor="start" x="745.5" y="-406.8" font-family="Helvetica,sans-Serif" font-size="11.00" fill="#000000">ID</text>
<polygon fill="none" stroke="#000000" points="725.5,-377.7 725.5,-399.7 980.5,-399.7 980.5,-377.7 725.5,-377.7"/>
<image xlink:href="../../images/foreignKeys.png" width="11px" height="12px" preserveAspectRatio="xMinYMin meet" x="730.5" y="-394.7"/>
<text text-anchor="start" x="745.5" y="-384.8" font-family="Helvetica,sans-Serif" font-size="11.00" fill="#000000">LITERATURE_ASSAY_ID</text>
<polygon fill="none" stroke="#000000" points="725.5,-355.7 725.5,-377.7 980.5,-377.7 980.5,-355.7 725.5,-355.7"/>
<image xlink:href="../../images/foreignKeys.png" width="11px" height="12px" preserveAspectRatio="xMinYMin meet" x="730.5" y="-372.7"/>
<text text-anchor="start" x="745.5" y="-362.8" font-family="Helvetica,sans-Serif" font-size="11.00" fill="#000000">REFERENCE_ID</text>
<polygon fill="none" stroke="#000000" points="725.5,-336.7 725.5,-355.7 980.5,-355.7 980.5,-336.7 725.5,-336.7"/>
<text text-anchor="start" x="728.5" y="-342.8" font-family="Helvetica,sans-Serif" font-size="11.00" fill="#000000">...</text>
<polygon fill="#ffffff" stroke="transparent" points="725.5,-317.7 725.5,-336.7 835.5,-336.7 835.5,-317.7 725.5,-317.7"/>
<polygon fill="none" stroke="#000000" points="725.5,-317.7 725.5,-336.7 835.5,-336.7 835.5,-317.7 725.5,-317.7"/>
<text text-anchor="start" x="728.5" y="-323.8" font-family="Helvetica,sans-Serif" font-size="11.00" fill="#000000">&lt; 2</text>
<polygon fill="#ffffff" stroke="transparent" points="835.5,-317.7 835.5,-336.7 923.5,-336.7 923.5,-317.7 835.5,-317.7"/>
<polygon fill="none" stroke="#000000" points="835.5,-317.7 835.5,-336.7 923.5,-336.7 923.5,-317.7 835.5,-317.7"/>
<text text-anchor="start" x="881.9956" y="-323.8" font-family="Helvetica,sans-Serif" font-size="11.00" fill="#000000">25 rows</text>
<polygon fill="#ffffff" stroke="transparent" points="923.5,-317.7 923.5,-336.7 980.5,-336.7 980.5,-317.7 923.5,-317.7"/>
<polygon fill="none" stroke="#000000" points="923.5,-317.7 923.5,-336.7 980.5,-336.7 980.5,-317.7 923.5,-317.7"/>
<text text-anchor="start" x="971.3862" y="-323.8" font-family="Helvetica,sans-Serif" font-size="11.00" fill="#000000"> &#160;</text>
</a>
</g>
</g>
<!-- LITERATURE_ASSAYS_REFERENCES&#45;&gt;LITERATURE_ASSAYS -->
<g id="edge4" class="edge">
<title>LITERATURE_ASSAYS_REFERENCES:w&#45;&gt;LITERATURE_ASSAYS:e</title>
<path fill="none" stroke="#000000" d="M711.0156,-388.7C698.6771,-388.7 691.1667,-388.7 674,-388.7"/>
<polygon fill="#000000" stroke="#000000" points="717.5,-388.7001 725.5,-392.3 721.5,-388.7 725.5,-388.7 725.5,-388.7 725.5,-388.7 721.5,-388.7 725.5,-385.1 717.5,-388.7001 717.5,-388.7001"/>
<ellipse fill="none" stroke="#000000" cx="714.3" cy="-388.7001" rx="3.2" ry="3.2"/>
</g>
</g>
</svg>
