<?xml version="1.0" encoding="UTF-8" standalone="no"?>
<!DOCTYPE svg PUBLIC "-//W3C//DTD SVG 1.1//EN"
 "http://www.w3.org/Graphics/SVG/1.1/DTD/svg11.dtd">
<!-- Generated by graphviz version 2.40.1 (20161225.0304)
 -->
<!-- Title: twoDegreesRelationshipsDiagram Pages: 1 -->
<svg width="789pt" height="541pt"
 viewBox="0.00 0.00 789.00 541.20" xmlns="http://www.w3.org/2000/svg" xmlns:xlink="http://www.w3.org/1999/xlink">
<g id="graph0" class="graph" transform="scale(1 1) rotate(0) translate(4 537.2)">
<title>twoDegreesRelationshipsDiagram</title>
<polygon fill="#ffffff" stroke="transparent" points="-4,4 -4,-537.2 785,-537.2 785,4 -4,4"/>
<text text-anchor="middle" x="72.4936" y="-7.3" font-family="Helvetica,sans-Serif" font-size="11.00" fill="#000000">Generated by SchemaSpy</text>
<!-- ACTIVITIES -->
<g id="node1" class="node">
<title>ACTIVITIES</title>
<g id="a_node1"><a xlink:href="../../tables/ACTIVITIES.html" xlink:title="ACTIVITIES" target="_top">
<polygon fill="#ffffff" stroke="transparent" points="540,-468.2 540,-529.2 642,-529.2 642,-468.2 540,-468.2"/>
<polygon fill="#f5f5f5" stroke="transparent" points="540,-505.7 540,-528.7 642,-528.7 642,-505.7 540,-505.7"/>
<polygon fill="none" stroke="#000000" points="540,-505.7 540,-528.7 642,-528.7 642,-505.7 540,-505.7"/>
<text text-anchor="start" x="544.5525" y="-514.8" font-family="Helvetica,sans-Serif" font-weight="bold" font-size="11.00" fill="#000000">ACTIVITIES</text>
<text text-anchor="start" x="607.5219" y="-513.8" font-family="Helvetica,sans-Serif" font-size="11.00" fill="#000000">[table]</text>
<polygon fill="none" stroke="#000000" points="540,-486.7 540,-505.7 642,-505.7 642,-486.7 540,-486.7"/>
<text text-anchor="start" x="543" y="-492.8" font-family="Helvetica,sans-Serif" font-size="11.00" fill="#000000">...</text>
<polygon fill="#ffffff" stroke="transparent" points="540,-467.7 540,-486.7 566,-486.7 566,-467.7 540,-467.7"/>
<polygon fill="none" stroke="#000000" points="540,-467.7 540,-486.7 566,-486.7 566,-467.7 540,-467.7"/>
<text text-anchor="start" x="543" y="-473.8" font-family="Helvetica,sans-Serif" font-size="11.00" fill="#000000">&lt; 1</text>
<polygon fill="#ffffff" stroke="transparent" points="566,-467.7 566,-486.7 627,-486.7 627,-467.7 566,-467.7"/>
<polygon fill="none" stroke="#000000" points="566,-467.7 566,-486.7 627,-486.7 627,-467.7 566,-467.7"/>
<text text-anchor="start" x="570.2089" y="-473.8" font-family="Helvetica,sans-Serif" font-size="11.00" fill="#000000">1,600 rows</text>
<polygon fill="#ffffff" stroke="transparent" points="627,-467.7 627,-486.7 642,-486.7 642,-467.7 627,-467.7"/>
<polygon fill="none" stroke="#000000" points="627,-467.7 627,-486.7 642,-486.7 642,-467.7 627,-467.7"/>
<text text-anchor="start" x="632.8862" y="-473.8" font-family="Helvetica,sans-Serif" font-size="11.00" fill="#000000"> &#160;</text>
</a>
</g>
</g>
<!-- ACTIVITY_TYPES -->
<g id="node2" class="node">
<title>ACTIVITY_TYPES</title>
<g id="a_node2"><a xlink:href="../../tables/ACTIVITY_TYPES.html" xlink:title="ACTIVITY_TYPES" target="_top">
<polygon fill="#ffffff" stroke="transparent" points="199,-343.2 199,-448.2 360,-448.2 360,-343.2 199,-343.2"/>
<polygon fill="#f5f5f5" stroke="transparent" points="199.5,-424.7 199.5,-447.7 360.5,-447.7 360.5,-424.7 199.5,-424.7"/>
<polygon fill="none" stroke="#000000" points="199.5,-424.7 199.5,-447.7 360.5,-447.7 360.5,-424.7 199.5,-424.7"/>
<text text-anchor="start" x="204.5" y="-433.8" font-family="Helvetica,sans-Serif" font-weight="bold" font-size="11.00" fill="#000000">ACTIVITY_TYPES</text>
<text text-anchor="start" x="325.5437" y="-432.8" font-family="Helvetica,sans-Serif" font-size="11.00" fill="#000000">[table]</text>
<polygon fill="none" stroke="#000000" points="199.5,-402.7 199.5,-424.7 360.5,-424.7 360.5,-402.7 199.5,-402.7"/>
<image xlink:href="../../images/primaryKeys.png" width="11px" height="12px" preserveAspectRatio="xMinYMin meet" x="204.5" y="-419.7"/>
<text text-anchor="start" x="219.5" y="-409.8" font-family="Helvetica,sans-Serif" font-size="11.00" fill="#000000">ID</text>
<polygon fill="none" stroke="#000000" points="199.5,-380.7 199.5,-402.7 360.5,-402.7 360.5,-380.7 199.5,-380.7"/>
<image xlink:href="../../images/foreignKeys.png" width="11px" height="12px" preserveAspectRatio="xMinYMin meet" x="204.5" y="-397.7"/>
<text text-anchor="start" x="219.5" y="-387.8" font-family="Helvetica,sans-Serif" font-size="11.00" fill="#000000">ACTIVITY_STATUS_ID</text>
<polygon fill="none" stroke="#000000" points="199.5,-361.7 199.5,-380.7 360.5,-380.7 360.5,-361.7 199.5,-361.7"/>
<text text-anchor="start" x="202.5" y="-367.8" font-family="Helvetica,sans-Serif" font-size="11.00" fill="#000000">...</text>
<polygon fill="#ffffff" stroke="transparent" points="199.5,-342.7 199.5,-361.7 257.5,-361.7 257.5,-342.7 199.5,-342.7"/>
<polygon fill="none" stroke="#000000" points="199.5,-342.7 199.5,-361.7 257.5,-361.7 257.5,-342.7 199.5,-342.7"/>
<text text-anchor="start" x="202.5" y="-348.8" font-family="Helvetica,sans-Serif" font-size="11.00" fill="#000000">&lt; 1</text>
<polygon fill="#ffffff" stroke="transparent" points="257.5,-342.7 257.5,-361.7 320.5,-361.7 320.5,-342.7 257.5,-342.7"/>
<polygon fill="none" stroke="#000000" points="257.5,-342.7 257.5,-361.7 320.5,-361.7 320.5,-342.7 257.5,-342.7"/>
<text text-anchor="start" x="278.9956" y="-348.8" font-family="Helvetica,sans-Serif" font-size="11.00" fill="#000000">69 rows</text>
<polygon fill="#ffffff" stroke="transparent" points="320.5,-342.7 320.5,-361.7 360.5,-361.7 360.5,-342.7 320.5,-342.7"/>
<polygon fill="none" stroke="#000000" points="320.5,-342.7 320.5,-361.7 360.5,-361.7 360.5,-342.7 320.5,-342.7"/>
<text text-anchor="start" x="341.9053" y="-348.8" font-family="Helvetica,sans-Serif" font-size="11.00" fill="#000000">3 &gt;</text>
</a>
</g>
</g>
<!-- ACTIVITIES&#45;&gt;ACTIVITY_TYPES -->
<g id="edge1" class="edge">
<title>ACTIVITIES:w&#45;&gt;ACTIVITY_TYPES:e</title>
<path fill="none" stroke="#000000" d="M525.4166,-495.5973C472.4912,-494.7642 451.3249,-488.3352 401,-457.7 378.2972,-443.8797 387.0786,-413.7 360.5,-413.7"/>
<polygon fill="#000000" stroke="#000000" points="532.0002,-495.6436 539.9746,-499.2999 536.0001,-495.6718 540,-495.7 540,-495.7 540,-495.7 536.0001,-495.6718 540.0254,-492.1001 532.0002,-495.6436 532.0002,-495.6436"/>
<ellipse fill="none" stroke="#000000" cx="528.8003" cy="-495.6211" rx="3.2" ry="3.2"/>
</g>
<!-- ACTIVITY_STATUS -->
<g id="node3" class="node">
<title>ACTIVITY_STATUS</title>
<g id="a_node3"><a xlink:href="../../tables/ACTIVITY_STATUS.html" xlink:title="ACTIVITY_STATUS" target="_top">
<polygon fill="#ffffff" stroke="transparent" points="8,-364.2 8,-425.2 150,-425.2 150,-364.2 8,-364.2"/>
<polygon fill="#f5f5f5" stroke="transparent" points="8,-401.7 8,-424.7 150,-424.7 150,-401.7 8,-401.7"/>
<polygon fill="none" stroke="#000000" points="8,-401.7 8,-424.7 150,-424.7 150,-401.7 8,-401.7"/>
<text text-anchor="start" x="12.9972" y="-410.8" font-family="Helvetica,sans-Serif" font-weight="bold" font-size="11.00" fill="#000000">ACTIVITY_STATUS</text>
<text text-anchor="start" x="115.5219" y="-409.8" font-family="Helvetica,sans-Serif" font-size="11.00" fill="#000000">[table]</text>
<polygon fill="none" stroke="#000000" points="8,-382.7 8,-401.7 150,-401.7 150,-382.7 8,-382.7"/>
<text text-anchor="start" x="11" y="-388.8" font-family="Helvetica,sans-Serif" font-size="11.00" fill="#000000">...</text>
<polygon fill="#ffffff" stroke="transparent" points="8,-363.7 8,-382.7 52,-382.7 52,-363.7 8,-363.7"/>
<polygon fill="none" stroke="#000000" points="8,-363.7 8,-382.7 52,-382.7 52,-363.7 8,-363.7"/>
<text text-anchor="start" x="11" y="-369.8" font-family="Helvetica,sans-Serif" font-size="11.00" fill="#000000"> &#160;</text>
<polygon fill="#ffffff" stroke="transparent" points="52,-363.7 52,-382.7 112,-382.7 112,-363.7 52,-363.7"/>
<polygon fill="none" stroke="#000000" points="52,-363.7 52,-382.7 112,-382.7 112,-363.7 52,-363.7"/>
<text text-anchor="start" x="70.4956" y="-369.8" font-family="Helvetica,sans-Serif" font-size="11.00" fill="#000000">19 rows</text>
<polygon fill="#ffffff" stroke="transparent" points="112,-363.7 112,-382.7 150,-382.7 150,-363.7 112,-363.7"/>
<polygon fill="none" stroke="#000000" points="112,-363.7 112,-382.7 150,-382.7 150,-363.7 112,-363.7"/>
<text text-anchor="start" x="131.4053" y="-369.8" font-family="Helvetica,sans-Serif" font-size="11.00" fill="#000000">1 &gt;</text>
</a>
</g>
</g>
<!-- ACTIVITY_TYPES&#45;&gt;ACTIVITY_STATUS -->
<g id="edge2" class="edge">
<title>ACTIVITY_TYPES:w&#45;&gt;ACTIVITY_STATUS:e</title>
<path fill="none" stroke="#000000" d="M184.8428,-391.7C173.4139,-391.7 166.1563,-391.7 150,-391.7"/>
<polygon fill="#000000" stroke="#000000" points="191.5,-391.7001 199.5,-395.3 195.5,-391.7 199.5,-391.7 199.5,-391.7 199.5,-391.7 195.5,-391.7 199.5,-388.1 191.5,-391.7001 191.5,-391.7001"/>
<ellipse fill="none" stroke="#000000" cx="188.3" cy="-391.7001" rx="3.2" ry="3.2"/>
</g>
<!-- NOTIFICATION_SETTINGS -->
<g id="node4" class="node">
<title>NOTIFICATION_SETTINGS</title>
<g id="a_node4"><a xlink:href="../../tables/NOTIFICATION_SETTINGS.html" xlink:title="NOTIFICATION_SETTINGS" target="_top">
<polygon fill="#ffffff" stroke="transparent" points="409,-120.7 409,-364.7 773,-364.7 773,-120.7 409,-120.7"/>
<polygon fill="#f5f5f5" stroke="transparent" points="411,-339.7 411,-362.7 771,-362.7 771,-339.7 411,-339.7"/>
<polygon fill="none" stroke="#000000" points="411,-339.7 411,-362.7 771,-362.7 771,-339.7 411,-339.7"/>
<text text-anchor="start" x="416" y="-348.8" font-family="Helvetica,sans-Serif" font-weight="bold" font-size="11.00" fill="#000000">NOTIFICATION_SETTINGS</text>
<text text-anchor="start" x="736.0437" y="-347.8" font-family="Helvetica,sans-Serif" font-size="11.00" fill="#000000">[table]</text>
<polygon fill="none" stroke="#000000" points="411,-317.7 411,-339.7 600,-339.7 600,-317.7 411,-317.7"/>
<image xlink:href="../../images/primaryKeys.png" width="11px" height="12px" preserveAspectRatio="xMinYMin meet" x="416" y="-334.7"/>
<text text-anchor="start" x="431" y="-324.8" font-family="Helvetica,sans-Serif" font-size="11.00" fill="#000000">ID</text>
<polygon fill="none" stroke="#000000" points="600,-317.7 600,-339.7 771,-339.7 771,-317.7 600,-317.7"/>
<text text-anchor="start" x="603" y="-325.4" font-family="Helvetica,sans-Serif" font-size="11.00" fill="#000000">number[19]</text>
<polygon fill="none" stroke="#000000" points="411,-295.7 411,-317.7 600,-317.7 600,-295.7 411,-295.7"/>
<text text-anchor="start" x="431" y="-302.8" font-family="Helvetica,sans-Serif" font-size="11.00" fill="#000000">CREATED_AT</text>
<polygon fill="none" stroke="#000000" points="600,-295.7 600,-317.7 771,-317.7 771,-295.7 600,-295.7"/>
<text text-anchor="start" x="602.9896" y="-303.4" font-family="Helvetica,sans-Serif" font-size="11.00" fill="#000000">timestamp(6) with time zone[13,6]</text>
<polygon fill="none" stroke="#000000" points="411,-273.7 411,-295.7 600,-295.7 600,-273.7 411,-273.7"/>
<text text-anchor="start" x="431" y="-280.8" font-family="Helvetica,sans-Serif" font-size="11.00" fill="#000000">CREATED_BY</text>
<polygon fill="none" stroke="#000000" points="600,-273.7 600,-295.7 771,-295.7 771,-273.7 600,-273.7"/>
<text text-anchor="start" x="603" y="-281.4" font-family="Helvetica,sans-Serif" font-size="11.00" fill="#000000">number[19]</text>
<polygon fill="none" stroke="#000000" points="411,-251.7 411,-273.7 600,-273.7 600,-251.7 411,-251.7"/>
<text text-anchor="start" x="431" y="-258.8" font-family="Helvetica,sans-Serif" font-size="11.00" fill="#000000">UPDATED_AT</text>
<polygon fill="none" stroke="#000000" points="600,-251.7 600,-273.7 771,-273.7 771,-251.7 600,-251.7"/>
<text text-anchor="start" x="602.9896" y="-259.4" font-family="Helvetica,sans-Serif" font-size="11.00" fill="#000000">timestamp(6) with time zone[13,6]</text>
<polygon fill="none" stroke="#000000" points="411,-229.7 411,-251.7 600,-251.7 600,-229.7 411,-229.7"/>
<text text-anchor="start" x="431" y="-236.8" font-family="Helvetica,sans-Serif" font-size="11.00" fill="#000000">UPDATED_BY</text>
<polygon fill="none" stroke="#000000" points="600,-229.7 600,-251.7 771,-251.7 771,-229.7 600,-229.7"/>
<text text-anchor="start" x="603" y="-237.4" font-family="Helvetica,sans-Serif" font-size="11.00" fill="#000000">number[19]</text>
<polygon fill="none" stroke="#000000" points="411,-207.7 411,-229.7 600,-229.7 600,-207.7 411,-207.7"/>
<image xlink:href="../../images/foreignKeys.png" width="11px" height="12px" preserveAspectRatio="xMinYMin meet" x="416" y="-224.7"/>
<text text-anchor="start" x="431" y="-214.8" font-family="Helvetica,sans-Serif" font-size="11.00" fill="#000000">ACTIVITY_TYPE_ID</text>
<polygon fill="none" stroke="#000000" points="600,-207.7 600,-229.7 771,-229.7 771,-207.7 600,-207.7"/>
<text text-anchor="start" x="603" y="-215.4" font-family="Helvetica,sans-Serif" font-size="11.00" fill="#000000">number[19]</text>
<polygon fill="none" stroke="#000000" points="411,-185.7 411,-207.7 600,-207.7 600,-185.7 411,-185.7"/>
<image xlink:href="../../images/foreignKeys.png" width="11px" height="12px" preserveAspectRatio="xMinYMin meet" x="416" y="-202.7"/>
<text text-anchor="start" x="431" y="-192.8" font-family="Helvetica,sans-Serif" font-size="11.00" fill="#000000">ROLE_ID</text>
<polygon fill="none" stroke="#000000" points="600,-185.7 600,-207.7 771,-207.7 771,-185.7 600,-185.7"/>
<text text-anchor="start" x="603" y="-193.4" font-family="Helvetica,sans-Serif" font-size="11.00" fill="#000000">number[19]</text>
<polygon fill="none" stroke="#000000" points="411,-163.7 411,-185.7 600,-185.7 600,-163.7 411,-163.7"/>
<text text-anchor="start" x="431" y="-170.8" font-family="Helvetica,sans-Serif" font-size="11.00" fill="#000000">NOTIFICATION_TYPE</text>
<polygon fill="none" stroke="#000000" points="600,-163.7 600,-185.7 771,-185.7 771,-163.7 600,-163.7"/>
<text text-anchor="start" x="603" y="-171.4" font-family="Helvetica,sans-Serif" font-size="11.00" fill="#000000">varchar2[255]</text>
<polygon fill="none" stroke="#000000" points="411,-141.7 411,-163.7 600,-163.7 600,-141.7 411,-141.7"/>
<text text-anchor="start" x="431" y="-148.8" font-family="Helvetica,sans-Serif" font-size="11.00" fill="#000000">IS_ENABLED</text>
<polygon fill="none" stroke="#000000" points="600,-141.7 600,-163.7 771,-163.7 771,-141.7 600,-141.7"/>
<text text-anchor="start" x="603" y="-149.4" font-family="Helvetica,sans-Serif" font-size="11.00" fill="#000000">number[1]</text>
<polygon fill="#ffffff" stroke="transparent" points="411,-122.7 411,-141.7 491,-141.7 491,-122.7 411,-122.7"/>
<polygon fill="none" stroke="#000000" points="411,-122.7 411,-141.7 491,-141.7 491,-122.7 411,-122.7"/>
<text text-anchor="start" x="414" y="-128.8" font-family="Helvetica,sans-Serif" font-size="11.00" fill="#000000">&lt; 2</text>
<polygon fill="#ffffff" stroke="transparent" points="491,-122.7 491,-141.7 600,-141.7 600,-122.7 491,-122.7"/>
<polygon fill="none" stroke="#000000" points="491,-122.7 491,-141.7 600,-141.7 600,-122.7 491,-122.7"/>
<text text-anchor="start" x="552.3807" y="-128.8" font-family="Helvetica,sans-Serif" font-size="11.00" fill="#000000">108 rows</text>
<polygon fill="#ffffff" stroke="transparent" points="600,-122.7 600,-141.7 771,-141.7 771,-122.7 600,-122.7"/>
<polygon fill="none" stroke="#000000" points="600,-122.7 600,-141.7 771,-141.7 771,-122.7 600,-122.7"/>
<text text-anchor="start" x="752.4053" y="-128.8" font-family="Helvetica,sans-Serif" font-size="11.00" fill="#000000">0 &gt;</text>
<polygon fill="none" stroke="#000000" stroke-width="2" points="410,-121.7 410,-363.7 772,-363.7 772,-121.7 410,-121.7"/>
</a>
</g>
</g>
<!-- NOTIFICATION_SETTINGS&#45;&gt;ACTIVITY_TYPES -->
<g id="edge3" class="edge">
<title>NOTIFICATION_SETTINGS:w&#45;&gt;ACTIVITY_TYPES:e</title>
<path fill="none" stroke="#000000" d="M396.663,-220.8899C336.6913,-242.3133 444.4304,-413.7 360.5,-413.7"/>
<polygon fill="#000000" stroke="#000000" points="403.0917,-219.908 411.5436,-222.2587 407.0459,-219.304 411,-218.7 411,-218.7 411,-218.7 407.0459,-219.304 410.4564,-215.1413 403.0917,-219.908 403.0917,-219.908"/>
<ellipse fill="none" stroke="#000000" cx="399.9284" cy="-220.3912" rx="3.2" ry="3.2"/>
</g>
<!-- ROLES -->
<g id="node5" class="node">
<title>ROLES</title>
<g id="a_node5"><a xlink:href="../../tables/ROLES.html" xlink:title="ROLES" target="_top">
<polygon fill="#ffffff" stroke="transparent" points="225.5,-61.2 225.5,-166.2 333.5,-166.2 333.5,-61.2 225.5,-61.2"/>
<polygon fill="#f5f5f5" stroke="transparent" points="225.5,-142.7 225.5,-165.7 333.5,-165.7 333.5,-142.7 225.5,-142.7"/>
<polygon fill="none" stroke="#000000" points="225.5,-142.7 225.5,-165.7 333.5,-165.7 333.5,-142.7 225.5,-142.7"/>
<text text-anchor="start" x="230.5" y="-151.8" font-family="Helvetica,sans-Serif" font-weight="bold" font-size="11.00" fill="#000000">ROLES</text>
<text text-anchor="start" x="298.5437" y="-150.8" font-family="Helvetica,sans-Serif" font-size="11.00" fill="#000000">[table]</text>
<polygon fill="none" stroke="#000000" points="225.5,-120.7 225.5,-142.7 333.5,-142.7 333.5,-120.7 225.5,-120.7"/>
<image xlink:href="../../images/primaryKeys.png" width="11px" height="12px" preserveAspectRatio="xMinYMin meet" x="230.5" y="-137.7"/>
<text text-anchor="start" x="245.5" y="-127.8" font-family="Helvetica,sans-Serif" font-size="11.00" fill="#000000">ID</text>
<polygon fill="none" stroke="#000000" points="225.5,-98.7 225.5,-120.7 333.5,-120.7 333.5,-98.7 225.5,-98.7"/>
<image xlink:href="../../images/primaryKeys.png" width="11px" height="12px" preserveAspectRatio="xMinYMin meet" x="230.5" y="-115.7"/>
<text text-anchor="start" x="245.5" y="-105.8" font-family="Helvetica,sans-Serif" font-size="11.00" fill="#000000">TITLE</text>
<polygon fill="none" stroke="#000000" points="225.5,-79.7 225.5,-98.7 333.5,-98.7 333.5,-79.7 225.5,-79.7"/>
<text text-anchor="start" x="228.5" y="-85.8" font-family="Helvetica,sans-Serif" font-size="11.00" fill="#000000">...</text>
<polygon fill="#ffffff" stroke="transparent" points="225.5,-60.7 225.5,-79.7 252.5,-79.7 252.5,-60.7 225.5,-60.7"/>
<polygon fill="none" stroke="#000000" points="225.5,-60.7 225.5,-79.7 252.5,-79.7 252.5,-60.7 225.5,-60.7"/>
<text text-anchor="start" x="228.5" y="-66.8" font-family="Helvetica,sans-Serif" font-size="11.00" fill="#000000"> &#160;</text>
<polygon fill="#ffffff" stroke="transparent" points="252.5,-60.7 252.5,-79.7 304.5,-79.7 304.5,-60.7 252.5,-60.7"/>
<polygon fill="none" stroke="#000000" points="252.5,-60.7 252.5,-79.7 304.5,-79.7 304.5,-60.7 252.5,-60.7"/>
<text text-anchor="start" x="262.9956" y="-66.8" font-family="Helvetica,sans-Serif" font-size="11.00" fill="#000000">11 rows</text>
<polygon fill="#ffffff" stroke="transparent" points="304.5,-60.7 304.5,-79.7 333.5,-79.7 333.5,-60.7 304.5,-60.7"/>
<polygon fill="none" stroke="#000000" points="304.5,-60.7 304.5,-79.7 333.5,-79.7 333.5,-60.7 304.5,-60.7"/>
<text text-anchor="start" x="314.9053" y="-66.8" font-family="Helvetica,sans-Serif" font-size="11.00" fill="#000000">2 &gt;</text>
</a>
</g>
</g>
<!-- NOTIFICATION_SETTINGS&#45;&gt;ROLES -->
<g id="edge4" class="edge">
<title>NOTIFICATION_SETTINGS:w&#45;&gt;ROLES:e</title>
<path fill="none" stroke="#000000" d="M396.6067,-193.907C368.251,-181.4656 372.836,-131.7 333.5,-131.7"/>
<polygon fill="#000000" stroke="#000000" points="403.1465,-195.176 410.3142,-200.2341 407.0732,-195.938 411,-196.7 411,-196.7 411,-196.7 407.0732,-195.938 411.6858,-193.1659 403.1465,-195.176 403.1465,-195.176"/>
<ellipse fill="none" stroke="#000000" cx="400.0051" cy="-194.5664" rx="3.2" ry="3.2"/>
</g>
<!-- TARGETS_USERS -->
<g id="node6" class="node">
<title>TARGETS_USERS</title>
<g id="a_node6"><a xlink:href="../../tables/TARGETS_USERS.html" xlink:title="TARGETS_USERS" target="_top">
<polygon fill="#ffffff" stroke="transparent" points="522,-38.2 522,-99.2 660,-99.2 660,-38.2 522,-38.2"/>
<polygon fill="#f5f5f5" stroke="transparent" points="522,-75.7 522,-98.7 660,-98.7 660,-75.7 522,-75.7"/>
<polygon fill="none" stroke="#000000" points="522,-75.7 522,-98.7 660,-98.7 660,-75.7 522,-75.7"/>
<text text-anchor="start" x="526.5251" y="-84.8" font-family="Helvetica,sans-Serif" font-weight="bold" font-size="11.00" fill="#000000">TARGETS_USERS</text>
<text text-anchor="start" x="625.5219" y="-83.8" font-family="Helvetica,sans-Serif" font-size="11.00" fill="#000000">[table]</text>
<polygon fill="none" stroke="#000000" points="522,-56.7 522,-75.7 660,-75.7 660,-56.7 522,-56.7"/>
<text text-anchor="start" x="525" y="-62.8" font-family="Helvetica,sans-Serif" font-size="11.00" fill="#000000">...</text>
<polygon fill="#ffffff" stroke="transparent" points="522,-37.7 522,-56.7 573,-56.7 573,-37.7 522,-37.7"/>
<polygon fill="none" stroke="#000000" points="522,-37.7 522,-56.7 573,-56.7 573,-37.7 522,-37.7"/>
<text text-anchor="start" x="525" y="-43.8" font-family="Helvetica,sans-Serif" font-size="11.00" fill="#000000">&lt; 3</text>
<polygon fill="#ffffff" stroke="transparent" points="573,-37.7 573,-56.7 632,-56.7 632,-37.7 573,-37.7"/>
<polygon fill="none" stroke="#000000" points="573,-37.7 573,-56.7 632,-56.7 632,-37.7 573,-37.7"/>
<text text-anchor="start" x="590.4956" y="-43.8" font-family="Helvetica,sans-Serif" font-size="11.00" fill="#000000">35 rows</text>
<polygon fill="#ffffff" stroke="transparent" points="632,-37.7 632,-56.7 660,-56.7 660,-37.7 632,-37.7"/>
<polygon fill="none" stroke="#000000" points="632,-37.7 632,-56.7 660,-56.7 660,-37.7 632,-37.7"/>
<text text-anchor="start" x="650.8862" y="-43.8" font-family="Helvetica,sans-Serif" font-size="11.00" fill="#000000"> &#160;</text>
</a>
</g>
</g>
<!-- TARGETS_USERS&#45;&gt;ROLES -->
<g id="edge5" class="edge">
<title>TARGETS_USERS:w&#45;&gt;ROLES:e</title>
<path fill="none" stroke="#000000" d="M507.8625,-68.7074C464.6795,-81.6189 352.8306,-131.7 333.5,-131.7"/>
<polygon fill="#000000" stroke="#000000" points="514.1751,-67.3646 522.7491,-69.2212 518.0875,-66.5323 522,-65.7 522,-65.7 522,-65.7 518.0875,-66.5323 521.2509,-62.1788 514.1751,-67.3646 514.1751,-67.3646"/>
<ellipse fill="none" stroke="#000000" cx="511.0451" cy="-68.0304" rx="3.2" ry="3.2"/>
</g>
<!-- USER_NOTIFICATION_SETTINGS -->
<g id="node7" class="node">
<title>USER_NOTIFICATION_SETTINGS</title>
<g id="a_node7"><a xlink:href="../../tables/USER_NOTIFICATION_SETTINGS.html" xlink:title="USER_NOTIFICATION_SETTINGS" target="_top">
<polygon fill="#ffffff" stroke="transparent" points="482,-386.2 482,-447.2 700,-447.2 700,-386.2 482,-386.2"/>
<polygon fill="#f5f5f5" stroke="transparent" points="482,-423.7 482,-446.7 700,-446.7 700,-423.7 482,-423.7"/>
<polygon fill="none" stroke="#000000" points="482,-423.7 482,-446.7 700,-446.7 700,-423.7 482,-423.7"/>
<text text-anchor="start" x="486.8058" y="-432.8" font-family="Helvetica,sans-Serif" font-weight="bold" font-size="11.00" fill="#000000">USER_NOTIFICATION_SETTINGS</text>
<text text-anchor="start" x="665.5219" y="-431.8" font-family="Helvetica,sans-Serif" font-size="11.00" fill="#000000">[table]</text>
<polygon fill="none" stroke="#000000" points="482,-404.7 482,-423.7 700,-423.7 700,-404.7 482,-404.7"/>
<text text-anchor="start" x="485" y="-410.8" font-family="Helvetica,sans-Serif" font-size="11.00" fill="#000000">...</text>
<polygon fill="#ffffff" stroke="transparent" points="482,-385.7 482,-404.7 573,-404.7 573,-385.7 482,-385.7"/>
<polygon fill="none" stroke="#000000" points="482,-385.7 482,-404.7 573,-404.7 573,-385.7 482,-385.7"/>
<text text-anchor="start" x="485" y="-391.8" font-family="Helvetica,sans-Serif" font-size="11.00" fill="#000000">&lt; 2</text>
<polygon fill="#ffffff" stroke="transparent" points="573,-385.7 573,-404.7 652,-404.7 652,-385.7 573,-385.7"/>
<polygon fill="none" stroke="#000000" points="573,-385.7 573,-404.7 652,-404.7 652,-385.7 573,-385.7"/>
<text text-anchor="start" x="610.4956" y="-391.8" font-family="Helvetica,sans-Serif" font-size="11.00" fill="#000000">19 rows</text>
<polygon fill="#ffffff" stroke="transparent" points="652,-385.7 652,-404.7 700,-404.7 700,-385.7 652,-385.7"/>
<polygon fill="none" stroke="#000000" points="652,-385.7 652,-404.7 700,-404.7 700,-385.7 652,-385.7"/>
<text text-anchor="start" x="690.8862" y="-391.8" font-family="Helvetica,sans-Serif" font-size="11.00" fill="#000000"> &#160;</text>
</a>
</g>
</g>
<!-- USER_NOTIFICATION_SETTINGS&#45;&gt;ACTIVITY_TYPES -->
<g id="edge6" class="edge">
<title>USER_NOTIFICATION_SETTINGS:w&#45;&gt;ACTIVITY_TYPES:e</title>
<path fill="none" stroke="#000000" d="M467.5379,-413.7C425.0451,-413.7 409.332,-413.7 360.5,-413.7"/>
<polygon fill="#000000" stroke="#000000" points="474,-413.7001 482,-417.3 478,-413.7 482,-413.7 482,-413.7 482,-413.7 478,-413.7 482,-410.1 474,-413.7001 474,-413.7001"/>
<ellipse fill="none" stroke="#000000" cx="470.8" cy="-413.7001" rx="3.2" ry="3.2"/>
</g>
</g>
</svg>
