<?xml version="1.0" encoding="UTF-8" standalone="no"?>
<!DOCTYPE svg PUBLIC "-//W3C//DTD SVG 1.1//EN"
 "http://www.w3.org/Graphics/SVG/1.1/DTD/svg11.dtd">
<!-- Generated by graphviz version 2.40.1 (20161225.0304)
 -->
<!-- Title: oneDegreeRelationshipsDiagram Pages: 1 -->
<svg width="588pt" height="397pt"
 viewBox="0.00 0.00 588.00 397.20" xmlns="http://www.w3.org/2000/svg" xmlns:xlink="http://www.w3.org/1999/xlink">
<g id="graph0" class="graph" transform="scale(1 1) rotate(0) translate(4 393.2)">
<title>oneDegreeRelationshipsDiagram</title>
<polygon fill="#ffffff" stroke="transparent" points="-4,4 -4,-393.2 584,-393.2 584,4 -4,4"/>
<text text-anchor="middle" x="72.4936" y="-7.3" font-family="Helvetica,sans-Serif" font-size="11.00" fill="#000000">Generated by SchemaSpy</text>
<!-- TRACER_SYNTHESIS_REQUESTS -->
<g id="node1" class="node">
<title>TRACER_SYNTHESIS_REQUESTS</title>
<g id="a_node1"><a xlink:href="../../tables/TRACER_SYNTHESIS_REQUESTS.html" xlink:title="TRACER_SYNTHESIS_REQUESTS" target="_top">
<polygon fill="#ffffff" stroke="transparent" points="340,-38.2 340,-385.2 572,-385.2 572,-38.2 340,-38.2"/>
<polygon fill="#f5f5f5" stroke="transparent" points="340,-361.7 340,-384.7 572,-384.7 572,-361.7 340,-361.7"/>
<polygon fill="none" stroke="#000000" points="340,-361.7 340,-384.7 572,-384.7 572,-361.7 340,-361.7"/>
<text text-anchor="start" x="345" y="-370.8" font-family="Helvetica,sans-Serif" font-weight="bold" font-size="11.00" fill="#000000">TRACER_SYNTHESIS_REQUESTS</text>
<text text-anchor="start" x="537.0437" y="-369.8" font-family="Helvetica,sans-Serif" font-size="11.00" fill="#000000">[table]</text>
<polygon fill="none" stroke="#000000" points="340,-339.7 340,-361.7 572,-361.7 572,-339.7 340,-339.7"/>
<image xlink:href="../../images/primaryKeys.png" width="11px" height="12px" preserveAspectRatio="xMinYMin meet" x="345" y="-356.7"/>
<text text-anchor="start" x="360" y="-346.8" font-family="Helvetica,sans-Serif" font-size="11.00" fill="#000000">ID</text>
<polygon fill="none" stroke="#000000" points="340,-317.7 340,-339.7 572,-339.7 572,-317.7 340,-317.7"/>
<image xlink:href="../../images/foreignKeys.png" width="11px" height="12px" preserveAspectRatio="xMinYMin meet" x="345" y="-334.7"/>
<text text-anchor="start" x="360" y="-324.8" font-family="Helvetica,sans-Serif" font-size="11.00" fill="#000000">TRACER_TYPE_ID</text>
<polygon fill="none" stroke="#000000" points="340,-295.7 340,-317.7 572,-317.7 572,-295.7 340,-295.7"/>
<image xlink:href="../../images/foreignKeys.png" width="11px" height="12px" preserveAspectRatio="xMinYMin meet" x="345" y="-312.7"/>
<text text-anchor="start" x="360" y="-302.8" font-family="Helvetica,sans-Serif" font-size="11.00" fill="#000000">TARGET_ID</text>
<polygon fill="none" stroke="#000000" points="340,-273.7 340,-295.7 572,-295.7 572,-273.7 340,-273.7"/>
<image xlink:href="../../images/foreignKeys.png" width="11px" height="12px" preserveAspectRatio="xMinYMin meet" x="345" y="-290.7"/>
<text text-anchor="start" x="360" y="-280.8" font-family="Helvetica,sans-Serif" font-size="11.00" fill="#000000">OFF_DNA_ID</text>
<polygon fill="none" stroke="#000000" points="340,-251.7 340,-273.7 572,-273.7 572,-251.7 340,-251.7"/>
<image xlink:href="../../images/foreignKeys.png" width="11px" height="12px" preserveAspectRatio="xMinYMin meet" x="345" y="-268.7"/>
<text text-anchor="start" x="360" y="-258.8" font-family="Helvetica,sans-Serif" font-size="11.00" fill="#000000">OFF_DNA_IC50_ID</text>
<polygon fill="none" stroke="#000000" points="340,-229.7 340,-251.7 572,-251.7 572,-229.7 340,-229.7"/>
<image xlink:href="../../images/foreignKeys.png" width="11px" height="12px" preserveAspectRatio="xMinYMin meet" x="345" y="-246.7"/>
<text text-anchor="start" x="360" y="-236.8" font-family="Helvetica,sans-Serif" font-size="11.00" fill="#000000">TARGET_FORM_ID</text>
<polygon fill="none" stroke="#000000" points="340,-207.7 340,-229.7 572,-229.7 572,-207.7 340,-207.7"/>
<image xlink:href="../../images/foreignKeys.png" width="11px" height="12px" preserveAspectRatio="xMinYMin meet" x="345" y="-224.7"/>
<text text-anchor="start" x="360" y="-214.8" font-family="Helvetica,sans-Serif" font-size="11.00" fill="#000000">ASSIGNEE_ID</text>
<polygon fill="none" stroke="#000000" points="340,-185.7 340,-207.7 572,-207.7 572,-185.7 340,-185.7"/>
<image xlink:href="../../images/foreignKeys.png" width="11px" height="12px" preserveAspectRatio="xMinYMin meet" x="345" y="-202.7"/>
<text text-anchor="start" x="360" y="-192.8" font-family="Helvetica,sans-Serif" font-size="11.00" fill="#000000">TARGET_CATEGORY_ID</text>
<polygon fill="none" stroke="#000000" points="340,-163.7 340,-185.7 572,-185.7 572,-163.7 340,-163.7"/>
<image xlink:href="../../images/foreignKeys.png" width="11px" height="12px" preserveAspectRatio="xMinYMin meet" x="345" y="-180.7"/>
<text text-anchor="start" x="360" y="-170.8" font-family="Helvetica,sans-Serif" font-size="11.00" fill="#000000">CHEMISTRY_ID</text>
<polygon fill="none" stroke="#000000" points="340,-141.7 340,-163.7 572,-163.7 572,-141.7 340,-141.7"/>
<image xlink:href="../../images/foreignKeys.png" width="11px" height="12px" preserveAspectRatio="xMinYMin meet" x="345" y="-158.7"/>
<text text-anchor="start" x="360" y="-148.8" font-family="Helvetica,sans-Serif" font-size="11.00" fill="#000000">REGISTRATION_ID</text>
<polygon fill="none" stroke="#000000" points="340,-119.7 340,-141.7 572,-141.7 572,-119.7 340,-119.7"/>
<image xlink:href="../../images/foreignKeys.png" width="11px" height="12px" preserveAspectRatio="xMinYMin meet" x="345" y="-136.7"/>
<text text-anchor="start" x="360" y="-126.8" font-family="Helvetica,sans-Serif" font-size="11.00" fill="#000000">HEAD_PIECE_ID</text>
<polygon fill="none" stroke="#000000" points="340,-97.7 340,-119.7 572,-119.7 572,-97.7 340,-97.7"/>
<image xlink:href="../../images/foreignKeys.png" width="11px" height="12px" preserveAspectRatio="xMinYMin meet" x="345" y="-114.7"/>
<text text-anchor="start" x="360" y="-104.8" font-family="Helvetica,sans-Serif" font-size="11.00" fill="#000000">QUANTIFICATION_METHOD_ID</text>
<polygon fill="none" stroke="#000000" points="340,-75.7 340,-97.7 572,-97.7 572,-75.7 340,-75.7"/>
<image xlink:href="../../images/foreignKeys.png" width="11px" height="12px" preserveAspectRatio="xMinYMin meet" x="345" y="-92.7"/>
<text text-anchor="start" x="360" y="-82.8" font-family="Helvetica,sans-Serif" font-size="11.00" fill="#000000">DELIVERED_CONDITION_ID</text>
<polygon fill="none" stroke="#000000" points="340,-56.7 340,-75.7 572,-75.7 572,-56.7 340,-56.7"/>
<text text-anchor="start" x="343" y="-62.8" font-family="Helvetica,sans-Serif" font-size="11.00" fill="#000000">...</text>
<polygon fill="#ffffff" stroke="transparent" points="340,-37.7 340,-56.7 437,-56.7 437,-37.7 340,-37.7"/>
<polygon fill="none" stroke="#000000" points="340,-37.7 340,-56.7 437,-56.7 437,-37.7 340,-37.7"/>
<text text-anchor="start" x="343" y="-43.8" font-family="Helvetica,sans-Serif" font-size="11.00" fill="#000000">&lt; 12</text>
<polygon fill="#ffffff" stroke="transparent" points="437,-37.7 437,-56.7 516,-56.7 516,-37.7 437,-37.7"/>
<polygon fill="none" stroke="#000000" points="437,-37.7 437,-56.7 516,-56.7 516,-37.7 437,-37.7"/>
<text text-anchor="start" x="474.4956" y="-43.8" font-family="Helvetica,sans-Serif" font-size="11.00" fill="#000000">21 rows</text>
<polygon fill="#ffffff" stroke="transparent" points="516,-37.7 516,-56.7 572,-56.7 572,-37.7 516,-37.7"/>
<polygon fill="none" stroke="#000000" points="516,-37.7 516,-56.7 572,-56.7 572,-37.7 516,-37.7"/>
<text text-anchor="start" x="553.4053" y="-43.8" font-family="Helvetica,sans-Serif" font-size="11.00" fill="#000000">2 &gt;</text>
</a>
</g>
</g>
<!-- OFF_DNAS -->
<g id="node2" class="node">
<title>OFF_DNAS</title>
<g id="a_node2"><a xlink:href="../../tables/OFF_DNAS.html" xlink:title="OFF_DNAS" target="_top">
<polygon fill="#ffffff" stroke="transparent" points="8,-142.7 8,-320.7 291,-320.7 291,-142.7 8,-142.7"/>
<polygon fill="#f5f5f5" stroke="transparent" points="10.5,-295.7 10.5,-318.7 289.5,-318.7 289.5,-295.7 10.5,-295.7"/>
<polygon fill="none" stroke="#000000" points="10.5,-295.7 10.5,-318.7 289.5,-318.7 289.5,-295.7 10.5,-295.7"/>
<text text-anchor="start" x="15.5" y="-304.8" font-family="Helvetica,sans-Serif" font-weight="bold" font-size="11.00" fill="#000000">OFF_DNAS</text>
<text text-anchor="start" x="254.5437" y="-303.8" font-family="Helvetica,sans-Serif" font-size="11.00" fill="#000000">[table]</text>
<polygon fill="none" stroke="#000000" points="10.5,-273.7 10.5,-295.7 118.5,-295.7 118.5,-273.7 10.5,-273.7"/>
<image xlink:href="../../images/primaryKeys.png" width="11px" height="12px" preserveAspectRatio="xMinYMin meet" x="15.5" y="-290.7"/>
<text text-anchor="start" x="30.5" y="-280.8" font-family="Helvetica,sans-Serif" font-size="11.00" fill="#000000">ID</text>
<polygon fill="none" stroke="#000000" points="118.5,-273.7 118.5,-295.7 289.5,-295.7 289.5,-273.7 118.5,-273.7"/>
<text text-anchor="start" x="121.5" y="-281.4" font-family="Helvetica,sans-Serif" font-size="11.00" fill="#000000">number[19]</text>
<polygon fill="none" stroke="#000000" points="10.5,-251.7 10.5,-273.7 118.5,-273.7 118.5,-251.7 10.5,-251.7"/>
<text text-anchor="start" x="30.5" y="-258.8" font-family="Helvetica,sans-Serif" font-size="11.00" fill="#000000">CREATED_AT</text>
<polygon fill="none" stroke="#000000" points="118.5,-251.7 118.5,-273.7 289.5,-273.7 289.5,-251.7 118.5,-251.7"/>
<text text-anchor="start" x="121.4896" y="-259.4" font-family="Helvetica,sans-Serif" font-size="11.00" fill="#000000">timestamp(6) with time zone[13,6]</text>
<polygon fill="none" stroke="#000000" points="10.5,-229.7 10.5,-251.7 118.5,-251.7 118.5,-229.7 10.5,-229.7"/>
<text text-anchor="start" x="30.5" y="-236.8" font-family="Helvetica,sans-Serif" font-size="11.00" fill="#000000">CREATED_BY</text>
<polygon fill="none" stroke="#000000" points="118.5,-229.7 118.5,-251.7 289.5,-251.7 289.5,-229.7 118.5,-229.7"/>
<text text-anchor="start" x="121.5" y="-237.4" font-family="Helvetica,sans-Serif" font-size="11.00" fill="#000000">number[19]</text>
<polygon fill="none" stroke="#000000" points="10.5,-207.7 10.5,-229.7 118.5,-229.7 118.5,-207.7 10.5,-207.7"/>
<text text-anchor="start" x="30.5" y="-214.8" font-family="Helvetica,sans-Serif" font-size="11.00" fill="#000000">UPDATED_AT</text>
<polygon fill="none" stroke="#000000" points="118.5,-207.7 118.5,-229.7 289.5,-229.7 289.5,-207.7 118.5,-207.7"/>
<text text-anchor="start" x="121.4896" y="-215.4" font-family="Helvetica,sans-Serif" font-size="11.00" fill="#000000">timestamp(6) with time zone[13,6]</text>
<polygon fill="none" stroke="#000000" points="10.5,-185.7 10.5,-207.7 118.5,-207.7 118.5,-185.7 10.5,-185.7"/>
<text text-anchor="start" x="30.5" y="-192.8" font-family="Helvetica,sans-Serif" font-size="11.00" fill="#000000">UPDATED_BY</text>
<polygon fill="none" stroke="#000000" points="118.5,-185.7 118.5,-207.7 289.5,-207.7 289.5,-185.7 118.5,-185.7"/>
<text text-anchor="start" x="121.5" y="-193.4" font-family="Helvetica,sans-Serif" font-size="11.00" fill="#000000">number[19]</text>
<polygon fill="none" stroke="#000000" points="10.5,-163.7 10.5,-185.7 118.5,-185.7 118.5,-163.7 10.5,-163.7"/>
<text text-anchor="start" x="30.5" y="-170.8" font-family="Helvetica,sans-Serif" font-size="11.00" fill="#000000">NAME</text>
<polygon fill="none" stroke="#000000" points="118.5,-163.7 118.5,-185.7 289.5,-185.7 289.5,-163.7 118.5,-163.7"/>
<text text-anchor="start" x="121.5" y="-171.4" font-family="Helvetica,sans-Serif" font-size="11.00" fill="#000000">varchar2[255]</text>
<polygon fill="#ffffff" stroke="transparent" points="10.5,-144.7 10.5,-163.7 52.5,-163.7 52.5,-144.7 10.5,-144.7"/>
<polygon fill="none" stroke="#000000" points="10.5,-144.7 10.5,-163.7 52.5,-163.7 52.5,-144.7 10.5,-144.7"/>
<text text-anchor="start" x="13.5" y="-150.8" font-family="Helvetica,sans-Serif" font-size="11.00" fill="#000000">&lt; 0</text>
<polygon fill="#ffffff" stroke="transparent" points="52.5,-144.7 52.5,-163.7 118.5,-163.7 118.5,-144.7 52.5,-144.7"/>
<polygon fill="none" stroke="#000000" points="52.5,-144.7 52.5,-163.7 118.5,-163.7 118.5,-144.7 52.5,-144.7"/>
<text text-anchor="start" x="76.9956" y="-150.8" font-family="Helvetica,sans-Serif" font-size="11.00" fill="#000000">12 rows</text>
<polygon fill="#ffffff" stroke="transparent" points="118.5,-144.7 118.5,-163.7 289.5,-163.7 289.5,-144.7 118.5,-144.7"/>
<polygon fill="none" stroke="#000000" points="118.5,-144.7 118.5,-163.7 289.5,-163.7 289.5,-144.7 118.5,-144.7"/>
<text text-anchor="start" x="270.9053" y="-150.8" font-family="Helvetica,sans-Serif" font-size="11.00" fill="#000000">1 &gt;</text>
<polygon fill="none" stroke="#000000" stroke-width="2" points="9,-143.7 9,-319.7 290,-319.7 290,-143.7 9,-143.7"/>
</a>
</g>
</g>
<!-- TRACER_SYNTHESIS_REQUESTS&#45;&gt;OFF_DNAS -->
<g id="edge1" class="edge">
<title>TRACER_SYNTHESIS_REQUESTS:w&#45;&gt;OFF_DNAS:e</title>
<path fill="none" stroke="#000000" d="M325.4203,-284.7C313.5435,-284.7 306.158,-284.7 289.5,-284.7"/>
<polygon fill="#000000" stroke="#000000" points="332,-284.7001 340,-288.3 336,-284.7 340,-284.7 340,-284.7 340,-284.7 336,-284.7 340,-281.1 332,-284.7001 332,-284.7001"/>
<ellipse fill="none" stroke="#000000" cx="328.8" cy="-284.7001" rx="3.2" ry="3.2"/>
</g>
</g>
</svg>
