<?xml version="1.0" encoding="UTF-8" standalone="no"?>
<!DOCTYPE svg PUBLIC "-//W3C//DTD SVG 1.1//EN"
 "http://www.w3.org/Graphics/SVG/1.1/DTD/svg11.dtd">
<!-- Generated by graphviz version 2.40.1 (20161225.0304)
 -->
<!-- Title: oneDegreeRelationshipsDiagram Pages: 1 -->
<svg width="1188pt" height="374pt"
 viewBox="0.00 0.00 1188.00 373.70" xmlns="http://www.w3.org/2000/svg" xmlns:xlink="http://www.w3.org/1999/xlink">
<g id="graph0" class="graph" transform="scale(1 1) rotate(0) translate(4 369.7)">
<title>oneDegreeRelationshipsDiagram</title>
<polygon fill="#ffffff" stroke="transparent" points="-4,4 -4,-369.7 1184,-369.7 1184,4 -4,4"/>
<text text-anchor="middle" x="72.4936" y="-7.3" font-family="Helvetica,sans-Serif" font-size="11.00" fill="#000000">Generated by SchemaSpy</text>
<!-- CLONE_FORMS -->
<g id="node1" class="node">
<title>CLONE_FORMS</title>
<g id="a_node1"><a xlink:href="../../tables/CLONE_FORMS.html" xlink:title="CLONE_FORMS" target="_top">
<polygon fill="#ffffff" stroke="transparent" points="871,-153.7 871,-346.7 1172,-346.7 1172,-153.7 871,-153.7"/>
<polygon fill="#f5f5f5" stroke="transparent" points="871.5,-323.2 871.5,-346.2 1172.5,-346.2 1172.5,-323.2 871.5,-323.2"/>
<polygon fill="none" stroke="#000000" points="871.5,-323.2 871.5,-346.2 1172.5,-346.2 1172.5,-323.2 871.5,-323.2"/>
<text text-anchor="start" x="876.5" y="-332.3" font-family="Helvetica,sans-Serif" font-weight="bold" font-size="11.00" fill="#000000">CLONE_FORMS</text>
<text text-anchor="start" x="1137.5437" y="-331.3" font-family="Helvetica,sans-Serif" font-size="11.00" fill="#000000">[table]</text>
<polygon fill="none" stroke="#000000" points="871.5,-301.2 871.5,-323.2 1172.5,-323.2 1172.5,-301.2 871.5,-301.2"/>
<image xlink:href="../../images/primaryKeys.png" width="11px" height="12px" preserveAspectRatio="xMinYMin meet" x="876.5" y="-318.2"/>
<text text-anchor="start" x="891.5" y="-308.3" font-family="Helvetica,sans-Serif" font-size="11.00" fill="#000000">ID</text>
<polygon fill="none" stroke="#000000" points="871.5,-279.2 871.5,-301.2 1172.5,-301.2 1172.5,-279.2 871.5,-279.2"/>
<image xlink:href="../../images/foreignKeys.png" width="11px" height="12px" preserveAspectRatio="xMinYMin meet" x="876.5" y="-296.2"/>
<text text-anchor="start" x="891.5" y="-286.3" font-family="Helvetica,sans-Serif" font-size="11.00" fill="#000000">ISOFORM_ID</text>
<polygon fill="none" stroke="#000000" points="871.5,-257.2 871.5,-279.2 1172.5,-279.2 1172.5,-257.2 871.5,-257.2"/>
<image xlink:href="../../images/primaryKeys.png" width="11px" height="12px" preserveAspectRatio="xMinYMin meet" x="876.5" y="-274.2"/>
<text text-anchor="start" x="891.5" y="-264.3" font-family="Helvetica,sans-Serif" font-size="11.00" fill="#000000">NAME</text>
<polygon fill="none" stroke="#000000" points="871.5,-235.2 871.5,-257.2 1172.5,-257.2 1172.5,-235.2 871.5,-235.2"/>
<image xlink:href="../../images/foreignKeys.png" width="11px" height="12px" preserveAspectRatio="xMinYMin meet" x="876.5" y="-252.2"/>
<text text-anchor="start" x="891.5" y="-242.3" font-family="Helvetica,sans-Serif" font-size="11.00" fill="#000000">TARGET_FORM_ID</text>
<polygon fill="none" stroke="#000000" points="871.5,-213.2 871.5,-235.2 1172.5,-235.2 1172.5,-213.2 871.5,-213.2"/>
<image xlink:href="../../images/foreignKeys.png" width="11px" height="12px" preserveAspectRatio="xMinYMin meet" x="876.5" y="-230.2"/>
<text text-anchor="start" x="891.5" y="-220.3" font-family="Helvetica,sans-Serif" font-size="11.00" fill="#000000">POST_TRANSLATIONAL_MODIFICATION_ID</text>
<polygon fill="none" stroke="#000000" points="871.5,-191.2 871.5,-213.2 1172.5,-213.2 1172.5,-191.2 871.5,-191.2"/>
<image xlink:href="../../images/foreignKeys.png" width="11px" height="12px" preserveAspectRatio="xMinYMin meet" x="876.5" y="-208.2"/>
<text text-anchor="start" x="891.5" y="-198.3" font-family="Helvetica,sans-Serif" font-size="11.00" fill="#000000">SPECIES_ID</text>
<polygon fill="none" stroke="#000000" points="871.5,-172.2 871.5,-191.2 1172.5,-191.2 1172.5,-172.2 871.5,-172.2"/>
<text text-anchor="start" x="874.5" y="-178.3" font-family="Helvetica,sans-Serif" font-size="11.00" fill="#000000">...</text>
<polygon fill="#ffffff" stroke="transparent" points="871.5,-153.2 871.5,-172.2 993.5,-172.2 993.5,-153.2 871.5,-153.2"/>
<polygon fill="none" stroke="#000000" points="871.5,-153.2 871.5,-172.2 993.5,-172.2 993.5,-153.2 871.5,-153.2"/>
<text text-anchor="start" x="874.5" y="-159.3" font-family="Helvetica,sans-Serif" font-size="11.00" fill="#000000">&lt; 4</text>
<polygon fill="#ffffff" stroke="transparent" points="993.5,-153.2 993.5,-172.2 1094.5,-172.2 1094.5,-153.2 993.5,-153.2"/>
<polygon fill="none" stroke="#000000" points="993.5,-153.2 993.5,-172.2 1094.5,-172.2 1094.5,-153.2 993.5,-153.2"/>
<text text-anchor="start" x="1046.8807" y="-159.3" font-family="Helvetica,sans-Serif" font-size="11.00" fill="#000000">467 rows</text>
<polygon fill="#ffffff" stroke="transparent" points="1094.5,-153.2 1094.5,-172.2 1172.5,-172.2 1172.5,-153.2 1094.5,-153.2"/>
<polygon fill="none" stroke="#000000" points="1094.5,-153.2 1094.5,-172.2 1172.5,-172.2 1172.5,-153.2 1094.5,-153.2"/>
<text text-anchor="start" x="1147.7904" y="-159.3" font-family="Helvetica,sans-Serif" font-size="11.00" fill="#000000">14 &gt;</text>
</a>
</g>
</g>
<!-- POST_TRANSLATIONAL_MODIFICATIONS -->
<g id="node2" class="node">
<title>POST_TRANSLATIONAL_MODIFICATIONS</title>
<g id="a_node2"><a xlink:href="../../tables/POST_TRANSLATIONAL_MODIFICATIONS.html" xlink:title="POST_TRANSLATIONAL_MODIFICATIONS" target="_top">
<polygon fill="#ffffff" stroke="transparent" points="8,-38.2 8,-238.2 472,-238.2 472,-38.2 8,-38.2"/>
<polygon fill="#f5f5f5" stroke="transparent" points="10,-213.2 10,-236.2 470,-236.2 470,-213.2 10,-213.2"/>
<polygon fill="none" stroke="#000000" points="10,-213.2 10,-236.2 470,-236.2 470,-213.2 10,-213.2"/>
<text text-anchor="start" x="15" y="-222.3" font-family="Helvetica,sans-Serif" font-weight="bold" font-size="11.00" fill="#000000">POST_TRANSLATIONAL_MODIFICATIONS</text>
<text text-anchor="start" x="435.0437" y="-221.3" font-family="Helvetica,sans-Serif" font-size="11.00" fill="#000000">[table]</text>
<polygon fill="none" stroke="#000000" points="10,-191.2 10,-213.2 299,-213.2 299,-191.2 10,-191.2"/>
<image xlink:href="../../images/primaryKeys.png" width="11px" height="12px" preserveAspectRatio="xMinYMin meet" x="15" y="-208.2"/>
<text text-anchor="start" x="30" y="-198.3" font-family="Helvetica,sans-Serif" font-size="11.00" fill="#000000">ID</text>
<polygon fill="none" stroke="#000000" points="299,-191.2 299,-213.2 470,-213.2 470,-191.2 299,-191.2"/>
<text text-anchor="start" x="302" y="-198.9" font-family="Helvetica,sans-Serif" font-size="11.00" fill="#000000">number[19]</text>
<polygon fill="none" stroke="#000000" points="10,-169.2 10,-191.2 299,-191.2 299,-169.2 10,-169.2"/>
<text text-anchor="start" x="30" y="-176.3" font-family="Helvetica,sans-Serif" font-size="11.00" fill="#000000">CREATED_AT</text>
<polygon fill="none" stroke="#000000" points="299,-169.2 299,-191.2 470,-191.2 470,-169.2 299,-169.2"/>
<text text-anchor="start" x="301.9896" y="-176.9" font-family="Helvetica,sans-Serif" font-size="11.00" fill="#000000">timestamp(6) with time zone[13,6]</text>
<polygon fill="none" stroke="#000000" points="10,-147.2 10,-169.2 299,-169.2 299,-147.2 10,-147.2"/>
<text text-anchor="start" x="30" y="-154.3" font-family="Helvetica,sans-Serif" font-size="11.00" fill="#000000">CREATED_BY</text>
<polygon fill="none" stroke="#000000" points="299,-147.2 299,-169.2 470,-169.2 470,-147.2 299,-147.2"/>
<text text-anchor="start" x="302" y="-154.9" font-family="Helvetica,sans-Serif" font-size="11.00" fill="#000000">number[19]</text>
<polygon fill="none" stroke="#000000" points="10,-125.2 10,-147.2 299,-147.2 299,-125.2 10,-125.2"/>
<text text-anchor="start" x="30" y="-132.3" font-family="Helvetica,sans-Serif" font-size="11.00" fill="#000000">UPDATED_AT</text>
<polygon fill="none" stroke="#000000" points="299,-125.2 299,-147.2 470,-147.2 470,-125.2 299,-125.2"/>
<text text-anchor="start" x="301.9896" y="-132.9" font-family="Helvetica,sans-Serif" font-size="11.00" fill="#000000">timestamp(6) with time zone[13,6]</text>
<polygon fill="none" stroke="#000000" points="10,-103.2 10,-125.2 299,-125.2 299,-103.2 10,-103.2"/>
<text text-anchor="start" x="30" y="-110.3" font-family="Helvetica,sans-Serif" font-size="11.00" fill="#000000">UPDATED_BY</text>
<polygon fill="none" stroke="#000000" points="299,-103.2 299,-125.2 470,-125.2 470,-103.2 299,-103.2"/>
<text text-anchor="start" x="302" y="-110.9" font-family="Helvetica,sans-Serif" font-size="11.00" fill="#000000">number[19]</text>
<polygon fill="none" stroke="#000000" points="10,-81.2 10,-103.2 299,-103.2 299,-81.2 10,-81.2"/>
<text text-anchor="start" x="30" y="-88.3" font-family="Helvetica,sans-Serif" font-size="11.00" fill="#000000">NAME</text>
<polygon fill="none" stroke="#000000" points="299,-81.2 299,-103.2 470,-103.2 470,-81.2 299,-81.2"/>
<text text-anchor="start" x="302" y="-88.9" font-family="Helvetica,sans-Serif" font-size="11.00" fill="#000000">varchar2[255]</text>
<polygon fill="none" stroke="#000000" points="10,-59.2 10,-81.2 299,-81.2 299,-59.2 10,-59.2"/>
<text text-anchor="start" x="30" y="-66.3" font-family="Helvetica,sans-Serif" font-size="11.00" fill="#000000">ABBREVIATION</text>
<polygon fill="none" stroke="#000000" points="299,-59.2 299,-81.2 470,-81.2 470,-59.2 299,-59.2"/>
<text text-anchor="start" x="302" y="-66.9" font-family="Helvetica,sans-Serif" font-size="11.00" fill="#000000">varchar2[255]</text>
<polygon fill="#ffffff" stroke="transparent" points="10,-40.2 10,-59.2 146,-59.2 146,-40.2 10,-40.2"/>
<polygon fill="none" stroke="#000000" points="10,-40.2 10,-59.2 146,-59.2 146,-40.2 10,-40.2"/>
<text text-anchor="start" x="13" y="-46.3" font-family="Helvetica,sans-Serif" font-size="11.00" fill="#000000">&lt; 0</text>
<polygon fill="#ffffff" stroke="transparent" points="146,-40.2 146,-59.2 299,-59.2 299,-40.2 146,-40.2"/>
<polygon fill="none" stroke="#000000" points="146,-40.2 146,-59.2 299,-59.2 299,-40.2 146,-40.2"/>
<text text-anchor="start" x="263.6105" y="-46.3" font-family="Helvetica,sans-Serif" font-size="11.00" fill="#000000">2 rows</text>
<polygon fill="#ffffff" stroke="transparent" points="299,-40.2 299,-59.2 470,-59.2 470,-40.2 299,-40.2"/>
<polygon fill="none" stroke="#000000" points="299,-40.2 299,-59.2 470,-59.2 470,-40.2 299,-40.2"/>
<text text-anchor="start" x="451.4053" y="-46.3" font-family="Helvetica,sans-Serif" font-size="11.00" fill="#000000">2 &gt;</text>
<polygon fill="none" stroke="#000000" stroke-width="2" points="9,-39.2 9,-237.2 471,-237.2 471,-39.2 9,-39.2"/>
</a>
</g>
</g>
<!-- CLONE_FORMS&#45;&gt;POST_TRANSLATIONAL_MODIFICATIONS -->
<g id="edge1" class="edge">
<title>CLONE_FORMS:w&#45;&gt;POST_TRANSLATIONAL_MODIFICATIONS:e</title>
<path fill="none" stroke="#000000" d="M857.4022,-219.5451C843.7629,-206.8757 854.6427,-171.8144 830,-158.2 706.6798,-90.0691 642.8524,-103.537 513,-158.2 487.7987,-168.8088 497.3433,-202.2 470,-202.2"/>
<polygon fill="#000000" stroke="#000000" points="863.9034,-221.6916 870.3712,-227.6185 867.7017,-222.9458 871.5,-224.2 871.5,-224.2 871.5,-224.2 867.7017,-222.9458 872.6288,-220.7815 863.9034,-221.6916 863.9034,-221.6916"/>
<ellipse fill="none" stroke="#000000" cx="860.8648" cy="-220.6883" rx="3.2" ry="3.2"/>
</g>
<!-- TARGET_FORMS -->
<g id="node3" class="node">
<title>TARGET_FORMS</title>
<g id="a_node3"><a xlink:href="../../tables/TARGET_FORMS.html" xlink:title="TARGET_FORMS" target="_top">
<polygon fill="#ffffff" stroke="transparent" points="521,-168.7 521,-361.7 822,-361.7 822,-168.7 521,-168.7"/>
<polygon fill="#f5f5f5" stroke="transparent" points="521.5,-338.2 521.5,-361.2 822.5,-361.2 822.5,-338.2 521.5,-338.2"/>
<polygon fill="none" stroke="#000000" points="521.5,-338.2 521.5,-361.2 822.5,-361.2 822.5,-338.2 521.5,-338.2"/>
<text text-anchor="start" x="526.5" y="-347.3" font-family="Helvetica,sans-Serif" font-weight="bold" font-size="11.00" fill="#000000">TARGET_FORMS</text>
<text text-anchor="start" x="787.5437" y="-346.3" font-family="Helvetica,sans-Serif" font-size="11.00" fill="#000000">[table]</text>
<polygon fill="none" stroke="#000000" points="521.5,-316.2 521.5,-338.2 822.5,-338.2 822.5,-316.2 521.5,-316.2"/>
<image xlink:href="../../images/primaryKeys.png" width="11px" height="12px" preserveAspectRatio="xMinYMin meet" x="526.5" y="-333.2"/>
<text text-anchor="start" x="541.5" y="-323.3" font-family="Helvetica,sans-Serif" font-size="11.00" fill="#000000">ID</text>
<polygon fill="none" stroke="#000000" points="521.5,-294.2 521.5,-316.2 822.5,-316.2 822.5,-294.2 521.5,-294.2"/>
<image xlink:href="../../images/foreignKeys.png" width="11px" height="12px" preserveAspectRatio="xMinYMin meet" x="526.5" y="-311.2"/>
<text text-anchor="start" x="541.5" y="-301.3" font-family="Helvetica,sans-Serif" font-size="11.00" fill="#000000">TARGET_ID</text>
<polygon fill="none" stroke="#000000" points="521.5,-272.2 521.5,-294.2 822.5,-294.2 822.5,-272.2 521.5,-272.2"/>
<image xlink:href="../../images/foreignKeys.png" width="11px" height="12px" preserveAspectRatio="xMinYMin meet" x="526.5" y="-289.2"/>
<text text-anchor="start" x="541.5" y="-279.3" font-family="Helvetica,sans-Serif" font-size="11.00" fill="#000000">SPECIES_ID</text>
<polygon fill="none" stroke="#000000" points="521.5,-250.2 521.5,-272.2 822.5,-272.2 822.5,-250.2 521.5,-250.2"/>
<image xlink:href="../../images/foreignKeys.png" width="11px" height="12px" preserveAspectRatio="xMinYMin meet" x="526.5" y="-267.2"/>
<text text-anchor="start" x="541.5" y="-257.3" font-family="Helvetica,sans-Serif" font-size="11.00" fill="#000000">POST_TRANSLATIONAL_MODIFICATION_ID</text>
<polygon fill="none" stroke="#000000" points="521.5,-228.2 521.5,-250.2 822.5,-250.2 822.5,-228.2 521.5,-228.2"/>
<image xlink:href="../../images/foreignKeys.png" width="11px" height="12px" preserveAspectRatio="xMinYMin meet" x="526.5" y="-245.2"/>
<text text-anchor="start" x="541.5" y="-235.3" font-family="Helvetica,sans-Serif" font-size="11.00" fill="#000000">ISOFORM_ID</text>
<polygon fill="none" stroke="#000000" points="521.5,-206.2 521.5,-228.2 822.5,-228.2 822.5,-206.2 521.5,-206.2"/>
<image xlink:href="../../images/foreignKeys.png" width="11px" height="12px" preserveAspectRatio="xMinYMin meet" x="526.5" y="-223.2"/>
<text text-anchor="start" x="541.5" y="-213.3" font-family="Helvetica,sans-Serif" font-size="11.00" fill="#000000">EXPRESSION_SYSTEM_ID</text>
<polygon fill="none" stroke="#000000" points="521.5,-187.2 521.5,-206.2 822.5,-206.2 822.5,-187.2 521.5,-187.2"/>
<text text-anchor="start" x="524.5" y="-193.3" font-family="Helvetica,sans-Serif" font-size="11.00" fill="#000000">...</text>
<polygon fill="#ffffff" stroke="transparent" points="521.5,-168.2 521.5,-187.2 643.5,-187.2 643.5,-168.2 521.5,-168.2"/>
<polygon fill="none" stroke="#000000" points="521.5,-168.2 521.5,-187.2 643.5,-187.2 643.5,-168.2 521.5,-168.2"/>
<text text-anchor="start" x="524.5" y="-174.3" font-family="Helvetica,sans-Serif" font-size="11.00" fill="#000000">&lt; 5</text>
<polygon fill="#ffffff" stroke="transparent" points="643.5,-168.2 643.5,-187.2 744.5,-187.2 744.5,-168.2 643.5,-168.2"/>
<polygon fill="none" stroke="#000000" points="643.5,-168.2 643.5,-187.2 744.5,-187.2 744.5,-168.2 643.5,-168.2"/>
<text text-anchor="start" x="696.8807" y="-174.3" font-family="Helvetica,sans-Serif" font-size="11.00" fill="#000000">541 rows</text>
<polygon fill="#ffffff" stroke="transparent" points="744.5,-168.2 744.5,-187.2 822.5,-187.2 822.5,-168.2 744.5,-168.2"/>
<polygon fill="none" stroke="#000000" points="744.5,-168.2 744.5,-187.2 822.5,-187.2 822.5,-168.2 744.5,-168.2"/>
<text text-anchor="start" x="797.7904" y="-174.3" font-family="Helvetica,sans-Serif" font-size="11.00" fill="#000000">18 &gt;</text>
</a>
</g>
</g>
<!-- CLONE_FORMS&#45;&gt;TARGET_FORMS -->
<g id="edge2" class="edge">
<title>CLONE_FORMS:w&#45;&gt;TARGET_FORMS:e</title>
<path fill="none" stroke="#000000" d="M857.6299,-250.787C837.9726,-267.922 858.4935,-327.2 822.5,-327.2"/>
<polygon fill="#000000" stroke="#000000" points="863.9046,-248.7119 872.6304,-249.6179 867.7023,-247.456 871.5,-246.2 871.5,-246.2 871.5,-246.2 867.7023,-247.456 870.3696,-242.7821 863.9046,-248.7119 863.9046,-248.7119"/>
<ellipse fill="none" stroke="#000000" cx="860.8664" cy="-249.7167" rx="3.2" ry="3.2"/>
</g>
<!-- TARGET_FORMS&#45;&gt;POST_TRANSLATIONAL_MODIFICATIONS -->
<g id="edge3" class="edge">
<title>TARGET_FORMS:w&#45;&gt;POST_TRANSLATIONAL_MODIFICATIONS:e</title>
<path fill="none" stroke="#000000" d="M507.7053,-256.5704C491.3565,-242.6617 498.8243,-202.2 470,-202.2"/>
<polygon fill="#000000" stroke="#000000" points="513.9157,-258.6546 520.3546,-264.6129 517.7079,-259.9273 521.5,-261.2 521.5,-261.2 521.5,-261.2 517.7079,-259.9273 522.6454,-257.7871 513.9157,-258.6546 513.9157,-258.6546"/>
<ellipse fill="none" stroke="#000000" cx="510.882" cy="-257.6364" rx="3.2" ry="3.2"/>
</g>
</g>
</svg>
