<?xml version="1.0" encoding="UTF-8" standalone="no"?>
<!DOCTYPE svg PUBLIC "-//W3C//DTD SVG 1.1//EN"
 "http://www.w3.org/Graphics/SVG/1.1/DTD/svg11.dtd">
<!-- Generated by graphviz version 2.40.1 (20161225.0304)
 -->
<!-- Title: oneDegreeRelationshipsDiagram Pages: 1 -->
<svg width="655pt" height="293pt"
 viewBox="0.00 0.00 655.00 292.70" xmlns="http://www.w3.org/2000/svg" xmlns:xlink="http://www.w3.org/1999/xlink">
<g id="graph0" class="graph" transform="scale(1 1) rotate(0) translate(4 288.7)">
<title>oneDegreeRelationshipsDiagram</title>
<polygon fill="#ffffff" stroke="transparent" points="-4,4 -4,-288.7 651,-288.7 651,4 -4,4"/>
<text text-anchor="middle" x="72.4936" y="-7.3" font-family="Helvetica,sans-Serif" font-size="11.00" fill="#000000">Generated by SchemaSpy</text>
<!-- TARGETS -->
<g id="node1" class="node">
<title>TARGETS</title>
<g id="a_node1"><a xlink:href="../../tables/TARGETS.html" xlink:title="TARGETS" target="_top">
<polygon fill="#ffffff" stroke="transparent" points="389,-131.7 389,-280.7 639,-280.7 639,-131.7 389,-131.7"/>
<polygon fill="#f5f5f5" stroke="transparent" points="389,-257.2 389,-280.2 639,-280.2 639,-257.2 389,-257.2"/>
<polygon fill="none" stroke="#000000" points="389,-257.2 389,-280.2 639,-280.2 639,-257.2 389,-257.2"/>
<text text-anchor="start" x="394" y="-266.3" font-family="Helvetica,sans-Serif" font-weight="bold" font-size="11.00" fill="#000000">TARGETS</text>
<text text-anchor="start" x="604.0437" y="-265.3" font-family="Helvetica,sans-Serif" font-size="11.00" fill="#000000">[table]</text>
<polygon fill="none" stroke="#000000" points="389,-235.2 389,-257.2 639,-257.2 639,-235.2 389,-235.2"/>
<image xlink:href="../../images/primaryKeys.png" width="11px" height="12px" preserveAspectRatio="xMinYMin meet" x="394" y="-252.2"/>
<text text-anchor="start" x="409" y="-242.3" font-family="Helvetica,sans-Serif" font-size="11.00" fill="#000000">ID</text>
<polygon fill="none" stroke="#000000" points="389,-213.2 389,-235.2 639,-235.2 639,-213.2 389,-213.2"/>
<image xlink:href="../../images/foreignKeys.png" width="11px" height="12px" preserveAspectRatio="xMinYMin meet" x="394" y="-230.2"/>
<text text-anchor="start" x="409" y="-220.3" font-family="Helvetica,sans-Serif" font-size="11.00" fill="#000000">PROJECT_ID</text>
<polygon fill="none" stroke="#000000" points="389,-191.2 389,-213.2 639,-213.2 639,-191.2 389,-191.2"/>
<image xlink:href="../../images/foreignKeys.png" width="11px" height="12px" preserveAspectRatio="xMinYMin meet" x="394" y="-208.2"/>
<text text-anchor="start" x="409" y="-198.3" font-family="Helvetica,sans-Serif" font-size="11.00" fill="#000000">TARGET_CATEGORY_ID</text>
<polygon fill="none" stroke="#000000" points="389,-169.2 389,-191.2 639,-191.2 639,-169.2 389,-169.2"/>
<image xlink:href="../../images/foreignKeys.png" width="11px" height="12px" preserveAspectRatio="xMinYMin meet" x="394" y="-186.2"/>
<text text-anchor="start" x="409" y="-176.3" font-family="Helvetica,sans-Serif" font-size="11.00" fill="#000000">THERAPEUTIC_ID</text>
<polygon fill="none" stroke="#000000" points="389,-150.2 389,-169.2 639,-169.2 639,-150.2 389,-150.2"/>
<text text-anchor="start" x="392" y="-156.3" font-family="Helvetica,sans-Serif" font-size="11.00" fill="#000000">...</text>
<polygon fill="#ffffff" stroke="transparent" points="389,-131.2 389,-150.2 486,-150.2 486,-131.2 389,-131.2"/>
<polygon fill="none" stroke="#000000" points="389,-131.2 389,-150.2 486,-150.2 486,-131.2 389,-131.2"/>
<text text-anchor="start" x="392" y="-137.3" font-family="Helvetica,sans-Serif" font-size="11.00" fill="#000000">&lt; 3</text>
<polygon fill="#ffffff" stroke="transparent" points="486,-131.2 486,-150.2 574,-150.2 574,-131.2 486,-131.2"/>
<polygon fill="none" stroke="#000000" points="486,-131.2 486,-150.2 574,-150.2 574,-131.2 486,-131.2"/>
<text text-anchor="start" x="526.3807" y="-137.3" font-family="Helvetica,sans-Serif" font-size="11.00" fill="#000000">146 rows</text>
<polygon fill="#ffffff" stroke="transparent" points="574,-131.2 574,-150.2 639,-150.2 639,-131.2 574,-131.2"/>
<polygon fill="none" stroke="#000000" points="574,-131.2 574,-150.2 639,-150.2 639,-131.2 574,-131.2"/>
<text text-anchor="start" x="614.2904" y="-137.3" font-family="Helvetica,sans-Serif" font-size="11.00" fill="#000000">10 &gt;</text>
</a>
</g>
</g>
<!-- PROJECTS -->
<g id="node2" class="node">
<title>PROJECTS</title>
<g id="a_node2"><a xlink:href="../../tables/PROJECTS.html" xlink:title="PROJECTS" target="_top">
<polygon fill="#ffffff" stroke="transparent" points="8,-38.2 8,-260.2 340,-260.2 340,-38.2 8,-38.2"/>
<polygon fill="#f5f5f5" stroke="transparent" points="10,-235.2 10,-258.2 338,-258.2 338,-235.2 10,-235.2"/>
<polygon fill="none" stroke="#000000" points="10,-235.2 10,-258.2 338,-258.2 338,-235.2 10,-235.2"/>
<text text-anchor="start" x="15" y="-244.3" font-family="Helvetica,sans-Serif" font-weight="bold" font-size="11.00" fill="#000000">PROJECTS</text>
<text text-anchor="start" x="303.0437" y="-243.3" font-family="Helvetica,sans-Serif" font-size="11.00" fill="#000000">[table]</text>
<polygon fill="none" stroke="#000000" points="10,-213.2 10,-235.2 167,-235.2 167,-213.2 10,-213.2"/>
<image xlink:href="../../images/primaryKeys.png" width="11px" height="12px" preserveAspectRatio="xMinYMin meet" x="15" y="-230.2"/>
<text text-anchor="start" x="30" y="-220.3" font-family="Helvetica,sans-Serif" font-size="11.00" fill="#000000">ID</text>
<polygon fill="none" stroke="#000000" points="167,-213.2 167,-235.2 338,-235.2 338,-213.2 167,-213.2"/>
<text text-anchor="start" x="170" y="-220.9" font-family="Helvetica,sans-Serif" font-size="11.00" fill="#000000">number[19]</text>
<polygon fill="none" stroke="#000000" points="10,-191.2 10,-213.2 167,-213.2 167,-191.2 10,-191.2"/>
<text text-anchor="start" x="30" y="-198.3" font-family="Helvetica,sans-Serif" font-size="11.00" fill="#000000">CREATED_AT</text>
<polygon fill="none" stroke="#000000" points="167,-191.2 167,-213.2 338,-213.2 338,-191.2 167,-191.2"/>
<text text-anchor="start" x="169.9896" y="-198.9" font-family="Helvetica,sans-Serif" font-size="11.00" fill="#000000">timestamp(6) with time zone[13,6]</text>
<polygon fill="none" stroke="#000000" points="10,-169.2 10,-191.2 167,-191.2 167,-169.2 10,-169.2"/>
<text text-anchor="start" x="30" y="-176.3" font-family="Helvetica,sans-Serif" font-size="11.00" fill="#000000">CREATED_BY</text>
<polygon fill="none" stroke="#000000" points="167,-169.2 167,-191.2 338,-191.2 338,-169.2 167,-169.2"/>
<text text-anchor="start" x="170" y="-176.9" font-family="Helvetica,sans-Serif" font-size="11.00" fill="#000000">number[19]</text>
<polygon fill="none" stroke="#000000" points="10,-147.2 10,-169.2 167,-169.2 167,-147.2 10,-147.2"/>
<text text-anchor="start" x="30" y="-154.3" font-family="Helvetica,sans-Serif" font-size="11.00" fill="#000000">UPDATED_AT</text>
<polygon fill="none" stroke="#000000" points="167,-147.2 167,-169.2 338,-169.2 338,-147.2 167,-147.2"/>
<text text-anchor="start" x="169.9896" y="-154.9" font-family="Helvetica,sans-Serif" font-size="11.00" fill="#000000">timestamp(6) with time zone[13,6]</text>
<polygon fill="none" stroke="#000000" points="10,-125.2 10,-147.2 167,-147.2 167,-125.2 10,-125.2"/>
<text text-anchor="start" x="30" y="-132.3" font-family="Helvetica,sans-Serif" font-size="11.00" fill="#000000">UPDATED_BY</text>
<polygon fill="none" stroke="#000000" points="167,-125.2 167,-147.2 338,-147.2 338,-125.2 167,-125.2"/>
<text text-anchor="start" x="170" y="-132.9" font-family="Helvetica,sans-Serif" font-size="11.00" fill="#000000">number[19]</text>
<polygon fill="none" stroke="#000000" points="10,-103.2 10,-125.2 167,-125.2 167,-103.2 10,-103.2"/>
<text text-anchor="start" x="30" y="-110.3" font-family="Helvetica,sans-Serif" font-size="11.00" fill="#000000">DESCRIPTION</text>
<polygon fill="none" stroke="#000000" points="167,-103.2 167,-125.2 338,-125.2 338,-103.2 167,-103.2"/>
<text text-anchor="start" x="170" y="-110.9" font-family="Helvetica,sans-Serif" font-size="11.00" fill="#000000">clob[4000]</text>
<polygon fill="none" stroke="#000000" points="10,-81.2 10,-103.2 167,-103.2 167,-81.2 10,-81.2"/>
<image xlink:href="../../images/primaryKeys.png" width="11px" height="12px" preserveAspectRatio="xMinYMin meet" x="15" y="-98.2"/>
<text text-anchor="start" x="30" y="-88.3" font-family="Helvetica,sans-Serif" font-size="11.00" fill="#000000">NAME</text>
<polygon fill="none" stroke="#000000" points="167,-81.2 167,-103.2 338,-103.2 338,-81.2 167,-81.2"/>
<text text-anchor="start" x="170" y="-88.9" font-family="Helvetica,sans-Serif" font-size="11.00" fill="#000000">varchar2[255]</text>
<polygon fill="none" stroke="#000000" points="10,-59.2 10,-81.2 167,-81.2 167,-59.2 10,-59.2"/>
<text text-anchor="start" x="30" y="-66.3" font-family="Helvetica,sans-Serif" font-size="11.00" fill="#000000">PARTNER_COMPANY</text>
<polygon fill="none" stroke="#000000" points="167,-59.2 167,-81.2 338,-81.2 338,-59.2 167,-59.2"/>
<text text-anchor="start" x="170" y="-66.9" font-family="Helvetica,sans-Serif" font-size="11.00" fill="#000000">varchar2[255]</text>
<polygon fill="#ffffff" stroke="transparent" points="10,-40.2 10,-59.2 77,-59.2 77,-40.2 10,-40.2"/>
<polygon fill="none" stroke="#000000" points="10,-40.2 10,-59.2 77,-59.2 77,-40.2 10,-40.2"/>
<text text-anchor="start" x="13" y="-46.3" font-family="Helvetica,sans-Serif" font-size="11.00" fill="#000000">&lt; 0</text>
<polygon fill="#ffffff" stroke="transparent" points="77,-40.2 77,-59.2 167,-59.2 167,-40.2 77,-40.2"/>
<polygon fill="none" stroke="#000000" points="77,-40.2 77,-59.2 167,-59.2 167,-40.2 77,-40.2"/>
<text text-anchor="start" x="125.4956" y="-46.3" font-family="Helvetica,sans-Serif" font-size="11.00" fill="#000000">55 rows</text>
<polygon fill="#ffffff" stroke="transparent" points="167,-40.2 167,-59.2 338,-59.2 338,-40.2 167,-40.2"/>
<polygon fill="none" stroke="#000000" points="167,-40.2 167,-59.2 338,-59.2 338,-40.2 167,-40.2"/>
<text text-anchor="start" x="319.4053" y="-46.3" font-family="Helvetica,sans-Serif" font-size="11.00" fill="#000000">1 &gt;</text>
<polygon fill="none" stroke="#000000" stroke-width="2" points="9,-39.2 9,-259.2 339,-259.2 339,-39.2 9,-39.2"/>
</a>
</g>
</g>
<!-- TARGETS&#45;&gt;PROJECTS -->
<g id="edge1" class="edge">
<title>TARGETS:w&#45;&gt;PROJECTS:e</title>
<path fill="none" stroke="#000000" d="M374.276,-224.2C362.2815,-224.2 354.8229,-224.2 338,-224.2"/>
<polygon fill="#000000" stroke="#000000" points="381,-224.2001 389,-227.8 385,-224.2 389,-224.2 389,-224.2 389,-224.2 385,-224.2 389,-220.6 381,-224.2001 381,-224.2001"/>
<ellipse fill="none" stroke="#000000" cx="377.8" cy="-224.2001" rx="3.2" ry="3.2"/>
</g>
</g>
</svg>
