<?xml version="1.0" encoding="UTF-8" standalone="no"?>
<!DOCTYPE svg PUBLIC "-//W3C//DTD SVG 1.1//EN"
 "http://www.w3.org/Graphics/SVG/1.1/DTD/svg11.dtd">
<!-- Generated by graphviz version 2.40.1 (20161225.0304)
 -->
<!-- Title: twoDegreesRelationshipsDiagram Pages: 1 -->
<svg width="1381pt" height="704pt"
 viewBox="0.00 0.00 1381.00 703.52" xmlns="http://www.w3.org/2000/svg" xmlns:xlink="http://www.w3.org/1999/xlink">
<g id="graph0" class="graph" transform="scale(1 1) rotate(0) translate(4 699.5213)">
<title>twoDegreesRelationshipsDiagram</title>
<polygon fill="#ffffff" stroke="transparent" points="-4,4 -4,-699.5213 1377,-699.5213 1377,4 -4,4"/>
<text text-anchor="middle" x="72.4936" y="-7.3" font-family="Helvetica,sans-Serif" font-size="11.00" fill="#000000">Generated by SchemaSpy</text>
<!-- ISOFORMS -->
<g id="node1" class="node">
<title>ISOFORMS</title>
<g id="a_node1"><a xlink:href="../../tables/ISOFORMS.html" xlink:title="ISOFORMS" target="_top">
<polygon fill="#ffffff" stroke="transparent" points="749,-394.2 749,-455.2 850,-455.2 850,-394.2 749,-394.2"/>
<polygon fill="#f5f5f5" stroke="transparent" points="749.5,-431.7 749.5,-454.7 850.5,-454.7 850.5,-431.7 749.5,-431.7"/>
<polygon fill="none" stroke="#000000" points="749.5,-431.7 749.5,-454.7 850.5,-454.7 850.5,-431.7 749.5,-431.7"/>
<text text-anchor="start" x="754.1674" y="-440.8" font-family="Helvetica,sans-Serif" font-weight="bold" font-size="11.00" fill="#000000">ISOFORMS</text>
<text text-anchor="start" x="816.0219" y="-439.8" font-family="Helvetica,sans-Serif" font-size="11.00" fill="#000000">[table]</text>
<polygon fill="none" stroke="#000000" points="749.5,-412.7 749.5,-431.7 850.5,-431.7 850.5,-412.7 749.5,-412.7"/>
<text text-anchor="start" x="752.5" y="-418.8" font-family="Helvetica,sans-Serif" font-size="11.00" fill="#000000">...</text>
<polygon fill="#ffffff" stroke="transparent" points="749.5,-393.7 749.5,-412.7 771.5,-412.7 771.5,-393.7 749.5,-393.7"/>
<polygon fill="none" stroke="#000000" points="749.5,-393.7 749.5,-412.7 771.5,-412.7 771.5,-393.7 749.5,-393.7"/>
<text text-anchor="start" x="752.5" y="-399.8" font-family="Helvetica,sans-Serif" font-size="11.00" fill="#000000">&lt; 1</text>
<polygon fill="#ffffff" stroke="transparent" points="771.5,-393.7 771.5,-412.7 822.5,-412.7 822.5,-393.7 771.5,-393.7"/>
<polygon fill="none" stroke="#000000" points="771.5,-393.7 771.5,-412.7 822.5,-412.7 822.5,-393.7 771.5,-393.7"/>
<text text-anchor="start" x="774.8807" y="-399.8" font-family="Helvetica,sans-Serif" font-size="11.00" fill="#000000">519 rows</text>
<polygon fill="#ffffff" stroke="transparent" points="822.5,-393.7 822.5,-412.7 850.5,-412.7 850.5,-393.7 822.5,-393.7"/>
<polygon fill="none" stroke="#000000" points="822.5,-393.7 822.5,-412.7 850.5,-412.7 850.5,-393.7 822.5,-393.7"/>
<text text-anchor="start" x="825.7904" y="-399.8" font-family="Helvetica,sans-Serif" font-size="11.00" fill="#000000">10 &gt;</text>
</a>
</g>
</g>
<!-- TARGETS -->
<g id="node2" class="node">
<title>TARGETS</title>
<g id="a_node2"><a xlink:href="../../tables/TARGETS.html" xlink:title="TARGETS" target="_top">
<polygon fill="#ffffff" stroke="transparent" points="389,-281.2 389,-430.2 639,-430.2 639,-281.2 389,-281.2"/>
<polygon fill="#f5f5f5" stroke="transparent" points="389,-406.7 389,-429.7 639,-429.7 639,-406.7 389,-406.7"/>
<polygon fill="none" stroke="#000000" points="389,-406.7 389,-429.7 639,-429.7 639,-406.7 389,-406.7"/>
<text text-anchor="start" x="394" y="-415.8" font-family="Helvetica,sans-Serif" font-weight="bold" font-size="11.00" fill="#000000">TARGETS</text>
<text text-anchor="start" x="604.0437" y="-414.8" font-family="Helvetica,sans-Serif" font-size="11.00" fill="#000000">[table]</text>
<polygon fill="none" stroke="#000000" points="389,-384.7 389,-406.7 639,-406.7 639,-384.7 389,-384.7"/>
<image xlink:href="../../images/primaryKeys.png" width="11px" height="12px" preserveAspectRatio="xMinYMin meet" x="394" y="-401.7"/>
<text text-anchor="start" x="409" y="-391.8" font-family="Helvetica,sans-Serif" font-size="11.00" fill="#000000">ID</text>
<polygon fill="none" stroke="#000000" points="389,-362.7 389,-384.7 639,-384.7 639,-362.7 389,-362.7"/>
<image xlink:href="../../images/foreignKeys.png" width="11px" height="12px" preserveAspectRatio="xMinYMin meet" x="394" y="-379.7"/>
<text text-anchor="start" x="409" y="-369.8" font-family="Helvetica,sans-Serif" font-size="11.00" fill="#000000">PROJECT_ID</text>
<polygon fill="none" stroke="#000000" points="389,-340.7 389,-362.7 639,-362.7 639,-340.7 389,-340.7"/>
<image xlink:href="../../images/foreignKeys.png" width="11px" height="12px" preserveAspectRatio="xMinYMin meet" x="394" y="-357.7"/>
<text text-anchor="start" x="409" y="-347.8" font-family="Helvetica,sans-Serif" font-size="11.00" fill="#000000">TARGET_CATEGORY_ID</text>
<polygon fill="none" stroke="#000000" points="389,-318.7 389,-340.7 639,-340.7 639,-318.7 389,-318.7"/>
<image xlink:href="../../images/foreignKeys.png" width="11px" height="12px" preserveAspectRatio="xMinYMin meet" x="394" y="-335.7"/>
<text text-anchor="start" x="409" y="-325.8" font-family="Helvetica,sans-Serif" font-size="11.00" fill="#000000">THERAPEUTIC_ID</text>
<polygon fill="none" stroke="#000000" points="389,-299.7 389,-318.7 639,-318.7 639,-299.7 389,-299.7"/>
<text text-anchor="start" x="392" y="-305.8" font-family="Helvetica,sans-Serif" font-size="11.00" fill="#000000">...</text>
<polygon fill="#ffffff" stroke="transparent" points="389,-280.7 389,-299.7 486,-299.7 486,-280.7 389,-280.7"/>
<polygon fill="none" stroke="#000000" points="389,-280.7 389,-299.7 486,-299.7 486,-280.7 389,-280.7"/>
<text text-anchor="start" x="392" y="-286.8" font-family="Helvetica,sans-Serif" font-size="11.00" fill="#000000">&lt; 3</text>
<polygon fill="#ffffff" stroke="transparent" points="486,-280.7 486,-299.7 574,-299.7 574,-280.7 486,-280.7"/>
<polygon fill="none" stroke="#000000" points="486,-280.7 486,-299.7 574,-299.7 574,-280.7 486,-280.7"/>
<text text-anchor="start" x="526.3807" y="-286.8" font-family="Helvetica,sans-Serif" font-size="11.00" fill="#000000">146 rows</text>
<polygon fill="#ffffff" stroke="transparent" points="574,-280.7 574,-299.7 639,-299.7 639,-280.7 574,-280.7"/>
<polygon fill="none" stroke="#000000" points="574,-280.7 574,-299.7 639,-299.7 639,-280.7 574,-280.7"/>
<text text-anchor="start" x="614.2904" y="-286.8" font-family="Helvetica,sans-Serif" font-size="11.00" fill="#000000">10 &gt;</text>
</a>
</g>
</g>
<!-- ISOFORMS&#45;&gt;TARGETS -->
<g id="edge1" class="edge">
<title>ISOFORMS:w&#45;&gt;TARGETS:e</title>
<path fill="none" stroke="#000000" d="M735.055,-420.9219C696.6234,-416.5958 684.2297,-395.7 639,-395.7"/>
<polygon fill="#000000" stroke="#000000" points="741.5116,-421.2696 749.3063,-425.2948 745.5058,-421.4848 749.5,-421.7 749.5,-421.7 749.5,-421.7 745.5058,-421.4848 749.6937,-418.1052 741.5116,-421.2696 741.5116,-421.2696"/>
<ellipse fill="none" stroke="#000000" cx="738.3162" cy="-421.0975" rx="3.2" ry="3.2"/>
</g>
<!-- PROJECTS -->
<g id="node6" class="node">
<title>PROJECTS</title>
<g id="a_node6"><a xlink:href="../../tables/PROJECTS.html" xlink:title="PROJECTS" target="_top">
<polygon fill="#ffffff" stroke="transparent" points="8,-187.7 8,-409.7 340,-409.7 340,-187.7 8,-187.7"/>
<polygon fill="#f5f5f5" stroke="transparent" points="10,-384.7 10,-407.7 338,-407.7 338,-384.7 10,-384.7"/>
<polygon fill="none" stroke="#000000" points="10,-384.7 10,-407.7 338,-407.7 338,-384.7 10,-384.7"/>
<text text-anchor="start" x="15" y="-393.8" font-family="Helvetica,sans-Serif" font-weight="bold" font-size="11.00" fill="#000000">PROJECTS</text>
<text text-anchor="start" x="303.0437" y="-392.8" font-family="Helvetica,sans-Serif" font-size="11.00" fill="#000000">[table]</text>
<polygon fill="none" stroke="#000000" points="10,-362.7 10,-384.7 167,-384.7 167,-362.7 10,-362.7"/>
<image xlink:href="../../images/primaryKeys.png" width="11px" height="12px" preserveAspectRatio="xMinYMin meet" x="15" y="-379.7"/>
<text text-anchor="start" x="30" y="-369.8" font-family="Helvetica,sans-Serif" font-size="11.00" fill="#000000">ID</text>
<polygon fill="none" stroke="#000000" points="167,-362.7 167,-384.7 338,-384.7 338,-362.7 167,-362.7"/>
<text text-anchor="start" x="170" y="-370.4" font-family="Helvetica,sans-Serif" font-size="11.00" fill="#000000">number[19]</text>
<polygon fill="none" stroke="#000000" points="10,-340.7 10,-362.7 167,-362.7 167,-340.7 10,-340.7"/>
<text text-anchor="start" x="30" y="-347.8" font-family="Helvetica,sans-Serif" font-size="11.00" fill="#000000">CREATED_AT</text>
<polygon fill="none" stroke="#000000" points="167,-340.7 167,-362.7 338,-362.7 338,-340.7 167,-340.7"/>
<text text-anchor="start" x="169.9896" y="-348.4" font-family="Helvetica,sans-Serif" font-size="11.00" fill="#000000">timestamp(6) with time zone[13,6]</text>
<polygon fill="none" stroke="#000000" points="10,-318.7 10,-340.7 167,-340.7 167,-318.7 10,-318.7"/>
<text text-anchor="start" x="30" y="-325.8" font-family="Helvetica,sans-Serif" font-size="11.00" fill="#000000">CREATED_BY</text>
<polygon fill="none" stroke="#000000" points="167,-318.7 167,-340.7 338,-340.7 338,-318.7 167,-318.7"/>
<text text-anchor="start" x="170" y="-326.4" font-family="Helvetica,sans-Serif" font-size="11.00" fill="#000000">number[19]</text>
<polygon fill="none" stroke="#000000" points="10,-296.7 10,-318.7 167,-318.7 167,-296.7 10,-296.7"/>
<text text-anchor="start" x="30" y="-303.8" font-family="Helvetica,sans-Serif" font-size="11.00" fill="#000000">UPDATED_AT</text>
<polygon fill="none" stroke="#000000" points="167,-296.7 167,-318.7 338,-318.7 338,-296.7 167,-296.7"/>
<text text-anchor="start" x="169.9896" y="-304.4" font-family="Helvetica,sans-Serif" font-size="11.00" fill="#000000">timestamp(6) with time zone[13,6]</text>
<polygon fill="none" stroke="#000000" points="10,-274.7 10,-296.7 167,-296.7 167,-274.7 10,-274.7"/>
<text text-anchor="start" x="30" y="-281.8" font-family="Helvetica,sans-Serif" font-size="11.00" fill="#000000">UPDATED_BY</text>
<polygon fill="none" stroke="#000000" points="167,-274.7 167,-296.7 338,-296.7 338,-274.7 167,-274.7"/>
<text text-anchor="start" x="170" y="-282.4" font-family="Helvetica,sans-Serif" font-size="11.00" fill="#000000">number[19]</text>
<polygon fill="none" stroke="#000000" points="10,-252.7 10,-274.7 167,-274.7 167,-252.7 10,-252.7"/>
<text text-anchor="start" x="30" y="-259.8" font-family="Helvetica,sans-Serif" font-size="11.00" fill="#000000">DESCRIPTION</text>
<polygon fill="none" stroke="#000000" points="167,-252.7 167,-274.7 338,-274.7 338,-252.7 167,-252.7"/>
<text text-anchor="start" x="170" y="-260.4" font-family="Helvetica,sans-Serif" font-size="11.00" fill="#000000">clob[4000]</text>
<polygon fill="none" stroke="#000000" points="10,-230.7 10,-252.7 167,-252.7 167,-230.7 10,-230.7"/>
<image xlink:href="../../images/primaryKeys.png" width="11px" height="12px" preserveAspectRatio="xMinYMin meet" x="15" y="-247.7"/>
<text text-anchor="start" x="30" y="-237.8" font-family="Helvetica,sans-Serif" font-size="11.00" fill="#000000">NAME</text>
<polygon fill="none" stroke="#000000" points="167,-230.7 167,-252.7 338,-252.7 338,-230.7 167,-230.7"/>
<text text-anchor="start" x="170" y="-238.4" font-family="Helvetica,sans-Serif" font-size="11.00" fill="#000000">varchar2[255]</text>
<polygon fill="none" stroke="#000000" points="10,-208.7 10,-230.7 167,-230.7 167,-208.7 10,-208.7"/>
<text text-anchor="start" x="30" y="-215.8" font-family="Helvetica,sans-Serif" font-size="11.00" fill="#000000">PARTNER_COMPANY</text>
<polygon fill="none" stroke="#000000" points="167,-208.7 167,-230.7 338,-230.7 338,-208.7 167,-208.7"/>
<text text-anchor="start" x="170" y="-216.4" font-family="Helvetica,sans-Serif" font-size="11.00" fill="#000000">varchar2[255]</text>
<polygon fill="#ffffff" stroke="transparent" points="10,-189.7 10,-208.7 77,-208.7 77,-189.7 10,-189.7"/>
<polygon fill="none" stroke="#000000" points="10,-189.7 10,-208.7 77,-208.7 77,-189.7 10,-189.7"/>
<text text-anchor="start" x="13" y="-195.8" font-family="Helvetica,sans-Serif" font-size="11.00" fill="#000000">&lt; 0</text>
<polygon fill="#ffffff" stroke="transparent" points="77,-189.7 77,-208.7 167,-208.7 167,-189.7 77,-189.7"/>
<polygon fill="none" stroke="#000000" points="77,-189.7 77,-208.7 167,-208.7 167,-189.7 77,-189.7"/>
<text text-anchor="start" x="125.4956" y="-195.8" font-family="Helvetica,sans-Serif" font-size="11.00" fill="#000000">55 rows</text>
<polygon fill="#ffffff" stroke="transparent" points="167,-189.7 167,-208.7 338,-208.7 338,-189.7 167,-189.7"/>
<polygon fill="none" stroke="#000000" points="167,-189.7 167,-208.7 338,-208.7 338,-189.7 167,-189.7"/>
<text text-anchor="start" x="319.4053" y="-195.8" font-family="Helvetica,sans-Serif" font-size="11.00" fill="#000000">1 &gt;</text>
<polygon fill="none" stroke="#000000" stroke-width="2" points="9,-188.7 9,-408.7 339,-408.7 339,-188.7 9,-188.7"/>
</a>
</g>
</g>
<!-- TARGETS&#45;&gt;PROJECTS -->
<g id="edge7" class="edge">
<title>TARGETS:w&#45;&gt;PROJECTS:e</title>
<path fill="none" stroke="#000000" d="M374.276,-373.7C362.2815,-373.7 354.8229,-373.7 338,-373.7"/>
<polygon fill="#000000" stroke="#000000" points="381,-373.7001 389,-377.3 385,-373.7 389,-373.7 389,-373.7 389,-373.7 385,-373.7 389,-370.1 381,-373.7001 381,-373.7001"/>
<ellipse fill="none" stroke="#000000" cx="377.8" cy="-373.7001" rx="3.2" ry="3.2"/>
</g>
<!-- TARGET_CATEGORIES -->
<g id="node7" class="node">
<title>TARGET_CATEGORIES</title>
<g id="a_node7"><a xlink:href="../../tables/TARGET_CATEGORIES.html" xlink:title="TARGET_CATEGORIES" target="_top">
<polygon fill="#ffffff" stroke="transparent" points="91.5,-613.2 91.5,-674.2 256.5,-674.2 256.5,-613.2 91.5,-613.2"/>
<polygon fill="#f5f5f5" stroke="transparent" points="92,-650.7 92,-673.7 257,-673.7 257,-650.7 92,-650.7"/>
<polygon fill="none" stroke="#000000" points="92,-650.7 92,-673.7 257,-673.7 257,-650.7 92,-650.7"/>
<text text-anchor="start" x="96.5798" y="-659.8" font-family="Helvetica,sans-Serif" font-weight="bold" font-size="11.00" fill="#000000">TARGET_CATEGORIES</text>
<text text-anchor="start" x="222.5219" y="-658.8" font-family="Helvetica,sans-Serif" font-size="11.00" fill="#000000">[table]</text>
<polygon fill="none" stroke="#000000" points="92,-631.7 92,-650.7 257,-650.7 257,-631.7 92,-631.7"/>
<text text-anchor="start" x="95" y="-637.8" font-family="Helvetica,sans-Serif" font-size="11.00" fill="#000000">...</text>
<polygon fill="#ffffff" stroke="transparent" points="92,-612.7 92,-631.7 148,-631.7 148,-612.7 92,-612.7"/>
<polygon fill="none" stroke="#000000" points="92,-612.7 92,-631.7 148,-631.7 148,-612.7 92,-612.7"/>
<text text-anchor="start" x="95" y="-618.8" font-family="Helvetica,sans-Serif" font-size="11.00" fill="#000000"> &#160;</text>
<polygon fill="#ffffff" stroke="transparent" points="148,-612.7 148,-631.7 214,-631.7 214,-612.7 148,-612.7"/>
<polygon fill="none" stroke="#000000" points="148,-612.7 148,-631.7 214,-631.7 214,-612.7 148,-612.7"/>
<text text-anchor="start" x="172.4956" y="-618.8" font-family="Helvetica,sans-Serif" font-size="11.00" fill="#000000">11 rows</text>
<polygon fill="#ffffff" stroke="transparent" points="214,-612.7 214,-631.7 257,-631.7 257,-612.7 214,-612.7"/>
<polygon fill="none" stroke="#000000" points="214,-612.7 214,-631.7 257,-631.7 257,-612.7 214,-612.7"/>
<text text-anchor="start" x="238.4053" y="-618.8" font-family="Helvetica,sans-Serif" font-size="11.00" fill="#000000">3 &gt;</text>
</a>
</g>
</g>
<!-- TARGETS&#45;&gt;TARGET_CATEGORIES -->
<g id="edge8" class="edge">
<title>TARGETS:w&#45;&gt;TARGET_CATEGORIES:e</title>
<path fill="none" stroke="#000000" d="M377.2561,-360.3492C341.2667,-408.4353 288.6477,-640.7 257,-640.7"/>
<polygon fill="#000000" stroke="#000000" points="382.5584,-356.4441 391.1349,-354.5987 385.7792,-354.0721 389,-351.7 389,-351.7 389,-351.7 385.7792,-354.0721 386.8651,-348.8013 382.5584,-356.4441 382.5584,-356.4441"/>
<ellipse fill="none" stroke="#000000" cx="379.9818" cy="-358.3418" rx="3.2" ry="3.2"/>
</g>
<!-- THERAPEUTIC_AREAS -->
<g id="node8" class="node">
<title>THERAPEUTIC_AREAS</title>
<g id="a_node8"><a xlink:href="../../tables/THERAPEUTIC_AREAS.html" xlink:title="THERAPEUTIC_AREAS" target="_top">
<polygon fill="#ffffff" stroke="transparent" points="92,-95.2 92,-156.2 256,-156.2 256,-95.2 92,-95.2"/>
<polygon fill="#f5f5f5" stroke="transparent" points="92,-132.7 92,-155.7 256,-155.7 256,-132.7 92,-132.7"/>
<polygon fill="none" stroke="#000000" points="92,-132.7 92,-155.7 256,-155.7 256,-132.7 92,-132.7"/>
<text text-anchor="start" x="96.9984" y="-141.8" font-family="Helvetica,sans-Serif" font-weight="bold" font-size="11.00" fill="#000000">THERAPEUTIC_AREAS</text>
<text text-anchor="start" x="221.5219" y="-140.8" font-family="Helvetica,sans-Serif" font-size="11.00" fill="#000000">[table]</text>
<polygon fill="none" stroke="#000000" points="92,-113.7 92,-132.7 256,-132.7 256,-113.7 92,-113.7"/>
<text text-anchor="start" x="95" y="-119.8" font-family="Helvetica,sans-Serif" font-size="11.00" fill="#000000">...</text>
<polygon fill="#ffffff" stroke="transparent" points="92,-94.7 92,-113.7 147,-113.7 147,-94.7 92,-94.7"/>
<polygon fill="none" stroke="#000000" points="92,-94.7 92,-113.7 147,-113.7 147,-94.7 92,-94.7"/>
<text text-anchor="start" x="95" y="-100.8" font-family="Helvetica,sans-Serif" font-size="11.00" fill="#000000"> &#160;</text>
<polygon fill="#ffffff" stroke="transparent" points="147,-94.7 147,-113.7 213,-113.7 213,-94.7 147,-94.7"/>
<polygon fill="none" stroke="#000000" points="147,-94.7 147,-113.7 213,-113.7 213,-94.7 147,-94.7"/>
<text text-anchor="start" x="171.4956" y="-100.8" font-family="Helvetica,sans-Serif" font-size="11.00" fill="#000000">15 rows</text>
<polygon fill="#ffffff" stroke="transparent" points="213,-94.7 213,-113.7 256,-113.7 256,-94.7 213,-94.7"/>
<polygon fill="none" stroke="#000000" points="213,-94.7 213,-113.7 256,-113.7 256,-94.7 213,-94.7"/>
<text text-anchor="start" x="237.4053" y="-100.8" font-family="Helvetica,sans-Serif" font-size="11.00" fill="#000000">2 &gt;</text>
</a>
</g>
</g>
<!-- TARGETS&#45;&gt;THERAPEUTIC_AREAS -->
<g id="edge9" class="edge">
<title>TARGETS:w&#45;&gt;THERAPEUTIC_AREAS:e</title>
<path fill="none" stroke="#000000" d="M374.6961,-327.9049C329.4053,-314.4284 387.2405,-228.2196 348,-176.7 319.2721,-138.9825 303.412,-122.7 256,-122.7"/>
<polygon fill="#000000" stroke="#000000" points="381.0623,-328.7038 388.5517,-333.272 385.0311,-329.2019 389,-329.7 389,-329.7 389,-329.7 385.0311,-329.2019 389.4483,-326.128 381.0623,-328.7038 381.0623,-328.7038"/>
<ellipse fill="none" stroke="#000000" cx="377.8872" cy="-328.3053" rx="3.2" ry="3.2"/>
</g>
<!-- SCREENING_PLANS -->
<g id="node3" class="node">
<title>SCREENING_PLANS</title>
<g id="a_node3"><a xlink:href="../../tables/SCREENING_PLANS.html" xlink:title="SCREENING_PLANS" target="_top">
<polygon fill="#ffffff" stroke="transparent" points="1178.5,-370.2 1178.5,-431.2 1328.5,-431.2 1328.5,-370.2 1178.5,-370.2"/>
<polygon fill="#f5f5f5" stroke="transparent" points="1178.5,-407.7 1178.5,-430.7 1328.5,-430.7 1328.5,-407.7 1178.5,-407.7"/>
<polygon fill="none" stroke="#000000" points="1178.5,-407.7 1178.5,-430.7 1328.5,-430.7 1328.5,-407.7 1178.5,-407.7"/>
<text text-anchor="start" x="1183.2182" y="-416.8" font-family="Helvetica,sans-Serif" font-weight="bold" font-size="11.00" fill="#000000">SCREENING_PLANS</text>
<text text-anchor="start" x="1294.0219" y="-415.8" font-family="Helvetica,sans-Serif" font-size="11.00" fill="#000000">[table]</text>
<polygon fill="none" stroke="#000000" points="1178.5,-388.7 1178.5,-407.7 1328.5,-407.7 1328.5,-388.7 1178.5,-388.7"/>
<text text-anchor="start" x="1181.5" y="-394.8" font-family="Helvetica,sans-Serif" font-size="11.00" fill="#000000">...</text>
<polygon fill="#ffffff" stroke="transparent" points="1178.5,-369.7 1178.5,-388.7 1228.5,-388.7 1228.5,-369.7 1178.5,-369.7"/>
<polygon fill="none" stroke="#000000" points="1178.5,-369.7 1178.5,-388.7 1228.5,-388.7 1228.5,-369.7 1178.5,-369.7"/>
<text text-anchor="start" x="1181.5" y="-375.8" font-family="Helvetica,sans-Serif" font-size="11.00" fill="#000000">&lt; 3</text>
<polygon fill="#ffffff" stroke="transparent" points="1228.5,-369.7 1228.5,-388.7 1292.5,-388.7 1292.5,-369.7 1228.5,-369.7"/>
<polygon fill="none" stroke="#000000" points="1228.5,-369.7 1228.5,-388.7 1292.5,-388.7 1292.5,-369.7 1228.5,-369.7"/>
<text text-anchor="start" x="1244.8807" y="-375.8" font-family="Helvetica,sans-Serif" font-size="11.00" fill="#000000">137 rows</text>
<polygon fill="#ffffff" stroke="transparent" points="1292.5,-369.7 1292.5,-388.7 1328.5,-388.7 1328.5,-369.7 1292.5,-369.7"/>
<polygon fill="none" stroke="#000000" points="1292.5,-369.7 1292.5,-388.7 1328.5,-388.7 1328.5,-369.7 1292.5,-369.7"/>
<text text-anchor="start" x="1309.9053" y="-375.8" font-family="Helvetica,sans-Serif" font-size="11.00" fill="#000000">1 &gt;</text>
</a>
</g>
</g>
<!-- SCREENING_PLANS&#45;&gt;TARGETS -->
<g id="edge3" class="edge">
<title>SCREENING_PLANS:w&#45;&gt;TARGETS:e</title>
<path fill="none" stroke="#000000" d="M1163.8099,-397.6326C954.1943,-395.6972 894.4726,-352.9586 680,-383.7 661.2054,-386.3939 657.9867,-395.7 639,-395.7"/>
<polygon fill="#000000" stroke="#000000" points="1170.5001,-397.6632 1178.4835,-401.3 1174.5,-397.6816 1178.5,-397.7 1178.5,-397.7 1178.5,-397.7 1174.5,-397.6816 1178.5165,-394.1 1170.5001,-397.6632 1170.5001,-397.6632"/>
<ellipse fill="none" stroke="#000000" cx="1167.3001" cy="-397.6485" rx="3.2" ry="3.2"/>
</g>
<!-- TARGET_FORMS -->
<g id="node4" class="node">
<title>TARGET_FORMS</title>
<g id="a_node4"><a xlink:href="../../tables/TARGET_FORMS.html" xlink:title="TARGET_FORMS" target="_top">
<polygon fill="#ffffff" stroke="transparent" points="960,-408.2 960,-469.2 1093,-469.2 1093,-408.2 960,-408.2"/>
<polygon fill="#f5f5f5" stroke="transparent" points="960.5,-445.7 960.5,-468.7 1093.5,-468.7 1093.5,-445.7 960.5,-445.7"/>
<polygon fill="none" stroke="#000000" points="960.5,-445.7 960.5,-468.7 1093.5,-468.7 1093.5,-445.7 960.5,-445.7"/>
<text text-anchor="start" x="965.2801" y="-454.8" font-family="Helvetica,sans-Serif" font-weight="bold" font-size="11.00" fill="#000000">TARGET_FORMS</text>
<text text-anchor="start" x="1059.0219" y="-453.8" font-family="Helvetica,sans-Serif" font-size="11.00" fill="#000000">[table]</text>
<polygon fill="none" stroke="#000000" points="960.5,-426.7 960.5,-445.7 1093.5,-445.7 1093.5,-426.7 960.5,-426.7"/>
<text text-anchor="start" x="963.5" y="-432.8" font-family="Helvetica,sans-Serif" font-size="11.00" fill="#000000">...</text>
<polygon fill="#ffffff" stroke="transparent" points="960.5,-407.7 960.5,-426.7 998.5,-426.7 998.5,-407.7 960.5,-407.7"/>
<polygon fill="none" stroke="#000000" points="960.5,-407.7 960.5,-426.7 998.5,-426.7 998.5,-407.7 960.5,-407.7"/>
<text text-anchor="start" x="963.5" y="-413.8" font-family="Helvetica,sans-Serif" font-size="11.00" fill="#000000">&lt; 5</text>
<polygon fill="#ffffff" stroke="transparent" points="998.5,-407.7 998.5,-426.7 1057.5,-426.7 1057.5,-407.7 998.5,-407.7"/>
<polygon fill="none" stroke="#000000" points="998.5,-407.7 998.5,-426.7 1057.5,-426.7 1057.5,-407.7 998.5,-407.7"/>
<text text-anchor="start" x="1009.8807" y="-413.8" font-family="Helvetica,sans-Serif" font-size="11.00" fill="#000000">541 rows</text>
<polygon fill="#ffffff" stroke="transparent" points="1057.5,-407.7 1057.5,-426.7 1093.5,-426.7 1093.5,-407.7 1057.5,-407.7"/>
<polygon fill="none" stroke="#000000" points="1057.5,-407.7 1057.5,-426.7 1093.5,-426.7 1093.5,-407.7 1057.5,-407.7"/>
<text text-anchor="start" x="1068.7904" y="-413.8" font-family="Helvetica,sans-Serif" font-size="11.00" fill="#000000">18 &gt;</text>
</a>
</g>
</g>
<!-- SCREENING_PLANS&#45;&gt;TARGET_FORMS -->
<g id="edge2" class="edge">
<title>SCREENING_PLANS:w&#45;&gt;TARGET_FORMS:e</title>
<path fill="none" stroke="#000000" d="M1163.9002,-399.5328C1135.834,-407.1235 1129.3852,-435.7 1093.5,-435.7"/>
<polygon fill="#000000" stroke="#000000" points="1170.5623,-398.6965 1178.9484,-401.272 1174.5312,-398.1983 1178.5,-397.7 1178.5,-397.7 1178.5,-397.7 1174.5312,-398.1983 1178.0516,-394.128 1170.5623,-398.6965 1170.5623,-398.6965"/>
<ellipse fill="none" stroke="#000000" cx="1167.3872" cy="-399.0951" rx="3.2" ry="3.2"/>
</g>
<!-- TARGET_FORMS&#45;&gt;ISOFORMS -->
<g id="edge5" class="edge">
<title>TARGET_FORMS:w&#45;&gt;ISOFORMS:e</title>
<path fill="none" stroke="#000000" d="M946.0807,-435.2657C908.384,-432.9026 894.5854,-421.7 850.5,-421.7"/>
<polygon fill="#000000" stroke="#000000" points="952.5036,-435.4591 960.3916,-439.2984 956.5018,-435.5795 960.5,-435.7 960.5,-435.7 960.5,-435.7 956.5018,-435.5795 960.6084,-432.1016 952.5036,-435.4591 952.5036,-435.4591"/>
<ellipse fill="none" stroke="#000000" cx="949.3051" cy="-435.3627" rx="3.2" ry="3.2"/>
</g>
<!-- TARGET_FORMS&#45;&gt;TARGETS -->
<g id="edge6" class="edge">
<title>TARGET_FORMS:w&#45;&gt;TARGETS:e</title>
<path fill="none" stroke="#000000" d="M946.5616,-440.0605C937.497,-447.079 934.7327,-460.609 919,-465.7 868.4687,-482.0518 726.0783,-492.1117 680,-465.7 648.7194,-447.7703 675.0548,-395.7 639,-395.7"/>
<polygon fill="#000000" stroke="#000000" points="952.8649,-438.0886 961.5749,-439.1358 956.6825,-436.8943 960.5,-435.7 960.5,-435.7 960.5,-435.7 956.6825,-436.8943 959.4251,-432.2642 952.8649,-438.0886 952.8649,-438.0886"/>
<ellipse fill="none" stroke="#000000" cx="949.8109" cy="-439.0441" rx="3.2" ry="3.2"/>
</g>
<!-- SUBUNITS -->
<g id="node5" class="node">
<title>SUBUNITS</title>
<g id="a_node5"><a xlink:href="../../tables/SUBUNITS.html" xlink:title="SUBUNITS" target="_top">
<polygon fill="#ffffff" stroke="transparent" points="750.5,-284.2 750.5,-345.2 848.5,-345.2 848.5,-284.2 750.5,-284.2"/>
<polygon fill="#f5f5f5" stroke="transparent" points="750.5,-321.7 750.5,-344.7 848.5,-344.7 848.5,-321.7 750.5,-321.7"/>
<polygon fill="none" stroke="#000000" points="750.5,-321.7 750.5,-344.7 848.5,-344.7 848.5,-321.7 750.5,-321.7"/>
<text text-anchor="start" x="755.1964" y="-330.8" font-family="Helvetica,sans-Serif" font-weight="bold" font-size="11.00" fill="#000000">SUBUNITS</text>
<text text-anchor="start" x="814.0219" y="-329.8" font-family="Helvetica,sans-Serif" font-size="11.00" fill="#000000">[table]</text>
<polygon fill="none" stroke="#000000" points="750.5,-302.7 750.5,-321.7 848.5,-321.7 848.5,-302.7 750.5,-302.7"/>
<text text-anchor="start" x="753.5" y="-308.8" font-family="Helvetica,sans-Serif" font-size="11.00" fill="#000000">...</text>
<polygon fill="#ffffff" stroke="transparent" points="750.5,-283.7 750.5,-302.7 780.5,-302.7 780.5,-283.7 750.5,-283.7"/>
<polygon fill="none" stroke="#000000" points="750.5,-283.7 750.5,-302.7 780.5,-302.7 780.5,-283.7 750.5,-283.7"/>
<text text-anchor="start" x="753.5" y="-289.8" font-family="Helvetica,sans-Serif" font-size="11.00" fill="#000000">&lt; 2</text>
<polygon fill="#ffffff" stroke="transparent" points="780.5,-283.7 780.5,-302.7 822.5,-302.7 822.5,-283.7 780.5,-283.7"/>
<polygon fill="none" stroke="#000000" points="780.5,-283.7 780.5,-302.7 822.5,-302.7 822.5,-283.7 780.5,-283.7"/>
<text text-anchor="start" x="787.1105" y="-289.8" font-family="Helvetica,sans-Serif" font-size="11.00" fill="#000000">0 rows</text>
<polygon fill="#ffffff" stroke="transparent" points="822.5,-283.7 822.5,-302.7 848.5,-302.7 848.5,-283.7 822.5,-283.7"/>
<polygon fill="none" stroke="#000000" points="822.5,-283.7 822.5,-302.7 848.5,-302.7 848.5,-283.7 822.5,-283.7"/>
<text text-anchor="start" x="829.9053" y="-289.8" font-family="Helvetica,sans-Serif" font-size="11.00" fill="#000000">3 &gt;</text>
</a>
</g>
</g>
<!-- SUBUNITS&#45;&gt;TARGETS -->
<g id="edge4" class="edge">
<title>SUBUNITS:w&#45;&gt;TARGETS:e</title>
<path fill="none" stroke="#000000" d="M736.0858,-313.1736C711.2629,-318.8314 705.6344,-339.8397 680,-359.7 660.8304,-374.5517 663.2497,-395.7 639,-395.7"/>
<polygon fill="#000000" stroke="#000000" points="742.5415,-312.5137 750.8662,-315.2813 746.5207,-312.1068 750.5,-311.7 750.5,-311.7 750.5,-311.7 746.5207,-312.1068 750.1338,-308.1187 742.5415,-312.5137 742.5415,-312.5137"/>
<ellipse fill="none" stroke="#000000" cx="739.3581" cy="-312.8391" rx="3.2" ry="3.2"/>
</g>
<!-- TARGETS_INDICATIONS -->
<g id="node9" class="node">
<title>TARGETS_INDICATIONS</title>
<g id="a_node9"><a xlink:href="../../tables/TARGETS_INDICATIONS.html" xlink:title="TARGETS_INDICATIONS" target="_top">
<polygon fill="#ffffff" stroke="transparent" points="714,-202.2 714,-263.2 885,-263.2 885,-202.2 714,-202.2"/>
<polygon fill="#f5f5f5" stroke="transparent" points="714.5,-239.7 714.5,-262.7 885.5,-262.7 885.5,-239.7 714.5,-239.7"/>
<polygon fill="none" stroke="#000000" points="714.5,-239.7 714.5,-262.7 885.5,-262.7 885.5,-239.7 714.5,-239.7"/>
<text text-anchor="start" x="719.0285" y="-248.8" font-family="Helvetica,sans-Serif" font-weight="bold" font-size="11.00" fill="#000000">TARGETS_INDICATIONS</text>
<text text-anchor="start" x="851.0219" y="-247.8" font-family="Helvetica,sans-Serif" font-size="11.00" fill="#000000">[table]</text>
<polygon fill="none" stroke="#000000" points="714.5,-220.7 714.5,-239.7 885.5,-239.7 885.5,-220.7 714.5,-220.7"/>
<text text-anchor="start" x="717.5" y="-226.8" font-family="Helvetica,sans-Serif" font-size="11.00" fill="#000000">...</text>
<polygon fill="#ffffff" stroke="transparent" points="714.5,-201.7 714.5,-220.7 782.5,-220.7 782.5,-201.7 714.5,-201.7"/>
<polygon fill="none" stroke="#000000" points="714.5,-201.7 714.5,-220.7 782.5,-220.7 782.5,-201.7 714.5,-201.7"/>
<text text-anchor="start" x="717.5" y="-207.8" font-family="Helvetica,sans-Serif" font-size="11.00" fill="#000000">&lt; 2</text>
<polygon fill="#ffffff" stroke="transparent" points="782.5,-201.7 782.5,-220.7 849.5,-220.7 849.5,-201.7 782.5,-201.7"/>
<polygon fill="none" stroke="#000000" points="782.5,-201.7 782.5,-220.7 849.5,-220.7 849.5,-201.7 782.5,-201.7"/>
<text text-anchor="start" x="807.9956" y="-207.8" font-family="Helvetica,sans-Serif" font-size="11.00" fill="#000000">22 rows</text>
<polygon fill="#ffffff" stroke="transparent" points="849.5,-201.7 849.5,-220.7 885.5,-220.7 885.5,-201.7 849.5,-201.7"/>
<polygon fill="none" stroke="#000000" points="849.5,-201.7 849.5,-220.7 885.5,-220.7 885.5,-201.7 849.5,-201.7"/>
<text text-anchor="start" x="876.3862" y="-207.8" font-family="Helvetica,sans-Serif" font-size="11.00" fill="#000000"> &#160;</text>
</a>
</g>
</g>
<!-- TARGETS_INDICATIONS&#45;&gt;TARGETS -->
<g id="edge10" class="edge">
<title>TARGETS_INDICATIONS:w&#45;&gt;TARGETS:e</title>
<path fill="none" stroke="#000000" d="M700.1216,-231.9211C644.5063,-251.6196 714.5097,-395.7 639,-395.7"/>
<polygon fill="#000000" stroke="#000000" points="706.5938,-230.9214 715.0496,-233.2578 710.5469,-230.3107 714.5,-229.7 714.5,-229.7 714.5,-229.7 710.5469,-230.3107 713.9504,-226.1422 706.5938,-230.9214 706.5938,-230.9214"/>
<ellipse fill="none" stroke="#000000" cx="703.4313" cy="-231.4099" rx="3.2" ry="3.2"/>
</g>
<!-- TARGETS_REFERENCES -->
<g id="node10" class="node">
<title>TARGETS_REFERENCES</title>
<g id="a_node10"><a xlink:href="../../tables/TARGETS_REFERENCES.html" xlink:title="TARGETS_REFERENCES" target="_top">
<polygon fill="#ffffff" stroke="transparent" points="711.5,-120.2 711.5,-181.2 887.5,-181.2 887.5,-120.2 711.5,-120.2"/>
<polygon fill="#f5f5f5" stroke="transparent" points="711.5,-157.7 711.5,-180.7 887.5,-180.7 887.5,-157.7 711.5,-157.7"/>
<polygon fill="none" stroke="#000000" points="711.5,-157.7 711.5,-180.7 887.5,-180.7 887.5,-157.7 711.5,-157.7"/>
<text text-anchor="start" x="716.3884" y="-166.8" font-family="Helvetica,sans-Serif" font-weight="bold" font-size="11.00" fill="#000000">TARGETS_REFERENCES</text>
<text text-anchor="start" x="853.0219" y="-165.8" font-family="Helvetica,sans-Serif" font-size="11.00" fill="#000000">[table]</text>
<polygon fill="none" stroke="#000000" points="711.5,-138.7 711.5,-157.7 887.5,-157.7 887.5,-138.7 711.5,-138.7"/>
<text text-anchor="start" x="714.5" y="-144.8" font-family="Helvetica,sans-Serif" font-size="11.00" fill="#000000">...</text>
<polygon fill="#ffffff" stroke="transparent" points="711.5,-119.7 711.5,-138.7 781.5,-138.7 781.5,-119.7 711.5,-119.7"/>
<polygon fill="none" stroke="#000000" points="711.5,-119.7 711.5,-138.7 781.5,-138.7 781.5,-119.7 711.5,-119.7"/>
<text text-anchor="start" x="714.5" y="-125.8" font-family="Helvetica,sans-Serif" font-size="11.00" fill="#000000">&lt; 2</text>
<polygon fill="#ffffff" stroke="transparent" points="781.5,-119.7 781.5,-138.7 850.5,-138.7 850.5,-119.7 781.5,-119.7"/>
<polygon fill="none" stroke="#000000" points="781.5,-119.7 781.5,-138.7 850.5,-138.7 850.5,-119.7 781.5,-119.7"/>
<text text-anchor="start" x="808.9956" y="-125.8" font-family="Helvetica,sans-Serif" font-size="11.00" fill="#000000">48 rows</text>
<polygon fill="#ffffff" stroke="transparent" points="850.5,-119.7 850.5,-138.7 887.5,-138.7 887.5,-119.7 850.5,-119.7"/>
<polygon fill="none" stroke="#000000" points="850.5,-119.7 850.5,-138.7 887.5,-138.7 887.5,-119.7 850.5,-119.7"/>
<text text-anchor="start" x="878.3862" y="-125.8" font-family="Helvetica,sans-Serif" font-size="11.00" fill="#000000"> &#160;</text>
</a>
</g>
</g>
<!-- TARGETS_REFERENCES&#45;&gt;TARGETS -->
<g id="edge11" class="edge">
<title>TARGETS_REFERENCES:w&#45;&gt;TARGETS:e</title>
<path fill="none" stroke="#000000" d="M697.4702,-151.7012C687.7709,-159.0213 687.1124,-175.3283 680,-191.7 661.5755,-234.1106 685.2398,-395.7 639,-395.7"/>
<polygon fill="#000000" stroke="#000000" points="703.8067,-149.8941 712.4873,-151.162 707.6534,-148.797 711.5,-147.7 711.5,-147.7 711.5,-147.7 707.6534,-148.797 710.5127,-144.238 703.8067,-149.8941 703.8067,-149.8941"/>
<ellipse fill="none" stroke="#000000" cx="700.7294" cy="-150.7717" rx="3.2" ry="3.2"/>
</g>
<!-- TARGETS_TARGET_CATEGORIES -->
<g id="node11" class="node">
<title>TARGETS_TARGET_CATEGORIES</title>
<g id="a_node11"><a xlink:href="../../tables/TARGETS_TARGET_CATEGORIES.html" xlink:title="TARGETS_TARGET_CATEGORIES" target="_top">
<polygon fill="#ffffff" stroke="transparent" points="688,-613.2 688,-674.2 911,-674.2 911,-613.2 688,-613.2"/>
<polygon fill="#f5f5f5" stroke="transparent" points="688.5,-650.7 688.5,-673.7 911.5,-673.7 911.5,-650.7 688.5,-650.7"/>
<polygon fill="none" stroke="#000000" points="688.5,-650.7 688.5,-673.7 911.5,-673.7 911.5,-650.7 688.5,-650.7"/>
<text text-anchor="start" x="693.0498" y="-659.8" font-family="Helvetica,sans-Serif" font-weight="bold" font-size="11.00" fill="#000000">TARGETS_TARGET_CATEGORIES</text>
<text text-anchor="start" x="877.0219" y="-658.8" font-family="Helvetica,sans-Serif" font-size="11.00" fill="#000000">[table]</text>
<polygon fill="none" stroke="#000000" points="688.5,-631.7 688.5,-650.7 911.5,-650.7 911.5,-631.7 688.5,-631.7"/>
<text text-anchor="start" x="691.5" y="-637.8" font-family="Helvetica,sans-Serif" font-size="11.00" fill="#000000">...</text>
<polygon fill="#ffffff" stroke="transparent" points="688.5,-612.7 688.5,-631.7 782.5,-631.7 782.5,-612.7 688.5,-612.7"/>
<polygon fill="none" stroke="#000000" points="688.5,-612.7 688.5,-631.7 782.5,-631.7 782.5,-612.7 688.5,-612.7"/>
<text text-anchor="start" x="691.5" y="-618.8" font-family="Helvetica,sans-Serif" font-size="11.00" fill="#000000">&lt; 2</text>
<polygon fill="#ffffff" stroke="transparent" points="782.5,-612.7 782.5,-631.7 862.5,-631.7 862.5,-612.7 782.5,-612.7"/>
<polygon fill="none" stroke="#000000" points="782.5,-612.7 782.5,-631.7 862.5,-631.7 862.5,-612.7 782.5,-612.7"/>
<text text-anchor="start" x="820.9956" y="-618.8" font-family="Helvetica,sans-Serif" font-size="11.00" fill="#000000">25 rows</text>
<polygon fill="#ffffff" stroke="transparent" points="862.5,-612.7 862.5,-631.7 911.5,-631.7 911.5,-612.7 862.5,-612.7"/>
<polygon fill="none" stroke="#000000" points="862.5,-612.7 862.5,-631.7 911.5,-631.7 911.5,-612.7 862.5,-612.7"/>
<text text-anchor="start" x="902.3862" y="-618.8" font-family="Helvetica,sans-Serif" font-size="11.00" fill="#000000"> &#160;</text>
</a>
</g>
</g>
<!-- TARGETS_TARGET_CATEGORIES&#45;&gt;TARGETS -->
<g id="edge13" class="edge">
<title>TARGETS_TARGET_CATEGORIES:w&#45;&gt;TARGETS:e</title>
<path fill="none" stroke="#000000" d="M674.1908,-639.0047C593.5974,-617.3583 744.6648,-395.7 639,-395.7"/>
<polygon fill="#000000" stroke="#000000" points="680.5556,-639.7587 688.0764,-644.275 684.5278,-640.2294 688.5,-640.7 688.5,-640.7 688.5,-640.7 684.5278,-640.2294 688.9236,-637.125 680.5556,-639.7587 680.5556,-639.7587"/>
<ellipse fill="none" stroke="#000000" cx="677.3778" cy="-639.3822" rx="3.2" ry="3.2"/>
</g>
<!-- TARGETS_TARGET_CATEGORIES&#45;&gt;TARGET_CATEGORIES -->
<g id="edge12" class="edge">
<title>TARGETS_TARGET_CATEGORIES:w&#45;&gt;TARGET_CATEGORIES:e</title>
<path fill="none" stroke="#000000" d="M673.895,-640.7C494.1444,-640.7 443.8148,-640.7 257,-640.7"/>
<polygon fill="#000000" stroke="#000000" points="680.5,-640.7001 688.5,-644.3 684.5,-640.7 688.5,-640.7 688.5,-640.7 688.5,-640.7 684.5,-640.7 688.5,-637.1 680.5,-640.7001 680.5,-640.7001"/>
<ellipse fill="none" stroke="#000000" cx="677.3" cy="-640.7001" rx="3.2" ry="3.2"/>
</g>
<!-- TARGETS_THERAPEUTIC_AREAS -->
<g id="node12" class="node">
<title>TARGETS_THERAPEUTIC_AREAS</title>
<g id="a_node12"><a xlink:href="../../tables/TARGETS_THERAPEUTIC_AREAS.html" xlink:title="TARGETS_THERAPEUTIC_AREAS" target="_top">
<polygon fill="#ffffff" stroke="transparent" points="688.5,-38.2 688.5,-99.2 910.5,-99.2 910.5,-38.2 688.5,-38.2"/>
<polygon fill="#f5f5f5" stroke="transparent" points="688.5,-75.7 688.5,-98.7 910.5,-98.7 910.5,-75.7 688.5,-75.7"/>
<polygon fill="none" stroke="#000000" points="688.5,-75.7 688.5,-98.7 910.5,-98.7 910.5,-75.7 688.5,-75.7"/>
<text text-anchor="start" x="693.4683" y="-84.8" font-family="Helvetica,sans-Serif" font-weight="bold" font-size="11.00" fill="#000000">TARGETS_THERAPEUTIC_AREAS</text>
<text text-anchor="start" x="876.0219" y="-83.8" font-family="Helvetica,sans-Serif" font-size="11.00" fill="#000000">[table]</text>
<polygon fill="none" stroke="#000000" points="688.5,-56.7 688.5,-75.7 910.5,-75.7 910.5,-56.7 688.5,-56.7"/>
<text text-anchor="start" x="691.5" y="-62.8" font-family="Helvetica,sans-Serif" font-size="11.00" fill="#000000">...</text>
<polygon fill="#ffffff" stroke="transparent" points="688.5,-37.7 688.5,-56.7 781.5,-56.7 781.5,-37.7 688.5,-37.7"/>
<polygon fill="none" stroke="#000000" points="688.5,-37.7 688.5,-56.7 781.5,-56.7 781.5,-37.7 688.5,-37.7"/>
<text text-anchor="start" x="691.5" y="-43.8" font-family="Helvetica,sans-Serif" font-size="11.00" fill="#000000">&lt; 2</text>
<polygon fill="#ffffff" stroke="transparent" points="781.5,-37.7 781.5,-56.7 861.5,-56.7 861.5,-37.7 781.5,-37.7"/>
<polygon fill="none" stroke="#000000" points="781.5,-37.7 781.5,-56.7 861.5,-56.7 861.5,-37.7 781.5,-37.7"/>
<text text-anchor="start" x="819.9956" y="-43.8" font-family="Helvetica,sans-Serif" font-size="11.00" fill="#000000">28 rows</text>
<polygon fill="#ffffff" stroke="transparent" points="861.5,-37.7 861.5,-56.7 910.5,-56.7 910.5,-37.7 861.5,-37.7"/>
<polygon fill="none" stroke="#000000" points="861.5,-37.7 861.5,-56.7 910.5,-56.7 910.5,-37.7 861.5,-37.7"/>
<text text-anchor="start" x="901.3862" y="-43.8" font-family="Helvetica,sans-Serif" font-size="11.00" fill="#000000"> &#160;</text>
</a>
</g>
</g>
<!-- TARGETS_THERAPEUTIC_AREAS&#45;&gt;TARGETS -->
<g id="edge14" class="edge">
<title>TARGETS_THERAPEUTIC_AREAS:w&#45;&gt;TARGETS:e</title>
<path fill="none" stroke="#000000" d="M674.706,-70.8835C628.0602,-112.8666 707.6501,-395.7 639,-395.7"/>
<polygon fill="#000000" stroke="#000000" points="681.0113,-68.5141 689.7664,-69.0699 684.7556,-67.1071 688.5,-65.7 688.5,-65.7 688.5,-65.7 684.7556,-67.1071 687.2336,-62.3301 681.0113,-68.5141 681.0113,-68.5141"/>
<ellipse fill="none" stroke="#000000" cx="678.0158" cy="-69.6398" rx="3.2" ry="3.2"/>
</g>
<!-- TARGETS_THERAPEUTIC_AREAS&#45;&gt;THERAPEUTIC_AREAS -->
<g id="edge15" class="edge">
<title>TARGETS_THERAPEUTIC_AREAS:w&#45;&gt;THERAPEUTIC_AREAS:e</title>
<path fill="none" stroke="#000000" d="M674.015,-65.8084C492.2479,-68.5578 444.9616,-122.7 256,-122.7"/>
<polygon fill="#000000" stroke="#000000" points="680.5002,-65.7599 688.527,-69.2999 684.5001,-65.73 688.5,-65.7 688.5,-65.7 688.5,-65.7 684.5001,-65.73 688.473,-62.1001 680.5002,-65.7599 680.5002,-65.7599"/>
<ellipse fill="none" stroke="#000000" cx="677.3003" cy="-65.7839" rx="3.2" ry="3.2"/>
</g>
<!-- TARGETS_USERS -->
<g id="node13" class="node">
<title>TARGETS_USERS</title>
<g id="a_node13"><a xlink:href="../../tables/TARGETS_USERS.html" xlink:title="TARGETS_USERS" target="_top">
<polygon fill="#ffffff" stroke="transparent" points="730.5,-531.2 730.5,-592.2 868.5,-592.2 868.5,-531.2 730.5,-531.2"/>
<polygon fill="#f5f5f5" stroke="transparent" points="730.5,-568.7 730.5,-591.7 868.5,-591.7 868.5,-568.7 730.5,-568.7"/>
<polygon fill="none" stroke="#000000" points="730.5,-568.7 730.5,-591.7 868.5,-591.7 868.5,-568.7 730.5,-568.7"/>
<text text-anchor="start" x="735.0251" y="-577.8" font-family="Helvetica,sans-Serif" font-weight="bold" font-size="11.00" fill="#000000">TARGETS_USERS</text>
<text text-anchor="start" x="834.0219" y="-576.8" font-family="Helvetica,sans-Serif" font-size="11.00" fill="#000000">[table]</text>
<polygon fill="none" stroke="#000000" points="730.5,-549.7 730.5,-568.7 868.5,-568.7 868.5,-549.7 730.5,-549.7"/>
<text text-anchor="start" x="733.5" y="-555.8" font-family="Helvetica,sans-Serif" font-size="11.00" fill="#000000">...</text>
<polygon fill="#ffffff" stroke="transparent" points="730.5,-530.7 730.5,-549.7 781.5,-549.7 781.5,-530.7 730.5,-530.7"/>
<polygon fill="none" stroke="#000000" points="730.5,-530.7 730.5,-549.7 781.5,-549.7 781.5,-530.7 730.5,-530.7"/>
<text text-anchor="start" x="733.5" y="-536.8" font-family="Helvetica,sans-Serif" font-size="11.00" fill="#000000">&lt; 3</text>
<polygon fill="#ffffff" stroke="transparent" points="781.5,-530.7 781.5,-549.7 840.5,-549.7 840.5,-530.7 781.5,-530.7"/>
<polygon fill="none" stroke="#000000" points="781.5,-530.7 781.5,-549.7 840.5,-549.7 840.5,-530.7 781.5,-530.7"/>
<text text-anchor="start" x="798.9956" y="-536.8" font-family="Helvetica,sans-Serif" font-size="11.00" fill="#000000">35 rows</text>
<polygon fill="#ffffff" stroke="transparent" points="840.5,-530.7 840.5,-549.7 868.5,-549.7 868.5,-530.7 840.5,-530.7"/>
<polygon fill="none" stroke="#000000" points="840.5,-530.7 840.5,-549.7 868.5,-549.7 868.5,-530.7 840.5,-530.7"/>
<text text-anchor="start" x="859.3862" y="-536.8" font-family="Helvetica,sans-Serif" font-size="11.00" fill="#000000"> &#160;</text>
</a>
</g>
</g>
<!-- TARGETS_USERS&#45;&gt;TARGETS -->
<g id="edge16" class="edge">
<title>TARGETS_USERS:w&#45;&gt;TARGETS:e</title>
<path fill="none" stroke="#000000" d="M715.9195,-556.7352C698.9925,-551.4596 693.3001,-536.063 680,-516.7 647.8515,-469.8964 695.7811,-395.7 639,-395.7"/>
<polygon fill="#000000" stroke="#000000" points="722.5717,-557.6316 730.0192,-562.2678 726.5358,-558.1658 730.5,-558.7 730.5,-558.7 730.5,-558.7 726.5358,-558.1658 730.9808,-555.1322 722.5717,-557.6316 722.5717,-557.6316"/>
<ellipse fill="none" stroke="#000000" cx="719.4003" cy="-557.2042" rx="3.2" ry="3.2"/>
</g>
<!-- TRACER_SYNTHESIS_REQUESTS -->
<g id="node14" class="node">
<title>TRACER_SYNTHESIS_REQUESTS</title>
<g id="a_node14"><a xlink:href="../../tables/TRACER_SYNTHESIS_REQUESTS.html" xlink:title="TRACER_SYNTHESIS_REQUESTS" target="_top">
<polygon fill="#ffffff" stroke="transparent" points="1142,-479.2 1142,-540.2 1365,-540.2 1365,-479.2 1142,-479.2"/>
<polygon fill="#f5f5f5" stroke="transparent" points="1142.5,-516.7 1142.5,-539.7 1365.5,-539.7 1365.5,-516.7 1142.5,-516.7"/>
<polygon fill="none" stroke="#000000" points="1142.5,-516.7 1142.5,-539.7 1365.5,-539.7 1365.5,-516.7 1142.5,-516.7"/>
<text text-anchor="start" x="1147.3578" y="-525.8" font-family="Helvetica,sans-Serif" font-weight="bold" font-size="11.00" fill="#000000">TRACER_SYNTHESIS_REQUESTS</text>
<text text-anchor="start" x="1331.0219" y="-524.8" font-family="Helvetica,sans-Serif" font-size="11.00" fill="#000000">[table]</text>
<polygon fill="none" stroke="#000000" points="1142.5,-497.7 1142.5,-516.7 1365.5,-516.7 1365.5,-497.7 1142.5,-497.7"/>
<text text-anchor="start" x="1145.5" y="-503.8" font-family="Helvetica,sans-Serif" font-size="11.00" fill="#000000">...</text>
<polygon fill="#ffffff" stroke="transparent" points="1142.5,-478.7 1142.5,-497.7 1234.5,-497.7 1234.5,-478.7 1142.5,-478.7"/>
<polygon fill="none" stroke="#000000" points="1142.5,-478.7 1142.5,-497.7 1234.5,-497.7 1234.5,-478.7 1142.5,-478.7"/>
<text text-anchor="start" x="1145.5" y="-484.8" font-family="Helvetica,sans-Serif" font-size="11.00" fill="#000000">&lt; 12</text>
<polygon fill="#ffffff" stroke="transparent" points="1234.5,-478.7 1234.5,-497.7 1311.5,-497.7 1311.5,-478.7 1234.5,-478.7"/>
<polygon fill="none" stroke="#000000" points="1234.5,-478.7 1234.5,-497.7 1311.5,-497.7 1311.5,-478.7 1234.5,-478.7"/>
<text text-anchor="start" x="1269.9956" y="-484.8" font-family="Helvetica,sans-Serif" font-size="11.00" fill="#000000">21 rows</text>
<polygon fill="#ffffff" stroke="transparent" points="1311.5,-478.7 1311.5,-497.7 1365.5,-497.7 1365.5,-478.7 1311.5,-478.7"/>
<polygon fill="none" stroke="#000000" points="1311.5,-478.7 1311.5,-497.7 1365.5,-497.7 1365.5,-478.7 1311.5,-478.7"/>
<text text-anchor="start" x="1346.9053" y="-484.8" font-family="Helvetica,sans-Serif" font-size="11.00" fill="#000000">2 &gt;</text>
</a>
</g>
</g>
<!-- TRACER_SYNTHESIS_REQUESTS&#45;&gt;TARGETS -->
<g id="edge19" class="edge">
<title>TRACER_SYNTHESIS_REQUESTS:w&#45;&gt;TARGETS:e</title>
<path fill="none" stroke="#000000" d="M1127.9715,-506.8888C1015.8589,-509.5498 761.6273,-538.6192 680,-483.7 644.2006,-459.614 682.1478,-395.7 639,-395.7"/>
<polygon fill="#000000" stroke="#000000" points="1134.5007,-506.804 1142.5468,-510.2997 1138.5003,-506.752 1142.5,-506.7 1142.5,-506.7 1142.5,-506.7 1138.5003,-506.752 1142.4532,-503.1003 1134.5007,-506.804 1134.5007,-506.804"/>
<ellipse fill="none" stroke="#000000" cx="1131.3009" cy="-506.8456" rx="3.2" ry="3.2"/>
</g>
<!-- TRACER_SYNTHESIS_REQUESTS&#45;&gt;TARGET_FORMS -->
<g id="edge18" class="edge">
<title>TRACER_SYNTHESIS_REQUESTS:w&#45;&gt;TARGET_FORMS:e</title>
<path fill="none" stroke="#000000" d="M1128.8596,-502.0415C1111.1978,-486.2459 1125.8501,-435.7 1093.5,-435.7"/>
<polygon fill="#000000" stroke="#000000" points="1134.9293,-504.1144 1141.3365,-510.1068 1138.7147,-505.4072 1142.5,-506.7 1142.5,-506.7 1142.5,-506.7 1138.7147,-505.4072 1143.6635,-503.2932 1134.9293,-504.1144 1134.9293,-504.1144"/>
<ellipse fill="none" stroke="#000000" cx="1131.9011" cy="-503.0802" rx="3.2" ry="3.2"/>
</g>
<!-- TRACER_SYNTHESIS_REQUESTS&#45;&gt;TARGET_CATEGORIES -->
<g id="edge17" class="edge">
<title>TRACER_SYNTHESIS_REQUESTS:w&#45;&gt;TARGET_CATEGORIES:e</title>
<path fill="none" stroke="#000000" d="M1128.1907,-509.0498C1064.753,-528.6877 974.6058,-665.2628 919,-684.7 807.0129,-723.8455 291.4548,-640.7 257,-640.7"/>
<polygon fill="#000000" stroke="#000000" points="1134.6057,-507.9964 1143.0834,-510.2524 1138.5529,-507.3482 1142.5,-506.7 1142.5,-506.7 1142.5,-506.7 1138.5529,-507.3482 1141.9166,-503.1476 1134.6057,-507.9964 1134.6057,-507.9964"/>
<ellipse fill="none" stroke="#000000" cx="1131.448" cy="-508.515" rx="3.2" ry="3.2"/>
</g>
</g>
</svg>
