<?xml version="1.0" encoding="UTF-8" standalone="no"?>
<!DOCTYPE svg PUBLIC "-//W3C//DTD SVG 1.1//EN"
 "http://www.w3.org/Graphics/SVG/1.1/DTD/svg11.dtd">
<!-- Generated by graphviz version 2.40.1 (20161225.0304)
 -->
<!-- Title: oneDegreeRelationshipsDiagram Pages: 1 -->
<svg width="645pt" height="271pt"
 viewBox="0.00 0.00 645.00 270.70" xmlns="http://www.w3.org/2000/svg" xmlns:xlink="http://www.w3.org/1999/xlink">
<g id="graph0" class="graph" transform="scale(1 1) rotate(0) translate(4 266.7)">
<title>oneDegreeRelationshipsDiagram</title>
<polygon fill="#ffffff" stroke="transparent" points="-4,4 -4,-266.7 641,-266.7 641,4 -4,4"/>
<text text-anchor="middle" x="72.4936" y="-7.3" font-family="Helvetica,sans-Serif" font-size="11.00" fill="#000000">Generated by SchemaSpy</text>
<!-- TARGET_FORMS_PROTEIN_GROUPS -->
<g id="node1" class="node">
<title>TARGET_FORMS_PROTEIN_GROUPS</title>
<g id="a_node1"><a xlink:href="../../tables/TARGET_FORMS_PROTEIN_GROUPS.html" xlink:title="TARGET_FORMS_PROTEIN_GROUPS" target="_top">
<polygon fill="#ffffff" stroke="transparent" points="374,-131.7 374,-258.7 629,-258.7 629,-131.7 374,-131.7"/>
<polygon fill="#f5f5f5" stroke="transparent" points="374.5,-235.2 374.5,-258.2 629.5,-258.2 629.5,-235.2 374.5,-235.2"/>
<polygon fill="none" stroke="#000000" points="374.5,-235.2 374.5,-258.2 629.5,-258.2 629.5,-235.2 374.5,-235.2"/>
<text text-anchor="start" x="379.5" y="-244.3" font-family="Helvetica,sans-Serif" font-weight="bold" font-size="11.00" fill="#000000">TARGET_FORMS_PROTEIN_GROUPS</text>
<text text-anchor="start" x="594.5437" y="-243.3" font-family="Helvetica,sans-Serif" font-size="11.00" fill="#000000">[table]</text>
<polygon fill="none" stroke="#000000" points="374.5,-213.2 374.5,-235.2 629.5,-235.2 629.5,-213.2 374.5,-213.2"/>
<image xlink:href="../../images/primaryKeys.png" width="11px" height="12px" preserveAspectRatio="xMinYMin meet" x="379.5" y="-230.2"/>
<text text-anchor="start" x="394.5" y="-220.3" font-family="Helvetica,sans-Serif" font-size="11.00" fill="#000000">ID</text>
<polygon fill="none" stroke="#000000" points="374.5,-191.2 374.5,-213.2 629.5,-213.2 629.5,-191.2 374.5,-191.2"/>
<image xlink:href="../../images/primaryKeys.png" width="11px" height="12px" preserveAspectRatio="xMinYMin meet" x="379.5" y="-208.2"/>
<text text-anchor="start" x="394.5" y="-198.3" font-family="Helvetica,sans-Serif" font-size="11.00" fill="#000000">PROTEIN_GROUP_ID</text>
<polygon fill="none" stroke="#000000" points="374.5,-169.2 374.5,-191.2 629.5,-191.2 629.5,-169.2 374.5,-169.2"/>
<image xlink:href="../../images/primaryKeys.png" width="11px" height="12px" preserveAspectRatio="xMinYMin meet" x="379.5" y="-186.2"/>
<text text-anchor="start" x="394.5" y="-176.3" font-family="Helvetica,sans-Serif" font-size="11.00" fill="#000000">TARGET_FORM_ID</text>
<polygon fill="none" stroke="#000000" points="374.5,-150.2 374.5,-169.2 629.5,-169.2 629.5,-150.2 374.5,-150.2"/>
<text text-anchor="start" x="377.5" y="-156.3" font-family="Helvetica,sans-Serif" font-size="11.00" fill="#000000">...</text>
<polygon fill="#ffffff" stroke="transparent" points="374.5,-131.2 374.5,-150.2 484.5,-150.2 484.5,-131.2 374.5,-131.2"/>
<polygon fill="none" stroke="#000000" points="374.5,-131.2 374.5,-150.2 484.5,-150.2 484.5,-131.2 374.5,-131.2"/>
<text text-anchor="start" x="377.5" y="-137.3" font-family="Helvetica,sans-Serif" font-size="11.00" fill="#000000">&lt; 2</text>
<polygon fill="#ffffff" stroke="transparent" points="484.5,-131.2 484.5,-150.2 572.5,-150.2 572.5,-131.2 484.5,-131.2"/>
<polygon fill="none" stroke="#000000" points="484.5,-131.2 484.5,-150.2 572.5,-150.2 572.5,-131.2 484.5,-131.2"/>
<text text-anchor="start" x="530.9956" y="-137.3" font-family="Helvetica,sans-Serif" font-size="11.00" fill="#000000">17 rows</text>
<polygon fill="#ffffff" stroke="transparent" points="572.5,-131.2 572.5,-150.2 629.5,-150.2 629.5,-131.2 572.5,-131.2"/>
<polygon fill="none" stroke="#000000" points="572.5,-131.2 572.5,-150.2 629.5,-150.2 629.5,-131.2 572.5,-131.2"/>
<text text-anchor="start" x="620.3862" y="-137.3" font-family="Helvetica,sans-Serif" font-size="11.00" fill="#000000"> &#160;</text>
</a>
</g>
</g>
<!-- PROTEIN_GROUPS -->
<g id="node2" class="node">
<title>PROTEIN_GROUPS</title>
<g id="a_node2"><a xlink:href="../../tables/PROTEIN_GROUPS.html" xlink:title="PROTEIN_GROUPS" target="_top">
<polygon fill="#ffffff" stroke="transparent" points="8,-38.2 8,-238.2 325,-238.2 325,-38.2 8,-38.2"/>
<polygon fill="#f5f5f5" stroke="transparent" points="10.5,-213.2 10.5,-236.2 323.5,-236.2 323.5,-213.2 10.5,-213.2"/>
<polygon fill="none" stroke="#000000" points="10.5,-213.2 10.5,-236.2 323.5,-236.2 323.5,-213.2 10.5,-213.2"/>
<text text-anchor="start" x="15.5" y="-222.3" font-family="Helvetica,sans-Serif" font-weight="bold" font-size="11.00" fill="#000000">PROTEIN_GROUPS</text>
<text text-anchor="start" x="288.5437" y="-221.3" font-family="Helvetica,sans-Serif" font-size="11.00" fill="#000000">[table]</text>
<polygon fill="none" stroke="#000000" points="10.5,-191.2 10.5,-213.2 152.5,-213.2 152.5,-191.2 10.5,-191.2"/>
<image xlink:href="../../images/primaryKeys.png" width="11px" height="12px" preserveAspectRatio="xMinYMin meet" x="15.5" y="-208.2"/>
<text text-anchor="start" x="30.5" y="-198.3" font-family="Helvetica,sans-Serif" font-size="11.00" fill="#000000">ID</text>
<polygon fill="none" stroke="#000000" points="152.5,-191.2 152.5,-213.2 323.5,-213.2 323.5,-191.2 152.5,-191.2"/>
<text text-anchor="start" x="155.5" y="-198.9" font-family="Helvetica,sans-Serif" font-size="11.00" fill="#000000">number[19]</text>
<polygon fill="none" stroke="#000000" points="10.5,-169.2 10.5,-191.2 152.5,-191.2 152.5,-169.2 10.5,-169.2"/>
<text text-anchor="start" x="30.5" y="-176.3" font-family="Helvetica,sans-Serif" font-size="11.00" fill="#000000">CREATED_AT</text>
<polygon fill="none" stroke="#000000" points="152.5,-169.2 152.5,-191.2 323.5,-191.2 323.5,-169.2 152.5,-169.2"/>
<text text-anchor="start" x="155.4896" y="-176.9" font-family="Helvetica,sans-Serif" font-size="11.00" fill="#000000">timestamp(6) with time zone[13,6]</text>
<polygon fill="none" stroke="#000000" points="10.5,-147.2 10.5,-169.2 152.5,-169.2 152.5,-147.2 10.5,-147.2"/>
<text text-anchor="start" x="30.5" y="-154.3" font-family="Helvetica,sans-Serif" font-size="11.00" fill="#000000">CREATED_BY</text>
<polygon fill="none" stroke="#000000" points="152.5,-147.2 152.5,-169.2 323.5,-169.2 323.5,-147.2 152.5,-147.2"/>
<text text-anchor="start" x="155.5" y="-154.9" font-family="Helvetica,sans-Serif" font-size="11.00" fill="#000000">number[19]</text>
<polygon fill="none" stroke="#000000" points="10.5,-125.2 10.5,-147.2 152.5,-147.2 152.5,-125.2 10.5,-125.2"/>
<text text-anchor="start" x="30.5" y="-132.3" font-family="Helvetica,sans-Serif" font-size="11.00" fill="#000000">UPDATED_AT</text>
<polygon fill="none" stroke="#000000" points="152.5,-125.2 152.5,-147.2 323.5,-147.2 323.5,-125.2 152.5,-125.2"/>
<text text-anchor="start" x="155.4896" y="-132.9" font-family="Helvetica,sans-Serif" font-size="11.00" fill="#000000">timestamp(6) with time zone[13,6]</text>
<polygon fill="none" stroke="#000000" points="10.5,-103.2 10.5,-125.2 152.5,-125.2 152.5,-103.2 10.5,-103.2"/>
<text text-anchor="start" x="30.5" y="-110.3" font-family="Helvetica,sans-Serif" font-size="11.00" fill="#000000">UPDATED_BY</text>
<polygon fill="none" stroke="#000000" points="152.5,-103.2 152.5,-125.2 323.5,-125.2 323.5,-103.2 152.5,-103.2"/>
<text text-anchor="start" x="155.5" y="-110.9" font-family="Helvetica,sans-Serif" font-size="11.00" fill="#000000">number[19]</text>
<polygon fill="none" stroke="#000000" points="10.5,-81.2 10.5,-103.2 152.5,-103.2 152.5,-81.2 10.5,-81.2"/>
<image xlink:href="../../images/primaryKeys.png" width="11px" height="12px" preserveAspectRatio="xMinYMin meet" x="15.5" y="-98.2"/>
<text text-anchor="start" x="30.5" y="-88.3" font-family="Helvetica,sans-Serif" font-size="11.00" fill="#000000">TITLE</text>
<polygon fill="none" stroke="#000000" points="152.5,-81.2 152.5,-103.2 323.5,-103.2 323.5,-81.2 152.5,-81.2"/>
<text text-anchor="start" x="155.5" y="-88.9" font-family="Helvetica,sans-Serif" font-size="11.00" fill="#000000">varchar2[255]</text>
<polygon fill="none" stroke="#000000" points="10.5,-59.2 10.5,-81.2 152.5,-81.2 152.5,-59.2 10.5,-59.2"/>
<text text-anchor="start" x="30.5" y="-66.3" font-family="Helvetica,sans-Serif" font-size="11.00" fill="#000000">DESCRIPTION</text>
<polygon fill="none" stroke="#000000" points="152.5,-59.2 152.5,-81.2 323.5,-81.2 323.5,-59.2 152.5,-59.2"/>
<text text-anchor="start" x="155.5" y="-66.9" font-family="Helvetica,sans-Serif" font-size="11.00" fill="#000000">varchar2[4000]</text>
<polygon fill="#ffffff" stroke="transparent" points="10.5,-40.2 10.5,-59.2 72.5,-59.2 72.5,-40.2 10.5,-40.2"/>
<polygon fill="none" stroke="#000000" points="10.5,-40.2 10.5,-59.2 72.5,-59.2 72.5,-40.2 10.5,-40.2"/>
<text text-anchor="start" x="13.5" y="-46.3" font-family="Helvetica,sans-Serif" font-size="11.00" fill="#000000">&lt; 0</text>
<polygon fill="#ffffff" stroke="transparent" points="72.5,-40.2 72.5,-59.2 152.5,-59.2 152.5,-40.2 72.5,-40.2"/>
<polygon fill="none" stroke="#000000" points="72.5,-40.2 72.5,-59.2 152.5,-59.2 152.5,-40.2 72.5,-40.2"/>
<text text-anchor="start" x="117.1105" y="-46.3" font-family="Helvetica,sans-Serif" font-size="11.00" fill="#000000">6 rows</text>
<polygon fill="#ffffff" stroke="transparent" points="152.5,-40.2 152.5,-59.2 323.5,-59.2 323.5,-40.2 152.5,-40.2"/>
<polygon fill="none" stroke="#000000" points="152.5,-40.2 152.5,-59.2 323.5,-59.2 323.5,-40.2 152.5,-40.2"/>
<text text-anchor="start" x="304.9053" y="-46.3" font-family="Helvetica,sans-Serif" font-size="11.00" fill="#000000">1 &gt;</text>
<polygon fill="none" stroke="#000000" stroke-width="2" points="9,-39.2 9,-237.2 324,-237.2 324,-39.2 9,-39.2"/>
</a>
</g>
</g>
<!-- TARGET_FORMS_PROTEIN_GROUPS&#45;&gt;PROTEIN_GROUPS -->
<g id="edge1" class="edge">
<title>TARGET_FORMS_PROTEIN_GROUPS:w&#45;&gt;PROTEIN_GROUPS:e</title>
<path fill="none" stroke="#000000" d="M359.776,-202.2C347.7815,-202.2 340.3229,-202.2 323.5,-202.2"/>
<polygon fill="#000000" stroke="#000000" points="366.5,-202.2001 374.5,-205.8 370.5,-202.2 374.5,-202.2 374.5,-202.2 374.5,-202.2 370.5,-202.2 374.5,-198.6 366.5,-202.2001 366.5,-202.2001"/>
<ellipse fill="none" stroke="#000000" cx="363.3" cy="-202.2001" rx="3.2" ry="3.2"/>
</g>
</g>
</svg>
