<?xml version="1.0" encoding="UTF-8" standalone="no"?>
<!DOCTYPE svg PUBLIC "-//W3C//DTD SVG 1.1//EN"
 "http://www.w3.org/Graphics/SVG/1.1/DTD/svg11.dtd">
<!-- Generated by graphviz version 2.40.1 (20161225.0304)
 -->
<!-- Title: oneDegreeRelationshipsDiagram Pages: 1 -->
<svg width="609pt" height="425pt"
 viewBox="0.00 0.00 609.00 424.70" xmlns="http://www.w3.org/2000/svg" xmlns:xlink="http://www.w3.org/1999/xlink">
<g id="graph0" class="graph" transform="scale(1 1) rotate(0) translate(4 420.7)">
<title>oneDegreeRelationshipsDiagram</title>
<polygon fill="#ffffff" stroke="transparent" points="-4,4 -4,-420.7 605,-420.7 605,4 -4,4"/>
<text text-anchor="middle" x="72.4936" y="-7.3" font-family="Helvetica,sans-Serif" font-size="11.00" fill="#000000">Generated by SchemaSpy</text>
<!-- TRACER_SYNTHESIS_REQUESTS -->
<g id="node1" class="node">
<title>TRACER_SYNTHESIS_REQUESTS</title>
<g id="a_node1"><a xlink:href="../../tables/TRACER_SYNTHESIS_REQUESTS.html" xlink:title="TRACER_SYNTHESIS_REQUESTS" target="_top">
<polygon fill="#ffffff" stroke="transparent" points="361,-65.7 361,-412.7 593,-412.7 593,-65.7 361,-65.7"/>
<polygon fill="#f5f5f5" stroke="transparent" points="361,-389.2 361,-412.2 593,-412.2 593,-389.2 361,-389.2"/>
<polygon fill="none" stroke="#000000" points="361,-389.2 361,-412.2 593,-412.2 593,-389.2 361,-389.2"/>
<text text-anchor="start" x="366" y="-398.3" font-family="Helvetica,sans-Serif" font-weight="bold" font-size="11.00" fill="#000000">TRACER_SYNTHESIS_REQUESTS</text>
<text text-anchor="start" x="558.0437" y="-397.3" font-family="Helvetica,sans-Serif" font-size="11.00" fill="#000000">[table]</text>
<polygon fill="none" stroke="#000000" points="361,-367.2 361,-389.2 593,-389.2 593,-367.2 361,-367.2"/>
<image xlink:href="../../images/primaryKeys.png" width="11px" height="12px" preserveAspectRatio="xMinYMin meet" x="366" y="-384.2"/>
<text text-anchor="start" x="381" y="-374.3" font-family="Helvetica,sans-Serif" font-size="11.00" fill="#000000">ID</text>
<polygon fill="none" stroke="#000000" points="361,-345.2 361,-367.2 593,-367.2 593,-345.2 361,-345.2"/>
<image xlink:href="../../images/foreignKeys.png" width="11px" height="12px" preserveAspectRatio="xMinYMin meet" x="366" y="-362.2"/>
<text text-anchor="start" x="381" y="-352.3" font-family="Helvetica,sans-Serif" font-size="11.00" fill="#000000">TRACER_TYPE_ID</text>
<polygon fill="none" stroke="#000000" points="361,-323.2 361,-345.2 593,-345.2 593,-323.2 361,-323.2"/>
<image xlink:href="../../images/foreignKeys.png" width="11px" height="12px" preserveAspectRatio="xMinYMin meet" x="366" y="-340.2"/>
<text text-anchor="start" x="381" y="-330.3" font-family="Helvetica,sans-Serif" font-size="11.00" fill="#000000">TARGET_ID</text>
<polygon fill="none" stroke="#000000" points="361,-301.2 361,-323.2 593,-323.2 593,-301.2 361,-301.2"/>
<image xlink:href="../../images/foreignKeys.png" width="11px" height="12px" preserveAspectRatio="xMinYMin meet" x="366" y="-318.2"/>
<text text-anchor="start" x="381" y="-308.3" font-family="Helvetica,sans-Serif" font-size="11.00" fill="#000000">OFF_DNA_ID</text>
<polygon fill="none" stroke="#000000" points="361,-279.2 361,-301.2 593,-301.2 593,-279.2 361,-279.2"/>
<image xlink:href="../../images/foreignKeys.png" width="11px" height="12px" preserveAspectRatio="xMinYMin meet" x="366" y="-296.2"/>
<text text-anchor="start" x="381" y="-286.3" font-family="Helvetica,sans-Serif" font-size="11.00" fill="#000000">OFF_DNA_IC50_ID</text>
<polygon fill="none" stroke="#000000" points="361,-257.2 361,-279.2 593,-279.2 593,-257.2 361,-257.2"/>
<image xlink:href="../../images/foreignKeys.png" width="11px" height="12px" preserveAspectRatio="xMinYMin meet" x="366" y="-274.2"/>
<text text-anchor="start" x="381" y="-264.3" font-family="Helvetica,sans-Serif" font-size="11.00" fill="#000000">TARGET_FORM_ID</text>
<polygon fill="none" stroke="#000000" points="361,-235.2 361,-257.2 593,-257.2 593,-235.2 361,-235.2"/>
<image xlink:href="../../images/foreignKeys.png" width="11px" height="12px" preserveAspectRatio="xMinYMin meet" x="366" y="-252.2"/>
<text text-anchor="start" x="381" y="-242.3" font-family="Helvetica,sans-Serif" font-size="11.00" fill="#000000">ASSIGNEE_ID</text>
<polygon fill="none" stroke="#000000" points="361,-213.2 361,-235.2 593,-235.2 593,-213.2 361,-213.2"/>
<image xlink:href="../../images/foreignKeys.png" width="11px" height="12px" preserveAspectRatio="xMinYMin meet" x="366" y="-230.2"/>
<text text-anchor="start" x="381" y="-220.3" font-family="Helvetica,sans-Serif" font-size="11.00" fill="#000000">TARGET_CATEGORY_ID</text>
<polygon fill="none" stroke="#000000" points="361,-191.2 361,-213.2 593,-213.2 593,-191.2 361,-191.2"/>
<image xlink:href="../../images/foreignKeys.png" width="11px" height="12px" preserveAspectRatio="xMinYMin meet" x="366" y="-208.2"/>
<text text-anchor="start" x="381" y="-198.3" font-family="Helvetica,sans-Serif" font-size="11.00" fill="#000000">CHEMISTRY_ID</text>
<polygon fill="none" stroke="#000000" points="361,-169.2 361,-191.2 593,-191.2 593,-169.2 361,-169.2"/>
<image xlink:href="../../images/foreignKeys.png" width="11px" height="12px" preserveAspectRatio="xMinYMin meet" x="366" y="-186.2"/>
<text text-anchor="start" x="381" y="-176.3" font-family="Helvetica,sans-Serif" font-size="11.00" fill="#000000">REGISTRATION_ID</text>
<polygon fill="none" stroke="#000000" points="361,-147.2 361,-169.2 593,-169.2 593,-147.2 361,-147.2"/>
<image xlink:href="../../images/foreignKeys.png" width="11px" height="12px" preserveAspectRatio="xMinYMin meet" x="366" y="-164.2"/>
<text text-anchor="start" x="381" y="-154.3" font-family="Helvetica,sans-Serif" font-size="11.00" fill="#000000">HEAD_PIECE_ID</text>
<polygon fill="none" stroke="#000000" points="361,-125.2 361,-147.2 593,-147.2 593,-125.2 361,-125.2"/>
<image xlink:href="../../images/foreignKeys.png" width="11px" height="12px" preserveAspectRatio="xMinYMin meet" x="366" y="-142.2"/>
<text text-anchor="start" x="381" y="-132.3" font-family="Helvetica,sans-Serif" font-size="11.00" fill="#000000">QUANTIFICATION_METHOD_ID</text>
<polygon fill="none" stroke="#000000" points="361,-103.2 361,-125.2 593,-125.2 593,-103.2 361,-103.2"/>
<image xlink:href="../../images/foreignKeys.png" width="11px" height="12px" preserveAspectRatio="xMinYMin meet" x="366" y="-120.2"/>
<text text-anchor="start" x="381" y="-110.3" font-family="Helvetica,sans-Serif" font-size="11.00" fill="#000000">DELIVERED_CONDITION_ID</text>
<polygon fill="none" stroke="#000000" points="361,-84.2 361,-103.2 593,-103.2 593,-84.2 361,-84.2"/>
<text text-anchor="start" x="364" y="-90.3" font-family="Helvetica,sans-Serif" font-size="11.00" fill="#000000">...</text>
<polygon fill="#ffffff" stroke="transparent" points="361,-65.2 361,-84.2 458,-84.2 458,-65.2 361,-65.2"/>
<polygon fill="none" stroke="#000000" points="361,-65.2 361,-84.2 458,-84.2 458,-65.2 361,-65.2"/>
<text text-anchor="start" x="364" y="-71.3" font-family="Helvetica,sans-Serif" font-size="11.00" fill="#000000">&lt; 12</text>
<polygon fill="#ffffff" stroke="transparent" points="458,-65.2 458,-84.2 537,-84.2 537,-65.2 458,-65.2"/>
<polygon fill="none" stroke="#000000" points="458,-65.2 458,-84.2 537,-84.2 537,-65.2 458,-65.2"/>
<text text-anchor="start" x="495.4956" y="-71.3" font-family="Helvetica,sans-Serif" font-size="11.00" fill="#000000">21 rows</text>
<polygon fill="#ffffff" stroke="transparent" points="537,-65.2 537,-84.2 593,-84.2 593,-65.2 537,-65.2"/>
<polygon fill="none" stroke="#000000" points="537,-65.2 537,-84.2 593,-84.2 593,-65.2 537,-65.2"/>
<text text-anchor="start" x="574.4053" y="-71.3" font-family="Helvetica,sans-Serif" font-size="11.00" fill="#000000">2 &gt;</text>
</a>
</g>
</g>
<!-- REGISTRATIONS -->
<g id="node2" class="node">
<title>REGISTRATIONS</title>
<g id="a_node2"><a xlink:href="../../tables/REGISTRATIONS.html" xlink:title="REGISTRATIONS" target="_top">
<polygon fill="#ffffff" stroke="transparent" points="8,-38.2 8,-216.2 312,-216.2 312,-38.2 8,-38.2"/>
<polygon fill="#f5f5f5" stroke="transparent" points="10,-191.2 10,-214.2 310,-214.2 310,-191.2 10,-191.2"/>
<polygon fill="none" stroke="#000000" points="10,-191.2 10,-214.2 310,-214.2 310,-191.2 10,-191.2"/>
<text text-anchor="start" x="15" y="-200.3" font-family="Helvetica,sans-Serif" font-weight="bold" font-size="11.00" fill="#000000">REGISTRATIONS</text>
<text text-anchor="start" x="275.0437" y="-199.3" font-family="Helvetica,sans-Serif" font-size="11.00" fill="#000000">[table]</text>
<polygon fill="none" stroke="#000000" points="10,-169.2 10,-191.2 139,-191.2 139,-169.2 10,-169.2"/>
<image xlink:href="../../images/primaryKeys.png" width="11px" height="12px" preserveAspectRatio="xMinYMin meet" x="15" y="-186.2"/>
<text text-anchor="start" x="30" y="-176.3" font-family="Helvetica,sans-Serif" font-size="11.00" fill="#000000">ID</text>
<polygon fill="none" stroke="#000000" points="139,-169.2 139,-191.2 310,-191.2 310,-169.2 139,-169.2"/>
<text text-anchor="start" x="142" y="-176.9" font-family="Helvetica,sans-Serif" font-size="11.00" fill="#000000">number[19]</text>
<polygon fill="none" stroke="#000000" points="10,-147.2 10,-169.2 139,-169.2 139,-147.2 10,-147.2"/>
<text text-anchor="start" x="30" y="-154.3" font-family="Helvetica,sans-Serif" font-size="11.00" fill="#000000">CREATED_AT</text>
<polygon fill="none" stroke="#000000" points="139,-147.2 139,-169.2 310,-169.2 310,-147.2 139,-147.2"/>
<text text-anchor="start" x="141.9896" y="-154.9" font-family="Helvetica,sans-Serif" font-size="11.00" fill="#000000">timestamp(6) with time zone[13,6]</text>
<polygon fill="none" stroke="#000000" points="10,-125.2 10,-147.2 139,-147.2 139,-125.2 10,-125.2"/>
<text text-anchor="start" x="30" y="-132.3" font-family="Helvetica,sans-Serif" font-size="11.00" fill="#000000">CREATED_BY</text>
<polygon fill="none" stroke="#000000" points="139,-125.2 139,-147.2 310,-147.2 310,-125.2 139,-125.2"/>
<text text-anchor="start" x="142" y="-132.9" font-family="Helvetica,sans-Serif" font-size="11.00" fill="#000000">number[19]</text>
<polygon fill="none" stroke="#000000" points="10,-103.2 10,-125.2 139,-125.2 139,-103.2 10,-103.2"/>
<text text-anchor="start" x="30" y="-110.3" font-family="Helvetica,sans-Serif" font-size="11.00" fill="#000000">UPDATED_AT</text>
<polygon fill="none" stroke="#000000" points="139,-103.2 139,-125.2 310,-125.2 310,-103.2 139,-103.2"/>
<text text-anchor="start" x="141.9896" y="-110.9" font-family="Helvetica,sans-Serif" font-size="11.00" fill="#000000">timestamp(6) with time zone[13,6]</text>
<polygon fill="none" stroke="#000000" points="10,-81.2 10,-103.2 139,-103.2 139,-81.2 10,-81.2"/>
<text text-anchor="start" x="30" y="-88.3" font-family="Helvetica,sans-Serif" font-size="11.00" fill="#000000">UPDATED_BY</text>
<polygon fill="none" stroke="#000000" points="139,-81.2 139,-103.2 310,-103.2 310,-81.2 139,-81.2"/>
<text text-anchor="start" x="142" y="-88.9" font-family="Helvetica,sans-Serif" font-size="11.00" fill="#000000">number[19]</text>
<polygon fill="none" stroke="#000000" points="10,-59.2 10,-81.2 139,-81.2 139,-59.2 10,-59.2"/>
<text text-anchor="start" x="30" y="-66.3" font-family="Helvetica,sans-Serif" font-size="11.00" fill="#000000">NAME</text>
<polygon fill="none" stroke="#000000" points="139,-59.2 139,-81.2 310,-81.2 310,-59.2 139,-59.2"/>
<text text-anchor="start" x="142" y="-66.9" font-family="Helvetica,sans-Serif" font-size="11.00" fill="#000000">varchar2[255]</text>
<polygon fill="#ffffff" stroke="transparent" points="10,-40.2 10,-59.2 66,-59.2 66,-40.2 10,-40.2"/>
<polygon fill="none" stroke="#000000" points="10,-40.2 10,-59.2 66,-59.2 66,-40.2 10,-40.2"/>
<text text-anchor="start" x="13" y="-46.3" font-family="Helvetica,sans-Serif" font-size="11.00" fill="#000000">&lt; 0</text>
<polygon fill="#ffffff" stroke="transparent" points="66,-40.2 66,-59.2 139,-59.2 139,-40.2 66,-40.2"/>
<polygon fill="none" stroke="#000000" points="66,-40.2 66,-59.2 139,-59.2 139,-40.2 66,-40.2"/>
<text text-anchor="start" x="103.6105" y="-46.3" font-family="Helvetica,sans-Serif" font-size="11.00" fill="#000000">9 rows</text>
<polygon fill="#ffffff" stroke="transparent" points="139,-40.2 139,-59.2 310,-59.2 310,-40.2 139,-40.2"/>
<polygon fill="none" stroke="#000000" points="139,-40.2 139,-59.2 310,-59.2 310,-40.2 139,-40.2"/>
<text text-anchor="start" x="291.4053" y="-46.3" font-family="Helvetica,sans-Serif" font-size="11.00" fill="#000000">1 &gt;</text>
<polygon fill="none" stroke="#000000" stroke-width="2" points="9,-39.2 9,-215.2 311,-215.2 311,-39.2 9,-39.2"/>
</a>
</g>
</g>
<!-- TRACER_SYNTHESIS_REQUESTS&#45;&gt;REGISTRATIONS -->
<g id="edge1" class="edge">
<title>TRACER_SYNTHESIS_REQUESTS:w&#45;&gt;REGISTRATIONS:e</title>
<path fill="none" stroke="#000000" d="M346.276,-180.2C334.2815,-180.2 326.8229,-180.2 310,-180.2"/>
<polygon fill="#000000" stroke="#000000" points="353,-180.2001 361,-183.8 357,-180.2 361,-180.2 361,-180.2 361,-180.2 357,-180.2 361,-176.6 353,-180.2001 353,-180.2001"/>
<ellipse fill="none" stroke="#000000" cx="349.8" cy="-180.2001" rx="3.2" ry="3.2"/>
</g>
</g>
</svg>
