<?xml version="1.0" encoding="UTF-8" standalone="no"?>
<!DOCTYPE svg PUBLIC "-//W3C//DTD SVG 1.1//EN"
 "http://www.w3.org/Graphics/SVG/1.1/DTD/svg11.dtd">
<!-- Generated by graphviz version 2.40.1 (20161225.0304)
 -->
<!-- Title: twoDegreesRelationshipsDiagram Pages: 1 -->
<svg width="545pt" height="501pt"
 viewBox="0.00 0.00 545.00 500.70" xmlns="http://www.w3.org/2000/svg" xmlns:xlink="http://www.w3.org/1999/xlink">
<g id="graph0" class="graph" transform="scale(1 1) rotate(0) translate(4 496.7)">
<title>twoDegreesRelationshipsDiagram</title>
<polygon fill="#ffffff" stroke="transparent" points="-4,4 -4,-496.7 541,-496.7 541,4 -4,4"/>
<text text-anchor="middle" x="72.4936" y="-7.3" font-family="Helvetica,sans-Serif" font-size="11.00" fill="#000000">Generated by SchemaSpy</text>
<!-- NOTIFICATION_SETTINGS -->
<g id="node1" class="node">
<title>NOTIFICATION_SETTINGS</title>
<g id="a_node1"><a xlink:href="../../tables/NOTIFICATION_SETTINGS.html" xlink:title="NOTIFICATION_SETTINGS" target="_top">
<polygon fill="#ffffff" stroke="transparent" points="340,-361.7 340,-488.7 529,-488.7 529,-361.7 340,-361.7"/>
<polygon fill="#f5f5f5" stroke="transparent" points="340.5,-465.2 340.5,-488.2 529.5,-488.2 529.5,-465.2 340.5,-465.2"/>
<polygon fill="none" stroke="#000000" points="340.5,-465.2 340.5,-488.2 529.5,-488.2 529.5,-465.2 340.5,-465.2"/>
<text text-anchor="start" x="345.5" y="-474.3" font-family="Helvetica,sans-Serif" font-weight="bold" font-size="11.00" fill="#000000">NOTIFICATION_SETTINGS</text>
<text text-anchor="start" x="494.5437" y="-473.3" font-family="Helvetica,sans-Serif" font-size="11.00" fill="#000000">[table]</text>
<polygon fill="none" stroke="#000000" points="340.5,-443.2 340.5,-465.2 529.5,-465.2 529.5,-443.2 340.5,-443.2"/>
<image xlink:href="../../images/primaryKeys.png" width="11px" height="12px" preserveAspectRatio="xMinYMin meet" x="345.5" y="-460.2"/>
<text text-anchor="start" x="360.5" y="-450.3" font-family="Helvetica,sans-Serif" font-size="11.00" fill="#000000">ID</text>
<polygon fill="none" stroke="#000000" points="340.5,-421.2 340.5,-443.2 529.5,-443.2 529.5,-421.2 340.5,-421.2"/>
<image xlink:href="../../images/foreignKeys.png" width="11px" height="12px" preserveAspectRatio="xMinYMin meet" x="345.5" y="-438.2"/>
<text text-anchor="start" x="360.5" y="-428.3" font-family="Helvetica,sans-Serif" font-size="11.00" fill="#000000">ACTIVITY_TYPE_ID</text>
<polygon fill="none" stroke="#000000" points="340.5,-399.2 340.5,-421.2 529.5,-421.2 529.5,-399.2 340.5,-399.2"/>
<image xlink:href="../../images/foreignKeys.png" width="11px" height="12px" preserveAspectRatio="xMinYMin meet" x="345.5" y="-416.2"/>
<text text-anchor="start" x="360.5" y="-406.3" font-family="Helvetica,sans-Serif" font-size="11.00" fill="#000000">ROLE_ID</text>
<polygon fill="none" stroke="#000000" points="340.5,-380.2 340.5,-399.2 529.5,-399.2 529.5,-380.2 340.5,-380.2"/>
<text text-anchor="start" x="343.5" y="-386.3" font-family="Helvetica,sans-Serif" font-size="11.00" fill="#000000">...</text>
<polygon fill="#ffffff" stroke="transparent" points="340.5,-361.2 340.5,-380.2 414.5,-380.2 414.5,-361.2 340.5,-361.2"/>
<polygon fill="none" stroke="#000000" points="340.5,-361.2 340.5,-380.2 414.5,-380.2 414.5,-361.2 340.5,-361.2"/>
<text text-anchor="start" x="343.5" y="-367.3" font-family="Helvetica,sans-Serif" font-size="11.00" fill="#000000">&lt; 2</text>
<polygon fill="#ffffff" stroke="transparent" points="414.5,-361.2 414.5,-380.2 490.5,-380.2 490.5,-361.2 414.5,-361.2"/>
<polygon fill="none" stroke="#000000" points="414.5,-361.2 414.5,-380.2 490.5,-380.2 490.5,-361.2 414.5,-361.2"/>
<text text-anchor="start" x="442.8807" y="-367.3" font-family="Helvetica,sans-Serif" font-size="11.00" fill="#000000">108 rows</text>
<polygon fill="#ffffff" stroke="transparent" points="490.5,-361.2 490.5,-380.2 529.5,-380.2 529.5,-361.2 490.5,-361.2"/>
<polygon fill="none" stroke="#000000" points="490.5,-361.2 490.5,-380.2 529.5,-380.2 529.5,-361.2 490.5,-361.2"/>
<text text-anchor="start" x="520.3862" y="-367.3" font-family="Helvetica,sans-Serif" font-size="11.00" fill="#000000"> &#160;</text>
</a>
</g>
</g>
<!-- ACTIVITY_TYPES -->
<g id="node2" class="node">
<title>ACTIVITY_TYPES</title>
<g id="a_node2"><a xlink:href="../../tables/ACTIVITY_TYPES.html" xlink:title="ACTIVITY_TYPES" target="_top">
<polygon fill="#ffffff" stroke="transparent" points="82.5,-404.7 82.5,-465.7 216.5,-465.7 216.5,-404.7 82.5,-404.7"/>
<polygon fill="#f5f5f5" stroke="transparent" points="82.5,-442.2 82.5,-465.2 216.5,-465.2 216.5,-442.2 82.5,-442.2"/>
<polygon fill="none" stroke="#000000" points="82.5,-442.2 82.5,-465.2 216.5,-465.2 216.5,-442.2 82.5,-442.2"/>
<text text-anchor="start" x="87.1597" y="-451.3" font-family="Helvetica,sans-Serif" font-weight="bold" font-size="11.00" fill="#000000">ACTIVITY_TYPES</text>
<text text-anchor="start" x="182.0219" y="-450.3" font-family="Helvetica,sans-Serif" font-size="11.00" fill="#000000">[table]</text>
<polygon fill="none" stroke="#000000" points="82.5,-423.2 82.5,-442.2 216.5,-442.2 216.5,-423.2 82.5,-423.2"/>
<text text-anchor="start" x="85.5" y="-429.3" font-family="Helvetica,sans-Serif" font-size="11.00" fill="#000000">...</text>
<polygon fill="#ffffff" stroke="transparent" points="82.5,-404.2 82.5,-423.2 127.5,-423.2 127.5,-404.2 82.5,-404.2"/>
<polygon fill="none" stroke="#000000" points="82.5,-404.2 82.5,-423.2 127.5,-423.2 127.5,-404.2 82.5,-404.2"/>
<text text-anchor="start" x="85.5" y="-410.3" font-family="Helvetica,sans-Serif" font-size="11.00" fill="#000000">&lt; 1</text>
<polygon fill="#ffffff" stroke="transparent" points="127.5,-404.2 127.5,-423.2 183.5,-423.2 183.5,-404.2 127.5,-404.2"/>
<polygon fill="none" stroke="#000000" points="127.5,-404.2 127.5,-423.2 183.5,-423.2 183.5,-404.2 127.5,-404.2"/>
<text text-anchor="start" x="141.9956" y="-410.3" font-family="Helvetica,sans-Serif" font-size="11.00" fill="#000000">69 rows</text>
<polygon fill="#ffffff" stroke="transparent" points="183.5,-404.2 183.5,-423.2 216.5,-423.2 216.5,-404.2 183.5,-404.2"/>
<polygon fill="none" stroke="#000000" points="183.5,-404.2 183.5,-423.2 216.5,-423.2 216.5,-404.2 183.5,-404.2"/>
<text text-anchor="start" x="197.9053" y="-410.3" font-family="Helvetica,sans-Serif" font-size="11.00" fill="#000000">3 &gt;</text>
</a>
</g>
</g>
<!-- NOTIFICATION_SETTINGS&#45;&gt;ACTIVITY_TYPES -->
<g id="edge1" class="edge">
<title>NOTIFICATION_SETTINGS:w&#45;&gt;ACTIVITY_TYPES:e</title>
<path fill="none" stroke="#000000" d="M326.0217,-432.2C282.4423,-432.2 266.4444,-432.2 216.5,-432.2"/>
<polygon fill="#000000" stroke="#000000" points="332.5,-432.2001 340.5,-435.8 336.5,-432.2 340.5,-432.2 340.5,-432.2 340.5,-432.2 336.5,-432.2 340.5,-428.6 332.5,-432.2001 332.5,-432.2001"/>
<ellipse fill="none" stroke="#000000" cx="329.3" cy="-432.2001" rx="3.2" ry="3.2"/>
</g>
<!-- ROLES -->
<g id="node3" class="node">
<title>ROLES</title>
<g id="a_node3"><a xlink:href="../../tables/ROLES.html" xlink:title="ROLES" target="_top">
<polygon fill="#ffffff" stroke="transparent" points="8,-38.2 8,-216.2 291,-216.2 291,-38.2 8,-38.2"/>
<polygon fill="#f5f5f5" stroke="transparent" points="10.5,-191.2 10.5,-214.2 289.5,-214.2 289.5,-191.2 10.5,-191.2"/>
<polygon fill="none" stroke="#000000" points="10.5,-191.2 10.5,-214.2 289.5,-214.2 289.5,-191.2 10.5,-191.2"/>
<text text-anchor="start" x="15.5" y="-200.3" font-family="Helvetica,sans-Serif" font-weight="bold" font-size="11.00" fill="#000000">ROLES</text>
<text text-anchor="start" x="254.5437" y="-199.3" font-family="Helvetica,sans-Serif" font-size="11.00" fill="#000000">[table]</text>
<polygon fill="none" stroke="#000000" points="10.5,-169.2 10.5,-191.2 118.5,-191.2 118.5,-169.2 10.5,-169.2"/>
<image xlink:href="../../images/primaryKeys.png" width="11px" height="12px" preserveAspectRatio="xMinYMin meet" x="15.5" y="-186.2"/>
<text text-anchor="start" x="30.5" y="-176.3" font-family="Helvetica,sans-Serif" font-size="11.00" fill="#000000">ID</text>
<polygon fill="none" stroke="#000000" points="118.5,-169.2 118.5,-191.2 289.5,-191.2 289.5,-169.2 118.5,-169.2"/>
<text text-anchor="start" x="121.5" y="-176.9" font-family="Helvetica,sans-Serif" font-size="11.00" fill="#000000">number[19]</text>
<polygon fill="none" stroke="#000000" points="10.5,-147.2 10.5,-169.2 118.5,-169.2 118.5,-147.2 10.5,-147.2"/>
<text text-anchor="start" x="30.5" y="-154.3" font-family="Helvetica,sans-Serif" font-size="11.00" fill="#000000">CREATED_AT</text>
<polygon fill="none" stroke="#000000" points="118.5,-147.2 118.5,-169.2 289.5,-169.2 289.5,-147.2 118.5,-147.2"/>
<text text-anchor="start" x="121.4896" y="-154.9" font-family="Helvetica,sans-Serif" font-size="11.00" fill="#000000">timestamp(6) with time zone[13,6]</text>
<polygon fill="none" stroke="#000000" points="10.5,-125.2 10.5,-147.2 118.5,-147.2 118.5,-125.2 10.5,-125.2"/>
<text text-anchor="start" x="30.5" y="-132.3" font-family="Helvetica,sans-Serif" font-size="11.00" fill="#000000">CREATED_BY</text>
<polygon fill="none" stroke="#000000" points="118.5,-125.2 118.5,-147.2 289.5,-147.2 289.5,-125.2 118.5,-125.2"/>
<text text-anchor="start" x="121.5" y="-132.9" font-family="Helvetica,sans-Serif" font-size="11.00" fill="#000000">number[19]</text>
<polygon fill="none" stroke="#000000" points="10.5,-103.2 10.5,-125.2 118.5,-125.2 118.5,-103.2 10.5,-103.2"/>
<text text-anchor="start" x="30.5" y="-110.3" font-family="Helvetica,sans-Serif" font-size="11.00" fill="#000000">UPDATED_AT</text>
<polygon fill="none" stroke="#000000" points="118.5,-103.2 118.5,-125.2 289.5,-125.2 289.5,-103.2 118.5,-103.2"/>
<text text-anchor="start" x="121.4896" y="-110.9" font-family="Helvetica,sans-Serif" font-size="11.00" fill="#000000">timestamp(6) with time zone[13,6]</text>
<polygon fill="none" stroke="#000000" points="10.5,-81.2 10.5,-103.2 118.5,-103.2 118.5,-81.2 10.5,-81.2"/>
<text text-anchor="start" x="30.5" y="-88.3" font-family="Helvetica,sans-Serif" font-size="11.00" fill="#000000">UPDATED_BY</text>
<polygon fill="none" stroke="#000000" points="118.5,-81.2 118.5,-103.2 289.5,-103.2 289.5,-81.2 118.5,-81.2"/>
<text text-anchor="start" x="121.5" y="-88.9" font-family="Helvetica,sans-Serif" font-size="11.00" fill="#000000">number[19]</text>
<polygon fill="none" stroke="#000000" points="10.5,-59.2 10.5,-81.2 118.5,-81.2 118.5,-59.2 10.5,-59.2"/>
<image xlink:href="../../images/primaryKeys.png" width="11px" height="12px" preserveAspectRatio="xMinYMin meet" x="15.5" y="-76.2"/>
<text text-anchor="start" x="30.5" y="-66.3" font-family="Helvetica,sans-Serif" font-size="11.00" fill="#000000">TITLE</text>
<polygon fill="none" stroke="#000000" points="118.5,-59.2 118.5,-81.2 289.5,-81.2 289.5,-59.2 118.5,-59.2"/>
<text text-anchor="start" x="121.5" y="-66.9" font-family="Helvetica,sans-Serif" font-size="11.00" fill="#000000">varchar2[255]</text>
<polygon fill="#ffffff" stroke="transparent" points="10.5,-40.2 10.5,-59.2 52.5,-59.2 52.5,-40.2 10.5,-40.2"/>
<polygon fill="none" stroke="#000000" points="10.5,-40.2 10.5,-59.2 52.5,-59.2 52.5,-40.2 10.5,-40.2"/>
<text text-anchor="start" x="13.5" y="-46.3" font-family="Helvetica,sans-Serif" font-size="11.00" fill="#000000">&lt; 0</text>
<polygon fill="#ffffff" stroke="transparent" points="52.5,-40.2 52.5,-59.2 118.5,-59.2 118.5,-40.2 52.5,-40.2"/>
<polygon fill="none" stroke="#000000" points="52.5,-40.2 52.5,-59.2 118.5,-59.2 118.5,-40.2 52.5,-40.2"/>
<text text-anchor="start" x="76.9956" y="-46.3" font-family="Helvetica,sans-Serif" font-size="11.00" fill="#000000">11 rows</text>
<polygon fill="#ffffff" stroke="transparent" points="118.5,-40.2 118.5,-59.2 289.5,-59.2 289.5,-40.2 118.5,-40.2"/>
<polygon fill="none" stroke="#000000" points="118.5,-40.2 118.5,-59.2 289.5,-59.2 289.5,-40.2 118.5,-40.2"/>
<text text-anchor="start" x="270.9053" y="-46.3" font-family="Helvetica,sans-Serif" font-size="11.00" fill="#000000">2 &gt;</text>
<polygon fill="none" stroke="#000000" stroke-width="2" points="9,-39.2 9,-215.2 290,-215.2 290,-39.2 9,-39.2"/>
</a>
</g>
</g>
<!-- NOTIFICATION_SETTINGS&#45;&gt;ROLES -->
<g id="edge2" class="edge">
<title>NOTIFICATION_SETTINGS:w&#45;&gt;ROLES:e</title>
<path fill="none" stroke="#000000" d="M326.0533,-408.3486C251.7705,-386.5818 388.6836,-180.2 289.5,-180.2"/>
<polygon fill="#000000" stroke="#000000" points="332.5649,-409.1831 340.0424,-413.7708 336.5324,-409.6915 340.5,-410.2 340.5,-410.2 340.5,-410.2 336.5324,-409.6915 340.9576,-406.6292 332.5649,-409.1831 332.5649,-409.1831"/>
<ellipse fill="none" stroke="#000000" cx="329.3908" cy="-408.7763" rx="3.2" ry="3.2"/>
</g>
<!-- TARGETS_USERS -->
<g id="node4" class="node">
<title>TARGETS_USERS</title>
<g id="a_node4"><a xlink:href="../../tables/TARGETS_USERS.html" xlink:title="TARGETS_USERS" target="_top">
<polygon fill="#ffffff" stroke="transparent" points="365.5,-191.7 365.5,-340.7 503.5,-340.7 503.5,-191.7 365.5,-191.7"/>
<polygon fill="#f5f5f5" stroke="transparent" points="365.5,-317.2 365.5,-340.2 503.5,-340.2 503.5,-317.2 365.5,-317.2"/>
<polygon fill="none" stroke="#000000" points="365.5,-317.2 365.5,-340.2 503.5,-340.2 503.5,-317.2 365.5,-317.2"/>
<text text-anchor="start" x="370.0252" y="-326.3" font-family="Helvetica,sans-Serif" font-weight="bold" font-size="11.00" fill="#000000">TARGETS_USERS</text>
<text text-anchor="start" x="469.0219" y="-325.3" font-family="Helvetica,sans-Serif" font-size="11.00" fill="#000000">[table]</text>
<polygon fill="none" stroke="#000000" points="365.5,-295.2 365.5,-317.2 503.5,-317.2 503.5,-295.2 365.5,-295.2"/>
<image xlink:href="../../images/primaryKeys.png" width="11px" height="12px" preserveAspectRatio="xMinYMin meet" x="370.5" y="-312.2"/>
<text text-anchor="start" x="388.5" y="-302.3" font-family="Helvetica,sans-Serif" font-size="11.00" fill="#000000">ID</text>
<polygon fill="none" stroke="#000000" points="365.5,-273.2 365.5,-295.2 503.5,-295.2 503.5,-273.2 365.5,-273.2"/>
<image xlink:href="../../images/foreignKeys.png" width="11px" height="12px" preserveAspectRatio="xMinYMin meet" x="370.5" y="-290.2"/>
<text text-anchor="start" x="388.5" y="-280.3" font-family="Helvetica,sans-Serif" font-size="11.00" fill="#000000">TARGET_ID</text>
<polygon fill="none" stroke="#000000" points="365.5,-251.2 365.5,-273.2 503.5,-273.2 503.5,-251.2 365.5,-251.2"/>
<image xlink:href="../../images/foreignKeys.png" width="11px" height="12px" preserveAspectRatio="xMinYMin meet" x="370.5" y="-268.2"/>
<text text-anchor="start" x="388.5" y="-258.3" font-family="Helvetica,sans-Serif" font-size="11.00" fill="#000000">USER_ID</text>
<polygon fill="none" stroke="#000000" points="365.5,-229.2 365.5,-251.2 503.5,-251.2 503.5,-229.2 365.5,-229.2"/>
<image xlink:href="../../images/foreignKeys.png" width="11px" height="12px" preserveAspectRatio="xMinYMin meet" x="370.5" y="-246.2"/>
<text text-anchor="start" x="388.5" y="-236.3" font-family="Helvetica,sans-Serif" font-size="11.00" fill="#000000">ROLE_ID</text>
<polygon fill="none" stroke="#000000" points="365.5,-210.2 365.5,-229.2 503.5,-229.2 503.5,-210.2 365.5,-210.2"/>
<text text-anchor="start" x="368.5" y="-216.3" font-family="Helvetica,sans-Serif" font-size="11.00" fill="#000000">...</text>
<polygon fill="#ffffff" stroke="transparent" points="365.5,-191.2 365.5,-210.2 416.5,-210.2 416.5,-191.2 365.5,-191.2"/>
<polygon fill="none" stroke="#000000" points="365.5,-191.2 365.5,-210.2 416.5,-210.2 416.5,-191.2 365.5,-191.2"/>
<text text-anchor="start" x="368.5" y="-197.3" font-family="Helvetica,sans-Serif" font-size="11.00" fill="#000000">&lt; 3</text>
<polygon fill="#ffffff" stroke="transparent" points="416.5,-191.2 416.5,-210.2 475.5,-210.2 475.5,-191.2 416.5,-191.2"/>
<polygon fill="none" stroke="#000000" points="416.5,-191.2 416.5,-210.2 475.5,-210.2 475.5,-191.2 416.5,-191.2"/>
<text text-anchor="start" x="433.9956" y="-197.3" font-family="Helvetica,sans-Serif" font-size="11.00" fill="#000000">35 rows</text>
<polygon fill="#ffffff" stroke="transparent" points="475.5,-191.2 475.5,-210.2 503.5,-210.2 503.5,-191.2 475.5,-191.2"/>
<polygon fill="none" stroke="#000000" points="475.5,-191.2 475.5,-210.2 503.5,-210.2 503.5,-191.2 475.5,-191.2"/>
<text text-anchor="start" x="494.3862" y="-197.3" font-family="Helvetica,sans-Serif" font-size="11.00" fill="#000000"> &#160;</text>
</a>
</g>
</g>
<!-- TARGETS_USERS&#45;&gt;ROLES -->
<g id="edge3" class="edge">
<title>TARGETS_USERS:w&#45;&gt;ROLES:e</title>
<path fill="none" stroke="#000000" d="M351.2773,-237.466C324.1785,-225.7283 326.9879,-180.2 289.5,-180.2"/>
<polygon fill="#000000" stroke="#000000" points="357.6438,-238.6898 364.8204,-243.7353 361.5719,-239.4449 365.5,-240.2 365.5,-240.2 365.5,-240.2 361.5719,-239.4449 366.1796,-236.6647 357.6438,-238.6898 357.6438,-238.6898"/>
<ellipse fill="none" stroke="#000000" cx="354.5014" cy="-238.0857" rx="3.2" ry="3.2"/>
</g>
<!-- TARGETS -->
<g id="node5" class="node">
<title>TARGETS</title>
<g id="a_node5"><a xlink:href="../../tables/TARGETS.html" xlink:title="TARGETS" target="_top">
<polygon fill="#ffffff" stroke="transparent" points="100.5,-319.7 100.5,-380.7 198.5,-380.7 198.5,-319.7 100.5,-319.7"/>
<polygon fill="#f5f5f5" stroke="transparent" points="100.5,-357.2 100.5,-380.2 198.5,-380.2 198.5,-357.2 100.5,-357.2"/>
<polygon fill="none" stroke="#000000" points="100.5,-357.2 100.5,-380.2 198.5,-380.2 198.5,-357.2 100.5,-357.2"/>
<text text-anchor="start" x="105.5" y="-366.3" font-family="Helvetica,sans-Serif" font-weight="bold" font-size="11.00" fill="#000000">TARGETS</text>
<text text-anchor="start" x="163.5437" y="-365.3" font-family="Helvetica,sans-Serif" font-size="11.00" fill="#000000">[table]</text>
<polygon fill="none" stroke="#000000" points="100.5,-338.2 100.5,-357.2 198.5,-357.2 198.5,-338.2 100.5,-338.2"/>
<text text-anchor="start" x="103.5" y="-344.3" font-family="Helvetica,sans-Serif" font-size="11.00" fill="#000000">...</text>
<polygon fill="#ffffff" stroke="transparent" points="100.5,-319.2 100.5,-338.2 121.5,-338.2 121.5,-319.2 100.5,-319.2"/>
<polygon fill="none" stroke="#000000" points="100.5,-319.2 100.5,-338.2 121.5,-338.2 121.5,-319.2 100.5,-319.2"/>
<text text-anchor="start" x="103.2027" y="-325.3" font-family="Helvetica,sans-Serif" font-size="11.00" fill="#000000">&lt; 3</text>
<polygon fill="#ffffff" stroke="transparent" points="121.5,-319.2 121.5,-338.2 171.5,-338.2 171.5,-319.2 121.5,-319.2"/>
<polygon fill="none" stroke="#000000" points="121.5,-319.2 121.5,-338.2 171.5,-338.2 171.5,-319.2 121.5,-319.2"/>
<text text-anchor="start" x="124.1904" y="-325.3" font-family="Helvetica,sans-Serif" font-size="11.00" fill="#000000">146 rows</text>
<polygon fill="#ffffff" stroke="transparent" points="171.5,-319.2 171.5,-338.2 198.5,-338.2 198.5,-319.2 171.5,-319.2"/>
<polygon fill="none" stroke="#000000" points="171.5,-319.2 171.5,-338.2 198.5,-338.2 198.5,-319.2 171.5,-319.2"/>
<text text-anchor="start" x="174.1452" y="-325.3" font-family="Helvetica,sans-Serif" font-size="11.00" fill="#000000">10 &gt;</text>
</a>
</g>
</g>
<!-- TARGETS_USERS&#45;&gt;TARGETS -->
<g id="edge4" class="edge">
<title>TARGETS_USERS:w&#45;&gt;TARGETS:e</title>
<path fill="none" stroke="#000000" d="M351.7011,-289.1435C312.0327,-303.9952 200.5529,-347.2 198.5,-347.2"/>
<polygon fill="#000000" stroke="#000000" points="357.9687,-286.8981 366.7142,-287.5891 361.7344,-285.5491 365.5,-284.2 365.5,-284.2 365.5,-284.2 361.7344,-285.5491 364.2858,-280.8109 357.9687,-286.8981 357.9687,-286.8981"/>
<ellipse fill="none" stroke="#000000" cx="354.9562" cy="-287.9774" rx="3.2" ry="3.2"/>
</g>
<!-- USERS -->
<g id="node6" class="node">
<title>USERS</title>
<g id="a_node6"><a xlink:href="../../tables/USERS.html" xlink:title="USERS" target="_top">
<polygon fill="#ffffff" stroke="transparent" points="109.5,-237.7 109.5,-298.7 189.5,-298.7 189.5,-237.7 109.5,-237.7"/>
<polygon fill="#f5f5f5" stroke="transparent" points="109.5,-275.2 109.5,-298.2 189.5,-298.2 189.5,-275.2 109.5,-275.2"/>
<polygon fill="none" stroke="#000000" points="109.5,-275.2 109.5,-298.2 189.5,-298.2 189.5,-275.2 109.5,-275.2"/>
<text text-anchor="start" x="114.0553" y="-284.3" font-family="Helvetica,sans-Serif" font-weight="bold" font-size="11.00" fill="#000000">USERS</text>
<text text-anchor="start" x="155.0219" y="-283.3" font-family="Helvetica,sans-Serif" font-size="11.00" fill="#000000">[table]</text>
<polygon fill="none" stroke="#000000" points="109.5,-256.2 109.5,-275.2 189.5,-275.2 189.5,-256.2 109.5,-256.2"/>
<text text-anchor="start" x="112.5" y="-262.3" font-family="Helvetica,sans-Serif" font-size="11.00" fill="#000000">...</text>
<polygon fill="#ffffff" stroke="transparent" points="109.5,-237.2 109.5,-256.2 122.5,-256.2 122.5,-237.2 109.5,-237.2"/>
<polygon fill="none" stroke="#000000" points="109.5,-237.2 109.5,-256.2 122.5,-256.2 122.5,-237.2 109.5,-237.2"/>
<text text-anchor="start" x="112.5" y="-243.3" font-family="Helvetica,sans-Serif" font-size="11.00" fill="#000000"> &#160;</text>
<polygon fill="#ffffff" stroke="transparent" points="122.5,-237.2 122.5,-256.2 167.5,-256.2 167.5,-237.2 122.5,-237.2"/>
<polygon fill="none" stroke="#000000" points="122.5,-237.2 122.5,-256.2 167.5,-256.2 167.5,-237.2 122.5,-237.2"/>
<text text-anchor="start" x="125.9956" y="-243.3" font-family="Helvetica,sans-Serif" font-size="11.00" fill="#000000">33 rows</text>
<polygon fill="#ffffff" stroke="transparent" points="167.5,-237.2 167.5,-256.2 189.5,-256.2 189.5,-237.2 167.5,-237.2"/>
<polygon fill="none" stroke="#000000" points="167.5,-237.2 167.5,-256.2 189.5,-256.2 189.5,-237.2 167.5,-237.2"/>
<text text-anchor="start" x="170.9053" y="-243.3" font-family="Helvetica,sans-Serif" font-size="11.00" fill="#000000">9 &gt;</text>
</a>
</g>
</g>
<!-- TARGETS_USERS&#45;&gt;USERS -->
<g id="edge5" class="edge">
<title>TARGETS_USERS:w&#45;&gt;USERS:e</title>
<path fill="none" stroke="#000000" d="M351.0729,-262.2358C284.5047,-262.5743 262.6912,-265.2 189.5,-265.2"/>
<polygon fill="#000000" stroke="#000000" points="357.5,-262.2199 365.509,-265.8 361.5,-262.2099 365.5,-262.2 365.5,-262.2 365.5,-262.2 361.5,-262.2099 365.491,-258.6 357.5,-262.2199 357.5,-262.2199"/>
<ellipse fill="none" stroke="#000000" cx="354.3" cy="-262.2279" rx="3.2" ry="3.2"/>
</g>
</g>
</svg>
