<?xml version="1.0" encoding="UTF-8" standalone="no"?>
<!DOCTYPE svg PUBLIC "-//W3C//DTD SVG 1.1//EN"
 "http://www.w3.org/Graphics/SVG/1.1/DTD/svg11.dtd">
<!-- Generated by graphviz version 2.40.1 (20161225.0304)
 -->
<!-- Title: twoDegreesRelationshipsDiagram Pages: 1 -->
<svg width="953pt" height="415pt"
 viewBox="0.00 0.00 953.00 415.20" xmlns="http://www.w3.org/2000/svg" xmlns:xlink="http://www.w3.org/1999/xlink">
<g id="graph0" class="graph" transform="scale(1 1) rotate(0) translate(4 411.2)">
<title>twoDegreesRelationshipsDiagram</title>
<polygon fill="#ffffff" stroke="transparent" points="-4,4 -4,-411.2 949,-411.2 949,4 -4,4"/>
<text text-anchor="middle" x="72.4936" y="-7.3" font-family="Helvetica,sans-Serif" font-size="11.00" fill="#000000">Generated by SchemaSpy</text>
<!-- SCREENING_CONDITIONS -->
<g id="node1" class="node">
<title>SCREENING_CONDITIONS</title>
<g id="a_node1"><a xlink:href="../../tables/SCREENING_CONDITIONS.html" xlink:title="SCREENING_CONDITIONS" target="_top">
<polygon fill="#ffffff" stroke="transparent" points="361,-90.2 361,-261.2 599,-261.2 599,-90.2 361,-90.2"/>
<polygon fill="#f5f5f5" stroke="transparent" points="361,-237.7 361,-260.7 599,-260.7 599,-237.7 361,-237.7"/>
<polygon fill="none" stroke="#000000" points="361,-237.7 361,-260.7 599,-260.7 599,-237.7 361,-237.7"/>
<text text-anchor="start" x="366" y="-246.8" font-family="Helvetica,sans-Serif" font-weight="bold" font-size="11.00" fill="#000000">SCREENING_CONDITIONS</text>
<text text-anchor="start" x="564.0437" y="-245.8" font-family="Helvetica,sans-Serif" font-size="11.00" fill="#000000">[table]</text>
<polygon fill="none" stroke="#000000" points="361,-215.7 361,-237.7 599,-237.7 599,-215.7 361,-215.7"/>
<image xlink:href="../../images/primaryKeys.png" width="11px" height="12px" preserveAspectRatio="xMinYMin meet" x="366" y="-232.7"/>
<text text-anchor="start" x="381" y="-222.8" font-family="Helvetica,sans-Serif" font-size="11.00" fill="#000000">ID</text>
<polygon fill="none" stroke="#000000" points="361,-193.7 361,-215.7 599,-215.7 599,-193.7 361,-193.7"/>
<image xlink:href="../../images/foreignKeys.png" width="11px" height="12px" preserveAspectRatio="xMinYMin meet" x="366" y="-210.7"/>
<text text-anchor="start" x="381" y="-200.8" font-family="Helvetica,sans-Serif" font-size="11.00" fill="#000000">DEL_LIBRARY_ID</text>
<polygon fill="none" stroke="#000000" points="361,-171.7 361,-193.7 599,-193.7 599,-171.7 361,-171.7"/>
<image xlink:href="../../images/foreignKeys.png" width="11px" height="12px" preserveAspectRatio="xMinYMin meet" x="366" y="-188.7"/>
<text text-anchor="start" x="381" y="-178.8" font-family="Helvetica,sans-Serif" font-size="11.00" fill="#000000">SCREEN_MODE_ID</text>
<polygon fill="none" stroke="#000000" points="361,-149.7 361,-171.7 599,-171.7 599,-149.7 361,-149.7"/>
<image xlink:href="../../images/foreignKeys.png" width="11px" height="12px" preserveAspectRatio="xMinYMin meet" x="366" y="-166.7"/>
<text text-anchor="start" x="381" y="-156.8" font-family="Helvetica,sans-Serif" font-size="11.00" fill="#000000">TEMPLATE_REFERENCE_ID</text>
<polygon fill="none" stroke="#000000" points="361,-127.7 361,-149.7 599,-149.7 599,-127.7 361,-127.7"/>
<image xlink:href="../../images/foreignKeys.png" width="11px" height="12px" preserveAspectRatio="xMinYMin meet" x="366" y="-144.7"/>
<text text-anchor="start" x="381" y="-134.8" font-family="Helvetica,sans-Serif" font-size="11.00" fill="#000000">TEMPLATE_DATA_REFERENCE_ID</text>
<polygon fill="none" stroke="#000000" points="361,-108.7 361,-127.7 599,-127.7 599,-108.7 361,-108.7"/>
<text text-anchor="start" x="364" y="-114.8" font-family="Helvetica,sans-Serif" font-size="11.00" fill="#000000">...</text>
<polygon fill="#ffffff" stroke="transparent" points="361,-89.7 361,-108.7 455,-108.7 455,-89.7 361,-89.7"/>
<polygon fill="none" stroke="#000000" points="361,-89.7 361,-108.7 455,-108.7 455,-89.7 361,-89.7"/>
<text text-anchor="start" x="364" y="-95.8" font-family="Helvetica,sans-Serif" font-size="11.00" fill="#000000">&lt; 4</text>
<polygon fill="#ffffff" stroke="transparent" points="455,-89.7 455,-108.7 541,-108.7 541,-89.7 455,-89.7"/>
<polygon fill="none" stroke="#000000" points="455,-89.7 455,-108.7 541,-108.7 541,-89.7 455,-89.7"/>
<text text-anchor="start" x="493.3807" y="-95.8" font-family="Helvetica,sans-Serif" font-size="11.00" fill="#000000">128 rows</text>
<polygon fill="#ffffff" stroke="transparent" points="541,-89.7 541,-108.7 599,-108.7 599,-89.7 541,-89.7"/>
<polygon fill="none" stroke="#000000" points="541,-89.7 541,-108.7 599,-108.7 599,-89.7 541,-89.7"/>
<text text-anchor="start" x="580.4053" y="-95.8" font-family="Helvetica,sans-Serif" font-size="11.00" fill="#000000">3 &gt;</text>
</a>
</g>
</g>
<!-- DEL_LIBRARIES -->
<g id="node2" class="node">
<title>DEL_LIBRARIES</title>
<g id="a_node2"><a xlink:href="../../tables/DEL_LIBRARIES.html" xlink:title="DEL_LIBRARIES" target="_top">
<polygon fill="#ffffff" stroke="transparent" points="96.5,-342.2 96.5,-403.2 223.5,-403.2 223.5,-342.2 96.5,-342.2"/>
<polygon fill="#f5f5f5" stroke="transparent" points="97,-379.7 97,-402.7 224,-402.7 224,-379.7 97,-379.7"/>
<polygon fill="none" stroke="#000000" points="97,-379.7 97,-402.7 224,-402.7 224,-379.7 97,-379.7"/>
<text text-anchor="start" x="101.5197" y="-388.8" font-family="Helvetica,sans-Serif" font-weight="bold" font-size="11.00" fill="#000000">DEL_LIBRARIES</text>
<text text-anchor="start" x="189.5219" y="-387.8" font-family="Helvetica,sans-Serif" font-size="11.00" fill="#000000">[table]</text>
<polygon fill="none" stroke="#000000" points="97,-360.7 97,-379.7 224,-379.7 224,-360.7 97,-360.7"/>
<text text-anchor="start" x="100" y="-366.8" font-family="Helvetica,sans-Serif" font-size="11.00" fill="#000000">...</text>
<polygon fill="#ffffff" stroke="transparent" points="97,-341.7 97,-360.7 134,-360.7 134,-341.7 97,-341.7"/>
<polygon fill="none" stroke="#000000" points="97,-341.7 97,-360.7 134,-360.7 134,-341.7 97,-341.7"/>
<text text-anchor="start" x="100" y="-347.8" font-family="Helvetica,sans-Serif" font-size="11.00" fill="#000000"> &#160;</text>
<polygon fill="#ffffff" stroke="transparent" points="134,-341.7 134,-360.7 190,-360.7 190,-341.7 134,-341.7"/>
<polygon fill="none" stroke="#000000" points="134,-341.7 134,-360.7 190,-360.7 190,-341.7 134,-341.7"/>
<text text-anchor="start" x="148.4956" y="-347.8" font-family="Helvetica,sans-Serif" font-size="11.00" fill="#000000">23 rows</text>
<polygon fill="#ffffff" stroke="transparent" points="190,-341.7 190,-360.7 224,-360.7 224,-341.7 190,-341.7"/>
<polygon fill="none" stroke="#000000" points="190,-341.7 190,-360.7 224,-360.7 224,-341.7 190,-341.7"/>
<text text-anchor="start" x="205.4053" y="-347.8" font-family="Helvetica,sans-Serif" font-size="11.00" fill="#000000">1 &gt;</text>
</a>
</g>
</g>
<!-- SCREENING_CONDITIONS&#45;&gt;DEL_LIBRARIES -->
<g id="edge1" class="edge">
<title>SCREENING_CONDITIONS:w&#45;&gt;DEL_LIBRARIES:e</title>
<path fill="none" stroke="#000000" d="M346.3574,-207.1608C312.6206,-221.2896 356.4437,-292.8211 320,-331.7 288.6179,-365.179 269.8877,-369.7 224,-369.7"/>
<polygon fill="#000000" stroke="#000000" points="353.1106,-206.0259 361.5967,-208.2502 357.0553,-205.363 361,-204.7 361,-204.7 361,-204.7 357.0553,-205.363 360.4033,-201.1498 353.1106,-206.0259 353.1106,-206.0259"/>
<ellipse fill="none" stroke="#000000" cx="349.9549" cy="-206.5563" rx="3.2" ry="3.2"/>
</g>
<!-- SCREEN_MODES -->
<g id="node3" class="node">
<title>SCREEN_MODES</title>
<g id="a_node3"><a xlink:href="../../tables/SCREEN_MODES.html" xlink:title="SCREEN_MODES" target="_top">
<polygon fill="#ffffff" stroke="transparent" points="8,-120.7 8,-320.7 312,-320.7 312,-120.7 8,-120.7"/>
<polygon fill="#f5f5f5" stroke="transparent" points="10,-295.7 10,-318.7 310,-318.7 310,-295.7 10,-295.7"/>
<polygon fill="none" stroke="#000000" points="10,-295.7 10,-318.7 310,-318.7 310,-295.7 10,-295.7"/>
<text text-anchor="start" x="15" y="-304.8" font-family="Helvetica,sans-Serif" font-weight="bold" font-size="11.00" fill="#000000">SCREEN_MODES</text>
<text text-anchor="start" x="275.0437" y="-303.8" font-family="Helvetica,sans-Serif" font-size="11.00" fill="#000000">[table]</text>
<polygon fill="none" stroke="#000000" points="10,-273.7 10,-295.7 139,-295.7 139,-273.7 10,-273.7"/>
<image xlink:href="../../images/primaryKeys.png" width="11px" height="12px" preserveAspectRatio="xMinYMin meet" x="15" y="-290.7"/>
<text text-anchor="start" x="30" y="-280.8" font-family="Helvetica,sans-Serif" font-size="11.00" fill="#000000">ID</text>
<polygon fill="none" stroke="#000000" points="139,-273.7 139,-295.7 310,-295.7 310,-273.7 139,-273.7"/>
<text text-anchor="start" x="142" y="-281.4" font-family="Helvetica,sans-Serif" font-size="11.00" fill="#000000">number[19]</text>
<polygon fill="none" stroke="#000000" points="10,-251.7 10,-273.7 139,-273.7 139,-251.7 10,-251.7"/>
<text text-anchor="start" x="30" y="-258.8" font-family="Helvetica,sans-Serif" font-size="11.00" fill="#000000">CREATED_AT</text>
<polygon fill="none" stroke="#000000" points="139,-251.7 139,-273.7 310,-273.7 310,-251.7 139,-251.7"/>
<text text-anchor="start" x="141.9896" y="-259.4" font-family="Helvetica,sans-Serif" font-size="11.00" fill="#000000">timestamp(6) with time zone[13,6]</text>
<polygon fill="none" stroke="#000000" points="10,-229.7 10,-251.7 139,-251.7 139,-229.7 10,-229.7"/>
<text text-anchor="start" x="30" y="-236.8" font-family="Helvetica,sans-Serif" font-size="11.00" fill="#000000">CREATED_BY</text>
<polygon fill="none" stroke="#000000" points="139,-229.7 139,-251.7 310,-251.7 310,-229.7 139,-229.7"/>
<text text-anchor="start" x="142" y="-237.4" font-family="Helvetica,sans-Serif" font-size="11.00" fill="#000000">number[19]</text>
<polygon fill="none" stroke="#000000" points="10,-207.7 10,-229.7 139,-229.7 139,-207.7 10,-207.7"/>
<text text-anchor="start" x="30" y="-214.8" font-family="Helvetica,sans-Serif" font-size="11.00" fill="#000000">UPDATED_AT</text>
<polygon fill="none" stroke="#000000" points="139,-207.7 139,-229.7 310,-229.7 310,-207.7 139,-207.7"/>
<text text-anchor="start" x="141.9896" y="-215.4" font-family="Helvetica,sans-Serif" font-size="11.00" fill="#000000">timestamp(6) with time zone[13,6]</text>
<polygon fill="none" stroke="#000000" points="10,-185.7 10,-207.7 139,-207.7 139,-185.7 10,-185.7"/>
<text text-anchor="start" x="30" y="-192.8" font-family="Helvetica,sans-Serif" font-size="11.00" fill="#000000">UPDATED_BY</text>
<polygon fill="none" stroke="#000000" points="139,-185.7 139,-207.7 310,-207.7 310,-185.7 139,-185.7"/>
<text text-anchor="start" x="142" y="-193.4" font-family="Helvetica,sans-Serif" font-size="11.00" fill="#000000">number[19]</text>
<polygon fill="none" stroke="#000000" points="10,-163.7 10,-185.7 139,-185.7 139,-163.7 10,-163.7"/>
<image xlink:href="../../images/primaryKeys.png" width="11px" height="12px" preserveAspectRatio="xMinYMin meet" x="15" y="-180.7"/>
<text text-anchor="start" x="30" y="-170.8" font-family="Helvetica,sans-Serif" font-size="11.00" fill="#000000">TITLE</text>
<polygon fill="none" stroke="#000000" points="139,-163.7 139,-185.7 310,-185.7 310,-163.7 139,-163.7"/>
<text text-anchor="start" x="142" y="-171.4" font-family="Helvetica,sans-Serif" font-size="11.00" fill="#000000">varchar2[255]</text>
<polygon fill="none" stroke="#000000" points="10,-141.7 10,-163.7 139,-163.7 139,-141.7 10,-141.7"/>
<text text-anchor="start" x="30" y="-148.8" font-family="Helvetica,sans-Serif" font-size="11.00" fill="#000000">DESCRIPTION</text>
<polygon fill="none" stroke="#000000" points="139,-141.7 139,-163.7 310,-163.7 310,-141.7 139,-141.7"/>
<text text-anchor="start" x="142" y="-149.4" font-family="Helvetica,sans-Serif" font-size="11.00" fill="#000000">varchar2[4000]</text>
<polygon fill="#ffffff" stroke="transparent" points="10,-122.7 10,-141.7 63,-141.7 63,-122.7 10,-122.7"/>
<polygon fill="none" stroke="#000000" points="10,-122.7 10,-141.7 63,-141.7 63,-122.7 10,-122.7"/>
<text text-anchor="start" x="13" y="-128.8" font-family="Helvetica,sans-Serif" font-size="11.00" fill="#000000">&lt; 0</text>
<polygon fill="#ffffff" stroke="transparent" points="63,-122.7 63,-141.7 139,-141.7 139,-122.7 63,-122.7"/>
<polygon fill="none" stroke="#000000" points="63,-122.7 63,-141.7 139,-141.7 139,-122.7 63,-122.7"/>
<text text-anchor="start" x="97.4956" y="-128.8" font-family="Helvetica,sans-Serif" font-size="11.00" fill="#000000">12 rows</text>
<polygon fill="#ffffff" stroke="transparent" points="139,-122.7 139,-141.7 310,-141.7 310,-122.7 139,-122.7"/>
<polygon fill="none" stroke="#000000" points="139,-122.7 139,-141.7 310,-141.7 310,-122.7 139,-122.7"/>
<text text-anchor="start" x="291.4053" y="-128.8" font-family="Helvetica,sans-Serif" font-size="11.00" fill="#000000">1 &gt;</text>
<polygon fill="none" stroke="#000000" stroke-width="2" points="9,-121.7 9,-319.7 311,-319.7 311,-121.7 9,-121.7"/>
</a>
</g>
</g>
<!-- SCREENING_CONDITIONS&#45;&gt;SCREEN_MODES -->
<g id="edge2" class="edge">
<title>SCREENING_CONDITIONS:w&#45;&gt;SCREEN_MODES:e</title>
<path fill="none" stroke="#000000" d="M347.0193,-186.574C320.7331,-205.2055 354.7447,-284.7 310,-284.7"/>
<polygon fill="#000000" stroke="#000000" points="353.2905,-184.8363 361.9613,-186.1693 357.1452,-183.7681 361,-182.7 361,-182.7 361,-182.7 357.1452,-183.7681 360.0387,-179.2307 353.2905,-184.8363 353.2905,-184.8363"/>
<ellipse fill="none" stroke="#000000" cx="350.2067" cy="-185.6908" rx="3.2" ry="3.2"/>
</g>
<!-- REFERENCES -->
<g id="node4" class="node">
<title>REFERENCES</title>
<g id="a_node4"><a xlink:href="../../tables/REFERENCES.html" xlink:title="REFERENCES" target="_top">
<polygon fill="#ffffff" stroke="transparent" points="101,-38.2 101,-99.2 219,-99.2 219,-38.2 101,-38.2"/>
<polygon fill="#f5f5f5" stroke="transparent" points="101,-75.7 101,-98.7 219,-98.7 219,-75.7 101,-75.7"/>
<polygon fill="none" stroke="#000000" points="101,-75.7 101,-98.7 219,-98.7 219,-75.7 101,-75.7"/>
<text text-anchor="start" x="105.9185" y="-84.8" font-family="Helvetica,sans-Serif" font-weight="bold" font-size="11.00" fill="#000000">REFERENCES</text>
<text text-anchor="start" x="184.5219" y="-83.8" font-family="Helvetica,sans-Serif" font-size="11.00" fill="#000000">[table]</text>
<polygon fill="none" stroke="#000000" points="101,-56.7 101,-75.7 219,-75.7 219,-56.7 101,-56.7"/>
<text text-anchor="start" x="104" y="-62.8" font-family="Helvetica,sans-Serif" font-size="11.00" fill="#000000">...</text>
<polygon fill="#ffffff" stroke="transparent" points="101,-37.7 101,-56.7 127,-56.7 127,-37.7 101,-37.7"/>
<polygon fill="none" stroke="#000000" points="101,-37.7 101,-56.7 127,-56.7 127,-37.7 101,-37.7"/>
<text text-anchor="start" x="104" y="-43.8" font-family="Helvetica,sans-Serif" font-size="11.00" fill="#000000">&lt; 1</text>
<polygon fill="#ffffff" stroke="transparent" points="127,-37.7 127,-56.7 189,-56.7 189,-37.7 127,-37.7"/>
<polygon fill="none" stroke="#000000" points="127,-37.7 127,-56.7 189,-56.7 189,-37.7 127,-37.7"/>
<text text-anchor="start" x="132.2089" y="-43.8" font-family="Helvetica,sans-Serif" font-size="11.00" fill="#000000">2,900 rows</text>
<polygon fill="#ffffff" stroke="transparent" points="189,-37.7 189,-56.7 219,-56.7 219,-37.7 189,-37.7"/>
<polygon fill="none" stroke="#000000" points="189,-37.7 189,-56.7 219,-56.7 219,-37.7 189,-37.7"/>
<text text-anchor="start" x="194.2904" y="-43.8" font-family="Helvetica,sans-Serif" font-size="11.00" fill="#000000">20 &gt;</text>
</a>
</g>
</g>
<!-- SCREENING_CONDITIONS&#45;&gt;REFERENCES -->
<g id="edge3" class="edge">
<title>SCREENING_CONDITIONS:w&#45;&gt;REFERENCES:e</title>
<path fill="none" stroke="#000000" d="M346.9835,-135.1669C337.5871,-129.3633 334.1274,-117.6624 320,-109.7 277.3449,-85.659 267.9636,-65.7 219,-65.7"/>
<polygon fill="#000000" stroke="#000000" points="353.2426,-136.7446 360.1201,-142.1908 357.1213,-137.7223 361,-138.7 361,-138.7 361,-138.7 357.1213,-137.7223 361.8799,-135.2092 353.2426,-136.7446 353.2426,-136.7446"/>
<ellipse fill="none" stroke="#000000" cx="350.1397" cy="-135.9625" rx="3.2" ry="3.2"/>
</g>
<!-- SCREENING_CONDITIONS&#45;&gt;REFERENCES -->
<g id="edge4" class="edge">
<title>SCREENING_CONDITIONS:w&#45;&gt;REFERENCES:e</title>
<path fill="none" stroke="#000000" d="M346.9157,-156.4262C335.1734,-146.8617 338.0568,-123.4914 320,-109.7 281.088,-79.9799 267.9636,-65.7 219,-65.7"/>
<polygon fill="#000000" stroke="#000000" points="353.3447,-158.377 359.9547,-164.1449 357.1723,-159.5385 361,-160.7 361,-160.7 361,-160.7 357.1723,-159.5385 362.0453,-157.2551 353.3447,-158.377 353.3447,-158.377"/>
<ellipse fill="none" stroke="#000000" cx="350.2826" cy="-157.4478" rx="3.2" ry="3.2"/>
</g>
<!-- SCREENING_CONDITIONS_IMAGES -->
<g id="node5" class="node">
<title>SCREENING_CONDITIONS_IMAGES</title>
<g id="a_node5"><a xlink:href="../../tables/SCREENING_CONDITIONS_IMAGES.html" xlink:title="SCREENING_CONDITIONS_IMAGES" target="_top">
<polygon fill="#ffffff" stroke="transparent" points="676.5,-58.2 676.5,-119.2 908.5,-119.2 908.5,-58.2 676.5,-58.2"/>
<polygon fill="#f5f5f5" stroke="transparent" points="676.5,-95.7 676.5,-118.7 908.5,-118.7 908.5,-95.7 676.5,-95.7"/>
<polygon fill="none" stroke="#000000" points="676.5,-95.7 676.5,-118.7 908.5,-118.7 908.5,-95.7 676.5,-95.7"/>
<text text-anchor="start" x="681.2774" y="-104.8" font-family="Helvetica,sans-Serif" font-weight="bold" font-size="11.00" fill="#000000">SCREENING_CONDITIONS_IMAGES</text>
<text text-anchor="start" x="874.0219" y="-103.8" font-family="Helvetica,sans-Serif" font-size="11.00" fill="#000000">[table]</text>
<polygon fill="none" stroke="#000000" points="676.5,-76.7 676.5,-95.7 908.5,-95.7 908.5,-76.7 676.5,-76.7"/>
<text text-anchor="start" x="679.5" y="-82.8" font-family="Helvetica,sans-Serif" font-size="11.00" fill="#000000">...</text>
<polygon fill="#ffffff" stroke="transparent" points="676.5,-57.7 676.5,-76.7 771.5,-76.7 771.5,-57.7 676.5,-57.7"/>
<polygon fill="none" stroke="#000000" points="676.5,-57.7 676.5,-76.7 771.5,-76.7 771.5,-57.7 676.5,-57.7"/>
<text text-anchor="start" x="679.5" y="-63.8" font-family="Helvetica,sans-Serif" font-size="11.00" fill="#000000">&lt; 2</text>
<polygon fill="#ffffff" stroke="transparent" points="771.5,-57.7 771.5,-76.7 858.5,-76.7 858.5,-57.7 771.5,-57.7"/>
<polygon fill="none" stroke="#000000" points="771.5,-57.7 771.5,-76.7 858.5,-76.7 858.5,-57.7 771.5,-57.7"/>
<text text-anchor="start" x="810.8807" y="-63.8" font-family="Helvetica,sans-Serif" font-size="11.00" fill="#000000">680 rows</text>
<polygon fill="#ffffff" stroke="transparent" points="858.5,-57.7 858.5,-76.7 908.5,-76.7 908.5,-57.7 858.5,-57.7"/>
<polygon fill="none" stroke="#000000" points="858.5,-57.7 858.5,-76.7 908.5,-76.7 908.5,-57.7 858.5,-57.7"/>
<text text-anchor="start" x="899.3862" y="-63.8" font-family="Helvetica,sans-Serif" font-size="11.00" fill="#000000"> &#160;</text>
</a>
</g>
</g>
<!-- SCREENING_CONDITIONS_IMAGES&#45;&gt;SCREENING_CONDITIONS -->
<g id="edge6" class="edge">
<title>SCREENING_CONDITIONS_IMAGES:w&#45;&gt;SCREENING_CONDITIONS:e</title>
<path fill="none" stroke="#000000" d="M662.1184,-88.1473C614.3919,-106.8707 664.9223,-226.7 599,-226.7"/>
<polygon fill="#000000" stroke="#000000" points="668.6134,-87.0421 677.104,-89.249 672.5567,-86.3711 676.5,-85.7 676.5,-85.7 676.5,-85.7 672.5567,-86.3711 675.896,-82.151 668.6134,-87.0421 668.6134,-87.0421"/>
<ellipse fill="none" stroke="#000000" cx="665.4587" cy="-87.579" rx="3.2" ry="3.2"/>
</g>
<!-- SCREENING_CONDITIONS_IMAGES&#45;&gt;REFERENCES -->
<g id="edge5" class="edge">
<title>SCREENING_CONDITIONS_IMAGES:w&#45;&gt;REFERENCES:e</title>
<path fill="none" stroke="#000000" d="M662.07,-85.3536C642.1189,-84.3245 632.5062,-81.2602 607,-79.7 434.7652,-69.1647 391.5567,-65.7 219,-65.7"/>
<polygon fill="#000000" stroke="#000000" points="668.5023,-85.508 676.4136,-89.299 672.5012,-85.604 676.5,-85.7 676.5,-85.7 676.5,-85.7 672.5012,-85.604 676.5864,-82.101 668.5023,-85.508 668.5023,-85.508"/>
<ellipse fill="none" stroke="#000000" cx="665.3032" cy="-85.4312" rx="3.2" ry="3.2"/>
</g>
<!-- SCREENING_CONDITIONS_TRACER_LIGANDS -->
<g id="node6" class="node">
<title>SCREENING_CONDITIONS_TRACER_LIGANDS</title>
<g id="a_node6"><a xlink:href="../../tables/SCREENING_CONDITIONS_TRACER_LIGANDS.html" xlink:title="SCREENING_CONDITIONS_TRACER_LIGANDS" target="_top">
<polygon fill="#ffffff" stroke="transparent" points="648,-261.2 648,-322.2 937,-322.2 937,-261.2 648,-261.2"/>
<polygon fill="#f5f5f5" stroke="transparent" points="648.5,-298.7 648.5,-321.7 937.5,-321.7 937.5,-298.7 648.5,-298.7"/>
<polygon fill="none" stroke="#000000" points="648.5,-298.7 648.5,-321.7 937.5,-321.7 937.5,-298.7 648.5,-298.7"/>
<text text-anchor="start" x="653.3633" y="-307.8" font-family="Helvetica,sans-Serif" font-weight="bold" font-size="11.00" fill="#000000">SCREENING_CONDITIONS_TRACER_LIGANDS</text>
<text text-anchor="start" x="903.0219" y="-306.8" font-family="Helvetica,sans-Serif" font-size="11.00" fill="#000000">[table]</text>
<polygon fill="none" stroke="#000000" points="648.5,-279.7 648.5,-298.7 937.5,-298.7 937.5,-279.7 648.5,-279.7"/>
<text text-anchor="start" x="651.5" y="-285.8" font-family="Helvetica,sans-Serif" font-size="11.00" fill="#000000">...</text>
<polygon fill="#ffffff" stroke="transparent" points="648.5,-260.7 648.5,-279.7 775.5,-279.7 775.5,-260.7 648.5,-260.7"/>
<polygon fill="none" stroke="#000000" points="648.5,-260.7 648.5,-279.7 775.5,-279.7 775.5,-260.7 648.5,-260.7"/>
<text text-anchor="start" x="651.5" y="-266.8" font-family="Helvetica,sans-Serif" font-size="11.00" fill="#000000">&lt; 2</text>
<polygon fill="#ffffff" stroke="transparent" points="775.5,-260.7 775.5,-279.7 872.5,-279.7 872.5,-260.7 775.5,-260.7"/>
<polygon fill="none" stroke="#000000" points="775.5,-260.7 775.5,-279.7 872.5,-279.7 872.5,-260.7 775.5,-260.7"/>
<text text-anchor="start" x="830.9956" y="-266.8" font-family="Helvetica,sans-Serif" font-size="11.00" fill="#000000">26 rows</text>
<polygon fill="#ffffff" stroke="transparent" points="872.5,-260.7 872.5,-279.7 937.5,-279.7 937.5,-260.7 872.5,-260.7"/>
<polygon fill="none" stroke="#000000" points="872.5,-260.7 872.5,-279.7 937.5,-279.7 937.5,-260.7 872.5,-260.7"/>
<text text-anchor="start" x="928.3862" y="-266.8" font-family="Helvetica,sans-Serif" font-size="11.00" fill="#000000"> &#160;</text>
</a>
</g>
</g>
<!-- SCREENING_CONDITIONS_TRACER_LIGANDS&#45;&gt;SCREENING_CONDITIONS -->
<g id="edge7" class="edge">
<title>SCREENING_CONDITIONS_TRACER_LIGANDS:w&#45;&gt;SCREENING_CONDITIONS:e</title>
<path fill="none" stroke="#000000" d="M634.7351,-283.835C618.8028,-269.219 628.2002,-226.7 599,-226.7"/>
<polygon fill="#000000" stroke="#000000" points="640.9573,-286.0341 647.3003,-292.0942 644.7286,-287.367 648.5,-288.7 648.5,-288.7 648.5,-288.7 644.7286,-287.367 649.6997,-285.3058 640.9573,-286.0341 640.9573,-286.0341"/>
<ellipse fill="none" stroke="#000000" cx="637.9402" cy="-284.9677" rx="3.2" ry="3.2"/>
</g>
<!-- VERSIONS_PARTS_SCREENING_CONDITIONS -->
<g id="node7" class="node">
<title>VERSIONS_PARTS_SCREENING_CONDITIONS</title>
<g id="a_node7"><a xlink:href="../../tables/VERSIONS_PARTS_SCREENING_CONDITIONS.html" xlink:title="VERSIONS_PARTS_SCREENING_CONDITIONS" target="_top">
<polygon fill="#ffffff" stroke="transparent" points="648,-179.2 648,-240.2 937,-240.2 937,-179.2 648,-179.2"/>
<polygon fill="#f5f5f5" stroke="transparent" points="648.5,-216.7 648.5,-239.7 937.5,-239.7 937.5,-216.7 648.5,-216.7"/>
<polygon fill="none" stroke="#000000" points="648.5,-216.7 648.5,-239.7 937.5,-239.7 937.5,-216.7 648.5,-216.7"/>
<text text-anchor="start" x="653.3578" y="-225.8" font-family="Helvetica,sans-Serif" font-weight="bold" font-size="11.00" fill="#000000">VERSIONS_PARTS_SCREENING_CONDITIONS</text>
<text text-anchor="start" x="903.0219" y="-224.8" font-family="Helvetica,sans-Serif" font-size="11.00" fill="#000000">[table]</text>
<polygon fill="none" stroke="#000000" points="648.5,-197.7 648.5,-216.7 937.5,-216.7 937.5,-197.7 648.5,-197.7"/>
<text text-anchor="start" x="651.5" y="-203.8" font-family="Helvetica,sans-Serif" font-size="11.00" fill="#000000">...</text>
<polygon fill="#ffffff" stroke="transparent" points="648.5,-178.7 648.5,-197.7 772.5,-197.7 772.5,-178.7 648.5,-178.7"/>
<polygon fill="none" stroke="#000000" points="648.5,-178.7 648.5,-197.7 772.5,-197.7 772.5,-178.7 648.5,-178.7"/>
<text text-anchor="start" x="651.5" y="-184.8" font-family="Helvetica,sans-Serif" font-size="11.00" fill="#000000">&lt; 2</text>
<polygon fill="#ffffff" stroke="transparent" points="772.5,-178.7 772.5,-197.7 873.5,-197.7 873.5,-178.7 772.5,-178.7"/>
<polygon fill="none" stroke="#000000" points="772.5,-178.7 772.5,-197.7 873.5,-197.7 873.5,-178.7 772.5,-178.7"/>
<text text-anchor="start" x="825.8807" y="-184.8" font-family="Helvetica,sans-Serif" font-size="11.00" fill="#000000">415 rows</text>
<polygon fill="#ffffff" stroke="transparent" points="873.5,-178.7 873.5,-197.7 937.5,-197.7 937.5,-178.7 873.5,-178.7"/>
<polygon fill="none" stroke="#000000" points="873.5,-178.7 873.5,-197.7 937.5,-197.7 937.5,-178.7 873.5,-178.7"/>
<text text-anchor="start" x="928.3862" y="-184.8" font-family="Helvetica,sans-Serif" font-size="11.00" fill="#000000"> &#160;</text>
</a>
</g>
</g>
<!-- VERSIONS_PARTS_SCREENING_CONDITIONS&#45;&gt;SCREENING_CONDITIONS -->
<g id="edge8" class="edge">
<title>VERSIONS_PARTS_SCREENING_CONDITIONS:w&#45;&gt;SCREENING_CONDITIONS:e</title>
<path fill="none" stroke="#000000" d="M634.0922,-209.825C622.3948,-215.45 616.7959,-226.7 599,-226.7"/>
<polygon fill="#000000" stroke="#000000" points="640.6818,-208.3958 649.2631,-210.2182 644.5909,-207.5479 648.5,-206.7 648.5,-206.7 648.5,-206.7 644.5909,-207.5479 647.7369,-203.1818 640.6818,-208.3958 640.6818,-208.3958"/>
<ellipse fill="none" stroke="#000000" cx="637.5545" cy="-209.0741" rx="3.2" ry="3.2"/>
</g>
</g>
</svg>
