<?xml version="1.0" encoding="UTF-8" standalone="no"?>
<!DOCTYPE svg PUBLIC "-//W3C//DTD SVG 1.1//EN"
 "http://www.w3.org/Graphics/SVG/1.1/DTD/svg11.dtd">
<!-- Generated by graphviz version 2.40.1 (20161225.0304)
 -->
<!-- Title: oneDegreeRelationshipsDiagram Pages: 1 -->
<svg width="813pt" height="429pt"
 viewBox="0.00 0.00 813.00 428.70" xmlns="http://www.w3.org/2000/svg" xmlns:xlink="http://www.w3.org/1999/xlink">
<g id="graph0" class="graph" transform="scale(1 1) rotate(0) translate(4 424.7)">
<title>oneDegreeRelationshipsDiagram</title>
<polygon fill="#ffffff" stroke="transparent" points="-4,4 -4,-424.7 809,-424.7 809,4 -4,4"/>
<text text-anchor="middle" x="72.4936" y="-7.3" font-family="Helvetica,sans-Serif" font-size="11.00" fill="#000000">Generated by SchemaSpy</text>
<!-- SCREENING_CONDITIONS_TRACER_LIGANDS -->
<g id="node1" class="node">
<title>SCREENING_CONDITIONS_TRACER_LIGANDS</title>
<g id="a_node1"><a xlink:href="../../tables/SCREENING_CONDITIONS_TRACER_LIGANDS.html" xlink:title="SCREENING_CONDITIONS_TRACER_LIGANDS" target="_top">
<polygon fill="#ffffff" stroke="transparent" points="308,-194.7 308,-416.7 797,-416.7 797,-194.7 308,-194.7"/>
<polygon fill="#f5f5f5" stroke="transparent" points="310.5,-391.7 310.5,-414.7 795.5,-414.7 795.5,-391.7 310.5,-391.7"/>
<polygon fill="none" stroke="#000000" points="310.5,-391.7 310.5,-414.7 795.5,-414.7 795.5,-391.7 310.5,-391.7"/>
<text text-anchor="start" x="315.5" y="-400.8" font-family="Helvetica,sans-Serif" font-weight="bold" font-size="11.00" fill="#000000">SCREENING_CONDITIONS_TRACER_LIGANDS</text>
<text text-anchor="start" x="760.5437" y="-399.8" font-family="Helvetica,sans-Serif" font-size="11.00" fill="#000000">[table]</text>
<polygon fill="none" stroke="#000000" points="310.5,-369.7 310.5,-391.7 624.5,-391.7 624.5,-369.7 310.5,-369.7"/>
<image xlink:href="../../images/primaryKeys.png" width="11px" height="12px" preserveAspectRatio="xMinYMin meet" x="315.5" y="-386.7"/>
<text text-anchor="start" x="330.5" y="-376.8" font-family="Helvetica,sans-Serif" font-size="11.00" fill="#000000">ID</text>
<polygon fill="none" stroke="#000000" points="624.5,-369.7 624.5,-391.7 795.5,-391.7 795.5,-369.7 624.5,-369.7"/>
<text text-anchor="start" x="627.5" y="-377.4" font-family="Helvetica,sans-Serif" font-size="11.00" fill="#000000">number[19]</text>
<polygon fill="none" stroke="#000000" points="310.5,-347.7 310.5,-369.7 624.5,-369.7 624.5,-347.7 310.5,-347.7"/>
<text text-anchor="start" x="330.5" y="-354.8" font-family="Helvetica,sans-Serif" font-size="11.00" fill="#000000">CREATED_AT</text>
<polygon fill="none" stroke="#000000" points="624.5,-347.7 624.5,-369.7 795.5,-369.7 795.5,-347.7 624.5,-347.7"/>
<text text-anchor="start" x="627.4896" y="-355.4" font-family="Helvetica,sans-Serif" font-size="11.00" fill="#000000">timestamp(6) with time zone[13,6]</text>
<polygon fill="none" stroke="#000000" points="310.5,-325.7 310.5,-347.7 624.5,-347.7 624.5,-325.7 310.5,-325.7"/>
<text text-anchor="start" x="330.5" y="-332.8" font-family="Helvetica,sans-Serif" font-size="11.00" fill="#000000">CREATED_BY</text>
<polygon fill="none" stroke="#000000" points="624.5,-325.7 624.5,-347.7 795.5,-347.7 795.5,-325.7 624.5,-325.7"/>
<text text-anchor="start" x="627.5" y="-333.4" font-family="Helvetica,sans-Serif" font-size="11.00" fill="#000000">number[19]</text>
<polygon fill="none" stroke="#000000" points="310.5,-303.7 310.5,-325.7 624.5,-325.7 624.5,-303.7 310.5,-303.7"/>
<text text-anchor="start" x="330.5" y="-310.8" font-family="Helvetica,sans-Serif" font-size="11.00" fill="#000000">UPDATED_AT</text>
<polygon fill="none" stroke="#000000" points="624.5,-303.7 624.5,-325.7 795.5,-325.7 795.5,-303.7 624.5,-303.7"/>
<text text-anchor="start" x="627.4896" y="-311.4" font-family="Helvetica,sans-Serif" font-size="11.00" fill="#000000">timestamp(6) with time zone[13,6]</text>
<polygon fill="none" stroke="#000000" points="310.5,-281.7 310.5,-303.7 624.5,-303.7 624.5,-281.7 310.5,-281.7"/>
<text text-anchor="start" x="330.5" y="-288.8" font-family="Helvetica,sans-Serif" font-size="11.00" fill="#000000">UPDATED_BY</text>
<polygon fill="none" stroke="#000000" points="624.5,-281.7 624.5,-303.7 795.5,-303.7 795.5,-281.7 624.5,-281.7"/>
<text text-anchor="start" x="627.5" y="-289.4" font-family="Helvetica,sans-Serif" font-size="11.00" fill="#000000">number[19]</text>
<polygon fill="none" stroke="#000000" points="310.5,-259.7 310.5,-281.7 624.5,-281.7 624.5,-259.7 310.5,-259.7"/>
<image xlink:href="../../images/foreignKeys.png" width="11px" height="12px" preserveAspectRatio="xMinYMin meet" x="315.5" y="-276.7"/>
<text text-anchor="start" x="330.5" y="-266.8" font-family="Helvetica,sans-Serif" font-size="11.00" fill="#000000">TRACER_LIGAND_ID</text>
<polygon fill="none" stroke="#000000" points="624.5,-259.7 624.5,-281.7 795.5,-281.7 795.5,-259.7 624.5,-259.7"/>
<text text-anchor="start" x="627.5" y="-267.4" font-family="Helvetica,sans-Serif" font-size="11.00" fill="#000000">number[19]</text>
<polygon fill="none" stroke="#000000" points="310.5,-237.7 310.5,-259.7 624.5,-259.7 624.5,-237.7 310.5,-237.7"/>
<image xlink:href="../../images/foreignKeys.png" width="11px" height="12px" preserveAspectRatio="xMinYMin meet" x="315.5" y="-254.7"/>
<text text-anchor="start" x="330.5" y="-244.8" font-family="Helvetica,sans-Serif" font-size="11.00" fill="#000000">SCREENING_CONDITION_ID</text>
<polygon fill="none" stroke="#000000" points="624.5,-237.7 624.5,-259.7 795.5,-259.7 795.5,-237.7 624.5,-237.7"/>
<text text-anchor="start" x="627.5" y="-245.4" font-family="Helvetica,sans-Serif" font-size="11.00" fill="#000000">number[19]</text>
<polygon fill="none" stroke="#000000" points="310.5,-215.7 310.5,-237.7 624.5,-237.7 624.5,-215.7 310.5,-215.7"/>
<text text-anchor="start" x="330.5" y="-222.8" font-family="Helvetica,sans-Serif" font-size="11.00" fill="#000000">NUMBER_OF_MOLECULES</text>
<polygon fill="none" stroke="#000000" points="624.5,-215.7 624.5,-237.7 795.5,-237.7 795.5,-215.7 624.5,-215.7"/>
<text text-anchor="start" x="627.5" y="-223.4" font-family="Helvetica,sans-Serif" font-size="11.00" fill="#000000">number[21,2]</text>
<polygon fill="#ffffff" stroke="transparent" points="310.5,-196.7 310.5,-215.7 455.5,-215.7 455.5,-196.7 310.5,-196.7"/>
<polygon fill="none" stroke="#000000" points="310.5,-196.7 310.5,-215.7 455.5,-215.7 455.5,-196.7 310.5,-196.7"/>
<text text-anchor="start" x="313.5" y="-202.8" font-family="Helvetica,sans-Serif" font-size="11.00" fill="#000000">&lt; 2</text>
<polygon fill="#ffffff" stroke="transparent" points="455.5,-196.7 455.5,-215.7 624.5,-215.7 624.5,-196.7 455.5,-196.7"/>
<polygon fill="none" stroke="#000000" points="455.5,-196.7 455.5,-215.7 624.5,-215.7 624.5,-196.7 455.5,-196.7"/>
<text text-anchor="start" x="582.9956" y="-202.8" font-family="Helvetica,sans-Serif" font-size="11.00" fill="#000000">26 rows</text>
<polygon fill="#ffffff" stroke="transparent" points="624.5,-196.7 624.5,-215.7 795.5,-215.7 795.5,-196.7 624.5,-196.7"/>
<polygon fill="none" stroke="#000000" points="624.5,-196.7 624.5,-215.7 795.5,-215.7 795.5,-196.7 624.5,-196.7"/>
<text text-anchor="start" x="776.9053" y="-202.8" font-family="Helvetica,sans-Serif" font-size="11.00" fill="#000000">0 &gt;</text>
<polygon fill="none" stroke="#000000" stroke-width="2" points="309,-195.7 309,-415.7 796,-415.7 796,-195.7 309,-195.7"/>
</a>
</g>
</g>
<!-- SCREENING_CONDITIONS -->
<g id="node2" class="node">
<title>SCREENING_CONDITIONS</title>
<g id="a_node2"><a xlink:href="../../tables/SCREENING_CONDITIONS.html" xlink:title="SCREENING_CONDITIONS" target="_top">
<polygon fill="#ffffff" stroke="transparent" points="14.5,-38.2 14.5,-209.2 252.5,-209.2 252.5,-38.2 14.5,-38.2"/>
<polygon fill="#f5f5f5" stroke="transparent" points="14.5,-185.7 14.5,-208.7 252.5,-208.7 252.5,-185.7 14.5,-185.7"/>
<polygon fill="none" stroke="#000000" points="14.5,-185.7 14.5,-208.7 252.5,-208.7 252.5,-185.7 14.5,-185.7"/>
<text text-anchor="start" x="19.5" y="-194.8" font-family="Helvetica,sans-Serif" font-weight="bold" font-size="11.00" fill="#000000">SCREENING_CONDITIONS</text>
<text text-anchor="start" x="217.5437" y="-193.8" font-family="Helvetica,sans-Serif" font-size="11.00" fill="#000000">[table]</text>
<polygon fill="none" stroke="#000000" points="14.5,-163.7 14.5,-185.7 252.5,-185.7 252.5,-163.7 14.5,-163.7"/>
<image xlink:href="../../images/primaryKeys.png" width="11px" height="12px" preserveAspectRatio="xMinYMin meet" x="19.5" y="-180.7"/>
<text text-anchor="start" x="34.5" y="-170.8" font-family="Helvetica,sans-Serif" font-size="11.00" fill="#000000">ID</text>
<polygon fill="none" stroke="#000000" points="14.5,-141.7 14.5,-163.7 252.5,-163.7 252.5,-141.7 14.5,-141.7"/>
<image xlink:href="../../images/foreignKeys.png" width="11px" height="12px" preserveAspectRatio="xMinYMin meet" x="19.5" y="-158.7"/>
<text text-anchor="start" x="34.5" y="-148.8" font-family="Helvetica,sans-Serif" font-size="11.00" fill="#000000">DEL_LIBRARY_ID</text>
<polygon fill="none" stroke="#000000" points="14.5,-119.7 14.5,-141.7 252.5,-141.7 252.5,-119.7 14.5,-119.7"/>
<image xlink:href="../../images/foreignKeys.png" width="11px" height="12px" preserveAspectRatio="xMinYMin meet" x="19.5" y="-136.7"/>
<text text-anchor="start" x="34.5" y="-126.8" font-family="Helvetica,sans-Serif" font-size="11.00" fill="#000000">SCREEN_MODE_ID</text>
<polygon fill="none" stroke="#000000" points="14.5,-97.7 14.5,-119.7 252.5,-119.7 252.5,-97.7 14.5,-97.7"/>
<image xlink:href="../../images/foreignKeys.png" width="11px" height="12px" preserveAspectRatio="xMinYMin meet" x="19.5" y="-114.7"/>
<text text-anchor="start" x="34.5" y="-104.8" font-family="Helvetica,sans-Serif" font-size="11.00" fill="#000000">TEMPLATE_REFERENCE_ID</text>
<polygon fill="none" stroke="#000000" points="14.5,-75.7 14.5,-97.7 252.5,-97.7 252.5,-75.7 14.5,-75.7"/>
<image xlink:href="../../images/foreignKeys.png" width="11px" height="12px" preserveAspectRatio="xMinYMin meet" x="19.5" y="-92.7"/>
<text text-anchor="start" x="34.5" y="-82.8" font-family="Helvetica,sans-Serif" font-size="11.00" fill="#000000">TEMPLATE_DATA_REFERENCE_ID</text>
<polygon fill="none" stroke="#000000" points="14.5,-56.7 14.5,-75.7 252.5,-75.7 252.5,-56.7 14.5,-56.7"/>
<text text-anchor="start" x="17.5" y="-62.8" font-family="Helvetica,sans-Serif" font-size="11.00" fill="#000000">...</text>
<polygon fill="#ffffff" stroke="transparent" points="14.5,-37.7 14.5,-56.7 108.5,-56.7 108.5,-37.7 14.5,-37.7"/>
<polygon fill="none" stroke="#000000" points="14.5,-37.7 14.5,-56.7 108.5,-56.7 108.5,-37.7 14.5,-37.7"/>
<text text-anchor="start" x="17.5" y="-43.8" font-family="Helvetica,sans-Serif" font-size="11.00" fill="#000000">&lt; 4</text>
<polygon fill="#ffffff" stroke="transparent" points="108.5,-37.7 108.5,-56.7 194.5,-56.7 194.5,-37.7 108.5,-37.7"/>
<polygon fill="none" stroke="#000000" points="108.5,-37.7 108.5,-56.7 194.5,-56.7 194.5,-37.7 108.5,-37.7"/>
<text text-anchor="start" x="146.8807" y="-43.8" font-family="Helvetica,sans-Serif" font-size="11.00" fill="#000000">128 rows</text>
<polygon fill="#ffffff" stroke="transparent" points="194.5,-37.7 194.5,-56.7 252.5,-56.7 252.5,-37.7 194.5,-37.7"/>
<polygon fill="none" stroke="#000000" points="194.5,-37.7 194.5,-56.7 252.5,-56.7 252.5,-37.7 194.5,-37.7"/>
<text text-anchor="start" x="233.9053" y="-43.8" font-family="Helvetica,sans-Serif" font-size="11.00" fill="#000000">3 &gt;</text>
</a>
</g>
</g>
<!-- SCREENING_CONDITIONS_TRACER_LIGANDS&#45;&gt;SCREENING_CONDITIONS -->
<g id="edge1" class="edge">
<title>SCREENING_CONDITIONS_TRACER_LIGANDS:w&#45;&gt;SCREENING_CONDITIONS:e</title>
<path fill="none" stroke="#000000" d="M296.4927,-244.7214C274.5735,-229.3509 288.4109,-174.7 252.5,-174.7"/>
<polygon fill="#000000" stroke="#000000" points="302.8044,-246.5141 309.5164,-252.163 306.6522,-247.6071 310.5,-248.7 310.5,-248.7 310.5,-248.7 306.6522,-247.6071 311.4836,-245.237 302.8044,-246.5141 302.8044,-246.5141"/>
<ellipse fill="none" stroke="#000000" cx="299.7262" cy="-245.6398" rx="3.2" ry="3.2"/>
</g>
<!-- TRACER_LIGANDS -->
<g id="node3" class="node">
<title>TRACER_LIGANDS</title>
<g id="a_node3"><a xlink:href="../../tables/TRACER_LIGANDS.html" xlink:title="TRACER_LIGANDS" target="_top">
<polygon fill="#ffffff" stroke="transparent" points="8,-230.2 8,-379.2 259,-379.2 259,-230.2 8,-230.2"/>
<polygon fill="#f5f5f5" stroke="transparent" points="8.5,-355.7 8.5,-378.7 259.5,-378.7 259.5,-355.7 8.5,-355.7"/>
<polygon fill="none" stroke="#000000" points="8.5,-355.7 8.5,-378.7 259.5,-378.7 259.5,-355.7 8.5,-355.7"/>
<text text-anchor="start" x="13.5" y="-364.8" font-family="Helvetica,sans-Serif" font-weight="bold" font-size="11.00" fill="#000000">TRACER_LIGANDS</text>
<text text-anchor="start" x="224.5437" y="-363.8" font-family="Helvetica,sans-Serif" font-size="11.00" fill="#000000">[table]</text>
<polygon fill="none" stroke="#000000" points="8.5,-333.7 8.5,-355.7 259.5,-355.7 259.5,-333.7 8.5,-333.7"/>
<image xlink:href="../../images/primaryKeys.png" width="11px" height="12px" preserveAspectRatio="xMinYMin meet" x="13.5" y="-350.7"/>
<text text-anchor="start" x="28.5" y="-340.8" font-family="Helvetica,sans-Serif" font-size="11.00" fill="#000000">ID</text>
<polygon fill="none" stroke="#000000" points="8.5,-311.7 8.5,-333.7 259.5,-333.7 259.5,-311.7 8.5,-311.7"/>
<image xlink:href="../../images/foreignKeys.png" width="11px" height="12px" preserveAspectRatio="xMinYMin meet" x="13.5" y="-328.7"/>
<text text-anchor="start" x="28.5" y="-318.8" font-family="Helvetica,sans-Serif" font-size="11.00" fill="#000000">TYPE_ID</text>
<polygon fill="none" stroke="#000000" points="8.5,-289.7 8.5,-311.7 259.5,-311.7 259.5,-289.7 8.5,-289.7"/>
<image xlink:href="../../images/foreignKeys.png" width="11px" height="12px" preserveAspectRatio="xMinYMin meet" x="13.5" y="-306.7"/>
<text text-anchor="start" x="28.5" y="-296.8" font-family="Helvetica,sans-Serif" font-size="11.00" fill="#000000">TRACER_SYNTHESIS_SCIENTIST_ID</text>
<polygon fill="none" stroke="#000000" points="8.5,-267.7 8.5,-289.7 259.5,-289.7 259.5,-267.7 8.5,-267.7"/>
<image xlink:href="../../images/foreignKeys.png" width="11px" height="12px" preserveAspectRatio="xMinYMin meet" x="13.5" y="-284.7"/>
<text text-anchor="start" x="28.5" y="-274.8" font-family="Helvetica,sans-Serif" font-size="11.00" fill="#000000">DNA_ATTACHMENT_SITE_ID</text>
<polygon fill="none" stroke="#000000" points="8.5,-248.7 8.5,-267.7 259.5,-267.7 259.5,-248.7 8.5,-248.7"/>
<text text-anchor="start" x="11.5" y="-254.8" font-family="Helvetica,sans-Serif" font-size="11.00" fill="#000000">...</text>
<polygon fill="#ffffff" stroke="transparent" points="8.5,-229.7 8.5,-248.7 108.5,-248.7 108.5,-229.7 8.5,-229.7"/>
<polygon fill="none" stroke="#000000" points="8.5,-229.7 8.5,-248.7 108.5,-248.7 108.5,-229.7 8.5,-229.7"/>
<text text-anchor="start" x="11.5" y="-235.8" font-family="Helvetica,sans-Serif" font-size="11.00" fill="#000000">&lt; 3</text>
<polygon fill="#ffffff" stroke="transparent" points="108.5,-229.7 108.5,-248.7 198.5,-248.7 198.5,-229.7 108.5,-229.7"/>
<polygon fill="none" stroke="#000000" points="108.5,-229.7 108.5,-248.7 198.5,-248.7 198.5,-229.7 108.5,-229.7"/>
<text text-anchor="start" x="150.8807" y="-235.8" font-family="Helvetica,sans-Serif" font-size="11.00" fill="#000000">416 rows</text>
<polygon fill="#ffffff" stroke="transparent" points="198.5,-229.7 198.5,-248.7 259.5,-248.7 259.5,-229.7 198.5,-229.7"/>
<polygon fill="none" stroke="#000000" points="198.5,-229.7 198.5,-248.7 259.5,-248.7 259.5,-229.7 198.5,-229.7"/>
<text text-anchor="start" x="240.9053" y="-235.8" font-family="Helvetica,sans-Serif" font-size="11.00" fill="#000000">7 &gt;</text>
</a>
</g>
</g>
<!-- SCREENING_CONDITIONS_TRACER_LIGANDS&#45;&gt;TRACER_LIGANDS -->
<g id="edge2" class="edge">
<title>SCREENING_CONDITIONS_TRACER_LIGANDS:w&#45;&gt;TRACER_LIGANDS:e</title>
<path fill="none" stroke="#000000" d="M296.5503,-275.329C277.7607,-291.5294 293.3581,-344.7 259.5,-344.7"/>
<polygon fill="#000000" stroke="#000000" points="302.9071,-273.2196 311.6338,-274.1168 306.7036,-271.9598 310.5,-270.7 310.5,-270.7 310.5,-270.7 306.7036,-271.9598 309.3662,-267.2832 302.9071,-273.2196 302.9071,-273.2196"/>
<ellipse fill="none" stroke="#000000" cx="299.87" cy="-274.2275" rx="3.2" ry="3.2"/>
</g>
</g>
</svg>
