<?xml version="1.0" encoding="UTF-8" standalone="no"?>
<!DOCTYPE svg PUBLIC "-//W3C//DTD SVG 1.1//EN"
 "http://www.w3.org/Graphics/SVG/1.1/DTD/svg11.dtd">
<!-- Generated by graphviz version 2.40.1 (20161225.0304)
 -->
<!-- Title: oneDegreeRelationshipsDiagram Pages: 1 -->
<svg width="984pt" height="552pt"
 viewBox="0.00 0.00 984.00 552.20" xmlns="http://www.w3.org/2000/svg" xmlns:xlink="http://www.w3.org/1999/xlink">
<g id="graph0" class="graph" transform="scale(1 1) rotate(0) translate(4 548.2)">
<title>oneDegreeRelationshipsDiagram</title>
<polygon fill="#ffffff" stroke="transparent" points="-4,4 -4,-548.2 980,-548.2 980,4 -4,4"/>
<text text-anchor="middle" x="72.4936" y="-7.3" font-family="Helvetica,sans-Serif" font-size="11.00" fill="#000000">Generated by SchemaSpy</text>
<!-- SCREENING_CONDITIONS -->
<g id="node1" class="node">
<title>SCREENING_CONDITIONS</title>
<g id="a_node1"><a xlink:href="../../tables/SCREENING_CONDITIONS.html" xlink:title="SCREENING_CONDITIONS" target="_top">
<polygon fill="#ffffff" stroke="transparent" points="192,-132.7 192,-376.7 605,-376.7 605,-132.7 192,-132.7"/>
<polygon fill="#f5f5f5" stroke="transparent" points="194.5,-351.7 194.5,-374.7 603.5,-374.7 603.5,-351.7 194.5,-351.7"/>
<polygon fill="none" stroke="#000000" points="194.5,-351.7 194.5,-374.7 603.5,-374.7 603.5,-351.7 194.5,-351.7"/>
<text text-anchor="start" x="199.5" y="-360.8" font-family="Helvetica,sans-Serif" font-weight="bold" font-size="11.00" fill="#000000">SCREENING_CONDITIONS</text>
<text text-anchor="start" x="568.5437" y="-359.8" font-family="Helvetica,sans-Serif" font-size="11.00" fill="#000000">[table]</text>
<polygon fill="none" stroke="#000000" points="194.5,-329.7 194.5,-351.7 432.5,-351.7 432.5,-329.7 194.5,-329.7"/>
<image xlink:href="../../images/primaryKeys.png" width="11px" height="12px" preserveAspectRatio="xMinYMin meet" x="199.5" y="-346.7"/>
<text text-anchor="start" x="214.5" y="-336.8" font-family="Helvetica,sans-Serif" font-size="11.00" fill="#000000">ID</text>
<polygon fill="none" stroke="#000000" points="432.5,-329.7 432.5,-351.7 603.5,-351.7 603.5,-329.7 432.5,-329.7"/>
<text text-anchor="start" x="435.5" y="-337.4" font-family="Helvetica,sans-Serif" font-size="11.00" fill="#000000">number[19]</text>
<polygon fill="none" stroke="#000000" points="194.5,-307.7 194.5,-329.7 432.5,-329.7 432.5,-307.7 194.5,-307.7"/>
<text text-anchor="start" x="214.5" y="-314.8" font-family="Helvetica,sans-Serif" font-size="11.00" fill="#000000">CREATED_AT</text>
<polygon fill="none" stroke="#000000" points="432.5,-307.7 432.5,-329.7 603.5,-329.7 603.5,-307.7 432.5,-307.7"/>
<text text-anchor="start" x="435.4896" y="-315.4" font-family="Helvetica,sans-Serif" font-size="11.00" fill="#000000">timestamp(6) with time zone[13,6]</text>
<polygon fill="none" stroke="#000000" points="194.5,-285.7 194.5,-307.7 432.5,-307.7 432.5,-285.7 194.5,-285.7"/>
<text text-anchor="start" x="214.5" y="-292.8" font-family="Helvetica,sans-Serif" font-size="11.00" fill="#000000">CREATED_BY</text>
<polygon fill="none" stroke="#000000" points="432.5,-285.7 432.5,-307.7 603.5,-307.7 603.5,-285.7 432.5,-285.7"/>
<text text-anchor="start" x="435.5" y="-293.4" font-family="Helvetica,sans-Serif" font-size="11.00" fill="#000000">number[19]</text>
<polygon fill="none" stroke="#000000" points="194.5,-263.7 194.5,-285.7 432.5,-285.7 432.5,-263.7 194.5,-263.7"/>
<text text-anchor="start" x="214.5" y="-270.8" font-family="Helvetica,sans-Serif" font-size="11.00" fill="#000000">UPDATED_AT</text>
<polygon fill="none" stroke="#000000" points="432.5,-263.7 432.5,-285.7 603.5,-285.7 603.5,-263.7 432.5,-263.7"/>
<text text-anchor="start" x="435.4896" y="-271.4" font-family="Helvetica,sans-Serif" font-size="11.00" fill="#000000">timestamp(6) with time zone[13,6]</text>
<polygon fill="none" stroke="#000000" points="194.5,-241.7 194.5,-263.7 432.5,-263.7 432.5,-241.7 194.5,-241.7"/>
<text text-anchor="start" x="214.5" y="-248.8" font-family="Helvetica,sans-Serif" font-size="11.00" fill="#000000">UPDATED_BY</text>
<polygon fill="none" stroke="#000000" points="432.5,-241.7 432.5,-263.7 603.5,-263.7 603.5,-241.7 432.5,-241.7"/>
<text text-anchor="start" x="435.5" y="-249.4" font-family="Helvetica,sans-Serif" font-size="11.00" fill="#000000">number[19]</text>
<polygon fill="none" stroke="#000000" points="194.5,-219.7 194.5,-241.7 432.5,-241.7 432.5,-219.7 194.5,-219.7"/>
<image xlink:href="../../images/foreignKeys.png" width="11px" height="12px" preserveAspectRatio="xMinYMin meet" x="199.5" y="-236.7"/>
<text text-anchor="start" x="214.5" y="-226.8" font-family="Helvetica,sans-Serif" font-size="11.00" fill="#000000">DEL_LIBRARY_ID</text>
<polygon fill="none" stroke="#000000" points="432.5,-219.7 432.5,-241.7 603.5,-241.7 603.5,-219.7 432.5,-219.7"/>
<text text-anchor="start" x="435.5" y="-227.4" font-family="Helvetica,sans-Serif" font-size="11.00" fill="#000000">number[19]</text>
<polygon fill="none" stroke="#000000" points="194.5,-197.7 194.5,-219.7 432.5,-219.7 432.5,-197.7 194.5,-197.7"/>
<image xlink:href="../../images/foreignKeys.png" width="11px" height="12px" preserveAspectRatio="xMinYMin meet" x="199.5" y="-214.7"/>
<text text-anchor="start" x="214.5" y="-204.8" font-family="Helvetica,sans-Serif" font-size="11.00" fill="#000000">SCREEN_MODE_ID</text>
<polygon fill="none" stroke="#000000" points="432.5,-197.7 432.5,-219.7 603.5,-219.7 603.5,-197.7 432.5,-197.7"/>
<text text-anchor="start" x="435.5" y="-205.4" font-family="Helvetica,sans-Serif" font-size="11.00" fill="#000000">number[19]</text>
<polygon fill="none" stroke="#000000" points="194.5,-175.7 194.5,-197.7 432.5,-197.7 432.5,-175.7 194.5,-175.7"/>
<image xlink:href="../../images/foreignKeys.png" width="11px" height="12px" preserveAspectRatio="xMinYMin meet" x="199.5" y="-192.7"/>
<text text-anchor="start" x="214.5" y="-182.8" font-family="Helvetica,sans-Serif" font-size="11.00" fill="#000000">TEMPLATE_REFERENCE_ID</text>
<polygon fill="none" stroke="#000000" points="432.5,-175.7 432.5,-197.7 603.5,-197.7 603.5,-175.7 432.5,-175.7"/>
<text text-anchor="start" x="435.5" y="-183.4" font-family="Helvetica,sans-Serif" font-size="11.00" fill="#000000">number[19]</text>
<polygon fill="none" stroke="#000000" points="194.5,-153.7 194.5,-175.7 432.5,-175.7 432.5,-153.7 194.5,-153.7"/>
<image xlink:href="../../images/foreignKeys.png" width="11px" height="12px" preserveAspectRatio="xMinYMin meet" x="199.5" y="-170.7"/>
<text text-anchor="start" x="214.5" y="-160.8" font-family="Helvetica,sans-Serif" font-size="11.00" fill="#000000">TEMPLATE_DATA_REFERENCE_ID</text>
<polygon fill="none" stroke="#000000" points="432.5,-153.7 432.5,-175.7 603.5,-175.7 603.5,-153.7 432.5,-153.7"/>
<text text-anchor="start" x="435.5" y="-161.4" font-family="Helvetica,sans-Serif" font-size="11.00" fill="#000000">number[19]</text>
<polygon fill="#ffffff" stroke="transparent" points="194.5,-134.7 194.5,-153.7 298.5,-153.7 298.5,-134.7 194.5,-134.7"/>
<polygon fill="none" stroke="#000000" points="194.5,-134.7 194.5,-153.7 298.5,-153.7 298.5,-134.7 194.5,-134.7"/>
<text text-anchor="start" x="197.5" y="-140.8" font-family="Helvetica,sans-Serif" font-size="11.00" fill="#000000">&lt; 4</text>
<polygon fill="#ffffff" stroke="transparent" points="298.5,-134.7 298.5,-153.7 432.5,-153.7 432.5,-134.7 298.5,-134.7"/>
<polygon fill="none" stroke="#000000" points="298.5,-134.7 298.5,-153.7 432.5,-153.7 432.5,-134.7 298.5,-134.7"/>
<text text-anchor="start" x="384.8807" y="-140.8" font-family="Helvetica,sans-Serif" font-size="11.00" fill="#000000">128 rows</text>
<polygon fill="#ffffff" stroke="transparent" points="432.5,-134.7 432.5,-153.7 603.5,-153.7 603.5,-134.7 432.5,-134.7"/>
<polygon fill="none" stroke="#000000" points="432.5,-134.7 432.5,-153.7 603.5,-153.7 603.5,-134.7 432.5,-134.7"/>
<text text-anchor="start" x="584.9053" y="-140.8" font-family="Helvetica,sans-Serif" font-size="11.00" fill="#000000">3 &gt;</text>
<polygon fill="none" stroke="#000000" stroke-width="2" points="193,-133.7 193,-375.7 604,-375.7 604,-133.7 193,-133.7"/>
</a>
</g>
</g>
<!-- DEL_LIBRARIES -->
<g id="node2" class="node">
<title>DEL_LIBRARIES</title>
<g id="a_node2"><a xlink:href="../../tables/DEL_LIBRARIES.html" xlink:title="DEL_LIBRARIES" target="_top">
<polygon fill="#ffffff" stroke="transparent" points="12,-290.2 12,-395.2 139,-395.2 139,-290.2 12,-290.2"/>
<polygon fill="#f5f5f5" stroke="transparent" points="12.5,-371.7 12.5,-394.7 139.5,-394.7 139.5,-371.7 12.5,-371.7"/>
<polygon fill="none" stroke="#000000" points="12.5,-371.7 12.5,-394.7 139.5,-394.7 139.5,-371.7 12.5,-371.7"/>
<text text-anchor="start" x="17.0197" y="-380.8" font-family="Helvetica,sans-Serif" font-weight="bold" font-size="11.00" fill="#000000">DEL_LIBRARIES</text>
<text text-anchor="start" x="105.0219" y="-379.8" font-family="Helvetica,sans-Serif" font-size="11.00" fill="#000000">[table]</text>
<polygon fill="none" stroke="#000000" points="12.5,-349.7 12.5,-371.7 139.5,-371.7 139.5,-349.7 12.5,-349.7"/>
<image xlink:href="../../images/primaryKeys.png" width="11px" height="12px" preserveAspectRatio="xMinYMin meet" x="17.5" y="-366.7"/>
<text text-anchor="start" x="34.5" y="-356.8" font-family="Helvetica,sans-Serif" font-size="11.00" fill="#000000">ID</text>
<polygon fill="none" stroke="#000000" points="12.5,-327.7 12.5,-349.7 139.5,-349.7 139.5,-327.7 12.5,-327.7"/>
<image xlink:href="../../images/primaryKeys.png" width="11px" height="12px" preserveAspectRatio="xMinYMin meet" x="17.5" y="-344.7"/>
<text text-anchor="start" x="34.5" y="-334.8" font-family="Helvetica,sans-Serif" font-size="11.00" fill="#000000">TITLE</text>
<polygon fill="none" stroke="#000000" points="12.5,-308.7 12.5,-327.7 139.5,-327.7 139.5,-308.7 12.5,-308.7"/>
<text text-anchor="start" x="15.5" y="-314.8" font-family="Helvetica,sans-Serif" font-size="11.00" fill="#000000">...</text>
<polygon fill="#ffffff" stroke="transparent" points="12.5,-289.7 12.5,-308.7 49.5,-308.7 49.5,-289.7 12.5,-289.7"/>
<polygon fill="none" stroke="#000000" points="12.5,-289.7 12.5,-308.7 49.5,-308.7 49.5,-289.7 12.5,-289.7"/>
<text text-anchor="start" x="15.5" y="-295.8" font-family="Helvetica,sans-Serif" font-size="11.00" fill="#000000"> &#160;</text>
<polygon fill="#ffffff" stroke="transparent" points="49.5,-289.7 49.5,-308.7 105.5,-308.7 105.5,-289.7 49.5,-289.7"/>
<polygon fill="none" stroke="#000000" points="49.5,-289.7 49.5,-308.7 105.5,-308.7 105.5,-289.7 49.5,-289.7"/>
<text text-anchor="start" x="63.9956" y="-295.8" font-family="Helvetica,sans-Serif" font-size="11.00" fill="#000000">23 rows</text>
<polygon fill="#ffffff" stroke="transparent" points="105.5,-289.7 105.5,-308.7 139.5,-308.7 139.5,-289.7 105.5,-289.7"/>
<polygon fill="none" stroke="#000000" points="105.5,-289.7 105.5,-308.7 139.5,-308.7 139.5,-289.7 105.5,-289.7"/>
<text text-anchor="start" x="120.9053" y="-295.8" font-family="Helvetica,sans-Serif" font-size="11.00" fill="#000000">1 &gt;</text>
</a>
</g>
</g>
<!-- SCREENING_CONDITIONS&#45;&gt;DEL_LIBRARIES -->
<g id="edge1" class="edge">
<title>SCREENING_CONDITIONS:w&#45;&gt;DEL_LIBRARIES:e</title>
<path fill="none" stroke="#000000" d="M180.1483,-233.9135C143.8067,-253.9324 196.3545,-360.7 139.5,-360.7"/>
<polygon fill="#000000" stroke="#000000" points="186.6933,-232.448 195.2866,-234.213 190.5967,-231.574 194.5,-230.7 194.5,-230.7 194.5,-230.7 190.5967,-231.574 193.7134,-227.187 186.6933,-232.448 186.6933,-232.448"/>
<ellipse fill="none" stroke="#000000" cx="183.5706" cy="-233.1473" rx="3.2" ry="3.2"/>
</g>
<!-- SCREEN_MODES -->
<g id="node3" class="node">
<title>SCREEN_MODES</title>
<g id="a_node3"><a xlink:href="../../tables/SCREEN_MODES.html" xlink:title="SCREEN_MODES" target="_top">
<polygon fill="#ffffff" stroke="transparent" points="8,-164.2 8,-269.2 143,-269.2 143,-164.2 8,-164.2"/>
<polygon fill="#f5f5f5" stroke="transparent" points="8.5,-245.7 8.5,-268.7 143.5,-268.7 143.5,-245.7 8.5,-245.7"/>
<polygon fill="none" stroke="#000000" points="8.5,-245.7 8.5,-268.7 143.5,-268.7 143.5,-245.7 8.5,-245.7"/>
<text text-anchor="start" x="13.3616" y="-254.8" font-family="Helvetica,sans-Serif" font-weight="bold" font-size="11.00" fill="#000000">SCREEN_MODES</text>
<text text-anchor="start" x="109.0219" y="-253.8" font-family="Helvetica,sans-Serif" font-size="11.00" fill="#000000">[table]</text>
<polygon fill="none" stroke="#000000" points="8.5,-223.7 8.5,-245.7 143.5,-245.7 143.5,-223.7 8.5,-223.7"/>
<image xlink:href="../../images/primaryKeys.png" width="11px" height="12px" preserveAspectRatio="xMinYMin meet" x="13.5" y="-240.7"/>
<text text-anchor="start" x="31.5" y="-230.8" font-family="Helvetica,sans-Serif" font-size="11.00" fill="#000000">ID</text>
<polygon fill="none" stroke="#000000" points="8.5,-201.7 8.5,-223.7 143.5,-223.7 143.5,-201.7 8.5,-201.7"/>
<image xlink:href="../../images/primaryKeys.png" width="11px" height="12px" preserveAspectRatio="xMinYMin meet" x="13.5" y="-218.7"/>
<text text-anchor="start" x="31.5" y="-208.8" font-family="Helvetica,sans-Serif" font-size="11.00" fill="#000000">TITLE</text>
<polygon fill="none" stroke="#000000" points="8.5,-182.7 8.5,-201.7 143.5,-201.7 143.5,-182.7 8.5,-182.7"/>
<text text-anchor="start" x="11.5" y="-188.8" font-family="Helvetica,sans-Serif" font-size="11.00" fill="#000000">...</text>
<polygon fill="#ffffff" stroke="transparent" points="8.5,-163.7 8.5,-182.7 49.5,-182.7 49.5,-163.7 8.5,-163.7"/>
<polygon fill="none" stroke="#000000" points="8.5,-163.7 8.5,-182.7 49.5,-182.7 49.5,-163.7 8.5,-163.7"/>
<text text-anchor="start" x="11.5" y="-169.8" font-family="Helvetica,sans-Serif" font-size="11.00" fill="#000000"> &#160;</text>
<polygon fill="#ffffff" stroke="transparent" points="49.5,-163.7 49.5,-182.7 107.5,-182.7 107.5,-163.7 49.5,-163.7"/>
<polygon fill="none" stroke="#000000" points="49.5,-163.7 49.5,-182.7 107.5,-182.7 107.5,-163.7 49.5,-163.7"/>
<text text-anchor="start" x="65.9956" y="-169.8" font-family="Helvetica,sans-Serif" font-size="11.00" fill="#000000">12 rows</text>
<polygon fill="#ffffff" stroke="transparent" points="107.5,-163.7 107.5,-182.7 143.5,-182.7 143.5,-163.7 107.5,-163.7"/>
<polygon fill="none" stroke="#000000" points="107.5,-163.7 107.5,-182.7 143.5,-182.7 143.5,-163.7 107.5,-163.7"/>
<text text-anchor="start" x="124.9053" y="-169.8" font-family="Helvetica,sans-Serif" font-size="11.00" fill="#000000">1 &gt;</text>
</a>
</g>
</g>
<!-- SCREENING_CONDITIONS&#45;&gt;SCREEN_MODES -->
<g id="edge2" class="edge">
<title>SCREENING_CONDITIONS:w&#45;&gt;SCREEN_MODES:e</title>
<path fill="none" stroke="#000000" d="M180.1325,-212.3152C167.6124,-219.4593 162.9792,-234.7 143.5,-234.7"/>
<polygon fill="#000000" stroke="#000000" points="186.7418,-210.6522 195.3785,-212.1912 190.6209,-209.6761 194.5,-208.7 194.5,-208.7 194.5,-208.7 190.6209,-209.6761 193.6215,-205.2088 186.7418,-210.6522 186.7418,-210.6522"/>
<ellipse fill="none" stroke="#000000" cx="183.6386" cy="-211.433" rx="3.2" ry="3.2"/>
</g>
<!-- REFERENCES -->
<g id="node4" class="node">
<title>REFERENCES</title>
<g id="a_node4"><a xlink:href="../../tables/REFERENCES.html" xlink:title="REFERENCES" target="_top">
<polygon fill="#ffffff" stroke="transparent" points="11.5,-38.2 11.5,-143.2 139.5,-143.2 139.5,-38.2 11.5,-38.2"/>
<polygon fill="#f5f5f5" stroke="transparent" points="11.5,-119.7 11.5,-142.7 139.5,-142.7 139.5,-119.7 11.5,-119.7"/>
<polygon fill="none" stroke="#000000" points="11.5,-119.7 11.5,-142.7 139.5,-142.7 139.5,-119.7 11.5,-119.7"/>
<text text-anchor="start" x="16.5" y="-128.8" font-family="Helvetica,sans-Serif" font-weight="bold" font-size="11.00" fill="#000000">REFERENCES</text>
<text text-anchor="start" x="104.5437" y="-127.8" font-family="Helvetica,sans-Serif" font-size="11.00" fill="#000000">[table]</text>
<polygon fill="none" stroke="#000000" points="11.5,-97.7 11.5,-119.7 139.5,-119.7 139.5,-97.7 11.5,-97.7"/>
<image xlink:href="../../images/primaryKeys.png" width="11px" height="12px" preserveAspectRatio="xMinYMin meet" x="16.5" y="-114.7"/>
<text text-anchor="start" x="31.5" y="-104.8" font-family="Helvetica,sans-Serif" font-size="11.00" fill="#000000">ID</text>
<polygon fill="none" stroke="#000000" points="11.5,-75.7 11.5,-97.7 139.5,-97.7 139.5,-75.7 11.5,-75.7"/>
<image xlink:href="../../images/foreignKeys.png" width="11px" height="12px" preserveAspectRatio="xMinYMin meet" x="16.5" y="-92.7"/>
<text text-anchor="start" x="31.5" y="-82.8" font-family="Helvetica,sans-Serif" font-size="11.00" fill="#000000">USER_ID</text>
<polygon fill="none" stroke="#000000" points="11.5,-56.7 11.5,-75.7 139.5,-75.7 139.5,-56.7 11.5,-56.7"/>
<text text-anchor="start" x="14.5" y="-62.8" font-family="Helvetica,sans-Serif" font-size="11.00" fill="#000000">...</text>
<polygon fill="#ffffff" stroke="transparent" points="11.5,-37.7 11.5,-56.7 42.5,-56.7 42.5,-37.7 11.5,-37.7"/>
<polygon fill="none" stroke="#000000" points="11.5,-37.7 11.5,-56.7 42.5,-56.7 42.5,-37.7 11.5,-37.7"/>
<text text-anchor="start" x="14.5" y="-43.8" font-family="Helvetica,sans-Serif" font-size="11.00" fill="#000000">&lt; 1</text>
<polygon fill="#ffffff" stroke="transparent" points="42.5,-37.7 42.5,-56.7 106.5,-56.7 106.5,-37.7 42.5,-37.7"/>
<polygon fill="none" stroke="#000000" points="42.5,-37.7 42.5,-56.7 106.5,-56.7 106.5,-37.7 42.5,-37.7"/>
<text text-anchor="start" x="49.7089" y="-43.8" font-family="Helvetica,sans-Serif" font-size="11.00" fill="#000000">2,900 rows</text>
<polygon fill="#ffffff" stroke="transparent" points="106.5,-37.7 106.5,-56.7 139.5,-56.7 139.5,-37.7 106.5,-37.7"/>
<polygon fill="none" stroke="#000000" points="106.5,-37.7 106.5,-56.7 139.5,-56.7 139.5,-37.7 106.5,-37.7"/>
<text text-anchor="start" x="114.7904" y="-43.8" font-family="Helvetica,sans-Serif" font-size="11.00" fill="#000000">20 &gt;</text>
</a>
</g>
</g>
<!-- SCREENING_CONDITIONS&#45;&gt;REFERENCES -->
<g id="edge3" class="edge">
<title>SCREENING_CONDITIONS:w&#45;&gt;REFERENCES:e</title>
<path fill="none" stroke="#000000" d="M180.4087,-160.3058C163.2252,-147.1043 168.3894,-108.7 139.5,-108.7"/>
<polygon fill="#000000" stroke="#000000" points="186.8627,-162.3184 193.4283,-168.1368 190.6814,-163.5092 194.5,-164.7 194.5,-164.7 194.5,-164.7 190.6814,-163.5092 195.5717,-161.2632 186.8627,-162.3184 186.8627,-162.3184"/>
<ellipse fill="none" stroke="#000000" cx="183.8078" cy="-161.3657" rx="3.2" ry="3.2"/>
</g>
<!-- SCREENING_CONDITIONS&#45;&gt;REFERENCES -->
<g id="edge4" class="edge">
<title>SCREENING_CONDITIONS:w&#45;&gt;REFERENCES:e</title>
<path fill="none" stroke="#000000" d="M180.4895,-182.5064C159.0444,-166.305 175.9532,-108.7 139.5,-108.7"/>
<polygon fill="#000000" stroke="#000000" points="186.836,-184.406 193.4677,-190.1488 190.668,-185.553 194.5,-186.7 194.5,-186.7 194.5,-186.7 190.668,-185.553 195.5323,-183.2512 186.836,-184.406 186.836,-184.406"/>
<ellipse fill="none" stroke="#000000" cx="183.7703" cy="-183.4883" rx="3.2" ry="3.2"/>
</g>
<!-- SCREENING_CONDITIONS_IMAGES -->
<g id="node5" class="node">
<title>SCREENING_CONDITIONS_IMAGES</title>
<g id="a_node5"><a xlink:href="../../tables/SCREENING_CONDITIONS_IMAGES.html" xlink:title="SCREENING_CONDITIONS_IMAGES" target="_top">
<polygon fill="#ffffff" stroke="transparent" points="687.5,-64.2 687.5,-191.2 934.5,-191.2 934.5,-64.2 687.5,-64.2"/>
<polygon fill="#f5f5f5" stroke="transparent" points="688,-167.7 688,-190.7 935,-190.7 935,-167.7 688,-167.7"/>
<polygon fill="none" stroke="#000000" points="688,-167.7 688,-190.7 935,-190.7 935,-167.7 688,-167.7"/>
<text text-anchor="start" x="693" y="-176.8" font-family="Helvetica,sans-Serif" font-weight="bold" font-size="11.00" fill="#000000">SCREENING_CONDITIONS_IMAGES</text>
<text text-anchor="start" x="900.0437" y="-175.8" font-family="Helvetica,sans-Serif" font-size="11.00" fill="#000000">[table]</text>
<polygon fill="none" stroke="#000000" points="688,-145.7 688,-167.7 935,-167.7 935,-145.7 688,-145.7"/>
<image xlink:href="../../images/primaryKeys.png" width="11px" height="12px" preserveAspectRatio="xMinYMin meet" x="693" y="-162.7"/>
<text text-anchor="start" x="708" y="-152.8" font-family="Helvetica,sans-Serif" font-size="11.00" fill="#000000">ID</text>
<polygon fill="none" stroke="#000000" points="688,-123.7 688,-145.7 935,-145.7 935,-123.7 688,-123.7"/>
<image xlink:href="../../images/foreignKeys.png" width="11px" height="12px" preserveAspectRatio="xMinYMin meet" x="693" y="-140.7"/>
<text text-anchor="start" x="708" y="-130.8" font-family="Helvetica,sans-Serif" font-size="11.00" fill="#000000">IMAGE_ID</text>
<polygon fill="none" stroke="#000000" points="688,-101.7 688,-123.7 935,-123.7 935,-101.7 688,-101.7"/>
<image xlink:href="../../images/foreignKeys.png" width="11px" height="12px" preserveAspectRatio="xMinYMin meet" x="693" y="-118.7"/>
<text text-anchor="start" x="708" y="-108.8" font-family="Helvetica,sans-Serif" font-size="11.00" fill="#000000">SCREENING_CONDITION_ID</text>
<polygon fill="none" stroke="#000000" points="688,-82.7 688,-101.7 935,-101.7 935,-82.7 688,-82.7"/>
<text text-anchor="start" x="691" y="-88.8" font-family="Helvetica,sans-Serif" font-size="11.00" fill="#000000">...</text>
<polygon fill="#ffffff" stroke="transparent" points="688,-63.7 688,-82.7 791,-82.7 791,-63.7 688,-63.7"/>
<polygon fill="none" stroke="#000000" points="688,-63.7 688,-82.7 791,-82.7 791,-63.7 688,-63.7"/>
<text text-anchor="start" x="691" y="-69.8" font-family="Helvetica,sans-Serif" font-size="11.00" fill="#000000">&lt; 2</text>
<polygon fill="#ffffff" stroke="transparent" points="791,-63.7 791,-82.7 882,-82.7 882,-63.7 791,-63.7"/>
<polygon fill="none" stroke="#000000" points="791,-63.7 791,-82.7 882,-82.7 882,-63.7 791,-63.7"/>
<text text-anchor="start" x="834.3807" y="-69.8" font-family="Helvetica,sans-Serif" font-size="11.00" fill="#000000">680 rows</text>
<polygon fill="#ffffff" stroke="transparent" points="882,-63.7 882,-82.7 935,-82.7 935,-63.7 882,-63.7"/>
<polygon fill="none" stroke="#000000" points="882,-63.7 882,-82.7 935,-82.7 935,-63.7 882,-63.7"/>
<text text-anchor="start" x="925.8862" y="-69.8" font-family="Helvetica,sans-Serif" font-size="11.00" fill="#000000"> &#160;</text>
</a>
</g>
</g>
<!-- SCREENING_CONDITIONS_IMAGES&#45;&gt;SCREENING_CONDITIONS -->
<g id="edge6" class="edge">
<title>SCREENING_CONDITIONS_IMAGES:w&#45;&gt;SCREENING_CONDITIONS:e</title>
<path fill="none" stroke="#000000" d="M674.7211,-118.336C637.7027,-153.4461 652.4687,-340.7 603.5,-340.7"/>
<polygon fill="#000000" stroke="#000000" points="680.6358,-115.8256 689.4065,-116.0139 684.3179,-114.2628 688,-112.7 688,-112.7 688,-112.7 684.3179,-114.2628 686.5935,-109.3861 680.6358,-115.8256 680.6358,-115.8256"/>
<ellipse fill="none" stroke="#000000" cx="677.6902" cy="-117.0759" rx="3.2" ry="3.2"/>
</g>
<!-- SCREENING_CONDITIONS_IMAGES&#45;&gt;REFERENCES -->
<g id="edge5" class="edge">
<title>SCREENING_CONDITIONS_IMAGES:w&#45;&gt;REFERENCES:e</title>
<path fill="none" stroke="#000000" d="M673.5768,-134.0802C651.131,-132.0174 641.2254,-125.3641 613,-122.7 403.3952,-102.9163 350.0364,-108.7 139.5,-108.7"/>
<polygon fill="#000000" stroke="#000000" points="680.0074,-134.3565 687.8454,-138.2967 684.0037,-134.5282 688,-134.7 688,-134.7 688,-134.7 684.0037,-134.5282 688.1546,-131.1033 680.0074,-134.3565 680.0074,-134.3565"/>
<ellipse fill="none" stroke="#000000" cx="676.8103" cy="-134.2191" rx="3.2" ry="3.2"/>
</g>
<!-- SCREENING_CONDITIONS_TRACER_LIGANDS -->
<g id="node6" class="node">
<title>SCREENING_CONDITIONS_TRACER_LIGANDS</title>
<g id="a_node6"><a xlink:href="../../tables/SCREENING_CONDITIONS_TRACER_LIGANDS.html" xlink:title="SCREENING_CONDITIONS_TRACER_LIGANDS" target="_top">
<polygon fill="#ffffff" stroke="transparent" points="654,-265.2 654,-392.2 968,-392.2 968,-265.2 654,-265.2"/>
<polygon fill="#f5f5f5" stroke="transparent" points="654,-368.7 654,-391.7 968,-391.7 968,-368.7 654,-368.7"/>
<polygon fill="none" stroke="#000000" points="654,-368.7 654,-391.7 968,-391.7 968,-368.7 654,-368.7"/>
<text text-anchor="start" x="659" y="-377.8" font-family="Helvetica,sans-Serif" font-weight="bold" font-size="11.00" fill="#000000">SCREENING_CONDITIONS_TRACER_LIGANDS</text>
<text text-anchor="start" x="933.0437" y="-376.8" font-family="Helvetica,sans-Serif" font-size="11.00" fill="#000000">[table]</text>
<polygon fill="none" stroke="#000000" points="654,-346.7 654,-368.7 968,-368.7 968,-346.7 654,-346.7"/>
<image xlink:href="../../images/primaryKeys.png" width="11px" height="12px" preserveAspectRatio="xMinYMin meet" x="659" y="-363.7"/>
<text text-anchor="start" x="674" y="-353.8" font-family="Helvetica,sans-Serif" font-size="11.00" fill="#000000">ID</text>
<polygon fill="none" stroke="#000000" points="654,-324.7 654,-346.7 968,-346.7 968,-324.7 654,-324.7"/>
<image xlink:href="../../images/foreignKeys.png" width="11px" height="12px" preserveAspectRatio="xMinYMin meet" x="659" y="-341.7"/>
<text text-anchor="start" x="674" y="-331.8" font-family="Helvetica,sans-Serif" font-size="11.00" fill="#000000">TRACER_LIGAND_ID</text>
<polygon fill="none" stroke="#000000" points="654,-302.7 654,-324.7 968,-324.7 968,-302.7 654,-302.7"/>
<image xlink:href="../../images/foreignKeys.png" width="11px" height="12px" preserveAspectRatio="xMinYMin meet" x="659" y="-319.7"/>
<text text-anchor="start" x="674" y="-309.8" font-family="Helvetica,sans-Serif" font-size="11.00" fill="#000000">SCREENING_CONDITION_ID</text>
<polygon fill="none" stroke="#000000" points="654,-283.7 654,-302.7 968,-302.7 968,-283.7 654,-283.7"/>
<text text-anchor="start" x="657" y="-289.8" font-family="Helvetica,sans-Serif" font-size="11.00" fill="#000000">...</text>
<polygon fill="#ffffff" stroke="transparent" points="654,-264.7 654,-283.7 793,-283.7 793,-264.7 654,-264.7"/>
<polygon fill="none" stroke="#000000" points="654,-264.7 654,-283.7 793,-283.7 793,-264.7 654,-264.7"/>
<text text-anchor="start" x="657" y="-270.8" font-family="Helvetica,sans-Serif" font-size="11.00" fill="#000000">&lt; 2</text>
<polygon fill="#ffffff" stroke="transparent" points="793,-264.7 793,-283.7 896,-283.7 896,-264.7 793,-264.7"/>
<polygon fill="none" stroke="#000000" points="793,-264.7 793,-283.7 896,-283.7 896,-264.7 793,-264.7"/>
<text text-anchor="start" x="854.4956" y="-270.8" font-family="Helvetica,sans-Serif" font-size="11.00" fill="#000000">26 rows</text>
<polygon fill="#ffffff" stroke="transparent" points="896,-264.7 896,-283.7 968,-283.7 968,-264.7 896,-264.7"/>
<polygon fill="none" stroke="#000000" points="896,-264.7 896,-283.7 968,-283.7 968,-264.7 896,-264.7"/>
<text text-anchor="start" x="958.8862" y="-270.8" font-family="Helvetica,sans-Serif" font-size="11.00" fill="#000000"> &#160;</text>
</a>
</g>
</g>
<!-- SCREENING_CONDITIONS_TRACER_LIGANDS&#45;&gt;SCREENING_CONDITIONS -->
<g id="edge7" class="edge">
<title>SCREENING_CONDITIONS_TRACER_LIGANDS:w&#45;&gt;SCREENING_CONDITIONS:e</title>
<path fill="none" stroke="#000000" d="M639.6995,-317.4542C627.3173,-324.8731 622.9859,-340.7 603.5,-340.7"/>
<polygon fill="#000000" stroke="#000000" points="646.2622,-315.7314 654.9141,-317.182 650.1311,-314.7157 654,-313.7 654,-313.7 654,-313.7 650.1311,-314.7157 653.0859,-310.218 646.2622,-315.7314 646.2622,-315.7314"/>
<ellipse fill="none" stroke="#000000" cx="643.1671" cy="-316.544" rx="3.2" ry="3.2"/>
</g>
<!-- VERSIONS_PARTS_SCREENING_CONDITIONS -->
<g id="node7" class="node">
<title>VERSIONS_PARTS_SCREENING_CONDITIONS</title>
<g id="a_node7"><a xlink:href="../../tables/VERSIONS_PARTS_SCREENING_CONDITIONS.html" xlink:title="VERSIONS_PARTS_SCREENING_CONDITIONS" target="_top">
<polygon fill="#ffffff" stroke="transparent" points="654,-413.2 654,-540.2 968,-540.2 968,-413.2 654,-413.2"/>
<polygon fill="#f5f5f5" stroke="transparent" points="654,-516.7 654,-539.7 968,-539.7 968,-516.7 654,-516.7"/>
<polygon fill="none" stroke="#000000" points="654,-516.7 654,-539.7 968,-539.7 968,-516.7 654,-516.7"/>
<text text-anchor="start" x="659" y="-525.8" font-family="Helvetica,sans-Serif" font-weight="bold" font-size="11.00" fill="#000000">VERSIONS_PARTS_SCREENING_CONDITIONS</text>
<text text-anchor="start" x="933.0437" y="-524.8" font-family="Helvetica,sans-Serif" font-size="11.00" fill="#000000">[table]</text>
<polygon fill="none" stroke="#000000" points="654,-494.7 654,-516.7 968,-516.7 968,-494.7 654,-494.7"/>
<image xlink:href="../../images/primaryKeys.png" width="11px" height="12px" preserveAspectRatio="xMinYMin meet" x="659" y="-511.7"/>
<text text-anchor="start" x="674" y="-501.8" font-family="Helvetica,sans-Serif" font-size="11.00" fill="#000000">ID</text>
<polygon fill="none" stroke="#000000" points="654,-472.7 654,-494.7 968,-494.7 968,-472.7 654,-472.7"/>
<image xlink:href="../../images/primaryKeys.png" width="11px" height="12px" preserveAspectRatio="xMinYMin meet" x="659" y="-489.7"/>
<text text-anchor="start" x="674" y="-479.8" font-family="Helvetica,sans-Serif" font-size="11.00" fill="#000000">VERSION_PART_ID</text>
<polygon fill="none" stroke="#000000" points="654,-450.7 654,-472.7 968,-472.7 968,-450.7 654,-450.7"/>
<image xlink:href="../../images/primaryKeys.png" width="11px" height="12px" preserveAspectRatio="xMinYMin meet" x="659" y="-467.7"/>
<text text-anchor="start" x="674" y="-457.8" font-family="Helvetica,sans-Serif" font-size="11.00" fill="#000000">SCREENING_CONDITION_ID</text>
<polygon fill="none" stroke="#000000" points="654,-431.7 654,-450.7 968,-450.7 968,-431.7 654,-431.7"/>
<text text-anchor="start" x="657" y="-437.8" font-family="Helvetica,sans-Serif" font-size="11.00" fill="#000000">...</text>
<polygon fill="#ffffff" stroke="transparent" points="654,-412.7 654,-431.7 790,-431.7 790,-412.7 654,-412.7"/>
<polygon fill="none" stroke="#000000" points="654,-412.7 654,-431.7 790,-431.7 790,-412.7 654,-412.7"/>
<text text-anchor="start" x="657" y="-418.8" font-family="Helvetica,sans-Serif" font-size="11.00" fill="#000000">&lt; 2</text>
<polygon fill="#ffffff" stroke="transparent" points="790,-412.7 790,-431.7 898,-431.7 898,-412.7 790,-412.7"/>
<polygon fill="none" stroke="#000000" points="790,-412.7 790,-431.7 898,-431.7 898,-412.7 790,-412.7"/>
<text text-anchor="start" x="850.3807" y="-418.8" font-family="Helvetica,sans-Serif" font-size="11.00" fill="#000000">415 rows</text>
<polygon fill="#ffffff" stroke="transparent" points="898,-412.7 898,-431.7 968,-431.7 968,-412.7 898,-412.7"/>
<polygon fill="none" stroke="#000000" points="898,-412.7 898,-431.7 968,-431.7 968,-412.7 898,-412.7"/>
<text text-anchor="start" x="958.8862" y="-418.8" font-family="Helvetica,sans-Serif" font-size="11.00" fill="#000000"> &#160;</text>
</a>
</g>
</g>
<!-- VERSIONS_PARTS_SCREENING_CONDITIONS&#45;&gt;SCREENING_CONDITIONS -->
<g id="edge8" class="edge">
<title>VERSIONS_PARTS_SCREENING_CONDITIONS:w&#45;&gt;SCREENING_CONDITIONS:e</title>
<path fill="none" stroke="#000000" d="M639.8314,-458.2092C607.8599,-438.37 655.8551,-340.7 603.5,-340.7"/>
<polygon fill="#000000" stroke="#000000" points="646.2323,-459.7862 653.1388,-465.1955 650.1161,-460.7431 654,-461.7 654,-461.7 654,-461.7 650.1161,-460.7431 654.8612,-458.2045 646.2323,-459.7862 646.2323,-459.7862"/>
<ellipse fill="none" stroke="#000000" cx="643.1252" cy="-459.0207" rx="3.2" ry="3.2"/>
</g>
</g>
</svg>
