<?xml version="1.0" encoding="UTF-8" standalone="no"?>
<!DOCTYPE svg PUBLIC "-//W3C//DTD SVG 1.1//EN"
 "http://www.w3.org/Graphics/SVG/1.1/DTD/svg11.dtd">
<!-- Generated by graphviz version 2.40.1 (20161225.0304)
 -->
<!-- Title: oneDegreeRelationshipsDiagram Pages: 1 -->
<svg width="615pt" height="293pt"
 viewBox="0.00 0.00 615.00 292.70" xmlns="http://www.w3.org/2000/svg" xmlns:xlink="http://www.w3.org/1999/xlink">
<g id="graph0" class="graph" transform="scale(1 1) rotate(0) translate(4 288.7)">
<title>oneDegreeRelationshipsDiagram</title>
<polygon fill="#ffffff" stroke="transparent" points="-4,4 -4,-288.7 611,-288.7 611,4 -4,4"/>
<text text-anchor="middle" x="72.4936" y="-7.3" font-family="Helvetica,sans-Serif" font-size="11.00" fill="#000000">Generated by SchemaSpy</text>
<!-- SCREENING_CONDITIONS -->
<g id="node1" class="node">
<title>SCREENING_CONDITIONS</title>
<g id="a_node1"><a xlink:href="../../tables/SCREENING_CONDITIONS.html" xlink:title="SCREENING_CONDITIONS" target="_top">
<polygon fill="#ffffff" stroke="transparent" points="361,-109.7 361,-280.7 599,-280.7 599,-109.7 361,-109.7"/>
<polygon fill="#f5f5f5" stroke="transparent" points="361,-257.2 361,-280.2 599,-280.2 599,-257.2 361,-257.2"/>
<polygon fill="none" stroke="#000000" points="361,-257.2 361,-280.2 599,-280.2 599,-257.2 361,-257.2"/>
<text text-anchor="start" x="366" y="-266.3" font-family="Helvetica,sans-Serif" font-weight="bold" font-size="11.00" fill="#000000">SCREENING_CONDITIONS</text>
<text text-anchor="start" x="564.0437" y="-265.3" font-family="Helvetica,sans-Serif" font-size="11.00" fill="#000000">[table]</text>
<polygon fill="none" stroke="#000000" points="361,-235.2 361,-257.2 599,-257.2 599,-235.2 361,-235.2"/>
<image xlink:href="../../images/primaryKeys.png" width="11px" height="12px" preserveAspectRatio="xMinYMin meet" x="366" y="-252.2"/>
<text text-anchor="start" x="381" y="-242.3" font-family="Helvetica,sans-Serif" font-size="11.00" fill="#000000">ID</text>
<polygon fill="none" stroke="#000000" points="361,-213.2 361,-235.2 599,-235.2 599,-213.2 361,-213.2"/>
<image xlink:href="../../images/foreignKeys.png" width="11px" height="12px" preserveAspectRatio="xMinYMin meet" x="366" y="-230.2"/>
<text text-anchor="start" x="381" y="-220.3" font-family="Helvetica,sans-Serif" font-size="11.00" fill="#000000">DEL_LIBRARY_ID</text>
<polygon fill="none" stroke="#000000" points="361,-191.2 361,-213.2 599,-213.2 599,-191.2 361,-191.2"/>
<image xlink:href="../../images/foreignKeys.png" width="11px" height="12px" preserveAspectRatio="xMinYMin meet" x="366" y="-208.2"/>
<text text-anchor="start" x="381" y="-198.3" font-family="Helvetica,sans-Serif" font-size="11.00" fill="#000000">SCREEN_MODE_ID</text>
<polygon fill="none" stroke="#000000" points="361,-169.2 361,-191.2 599,-191.2 599,-169.2 361,-169.2"/>
<image xlink:href="../../images/foreignKeys.png" width="11px" height="12px" preserveAspectRatio="xMinYMin meet" x="366" y="-186.2"/>
<text text-anchor="start" x="381" y="-176.3" font-family="Helvetica,sans-Serif" font-size="11.00" fill="#000000">TEMPLATE_REFERENCE_ID</text>
<polygon fill="none" stroke="#000000" points="361,-147.2 361,-169.2 599,-169.2 599,-147.2 361,-147.2"/>
<image xlink:href="../../images/foreignKeys.png" width="11px" height="12px" preserveAspectRatio="xMinYMin meet" x="366" y="-164.2"/>
<text text-anchor="start" x="381" y="-154.3" font-family="Helvetica,sans-Serif" font-size="11.00" fill="#000000">TEMPLATE_DATA_REFERENCE_ID</text>
<polygon fill="none" stroke="#000000" points="361,-128.2 361,-147.2 599,-147.2 599,-128.2 361,-128.2"/>
<text text-anchor="start" x="364" y="-134.3" font-family="Helvetica,sans-Serif" font-size="11.00" fill="#000000">...</text>
<polygon fill="#ffffff" stroke="transparent" points="361,-109.2 361,-128.2 455,-128.2 455,-109.2 361,-109.2"/>
<polygon fill="none" stroke="#000000" points="361,-109.2 361,-128.2 455,-128.2 455,-109.2 361,-109.2"/>
<text text-anchor="start" x="364" y="-115.3" font-family="Helvetica,sans-Serif" font-size="11.00" fill="#000000">&lt; 4</text>
<polygon fill="#ffffff" stroke="transparent" points="455,-109.2 455,-128.2 541,-128.2 541,-109.2 455,-109.2"/>
<polygon fill="none" stroke="#000000" points="455,-109.2 455,-128.2 541,-128.2 541,-109.2 455,-109.2"/>
<text text-anchor="start" x="493.3807" y="-115.3" font-family="Helvetica,sans-Serif" font-size="11.00" fill="#000000">128 rows</text>
<polygon fill="#ffffff" stroke="transparent" points="541,-109.2 541,-128.2 599,-128.2 599,-109.2 541,-109.2"/>
<polygon fill="none" stroke="#000000" points="541,-109.2 541,-128.2 599,-128.2 599,-109.2 541,-109.2"/>
<text text-anchor="start" x="580.4053" y="-115.3" font-family="Helvetica,sans-Serif" font-size="11.00" fill="#000000">3 &gt;</text>
</a>
</g>
</g>
<!-- SCREEN_MODES -->
<g id="node2" class="node">
<title>SCREEN_MODES</title>
<g id="a_node2"><a xlink:href="../../tables/SCREEN_MODES.html" xlink:title="SCREEN_MODES" target="_top">
<polygon fill="#ffffff" stroke="transparent" points="8,-38.2 8,-238.2 312,-238.2 312,-38.2 8,-38.2"/>
<polygon fill="#f5f5f5" stroke="transparent" points="10,-213.2 10,-236.2 310,-236.2 310,-213.2 10,-213.2"/>
<polygon fill="none" stroke="#000000" points="10,-213.2 10,-236.2 310,-236.2 310,-213.2 10,-213.2"/>
<text text-anchor="start" x="15" y="-222.3" font-family="Helvetica,sans-Serif" font-weight="bold" font-size="11.00" fill="#000000">SCREEN_MODES</text>
<text text-anchor="start" x="275.0437" y="-221.3" font-family="Helvetica,sans-Serif" font-size="11.00" fill="#000000">[table]</text>
<polygon fill="none" stroke="#000000" points="10,-191.2 10,-213.2 139,-213.2 139,-191.2 10,-191.2"/>
<image xlink:href="../../images/primaryKeys.png" width="11px" height="12px" preserveAspectRatio="xMinYMin meet" x="15" y="-208.2"/>
<text text-anchor="start" x="30" y="-198.3" font-family="Helvetica,sans-Serif" font-size="11.00" fill="#000000">ID</text>
<polygon fill="none" stroke="#000000" points="139,-191.2 139,-213.2 310,-213.2 310,-191.2 139,-191.2"/>
<text text-anchor="start" x="142" y="-198.9" font-family="Helvetica,sans-Serif" font-size="11.00" fill="#000000">number[19]</text>
<polygon fill="none" stroke="#000000" points="10,-169.2 10,-191.2 139,-191.2 139,-169.2 10,-169.2"/>
<text text-anchor="start" x="30" y="-176.3" font-family="Helvetica,sans-Serif" font-size="11.00" fill="#000000">CREATED_AT</text>
<polygon fill="none" stroke="#000000" points="139,-169.2 139,-191.2 310,-191.2 310,-169.2 139,-169.2"/>
<text text-anchor="start" x="141.9896" y="-176.9" font-family="Helvetica,sans-Serif" font-size="11.00" fill="#000000">timestamp(6) with time zone[13,6]</text>
<polygon fill="none" stroke="#000000" points="10,-147.2 10,-169.2 139,-169.2 139,-147.2 10,-147.2"/>
<text text-anchor="start" x="30" y="-154.3" font-family="Helvetica,sans-Serif" font-size="11.00" fill="#000000">CREATED_BY</text>
<polygon fill="none" stroke="#000000" points="139,-147.2 139,-169.2 310,-169.2 310,-147.2 139,-147.2"/>
<text text-anchor="start" x="142" y="-154.9" font-family="Helvetica,sans-Serif" font-size="11.00" fill="#000000">number[19]</text>
<polygon fill="none" stroke="#000000" points="10,-125.2 10,-147.2 139,-147.2 139,-125.2 10,-125.2"/>
<text text-anchor="start" x="30" y="-132.3" font-family="Helvetica,sans-Serif" font-size="11.00" fill="#000000">UPDATED_AT</text>
<polygon fill="none" stroke="#000000" points="139,-125.2 139,-147.2 310,-147.2 310,-125.2 139,-125.2"/>
<text text-anchor="start" x="141.9896" y="-132.9" font-family="Helvetica,sans-Serif" font-size="11.00" fill="#000000">timestamp(6) with time zone[13,6]</text>
<polygon fill="none" stroke="#000000" points="10,-103.2 10,-125.2 139,-125.2 139,-103.2 10,-103.2"/>
<text text-anchor="start" x="30" y="-110.3" font-family="Helvetica,sans-Serif" font-size="11.00" fill="#000000">UPDATED_BY</text>
<polygon fill="none" stroke="#000000" points="139,-103.2 139,-125.2 310,-125.2 310,-103.2 139,-103.2"/>
<text text-anchor="start" x="142" y="-110.9" font-family="Helvetica,sans-Serif" font-size="11.00" fill="#000000">number[19]</text>
<polygon fill="none" stroke="#000000" points="10,-81.2 10,-103.2 139,-103.2 139,-81.2 10,-81.2"/>
<image xlink:href="../../images/primaryKeys.png" width="11px" height="12px" preserveAspectRatio="xMinYMin meet" x="15" y="-98.2"/>
<text text-anchor="start" x="30" y="-88.3" font-family="Helvetica,sans-Serif" font-size="11.00" fill="#000000">TITLE</text>
<polygon fill="none" stroke="#000000" points="139,-81.2 139,-103.2 310,-103.2 310,-81.2 139,-81.2"/>
<text text-anchor="start" x="142" y="-88.9" font-family="Helvetica,sans-Serif" font-size="11.00" fill="#000000">varchar2[255]</text>
<polygon fill="none" stroke="#000000" points="10,-59.2 10,-81.2 139,-81.2 139,-59.2 10,-59.2"/>
<text text-anchor="start" x="30" y="-66.3" font-family="Helvetica,sans-Serif" font-size="11.00" fill="#000000">DESCRIPTION</text>
<polygon fill="none" stroke="#000000" points="139,-59.2 139,-81.2 310,-81.2 310,-59.2 139,-59.2"/>
<text text-anchor="start" x="142" y="-66.9" font-family="Helvetica,sans-Serif" font-size="11.00" fill="#000000">varchar2[4000]</text>
<polygon fill="#ffffff" stroke="transparent" points="10,-40.2 10,-59.2 63,-59.2 63,-40.2 10,-40.2"/>
<polygon fill="none" stroke="#000000" points="10,-40.2 10,-59.2 63,-59.2 63,-40.2 10,-40.2"/>
<text text-anchor="start" x="13" y="-46.3" font-family="Helvetica,sans-Serif" font-size="11.00" fill="#000000">&lt; 0</text>
<polygon fill="#ffffff" stroke="transparent" points="63,-40.2 63,-59.2 139,-59.2 139,-40.2 63,-40.2"/>
<polygon fill="none" stroke="#000000" points="63,-40.2 63,-59.2 139,-59.2 139,-40.2 63,-40.2"/>
<text text-anchor="start" x="97.4956" y="-46.3" font-family="Helvetica,sans-Serif" font-size="11.00" fill="#000000">12 rows</text>
<polygon fill="#ffffff" stroke="transparent" points="139,-40.2 139,-59.2 310,-59.2 310,-40.2 139,-40.2"/>
<polygon fill="none" stroke="#000000" points="139,-40.2 139,-59.2 310,-59.2 310,-40.2 139,-40.2"/>
<text text-anchor="start" x="291.4053" y="-46.3" font-family="Helvetica,sans-Serif" font-size="11.00" fill="#000000">1 &gt;</text>
<polygon fill="none" stroke="#000000" stroke-width="2" points="9,-39.2 9,-237.2 311,-237.2 311,-39.2 9,-39.2"/>
</a>
</g>
</g>
<!-- SCREENING_CONDITIONS&#45;&gt;SCREEN_MODES -->
<g id="edge1" class="edge">
<title>SCREENING_CONDITIONS:w&#45;&gt;SCREEN_MODES:e</title>
<path fill="none" stroke="#000000" d="M346.276,-202.2C334.2815,-202.2 326.8229,-202.2 310,-202.2"/>
<polygon fill="#000000" stroke="#000000" points="353,-202.2001 361,-205.8 357,-202.2 361,-202.2 361,-202.2 361,-202.2 357,-202.2 361,-198.6 353,-202.2001 353,-202.2001"/>
<ellipse fill="none" stroke="#000000" cx="349.8" cy="-202.2001" rx="3.2" ry="3.2"/>
</g>
</g>
</svg>
