<?xml version="1.0" encoding="UTF-8" standalone="no"?>
<!DOCTYPE svg PUBLIC "-//W3C//DTD SVG 1.1//EN"
 "http://www.w3.org/Graphics/SVG/1.1/DTD/svg11.dtd">
<!-- Generated by graphviz version 2.40.1 (20161225.0304)
 -->
<!-- Title: oneDegreeRelationshipsDiagram Pages: 1 -->
<svg width="1020pt" height="363pt"
 viewBox="0.00 0.00 1020.00 362.70" xmlns="http://www.w3.org/2000/svg" xmlns:xlink="http://www.w3.org/1999/xlink">
<g id="graph0" class="graph" transform="scale(1 1) rotate(0) translate(4 358.7)">
<title>oneDegreeRelationshipsDiagram</title>
<polygon fill="#ffffff" stroke="transparent" points="-4,4 -4,-358.7 1016,-358.7 1016,4 -4,4"/>
<text text-anchor="middle" x="72.4936" y="-7.3" font-family="Helvetica,sans-Serif" font-size="11.00" fill="#000000">Generated by SchemaSpy</text>
<!-- CLONE_FORMS -->
<g id="node1" class="node">
<title>CLONE_FORMS</title>
<g id="a_node1"><a xlink:href="../../tables/CLONE_FORMS.html" xlink:title="CLONE_FORMS" target="_top">
<polygon fill="#ffffff" stroke="transparent" points="703,-153.7 703,-346.7 1004,-346.7 1004,-153.7 703,-153.7"/>
<polygon fill="#f5f5f5" stroke="transparent" points="703.5,-323.2 703.5,-346.2 1004.5,-346.2 1004.5,-323.2 703.5,-323.2"/>
<polygon fill="none" stroke="#000000" points="703.5,-323.2 703.5,-346.2 1004.5,-346.2 1004.5,-323.2 703.5,-323.2"/>
<text text-anchor="start" x="708.5" y="-332.3" font-family="Helvetica,sans-Serif" font-weight="bold" font-size="11.00" fill="#000000">CLONE_FORMS</text>
<text text-anchor="start" x="969.5437" y="-331.3" font-family="Helvetica,sans-Serif" font-size="11.00" fill="#000000">[table]</text>
<polygon fill="none" stroke="#000000" points="703.5,-301.2 703.5,-323.2 1004.5,-323.2 1004.5,-301.2 703.5,-301.2"/>
<image xlink:href="../../images/primaryKeys.png" width="11px" height="12px" preserveAspectRatio="xMinYMin meet" x="708.5" y="-318.2"/>
<text text-anchor="start" x="723.5" y="-308.3" font-family="Helvetica,sans-Serif" font-size="11.00" fill="#000000">ID</text>
<polygon fill="none" stroke="#000000" points="703.5,-279.2 703.5,-301.2 1004.5,-301.2 1004.5,-279.2 703.5,-279.2"/>
<image xlink:href="../../images/foreignKeys.png" width="11px" height="12px" preserveAspectRatio="xMinYMin meet" x="708.5" y="-296.2"/>
<text text-anchor="start" x="723.5" y="-286.3" font-family="Helvetica,sans-Serif" font-size="11.00" fill="#000000">ISOFORM_ID</text>
<polygon fill="none" stroke="#000000" points="703.5,-257.2 703.5,-279.2 1004.5,-279.2 1004.5,-257.2 703.5,-257.2"/>
<image xlink:href="../../images/primaryKeys.png" width="11px" height="12px" preserveAspectRatio="xMinYMin meet" x="708.5" y="-274.2"/>
<text text-anchor="start" x="723.5" y="-264.3" font-family="Helvetica,sans-Serif" font-size="11.00" fill="#000000">NAME</text>
<polygon fill="none" stroke="#000000" points="703.5,-235.2 703.5,-257.2 1004.5,-257.2 1004.5,-235.2 703.5,-235.2"/>
<image xlink:href="../../images/foreignKeys.png" width="11px" height="12px" preserveAspectRatio="xMinYMin meet" x="708.5" y="-252.2"/>
<text text-anchor="start" x="723.5" y="-242.3" font-family="Helvetica,sans-Serif" font-size="11.00" fill="#000000">TARGET_FORM_ID</text>
<polygon fill="none" stroke="#000000" points="703.5,-213.2 703.5,-235.2 1004.5,-235.2 1004.5,-213.2 703.5,-213.2"/>
<image xlink:href="../../images/foreignKeys.png" width="11px" height="12px" preserveAspectRatio="xMinYMin meet" x="708.5" y="-230.2"/>
<text text-anchor="start" x="723.5" y="-220.3" font-family="Helvetica,sans-Serif" font-size="11.00" fill="#000000">POST_TRANSLATIONAL_MODIFICATION_ID</text>
<polygon fill="none" stroke="#000000" points="703.5,-191.2 703.5,-213.2 1004.5,-213.2 1004.5,-191.2 703.5,-191.2"/>
<image xlink:href="../../images/foreignKeys.png" width="11px" height="12px" preserveAspectRatio="xMinYMin meet" x="708.5" y="-208.2"/>
<text text-anchor="start" x="723.5" y="-198.3" font-family="Helvetica,sans-Serif" font-size="11.00" fill="#000000">SPECIES_ID</text>
<polygon fill="none" stroke="#000000" points="703.5,-172.2 703.5,-191.2 1004.5,-191.2 1004.5,-172.2 703.5,-172.2"/>
<text text-anchor="start" x="706.5" y="-178.3" font-family="Helvetica,sans-Serif" font-size="11.00" fill="#000000">...</text>
<polygon fill="#ffffff" stroke="transparent" points="703.5,-153.2 703.5,-172.2 825.5,-172.2 825.5,-153.2 703.5,-153.2"/>
<polygon fill="none" stroke="#000000" points="703.5,-153.2 703.5,-172.2 825.5,-172.2 825.5,-153.2 703.5,-153.2"/>
<text text-anchor="start" x="706.5" y="-159.3" font-family="Helvetica,sans-Serif" font-size="11.00" fill="#000000">&lt; 4</text>
<polygon fill="#ffffff" stroke="transparent" points="825.5,-153.2 825.5,-172.2 926.5,-172.2 926.5,-153.2 825.5,-153.2"/>
<polygon fill="none" stroke="#000000" points="825.5,-153.2 825.5,-172.2 926.5,-172.2 926.5,-153.2 825.5,-153.2"/>
<text text-anchor="start" x="878.8807" y="-159.3" font-family="Helvetica,sans-Serif" font-size="11.00" fill="#000000">467 rows</text>
<polygon fill="#ffffff" stroke="transparent" points="926.5,-153.2 926.5,-172.2 1004.5,-172.2 1004.5,-153.2 926.5,-153.2"/>
<polygon fill="none" stroke="#000000" points="926.5,-153.2 926.5,-172.2 1004.5,-172.2 1004.5,-153.2 926.5,-153.2"/>
<text text-anchor="start" x="979.7904" y="-159.3" font-family="Helvetica,sans-Serif" font-size="11.00" fill="#000000">14 &gt;</text>
</a>
</g>
</g>
<!-- SPECIES -->
<g id="node2" class="node">
<title>SPECIES</title>
<g id="a_node2"><a xlink:href="../../tables/SPECIES.html" xlink:title="SPECIES" target="_top">
<polygon fill="#ffffff" stroke="transparent" points="8,-38.2 8,-238.2 304,-238.2 304,-38.2 8,-38.2"/>
<polygon fill="#f5f5f5" stroke="transparent" points="10,-213.2 10,-236.2 302,-236.2 302,-213.2 10,-213.2"/>
<polygon fill="none" stroke="#000000" points="10,-213.2 10,-236.2 302,-236.2 302,-213.2 10,-213.2"/>
<text text-anchor="start" x="15" y="-222.3" font-family="Helvetica,sans-Serif" font-weight="bold" font-size="11.00" fill="#000000">SPECIES</text>
<text text-anchor="start" x="267.0437" y="-221.3" font-family="Helvetica,sans-Serif" font-size="11.00" fill="#000000">[table]</text>
<polygon fill="none" stroke="#000000" points="10,-191.2 10,-213.2 131,-213.2 131,-191.2 10,-191.2"/>
<image xlink:href="../../images/primaryKeys.png" width="11px" height="12px" preserveAspectRatio="xMinYMin meet" x="15" y="-208.2"/>
<text text-anchor="start" x="30" y="-198.3" font-family="Helvetica,sans-Serif" font-size="11.00" fill="#000000">ID</text>
<polygon fill="none" stroke="#000000" points="131,-191.2 131,-213.2 302,-213.2 302,-191.2 131,-191.2"/>
<text text-anchor="start" x="134" y="-198.9" font-family="Helvetica,sans-Serif" font-size="11.00" fill="#000000">number[19]</text>
<polygon fill="none" stroke="#000000" points="10,-169.2 10,-191.2 131,-191.2 131,-169.2 10,-169.2"/>
<text text-anchor="start" x="30" y="-176.3" font-family="Helvetica,sans-Serif" font-size="11.00" fill="#000000">CREATED_AT</text>
<polygon fill="none" stroke="#000000" points="131,-169.2 131,-191.2 302,-191.2 302,-169.2 131,-169.2"/>
<text text-anchor="start" x="133.9896" y="-176.9" font-family="Helvetica,sans-Serif" font-size="11.00" fill="#000000">timestamp(6) with time zone[13,6]</text>
<polygon fill="none" stroke="#000000" points="10,-147.2 10,-169.2 131,-169.2 131,-147.2 10,-147.2"/>
<text text-anchor="start" x="30" y="-154.3" font-family="Helvetica,sans-Serif" font-size="11.00" fill="#000000">CREATED_BY</text>
<polygon fill="none" stroke="#000000" points="131,-147.2 131,-169.2 302,-169.2 302,-147.2 131,-147.2"/>
<text text-anchor="start" x="134" y="-154.9" font-family="Helvetica,sans-Serif" font-size="11.00" fill="#000000">number[19]</text>
<polygon fill="none" stroke="#000000" points="10,-125.2 10,-147.2 131,-147.2 131,-125.2 10,-125.2"/>
<text text-anchor="start" x="30" y="-132.3" font-family="Helvetica,sans-Serif" font-size="11.00" fill="#000000">UPDATED_AT</text>
<polygon fill="none" stroke="#000000" points="131,-125.2 131,-147.2 302,-147.2 302,-125.2 131,-125.2"/>
<text text-anchor="start" x="133.9896" y="-132.9" font-family="Helvetica,sans-Serif" font-size="11.00" fill="#000000">timestamp(6) with time zone[13,6]</text>
<polygon fill="none" stroke="#000000" points="10,-103.2 10,-125.2 131,-125.2 131,-103.2 10,-103.2"/>
<text text-anchor="start" x="30" y="-110.3" font-family="Helvetica,sans-Serif" font-size="11.00" fill="#000000">UPDATED_BY</text>
<polygon fill="none" stroke="#000000" points="131,-103.2 131,-125.2 302,-125.2 302,-103.2 131,-103.2"/>
<text text-anchor="start" x="134" y="-110.9" font-family="Helvetica,sans-Serif" font-size="11.00" fill="#000000">number[19]</text>
<polygon fill="none" stroke="#000000" points="10,-81.2 10,-103.2 131,-103.2 131,-81.2 10,-81.2"/>
<text text-anchor="start" x="30" y="-88.3" font-family="Helvetica,sans-Serif" font-size="11.00" fill="#000000">NAME</text>
<polygon fill="none" stroke="#000000" points="131,-81.2 131,-103.2 302,-103.2 302,-81.2 131,-81.2"/>
<text text-anchor="start" x="134" y="-88.9" font-family="Helvetica,sans-Serif" font-size="11.00" fill="#000000">varchar2[255]</text>
<polygon fill="none" stroke="#000000" points="10,-59.2 10,-81.2 131,-81.2 131,-59.2 10,-59.2"/>
<text text-anchor="start" x="30" y="-66.3" font-family="Helvetica,sans-Serif" font-size="11.00" fill="#000000">ABBREVIATION</text>
<polygon fill="none" stroke="#000000" points="131,-59.2 131,-81.2 302,-81.2 302,-59.2 131,-59.2"/>
<text text-anchor="start" x="134" y="-66.9" font-family="Helvetica,sans-Serif" font-size="11.00" fill="#000000">varchar2[255]</text>
<polygon fill="#ffffff" stroke="transparent" points="10,-40.2 10,-59.2 62,-59.2 62,-40.2 10,-40.2"/>
<polygon fill="none" stroke="#000000" points="10,-40.2 10,-59.2 62,-59.2 62,-40.2 10,-40.2"/>
<text text-anchor="start" x="13" y="-46.3" font-family="Helvetica,sans-Serif" font-size="11.00" fill="#000000">&lt; 0</text>
<polygon fill="#ffffff" stroke="transparent" points="62,-40.2 62,-59.2 131,-59.2 131,-40.2 62,-40.2"/>
<polygon fill="none" stroke="#000000" points="62,-40.2 62,-59.2 131,-59.2 131,-40.2 62,-40.2"/>
<text text-anchor="start" x="95.6105" y="-46.3" font-family="Helvetica,sans-Serif" font-size="11.00" fill="#000000">3 rows</text>
<polygon fill="#ffffff" stroke="transparent" points="131,-40.2 131,-59.2 302,-59.2 302,-40.2 131,-40.2"/>
<polygon fill="none" stroke="#000000" points="131,-40.2 131,-59.2 302,-59.2 302,-40.2 131,-40.2"/>
<text text-anchor="start" x="283.4053" y="-46.3" font-family="Helvetica,sans-Serif" font-size="11.00" fill="#000000">2 &gt;</text>
<polygon fill="none" stroke="#000000" stroke-width="2" points="9,-39.2 9,-237.2 303,-237.2 303,-39.2 9,-39.2"/>
</a>
</g>
</g>
<!-- CLONE_FORMS&#45;&gt;SPECIES -->
<g id="edge1" class="edge">
<title>CLONE_FORMS:w&#45;&gt;SPECIES:e</title>
<path fill="none" stroke="#000000" d="M689.5611,-197.329C677.8968,-185.9896 683.6277,-157.9746 662,-147.2 535.8938,-84.3755 471.6403,-85.4593 345,-147.2 317.1096,-160.7974 333.0285,-202.2 302,-202.2"/>
<polygon fill="#000000" stroke="#000000" points="695.9478,-199.5609 702.3124,-205.5985 699.7239,-200.8804 703.5,-202.2 703.5,-202.2 703.5,-202.2 699.7239,-200.8804 704.6876,-198.8015 695.9478,-199.5609 695.9478,-199.5609"/>
<ellipse fill="none" stroke="#000000" cx="692.927" cy="-198.5052" rx="3.2" ry="3.2"/>
</g>
<!-- TARGET_FORMS -->
<g id="node3" class="node">
<title>TARGET_FORMS</title>
<g id="a_node3"><a xlink:href="../../tables/TARGET_FORMS.html" xlink:title="TARGET_FORMS" target="_top">
<polygon fill="#ffffff" stroke="transparent" points="353,-157.7 353,-350.7 654,-350.7 654,-157.7 353,-157.7"/>
<polygon fill="#f5f5f5" stroke="transparent" points="353.5,-327.2 353.5,-350.2 654.5,-350.2 654.5,-327.2 353.5,-327.2"/>
<polygon fill="none" stroke="#000000" points="353.5,-327.2 353.5,-350.2 654.5,-350.2 654.5,-327.2 353.5,-327.2"/>
<text text-anchor="start" x="358.5" y="-336.3" font-family="Helvetica,sans-Serif" font-weight="bold" font-size="11.00" fill="#000000">TARGET_FORMS</text>
<text text-anchor="start" x="619.5437" y="-335.3" font-family="Helvetica,sans-Serif" font-size="11.00" fill="#000000">[table]</text>
<polygon fill="none" stroke="#000000" points="353.5,-305.2 353.5,-327.2 654.5,-327.2 654.5,-305.2 353.5,-305.2"/>
<image xlink:href="../../images/primaryKeys.png" width="11px" height="12px" preserveAspectRatio="xMinYMin meet" x="358.5" y="-322.2"/>
<text text-anchor="start" x="373.5" y="-312.3" font-family="Helvetica,sans-Serif" font-size="11.00" fill="#000000">ID</text>
<polygon fill="none" stroke="#000000" points="353.5,-283.2 353.5,-305.2 654.5,-305.2 654.5,-283.2 353.5,-283.2"/>
<image xlink:href="../../images/foreignKeys.png" width="11px" height="12px" preserveAspectRatio="xMinYMin meet" x="358.5" y="-300.2"/>
<text text-anchor="start" x="373.5" y="-290.3" font-family="Helvetica,sans-Serif" font-size="11.00" fill="#000000">TARGET_ID</text>
<polygon fill="none" stroke="#000000" points="353.5,-261.2 353.5,-283.2 654.5,-283.2 654.5,-261.2 353.5,-261.2"/>
<image xlink:href="../../images/foreignKeys.png" width="11px" height="12px" preserveAspectRatio="xMinYMin meet" x="358.5" y="-278.2"/>
<text text-anchor="start" x="373.5" y="-268.3" font-family="Helvetica,sans-Serif" font-size="11.00" fill="#000000">SPECIES_ID</text>
<polygon fill="none" stroke="#000000" points="353.5,-239.2 353.5,-261.2 654.5,-261.2 654.5,-239.2 353.5,-239.2"/>
<image xlink:href="../../images/foreignKeys.png" width="11px" height="12px" preserveAspectRatio="xMinYMin meet" x="358.5" y="-256.2"/>
<text text-anchor="start" x="373.5" y="-246.3" font-family="Helvetica,sans-Serif" font-size="11.00" fill="#000000">POST_TRANSLATIONAL_MODIFICATION_ID</text>
<polygon fill="none" stroke="#000000" points="353.5,-217.2 353.5,-239.2 654.5,-239.2 654.5,-217.2 353.5,-217.2"/>
<image xlink:href="../../images/foreignKeys.png" width="11px" height="12px" preserveAspectRatio="xMinYMin meet" x="358.5" y="-234.2"/>
<text text-anchor="start" x="373.5" y="-224.3" font-family="Helvetica,sans-Serif" font-size="11.00" fill="#000000">ISOFORM_ID</text>
<polygon fill="none" stroke="#000000" points="353.5,-195.2 353.5,-217.2 654.5,-217.2 654.5,-195.2 353.5,-195.2"/>
<image xlink:href="../../images/foreignKeys.png" width="11px" height="12px" preserveAspectRatio="xMinYMin meet" x="358.5" y="-212.2"/>
<text text-anchor="start" x="373.5" y="-202.3" font-family="Helvetica,sans-Serif" font-size="11.00" fill="#000000">EXPRESSION_SYSTEM_ID</text>
<polygon fill="none" stroke="#000000" points="353.5,-176.2 353.5,-195.2 654.5,-195.2 654.5,-176.2 353.5,-176.2"/>
<text text-anchor="start" x="356.5" y="-182.3" font-family="Helvetica,sans-Serif" font-size="11.00" fill="#000000">...</text>
<polygon fill="#ffffff" stroke="transparent" points="353.5,-157.2 353.5,-176.2 475.5,-176.2 475.5,-157.2 353.5,-157.2"/>
<polygon fill="none" stroke="#000000" points="353.5,-157.2 353.5,-176.2 475.5,-176.2 475.5,-157.2 353.5,-157.2"/>
<text text-anchor="start" x="356.5" y="-163.3" font-family="Helvetica,sans-Serif" font-size="11.00" fill="#000000">&lt; 5</text>
<polygon fill="#ffffff" stroke="transparent" points="475.5,-157.2 475.5,-176.2 576.5,-176.2 576.5,-157.2 475.5,-157.2"/>
<polygon fill="none" stroke="#000000" points="475.5,-157.2 475.5,-176.2 576.5,-176.2 576.5,-157.2 475.5,-157.2"/>
<text text-anchor="start" x="528.8807" y="-163.3" font-family="Helvetica,sans-Serif" font-size="11.00" fill="#000000">541 rows</text>
<polygon fill="#ffffff" stroke="transparent" points="576.5,-157.2 576.5,-176.2 654.5,-176.2 654.5,-157.2 576.5,-157.2"/>
<polygon fill="none" stroke="#000000" points="576.5,-157.2 576.5,-176.2 654.5,-176.2 654.5,-157.2 576.5,-157.2"/>
<text text-anchor="start" x="629.7904" y="-163.3" font-family="Helvetica,sans-Serif" font-size="11.00" fill="#000000">18 &gt;</text>
</a>
</g>
</g>
<!-- CLONE_FORMS&#45;&gt;TARGET_FORMS -->
<g id="edge2" class="edge">
<title>CLONE_FORMS:w&#45;&gt;TARGET_FORMS:e</title>
<path fill="none" stroke="#000000" d="M689.4782,-251.2342C672.62,-267.2846 686.2455,-316.2 654.5,-316.2"/>
<polygon fill="#000000" stroke="#000000" points="695.9706,-248.9033 704.7165,-249.5882 699.7353,-247.5517 703.5,-246.2 703.5,-246.2 703.5,-246.2 699.7353,-247.5517 702.2835,-242.8118 695.9706,-248.9033 695.9706,-248.9033"/>
<ellipse fill="none" stroke="#000000" cx="692.9588" cy="-249.9846" rx="3.2" ry="3.2"/>
</g>
<!-- TARGET_FORMS&#45;&gt;SPECIES -->
<g id="edge3" class="edge">
<title>TARGET_FORMS:w&#45;&gt;SPECIES:e</title>
<path fill="none" stroke="#000000" d="M339.6187,-267.6071C321.3507,-252.034 334.5889,-202.2 302,-202.2"/>
<polygon fill="#000000" stroke="#000000" points="345.9049,-269.687 352.3691,-275.6178 349.7025,-270.9435 353.5,-272.2 353.5,-272.2 353.5,-272.2 349.7025,-270.9435 354.6309,-268.7822 345.9049,-269.687 345.9049,-269.687"/>
<ellipse fill="none" stroke="#000000" cx="342.8669" cy="-268.6818" rx="3.2" ry="3.2"/>
</g>
</g>
</svg>
