<?xml version="1.0" encoding="UTF-8" standalone="no"?>
<!DOCTYPE svg PUBLIC "-//W3C//DTD SVG 1.1//EN"
 "http://www.w3.org/Graphics/SVG/1.1/DTD/svg11.dtd">
<!-- Generated by graphviz version 2.40.1 (20161225.0304)
 -->
<!-- Title: oneDegreeRelationshipsDiagram Pages: 1 -->
<svg width="776pt" height="438pt"
 viewBox="0.00 0.00 776.00 438.20" xmlns="http://www.w3.org/2000/svg" xmlns:xlink="http://www.w3.org/1999/xlink">
<g id="graph0" class="graph" transform="scale(1 1) rotate(0) translate(4 434.2)">
<title>oneDegreeRelationshipsDiagram</title>
<polygon fill="#ffffff" stroke="transparent" points="-4,4 -4,-434.2 772,-434.2 772,4 -4,4"/>
<text text-anchor="middle" x="72.4936" y="-7.3" font-family="Helvetica,sans-Serif" font-size="11.00" fill="#000000">Generated by SchemaSpy</text>
<!-- STRUCTURE_COMMENTS -->
<g id="node1" class="node">
<title>STRUCTURE_COMMENTS</title>
<g id="a_node1"><a xlink:href="../../tables/STRUCTURE_COMMENTS.html" xlink:title="STRUCTURE_COMMENTS" target="_top">
<polygon fill="#ffffff" stroke="transparent" points="567,-299.2 567,-426.2 751,-426.2 751,-299.2 567,-299.2"/>
<polygon fill="#f5f5f5" stroke="transparent" points="567,-402.7 567,-425.7 751,-425.7 751,-402.7 567,-402.7"/>
<polygon fill="none" stroke="#000000" points="567,-402.7 567,-425.7 751,-425.7 751,-402.7 567,-402.7"/>
<text text-anchor="start" x="572" y="-411.8" font-family="Helvetica,sans-Serif" font-weight="bold" font-size="11.00" fill="#000000">STRUCTURE_COMMENTS</text>
<text text-anchor="start" x="716.0437" y="-410.8" font-family="Helvetica,sans-Serif" font-size="11.00" fill="#000000">[table]</text>
<polygon fill="none" stroke="#000000" points="567,-380.7 567,-402.7 751,-402.7 751,-380.7 567,-380.7"/>
<image xlink:href="../../images/primaryKeys.png" width="11px" height="12px" preserveAspectRatio="xMinYMin meet" x="572" y="-397.7"/>
<text text-anchor="start" x="587" y="-387.8" font-family="Helvetica,sans-Serif" font-size="11.00" fill="#000000">ID</text>
<polygon fill="none" stroke="#000000" points="567,-358.7 567,-380.7 751,-380.7 751,-358.7 567,-358.7"/>
<image xlink:href="../../images/foreignKeys.png" width="11px" height="12px" preserveAspectRatio="xMinYMin meet" x="572" y="-375.7"/>
<text text-anchor="start" x="587" y="-365.8" font-family="Helvetica,sans-Serif" font-size="11.00" fill="#000000">STRUCTURE_ID</text>
<polygon fill="none" stroke="#000000" points="567,-336.7 567,-358.7 751,-358.7 751,-336.7 567,-336.7"/>
<image xlink:href="../../images/foreignKeys.png" width="11px" height="12px" preserveAspectRatio="xMinYMin meet" x="572" y="-353.7"/>
<text text-anchor="start" x="587" y="-343.8" font-family="Helvetica,sans-Serif" font-size="11.00" fill="#000000">USER_ID</text>
<polygon fill="none" stroke="#000000" points="567,-317.7 567,-336.7 751,-336.7 751,-317.7 567,-317.7"/>
<text text-anchor="start" x="570" y="-323.8" font-family="Helvetica,sans-Serif" font-size="11.00" fill="#000000">...</text>
<polygon fill="#ffffff" stroke="transparent" points="567,-298.7 567,-317.7 641,-317.7 641,-298.7 567,-298.7"/>
<polygon fill="none" stroke="#000000" points="567,-298.7 567,-317.7 641,-317.7 641,-298.7 567,-298.7"/>
<text text-anchor="start" x="570" y="-304.8" font-family="Helvetica,sans-Serif" font-size="11.00" fill="#000000">&lt; 2</text>
<polygon fill="#ffffff" stroke="transparent" points="641,-298.7 641,-317.7 712,-317.7 712,-298.7 641,-298.7"/>
<polygon fill="none" stroke="#000000" points="641,-298.7 641,-317.7 712,-317.7 712,-298.7 641,-298.7"/>
<text text-anchor="start" x="670.4956" y="-304.8" font-family="Helvetica,sans-Serif" font-size="11.00" fill="#000000">10 rows</text>
<polygon fill="#ffffff" stroke="transparent" points="712,-298.7 712,-317.7 751,-317.7 751,-298.7 712,-298.7"/>
<polygon fill="none" stroke="#000000" points="712,-298.7 712,-317.7 751,-317.7 751,-298.7 712,-298.7"/>
<text text-anchor="start" x="741.8862" y="-304.8" font-family="Helvetica,sans-Serif" font-size="11.00" fill="#000000"> &#160;</text>
</a>
</g>
</g>
<!-- STRUCTURES -->
<g id="node2" class="node">
<title>STRUCTURES</title>
<g id="a_node2"><a xlink:href="../../tables/STRUCTURES.html" xlink:title="STRUCTURES" target="_top">
<polygon fill="#ffffff" stroke="transparent" points="215,-76.7 215,-320.7 509,-320.7 509,-76.7 215,-76.7"/>
<polygon fill="#f5f5f5" stroke="transparent" points="217,-295.7 217,-318.7 507,-318.7 507,-295.7 217,-295.7"/>
<polygon fill="none" stroke="#000000" points="217,-295.7 217,-318.7 507,-318.7 507,-295.7 217,-295.7"/>
<text text-anchor="start" x="222" y="-304.8" font-family="Helvetica,sans-Serif" font-weight="bold" font-size="11.00" fill="#000000">STRUCTURES</text>
<text text-anchor="start" x="472.0437" y="-303.8" font-family="Helvetica,sans-Serif" font-size="11.00" fill="#000000">[table]</text>
<polygon fill="none" stroke="#000000" points="217,-273.7 217,-295.7 336,-295.7 336,-273.7 217,-273.7"/>
<image xlink:href="../../images/primaryKeys.png" width="11px" height="12px" preserveAspectRatio="xMinYMin meet" x="222" y="-290.7"/>
<text text-anchor="start" x="237" y="-280.8" font-family="Helvetica,sans-Serif" font-size="11.00" fill="#000000">ID</text>
<polygon fill="none" stroke="#000000" points="336,-273.7 336,-295.7 507,-295.7 507,-273.7 336,-273.7"/>
<text text-anchor="start" x="339" y="-281.4" font-family="Helvetica,sans-Serif" font-size="11.00" fill="#000000">number[19]</text>
<polygon fill="none" stroke="#000000" points="217,-251.7 217,-273.7 336,-273.7 336,-251.7 217,-251.7"/>
<text text-anchor="start" x="237" y="-258.8" font-family="Helvetica,sans-Serif" font-size="11.00" fill="#000000">CREATED_AT</text>
<polygon fill="none" stroke="#000000" points="336,-251.7 336,-273.7 507,-273.7 507,-251.7 336,-251.7"/>
<text text-anchor="start" x="338.9896" y="-259.4" font-family="Helvetica,sans-Serif" font-size="11.00" fill="#000000">timestamp(6) with time zone[13,6]</text>
<polygon fill="none" stroke="#000000" points="217,-229.7 217,-251.7 336,-251.7 336,-229.7 217,-229.7"/>
<text text-anchor="start" x="237" y="-236.8" font-family="Helvetica,sans-Serif" font-size="11.00" fill="#000000">CREATED_BY</text>
<polygon fill="none" stroke="#000000" points="336,-229.7 336,-251.7 507,-251.7 507,-229.7 336,-229.7"/>
<text text-anchor="start" x="339" y="-237.4" font-family="Helvetica,sans-Serif" font-size="11.00" fill="#000000">number[19]</text>
<polygon fill="none" stroke="#000000" points="217,-207.7 217,-229.7 336,-229.7 336,-207.7 217,-207.7"/>
<text text-anchor="start" x="237" y="-214.8" font-family="Helvetica,sans-Serif" font-size="11.00" fill="#000000">UPDATED_AT</text>
<polygon fill="none" stroke="#000000" points="336,-207.7 336,-229.7 507,-229.7 507,-207.7 336,-207.7"/>
<text text-anchor="start" x="338.9896" y="-215.4" font-family="Helvetica,sans-Serif" font-size="11.00" fill="#000000">timestamp(6) with time zone[13,6]</text>
<polygon fill="none" stroke="#000000" points="217,-185.7 217,-207.7 336,-207.7 336,-185.7 217,-185.7"/>
<text text-anchor="start" x="237" y="-192.8" font-family="Helvetica,sans-Serif" font-size="11.00" fill="#000000">UPDATED_BY</text>
<polygon fill="none" stroke="#000000" points="336,-185.7 336,-207.7 507,-207.7 507,-185.7 336,-185.7"/>
<text text-anchor="start" x="339" y="-193.4" font-family="Helvetica,sans-Serif" font-size="11.00" fill="#000000">number[19]</text>
<polygon fill="none" stroke="#000000" points="217,-163.7 217,-185.7 336,-185.7 336,-163.7 217,-163.7"/>
<text text-anchor="start" x="237" y="-170.8" font-family="Helvetica,sans-Serif" font-size="11.00" fill="#000000">IS_DEFAULT</text>
<polygon fill="none" stroke="#000000" points="336,-163.7 336,-185.7 507,-185.7 507,-163.7 336,-163.7"/>
<text text-anchor="start" x="339" y="-171.4" font-family="Helvetica,sans-Serif" font-size="11.00" fill="#000000">number[1]</text>
<polygon fill="none" stroke="#000000" points="217,-141.7 217,-163.7 336,-163.7 336,-141.7 217,-141.7"/>
<text text-anchor="start" x="237" y="-148.8" font-family="Helvetica,sans-Serif" font-size="11.00" fill="#000000">IS_PREFERRED</text>
<polygon fill="none" stroke="#000000" points="336,-141.7 336,-163.7 507,-163.7 507,-141.7 336,-141.7"/>
<text text-anchor="start" x="339" y="-149.4" font-family="Helvetica,sans-Serif" font-size="11.00" fill="#000000">number[1]</text>
<polygon fill="none" stroke="#000000" points="217,-119.7 217,-141.7 336,-141.7 336,-119.7 217,-119.7"/>
<text text-anchor="start" x="237" y="-126.8" font-family="Helvetica,sans-Serif" font-size="11.00" fill="#000000">NAME</text>
<polygon fill="none" stroke="#000000" points="336,-119.7 336,-141.7 507,-141.7 507,-119.7 336,-119.7"/>
<text text-anchor="start" x="339" y="-127.4" font-family="Helvetica,sans-Serif" font-size="11.00" fill="#000000">varchar2[255]</text>
<polygon fill="none" stroke="#000000" points="217,-97.7 217,-119.7 336,-119.7 336,-97.7 217,-97.7"/>
<image xlink:href="../../images/foreignKeys.png" width="11px" height="12px" preserveAspectRatio="xMinYMin meet" x="222" y="-114.7"/>
<text text-anchor="start" x="237" y="-104.8" font-family="Helvetica,sans-Serif" font-size="11.00" fill="#000000">ISOFORM_ID</text>
<polygon fill="none" stroke="#000000" points="336,-97.7 336,-119.7 507,-119.7 507,-97.7 336,-97.7"/>
<text text-anchor="start" x="339" y="-105.4" font-family="Helvetica,sans-Serif" font-size="11.00" fill="#000000">number[19]</text>
<polygon fill="#ffffff" stroke="transparent" points="217,-78.7 217,-97.7 257,-97.7 257,-78.7 217,-78.7"/>
<polygon fill="none" stroke="#000000" points="217,-78.7 217,-97.7 257,-97.7 257,-78.7 217,-78.7"/>
<text text-anchor="start" x="220" y="-84.8" font-family="Helvetica,sans-Serif" font-size="11.00" fill="#000000">&lt; 1</text>
<polygon fill="#ffffff" stroke="transparent" points="257,-78.7 257,-97.7 336,-97.7 336,-78.7 257,-78.7"/>
<polygon fill="none" stroke="#000000" points="257,-78.7 257,-97.7 336,-97.7 336,-78.7 257,-78.7"/>
<text text-anchor="start" x="279.2089" y="-84.8" font-family="Helvetica,sans-Serif" font-size="11.00" fill="#000000">5,581 rows</text>
<polygon fill="#ffffff" stroke="transparent" points="336,-78.7 336,-97.7 507,-97.7 507,-78.7 336,-78.7"/>
<polygon fill="none" stroke="#000000" points="336,-78.7 336,-97.7 507,-97.7 507,-78.7 336,-78.7"/>
<text text-anchor="start" x="488.4053" y="-84.8" font-family="Helvetica,sans-Serif" font-size="11.00" fill="#000000">2 &gt;</text>
<polygon fill="none" stroke="#000000" stroke-width="2" points="216,-77.7 216,-319.7 508,-319.7 508,-77.7 216,-77.7"/>
</a>
</g>
</g>
<!-- STRUCTURE_COMMENTS&#45;&gt;STRUCTURES -->
<g id="edge1" class="edge">
<title>STRUCTURE_COMMENTS:w&#45;&gt;STRUCTURES:e</title>
<path fill="none" stroke="#000000" d="M553.0421,-366.0477C527.6492,-349.7781 547.4613,-284.7 507,-284.7"/>
<polygon fill="#000000" stroke="#000000" points="559.2606,-367.6748 566.0887,-373.1827 563.1303,-368.6874 567,-369.7 567,-369.7 567,-369.7 563.1303,-368.6874 567.9113,-366.2173 559.2606,-367.6748 559.2606,-367.6748"/>
<ellipse fill="none" stroke="#000000" cx="556.1648" cy="-366.8647" rx="3.2" ry="3.2"/>
</g>
<!-- ISOFORMS -->
<g id="node3" class="node">
<title>ISOFORMS</title>
<g id="a_node3"><a xlink:href="../../tables/ISOFORMS.html" xlink:title="ISOFORMS" target="_top">
<polygon fill="#ffffff" stroke="transparent" points="8,-38.2 8,-143.2 166,-143.2 166,-38.2 8,-38.2"/>
<polygon fill="#f5f5f5" stroke="transparent" points="8,-119.7 8,-142.7 166,-142.7 166,-119.7 8,-119.7"/>
<polygon fill="none" stroke="#000000" points="8,-119.7 8,-142.7 166,-142.7 166,-119.7 8,-119.7"/>
<text text-anchor="start" x="13" y="-128.8" font-family="Helvetica,sans-Serif" font-weight="bold" font-size="11.00" fill="#000000">ISOFORMS</text>
<text text-anchor="start" x="131.0437" y="-127.8" font-family="Helvetica,sans-Serif" font-size="11.00" fill="#000000">[table]</text>
<polygon fill="none" stroke="#000000" points="8,-97.7 8,-119.7 166,-119.7 166,-97.7 8,-97.7"/>
<image xlink:href="../../images/primaryKeys.png" width="11px" height="12px" preserveAspectRatio="xMinYMin meet" x="13" y="-114.7"/>
<text text-anchor="start" x="28" y="-104.8" font-family="Helvetica,sans-Serif" font-size="11.00" fill="#000000">ID</text>
<polygon fill="none" stroke="#000000" points="8,-75.7 8,-97.7 166,-97.7 166,-75.7 8,-75.7"/>
<image xlink:href="../../images/foreignKeys.png" width="11px" height="12px" preserveAspectRatio="xMinYMin meet" x="13" y="-92.7"/>
<text text-anchor="start" x="28" y="-82.8" font-family="Helvetica,sans-Serif" font-size="11.00" fill="#000000">TARGET_ID</text>
<polygon fill="none" stroke="#000000" points="8,-56.7 8,-75.7 166,-75.7 166,-56.7 8,-56.7"/>
<text text-anchor="start" x="11" y="-62.8" font-family="Helvetica,sans-Serif" font-size="11.00" fill="#000000">...</text>
<polygon fill="#ffffff" stroke="transparent" points="8,-37.7 8,-56.7 59,-56.7 59,-37.7 8,-37.7"/>
<polygon fill="none" stroke="#000000" points="8,-37.7 8,-56.7 59,-56.7 59,-37.7 8,-37.7"/>
<text text-anchor="start" x="11" y="-43.8" font-family="Helvetica,sans-Serif" font-size="11.00" fill="#000000">&lt; 1</text>
<polygon fill="#ffffff" stroke="transparent" points="59,-37.7 59,-56.7 124,-56.7 124,-37.7 59,-37.7"/>
<polygon fill="none" stroke="#000000" points="59,-37.7 59,-56.7 124,-56.7 124,-37.7 59,-37.7"/>
<text text-anchor="start" x="76.3807" y="-43.8" font-family="Helvetica,sans-Serif" font-size="11.00" fill="#000000">519 rows</text>
<polygon fill="#ffffff" stroke="transparent" points="124,-37.7 124,-56.7 166,-56.7 166,-37.7 124,-37.7"/>
<polygon fill="none" stroke="#000000" points="124,-37.7 124,-56.7 166,-56.7 166,-37.7 124,-37.7"/>
<text text-anchor="start" x="141.2904" y="-43.8" font-family="Helvetica,sans-Serif" font-size="11.00" fill="#000000">10 &gt;</text>
</a>
</g>
</g>
<!-- STRUCTURES&#45;&gt;ISOFORMS -->
<g id="edge2" class="edge">
<title>STRUCTURES:w&#45;&gt;ISOFORMS:e</title>
<path fill="none" stroke="#000000" d="M202.276,-108.7C190.2815,-108.7 182.8229,-108.7 166,-108.7"/>
<polygon fill="#000000" stroke="#000000" points="209,-108.7001 217,-112.3 213,-108.7 217,-108.7 217,-108.7 217,-108.7 213,-108.7 217,-105.1 209,-108.7001 209,-108.7001"/>
<ellipse fill="none" stroke="#000000" cx="205.8" cy="-108.7001" rx="3.2" ry="3.2"/>
</g>
<!-- STRUCTURES_REFERENCES -->
<g id="node4" class="node">
<title>STRUCTURES_REFERENCES</title>
<g id="a_node4"><a xlink:href="../../tables/STRUCTURES_REFERENCES.html" xlink:title="STRUCTURES_REFERENCES" target="_top">
<polygon fill="#ffffff" stroke="transparent" points="558,-151.2 558,-278.2 760,-278.2 760,-151.2 558,-151.2"/>
<polygon fill="#f5f5f5" stroke="transparent" points="558,-254.7 558,-277.7 760,-277.7 760,-254.7 558,-254.7"/>
<polygon fill="none" stroke="#000000" points="558,-254.7 558,-277.7 760,-277.7 760,-254.7 558,-254.7"/>
<text text-anchor="start" x="563" y="-263.8" font-family="Helvetica,sans-Serif" font-weight="bold" font-size="11.00" fill="#000000">STRUCTURES_REFERENCES</text>
<text text-anchor="start" x="725.0437" y="-262.8" font-family="Helvetica,sans-Serif" font-size="11.00" fill="#000000">[table]</text>
<polygon fill="none" stroke="#000000" points="558,-232.7 558,-254.7 760,-254.7 760,-232.7 558,-232.7"/>
<image xlink:href="../../images/primaryKeys.png" width="11px" height="12px" preserveAspectRatio="xMinYMin meet" x="563" y="-249.7"/>
<text text-anchor="start" x="578" y="-239.8" font-family="Helvetica,sans-Serif" font-size="11.00" fill="#000000">ID</text>
<polygon fill="none" stroke="#000000" points="558,-210.7 558,-232.7 760,-232.7 760,-210.7 558,-210.7"/>
<image xlink:href="../../images/foreignKeys.png" width="11px" height="12px" preserveAspectRatio="xMinYMin meet" x="563" y="-227.7"/>
<text text-anchor="start" x="578" y="-217.8" font-family="Helvetica,sans-Serif" font-size="11.00" fill="#000000">REFERENCE_ID</text>
<polygon fill="none" stroke="#000000" points="558,-188.7 558,-210.7 760,-210.7 760,-188.7 558,-188.7"/>
<image xlink:href="../../images/foreignKeys.png" width="11px" height="12px" preserveAspectRatio="xMinYMin meet" x="563" y="-205.7"/>
<text text-anchor="start" x="578" y="-195.8" font-family="Helvetica,sans-Serif" font-size="11.00" fill="#000000">STRUCTURE_ID</text>
<polygon fill="none" stroke="#000000" points="558,-169.7 558,-188.7 760,-188.7 760,-169.7 558,-169.7"/>
<text text-anchor="start" x="561" y="-175.8" font-family="Helvetica,sans-Serif" font-size="11.00" fill="#000000">...</text>
<polygon fill="#ffffff" stroke="transparent" points="558,-150.7 558,-169.7 644,-169.7 644,-150.7 558,-150.7"/>
<polygon fill="none" stroke="#000000" points="558,-150.7 558,-169.7 644,-169.7 644,-150.7 558,-150.7"/>
<text text-anchor="start" x="561" y="-156.8" font-family="Helvetica,sans-Serif" font-size="11.00" fill="#000000">&lt; 2</text>
<polygon fill="#ffffff" stroke="transparent" points="644,-150.7 644,-169.7 715,-169.7 715,-150.7 644,-150.7"/>
<polygon fill="none" stroke="#000000" points="644,-150.7 644,-169.7 715,-169.7 715,-150.7 644,-150.7"/>
<text text-anchor="start" x="679.6105" y="-156.8" font-family="Helvetica,sans-Serif" font-size="11.00" fill="#000000">6 rows</text>
<polygon fill="#ffffff" stroke="transparent" points="715,-150.7 715,-169.7 760,-169.7 760,-150.7 715,-150.7"/>
<polygon fill="none" stroke="#000000" points="715,-150.7 715,-169.7 760,-169.7 760,-150.7 715,-150.7"/>
<text text-anchor="start" x="750.8862" y="-156.8" font-family="Helvetica,sans-Serif" font-size="11.00" fill="#000000"> &#160;</text>
</a>
</g>
</g>
<!-- STRUCTURES_REFERENCES&#45;&gt;STRUCTURES -->
<g id="edge3" class="edge">
<title>STRUCTURES_REFERENCES:w&#45;&gt;STRUCTURES:e</title>
<path fill="none" stroke="#000000" d="M544.0669,-204.032C522.5746,-221.3534 545.0328,-284.7 507,-284.7"/>
<polygon fill="#000000" stroke="#000000" points="550.3607,-202.0752 559.0688,-203.1377 554.1804,-200.8876 558,-199.7 558,-199.7 558,-199.7 554.1804,-200.8876 556.9312,-196.2623 550.3607,-202.0752 550.3607,-202.0752"/>
<ellipse fill="none" stroke="#000000" cx="547.305" cy="-203.0253" rx="3.2" ry="3.2"/>
</g>
</g>
</svg>
