<?xml version="1.0" encoding="UTF-8" standalone="no"?>
<!DOCTYPE svg PUBLIC "-//W3C//DTD SVG 1.1//EN"
 "http://www.w3.org/Graphics/SVG/1.1/DTD/svg11.dtd">
<!-- Generated by graphviz version 2.40.1 (20161225.0304)
 -->
<!-- Title: twoDegreesRelationshipsDiagram Pages: 1 -->
<svg width="818pt" height="839pt"
 viewBox="0.00 0.00 818.00 839.20" xmlns="http://www.w3.org/2000/svg" xmlns:xlink="http://www.w3.org/1999/xlink">
<g id="graph0" class="graph" transform="scale(1 1) rotate(0) translate(4 835.2)">
<title>twoDegreesRelationshipsDiagram</title>
<polygon fill="#ffffff" stroke="transparent" points="-4,4 -4,-835.2 814,-835.2 814,4 -4,4"/>
<text text-anchor="middle" x="72.4936" y="-7.3" font-family="Helvetica,sans-Serif" font-size="11.00" fill="#000000">Generated by SchemaSpy</text>
<!-- CLONE_FORM_COMMENTS -->
<g id="node1" class="node">
<title>CLONE_FORM_COMMENTS</title>
<g id="a_node1"><a xlink:href="../../tables/CLONE_FORM_COMMENTS.html" xlink:title="CLONE_FORM_COMMENTS" target="_top">
<polygon fill="#ffffff" stroke="transparent" points="188,-38.2 188,-99.2 377,-99.2 377,-38.2 188,-38.2"/>
<polygon fill="#f5f5f5" stroke="transparent" points="188.5,-75.7 188.5,-98.7 377.5,-98.7 377.5,-75.7 188.5,-75.7"/>
<polygon fill="none" stroke="#000000" points="188.5,-75.7 188.5,-98.7 377.5,-98.7 377.5,-75.7 188.5,-75.7"/>
<text text-anchor="start" x="193.1735" y="-84.8" font-family="Helvetica,sans-Serif" font-weight="bold" font-size="11.00" fill="#000000">CLONE_FORM_COMMENTS</text>
<text text-anchor="start" x="343.0219" y="-83.8" font-family="Helvetica,sans-Serif" font-size="11.00" fill="#000000">[table]</text>
<polygon fill="none" stroke="#000000" points="188.5,-56.7 188.5,-75.7 377.5,-75.7 377.5,-56.7 188.5,-56.7"/>
<text text-anchor="start" x="191.5" y="-62.8" font-family="Helvetica,sans-Serif" font-size="11.00" fill="#000000">...</text>
<polygon fill="#ffffff" stroke="transparent" points="188.5,-37.7 188.5,-56.7 271.5,-56.7 271.5,-37.7 188.5,-37.7"/>
<polygon fill="none" stroke="#000000" points="188.5,-37.7 188.5,-56.7 271.5,-56.7 271.5,-37.7 188.5,-37.7"/>
<text text-anchor="start" x="191.5" y="-43.8" font-family="Helvetica,sans-Serif" font-size="11.00" fill="#000000">&lt; 2</text>
<polygon fill="#ffffff" stroke="transparent" points="271.5,-37.7 271.5,-56.7 334.5,-56.7 334.5,-37.7 271.5,-37.7"/>
<polygon fill="none" stroke="#000000" points="271.5,-37.7 271.5,-56.7 334.5,-56.7 334.5,-37.7 271.5,-37.7"/>
<text text-anchor="start" x="304.6105" y="-43.8" font-family="Helvetica,sans-Serif" font-size="11.00" fill="#000000">1 row</text>
<polygon fill="#ffffff" stroke="transparent" points="334.5,-37.7 334.5,-56.7 377.5,-56.7 377.5,-37.7 334.5,-37.7"/>
<polygon fill="none" stroke="#000000" points="334.5,-37.7 334.5,-56.7 377.5,-56.7 377.5,-37.7 334.5,-37.7"/>
<text text-anchor="start" x="368.3862" y="-43.8" font-family="Helvetica,sans-Serif" font-size="11.00" fill="#000000"> &#160;</text>
</a>
</g>
</g>
<!-- USERS -->
<g id="node2" class="node">
<title>USERS</title>
<g id="a_node2"><a xlink:href="../../tables/USERS.html" xlink:title="USERS" target="_top">
<polygon fill="#ffffff" stroke="transparent" points="8,-323.2 8,-428.2 122,-428.2 122,-323.2 8,-323.2"/>
<polygon fill="#f5f5f5" stroke="transparent" points="8,-404.7 8,-427.7 122,-427.7 122,-404.7 8,-404.7"/>
<polygon fill="none" stroke="#000000" points="8,-404.7 8,-427.7 122,-427.7 122,-404.7 8,-404.7"/>
<text text-anchor="start" x="13" y="-413.8" font-family="Helvetica,sans-Serif" font-weight="bold" font-size="11.00" fill="#000000">USERS</text>
<text text-anchor="start" x="87.0437" y="-412.8" font-family="Helvetica,sans-Serif" font-size="11.00" fill="#000000">[table]</text>
<polygon fill="none" stroke="#000000" points="8,-382.7 8,-404.7 122,-404.7 122,-382.7 8,-382.7"/>
<image xlink:href="../../images/primaryKeys.png" width="11px" height="12px" preserveAspectRatio="xMinYMin meet" x="13" y="-399.7"/>
<text text-anchor="start" x="28" y="-389.8" font-family="Helvetica,sans-Serif" font-size="11.00" fill="#000000">ID</text>
<polygon fill="none" stroke="#000000" points="8,-360.7 8,-382.7 122,-382.7 122,-360.7 8,-360.7"/>
<image xlink:href="../../images/primaryKeys.png" width="11px" height="12px" preserveAspectRatio="xMinYMin meet" x="13" y="-377.7"/>
<text text-anchor="start" x="28" y="-367.8" font-family="Helvetica,sans-Serif" font-size="11.00" fill="#000000">USERNAME</text>
<polygon fill="none" stroke="#000000" points="8,-341.7 8,-360.7 122,-360.7 122,-341.7 8,-341.7"/>
<text text-anchor="start" x="11" y="-347.8" font-family="Helvetica,sans-Serif" font-size="11.00" fill="#000000">...</text>
<polygon fill="#ffffff" stroke="transparent" points="8,-322.7 8,-341.7 38,-341.7 38,-322.7 8,-322.7"/>
<polygon fill="none" stroke="#000000" points="8,-322.7 8,-341.7 38,-341.7 38,-322.7 8,-322.7"/>
<text text-anchor="start" x="11" y="-328.8" font-family="Helvetica,sans-Serif" font-size="11.00" fill="#000000"> &#160;</text>
<polygon fill="#ffffff" stroke="transparent" points="38,-322.7 38,-341.7 91,-341.7 91,-322.7 38,-322.7"/>
<polygon fill="none" stroke="#000000" points="38,-322.7 38,-341.7 91,-341.7 91,-322.7 38,-322.7"/>
<text text-anchor="start" x="49.4956" y="-328.8" font-family="Helvetica,sans-Serif" font-size="11.00" fill="#000000">33 rows</text>
<polygon fill="#ffffff" stroke="transparent" points="91,-322.7 91,-341.7 122,-341.7 122,-322.7 91,-322.7"/>
<polygon fill="none" stroke="#000000" points="91,-322.7 91,-341.7 122,-341.7 122,-322.7 91,-322.7"/>
<text text-anchor="start" x="103.4053" y="-328.8" font-family="Helvetica,sans-Serif" font-size="11.00" fill="#000000">9 &gt;</text>
</a>
</g>
</g>
<!-- CLONE_FORM_COMMENTS&#45;&gt;USERS -->
<g id="edge1" class="edge">
<title>CLONE_FORM_COMMENTS:w&#45;&gt;USERS:e</title>
<path fill="none" stroke="#000000" d="M174.7119,-70.5912C125.197,-111.3933 190.9973,-393.7 122,-393.7"/>
<polygon fill="#000000" stroke="#000000" points="180.9603,-68.3747 189.7036,-69.0928 184.7302,-67.0373 188.5,-65.7 188.5,-65.7 188.5,-65.7 184.7302,-67.0373 187.2964,-62.3072 180.9603,-68.3747 180.9603,-68.3747"/>
<ellipse fill="none" stroke="#000000" cx="177.9445" cy="-69.4445" rx="3.2" ry="3.2"/>
</g>
<!-- ISOFORM_COMMENTS -->
<g id="node3" class="node">
<title>ISOFORM_COMMENTS</title>
<g id="a_node3"><a xlink:href="../../tables/ISOFORM_COMMENTS.html" xlink:title="ISOFORM_COMMENTS" target="_top">
<polygon fill="#ffffff" stroke="transparent" points="200.5,-640.2 200.5,-701.2 364.5,-701.2 364.5,-640.2 200.5,-640.2"/>
<polygon fill="#f5f5f5" stroke="transparent" points="200.5,-677.7 200.5,-700.7 364.5,-700.7 364.5,-677.7 200.5,-677.7"/>
<polygon fill="none" stroke="#000000" points="200.5,-677.7 200.5,-700.7 364.5,-700.7 364.5,-677.7 200.5,-677.7"/>
<text text-anchor="start" x="205.2008" y="-686.8" font-family="Helvetica,sans-Serif" font-weight="bold" font-size="11.00" fill="#000000">ISOFORM_COMMENTS</text>
<text text-anchor="start" x="330.0219" y="-685.8" font-family="Helvetica,sans-Serif" font-size="11.00" fill="#000000">[table]</text>
<polygon fill="none" stroke="#000000" points="200.5,-658.7 200.5,-677.7 364.5,-677.7 364.5,-658.7 200.5,-658.7"/>
<text text-anchor="start" x="203.5" y="-664.8" font-family="Helvetica,sans-Serif" font-size="11.00" fill="#000000">...</text>
<polygon fill="#ffffff" stroke="transparent" points="200.5,-639.7 200.5,-658.7 267.5,-658.7 267.5,-639.7 200.5,-639.7"/>
<polygon fill="none" stroke="#000000" points="200.5,-639.7 200.5,-658.7 267.5,-658.7 267.5,-639.7 200.5,-639.7"/>
<text text-anchor="start" x="203.5" y="-645.8" font-family="Helvetica,sans-Serif" font-size="11.00" fill="#000000">&lt; 2</text>
<polygon fill="#ffffff" stroke="transparent" points="267.5,-639.7 267.5,-658.7 328.5,-658.7 328.5,-639.7 267.5,-639.7"/>
<polygon fill="none" stroke="#000000" points="267.5,-639.7 267.5,-658.7 328.5,-658.7 328.5,-639.7 267.5,-639.7"/>
<text text-anchor="start" x="293.1105" y="-645.8" font-family="Helvetica,sans-Serif" font-size="11.00" fill="#000000">8 rows</text>
<polygon fill="#ffffff" stroke="transparent" points="328.5,-639.7 328.5,-658.7 364.5,-658.7 364.5,-639.7 328.5,-639.7"/>
<polygon fill="none" stroke="#000000" points="328.5,-639.7 328.5,-658.7 364.5,-658.7 364.5,-639.7 328.5,-639.7"/>
<text text-anchor="start" x="355.3862" y="-645.8" font-family="Helvetica,sans-Serif" font-size="11.00" fill="#000000"> &#160;</text>
</a>
</g>
</g>
<!-- ISOFORM_COMMENTS&#45;&gt;USERS -->
<g id="edge3" class="edge">
<title>ISOFORM_COMMENTS:w&#45;&gt;USERS:e</title>
<path fill="none" stroke="#000000" d="M186.1576,-664.7292C174.8193,-658.9863 171.145,-645.5226 163,-629.7 138.6372,-582.3725 175.23,-393.7 122,-393.7"/>
<polygon fill="#000000" stroke="#000000" points="192.6663,-666.0773 199.7698,-671.2252 196.5831,-666.8887 200.5,-667.7 200.5,-667.7 200.5,-667.7 196.5831,-666.8887 201.2302,-664.1748 192.6663,-666.0773 192.6663,-666.0773"/>
<ellipse fill="none" stroke="#000000" cx="189.5328" cy="-665.4283" rx="3.2" ry="3.2"/>
</g>
<!-- ISOFORMS -->
<g id="node4" class="node">
<title>ISOFORMS</title>
<g id="a_node4"><a xlink:href="../../tables/ISOFORMS.html" xlink:title="ISOFORMS" target="_top">
<polygon fill="#ffffff" stroke="transparent" points="14.5,-691.2 14.5,-752.2 115.5,-752.2 115.5,-691.2 14.5,-691.2"/>
<polygon fill="#f5f5f5" stroke="transparent" points="15,-728.7 15,-751.7 116,-751.7 116,-728.7 15,-728.7"/>
<polygon fill="none" stroke="#000000" points="15,-728.7 15,-751.7 116,-751.7 116,-728.7 15,-728.7"/>
<text text-anchor="start" x="19.6674" y="-737.8" font-family="Helvetica,sans-Serif" font-weight="bold" font-size="11.00" fill="#000000">ISOFORMS</text>
<text text-anchor="start" x="81.5219" y="-736.8" font-family="Helvetica,sans-Serif" font-size="11.00" fill="#000000">[table]</text>
<polygon fill="none" stroke="#000000" points="15,-709.7 15,-728.7 116,-728.7 116,-709.7 15,-709.7"/>
<text text-anchor="start" x="18" y="-715.8" font-family="Helvetica,sans-Serif" font-size="11.00" fill="#000000">...</text>
<polygon fill="#ffffff" stroke="transparent" points="15,-690.7 15,-709.7 37,-709.7 37,-690.7 15,-690.7"/>
<polygon fill="none" stroke="#000000" points="15,-690.7 15,-709.7 37,-709.7 37,-690.7 15,-690.7"/>
<text text-anchor="start" x="18" y="-696.8" font-family="Helvetica,sans-Serif" font-size="11.00" fill="#000000">&lt; 1</text>
<polygon fill="#ffffff" stroke="transparent" points="37,-690.7 37,-709.7 88,-709.7 88,-690.7 37,-690.7"/>
<polygon fill="none" stroke="#000000" points="37,-690.7 37,-709.7 88,-709.7 88,-690.7 37,-690.7"/>
<text text-anchor="start" x="40.3807" y="-696.8" font-family="Helvetica,sans-Serif" font-size="11.00" fill="#000000">519 rows</text>
<polygon fill="#ffffff" stroke="transparent" points="88,-690.7 88,-709.7 116,-709.7 116,-690.7 88,-690.7"/>
<polygon fill="none" stroke="#000000" points="88,-690.7 88,-709.7 116,-709.7 116,-690.7 88,-690.7"/>
<text text-anchor="start" x="91.2904" y="-696.8" font-family="Helvetica,sans-Serif" font-size="11.00" fill="#000000">10 &gt;</text>
</a>
</g>
</g>
<!-- ISOFORM_COMMENTS&#45;&gt;ISOFORMS -->
<g id="edge2" class="edge">
<title>ISOFORM_COMMENTS:w&#45;&gt;ISOFORMS:e</title>
<path fill="none" stroke="#000000" d="M186.0741,-669.8914C156.7063,-679.6531 154.3825,-718.7 116,-718.7"/>
<polygon fill="#000000" stroke="#000000" points="192.5907,-668.9015 201.0407,-671.2592 196.5454,-668.3008 200.5,-667.7 200.5,-667.7 200.5,-667.7 196.5454,-668.3008 199.9593,-664.1408 192.5907,-668.9015 192.5907,-668.9015"/>
<ellipse fill="none" stroke="#000000" cx="189.427" cy="-669.3821" rx="3.2" ry="3.2"/>
</g>
<!-- REFERENCES -->
<g id="node5" class="node">
<title>REFERENCES</title>
<g id="a_node5"><a xlink:href="../../tables/REFERENCES.html" xlink:title="REFERENCES" target="_top">
<polygon fill="#ffffff" stroke="transparent" points="223.5,-558.2 223.5,-619.2 341.5,-619.2 341.5,-558.2 223.5,-558.2"/>
<polygon fill="#f5f5f5" stroke="transparent" points="223.5,-595.7 223.5,-618.7 341.5,-618.7 341.5,-595.7 223.5,-595.7"/>
<polygon fill="none" stroke="#000000" points="223.5,-595.7 223.5,-618.7 341.5,-618.7 341.5,-595.7 223.5,-595.7"/>
<text text-anchor="start" x="228.4185" y="-604.8" font-family="Helvetica,sans-Serif" font-weight="bold" font-size="11.00" fill="#000000">REFERENCES</text>
<text text-anchor="start" x="307.0219" y="-603.8" font-family="Helvetica,sans-Serif" font-size="11.00" fill="#000000">[table]</text>
<polygon fill="none" stroke="#000000" points="223.5,-576.7 223.5,-595.7 341.5,-595.7 341.5,-576.7 223.5,-576.7"/>
<text text-anchor="start" x="226.5" y="-582.8" font-family="Helvetica,sans-Serif" font-size="11.00" fill="#000000">...</text>
<polygon fill="#ffffff" stroke="transparent" points="223.5,-557.7 223.5,-576.7 249.5,-576.7 249.5,-557.7 223.5,-557.7"/>
<polygon fill="none" stroke="#000000" points="223.5,-557.7 223.5,-576.7 249.5,-576.7 249.5,-557.7 223.5,-557.7"/>
<text text-anchor="start" x="226.5" y="-563.8" font-family="Helvetica,sans-Serif" font-size="11.00" fill="#000000">&lt; 1</text>
<polygon fill="#ffffff" stroke="transparent" points="249.5,-557.7 249.5,-576.7 311.5,-576.7 311.5,-557.7 249.5,-557.7"/>
<polygon fill="none" stroke="#000000" points="249.5,-557.7 249.5,-576.7 311.5,-576.7 311.5,-557.7 249.5,-557.7"/>
<text text-anchor="start" x="254.7089" y="-563.8" font-family="Helvetica,sans-Serif" font-size="11.00" fill="#000000">2,900 rows</text>
<polygon fill="#ffffff" stroke="transparent" points="311.5,-557.7 311.5,-576.7 341.5,-576.7 341.5,-557.7 311.5,-557.7"/>
<polygon fill="none" stroke="#000000" points="311.5,-557.7 311.5,-576.7 341.5,-576.7 341.5,-557.7 311.5,-557.7"/>
<text text-anchor="start" x="316.7904" y="-563.8" font-family="Helvetica,sans-Serif" font-size="11.00" fill="#000000">20 &gt;</text>
</a>
</g>
</g>
<!-- REFERENCES&#45;&gt;USERS -->
<g id="edge4" class="edge">
<title>REFERENCES:w&#45;&gt;USERS:e</title>
<path fill="none" stroke="#000000" d="M208.907,-584.5942C188.0769,-581.0367 178.5996,-568.8683 163,-547.7 120.9812,-490.6815 192.8286,-393.7 122,-393.7"/>
<polygon fill="#000000" stroke="#000000" points="215.5229,-585.0955 223.228,-589.2897 219.5114,-585.3977 223.5,-585.7 223.5,-585.7 223.5,-585.7 219.5114,-585.3977 223.772,-582.1103 215.5229,-585.0955 215.5229,-585.0955"/>
<ellipse fill="none" stroke="#000000" cx="212.332" cy="-584.8537" rx="3.2" ry="3.2"/>
</g>
<!-- STRUCTURE_COMMENTS -->
<g id="node6" class="node">
<title>STRUCTURE_COMMENTS</title>
<g id="a_node6"><a xlink:href="../../tables/STRUCTURE_COMMENTS.html" xlink:title="STRUCTURE_COMMENTS" target="_top">
<polygon fill="#ffffff" stroke="transparent" points="443,-470.7 443,-692.7 802,-692.7 802,-470.7 443,-470.7"/>
<polygon fill="#f5f5f5" stroke="transparent" points="445.5,-667.7 445.5,-690.7 800.5,-690.7 800.5,-667.7 445.5,-667.7"/>
<polygon fill="none" stroke="#000000" points="445.5,-667.7 445.5,-690.7 800.5,-690.7 800.5,-667.7 445.5,-667.7"/>
<text text-anchor="start" x="450.5" y="-676.8" font-family="Helvetica,sans-Serif" font-weight="bold" font-size="11.00" fill="#000000">STRUCTURE_COMMENTS</text>
<text text-anchor="start" x="765.5437" y="-675.8" font-family="Helvetica,sans-Serif" font-size="11.00" fill="#000000">[table]</text>
<polygon fill="none" stroke="#000000" points="445.5,-645.7 445.5,-667.7 629.5,-667.7 629.5,-645.7 445.5,-645.7"/>
<image xlink:href="../../images/primaryKeys.png" width="11px" height="12px" preserveAspectRatio="xMinYMin meet" x="450.5" y="-662.7"/>
<text text-anchor="start" x="465.5" y="-652.8" font-family="Helvetica,sans-Serif" font-size="11.00" fill="#000000">ID</text>
<polygon fill="none" stroke="#000000" points="629.5,-645.7 629.5,-667.7 800.5,-667.7 800.5,-645.7 629.5,-645.7"/>
<text text-anchor="start" x="632.5" y="-653.4" font-family="Helvetica,sans-Serif" font-size="11.00" fill="#000000">number[19]</text>
<polygon fill="none" stroke="#000000" points="445.5,-623.7 445.5,-645.7 629.5,-645.7 629.5,-623.7 445.5,-623.7"/>
<text text-anchor="start" x="465.5" y="-630.8" font-family="Helvetica,sans-Serif" font-size="11.00" fill="#000000">CREATED_AT</text>
<polygon fill="none" stroke="#000000" points="629.5,-623.7 629.5,-645.7 800.5,-645.7 800.5,-623.7 629.5,-623.7"/>
<text text-anchor="start" x="632.4896" y="-631.4" font-family="Helvetica,sans-Serif" font-size="11.00" fill="#000000">timestamp(6) with time zone[13,6]</text>
<polygon fill="none" stroke="#000000" points="445.5,-601.7 445.5,-623.7 629.5,-623.7 629.5,-601.7 445.5,-601.7"/>
<text text-anchor="start" x="465.5" y="-608.8" font-family="Helvetica,sans-Serif" font-size="11.00" fill="#000000">CREATED_BY</text>
<polygon fill="none" stroke="#000000" points="629.5,-601.7 629.5,-623.7 800.5,-623.7 800.5,-601.7 629.5,-601.7"/>
<text text-anchor="start" x="632.5" y="-609.4" font-family="Helvetica,sans-Serif" font-size="11.00" fill="#000000">number[19]</text>
<polygon fill="none" stroke="#000000" points="445.5,-579.7 445.5,-601.7 629.5,-601.7 629.5,-579.7 445.5,-579.7"/>
<text text-anchor="start" x="465.5" y="-586.8" font-family="Helvetica,sans-Serif" font-size="11.00" fill="#000000">UPDATED_AT</text>
<polygon fill="none" stroke="#000000" points="629.5,-579.7 629.5,-601.7 800.5,-601.7 800.5,-579.7 629.5,-579.7"/>
<text text-anchor="start" x="632.4896" y="-587.4" font-family="Helvetica,sans-Serif" font-size="11.00" fill="#000000">timestamp(6) with time zone[13,6]</text>
<polygon fill="none" stroke="#000000" points="445.5,-557.7 445.5,-579.7 629.5,-579.7 629.5,-557.7 445.5,-557.7"/>
<text text-anchor="start" x="465.5" y="-564.8" font-family="Helvetica,sans-Serif" font-size="11.00" fill="#000000">UPDATED_BY</text>
<polygon fill="none" stroke="#000000" points="629.5,-557.7 629.5,-579.7 800.5,-579.7 800.5,-557.7 629.5,-557.7"/>
<text text-anchor="start" x="632.5" y="-565.4" font-family="Helvetica,sans-Serif" font-size="11.00" fill="#000000">number[19]</text>
<polygon fill="none" stroke="#000000" points="445.5,-535.7 445.5,-557.7 629.5,-557.7 629.5,-535.7 445.5,-535.7"/>
<text text-anchor="start" x="465.5" y="-542.8" font-family="Helvetica,sans-Serif" font-size="11.00" fill="#000000">DESCRIPTION</text>
<polygon fill="none" stroke="#000000" points="629.5,-535.7 629.5,-557.7 800.5,-557.7 800.5,-535.7 629.5,-535.7"/>
<text text-anchor="start" x="632.5" y="-543.4" font-family="Helvetica,sans-Serif" font-size="11.00" fill="#000000">clob[4000]</text>
<polygon fill="none" stroke="#000000" points="445.5,-513.7 445.5,-535.7 629.5,-535.7 629.5,-513.7 445.5,-513.7"/>
<image xlink:href="../../images/foreignKeys.png" width="11px" height="12px" preserveAspectRatio="xMinYMin meet" x="450.5" y="-530.7"/>
<text text-anchor="start" x="465.5" y="-520.8" font-family="Helvetica,sans-Serif" font-size="11.00" fill="#000000">STRUCTURE_ID</text>
<polygon fill="none" stroke="#000000" points="629.5,-513.7 629.5,-535.7 800.5,-535.7 800.5,-513.7 629.5,-513.7"/>
<text text-anchor="start" x="632.5" y="-521.4" font-family="Helvetica,sans-Serif" font-size="11.00" fill="#000000">number[19]</text>
<polygon fill="none" stroke="#000000" points="445.5,-491.7 445.5,-513.7 629.5,-513.7 629.5,-491.7 445.5,-491.7"/>
<image xlink:href="../../images/foreignKeys.png" width="11px" height="12px" preserveAspectRatio="xMinYMin meet" x="450.5" y="-508.7"/>
<text text-anchor="start" x="465.5" y="-498.8" font-family="Helvetica,sans-Serif" font-size="11.00" fill="#000000">USER_ID</text>
<polygon fill="none" stroke="#000000" points="629.5,-491.7 629.5,-513.7 800.5,-513.7 800.5,-491.7 629.5,-491.7"/>
<text text-anchor="start" x="632.5" y="-499.4" font-family="Helvetica,sans-Serif" font-size="11.00" fill="#000000">number[19]</text>
<polygon fill="#ffffff" stroke="transparent" points="445.5,-472.7 445.5,-491.7 525.5,-491.7 525.5,-472.7 445.5,-472.7"/>
<polygon fill="none" stroke="#000000" points="445.5,-472.7 445.5,-491.7 525.5,-491.7 525.5,-472.7 445.5,-472.7"/>
<text text-anchor="start" x="448.5" y="-478.8" font-family="Helvetica,sans-Serif" font-size="11.00" fill="#000000">&lt; 2</text>
<polygon fill="#ffffff" stroke="transparent" points="525.5,-472.7 525.5,-491.7 629.5,-491.7 629.5,-472.7 525.5,-472.7"/>
<polygon fill="none" stroke="#000000" points="525.5,-472.7 525.5,-491.7 629.5,-491.7 629.5,-472.7 525.5,-472.7"/>
<text text-anchor="start" x="587.9956" y="-478.8" font-family="Helvetica,sans-Serif" font-size="11.00" fill="#000000">10 rows</text>
<polygon fill="#ffffff" stroke="transparent" points="629.5,-472.7 629.5,-491.7 800.5,-491.7 800.5,-472.7 629.5,-472.7"/>
<polygon fill="none" stroke="#000000" points="629.5,-472.7 629.5,-491.7 800.5,-491.7 800.5,-472.7 629.5,-472.7"/>
<text text-anchor="start" x="781.9053" y="-478.8" font-family="Helvetica,sans-Serif" font-size="11.00" fill="#000000">0 &gt;</text>
<polygon fill="none" stroke="#000000" stroke-width="2" points="444,-471.7 444,-691.7 801,-691.7 801,-471.7 444,-471.7"/>
</a>
</g>
</g>
<!-- STRUCTURE_COMMENTS&#45;&gt;USERS -->
<g id="edge6" class="edge">
<title>STRUCTURE_COMMENTS:w&#45;&gt;USERS:e</title>
<path fill="none" stroke="#000000" d="M431.5942,-498.5919C420.947,-490.6682 419.6344,-473.3797 402,-465.7 303.9461,-422.9981 258.4174,-486.0069 163,-437.7 139.1525,-425.6267 148.7296,-393.7 122,-393.7"/>
<polygon fill="#000000" stroke="#000000" points="437.8278,-500.4334 444.48,-506.1525 441.6639,-501.5667 445.5,-502.7 445.5,-502.7 445.5,-502.7 441.6639,-501.5667 446.52,-499.2475 437.8278,-500.4334 437.8278,-500.4334"/>
<ellipse fill="none" stroke="#000000" cx="434.7589" cy="-499.5268" rx="3.2" ry="3.2"/>
</g>
<!-- STRUCTURES -->
<g id="node7" class="node">
<title>STRUCTURES</title>
<g id="a_node7"><a xlink:href="../../tables/STRUCTURES.html" xlink:title="STRUCTURES" target="_top">
<polygon fill="#ffffff" stroke="transparent" points="223,-722.2 223,-827.2 342,-827.2 342,-722.2 223,-722.2"/>
<polygon fill="#f5f5f5" stroke="transparent" points="223.5,-803.7 223.5,-826.7 342.5,-826.7 342.5,-803.7 223.5,-803.7"/>
<polygon fill="none" stroke="#000000" points="223.5,-803.7 223.5,-826.7 342.5,-826.7 342.5,-803.7 223.5,-803.7"/>
<text text-anchor="start" x="228.5" y="-812.8" font-family="Helvetica,sans-Serif" font-weight="bold" font-size="11.00" fill="#000000">STRUCTURES</text>
<text text-anchor="start" x="308.0219" y="-811.8" font-family="Helvetica,sans-Serif" font-size="11.00" fill="#000000">[table]</text>
<polygon fill="none" stroke="#000000" points="223.5,-781.7 223.5,-803.7 342.5,-803.7 342.5,-781.7 223.5,-781.7"/>
<image xlink:href="../../images/primaryKeys.png" width="11px" height="12px" preserveAspectRatio="xMinYMin meet" x="228.5" y="-798.7"/>
<text text-anchor="start" x="243.5" y="-788.8" font-family="Helvetica,sans-Serif" font-size="11.00" fill="#000000">ID</text>
<polygon fill="none" stroke="#000000" points="223.5,-759.7 223.5,-781.7 342.5,-781.7 342.5,-759.7 223.5,-759.7"/>
<image xlink:href="../../images/foreignKeys.png" width="11px" height="12px" preserveAspectRatio="xMinYMin meet" x="228.5" y="-776.7"/>
<text text-anchor="start" x="243.5" y="-766.8" font-family="Helvetica,sans-Serif" font-size="11.00" fill="#000000">ISOFORM_ID</text>
<polygon fill="none" stroke="#000000" points="223.5,-740.7 223.5,-759.7 342.5,-759.7 342.5,-740.7 223.5,-740.7"/>
<text text-anchor="start" x="226.5" y="-746.8" font-family="Helvetica,sans-Serif" font-size="11.00" fill="#000000">...</text>
<polygon fill="#ffffff" stroke="transparent" points="223.5,-721.7 223.5,-740.7 253.5,-740.7 253.5,-721.7 223.5,-721.7"/>
<polygon fill="none" stroke="#000000" points="223.5,-721.7 223.5,-740.7 253.5,-740.7 253.5,-721.7 223.5,-721.7"/>
<text text-anchor="start" x="226.5" y="-727.8" font-family="Helvetica,sans-Serif" font-size="11.00" fill="#000000">&lt; 1</text>
<polygon fill="#ffffff" stroke="transparent" points="253.5,-721.7 253.5,-740.7 316.5,-740.7 316.5,-721.7 253.5,-721.7"/>
<polygon fill="none" stroke="#000000" points="253.5,-721.7 253.5,-740.7 316.5,-740.7 316.5,-721.7 253.5,-721.7"/>
<text text-anchor="start" x="259.7089" y="-727.8" font-family="Helvetica,sans-Serif" font-size="11.00" fill="#000000">5,581 rows</text>
<polygon fill="#ffffff" stroke="transparent" points="316.5,-721.7 316.5,-740.7 342.5,-740.7 342.5,-721.7 316.5,-721.7"/>
<polygon fill="none" stroke="#000000" points="316.5,-721.7 316.5,-740.7 342.5,-740.7 342.5,-721.7 316.5,-721.7"/>
<text text-anchor="start" x="323.9053" y="-727.8" font-family="Helvetica,sans-Serif" font-size="11.00" fill="#000000">2 &gt;</text>
</a>
</g>
</g>
<!-- STRUCTURE_COMMENTS&#45;&gt;STRUCTURES -->
<g id="edge5" class="edge">
<title>STRUCTURE_COMMENTS:w&#45;&gt;STRUCTURES:e</title>
<path fill="none" stroke="#000000" d="M430.9558,-526.0265C369.688,-538.6793 435.3554,-639.172 402,-711.7 383.3361,-752.2828 387.1689,-792.7 342.5,-792.7"/>
<polygon fill="#000000" stroke="#000000" points="437.5331,-525.4267 445.827,-528.2851 441.5165,-525.0633 445.5,-524.7 445.5,-524.7 445.5,-524.7 441.5165,-525.0633 445.173,-521.1149 437.5331,-525.4267 437.5331,-525.4267"/>
<ellipse fill="none" stroke="#000000" cx="434.3463" cy="-525.7173" rx="3.2" ry="3.2"/>
</g>
<!-- STRUCTURES&#45;&gt;ISOFORMS -->
<g id="edge7" class="edge">
<title>STRUCTURES:w&#45;&gt;ISOFORMS:e</title>
<path fill="none" stroke="#000000" d="M209.0773,-769.2549C169.6435,-760.8566 163.7872,-718.7 116,-718.7"/>
<polygon fill="#000000" stroke="#000000" points="215.5399,-769.9024 223.1411,-774.2821 219.5199,-770.3012 223.5,-770.7 223.5,-770.7 223.5,-770.7 219.5199,-770.3012 223.8589,-767.1179 215.5399,-769.9024 215.5399,-769.9024"/>
<ellipse fill="none" stroke="#000000" cx="212.3558" cy="-769.5834" rx="3.2" ry="3.2"/>
</g>
<!-- STRUCTURES_REFERENCES -->
<g id="node8" class="node">
<title>STRUCTURES_REFERENCES</title>
<g id="a_node8"><a xlink:href="../../tables/STRUCTURES_REFERENCES.html" xlink:title="STRUCTURES_REFERENCES" target="_top">
<polygon fill="#ffffff" stroke="transparent" points="523,-739.2 523,-800.2 722,-800.2 722,-739.2 523,-739.2"/>
<polygon fill="#f5f5f5" stroke="transparent" points="523.5,-776.7 523.5,-799.7 722.5,-799.7 722.5,-776.7 523.5,-776.7"/>
<polygon fill="none" stroke="#000000" points="523.5,-776.7 523.5,-799.7 722.5,-799.7 722.5,-776.7 523.5,-776.7"/>
<text text-anchor="start" x="528.2851" y="-785.8" font-family="Helvetica,sans-Serif" font-weight="bold" font-size="11.00" fill="#000000">STRUCTURES_REFERENCES</text>
<text text-anchor="start" x="688.0219" y="-784.8" font-family="Helvetica,sans-Serif" font-size="11.00" fill="#000000">[table]</text>
<polygon fill="none" stroke="#000000" points="523.5,-757.7 523.5,-776.7 722.5,-776.7 722.5,-757.7 523.5,-757.7"/>
<text text-anchor="start" x="526.5" y="-763.8" font-family="Helvetica,sans-Serif" font-size="11.00" fill="#000000">...</text>
<polygon fill="#ffffff" stroke="transparent" points="523.5,-738.7 523.5,-757.7 608.5,-757.7 608.5,-738.7 523.5,-738.7"/>
<polygon fill="none" stroke="#000000" points="523.5,-738.7 523.5,-757.7 608.5,-757.7 608.5,-738.7 523.5,-738.7"/>
<text text-anchor="start" x="526.5" y="-744.8" font-family="Helvetica,sans-Serif" font-size="11.00" fill="#000000">&lt; 2</text>
<polygon fill="#ffffff" stroke="transparent" points="608.5,-738.7 608.5,-757.7 678.5,-757.7 678.5,-738.7 608.5,-738.7"/>
<polygon fill="none" stroke="#000000" points="608.5,-738.7 608.5,-757.7 678.5,-757.7 678.5,-738.7 608.5,-738.7"/>
<text text-anchor="start" x="643.1105" y="-744.8" font-family="Helvetica,sans-Serif" font-size="11.00" fill="#000000">6 rows</text>
<polygon fill="#ffffff" stroke="transparent" points="678.5,-738.7 678.5,-757.7 722.5,-757.7 722.5,-738.7 678.5,-738.7"/>
<polygon fill="none" stroke="#000000" points="678.5,-738.7 678.5,-757.7 722.5,-757.7 722.5,-738.7 678.5,-738.7"/>
<text text-anchor="start" x="713.3862" y="-744.8" font-family="Helvetica,sans-Serif" font-size="11.00" fill="#000000"> &#160;</text>
</a>
</g>
</g>
<!-- STRUCTURES_REFERENCES&#45;&gt;REFERENCES -->
<g id="edge8" class="edge">
<title>STRUCTURES_REFERENCES:w&#45;&gt;REFERENCES:e</title>
<path fill="none" stroke="#000000" d="M508.9028,-765.7725C472.6766,-760.7915 462.3389,-736.1895 435,-702.7 412.4836,-675.118 424.4792,-657.3123 402,-629.7 381.0092,-603.916 374.748,-585.7 341.5,-585.7"/>
<polygon fill="#000000" stroke="#000000" points="515.5161,-766.1927 523.2717,-770.2928 519.5081,-766.4463 523.5,-766.7 523.5,-766.7 523.5,-766.7 519.5081,-766.4463 523.7283,-763.1072 515.5161,-766.1927 515.5161,-766.1927"/>
<ellipse fill="none" stroke="#000000" cx="512.3225" cy="-765.9897" rx="3.2" ry="3.2"/>
</g>
<!-- STRUCTURES_REFERENCES&#45;&gt;STRUCTURES -->
<g id="edge9" class="edge">
<title>STRUCTURES_REFERENCES:w&#45;&gt;STRUCTURES:e</title>
<path fill="none" stroke="#000000" d="M508.9672,-766.992C439.677,-769.8484 418.6908,-792.7 342.5,-792.7"/>
<polygon fill="#000000" stroke="#000000" points="515.5016,-766.8608 523.5723,-770.2993 519.5008,-766.7804 523.5,-766.7 523.5,-766.7 523.5,-766.7 519.5008,-766.7804 523.4277,-763.1007 515.5016,-766.8608 515.5016,-766.8608"/>
<ellipse fill="none" stroke="#000000" cx="512.3023" cy="-766.9251" rx="3.2" ry="3.2"/>
</g>
<!-- TARGET_FORM_COMMENTS -->
<g id="node9" class="node">
<title>TARGET_FORM_COMMENTS</title>
<g id="a_node9"><a xlink:href="../../tables/TARGET_FORM_COMMENTS.html" xlink:title="TARGET_FORM_COMMENTS" target="_top">
<polygon fill="#ffffff" stroke="transparent" points="184.5,-476.2 184.5,-537.2 380.5,-537.2 380.5,-476.2 184.5,-476.2"/>
<polygon fill="#f5f5f5" stroke="transparent" points="184.5,-513.7 184.5,-536.7 380.5,-536.7 380.5,-513.7 184.5,-513.7"/>
<polygon fill="none" stroke="#000000" points="184.5,-513.7 184.5,-536.7 380.5,-536.7 380.5,-513.7 184.5,-513.7"/>
<text text-anchor="start" x="189.3135" y="-522.8" font-family="Helvetica,sans-Serif" font-weight="bold" font-size="11.00" fill="#000000">TARGET_FORM_COMMENTS</text>
<text text-anchor="start" x="346.0219" y="-521.8" font-family="Helvetica,sans-Serif" font-size="11.00" fill="#000000">[table]</text>
<polygon fill="none" stroke="#000000" points="184.5,-494.7 184.5,-513.7 380.5,-513.7 380.5,-494.7 184.5,-494.7"/>
<text text-anchor="start" x="187.5" y="-500.8" font-family="Helvetica,sans-Serif" font-size="11.00" fill="#000000">...</text>
<polygon fill="#ffffff" stroke="transparent" points="184.5,-475.7 184.5,-494.7 267.5,-494.7 267.5,-475.7 184.5,-475.7"/>
<polygon fill="none" stroke="#000000" points="184.5,-475.7 184.5,-494.7 267.5,-494.7 267.5,-475.7 184.5,-475.7"/>
<text text-anchor="start" x="187.5" y="-481.8" font-family="Helvetica,sans-Serif" font-size="11.00" fill="#000000">&lt; 2</text>
<polygon fill="#ffffff" stroke="transparent" points="267.5,-475.7 267.5,-494.7 336.5,-494.7 336.5,-475.7 267.5,-475.7"/>
<polygon fill="none" stroke="#000000" points="267.5,-475.7 267.5,-494.7 336.5,-494.7 336.5,-475.7 267.5,-475.7"/>
<text text-anchor="start" x="301.1105" y="-481.8" font-family="Helvetica,sans-Serif" font-size="11.00" fill="#000000">3 rows</text>
<polygon fill="#ffffff" stroke="transparent" points="336.5,-475.7 336.5,-494.7 380.5,-494.7 380.5,-475.7 336.5,-475.7"/>
<polygon fill="none" stroke="#000000" points="336.5,-475.7 336.5,-494.7 380.5,-494.7 380.5,-475.7 336.5,-475.7"/>
<text text-anchor="start" x="371.3862" y="-481.8" font-family="Helvetica,sans-Serif" font-size="11.00" fill="#000000"> &#160;</text>
</a>
</g>
</g>
<!-- TARGET_FORM_COMMENTS&#45;&gt;USERS -->
<g id="edge10" class="edge">
<title>TARGET_FORM_COMMENTS:w&#45;&gt;USERS:e</title>
<path fill="none" stroke="#000000" d="M170.4311,-500.5265C137.3233,-482.4909 172.5185,-393.7 122,-393.7"/>
<polygon fill="#000000" stroke="#000000" points="176.6961,-501.9397 183.7078,-507.2118 180.598,-502.8198 184.5,-503.7 184.5,-503.7 184.5,-503.7 180.598,-502.8198 185.2922,-500.1882 176.6961,-501.9397 176.6961,-501.9397"/>
<ellipse fill="none" stroke="#000000" cx="173.5745" cy="-501.2355" rx="3.2" ry="3.2"/>
</g>
<!-- TARGETS_USERS -->
<g id="node10" class="node">
<title>TARGETS_USERS</title>
<g id="a_node10"><a xlink:href="../../tables/TARGETS_USERS.html" xlink:title="TARGETS_USERS" target="_top">
<polygon fill="#ffffff" stroke="transparent" points="213.5,-366.2 213.5,-427.2 351.5,-427.2 351.5,-366.2 213.5,-366.2"/>
<polygon fill="#f5f5f5" stroke="transparent" points="213.5,-403.7 213.5,-426.7 351.5,-426.7 351.5,-403.7 213.5,-403.7"/>
<polygon fill="none" stroke="#000000" points="213.5,-403.7 213.5,-426.7 351.5,-426.7 351.5,-403.7 213.5,-403.7"/>
<text text-anchor="start" x="218.0252" y="-412.8" font-family="Helvetica,sans-Serif" font-weight="bold" font-size="11.00" fill="#000000">TARGETS_USERS</text>
<text text-anchor="start" x="317.0219" y="-411.8" font-family="Helvetica,sans-Serif" font-size="11.00" fill="#000000">[table]</text>
<polygon fill="none" stroke="#000000" points="213.5,-384.7 213.5,-403.7 351.5,-403.7 351.5,-384.7 213.5,-384.7"/>
<text text-anchor="start" x="216.5" y="-390.8" font-family="Helvetica,sans-Serif" font-size="11.00" fill="#000000">...</text>
<polygon fill="#ffffff" stroke="transparent" points="213.5,-365.7 213.5,-384.7 264.5,-384.7 264.5,-365.7 213.5,-365.7"/>
<polygon fill="none" stroke="#000000" points="213.5,-365.7 213.5,-384.7 264.5,-384.7 264.5,-365.7 213.5,-365.7"/>
<text text-anchor="start" x="216.5" y="-371.8" font-family="Helvetica,sans-Serif" font-size="11.00" fill="#000000">&lt; 3</text>
<polygon fill="#ffffff" stroke="transparent" points="264.5,-365.7 264.5,-384.7 323.5,-384.7 323.5,-365.7 264.5,-365.7"/>
<polygon fill="none" stroke="#000000" points="264.5,-365.7 264.5,-384.7 323.5,-384.7 323.5,-365.7 264.5,-365.7"/>
<text text-anchor="start" x="281.9956" y="-371.8" font-family="Helvetica,sans-Serif" font-size="11.00" fill="#000000">35 rows</text>
<polygon fill="#ffffff" stroke="transparent" points="323.5,-365.7 323.5,-384.7 351.5,-384.7 351.5,-365.7 323.5,-365.7"/>
<polygon fill="none" stroke="#000000" points="323.5,-365.7 323.5,-384.7 351.5,-384.7 351.5,-365.7 323.5,-365.7"/>
<text text-anchor="start" x="342.3862" y="-371.8" font-family="Helvetica,sans-Serif" font-size="11.00" fill="#000000"> &#160;</text>
</a>
</g>
</g>
<!-- TARGETS_USERS&#45;&gt;USERS -->
<g id="edge11" class="edge">
<title>TARGETS_USERS:w&#45;&gt;USERS:e</title>
<path fill="none" stroke="#000000" d="M198.768,-393.7C169.5948,-393.7 157.2656,-393.7 122,-393.7"/>
<polygon fill="#000000" stroke="#000000" points="205.5,-393.7001 213.5,-397.3 209.5,-393.7 213.5,-393.7 213.5,-393.7 213.5,-393.7 209.5,-393.7 213.5,-390.1 205.5,-393.7001 205.5,-393.7001"/>
<ellipse fill="none" stroke="#000000" cx="202.3" cy="-393.7001" rx="3.2" ry="3.2"/>
</g>
<!-- TRACER_LIGANDS -->
<g id="node11" class="node">
<title>TRACER_LIGANDS</title>
<g id="a_node11"><a xlink:href="../../tables/TRACER_LIGANDS.html" xlink:title="TRACER_LIGANDS" target="_top">
<polygon fill="#ffffff" stroke="transparent" points="211.5,-284.2 211.5,-345.2 353.5,-345.2 353.5,-284.2 211.5,-284.2"/>
<polygon fill="#f5f5f5" stroke="transparent" points="211.5,-321.7 211.5,-344.7 353.5,-344.7 353.5,-321.7 211.5,-321.7"/>
<polygon fill="none" stroke="#000000" points="211.5,-321.7 211.5,-344.7 353.5,-344.7 353.5,-321.7 211.5,-321.7"/>
<text text-anchor="start" x="216.1942" y="-330.8" font-family="Helvetica,sans-Serif" font-weight="bold" font-size="11.00" fill="#000000">TRACER_LIGANDS</text>
<text text-anchor="start" x="319.0219" y="-329.8" font-family="Helvetica,sans-Serif" font-size="11.00" fill="#000000">[table]</text>
<polygon fill="none" stroke="#000000" points="211.5,-302.7 211.5,-321.7 353.5,-321.7 353.5,-302.7 211.5,-302.7"/>
<text text-anchor="start" x="214.5" y="-308.8" font-family="Helvetica,sans-Serif" font-size="11.00" fill="#000000">...</text>
<polygon fill="#ffffff" stroke="transparent" points="211.5,-283.7 211.5,-302.7 257.5,-302.7 257.5,-283.7 211.5,-283.7"/>
<polygon fill="none" stroke="#000000" points="211.5,-283.7 211.5,-302.7 257.5,-302.7 257.5,-283.7 211.5,-283.7"/>
<text text-anchor="start" x="214.5" y="-289.8" font-family="Helvetica,sans-Serif" font-size="11.00" fill="#000000">&lt; 3</text>
<polygon fill="#ffffff" stroke="transparent" points="257.5,-283.7 257.5,-302.7 319.5,-302.7 319.5,-283.7 257.5,-283.7"/>
<polygon fill="none" stroke="#000000" points="257.5,-283.7 257.5,-302.7 319.5,-302.7 319.5,-283.7 257.5,-283.7"/>
<text text-anchor="start" x="271.8807" y="-289.8" font-family="Helvetica,sans-Serif" font-size="11.00" fill="#000000">416 rows</text>
<polygon fill="#ffffff" stroke="transparent" points="319.5,-283.7 319.5,-302.7 353.5,-302.7 353.5,-283.7 319.5,-283.7"/>
<polygon fill="none" stroke="#000000" points="319.5,-283.7 319.5,-302.7 353.5,-302.7 353.5,-283.7 319.5,-283.7"/>
<text text-anchor="start" x="334.9053" y="-289.8" font-family="Helvetica,sans-Serif" font-size="11.00" fill="#000000">7 &gt;</text>
</a>
</g>
</g>
<!-- TRACER_LIGANDS&#45;&gt;USERS -->
<g id="edge12" class="edge">
<title>TRACER_LIGANDS:w&#45;&gt;USERS:e</title>
<path fill="none" stroke="#000000" d="M197.1633,-314.4686C182.2608,-321.3918 180.0938,-340.0254 163,-355.7 144.6881,-372.4916 146.8452,-393.7 122,-393.7"/>
<polygon fill="#000000" stroke="#000000" points="203.6451,-313.2169 212.1826,-315.2347 207.5726,-312.4585 211.5,-311.7 211.5,-311.7 211.5,-311.7 207.5726,-312.4585 210.8174,-308.1653 203.6451,-313.2169 203.6451,-313.2169"/>
<ellipse fill="none" stroke="#000000" cx="200.5032" cy="-313.8237" rx="3.2" ry="3.2"/>
</g>
<!-- TRACER_SYNTHESIS_REQUESTS -->
<g id="node12" class="node">
<title>TRACER_SYNTHESIS_REQUESTS</title>
<g id="a_node12"><a xlink:href="../../tables/TRACER_SYNTHESIS_REQUESTS.html" xlink:title="TRACER_SYNTHESIS_REQUESTS" target="_top">
<polygon fill="#ffffff" stroke="transparent" points="171,-202.2 171,-263.2 394,-263.2 394,-202.2 171,-202.2"/>
<polygon fill="#f5f5f5" stroke="transparent" points="171.5,-239.7 171.5,-262.7 394.5,-262.7 394.5,-239.7 171.5,-239.7"/>
<polygon fill="none" stroke="#000000" points="171.5,-239.7 171.5,-262.7 394.5,-262.7 394.5,-239.7 171.5,-239.7"/>
<text text-anchor="start" x="176.3578" y="-248.8" font-family="Helvetica,sans-Serif" font-weight="bold" font-size="11.00" fill="#000000">TRACER_SYNTHESIS_REQUESTS</text>
<text text-anchor="start" x="360.0219" y="-247.8" font-family="Helvetica,sans-Serif" font-size="11.00" fill="#000000">[table]</text>
<polygon fill="none" stroke="#000000" points="171.5,-220.7 171.5,-239.7 394.5,-239.7 394.5,-220.7 171.5,-220.7"/>
<text text-anchor="start" x="174.5" y="-226.8" font-family="Helvetica,sans-Serif" font-size="11.00" fill="#000000">...</text>
<polygon fill="#ffffff" stroke="transparent" points="171.5,-201.7 171.5,-220.7 263.5,-220.7 263.5,-201.7 171.5,-201.7"/>
<polygon fill="none" stroke="#000000" points="171.5,-201.7 171.5,-220.7 263.5,-220.7 263.5,-201.7 171.5,-201.7"/>
<text text-anchor="start" x="174.5" y="-207.8" font-family="Helvetica,sans-Serif" font-size="11.00" fill="#000000">&lt; 12</text>
<polygon fill="#ffffff" stroke="transparent" points="263.5,-201.7 263.5,-220.7 340.5,-220.7 340.5,-201.7 263.5,-201.7"/>
<polygon fill="none" stroke="#000000" points="263.5,-201.7 263.5,-220.7 340.5,-220.7 340.5,-201.7 263.5,-201.7"/>
<text text-anchor="start" x="298.9956" y="-207.8" font-family="Helvetica,sans-Serif" font-size="11.00" fill="#000000">21 rows</text>
<polygon fill="#ffffff" stroke="transparent" points="340.5,-201.7 340.5,-220.7 394.5,-220.7 394.5,-201.7 340.5,-201.7"/>
<polygon fill="none" stroke="#000000" points="340.5,-201.7 340.5,-220.7 394.5,-220.7 394.5,-201.7 340.5,-201.7"/>
<text text-anchor="start" x="375.9053" y="-207.8" font-family="Helvetica,sans-Serif" font-size="11.00" fill="#000000">2 &gt;</text>
</a>
</g>
</g>
<!-- TRACER_SYNTHESIS_REQUESTS&#45;&gt;USERS -->
<g id="edge13" class="edge">
<title>TRACER_SYNTHESIS_REQUESTS:w&#45;&gt;USERS:e</title>
<path fill="none" stroke="#000000" d="M157.0576,-232.4097C109.9822,-253.7328 192.3372,-393.7 122,-393.7"/>
<polygon fill="#000000" stroke="#000000" points="163.6372,-231.1753 172.1639,-233.2383 167.5686,-230.4376 171.5,-229.7 171.5,-229.7 171.5,-229.7 167.5686,-230.4376 170.8361,-226.1617 163.6372,-231.1753 163.6372,-231.1753"/>
<ellipse fill="none" stroke="#000000" cx="160.4921" cy="-231.7654" rx="3.2" ry="3.2"/>
</g>
<!-- USER_NOTIFICATION_SETTINGS -->
<g id="node13" class="node">
<title>USER_NOTIFICATION_SETTINGS</title>
<g id="a_node13"><a xlink:href="../../tables/USER_NOTIFICATION_SETTINGS.html" xlink:title="USER_NOTIFICATION_SETTINGS" target="_top">
<polygon fill="#ffffff" stroke="transparent" points="173.5,-120.2 173.5,-181.2 391.5,-181.2 391.5,-120.2 173.5,-120.2"/>
<polygon fill="#f5f5f5" stroke="transparent" points="173.5,-157.7 173.5,-180.7 391.5,-180.7 391.5,-157.7 173.5,-157.7"/>
<polygon fill="none" stroke="#000000" points="173.5,-157.7 173.5,-180.7 391.5,-180.7 391.5,-157.7 173.5,-157.7"/>
<text text-anchor="start" x="178.3058" y="-166.8" font-family="Helvetica,sans-Serif" font-weight="bold" font-size="11.00" fill="#000000">USER_NOTIFICATION_SETTINGS</text>
<text text-anchor="start" x="357.0219" y="-165.8" font-family="Helvetica,sans-Serif" font-size="11.00" fill="#000000">[table]</text>
<polygon fill="none" stroke="#000000" points="173.5,-138.7 173.5,-157.7 391.5,-157.7 391.5,-138.7 173.5,-138.7"/>
<text text-anchor="start" x="176.5" y="-144.8" font-family="Helvetica,sans-Serif" font-size="11.00" fill="#000000">...</text>
<polygon fill="#ffffff" stroke="transparent" points="173.5,-119.7 173.5,-138.7 264.5,-138.7 264.5,-119.7 173.5,-119.7"/>
<polygon fill="none" stroke="#000000" points="173.5,-119.7 173.5,-138.7 264.5,-138.7 264.5,-119.7 173.5,-119.7"/>
<text text-anchor="start" x="176.5" y="-125.8" font-family="Helvetica,sans-Serif" font-size="11.00" fill="#000000">&lt; 2</text>
<polygon fill="#ffffff" stroke="transparent" points="264.5,-119.7 264.5,-138.7 343.5,-138.7 343.5,-119.7 264.5,-119.7"/>
<polygon fill="none" stroke="#000000" points="264.5,-119.7 264.5,-138.7 343.5,-138.7 343.5,-119.7 264.5,-119.7"/>
<text text-anchor="start" x="301.9956" y="-125.8" font-family="Helvetica,sans-Serif" font-size="11.00" fill="#000000">19 rows</text>
<polygon fill="#ffffff" stroke="transparent" points="343.5,-119.7 343.5,-138.7 391.5,-138.7 391.5,-119.7 343.5,-119.7"/>
<polygon fill="none" stroke="#000000" points="343.5,-119.7 343.5,-138.7 391.5,-138.7 391.5,-119.7 343.5,-119.7"/>
<text text-anchor="start" x="382.3862" y="-125.8" font-family="Helvetica,sans-Serif" font-size="11.00" fill="#000000"> &#160;</text>
</a>
</g>
</g>
<!-- USER_NOTIFICATION_SETTINGS&#45;&gt;USERS -->
<g id="edge14" class="edge">
<title>USER_NOTIFICATION_SETTINGS:w&#45;&gt;USERS:e</title>
<path fill="none" stroke="#000000" d="M159.0997,-149.4023C77.9081,-171.1369 228.2493,-393.7 122,-393.7"/>
<polygon fill="#000000" stroke="#000000" points="165.5553,-148.6392 173.9226,-151.2751 169.5277,-148.1696 173.5,-147.7 173.5,-147.7 173.5,-147.7 169.5277,-148.1696 173.0774,-144.1249 165.5553,-148.6392 165.5553,-148.6392"/>
<ellipse fill="none" stroke="#000000" cx="162.3774" cy="-149.0149" rx="3.2" ry="3.2"/>
</g>
</g>
</svg>
