<?xml version="1.0" encoding="UTF-8" standalone="no"?>
<!DOCTYPE svg PUBLIC "-//W3C//DTD SVG 1.1//EN"
 "http://www.w3.org/Graphics/SVG/1.1/DTD/svg11.dtd">
<!-- Generated by graphviz version 2.40.1 (20161225.0304)
 -->
<!-- Title: oneDegreeRelationshipsDiagram Pages: 1 -->
<svg width="877pt" height="397pt"
 viewBox="0.00 0.00 877.00 397.20" xmlns="http://www.w3.org/2000/svg" xmlns:xlink="http://www.w3.org/1999/xlink">
<g id="graph0" class="graph" transform="scale(1 1) rotate(0) translate(4 393.2)">
<title>oneDegreeRelationshipsDiagram</title>
<polygon fill="#ffffff" stroke="transparent" points="-4,4 -4,-393.2 873,-393.2 873,4 -4,4"/>
<text text-anchor="middle" x="72.4936" y="-7.3" font-family="Helvetica,sans-Serif" font-size="11.00" fill="#000000">Generated by SchemaSpy</text>
<!-- SUBUNIT_DOMAINS -->
<g id="node1" class="node">
<title>SUBUNIT_DOMAINS</title>
<g id="a_node1"><a xlink:href="../../tables/SUBUNIT_DOMAINS.html" xlink:title="SUBUNIT_DOMAINS" target="_top">
<polygon fill="#ffffff" stroke="transparent" points="242,-98.7 242,-364.7 568,-364.7 568,-98.7 242,-98.7"/>
<polygon fill="#f5f5f5" stroke="transparent" points="244,-339.7 244,-362.7 566,-362.7 566,-339.7 244,-339.7"/>
<polygon fill="none" stroke="#000000" points="244,-339.7 244,-362.7 566,-362.7 566,-339.7 244,-339.7"/>
<text text-anchor="start" x="249" y="-348.8" font-family="Helvetica,sans-Serif" font-weight="bold" font-size="11.00" fill="#000000">SUBUNIT_DOMAINS</text>
<text text-anchor="start" x="531.0437" y="-347.8" font-family="Helvetica,sans-Serif" font-size="11.00" fill="#000000">[table]</text>
<polygon fill="none" stroke="#000000" points="244,-317.7 244,-339.7 395,-339.7 395,-317.7 244,-317.7"/>
<image xlink:href="../../images/primaryKeys.png" width="11px" height="12px" preserveAspectRatio="xMinYMin meet" x="249" y="-334.7"/>
<text text-anchor="start" x="264" y="-324.8" font-family="Helvetica,sans-Serif" font-size="11.00" fill="#000000">ID</text>
<polygon fill="none" stroke="#000000" points="395,-317.7 395,-339.7 566,-339.7 566,-317.7 395,-317.7"/>
<text text-anchor="start" x="398" y="-325.4" font-family="Helvetica,sans-Serif" font-size="11.00" fill="#000000">number[19]</text>
<polygon fill="none" stroke="#000000" points="244,-295.7 244,-317.7 395,-317.7 395,-295.7 244,-295.7"/>
<text text-anchor="start" x="264" y="-302.8" font-family="Helvetica,sans-Serif" font-size="11.00" fill="#000000">CREATED_AT</text>
<polygon fill="none" stroke="#000000" points="395,-295.7 395,-317.7 566,-317.7 566,-295.7 395,-295.7"/>
<text text-anchor="start" x="397.9896" y="-303.4" font-family="Helvetica,sans-Serif" font-size="11.00" fill="#000000">timestamp(6) with time zone[13,6]</text>
<polygon fill="none" stroke="#000000" points="244,-273.7 244,-295.7 395,-295.7 395,-273.7 244,-273.7"/>
<text text-anchor="start" x="264" y="-280.8" font-family="Helvetica,sans-Serif" font-size="11.00" fill="#000000">CREATED_BY</text>
<polygon fill="none" stroke="#000000" points="395,-273.7 395,-295.7 566,-295.7 566,-273.7 395,-273.7"/>
<text text-anchor="start" x="398" y="-281.4" font-family="Helvetica,sans-Serif" font-size="11.00" fill="#000000">number[19]</text>
<polygon fill="none" stroke="#000000" points="244,-251.7 244,-273.7 395,-273.7 395,-251.7 244,-251.7"/>
<text text-anchor="start" x="264" y="-258.8" font-family="Helvetica,sans-Serif" font-size="11.00" fill="#000000">UPDATED_AT</text>
<polygon fill="none" stroke="#000000" points="395,-251.7 395,-273.7 566,-273.7 566,-251.7 395,-251.7"/>
<text text-anchor="start" x="397.9896" y="-259.4" font-family="Helvetica,sans-Serif" font-size="11.00" fill="#000000">timestamp(6) with time zone[13,6]</text>
<polygon fill="none" stroke="#000000" points="244,-229.7 244,-251.7 395,-251.7 395,-229.7 244,-229.7"/>
<text text-anchor="start" x="264" y="-236.8" font-family="Helvetica,sans-Serif" font-size="11.00" fill="#000000">UPDATED_BY</text>
<polygon fill="none" stroke="#000000" points="395,-229.7 395,-251.7 566,-251.7 566,-229.7 395,-229.7"/>
<text text-anchor="start" x="398" y="-237.4" font-family="Helvetica,sans-Serif" font-size="11.00" fill="#000000">number[19]</text>
<polygon fill="none" stroke="#000000" points="244,-207.7 244,-229.7 395,-229.7 395,-207.7 244,-207.7"/>
<text text-anchor="start" x="264" y="-214.8" font-family="Helvetica,sans-Serif" font-size="11.00" fill="#000000">START_RANGE</text>
<polygon fill="none" stroke="#000000" points="395,-207.7 395,-229.7 566,-229.7 566,-207.7 395,-207.7"/>
<text text-anchor="start" x="398" y="-215.4" font-family="Helvetica,sans-Serif" font-size="11.00" fill="#000000">number[19]</text>
<polygon fill="none" stroke="#000000" points="244,-185.7 244,-207.7 395,-207.7 395,-185.7 244,-185.7"/>
<text text-anchor="start" x="264" y="-192.8" font-family="Helvetica,sans-Serif" font-size="11.00" fill="#000000">END_RANGE</text>
<polygon fill="none" stroke="#000000" points="395,-185.7 395,-207.7 566,-207.7 566,-185.7 395,-185.7"/>
<text text-anchor="start" x="398" y="-193.4" font-family="Helvetica,sans-Serif" font-size="11.00" fill="#000000">number[19]</text>
<polygon fill="none" stroke="#000000" points="244,-163.7 244,-185.7 395,-185.7 395,-163.7 244,-163.7"/>
<text text-anchor="start" x="264" y="-170.8" font-family="Helvetica,sans-Serif" font-size="11.00" fill="#000000">COLOR</text>
<polygon fill="none" stroke="#000000" points="395,-163.7 395,-185.7 566,-185.7 566,-163.7 395,-163.7"/>
<text text-anchor="start" x="398" y="-171.4" font-family="Helvetica,sans-Serif" font-size="11.00" fill="#000000">varchar2[255]</text>
<polygon fill="none" stroke="#000000" points="244,-141.7 244,-163.7 395,-163.7 395,-141.7 244,-141.7"/>
<text text-anchor="start" x="264" y="-148.8" font-family="Helvetica,sans-Serif" font-size="11.00" fill="#000000">TITLE</text>
<polygon fill="none" stroke="#000000" points="395,-141.7 395,-163.7 566,-163.7 566,-141.7 395,-141.7"/>
<text text-anchor="start" x="398" y="-149.4" font-family="Helvetica,sans-Serif" font-size="11.00" fill="#000000">varchar2[255]</text>
<polygon fill="none" stroke="#000000" points="244,-119.7 244,-141.7 395,-141.7 395,-119.7 244,-119.7"/>
<image xlink:href="../../images/foreignKeys.png" width="11px" height="12px" preserveAspectRatio="xMinYMin meet" x="249" y="-136.7"/>
<text text-anchor="start" x="264" y="-126.8" font-family="Helvetica,sans-Serif" font-size="11.00" fill="#000000">SUBUNIT_ID</text>
<polygon fill="none" stroke="#000000" points="395,-119.7 395,-141.7 566,-141.7 566,-119.7 395,-119.7"/>
<text text-anchor="start" x="398" y="-127.4" font-family="Helvetica,sans-Serif" font-size="11.00" fill="#000000">number[19]</text>
<polygon fill="#ffffff" stroke="transparent" points="244,-100.7 244,-119.7 311,-119.7 311,-100.7 244,-100.7"/>
<polygon fill="none" stroke="#000000" points="244,-100.7 244,-119.7 311,-119.7 311,-100.7 244,-100.7"/>
<text text-anchor="start" x="247" y="-106.8" font-family="Helvetica,sans-Serif" font-size="11.00" fill="#000000">&lt; 1</text>
<polygon fill="#ffffff" stroke="transparent" points="311,-100.7 311,-119.7 395,-119.7 395,-100.7 311,-100.7"/>
<polygon fill="none" stroke="#000000" points="311,-100.7 311,-119.7 395,-119.7 395,-100.7 311,-100.7"/>
<text text-anchor="start" x="359.6105" y="-106.8" font-family="Helvetica,sans-Serif" font-size="11.00" fill="#000000">0 rows</text>
<polygon fill="#ffffff" stroke="transparent" points="395,-100.7 395,-119.7 566,-119.7 566,-100.7 395,-100.7"/>
<polygon fill="none" stroke="#000000" points="395,-100.7 395,-119.7 566,-119.7 566,-100.7 395,-100.7"/>
<text text-anchor="start" x="547.4053" y="-106.8" font-family="Helvetica,sans-Serif" font-size="11.00" fill="#000000">1 &gt;</text>
<polygon fill="none" stroke="#000000" stroke-width="2" points="243,-99.7 243,-363.7 567,-363.7 567,-99.7 243,-99.7"/>
</a>
</g>
</g>
<!-- SUBUNITS -->
<g id="node2" class="node">
<title>SUBUNITS</title>
<g id="a_node2"><a xlink:href="../../tables/SUBUNITS.html" xlink:title="SUBUNITS" target="_top">
<polygon fill="#ffffff" stroke="transparent" points="8,-38.2 8,-165.2 193,-165.2 193,-38.2 8,-38.2"/>
<polygon fill="#f5f5f5" stroke="transparent" points="8.5,-141.7 8.5,-164.7 193.5,-164.7 193.5,-141.7 8.5,-141.7"/>
<polygon fill="none" stroke="#000000" points="8.5,-141.7 8.5,-164.7 193.5,-164.7 193.5,-141.7 8.5,-141.7"/>
<text text-anchor="start" x="13.5" y="-150.8" font-family="Helvetica,sans-Serif" font-weight="bold" font-size="11.00" fill="#000000">SUBUNITS</text>
<text text-anchor="start" x="158.5437" y="-149.8" font-family="Helvetica,sans-Serif" font-size="11.00" fill="#000000">[table]</text>
<polygon fill="none" stroke="#000000" points="8.5,-119.7 8.5,-141.7 193.5,-141.7 193.5,-119.7 8.5,-119.7"/>
<image xlink:href="../../images/primaryKeys.png" width="11px" height="12px" preserveAspectRatio="xMinYMin meet" x="13.5" y="-136.7"/>
<text text-anchor="start" x="28.5" y="-126.8" font-family="Helvetica,sans-Serif" font-size="11.00" fill="#000000">ID</text>
<polygon fill="none" stroke="#000000" points="8.5,-97.7 8.5,-119.7 193.5,-119.7 193.5,-97.7 8.5,-97.7"/>
<image xlink:href="../../images/foreignKeys.png" width="11px" height="12px" preserveAspectRatio="xMinYMin meet" x="13.5" y="-114.7"/>
<text text-anchor="start" x="28.5" y="-104.8" font-family="Helvetica,sans-Serif" font-size="11.00" fill="#000000">TARGET_ID</text>
<polygon fill="none" stroke="#000000" points="8.5,-75.7 8.5,-97.7 193.5,-97.7 193.5,-75.7 8.5,-75.7"/>
<image xlink:href="../../images/foreignKeys.png" width="11px" height="12px" preserveAspectRatio="xMinYMin meet" x="13.5" y="-92.7"/>
<text text-anchor="start" x="28.5" y="-82.8" font-family="Helvetica,sans-Serif" font-size="11.00" fill="#000000">SUBUNIT_TYPE_ID</text>
<polygon fill="none" stroke="#000000" points="8.5,-56.7 8.5,-75.7 193.5,-75.7 193.5,-56.7 8.5,-56.7"/>
<text text-anchor="start" x="11.5" y="-62.8" font-family="Helvetica,sans-Serif" font-size="11.00" fill="#000000">...</text>
<polygon fill="#ffffff" stroke="transparent" points="8.5,-37.7 8.5,-56.7 81.5,-56.7 81.5,-37.7 8.5,-37.7"/>
<polygon fill="none" stroke="#000000" points="8.5,-37.7 8.5,-56.7 81.5,-56.7 81.5,-37.7 8.5,-37.7"/>
<text text-anchor="start" x="11.5" y="-43.8" font-family="Helvetica,sans-Serif" font-size="11.00" fill="#000000">&lt; 2</text>
<polygon fill="#ffffff" stroke="transparent" points="81.5,-37.7 81.5,-56.7 145.5,-56.7 145.5,-37.7 81.5,-37.7"/>
<polygon fill="none" stroke="#000000" points="81.5,-37.7 81.5,-56.7 145.5,-56.7 145.5,-37.7 81.5,-37.7"/>
<text text-anchor="start" x="110.1105" y="-43.8" font-family="Helvetica,sans-Serif" font-size="11.00" fill="#000000">0 rows</text>
<polygon fill="#ffffff" stroke="transparent" points="145.5,-37.7 145.5,-56.7 193.5,-56.7 193.5,-37.7 145.5,-37.7"/>
<polygon fill="none" stroke="#000000" points="145.5,-37.7 145.5,-56.7 193.5,-56.7 193.5,-37.7 145.5,-37.7"/>
<text text-anchor="start" x="174.9053" y="-43.8" font-family="Helvetica,sans-Serif" font-size="11.00" fill="#000000">3 &gt;</text>
</a>
</g>
</g>
<!-- SUBUNIT_DOMAINS&#45;&gt;SUBUNITS -->
<g id="edge1" class="edge">
<title>SUBUNIT_DOMAINS:w&#45;&gt;SUBUNITS:e</title>
<path fill="none" stroke="#000000" d="M229.4203,-130.7C217.5435,-130.7 210.158,-130.7 193.5,-130.7"/>
<polygon fill="#000000" stroke="#000000" points="236,-130.7001 244,-134.3 240,-130.7 244,-130.7 244,-130.7 244,-130.7 240,-130.7 244,-127.1 236,-130.7001 236,-130.7001"/>
<ellipse fill="none" stroke="#000000" cx="232.8" cy="-130.7001" rx="3.2" ry="3.2"/>
</g>
<!-- SUBUNIT_DOMAINS_REFERENCES -->
<g id="node3" class="node">
<title>SUBUNIT_DOMAINS_REFERENCES</title>
<g id="a_node3"><a xlink:href="../../tables/SUBUNIT_DOMAINS_REFERENCES.html" xlink:title="SUBUNIT_DOMAINS_REFERENCES" target="_top">
<polygon fill="#ffffff" stroke="transparent" points="617,-258.2 617,-385.2 861,-385.2 861,-258.2 617,-258.2"/>
<polygon fill="#f5f5f5" stroke="transparent" points="617,-361.7 617,-384.7 861,-384.7 861,-361.7 617,-361.7"/>
<polygon fill="none" stroke="#000000" points="617,-361.7 617,-384.7 861,-384.7 861,-361.7 617,-361.7"/>
<text text-anchor="start" x="622" y="-370.8" font-family="Helvetica,sans-Serif" font-weight="bold" font-size="11.00" fill="#000000">SUBUNIT_DOMAINS_REFERENCES</text>
<text text-anchor="start" x="826.0437" y="-369.8" font-family="Helvetica,sans-Serif" font-size="11.00" fill="#000000">[table]</text>
<polygon fill="none" stroke="#000000" points="617,-339.7 617,-361.7 861,-361.7 861,-339.7 617,-339.7"/>
<image xlink:href="../../images/primaryKeys.png" width="11px" height="12px" preserveAspectRatio="xMinYMin meet" x="622" y="-356.7"/>
<text text-anchor="start" x="637" y="-346.8" font-family="Helvetica,sans-Serif" font-size="11.00" fill="#000000">ID</text>
<polygon fill="none" stroke="#000000" points="617,-317.7 617,-339.7 861,-339.7 861,-317.7 617,-317.7"/>
<image xlink:href="../../images/foreignKeys.png" width="11px" height="12px" preserveAspectRatio="xMinYMin meet" x="622" y="-334.7"/>
<text text-anchor="start" x="637" y="-324.8" font-family="Helvetica,sans-Serif" font-size="11.00" fill="#000000">SUBUNIT_DOMAIN_ID</text>
<polygon fill="none" stroke="#000000" points="617,-295.7 617,-317.7 861,-317.7 861,-295.7 617,-295.7"/>
<image xlink:href="../../images/foreignKeys.png" width="11px" height="12px" preserveAspectRatio="xMinYMin meet" x="622" y="-312.7"/>
<text text-anchor="start" x="637" y="-302.8" font-family="Helvetica,sans-Serif" font-size="11.00" fill="#000000">REFERENCE_ID</text>
<polygon fill="none" stroke="#000000" points="617,-276.7 617,-295.7 861,-295.7 861,-276.7 617,-276.7"/>
<text text-anchor="start" x="620" y="-282.8" font-family="Helvetica,sans-Serif" font-size="11.00" fill="#000000">...</text>
<polygon fill="#ffffff" stroke="transparent" points="617,-257.7 617,-276.7 724,-276.7 724,-257.7 617,-257.7"/>
<polygon fill="none" stroke="#000000" points="617,-257.7 617,-276.7 724,-276.7 724,-257.7 617,-257.7"/>
<text text-anchor="start" x="620" y="-263.8" font-family="Helvetica,sans-Serif" font-size="11.00" fill="#000000">&lt; 2</text>
<polygon fill="#ffffff" stroke="transparent" points="724,-257.7 724,-276.7 805,-276.7 805,-257.7 724,-257.7"/>
<polygon fill="none" stroke="#000000" points="724,-257.7 724,-276.7 805,-276.7 805,-257.7 724,-257.7"/>
<text text-anchor="start" x="769.6105" y="-263.8" font-family="Helvetica,sans-Serif" font-size="11.00" fill="#000000">0 rows</text>
<polygon fill="#ffffff" stroke="transparent" points="805,-257.7 805,-276.7 861,-276.7 861,-257.7 805,-257.7"/>
<polygon fill="none" stroke="#000000" points="805,-257.7 805,-276.7 861,-276.7 861,-257.7 805,-257.7"/>
<text text-anchor="start" x="851.8862" y="-263.8" font-family="Helvetica,sans-Serif" font-size="11.00" fill="#000000"> &#160;</text>
</a>
</g>
</g>
<!-- SUBUNIT_DOMAINS_REFERENCES&#45;&gt;SUBUNIT_DOMAINS -->
<g id="edge2" class="edge">
<title>SUBUNIT_DOMAINS_REFERENCES:w&#45;&gt;SUBUNIT_DOMAINS:e</title>
<path fill="none" stroke="#000000" d="M602.276,-328.7C590.2815,-328.7 582.8229,-328.7 566,-328.7"/>
<polygon fill="#000000" stroke="#000000" points="609,-328.7001 617,-332.3 613,-328.7 617,-328.7 617,-328.7 617,-328.7 613,-328.7 617,-325.1 609,-328.7001 609,-328.7001"/>
<ellipse fill="none" stroke="#000000" cx="605.8" cy="-328.7001" rx="3.2" ry="3.2"/>
</g>
</g>
</svg>
