<?xml version="1.0" encoding="UTF-8" standalone="no"?>
<!DOCTYPE svg PUBLIC "-//W3C//DTD SVG 1.1//EN"
 "http://www.w3.org/Graphics/SVG/1.1/DTD/svg11.dtd">
<!-- Generated by graphviz version 2.40.1 (20161225.0304)
 -->
<!-- Title: oneDegreeRelationshipsDiagram Pages: 1 -->
<svg width="643pt" height="341pt"
 viewBox="0.00 0.00 643.00 340.70" xmlns="http://www.w3.org/2000/svg" xmlns:xlink="http://www.w3.org/1999/xlink">
<g id="graph0" class="graph" transform="scale(1 1) rotate(0) translate(4 336.7)">
<title>oneDegreeRelationshipsDiagram</title>
<polygon fill="#ffffff" stroke="transparent" points="-4,4 -4,-336.7 639,-336.7 639,4 -4,4"/>
<text text-anchor="middle" x="72.4936" y="-7.3" font-family="Helvetica,sans-Serif" font-size="11.00" fill="#000000">Generated by SchemaSpy</text>
<!-- SUBUNIT_DOMAINS_REFERENCES -->
<g id="node1" class="node">
<title>SUBUNIT_DOMAINS_REFERENCES</title>
<g id="a_node1"><a xlink:href="../../tables/SUBUNIT_DOMAINS_REFERENCES.html" xlink:title="SUBUNIT_DOMAINS_REFERENCES" target="_top">
<polygon fill="#ffffff" stroke="transparent" points="208,-128.7 208,-328.7 627,-328.7 627,-128.7 208,-128.7"/>
<polygon fill="#f5f5f5" stroke="transparent" points="210.5,-303.7 210.5,-326.7 625.5,-326.7 625.5,-303.7 210.5,-303.7"/>
<polygon fill="none" stroke="#000000" points="210.5,-303.7 210.5,-326.7 625.5,-326.7 625.5,-303.7 210.5,-303.7"/>
<text text-anchor="start" x="215.5" y="-312.8" font-family="Helvetica,sans-Serif" font-weight="bold" font-size="11.00" fill="#000000">SUBUNIT_DOMAINS_REFERENCES</text>
<text text-anchor="start" x="590.5437" y="-311.8" font-family="Helvetica,sans-Serif" font-size="11.00" fill="#000000">[table]</text>
<polygon fill="none" stroke="#000000" points="210.5,-281.7 210.5,-303.7 454.5,-303.7 454.5,-281.7 210.5,-281.7"/>
<image xlink:href="../../images/primaryKeys.png" width="11px" height="12px" preserveAspectRatio="xMinYMin meet" x="215.5" y="-298.7"/>
<text text-anchor="start" x="230.5" y="-288.8" font-family="Helvetica,sans-Serif" font-size="11.00" fill="#000000">ID</text>
<polygon fill="none" stroke="#000000" points="454.5,-281.7 454.5,-303.7 625.5,-303.7 625.5,-281.7 454.5,-281.7"/>
<text text-anchor="start" x="457.5" y="-289.4" font-family="Helvetica,sans-Serif" font-size="11.00" fill="#000000">number[19]</text>
<polygon fill="none" stroke="#000000" points="210.5,-259.7 210.5,-281.7 454.5,-281.7 454.5,-259.7 210.5,-259.7"/>
<text text-anchor="start" x="230.5" y="-266.8" font-family="Helvetica,sans-Serif" font-size="11.00" fill="#000000">CREATED_AT</text>
<polygon fill="none" stroke="#000000" points="454.5,-259.7 454.5,-281.7 625.5,-281.7 625.5,-259.7 454.5,-259.7"/>
<text text-anchor="start" x="457.4896" y="-267.4" font-family="Helvetica,sans-Serif" font-size="11.00" fill="#000000">timestamp(6) with time zone[13,6]</text>
<polygon fill="none" stroke="#000000" points="210.5,-237.7 210.5,-259.7 454.5,-259.7 454.5,-237.7 210.5,-237.7"/>
<text text-anchor="start" x="230.5" y="-244.8" font-family="Helvetica,sans-Serif" font-size="11.00" fill="#000000">CREATED_BY</text>
<polygon fill="none" stroke="#000000" points="454.5,-237.7 454.5,-259.7 625.5,-259.7 625.5,-237.7 454.5,-237.7"/>
<text text-anchor="start" x="457.5" y="-245.4" font-family="Helvetica,sans-Serif" font-size="11.00" fill="#000000">number[19]</text>
<polygon fill="none" stroke="#000000" points="210.5,-215.7 210.5,-237.7 454.5,-237.7 454.5,-215.7 210.5,-215.7"/>
<text text-anchor="start" x="230.5" y="-222.8" font-family="Helvetica,sans-Serif" font-size="11.00" fill="#000000">UPDATED_AT</text>
<polygon fill="none" stroke="#000000" points="454.5,-215.7 454.5,-237.7 625.5,-237.7 625.5,-215.7 454.5,-215.7"/>
<text text-anchor="start" x="457.4896" y="-223.4" font-family="Helvetica,sans-Serif" font-size="11.00" fill="#000000">timestamp(6) with time zone[13,6]</text>
<polygon fill="none" stroke="#000000" points="210.5,-193.7 210.5,-215.7 454.5,-215.7 454.5,-193.7 210.5,-193.7"/>
<text text-anchor="start" x="230.5" y="-200.8" font-family="Helvetica,sans-Serif" font-size="11.00" fill="#000000">UPDATED_BY</text>
<polygon fill="none" stroke="#000000" points="454.5,-193.7 454.5,-215.7 625.5,-215.7 625.5,-193.7 454.5,-193.7"/>
<text text-anchor="start" x="457.5" y="-201.4" font-family="Helvetica,sans-Serif" font-size="11.00" fill="#000000">number[19]</text>
<polygon fill="none" stroke="#000000" points="210.5,-171.7 210.5,-193.7 454.5,-193.7 454.5,-171.7 210.5,-171.7"/>
<image xlink:href="../../images/foreignKeys.png" width="11px" height="12px" preserveAspectRatio="xMinYMin meet" x="215.5" y="-188.7"/>
<text text-anchor="start" x="230.5" y="-178.8" font-family="Helvetica,sans-Serif" font-size="11.00" fill="#000000">SUBUNIT_DOMAIN_ID</text>
<polygon fill="none" stroke="#000000" points="454.5,-171.7 454.5,-193.7 625.5,-193.7 625.5,-171.7 454.5,-171.7"/>
<text text-anchor="start" x="457.5" y="-179.4" font-family="Helvetica,sans-Serif" font-size="11.00" fill="#000000">number[19]</text>
<polygon fill="none" stroke="#000000" points="210.5,-149.7 210.5,-171.7 454.5,-171.7 454.5,-149.7 210.5,-149.7"/>
<image xlink:href="../../images/foreignKeys.png" width="11px" height="12px" preserveAspectRatio="xMinYMin meet" x="215.5" y="-166.7"/>
<text text-anchor="start" x="230.5" y="-156.8" font-family="Helvetica,sans-Serif" font-size="11.00" fill="#000000">REFERENCE_ID</text>
<polygon fill="none" stroke="#000000" points="454.5,-149.7 454.5,-171.7 625.5,-171.7 625.5,-149.7 454.5,-149.7"/>
<text text-anchor="start" x="457.5" y="-157.4" font-family="Helvetica,sans-Serif" font-size="11.00" fill="#000000">number[19]</text>
<polygon fill="#ffffff" stroke="transparent" points="210.5,-130.7 210.5,-149.7 323.5,-149.7 323.5,-130.7 210.5,-130.7"/>
<polygon fill="none" stroke="#000000" points="210.5,-130.7 210.5,-149.7 323.5,-149.7 323.5,-130.7 210.5,-130.7"/>
<text text-anchor="start" x="213.5" y="-136.8" font-family="Helvetica,sans-Serif" font-size="11.00" fill="#000000">&lt; 2</text>
<polygon fill="#ffffff" stroke="transparent" points="323.5,-130.7 323.5,-149.7 454.5,-149.7 454.5,-130.7 323.5,-130.7"/>
<polygon fill="none" stroke="#000000" points="323.5,-130.7 323.5,-149.7 454.5,-149.7 454.5,-130.7 323.5,-130.7"/>
<text text-anchor="start" x="419.1105" y="-136.8" font-family="Helvetica,sans-Serif" font-size="11.00" fill="#000000">0 rows</text>
<polygon fill="#ffffff" stroke="transparent" points="454.5,-130.7 454.5,-149.7 625.5,-149.7 625.5,-130.7 454.5,-130.7"/>
<polygon fill="none" stroke="#000000" points="454.5,-130.7 454.5,-149.7 625.5,-149.7 625.5,-130.7 454.5,-130.7"/>
<text text-anchor="start" x="606.9053" y="-136.8" font-family="Helvetica,sans-Serif" font-size="11.00" fill="#000000">0 &gt;</text>
<polygon fill="none" stroke="#000000" stroke-width="2" points="209,-129.7 209,-327.7 626,-327.7 626,-129.7 209,-129.7"/>
</a>
</g>
</g>
<!-- REFERENCES -->
<g id="node2" class="node">
<title>REFERENCES</title>
<g id="a_node2"><a xlink:href="../../tables/REFERENCES.html" xlink:title="REFERENCES" target="_top">
<polygon fill="#ffffff" stroke="transparent" points="19.5,-38.2 19.5,-143.2 147.5,-143.2 147.5,-38.2 19.5,-38.2"/>
<polygon fill="#f5f5f5" stroke="transparent" points="19.5,-119.7 19.5,-142.7 147.5,-142.7 147.5,-119.7 19.5,-119.7"/>
<polygon fill="none" stroke="#000000" points="19.5,-119.7 19.5,-142.7 147.5,-142.7 147.5,-119.7 19.5,-119.7"/>
<text text-anchor="start" x="24.5" y="-128.8" font-family="Helvetica,sans-Serif" font-weight="bold" font-size="11.00" fill="#000000">REFERENCES</text>
<text text-anchor="start" x="112.5437" y="-127.8" font-family="Helvetica,sans-Serif" font-size="11.00" fill="#000000">[table]</text>
<polygon fill="none" stroke="#000000" points="19.5,-97.7 19.5,-119.7 147.5,-119.7 147.5,-97.7 19.5,-97.7"/>
<image xlink:href="../../images/primaryKeys.png" width="11px" height="12px" preserveAspectRatio="xMinYMin meet" x="24.5" y="-114.7"/>
<text text-anchor="start" x="39.5" y="-104.8" font-family="Helvetica,sans-Serif" font-size="11.00" fill="#000000">ID</text>
<polygon fill="none" stroke="#000000" points="19.5,-75.7 19.5,-97.7 147.5,-97.7 147.5,-75.7 19.5,-75.7"/>
<image xlink:href="../../images/foreignKeys.png" width="11px" height="12px" preserveAspectRatio="xMinYMin meet" x="24.5" y="-92.7"/>
<text text-anchor="start" x="39.5" y="-82.8" font-family="Helvetica,sans-Serif" font-size="11.00" fill="#000000">USER_ID</text>
<polygon fill="none" stroke="#000000" points="19.5,-56.7 19.5,-75.7 147.5,-75.7 147.5,-56.7 19.5,-56.7"/>
<text text-anchor="start" x="22.5" y="-62.8" font-family="Helvetica,sans-Serif" font-size="11.00" fill="#000000">...</text>
<polygon fill="#ffffff" stroke="transparent" points="19.5,-37.7 19.5,-56.7 50.5,-56.7 50.5,-37.7 19.5,-37.7"/>
<polygon fill="none" stroke="#000000" points="19.5,-37.7 19.5,-56.7 50.5,-56.7 50.5,-37.7 19.5,-37.7"/>
<text text-anchor="start" x="22.5" y="-43.8" font-family="Helvetica,sans-Serif" font-size="11.00" fill="#000000">&lt; 1</text>
<polygon fill="#ffffff" stroke="transparent" points="50.5,-37.7 50.5,-56.7 114.5,-56.7 114.5,-37.7 50.5,-37.7"/>
<polygon fill="none" stroke="#000000" points="50.5,-37.7 50.5,-56.7 114.5,-56.7 114.5,-37.7 50.5,-37.7"/>
<text text-anchor="start" x="57.7089" y="-43.8" font-family="Helvetica,sans-Serif" font-size="11.00" fill="#000000">2,900 rows</text>
<polygon fill="#ffffff" stroke="transparent" points="114.5,-37.7 114.5,-56.7 147.5,-56.7 147.5,-37.7 114.5,-37.7"/>
<polygon fill="none" stroke="#000000" points="114.5,-37.7 114.5,-56.7 147.5,-56.7 147.5,-37.7 114.5,-37.7"/>
<text text-anchor="start" x="122.7904" y="-43.8" font-family="Helvetica,sans-Serif" font-size="11.00" fill="#000000">20 &gt;</text>
</a>
</g>
</g>
<!-- SUBUNIT_DOMAINS_REFERENCES&#45;&gt;REFERENCES -->
<g id="edge1" class="edge">
<title>SUBUNIT_DOMAINS_REFERENCES:w&#45;&gt;REFERENCES:e</title>
<path fill="none" stroke="#000000" d="M196.4944,-157.2881C176.0767,-145.7195 178.1332,-108.7 147.5,-108.7"/>
<polygon fill="#000000" stroke="#000000" points="202.7273,-158.8065 209.6479,-164.1977 206.6137,-159.7532 210.5,-160.7 210.5,-160.7 210.5,-160.7 206.6137,-159.7532 211.3521,-157.2023 202.7273,-158.8065 202.7273,-158.8065"/>
<ellipse fill="none" stroke="#000000" cx="199.6182" cy="-158.0491" rx="3.2" ry="3.2"/>
</g>
<!-- SUBUNIT_DOMAINS -->
<g id="node3" class="node">
<title>SUBUNIT_DOMAINS</title>
<g id="a_node3"><a xlink:href="../../tables/SUBUNIT_DOMAINS.html" xlink:title="SUBUNIT_DOMAINS" target="_top">
<polygon fill="#ffffff" stroke="transparent" points="8,-164.2 8,-269.2 159,-269.2 159,-164.2 8,-164.2"/>
<polygon fill="#f5f5f5" stroke="transparent" points="8.5,-245.7 8.5,-268.7 159.5,-268.7 159.5,-245.7 8.5,-245.7"/>
<polygon fill="none" stroke="#000000" points="8.5,-245.7 8.5,-268.7 159.5,-268.7 159.5,-245.7 8.5,-245.7"/>
<text text-anchor="start" x="13.5" y="-254.8" font-family="Helvetica,sans-Serif" font-weight="bold" font-size="11.00" fill="#000000">SUBUNIT_DOMAINS</text>
<text text-anchor="start" x="124.5437" y="-253.8" font-family="Helvetica,sans-Serif" font-size="11.00" fill="#000000">[table]</text>
<polygon fill="none" stroke="#000000" points="8.5,-223.7 8.5,-245.7 159.5,-245.7 159.5,-223.7 8.5,-223.7"/>
<image xlink:href="../../images/primaryKeys.png" width="11px" height="12px" preserveAspectRatio="xMinYMin meet" x="13.5" y="-240.7"/>
<text text-anchor="start" x="28.5" y="-230.8" font-family="Helvetica,sans-Serif" font-size="11.00" fill="#000000">ID</text>
<polygon fill="none" stroke="#000000" points="8.5,-201.7 8.5,-223.7 159.5,-223.7 159.5,-201.7 8.5,-201.7"/>
<image xlink:href="../../images/foreignKeys.png" width="11px" height="12px" preserveAspectRatio="xMinYMin meet" x="13.5" y="-218.7"/>
<text text-anchor="start" x="28.5" y="-208.8" font-family="Helvetica,sans-Serif" font-size="11.00" fill="#000000">SUBUNIT_ID</text>
<polygon fill="none" stroke="#000000" points="8.5,-182.7 8.5,-201.7 159.5,-201.7 159.5,-182.7 8.5,-182.7"/>
<text text-anchor="start" x="11.5" y="-188.8" font-family="Helvetica,sans-Serif" font-size="11.00" fill="#000000">...</text>
<polygon fill="#ffffff" stroke="transparent" points="8.5,-163.7 8.5,-182.7 64.5,-182.7 64.5,-163.7 8.5,-163.7"/>
<polygon fill="none" stroke="#000000" points="8.5,-163.7 8.5,-182.7 64.5,-182.7 64.5,-163.7 8.5,-163.7"/>
<text text-anchor="start" x="11.5" y="-169.8" font-family="Helvetica,sans-Serif" font-size="11.00" fill="#000000">&lt; 1</text>
<polygon fill="#ffffff" stroke="transparent" points="64.5,-163.7 64.5,-182.7 120.5,-182.7 120.5,-163.7 64.5,-163.7"/>
<polygon fill="none" stroke="#000000" points="64.5,-163.7 64.5,-182.7 120.5,-182.7 120.5,-163.7 64.5,-163.7"/>
<text text-anchor="start" x="85.1105" y="-169.8" font-family="Helvetica,sans-Serif" font-size="11.00" fill="#000000">0 rows</text>
<polygon fill="#ffffff" stroke="transparent" points="120.5,-163.7 120.5,-182.7 159.5,-182.7 159.5,-163.7 120.5,-163.7"/>
<polygon fill="none" stroke="#000000" points="120.5,-163.7 120.5,-182.7 159.5,-182.7 159.5,-163.7 120.5,-163.7"/>
<text text-anchor="start" x="140.9053" y="-169.8" font-family="Helvetica,sans-Serif" font-size="11.00" fill="#000000">1 &gt;</text>
</a>
</g>
</g>
<!-- SUBUNIT_DOMAINS_REFERENCES&#45;&gt;SUBUNIT_DOMAINS -->
<g id="edge2" class="edge">
<title>SUBUNIT_DOMAINS_REFERENCES:w&#45;&gt;SUBUNIT_DOMAINS:e</title>
<path fill="none" stroke="#000000" d="M196.5468,-187.4988C181.661,-200.3719 185.8017,-234.7 159.5,-234.7"/>
<polygon fill="#000000" stroke="#000000" points="202.9349,-185.3018 211.6708,-186.1043 206.7175,-184.0009 210.5,-182.7 210.5,-182.7 210.5,-182.7 206.7175,-184.0009 209.3292,-179.2957 202.9349,-185.3018 202.9349,-185.3018"/>
<ellipse fill="none" stroke="#000000" cx="199.9089" cy="-186.3426" rx="3.2" ry="3.2"/>
</g>
</g>
</svg>
