<?xml version="1.0" encoding="UTF-8" standalone="no"?>
<!DOCTYPE svg PUBLIC "-//W3C//DTD SVG 1.1//EN"
 "http://www.w3.org/Graphics/SVG/1.1/DTD/svg11.dtd">
<!-- Generated by graphviz version 2.40.1 (20161225.0304)
 -->
<!-- Title: oneDegreeRelationshipsDiagram Pages: 1 -->
<svg width="562pt" height="271pt"
 viewBox="0.00 0.00 562.00 270.70" xmlns="http://www.w3.org/2000/svg" xmlns:xlink="http://www.w3.org/1999/xlink">
<g id="graph0" class="graph" transform="scale(1 1) rotate(0) translate(4 266.7)">
<title>oneDegreeRelationshipsDiagram</title>
<polygon fill="#ffffff" stroke="transparent" points="-4,4 -4,-266.7 558,-266.7 558,4 -4,4"/>
<text text-anchor="middle" x="72.4936" y="-7.3" font-family="Helvetica,sans-Serif" font-size="11.00" fill="#000000">Generated by SchemaSpy</text>
<!-- SUBUNITS -->
<g id="node1" class="node">
<title>SUBUNITS</title>
<g id="a_node1"><a xlink:href="../../tables/SUBUNITS.html" xlink:title="SUBUNITS" target="_top">
<polygon fill="#ffffff" stroke="transparent" points="361,-131.7 361,-258.7 546,-258.7 546,-131.7 361,-131.7"/>
<polygon fill="#f5f5f5" stroke="transparent" points="361.5,-235.2 361.5,-258.2 546.5,-258.2 546.5,-235.2 361.5,-235.2"/>
<polygon fill="none" stroke="#000000" points="361.5,-235.2 361.5,-258.2 546.5,-258.2 546.5,-235.2 361.5,-235.2"/>
<text text-anchor="start" x="366.5" y="-244.3" font-family="Helvetica,sans-Serif" font-weight="bold" font-size="11.00" fill="#000000">SUBUNITS</text>
<text text-anchor="start" x="511.5437" y="-243.3" font-family="Helvetica,sans-Serif" font-size="11.00" fill="#000000">[table]</text>
<polygon fill="none" stroke="#000000" points="361.5,-213.2 361.5,-235.2 546.5,-235.2 546.5,-213.2 361.5,-213.2"/>
<image xlink:href="../../images/primaryKeys.png" width="11px" height="12px" preserveAspectRatio="xMinYMin meet" x="366.5" y="-230.2"/>
<text text-anchor="start" x="381.5" y="-220.3" font-family="Helvetica,sans-Serif" font-size="11.00" fill="#000000">ID</text>
<polygon fill="none" stroke="#000000" points="361.5,-191.2 361.5,-213.2 546.5,-213.2 546.5,-191.2 361.5,-191.2"/>
<image xlink:href="../../images/foreignKeys.png" width="11px" height="12px" preserveAspectRatio="xMinYMin meet" x="366.5" y="-208.2"/>
<text text-anchor="start" x="381.5" y="-198.3" font-family="Helvetica,sans-Serif" font-size="11.00" fill="#000000">TARGET_ID</text>
<polygon fill="none" stroke="#000000" points="361.5,-169.2 361.5,-191.2 546.5,-191.2 546.5,-169.2 361.5,-169.2"/>
<image xlink:href="../../images/foreignKeys.png" width="11px" height="12px" preserveAspectRatio="xMinYMin meet" x="366.5" y="-186.2"/>
<text text-anchor="start" x="381.5" y="-176.3" font-family="Helvetica,sans-Serif" font-size="11.00" fill="#000000">SUBUNIT_TYPE_ID</text>
<polygon fill="none" stroke="#000000" points="361.5,-150.2 361.5,-169.2 546.5,-169.2 546.5,-150.2 361.5,-150.2"/>
<text text-anchor="start" x="364.5" y="-156.3" font-family="Helvetica,sans-Serif" font-size="11.00" fill="#000000">...</text>
<polygon fill="#ffffff" stroke="transparent" points="361.5,-131.2 361.5,-150.2 434.5,-150.2 434.5,-131.2 361.5,-131.2"/>
<polygon fill="none" stroke="#000000" points="361.5,-131.2 361.5,-150.2 434.5,-150.2 434.5,-131.2 361.5,-131.2"/>
<text text-anchor="start" x="364.5" y="-137.3" font-family="Helvetica,sans-Serif" font-size="11.00" fill="#000000">&lt; 2</text>
<polygon fill="#ffffff" stroke="transparent" points="434.5,-131.2 434.5,-150.2 498.5,-150.2 498.5,-131.2 434.5,-131.2"/>
<polygon fill="none" stroke="#000000" points="434.5,-131.2 434.5,-150.2 498.5,-150.2 498.5,-131.2 434.5,-131.2"/>
<text text-anchor="start" x="463.1105" y="-137.3" font-family="Helvetica,sans-Serif" font-size="11.00" fill="#000000">0 rows</text>
<polygon fill="#ffffff" stroke="transparent" points="498.5,-131.2 498.5,-150.2 546.5,-150.2 546.5,-131.2 498.5,-131.2"/>
<polygon fill="none" stroke="#000000" points="498.5,-131.2 498.5,-150.2 546.5,-150.2 546.5,-131.2 498.5,-131.2"/>
<text text-anchor="start" x="527.9053" y="-137.3" font-family="Helvetica,sans-Serif" font-size="11.00" fill="#000000">3 &gt;</text>
</a>
</g>
</g>
<!-- SUBUNIT_TYPES -->
<g id="node2" class="node">
<title>SUBUNIT_TYPES</title>
<g id="a_node2"><a xlink:href="../../tables/SUBUNIT_TYPES.html" xlink:title="SUBUNIT_TYPES" target="_top">
<polygon fill="#ffffff" stroke="transparent" points="8,-38.2 8,-216.2 312,-216.2 312,-38.2 8,-38.2"/>
<polygon fill="#f5f5f5" stroke="transparent" points="10,-191.2 10,-214.2 310,-214.2 310,-191.2 10,-191.2"/>
<polygon fill="none" stroke="#000000" points="10,-191.2 10,-214.2 310,-214.2 310,-191.2 10,-191.2"/>
<text text-anchor="start" x="15" y="-200.3" font-family="Helvetica,sans-Serif" font-weight="bold" font-size="11.00" fill="#000000">SUBUNIT_TYPES</text>
<text text-anchor="start" x="275.0437" y="-199.3" font-family="Helvetica,sans-Serif" font-size="11.00" fill="#000000">[table]</text>
<polygon fill="none" stroke="#000000" points="10,-169.2 10,-191.2 139,-191.2 139,-169.2 10,-169.2"/>
<image xlink:href="../../images/primaryKeys.png" width="11px" height="12px" preserveAspectRatio="xMinYMin meet" x="15" y="-186.2"/>
<text text-anchor="start" x="30" y="-176.3" font-family="Helvetica,sans-Serif" font-size="11.00" fill="#000000">ID</text>
<polygon fill="none" stroke="#000000" points="139,-169.2 139,-191.2 310,-191.2 310,-169.2 139,-169.2"/>
<text text-anchor="start" x="142" y="-176.9" font-family="Helvetica,sans-Serif" font-size="11.00" fill="#000000">number[19]</text>
<polygon fill="none" stroke="#000000" points="10,-147.2 10,-169.2 139,-169.2 139,-147.2 10,-147.2"/>
<text text-anchor="start" x="30" y="-154.3" font-family="Helvetica,sans-Serif" font-size="11.00" fill="#000000">CREATED_AT</text>
<polygon fill="none" stroke="#000000" points="139,-147.2 139,-169.2 310,-169.2 310,-147.2 139,-147.2"/>
<text text-anchor="start" x="141.9896" y="-154.9" font-family="Helvetica,sans-Serif" font-size="11.00" fill="#000000">timestamp(6) with time zone[13,6]</text>
<polygon fill="none" stroke="#000000" points="10,-125.2 10,-147.2 139,-147.2 139,-125.2 10,-125.2"/>
<text text-anchor="start" x="30" y="-132.3" font-family="Helvetica,sans-Serif" font-size="11.00" fill="#000000">CREATED_BY</text>
<polygon fill="none" stroke="#000000" points="139,-125.2 139,-147.2 310,-147.2 310,-125.2 139,-125.2"/>
<text text-anchor="start" x="142" y="-132.9" font-family="Helvetica,sans-Serif" font-size="11.00" fill="#000000">number[19]</text>
<polygon fill="none" stroke="#000000" points="10,-103.2 10,-125.2 139,-125.2 139,-103.2 10,-103.2"/>
<text text-anchor="start" x="30" y="-110.3" font-family="Helvetica,sans-Serif" font-size="11.00" fill="#000000">UPDATED_AT</text>
<polygon fill="none" stroke="#000000" points="139,-103.2 139,-125.2 310,-125.2 310,-103.2 139,-103.2"/>
<text text-anchor="start" x="141.9896" y="-110.9" font-family="Helvetica,sans-Serif" font-size="11.00" fill="#000000">timestamp(6) with time zone[13,6]</text>
<polygon fill="none" stroke="#000000" points="10,-81.2 10,-103.2 139,-103.2 139,-81.2 10,-81.2"/>
<text text-anchor="start" x="30" y="-88.3" font-family="Helvetica,sans-Serif" font-size="11.00" fill="#000000">UPDATED_BY</text>
<polygon fill="none" stroke="#000000" points="139,-81.2 139,-103.2 310,-103.2 310,-81.2 139,-81.2"/>
<text text-anchor="start" x="142" y="-88.9" font-family="Helvetica,sans-Serif" font-size="11.00" fill="#000000">number[19]</text>
<polygon fill="none" stroke="#000000" points="10,-59.2 10,-81.2 139,-81.2 139,-59.2 10,-59.2"/>
<text text-anchor="start" x="30" y="-66.3" font-family="Helvetica,sans-Serif" font-size="11.00" fill="#000000">NAME</text>
<polygon fill="none" stroke="#000000" points="139,-59.2 139,-81.2 310,-81.2 310,-59.2 139,-59.2"/>
<text text-anchor="start" x="142" y="-66.9" font-family="Helvetica,sans-Serif" font-size="11.00" fill="#000000">varchar2[255]</text>
<polygon fill="#ffffff" stroke="transparent" points="10,-40.2 10,-59.2 66,-59.2 66,-40.2 10,-40.2"/>
<polygon fill="none" stroke="#000000" points="10,-40.2 10,-59.2 66,-59.2 66,-40.2 10,-40.2"/>
<text text-anchor="start" x="13" y="-46.3" font-family="Helvetica,sans-Serif" font-size="11.00" fill="#000000">&lt; 0</text>
<polygon fill="#ffffff" stroke="transparent" points="66,-40.2 66,-59.2 139,-59.2 139,-40.2 66,-40.2"/>
<polygon fill="none" stroke="#000000" points="66,-40.2 66,-59.2 139,-59.2 139,-40.2 66,-40.2"/>
<text text-anchor="start" x="103.6105" y="-46.3" font-family="Helvetica,sans-Serif" font-size="11.00" fill="#000000">0 rows</text>
<polygon fill="#ffffff" stroke="transparent" points="139,-40.2 139,-59.2 310,-59.2 310,-40.2 139,-40.2"/>
<polygon fill="none" stroke="#000000" points="139,-40.2 139,-59.2 310,-59.2 310,-40.2 139,-40.2"/>
<text text-anchor="start" x="291.4053" y="-46.3" font-family="Helvetica,sans-Serif" font-size="11.00" fill="#000000">1 &gt;</text>
<polygon fill="none" stroke="#000000" stroke-width="2" points="9,-39.2 9,-215.2 311,-215.2 311,-39.2 9,-39.2"/>
</a>
</g>
</g>
<!-- SUBUNITS&#45;&gt;SUBUNIT_TYPES -->
<g id="edge1" class="edge">
<title>SUBUNITS:w&#45;&gt;SUBUNIT_TYPES:e</title>
<path fill="none" stroke="#000000" d="M347.0156,-180.2C334.6771,-180.2 327.1667,-180.2 310,-180.2"/>
<polygon fill="#000000" stroke="#000000" points="353.5,-180.2001 361.5,-183.8 357.5,-180.2 361.5,-180.2 361.5,-180.2 361.5,-180.2 357.5,-180.2 361.5,-176.6 353.5,-180.2001 353.5,-180.2001"/>
<ellipse fill="none" stroke="#000000" cx="350.3" cy="-180.2001" rx="3.2" ry="3.2"/>
</g>
</g>
</svg>
