<?xml version="1.0" encoding="UTF-8" standalone="no"?>
<!DOCTYPE svg PUBLIC "-//W3C//DTD SVG 1.1//EN"
 "http://www.w3.org/Graphics/SVG/1.1/DTD/svg11.dtd">
<!-- Generated by graphviz version 2.40.1 (20161225.0304)
 -->
<!-- Title: twoDegreesRelationshipsDiagram Pages: 1 -->
<svg width="1059pt" height="563pt"
 viewBox="0.00 0.00 1059.00 563.20" xmlns="http://www.w3.org/2000/svg" xmlns:xlink="http://www.w3.org/1999/xlink">
<g id="graph0" class="graph" transform="scale(1 1) rotate(0) translate(4 559.2)">
<title>twoDegreesRelationshipsDiagram</title>
<polygon fill="#ffffff" stroke="transparent" points="-4,4 -4,-559.2 1055,-559.2 1055,4 -4,4"/>
<text text-anchor="middle" x="72.4936" y="-7.3" font-family="Helvetica,sans-Serif" font-size="11.00" fill="#000000">Generated by SchemaSpy</text>
<!-- SUBUNIT_ANNOTATIONS -->
<g id="node1" class="node">
<title>SUBUNIT_ANNOTATIONS</title>
<g id="a_node1"><a xlink:href="../../tables/SUBUNIT_ANNOTATIONS.html" xlink:title="SUBUNIT_ANNOTATIONS" target="_top">
<polygon fill="#ffffff" stroke="transparent" points="499,-490.2 499,-551.2 675,-551.2 675,-490.2 499,-490.2"/>
<polygon fill="#f5f5f5" stroke="transparent" points="499,-527.7 499,-550.7 675,-550.7 675,-527.7 499,-527.7"/>
<polygon fill="none" stroke="#000000" points="499,-527.7 499,-550.7 675,-550.7 675,-527.7 499,-527.7"/>
<text text-anchor="start" x="503.5865" y="-536.8" font-family="Helvetica,sans-Serif" font-weight="bold" font-size="11.00" fill="#000000">SUBUNIT_ANNOTATIONS</text>
<text text-anchor="start" x="640.5219" y="-535.8" font-family="Helvetica,sans-Serif" font-size="11.00" fill="#000000">[table]</text>
<polygon fill="none" stroke="#000000" points="499,-508.7 499,-527.7 675,-527.7 675,-508.7 499,-508.7"/>
<text text-anchor="start" x="502" y="-514.8" font-family="Helvetica,sans-Serif" font-size="11.00" fill="#000000">...</text>
<polygon fill="#ffffff" stroke="transparent" points="499,-489.7 499,-508.7 568,-508.7 568,-489.7 499,-489.7"/>
<polygon fill="none" stroke="#000000" points="499,-489.7 499,-508.7 568,-508.7 568,-489.7 499,-489.7"/>
<text text-anchor="start" x="502" y="-495.8" font-family="Helvetica,sans-Serif" font-size="11.00" fill="#000000">&lt; 1</text>
<polygon fill="#ffffff" stroke="transparent" points="568,-489.7 568,-508.7 630,-508.7 630,-489.7 568,-489.7"/>
<polygon fill="none" stroke="#000000" points="568,-489.7 568,-508.7 630,-508.7 630,-489.7 568,-489.7"/>
<text text-anchor="start" x="594.6105" y="-495.8" font-family="Helvetica,sans-Serif" font-size="11.00" fill="#000000">0 rows</text>
<polygon fill="#ffffff" stroke="transparent" points="630,-489.7 630,-508.7 675,-508.7 675,-489.7 630,-489.7"/>
<polygon fill="none" stroke="#000000" points="630,-489.7 630,-508.7 675,-508.7 675,-489.7 630,-489.7"/>
<text text-anchor="start" x="656.4053" y="-495.8" font-family="Helvetica,sans-Serif" font-size="11.00" fill="#000000">1 &gt;</text>
</a>
</g>
</g>
<!-- SUBUNITS -->
<g id="node2" class="node">
<title>SUBUNITS</title>
<g id="a_node2"><a xlink:href="../../tables/SUBUNITS.html" xlink:title="SUBUNITS" target="_top">
<polygon fill="#ffffff" stroke="transparent" points="190,-142.2 190,-269.2 375,-269.2 375,-142.2 190,-142.2"/>
<polygon fill="#f5f5f5" stroke="transparent" points="190.5,-245.7 190.5,-268.7 375.5,-268.7 375.5,-245.7 190.5,-245.7"/>
<polygon fill="none" stroke="#000000" points="190.5,-245.7 190.5,-268.7 375.5,-268.7 375.5,-245.7 190.5,-245.7"/>
<text text-anchor="start" x="195.5" y="-254.8" font-family="Helvetica,sans-Serif" font-weight="bold" font-size="11.00" fill="#000000">SUBUNITS</text>
<text text-anchor="start" x="340.5437" y="-253.8" font-family="Helvetica,sans-Serif" font-size="11.00" fill="#000000">[table]</text>
<polygon fill="none" stroke="#000000" points="190.5,-223.7 190.5,-245.7 375.5,-245.7 375.5,-223.7 190.5,-223.7"/>
<image xlink:href="../../images/primaryKeys.png" width="11px" height="12px" preserveAspectRatio="xMinYMin meet" x="195.5" y="-240.7"/>
<text text-anchor="start" x="210.5" y="-230.8" font-family="Helvetica,sans-Serif" font-size="11.00" fill="#000000">ID</text>
<polygon fill="none" stroke="#000000" points="190.5,-201.7 190.5,-223.7 375.5,-223.7 375.5,-201.7 190.5,-201.7"/>
<image xlink:href="../../images/foreignKeys.png" width="11px" height="12px" preserveAspectRatio="xMinYMin meet" x="195.5" y="-218.7"/>
<text text-anchor="start" x="210.5" y="-208.8" font-family="Helvetica,sans-Serif" font-size="11.00" fill="#000000">TARGET_ID</text>
<polygon fill="none" stroke="#000000" points="190.5,-179.7 190.5,-201.7 375.5,-201.7 375.5,-179.7 190.5,-179.7"/>
<image xlink:href="../../images/foreignKeys.png" width="11px" height="12px" preserveAspectRatio="xMinYMin meet" x="195.5" y="-196.7"/>
<text text-anchor="start" x="210.5" y="-186.8" font-family="Helvetica,sans-Serif" font-size="11.00" fill="#000000">SUBUNIT_TYPE_ID</text>
<polygon fill="none" stroke="#000000" points="190.5,-160.7 190.5,-179.7 375.5,-179.7 375.5,-160.7 190.5,-160.7"/>
<text text-anchor="start" x="193.5" y="-166.8" font-family="Helvetica,sans-Serif" font-size="11.00" fill="#000000">...</text>
<polygon fill="#ffffff" stroke="transparent" points="190.5,-141.7 190.5,-160.7 263.5,-160.7 263.5,-141.7 190.5,-141.7"/>
<polygon fill="none" stroke="#000000" points="190.5,-141.7 190.5,-160.7 263.5,-160.7 263.5,-141.7 190.5,-141.7"/>
<text text-anchor="start" x="193.5" y="-147.8" font-family="Helvetica,sans-Serif" font-size="11.00" fill="#000000">&lt; 2</text>
<polygon fill="#ffffff" stroke="transparent" points="263.5,-141.7 263.5,-160.7 327.5,-160.7 327.5,-141.7 263.5,-141.7"/>
<polygon fill="none" stroke="#000000" points="263.5,-141.7 263.5,-160.7 327.5,-160.7 327.5,-141.7 263.5,-141.7"/>
<text text-anchor="start" x="292.1105" y="-147.8" font-family="Helvetica,sans-Serif" font-size="11.00" fill="#000000">0 rows</text>
<polygon fill="#ffffff" stroke="transparent" points="327.5,-141.7 327.5,-160.7 375.5,-160.7 375.5,-141.7 327.5,-141.7"/>
<polygon fill="none" stroke="#000000" points="327.5,-141.7 327.5,-160.7 375.5,-160.7 375.5,-141.7 327.5,-141.7"/>
<text text-anchor="start" x="356.9053" y="-147.8" font-family="Helvetica,sans-Serif" font-size="11.00" fill="#000000">3 &gt;</text>
</a>
</g>
</g>
<!-- SUBUNIT_ANNOTATIONS&#45;&gt;SUBUNITS -->
<g id="edge1" class="edge">
<title>SUBUNIT_ANNOTATIONS:w&#45;&gt;SUBUNITS:e</title>
<path fill="none" stroke="#000000" d="M484.3825,-517.3682C453.7284,-515.7735 437.4622,-507.7782 416,-479.7 382.4881,-435.8577 430.6833,-234.7 375.5,-234.7"/>
<polygon fill="#000000" stroke="#000000" points="491.0021,-517.5184 498.9183,-521.2991 495.001,-517.6092 499,-517.7 499,-517.7 499,-517.7 495.001,-517.6092 499.0817,-514.1009 491.0021,-517.5184 491.0021,-517.5184"/>
<ellipse fill="none" stroke="#000000" cx="487.8029" cy="-517.4458" rx="3.2" ry="3.2"/>
</g>
<!-- SUBUNIT_TYPES -->
<g id="node7" class="node">
<title>SUBUNIT_TYPES</title>
<g id="a_node7"><a xlink:href="../../tables/SUBUNIT_TYPES.html" xlink:title="SUBUNIT_TYPES" target="_top">
<polygon fill="#ffffff" stroke="transparent" points="8,-133.2 8,-194.2 141,-194.2 141,-133.2 8,-133.2"/>
<polygon fill="#f5f5f5" stroke="transparent" points="8.5,-170.7 8.5,-193.7 141.5,-193.7 141.5,-170.7 8.5,-170.7"/>
<polygon fill="none" stroke="#000000" points="8.5,-170.7 8.5,-193.7 141.5,-193.7 141.5,-170.7 8.5,-170.7"/>
<text text-anchor="start" x="13.2752" y="-179.8" font-family="Helvetica,sans-Serif" font-weight="bold" font-size="11.00" fill="#000000">SUBUNIT_TYPES</text>
<text text-anchor="start" x="107.0219" y="-178.8" font-family="Helvetica,sans-Serif" font-size="11.00" fill="#000000">[table]</text>
<polygon fill="none" stroke="#000000" points="8.5,-151.7 8.5,-170.7 141.5,-170.7 141.5,-151.7 8.5,-151.7"/>
<text text-anchor="start" x="11.5" y="-157.8" font-family="Helvetica,sans-Serif" font-size="11.00" fill="#000000">...</text>
<polygon fill="#ffffff" stroke="transparent" points="8.5,-132.7 8.5,-151.7 51.5,-151.7 51.5,-132.7 8.5,-132.7"/>
<polygon fill="none" stroke="#000000" points="8.5,-132.7 8.5,-151.7 51.5,-151.7 51.5,-132.7 8.5,-132.7"/>
<text text-anchor="start" x="11.5" y="-138.8" font-family="Helvetica,sans-Serif" font-size="11.00" fill="#000000"> &#160;</text>
<polygon fill="#ffffff" stroke="transparent" points="51.5,-132.7 51.5,-151.7 104.5,-151.7 104.5,-132.7 51.5,-132.7"/>
<polygon fill="none" stroke="#000000" points="51.5,-132.7 51.5,-151.7 104.5,-151.7 104.5,-132.7 51.5,-132.7"/>
<text text-anchor="start" x="69.1105" y="-138.8" font-family="Helvetica,sans-Serif" font-size="11.00" fill="#000000">0 rows</text>
<polygon fill="#ffffff" stroke="transparent" points="104.5,-132.7 104.5,-151.7 141.5,-151.7 141.5,-132.7 104.5,-132.7"/>
<polygon fill="none" stroke="#000000" points="104.5,-132.7 104.5,-151.7 141.5,-151.7 141.5,-132.7 104.5,-132.7"/>
<text text-anchor="start" x="122.9053" y="-138.8" font-family="Helvetica,sans-Serif" font-size="11.00" fill="#000000">1 &gt;</text>
</a>
</g>
</g>
<!-- SUBUNITS&#45;&gt;SUBUNIT_TYPES -->
<g id="edge6" class="edge">
<title>SUBUNITS:w&#45;&gt;SUBUNIT_TYPES:e</title>
<path fill="none" stroke="#000000" d="M176.384,-186.5286C164.4189,-178.2854 161.0504,-160.7 141.5,-160.7"/>
<polygon fill="#000000" stroke="#000000" points="182.828,-188.4328 189.4798,-194.1524 186.664,-189.5664 190.5,-190.7 190.5,-190.7 190.5,-190.7 186.664,-189.5664 191.5202,-187.2476 182.828,-188.4328 182.828,-188.4328"/>
<ellipse fill="none" stroke="#000000" cx="179.7591" cy="-187.526" rx="3.2" ry="3.2"/>
</g>
<!-- TARGETS -->
<g id="node8" class="node">
<title>TARGETS</title>
<g id="a_node8"><a xlink:href="../../tables/TARGETS.html" xlink:title="TARGETS" target="_top">
<polygon fill="#ffffff" stroke="transparent" points="25.5,-215.2 25.5,-276.2 123.5,-276.2 123.5,-215.2 25.5,-215.2"/>
<polygon fill="#f5f5f5" stroke="transparent" points="25.5,-252.7 25.5,-275.7 123.5,-275.7 123.5,-252.7 25.5,-252.7"/>
<polygon fill="none" stroke="#000000" points="25.5,-252.7 25.5,-275.7 123.5,-275.7 123.5,-252.7 25.5,-252.7"/>
<text text-anchor="start" x="30.5" y="-261.8" font-family="Helvetica,sans-Serif" font-weight="bold" font-size="11.00" fill="#000000">TARGETS</text>
<text text-anchor="start" x="88.5437" y="-260.8" font-family="Helvetica,sans-Serif" font-size="11.00" fill="#000000">[table]</text>
<polygon fill="none" stroke="#000000" points="25.5,-233.7 25.5,-252.7 123.5,-252.7 123.5,-233.7 25.5,-233.7"/>
<text text-anchor="start" x="28.5" y="-239.8" font-family="Helvetica,sans-Serif" font-size="11.00" fill="#000000">...</text>
<polygon fill="#ffffff" stroke="transparent" points="25.5,-214.7 25.5,-233.7 46.5,-233.7 46.5,-214.7 25.5,-214.7"/>
<polygon fill="none" stroke="#000000" points="25.5,-214.7 25.5,-233.7 46.5,-233.7 46.5,-214.7 25.5,-214.7"/>
<text text-anchor="start" x="28.2027" y="-220.8" font-family="Helvetica,sans-Serif" font-size="11.00" fill="#000000">&lt; 3</text>
<polygon fill="#ffffff" stroke="transparent" points="46.5,-214.7 46.5,-233.7 96.5,-233.7 96.5,-214.7 46.5,-214.7"/>
<polygon fill="none" stroke="#000000" points="46.5,-214.7 46.5,-233.7 96.5,-233.7 96.5,-214.7 46.5,-214.7"/>
<text text-anchor="start" x="49.1903" y="-220.8" font-family="Helvetica,sans-Serif" font-size="11.00" fill="#000000">146 rows</text>
<polygon fill="#ffffff" stroke="transparent" points="96.5,-214.7 96.5,-233.7 123.5,-233.7 123.5,-214.7 96.5,-214.7"/>
<polygon fill="none" stroke="#000000" points="96.5,-214.7 96.5,-233.7 123.5,-233.7 123.5,-214.7 96.5,-214.7"/>
<text text-anchor="start" x="99.1452" y="-220.8" font-family="Helvetica,sans-Serif" font-size="11.00" fill="#000000">10 &gt;</text>
</a>
</g>
</g>
<!-- SUBUNITS&#45;&gt;TARGETS -->
<g id="edge7" class="edge">
<title>SUBUNITS:w&#45;&gt;TARGETS:e</title>
<path fill="none" stroke="#000000" d="M176.1,-215.054C156.3607,-222.1263 150.5189,-242.7 123.5,-242.7"/>
<polygon fill="#000000" stroke="#000000" points="182.6048,-213.9907 191.0808,-216.2528 186.5524,-213.3454 190.5,-212.7 190.5,-212.7 190.5,-212.7 186.5524,-213.3454 189.9192,-209.1472 182.6048,-213.9907 182.6048,-213.9907"/>
<ellipse fill="none" stroke="#000000" cx="179.4467" cy="-214.507" rx="3.2" ry="3.2"/>
</g>
<!-- SUBUNIT_DOMAINS -->
<g id="node3" class="node">
<title>SUBUNIT_DOMAINS</title>
<g id="a_node3"><a xlink:href="../../tables/SUBUNIT_DOMAINS.html" xlink:title="SUBUNIT_DOMAINS" target="_top">
<polygon fill="#ffffff" stroke="transparent" points="424,-202.7 424,-468.7 750,-468.7 750,-202.7 424,-202.7"/>
<polygon fill="#f5f5f5" stroke="transparent" points="426,-443.7 426,-466.7 748,-466.7 748,-443.7 426,-443.7"/>
<polygon fill="none" stroke="#000000" points="426,-443.7 426,-466.7 748,-466.7 748,-443.7 426,-443.7"/>
<text text-anchor="start" x="431" y="-452.8" font-family="Helvetica,sans-Serif" font-weight="bold" font-size="11.00" fill="#000000">SUBUNIT_DOMAINS</text>
<text text-anchor="start" x="713.0437" y="-451.8" font-family="Helvetica,sans-Serif" font-size="11.00" fill="#000000">[table]</text>
<polygon fill="none" stroke="#000000" points="426,-421.7 426,-443.7 577,-443.7 577,-421.7 426,-421.7"/>
<image xlink:href="../../images/primaryKeys.png" width="11px" height="12px" preserveAspectRatio="xMinYMin meet" x="431" y="-438.7"/>
<text text-anchor="start" x="446" y="-428.8" font-family="Helvetica,sans-Serif" font-size="11.00" fill="#000000">ID</text>
<polygon fill="none" stroke="#000000" points="577,-421.7 577,-443.7 748,-443.7 748,-421.7 577,-421.7"/>
<text text-anchor="start" x="580" y="-429.4" font-family="Helvetica,sans-Serif" font-size="11.00" fill="#000000">number[19]</text>
<polygon fill="none" stroke="#000000" points="426,-399.7 426,-421.7 577,-421.7 577,-399.7 426,-399.7"/>
<text text-anchor="start" x="446" y="-406.8" font-family="Helvetica,sans-Serif" font-size="11.00" fill="#000000">CREATED_AT</text>
<polygon fill="none" stroke="#000000" points="577,-399.7 577,-421.7 748,-421.7 748,-399.7 577,-399.7"/>
<text text-anchor="start" x="579.9896" y="-407.4" font-family="Helvetica,sans-Serif" font-size="11.00" fill="#000000">timestamp(6) with time zone[13,6]</text>
<polygon fill="none" stroke="#000000" points="426,-377.7 426,-399.7 577,-399.7 577,-377.7 426,-377.7"/>
<text text-anchor="start" x="446" y="-384.8" font-family="Helvetica,sans-Serif" font-size="11.00" fill="#000000">CREATED_BY</text>
<polygon fill="none" stroke="#000000" points="577,-377.7 577,-399.7 748,-399.7 748,-377.7 577,-377.7"/>
<text text-anchor="start" x="580" y="-385.4" font-family="Helvetica,sans-Serif" font-size="11.00" fill="#000000">number[19]</text>
<polygon fill="none" stroke="#000000" points="426,-355.7 426,-377.7 577,-377.7 577,-355.7 426,-355.7"/>
<text text-anchor="start" x="446" y="-362.8" font-family="Helvetica,sans-Serif" font-size="11.00" fill="#000000">UPDATED_AT</text>
<polygon fill="none" stroke="#000000" points="577,-355.7 577,-377.7 748,-377.7 748,-355.7 577,-355.7"/>
<text text-anchor="start" x="579.9896" y="-363.4" font-family="Helvetica,sans-Serif" font-size="11.00" fill="#000000">timestamp(6) with time zone[13,6]</text>
<polygon fill="none" stroke="#000000" points="426,-333.7 426,-355.7 577,-355.7 577,-333.7 426,-333.7"/>
<text text-anchor="start" x="446" y="-340.8" font-family="Helvetica,sans-Serif" font-size="11.00" fill="#000000">UPDATED_BY</text>
<polygon fill="none" stroke="#000000" points="577,-333.7 577,-355.7 748,-355.7 748,-333.7 577,-333.7"/>
<text text-anchor="start" x="580" y="-341.4" font-family="Helvetica,sans-Serif" font-size="11.00" fill="#000000">number[19]</text>
<polygon fill="none" stroke="#000000" points="426,-311.7 426,-333.7 577,-333.7 577,-311.7 426,-311.7"/>
<text text-anchor="start" x="446" y="-318.8" font-family="Helvetica,sans-Serif" font-size="11.00" fill="#000000">START_RANGE</text>
<polygon fill="none" stroke="#000000" points="577,-311.7 577,-333.7 748,-333.7 748,-311.7 577,-311.7"/>
<text text-anchor="start" x="580" y="-319.4" font-family="Helvetica,sans-Serif" font-size="11.00" fill="#000000">number[19]</text>
<polygon fill="none" stroke="#000000" points="426,-289.7 426,-311.7 577,-311.7 577,-289.7 426,-289.7"/>
<text text-anchor="start" x="446" y="-296.8" font-family="Helvetica,sans-Serif" font-size="11.00" fill="#000000">END_RANGE</text>
<polygon fill="none" stroke="#000000" points="577,-289.7 577,-311.7 748,-311.7 748,-289.7 577,-289.7"/>
<text text-anchor="start" x="580" y="-297.4" font-family="Helvetica,sans-Serif" font-size="11.00" fill="#000000">number[19]</text>
<polygon fill="none" stroke="#000000" points="426,-267.7 426,-289.7 577,-289.7 577,-267.7 426,-267.7"/>
<text text-anchor="start" x="446" y="-274.8" font-family="Helvetica,sans-Serif" font-size="11.00" fill="#000000">COLOR</text>
<polygon fill="none" stroke="#000000" points="577,-267.7 577,-289.7 748,-289.7 748,-267.7 577,-267.7"/>
<text text-anchor="start" x="580" y="-275.4" font-family="Helvetica,sans-Serif" font-size="11.00" fill="#000000">varchar2[255]</text>
<polygon fill="none" stroke="#000000" points="426,-245.7 426,-267.7 577,-267.7 577,-245.7 426,-245.7"/>
<text text-anchor="start" x="446" y="-252.8" font-family="Helvetica,sans-Serif" font-size="11.00" fill="#000000">TITLE</text>
<polygon fill="none" stroke="#000000" points="577,-245.7 577,-267.7 748,-267.7 748,-245.7 577,-245.7"/>
<text text-anchor="start" x="580" y="-253.4" font-family="Helvetica,sans-Serif" font-size="11.00" fill="#000000">varchar2[255]</text>
<polygon fill="none" stroke="#000000" points="426,-223.7 426,-245.7 577,-245.7 577,-223.7 426,-223.7"/>
<image xlink:href="../../images/foreignKeys.png" width="11px" height="12px" preserveAspectRatio="xMinYMin meet" x="431" y="-240.7"/>
<text text-anchor="start" x="446" y="-230.8" font-family="Helvetica,sans-Serif" font-size="11.00" fill="#000000">SUBUNIT_ID</text>
<polygon fill="none" stroke="#000000" points="577,-223.7 577,-245.7 748,-245.7 748,-223.7 577,-223.7"/>
<text text-anchor="start" x="580" y="-231.4" font-family="Helvetica,sans-Serif" font-size="11.00" fill="#000000">number[19]</text>
<polygon fill="#ffffff" stroke="transparent" points="426,-204.7 426,-223.7 493,-223.7 493,-204.7 426,-204.7"/>
<polygon fill="none" stroke="#000000" points="426,-204.7 426,-223.7 493,-223.7 493,-204.7 426,-204.7"/>
<text text-anchor="start" x="429" y="-210.8" font-family="Helvetica,sans-Serif" font-size="11.00" fill="#000000">&lt; 1</text>
<polygon fill="#ffffff" stroke="transparent" points="493,-204.7 493,-223.7 577,-223.7 577,-204.7 493,-204.7"/>
<polygon fill="none" stroke="#000000" points="493,-204.7 493,-223.7 577,-223.7 577,-204.7 493,-204.7"/>
<text text-anchor="start" x="541.6105" y="-210.8" font-family="Helvetica,sans-Serif" font-size="11.00" fill="#000000">0 rows</text>
<polygon fill="#ffffff" stroke="transparent" points="577,-204.7 577,-223.7 748,-223.7 748,-204.7 577,-204.7"/>
<polygon fill="none" stroke="#000000" points="577,-204.7 577,-223.7 748,-223.7 748,-204.7 577,-204.7"/>
<text text-anchor="start" x="729.4053" y="-210.8" font-family="Helvetica,sans-Serif" font-size="11.00" fill="#000000">1 &gt;</text>
<polygon fill="none" stroke="#000000" stroke-width="2" points="425,-203.7 425,-467.7 749,-467.7 749,-203.7 425,-203.7"/>
</a>
</g>
</g>
<!-- SUBUNIT_DOMAINS&#45;&gt;SUBUNITS -->
<g id="edge2" class="edge">
<title>SUBUNIT_DOMAINS:w&#45;&gt;SUBUNITS:e</title>
<path fill="none" stroke="#000000" d="M411.4203,-234.7C399.5435,-234.7 392.158,-234.7 375.5,-234.7"/>
<polygon fill="#000000" stroke="#000000" points="418,-234.7001 426,-238.3 422,-234.7 426,-234.7 426,-234.7 426,-234.7 422,-234.7 426,-231.1 418,-234.7001 418,-234.7001"/>
<ellipse fill="none" stroke="#000000" cx="414.8" cy="-234.7001" rx="3.2" ry="3.2"/>
</g>
<!-- SUBUNIT_DOMAINS_REFERENCES -->
<g id="node4" class="node">
<title>SUBUNIT_DOMAINS_REFERENCES</title>
<g id="a_node4"><a xlink:href="../../tables/SUBUNIT_DOMAINS_REFERENCES.html" xlink:title="SUBUNIT_DOMAINS_REFERENCES" target="_top">
<polygon fill="#ffffff" stroke="transparent" points="799,-230.2 799,-357.2 1043,-357.2 1043,-230.2 799,-230.2"/>
<polygon fill="#f5f5f5" stroke="transparent" points="799,-333.7 799,-356.7 1043,-356.7 1043,-333.7 799,-333.7"/>
<polygon fill="none" stroke="#000000" points="799,-333.7 799,-356.7 1043,-356.7 1043,-333.7 799,-333.7"/>
<text text-anchor="start" x="804" y="-342.8" font-family="Helvetica,sans-Serif" font-weight="bold" font-size="11.00" fill="#000000">SUBUNIT_DOMAINS_REFERENCES</text>
<text text-anchor="start" x="1008.0437" y="-341.8" font-family="Helvetica,sans-Serif" font-size="11.00" fill="#000000">[table]</text>
<polygon fill="none" stroke="#000000" points="799,-311.7 799,-333.7 1043,-333.7 1043,-311.7 799,-311.7"/>
<image xlink:href="../../images/primaryKeys.png" width="11px" height="12px" preserveAspectRatio="xMinYMin meet" x="804" y="-328.7"/>
<text text-anchor="start" x="819" y="-318.8" font-family="Helvetica,sans-Serif" font-size="11.00" fill="#000000">ID</text>
<polygon fill="none" stroke="#000000" points="799,-289.7 799,-311.7 1043,-311.7 1043,-289.7 799,-289.7"/>
<image xlink:href="../../images/foreignKeys.png" width="11px" height="12px" preserveAspectRatio="xMinYMin meet" x="804" y="-306.7"/>
<text text-anchor="start" x="819" y="-296.8" font-family="Helvetica,sans-Serif" font-size="11.00" fill="#000000">SUBUNIT_DOMAIN_ID</text>
<polygon fill="none" stroke="#000000" points="799,-267.7 799,-289.7 1043,-289.7 1043,-267.7 799,-267.7"/>
<image xlink:href="../../images/foreignKeys.png" width="11px" height="12px" preserveAspectRatio="xMinYMin meet" x="804" y="-284.7"/>
<text text-anchor="start" x="819" y="-274.8" font-family="Helvetica,sans-Serif" font-size="11.00" fill="#000000">REFERENCE_ID</text>
<polygon fill="none" stroke="#000000" points="799,-248.7 799,-267.7 1043,-267.7 1043,-248.7 799,-248.7"/>
<text text-anchor="start" x="802" y="-254.8" font-family="Helvetica,sans-Serif" font-size="11.00" fill="#000000">...</text>
<polygon fill="#ffffff" stroke="transparent" points="799,-229.7 799,-248.7 906,-248.7 906,-229.7 799,-229.7"/>
<polygon fill="none" stroke="#000000" points="799,-229.7 799,-248.7 906,-248.7 906,-229.7 799,-229.7"/>
<text text-anchor="start" x="802" y="-235.8" font-family="Helvetica,sans-Serif" font-size="11.00" fill="#000000">&lt; 2</text>
<polygon fill="#ffffff" stroke="transparent" points="906,-229.7 906,-248.7 987,-248.7 987,-229.7 906,-229.7"/>
<polygon fill="none" stroke="#000000" points="906,-229.7 906,-248.7 987,-248.7 987,-229.7 906,-229.7"/>
<text text-anchor="start" x="951.6105" y="-235.8" font-family="Helvetica,sans-Serif" font-size="11.00" fill="#000000">0 rows</text>
<polygon fill="#ffffff" stroke="transparent" points="987,-229.7 987,-248.7 1043,-248.7 1043,-229.7 987,-229.7"/>
<polygon fill="none" stroke="#000000" points="987,-229.7 987,-248.7 1043,-248.7 1043,-229.7 987,-229.7"/>
<text text-anchor="start" x="1033.8862" y="-235.8" font-family="Helvetica,sans-Serif" font-size="11.00" fill="#000000"> &#160;</text>
</a>
</g>
</g>
<!-- SUBUNIT_DOMAINS_REFERENCES&#45;&gt;SUBUNIT_DOMAINS -->
<g id="edge4" class="edge">
<title>SUBUNIT_DOMAINS_REFERENCES:w&#45;&gt;SUBUNIT_DOMAINS:e</title>
<path fill="none" stroke="#000000" d="M784.7146,-303.9629C748.9192,-324.2898 804.997,-432.7 748,-432.7"/>
<polygon fill="#000000" stroke="#000000" points="791.2009,-302.4815 799.8017,-304.2096 795.1004,-301.5907 799,-300.7 799,-300.7 799,-300.7 795.1004,-301.5907 798.1983,-297.1904 791.2009,-302.4815 791.2009,-302.4815"/>
<ellipse fill="none" stroke="#000000" cx="788.0812" cy="-303.194" rx="3.2" ry="3.2"/>
</g>
<!-- REFERENCES -->
<g id="node5" class="node">
<title>REFERENCES</title>
<g id="a_node5"><a xlink:href="../../tables/REFERENCES.html" xlink:title="REFERENCES" target="_top">
<polygon fill="#ffffff" stroke="transparent" points="528,-120.2 528,-181.2 646,-181.2 646,-120.2 528,-120.2"/>
<polygon fill="#f5f5f5" stroke="transparent" points="528,-157.7 528,-180.7 646,-180.7 646,-157.7 528,-157.7"/>
<polygon fill="none" stroke="#000000" points="528,-157.7 528,-180.7 646,-180.7 646,-157.7 528,-157.7"/>
<text text-anchor="start" x="532.9185" y="-166.8" font-family="Helvetica,sans-Serif" font-weight="bold" font-size="11.00" fill="#000000">REFERENCES</text>
<text text-anchor="start" x="611.5219" y="-165.8" font-family="Helvetica,sans-Serif" font-size="11.00" fill="#000000">[table]</text>
<polygon fill="none" stroke="#000000" points="528,-138.7 528,-157.7 646,-157.7 646,-138.7 528,-138.7"/>
<text text-anchor="start" x="531" y="-144.8" font-family="Helvetica,sans-Serif" font-size="11.00" fill="#000000">...</text>
<polygon fill="#ffffff" stroke="transparent" points="528,-119.7 528,-138.7 554,-138.7 554,-119.7 528,-119.7"/>
<polygon fill="none" stroke="#000000" points="528,-119.7 528,-138.7 554,-138.7 554,-119.7 528,-119.7"/>
<text text-anchor="start" x="531" y="-125.8" font-family="Helvetica,sans-Serif" font-size="11.00" fill="#000000">&lt; 1</text>
<polygon fill="#ffffff" stroke="transparent" points="554,-119.7 554,-138.7 616,-138.7 616,-119.7 554,-119.7"/>
<polygon fill="none" stroke="#000000" points="554,-119.7 554,-138.7 616,-138.7 616,-119.7 554,-119.7"/>
<text text-anchor="start" x="559.2089" y="-125.8" font-family="Helvetica,sans-Serif" font-size="11.00" fill="#000000">2,900 rows</text>
<polygon fill="#ffffff" stroke="transparent" points="616,-119.7 616,-138.7 646,-138.7 646,-119.7 616,-119.7"/>
<polygon fill="none" stroke="#000000" points="616,-119.7 616,-138.7 646,-138.7 646,-119.7 616,-119.7"/>
<text text-anchor="start" x="621.2904" y="-125.8" font-family="Helvetica,sans-Serif" font-size="11.00" fill="#000000">20 &gt;</text>
</a>
</g>
</g>
<!-- SUBUNIT_DOMAINS_REFERENCES&#45;&gt;REFERENCES -->
<g id="edge3" class="edge">
<title>SUBUNIT_DOMAINS_REFERENCES:w&#45;&gt;REFERENCES:e</title>
<path fill="none" stroke="#000000" d="M784.8967,-275.3838C764.6496,-262.805 784.4059,-217.4969 758,-192.7 718.8943,-155.9771 699.6454,-147.7 646,-147.7"/>
<polygon fill="#000000" stroke="#000000" points="791.2124,-276.8688 798.176,-282.2044 795.1062,-277.7844 799,-278.7 799,-278.7 799,-278.7 795.1062,-277.7844 799.824,-275.1956 791.2124,-276.8688 791.2124,-276.8688"/>
<ellipse fill="none" stroke="#000000" cx="788.0973" cy="-276.1364" rx="3.2" ry="3.2"/>
</g>
<!-- SUBUNIT_VARIANTS -->
<g id="node6" class="node">
<title>SUBUNIT_VARIANTS</title>
<g id="a_node6"><a xlink:href="../../tables/SUBUNIT_VARIANTS.html" xlink:title="SUBUNIT_VARIANTS" target="_top">
<polygon fill="#ffffff" stroke="transparent" points="511,-38.2 511,-99.2 663,-99.2 663,-38.2 511,-38.2"/>
<polygon fill="#f5f5f5" stroke="transparent" points="511,-75.7 511,-98.7 663,-98.7 663,-75.7 511,-75.7"/>
<polygon fill="none" stroke="#000000" points="511,-75.7 511,-98.7 663,-98.7 663,-75.7 511,-75.7"/>
<text text-anchor="start" x="515.8058" y="-84.8" font-family="Helvetica,sans-Serif" font-weight="bold" font-size="11.00" fill="#000000">SUBUNIT_VARIANTS</text>
<text text-anchor="start" x="628.5219" y="-83.8" font-family="Helvetica,sans-Serif" font-size="11.00" fill="#000000">[table]</text>
<polygon fill="none" stroke="#000000" points="511,-56.7 511,-75.7 663,-75.7 663,-56.7 511,-56.7"/>
<text text-anchor="start" x="514" y="-62.8" font-family="Helvetica,sans-Serif" font-size="11.00" fill="#000000">...</text>
<polygon fill="#ffffff" stroke="transparent" points="511,-37.7 511,-56.7 568,-56.7 568,-37.7 511,-37.7"/>
<polygon fill="none" stroke="#000000" points="511,-37.7 511,-56.7 568,-56.7 568,-37.7 511,-37.7"/>
<text text-anchor="start" x="514" y="-43.8" font-family="Helvetica,sans-Serif" font-size="11.00" fill="#000000">&lt; 1</text>
<polygon fill="#ffffff" stroke="transparent" points="568,-37.7 568,-56.7 624,-56.7 624,-37.7 568,-37.7"/>
<polygon fill="none" stroke="#000000" points="568,-37.7 568,-56.7 624,-56.7 624,-37.7 568,-37.7"/>
<text text-anchor="start" x="588.6105" y="-43.8" font-family="Helvetica,sans-Serif" font-size="11.00" fill="#000000">0 rows</text>
<polygon fill="#ffffff" stroke="transparent" points="624,-37.7 624,-56.7 663,-56.7 663,-37.7 624,-37.7"/>
<polygon fill="none" stroke="#000000" points="624,-37.7 624,-56.7 663,-56.7 663,-37.7 624,-37.7"/>
<text text-anchor="start" x="644.4053" y="-43.8" font-family="Helvetica,sans-Serif" font-size="11.00" fill="#000000">1 &gt;</text>
</a>
</g>
</g>
<!-- SUBUNIT_VARIANTS&#45;&gt;SUBUNITS -->
<g id="edge5" class="edge">
<title>SUBUNIT_VARIANTS:w&#45;&gt;SUBUNITS:e</title>
<path fill="none" stroke="#000000" d="M496.239,-66.0773C460.31,-68.1084 443.3668,-78.8222 416,-109.7 377.2653,-153.4041 433.8988,-234.7 375.5,-234.7"/>
<polygon fill="#000000" stroke="#000000" points="503.0026,-65.9044 511.092,-69.2988 507.0013,-65.8022 511,-65.7 511,-65.7 511,-65.7 507.0013,-65.8022 510.908,-62.1012 503.0026,-65.9044 503.0026,-65.9044"/>
<ellipse fill="none" stroke="#000000" cx="499.8037" cy="-65.9862" rx="3.2" ry="3.2"/>
</g>
</g>
</svg>
