<?xml version="1.0" encoding="UTF-8" standalone="no"?>
<!DOCTYPE svg PUBLIC "-//W3C//DTD SVG 1.1//EN"
 "http://www.w3.org/Graphics/SVG/1.1/DTD/svg11.dtd">
<!-- Generated by graphviz version 2.40.1 (20161225.0304)
 -->
<!-- Title: twoDegreesRelationshipsDiagram Pages: 1 -->
<svg width="787pt" height="383pt"
 viewBox="0.00 0.00 787.00 382.70" xmlns="http://www.w3.org/2000/svg" xmlns:xlink="http://www.w3.org/1999/xlink">
<g id="graph0" class="graph" transform="scale(1 1) rotate(0) translate(4 378.7)">
<title>twoDegreesRelationshipsDiagram</title>
<polygon fill="#ffffff" stroke="transparent" points="-4,4 -4,-378.7 783,-378.7 783,4 -4,4"/>
<text text-anchor="middle" x="72.4936" y="-7.3" font-family="Helvetica,sans-Serif" font-size="11.00" fill="#000000">Generated by SchemaSpy</text>
<!-- SUBUNIT_ANNOTATIONS -->
<g id="node1" class="node">
<title>SUBUNIT_ANNOTATIONS</title>
<g id="a_node1"><a xlink:href="../../tables/SUBUNIT_ANNOTATIONS.html" xlink:title="SUBUNIT_ANNOTATIONS" target="_top">
<polygon fill="#ffffff" stroke="transparent" points="595,-309.7 595,-370.7 771,-370.7 771,-309.7 595,-309.7"/>
<polygon fill="#f5f5f5" stroke="transparent" points="595,-347.2 595,-370.2 771,-370.2 771,-347.2 595,-347.2"/>
<polygon fill="none" stroke="#000000" points="595,-347.2 595,-370.2 771,-370.2 771,-347.2 595,-347.2"/>
<text text-anchor="start" x="599.5865" y="-356.3" font-family="Helvetica,sans-Serif" font-weight="bold" font-size="11.00" fill="#000000">SUBUNIT_ANNOTATIONS</text>
<text text-anchor="start" x="736.5219" y="-355.3" font-family="Helvetica,sans-Serif" font-size="11.00" fill="#000000">[table]</text>
<polygon fill="none" stroke="#000000" points="595,-328.2 595,-347.2 771,-347.2 771,-328.2 595,-328.2"/>
<text text-anchor="start" x="598" y="-334.3" font-family="Helvetica,sans-Serif" font-size="11.00" fill="#000000">...</text>
<polygon fill="#ffffff" stroke="transparent" points="595,-309.2 595,-328.2 664,-328.2 664,-309.2 595,-309.2"/>
<polygon fill="none" stroke="#000000" points="595,-309.2 595,-328.2 664,-328.2 664,-309.2 595,-309.2"/>
<text text-anchor="start" x="598" y="-315.3" font-family="Helvetica,sans-Serif" font-size="11.00" fill="#000000">&lt; 1</text>
<polygon fill="#ffffff" stroke="transparent" points="664,-309.2 664,-328.2 726,-328.2 726,-309.2 664,-309.2"/>
<polygon fill="none" stroke="#000000" points="664,-309.2 664,-328.2 726,-328.2 726,-309.2 664,-309.2"/>
<text text-anchor="start" x="690.6105" y="-315.3" font-family="Helvetica,sans-Serif" font-size="11.00" fill="#000000">0 rows</text>
<polygon fill="#ffffff" stroke="transparent" points="726,-309.2 726,-328.2 771,-328.2 771,-309.2 726,-309.2"/>
<polygon fill="none" stroke="#000000" points="726,-309.2 726,-328.2 771,-328.2 771,-309.2 726,-309.2"/>
<text text-anchor="start" x="752.4053" y="-315.3" font-family="Helvetica,sans-Serif" font-size="11.00" fill="#000000">1 &gt;</text>
</a>
</g>
</g>
<!-- SUBUNITS -->
<g id="node2" class="node">
<title>SUBUNITS</title>
<g id="a_node2"><a xlink:href="../../tables/SUBUNITS.html" xlink:title="SUBUNITS" target="_top">
<polygon fill="#ffffff" stroke="transparent" points="361,-162.7 361,-289.7 546,-289.7 546,-162.7 361,-162.7"/>
<polygon fill="#f5f5f5" stroke="transparent" points="361.5,-266.2 361.5,-289.2 546.5,-289.2 546.5,-266.2 361.5,-266.2"/>
<polygon fill="none" stroke="#000000" points="361.5,-266.2 361.5,-289.2 546.5,-289.2 546.5,-266.2 361.5,-266.2"/>
<text text-anchor="start" x="366.5" y="-275.3" font-family="Helvetica,sans-Serif" font-weight="bold" font-size="11.00" fill="#000000">SUBUNITS</text>
<text text-anchor="start" x="511.5437" y="-274.3" font-family="Helvetica,sans-Serif" font-size="11.00" fill="#000000">[table]</text>
<polygon fill="none" stroke="#000000" points="361.5,-244.2 361.5,-266.2 546.5,-266.2 546.5,-244.2 361.5,-244.2"/>
<image xlink:href="../../images/primaryKeys.png" width="11px" height="12px" preserveAspectRatio="xMinYMin meet" x="366.5" y="-261.2"/>
<text text-anchor="start" x="381.5" y="-251.3" font-family="Helvetica,sans-Serif" font-size="11.00" fill="#000000">ID</text>
<polygon fill="none" stroke="#000000" points="361.5,-222.2 361.5,-244.2 546.5,-244.2 546.5,-222.2 361.5,-222.2"/>
<image xlink:href="../../images/foreignKeys.png" width="11px" height="12px" preserveAspectRatio="xMinYMin meet" x="366.5" y="-239.2"/>
<text text-anchor="start" x="381.5" y="-229.3" font-family="Helvetica,sans-Serif" font-size="11.00" fill="#000000">TARGET_ID</text>
<polygon fill="none" stroke="#000000" points="361.5,-200.2 361.5,-222.2 546.5,-222.2 546.5,-200.2 361.5,-200.2"/>
<image xlink:href="../../images/foreignKeys.png" width="11px" height="12px" preserveAspectRatio="xMinYMin meet" x="366.5" y="-217.2"/>
<text text-anchor="start" x="381.5" y="-207.3" font-family="Helvetica,sans-Serif" font-size="11.00" fill="#000000">SUBUNIT_TYPE_ID</text>
<polygon fill="none" stroke="#000000" points="361.5,-181.2 361.5,-200.2 546.5,-200.2 546.5,-181.2 361.5,-181.2"/>
<text text-anchor="start" x="364.5" y="-187.3" font-family="Helvetica,sans-Serif" font-size="11.00" fill="#000000">...</text>
<polygon fill="#ffffff" stroke="transparent" points="361.5,-162.2 361.5,-181.2 434.5,-181.2 434.5,-162.2 361.5,-162.2"/>
<polygon fill="none" stroke="#000000" points="361.5,-162.2 361.5,-181.2 434.5,-181.2 434.5,-162.2 361.5,-162.2"/>
<text text-anchor="start" x="364.5" y="-168.3" font-family="Helvetica,sans-Serif" font-size="11.00" fill="#000000">&lt; 2</text>
<polygon fill="#ffffff" stroke="transparent" points="434.5,-162.2 434.5,-181.2 498.5,-181.2 498.5,-162.2 434.5,-162.2"/>
<polygon fill="none" stroke="#000000" points="434.5,-162.2 434.5,-181.2 498.5,-181.2 498.5,-162.2 434.5,-162.2"/>
<text text-anchor="start" x="463.1105" y="-168.3" font-family="Helvetica,sans-Serif" font-size="11.00" fill="#000000">0 rows</text>
<polygon fill="#ffffff" stroke="transparent" points="498.5,-162.2 498.5,-181.2 546.5,-181.2 546.5,-162.2 498.5,-162.2"/>
<polygon fill="none" stroke="#000000" points="498.5,-162.2 498.5,-181.2 546.5,-181.2 546.5,-162.2 498.5,-162.2"/>
<text text-anchor="start" x="527.9053" y="-168.3" font-family="Helvetica,sans-Serif" font-size="11.00" fill="#000000">3 &gt;</text>
</a>
</g>
</g>
<!-- SUBUNIT_ANNOTATIONS&#45;&gt;SUBUNITS -->
<g id="edge1" class="edge">
<title>SUBUNIT_ANNOTATIONS:w&#45;&gt;SUBUNITS:e</title>
<path fill="none" stroke="#000000" d="M581.0877,-332.5564C561.4771,-315.2098 582.7222,-255.2 546.5,-255.2"/>
<polygon fill="#000000" stroke="#000000" points="587.4115,-334.6671 593.8602,-340.6148 591.2058,-335.9336 595,-337.2 595,-337.2 595,-337.2 591.2058,-335.9336 596.1398,-333.7852 587.4115,-334.6671 587.4115,-334.6671"/>
<ellipse fill="none" stroke="#000000" cx="584.3762" cy="-333.6539" rx="3.2" ry="3.2"/>
</g>
<!-- SUBUNIT_TYPES -->
<g id="node5" class="node">
<title>SUBUNIT_TYPES</title>
<g id="a_node5"><a xlink:href="../../tables/SUBUNIT_TYPES.html" xlink:title="SUBUNIT_TYPES" target="_top">
<polygon fill="#ffffff" stroke="transparent" points="8,-38.2 8,-216.2 312,-216.2 312,-38.2 8,-38.2"/>
<polygon fill="#f5f5f5" stroke="transparent" points="10,-191.2 10,-214.2 310,-214.2 310,-191.2 10,-191.2"/>
<polygon fill="none" stroke="#000000" points="10,-191.2 10,-214.2 310,-214.2 310,-191.2 10,-191.2"/>
<text text-anchor="start" x="15" y="-200.3" font-family="Helvetica,sans-Serif" font-weight="bold" font-size="11.00" fill="#000000">SUBUNIT_TYPES</text>
<text text-anchor="start" x="275.0437" y="-199.3" font-family="Helvetica,sans-Serif" font-size="11.00" fill="#000000">[table]</text>
<polygon fill="none" stroke="#000000" points="10,-169.2 10,-191.2 139,-191.2 139,-169.2 10,-169.2"/>
<image xlink:href="../../images/primaryKeys.png" width="11px" height="12px" preserveAspectRatio="xMinYMin meet" x="15" y="-186.2"/>
<text text-anchor="start" x="30" y="-176.3" font-family="Helvetica,sans-Serif" font-size="11.00" fill="#000000">ID</text>
<polygon fill="none" stroke="#000000" points="139,-169.2 139,-191.2 310,-191.2 310,-169.2 139,-169.2"/>
<text text-anchor="start" x="142" y="-176.9" font-family="Helvetica,sans-Serif" font-size="11.00" fill="#000000">number[19]</text>
<polygon fill="none" stroke="#000000" points="10,-147.2 10,-169.2 139,-169.2 139,-147.2 10,-147.2"/>
<text text-anchor="start" x="30" y="-154.3" font-family="Helvetica,sans-Serif" font-size="11.00" fill="#000000">CREATED_AT</text>
<polygon fill="none" stroke="#000000" points="139,-147.2 139,-169.2 310,-169.2 310,-147.2 139,-147.2"/>
<text text-anchor="start" x="141.9896" y="-154.9" font-family="Helvetica,sans-Serif" font-size="11.00" fill="#000000">timestamp(6) with time zone[13,6]</text>
<polygon fill="none" stroke="#000000" points="10,-125.2 10,-147.2 139,-147.2 139,-125.2 10,-125.2"/>
<text text-anchor="start" x="30" y="-132.3" font-family="Helvetica,sans-Serif" font-size="11.00" fill="#000000">CREATED_BY</text>
<polygon fill="none" stroke="#000000" points="139,-125.2 139,-147.2 310,-147.2 310,-125.2 139,-125.2"/>
<text text-anchor="start" x="142" y="-132.9" font-family="Helvetica,sans-Serif" font-size="11.00" fill="#000000">number[19]</text>
<polygon fill="none" stroke="#000000" points="10,-103.2 10,-125.2 139,-125.2 139,-103.2 10,-103.2"/>
<text text-anchor="start" x="30" y="-110.3" font-family="Helvetica,sans-Serif" font-size="11.00" fill="#000000">UPDATED_AT</text>
<polygon fill="none" stroke="#000000" points="139,-103.2 139,-125.2 310,-125.2 310,-103.2 139,-103.2"/>
<text text-anchor="start" x="141.9896" y="-110.9" font-family="Helvetica,sans-Serif" font-size="11.00" fill="#000000">timestamp(6) with time zone[13,6]</text>
<polygon fill="none" stroke="#000000" points="10,-81.2 10,-103.2 139,-103.2 139,-81.2 10,-81.2"/>
<text text-anchor="start" x="30" y="-88.3" font-family="Helvetica,sans-Serif" font-size="11.00" fill="#000000">UPDATED_BY</text>
<polygon fill="none" stroke="#000000" points="139,-81.2 139,-103.2 310,-103.2 310,-81.2 139,-81.2"/>
<text text-anchor="start" x="142" y="-88.9" font-family="Helvetica,sans-Serif" font-size="11.00" fill="#000000">number[19]</text>
<polygon fill="none" stroke="#000000" points="10,-59.2 10,-81.2 139,-81.2 139,-59.2 10,-59.2"/>
<text text-anchor="start" x="30" y="-66.3" font-family="Helvetica,sans-Serif" font-size="11.00" fill="#000000">NAME</text>
<polygon fill="none" stroke="#000000" points="139,-59.2 139,-81.2 310,-81.2 310,-59.2 139,-59.2"/>
<text text-anchor="start" x="142" y="-66.9" font-family="Helvetica,sans-Serif" font-size="11.00" fill="#000000">varchar2[255]</text>
<polygon fill="#ffffff" stroke="transparent" points="10,-40.2 10,-59.2 66,-59.2 66,-40.2 10,-40.2"/>
<polygon fill="none" stroke="#000000" points="10,-40.2 10,-59.2 66,-59.2 66,-40.2 10,-40.2"/>
<text text-anchor="start" x="13" y="-46.3" font-family="Helvetica,sans-Serif" font-size="11.00" fill="#000000">&lt; 0</text>
<polygon fill="#ffffff" stroke="transparent" points="66,-40.2 66,-59.2 139,-59.2 139,-40.2 66,-40.2"/>
<polygon fill="none" stroke="#000000" points="66,-40.2 66,-59.2 139,-59.2 139,-40.2 66,-40.2"/>
<text text-anchor="start" x="103.6105" y="-46.3" font-family="Helvetica,sans-Serif" font-size="11.00" fill="#000000">0 rows</text>
<polygon fill="#ffffff" stroke="transparent" points="139,-40.2 139,-59.2 310,-59.2 310,-40.2 139,-40.2"/>
<polygon fill="none" stroke="#000000" points="139,-40.2 139,-59.2 310,-59.2 310,-40.2 139,-40.2"/>
<text text-anchor="start" x="291.4053" y="-46.3" font-family="Helvetica,sans-Serif" font-size="11.00" fill="#000000">1 &gt;</text>
<polygon fill="none" stroke="#000000" stroke-width="2" points="9,-39.2 9,-215.2 311,-215.2 311,-39.2 9,-39.2"/>
</a>
</g>
</g>
<!-- SUBUNITS&#45;&gt;SUBUNIT_TYPES -->
<g id="edge4" class="edge">
<title>SUBUNITS:w&#45;&gt;SUBUNIT_TYPES:e</title>
<path fill="none" stroke="#000000" d="M347.4805,-207.3988C334.2585,-199.1209 330.8716,-180.2 310,-180.2"/>
<polygon fill="#000000" stroke="#000000" points="353.7788,-209.1064 360.5579,-214.6745 357.6394,-210.1532 361.5,-211.2 361.5,-211.2 361.5,-211.2 357.6394,-210.1532 362.4421,-207.7255 353.7788,-209.1064 353.7788,-209.1064"/>
<ellipse fill="none" stroke="#000000" cx="350.6903" cy="-208.269" rx="3.2" ry="3.2"/>
</g>
<!-- TARGETS -->
<g id="node6" class="node">
<title>TARGETS</title>
<g id="a_node6"><a xlink:href="../../tables/TARGETS.html" xlink:title="TARGETS" target="_top">
<polygon fill="#ffffff" stroke="transparent" points="111,-237.7 111,-298.7 209,-298.7 209,-237.7 111,-237.7"/>
<polygon fill="#f5f5f5" stroke="transparent" points="111,-275.2 111,-298.2 209,-298.2 209,-275.2 111,-275.2"/>
<polygon fill="none" stroke="#000000" points="111,-275.2 111,-298.2 209,-298.2 209,-275.2 111,-275.2"/>
<text text-anchor="start" x="116" y="-284.3" font-family="Helvetica,sans-Serif" font-weight="bold" font-size="11.00" fill="#000000">TARGETS</text>
<text text-anchor="start" x="174.0437" y="-283.3" font-family="Helvetica,sans-Serif" font-size="11.00" fill="#000000">[table]</text>
<polygon fill="none" stroke="#000000" points="111,-256.2 111,-275.2 209,-275.2 209,-256.2 111,-256.2"/>
<text text-anchor="start" x="114" y="-262.3" font-family="Helvetica,sans-Serif" font-size="11.00" fill="#000000">...</text>
<polygon fill="#ffffff" stroke="transparent" points="111,-237.2 111,-256.2 132,-256.2 132,-237.2 111,-237.2"/>
<polygon fill="none" stroke="#000000" points="111,-237.2 111,-256.2 132,-256.2 132,-237.2 111,-237.2"/>
<text text-anchor="start" x="113.7027" y="-243.3" font-family="Helvetica,sans-Serif" font-size="11.00" fill="#000000">&lt; 3</text>
<polygon fill="#ffffff" stroke="transparent" points="132,-237.2 132,-256.2 182,-256.2 182,-237.2 132,-237.2"/>
<polygon fill="none" stroke="#000000" points="132,-237.2 132,-256.2 182,-256.2 182,-237.2 132,-237.2"/>
<text text-anchor="start" x="134.6904" y="-243.3" font-family="Helvetica,sans-Serif" font-size="11.00" fill="#000000">146 rows</text>
<polygon fill="#ffffff" stroke="transparent" points="182,-237.2 182,-256.2 209,-256.2 209,-237.2 182,-237.2"/>
<polygon fill="none" stroke="#000000" points="182,-237.2 182,-256.2 209,-256.2 209,-237.2 182,-237.2"/>
<text text-anchor="start" x="184.6452" y="-243.3" font-family="Helvetica,sans-Serif" font-size="11.00" fill="#000000">10 &gt;</text>
</a>
</g>
</g>
<!-- SUBUNITS&#45;&gt;TARGETS -->
<g id="edge5" class="edge">
<title>SUBUNITS:w&#45;&gt;TARGETS:e</title>
<path fill="none" stroke="#000000" d="M346.9482,-233.7026C289.8647,-237.7737 273.1139,-265.2 209,-265.2"/>
<polygon fill="#000000" stroke="#000000" points="353.5048,-233.4762 361.6243,-236.7979 357.5024,-233.3381 361.5,-233.2 361.5,-233.2 361.5,-233.2 357.5024,-233.3381 361.3757,-229.6021 353.5048,-233.4762 353.5048,-233.4762"/>
<ellipse fill="none" stroke="#000000" cx="350.3067" cy="-233.5867" rx="3.2" ry="3.2"/>
</g>
<!-- SUBUNIT_DOMAINS -->
<g id="node3" class="node">
<title>SUBUNIT_DOMAINS</title>
<g id="a_node3"><a xlink:href="../../tables/SUBUNIT_DOMAINS.html" xlink:title="SUBUNIT_DOMAINS" target="_top">
<polygon fill="#ffffff" stroke="transparent" points="609,-227.7 609,-288.7 757,-288.7 757,-227.7 609,-227.7"/>
<polygon fill="#f5f5f5" stroke="transparent" points="609,-265.2 609,-288.2 757,-288.2 757,-265.2 609,-265.2"/>
<polygon fill="none" stroke="#000000" points="609,-265.2 609,-288.2 757,-288.2 757,-265.2 609,-265.2"/>
<text text-anchor="start" x="613.6423" y="-274.3" font-family="Helvetica,sans-Serif" font-weight="bold" font-size="11.00" fill="#000000">SUBUNIT_DOMAINS</text>
<text text-anchor="start" x="722.5219" y="-273.3" font-family="Helvetica,sans-Serif" font-size="11.00" fill="#000000">[table]</text>
<polygon fill="none" stroke="#000000" points="609,-246.2 609,-265.2 757,-265.2 757,-246.2 609,-246.2"/>
<text text-anchor="start" x="612" y="-252.3" font-family="Helvetica,sans-Serif" font-size="11.00" fill="#000000">...</text>
<polygon fill="#ffffff" stroke="transparent" points="609,-227.2 609,-246.2 664,-246.2 664,-227.2 609,-227.2"/>
<polygon fill="none" stroke="#000000" points="609,-227.2 609,-246.2 664,-246.2 664,-227.2 609,-227.2"/>
<text text-anchor="start" x="612" y="-233.3" font-family="Helvetica,sans-Serif" font-size="11.00" fill="#000000">&lt; 1</text>
<polygon fill="#ffffff" stroke="transparent" points="664,-227.2 664,-246.2 719,-246.2 719,-227.2 664,-227.2"/>
<polygon fill="none" stroke="#000000" points="664,-227.2 664,-246.2 719,-246.2 719,-227.2 664,-227.2"/>
<text text-anchor="start" x="683.6105" y="-233.3" font-family="Helvetica,sans-Serif" font-size="11.00" fill="#000000">0 rows</text>
<polygon fill="#ffffff" stroke="transparent" points="719,-227.2 719,-246.2 757,-246.2 757,-227.2 719,-227.2"/>
<polygon fill="none" stroke="#000000" points="719,-227.2 719,-246.2 757,-246.2 757,-227.2 719,-227.2"/>
<text text-anchor="start" x="738.4053" y="-233.3" font-family="Helvetica,sans-Serif" font-size="11.00" fill="#000000">1 &gt;</text>
</a>
</g>
</g>
<!-- SUBUNIT_DOMAINS&#45;&gt;SUBUNITS -->
<g id="edge2" class="edge">
<title>SUBUNIT_DOMAINS:w&#45;&gt;SUBUNITS:e</title>
<path fill="none" stroke="#000000" d="M594.3024,-255.2C577.5415,-255.2 568.6354,-255.2 546.5,-255.2"/>
<polygon fill="#000000" stroke="#000000" points="601,-255.2001 609,-258.8 605,-255.2 609,-255.2 609,-255.2 609,-255.2 605,-255.2 609,-251.6 601,-255.2001 601,-255.2001"/>
<ellipse fill="none" stroke="#000000" cx="597.8" cy="-255.2001" rx="3.2" ry="3.2"/>
</g>
<!-- SUBUNIT_VARIANTS -->
<g id="node4" class="node">
<title>SUBUNIT_VARIANTS</title>
<g id="a_node4"><a xlink:href="../../tables/SUBUNIT_VARIANTS.html" xlink:title="SUBUNIT_VARIANTS" target="_top">
<polygon fill="#ffffff" stroke="transparent" points="607,-145.7 607,-206.7 759,-206.7 759,-145.7 607,-145.7"/>
<polygon fill="#f5f5f5" stroke="transparent" points="607,-183.2 607,-206.2 759,-206.2 759,-183.2 607,-183.2"/>
<polygon fill="none" stroke="#000000" points="607,-183.2 607,-206.2 759,-206.2 759,-183.2 607,-183.2"/>
<text text-anchor="start" x="611.8058" y="-192.3" font-family="Helvetica,sans-Serif" font-weight="bold" font-size="11.00" fill="#000000">SUBUNIT_VARIANTS</text>
<text text-anchor="start" x="724.5219" y="-191.3" font-family="Helvetica,sans-Serif" font-size="11.00" fill="#000000">[table]</text>
<polygon fill="none" stroke="#000000" points="607,-164.2 607,-183.2 759,-183.2 759,-164.2 607,-164.2"/>
<text text-anchor="start" x="610" y="-170.3" font-family="Helvetica,sans-Serif" font-size="11.00" fill="#000000">...</text>
<polygon fill="#ffffff" stroke="transparent" points="607,-145.2 607,-164.2 664,-164.2 664,-145.2 607,-145.2"/>
<polygon fill="none" stroke="#000000" points="607,-145.2 607,-164.2 664,-164.2 664,-145.2 607,-145.2"/>
<text text-anchor="start" x="610" y="-151.3" font-family="Helvetica,sans-Serif" font-size="11.00" fill="#000000">&lt; 1</text>
<polygon fill="#ffffff" stroke="transparent" points="664,-145.2 664,-164.2 720,-164.2 720,-145.2 664,-145.2"/>
<polygon fill="none" stroke="#000000" points="664,-145.2 664,-164.2 720,-164.2 720,-145.2 664,-145.2"/>
<text text-anchor="start" x="684.6105" y="-151.3" font-family="Helvetica,sans-Serif" font-size="11.00" fill="#000000">0 rows</text>
<polygon fill="#ffffff" stroke="transparent" points="720,-145.2 720,-164.2 759,-164.2 759,-145.2 720,-145.2"/>
<polygon fill="none" stroke="#000000" points="720,-145.2 720,-164.2 759,-164.2 759,-145.2 720,-145.2"/>
<text text-anchor="start" x="740.4053" y="-151.3" font-family="Helvetica,sans-Serif" font-size="11.00" fill="#000000">1 &gt;</text>
</a>
</g>
</g>
<!-- SUBUNIT_VARIANTS&#45;&gt;SUBUNITS -->
<g id="edge3" class="edge">
<title>SUBUNIT_VARIANTS:w&#45;&gt;SUBUNITS:e</title>
<path fill="none" stroke="#000000" d="M592.9198,-176.9364C568.2124,-192.978 585.9521,-255.2 546.5,-255.2"/>
<polygon fill="#000000" stroke="#000000" points="599.2676,-175.252 607.9234,-176.6796 603.1338,-174.226 607,-173.2 607,-173.2 607,-173.2 603.1338,-174.226 606.0766,-169.7204 599.2676,-175.252 599.2676,-175.252"/>
<ellipse fill="none" stroke="#000000" cx="596.1747" cy="-176.0728" rx="3.2" ry="3.2"/>
</g>
</g>
</svg>
