<?xml version="1.0" encoding="UTF-8" standalone="no"?>
<!DOCTYPE svg PUBLIC "-//W3C//DTD SVG 1.1//EN"
 "http://www.w3.org/Graphics/SVG/1.1/DTD/svg11.dtd">
<!-- Generated by graphviz version 2.40.1 (20161225.0304)
 -->
<!-- Title: twoDegreesRelationshipsDiagram Pages: 1 -->
<svg width="1127pt" height="585pt"
 viewBox="0.00 0.00 1127.00 585.20" xmlns="http://www.w3.org/2000/svg" xmlns:xlink="http://www.w3.org/1999/xlink">
<g id="graph0" class="graph" transform="scale(1 1) rotate(0) translate(4 581.2)">
<title>twoDegreesRelationshipsDiagram</title>
<polygon fill="#ffffff" stroke="transparent" points="-4,4 -4,-581.2 1123,-581.2 1123,4 -4,4"/>
<text text-anchor="middle" x="72.4936" y="-7.3" font-family="Helvetica,sans-Serif" font-size="11.00" fill="#000000">Generated by SchemaSpy</text>
<!-- SUBUNIT_ANNOTATIONS -->
<g id="node1" class="node">
<title>SUBUNIT_ANNOTATIONS</title>
<g id="a_node1"><a xlink:href="../../tables/SUBUNIT_ANNOTATIONS.html" xlink:title="SUBUNIT_ANNOTATIONS" target="_top">
<polygon fill="#ffffff" stroke="transparent" points="424,-120.7 424,-408.7 784,-408.7 784,-120.7 424,-120.7"/>
<polygon fill="#f5f5f5" stroke="transparent" points="426,-383.7 426,-406.7 782,-406.7 782,-383.7 426,-383.7"/>
<polygon fill="none" stroke="#000000" points="426,-383.7 426,-406.7 782,-406.7 782,-383.7 426,-383.7"/>
<text text-anchor="start" x="431" y="-392.8" font-family="Helvetica,sans-Serif" font-weight="bold" font-size="11.00" fill="#000000">SUBUNIT_ANNOTATIONS</text>
<text text-anchor="start" x="747.0437" y="-391.8" font-family="Helvetica,sans-Serif" font-size="11.00" fill="#000000">[table]</text>
<polygon fill="none" stroke="#000000" points="426,-361.7 426,-383.7 611,-383.7 611,-361.7 426,-361.7"/>
<image xlink:href="../../images/primaryKeys.png" width="11px" height="12px" preserveAspectRatio="xMinYMin meet" x="431" y="-378.7"/>
<text text-anchor="start" x="446" y="-368.8" font-family="Helvetica,sans-Serif" font-size="11.00" fill="#000000">ID</text>
<polygon fill="none" stroke="#000000" points="611,-361.7 611,-383.7 782,-383.7 782,-361.7 611,-361.7"/>
<text text-anchor="start" x="614" y="-369.4" font-family="Helvetica,sans-Serif" font-size="11.00" fill="#000000">number[19]</text>
<polygon fill="none" stroke="#000000" points="426,-339.7 426,-361.7 611,-361.7 611,-339.7 426,-339.7"/>
<text text-anchor="start" x="446" y="-346.8" font-family="Helvetica,sans-Serif" font-size="11.00" fill="#000000">CREATED_AT</text>
<polygon fill="none" stroke="#000000" points="611,-339.7 611,-361.7 782,-361.7 782,-339.7 611,-339.7"/>
<text text-anchor="start" x="613.9896" y="-347.4" font-family="Helvetica,sans-Serif" font-size="11.00" fill="#000000">timestamp(6) with time zone[13,6]</text>
<polygon fill="none" stroke="#000000" points="426,-317.7 426,-339.7 611,-339.7 611,-317.7 426,-317.7"/>
<text text-anchor="start" x="446" y="-324.8" font-family="Helvetica,sans-Serif" font-size="11.00" fill="#000000">CREATED_BY</text>
<polygon fill="none" stroke="#000000" points="611,-317.7 611,-339.7 782,-339.7 782,-317.7 611,-317.7"/>
<text text-anchor="start" x="614" y="-325.4" font-family="Helvetica,sans-Serif" font-size="11.00" fill="#000000">number[19]</text>
<polygon fill="none" stroke="#000000" points="426,-295.7 426,-317.7 611,-317.7 611,-295.7 426,-295.7"/>
<text text-anchor="start" x="446" y="-302.8" font-family="Helvetica,sans-Serif" font-size="11.00" fill="#000000">UPDATED_AT</text>
<polygon fill="none" stroke="#000000" points="611,-295.7 611,-317.7 782,-317.7 782,-295.7 611,-295.7"/>
<text text-anchor="start" x="613.9896" y="-303.4" font-family="Helvetica,sans-Serif" font-size="11.00" fill="#000000">timestamp(6) with time zone[13,6]</text>
<polygon fill="none" stroke="#000000" points="426,-273.7 426,-295.7 611,-295.7 611,-273.7 426,-273.7"/>
<text text-anchor="start" x="446" y="-280.8" font-family="Helvetica,sans-Serif" font-size="11.00" fill="#000000">UPDATED_BY</text>
<polygon fill="none" stroke="#000000" points="611,-273.7 611,-295.7 782,-295.7 782,-273.7 611,-273.7"/>
<text text-anchor="start" x="614" y="-281.4" font-family="Helvetica,sans-Serif" font-size="11.00" fill="#000000">number[19]</text>
<polygon fill="none" stroke="#000000" points="426,-251.7 426,-273.7 611,-273.7 611,-251.7 426,-251.7"/>
<text text-anchor="start" x="446" y="-258.8" font-family="Helvetica,sans-Serif" font-size="11.00" fill="#000000">COLOR</text>
<polygon fill="none" stroke="#000000" points="611,-251.7 611,-273.7 782,-273.7 782,-251.7 611,-251.7"/>
<text text-anchor="start" x="614" y="-259.4" font-family="Helvetica,sans-Serif" font-size="11.00" fill="#000000">varchar2[255]</text>
<polygon fill="none" stroke="#000000" points="426,-229.7 426,-251.7 611,-251.7 611,-229.7 426,-229.7"/>
<text text-anchor="start" x="446" y="-236.8" font-family="Helvetica,sans-Serif" font-size="11.00" fill="#000000">DESCRIPTION</text>
<polygon fill="none" stroke="#000000" points="611,-229.7 611,-251.7 782,-251.7 782,-229.7 611,-229.7"/>
<text text-anchor="start" x="614" y="-237.4" font-family="Helvetica,sans-Serif" font-size="11.00" fill="#000000">clob[4000]</text>
<polygon fill="none" stroke="#000000" points="426,-207.7 426,-229.7 611,-229.7 611,-207.7 426,-207.7"/>
<text text-anchor="start" x="446" y="-214.8" font-family="Helvetica,sans-Serif" font-size="11.00" fill="#000000">END_RANGE</text>
<polygon fill="none" stroke="#000000" points="611,-207.7 611,-229.7 782,-229.7 782,-207.7 611,-207.7"/>
<text text-anchor="start" x="614" y="-215.4" font-family="Helvetica,sans-Serif" font-size="11.00" fill="#000000">number[19]</text>
<polygon fill="none" stroke="#000000" points="426,-185.7 426,-207.7 611,-207.7 611,-185.7 426,-185.7"/>
<image xlink:href="../../images/foreignKeys.png" width="11px" height="12px" preserveAspectRatio="xMinYMin meet" x="431" y="-202.7"/>
<text text-anchor="start" x="446" y="-192.8" font-family="Helvetica,sans-Serif" font-size="11.00" fill="#000000">SUBUNIT_ID</text>
<polygon fill="none" stroke="#000000" points="611,-185.7 611,-207.7 782,-207.7 782,-185.7 611,-185.7"/>
<text text-anchor="start" x="614" y="-193.4" font-family="Helvetica,sans-Serif" font-size="11.00" fill="#000000">number[19]</text>
<polygon fill="none" stroke="#000000" points="426,-163.7 426,-185.7 611,-185.7 611,-163.7 426,-163.7"/>
<text text-anchor="start" x="446" y="-170.8" font-family="Helvetica,sans-Serif" font-size="11.00" fill="#000000">START_RANGE</text>
<polygon fill="none" stroke="#000000" points="611,-163.7 611,-185.7 782,-185.7 782,-163.7 611,-163.7"/>
<text text-anchor="start" x="614" y="-171.4" font-family="Helvetica,sans-Serif" font-size="11.00" fill="#000000">number[19]</text>
<polygon fill="none" stroke="#000000" points="426,-141.7 426,-163.7 611,-163.7 611,-141.7 426,-141.7"/>
<text text-anchor="start" x="446" y="-148.8" font-family="Helvetica,sans-Serif" font-size="11.00" fill="#000000">TITLE</text>
<polygon fill="none" stroke="#000000" points="611,-141.7 611,-163.7 782,-163.7 782,-141.7 611,-141.7"/>
<text text-anchor="start" x="614" y="-149.4" font-family="Helvetica,sans-Serif" font-size="11.00" fill="#000000">varchar2[255]</text>
<polygon fill="#ffffff" stroke="transparent" points="426,-122.7 426,-141.7 510,-141.7 510,-122.7 426,-122.7"/>
<polygon fill="none" stroke="#000000" points="426,-122.7 426,-141.7 510,-141.7 510,-122.7 426,-122.7"/>
<text text-anchor="start" x="429" y="-128.8" font-family="Helvetica,sans-Serif" font-size="11.00" fill="#000000">&lt; 1</text>
<polygon fill="#ffffff" stroke="transparent" points="510,-122.7 510,-141.7 611,-141.7 611,-122.7 510,-122.7"/>
<polygon fill="none" stroke="#000000" points="510,-122.7 510,-141.7 611,-141.7 611,-122.7 510,-122.7"/>
<text text-anchor="start" x="575.6105" y="-128.8" font-family="Helvetica,sans-Serif" font-size="11.00" fill="#000000">0 rows</text>
<polygon fill="#ffffff" stroke="transparent" points="611,-122.7 611,-141.7 782,-141.7 782,-122.7 611,-122.7"/>
<polygon fill="none" stroke="#000000" points="611,-122.7 611,-141.7 782,-141.7 782,-122.7 611,-122.7"/>
<text text-anchor="start" x="763.4053" y="-128.8" font-family="Helvetica,sans-Serif" font-size="11.00" fill="#000000">1 &gt;</text>
<polygon fill="none" stroke="#000000" stroke-width="2" points="425,-121.7 425,-407.7 783,-407.7 783,-121.7 425,-121.7"/>
</a>
</g>
</g>
<!-- SUBUNITS -->
<g id="node2" class="node">
<title>SUBUNITS</title>
<g id="a_node2"><a xlink:href="../../tables/SUBUNITS.html" xlink:title="SUBUNITS" target="_top">
<polygon fill="#ffffff" stroke="transparent" points="190,-365.2 190,-492.2 375,-492.2 375,-365.2 190,-365.2"/>
<polygon fill="#f5f5f5" stroke="transparent" points="190.5,-468.7 190.5,-491.7 375.5,-491.7 375.5,-468.7 190.5,-468.7"/>
<polygon fill="none" stroke="#000000" points="190.5,-468.7 190.5,-491.7 375.5,-491.7 375.5,-468.7 190.5,-468.7"/>
<text text-anchor="start" x="195.5" y="-477.8" font-family="Helvetica,sans-Serif" font-weight="bold" font-size="11.00" fill="#000000">SUBUNITS</text>
<text text-anchor="start" x="340.5437" y="-476.8" font-family="Helvetica,sans-Serif" font-size="11.00" fill="#000000">[table]</text>
<polygon fill="none" stroke="#000000" points="190.5,-446.7 190.5,-468.7 375.5,-468.7 375.5,-446.7 190.5,-446.7"/>
<image xlink:href="../../images/primaryKeys.png" width="11px" height="12px" preserveAspectRatio="xMinYMin meet" x="195.5" y="-463.7"/>
<text text-anchor="start" x="210.5" y="-453.8" font-family="Helvetica,sans-Serif" font-size="11.00" fill="#000000">ID</text>
<polygon fill="none" stroke="#000000" points="190.5,-424.7 190.5,-446.7 375.5,-446.7 375.5,-424.7 190.5,-424.7"/>
<image xlink:href="../../images/foreignKeys.png" width="11px" height="12px" preserveAspectRatio="xMinYMin meet" x="195.5" y="-441.7"/>
<text text-anchor="start" x="210.5" y="-431.8" font-family="Helvetica,sans-Serif" font-size="11.00" fill="#000000">TARGET_ID</text>
<polygon fill="none" stroke="#000000" points="190.5,-402.7 190.5,-424.7 375.5,-424.7 375.5,-402.7 190.5,-402.7"/>
<image xlink:href="../../images/foreignKeys.png" width="11px" height="12px" preserveAspectRatio="xMinYMin meet" x="195.5" y="-419.7"/>
<text text-anchor="start" x="210.5" y="-409.8" font-family="Helvetica,sans-Serif" font-size="11.00" fill="#000000">SUBUNIT_TYPE_ID</text>
<polygon fill="none" stroke="#000000" points="190.5,-383.7 190.5,-402.7 375.5,-402.7 375.5,-383.7 190.5,-383.7"/>
<text text-anchor="start" x="193.5" y="-389.8" font-family="Helvetica,sans-Serif" font-size="11.00" fill="#000000">...</text>
<polygon fill="#ffffff" stroke="transparent" points="190.5,-364.7 190.5,-383.7 263.5,-383.7 263.5,-364.7 190.5,-364.7"/>
<polygon fill="none" stroke="#000000" points="190.5,-364.7 190.5,-383.7 263.5,-383.7 263.5,-364.7 190.5,-364.7"/>
<text text-anchor="start" x="193.5" y="-370.8" font-family="Helvetica,sans-Serif" font-size="11.00" fill="#000000">&lt; 2</text>
<polygon fill="#ffffff" stroke="transparent" points="263.5,-364.7 263.5,-383.7 327.5,-383.7 327.5,-364.7 263.5,-364.7"/>
<polygon fill="none" stroke="#000000" points="263.5,-364.7 263.5,-383.7 327.5,-383.7 327.5,-364.7 263.5,-364.7"/>
<text text-anchor="start" x="292.1105" y="-370.8" font-family="Helvetica,sans-Serif" font-size="11.00" fill="#000000">0 rows</text>
<polygon fill="#ffffff" stroke="transparent" points="327.5,-364.7 327.5,-383.7 375.5,-383.7 375.5,-364.7 327.5,-364.7"/>
<polygon fill="none" stroke="#000000" points="327.5,-364.7 327.5,-383.7 375.5,-383.7 375.5,-364.7 327.5,-364.7"/>
<text text-anchor="start" x="356.9053" y="-370.8" font-family="Helvetica,sans-Serif" font-size="11.00" fill="#000000">3 &gt;</text>
</a>
</g>
</g>
<!-- SUBUNIT_ANNOTATIONS&#45;&gt;SUBUNITS -->
<g id="edge1" class="edge">
<title>SUBUNIT_ANNOTATIONS:w&#45;&gt;SUBUNITS:e</title>
<path fill="none" stroke="#000000" d="M412.5176,-203.1517C378.4951,-243.3436 429.0374,-457.7 375.5,-457.7"/>
<polygon fill="#000000" stroke="#000000" points="418.7837,-200.1532 427.554,-199.9473 422.3918,-198.4266 426,-196.7 426,-196.7 426,-196.7 422.3918,-198.4266 424.446,-193.4527 418.7837,-200.1532 418.7837,-200.1532"/>
<ellipse fill="none" stroke="#000000" cx="415.8971" cy="-201.5345" rx="3.2" ry="3.2"/>
</g>
<!-- SUBUNIT_TYPES -->
<g id="node7" class="node">
<title>SUBUNIT_TYPES</title>
<g id="a_node7"><a xlink:href="../../tables/SUBUNIT_TYPES.html" xlink:title="SUBUNIT_TYPES" target="_top">
<polygon fill="#ffffff" stroke="transparent" points="8,-356.2 8,-417.2 141,-417.2 141,-356.2 8,-356.2"/>
<polygon fill="#f5f5f5" stroke="transparent" points="8.5,-393.7 8.5,-416.7 141.5,-416.7 141.5,-393.7 8.5,-393.7"/>
<polygon fill="none" stroke="#000000" points="8.5,-393.7 8.5,-416.7 141.5,-416.7 141.5,-393.7 8.5,-393.7"/>
<text text-anchor="start" x="13.2752" y="-402.8" font-family="Helvetica,sans-Serif" font-weight="bold" font-size="11.00" fill="#000000">SUBUNIT_TYPES</text>
<text text-anchor="start" x="107.0219" y="-401.8" font-family="Helvetica,sans-Serif" font-size="11.00" fill="#000000">[table]</text>
<polygon fill="none" stroke="#000000" points="8.5,-374.7 8.5,-393.7 141.5,-393.7 141.5,-374.7 8.5,-374.7"/>
<text text-anchor="start" x="11.5" y="-380.8" font-family="Helvetica,sans-Serif" font-size="11.00" fill="#000000">...</text>
<polygon fill="#ffffff" stroke="transparent" points="8.5,-355.7 8.5,-374.7 51.5,-374.7 51.5,-355.7 8.5,-355.7"/>
<polygon fill="none" stroke="#000000" points="8.5,-355.7 8.5,-374.7 51.5,-374.7 51.5,-355.7 8.5,-355.7"/>
<text text-anchor="start" x="11.5" y="-361.8" font-family="Helvetica,sans-Serif" font-size="11.00" fill="#000000"> &#160;</text>
<polygon fill="#ffffff" stroke="transparent" points="51.5,-355.7 51.5,-374.7 104.5,-374.7 104.5,-355.7 51.5,-355.7"/>
<polygon fill="none" stroke="#000000" points="51.5,-355.7 51.5,-374.7 104.5,-374.7 104.5,-355.7 51.5,-355.7"/>
<text text-anchor="start" x="69.1105" y="-361.8" font-family="Helvetica,sans-Serif" font-size="11.00" fill="#000000">0 rows</text>
<polygon fill="#ffffff" stroke="transparent" points="104.5,-355.7 104.5,-374.7 141.5,-374.7 141.5,-355.7 104.5,-355.7"/>
<polygon fill="none" stroke="#000000" points="104.5,-355.7 104.5,-374.7 141.5,-374.7 141.5,-355.7 104.5,-355.7"/>
<text text-anchor="start" x="122.9053" y="-361.8" font-family="Helvetica,sans-Serif" font-size="11.00" fill="#000000">1 &gt;</text>
</a>
</g>
</g>
<!-- SUBUNITS&#45;&gt;SUBUNIT_TYPES -->
<g id="edge6" class="edge">
<title>SUBUNITS:w&#45;&gt;SUBUNIT_TYPES:e</title>
<path fill="none" stroke="#000000" d="M176.384,-409.5286C164.4189,-401.2854 161.0504,-383.7 141.5,-383.7"/>
<polygon fill="#000000" stroke="#000000" points="182.828,-411.4328 189.4798,-417.1524 186.664,-412.5664 190.5,-413.7 190.5,-413.7 190.5,-413.7 186.664,-412.5664 191.5202,-410.2476 182.828,-411.4328 182.828,-411.4328"/>
<ellipse fill="none" stroke="#000000" cx="179.7591" cy="-410.526" rx="3.2" ry="3.2"/>
</g>
<!-- TARGETS -->
<g id="node8" class="node">
<title>TARGETS</title>
<g id="a_node8"><a xlink:href="../../tables/TARGETS.html" xlink:title="TARGETS" target="_top">
<polygon fill="#ffffff" stroke="transparent" points="25.5,-438.2 25.5,-499.2 123.5,-499.2 123.5,-438.2 25.5,-438.2"/>
<polygon fill="#f5f5f5" stroke="transparent" points="25.5,-475.7 25.5,-498.7 123.5,-498.7 123.5,-475.7 25.5,-475.7"/>
<polygon fill="none" stroke="#000000" points="25.5,-475.7 25.5,-498.7 123.5,-498.7 123.5,-475.7 25.5,-475.7"/>
<text text-anchor="start" x="30.5" y="-484.8" font-family="Helvetica,sans-Serif" font-weight="bold" font-size="11.00" fill="#000000">TARGETS</text>
<text text-anchor="start" x="88.5437" y="-483.8" font-family="Helvetica,sans-Serif" font-size="11.00" fill="#000000">[table]</text>
<polygon fill="none" stroke="#000000" points="25.5,-456.7 25.5,-475.7 123.5,-475.7 123.5,-456.7 25.5,-456.7"/>
<text text-anchor="start" x="28.5" y="-462.8" font-family="Helvetica,sans-Serif" font-size="11.00" fill="#000000">...</text>
<polygon fill="#ffffff" stroke="transparent" points="25.5,-437.7 25.5,-456.7 46.5,-456.7 46.5,-437.7 25.5,-437.7"/>
<polygon fill="none" stroke="#000000" points="25.5,-437.7 25.5,-456.7 46.5,-456.7 46.5,-437.7 25.5,-437.7"/>
<text text-anchor="start" x="28.2027" y="-443.8" font-family="Helvetica,sans-Serif" font-size="11.00" fill="#000000">&lt; 3</text>
<polygon fill="#ffffff" stroke="transparent" points="46.5,-437.7 46.5,-456.7 96.5,-456.7 96.5,-437.7 46.5,-437.7"/>
<polygon fill="none" stroke="#000000" points="46.5,-437.7 46.5,-456.7 96.5,-456.7 96.5,-437.7 46.5,-437.7"/>
<text text-anchor="start" x="49.1903" y="-443.8" font-family="Helvetica,sans-Serif" font-size="11.00" fill="#000000">146 rows</text>
<polygon fill="#ffffff" stroke="transparent" points="96.5,-437.7 96.5,-456.7 123.5,-456.7 123.5,-437.7 96.5,-437.7"/>
<polygon fill="none" stroke="#000000" points="96.5,-437.7 96.5,-456.7 123.5,-456.7 123.5,-437.7 96.5,-437.7"/>
<text text-anchor="start" x="99.1452" y="-443.8" font-family="Helvetica,sans-Serif" font-size="11.00" fill="#000000">10 &gt;</text>
</a>
</g>
</g>
<!-- SUBUNITS&#45;&gt;TARGETS -->
<g id="edge7" class="edge">
<title>SUBUNITS:w&#45;&gt;TARGETS:e</title>
<path fill="none" stroke="#000000" d="M176.1,-438.054C156.3607,-445.1263 150.5189,-465.7 123.5,-465.7"/>
<polygon fill="#000000" stroke="#000000" points="182.6048,-436.9907 191.0808,-439.2528 186.5524,-436.3454 190.5,-435.7 190.5,-435.7 190.5,-435.7 186.5524,-436.3454 189.9192,-432.1472 182.6048,-436.9907 182.6048,-436.9907"/>
<ellipse fill="none" stroke="#000000" cx="179.4467" cy="-437.507" rx="3.2" ry="3.2"/>
</g>
<!-- SUBUNIT_ANNOTATIONS_REFERENCES -->
<g id="node3" class="node">
<title>SUBUNIT_ANNOTATIONS_REFERENCES</title>
<g id="a_node3"><a xlink:href="../../tables/SUBUNIT_ANNOTATIONS_REFERENCES.html" xlink:title="SUBUNIT_ANNOTATIONS_REFERENCES" target="_top">
<polygon fill="#ffffff" stroke="transparent" points="833,-159.2 833,-286.2 1111,-286.2 1111,-159.2 833,-159.2"/>
<polygon fill="#f5f5f5" stroke="transparent" points="833,-262.7 833,-285.7 1111,-285.7 1111,-262.7 833,-262.7"/>
<polygon fill="none" stroke="#000000" points="833,-262.7 833,-285.7 1111,-285.7 1111,-262.7 833,-262.7"/>
<text text-anchor="start" x="838" y="-271.8" font-family="Helvetica,sans-Serif" font-weight="bold" font-size="11.00" fill="#000000">SUBUNIT_ANNOTATIONS_REFERENCES</text>
<text text-anchor="start" x="1076.0437" y="-270.8" font-family="Helvetica,sans-Serif" font-size="11.00" fill="#000000">[table]</text>
<polygon fill="none" stroke="#000000" points="833,-240.7 833,-262.7 1111,-262.7 1111,-240.7 833,-240.7"/>
<image xlink:href="../../images/primaryKeys.png" width="11px" height="12px" preserveAspectRatio="xMinYMin meet" x="838" y="-257.7"/>
<text text-anchor="start" x="853" y="-247.8" font-family="Helvetica,sans-Serif" font-size="11.00" fill="#000000">ID</text>
<polygon fill="none" stroke="#000000" points="833,-218.7 833,-240.7 1111,-240.7 1111,-218.7 833,-218.7"/>
<image xlink:href="../../images/foreignKeys.png" width="11px" height="12px" preserveAspectRatio="xMinYMin meet" x="838" y="-235.7"/>
<text text-anchor="start" x="853" y="-225.8" font-family="Helvetica,sans-Serif" font-size="11.00" fill="#000000">SUBUNIT_ANNOTATION_ID</text>
<polygon fill="none" stroke="#000000" points="833,-196.7 833,-218.7 1111,-218.7 1111,-196.7 833,-196.7"/>
<image xlink:href="../../images/foreignKeys.png" width="11px" height="12px" preserveAspectRatio="xMinYMin meet" x="838" y="-213.7"/>
<text text-anchor="start" x="853" y="-203.8" font-family="Helvetica,sans-Serif" font-size="11.00" fill="#000000">REFERENCE_ID</text>
<polygon fill="none" stroke="#000000" points="833,-177.7 833,-196.7 1111,-196.7 1111,-177.7 833,-177.7"/>
<text text-anchor="start" x="836" y="-183.8" font-family="Helvetica,sans-Serif" font-size="11.00" fill="#000000">...</text>
<polygon fill="#ffffff" stroke="transparent" points="833,-158.7 833,-177.7 957,-177.7 957,-158.7 833,-158.7"/>
<polygon fill="none" stroke="#000000" points="833,-158.7 833,-177.7 957,-177.7 957,-158.7 833,-158.7"/>
<text text-anchor="start" x="836" y="-164.8" font-family="Helvetica,sans-Serif" font-size="11.00" fill="#000000">&lt; 2</text>
<polygon fill="#ffffff" stroke="transparent" points="957,-158.7 957,-177.7 1047,-177.7 1047,-158.7 957,-158.7"/>
<polygon fill="none" stroke="#000000" points="957,-158.7 957,-177.7 1047,-177.7 1047,-158.7 957,-158.7"/>
<text text-anchor="start" x="1011.6105" y="-164.8" font-family="Helvetica,sans-Serif" font-size="11.00" fill="#000000">0 rows</text>
<polygon fill="#ffffff" stroke="transparent" points="1047,-158.7 1047,-177.7 1111,-177.7 1111,-158.7 1047,-158.7"/>
<polygon fill="none" stroke="#000000" points="1047,-158.7 1047,-177.7 1111,-177.7 1111,-158.7 1047,-158.7"/>
<text text-anchor="start" x="1101.8862" y="-164.8" font-family="Helvetica,sans-Serif" font-size="11.00" fill="#000000"> &#160;</text>
</a>
</g>
</g>
<!-- SUBUNIT_ANNOTATIONS_REFERENCES&#45;&gt;SUBUNIT_ANNOTATIONS -->
<g id="edge3" class="edge">
<title>SUBUNIT_ANNOTATIONS_REFERENCES:w&#45;&gt;SUBUNIT_ANNOTATIONS:e</title>
<path fill="none" stroke="#000000" d="M818.7665,-232.6868C778.8345,-253.222 843.6778,-372.7 782,-372.7"/>
<polygon fill="#000000" stroke="#000000" points="825.1705,-231.343 833.7393,-233.2233 829.0853,-230.5215 833,-229.7 833,-229.7 833,-229.7 829.0853,-230.5215 832.2607,-226.1767 825.1705,-231.343 825.1705,-231.343"/>
<ellipse fill="none" stroke="#000000" cx="822.0387" cy="-232.0002" rx="3.2" ry="3.2"/>
</g>
<!-- REFERENCES -->
<g id="node4" class="node">
<title>REFERENCES</title>
<g id="a_node4"><a xlink:href="../../tables/REFERENCES.html" xlink:title="REFERENCES" target="_top">
<polygon fill="#ffffff" stroke="transparent" points="545,-38.2 545,-99.2 663,-99.2 663,-38.2 545,-38.2"/>
<polygon fill="#f5f5f5" stroke="transparent" points="545,-75.7 545,-98.7 663,-98.7 663,-75.7 545,-75.7"/>
<polygon fill="none" stroke="#000000" points="545,-75.7 545,-98.7 663,-98.7 663,-75.7 545,-75.7"/>
<text text-anchor="start" x="549.9185" y="-84.8" font-family="Helvetica,sans-Serif" font-weight="bold" font-size="11.00" fill="#000000">REFERENCES</text>
<text text-anchor="start" x="628.5219" y="-83.8" font-family="Helvetica,sans-Serif" font-size="11.00" fill="#000000">[table]</text>
<polygon fill="none" stroke="#000000" points="545,-56.7 545,-75.7 663,-75.7 663,-56.7 545,-56.7"/>
<text text-anchor="start" x="548" y="-62.8" font-family="Helvetica,sans-Serif" font-size="11.00" fill="#000000">...</text>
<polygon fill="#ffffff" stroke="transparent" points="545,-37.7 545,-56.7 571,-56.7 571,-37.7 545,-37.7"/>
<polygon fill="none" stroke="#000000" points="545,-37.7 545,-56.7 571,-56.7 571,-37.7 545,-37.7"/>
<text text-anchor="start" x="548" y="-43.8" font-family="Helvetica,sans-Serif" font-size="11.00" fill="#000000">&lt; 1</text>
<polygon fill="#ffffff" stroke="transparent" points="571,-37.7 571,-56.7 633,-56.7 633,-37.7 571,-37.7"/>
<polygon fill="none" stroke="#000000" points="571,-37.7 571,-56.7 633,-56.7 633,-37.7 571,-37.7"/>
<text text-anchor="start" x="576.2089" y="-43.8" font-family="Helvetica,sans-Serif" font-size="11.00" fill="#000000">2,900 rows</text>
<polygon fill="#ffffff" stroke="transparent" points="633,-37.7 633,-56.7 663,-56.7 663,-37.7 633,-37.7"/>
<polygon fill="none" stroke="#000000" points="633,-37.7 633,-56.7 663,-56.7 663,-37.7 633,-37.7"/>
<text text-anchor="start" x="638.2904" y="-43.8" font-family="Helvetica,sans-Serif" font-size="11.00" fill="#000000">20 &gt;</text>
</a>
</g>
</g>
<!-- SUBUNIT_ANNOTATIONS_REFERENCES&#45;&gt;REFERENCES -->
<g id="edge2" class="edge">
<title>SUBUNIT_ANNOTATIONS_REFERENCES:w&#45;&gt;REFERENCES:e</title>
<path fill="none" stroke="#000000" d="M818.88,-204.6703C795.2634,-191.4939 821.7406,-138.5881 792,-110.7 747.7061,-69.165 723.7216,-65.7 663,-65.7"/>
<polygon fill="#000000" stroke="#000000" points="825.178,-206.0216 832.2447,-211.2199 829.089,-206.8608 833,-207.7 833,-207.7 833,-207.7 829.089,-206.8608 833.7553,-204.1801 825.178,-206.0216 825.178,-206.0216"/>
<ellipse fill="none" stroke="#000000" cx="822.0492" cy="-205.3503" rx="3.2" ry="3.2"/>
</g>
<!-- SUBUNIT_DOMAINS -->
<g id="node5" class="node">
<title>SUBUNIT_DOMAINS</title>
<g id="a_node5"><a xlink:href="../../tables/SUBUNIT_DOMAINS.html" xlink:title="SUBUNIT_DOMAINS" target="_top">
<polygon fill="#ffffff" stroke="transparent" points="530,-512.2 530,-573.2 678,-573.2 678,-512.2 530,-512.2"/>
<polygon fill="#f5f5f5" stroke="transparent" points="530,-549.7 530,-572.7 678,-572.7 678,-549.7 530,-549.7"/>
<polygon fill="none" stroke="#000000" points="530,-549.7 530,-572.7 678,-572.7 678,-549.7 530,-549.7"/>
<text text-anchor="start" x="534.6423" y="-558.8" font-family="Helvetica,sans-Serif" font-weight="bold" font-size="11.00" fill="#000000">SUBUNIT_DOMAINS</text>
<text text-anchor="start" x="643.5219" y="-557.8" font-family="Helvetica,sans-Serif" font-size="11.00" fill="#000000">[table]</text>
<polygon fill="none" stroke="#000000" points="530,-530.7 530,-549.7 678,-549.7 678,-530.7 530,-530.7"/>
<text text-anchor="start" x="533" y="-536.8" font-family="Helvetica,sans-Serif" font-size="11.00" fill="#000000">...</text>
<polygon fill="#ffffff" stroke="transparent" points="530,-511.7 530,-530.7 585,-530.7 585,-511.7 530,-511.7"/>
<polygon fill="none" stroke="#000000" points="530,-511.7 530,-530.7 585,-530.7 585,-511.7 530,-511.7"/>
<text text-anchor="start" x="533" y="-517.8" font-family="Helvetica,sans-Serif" font-size="11.00" fill="#000000">&lt; 1</text>
<polygon fill="#ffffff" stroke="transparent" points="585,-511.7 585,-530.7 640,-530.7 640,-511.7 585,-511.7"/>
<polygon fill="none" stroke="#000000" points="585,-511.7 585,-530.7 640,-530.7 640,-511.7 585,-511.7"/>
<text text-anchor="start" x="604.6105" y="-517.8" font-family="Helvetica,sans-Serif" font-size="11.00" fill="#000000">0 rows</text>
<polygon fill="#ffffff" stroke="transparent" points="640,-511.7 640,-530.7 678,-530.7 678,-511.7 640,-511.7"/>
<polygon fill="none" stroke="#000000" points="640,-511.7 640,-530.7 678,-530.7 678,-511.7 640,-511.7"/>
<text text-anchor="start" x="659.4053" y="-517.8" font-family="Helvetica,sans-Serif" font-size="11.00" fill="#000000">1 &gt;</text>
</a>
</g>
</g>
<!-- SUBUNIT_DOMAINS&#45;&gt;SUBUNITS -->
<g id="edge4" class="edge">
<title>SUBUNIT_DOMAINS:w&#45;&gt;SUBUNITS:e</title>
<path fill="none" stroke="#000000" d="M515.3685,-539.4326C473.2386,-537.7536 456.4612,-527.8789 416,-501.7 393.685,-487.2619 402.0786,-457.7 375.5,-457.7"/>
<polygon fill="#000000" stroke="#000000" points="522.0013,-539.5538 529.9342,-543.2994 526.0007,-539.6269 530,-539.7 530,-539.7 530,-539.7 526.0007,-539.6269 530.0658,-536.1006 522.0013,-539.5538 522.0013,-539.5538"/>
<ellipse fill="none" stroke="#000000" cx="518.8019" cy="-539.4953" rx="3.2" ry="3.2"/>
</g>
<!-- SUBUNIT_VARIANTS -->
<g id="node6" class="node">
<title>SUBUNIT_VARIANTS</title>
<g id="a_node6"><a xlink:href="../../tables/SUBUNIT_VARIANTS.html" xlink:title="SUBUNIT_VARIANTS" target="_top">
<polygon fill="#ffffff" stroke="transparent" points="528,-430.2 528,-491.2 680,-491.2 680,-430.2 528,-430.2"/>
<polygon fill="#f5f5f5" stroke="transparent" points="528,-467.7 528,-490.7 680,-490.7 680,-467.7 528,-467.7"/>
<polygon fill="none" stroke="#000000" points="528,-467.7 528,-490.7 680,-490.7 680,-467.7 528,-467.7"/>
<text text-anchor="start" x="532.8058" y="-476.8" font-family="Helvetica,sans-Serif" font-weight="bold" font-size="11.00" fill="#000000">SUBUNIT_VARIANTS</text>
<text text-anchor="start" x="645.5219" y="-475.8" font-family="Helvetica,sans-Serif" font-size="11.00" fill="#000000">[table]</text>
<polygon fill="none" stroke="#000000" points="528,-448.7 528,-467.7 680,-467.7 680,-448.7 528,-448.7"/>
<text text-anchor="start" x="531" y="-454.8" font-family="Helvetica,sans-Serif" font-size="11.00" fill="#000000">...</text>
<polygon fill="#ffffff" stroke="transparent" points="528,-429.7 528,-448.7 585,-448.7 585,-429.7 528,-429.7"/>
<polygon fill="none" stroke="#000000" points="528,-429.7 528,-448.7 585,-448.7 585,-429.7 528,-429.7"/>
<text text-anchor="start" x="531" y="-435.8" font-family="Helvetica,sans-Serif" font-size="11.00" fill="#000000">&lt; 1</text>
<polygon fill="#ffffff" stroke="transparent" points="585,-429.7 585,-448.7 641,-448.7 641,-429.7 585,-429.7"/>
<polygon fill="none" stroke="#000000" points="585,-429.7 585,-448.7 641,-448.7 641,-429.7 585,-429.7"/>
<text text-anchor="start" x="605.6105" y="-435.8" font-family="Helvetica,sans-Serif" font-size="11.00" fill="#000000">0 rows</text>
<polygon fill="#ffffff" stroke="transparent" points="641,-429.7 641,-448.7 680,-448.7 680,-429.7 641,-429.7"/>
<polygon fill="none" stroke="#000000" points="641,-429.7 641,-448.7 680,-448.7 680,-429.7 641,-429.7"/>
<text text-anchor="start" x="661.4053" y="-435.8" font-family="Helvetica,sans-Serif" font-size="11.00" fill="#000000">1 &gt;</text>
</a>
</g>
</g>
<!-- SUBUNIT_VARIANTS&#45;&gt;SUBUNITS -->
<g id="edge5" class="edge">
<title>SUBUNIT_VARIANTS:w&#45;&gt;SUBUNITS:e</title>
<path fill="none" stroke="#000000" d="M513.3516,-457.7C457.3459,-457.7 438.115,-457.7 375.5,-457.7"/>
<polygon fill="#000000" stroke="#000000" points="520,-457.7001 528,-461.3 524,-457.7 528,-457.7 528,-457.7 528,-457.7 524,-457.7 528,-454.1 520,-457.7001 520,-457.7001"/>
<ellipse fill="none" stroke="#000000" cx="516.8" cy="-457.7001" rx="3.2" ry="3.2"/>
</g>
</g>
</svg>
