<?xml version="1.0" encoding="UTF-8" standalone="no"?>
<!DOCTYPE svg PUBLIC "-//W3C//DTD SVG 1.1//EN"
 "http://www.w3.org/Graphics/SVG/1.1/DTD/svg11.dtd">
<!-- Generated by graphviz version 2.40.1 (20161225.0304)
 -->
<!-- Title: oneDegreeRelationshipsDiagram Pages: 1 -->
<svg width="651pt" height="341pt"
 viewBox="0.00 0.00 651.00 340.70" xmlns="http://www.w3.org/2000/svg" xmlns:xlink="http://www.w3.org/1999/xlink">
<g id="graph0" class="graph" transform="scale(1 1) rotate(0) translate(4 336.7)">
<title>oneDegreeRelationshipsDiagram</title>
<polygon fill="#ffffff" stroke="transparent" points="-4,4 -4,-336.7 647,-336.7 647,4 -4,4"/>
<text text-anchor="middle" x="72.4936" y="-7.3" font-family="Helvetica,sans-Serif" font-size="11.00" fill="#000000">Generated by SchemaSpy</text>
<!-- SUBUNIT_VARIANTS_REFERENCES -->
<g id="node1" class="node">
<title>SUBUNIT_VARIANTS_REFERENCES</title>
<g id="a_node1"><a xlink:href="../../tables/SUBUNIT_VARIANTS_REFERENCES.html" xlink:title="SUBUNIT_VARIANTS_REFERENCES" target="_top">
<polygon fill="#ffffff" stroke="transparent" points="212,-128.7 212,-328.7 635,-328.7 635,-128.7 212,-128.7"/>
<polygon fill="#f5f5f5" stroke="transparent" points="214.5,-303.7 214.5,-326.7 633.5,-326.7 633.5,-303.7 214.5,-303.7"/>
<polygon fill="none" stroke="#000000" points="214.5,-303.7 214.5,-326.7 633.5,-326.7 633.5,-303.7 214.5,-303.7"/>
<text text-anchor="start" x="219.5" y="-312.8" font-family="Helvetica,sans-Serif" font-weight="bold" font-size="11.00" fill="#000000">SUBUNIT_VARIANTS_REFERENCES</text>
<text text-anchor="start" x="598.5437" y="-311.8" font-family="Helvetica,sans-Serif" font-size="11.00" fill="#000000">[table]</text>
<polygon fill="none" stroke="#000000" points="214.5,-281.7 214.5,-303.7 462.5,-303.7 462.5,-281.7 214.5,-281.7"/>
<image xlink:href="../../images/primaryKeys.png" width="11px" height="12px" preserveAspectRatio="xMinYMin meet" x="219.5" y="-298.7"/>
<text text-anchor="start" x="234.5" y="-288.8" font-family="Helvetica,sans-Serif" font-size="11.00" fill="#000000">ID</text>
<polygon fill="none" stroke="#000000" points="462.5,-281.7 462.5,-303.7 633.5,-303.7 633.5,-281.7 462.5,-281.7"/>
<text text-anchor="start" x="465.5" y="-289.4" font-family="Helvetica,sans-Serif" font-size="11.00" fill="#000000">number[19]</text>
<polygon fill="none" stroke="#000000" points="214.5,-259.7 214.5,-281.7 462.5,-281.7 462.5,-259.7 214.5,-259.7"/>
<text text-anchor="start" x="234.5" y="-266.8" font-family="Helvetica,sans-Serif" font-size="11.00" fill="#000000">CREATED_AT</text>
<polygon fill="none" stroke="#000000" points="462.5,-259.7 462.5,-281.7 633.5,-281.7 633.5,-259.7 462.5,-259.7"/>
<text text-anchor="start" x="465.4896" y="-267.4" font-family="Helvetica,sans-Serif" font-size="11.00" fill="#000000">timestamp(6) with time zone[13,6]</text>
<polygon fill="none" stroke="#000000" points="214.5,-237.7 214.5,-259.7 462.5,-259.7 462.5,-237.7 214.5,-237.7"/>
<text text-anchor="start" x="234.5" y="-244.8" font-family="Helvetica,sans-Serif" font-size="11.00" fill="#000000">CREATED_BY</text>
<polygon fill="none" stroke="#000000" points="462.5,-237.7 462.5,-259.7 633.5,-259.7 633.5,-237.7 462.5,-237.7"/>
<text text-anchor="start" x="465.5" y="-245.4" font-family="Helvetica,sans-Serif" font-size="11.00" fill="#000000">number[19]</text>
<polygon fill="none" stroke="#000000" points="214.5,-215.7 214.5,-237.7 462.5,-237.7 462.5,-215.7 214.5,-215.7"/>
<text text-anchor="start" x="234.5" y="-222.8" font-family="Helvetica,sans-Serif" font-size="11.00" fill="#000000">UPDATED_AT</text>
<polygon fill="none" stroke="#000000" points="462.5,-215.7 462.5,-237.7 633.5,-237.7 633.5,-215.7 462.5,-215.7"/>
<text text-anchor="start" x="465.4896" y="-223.4" font-family="Helvetica,sans-Serif" font-size="11.00" fill="#000000">timestamp(6) with time zone[13,6]</text>
<polygon fill="none" stroke="#000000" points="214.5,-193.7 214.5,-215.7 462.5,-215.7 462.5,-193.7 214.5,-193.7"/>
<text text-anchor="start" x="234.5" y="-200.8" font-family="Helvetica,sans-Serif" font-size="11.00" fill="#000000">UPDATED_BY</text>
<polygon fill="none" stroke="#000000" points="462.5,-193.7 462.5,-215.7 633.5,-215.7 633.5,-193.7 462.5,-193.7"/>
<text text-anchor="start" x="465.5" y="-201.4" font-family="Helvetica,sans-Serif" font-size="11.00" fill="#000000">number[19]</text>
<polygon fill="none" stroke="#000000" points="214.5,-171.7 214.5,-193.7 462.5,-193.7 462.5,-171.7 214.5,-171.7"/>
<image xlink:href="../../images/foreignKeys.png" width="11px" height="12px" preserveAspectRatio="xMinYMin meet" x="219.5" y="-188.7"/>
<text text-anchor="start" x="234.5" y="-178.8" font-family="Helvetica,sans-Serif" font-size="11.00" fill="#000000">SUBUNIT_VARIANT_ID</text>
<polygon fill="none" stroke="#000000" points="462.5,-171.7 462.5,-193.7 633.5,-193.7 633.5,-171.7 462.5,-171.7"/>
<text text-anchor="start" x="465.5" y="-179.4" font-family="Helvetica,sans-Serif" font-size="11.00" fill="#000000">number[19]</text>
<polygon fill="none" stroke="#000000" points="214.5,-149.7 214.5,-171.7 462.5,-171.7 462.5,-149.7 214.5,-149.7"/>
<image xlink:href="../../images/foreignKeys.png" width="11px" height="12px" preserveAspectRatio="xMinYMin meet" x="219.5" y="-166.7"/>
<text text-anchor="start" x="234.5" y="-156.8" font-family="Helvetica,sans-Serif" font-size="11.00" fill="#000000">REFERENCE_ID</text>
<polygon fill="none" stroke="#000000" points="462.5,-149.7 462.5,-171.7 633.5,-171.7 633.5,-149.7 462.5,-149.7"/>
<text text-anchor="start" x="465.5" y="-157.4" font-family="Helvetica,sans-Serif" font-size="11.00" fill="#000000">number[19]</text>
<polygon fill="#ffffff" stroke="transparent" points="214.5,-130.7 214.5,-149.7 329.5,-149.7 329.5,-130.7 214.5,-130.7"/>
<polygon fill="none" stroke="#000000" points="214.5,-130.7 214.5,-149.7 329.5,-149.7 329.5,-130.7 214.5,-130.7"/>
<text text-anchor="start" x="217.5" y="-136.8" font-family="Helvetica,sans-Serif" font-size="11.00" fill="#000000">&lt; 2</text>
<polygon fill="#ffffff" stroke="transparent" points="329.5,-130.7 329.5,-149.7 462.5,-149.7 462.5,-130.7 329.5,-130.7"/>
<polygon fill="none" stroke="#000000" points="329.5,-130.7 329.5,-149.7 462.5,-149.7 462.5,-130.7 329.5,-130.7"/>
<text text-anchor="start" x="427.1105" y="-136.8" font-family="Helvetica,sans-Serif" font-size="11.00" fill="#000000">0 rows</text>
<polygon fill="#ffffff" stroke="transparent" points="462.5,-130.7 462.5,-149.7 633.5,-149.7 633.5,-130.7 462.5,-130.7"/>
<polygon fill="none" stroke="#000000" points="462.5,-130.7 462.5,-149.7 633.5,-149.7 633.5,-130.7 462.5,-130.7"/>
<text text-anchor="start" x="614.9053" y="-136.8" font-family="Helvetica,sans-Serif" font-size="11.00" fill="#000000">0 &gt;</text>
<polygon fill="none" stroke="#000000" stroke-width="2" points="213,-129.7 213,-327.7 634,-327.7 634,-129.7 213,-129.7"/>
</a>
</g>
</g>
<!-- REFERENCES -->
<g id="node2" class="node">
<title>REFERENCES</title>
<g id="a_node2"><a xlink:href="../../tables/REFERENCES.html" xlink:title="REFERENCES" target="_top">
<polygon fill="#ffffff" stroke="transparent" points="21.5,-38.2 21.5,-143.2 149.5,-143.2 149.5,-38.2 21.5,-38.2"/>
<polygon fill="#f5f5f5" stroke="transparent" points="21.5,-119.7 21.5,-142.7 149.5,-142.7 149.5,-119.7 21.5,-119.7"/>
<polygon fill="none" stroke="#000000" points="21.5,-119.7 21.5,-142.7 149.5,-142.7 149.5,-119.7 21.5,-119.7"/>
<text text-anchor="start" x="26.5" y="-128.8" font-family="Helvetica,sans-Serif" font-weight="bold" font-size="11.00" fill="#000000">REFERENCES</text>
<text text-anchor="start" x="114.5437" y="-127.8" font-family="Helvetica,sans-Serif" font-size="11.00" fill="#000000">[table]</text>
<polygon fill="none" stroke="#000000" points="21.5,-97.7 21.5,-119.7 149.5,-119.7 149.5,-97.7 21.5,-97.7"/>
<image xlink:href="../../images/primaryKeys.png" width="11px" height="12px" preserveAspectRatio="xMinYMin meet" x="26.5" y="-114.7"/>
<text text-anchor="start" x="41.5" y="-104.8" font-family="Helvetica,sans-Serif" font-size="11.00" fill="#000000">ID</text>
<polygon fill="none" stroke="#000000" points="21.5,-75.7 21.5,-97.7 149.5,-97.7 149.5,-75.7 21.5,-75.7"/>
<image xlink:href="../../images/foreignKeys.png" width="11px" height="12px" preserveAspectRatio="xMinYMin meet" x="26.5" y="-92.7"/>
<text text-anchor="start" x="41.5" y="-82.8" font-family="Helvetica,sans-Serif" font-size="11.00" fill="#000000">USER_ID</text>
<polygon fill="none" stroke="#000000" points="21.5,-56.7 21.5,-75.7 149.5,-75.7 149.5,-56.7 21.5,-56.7"/>
<text text-anchor="start" x="24.5" y="-62.8" font-family="Helvetica,sans-Serif" font-size="11.00" fill="#000000">...</text>
<polygon fill="#ffffff" stroke="transparent" points="21.5,-37.7 21.5,-56.7 52.5,-56.7 52.5,-37.7 21.5,-37.7"/>
<polygon fill="none" stroke="#000000" points="21.5,-37.7 21.5,-56.7 52.5,-56.7 52.5,-37.7 21.5,-37.7"/>
<text text-anchor="start" x="24.5" y="-43.8" font-family="Helvetica,sans-Serif" font-size="11.00" fill="#000000">&lt; 1</text>
<polygon fill="#ffffff" stroke="transparent" points="52.5,-37.7 52.5,-56.7 116.5,-56.7 116.5,-37.7 52.5,-37.7"/>
<polygon fill="none" stroke="#000000" points="52.5,-37.7 52.5,-56.7 116.5,-56.7 116.5,-37.7 52.5,-37.7"/>
<text text-anchor="start" x="59.7089" y="-43.8" font-family="Helvetica,sans-Serif" font-size="11.00" fill="#000000">2,900 rows</text>
<polygon fill="#ffffff" stroke="transparent" points="116.5,-37.7 116.5,-56.7 149.5,-56.7 149.5,-37.7 116.5,-37.7"/>
<polygon fill="none" stroke="#000000" points="116.5,-37.7 116.5,-56.7 149.5,-56.7 149.5,-37.7 116.5,-37.7"/>
<text text-anchor="start" x="124.7904" y="-43.8" font-family="Helvetica,sans-Serif" font-size="11.00" fill="#000000">20 &gt;</text>
</a>
</g>
</g>
<!-- SUBUNIT_VARIANTS_REFERENCES&#45;&gt;REFERENCES -->
<g id="edge1" class="edge">
<title>SUBUNIT_VARIANTS_REFERENCES:w&#45;&gt;REFERENCES:e</title>
<path fill="none" stroke="#000000" d="M200.4685,-157.4472C179.1765,-146.0631 180.8597,-108.7 149.5,-108.7"/>
<polygon fill="#000000" stroke="#000000" points="206.7067,-158.8933 213.687,-164.207 210.6033,-159.7966 214.5,-160.7 214.5,-160.7 214.5,-160.7 210.6033,-159.7966 215.313,-157.193 206.7067,-158.8933 206.7067,-158.8933"/>
<ellipse fill="none" stroke="#000000" cx="203.5893" cy="-158.1706" rx="3.2" ry="3.2"/>
</g>
<!-- SUBUNIT_VARIANTS -->
<g id="node3" class="node">
<title>SUBUNIT_VARIANTS</title>
<g id="a_node3"><a xlink:href="../../tables/SUBUNIT_VARIANTS.html" xlink:title="SUBUNIT_VARIANTS" target="_top">
<polygon fill="#ffffff" stroke="transparent" points="8,-164.2 8,-269.2 163,-269.2 163,-164.2 8,-164.2"/>
<polygon fill="#f5f5f5" stroke="transparent" points="8.5,-245.7 8.5,-268.7 163.5,-268.7 163.5,-245.7 8.5,-245.7"/>
<polygon fill="none" stroke="#000000" points="8.5,-245.7 8.5,-268.7 163.5,-268.7 163.5,-245.7 8.5,-245.7"/>
<text text-anchor="start" x="13.5" y="-254.8" font-family="Helvetica,sans-Serif" font-weight="bold" font-size="11.00" fill="#000000">SUBUNIT_VARIANTS</text>
<text text-anchor="start" x="128.5437" y="-253.8" font-family="Helvetica,sans-Serif" font-size="11.00" fill="#000000">[table]</text>
<polygon fill="none" stroke="#000000" points="8.5,-223.7 8.5,-245.7 163.5,-245.7 163.5,-223.7 8.5,-223.7"/>
<image xlink:href="../../images/primaryKeys.png" width="11px" height="12px" preserveAspectRatio="xMinYMin meet" x="13.5" y="-240.7"/>
<text text-anchor="start" x="28.5" y="-230.8" font-family="Helvetica,sans-Serif" font-size="11.00" fill="#000000">ID</text>
<polygon fill="none" stroke="#000000" points="8.5,-201.7 8.5,-223.7 163.5,-223.7 163.5,-201.7 8.5,-201.7"/>
<image xlink:href="../../images/foreignKeys.png" width="11px" height="12px" preserveAspectRatio="xMinYMin meet" x="13.5" y="-218.7"/>
<text text-anchor="start" x="28.5" y="-208.8" font-family="Helvetica,sans-Serif" font-size="11.00" fill="#000000">SUBUNIT_ID</text>
<polygon fill="none" stroke="#000000" points="8.5,-182.7 8.5,-201.7 163.5,-201.7 163.5,-182.7 8.5,-182.7"/>
<text text-anchor="start" x="11.5" y="-188.8" font-family="Helvetica,sans-Serif" font-size="11.00" fill="#000000">...</text>
<polygon fill="#ffffff" stroke="transparent" points="8.5,-163.7 8.5,-182.7 66.5,-182.7 66.5,-163.7 8.5,-163.7"/>
<polygon fill="none" stroke="#000000" points="8.5,-163.7 8.5,-182.7 66.5,-182.7 66.5,-163.7 8.5,-163.7"/>
<text text-anchor="start" x="11.5" y="-169.8" font-family="Helvetica,sans-Serif" font-size="11.00" fill="#000000">&lt; 1</text>
<polygon fill="#ffffff" stroke="transparent" points="66.5,-163.7 66.5,-182.7 123.5,-182.7 123.5,-163.7 66.5,-163.7"/>
<polygon fill="none" stroke="#000000" points="66.5,-163.7 66.5,-182.7 123.5,-182.7 123.5,-163.7 66.5,-163.7"/>
<text text-anchor="start" x="88.1105" y="-169.8" font-family="Helvetica,sans-Serif" font-size="11.00" fill="#000000">0 rows</text>
<polygon fill="#ffffff" stroke="transparent" points="123.5,-163.7 123.5,-182.7 163.5,-182.7 163.5,-163.7 123.5,-163.7"/>
<polygon fill="none" stroke="#000000" points="123.5,-163.7 123.5,-182.7 163.5,-182.7 163.5,-163.7 123.5,-163.7"/>
<text text-anchor="start" x="144.9053" y="-169.8" font-family="Helvetica,sans-Serif" font-size="11.00" fill="#000000">1 &gt;</text>
</a>
</g>
</g>
<!-- SUBUNIT_VARIANTS_REFERENCES&#45;&gt;SUBUNIT_VARIANTS -->
<g id="edge2" class="edge">
<title>SUBUNIT_VARIANTS_REFERENCES:w&#45;&gt;SUBUNIT_VARIANTS:e</title>
<path fill="none" stroke="#000000" d="M200.5468,-187.4988C185.661,-200.3719 189.8017,-234.7 163.5,-234.7"/>
<polygon fill="#000000" stroke="#000000" points="206.9349,-185.3018 215.6708,-186.1043 210.7175,-184.0009 214.5,-182.7 214.5,-182.7 214.5,-182.7 210.7175,-184.0009 213.3292,-179.2957 206.9349,-185.3018 206.9349,-185.3018"/>
<ellipse fill="none" stroke="#000000" cx="203.9089" cy="-186.3426" rx="3.2" ry="3.2"/>
</g>
</g>
</svg>
