<?xml version="1.0" encoding="UTF-8" standalone="no"?>
<!DOCTYPE svg PUBLIC "-//W3C//DTD SVG 1.1//EN"
 "http://www.w3.org/Graphics/SVG/1.1/DTD/svg11.dtd">
<!-- Generated by graphviz version 2.40.1 (20161225.0304)
 -->
<!-- Title: oneDegreeRelationshipsDiagram Pages: 1 -->
<svg width="648pt" height="341pt"
 viewBox="0.00 0.00 648.00 340.70" xmlns="http://www.w3.org/2000/svg" xmlns:xlink="http://www.w3.org/1999/xlink">
<g id="graph0" class="graph" transform="scale(1 1) rotate(0) translate(4 336.7)">
<title>oneDegreeRelationshipsDiagram</title>
<polygon fill="#ffffff" stroke="transparent" points="-4,4 -4,-336.7 644,-336.7 644,4 -4,4"/>
<text text-anchor="middle" x="72.4936" y="-7.3" font-family="Helvetica,sans-Serif" font-size="11.00" fill="#000000">Generated by SchemaSpy</text>
<!-- SUPPLEMENTS_REFERENCES -->
<g id="node1" class="node">
<title>SUPPLEMENTS_REFERENCES</title>
<g id="a_node1"><a xlink:href="../../tables/SUPPLEMENTS_REFERENCES.html" xlink:title="SUPPLEMENTS_REFERENCES" target="_top">
<polygon fill="#ffffff" stroke="transparent" points="245,-128.7 245,-328.7 632,-328.7 632,-128.7 245,-128.7"/>
<polygon fill="#f5f5f5" stroke="transparent" points="247.5,-303.7 247.5,-326.7 630.5,-326.7 630.5,-303.7 247.5,-303.7"/>
<polygon fill="none" stroke="#000000" points="247.5,-303.7 247.5,-326.7 630.5,-326.7 630.5,-303.7 247.5,-303.7"/>
<text text-anchor="start" x="252.5" y="-312.8" font-family="Helvetica,sans-Serif" font-weight="bold" font-size="11.00" fill="#000000">SUPPLEMENTS_REFERENCES</text>
<text text-anchor="start" x="595.5437" y="-311.8" font-family="Helvetica,sans-Serif" font-size="11.00" fill="#000000">[table]</text>
<polygon fill="none" stroke="#000000" points="247.5,-281.7 247.5,-303.7 459.5,-303.7 459.5,-281.7 247.5,-281.7"/>
<image xlink:href="../../images/primaryKeys.png" width="11px" height="12px" preserveAspectRatio="xMinYMin meet" x="252.5" y="-298.7"/>
<text text-anchor="start" x="267.5" y="-288.8" font-family="Helvetica,sans-Serif" font-size="11.00" fill="#000000">ID</text>
<polygon fill="none" stroke="#000000" points="459.5,-281.7 459.5,-303.7 630.5,-303.7 630.5,-281.7 459.5,-281.7"/>
<text text-anchor="start" x="462.5" y="-289.4" font-family="Helvetica,sans-Serif" font-size="11.00" fill="#000000">number[19]</text>
<polygon fill="none" stroke="#000000" points="247.5,-259.7 247.5,-281.7 459.5,-281.7 459.5,-259.7 247.5,-259.7"/>
<text text-anchor="start" x="267.5" y="-266.8" font-family="Helvetica,sans-Serif" font-size="11.00" fill="#000000">CREATED_AT</text>
<polygon fill="none" stroke="#000000" points="459.5,-259.7 459.5,-281.7 630.5,-281.7 630.5,-259.7 459.5,-259.7"/>
<text text-anchor="start" x="462.4896" y="-267.4" font-family="Helvetica,sans-Serif" font-size="11.00" fill="#000000">timestamp(6) with time zone[13,6]</text>
<polygon fill="none" stroke="#000000" points="247.5,-237.7 247.5,-259.7 459.5,-259.7 459.5,-237.7 247.5,-237.7"/>
<text text-anchor="start" x="267.5" y="-244.8" font-family="Helvetica,sans-Serif" font-size="11.00" fill="#000000">CREATED_BY</text>
<polygon fill="none" stroke="#000000" points="459.5,-237.7 459.5,-259.7 630.5,-259.7 630.5,-237.7 459.5,-237.7"/>
<text text-anchor="start" x="462.5" y="-245.4" font-family="Helvetica,sans-Serif" font-size="11.00" fill="#000000">number[19]</text>
<polygon fill="none" stroke="#000000" points="247.5,-215.7 247.5,-237.7 459.5,-237.7 459.5,-215.7 247.5,-215.7"/>
<text text-anchor="start" x="267.5" y="-222.8" font-family="Helvetica,sans-Serif" font-size="11.00" fill="#000000">UPDATED_AT</text>
<polygon fill="none" stroke="#000000" points="459.5,-215.7 459.5,-237.7 630.5,-237.7 630.5,-215.7 459.5,-215.7"/>
<text text-anchor="start" x="462.4896" y="-223.4" font-family="Helvetica,sans-Serif" font-size="11.00" fill="#000000">timestamp(6) with time zone[13,6]</text>
<polygon fill="none" stroke="#000000" points="247.5,-193.7 247.5,-215.7 459.5,-215.7 459.5,-193.7 247.5,-193.7"/>
<text text-anchor="start" x="267.5" y="-200.8" font-family="Helvetica,sans-Serif" font-size="11.00" fill="#000000">UPDATED_BY</text>
<polygon fill="none" stroke="#000000" points="459.5,-193.7 459.5,-215.7 630.5,-215.7 630.5,-193.7 459.5,-193.7"/>
<text text-anchor="start" x="462.5" y="-201.4" font-family="Helvetica,sans-Serif" font-size="11.00" fill="#000000">number[19]</text>
<polygon fill="none" stroke="#000000" points="247.5,-171.7 247.5,-193.7 459.5,-193.7 459.5,-171.7 247.5,-171.7"/>
<image xlink:href="../../images/foreignKeys.png" width="11px" height="12px" preserveAspectRatio="xMinYMin meet" x="252.5" y="-188.7"/>
<text text-anchor="start" x="267.5" y="-178.8" font-family="Helvetica,sans-Serif" font-size="11.00" fill="#000000">SUPPLEMENT_ID</text>
<polygon fill="none" stroke="#000000" points="459.5,-171.7 459.5,-193.7 630.5,-193.7 630.5,-171.7 459.5,-171.7"/>
<text text-anchor="start" x="462.5" y="-179.4" font-family="Helvetica,sans-Serif" font-size="11.00" fill="#000000">number[19]</text>
<polygon fill="none" stroke="#000000" points="247.5,-149.7 247.5,-171.7 459.5,-171.7 459.5,-149.7 247.5,-149.7"/>
<image xlink:href="../../images/foreignKeys.png" width="11px" height="12px" preserveAspectRatio="xMinYMin meet" x="252.5" y="-166.7"/>
<text text-anchor="start" x="267.5" y="-156.8" font-family="Helvetica,sans-Serif" font-size="11.00" fill="#000000">REFERENCE_ID</text>
<polygon fill="none" stroke="#000000" points="459.5,-149.7 459.5,-171.7 630.5,-171.7 630.5,-149.7 459.5,-149.7"/>
<text text-anchor="start" x="462.5" y="-157.4" font-family="Helvetica,sans-Serif" font-size="11.00" fill="#000000">number[19]</text>
<polygon fill="#ffffff" stroke="transparent" points="247.5,-130.7 247.5,-149.7 341.5,-149.7 341.5,-130.7 247.5,-130.7"/>
<polygon fill="none" stroke="#000000" points="247.5,-130.7 247.5,-149.7 341.5,-149.7 341.5,-130.7 247.5,-130.7"/>
<text text-anchor="start" x="250.5" y="-136.8" font-family="Helvetica,sans-Serif" font-size="11.00" fill="#000000">&lt; 2</text>
<polygon fill="#ffffff" stroke="transparent" points="341.5,-130.7 341.5,-149.7 459.5,-149.7 459.5,-130.7 341.5,-130.7"/>
<polygon fill="none" stroke="#000000" points="341.5,-130.7 341.5,-149.7 459.5,-149.7 459.5,-130.7 341.5,-130.7"/>
<text text-anchor="start" x="417.9956" y="-136.8" font-family="Helvetica,sans-Serif" font-size="11.00" fill="#000000">43 rows</text>
<polygon fill="#ffffff" stroke="transparent" points="459.5,-130.7 459.5,-149.7 630.5,-149.7 630.5,-130.7 459.5,-130.7"/>
<polygon fill="none" stroke="#000000" points="459.5,-130.7 459.5,-149.7 630.5,-149.7 630.5,-130.7 459.5,-130.7"/>
<text text-anchor="start" x="611.9053" y="-136.8" font-family="Helvetica,sans-Serif" font-size="11.00" fill="#000000">0 &gt;</text>
<polygon fill="none" stroke="#000000" stroke-width="2" points="246,-129.7 246,-327.7 631,-327.7 631,-129.7 246,-129.7"/>
</a>
</g>
</g>
<!-- REFERENCES -->
<g id="node2" class="node">
<title>REFERENCES</title>
<g id="a_node2"><a xlink:href="../../tables/REFERENCES.html" xlink:title="REFERENCES" target="_top">
<polygon fill="#ffffff" stroke="transparent" points="38,-38.2 38,-143.2 166,-143.2 166,-38.2 38,-38.2"/>
<polygon fill="#f5f5f5" stroke="transparent" points="38,-119.7 38,-142.7 166,-142.7 166,-119.7 38,-119.7"/>
<polygon fill="none" stroke="#000000" points="38,-119.7 38,-142.7 166,-142.7 166,-119.7 38,-119.7"/>
<text text-anchor="start" x="43" y="-128.8" font-family="Helvetica,sans-Serif" font-weight="bold" font-size="11.00" fill="#000000">REFERENCES</text>
<text text-anchor="start" x="131.0437" y="-127.8" font-family="Helvetica,sans-Serif" font-size="11.00" fill="#000000">[table]</text>
<polygon fill="none" stroke="#000000" points="38,-97.7 38,-119.7 166,-119.7 166,-97.7 38,-97.7"/>
<image xlink:href="../../images/primaryKeys.png" width="11px" height="12px" preserveAspectRatio="xMinYMin meet" x="43" y="-114.7"/>
<text text-anchor="start" x="58" y="-104.8" font-family="Helvetica,sans-Serif" font-size="11.00" fill="#000000">ID</text>
<polygon fill="none" stroke="#000000" points="38,-75.7 38,-97.7 166,-97.7 166,-75.7 38,-75.7"/>
<image xlink:href="../../images/foreignKeys.png" width="11px" height="12px" preserveAspectRatio="xMinYMin meet" x="43" y="-92.7"/>
<text text-anchor="start" x="58" y="-82.8" font-family="Helvetica,sans-Serif" font-size="11.00" fill="#000000">USER_ID</text>
<polygon fill="none" stroke="#000000" points="38,-56.7 38,-75.7 166,-75.7 166,-56.7 38,-56.7"/>
<text text-anchor="start" x="41" y="-62.8" font-family="Helvetica,sans-Serif" font-size="11.00" fill="#000000">...</text>
<polygon fill="#ffffff" stroke="transparent" points="38,-37.7 38,-56.7 69,-56.7 69,-37.7 38,-37.7"/>
<polygon fill="none" stroke="#000000" points="38,-37.7 38,-56.7 69,-56.7 69,-37.7 38,-37.7"/>
<text text-anchor="start" x="41" y="-43.8" font-family="Helvetica,sans-Serif" font-size="11.00" fill="#000000">&lt; 1</text>
<polygon fill="#ffffff" stroke="transparent" points="69,-37.7 69,-56.7 133,-56.7 133,-37.7 69,-37.7"/>
<polygon fill="none" stroke="#000000" points="69,-37.7 69,-56.7 133,-56.7 133,-37.7 69,-37.7"/>
<text text-anchor="start" x="76.2089" y="-43.8" font-family="Helvetica,sans-Serif" font-size="11.00" fill="#000000">2,900 rows</text>
<polygon fill="#ffffff" stroke="transparent" points="133,-37.7 133,-56.7 166,-56.7 166,-37.7 133,-37.7"/>
<polygon fill="none" stroke="#000000" points="133,-37.7 133,-56.7 166,-56.7 166,-37.7 133,-37.7"/>
<text text-anchor="start" x="141.2904" y="-43.8" font-family="Helvetica,sans-Serif" font-size="11.00" fill="#000000">20 &gt;</text>
</a>
</g>
</g>
<!-- SUPPLEMENTS_REFERENCES&#45;&gt;REFERENCES -->
<g id="edge1" class="edge">
<title>SUPPLEMENTS_REFERENCES:w&#45;&gt;REFERENCES:e</title>
<path fill="none" stroke="#000000" d="M233.0437,-158.3305C204.8884,-148.1578 203.4284,-108.7 166,-108.7"/>
<polygon fill="#000000" stroke="#000000" points="239.6053,-159.406 246.9177,-164.2526 243.5527,-160.053 247.5,-160.7 247.5,-160.7 247.5,-160.7 243.5527,-160.053 248.0823,-157.1474 239.6053,-159.406 239.6053,-159.406"/>
<ellipse fill="none" stroke="#000000" cx="236.4475" cy="-158.8884" rx="3.2" ry="3.2"/>
</g>
<!-- SUPPLEMENTS -->
<g id="node3" class="node">
<title>SUPPLEMENTS</title>
<g id="a_node3"><a xlink:href="../../tables/SUPPLEMENTS.html" xlink:title="SUPPLEMENTS" target="_top">
<polygon fill="#ffffff" stroke="transparent" points="8,-164.2 8,-269.2 196,-269.2 196,-164.2 8,-164.2"/>
<polygon fill="#f5f5f5" stroke="transparent" points="8,-245.7 8,-268.7 196,-268.7 196,-245.7 8,-245.7"/>
<polygon fill="none" stroke="#000000" points="8,-245.7 8,-268.7 196,-268.7 196,-245.7 8,-245.7"/>
<text text-anchor="start" x="13" y="-254.8" font-family="Helvetica,sans-Serif" font-weight="bold" font-size="11.00" fill="#000000">SUPPLEMENTS</text>
<text text-anchor="start" x="161.0437" y="-253.8" font-family="Helvetica,sans-Serif" font-size="11.00" fill="#000000">[table]</text>
<polygon fill="none" stroke="#000000" points="8,-223.7 8,-245.7 196,-245.7 196,-223.7 8,-223.7"/>
<image xlink:href="../../images/primaryKeys.png" width="11px" height="12px" preserveAspectRatio="xMinYMin meet" x="13" y="-240.7"/>
<text text-anchor="start" x="28" y="-230.8" font-family="Helvetica,sans-Serif" font-size="11.00" fill="#000000">ID</text>
<polygon fill="none" stroke="#000000" points="8,-201.7 8,-223.7 196,-223.7 196,-201.7 8,-201.7"/>
<image xlink:href="../../images/foreignKeys.png" width="11px" height="12px" preserveAspectRatio="xMinYMin meet" x="13" y="-218.7"/>
<text text-anchor="start" x="28" y="-208.8" font-family="Helvetica,sans-Serif" font-size="11.00" fill="#000000">TARGET_FORM_ID</text>
<polygon fill="none" stroke="#000000" points="8,-182.7 8,-201.7 196,-201.7 196,-182.7 8,-182.7"/>
<text text-anchor="start" x="11" y="-188.8" font-family="Helvetica,sans-Serif" font-size="11.00" fill="#000000">...</text>
<polygon fill="#ffffff" stroke="transparent" points="8,-163.7 8,-182.7 80,-182.7 80,-163.7 8,-163.7"/>
<polygon fill="none" stroke="#000000" points="8,-163.7 8,-182.7 80,-182.7 80,-163.7 8,-163.7"/>
<text text-anchor="start" x="11" y="-169.8" font-family="Helvetica,sans-Serif" font-size="11.00" fill="#000000">&lt; 1</text>
<polygon fill="#ffffff" stroke="transparent" points="80,-163.7 80,-182.7 149,-182.7 149,-163.7 80,-163.7"/>
<polygon fill="none" stroke="#000000" points="80,-163.7 80,-182.7 149,-182.7 149,-163.7 80,-163.7"/>
<text text-anchor="start" x="107.4956" y="-169.8" font-family="Helvetica,sans-Serif" font-size="11.00" fill="#000000">77 rows</text>
<polygon fill="#ffffff" stroke="transparent" points="149,-163.7 149,-182.7 196,-182.7 196,-163.7 149,-163.7"/>
<polygon fill="none" stroke="#000000" points="149,-163.7 149,-182.7 196,-182.7 196,-163.7 149,-163.7"/>
<text text-anchor="start" x="177.4053" y="-169.8" font-family="Helvetica,sans-Serif" font-size="11.00" fill="#000000">5 &gt;</text>
</a>
</g>
</g>
<!-- SUPPLEMENTS_REFERENCES&#45;&gt;SUPPLEMENTS -->
<g id="edge2" class="edge">
<title>SUPPLEMENTS_REFERENCES:w&#45;&gt;SUPPLEMENTS:e</title>
<path fill="none" stroke="#000000" d="M233.4561,-187.4988C218.4356,-200.3719 222.4284,-234.7 196,-234.7"/>
<polygon fill="#000000" stroke="#000000" points="239.9297,-185.2868 248.6641,-186.1066 243.7149,-183.9934 247.5,-182.7 247.5,-182.7 247.5,-182.7 243.7149,-183.9934 246.3359,-179.2934 239.9297,-185.2868 239.9297,-185.2868"/>
<ellipse fill="none" stroke="#000000" cx="236.9016" cy="-186.3215" rx="3.2" ry="3.2"/>
</g>
</g>
</svg>
