<?xml version="1.0" encoding="UTF-8" standalone="no"?>
<!DOCTYPE svg PUBLIC "-//W3C//DTD SVG 1.1//EN"
 "http://www.w3.org/Graphics/SVG/1.1/DTD/svg11.dtd">
<!-- Generated by graphviz version 2.40.1 (20161225.0304)
 -->
<!-- Title: twoDegreesRelationshipsDiagram Pages: 1 -->
<svg width="1117pt" height="674pt"
 viewBox="0.00 0.00 1117.00 674.20" xmlns="http://www.w3.org/2000/svg" xmlns:xlink="http://www.w3.org/1999/xlink">
<g id="graph0" class="graph" transform="scale(1 1) rotate(0) translate(4 670.2)">
<title>twoDegreesRelationshipsDiagram</title>
<polygon fill="#ffffff" stroke="transparent" points="-4,4 -4,-670.2 1113,-670.2 1113,4 -4,4"/>
<text text-anchor="middle" x="72.4936" y="-7.3" font-family="Helvetica,sans-Serif" font-size="11.00" fill="#000000">Generated by SchemaSpy</text>
<!-- CLONE_FORMS_ISOFORM_DOMAINS -->
<g id="node1" class="node">
<title>CLONE_FORMS_ISOFORM_DOMAINS</title>
<g id="a_node1"><a xlink:href="../../tables/CLONE_FORMS_ISOFORM_DOMAINS.html" xlink:title="CLONE_FORMS_ISOFORM_DOMAINS" target="_top">
<polygon fill="#ffffff" stroke="transparent" points="369,-230.2 369,-291.2 610,-291.2 610,-230.2 369,-230.2"/>
<polygon fill="#f5f5f5" stroke="transparent" points="369.5,-267.7 369.5,-290.7 610.5,-290.7 610.5,-267.7 369.5,-267.7"/>
<polygon fill="none" stroke="#000000" points="369.5,-267.7 369.5,-290.7 610.5,-290.7 610.5,-267.7 369.5,-267.7"/>
<text text-anchor="start" x="374.1958" y="-276.8" font-family="Helvetica,sans-Serif" font-weight="bold" font-size="11.00" fill="#000000">CLONE_FORMS_ISOFORM_DOMAINS</text>
<text text-anchor="start" x="576.0219" y="-275.8" font-family="Helvetica,sans-Serif" font-size="11.00" fill="#000000">[table]</text>
<polygon fill="none" stroke="#000000" points="369.5,-248.7 369.5,-267.7 610.5,-267.7 610.5,-248.7 369.5,-248.7"/>
<text text-anchor="start" x="372.5" y="-254.8" font-family="Helvetica,sans-Serif" font-size="11.00" fill="#000000">...</text>
<polygon fill="#ffffff" stroke="transparent" points="369.5,-229.7 369.5,-248.7 469.5,-248.7 469.5,-229.7 369.5,-229.7"/>
<polygon fill="none" stroke="#000000" points="369.5,-229.7 369.5,-248.7 469.5,-248.7 469.5,-229.7 369.5,-229.7"/>
<text text-anchor="start" x="372.5" y="-235.8" font-family="Helvetica,sans-Serif" font-size="11.00" fill="#000000">&lt; 2</text>
<polygon fill="#ffffff" stroke="transparent" points="469.5,-229.7 469.5,-248.7 558.5,-248.7 558.5,-229.7 469.5,-229.7"/>
<polygon fill="none" stroke="#000000" points="469.5,-229.7 469.5,-248.7 558.5,-248.7 558.5,-229.7 469.5,-229.7"/>
<text text-anchor="start" x="510.8807" y="-235.8" font-family="Helvetica,sans-Serif" font-size="11.00" fill="#000000">311 rows</text>
<polygon fill="#ffffff" stroke="transparent" points="558.5,-229.7 558.5,-248.7 610.5,-248.7 610.5,-229.7 558.5,-229.7"/>
<polygon fill="none" stroke="#000000" points="558.5,-229.7 558.5,-248.7 610.5,-248.7 610.5,-229.7 558.5,-229.7"/>
<text text-anchor="start" x="601.3862" y="-235.8" font-family="Helvetica,sans-Serif" font-size="11.00" fill="#000000"> &#160;</text>
</a>
</g>
</g>
<!-- ISOFORM_DOMAINS -->
<g id="node2" class="node">
<title>ISOFORM_DOMAINS</title>
<g id="a_node2"><a xlink:href="../../tables/ISOFORM_DOMAINS.html" xlink:title="ISOFORM_DOMAINS" target="_top">
<polygon fill="#ffffff" stroke="transparent" points="158,-160.2 158,-265.2 312,-265.2 312,-160.2 158,-160.2"/>
<polygon fill="#f5f5f5" stroke="transparent" points="158,-241.7 158,-264.7 312,-264.7 312,-241.7 158,-241.7"/>
<polygon fill="none" stroke="#000000" points="158,-241.7 158,-264.7 312,-264.7 312,-241.7 158,-241.7"/>
<text text-anchor="start" x="163" y="-250.8" font-family="Helvetica,sans-Serif" font-weight="bold" font-size="11.00" fill="#000000">ISOFORM_DOMAINS</text>
<text text-anchor="start" x="277.0437" y="-249.8" font-family="Helvetica,sans-Serif" font-size="11.00" fill="#000000">[table]</text>
<polygon fill="none" stroke="#000000" points="158,-219.7 158,-241.7 312,-241.7 312,-219.7 158,-219.7"/>
<image xlink:href="../../images/primaryKeys.png" width="11px" height="12px" preserveAspectRatio="xMinYMin meet" x="163" y="-236.7"/>
<text text-anchor="start" x="178" y="-226.8" font-family="Helvetica,sans-Serif" font-size="11.00" fill="#000000">ID</text>
<polygon fill="none" stroke="#000000" points="158,-197.7 158,-219.7 312,-219.7 312,-197.7 158,-197.7"/>
<image xlink:href="../../images/foreignKeys.png" width="11px" height="12px" preserveAspectRatio="xMinYMin meet" x="163" y="-214.7"/>
<text text-anchor="start" x="178" y="-204.8" font-family="Helvetica,sans-Serif" font-size="11.00" fill="#000000">ISOFORM_ID</text>
<polygon fill="none" stroke="#000000" points="158,-178.7 158,-197.7 312,-197.7 312,-178.7 158,-178.7"/>
<text text-anchor="start" x="161" y="-184.8" font-family="Helvetica,sans-Serif" font-size="11.00" fill="#000000">...</text>
<polygon fill="#ffffff" stroke="transparent" points="158,-159.7 158,-178.7 210,-178.7 210,-159.7 158,-159.7"/>
<polygon fill="none" stroke="#000000" points="158,-159.7 158,-178.7 210,-178.7 210,-159.7 158,-159.7"/>
<text text-anchor="start" x="161" y="-165.8" font-family="Helvetica,sans-Serif" font-size="11.00" fill="#000000">&lt; 1</text>
<polygon fill="#ffffff" stroke="transparent" points="210,-159.7 210,-178.7 275,-178.7 275,-159.7 210,-159.7"/>
<polygon fill="none" stroke="#000000" points="210,-159.7 210,-178.7 275,-178.7 275,-159.7 210,-159.7"/>
<text text-anchor="start" x="227.3807" y="-165.8" font-family="Helvetica,sans-Serif" font-size="11.00" fill="#000000">727 rows</text>
<polygon fill="#ffffff" stroke="transparent" points="275,-159.7 275,-178.7 312,-178.7 312,-159.7 275,-159.7"/>
<polygon fill="none" stroke="#000000" points="275,-159.7 275,-178.7 312,-178.7 312,-159.7 275,-159.7"/>
<text text-anchor="start" x="293.4053" y="-165.8" font-family="Helvetica,sans-Serif" font-size="11.00" fill="#000000">5 &gt;</text>
</a>
</g>
</g>
<!-- CLONE_FORMS_ISOFORM_DOMAINS&#45;&gt;ISOFORM_DOMAINS -->
<g id="edge1" class="edge">
<title>CLONE_FORMS_ISOFORM_DOMAINS:w&#45;&gt;ISOFORM_DOMAINS:e</title>
<path fill="none" stroke="#000000" d="M355.2064,-254.8105C339.7248,-247.8453 334.4979,-230.7 312,-230.7"/>
<polygon fill="#000000" stroke="#000000" points="361.6586,-256.1148 368.7867,-261.2286 365.5793,-256.9074 369.5,-257.7 369.5,-257.7 369.5,-257.7 365.5793,-256.9074 370.2133,-254.1714 361.6586,-256.1148 361.6586,-256.1148"/>
<ellipse fill="none" stroke="#000000" cx="358.5221" cy="-255.4807" rx="3.2" ry="3.2"/>
</g>
<!-- ISOFORMS -->
<g id="node3" class="node">
<title>ISOFORMS</title>
<g id="a_node3"><a xlink:href="../../tables/ISOFORMS.html" xlink:title="ISOFORMS" target="_top">
<polygon fill="#ffffff" stroke="transparent" points="8,-259.2 8,-320.2 109,-320.2 109,-259.2 8,-259.2"/>
<polygon fill="#f5f5f5" stroke="transparent" points="8.5,-296.7 8.5,-319.7 109.5,-319.7 109.5,-296.7 8.5,-296.7"/>
<polygon fill="none" stroke="#000000" points="8.5,-296.7 8.5,-319.7 109.5,-319.7 109.5,-296.7 8.5,-296.7"/>
<text text-anchor="start" x="13.1674" y="-305.8" font-family="Helvetica,sans-Serif" font-weight="bold" font-size="11.00" fill="#000000">ISOFORMS</text>
<text text-anchor="start" x="75.0219" y="-304.8" font-family="Helvetica,sans-Serif" font-size="11.00" fill="#000000">[table]</text>
<polygon fill="none" stroke="#000000" points="8.5,-277.7 8.5,-296.7 109.5,-296.7 109.5,-277.7 8.5,-277.7"/>
<text text-anchor="start" x="11.5" y="-283.8" font-family="Helvetica,sans-Serif" font-size="11.00" fill="#000000">...</text>
<polygon fill="#ffffff" stroke="transparent" points="8.5,-258.7 8.5,-277.7 30.5,-277.7 30.5,-258.7 8.5,-258.7"/>
<polygon fill="none" stroke="#000000" points="8.5,-258.7 8.5,-277.7 30.5,-277.7 30.5,-258.7 8.5,-258.7"/>
<text text-anchor="start" x="11.5" y="-264.8" font-family="Helvetica,sans-Serif" font-size="11.00" fill="#000000">&lt; 1</text>
<polygon fill="#ffffff" stroke="transparent" points="30.5,-258.7 30.5,-277.7 81.5,-277.7 81.5,-258.7 30.5,-258.7"/>
<polygon fill="none" stroke="#000000" points="30.5,-258.7 30.5,-277.7 81.5,-277.7 81.5,-258.7 30.5,-258.7"/>
<text text-anchor="start" x="33.8807" y="-264.8" font-family="Helvetica,sans-Serif" font-size="11.00" fill="#000000">519 rows</text>
<polygon fill="#ffffff" stroke="transparent" points="81.5,-258.7 81.5,-277.7 109.5,-277.7 109.5,-258.7 81.5,-258.7"/>
<polygon fill="none" stroke="#000000" points="81.5,-258.7 81.5,-277.7 109.5,-277.7 109.5,-258.7 81.5,-258.7"/>
<text text-anchor="start" x="84.7904" y="-264.8" font-family="Helvetica,sans-Serif" font-size="11.00" fill="#000000">10 &gt;</text>
</a>
</g>
</g>
<!-- ISOFORM_DOMAINS&#45;&gt;ISOFORMS -->
<g id="edge2" class="edge">
<title>ISOFORM_DOMAINS:w&#45;&gt;ISOFORMS:e</title>
<path fill="none" stroke="#000000" d="M144.2269,-213.3457C125.388,-230.1376 144.2623,-286.7 109.5,-286.7"/>
<polygon fill="#000000" stroke="#000000" points="150.4196,-211.2569 159.1506,-212.1112 154.2098,-209.9785 158,-208.7 158,-208.7 158,-208.7 154.2098,-209.9785 156.8494,-205.2888 150.4196,-211.2569 150.4196,-211.2569"/>
<ellipse fill="none" stroke="#000000" cx="147.3874" cy="-212.2797" rx="3.2" ry="3.2"/>
</g>
<!-- ISOFORM_DOMAINS_REFERENCES -->
<g id="node4" class="node">
<title>ISOFORM_DOMAINS_REFERENCES</title>
<g id="a_node4"><a xlink:href="../../tables/ISOFORM_DOMAINS_REFERENCES.html" xlink:title="ISOFORM_DOMAINS_REFERENCES" target="_top">
<polygon fill="#ffffff" stroke="transparent" points="373,-120.2 373,-181.2 606,-181.2 606,-120.2 373,-120.2"/>
<polygon fill="#f5f5f5" stroke="transparent" points="373.5,-157.7 373.5,-180.7 606.5,-180.7 606.5,-157.7 373.5,-157.7"/>
<polygon fill="none" stroke="#000000" points="373.5,-157.7 373.5,-180.7 606.5,-180.7 606.5,-157.7 373.5,-157.7"/>
<text text-anchor="start" x="378.4743" y="-166.8" font-family="Helvetica,sans-Serif" font-weight="bold" font-size="11.00" fill="#000000">ISOFORM_DOMAINS_REFERENCES</text>
<text text-anchor="start" x="572.0219" y="-165.8" font-family="Helvetica,sans-Serif" font-size="11.00" fill="#000000">[table]</text>
<polygon fill="none" stroke="#000000" points="373.5,-138.7 373.5,-157.7 606.5,-157.7 606.5,-138.7 373.5,-138.7"/>
<text text-anchor="start" x="376.5" y="-144.8" font-family="Helvetica,sans-Serif" font-size="11.00" fill="#000000">...</text>
<polygon fill="#ffffff" stroke="transparent" points="373.5,-119.7 373.5,-138.7 475.5,-138.7 475.5,-119.7 373.5,-119.7"/>
<polygon fill="none" stroke="#000000" points="373.5,-119.7 373.5,-138.7 475.5,-138.7 475.5,-119.7 373.5,-119.7"/>
<text text-anchor="start" x="376.5" y="-125.8" font-family="Helvetica,sans-Serif" font-size="11.00" fill="#000000">&lt; 2</text>
<polygon fill="#ffffff" stroke="transparent" points="475.5,-119.7 475.5,-138.7 553.5,-138.7 553.5,-119.7 475.5,-119.7"/>
<polygon fill="none" stroke="#000000" points="475.5,-119.7 475.5,-138.7 553.5,-138.7 553.5,-119.7 475.5,-119.7"/>
<text text-anchor="start" x="518.1105" y="-125.8" font-family="Helvetica,sans-Serif" font-size="11.00" fill="#000000">4 rows</text>
<polygon fill="#ffffff" stroke="transparent" points="553.5,-119.7 553.5,-138.7 606.5,-138.7 606.5,-119.7 553.5,-119.7"/>
<polygon fill="none" stroke="#000000" points="553.5,-119.7 553.5,-138.7 606.5,-138.7 606.5,-119.7 553.5,-119.7"/>
<text text-anchor="start" x="597.3862" y="-125.8" font-family="Helvetica,sans-Serif" font-size="11.00" fill="#000000"> &#160;</text>
</a>
</g>
</g>
<!-- ISOFORM_DOMAINS_REFERENCES&#45;&gt;ISOFORM_DOMAINS -->
<g id="edge3" class="edge">
<title>ISOFORM_DOMAINS_REFERENCES:w&#45;&gt;ISOFORM_DOMAINS:e</title>
<path fill="none" stroke="#000000" d="M359.2188,-151.482C334.1392,-167.7192 351.9936,-230.7 312,-230.7"/>
<polygon fill="#000000" stroke="#000000" points="365.7666,-149.748 374.4216,-151.18 369.6333,-148.724 373.5,-147.7 373.5,-147.7 373.5,-147.7 369.6333,-148.724 372.5784,-144.22 365.7666,-149.748 365.7666,-149.748"/>
<ellipse fill="none" stroke="#000000" cx="362.6732" cy="-150.5673" rx="3.2" ry="3.2"/>
</g>
<!-- SCREENING_PLANS -->
<g id="node5" class="node">
<title>SCREENING_PLANS</title>
<g id="a_node5"><a xlink:href="../../tables/SCREENING_PLANS.html" xlink:title="SCREENING_PLANS" target="_top">
<polygon fill="#ffffff" stroke="transparent" points="809,-601.2 809,-662.2 959,-662.2 959,-601.2 809,-601.2"/>
<polygon fill="#f5f5f5" stroke="transparent" points="809,-638.7 809,-661.7 959,-661.7 959,-638.7 809,-638.7"/>
<polygon fill="none" stroke="#000000" points="809,-638.7 809,-661.7 959,-661.7 959,-638.7 809,-638.7"/>
<text text-anchor="start" x="813.7183" y="-647.8" font-family="Helvetica,sans-Serif" font-weight="bold" font-size="11.00" fill="#000000">SCREENING_PLANS</text>
<text text-anchor="start" x="924.5219" y="-646.8" font-family="Helvetica,sans-Serif" font-size="11.00" fill="#000000">[table]</text>
<polygon fill="none" stroke="#000000" points="809,-619.7 809,-638.7 959,-638.7 959,-619.7 809,-619.7"/>
<text text-anchor="start" x="812" y="-625.8" font-family="Helvetica,sans-Serif" font-size="11.00" fill="#000000">...</text>
<polygon fill="#ffffff" stroke="transparent" points="809,-600.7 809,-619.7 859,-619.7 859,-600.7 809,-600.7"/>
<polygon fill="none" stroke="#000000" points="809,-600.7 809,-619.7 859,-619.7 859,-600.7 809,-600.7"/>
<text text-anchor="start" x="812" y="-606.8" font-family="Helvetica,sans-Serif" font-size="11.00" fill="#000000">&lt; 3</text>
<polygon fill="#ffffff" stroke="transparent" points="859,-600.7 859,-619.7 923,-619.7 923,-600.7 859,-600.7"/>
<polygon fill="none" stroke="#000000" points="859,-600.7 859,-619.7 923,-619.7 923,-600.7 859,-600.7"/>
<text text-anchor="start" x="875.3807" y="-606.8" font-family="Helvetica,sans-Serif" font-size="11.00" fill="#000000">137 rows</text>
<polygon fill="#ffffff" stroke="transparent" points="923,-600.7 923,-619.7 959,-619.7 959,-600.7 923,-600.7"/>
<polygon fill="none" stroke="#000000" points="923,-600.7 923,-619.7 959,-619.7 959,-600.7 923,-600.7"/>
<text text-anchor="start" x="940.4053" y="-606.8" font-family="Helvetica,sans-Serif" font-size="11.00" fill="#000000">1 &gt;</text>
</a>
</g>
</g>
<!-- SUPPLEMENTS -->
<g id="node6" class="node">
<title>SUPPLEMENTS</title>
<g id="a_node6"><a xlink:href="../../tables/SUPPLEMENTS.html" xlink:title="SUPPLEMENTS" target="_top">
<polygon fill="#ffffff" stroke="transparent" points="395.5,-394.2 395.5,-499.2 583.5,-499.2 583.5,-394.2 395.5,-394.2"/>
<polygon fill="#f5f5f5" stroke="transparent" points="395.5,-475.7 395.5,-498.7 583.5,-498.7 583.5,-475.7 395.5,-475.7"/>
<polygon fill="none" stroke="#000000" points="395.5,-475.7 395.5,-498.7 583.5,-498.7 583.5,-475.7 395.5,-475.7"/>
<text text-anchor="start" x="400.5" y="-484.8" font-family="Helvetica,sans-Serif" font-weight="bold" font-size="11.00" fill="#000000">SUPPLEMENTS</text>
<text text-anchor="start" x="548.5437" y="-483.8" font-family="Helvetica,sans-Serif" font-size="11.00" fill="#000000">[table]</text>
<polygon fill="none" stroke="#000000" points="395.5,-453.7 395.5,-475.7 583.5,-475.7 583.5,-453.7 395.5,-453.7"/>
<image xlink:href="../../images/primaryKeys.png" width="11px" height="12px" preserveAspectRatio="xMinYMin meet" x="400.5" y="-470.7"/>
<text text-anchor="start" x="415.5" y="-460.8" font-family="Helvetica,sans-Serif" font-size="11.00" fill="#000000">ID</text>
<polygon fill="none" stroke="#000000" points="395.5,-431.7 395.5,-453.7 583.5,-453.7 583.5,-431.7 395.5,-431.7"/>
<image xlink:href="../../images/foreignKeys.png" width="11px" height="12px" preserveAspectRatio="xMinYMin meet" x="400.5" y="-448.7"/>
<text text-anchor="start" x="415.5" y="-438.8" font-family="Helvetica,sans-Serif" font-size="11.00" fill="#000000">TARGET_FORM_ID</text>
<polygon fill="none" stroke="#000000" points="395.5,-412.7 395.5,-431.7 583.5,-431.7 583.5,-412.7 395.5,-412.7"/>
<text text-anchor="start" x="398.5" y="-418.8" font-family="Helvetica,sans-Serif" font-size="11.00" fill="#000000">...</text>
<polygon fill="#ffffff" stroke="transparent" points="395.5,-393.7 395.5,-412.7 467.5,-412.7 467.5,-393.7 395.5,-393.7"/>
<polygon fill="none" stroke="#000000" points="395.5,-393.7 395.5,-412.7 467.5,-412.7 467.5,-393.7 395.5,-393.7"/>
<text text-anchor="start" x="398.5" y="-399.8" font-family="Helvetica,sans-Serif" font-size="11.00" fill="#000000">&lt; 1</text>
<polygon fill="#ffffff" stroke="transparent" points="467.5,-393.7 467.5,-412.7 536.5,-412.7 536.5,-393.7 467.5,-393.7"/>
<polygon fill="none" stroke="#000000" points="467.5,-393.7 467.5,-412.7 536.5,-412.7 536.5,-393.7 467.5,-393.7"/>
<text text-anchor="start" x="494.9956" y="-399.8" font-family="Helvetica,sans-Serif" font-size="11.00" fill="#000000">77 rows</text>
<polygon fill="#ffffff" stroke="transparent" points="536.5,-393.7 536.5,-412.7 583.5,-412.7 583.5,-393.7 536.5,-393.7"/>
<polygon fill="none" stroke="#000000" points="536.5,-393.7 536.5,-412.7 583.5,-412.7 583.5,-393.7 536.5,-393.7"/>
<text text-anchor="start" x="564.9053" y="-399.8" font-family="Helvetica,sans-Serif" font-size="11.00" fill="#000000">5 &gt;</text>
</a>
</g>
</g>
<!-- SCREENING_PLANS&#45;&gt;SUPPLEMENTS -->
<g id="edge4" class="edge">
<title>SCREENING_PLANS:w&#45;&gt;SUPPLEMENTS:e</title>
<path fill="none" stroke="#000000" d="M794.364,-628.7311C736.2006,-628.9092 710.0858,-628.6989 659,-590.7 606.6181,-551.7371 648.7838,-464.7 583.5,-464.7"/>
<polygon fill="#000000" stroke="#000000" points="801,-628.717 809.0077,-632.3 805,-628.7085 809,-628.7 809,-628.7 809,-628.7 805,-628.7085 808.9923,-625.1 801,-628.717 801,-628.717"/>
<ellipse fill="none" stroke="#000000" cx="797.8" cy="-628.7238" rx="3.2" ry="3.2"/>
</g>
<!-- TARGET_FORMS -->
<g id="node7" class="node">
<title>TARGET_FORMS</title>
<g id="a_node7"><a xlink:href="../../tables/TARGET_FORMS.html" xlink:title="TARGET_FORMS" target="_top">
<polygon fill="#ffffff" stroke="transparent" points="168.5,-363.2 168.5,-424.2 301.5,-424.2 301.5,-363.2 168.5,-363.2"/>
<polygon fill="#f5f5f5" stroke="transparent" points="169,-400.7 169,-423.7 302,-423.7 302,-400.7 169,-400.7"/>
<polygon fill="none" stroke="#000000" points="169,-400.7 169,-423.7 302,-423.7 302,-400.7 169,-400.7"/>
<text text-anchor="start" x="173.7801" y="-409.8" font-family="Helvetica,sans-Serif" font-weight="bold" font-size="11.00" fill="#000000">TARGET_FORMS</text>
<text text-anchor="start" x="267.5219" y="-408.8" font-family="Helvetica,sans-Serif" font-size="11.00" fill="#000000">[table]</text>
<polygon fill="none" stroke="#000000" points="169,-381.7 169,-400.7 302,-400.7 302,-381.7 169,-381.7"/>
<text text-anchor="start" x="172" y="-387.8" font-family="Helvetica,sans-Serif" font-size="11.00" fill="#000000">...</text>
<polygon fill="#ffffff" stroke="transparent" points="169,-362.7 169,-381.7 207,-381.7 207,-362.7 169,-362.7"/>
<polygon fill="none" stroke="#000000" points="169,-362.7 169,-381.7 207,-381.7 207,-362.7 169,-362.7"/>
<text text-anchor="start" x="172" y="-368.8" font-family="Helvetica,sans-Serif" font-size="11.00" fill="#000000">&lt; 5</text>
<polygon fill="#ffffff" stroke="transparent" points="207,-362.7 207,-381.7 266,-381.7 266,-362.7 207,-362.7"/>
<polygon fill="none" stroke="#000000" points="207,-362.7 207,-381.7 266,-381.7 266,-362.7 207,-362.7"/>
<text text-anchor="start" x="218.3807" y="-368.8" font-family="Helvetica,sans-Serif" font-size="11.00" fill="#000000">541 rows</text>
<polygon fill="#ffffff" stroke="transparent" points="266,-362.7 266,-381.7 302,-381.7 302,-362.7 266,-362.7"/>
<polygon fill="none" stroke="#000000" points="266,-362.7 266,-381.7 302,-381.7 302,-362.7 266,-362.7"/>
<text text-anchor="start" x="277.2904" y="-368.8" font-family="Helvetica,sans-Serif" font-size="11.00" fill="#000000">18 &gt;</text>
</a>
</g>
</g>
<!-- SCREENING_PLANS&#45;&gt;TARGET_FORMS -->
<g id="edge5" class="edge">
<title>SCREENING_PLANS:w&#45;&gt;TARGET_FORMS:e</title>
<path fill="none" stroke="#000000" d="M794.5685,-628.106C698.2509,-621.2127 406.3861,-555.8043 353,-509.7 309.4506,-472.0907 359.5414,-390.7 302,-390.7"/>
<polygon fill="#000000" stroke="#000000" points="801.0068,-628.3709 808.8519,-632.297 805.0034,-628.5355 809,-628.7 809,-628.7 809,-628.7 805.0034,-628.5355 809.1481,-625.103 801.0068,-628.3709 801.0068,-628.3709"/>
<ellipse fill="none" stroke="#000000" cx="797.8095" cy="-628.2393" rx="3.2" ry="3.2"/>
</g>
<!-- SUPPLEMENTS&#45;&gt;TARGET_FORMS -->
<g id="edge6" class="edge">
<title>SUPPLEMENTS:w&#45;&gt;TARGET_FORMS:e</title>
<path fill="none" stroke="#000000" d="M381.0897,-440.8493C347.6819,-431.586 344.1633,-390.7 302,-390.7"/>
<polygon fill="#000000" stroke="#000000" points="387.5652,-441.6809 395.0414,-446.2707 391.5326,-442.1904 395.5,-442.7 395.5,-442.7 395.5,-442.7 391.5326,-442.1904 395.9586,-439.1293 387.5652,-441.6809 387.5652,-441.6809"/>
<ellipse fill="none" stroke="#000000" cx="384.3912" cy="-441.2732" rx="3.2" ry="3.2"/>
</g>
<!-- TARGET_FORMS&#45;&gt;ISOFORMS -->
<g id="edge11" class="edge">
<title>TARGET_FORMS:w&#45;&gt;ISOFORMS:e</title>
<path fill="none" stroke="#000000" d="M154.8623,-387.2397C124.8306,-369.1941 156.9278,-286.7 109.5,-286.7"/>
<polygon fill="#000000" stroke="#000000" points="161.2294,-388.7981 168.1441,-394.1968 165.1147,-389.749 169,-390.7 169,-390.7 169,-390.7 165.1147,-389.749 169.8559,-387.2032 161.2294,-388.7981 161.2294,-388.7981"/>
<ellipse fill="none" stroke="#000000" cx="158.1211" cy="-388.0373" rx="3.2" ry="3.2"/>
</g>
<!-- SUPPLEMENTS_ASSAY_TYPES_BINDING_CONSTANTS -->
<g id="node8" class="node">
<title>SUPPLEMENTS_ASSAY_TYPES_BINDING_CONSTANTS</title>
<g id="a_node8"><a xlink:href="../../tables/SUPPLEMENTS_ASSAY_TYPES_BINDING_CONSTANTS.html" xlink:title="SUPPLEMENTS_ASSAY_TYPES_BINDING_CONSTANTS" target="_top">
<polygon fill="#ffffff" stroke="transparent" points="716.5,-519.2 716.5,-580.2 1051.5,-580.2 1051.5,-519.2 716.5,-519.2"/>
<polygon fill="#f5f5f5" stroke="transparent" points="717,-556.7 717,-579.7 1052,-579.7 1052,-556.7 717,-556.7"/>
<polygon fill="none" stroke="#000000" points="717,-556.7 717,-579.7 1052,-579.7 1052,-556.7 717,-556.7"/>
<text text-anchor="start" x="721.6236" y="-565.8" font-family="Helvetica,sans-Serif" font-weight="bold" font-size="11.00" fill="#000000">SUPPLEMENTS_ASSAY_TYPES_BINDING_CONSTANTS</text>
<text text-anchor="start" x="1017.5219" y="-564.8" font-family="Helvetica,sans-Serif" font-size="11.00" fill="#000000">[table]</text>
<polygon fill="none" stroke="#000000" points="717,-537.7 717,-556.7 1052,-556.7 1052,-537.7 717,-537.7"/>
<text text-anchor="start" x="720" y="-543.8" font-family="Helvetica,sans-Serif" font-size="11.00" fill="#000000">...</text>
<polygon fill="#ffffff" stroke="transparent" points="717,-518.7 717,-537.7 867,-537.7 867,-518.7 717,-518.7"/>
<polygon fill="none" stroke="#000000" points="717,-518.7 717,-537.7 867,-537.7 867,-518.7 717,-518.7"/>
<text text-anchor="start" x="720" y="-524.8" font-family="Helvetica,sans-Serif" font-size="11.00" fill="#000000">&lt; 3</text>
<polygon fill="#ffffff" stroke="transparent" points="867,-518.7 867,-537.7 975,-537.7 975,-518.7 867,-518.7"/>
<polygon fill="none" stroke="#000000" points="867,-518.7 867,-537.7 975,-537.7 975,-518.7 867,-518.7"/>
<text text-anchor="start" x="933.4956" y="-524.8" font-family="Helvetica,sans-Serif" font-size="11.00" fill="#000000">62 rows</text>
<polygon fill="#ffffff" stroke="transparent" points="975,-518.7 975,-537.7 1052,-537.7 1052,-518.7 975,-518.7"/>
<polygon fill="none" stroke="#000000" points="975,-518.7 975,-537.7 1052,-537.7 1052,-518.7 975,-518.7"/>
<text text-anchor="start" x="1042.8862" y="-524.8" font-family="Helvetica,sans-Serif" font-size="11.00" fill="#000000"> &#160;</text>
</a>
</g>
</g>
<!-- SUPPLEMENTS_ASSAY_TYPES_BINDING_CONSTANTS&#45;&gt;SUPPLEMENTS -->
<g id="edge7" class="edge">
<title>SUPPLEMENTS_ASSAY_TYPES_BINDING_CONSTANTS:w&#45;&gt;SUPPLEMENTS:e</title>
<path fill="none" stroke="#000000" d="M702.3337,-545.3452C647.8085,-534.6836 647.8282,-464.7 583.5,-464.7"/>
<polygon fill="#000000" stroke="#000000" points="709.0339,-545.9641 716.6688,-550.2847 713.017,-546.332 717,-546.7 717,-546.7 717,-546.7 713.017,-546.332 717.3312,-543.1153 709.0339,-545.9641 709.0339,-545.9641"/>
<ellipse fill="none" stroke="#000000" cx="705.8475" cy="-545.6697" rx="3.2" ry="3.2"/>
</g>
<!-- SUPPLEMENTS_ISOFORM_DOMAINS -->
<g id="node9" class="node">
<title>SUPPLEMENTS_ISOFORM_DOMAINS</title>
<g id="a_node9"><a xlink:href="../../tables/SUPPLEMENTS_ISOFORM_DOMAINS.html" xlink:title="SUPPLEMENTS_ISOFORM_DOMAINS" target="_top">
<polygon fill="#ffffff" stroke="transparent" points="667,-111.7 667,-333.7 1101,-333.7 1101,-111.7 667,-111.7"/>
<polygon fill="#f5f5f5" stroke="transparent" points="669,-308.7 669,-331.7 1099,-331.7 1099,-308.7 669,-308.7"/>
<polygon fill="none" stroke="#000000" points="669,-308.7 669,-331.7 1099,-331.7 1099,-308.7 669,-308.7"/>
<text text-anchor="start" x="674" y="-317.8" font-family="Helvetica,sans-Serif" font-weight="bold" font-size="11.00" fill="#000000">SUPPLEMENTS_ISOFORM_DOMAINS</text>
<text text-anchor="start" x="1064.0437" y="-316.8" font-family="Helvetica,sans-Serif" font-size="11.00" fill="#000000">[table]</text>
<polygon fill="none" stroke="#000000" points="669,-286.7 669,-308.7 928,-308.7 928,-286.7 669,-286.7"/>
<image xlink:href="../../images/primaryKeys.png" width="11px" height="12px" preserveAspectRatio="xMinYMin meet" x="674" y="-303.7"/>
<text text-anchor="start" x="689" y="-293.8" font-family="Helvetica,sans-Serif" font-size="11.00" fill="#000000">ID</text>
<polygon fill="none" stroke="#000000" points="928,-286.7 928,-308.7 1099,-308.7 1099,-286.7 928,-286.7"/>
<text text-anchor="start" x="931" y="-294.4" font-family="Helvetica,sans-Serif" font-size="11.00" fill="#000000">number[19]</text>
<polygon fill="none" stroke="#000000" points="669,-264.7 669,-286.7 928,-286.7 928,-264.7 669,-264.7"/>
<text text-anchor="start" x="689" y="-271.8" font-family="Helvetica,sans-Serif" font-size="11.00" fill="#000000">CREATED_AT</text>
<polygon fill="none" stroke="#000000" points="928,-264.7 928,-286.7 1099,-286.7 1099,-264.7 928,-264.7"/>
<text text-anchor="start" x="930.9896" y="-272.4" font-family="Helvetica,sans-Serif" font-size="11.00" fill="#000000">timestamp(6) with time zone[13,6]</text>
<polygon fill="none" stroke="#000000" points="669,-242.7 669,-264.7 928,-264.7 928,-242.7 669,-242.7"/>
<text text-anchor="start" x="689" y="-249.8" font-family="Helvetica,sans-Serif" font-size="11.00" fill="#000000">CREATED_BY</text>
<polygon fill="none" stroke="#000000" points="928,-242.7 928,-264.7 1099,-264.7 1099,-242.7 928,-242.7"/>
<text text-anchor="start" x="931" y="-250.4" font-family="Helvetica,sans-Serif" font-size="11.00" fill="#000000">number[19]</text>
<polygon fill="none" stroke="#000000" points="669,-220.7 669,-242.7 928,-242.7 928,-220.7 669,-220.7"/>
<text text-anchor="start" x="689" y="-227.8" font-family="Helvetica,sans-Serif" font-size="11.00" fill="#000000">UPDATED_AT</text>
<polygon fill="none" stroke="#000000" points="928,-220.7 928,-242.7 1099,-242.7 1099,-220.7 928,-220.7"/>
<text text-anchor="start" x="930.9896" y="-228.4" font-family="Helvetica,sans-Serif" font-size="11.00" fill="#000000">timestamp(6) with time zone[13,6]</text>
<polygon fill="none" stroke="#000000" points="669,-198.7 669,-220.7 928,-220.7 928,-198.7 669,-198.7"/>
<text text-anchor="start" x="689" y="-205.8" font-family="Helvetica,sans-Serif" font-size="11.00" fill="#000000">UPDATED_BY</text>
<polygon fill="none" stroke="#000000" points="928,-198.7 928,-220.7 1099,-220.7 1099,-198.7 928,-198.7"/>
<text text-anchor="start" x="931" y="-206.4" font-family="Helvetica,sans-Serif" font-size="11.00" fill="#000000">number[19]</text>
<polygon fill="none" stroke="#000000" points="669,-176.7 669,-198.7 928,-198.7 928,-176.7 669,-176.7"/>
<image xlink:href="../../images/foreignKeys.png" width="11px" height="12px" preserveAspectRatio="xMinYMin meet" x="674" y="-193.7"/>
<text text-anchor="start" x="689" y="-183.8" font-family="Helvetica,sans-Serif" font-size="11.00" fill="#000000">SUPPLEMENT_ID</text>
<polygon fill="none" stroke="#000000" points="928,-176.7 928,-198.7 1099,-198.7 1099,-176.7 928,-176.7"/>
<text text-anchor="start" x="931" y="-184.4" font-family="Helvetica,sans-Serif" font-size="11.00" fill="#000000">number[19]</text>
<polygon fill="none" stroke="#000000" points="669,-154.7 669,-176.7 928,-176.7 928,-154.7 669,-154.7"/>
<image xlink:href="../../images/foreignKeys.png" width="11px" height="12px" preserveAspectRatio="xMinYMin meet" x="674" y="-171.7"/>
<text text-anchor="start" x="689" y="-161.8" font-family="Helvetica,sans-Serif" font-size="11.00" fill="#000000">ISOFORM_DOMAIN_ID</text>
<polygon fill="none" stroke="#000000" points="928,-154.7 928,-176.7 1099,-176.7 1099,-154.7 928,-154.7"/>
<text text-anchor="start" x="931" y="-162.4" font-family="Helvetica,sans-Serif" font-size="11.00" fill="#000000">number[19]</text>
<polygon fill="none" stroke="#000000" points="669,-132.7 669,-154.7 928,-154.7 928,-132.7 669,-132.7"/>
<text text-anchor="start" x="689" y="-139.8" font-family="Helvetica,sans-Serif" font-size="11.00" fill="#000000">IS_INCLUDED</text>
<polygon fill="none" stroke="#000000" points="928,-132.7 928,-154.7 1099,-154.7 1099,-132.7 928,-132.7"/>
<text text-anchor="start" x="931" y="-140.4" font-family="Helvetica,sans-Serif" font-size="11.00" fill="#000000">number[1]</text>
<polygon fill="#ffffff" stroke="transparent" points="669,-113.7 669,-132.7 787,-132.7 787,-113.7 669,-113.7"/>
<polygon fill="none" stroke="#000000" points="669,-113.7 669,-132.7 787,-132.7 787,-113.7 669,-113.7"/>
<text text-anchor="start" x="672" y="-119.8" font-family="Helvetica,sans-Serif" font-size="11.00" fill="#000000">&lt; 2</text>
<polygon fill="#ffffff" stroke="transparent" points="787,-113.7 787,-132.7 928,-132.7 928,-113.7 787,-113.7"/>
<polygon fill="none" stroke="#000000" points="787,-113.7 787,-132.7 928,-132.7 928,-113.7 787,-113.7"/>
<text text-anchor="start" x="886.4956" y="-119.8" font-family="Helvetica,sans-Serif" font-size="11.00" fill="#000000">50 rows</text>
<polygon fill="#ffffff" stroke="transparent" points="928,-113.7 928,-132.7 1099,-132.7 1099,-113.7 928,-113.7"/>
<polygon fill="none" stroke="#000000" points="928,-113.7 928,-132.7 1099,-132.7 1099,-113.7 928,-113.7"/>
<text text-anchor="start" x="1080.4053" y="-119.8" font-family="Helvetica,sans-Serif" font-size="11.00" fill="#000000">0 &gt;</text>
<polygon fill="none" stroke="#000000" stroke-width="2" points="668,-112.7 668,-332.7 1100,-332.7 1100,-112.7 668,-112.7"/>
</a>
</g>
</g>
<!-- SUPPLEMENTS_ISOFORM_DOMAINS&#45;&gt;ISOFORM_DOMAINS -->
<g id="edge8" class="edge">
<title>SUPPLEMENTS_ISOFORM_DOMAINS:w&#45;&gt;ISOFORM_DOMAINS:e</title>
<path fill="none" stroke="#000000" d="M654.8935,-169.3135C645.3248,-175.158 641.3872,-186.5492 626,-191.7 510.3383,-230.4171 472.9517,-197.6043 353,-219.7 334.4455,-223.1178 330.8667,-230.7 312,-230.7"/>
<polygon fill="#000000" stroke="#000000" points="661.2502,-167.6852 669.8933,-169.1874 665.1251,-166.6926 669,-165.7 669,-165.7 669,-165.7 665.1251,-166.6926 668.1067,-162.2126 661.2502,-167.6852 661.2502,-167.6852"/>
<ellipse fill="none" stroke="#000000" cx="658.1503" cy="-168.4793" rx="3.2" ry="3.2"/>
</g>
<!-- SUPPLEMENTS_ISOFORM_DOMAINS&#45;&gt;SUPPLEMENTS -->
<g id="edge9" class="edge">
<title>SUPPLEMENTS_ISOFORM_DOMAINS:w&#45;&gt;SUPPLEMENTS:e</title>
<path fill="none" stroke="#000000" d="M655.7046,-193.6204C627.9198,-222.2775 639.4831,-346.7152 626,-383.7 612.0755,-421.8955 624.1545,-464.7 583.5,-464.7"/>
<polygon fill="#000000" stroke="#000000" points="661.6918,-190.9543 670.4644,-190.9887 665.3459,-189.3272 669,-187.7 669,-187.7 669,-187.7 665.3459,-189.3272 667.5356,-184.4113 661.6918,-190.9543 661.6918,-190.9543"/>
<ellipse fill="none" stroke="#000000" cx="658.7685" cy="-192.2561" rx="3.2" ry="3.2"/>
</g>
<!-- SUPPLEMENTS_REFERENCES -->
<g id="node10" class="node">
<title>SUPPLEMENTS_REFERENCES</title>
<g id="a_node10"><a xlink:href="../../tables/SUPPLEMENTS_REFERENCES.html" xlink:title="SUPPLEMENTS_REFERENCES" target="_top">
<polygon fill="#ffffff" stroke="transparent" points="781,-437.2 781,-498.2 987,-498.2 987,-437.2 781,-437.2"/>
<polygon fill="#f5f5f5" stroke="transparent" points="781,-474.7 781,-497.7 987,-497.7 987,-474.7 781,-474.7"/>
<polygon fill="none" stroke="#000000" points="781,-474.7 781,-497.7 987,-497.7 987,-474.7 781,-474.7"/>
<text text-anchor="start" x="785.9141" y="-483.8" font-family="Helvetica,sans-Serif" font-weight="bold" font-size="11.00" fill="#000000">SUPPLEMENTS_REFERENCES</text>
<text text-anchor="start" x="952.5219" y="-482.8" font-family="Helvetica,sans-Serif" font-size="11.00" fill="#000000">[table]</text>
<polygon fill="none" stroke="#000000" points="781,-455.7 781,-474.7 987,-474.7 987,-455.7 781,-455.7"/>
<text text-anchor="start" x="784" y="-461.8" font-family="Helvetica,sans-Serif" font-size="11.00" fill="#000000">...</text>
<polygon fill="#ffffff" stroke="transparent" points="781,-436.7 781,-455.7 866,-455.7 866,-436.7 781,-436.7"/>
<polygon fill="none" stroke="#000000" points="781,-436.7 781,-455.7 866,-455.7 866,-436.7 781,-436.7"/>
<text text-anchor="start" x="784" y="-442.8" font-family="Helvetica,sans-Serif" font-size="11.00" fill="#000000">&lt; 2</text>
<polygon fill="#ffffff" stroke="transparent" points="866,-436.7 866,-455.7 942,-455.7 942,-436.7 866,-436.7"/>
<polygon fill="none" stroke="#000000" points="866,-436.7 866,-455.7 942,-455.7 942,-436.7 866,-436.7"/>
<text text-anchor="start" x="900.4956" y="-442.8" font-family="Helvetica,sans-Serif" font-size="11.00" fill="#000000">43 rows</text>
<polygon fill="#ffffff" stroke="transparent" points="942,-436.7 942,-455.7 987,-455.7 987,-436.7 942,-436.7"/>
<polygon fill="none" stroke="#000000" points="942,-436.7 942,-455.7 987,-455.7 987,-436.7 942,-436.7"/>
<text text-anchor="start" x="977.8862" y="-442.8" font-family="Helvetica,sans-Serif" font-size="11.00" fill="#000000"> &#160;</text>
</a>
</g>
</g>
<!-- SUPPLEMENTS_REFERENCES&#45;&gt;SUPPLEMENTS -->
<g id="edge10" class="edge">
<title>SUPPLEMENTS_REFERENCES:w&#45;&gt;SUPPLEMENTS:e</title>
<path fill="none" stroke="#000000" d="M766.2219,-464.7C690.4246,-464.7 666.1345,-464.7 583.5,-464.7"/>
<polygon fill="#000000" stroke="#000000" points="773,-464.7001 781,-468.3 777,-464.7 781,-464.7 781,-464.7 781,-464.7 777,-464.7 781,-461.1 773,-464.7001 773,-464.7001"/>
<ellipse fill="none" stroke="#000000" cx="769.8" cy="-464.7001" rx="3.2" ry="3.2"/>
</g>
<!-- TARGET_FORMS_ISOFORM_DOMAINS -->
<g id="node11" class="node">
<title>TARGET_FORMS_ISOFORM_DOMAINS</title>
<g id="a_node11"><a xlink:href="../../tables/TARGET_FORMS_ISOFORM_DOMAINS.html" xlink:title="TARGET_FORMS_ISOFORM_DOMAINS" target="_top">
<polygon fill="#ffffff" stroke="transparent" points="365.5,-312.2 365.5,-373.2 613.5,-373.2 613.5,-312.2 365.5,-312.2"/>
<polygon fill="#f5f5f5" stroke="transparent" points="365.5,-349.7 365.5,-372.7 613.5,-372.7 613.5,-349.7 365.5,-349.7"/>
<polygon fill="none" stroke="#000000" points="365.5,-349.7 365.5,-372.7 613.5,-372.7 613.5,-349.7 365.5,-349.7"/>
<text text-anchor="start" x="370.3359" y="-358.8" font-family="Helvetica,sans-Serif" font-weight="bold" font-size="11.00" fill="#000000">TARGET_FORMS_ISOFORM_DOMAINS</text>
<text text-anchor="start" x="579.0219" y="-357.8" font-family="Helvetica,sans-Serif" font-size="11.00" fill="#000000">[table]</text>
<polygon fill="none" stroke="#000000" points="365.5,-330.7 365.5,-349.7 613.5,-349.7 613.5,-330.7 365.5,-330.7"/>
<text text-anchor="start" x="368.5" y="-336.8" font-family="Helvetica,sans-Serif" font-size="11.00" fill="#000000">...</text>
<polygon fill="#ffffff" stroke="transparent" points="365.5,-311.7 365.5,-330.7 468.5,-330.7 468.5,-311.7 365.5,-311.7"/>
<polygon fill="none" stroke="#000000" points="365.5,-311.7 365.5,-330.7 468.5,-330.7 468.5,-311.7 365.5,-311.7"/>
<text text-anchor="start" x="368.5" y="-317.8" font-family="Helvetica,sans-Serif" font-size="11.00" fill="#000000">&lt; 2</text>
<polygon fill="#ffffff" stroke="transparent" points="468.5,-311.7 468.5,-330.7 559.5,-330.7 559.5,-311.7 468.5,-311.7"/>
<polygon fill="none" stroke="#000000" points="468.5,-311.7 468.5,-330.7 559.5,-330.7 559.5,-311.7 468.5,-311.7"/>
<text text-anchor="start" x="511.8807" y="-317.8" font-family="Helvetica,sans-Serif" font-size="11.00" fill="#000000">725 rows</text>
<polygon fill="#ffffff" stroke="transparent" points="559.5,-311.7 559.5,-330.7 613.5,-330.7 613.5,-311.7 559.5,-311.7"/>
<polygon fill="none" stroke="#000000" points="559.5,-311.7 559.5,-330.7 613.5,-330.7 613.5,-311.7 559.5,-311.7"/>
<text text-anchor="start" x="604.3862" y="-317.8" font-family="Helvetica,sans-Serif" font-size="11.00" fill="#000000"> &#160;</text>
</a>
</g>
</g>
<!-- TARGET_FORMS_ISOFORM_DOMAINS&#45;&gt;ISOFORM_DOMAINS -->
<g id="edge12" class="edge">
<title>TARGET_FORMS_ISOFORM_DOMAINS:w&#45;&gt;ISOFORM_DOMAINS:e</title>
<path fill="none" stroke="#000000" d="M351.3992,-336.0734C322.1447,-317.1602 360.0628,-230.7 312,-230.7"/>
<polygon fill="#000000" stroke="#000000" points="357.7521,-337.7073 364.6033,-343.1865 361.6261,-338.7036 365.5,-339.7 365.5,-339.7 365.5,-339.7 361.6261,-338.7036 366.3967,-336.2135 357.7521,-337.7073 357.7521,-337.7073"/>
<ellipse fill="none" stroke="#000000" cx="354.653" cy="-336.9102" rx="3.2" ry="3.2"/>
</g>
<!-- TARGET_FORMS_ISOFORM_DOMAINS&#45;&gt;TARGET_FORMS -->
<g id="edge13" class="edge">
<title>TARGET_FORMS_ISOFORM_DOMAINS:w&#45;&gt;TARGET_FORMS:e</title>
<path fill="none" stroke="#000000" d="M351.491,-343.0463C330.9812,-354.3924 332.5418,-390.7 302,-390.7"/>
<polygon fill="#000000" stroke="#000000" points="357.7189,-341.5587 366.3364,-343.2015 361.6095,-340.6293 365.5,-339.7 365.5,-339.7 365.5,-339.7 361.6095,-340.6293 364.6636,-336.1985 357.7189,-341.5587 357.7189,-341.5587"/>
<ellipse fill="none" stroke="#000000" cx="354.6065" cy="-342.3021" rx="3.2" ry="3.2"/>
</g>
<!-- TRACER_LIGANDS_ISOFORM_DOMAINS -->
<g id="node12" class="node">
<title>TRACER_LIGANDS_ISOFORM_DOMAINS</title>
<g id="a_node12"><a xlink:href="../../tables/TRACER_LIGANDS_ISOFORM_DOMAINS.html" xlink:title="TRACER_LIGANDS_ISOFORM_DOMAINS" target="_top">
<polygon fill="#ffffff" stroke="transparent" points="361,-38.2 361,-99.2 618,-99.2 618,-38.2 361,-38.2"/>
<polygon fill="#f5f5f5" stroke="transparent" points="361.5,-75.7 361.5,-98.7 618.5,-98.7 618.5,-75.7 361.5,-75.7"/>
<polygon fill="none" stroke="#000000" points="361.5,-75.7 361.5,-98.7 618.5,-98.7 618.5,-75.7 361.5,-75.7"/>
<text text-anchor="start" x="366.25" y="-84.8" font-family="Helvetica,sans-Serif" font-weight="bold" font-size="11.00" fill="#000000">TRACER_LIGANDS_ISOFORM_DOMAINS</text>
<text text-anchor="start" x="584.0219" y="-83.8" font-family="Helvetica,sans-Serif" font-size="11.00" fill="#000000">[table]</text>
<polygon fill="none" stroke="#000000" points="361.5,-56.7 361.5,-75.7 618.5,-75.7 618.5,-56.7 361.5,-56.7"/>
<text text-anchor="start" x="364.5" y="-62.8" font-family="Helvetica,sans-Serif" font-size="11.00" fill="#000000">...</text>
<polygon fill="#ffffff" stroke="transparent" points="361.5,-37.7 361.5,-56.7 472.5,-56.7 472.5,-37.7 361.5,-37.7"/>
<polygon fill="none" stroke="#000000" points="361.5,-37.7 361.5,-56.7 472.5,-56.7 472.5,-37.7 361.5,-37.7"/>
<text text-anchor="start" x="364.5" y="-43.8" font-family="Helvetica,sans-Serif" font-size="11.00" fill="#000000">&lt; 2</text>
<polygon fill="#ffffff" stroke="transparent" points="472.5,-37.7 472.5,-56.7 561.5,-56.7 561.5,-37.7 472.5,-37.7"/>
<polygon fill="none" stroke="#000000" points="472.5,-37.7 472.5,-56.7 561.5,-56.7 561.5,-37.7 472.5,-37.7"/>
<text text-anchor="start" x="519.9956" y="-43.8" font-family="Helvetica,sans-Serif" font-size="11.00" fill="#000000">75 rows</text>
<polygon fill="#ffffff" stroke="transparent" points="561.5,-37.7 561.5,-56.7 618.5,-56.7 618.5,-37.7 561.5,-37.7"/>
<polygon fill="none" stroke="#000000" points="561.5,-37.7 561.5,-56.7 618.5,-56.7 618.5,-37.7 561.5,-37.7"/>
<text text-anchor="start" x="609.3862" y="-43.8" font-family="Helvetica,sans-Serif" font-size="11.00" fill="#000000"> &#160;</text>
</a>
</g>
</g>
<!-- TRACER_LIGANDS_ISOFORM_DOMAINS&#45;&gt;ISOFORM_DOMAINS -->
<g id="edge14" class="edge">
<title>TRACER_LIGANDS_ISOFORM_DOMAINS:w&#45;&gt;ISOFORM_DOMAINS:e</title>
<path fill="none" stroke="#000000" d="M347.2832,-68.2918C299.327,-89.2833 382.8799,-230.7 312,-230.7"/>
<polygon fill="#000000" stroke="#000000" points="353.6297,-67.1348 362.1457,-69.2416 357.5649,-66.4174 361.5,-65.7 361.5,-65.7 361.5,-65.7 357.5649,-66.4174 360.8543,-62.1584 353.6297,-67.1348 353.6297,-67.1348"/>
<ellipse fill="none" stroke="#000000" cx="350.4816" cy="-67.7087" rx="3.2" ry="3.2"/>
</g>
<!-- VERSIONS_SUPPLEMENTS -->
<g id="node13" class="node">
<title>VERSIONS_SUPPLEMENTS</title>
<g id="a_node13"><a xlink:href="../../tables/VERSIONS_SUPPLEMENTS.html" xlink:title="VERSIONS_SUPPLEMENTS" target="_top">
<polygon fill="#ffffff" stroke="transparent" points="790.5,-355.2 790.5,-416.2 977.5,-416.2 977.5,-355.2 790.5,-355.2"/>
<polygon fill="#f5f5f5" stroke="transparent" points="791,-392.7 791,-415.7 978,-415.7 978,-392.7 791,-392.7"/>
<polygon fill="none" stroke="#000000" points="791,-392.7 791,-415.7 978,-415.7 978,-392.7 791,-392.7"/>
<text text-anchor="start" x="795.576" y="-401.8" font-family="Helvetica,sans-Serif" font-weight="bold" font-size="11.00" fill="#000000">VERSIONS_SUPPLEMENTS</text>
<text text-anchor="start" x="943.5219" y="-400.8" font-family="Helvetica,sans-Serif" font-size="11.00" fill="#000000">[table]</text>
<polygon fill="none" stroke="#000000" points="791,-373.7 791,-392.7 978,-392.7 978,-373.7 791,-373.7"/>
<text text-anchor="start" x="794" y="-379.8" font-family="Helvetica,sans-Serif" font-size="11.00" fill="#000000">...</text>
<polygon fill="#ffffff" stroke="transparent" points="791,-354.7 791,-373.7 864,-373.7 864,-354.7 791,-354.7"/>
<polygon fill="none" stroke="#000000" points="791,-354.7 791,-373.7 864,-373.7 864,-354.7 791,-354.7"/>
<text text-anchor="start" x="794" y="-360.8" font-family="Helvetica,sans-Serif" font-size="11.00" fill="#000000">&lt; 2</text>
<polygon fill="#ffffff" stroke="transparent" points="864,-354.7 864,-373.7 940,-373.7 940,-354.7 864,-354.7"/>
<polygon fill="none" stroke="#000000" points="864,-354.7 864,-373.7 940,-373.7 940,-354.7 864,-354.7"/>
<text text-anchor="start" x="892.3807" y="-360.8" font-family="Helvetica,sans-Serif" font-size="11.00" fill="#000000">190 rows</text>
<polygon fill="#ffffff" stroke="transparent" points="940,-354.7 940,-373.7 978,-373.7 978,-354.7 940,-354.7"/>
<polygon fill="none" stroke="#000000" points="940,-354.7 940,-373.7 978,-373.7 978,-354.7 940,-354.7"/>
<text text-anchor="start" x="968.8862" y="-360.8" font-family="Helvetica,sans-Serif" font-size="11.00" fill="#000000"> &#160;</text>
</a>
</g>
</g>
<!-- VERSIONS_SUPPLEMENTS&#45;&gt;SUPPLEMENTS -->
<g id="edge15" class="edge">
<title>VERSIONS_SUPPLEMENTS:w&#45;&gt;SUPPLEMENTS:e</title>
<path fill="none" stroke="#000000" d="M776.3964,-383.1187C726.6558,-386.1275 711.3058,-404.9531 659,-426.7 624.3125,-441.1218 621.0661,-464.7 583.5,-464.7"/>
<polygon fill="#000000" stroke="#000000" points="783.0033,-382.9294 791.1032,-386.2985 787.0016,-382.8147 791,-382.7 791,-382.7 791,-382.7 787.0016,-382.8147 790.8968,-379.1015 783.0033,-382.9294 783.0033,-382.9294"/>
<ellipse fill="none" stroke="#000000" cx="779.8046" cy="-383.0211" rx="3.2" ry="3.2"/>
</g>
</g>
</svg>
