<?xml version="1.0" encoding="UTF-8" standalone="no"?>
<!DOCTYPE svg PUBLIC "-//W3C//DTD SVG 1.1//EN"
 "http://www.w3.org/Graphics/SVG/1.1/DTD/svg11.dtd">
<!-- Generated by graphviz version 2.40.1 (20161225.0304)
 -->
<!-- Title: twoDegreesRelationshipsDiagram Pages: 1 -->
<svg width="988pt" height="800pt"
 viewBox="0.00 0.00 988.00 799.98" xmlns="http://www.w3.org/2000/svg" xmlns:xlink="http://www.w3.org/1999/xlink">
<g id="graph0" class="graph" transform="scale(1 1) rotate(0) translate(4 795.9847)">
<title>twoDegreesRelationshipsDiagram</title>
<polygon fill="#ffffff" stroke="transparent" points="-4,4 -4,-795.9847 984,-795.9847 984,4 -4,4"/>
<text text-anchor="middle" x="72.4936" y="-7.3" font-family="Helvetica,sans-Serif" font-size="11.00" fill="#000000">Generated by SchemaSpy</text>
<!-- IN_HOUSE_ASSAYS -->
<g id="node1" class="node">
<title>IN_HOUSE_ASSAYS</title>
<g id="a_node1"><a xlink:href="../../tables/IN_HOUSE_ASSAYS.html" xlink:title="IN_HOUSE_ASSAYS" target="_top">
<polygon fill="#ffffff" stroke="transparent" points="625,-50.9847 625,-111.9847 774,-111.9847 774,-50.9847 625,-50.9847"/>
<polygon fill="#f5f5f5" stroke="transparent" points="625.5,-88.4847 625.5,-111.4847 774.5,-111.4847 774.5,-88.4847 625.5,-88.4847"/>
<polygon fill="none" stroke="#000000" points="625.5,-88.4847 625.5,-111.4847 774.5,-111.4847 774.5,-88.4847 625.5,-88.4847"/>
<text text-anchor="start" x="630.3233" y="-97.5847" font-family="Helvetica,sans-Serif" font-weight="bold" font-size="11.00" fill="#000000">IN_HOUSE_ASSAYS</text>
<text text-anchor="start" x="740.0219" y="-96.5847" font-family="Helvetica,sans-Serif" font-size="11.00" fill="#000000">[table]</text>
<polygon fill="none" stroke="#000000" points="625.5,-69.4847 625.5,-88.4847 774.5,-88.4847 774.5,-69.4847 625.5,-69.4847"/>
<text text-anchor="start" x="628.5" y="-75.5847" font-family="Helvetica,sans-Serif" font-size="11.00" fill="#000000">...</text>
<polygon fill="#ffffff" stroke="transparent" points="625.5,-50.4847 625.5,-69.4847 677.5,-69.4847 677.5,-50.4847 625.5,-50.4847"/>
<polygon fill="none" stroke="#000000" points="625.5,-50.4847 625.5,-69.4847 677.5,-69.4847 677.5,-50.4847 625.5,-50.4847"/>
<text text-anchor="start" x="628.5" y="-56.5847" font-family="Helvetica,sans-Serif" font-size="11.00" fill="#000000">&lt; 4</text>
<polygon fill="#ffffff" stroke="transparent" points="677.5,-50.4847 677.5,-69.4847 737.5,-69.4847 737.5,-50.4847 677.5,-50.4847"/>
<polygon fill="none" stroke="#000000" points="677.5,-50.4847 677.5,-69.4847 737.5,-69.4847 737.5,-50.4847 677.5,-50.4847"/>
<text text-anchor="start" x="695.9956" y="-56.5847" font-family="Helvetica,sans-Serif" font-size="11.00" fill="#000000">51 rows</text>
<polygon fill="#ffffff" stroke="transparent" points="737.5,-50.4847 737.5,-69.4847 774.5,-69.4847 774.5,-50.4847 737.5,-50.4847"/>
<polygon fill="none" stroke="#000000" points="737.5,-50.4847 737.5,-69.4847 774.5,-69.4847 774.5,-50.4847 737.5,-50.4847"/>
<text text-anchor="start" x="755.9053" y="-56.5847" font-family="Helvetica,sans-Serif" font-size="11.00" fill="#000000">1 &gt;</text>
</a>
</g>
</g>
<!-- ASSAY_TYPES -->
<g id="node2" class="node">
<title>ASSAY_TYPES</title>
<g id="a_node2"><a xlink:href="../../tables/ASSAY_TYPES.html" xlink:title="ASSAY_TYPES" target="_top">
<polygon fill="#ffffff" stroke="transparent" points="223.5,-111.9847 223.5,-194.9847 344.5,-194.9847 344.5,-111.9847 223.5,-111.9847"/>
<polygon fill="#f5f5f5" stroke="transparent" points="224,-171.4847 224,-194.4847 345,-194.4847 345,-171.4847 224,-171.4847"/>
<polygon fill="none" stroke="#000000" points="224,-171.4847 224,-194.4847 345,-194.4847 345,-171.4847 224,-171.4847"/>
<text text-anchor="start" x="228.5711" y="-180.5847" font-family="Helvetica,sans-Serif" font-weight="bold" font-size="11.00" fill="#000000">ASSAY_TYPES</text>
<text text-anchor="start" x="310.5219" y="-179.5847" font-family="Helvetica,sans-Serif" font-size="11.00" fill="#000000">[table]</text>
<polygon fill="none" stroke="#000000" points="224,-149.4847 224,-171.4847 345,-171.4847 345,-149.4847 224,-149.4847"/>
<image xlink:href="../../images/primaryKeys.png" width="11px" height="12px" preserveAspectRatio="xMinYMin meet" x="229" y="-166.485"/>
<text text-anchor="start" x="248" y="-156.5847" font-family="Helvetica,sans-Serif" font-size="11.00" fill="#000000">ID</text>
<polygon fill="none" stroke="#000000" points="224,-130.4847 224,-149.4847 345,-149.4847 345,-130.4847 224,-130.4847"/>
<text text-anchor="start" x="227" y="-136.5847" font-family="Helvetica,sans-Serif" font-size="11.00" fill="#000000">...</text>
<polygon fill="#ffffff" stroke="transparent" points="224,-111.4847 224,-130.4847 258,-130.4847 258,-111.4847 224,-111.4847"/>
<polygon fill="none" stroke="#000000" points="224,-111.4847 224,-130.4847 258,-130.4847 258,-111.4847 224,-111.4847"/>
<text text-anchor="start" x="227" y="-117.5847" font-family="Helvetica,sans-Serif" font-size="11.00" fill="#000000"> &#160;</text>
<polygon fill="#ffffff" stroke="transparent" points="258,-111.4847 258,-130.4847 313,-130.4847 313,-111.4847 258,-111.4847"/>
<polygon fill="none" stroke="#000000" points="258,-111.4847 258,-130.4847 313,-130.4847 313,-111.4847 258,-111.4847"/>
<text text-anchor="start" x="271.4956" y="-117.5847" font-family="Helvetica,sans-Serif" font-size="11.00" fill="#000000">10 rows</text>
<polygon fill="#ffffff" stroke="transparent" points="313,-111.4847 313,-130.4847 345,-130.4847 345,-111.4847 313,-111.4847"/>
<polygon fill="none" stroke="#000000" points="313,-111.4847 313,-130.4847 345,-130.4847 345,-111.4847 313,-111.4847"/>
<text text-anchor="start" x="326.4053" y="-117.5847" font-family="Helvetica,sans-Serif" font-size="11.00" fill="#000000">3 &gt;</text>
</a>
</g>
</g>
<!-- IN_HOUSE_ASSAYS&#45;&gt;ASSAY_TYPES -->
<g id="edge1" class="edge">
<title>IN_HOUSE_ASSAYS:w&#45;&gt;ASSAY_TYPES:e</title>
<path fill="none" stroke="#000000" d="M610.961,-78.594C528.8705,-79.8838 502.6503,-92.6904 419,-122.4847 384.1715,-134.8899 381.9718,-160.4847 345,-160.4847"/>
<polygon fill="#000000" stroke="#000000" points="617.5002,-78.5449 625.5271,-82.0846 621.5001,-78.5148 625.5,-78.4847 625.5,-78.4847 625.5,-78.4847 621.5001,-78.5148 625.4729,-74.8848 617.5002,-78.5449 617.5002,-78.5449"/>
<ellipse fill="none" stroke="#000000" cx="614.3003" cy="-78.569" rx="3.2" ry="3.2"/>
</g>
<!-- TARGET_FORMS -->
<g id="node3" class="node">
<title>TARGET_FORMS</title>
<g id="a_node3"><a xlink:href="../../tables/TARGET_FORMS.html" xlink:title="TARGET_FORMS" target="_top">
<polygon fill="#ffffff" stroke="transparent" points="8,-467.9847 8,-528.9847 141,-528.9847 141,-467.9847 8,-467.9847"/>
<polygon fill="#f5f5f5" stroke="transparent" points="8.5,-505.4847 8.5,-528.4847 141.5,-528.4847 141.5,-505.4847 8.5,-505.4847"/>
<polygon fill="none" stroke="#000000" points="8.5,-505.4847 8.5,-528.4847 141.5,-528.4847 141.5,-505.4847 8.5,-505.4847"/>
<text text-anchor="start" x="13.2801" y="-514.5847" font-family="Helvetica,sans-Serif" font-weight="bold" font-size="11.00" fill="#000000">TARGET_FORMS</text>
<text text-anchor="start" x="107.0219" y="-513.5847" font-family="Helvetica,sans-Serif" font-size="11.00" fill="#000000">[table]</text>
<polygon fill="none" stroke="#000000" points="8.5,-486.4847 8.5,-505.4847 141.5,-505.4847 141.5,-486.4847 8.5,-486.4847"/>
<text text-anchor="start" x="11.5" y="-492.5847" font-family="Helvetica,sans-Serif" font-size="11.00" fill="#000000">...</text>
<polygon fill="#ffffff" stroke="transparent" points="8.5,-467.4847 8.5,-486.4847 46.5,-486.4847 46.5,-467.4847 8.5,-467.4847"/>
<polygon fill="none" stroke="#000000" points="8.5,-467.4847 8.5,-486.4847 46.5,-486.4847 46.5,-467.4847 8.5,-467.4847"/>
<text text-anchor="start" x="11.5" y="-473.5847" font-family="Helvetica,sans-Serif" font-size="11.00" fill="#000000">&lt; 5</text>
<polygon fill="#ffffff" stroke="transparent" points="46.5,-467.4847 46.5,-486.4847 105.5,-486.4847 105.5,-467.4847 46.5,-467.4847"/>
<polygon fill="none" stroke="#000000" points="46.5,-467.4847 46.5,-486.4847 105.5,-486.4847 105.5,-467.4847 46.5,-467.4847"/>
<text text-anchor="start" x="57.8807" y="-473.5847" font-family="Helvetica,sans-Serif" font-size="11.00" fill="#000000">541 rows</text>
<polygon fill="#ffffff" stroke="transparent" points="105.5,-467.4847 105.5,-486.4847 141.5,-486.4847 141.5,-467.4847 105.5,-467.4847"/>
<polygon fill="none" stroke="#000000" points="105.5,-467.4847 105.5,-486.4847 141.5,-486.4847 141.5,-467.4847 105.5,-467.4847"/>
<text text-anchor="start" x="116.7904" y="-473.5847" font-family="Helvetica,sans-Serif" font-size="11.00" fill="#000000">18 &gt;</text>
</a>
</g>
</g>
<!-- IN_HOUSE_ASSAYS&#45;&gt;TARGET_FORMS -->
<g id="edge2" class="edge">
<title>IN_HOUSE_ASSAYS:w&#45;&gt;TARGET_FORMS:e</title>
<path fill="none" stroke="#000000" d="M610.928,-78.2801C422.9658,-73.0117 321.4908,31.1181 182,-101.4847 118.2076,-162.1271 229.5169,-495.4847 141.5,-495.4847"/>
<polygon fill="#000000" stroke="#000000" points="617.5008,-78.3723 625.4494,-82.0844 621.5004,-78.4285 625.5,-78.4847 625.5,-78.4847 625.5,-78.4847 621.5004,-78.4285 625.5506,-74.8851 617.5008,-78.3723 617.5008,-78.3723"/>
<ellipse fill="none" stroke="#000000" cx="614.3011" cy="-78.3274" rx="3.2" ry="3.2"/>
</g>
<!-- LITERATURE_ASSAYS -->
<g id="node4" class="node">
<title>LITERATURE_ASSAYS</title>
<g id="a_node4"><a xlink:href="../../tables/LITERATURE_ASSAYS.html" xlink:title="LITERATURE_ASSAYS" target="_top">
<polygon fill="#ffffff" stroke="transparent" points="619,-132.9847 619,-193.9847 780,-193.9847 780,-132.9847 619,-132.9847"/>
<polygon fill="#f5f5f5" stroke="transparent" points="619.5,-170.4847 619.5,-193.4847 780.5,-193.4847 780.5,-170.4847 619.5,-170.4847"/>
<polygon fill="none" stroke="#000000" points="619.5,-170.4847 619.5,-193.4847 780.5,-193.4847 780.5,-170.4847 619.5,-170.4847"/>
<text text-anchor="start" x="624.2139" y="-179.5847" font-family="Helvetica,sans-Serif" font-weight="bold" font-size="11.00" fill="#000000">LITERATURE_ASSAYS</text>
<text text-anchor="start" x="746.0219" y="-178.5847" font-family="Helvetica,sans-Serif" font-size="11.00" fill="#000000">[table]</text>
<polygon fill="none" stroke="#000000" points="619.5,-151.4847 619.5,-170.4847 780.5,-170.4847 780.5,-151.4847 619.5,-151.4847"/>
<text text-anchor="start" x="622.5" y="-157.5847" font-family="Helvetica,sans-Serif" font-size="11.00" fill="#000000">...</text>
<polygon fill="#ffffff" stroke="transparent" points="619.5,-132.4847 619.5,-151.4847 677.5,-151.4847 677.5,-132.4847 619.5,-132.4847"/>
<polygon fill="none" stroke="#000000" points="619.5,-132.4847 619.5,-151.4847 677.5,-151.4847 677.5,-132.4847 619.5,-132.4847"/>
<text text-anchor="start" x="622.5" y="-138.5847" font-family="Helvetica,sans-Serif" font-size="11.00" fill="#000000">&lt; 3</text>
<polygon fill="#ffffff" stroke="transparent" points="677.5,-132.4847 677.5,-151.4847 740.5,-151.4847 740.5,-132.4847 677.5,-132.4847"/>
<polygon fill="none" stroke="#000000" points="677.5,-132.4847 677.5,-151.4847 740.5,-151.4847 740.5,-132.4847 677.5,-132.4847"/>
<text text-anchor="start" x="698.9956" y="-138.5847" font-family="Helvetica,sans-Serif" font-size="11.00" fill="#000000">25 rows</text>
<polygon fill="#ffffff" stroke="transparent" points="740.5,-132.4847 740.5,-151.4847 780.5,-151.4847 780.5,-132.4847 740.5,-132.4847"/>
<polygon fill="none" stroke="#000000" points="740.5,-132.4847 740.5,-151.4847 780.5,-151.4847 780.5,-132.4847 740.5,-132.4847"/>
<text text-anchor="start" x="761.9053" y="-138.5847" font-family="Helvetica,sans-Serif" font-size="11.00" fill="#000000">1 &gt;</text>
</a>
</g>
</g>
<!-- LITERATURE_ASSAYS&#45;&gt;ASSAY_TYPES -->
<g id="edge3" class="edge">
<title>LITERATURE_ASSAYS:w&#45;&gt;ASSAY_TYPES:e</title>
<path fill="none" stroke="#000000" d="M604.9374,-160.4847C494.8441,-160.4847 461.9961,-160.4847 345,-160.4847"/>
<polygon fill="#000000" stroke="#000000" points="611.5,-160.4848 619.5,-164.0847 615.5,-160.4847 619.5,-160.4847 619.5,-160.4847 619.5,-160.4847 615.5,-160.4847 619.5,-156.8847 611.5,-160.4848 611.5,-160.4848"/>
<ellipse fill="none" stroke="#000000" cx="608.3" cy="-160.4848" rx="3.2" ry="3.2"/>
</g>
<!-- SCREENING_PLANS -->
<g id="node5" class="node">
<title>SCREENING_PLANS</title>
<g id="a_node5"><a xlink:href="../../tables/SCREENING_PLANS.html" xlink:title="SCREENING_PLANS" target="_top">
<polygon fill="#ffffff" stroke="transparent" points="624.5,-480.9847 624.5,-541.9847 774.5,-541.9847 774.5,-480.9847 624.5,-480.9847"/>
<polygon fill="#f5f5f5" stroke="transparent" points="624.5,-518.4847 624.5,-541.4847 774.5,-541.4847 774.5,-518.4847 624.5,-518.4847"/>
<polygon fill="none" stroke="#000000" points="624.5,-518.4847 624.5,-541.4847 774.5,-541.4847 774.5,-518.4847 624.5,-518.4847"/>
<text text-anchor="start" x="629.2183" y="-527.5847" font-family="Helvetica,sans-Serif" font-weight="bold" font-size="11.00" fill="#000000">SCREENING_PLANS</text>
<text text-anchor="start" x="740.0219" y="-526.5847" font-family="Helvetica,sans-Serif" font-size="11.00" fill="#000000">[table]</text>
<polygon fill="none" stroke="#000000" points="624.5,-499.4847 624.5,-518.4847 774.5,-518.4847 774.5,-499.4847 624.5,-499.4847"/>
<text text-anchor="start" x="627.5" y="-505.5847" font-family="Helvetica,sans-Serif" font-size="11.00" fill="#000000">...</text>
<polygon fill="#ffffff" stroke="transparent" points="624.5,-480.4847 624.5,-499.4847 674.5,-499.4847 674.5,-480.4847 624.5,-480.4847"/>
<polygon fill="none" stroke="#000000" points="624.5,-480.4847 624.5,-499.4847 674.5,-499.4847 674.5,-480.4847 624.5,-480.4847"/>
<text text-anchor="start" x="627.5" y="-486.5847" font-family="Helvetica,sans-Serif" font-size="11.00" fill="#000000">&lt; 3</text>
<polygon fill="#ffffff" stroke="transparent" points="674.5,-480.4847 674.5,-499.4847 738.5,-499.4847 738.5,-480.4847 674.5,-480.4847"/>
<polygon fill="none" stroke="#000000" points="674.5,-480.4847 674.5,-499.4847 738.5,-499.4847 738.5,-480.4847 674.5,-480.4847"/>
<text text-anchor="start" x="690.8807" y="-486.5847" font-family="Helvetica,sans-Serif" font-size="11.00" fill="#000000">137 rows</text>
<polygon fill="#ffffff" stroke="transparent" points="738.5,-480.4847 738.5,-499.4847 774.5,-499.4847 774.5,-480.4847 738.5,-480.4847"/>
<polygon fill="none" stroke="#000000" points="738.5,-480.4847 738.5,-499.4847 774.5,-499.4847 774.5,-480.4847 738.5,-480.4847"/>
<text text-anchor="start" x="755.9053" y="-486.5847" font-family="Helvetica,sans-Serif" font-size="11.00" fill="#000000">1 &gt;</text>
</a>
</g>
</g>
<!-- SCREENING_PLANS&#45;&gt;TARGET_FORMS -->
<g id="edge5" class="edge">
<title>SCREENING_PLANS:w&#45;&gt;TARGET_FORMS:e</title>
<path fill="none" stroke="#000000" d="M609.9662,-508.4645C407.2146,-507.8949 351.3162,-495.4847 141.5,-495.4847"/>
<polygon fill="#000000" stroke="#000000" points="616.5,-508.4735 624.495,-512.0847 620.5,-508.4791 624.5,-508.4847 624.5,-508.4847 624.5,-508.4847 620.5,-508.4791 624.505,-504.8847 616.5,-508.4735 616.5,-508.4735"/>
<ellipse fill="none" stroke="#000000" cx="613.3" cy="-508.4691" rx="3.2" ry="3.2"/>
</g>
<!-- SUPPLEMENTS -->
<g id="node6" class="node">
<title>SUPPLEMENTS</title>
<g id="a_node6"><a xlink:href="../../tables/SUPPLEMENTS.html" xlink:title="SUPPLEMENTS" target="_top">
<polygon fill="#ffffff" stroke="transparent" points="190,-519.9847 190,-624.9847 378,-624.9847 378,-519.9847 190,-519.9847"/>
<polygon fill="#f5f5f5" stroke="transparent" points="190,-601.4847 190,-624.4847 378,-624.4847 378,-601.4847 190,-601.4847"/>
<polygon fill="none" stroke="#000000" points="190,-601.4847 190,-624.4847 378,-624.4847 378,-601.4847 190,-601.4847"/>
<text text-anchor="start" x="195" y="-610.5847" font-family="Helvetica,sans-Serif" font-weight="bold" font-size="11.00" fill="#000000">SUPPLEMENTS</text>
<text text-anchor="start" x="343.0437" y="-609.5847" font-family="Helvetica,sans-Serif" font-size="11.00" fill="#000000">[table]</text>
<polygon fill="none" stroke="#000000" points="190,-579.4847 190,-601.4847 378,-601.4847 378,-579.4847 190,-579.4847"/>
<image xlink:href="../../images/primaryKeys.png" width="11px" height="12px" preserveAspectRatio="xMinYMin meet" x="195" y="-596.485"/>
<text text-anchor="start" x="210" y="-586.5847" font-family="Helvetica,sans-Serif" font-size="11.00" fill="#000000">ID</text>
<polygon fill="none" stroke="#000000" points="190,-557.4847 190,-579.4847 378,-579.4847 378,-557.4847 190,-557.4847"/>
<image xlink:href="../../images/foreignKeys.png" width="11px" height="12px" preserveAspectRatio="xMinYMin meet" x="195" y="-574.485"/>
<text text-anchor="start" x="210" y="-564.5847" font-family="Helvetica,sans-Serif" font-size="11.00" fill="#000000">TARGET_FORM_ID</text>
<polygon fill="none" stroke="#000000" points="190,-538.4847 190,-557.4847 378,-557.4847 378,-538.4847 190,-538.4847"/>
<text text-anchor="start" x="193" y="-544.5847" font-family="Helvetica,sans-Serif" font-size="11.00" fill="#000000">...</text>
<polygon fill="#ffffff" stroke="transparent" points="190,-519.4847 190,-538.4847 262,-538.4847 262,-519.4847 190,-519.4847"/>
<polygon fill="none" stroke="#000000" points="190,-519.4847 190,-538.4847 262,-538.4847 262,-519.4847 190,-519.4847"/>
<text text-anchor="start" x="193" y="-525.5847" font-family="Helvetica,sans-Serif" font-size="11.00" fill="#000000">&lt; 1</text>
<polygon fill="#ffffff" stroke="transparent" points="262,-519.4847 262,-538.4847 331,-538.4847 331,-519.4847 262,-519.4847"/>
<polygon fill="none" stroke="#000000" points="262,-519.4847 262,-538.4847 331,-538.4847 331,-519.4847 262,-519.4847"/>
<text text-anchor="start" x="289.4956" y="-525.5847" font-family="Helvetica,sans-Serif" font-size="11.00" fill="#000000">77 rows</text>
<polygon fill="#ffffff" stroke="transparent" points="331,-519.4847 331,-538.4847 378,-538.4847 378,-519.4847 331,-519.4847"/>
<polygon fill="none" stroke="#000000" points="331,-519.4847 331,-538.4847 378,-538.4847 378,-519.4847 331,-519.4847"/>
<text text-anchor="start" x="359.4053" y="-525.5847" font-family="Helvetica,sans-Serif" font-size="11.00" fill="#000000">5 &gt;</text>
</a>
</g>
</g>
<!-- SCREENING_PLANS&#45;&gt;SUPPLEMENTS -->
<g id="edge4" class="edge">
<title>SCREENING_PLANS:w&#45;&gt;SUPPLEMENTS:e</title>
<path fill="none" stroke="#000000" d="M609.9869,-508.4992C527.8036,-508.7068 497.4318,-511.7336 419,-552.4847 396.9531,-563.9397 402.8452,-590.4847 378,-590.4847"/>
<polygon fill="#000000" stroke="#000000" points="616.5,-508.4928 624.5036,-512.0847 620.5,-508.4887 624.5,-508.4847 624.5,-508.4847 624.5,-508.4847 620.5,-508.4887 624.4964,-504.8847 616.5,-508.4928 616.5,-508.4928"/>
<ellipse fill="none" stroke="#000000" cx="613.3" cy="-508.496" rx="3.2" ry="3.2"/>
</g>
<!-- SUPPLEMENTS&#45;&gt;TARGET_FORMS -->
<g id="edge6" class="edge">
<title>SUPPLEMENTS:w&#45;&gt;TARGET_FORMS:e</title>
<path fill="none" stroke="#000000" d="M176.2262,-563.695C158.5678,-547.4544 174.366,-495.4847 141.5,-495.4847"/>
<polygon fill="#000000" stroke="#000000" points="182.4438,-565.8571 188.8176,-571.885 186.2219,-567.1709 190,-568.4847 190,-568.4847 190,-568.4847 186.2219,-567.1709 191.1824,-565.0844 182.4438,-565.8571 182.4438,-565.8571"/>
<ellipse fill="none" stroke="#000000" cx="179.4214" cy="-564.806" rx="3.2" ry="3.2"/>
</g>
<!-- SUPPLEMENTS_ASSAY_TYPES_BINDING_CONSTANTS -->
<g id="node7" class="node">
<title>SUPPLEMENTS_ASSAY_TYPES_BINDING_CONSTANTS</title>
<g id="a_node7"><a xlink:href="../../tables/SUPPLEMENTS_ASSAY_TYPES_BINDING_CONSTANTS.html" xlink:title="SUPPLEMENTS_ASSAY_TYPES_BINDING_CONSTANTS" target="_top">
<polygon fill="#ffffff" stroke="transparent" points="427,-215.4847 427,-459.4847 972,-459.4847 972,-215.4847 427,-215.4847"/>
<polygon fill="#f5f5f5" stroke="transparent" points="429.5,-434.4847 429.5,-457.4847 970.5,-457.4847 970.5,-434.4847 429.5,-434.4847"/>
<polygon fill="none" stroke="#000000" points="429.5,-434.4847 429.5,-457.4847 970.5,-457.4847 970.5,-434.4847 429.5,-434.4847"/>
<text text-anchor="start" x="434.5" y="-443.5847" font-family="Helvetica,sans-Serif" font-weight="bold" font-size="11.00" fill="#000000">SUPPLEMENTS_ASSAY_TYPES_BINDING_CONSTANTS</text>
<text text-anchor="start" x="935.5437" y="-442.5847" font-family="Helvetica,sans-Serif" font-size="11.00" fill="#000000">[table]</text>
<polygon fill="none" stroke="#000000" points="429.5,-412.4847 429.5,-434.4847 799.5,-434.4847 799.5,-412.4847 429.5,-412.4847"/>
<image xlink:href="../../images/primaryKeys.png" width="11px" height="12px" preserveAspectRatio="xMinYMin meet" x="434.5" y="-429.485"/>
<text text-anchor="start" x="449.5" y="-419.5847" font-family="Helvetica,sans-Serif" font-size="11.00" fill="#000000">ID</text>
<polygon fill="none" stroke="#000000" points="799.5,-412.4847 799.5,-434.4847 970.5,-434.4847 970.5,-412.4847 799.5,-412.4847"/>
<text text-anchor="start" x="802.5" y="-420.1847" font-family="Helvetica,sans-Serif" font-size="11.00" fill="#000000">number[19]</text>
<polygon fill="none" stroke="#000000" points="429.5,-390.4847 429.5,-412.4847 799.5,-412.4847 799.5,-390.4847 429.5,-390.4847"/>
<text text-anchor="start" x="449.5" y="-397.5847" font-family="Helvetica,sans-Serif" font-size="11.00" fill="#000000">CREATED_AT</text>
<polygon fill="none" stroke="#000000" points="799.5,-390.4847 799.5,-412.4847 970.5,-412.4847 970.5,-390.4847 799.5,-390.4847"/>
<text text-anchor="start" x="802.4896" y="-398.1847" font-family="Helvetica,sans-Serif" font-size="11.00" fill="#000000">timestamp(6) with time zone[13,6]</text>
<polygon fill="none" stroke="#000000" points="429.5,-368.4847 429.5,-390.4847 799.5,-390.4847 799.5,-368.4847 429.5,-368.4847"/>
<text text-anchor="start" x="449.5" y="-375.5847" font-family="Helvetica,sans-Serif" font-size="11.00" fill="#000000">CREATED_BY</text>
<polygon fill="none" stroke="#000000" points="799.5,-368.4847 799.5,-390.4847 970.5,-390.4847 970.5,-368.4847 799.5,-368.4847"/>
<text text-anchor="start" x="802.5" y="-376.1847" font-family="Helvetica,sans-Serif" font-size="11.00" fill="#000000">number[19]</text>
<polygon fill="none" stroke="#000000" points="429.5,-346.4847 429.5,-368.4847 799.5,-368.4847 799.5,-346.4847 429.5,-346.4847"/>
<text text-anchor="start" x="449.5" y="-353.5847" font-family="Helvetica,sans-Serif" font-size="11.00" fill="#000000">UPDATED_AT</text>
<polygon fill="none" stroke="#000000" points="799.5,-346.4847 799.5,-368.4847 970.5,-368.4847 970.5,-346.4847 799.5,-346.4847"/>
<text text-anchor="start" x="802.4896" y="-354.1847" font-family="Helvetica,sans-Serif" font-size="11.00" fill="#000000">timestamp(6) with time zone[13,6]</text>
<polygon fill="none" stroke="#000000" points="429.5,-324.4847 429.5,-346.4847 799.5,-346.4847 799.5,-324.4847 429.5,-324.4847"/>
<text text-anchor="start" x="449.5" y="-331.5847" font-family="Helvetica,sans-Serif" font-size="11.00" fill="#000000">UPDATED_BY</text>
<polygon fill="none" stroke="#000000" points="799.5,-324.4847 799.5,-346.4847 970.5,-346.4847 970.5,-324.4847 799.5,-324.4847"/>
<text text-anchor="start" x="802.5" y="-332.1847" font-family="Helvetica,sans-Serif" font-size="11.00" fill="#000000">number[19]</text>
<polygon fill="none" stroke="#000000" points="429.5,-302.4847 429.5,-324.4847 799.5,-324.4847 799.5,-302.4847 429.5,-302.4847"/>
<image xlink:href="../../images/foreignKeys.png" width="11px" height="12px" preserveAspectRatio="xMinYMin meet" x="434.5" y="-319.485"/>
<text text-anchor="start" x="449.5" y="-309.5847" font-family="Helvetica,sans-Serif" font-size="11.00" fill="#000000">SUPPLEMENT_ID</text>
<polygon fill="none" stroke="#000000" points="799.5,-302.4847 799.5,-324.4847 970.5,-324.4847 970.5,-302.4847 799.5,-302.4847"/>
<text text-anchor="start" x="802.5" y="-310.1847" font-family="Helvetica,sans-Serif" font-size="11.00" fill="#000000">number[19]</text>
<polygon fill="none" stroke="#000000" points="429.5,-280.4847 429.5,-302.4847 799.5,-302.4847 799.5,-280.4847 429.5,-280.4847"/>
<image xlink:href="../../images/foreignKeys.png" width="11px" height="12px" preserveAspectRatio="xMinYMin meet" x="434.5" y="-297.485"/>
<text text-anchor="start" x="449.5" y="-287.5847" font-family="Helvetica,sans-Serif" font-size="11.00" fill="#000000">ASSAY_TYPE_ID</text>
<polygon fill="none" stroke="#000000" points="799.5,-280.4847 799.5,-302.4847 970.5,-302.4847 970.5,-280.4847 799.5,-280.4847"/>
<text text-anchor="start" x="802.5" y="-288.1847" font-family="Helvetica,sans-Serif" font-size="11.00" fill="#000000">number[19]</text>
<polygon fill="none" stroke="#000000" points="429.5,-258.4847 429.5,-280.4847 799.5,-280.4847 799.5,-258.4847 429.5,-258.4847"/>
<image xlink:href="../../images/foreignKeys.png" width="11px" height="12px" preserveAspectRatio="xMinYMin meet" x="434.5" y="-275.485"/>
<text text-anchor="start" x="449.5" y="-265.5847" font-family="Helvetica,sans-Serif" font-size="11.00" fill="#000000">BINDING_CONSTANT_ID</text>
<polygon fill="none" stroke="#000000" points="799.5,-258.4847 799.5,-280.4847 970.5,-280.4847 970.5,-258.4847 799.5,-258.4847"/>
<text text-anchor="start" x="802.5" y="-266.1847" font-family="Helvetica,sans-Serif" font-size="11.00" fill="#000000">number[19]</text>
<polygon fill="none" stroke="#000000" points="429.5,-236.4847 429.5,-258.4847 799.5,-258.4847 799.5,-236.4847 429.5,-236.4847"/>
<text text-anchor="start" x="449.5" y="-243.5847" font-family="Helvetica,sans-Serif" font-size="11.00" fill="#000000">BINDING_CONSTANT_VALUE</text>
<polygon fill="none" stroke="#000000" points="799.5,-236.4847 799.5,-258.4847 970.5,-258.4847 970.5,-236.4847 799.5,-236.4847"/>
<text text-anchor="start" x="802.5" y="-244.1847" font-family="Helvetica,sans-Serif" font-size="11.00" fill="#000000">varchar2[255]</text>
<polygon fill="#ffffff" stroke="transparent" points="429.5,-217.4847 429.5,-236.4847 602.5,-236.4847 602.5,-217.4847 429.5,-217.4847"/>
<polygon fill="none" stroke="#000000" points="429.5,-217.4847 429.5,-236.4847 602.5,-236.4847 602.5,-217.4847 429.5,-217.4847"/>
<text text-anchor="start" x="432.5" y="-223.5847" font-family="Helvetica,sans-Serif" font-size="11.00" fill="#000000">&lt; 3</text>
<polygon fill="#ffffff" stroke="transparent" points="602.5,-217.4847 602.5,-236.4847 799.5,-236.4847 799.5,-217.4847 602.5,-217.4847"/>
<polygon fill="none" stroke="#000000" points="602.5,-217.4847 602.5,-236.4847 799.5,-236.4847 799.5,-217.4847 602.5,-217.4847"/>
<text text-anchor="start" x="757.9956" y="-223.5847" font-family="Helvetica,sans-Serif" font-size="11.00" fill="#000000">62 rows</text>
<polygon fill="#ffffff" stroke="transparent" points="799.5,-217.4847 799.5,-236.4847 970.5,-236.4847 970.5,-217.4847 799.5,-217.4847"/>
<polygon fill="none" stroke="#000000" points="799.5,-217.4847 799.5,-236.4847 970.5,-236.4847 970.5,-217.4847 799.5,-217.4847"/>
<text text-anchor="start" x="951.9053" y="-223.5847" font-family="Helvetica,sans-Serif" font-size="11.00" fill="#000000">0 &gt;</text>
<polygon fill="none" stroke="#000000" stroke-width="2" points="428,-216.4847 428,-458.4847 971,-458.4847 971,-216.4847 428,-216.4847"/>
</a>
</g>
</g>
<!-- SUPPLEMENTS_ASSAY_TYPES_BINDING_CONSTANTS&#45;&gt;ASSAY_TYPES -->
<g id="edge7" class="edge">
<title>SUPPLEMENTS_ASSAY_TYPES_BINDING_CONSTANTS:w&#45;&gt;ASSAY_TYPES:e</title>
<path fill="none" stroke="#000000" d="M415.2887,-288.7183C393.5503,-278.1601 405.4437,-239.5352 386,-210.4847 370.0154,-186.6023 373.7381,-160.4847 345,-160.4847"/>
<polygon fill="#000000" stroke="#000000" points="421.6474,-289.956 428.8121,-295.0184 425.5737,-290.7204 429.5,-291.4847 429.5,-291.4847 429.5,-291.4847 425.5737,-290.7204 430.1879,-287.9511 421.6474,-289.956 421.6474,-289.956"/>
<ellipse fill="none" stroke="#000000" cx="418.5064" cy="-289.3446" rx="3.2" ry="3.2"/>
</g>
<!-- SUPPLEMENTS_ASSAY_TYPES_BINDING_CONSTANTS&#45;&gt;SUPPLEMENTS -->
<g id="edge9" class="edge">
<title>SUPPLEMENTS_ASSAY_TYPES_BINDING_CONSTANTS:w&#45;&gt;SUPPLEMENTS:e</title>
<path fill="none" stroke="#000000" d="M416.2057,-319.2703C378.5535,-359.0484 435.2298,-590.4847 378,-590.4847"/>
<polygon fill="#000000" stroke="#000000" points="422.1645,-316.6771 430.9366,-316.7857 425.8323,-315.0809 429.5,-313.4847 429.5,-313.4847 429.5,-313.4847 425.8323,-315.0809 428.0634,-310.1838 422.1645,-316.6771 422.1645,-316.6771"/>
<ellipse fill="none" stroke="#000000" cx="419.2303" cy="-317.954" rx="3.2" ry="3.2"/>
</g>
<!-- BINDING_CONSTANTS -->
<g id="node8" class="node">
<title>BINDING_CONSTANTS</title>
<g id="a_node8"><a xlink:href="../../tables/BINDING_CONSTANTS.html" xlink:title="BINDING_CONSTANTS" target="_top">
<polygon fill="#ffffff" stroke="transparent" points="200.5,-220.9847 200.5,-303.9847 367.5,-303.9847 367.5,-220.9847 200.5,-220.9847"/>
<polygon fill="#f5f5f5" stroke="transparent" points="201,-280.4847 201,-303.4847 368,-303.4847 368,-280.4847 201,-280.4847"/>
<polygon fill="none" stroke="#000000" points="201,-280.4847 201,-303.4847 368,-303.4847 368,-280.4847 201,-280.4847"/>
<text text-anchor="start" x="206" y="-289.5847" font-family="Helvetica,sans-Serif" font-weight="bold" font-size="11.00" fill="#000000">BINDING_CONSTANTS</text>
<text text-anchor="start" x="333.0437" y="-288.5847" font-family="Helvetica,sans-Serif" font-size="11.00" fill="#000000">[table]</text>
<polygon fill="none" stroke="#000000" points="201,-258.4847 201,-280.4847 368,-280.4847 368,-258.4847 201,-258.4847"/>
<image xlink:href="../../images/primaryKeys.png" width="11px" height="12px" preserveAspectRatio="xMinYMin meet" x="206" y="-275.485"/>
<text text-anchor="start" x="221" y="-265.5847" font-family="Helvetica,sans-Serif" font-size="11.00" fill="#000000">ID</text>
<polygon fill="none" stroke="#000000" points="201,-239.4847 201,-258.4847 368,-258.4847 368,-239.4847 201,-239.4847"/>
<text text-anchor="start" x="204" y="-245.5847" font-family="Helvetica,sans-Serif" font-size="11.00" fill="#000000">...</text>
<polygon fill="#ffffff" stroke="transparent" points="201,-220.4847 201,-239.4847 261,-239.4847 261,-220.4847 201,-220.4847"/>
<polygon fill="none" stroke="#000000" points="201,-220.4847 201,-239.4847 261,-239.4847 261,-220.4847 201,-220.4847"/>
<text text-anchor="start" x="204" y="-226.5847" font-family="Helvetica,sans-Serif" font-size="11.00" fill="#000000"> &#160;</text>
<polygon fill="#ffffff" stroke="transparent" points="261,-220.4847 261,-239.4847 323,-239.4847 323,-220.4847 261,-220.4847"/>
<polygon fill="none" stroke="#000000" points="261,-220.4847 261,-239.4847 323,-239.4847 323,-220.4847 261,-220.4847"/>
<text text-anchor="start" x="287.6105" y="-226.5847" font-family="Helvetica,sans-Serif" font-size="11.00" fill="#000000">7 rows</text>
<polygon fill="#ffffff" stroke="transparent" points="323,-220.4847 323,-239.4847 368,-239.4847 368,-220.4847 323,-220.4847"/>
<polygon fill="none" stroke="#000000" points="323,-220.4847 323,-239.4847 368,-239.4847 368,-220.4847 323,-220.4847"/>
<text text-anchor="start" x="349.4053" y="-226.5847" font-family="Helvetica,sans-Serif" font-size="11.00" fill="#000000">1 &gt;</text>
</a>
</g>
</g>
<!-- SUPPLEMENTS_ASSAY_TYPES_BINDING_CONSTANTS&#45;&gt;BINDING_CONSTANTS -->
<g id="edge8" class="edge">
<title>SUPPLEMENTS_ASSAY_TYPES_BINDING_CONSTANTS:w&#45;&gt;BINDING_CONSTANTS:e</title>
<path fill="none" stroke="#000000" d="M415.0376,-269.4847C398.5448,-269.4847 389.7813,-269.4847 368,-269.4847"/>
<polygon fill="#000000" stroke="#000000" points="421.5,-269.4848 429.5,-273.0847 425.5,-269.4847 429.5,-269.4847 429.5,-269.4847 429.5,-269.4847 425.5,-269.4847 429.5,-265.8847 421.5,-269.4848 421.5,-269.4848"/>
<ellipse fill="none" stroke="#000000" cx="418.3" cy="-269.4848" rx="3.2" ry="3.2"/>
</g>
<!-- SUPPLEMENTS_ISOFORM_DOMAINS -->
<g id="node9" class="node">
<title>SUPPLEMENTS_ISOFORM_DOMAINS</title>
<g id="a_node9"><a xlink:href="../../tables/SUPPLEMENTS_ISOFORM_DOMAINS.html" xlink:title="SUPPLEMENTS_ISOFORM_DOMAINS" target="_top">
<polygon fill="#ffffff" stroke="transparent" points="580,-644.9847 580,-705.9847 819,-705.9847 819,-644.9847 580,-644.9847"/>
<polygon fill="#f5f5f5" stroke="transparent" points="580.5,-682.4847 580.5,-705.4847 819.5,-705.4847 819.5,-682.4847 580.5,-682.4847"/>
<polygon fill="none" stroke="#000000" points="580.5,-682.4847 580.5,-705.4847 819.5,-705.4847 819.5,-682.4847 580.5,-682.4847"/>
<text text-anchor="start" x="585.1089" y="-691.5847" font-family="Helvetica,sans-Serif" font-weight="bold" font-size="11.00" fill="#000000">SUPPLEMENTS_ISOFORM_DOMAINS</text>
<text text-anchor="start" x="785.0219" y="-690.5847" font-family="Helvetica,sans-Serif" font-size="11.00" fill="#000000">[table]</text>
<polygon fill="none" stroke="#000000" points="580.5,-663.4847 580.5,-682.4847 819.5,-682.4847 819.5,-663.4847 580.5,-663.4847"/>
<text text-anchor="start" x="583.5" y="-669.5847" font-family="Helvetica,sans-Serif" font-size="11.00" fill="#000000">...</text>
<polygon fill="#ffffff" stroke="transparent" points="580.5,-644.4847 580.5,-663.4847 682.5,-663.4847 682.5,-644.4847 580.5,-644.4847"/>
<polygon fill="none" stroke="#000000" points="580.5,-644.4847 580.5,-663.4847 682.5,-663.4847 682.5,-644.4847 580.5,-644.4847"/>
<text text-anchor="start" x="583.5" y="-650.5847" font-family="Helvetica,sans-Serif" font-size="11.00" fill="#000000">&lt; 2</text>
<polygon fill="#ffffff" stroke="transparent" points="682.5,-644.4847 682.5,-663.4847 766.5,-663.4847 766.5,-644.4847 682.5,-644.4847"/>
<polygon fill="none" stroke="#000000" points="682.5,-644.4847 682.5,-663.4847 766.5,-663.4847 766.5,-644.4847 682.5,-644.4847"/>
<text text-anchor="start" x="724.9956" y="-650.5847" font-family="Helvetica,sans-Serif" font-size="11.00" fill="#000000">50 rows</text>
<polygon fill="#ffffff" stroke="transparent" points="766.5,-644.4847 766.5,-663.4847 819.5,-663.4847 819.5,-644.4847 766.5,-644.4847"/>
<polygon fill="none" stroke="#000000" points="766.5,-644.4847 766.5,-663.4847 819.5,-663.4847 819.5,-644.4847 766.5,-644.4847"/>
<text text-anchor="start" x="810.3862" y="-650.5847" font-family="Helvetica,sans-Serif" font-size="11.00" fill="#000000"> &#160;</text>
</a>
</g>
</g>
<!-- SUPPLEMENTS_ISOFORM_DOMAINS&#45;&gt;SUPPLEMENTS -->
<g id="edge10" class="edge">
<title>SUPPLEMENTS_ISOFORM_DOMAINS:w&#45;&gt;SUPPLEMENTS:e</title>
<path fill="none" stroke="#000000" d="M566.0468,-672.4597C503.2966,-672.1817 478.4149,-668.9692 419,-634.4847 395.8821,-621.0671 404.7296,-590.4847 378,-590.4847"/>
<polygon fill="#000000" stroke="#000000" points="572.5,-672.4708 580.4937,-676.0847 576.5,-672.4778 580.5,-672.4847 580.5,-672.4847 580.5,-672.4847 576.5,-672.4778 580.5063,-668.8847 572.5,-672.4708 572.5,-672.4708"/>
<ellipse fill="none" stroke="#000000" cx="569.3" cy="-672.4653" rx="3.2" ry="3.2"/>
</g>
<!-- SUPPLEMENTS_REFERENCES -->
<g id="node10" class="node">
<title>SUPPLEMENTS_REFERENCES</title>
<g id="a_node10"><a xlink:href="../../tables/SUPPLEMENTS_REFERENCES.html" xlink:title="SUPPLEMENTS_REFERENCES" target="_top">
<polygon fill="#ffffff" stroke="transparent" points="596.5,-562.9847 596.5,-623.9847 802.5,-623.9847 802.5,-562.9847 596.5,-562.9847"/>
<polygon fill="#f5f5f5" stroke="transparent" points="596.5,-600.4847 596.5,-623.4847 802.5,-623.4847 802.5,-600.4847 596.5,-600.4847"/>
<polygon fill="none" stroke="#000000" points="596.5,-600.4847 596.5,-623.4847 802.5,-623.4847 802.5,-600.4847 596.5,-600.4847"/>
<text text-anchor="start" x="601.4141" y="-609.5847" font-family="Helvetica,sans-Serif" font-weight="bold" font-size="11.00" fill="#000000">SUPPLEMENTS_REFERENCES</text>
<text text-anchor="start" x="768.0219" y="-608.5847" font-family="Helvetica,sans-Serif" font-size="11.00" fill="#000000">[table]</text>
<polygon fill="none" stroke="#000000" points="596.5,-581.4847 596.5,-600.4847 802.5,-600.4847 802.5,-581.4847 596.5,-581.4847"/>
<text text-anchor="start" x="599.5" y="-587.5847" font-family="Helvetica,sans-Serif" font-size="11.00" fill="#000000">...</text>
<polygon fill="#ffffff" stroke="transparent" points="596.5,-562.4847 596.5,-581.4847 681.5,-581.4847 681.5,-562.4847 596.5,-562.4847"/>
<polygon fill="none" stroke="#000000" points="596.5,-562.4847 596.5,-581.4847 681.5,-581.4847 681.5,-562.4847 596.5,-562.4847"/>
<text text-anchor="start" x="599.5" y="-568.5847" font-family="Helvetica,sans-Serif" font-size="11.00" fill="#000000">&lt; 2</text>
<polygon fill="#ffffff" stroke="transparent" points="681.5,-562.4847 681.5,-581.4847 757.5,-581.4847 757.5,-562.4847 681.5,-562.4847"/>
<polygon fill="none" stroke="#000000" points="681.5,-562.4847 681.5,-581.4847 757.5,-581.4847 757.5,-562.4847 681.5,-562.4847"/>
<text text-anchor="start" x="715.9956" y="-568.5847" font-family="Helvetica,sans-Serif" font-size="11.00" fill="#000000">43 rows</text>
<polygon fill="#ffffff" stroke="transparent" points="757.5,-562.4847 757.5,-581.4847 802.5,-581.4847 802.5,-562.4847 757.5,-562.4847"/>
<polygon fill="none" stroke="#000000" points="757.5,-562.4847 757.5,-581.4847 802.5,-581.4847 802.5,-562.4847 757.5,-562.4847"/>
<text text-anchor="start" x="793.3862" y="-568.5847" font-family="Helvetica,sans-Serif" font-size="11.00" fill="#000000"> &#160;</text>
</a>
</g>
</g>
<!-- SUPPLEMENTS_REFERENCES&#45;&gt;SUPPLEMENTS -->
<g id="edge11" class="edge">
<title>SUPPLEMENTS_REFERENCES:w&#45;&gt;SUPPLEMENTS:e</title>
<path fill="none" stroke="#000000" d="M581.9864,-590.4847C496.6806,-590.4847 470.0849,-590.4847 378,-590.4847"/>
<polygon fill="#000000" stroke="#000000" points="588.5,-590.4848 596.5,-594.0847 592.5,-590.4847 596.5,-590.4847 596.5,-590.4847 596.5,-590.4847 592.5,-590.4847 596.5,-586.8847 588.5,-590.4848 588.5,-590.4848"/>
<ellipse fill="none" stroke="#000000" cx="585.3" cy="-590.4848" rx="3.2" ry="3.2"/>
</g>
<!-- VERSIONS_SUPPLEMENTS -->
<g id="node11" class="node">
<title>VERSIONS_SUPPLEMENTS</title>
<g id="a_node11"><a xlink:href="../../tables/VERSIONS_SUPPLEMENTS.html" xlink:title="VERSIONS_SUPPLEMENTS" target="_top">
<polygon fill="#ffffff" stroke="transparent" points="606,-726.9847 606,-787.9847 793,-787.9847 793,-726.9847 606,-726.9847"/>
<polygon fill="#f5f5f5" stroke="transparent" points="606.5,-764.4847 606.5,-787.4847 793.5,-787.4847 793.5,-764.4847 606.5,-764.4847"/>
<polygon fill="none" stroke="#000000" points="606.5,-764.4847 606.5,-787.4847 793.5,-787.4847 793.5,-764.4847 606.5,-764.4847"/>
<text text-anchor="start" x="611.076" y="-773.5847" font-family="Helvetica,sans-Serif" font-weight="bold" font-size="11.00" fill="#000000">VERSIONS_SUPPLEMENTS</text>
<text text-anchor="start" x="759.0219" y="-772.5847" font-family="Helvetica,sans-Serif" font-size="11.00" fill="#000000">[table]</text>
<polygon fill="none" stroke="#000000" points="606.5,-745.4847 606.5,-764.4847 793.5,-764.4847 793.5,-745.4847 606.5,-745.4847"/>
<text text-anchor="start" x="609.5" y="-751.5847" font-family="Helvetica,sans-Serif" font-size="11.00" fill="#000000">...</text>
<polygon fill="#ffffff" stroke="transparent" points="606.5,-726.4847 606.5,-745.4847 679.5,-745.4847 679.5,-726.4847 606.5,-726.4847"/>
<polygon fill="none" stroke="#000000" points="606.5,-726.4847 606.5,-745.4847 679.5,-745.4847 679.5,-726.4847 606.5,-726.4847"/>
<text text-anchor="start" x="609.5" y="-732.5847" font-family="Helvetica,sans-Serif" font-size="11.00" fill="#000000">&lt; 2</text>
<polygon fill="#ffffff" stroke="transparent" points="679.5,-726.4847 679.5,-745.4847 755.5,-745.4847 755.5,-726.4847 679.5,-726.4847"/>
<polygon fill="none" stroke="#000000" points="679.5,-726.4847 679.5,-745.4847 755.5,-745.4847 755.5,-726.4847 679.5,-726.4847"/>
<text text-anchor="start" x="707.8807" y="-732.5847" font-family="Helvetica,sans-Serif" font-size="11.00" fill="#000000">190 rows</text>
<polygon fill="#ffffff" stroke="transparent" points="755.5,-726.4847 755.5,-745.4847 793.5,-745.4847 793.5,-726.4847 755.5,-726.4847"/>
<polygon fill="none" stroke="#000000" points="755.5,-726.4847 755.5,-745.4847 793.5,-745.4847 793.5,-726.4847 755.5,-726.4847"/>
<text text-anchor="start" x="784.3862" y="-732.5847" font-family="Helvetica,sans-Serif" font-size="11.00" fill="#000000"> &#160;</text>
</a>
</g>
</g>
<!-- VERSIONS_SUPPLEMENTS&#45;&gt;SUPPLEMENTS -->
<g id="edge12" class="edge">
<title>VERSIONS_SUPPLEMENTS:w&#45;&gt;SUPPLEMENTS:e</title>
<path fill="none" stroke="#000000" d="M592.0136,-754.6572C516.8178,-756.4041 478.7501,-769.7501 419,-716.4847 375.0413,-677.2969 436.8901,-590.4847 378,-590.4847"/>
<polygon fill="#000000" stroke="#000000" points="598.5006,-754.58 606.5429,-758.0845 602.5003,-754.5324 606.5,-754.4847 606.5,-754.4847 606.5,-754.4847 602.5003,-754.5324 606.4571,-750.885 598.5006,-754.58 598.5006,-754.58"/>
<ellipse fill="none" stroke="#000000" cx="595.3008" cy="-754.6182" rx="3.2" ry="3.2"/>
</g>
</g>
</svg>
