<?xml version="1.0" encoding="UTF-8" standalone="no"?>
<!DOCTYPE svg PUBLIC "-//W3C//DTD SVG 1.1//EN"
 "http://www.w3.org/Graphics/SVG/1.1/DTD/svg11.dtd">
<!-- Generated by graphviz version 2.40.1 (20161225.0304)
 -->
<!-- Title: twoDegreesRelationshipsDiagram Pages: 1 -->
<svg width="708pt" height="515pt"
 viewBox="0.00 0.00 708.00 515.20" xmlns="http://www.w3.org/2000/svg" xmlns:xlink="http://www.w3.org/1999/xlink">
<g id="graph0" class="graph" transform="scale(1 1) rotate(0) translate(4 511.2)">
<title>twoDegreesRelationshipsDiagram</title>
<polygon fill="#ffffff" stroke="transparent" points="-4,4 -4,-511.2 704,-511.2 704,4 -4,4"/>
<text text-anchor="middle" x="72.4936" y="-7.3" font-family="Helvetica,sans-Serif" font-size="11.00" fill="#000000">Generated by SchemaSpy</text>
<!-- CLONE_FORMS -->
<g id="node1" class="node">
<title>CLONE_FORMS</title>
<g id="a_node1"><a xlink:href="../../tables/CLONE_FORMS.html" xlink:title="CLONE_FORMS" target="_top">
<polygon fill="#ffffff" stroke="transparent" points="268.5,-404.2 268.5,-465.2 394.5,-465.2 394.5,-404.2 268.5,-404.2"/>
<polygon fill="#f5f5f5" stroke="transparent" points="268.5,-441.7 268.5,-464.7 394.5,-464.7 394.5,-441.7 268.5,-441.7"/>
<polygon fill="none" stroke="#000000" points="268.5,-441.7 268.5,-464.7 394.5,-464.7 394.5,-441.7 268.5,-441.7"/>
<text text-anchor="start" x="273.14" y="-450.8" font-family="Helvetica,sans-Serif" font-weight="bold" font-size="11.00" fill="#000000">CLONE_FORMS</text>
<text text-anchor="start" x="360.0219" y="-449.8" font-family="Helvetica,sans-Serif" font-size="11.00" fill="#000000">[table]</text>
<polygon fill="none" stroke="#000000" points="268.5,-422.7 268.5,-441.7 394.5,-441.7 394.5,-422.7 268.5,-422.7"/>
<text text-anchor="start" x="271.5" y="-428.8" font-family="Helvetica,sans-Serif" font-size="11.00" fill="#000000">...</text>
<polygon fill="#ffffff" stroke="transparent" points="268.5,-403.7 268.5,-422.7 303.5,-422.7 303.5,-403.7 268.5,-403.7"/>
<polygon fill="none" stroke="#000000" points="268.5,-403.7 268.5,-422.7 303.5,-422.7 303.5,-403.7 268.5,-403.7"/>
<text text-anchor="start" x="271.5" y="-409.8" font-family="Helvetica,sans-Serif" font-size="11.00" fill="#000000">&lt; 4</text>
<polygon fill="#ffffff" stroke="transparent" points="303.5,-403.7 303.5,-422.7 360.5,-422.7 360.5,-403.7 303.5,-403.7"/>
<polygon fill="none" stroke="#000000" points="303.5,-403.7 303.5,-422.7 360.5,-422.7 360.5,-403.7 303.5,-403.7"/>
<text text-anchor="start" x="312.8807" y="-409.8" font-family="Helvetica,sans-Serif" font-size="11.00" fill="#000000">467 rows</text>
<polygon fill="#ffffff" stroke="transparent" points="360.5,-403.7 360.5,-422.7 394.5,-422.7 394.5,-403.7 360.5,-403.7"/>
<polygon fill="none" stroke="#000000" points="360.5,-403.7 360.5,-422.7 394.5,-422.7 394.5,-403.7 360.5,-403.7"/>
<text text-anchor="start" x="369.7904" y="-409.8" font-family="Helvetica,sans-Serif" font-size="11.00" fill="#000000">14 &gt;</text>
</a>
</g>
</g>
<!-- TARGET_FORMS -->
<g id="node2" class="node">
<title>TARGET_FORMS</title>
<g id="a_node2"><a xlink:href="../../tables/TARGET_FORMS.html" xlink:title="TARGET_FORMS" target="_top">
<polygon fill="#ffffff" stroke="transparent" points="8,-267.2 8,-328.2 141,-328.2 141,-267.2 8,-267.2"/>
<polygon fill="#f5f5f5" stroke="transparent" points="8.5,-304.7 8.5,-327.7 141.5,-327.7 141.5,-304.7 8.5,-304.7"/>
<polygon fill="none" stroke="#000000" points="8.5,-304.7 8.5,-327.7 141.5,-327.7 141.5,-304.7 8.5,-304.7"/>
<text text-anchor="start" x="13.2801" y="-313.8" font-family="Helvetica,sans-Serif" font-weight="bold" font-size="11.00" fill="#000000">TARGET_FORMS</text>
<text text-anchor="start" x="107.0219" y="-312.8" font-family="Helvetica,sans-Serif" font-size="11.00" fill="#000000">[table]</text>
<polygon fill="none" stroke="#000000" points="8.5,-285.7 8.5,-304.7 141.5,-304.7 141.5,-285.7 8.5,-285.7"/>
<text text-anchor="start" x="11.5" y="-291.8" font-family="Helvetica,sans-Serif" font-size="11.00" fill="#000000">...</text>
<polygon fill="#ffffff" stroke="transparent" points="8.5,-266.7 8.5,-285.7 46.5,-285.7 46.5,-266.7 8.5,-266.7"/>
<polygon fill="none" stroke="#000000" points="8.5,-266.7 8.5,-285.7 46.5,-285.7 46.5,-266.7 8.5,-266.7"/>
<text text-anchor="start" x="11.5" y="-272.8" font-family="Helvetica,sans-Serif" font-size="11.00" fill="#000000">&lt; 5</text>
<polygon fill="#ffffff" stroke="transparent" points="46.5,-266.7 46.5,-285.7 105.5,-285.7 105.5,-266.7 46.5,-266.7"/>
<polygon fill="none" stroke="#000000" points="46.5,-266.7 46.5,-285.7 105.5,-285.7 105.5,-266.7 46.5,-266.7"/>
<text text-anchor="start" x="57.8807" y="-272.8" font-family="Helvetica,sans-Serif" font-size="11.00" fill="#000000">541 rows</text>
<polygon fill="#ffffff" stroke="transparent" points="105.5,-266.7 105.5,-285.7 141.5,-285.7 141.5,-266.7 105.5,-266.7"/>
<polygon fill="none" stroke="#000000" points="105.5,-266.7 105.5,-285.7 141.5,-285.7 141.5,-266.7 105.5,-266.7"/>
<text text-anchor="start" x="116.7904" y="-272.8" font-family="Helvetica,sans-Serif" font-size="11.00" fill="#000000">18 &gt;</text>
</a>
</g>
</g>
<!-- CLONE_FORMS&#45;&gt;TARGET_FORMS -->
<g id="edge1" class="edge">
<title>CLONE_FORMS:w&#45;&gt;TARGET_FORMS:e</title>
<path fill="none" stroke="#000000" d="M253.9294,-431.3005C222.4889,-429.3715 207.6456,-420.0109 182,-393.7 148.8177,-359.6569 189.0395,-294.7 141.5,-294.7"/>
<polygon fill="#000000" stroke="#000000" points="260.503,-431.4807 268.4013,-435.2986 264.5015,-431.5903 268.5,-431.7 268.5,-431.7 268.5,-431.7 264.5015,-431.5903 268.5987,-428.1014 260.503,-431.4807 260.503,-431.4807"/>
<ellipse fill="none" stroke="#000000" cx="257.3042" cy="-431.393" rx="3.2" ry="3.2"/>
</g>
<!-- CLONE_FORMS_TAGS -->
<g id="node3" class="node">
<title>CLONE_FORMS_TAGS</title>
<g id="a_node3"><a xlink:href="../../tables/CLONE_FORMS_TAGS.html" xlink:title="CLONE_FORMS_TAGS" target="_top">
<polygon fill="#ffffff" stroke="transparent" points="526,-376.2 526,-503.2 688,-503.2 688,-376.2 526,-376.2"/>
<polygon fill="#f5f5f5" stroke="transparent" points="526,-479.7 526,-502.7 688,-502.7 688,-479.7 526,-479.7"/>
<polygon fill="none" stroke="#000000" points="526,-479.7 526,-502.7 688,-502.7 688,-479.7 526,-479.7"/>
<text text-anchor="start" x="530.6083" y="-488.8" font-family="Helvetica,sans-Serif" font-weight="bold" font-size="11.00" fill="#000000">CLONE_FORMS_TAGS</text>
<text text-anchor="start" x="653.5219" y="-487.8" font-family="Helvetica,sans-Serif" font-size="11.00" fill="#000000">[table]</text>
<polygon fill="none" stroke="#000000" points="526,-457.7 526,-479.7 688,-479.7 688,-457.7 526,-457.7"/>
<image xlink:href="../../images/primaryKeys.png" width="11px" height="12px" preserveAspectRatio="xMinYMin meet" x="531" y="-474.7"/>
<text text-anchor="start" x="546" y="-464.8" font-family="Helvetica,sans-Serif" font-size="11.00" fill="#000000">ID</text>
<polygon fill="none" stroke="#000000" points="526,-435.7 526,-457.7 688,-457.7 688,-435.7 526,-435.7"/>
<image xlink:href="../../images/foreignKeys.png" width="11px" height="12px" preserveAspectRatio="xMinYMin meet" x="531" y="-452.7"/>
<text text-anchor="start" x="546" y="-442.8" font-family="Helvetica,sans-Serif" font-size="11.00" fill="#000000">TAG_ID</text>
<polygon fill="none" stroke="#000000" points="526,-413.7 526,-435.7 688,-435.7 688,-413.7 526,-413.7"/>
<image xlink:href="../../images/foreignKeys.png" width="11px" height="12px" preserveAspectRatio="xMinYMin meet" x="531" y="-430.7"/>
<text text-anchor="start" x="546" y="-420.8" font-family="Helvetica,sans-Serif" font-size="11.00" fill="#000000">CLONE_FORM_ID</text>
<polygon fill="none" stroke="#000000" points="526,-394.7 526,-413.7 688,-413.7 688,-394.7 526,-394.7"/>
<text text-anchor="start" x="529" y="-400.8" font-family="Helvetica,sans-Serif" font-size="11.00" fill="#000000">...</text>
<polygon fill="#ffffff" stroke="transparent" points="526,-375.7 526,-394.7 592,-394.7 592,-375.7 526,-375.7"/>
<polygon fill="none" stroke="#000000" points="526,-375.7 526,-394.7 592,-394.7 592,-375.7 526,-375.7"/>
<text text-anchor="start" x="529" y="-381.8" font-family="Helvetica,sans-Serif" font-size="11.00" fill="#000000">&lt; 2</text>
<polygon fill="#ffffff" stroke="transparent" points="592,-375.7 592,-394.7 653,-394.7 653,-375.7 592,-375.7"/>
<polygon fill="none" stroke="#000000" points="592,-375.7 592,-394.7 653,-394.7 653,-375.7 592,-375.7"/>
<text text-anchor="start" x="617.6105" y="-381.8" font-family="Helvetica,sans-Serif" font-size="11.00" fill="#000000">0 rows</text>
<polygon fill="#ffffff" stroke="transparent" points="653,-375.7 653,-394.7 688,-394.7 688,-375.7 653,-375.7"/>
<polygon fill="none" stroke="#000000" points="653,-375.7 653,-394.7 688,-394.7 688,-375.7 653,-375.7"/>
<text text-anchor="start" x="678.8862" y="-381.8" font-family="Helvetica,sans-Serif" font-size="11.00" fill="#000000"> &#160;</text>
</a>
</g>
</g>
<!-- CLONE_FORMS_TAGS&#45;&gt;CLONE_FORMS -->
<g id="edge2" class="edge">
<title>CLONE_FORMS_TAGS:w&#45;&gt;CLONE_FORMS:e</title>
<path fill="none" stroke="#000000" d="M511.5297,-424.8527C464.593,-425.8764 447.8832,-431.7 394.5,-431.7"/>
<polygon fill="#000000" stroke="#000000" points="518.0004,-424.7845 526.038,-428.2998 522.0002,-424.7422 526,-424.7 526,-424.7 526,-424.7 522.0002,-424.7422 525.962,-421.1002 518.0004,-424.7845 518.0004,-424.7845"/>
<ellipse fill="none" stroke="#000000" cx="514.8006" cy="-424.8183" rx="3.2" ry="3.2"/>
</g>
<!-- TAGS -->
<g id="node4" class="node">
<title>TAGS</title>
<g id="a_node4"><a xlink:href="../../tables/TAGS.html" xlink:title="TAGS" target="_top">
<polygon fill="#ffffff" stroke="transparent" points="190,-182.7 190,-382.7 473,-382.7 473,-182.7 190,-182.7"/>
<polygon fill="#f5f5f5" stroke="transparent" points="192.5,-357.7 192.5,-380.7 471.5,-380.7 471.5,-357.7 192.5,-357.7"/>
<polygon fill="none" stroke="#000000" points="192.5,-357.7 192.5,-380.7 471.5,-380.7 471.5,-357.7 192.5,-357.7"/>
<text text-anchor="start" x="197.5" y="-366.8" font-family="Helvetica,sans-Serif" font-weight="bold" font-size="11.00" fill="#000000">TAGS</text>
<text text-anchor="start" x="436.5437" y="-365.8" font-family="Helvetica,sans-Serif" font-size="11.00" fill="#000000">[table]</text>
<polygon fill="none" stroke="#000000" points="192.5,-335.7 192.5,-357.7 300.5,-357.7 300.5,-335.7 192.5,-335.7"/>
<image xlink:href="../../images/primaryKeys.png" width="11px" height="12px" preserveAspectRatio="xMinYMin meet" x="197.5" y="-352.7"/>
<text text-anchor="start" x="212.5" y="-342.8" font-family="Helvetica,sans-Serif" font-size="11.00" fill="#000000">ID</text>
<polygon fill="none" stroke="#000000" points="300.5,-335.7 300.5,-357.7 471.5,-357.7 471.5,-335.7 300.5,-335.7"/>
<text text-anchor="start" x="303.5" y="-343.4" font-family="Helvetica,sans-Serif" font-size="11.00" fill="#000000">number[19]</text>
<polygon fill="none" stroke="#000000" points="192.5,-313.7 192.5,-335.7 300.5,-335.7 300.5,-313.7 192.5,-313.7"/>
<text text-anchor="start" x="212.5" y="-320.8" font-family="Helvetica,sans-Serif" font-size="11.00" fill="#000000">CREATED_AT</text>
<polygon fill="none" stroke="#000000" points="300.5,-313.7 300.5,-335.7 471.5,-335.7 471.5,-313.7 300.5,-313.7"/>
<text text-anchor="start" x="303.4896" y="-321.4" font-family="Helvetica,sans-Serif" font-size="11.00" fill="#000000">timestamp(6) with time zone[13,6]</text>
<polygon fill="none" stroke="#000000" points="192.5,-291.7 192.5,-313.7 300.5,-313.7 300.5,-291.7 192.5,-291.7"/>
<text text-anchor="start" x="212.5" y="-298.8" font-family="Helvetica,sans-Serif" font-size="11.00" fill="#000000">CREATED_BY</text>
<polygon fill="none" stroke="#000000" points="300.5,-291.7 300.5,-313.7 471.5,-313.7 471.5,-291.7 300.5,-291.7"/>
<text text-anchor="start" x="303.5" y="-299.4" font-family="Helvetica,sans-Serif" font-size="11.00" fill="#000000">number[19]</text>
<polygon fill="none" stroke="#000000" points="192.5,-269.7 192.5,-291.7 300.5,-291.7 300.5,-269.7 192.5,-269.7"/>
<text text-anchor="start" x="212.5" y="-276.8" font-family="Helvetica,sans-Serif" font-size="11.00" fill="#000000">UPDATED_AT</text>
<polygon fill="none" stroke="#000000" points="300.5,-269.7 300.5,-291.7 471.5,-291.7 471.5,-269.7 300.5,-269.7"/>
<text text-anchor="start" x="303.4896" y="-277.4" font-family="Helvetica,sans-Serif" font-size="11.00" fill="#000000">timestamp(6) with time zone[13,6]</text>
<polygon fill="none" stroke="#000000" points="192.5,-247.7 192.5,-269.7 300.5,-269.7 300.5,-247.7 192.5,-247.7"/>
<text text-anchor="start" x="212.5" y="-254.8" font-family="Helvetica,sans-Serif" font-size="11.00" fill="#000000">UPDATED_BY</text>
<polygon fill="none" stroke="#000000" points="300.5,-247.7 300.5,-269.7 471.5,-269.7 471.5,-247.7 300.5,-247.7"/>
<text text-anchor="start" x="303.5" y="-255.4" font-family="Helvetica,sans-Serif" font-size="11.00" fill="#000000">number[19]</text>
<polygon fill="none" stroke="#000000" points="192.5,-225.7 192.5,-247.7 300.5,-247.7 300.5,-225.7 192.5,-225.7"/>
<image xlink:href="../../images/primaryKeys.png" width="11px" height="12px" preserveAspectRatio="xMinYMin meet" x="197.5" y="-242.7"/>
<text text-anchor="start" x="212.5" y="-232.8" font-family="Helvetica,sans-Serif" font-size="11.00" fill="#000000">COLOR</text>
<polygon fill="none" stroke="#000000" points="300.5,-225.7 300.5,-247.7 471.5,-247.7 471.5,-225.7 300.5,-225.7"/>
<text text-anchor="start" x="303.5" y="-233.4" font-family="Helvetica,sans-Serif" font-size="11.00" fill="#000000">varchar2[255]</text>
<polygon fill="none" stroke="#000000" points="192.5,-203.7 192.5,-225.7 300.5,-225.7 300.5,-203.7 192.5,-203.7"/>
<image xlink:href="../../images/primaryKeys.png" width="11px" height="12px" preserveAspectRatio="xMinYMin meet" x="197.5" y="-220.7"/>
<text text-anchor="start" x="212.5" y="-210.8" font-family="Helvetica,sans-Serif" font-size="11.00" fill="#000000">TITLE</text>
<polygon fill="none" stroke="#000000" points="300.5,-203.7 300.5,-225.7 471.5,-225.7 471.5,-203.7 300.5,-203.7"/>
<text text-anchor="start" x="303.5" y="-211.4" font-family="Helvetica,sans-Serif" font-size="11.00" fill="#000000">varchar2[255]</text>
<polygon fill="#ffffff" stroke="transparent" points="192.5,-184.7 192.5,-203.7 234.5,-203.7 234.5,-184.7 192.5,-184.7"/>
<polygon fill="none" stroke="#000000" points="192.5,-184.7 192.5,-203.7 234.5,-203.7 234.5,-184.7 192.5,-184.7"/>
<text text-anchor="start" x="195.5" y="-190.8" font-family="Helvetica,sans-Serif" font-size="11.00" fill="#000000">&lt; 0</text>
<polygon fill="#ffffff" stroke="transparent" points="234.5,-184.7 234.5,-203.7 300.5,-203.7 300.5,-184.7 234.5,-184.7"/>
<polygon fill="none" stroke="#000000" points="234.5,-184.7 234.5,-203.7 300.5,-203.7 300.5,-184.7 234.5,-184.7"/>
<text text-anchor="start" x="258.9956" y="-190.8" font-family="Helvetica,sans-Serif" font-size="11.00" fill="#000000">21 rows</text>
<polygon fill="#ffffff" stroke="transparent" points="300.5,-184.7 300.5,-203.7 471.5,-203.7 471.5,-184.7 300.5,-184.7"/>
<polygon fill="none" stroke="#000000" points="300.5,-184.7 300.5,-203.7 471.5,-203.7 471.5,-184.7 300.5,-184.7"/>
<text text-anchor="start" x="452.9053" y="-190.8" font-family="Helvetica,sans-Serif" font-size="11.00" fill="#000000">3 &gt;</text>
<polygon fill="none" stroke="#000000" stroke-width="2" points="191,-183.7 191,-381.7 472,-381.7 472,-183.7 191,-183.7"/>
</a>
</g>
</g>
<!-- CLONE_FORMS_TAGS&#45;&gt;TAGS -->
<g id="edge3" class="edge">
<title>CLONE_FORMS_TAGS:w&#45;&gt;TAGS:e</title>
<path fill="none" stroke="#000000" d="M511.9025,-442.902C484.9997,-424.6358 516.1848,-346.7 471.5,-346.7"/>
<polygon fill="#000000" stroke="#000000" points="518.2754,-444.6189 525.0635,-450.1761 522.1377,-445.6594 526,-446.7 526,-446.7 526,-446.7 522.1377,-445.6594 526.9365,-443.2239 518.2754,-444.6189 518.2754,-444.6189"/>
<ellipse fill="none" stroke="#000000" cx="515.1856" cy="-443.7864" rx="3.2" ry="3.2"/>
</g>
<!-- REFERENCES_TAGS -->
<g id="node5" class="node">
<title>REFERENCES_TAGS</title>
<g id="a_node5"><a xlink:href="../../tables/REFERENCES_TAGS.html" xlink:title="REFERENCES_TAGS" target="_top">
<polygon fill="#ffffff" stroke="transparent" points="530,-38.2 530,-165.2 684,-165.2 684,-38.2 530,-38.2"/>
<polygon fill="#f5f5f5" stroke="transparent" points="530,-141.7 530,-164.7 684,-164.7 684,-141.7 530,-141.7"/>
<polygon fill="none" stroke="#000000" points="530,-141.7 530,-164.7 684,-164.7 684,-141.7 530,-141.7"/>
<text text-anchor="start" x="534.8868" y="-150.8" font-family="Helvetica,sans-Serif" font-weight="bold" font-size="11.00" fill="#000000">REFERENCES_TAGS</text>
<text text-anchor="start" x="649.5219" y="-149.8" font-family="Helvetica,sans-Serif" font-size="11.00" fill="#000000">[table]</text>
<polygon fill="none" stroke="#000000" points="530,-119.7 530,-141.7 684,-141.7 684,-119.7 530,-119.7"/>
<image xlink:href="../../images/primaryKeys.png" width="11px" height="12px" preserveAspectRatio="xMinYMin meet" x="535" y="-136.7"/>
<text text-anchor="start" x="553" y="-126.8" font-family="Helvetica,sans-Serif" font-size="11.00" fill="#000000">ID</text>
<polygon fill="none" stroke="#000000" points="530,-97.7 530,-119.7 684,-119.7 684,-97.7 530,-97.7"/>
<image xlink:href="../../images/foreignKeys.png" width="11px" height="12px" preserveAspectRatio="xMinYMin meet" x="535" y="-114.7"/>
<text text-anchor="start" x="553" y="-104.8" font-family="Helvetica,sans-Serif" font-size="11.00" fill="#000000">REFERENCE_ID</text>
<polygon fill="none" stroke="#000000" points="530,-75.7 530,-97.7 684,-97.7 684,-75.7 530,-75.7"/>
<image xlink:href="../../images/foreignKeys.png" width="11px" height="12px" preserveAspectRatio="xMinYMin meet" x="535" y="-92.7"/>
<text text-anchor="start" x="553" y="-82.8" font-family="Helvetica,sans-Serif" font-size="11.00" fill="#000000">TAG_ID</text>
<polygon fill="none" stroke="#000000" points="530,-56.7 530,-75.7 684,-75.7 684,-56.7 530,-56.7"/>
<text text-anchor="start" x="533" y="-62.8" font-family="Helvetica,sans-Serif" font-size="11.00" fill="#000000">...</text>
<polygon fill="#ffffff" stroke="transparent" points="530,-37.7 530,-56.7 589,-56.7 589,-37.7 530,-37.7"/>
<polygon fill="none" stroke="#000000" points="530,-37.7 530,-56.7 589,-56.7 589,-37.7 530,-37.7"/>
<text text-anchor="start" x="533" y="-43.8" font-family="Helvetica,sans-Serif" font-size="11.00" fill="#000000">&lt; 2</text>
<polygon fill="#ffffff" stroke="transparent" points="589,-37.7 589,-56.7 652,-56.7 652,-37.7 589,-37.7"/>
<polygon fill="none" stroke="#000000" points="589,-37.7 589,-56.7 652,-56.7 652,-37.7 589,-37.7"/>
<text text-anchor="start" x="610.4956" y="-43.8" font-family="Helvetica,sans-Serif" font-size="11.00" fill="#000000">17 rows</text>
<polygon fill="#ffffff" stroke="transparent" points="652,-37.7 652,-56.7 684,-56.7 684,-37.7 652,-37.7"/>
<polygon fill="none" stroke="#000000" points="652,-37.7 652,-56.7 684,-56.7 684,-37.7 652,-37.7"/>
<text text-anchor="start" x="674.8862" y="-43.8" font-family="Helvetica,sans-Serif" font-size="11.00" fill="#000000"> &#160;</text>
</a>
</g>
</g>
<!-- REFERENCES_TAGS&#45;&gt;TAGS -->
<g id="edge5" class="edge">
<title>REFERENCES_TAGS:w&#45;&gt;TAGS:e</title>
<path fill="none" stroke="#000000" d="M516.7506,-92.619C480.5871,-131.3201 525.4015,-346.7 471.5,-346.7"/>
<polygon fill="#000000" stroke="#000000" points="522.6957,-89.9631 531.4684,-89.9869 526.3479,-88.3316 530,-86.7 530,-86.7 530,-86.7 526.3479,-88.3316 528.5316,-83.4131 522.6957,-89.9631 522.6957,-89.9631"/>
<ellipse fill="none" stroke="#000000" cx="519.774" cy="-91.2684" rx="3.2" ry="3.2"/>
</g>
<!-- REFERENCES -->
<g id="node6" class="node">
<title>REFERENCES</title>
<g id="a_node6"><a xlink:href="../../tables/REFERENCES.html" xlink:title="REFERENCES" target="_top">
<polygon fill="#ffffff" stroke="transparent" points="272.5,-73.2 272.5,-134.2 390.5,-134.2 390.5,-73.2 272.5,-73.2"/>
<polygon fill="#f5f5f5" stroke="transparent" points="272.5,-110.7 272.5,-133.7 390.5,-133.7 390.5,-110.7 272.5,-110.7"/>
<polygon fill="none" stroke="#000000" points="272.5,-110.7 272.5,-133.7 390.5,-133.7 390.5,-110.7 272.5,-110.7"/>
<text text-anchor="start" x="277.4185" y="-119.8" font-family="Helvetica,sans-Serif" font-weight="bold" font-size="11.00" fill="#000000">REFERENCES</text>
<text text-anchor="start" x="356.0219" y="-118.8" font-family="Helvetica,sans-Serif" font-size="11.00" fill="#000000">[table]</text>
<polygon fill="none" stroke="#000000" points="272.5,-91.7 272.5,-110.7 390.5,-110.7 390.5,-91.7 272.5,-91.7"/>
<text text-anchor="start" x="275.5" y="-97.8" font-family="Helvetica,sans-Serif" font-size="11.00" fill="#000000">...</text>
<polygon fill="#ffffff" stroke="transparent" points="272.5,-72.7 272.5,-91.7 298.5,-91.7 298.5,-72.7 272.5,-72.7"/>
<polygon fill="none" stroke="#000000" points="272.5,-72.7 272.5,-91.7 298.5,-91.7 298.5,-72.7 272.5,-72.7"/>
<text text-anchor="start" x="275.5" y="-78.8" font-family="Helvetica,sans-Serif" font-size="11.00" fill="#000000">&lt; 1</text>
<polygon fill="#ffffff" stroke="transparent" points="298.5,-72.7 298.5,-91.7 360.5,-91.7 360.5,-72.7 298.5,-72.7"/>
<polygon fill="none" stroke="#000000" points="298.5,-72.7 298.5,-91.7 360.5,-91.7 360.5,-72.7 298.5,-72.7"/>
<text text-anchor="start" x="303.7089" y="-78.8" font-family="Helvetica,sans-Serif" font-size="11.00" fill="#000000">2,900 rows</text>
<polygon fill="#ffffff" stroke="transparent" points="360.5,-72.7 360.5,-91.7 390.5,-91.7 390.5,-72.7 360.5,-72.7"/>
<polygon fill="none" stroke="#000000" points="360.5,-72.7 360.5,-91.7 390.5,-91.7 390.5,-72.7 360.5,-72.7"/>
<text text-anchor="start" x="365.7904" y="-78.8" font-family="Helvetica,sans-Serif" font-size="11.00" fill="#000000">20 &gt;</text>
</a>
</g>
</g>
<!-- REFERENCES_TAGS&#45;&gt;REFERENCES -->
<g id="edge4" class="edge">
<title>REFERENCES_TAGS:w&#45;&gt;REFERENCES:e</title>
<path fill="none" stroke="#000000" d="M515.2882,-108.5402C464.9987,-107.4127 447.3863,-100.7 390.5,-100.7"/>
<polygon fill="#000000" stroke="#000000" points="522.0005,-108.6131 529.9609,-112.2998 526.0002,-108.6565 530,-108.7 530,-108.7 530,-108.7 526.0002,-108.6565 530.0391,-105.1002 522.0005,-108.6131 522.0005,-108.6131"/>
<ellipse fill="none" stroke="#000000" cx="518.8007" cy="-108.5783" rx="3.2" ry="3.2"/>
</g>
<!-- TARGET_FORMS_TAGS -->
<g id="node7" class="node">
<title>TARGET_FORMS_TAGS</title>
<g id="a_node7"><a xlink:href="../../tables/TARGET_FORMS_TAGS.html" xlink:title="TARGET_FORMS_TAGS" target="_top">
<polygon fill="#ffffff" stroke="transparent" points="522,-214.2 522,-341.2 692,-341.2 692,-214.2 522,-214.2"/>
<polygon fill="#f5f5f5" stroke="transparent" points="522,-317.7 522,-340.7 692,-340.7 692,-317.7 522,-317.7"/>
<polygon fill="none" stroke="#000000" points="522,-317.7 522,-340.7 692,-340.7 692,-317.7 522,-317.7"/>
<text text-anchor="start" x="527" y="-326.8" font-family="Helvetica,sans-Serif" font-weight="bold" font-size="11.00" fill="#000000">TARGET_FORMS_TAGS</text>
<text text-anchor="start" x="657.5219" y="-325.8" font-family="Helvetica,sans-Serif" font-size="11.00" fill="#000000">[table]</text>
<polygon fill="none" stroke="#000000" points="522,-295.7 522,-317.7 692,-317.7 692,-295.7 522,-295.7"/>
<image xlink:href="../../images/primaryKeys.png" width="11px" height="12px" preserveAspectRatio="xMinYMin meet" x="527" y="-312.7"/>
<text text-anchor="start" x="542" y="-302.8" font-family="Helvetica,sans-Serif" font-size="11.00" fill="#000000">ID</text>
<polygon fill="none" stroke="#000000" points="522,-273.7 522,-295.7 692,-295.7 692,-273.7 522,-273.7"/>
<image xlink:href="../../images/foreignKeys.png" width="11px" height="12px" preserveAspectRatio="xMinYMin meet" x="527" y="-290.7"/>
<text text-anchor="start" x="542" y="-280.8" font-family="Helvetica,sans-Serif" font-size="11.00" fill="#000000">TAG_ID</text>
<polygon fill="none" stroke="#000000" points="522,-251.7 522,-273.7 692,-273.7 692,-251.7 522,-251.7"/>
<image xlink:href="../../images/foreignKeys.png" width="11px" height="12px" preserveAspectRatio="xMinYMin meet" x="527" y="-268.7"/>
<text text-anchor="start" x="542" y="-258.8" font-family="Helvetica,sans-Serif" font-size="11.00" fill="#000000">TARGET_FORM_ID</text>
<polygon fill="none" stroke="#000000" points="522,-232.7 522,-251.7 692,-251.7 692,-232.7 522,-232.7"/>
<text text-anchor="start" x="525" y="-238.8" font-family="Helvetica,sans-Serif" font-size="11.00" fill="#000000">...</text>
<polygon fill="#ffffff" stroke="transparent" points="522,-213.7 522,-232.7 592,-232.7 592,-213.7 522,-213.7"/>
<polygon fill="none" stroke="#000000" points="522,-213.7 522,-232.7 592,-232.7 592,-213.7 522,-213.7"/>
<text text-anchor="start" x="525" y="-219.8" font-family="Helvetica,sans-Serif" font-size="11.00" fill="#000000">&lt; 2</text>
<polygon fill="#ffffff" stroke="transparent" points="592,-213.7 592,-232.7 655,-232.7 655,-213.7 592,-213.7"/>
<polygon fill="none" stroke="#000000" points="592,-213.7 592,-232.7 655,-232.7 655,-213.7 592,-213.7"/>
<text text-anchor="start" x="619.6105" y="-219.8" font-family="Helvetica,sans-Serif" font-size="11.00" fill="#000000">8 rows</text>
<polygon fill="#ffffff" stroke="transparent" points="655,-213.7 655,-232.7 692,-232.7 692,-213.7 655,-213.7"/>
<polygon fill="none" stroke="#000000" points="655,-213.7 655,-232.7 692,-232.7 692,-213.7 655,-213.7"/>
<text text-anchor="start" x="682.8862" y="-219.8" font-family="Helvetica,sans-Serif" font-size="11.00" fill="#000000"> &#160;</text>
</a>
</g>
</g>
<!-- TARGET_FORMS_TAGS&#45;&gt;TARGET_FORMS -->
<g id="edge7" class="edge">
<title>TARGET_FORMS_TAGS:w&#45;&gt;TARGET_FORMS:e</title>
<path fill="none" stroke="#000000" d="M507.9854,-259.0737C487.7523,-244.9152 512.7679,-193.137 481,-172.7 453.0601,-154.7257 208.9393,-153.2581 182,-172.7 135.6728,-206.1341 198.6319,-294.7 141.5,-294.7"/>
<polygon fill="#000000" stroke="#000000" points="514.2551,-260.6959 521.0982,-266.1852 518.1275,-261.698 522,-262.7 522,-262.7 522,-262.7 518.1275,-261.698 522.9018,-259.2148 514.2551,-260.6959 514.2551,-260.6959"/>
<ellipse fill="none" stroke="#000000" cx="511.1571" cy="-259.8943" rx="3.2" ry="3.2"/>
</g>
<!-- TARGET_FORMS_TAGS&#45;&gt;TAGS -->
<g id="edge6" class="edge">
<title>TARGET_FORMS_TAGS:w&#45;&gt;TAGS:e</title>
<path fill="none" stroke="#000000" d="M508.0784,-289.565C491.8767,-304.181 500.9312,-346.7 471.5,-346.7"/>
<polygon fill="#000000" stroke="#000000" points="514.4479,-287.3392 523.1876,-288.0985 518.2239,-286.0196 522,-284.7 522,-284.7 522,-284.7 518.2239,-286.0196 520.8124,-281.3015 514.4479,-287.3392 514.4479,-287.3392"/>
<ellipse fill="none" stroke="#000000" cx="511.427" cy="-288.3949" rx="3.2" ry="3.2"/>
</g>
</g>
</svg>
