<?xml version="1.0" encoding="UTF-8" standalone="no"?>
<!DOCTYPE svg PUBLIC "-//W3C//DTD SVG 1.1//EN"
 "http://www.w3.org/Graphics/SVG/1.1/DTD/svg11.dtd">
<!-- Generated by graphviz version 2.40.1 (20161225.0304)
 -->
<!-- Title: oneDegreeRelationshipsDiagram Pages: 1 -->
<svg width="944pt" height="545pt"
 viewBox="0.00 0.00 944.00 545.20" xmlns="http://www.w3.org/2000/svg" xmlns:xlink="http://www.w3.org/1999/xlink">
<g id="graph0" class="graph" transform="scale(1 1) rotate(0) translate(4 541.2)">
<title>oneDegreeRelationshipsDiagram</title>
<polygon fill="#ffffff" stroke="transparent" points="-4,4 -4,-541.2 940,-541.2 940,4 -4,4"/>
<text text-anchor="middle" x="72.4936" y="-7.3" font-family="Helvetica,sans-Serif" font-size="11.00" fill="#000000">Generated by SchemaSpy</text>
<!-- TARGETS -->
<g id="node1" class="node">
<title>TARGETS</title>
<g id="a_node1"><a xlink:href="../../tables/TARGETS.html" xlink:title="TARGETS" target="_top">
<polygon fill="#ffffff" stroke="transparent" points="397,-259.2 397,-408.2 647,-408.2 647,-259.2 397,-259.2"/>
<polygon fill="#f5f5f5" stroke="transparent" points="397,-384.7 397,-407.7 647,-407.7 647,-384.7 397,-384.7"/>
<polygon fill="none" stroke="#000000" points="397,-384.7 397,-407.7 647,-407.7 647,-384.7 397,-384.7"/>
<text text-anchor="start" x="402" y="-393.8" font-family="Helvetica,sans-Serif" font-weight="bold" font-size="11.00" fill="#000000">TARGETS</text>
<text text-anchor="start" x="612.0437" y="-392.8" font-family="Helvetica,sans-Serif" font-size="11.00" fill="#000000">[table]</text>
<polygon fill="none" stroke="#000000" points="397,-362.7 397,-384.7 647,-384.7 647,-362.7 397,-362.7"/>
<image xlink:href="../../images/primaryKeys.png" width="11px" height="12px" preserveAspectRatio="xMinYMin meet" x="402" y="-379.7"/>
<text text-anchor="start" x="417" y="-369.8" font-family="Helvetica,sans-Serif" font-size="11.00" fill="#000000">ID</text>
<polygon fill="none" stroke="#000000" points="397,-340.7 397,-362.7 647,-362.7 647,-340.7 397,-340.7"/>
<image xlink:href="../../images/foreignKeys.png" width="11px" height="12px" preserveAspectRatio="xMinYMin meet" x="402" y="-357.7"/>
<text text-anchor="start" x="417" y="-347.8" font-family="Helvetica,sans-Serif" font-size="11.00" fill="#000000">PROJECT_ID</text>
<polygon fill="none" stroke="#000000" points="397,-318.7 397,-340.7 647,-340.7 647,-318.7 397,-318.7"/>
<image xlink:href="../../images/foreignKeys.png" width="11px" height="12px" preserveAspectRatio="xMinYMin meet" x="402" y="-335.7"/>
<text text-anchor="start" x="417" y="-325.8" font-family="Helvetica,sans-Serif" font-size="11.00" fill="#000000">TARGET_CATEGORY_ID</text>
<polygon fill="none" stroke="#000000" points="397,-296.7 397,-318.7 647,-318.7 647,-296.7 397,-296.7"/>
<image xlink:href="../../images/foreignKeys.png" width="11px" height="12px" preserveAspectRatio="xMinYMin meet" x="402" y="-313.7"/>
<text text-anchor="start" x="417" y="-303.8" font-family="Helvetica,sans-Serif" font-size="11.00" fill="#000000">THERAPEUTIC_ID</text>
<polygon fill="none" stroke="#000000" points="397,-277.7 397,-296.7 647,-296.7 647,-277.7 397,-277.7"/>
<text text-anchor="start" x="400" y="-283.8" font-family="Helvetica,sans-Serif" font-size="11.00" fill="#000000">...</text>
<polygon fill="#ffffff" stroke="transparent" points="397,-258.7 397,-277.7 494,-277.7 494,-258.7 397,-258.7"/>
<polygon fill="none" stroke="#000000" points="397,-258.7 397,-277.7 494,-277.7 494,-258.7 397,-258.7"/>
<text text-anchor="start" x="400" y="-264.8" font-family="Helvetica,sans-Serif" font-size="11.00" fill="#000000">&lt; 3</text>
<polygon fill="#ffffff" stroke="transparent" points="494,-258.7 494,-277.7 582,-277.7 582,-258.7 494,-258.7"/>
<polygon fill="none" stroke="#000000" points="494,-258.7 494,-277.7 582,-277.7 582,-258.7 494,-258.7"/>
<text text-anchor="start" x="534.3807" y="-264.8" font-family="Helvetica,sans-Serif" font-size="11.00" fill="#000000">146 rows</text>
<polygon fill="#ffffff" stroke="transparent" points="582,-258.7 582,-277.7 647,-277.7 647,-258.7 582,-258.7"/>
<polygon fill="none" stroke="#000000" points="582,-258.7 582,-277.7 647,-277.7 647,-258.7 582,-258.7"/>
<text text-anchor="start" x="622.2904" y="-264.8" font-family="Helvetica,sans-Serif" font-size="11.00" fill="#000000">10 &gt;</text>
</a>
</g>
</g>
<!-- TARGET_CATEGORIES -->
<g id="node2" class="node">
<title>TARGET_CATEGORIES</title>
<g id="a_node2"><a xlink:href="../../tables/TARGET_CATEGORIES.html" xlink:title="TARGET_CATEGORIES" target="_top">
<polygon fill="#ffffff" stroke="transparent" points="8,-187.7 8,-365.7 348,-365.7 348,-187.7 8,-187.7"/>
<polygon fill="#f5f5f5" stroke="transparent" points="10,-340.7 10,-363.7 346,-363.7 346,-340.7 10,-340.7"/>
<polygon fill="none" stroke="#000000" points="10,-340.7 10,-363.7 346,-363.7 346,-340.7 10,-340.7"/>
<text text-anchor="start" x="15" y="-349.8" font-family="Helvetica,sans-Serif" font-weight="bold" font-size="11.00" fill="#000000">TARGET_CATEGORIES</text>
<text text-anchor="start" x="311.0437" y="-348.8" font-family="Helvetica,sans-Serif" font-size="11.00" fill="#000000">[table]</text>
<polygon fill="none" stroke="#000000" points="10,-318.7 10,-340.7 175,-340.7 175,-318.7 10,-318.7"/>
<image xlink:href="../../images/primaryKeys.png" width="11px" height="12px" preserveAspectRatio="xMinYMin meet" x="15" y="-335.7"/>
<text text-anchor="start" x="30" y="-325.8" font-family="Helvetica,sans-Serif" font-size="11.00" fill="#000000">ID</text>
<polygon fill="none" stroke="#000000" points="175,-318.7 175,-340.7 346,-340.7 346,-318.7 175,-318.7"/>
<text text-anchor="start" x="178" y="-326.4" font-family="Helvetica,sans-Serif" font-size="11.00" fill="#000000">number[19]</text>
<polygon fill="none" stroke="#000000" points="10,-296.7 10,-318.7 175,-318.7 175,-296.7 10,-296.7"/>
<text text-anchor="start" x="30" y="-303.8" font-family="Helvetica,sans-Serif" font-size="11.00" fill="#000000">CREATED_AT</text>
<polygon fill="none" stroke="#000000" points="175,-296.7 175,-318.7 346,-318.7 346,-296.7 175,-296.7"/>
<text text-anchor="start" x="177.9896" y="-304.4" font-family="Helvetica,sans-Serif" font-size="11.00" fill="#000000">timestamp(6) with time zone[13,6]</text>
<polygon fill="none" stroke="#000000" points="10,-274.7 10,-296.7 175,-296.7 175,-274.7 10,-274.7"/>
<text text-anchor="start" x="30" y="-281.8" font-family="Helvetica,sans-Serif" font-size="11.00" fill="#000000">CREATED_BY</text>
<polygon fill="none" stroke="#000000" points="175,-274.7 175,-296.7 346,-296.7 346,-274.7 175,-274.7"/>
<text text-anchor="start" x="178" y="-282.4" font-family="Helvetica,sans-Serif" font-size="11.00" fill="#000000">number[19]</text>
<polygon fill="none" stroke="#000000" points="10,-252.7 10,-274.7 175,-274.7 175,-252.7 10,-252.7"/>
<text text-anchor="start" x="30" y="-259.8" font-family="Helvetica,sans-Serif" font-size="11.00" fill="#000000">UPDATED_AT</text>
<polygon fill="none" stroke="#000000" points="175,-252.7 175,-274.7 346,-274.7 346,-252.7 175,-252.7"/>
<text text-anchor="start" x="177.9896" y="-260.4" font-family="Helvetica,sans-Serif" font-size="11.00" fill="#000000">timestamp(6) with time zone[13,6]</text>
<polygon fill="none" stroke="#000000" points="10,-230.7 10,-252.7 175,-252.7 175,-230.7 10,-230.7"/>
<text text-anchor="start" x="30" y="-237.8" font-family="Helvetica,sans-Serif" font-size="11.00" fill="#000000">UPDATED_BY</text>
<polygon fill="none" stroke="#000000" points="175,-230.7 175,-252.7 346,-252.7 346,-230.7 175,-230.7"/>
<text text-anchor="start" x="178" y="-238.4" font-family="Helvetica,sans-Serif" font-size="11.00" fill="#000000">number[19]</text>
<polygon fill="none" stroke="#000000" points="10,-208.7 10,-230.7 175,-230.7 175,-208.7 10,-208.7"/>
<image xlink:href="../../images/primaryKeys.png" width="11px" height="12px" preserveAspectRatio="xMinYMin meet" x="15" y="-225.7"/>
<text text-anchor="start" x="30" y="-215.8" font-family="Helvetica,sans-Serif" font-size="11.00" fill="#000000">TITLE</text>
<polygon fill="none" stroke="#000000" points="175,-208.7 175,-230.7 346,-230.7 346,-208.7 175,-208.7"/>
<text text-anchor="start" x="178" y="-216.4" font-family="Helvetica,sans-Serif" font-size="11.00" fill="#000000">varchar2[255]</text>
<polygon fill="#ffffff" stroke="transparent" points="10,-189.7 10,-208.7 81,-208.7 81,-189.7 10,-189.7"/>
<polygon fill="none" stroke="#000000" points="10,-189.7 10,-208.7 81,-208.7 81,-189.7 10,-189.7"/>
<text text-anchor="start" x="13" y="-195.8" font-family="Helvetica,sans-Serif" font-size="11.00" fill="#000000">&lt; 0</text>
<polygon fill="#ffffff" stroke="transparent" points="81,-189.7 81,-208.7 175,-208.7 175,-189.7 81,-189.7"/>
<polygon fill="none" stroke="#000000" points="81,-189.7 81,-208.7 175,-208.7 175,-189.7 81,-189.7"/>
<text text-anchor="start" x="133.4956" y="-195.8" font-family="Helvetica,sans-Serif" font-size="11.00" fill="#000000">11 rows</text>
<polygon fill="#ffffff" stroke="transparent" points="175,-189.7 175,-208.7 346,-208.7 346,-189.7 175,-189.7"/>
<polygon fill="none" stroke="#000000" points="175,-189.7 175,-208.7 346,-208.7 346,-189.7 175,-189.7"/>
<text text-anchor="start" x="327.4053" y="-195.8" font-family="Helvetica,sans-Serif" font-size="11.00" fill="#000000">3 &gt;</text>
<polygon fill="none" stroke="#000000" stroke-width="2" points="9,-188.7 9,-364.7 347,-364.7 347,-188.7 9,-188.7"/>
</a>
</g>
</g>
<!-- TARGETS&#45;&gt;TARGET_CATEGORIES -->
<g id="edge1" class="edge">
<title>TARGETS:w&#45;&gt;TARGET_CATEGORIES:e</title>
<path fill="none" stroke="#000000" d="M382.276,-329.7C370.2815,-329.7 362.8229,-329.7 346,-329.7"/>
<polygon fill="#000000" stroke="#000000" points="389,-329.7001 397,-333.3 393,-329.7 397,-329.7 397,-329.7 397,-329.7 393,-329.7 397,-326.1 389,-329.7001 389,-329.7001"/>
<ellipse fill="none" stroke="#000000" cx="385.8" cy="-329.7001" rx="3.2" ry="3.2"/>
</g>
<!-- TARGETS_TARGET_CATEGORIES -->
<g id="node3" class="node">
<title>TARGETS_TARGET_CATEGORIES</title>
<g id="a_node3"><a xlink:href="../../tables/TARGETS_TARGET_CATEGORIES.html" xlink:title="TARGETS_TARGET_CATEGORIES" target="_top">
<polygon fill="#ffffff" stroke="transparent" points="696,-406.2 696,-533.2 928,-533.2 928,-406.2 696,-406.2"/>
<polygon fill="#f5f5f5" stroke="transparent" points="696,-509.7 696,-532.7 928,-532.7 928,-509.7 696,-509.7"/>
<polygon fill="none" stroke="#000000" points="696,-509.7 696,-532.7 928,-532.7 928,-509.7 696,-509.7"/>
<text text-anchor="start" x="701" y="-518.8" font-family="Helvetica,sans-Serif" font-weight="bold" font-size="11.00" fill="#000000">TARGETS_TARGET_CATEGORIES</text>
<text text-anchor="start" x="893.0437" y="-517.8" font-family="Helvetica,sans-Serif" font-size="11.00" fill="#000000">[table]</text>
<polygon fill="none" stroke="#000000" points="696,-487.7 696,-509.7 928,-509.7 928,-487.7 696,-487.7"/>
<image xlink:href="../../images/primaryKeys.png" width="11px" height="12px" preserveAspectRatio="xMinYMin meet" x="701" y="-504.7"/>
<text text-anchor="start" x="716" y="-494.8" font-family="Helvetica,sans-Serif" font-size="11.00" fill="#000000">ID</text>
<polygon fill="none" stroke="#000000" points="696,-465.7 696,-487.7 928,-487.7 928,-465.7 696,-465.7"/>
<image xlink:href="../../images/foreignKeys.png" width="11px" height="12px" preserveAspectRatio="xMinYMin meet" x="701" y="-482.7"/>
<text text-anchor="start" x="716" y="-472.8" font-family="Helvetica,sans-Serif" font-size="11.00" fill="#000000">TARGET_ID</text>
<polygon fill="none" stroke="#000000" points="696,-443.7 696,-465.7 928,-465.7 928,-443.7 696,-443.7"/>
<image xlink:href="../../images/foreignKeys.png" width="11px" height="12px" preserveAspectRatio="xMinYMin meet" x="701" y="-460.7"/>
<text text-anchor="start" x="716" y="-450.8" font-family="Helvetica,sans-Serif" font-size="11.00" fill="#000000">TARGET_CATEGORY_ID</text>
<polygon fill="none" stroke="#000000" points="696,-424.7 696,-443.7 928,-443.7 928,-424.7 696,-424.7"/>
<text text-anchor="start" x="699" y="-430.8" font-family="Helvetica,sans-Serif" font-size="11.00" fill="#000000">...</text>
<polygon fill="#ffffff" stroke="transparent" points="696,-405.7 696,-424.7 794,-424.7 794,-405.7 696,-405.7"/>
<polygon fill="none" stroke="#000000" points="696,-405.7 696,-424.7 794,-424.7 794,-405.7 696,-405.7"/>
<text text-anchor="start" x="699" y="-411.8" font-family="Helvetica,sans-Serif" font-size="11.00" fill="#000000">&lt; 2</text>
<polygon fill="#ffffff" stroke="transparent" points="794,-405.7 794,-424.7 877,-424.7 877,-405.7 794,-405.7"/>
<polygon fill="none" stroke="#000000" points="794,-405.7 794,-424.7 877,-424.7 877,-405.7 794,-405.7"/>
<text text-anchor="start" x="835.4956" y="-411.8" font-family="Helvetica,sans-Serif" font-size="11.00" fill="#000000">25 rows</text>
<polygon fill="#ffffff" stroke="transparent" points="877,-405.7 877,-424.7 928,-424.7 928,-405.7 877,-405.7"/>
<polygon fill="none" stroke="#000000" points="877,-405.7 877,-424.7 928,-424.7 928,-405.7 877,-405.7"/>
<text text-anchor="start" x="918.8862" y="-411.8" font-family="Helvetica,sans-Serif" font-size="11.00" fill="#000000"> &#160;</text>
</a>
</g>
</g>
<!-- TARGETS_TARGET_CATEGORIES&#45;&gt;TARGETS -->
<g id="edge3" class="edge">
<title>TARGETS_TARGET_CATEGORIES:w&#45;&gt;TARGETS:e</title>
<path fill="none" stroke="#000000" d="M682.093,-472.7881C656.1689,-453.9739 691.7533,-373.7 647,-373.7"/>
<polygon fill="#000000" stroke="#000000" points="688.2989,-474.5337 695.0252,-480.1655 692.1494,-475.6168 696,-476.7 696,-476.7 696,-476.7 692.1494,-475.6168 696.9748,-473.2345 688.2989,-474.5337 688.2989,-474.5337"/>
<ellipse fill="none" stroke="#000000" cx="685.2184" cy="-473.6672" rx="3.2" ry="3.2"/>
</g>
<!-- TARGETS_TARGET_CATEGORIES&#45;&gt;TARGET_CATEGORIES -->
<g id="edge2" class="edge">
<title>TARGETS_TARGET_CATEGORIES:w&#45;&gt;TARGET_CATEGORIES:e</title>
<path fill="none" stroke="#000000" d="M681.414,-454.8632C554.3795,-457.6955 496.868,-495.5007 389,-418.7 353.2136,-393.2205 389.9304,-329.7 346,-329.7"/>
<polygon fill="#000000" stroke="#000000" points="688.0005,-454.7896 696.0403,-458.2998 692.0003,-454.7448 696,-454.7 696,-454.7 696,-454.7 692.0003,-454.7448 695.9597,-451.1002 688.0005,-454.7896 688.0005,-454.7896"/>
<ellipse fill="none" stroke="#000000" cx="684.8007" cy="-454.8254" rx="3.2" ry="3.2"/>
</g>
<!-- TRACER_SYNTHESIS_REQUESTS -->
<g id="node4" class="node">
<title>TRACER_SYNTHESIS_REQUESTS</title>
<g id="a_node4"><a xlink:href="../../tables/TRACER_SYNTHESIS_REQUESTS.html" xlink:title="TRACER_SYNTHESIS_REQUESTS" target="_top">
<polygon fill="#ffffff" stroke="transparent" points="696,-38.2 696,-385.2 928,-385.2 928,-38.2 696,-38.2"/>
<polygon fill="#f5f5f5" stroke="transparent" points="696,-361.7 696,-384.7 928,-384.7 928,-361.7 696,-361.7"/>
<polygon fill="none" stroke="#000000" points="696,-361.7 696,-384.7 928,-384.7 928,-361.7 696,-361.7"/>
<text text-anchor="start" x="701" y="-370.8" font-family="Helvetica,sans-Serif" font-weight="bold" font-size="11.00" fill="#000000">TRACER_SYNTHESIS_REQUESTS</text>
<text text-anchor="start" x="893.0437" y="-369.8" font-family="Helvetica,sans-Serif" font-size="11.00" fill="#000000">[table]</text>
<polygon fill="none" stroke="#000000" points="696,-339.7 696,-361.7 928,-361.7 928,-339.7 696,-339.7"/>
<image xlink:href="../../images/primaryKeys.png" width="11px" height="12px" preserveAspectRatio="xMinYMin meet" x="701" y="-356.7"/>
<text text-anchor="start" x="716" y="-346.8" font-family="Helvetica,sans-Serif" font-size="11.00" fill="#000000">ID</text>
<polygon fill="none" stroke="#000000" points="696,-317.7 696,-339.7 928,-339.7 928,-317.7 696,-317.7"/>
<image xlink:href="../../images/foreignKeys.png" width="11px" height="12px" preserveAspectRatio="xMinYMin meet" x="701" y="-334.7"/>
<text text-anchor="start" x="716" y="-324.8" font-family="Helvetica,sans-Serif" font-size="11.00" fill="#000000">TRACER_TYPE_ID</text>
<polygon fill="none" stroke="#000000" points="696,-295.7 696,-317.7 928,-317.7 928,-295.7 696,-295.7"/>
<image xlink:href="../../images/foreignKeys.png" width="11px" height="12px" preserveAspectRatio="xMinYMin meet" x="701" y="-312.7"/>
<text text-anchor="start" x="716" y="-302.8" font-family="Helvetica,sans-Serif" font-size="11.00" fill="#000000">TARGET_ID</text>
<polygon fill="none" stroke="#000000" points="696,-273.7 696,-295.7 928,-295.7 928,-273.7 696,-273.7"/>
<image xlink:href="../../images/foreignKeys.png" width="11px" height="12px" preserveAspectRatio="xMinYMin meet" x="701" y="-290.7"/>
<text text-anchor="start" x="716" y="-280.8" font-family="Helvetica,sans-Serif" font-size="11.00" fill="#000000">OFF_DNA_ID</text>
<polygon fill="none" stroke="#000000" points="696,-251.7 696,-273.7 928,-273.7 928,-251.7 696,-251.7"/>
<image xlink:href="../../images/foreignKeys.png" width="11px" height="12px" preserveAspectRatio="xMinYMin meet" x="701" y="-268.7"/>
<text text-anchor="start" x="716" y="-258.8" font-family="Helvetica,sans-Serif" font-size="11.00" fill="#000000">OFF_DNA_IC50_ID</text>
<polygon fill="none" stroke="#000000" points="696,-229.7 696,-251.7 928,-251.7 928,-229.7 696,-229.7"/>
<image xlink:href="../../images/foreignKeys.png" width="11px" height="12px" preserveAspectRatio="xMinYMin meet" x="701" y="-246.7"/>
<text text-anchor="start" x="716" y="-236.8" font-family="Helvetica,sans-Serif" font-size="11.00" fill="#000000">TARGET_FORM_ID</text>
<polygon fill="none" stroke="#000000" points="696,-207.7 696,-229.7 928,-229.7 928,-207.7 696,-207.7"/>
<image xlink:href="../../images/foreignKeys.png" width="11px" height="12px" preserveAspectRatio="xMinYMin meet" x="701" y="-224.7"/>
<text text-anchor="start" x="716" y="-214.8" font-family="Helvetica,sans-Serif" font-size="11.00" fill="#000000">ASSIGNEE_ID</text>
<polygon fill="none" stroke="#000000" points="696,-185.7 696,-207.7 928,-207.7 928,-185.7 696,-185.7"/>
<image xlink:href="../../images/foreignKeys.png" width="11px" height="12px" preserveAspectRatio="xMinYMin meet" x="701" y="-202.7"/>
<text text-anchor="start" x="716" y="-192.8" font-family="Helvetica,sans-Serif" font-size="11.00" fill="#000000">TARGET_CATEGORY_ID</text>
<polygon fill="none" stroke="#000000" points="696,-163.7 696,-185.7 928,-185.7 928,-163.7 696,-163.7"/>
<image xlink:href="../../images/foreignKeys.png" width="11px" height="12px" preserveAspectRatio="xMinYMin meet" x="701" y="-180.7"/>
<text text-anchor="start" x="716" y="-170.8" font-family="Helvetica,sans-Serif" font-size="11.00" fill="#000000">CHEMISTRY_ID</text>
<polygon fill="none" stroke="#000000" points="696,-141.7 696,-163.7 928,-163.7 928,-141.7 696,-141.7"/>
<image xlink:href="../../images/foreignKeys.png" width="11px" height="12px" preserveAspectRatio="xMinYMin meet" x="701" y="-158.7"/>
<text text-anchor="start" x="716" y="-148.8" font-family="Helvetica,sans-Serif" font-size="11.00" fill="#000000">REGISTRATION_ID</text>
<polygon fill="none" stroke="#000000" points="696,-119.7 696,-141.7 928,-141.7 928,-119.7 696,-119.7"/>
<image xlink:href="../../images/foreignKeys.png" width="11px" height="12px" preserveAspectRatio="xMinYMin meet" x="701" y="-136.7"/>
<text text-anchor="start" x="716" y="-126.8" font-family="Helvetica,sans-Serif" font-size="11.00" fill="#000000">HEAD_PIECE_ID</text>
<polygon fill="none" stroke="#000000" points="696,-97.7 696,-119.7 928,-119.7 928,-97.7 696,-97.7"/>
<image xlink:href="../../images/foreignKeys.png" width="11px" height="12px" preserveAspectRatio="xMinYMin meet" x="701" y="-114.7"/>
<text text-anchor="start" x="716" y="-104.8" font-family="Helvetica,sans-Serif" font-size="11.00" fill="#000000">QUANTIFICATION_METHOD_ID</text>
<polygon fill="none" stroke="#000000" points="696,-75.7 696,-97.7 928,-97.7 928,-75.7 696,-75.7"/>
<image xlink:href="../../images/foreignKeys.png" width="11px" height="12px" preserveAspectRatio="xMinYMin meet" x="701" y="-92.7"/>
<text text-anchor="start" x="716" y="-82.8" font-family="Helvetica,sans-Serif" font-size="11.00" fill="#000000">DELIVERED_CONDITION_ID</text>
<polygon fill="none" stroke="#000000" points="696,-56.7 696,-75.7 928,-75.7 928,-56.7 696,-56.7"/>
<text text-anchor="start" x="699" y="-62.8" font-family="Helvetica,sans-Serif" font-size="11.00" fill="#000000">...</text>
<polygon fill="#ffffff" stroke="transparent" points="696,-37.7 696,-56.7 793,-56.7 793,-37.7 696,-37.7"/>
<polygon fill="none" stroke="#000000" points="696,-37.7 696,-56.7 793,-56.7 793,-37.7 696,-37.7"/>
<text text-anchor="start" x="699" y="-43.8" font-family="Helvetica,sans-Serif" font-size="11.00" fill="#000000">&lt; 12</text>
<polygon fill="#ffffff" stroke="transparent" points="793,-37.7 793,-56.7 872,-56.7 872,-37.7 793,-37.7"/>
<polygon fill="none" stroke="#000000" points="793,-37.7 793,-56.7 872,-56.7 872,-37.7 793,-37.7"/>
<text text-anchor="start" x="830.4956" y="-43.8" font-family="Helvetica,sans-Serif" font-size="11.00" fill="#000000">21 rows</text>
<polygon fill="#ffffff" stroke="transparent" points="872,-37.7 872,-56.7 928,-56.7 928,-37.7 872,-37.7"/>
<polygon fill="none" stroke="#000000" points="872,-37.7 872,-56.7 928,-56.7 928,-37.7 872,-37.7"/>
<text text-anchor="start" x="909.4053" y="-43.8" font-family="Helvetica,sans-Serif" font-size="11.00" fill="#000000">2 &gt;</text>
</a>
</g>
</g>
<!-- TRACER_SYNTHESIS_REQUESTS&#45;&gt;TARGETS -->
<g id="edge5" class="edge">
<title>TRACER_SYNTHESIS_REQUESTS:w&#45;&gt;TARGETS:e</title>
<path fill="none" stroke="#000000" d="M682.2779,-311.5185C665.5803,-326.881 677.839,-373.7 647,-373.7"/>
<polygon fill="#000000" stroke="#000000" points="688.4518,-309.3506 697.1928,-310.0967 692.2259,-308.0253 696,-306.7 696,-306.7 696,-306.7 692.2259,-308.0253 694.8072,-303.3033 688.4518,-309.3506 688.4518,-309.3506"/>
<ellipse fill="none" stroke="#000000" cx="685.4326" cy="-310.4108" rx="3.2" ry="3.2"/>
</g>
<!-- TRACER_SYNTHESIS_REQUESTS&#45;&gt;TARGET_CATEGORIES -->
<g id="edge4" class="edge">
<title>TRACER_SYNTHESIS_REQUESTS:w&#45;&gt;TARGET_CATEGORIES:e</title>
<path fill="none" stroke="#000000" d="M681.3136,-196.593C553.463,-194.7478 497.1508,-170.6255 389,-248.7 355.9531,-272.5567 386.7582,-329.7 346,-329.7"/>
<polygon fill="#000000" stroke="#000000" points="688.0002,-196.6416 695.9737,-200.2999 692.0001,-196.6708 696,-196.7 696,-196.7 696,-196.7 692.0001,-196.6708 696.0263,-193.1001 688.0002,-196.6416 688.0002,-196.6416"/>
<ellipse fill="none" stroke="#000000" cx="684.8003" cy="-196.6183" rx="3.2" ry="3.2"/>
</g>
</g>
</svg>
