<?xml version="1.0" encoding="UTF-8" standalone="no"?>
<!DOCTYPE svg PUBLIC "-//W3C//DTD SVG 1.1//EN"
 "http://www.w3.org/Graphics/SVG/1.1/DTD/svg11.dtd">
<!-- Generated by graphviz version 2.40.1 (20161225.0304)
 -->
<!-- Title: twoDegreesRelationshipsDiagram Pages: 1 -->
<svg width="1538pt" height="1592pt"
 viewBox="0.00 0.00 1538.00 1592.20" xmlns="http://www.w3.org/2000/svg" xmlns:xlink="http://www.w3.org/1999/xlink">
<g id="graph0" class="graph" transform="scale(1 1) rotate(0) translate(4 1588.2005)">
<title>twoDegreesRelationshipsDiagram</title>
<polygon fill="#ffffff" stroke="transparent" points="-4,4 -4,-1588.2005 1534,-1588.2005 1534,4 -4,4"/>
<text text-anchor="middle" x="72.4936" y="-7.3" font-family="Helvetica,sans-Serif" font-size="11.00" fill="#000000">Generated by SchemaSpy</text>
<!-- CLONE_FORMS -->
<g id="node1" class="node">
<title>CLONE_FORMS</title>
<g id="a_node1"><a xlink:href="../../tables/CLONE_FORMS.html" xlink:title="CLONE_FORMS" target="_top">
<polygon fill="#ffffff" stroke="transparent" points="909.5,-1519.2005 909.5,-1580.2005 1035.5,-1580.2005 1035.5,-1519.2005 909.5,-1519.2005"/>
<polygon fill="#f5f5f5" stroke="transparent" points="909.5,-1556.7005 909.5,-1579.7005 1035.5,-1579.7005 1035.5,-1556.7005 909.5,-1556.7005"/>
<polygon fill="none" stroke="#000000" points="909.5,-1556.7005 909.5,-1579.7005 1035.5,-1579.7005 1035.5,-1556.7005 909.5,-1556.7005"/>
<text text-anchor="start" x="914.1401" y="-1565.8005" font-family="Helvetica,sans-Serif" font-weight="bold" font-size="11.00" fill="#000000">CLONE_FORMS</text>
<text text-anchor="start" x="1001.0219" y="-1564.8005" font-family="Helvetica,sans-Serif" font-size="11.00" fill="#000000">[table]</text>
<polygon fill="none" stroke="#000000" points="909.5,-1537.7005 909.5,-1556.7005 1035.5,-1556.7005 1035.5,-1537.7005 909.5,-1537.7005"/>
<text text-anchor="start" x="912.5" y="-1543.8005" font-family="Helvetica,sans-Serif" font-size="11.00" fill="#000000">...</text>
<polygon fill="#ffffff" stroke="transparent" points="909.5,-1518.7005 909.5,-1537.7005 944.5,-1537.7005 944.5,-1518.7005 909.5,-1518.7005"/>
<polygon fill="none" stroke="#000000" points="909.5,-1518.7005 909.5,-1537.7005 944.5,-1537.7005 944.5,-1518.7005 909.5,-1518.7005"/>
<text text-anchor="start" x="912.5" y="-1524.8005" font-family="Helvetica,sans-Serif" font-size="11.00" fill="#000000">&lt; 4</text>
<polygon fill="#ffffff" stroke="transparent" points="944.5,-1518.7005 944.5,-1537.7005 1001.5,-1537.7005 1001.5,-1518.7005 944.5,-1518.7005"/>
<polygon fill="none" stroke="#000000" points="944.5,-1518.7005 944.5,-1537.7005 1001.5,-1537.7005 1001.5,-1518.7005 944.5,-1518.7005"/>
<text text-anchor="start" x="953.8807" y="-1524.8005" font-family="Helvetica,sans-Serif" font-size="11.00" fill="#000000">467 rows</text>
<polygon fill="#ffffff" stroke="transparent" points="1001.5,-1518.7005 1001.5,-1537.7005 1035.5,-1537.7005 1035.5,-1518.7005 1001.5,-1518.7005"/>
<polygon fill="none" stroke="#000000" points="1001.5,-1518.7005 1001.5,-1537.7005 1035.5,-1537.7005 1035.5,-1518.7005 1001.5,-1518.7005"/>
<text text-anchor="start" x="1010.7904" y="-1524.8005" font-family="Helvetica,sans-Serif" font-size="11.00" fill="#000000">14 &gt;</text>
</a>
</g>
</g>
<!-- ISOFORMS -->
<g id="node2" class="node">
<title>ISOFORMS</title>
<g id="a_node2"><a xlink:href="../../tables/ISOFORMS.html" xlink:title="ISOFORMS" target="_top">
<polygon fill="#ffffff" stroke="transparent" points="236,-683.2005 236,-744.2005 337,-744.2005 337,-683.2005 236,-683.2005"/>
<polygon fill="#f5f5f5" stroke="transparent" points="236.5,-720.7005 236.5,-743.7005 337.5,-743.7005 337.5,-720.7005 236.5,-720.7005"/>
<polygon fill="none" stroke="#000000" points="236.5,-720.7005 236.5,-743.7005 337.5,-743.7005 337.5,-720.7005 236.5,-720.7005"/>
<text text-anchor="start" x="241.1674" y="-729.8005" font-family="Helvetica,sans-Serif" font-weight="bold" font-size="11.00" fill="#000000">ISOFORMS</text>
<text text-anchor="start" x="303.0219" y="-728.8005" font-family="Helvetica,sans-Serif" font-size="11.00" fill="#000000">[table]</text>
<polygon fill="none" stroke="#000000" points="236.5,-701.7005 236.5,-720.7005 337.5,-720.7005 337.5,-701.7005 236.5,-701.7005"/>
<text text-anchor="start" x="239.5" y="-707.8005" font-family="Helvetica,sans-Serif" font-size="11.00" fill="#000000">...</text>
<polygon fill="#ffffff" stroke="transparent" points="236.5,-682.7005 236.5,-701.7005 258.5,-701.7005 258.5,-682.7005 236.5,-682.7005"/>
<polygon fill="none" stroke="#000000" points="236.5,-682.7005 236.5,-701.7005 258.5,-701.7005 258.5,-682.7005 236.5,-682.7005"/>
<text text-anchor="start" x="239.5" y="-688.8005" font-family="Helvetica,sans-Serif" font-size="11.00" fill="#000000">&lt; 1</text>
<polygon fill="#ffffff" stroke="transparent" points="258.5,-682.7005 258.5,-701.7005 309.5,-701.7005 309.5,-682.7005 258.5,-682.7005"/>
<polygon fill="none" stroke="#000000" points="258.5,-682.7005 258.5,-701.7005 309.5,-701.7005 309.5,-682.7005 258.5,-682.7005"/>
<text text-anchor="start" x="261.8807" y="-688.8005" font-family="Helvetica,sans-Serif" font-size="11.00" fill="#000000">519 rows</text>
<polygon fill="#ffffff" stroke="transparent" points="309.5,-682.7005 309.5,-701.7005 337.5,-701.7005 337.5,-682.7005 309.5,-682.7005"/>
<polygon fill="none" stroke="#000000" points="309.5,-682.7005 309.5,-701.7005 337.5,-701.7005 337.5,-682.7005 309.5,-682.7005"/>
<text text-anchor="start" x="312.7904" y="-688.8005" font-family="Helvetica,sans-Serif" font-size="11.00" fill="#000000">10 &gt;</text>
</a>
</g>
</g>
<!-- CLONE_FORMS&#45;&gt;ISOFORMS -->
<g id="edge1" class="edge">
<title>CLONE_FORMS:w&#45;&gt;ISOFORMS:e</title>
<path fill="none" stroke="#000000" d="M894.9089,-1546.649C856.6045,-1546.2349 834.9779,-1542.4923 809,-1508.7005 764.8906,-1451.3234 805.7752,-1250.6642 776,-1184.7005 775.7694,-1184.1896 338.0605,-710.7005 337.5,-710.7005"/>
<polygon fill="#000000" stroke="#000000" points="901.5,-1546.6722 909.4873,-1550.3005 905.5,-1546.6863 909.5,-1546.7005 909.5,-1546.7005 909.5,-1546.7005 905.5,-1546.6863 909.5127,-1543.1005 901.5,-1546.6722 901.5,-1546.6722"/>
<ellipse fill="none" stroke="#000000" cx="898.3001" cy="-1546.6609" rx="3.2" ry="3.2"/>
</g>
<!-- POST_TRANSLATIONAL_MODIFICATIONS -->
<g id="node3" class="node">
<title>POST_TRANSLATIONAL_MODIFICATIONS</title>
<g id="a_node3"><a xlink:href="../../tables/POST_TRANSLATIONAL_MODIFICATIONS.html" xlink:title="POST_TRANSLATIONAL_MODIFICATIONS" target="_top">
<polygon fill="#ffffff" stroke="transparent" points="155,-925.2005 155,-986.2005 418,-986.2005 418,-925.2005 155,-925.2005"/>
<polygon fill="#f5f5f5" stroke="transparent" points="155.5,-962.7005 155.5,-985.7005 418.5,-985.7005 418.5,-962.7005 155.5,-962.7005"/>
<polygon fill="none" stroke="#000000" points="155.5,-962.7005 155.5,-985.7005 418.5,-985.7005 418.5,-962.7005 155.5,-962.7005"/>
<text text-anchor="start" x="160.4956" y="-971.8005" font-family="Helvetica,sans-Serif" font-weight="bold" font-size="11.00" fill="#000000">POST_TRANSLATIONAL_MODIFICATIONS</text>
<text text-anchor="start" x="384.0219" y="-970.8005" font-family="Helvetica,sans-Serif" font-size="11.00" fill="#000000">[table]</text>
<polygon fill="none" stroke="#000000" points="155.5,-943.7005 155.5,-962.7005 418.5,-962.7005 418.5,-943.7005 155.5,-943.7005"/>
<text text-anchor="start" x="158.5" y="-949.8005" font-family="Helvetica,sans-Serif" font-size="11.00" fill="#000000">...</text>
<polygon fill="#ffffff" stroke="transparent" points="155.5,-924.7005 155.5,-943.7005 263.5,-943.7005 263.5,-924.7005 155.5,-924.7005"/>
<polygon fill="none" stroke="#000000" points="155.5,-924.7005 155.5,-943.7005 263.5,-943.7005 263.5,-924.7005 155.5,-924.7005"/>
<text text-anchor="start" x="158.5" y="-930.8005" font-family="Helvetica,sans-Serif" font-size="11.00" fill="#000000"> &#160;</text>
<polygon fill="#ffffff" stroke="transparent" points="263.5,-924.7005 263.5,-943.7005 349.5,-943.7005 349.5,-924.7005 263.5,-924.7005"/>
<polygon fill="none" stroke="#000000" points="263.5,-924.7005 263.5,-943.7005 349.5,-943.7005 349.5,-924.7005 263.5,-924.7005"/>
<text text-anchor="start" x="314.1105" y="-930.8005" font-family="Helvetica,sans-Serif" font-size="11.00" fill="#000000">2 rows</text>
<polygon fill="#ffffff" stroke="transparent" points="349.5,-924.7005 349.5,-943.7005 418.5,-943.7005 418.5,-924.7005 349.5,-924.7005"/>
<polygon fill="none" stroke="#000000" points="349.5,-924.7005 349.5,-943.7005 418.5,-943.7005 418.5,-924.7005 349.5,-924.7005"/>
<text text-anchor="start" x="399.9053" y="-930.8005" font-family="Helvetica,sans-Serif" font-size="11.00" fill="#000000">2 &gt;</text>
</a>
</g>
</g>
<!-- CLONE_FORMS&#45;&gt;POST_TRANSLATIONAL_MODIFICATIONS -->
<g id="edge2" class="edge">
<title>CLONE_FORMS:w&#45;&gt;POST_TRANSLATIONAL_MODIFICATIONS:e</title>
<path fill="none" stroke="#000000" d="M894.7361,-1546.5816C856.9882,-1545.8246 837.1079,-1540.6183 809,-1508.7005 767.3222,-1461.3735 813.4721,-1421.4226 776,-1370.7005 678.8022,-1239.1341 552.1296,-1318.1773 459,-1183.7005 429.3284,-1140.8554 470.6163,-952.7005 418.5,-952.7005"/>
<polygon fill="#000000" stroke="#000000" points="901.5003,-1546.636 909.471,-1550.3004 905.5001,-1546.6683 909.5,-1546.7005 909.5,-1546.7005 909.5,-1546.7005 905.5001,-1546.6683 909.529,-1543.1006 901.5003,-1546.636 901.5003,-1546.636"/>
<ellipse fill="none" stroke="#000000" cx="898.3004" cy="-1546.6103" rx="3.2" ry="3.2"/>
</g>
<!-- SPECIES -->
<g id="node4" class="node">
<title>SPECIES</title>
<g id="a_node4"><a xlink:href="../../tables/SPECIES.html" xlink:title="SPECIES" target="_top">
<polygon fill="#ffffff" stroke="transparent" points="241.5,-1259.2005 241.5,-1320.2005 331.5,-1320.2005 331.5,-1259.2005 241.5,-1259.2005"/>
<polygon fill="#f5f5f5" stroke="transparent" points="241.5,-1296.7005 241.5,-1319.7005 331.5,-1319.7005 331.5,-1296.7005 241.5,-1296.7005"/>
<polygon fill="none" stroke="#000000" points="241.5,-1296.7005 241.5,-1319.7005 331.5,-1319.7005 331.5,-1296.7005 241.5,-1296.7005"/>
<text text-anchor="start" x="246.1614" y="-1305.8005" font-family="Helvetica,sans-Serif" font-weight="bold" font-size="11.00" fill="#000000">SPECIES</text>
<text text-anchor="start" x="297.0219" y="-1304.8005" font-family="Helvetica,sans-Serif" font-size="11.00" fill="#000000">[table]</text>
<polygon fill="none" stroke="#000000" points="241.5,-1277.7005 241.5,-1296.7005 331.5,-1296.7005 331.5,-1277.7005 241.5,-1277.7005"/>
<text text-anchor="start" x="244.5" y="-1283.8005" font-family="Helvetica,sans-Serif" font-size="11.00" fill="#000000">...</text>
<polygon fill="#ffffff" stroke="transparent" points="241.5,-1258.7005 241.5,-1277.7005 262.5,-1277.7005 262.5,-1258.7005 241.5,-1258.7005"/>
<polygon fill="none" stroke="#000000" points="241.5,-1258.7005 241.5,-1277.7005 262.5,-1277.7005 262.5,-1258.7005 241.5,-1258.7005"/>
<text text-anchor="start" x="244.5" y="-1264.8005" font-family="Helvetica,sans-Serif" font-size="11.00" fill="#000000"> &#160;</text>
<polygon fill="#ffffff" stroke="transparent" points="262.5,-1258.7005 262.5,-1277.7005 305.5,-1277.7005 305.5,-1258.7005 262.5,-1258.7005"/>
<polygon fill="none" stroke="#000000" points="262.5,-1258.7005 262.5,-1277.7005 305.5,-1277.7005 305.5,-1258.7005 262.5,-1258.7005"/>
<text text-anchor="start" x="270.1105" y="-1264.8005" font-family="Helvetica,sans-Serif" font-size="11.00" fill="#000000">3 rows</text>
<polygon fill="#ffffff" stroke="transparent" points="305.5,-1258.7005 305.5,-1277.7005 331.5,-1277.7005 331.5,-1258.7005 305.5,-1258.7005"/>
<polygon fill="none" stroke="#000000" points="305.5,-1258.7005 305.5,-1277.7005 331.5,-1277.7005 331.5,-1258.7005 305.5,-1258.7005"/>
<text text-anchor="start" x="312.9053" y="-1264.8005" font-family="Helvetica,sans-Serif" font-size="11.00" fill="#000000">2 &gt;</text>
</a>
</g>
</g>
<!-- CLONE_FORMS&#45;&gt;SPECIES -->
<g id="edge3" class="edge">
<title>CLONE_FORMS:w&#45;&gt;SPECIES:e</title>
<path fill="none" stroke="#000000" d="M895.089,-1546.6513C850.7261,-1545.7518 774.4688,-1532.9568 459,-1369.7005 398.9489,-1338.6238 399.1158,-1286.7005 331.5,-1286.7005"/>
<polygon fill="#000000" stroke="#000000" points="901.5,-1546.6731 909.4877,-1550.3005 905.5,-1546.6868 909.5,-1546.7005 909.5,-1546.7005 909.5,-1546.7005 905.5,-1546.6868 909.5123,-1543.1005 901.5,-1546.6731 901.5,-1546.6731"/>
<ellipse fill="none" stroke="#000000" cx="898.3001" cy="-1546.6622" rx="3.2" ry="3.2"/>
</g>
<!-- TARGET_FORMS -->
<g id="node5" class="node">
<title>TARGET_FORMS</title>
<g id="a_node5"><a xlink:href="../../tables/TARGET_FORMS.html" xlink:title="TARGET_FORMS" target="_top">
<polygon fill="#ffffff" stroke="transparent" points="467,-638.2005 467,-831.2005 768,-831.2005 768,-638.2005 467,-638.2005"/>
<polygon fill="#f5f5f5" stroke="transparent" points="467.5,-807.7005 467.5,-830.7005 768.5,-830.7005 768.5,-807.7005 467.5,-807.7005"/>
<polygon fill="none" stroke="#000000" points="467.5,-807.7005 467.5,-830.7005 768.5,-830.7005 768.5,-807.7005 467.5,-807.7005"/>
<text text-anchor="start" x="472.5" y="-816.8005" font-family="Helvetica,sans-Serif" font-weight="bold" font-size="11.00" fill="#000000">TARGET_FORMS</text>
<text text-anchor="start" x="733.5437" y="-815.8005" font-family="Helvetica,sans-Serif" font-size="11.00" fill="#000000">[table]</text>
<polygon fill="none" stroke="#000000" points="467.5,-785.7005 467.5,-807.7005 768.5,-807.7005 768.5,-785.7005 467.5,-785.7005"/>
<image xlink:href="../../images/primaryKeys.png" width="11px" height="12px" preserveAspectRatio="xMinYMin meet" x="472.5" y="-802.7"/>
<text text-anchor="start" x="487.5" y="-792.8005" font-family="Helvetica,sans-Serif" font-size="11.00" fill="#000000">ID</text>
<polygon fill="none" stroke="#000000" points="467.5,-763.7005 467.5,-785.7005 768.5,-785.7005 768.5,-763.7005 467.5,-763.7005"/>
<image xlink:href="../../images/foreignKeys.png" width="11px" height="12px" preserveAspectRatio="xMinYMin meet" x="472.5" y="-780.7"/>
<text text-anchor="start" x="487.5" y="-770.8005" font-family="Helvetica,sans-Serif" font-size="11.00" fill="#000000">TARGET_ID</text>
<polygon fill="none" stroke="#000000" points="467.5,-741.7005 467.5,-763.7005 768.5,-763.7005 768.5,-741.7005 467.5,-741.7005"/>
<image xlink:href="../../images/foreignKeys.png" width="11px" height="12px" preserveAspectRatio="xMinYMin meet" x="472.5" y="-758.7"/>
<text text-anchor="start" x="487.5" y="-748.8005" font-family="Helvetica,sans-Serif" font-size="11.00" fill="#000000">SPECIES_ID</text>
<polygon fill="none" stroke="#000000" points="467.5,-719.7005 467.5,-741.7005 768.5,-741.7005 768.5,-719.7005 467.5,-719.7005"/>
<image xlink:href="../../images/foreignKeys.png" width="11px" height="12px" preserveAspectRatio="xMinYMin meet" x="472.5" y="-736.7"/>
<text text-anchor="start" x="487.5" y="-726.8005" font-family="Helvetica,sans-Serif" font-size="11.00" fill="#000000">POST_TRANSLATIONAL_MODIFICATION_ID</text>
<polygon fill="none" stroke="#000000" points="467.5,-697.7005 467.5,-719.7005 768.5,-719.7005 768.5,-697.7005 467.5,-697.7005"/>
<image xlink:href="../../images/foreignKeys.png" width="11px" height="12px" preserveAspectRatio="xMinYMin meet" x="472.5" y="-714.7"/>
<text text-anchor="start" x="487.5" y="-704.8005" font-family="Helvetica,sans-Serif" font-size="11.00" fill="#000000">ISOFORM_ID</text>
<polygon fill="none" stroke="#000000" points="467.5,-675.7005 467.5,-697.7005 768.5,-697.7005 768.5,-675.7005 467.5,-675.7005"/>
<image xlink:href="../../images/foreignKeys.png" width="11px" height="12px" preserveAspectRatio="xMinYMin meet" x="472.5" y="-692.7"/>
<text text-anchor="start" x="487.5" y="-682.8005" font-family="Helvetica,sans-Serif" font-size="11.00" fill="#000000">EXPRESSION_SYSTEM_ID</text>
<polygon fill="none" stroke="#000000" points="467.5,-656.7005 467.5,-675.7005 768.5,-675.7005 768.5,-656.7005 467.5,-656.7005"/>
<text text-anchor="start" x="470.5" y="-662.8005" font-family="Helvetica,sans-Serif" font-size="11.00" fill="#000000">...</text>
<polygon fill="#ffffff" stroke="transparent" points="467.5,-637.7005 467.5,-656.7005 589.5,-656.7005 589.5,-637.7005 467.5,-637.7005"/>
<polygon fill="none" stroke="#000000" points="467.5,-637.7005 467.5,-656.7005 589.5,-656.7005 589.5,-637.7005 467.5,-637.7005"/>
<text text-anchor="start" x="470.5" y="-643.8005" font-family="Helvetica,sans-Serif" font-size="11.00" fill="#000000">&lt; 5</text>
<polygon fill="#ffffff" stroke="transparent" points="589.5,-637.7005 589.5,-656.7005 690.5,-656.7005 690.5,-637.7005 589.5,-637.7005"/>
<polygon fill="none" stroke="#000000" points="589.5,-637.7005 589.5,-656.7005 690.5,-656.7005 690.5,-637.7005 589.5,-637.7005"/>
<text text-anchor="start" x="642.8807" y="-643.8005" font-family="Helvetica,sans-Serif" font-size="11.00" fill="#000000">541 rows</text>
<polygon fill="#ffffff" stroke="transparent" points="690.5,-637.7005 690.5,-656.7005 768.5,-656.7005 768.5,-637.7005 690.5,-637.7005"/>
<polygon fill="none" stroke="#000000" points="690.5,-637.7005 690.5,-656.7005 768.5,-656.7005 768.5,-637.7005 690.5,-637.7005"/>
<text text-anchor="start" x="743.7904" y="-643.8005" font-family="Helvetica,sans-Serif" font-size="11.00" fill="#000000">18 &gt;</text>
</a>
</g>
</g>
<!-- CLONE_FORMS&#45;&gt;TARGET_FORMS -->
<g id="edge4" class="edge">
<title>CLONE_FORMS:w&#45;&gt;TARGET_FORMS:e</title>
<path fill="none" stroke="#000000" d="M894.8825,-1546.6688C856.441,-1546.3578 834.2166,-1543.0642 809,-1508.7005 762.121,-1444.8164 847.739,-796.7005 768.5,-796.7005"/>
<polygon fill="#000000" stroke="#000000" points="901.5,-1546.6831 909.4922,-1550.3005 905.5,-1546.6918 909.5,-1546.7005 909.5,-1546.7005 909.5,-1546.7005 905.5,-1546.6918 909.5078,-1543.1005 901.5,-1546.6831 901.5,-1546.6831"/>
<ellipse fill="none" stroke="#000000" cx="898.3" cy="-1546.6761" rx="3.2" ry="3.2"/>
</g>
<!-- TARGETS -->
<g id="node9" class="node">
<title>TARGETS</title>
<g id="a_node9"><a xlink:href="../../tables/TARGETS.html" xlink:title="TARGETS" target="_top">
<polygon fill="#ffffff" stroke="transparent" points="8,-535.2005 8,-596.2005 106,-596.2005 106,-535.2005 8,-535.2005"/>
<polygon fill="#f5f5f5" stroke="transparent" points="8,-572.7005 8,-595.7005 106,-595.7005 106,-572.7005 8,-572.7005"/>
<polygon fill="none" stroke="#000000" points="8,-572.7005 8,-595.7005 106,-595.7005 106,-572.7005 8,-572.7005"/>
<text text-anchor="start" x="13" y="-581.8005" font-family="Helvetica,sans-Serif" font-weight="bold" font-size="11.00" fill="#000000">TARGETS</text>
<text text-anchor="start" x="71.0437" y="-580.8005" font-family="Helvetica,sans-Serif" font-size="11.00" fill="#000000">[table]</text>
<polygon fill="none" stroke="#000000" points="8,-553.7005 8,-572.7005 106,-572.7005 106,-553.7005 8,-553.7005"/>
<text text-anchor="start" x="11" y="-559.8005" font-family="Helvetica,sans-Serif" font-size="11.00" fill="#000000">...</text>
<polygon fill="#ffffff" stroke="transparent" points="8,-534.7005 8,-553.7005 29,-553.7005 29,-534.7005 8,-534.7005"/>
<polygon fill="none" stroke="#000000" points="8,-534.7005 8,-553.7005 29,-553.7005 29,-534.7005 8,-534.7005"/>
<text text-anchor="start" x="10.7027" y="-540.8005" font-family="Helvetica,sans-Serif" font-size="11.00" fill="#000000">&lt; 3</text>
<polygon fill="#ffffff" stroke="transparent" points="29,-534.7005 29,-553.7005 79,-553.7005 79,-534.7005 29,-534.7005"/>
<polygon fill="none" stroke="#000000" points="29,-534.7005 29,-553.7005 79,-553.7005 79,-534.7005 29,-534.7005"/>
<text text-anchor="start" x="31.6904" y="-540.8005" font-family="Helvetica,sans-Serif" font-size="11.00" fill="#000000">146 rows</text>
<polygon fill="#ffffff" stroke="transparent" points="79,-534.7005 79,-553.7005 106,-553.7005 106,-534.7005 79,-534.7005"/>
<polygon fill="none" stroke="#000000" points="79,-534.7005 79,-553.7005 106,-553.7005 106,-534.7005 79,-534.7005"/>
<text text-anchor="start" x="81.6452" y="-540.8005" font-family="Helvetica,sans-Serif" font-size="11.00" fill="#000000">10 &gt;</text>
</a>
</g>
</g>
<!-- ISOFORMS&#45;&gt;TARGETS -->
<g id="edge8" class="edge">
<title>ISOFORMS:w&#45;&gt;TARGETS:e</title>
<path fill="none" stroke="#000000" d="M221.9082,-710.3714C189.1117,-708.7029 173.2496,-700.1516 147,-672.7005 110.9415,-634.9916 158.1744,-562.7005 106,-562.7005"/>
<polygon fill="#000000" stroke="#000000" points="228.502,-710.52 236.4188,-714.2996 232.501,-710.6103 236.5,-710.7005 236.5,-710.7005 236.5,-710.7005 232.501,-710.6103 236.5812,-707.1014 228.502,-710.52 228.502,-710.52"/>
<ellipse fill="none" stroke="#000000" cx="225.3028" cy="-710.4479" rx="3.2" ry="3.2"/>
</g>
<!-- TARGET_FORMS&#45;&gt;ISOFORMS -->
<g id="edge16" class="edge">
<title>TARGET_FORMS:w&#45;&gt;ISOFORMS:e</title>
<path fill="none" stroke="#000000" d="M452.9122,-708.746C406.7724,-709.0437 390.093,-710.7005 337.5,-710.7005"/>
<polygon fill="#000000" stroke="#000000" points="459.5,-708.7255 467.5113,-712.3005 463.5,-708.713 467.5,-708.7005 467.5,-708.7005 467.5,-708.7005 463.5,-708.713 467.4887,-705.1005 459.5,-708.7255 459.5,-708.7255"/>
<ellipse fill="none" stroke="#000000" cx="456.3001" cy="-708.7355" rx="3.2" ry="3.2"/>
</g>
<!-- TARGET_FORMS&#45;&gt;POST_TRANSLATIONAL_MODIFICATIONS -->
<g id="edge17" class="edge">
<title>TARGET_FORMS:w&#45;&gt;POST_TRANSLATIONAL_MODIFICATIONS:e</title>
<path fill="none" stroke="#000000" d="M453.1198,-732.6197C382.4419,-754.3178 514.0158,-952.7005 418.5,-952.7005"/>
<polygon fill="#000000" stroke="#000000" points="459.5703,-731.7588 467.9763,-734.2688 463.5352,-731.2297 467.5,-730.7005 467.5,-730.7005 467.5,-730.7005 463.5352,-731.2297 467.0237,-727.1321 459.5703,-731.7588 459.5703,-731.7588"/>
<ellipse fill="none" stroke="#000000" cx="456.3984" cy="-732.1822" rx="3.2" ry="3.2"/>
</g>
<!-- TARGET_FORMS&#45;&gt;SPECIES -->
<g id="edge18" class="edge">
<title>TARGET_FORMS:w&#45;&gt;SPECIES:e</title>
<path fill="none" stroke="#000000" d="M453.6099,-757.8483C417.3278,-788.6183 437.881,-948.5139 426,-996.7005 393.548,-1128.3182 467.0594,-1286.7005 331.5,-1286.7005"/>
<polygon fill="#000000" stroke="#000000" points="459.9986,-755.4806 468.751,-756.0761 463.7493,-754.0905 467.5,-752.7005 467.5,-752.7005 467.5,-752.7005 463.7493,-754.0905 466.249,-749.3248 459.9986,-755.4806 459.9986,-755.4806"/>
<ellipse fill="none" stroke="#000000" cx="456.998" cy="-756.5926" rx="3.2" ry="3.2"/>
</g>
<!-- TARGET_FORMS&#45;&gt;TARGETS -->
<g id="edge19" class="edge">
<title>TARGET_FORMS:w&#45;&gt;TARGETS:e</title>
<path fill="none" stroke="#000000" d="M452.7134,-774.9614C319.8322,-779.6403 251.3065,-844.6034 147,-754.7005 80.9053,-697.7328 193.2572,-562.7005 106,-562.7005"/>
<polygon fill="#000000" stroke="#000000" points="459.5012,-774.8417 467.5635,-778.2999 463.5006,-774.7711 467.5,-774.7005 467.5,-774.7005 467.5,-774.7005 463.5006,-774.7711 467.4365,-771.101 459.5012,-774.8417 459.5012,-774.8417"/>
<ellipse fill="none" stroke="#000000" cx="456.3017" cy="-774.8982" rx="3.2" ry="3.2"/>
</g>
<!-- EXPRESSION_SYSTEMS -->
<g id="node14" class="node">
<title>EXPRESSION_SYSTEMS</title>
<g id="a_node14"><a xlink:href="../../tables/EXPRESSION_SYSTEMS.html" xlink:title="EXPRESSION_SYSTEMS" target="_top">
<polygon fill="#ffffff" stroke="transparent" points="200,-601.2005 200,-662.2005 373,-662.2005 373,-601.2005 200,-601.2005"/>
<polygon fill="#f5f5f5" stroke="transparent" points="200.5,-638.7005 200.5,-661.7005 373.5,-661.7005 373.5,-638.7005 200.5,-638.7005"/>
<polygon fill="none" stroke="#000000" points="200.5,-638.7005 200.5,-661.7005 373.5,-661.7005 373.5,-638.7005 200.5,-638.7005"/>
<text text-anchor="start" x="205.4064" y="-647.8005" font-family="Helvetica,sans-Serif" font-weight="bold" font-size="11.00" fill="#000000">EXPRESSION_SYSTEMS</text>
<text text-anchor="start" x="339.0219" y="-646.8005" font-family="Helvetica,sans-Serif" font-size="11.00" fill="#000000">[table]</text>
<polygon fill="none" stroke="#000000" points="200.5,-619.7005 200.5,-638.7005 373.5,-638.7005 373.5,-619.7005 200.5,-619.7005"/>
<text text-anchor="start" x="203.5" y="-625.8005" font-family="Helvetica,sans-Serif" font-size="11.00" fill="#000000">...</text>
<polygon fill="#ffffff" stroke="transparent" points="200.5,-600.7005 200.5,-619.7005 263.5,-619.7005 263.5,-600.7005 200.5,-600.7005"/>
<polygon fill="none" stroke="#000000" points="200.5,-600.7005 200.5,-619.7005 263.5,-619.7005 263.5,-600.7005 200.5,-600.7005"/>
<text text-anchor="start" x="203.5" y="-606.8005" font-family="Helvetica,sans-Serif" font-size="11.00" fill="#000000"> &#160;</text>
<polygon fill="#ffffff" stroke="transparent" points="263.5,-600.7005 263.5,-619.7005 326.5,-619.7005 326.5,-600.7005 263.5,-600.7005"/>
<polygon fill="none" stroke="#000000" points="263.5,-600.7005 263.5,-619.7005 326.5,-619.7005 326.5,-600.7005 263.5,-600.7005"/>
<text text-anchor="start" x="291.1105" y="-606.8005" font-family="Helvetica,sans-Serif" font-size="11.00" fill="#000000">3 rows</text>
<polygon fill="#ffffff" stroke="transparent" points="326.5,-600.7005 326.5,-619.7005 373.5,-619.7005 373.5,-600.7005 326.5,-600.7005"/>
<polygon fill="none" stroke="#000000" points="326.5,-600.7005 326.5,-619.7005 373.5,-619.7005 373.5,-600.7005 326.5,-600.7005"/>
<text text-anchor="start" x="354.9053" y="-606.8005" font-family="Helvetica,sans-Serif" font-size="11.00" fill="#000000">1 &gt;</text>
</a>
</g>
</g>
<!-- TARGET_FORMS&#45;&gt;EXPRESSION_SYSTEMS -->
<g id="edge15" class="edge">
<title>TARGET_FORMS:w&#45;&gt;EXPRESSION_SYSTEMS:e</title>
<path fill="none" stroke="#000000" d="M453.1646,-684.7707C418.6868,-674.7068 417.2212,-628.7005 373.5,-628.7005"/>
<polygon fill="#000000" stroke="#000000" points="459.5715,-685.6331 467.0197,-690.2683 463.5358,-686.1668 467.5,-686.7005 467.5,-686.7005 467.5,-686.7005 463.5358,-686.1668 467.9803,-683.1327 459.5715,-685.6331 459.5715,-685.6331"/>
<ellipse fill="none" stroke="#000000" cx="456.4001" cy="-685.2062" rx="3.2" ry="3.2"/>
</g>
<!-- CLONE_FORMS_TAGS -->
<g id="node6" class="node">
<title>CLONE_FORMS_TAGS</title>
<g id="a_node6"><a xlink:href="../../tables/CLONE_FORMS_TAGS.html" xlink:title="CLONE_FORMS_TAGS" target="_top">
<polygon fill="#ffffff" stroke="transparent" points="1268.5,-1518.2005 1268.5,-1579.2005 1430.5,-1579.2005 1430.5,-1518.2005 1268.5,-1518.2005"/>
<polygon fill="#f5f5f5" stroke="transparent" points="1268.5,-1555.7005 1268.5,-1578.7005 1430.5,-1578.7005 1430.5,-1555.7005 1268.5,-1555.7005"/>
<polygon fill="none" stroke="#000000" points="1268.5,-1555.7005 1268.5,-1578.7005 1430.5,-1578.7005 1430.5,-1555.7005 1268.5,-1555.7005"/>
<text text-anchor="start" x="1273.1083" y="-1564.8005" font-family="Helvetica,sans-Serif" font-weight="bold" font-size="11.00" fill="#000000">CLONE_FORMS_TAGS</text>
<text text-anchor="start" x="1396.0219" y="-1563.8005" font-family="Helvetica,sans-Serif" font-size="11.00" fill="#000000">[table]</text>
<polygon fill="none" stroke="#000000" points="1268.5,-1536.7005 1268.5,-1555.7005 1430.5,-1555.7005 1430.5,-1536.7005 1268.5,-1536.7005"/>
<text text-anchor="start" x="1271.5" y="-1542.8005" font-family="Helvetica,sans-Serif" font-size="11.00" fill="#000000">...</text>
<polygon fill="#ffffff" stroke="transparent" points="1268.5,-1517.7005 1268.5,-1536.7005 1334.5,-1536.7005 1334.5,-1517.7005 1268.5,-1517.7005"/>
<polygon fill="none" stroke="#000000" points="1268.5,-1517.7005 1268.5,-1536.7005 1334.5,-1536.7005 1334.5,-1517.7005 1268.5,-1517.7005"/>
<text text-anchor="start" x="1271.5" y="-1523.8005" font-family="Helvetica,sans-Serif" font-size="11.00" fill="#000000">&lt; 2</text>
<polygon fill="#ffffff" stroke="transparent" points="1334.5,-1517.7005 1334.5,-1536.7005 1395.5,-1536.7005 1395.5,-1517.7005 1334.5,-1517.7005"/>
<polygon fill="none" stroke="#000000" points="1334.5,-1517.7005 1334.5,-1536.7005 1395.5,-1536.7005 1395.5,-1517.7005 1334.5,-1517.7005"/>
<text text-anchor="start" x="1360.1105" y="-1523.8005" font-family="Helvetica,sans-Serif" font-size="11.00" fill="#000000">0 rows</text>
<polygon fill="#ffffff" stroke="transparent" points="1395.5,-1517.7005 1395.5,-1536.7005 1430.5,-1536.7005 1430.5,-1517.7005 1395.5,-1517.7005"/>
<polygon fill="none" stroke="#000000" points="1395.5,-1517.7005 1395.5,-1536.7005 1430.5,-1536.7005 1430.5,-1517.7005 1395.5,-1517.7005"/>
<text text-anchor="start" x="1421.3862" y="-1523.8005" font-family="Helvetica,sans-Serif" font-size="11.00" fill="#000000"> &#160;</text>
</a>
</g>
</g>
<!-- CLONE_FORMS_TAGS&#45;&gt;CLONE_FORMS -->
<g id="edge5" class="edge">
<title>CLONE_FORMS_TAGS:w&#45;&gt;CLONE_FORMS:e</title>
<path fill="none" stroke="#000000" d="M1253.868,-1545.7074C1162.2303,-1545.7958 1134,-1546.7005 1035.5,-1546.7005"/>
<polygon fill="#000000" stroke="#000000" points="1260.5,-1545.7043 1268.5017,-1549.3005 1264.5,-1545.7024 1268.5,-1545.7005 1268.5,-1545.7005 1268.5,-1545.7005 1264.5,-1545.7024 1268.4983,-1542.1005 1260.5,-1545.7043 1260.5,-1545.7043"/>
<ellipse fill="none" stroke="#000000" cx="1257.3" cy="-1545.7059" rx="3.2" ry="3.2"/>
</g>
<!-- TAGS -->
<g id="node7" class="node">
<title>TAGS</title>
<g id="a_node7"><a xlink:href="../../tables/TAGS.html" xlink:title="TAGS" target="_top">
<polygon fill="#ffffff" stroke="transparent" points="918.5,-1371.2005 918.5,-1498.2005 1026.5,-1498.2005 1026.5,-1371.2005 918.5,-1371.2005"/>
<polygon fill="#f5f5f5" stroke="transparent" points="918.5,-1474.7005 918.5,-1497.7005 1026.5,-1497.7005 1026.5,-1474.7005 918.5,-1474.7005"/>
<polygon fill="none" stroke="#000000" points="918.5,-1474.7005 918.5,-1497.7005 1026.5,-1497.7005 1026.5,-1474.7005 918.5,-1474.7005"/>
<text text-anchor="start" x="923.5" y="-1483.8005" font-family="Helvetica,sans-Serif" font-weight="bold" font-size="11.00" fill="#000000">TAGS</text>
<text text-anchor="start" x="991.5437" y="-1482.8005" font-family="Helvetica,sans-Serif" font-size="11.00" fill="#000000">[table]</text>
<polygon fill="none" stroke="#000000" points="918.5,-1452.7005 918.5,-1474.7005 1026.5,-1474.7005 1026.5,-1452.7005 918.5,-1452.7005"/>
<image xlink:href="../../images/primaryKeys.png" width="11px" height="12px" preserveAspectRatio="xMinYMin meet" x="923.5" y="-1469.7"/>
<text text-anchor="start" x="938.5" y="-1459.8005" font-family="Helvetica,sans-Serif" font-size="11.00" fill="#000000">ID</text>
<polygon fill="none" stroke="#000000" points="918.5,-1430.7005 918.5,-1452.7005 1026.5,-1452.7005 1026.5,-1430.7005 918.5,-1430.7005"/>
<image xlink:href="../../images/primaryKeys.png" width="11px" height="12px" preserveAspectRatio="xMinYMin meet" x="923.5" y="-1447.7"/>
<text text-anchor="start" x="938.5" y="-1437.8005" font-family="Helvetica,sans-Serif" font-size="11.00" fill="#000000">COLOR</text>
<polygon fill="none" stroke="#000000" points="918.5,-1408.7005 918.5,-1430.7005 1026.5,-1430.7005 1026.5,-1408.7005 918.5,-1408.7005"/>
<image xlink:href="../../images/primaryKeys.png" width="11px" height="12px" preserveAspectRatio="xMinYMin meet" x="923.5" y="-1425.7"/>
<text text-anchor="start" x="938.5" y="-1415.8005" font-family="Helvetica,sans-Serif" font-size="11.00" fill="#000000">TITLE</text>
<polygon fill="none" stroke="#000000" points="918.5,-1389.7005 918.5,-1408.7005 1026.5,-1408.7005 1026.5,-1389.7005 918.5,-1389.7005"/>
<text text-anchor="start" x="921.5" y="-1395.8005" font-family="Helvetica,sans-Serif" font-size="11.00" fill="#000000">...</text>
<polygon fill="#ffffff" stroke="transparent" points="918.5,-1370.7005 918.5,-1389.7005 945.5,-1389.7005 945.5,-1370.7005 918.5,-1370.7005"/>
<polygon fill="none" stroke="#000000" points="918.5,-1370.7005 918.5,-1389.7005 945.5,-1389.7005 945.5,-1370.7005 918.5,-1370.7005"/>
<text text-anchor="start" x="921.5" y="-1376.8005" font-family="Helvetica,sans-Serif" font-size="11.00" fill="#000000"> &#160;</text>
<polygon fill="#ffffff" stroke="transparent" points="945.5,-1370.7005 945.5,-1389.7005 997.5,-1389.7005 997.5,-1370.7005 945.5,-1370.7005"/>
<polygon fill="none" stroke="#000000" points="945.5,-1370.7005 945.5,-1389.7005 997.5,-1389.7005 997.5,-1370.7005 945.5,-1370.7005"/>
<text text-anchor="start" x="955.9956" y="-1376.8005" font-family="Helvetica,sans-Serif" font-size="11.00" fill="#000000">21 rows</text>
<polygon fill="#ffffff" stroke="transparent" points="997.5,-1370.7005 997.5,-1389.7005 1026.5,-1389.7005 1026.5,-1370.7005 997.5,-1370.7005"/>
<polygon fill="none" stroke="#000000" points="997.5,-1370.7005 997.5,-1389.7005 1026.5,-1389.7005 1026.5,-1370.7005 997.5,-1370.7005"/>
<text text-anchor="start" x="1007.9053" y="-1376.8005" font-family="Helvetica,sans-Serif" font-size="11.00" fill="#000000">3 &gt;</text>
</a>
</g>
</g>
<!-- CLONE_FORMS_TAGS&#45;&gt;TAGS -->
<g id="edge6" class="edge">
<title>CLONE_FORMS_TAGS:w&#45;&gt;TAGS:e</title>
<path fill="none" stroke="#000000" d="M1254.0834,-1545.2393C1153.4397,-1538.6518 1135.0718,-1463.7005 1026.5,-1463.7005"/>
<polygon fill="#000000" stroke="#000000" points="1260.5041,-1545.4447 1268.3849,-1549.2986 1264.502,-1545.5726 1268.5,-1545.7005 1268.5,-1545.7005 1268.5,-1545.7005 1264.502,-1545.5726 1268.6151,-1542.1023 1260.5041,-1545.4447 1260.5041,-1545.4447"/>
<ellipse fill="none" stroke="#000000" cx="1257.3057" cy="-1545.3423" rx="3.2" ry="3.2"/>
</g>
<!-- IN_HOUSE_ASSAYS -->
<g id="node8" class="node">
<title>IN_HOUSE_ASSAYS</title>
<g id="a_node8"><a xlink:href="../../tables/IN_HOUSE_ASSAYS.html" xlink:title="IN_HOUSE_ASSAYS" target="_top">
<polygon fill="#ffffff" stroke="transparent" points="898,-167.2005 898,-228.2005 1047,-228.2005 1047,-167.2005 898,-167.2005"/>
<polygon fill="#f5f5f5" stroke="transparent" points="898.5,-204.7005 898.5,-227.7005 1047.5,-227.7005 1047.5,-204.7005 898.5,-204.7005"/>
<polygon fill="none" stroke="#000000" points="898.5,-204.7005 898.5,-227.7005 1047.5,-227.7005 1047.5,-204.7005 898.5,-204.7005"/>
<text text-anchor="start" x="903.3233" y="-213.8005" font-family="Helvetica,sans-Serif" font-weight="bold" font-size="11.00" fill="#000000">IN_HOUSE_ASSAYS</text>
<text text-anchor="start" x="1013.0219" y="-212.8005" font-family="Helvetica,sans-Serif" font-size="11.00" fill="#000000">[table]</text>
<polygon fill="none" stroke="#000000" points="898.5,-185.7005 898.5,-204.7005 1047.5,-204.7005 1047.5,-185.7005 898.5,-185.7005"/>
<text text-anchor="start" x="901.5" y="-191.8005" font-family="Helvetica,sans-Serif" font-size="11.00" fill="#000000">...</text>
<polygon fill="#ffffff" stroke="transparent" points="898.5,-166.7005 898.5,-185.7005 950.5,-185.7005 950.5,-166.7005 898.5,-166.7005"/>
<polygon fill="none" stroke="#000000" points="898.5,-166.7005 898.5,-185.7005 950.5,-185.7005 950.5,-166.7005 898.5,-166.7005"/>
<text text-anchor="start" x="901.5" y="-172.8005" font-family="Helvetica,sans-Serif" font-size="11.00" fill="#000000">&lt; 4</text>
<polygon fill="#ffffff" stroke="transparent" points="950.5,-166.7005 950.5,-185.7005 1010.5,-185.7005 1010.5,-166.7005 950.5,-166.7005"/>
<polygon fill="none" stroke="#000000" points="950.5,-166.7005 950.5,-185.7005 1010.5,-185.7005 1010.5,-166.7005 950.5,-166.7005"/>
<text text-anchor="start" x="968.9956" y="-172.8005" font-family="Helvetica,sans-Serif" font-size="11.00" fill="#000000">51 rows</text>
<polygon fill="#ffffff" stroke="transparent" points="1010.5,-166.7005 1010.5,-185.7005 1047.5,-185.7005 1047.5,-166.7005 1010.5,-166.7005"/>
<polygon fill="none" stroke="#000000" points="1010.5,-166.7005 1010.5,-185.7005 1047.5,-185.7005 1047.5,-166.7005 1010.5,-166.7005"/>
<text text-anchor="start" x="1028.9053" y="-172.8005" font-family="Helvetica,sans-Serif" font-size="11.00" fill="#000000">1 &gt;</text>
</a>
</g>
</g>
<!-- IN_HOUSE_ASSAYS&#45;&gt;TARGET_FORMS -->
<g id="edge7" class="edge">
<title>IN_HOUSE_ASSAYS:w&#45;&gt;TARGET_FORMS:e</title>
<path fill="none" stroke="#000000" d="M883.8572,-195.0349C849.3342,-196.8042 830.8735,-206.2544 809,-238.7005 774.2516,-290.2446 830.6631,-796.7005 768.5,-796.7005"/>
<polygon fill="#000000" stroke="#000000" points="890.5021,-194.8832 898.5822,-198.2995 894.501,-194.7918 898.5,-194.7005 898.5,-194.7005 898.5,-194.7005 894.501,-194.7918 898.4178,-191.1014 890.5021,-194.8832 890.5021,-194.8832"/>
<ellipse fill="none" stroke="#000000" cx="887.3029" cy="-194.9563" rx="3.2" ry="3.2"/>
</g>
<!-- REFERENCES_TAGS -->
<g id="node10" class="node">
<title>REFERENCES_TAGS</title>
<g id="a_node10"><a xlink:href="../../tables/REFERENCES_TAGS.html" xlink:title="REFERENCES_TAGS" target="_top">
<polygon fill="#ffffff" stroke="transparent" points="1272.5,-1436.2005 1272.5,-1497.2005 1426.5,-1497.2005 1426.5,-1436.2005 1272.5,-1436.2005"/>
<polygon fill="#f5f5f5" stroke="transparent" points="1272.5,-1473.7005 1272.5,-1496.7005 1426.5,-1496.7005 1426.5,-1473.7005 1272.5,-1473.7005"/>
<polygon fill="none" stroke="#000000" points="1272.5,-1473.7005 1272.5,-1496.7005 1426.5,-1496.7005 1426.5,-1473.7005 1272.5,-1473.7005"/>
<text text-anchor="start" x="1277.3868" y="-1482.8005" font-family="Helvetica,sans-Serif" font-weight="bold" font-size="11.00" fill="#000000">REFERENCES_TAGS</text>
<text text-anchor="start" x="1392.0219" y="-1481.8005" font-family="Helvetica,sans-Serif" font-size="11.00" fill="#000000">[table]</text>
<polygon fill="none" stroke="#000000" points="1272.5,-1454.7005 1272.5,-1473.7005 1426.5,-1473.7005 1426.5,-1454.7005 1272.5,-1454.7005"/>
<text text-anchor="start" x="1275.5" y="-1460.8005" font-family="Helvetica,sans-Serif" font-size="11.00" fill="#000000">...</text>
<polygon fill="#ffffff" stroke="transparent" points="1272.5,-1435.7005 1272.5,-1454.7005 1331.5,-1454.7005 1331.5,-1435.7005 1272.5,-1435.7005"/>
<polygon fill="none" stroke="#000000" points="1272.5,-1435.7005 1272.5,-1454.7005 1331.5,-1454.7005 1331.5,-1435.7005 1272.5,-1435.7005"/>
<text text-anchor="start" x="1275.5" y="-1441.8005" font-family="Helvetica,sans-Serif" font-size="11.00" fill="#000000">&lt; 2</text>
<polygon fill="#ffffff" stroke="transparent" points="1331.5,-1435.7005 1331.5,-1454.7005 1394.5,-1454.7005 1394.5,-1435.7005 1331.5,-1435.7005"/>
<polygon fill="none" stroke="#000000" points="1331.5,-1435.7005 1331.5,-1454.7005 1394.5,-1454.7005 1394.5,-1435.7005 1331.5,-1435.7005"/>
<text text-anchor="start" x="1352.9956" y="-1441.8005" font-family="Helvetica,sans-Serif" font-size="11.00" fill="#000000">17 rows</text>
<polygon fill="#ffffff" stroke="transparent" points="1394.5,-1435.7005 1394.5,-1454.7005 1426.5,-1454.7005 1426.5,-1435.7005 1394.5,-1435.7005"/>
<polygon fill="none" stroke="#000000" points="1394.5,-1435.7005 1394.5,-1454.7005 1426.5,-1454.7005 1426.5,-1435.7005 1394.5,-1435.7005"/>
<text text-anchor="start" x="1417.3862" y="-1441.8005" font-family="Helvetica,sans-Serif" font-size="11.00" fill="#000000"> &#160;</text>
</a>
</g>
</g>
<!-- REFERENCES_TAGS&#45;&gt;TAGS -->
<g id="edge9" class="edge">
<title>REFERENCES_TAGS:w&#45;&gt;TAGS:e</title>
<path fill="none" stroke="#000000" d="M1257.9477,-1463.7005C1160.4848,-1463.7005 1130.8151,-1463.7005 1026.5,-1463.7005"/>
<polygon fill="#000000" stroke="#000000" points="1264.5,-1463.7005 1272.5,-1467.3005 1268.5,-1463.7005 1272.5,-1463.7005 1272.5,-1463.7005 1272.5,-1463.7005 1268.5,-1463.7005 1272.5,-1460.1005 1264.5,-1463.7005 1264.5,-1463.7005"/>
<ellipse fill="none" stroke="#000000" cx="1261.3" cy="-1463.7006" rx="3.2" ry="3.2"/>
</g>
<!-- SCREENING_PLANS -->
<g id="node11" class="node">
<title>SCREENING_PLANS</title>
<g id="a_node11"><a xlink:href="../../tables/SCREENING_PLANS.html" xlink:title="SCREENING_PLANS" target="_top">
<polygon fill="#ffffff" stroke="transparent" points="1274.5,-389.2005 1274.5,-450.2005 1424.5,-450.2005 1424.5,-389.2005 1274.5,-389.2005"/>
<polygon fill="#f5f5f5" stroke="transparent" points="1274.5,-426.7005 1274.5,-449.7005 1424.5,-449.7005 1424.5,-426.7005 1274.5,-426.7005"/>
<polygon fill="none" stroke="#000000" points="1274.5,-426.7005 1274.5,-449.7005 1424.5,-449.7005 1424.5,-426.7005 1274.5,-426.7005"/>
<text text-anchor="start" x="1279.2182" y="-435.8005" font-family="Helvetica,sans-Serif" font-weight="bold" font-size="11.00" fill="#000000">SCREENING_PLANS</text>
<text text-anchor="start" x="1390.0219" y="-434.8005" font-family="Helvetica,sans-Serif" font-size="11.00" fill="#000000">[table]</text>
<polygon fill="none" stroke="#000000" points="1274.5,-407.7005 1274.5,-426.7005 1424.5,-426.7005 1424.5,-407.7005 1274.5,-407.7005"/>
<text text-anchor="start" x="1277.5" y="-413.8005" font-family="Helvetica,sans-Serif" font-size="11.00" fill="#000000">...</text>
<polygon fill="#ffffff" stroke="transparent" points="1274.5,-388.7005 1274.5,-407.7005 1324.5,-407.7005 1324.5,-388.7005 1274.5,-388.7005"/>
<polygon fill="none" stroke="#000000" points="1274.5,-388.7005 1274.5,-407.7005 1324.5,-407.7005 1324.5,-388.7005 1274.5,-388.7005"/>
<text text-anchor="start" x="1277.5" y="-394.8005" font-family="Helvetica,sans-Serif" font-size="11.00" fill="#000000">&lt; 3</text>
<polygon fill="#ffffff" stroke="transparent" points="1324.5,-388.7005 1324.5,-407.7005 1388.5,-407.7005 1388.5,-388.7005 1324.5,-388.7005"/>
<polygon fill="none" stroke="#000000" points="1324.5,-388.7005 1324.5,-407.7005 1388.5,-407.7005 1388.5,-388.7005 1324.5,-388.7005"/>
<text text-anchor="start" x="1340.8807" y="-394.8005" font-family="Helvetica,sans-Serif" font-size="11.00" fill="#000000">137 rows</text>
<polygon fill="#ffffff" stroke="transparent" points="1388.5,-388.7005 1388.5,-407.7005 1424.5,-407.7005 1424.5,-388.7005 1388.5,-388.7005"/>
<polygon fill="none" stroke="#000000" points="1388.5,-388.7005 1388.5,-407.7005 1424.5,-407.7005 1424.5,-388.7005 1388.5,-388.7005"/>
<text text-anchor="start" x="1405.9053" y="-394.8005" font-family="Helvetica,sans-Serif" font-size="11.00" fill="#000000">1 &gt;</text>
</a>
</g>
</g>
<!-- SCREENING_PLANS&#45;&gt;TARGET_FORMS -->
<g id="edge11" class="edge">
<title>SCREENING_PLANS:w&#45;&gt;TARGET_FORMS:e</title>
<path fill="none" stroke="#000000" d="M1260.099,-416.444C1174.3422,-414.1467 844.5009,-397.9365 809,-430.7005 748.8661,-486.1985 850.3298,-796.7005 768.5,-796.7005"/>
<polygon fill="#000000" stroke="#000000" points="1266.5013,-416.558 1274.4359,-420.2999 1270.5006,-416.6292 1274.5,-416.7005 1274.5,-416.7005 1274.5,-416.7005 1270.5006,-416.6292 1274.5641,-413.1011 1266.5013,-416.558 1266.5013,-416.558"/>
<ellipse fill="none" stroke="#000000" cx="1263.3018" cy="-416.501" rx="3.2" ry="3.2"/>
</g>
<!-- SCREENING_PLANS&#45;&gt;TARGETS -->
<g id="edge12" class="edge">
<title>SCREENING_PLANS:w&#45;&gt;TARGETS:e</title>
<path fill="none" stroke="#000000" d="M1260.0604,-415.9795C1120.3111,-401.2084 1267.7423,-163.484 1136,-74.7005 1010.9665,9.5619 595.5197,-55.7013 459,-119.7005 287.5842,-200.0586 244.6387,-247.5047 147,-409.7005 110.6921,-470.0145 176.3992,-562.7005 106,-562.7005"/>
<polygon fill="#000000" stroke="#000000" points="1266.51,-416.3015 1274.3205,-420.296 1270.505,-416.501 1274.5,-416.7005 1274.5,-416.7005 1274.5,-416.7005 1270.505,-416.501 1274.6795,-413.105 1266.51,-416.3015 1266.51,-416.3015"/>
<ellipse fill="none" stroke="#000000" cx="1263.3139" cy="-416.1419" rx="3.2" ry="3.2"/>
</g>
<!-- SUPPLEMENTS -->
<g id="node12" class="node">
<title>SUPPLEMENTS</title>
<g id="a_node12"><a xlink:href="../../tables/SUPPLEMENTS.html" xlink:title="SUPPLEMENTS" target="_top">
<polygon fill="#ffffff" stroke="transparent" points="910.5,-769.2005 910.5,-830.2005 1034.5,-830.2005 1034.5,-769.2005 910.5,-769.2005"/>
<polygon fill="#f5f5f5" stroke="transparent" points="910.5,-806.7005 910.5,-829.7005 1034.5,-829.7005 1034.5,-806.7005 910.5,-806.7005"/>
<polygon fill="none" stroke="#000000" points="910.5,-806.7005 910.5,-829.7005 1034.5,-829.7005 1034.5,-806.7005 910.5,-806.7005"/>
<text text-anchor="start" x="915.0531" y="-815.8005" font-family="Helvetica,sans-Serif" font-weight="bold" font-size="11.00" fill="#000000">SUPPLEMENTS</text>
<text text-anchor="start" x="1000.0219" y="-814.8005" font-family="Helvetica,sans-Serif" font-size="11.00" fill="#000000">[table]</text>
<polygon fill="none" stroke="#000000" points="910.5,-787.7005 910.5,-806.7005 1034.5,-806.7005 1034.5,-787.7005 910.5,-787.7005"/>
<text text-anchor="start" x="913.5" y="-793.8005" font-family="Helvetica,sans-Serif" font-size="11.00" fill="#000000">...</text>
<polygon fill="#ffffff" stroke="transparent" points="910.5,-768.7005 910.5,-787.7005 950.5,-787.7005 950.5,-768.7005 910.5,-768.7005"/>
<polygon fill="none" stroke="#000000" points="910.5,-768.7005 910.5,-787.7005 950.5,-787.7005 950.5,-768.7005 910.5,-768.7005"/>
<text text-anchor="start" x="913.5" y="-774.8005" font-family="Helvetica,sans-Serif" font-size="11.00" fill="#000000">&lt; 1</text>
<polygon fill="#ffffff" stroke="transparent" points="950.5,-768.7005 950.5,-787.7005 1003.5,-787.7005 1003.5,-768.7005 950.5,-768.7005"/>
<polygon fill="none" stroke="#000000" points="950.5,-768.7005 950.5,-787.7005 1003.5,-787.7005 1003.5,-768.7005 950.5,-768.7005"/>
<text text-anchor="start" x="961.9956" y="-774.8005" font-family="Helvetica,sans-Serif" font-size="11.00" fill="#000000">77 rows</text>
<polygon fill="#ffffff" stroke="transparent" points="1003.5,-768.7005 1003.5,-787.7005 1034.5,-787.7005 1034.5,-768.7005 1003.5,-768.7005"/>
<polygon fill="none" stroke="#000000" points="1003.5,-768.7005 1003.5,-787.7005 1034.5,-787.7005 1034.5,-768.7005 1003.5,-768.7005"/>
<text text-anchor="start" x="1015.9053" y="-774.8005" font-family="Helvetica,sans-Serif" font-size="11.00" fill="#000000">5 &gt;</text>
</a>
</g>
</g>
<!-- SCREENING_PLANS&#45;&gt;SUPPLEMENTS -->
<g id="edge10" class="edge">
<title>SCREENING_PLANS:w&#45;&gt;SUPPLEMENTS:e</title>
<path fill="none" stroke="#000000" d="M1260.0078,-417.3569C1119.1907,-430.8144 1249.817,-647.8663 1136,-758.7005 1101.4902,-792.3059 1082.6689,-796.7005 1034.5,-796.7005"/>
<polygon fill="#000000" stroke="#000000" points="1266.5082,-417.0625 1274.6629,-420.2968 1270.5041,-416.8815 1274.5,-416.7005 1274.5,-416.7005 1274.5,-416.7005 1270.5041,-416.8815 1274.3371,-413.1042 1266.5082,-417.0625 1266.5082,-417.0625"/>
<ellipse fill="none" stroke="#000000" cx="1263.3115" cy="-417.2073" rx="3.2" ry="3.2"/>
</g>
<!-- SUPPLEMENTS&#45;&gt;TARGET_FORMS -->
<g id="edge13" class="edge">
<title>SUPPLEMENTS:w&#45;&gt;TARGET_FORMS:e</title>
<path fill="none" stroke="#000000" d="M895.872,-796.7005C844.4818,-796.7005 826.434,-796.7005 768.5,-796.7005"/>
<polygon fill="#000000" stroke="#000000" points="902.5,-796.7005 910.5,-800.3005 906.5,-796.7005 910.5,-796.7005 910.5,-796.7005 910.5,-796.7005 906.5,-796.7005 910.5,-793.1005 902.5,-796.7005 902.5,-796.7005"/>
<ellipse fill="none" stroke="#000000" cx="899.3" cy="-796.7006" rx="3.2" ry="3.2"/>
</g>
<!-- TARGET_FORM_COMMENTS -->
<g id="node13" class="node">
<title>TARGET_FORM_COMMENTS</title>
<g id="a_node13"><a xlink:href="../../tables/TARGET_FORM_COMMENTS.html" xlink:title="TARGET_FORM_COMMENTS" target="_top">
<polygon fill="#ffffff" stroke="transparent" points="874.5,-1289.2005 874.5,-1350.2005 1070.5,-1350.2005 1070.5,-1289.2005 874.5,-1289.2005"/>
<polygon fill="#f5f5f5" stroke="transparent" points="874.5,-1326.7005 874.5,-1349.7005 1070.5,-1349.7005 1070.5,-1326.7005 874.5,-1326.7005"/>
<polygon fill="none" stroke="#000000" points="874.5,-1326.7005 874.5,-1349.7005 1070.5,-1349.7005 1070.5,-1326.7005 874.5,-1326.7005"/>
<text text-anchor="start" x="879.3135" y="-1335.8005" font-family="Helvetica,sans-Serif" font-weight="bold" font-size="11.00" fill="#000000">TARGET_FORM_COMMENTS</text>
<text text-anchor="start" x="1036.0219" y="-1334.8005" font-family="Helvetica,sans-Serif" font-size="11.00" fill="#000000">[table]</text>
<polygon fill="none" stroke="#000000" points="874.5,-1307.7005 874.5,-1326.7005 1070.5,-1326.7005 1070.5,-1307.7005 874.5,-1307.7005"/>
<text text-anchor="start" x="877.5" y="-1313.8005" font-family="Helvetica,sans-Serif" font-size="11.00" fill="#000000">...</text>
<polygon fill="#ffffff" stroke="transparent" points="874.5,-1288.7005 874.5,-1307.7005 957.5,-1307.7005 957.5,-1288.7005 874.5,-1288.7005"/>
<polygon fill="none" stroke="#000000" points="874.5,-1288.7005 874.5,-1307.7005 957.5,-1307.7005 957.5,-1288.7005 874.5,-1288.7005"/>
<text text-anchor="start" x="877.5" y="-1294.8005" font-family="Helvetica,sans-Serif" font-size="11.00" fill="#000000">&lt; 2</text>
<polygon fill="#ffffff" stroke="transparent" points="957.5,-1288.7005 957.5,-1307.7005 1026.5,-1307.7005 1026.5,-1288.7005 957.5,-1288.7005"/>
<polygon fill="none" stroke="#000000" points="957.5,-1288.7005 957.5,-1307.7005 1026.5,-1307.7005 1026.5,-1288.7005 957.5,-1288.7005"/>
<text text-anchor="start" x="991.1105" y="-1294.8005" font-family="Helvetica,sans-Serif" font-size="11.00" fill="#000000">3 rows</text>
<polygon fill="#ffffff" stroke="transparent" points="1026.5,-1288.7005 1026.5,-1307.7005 1070.5,-1307.7005 1070.5,-1288.7005 1026.5,-1288.7005"/>
<polygon fill="none" stroke="#000000" points="1026.5,-1288.7005 1026.5,-1307.7005 1070.5,-1307.7005 1070.5,-1288.7005 1026.5,-1288.7005"/>
<text text-anchor="start" x="1061.3862" y="-1294.8005" font-family="Helvetica,sans-Serif" font-size="11.00" fill="#000000"> &#160;</text>
</a>
</g>
</g>
<!-- TARGET_FORM_COMMENTS&#45;&gt;TARGET_FORMS -->
<g id="edge14" class="edge">
<title>TARGET_FORM_COMMENTS:w&#45;&gt;TARGET_FORMS:e</title>
<path fill="none" stroke="#000000" d="M860.0838,-1315.9644C836.4178,-1313.2507 824.1912,-1302.6923 809,-1278.7005 780.2488,-1233.2932 822.2443,-796.7005 768.5,-796.7005"/>
<polygon fill="#000000" stroke="#000000" points="866.5104,-1316.2925 874.3164,-1320.2958 870.5052,-1316.4965 874.5,-1316.7005 874.5,-1316.7005 874.5,-1316.7005 870.5052,-1316.4965 874.6836,-1313.1052 866.5104,-1316.2925 866.5104,-1316.2925"/>
<ellipse fill="none" stroke="#000000" cx="863.3146" cy="-1316.1293" rx="3.2" ry="3.2"/>
</g>
<!-- TARGET_FORMS_ISOFORM_ANNOTATIONS -->
<g id="node15" class="node">
<title>TARGET_FORMS_ISOFORM_ANNOTATIONS</title>
<g id="a_node15"><a xlink:href="../../tables/TARGET_FORMS_ISOFORM_ANNOTATIONS.html" xlink:title="TARGET_FORMS_ISOFORM_ANNOTATIONS" target="_top">
<polygon fill="#ffffff" stroke="transparent" points="834.5,-1207.2005 834.5,-1268.2005 1110.5,-1268.2005 1110.5,-1207.2005 834.5,-1207.2005"/>
<polygon fill="#f5f5f5" stroke="transparent" points="834.5,-1244.7005 834.5,-1267.7005 1110.5,-1267.7005 1110.5,-1244.7005 834.5,-1244.7005"/>
<polygon fill="none" stroke="#000000" points="834.5,-1244.7005 834.5,-1267.7005 1110.5,-1267.7005 1110.5,-1244.7005 834.5,-1244.7005"/>
<text text-anchor="start" x="839.2801" y="-1253.8005" font-family="Helvetica,sans-Serif" font-weight="bold" font-size="11.00" fill="#000000">TARGET_FORMS_ISOFORM_ANNOTATIONS</text>
<text text-anchor="start" x="1076.0219" y="-1252.8005" font-family="Helvetica,sans-Serif" font-size="11.00" fill="#000000">[table]</text>
<polygon fill="none" stroke="#000000" points="834.5,-1225.7005 834.5,-1244.7005 1110.5,-1244.7005 1110.5,-1225.7005 834.5,-1225.7005"/>
<text text-anchor="start" x="837.5" y="-1231.8005" font-family="Helvetica,sans-Serif" font-size="11.00" fill="#000000">...</text>
<polygon fill="#ffffff" stroke="transparent" points="834.5,-1206.7005 834.5,-1225.7005 957.5,-1225.7005 957.5,-1206.7005 834.5,-1206.7005"/>
<polygon fill="none" stroke="#000000" points="834.5,-1206.7005 834.5,-1225.7005 957.5,-1225.7005 957.5,-1206.7005 834.5,-1206.7005"/>
<text text-anchor="start" x="837.5" y="-1212.8005" font-family="Helvetica,sans-Serif" font-size="11.00" fill="#000000">&lt; 2</text>
<polygon fill="#ffffff" stroke="transparent" points="957.5,-1206.7005 957.5,-1225.7005 1046.5,-1225.7005 1046.5,-1206.7005 957.5,-1206.7005"/>
<polygon fill="none" stroke="#000000" points="957.5,-1206.7005 957.5,-1225.7005 1046.5,-1225.7005 1046.5,-1206.7005 957.5,-1206.7005"/>
<text text-anchor="start" x="1011.1105" y="-1212.8005" font-family="Helvetica,sans-Serif" font-size="11.00" fill="#000000">4 rows</text>
<polygon fill="#ffffff" stroke="transparent" points="1046.5,-1206.7005 1046.5,-1225.7005 1110.5,-1225.7005 1110.5,-1206.7005 1046.5,-1206.7005"/>
<polygon fill="none" stroke="#000000" points="1046.5,-1206.7005 1046.5,-1225.7005 1110.5,-1225.7005 1110.5,-1206.7005 1046.5,-1206.7005"/>
<text text-anchor="start" x="1101.3862" y="-1212.8005" font-family="Helvetica,sans-Serif" font-size="11.00" fill="#000000"> &#160;</text>
</a>
</g>
</g>
<!-- TARGET_FORMS_ISOFORM_ANNOTATIONS&#45;&gt;TARGET_FORMS -->
<g id="edge20" class="edge">
<title>TARGET_FORMS_ISOFORM_ANNOTATIONS:w&#45;&gt;TARGET_FORMS:e</title>
<path fill="none" stroke="#000000" d="M820.3333,-1230.9139C749.6954,-1188.1042 861.5491,-796.7005 768.5,-796.7005"/>
<polygon fill="#000000" stroke="#000000" points="826.7713,-1232.6347 833.5704,-1238.1784 830.6357,-1233.6676 834.5,-1234.7005 834.5,-1234.7005 834.5,-1234.7005 830.6357,-1233.6676 835.4296,-1231.2226 826.7713,-1232.6347 826.7713,-1232.6347"/>
<ellipse fill="none" stroke="#000000" cx="823.6798" cy="-1231.8084" rx="3.2" ry="3.2"/>
</g>
<!-- TARGET_FORMS_ISOFORM_DOMAINS -->
<g id="node16" class="node">
<title>TARGET_FORMS_ISOFORM_DOMAINS</title>
<g id="a_node16"><a xlink:href="../../tables/TARGET_FORMS_ISOFORM_DOMAINS.html" xlink:title="TARGET_FORMS_ISOFORM_DOMAINS" target="_top">
<polygon fill="#ffffff" stroke="transparent" points="848.5,-1125.2005 848.5,-1186.2005 1096.5,-1186.2005 1096.5,-1125.2005 848.5,-1125.2005"/>
<polygon fill="#f5f5f5" stroke="transparent" points="848.5,-1162.7005 848.5,-1185.7005 1096.5,-1185.7005 1096.5,-1162.7005 848.5,-1162.7005"/>
<polygon fill="none" stroke="#000000" points="848.5,-1162.7005 848.5,-1185.7005 1096.5,-1185.7005 1096.5,-1162.7005 848.5,-1162.7005"/>
<text text-anchor="start" x="853.3359" y="-1171.8005" font-family="Helvetica,sans-Serif" font-weight="bold" font-size="11.00" fill="#000000">TARGET_FORMS_ISOFORM_DOMAINS</text>
<text text-anchor="start" x="1062.0219" y="-1170.8005" font-family="Helvetica,sans-Serif" font-size="11.00" fill="#000000">[table]</text>
<polygon fill="none" stroke="#000000" points="848.5,-1143.7005 848.5,-1162.7005 1096.5,-1162.7005 1096.5,-1143.7005 848.5,-1143.7005"/>
<text text-anchor="start" x="851.5" y="-1149.8005" font-family="Helvetica,sans-Serif" font-size="11.00" fill="#000000">...</text>
<polygon fill="#ffffff" stroke="transparent" points="848.5,-1124.7005 848.5,-1143.7005 951.5,-1143.7005 951.5,-1124.7005 848.5,-1124.7005"/>
<polygon fill="none" stroke="#000000" points="848.5,-1124.7005 848.5,-1143.7005 951.5,-1143.7005 951.5,-1124.7005 848.5,-1124.7005"/>
<text text-anchor="start" x="851.5" y="-1130.8005" font-family="Helvetica,sans-Serif" font-size="11.00" fill="#000000">&lt; 2</text>
<polygon fill="#ffffff" stroke="transparent" points="951.5,-1124.7005 951.5,-1143.7005 1042.5,-1143.7005 1042.5,-1124.7005 951.5,-1124.7005"/>
<polygon fill="none" stroke="#000000" points="951.5,-1124.7005 951.5,-1143.7005 1042.5,-1143.7005 1042.5,-1124.7005 951.5,-1124.7005"/>
<text text-anchor="start" x="994.8807" y="-1130.8005" font-family="Helvetica,sans-Serif" font-size="11.00" fill="#000000">725 rows</text>
<polygon fill="#ffffff" stroke="transparent" points="1042.5,-1124.7005 1042.5,-1143.7005 1096.5,-1143.7005 1096.5,-1124.7005 1042.5,-1124.7005"/>
<polygon fill="none" stroke="#000000" points="1042.5,-1124.7005 1042.5,-1143.7005 1096.5,-1143.7005 1096.5,-1124.7005 1042.5,-1124.7005"/>
<text text-anchor="start" x="1087.3862" y="-1130.8005" font-family="Helvetica,sans-Serif" font-size="11.00" fill="#000000"> &#160;</text>
</a>
</g>
</g>
<!-- TARGET_FORMS_ISOFORM_DOMAINS&#45;&gt;TARGET_FORMS -->
<g id="edge21" class="edge">
<title>TARGET_FORMS_ISOFORM_DOMAINS:w&#45;&gt;TARGET_FORMS:e</title>
<path fill="none" stroke="#000000" d="M833.966,-1149.9959C821.7098,-1144.5127 817.29,-1131.1951 809,-1114.7005 777.0101,-1051.0497 839.7375,-796.7005 768.5,-796.7005"/>
<polygon fill="#000000" stroke="#000000" points="840.635,-1151.2369 847.8414,-1156.2397 844.5675,-1151.9687 848.5,-1152.7005 848.5,-1152.7005 848.5,-1152.7005 844.5675,-1151.9687 849.1586,-1149.1612 840.635,-1151.2369 840.635,-1151.2369"/>
<ellipse fill="none" stroke="#000000" cx="837.489" cy="-1150.6514" rx="3.2" ry="3.2"/>
</g>
<!-- TARGET_FORMS_ISOFORM_MOTIFS -->
<g id="node17" class="node">
<title>TARGET_FORMS_ISOFORM_MOTIFS</title>
<g id="a_node17"><a xlink:href="../../tables/TARGET_FORMS_ISOFORM_MOTIFS.html" xlink:title="TARGET_FORMS_ISOFORM_MOTIFS" target="_top">
<polygon fill="#ffffff" stroke="transparent" points="853.5,-1043.2005 853.5,-1104.2005 1091.5,-1104.2005 1091.5,-1043.2005 853.5,-1043.2005"/>
<polygon fill="#f5f5f5" stroke="transparent" points="853.5,-1080.7005 853.5,-1103.7005 1091.5,-1103.7005 1091.5,-1080.7005 853.5,-1080.7005"/>
<polygon fill="none" stroke="#000000" points="853.5,-1080.7005 853.5,-1103.7005 1091.5,-1103.7005 1091.5,-1080.7005 853.5,-1080.7005"/>
<text text-anchor="start" x="858.2249" y="-1089.8005" font-family="Helvetica,sans-Serif" font-weight="bold" font-size="11.00" fill="#000000">TARGET_FORMS_ISOFORM_MOTIFS</text>
<text text-anchor="start" x="1057.0219" y="-1088.8005" font-family="Helvetica,sans-Serif" font-size="11.00" fill="#000000">[table]</text>
<polygon fill="none" stroke="#000000" points="853.5,-1061.7005 853.5,-1080.7005 1091.5,-1080.7005 1091.5,-1061.7005 853.5,-1061.7005"/>
<text text-anchor="start" x="856.5" y="-1067.8005" font-family="Helvetica,sans-Serif" font-size="11.00" fill="#000000">...</text>
<polygon fill="#ffffff" stroke="transparent" points="853.5,-1042.7005 853.5,-1061.7005 951.5,-1061.7005 951.5,-1042.7005 853.5,-1042.7005"/>
<polygon fill="none" stroke="#000000" points="853.5,-1042.7005 853.5,-1061.7005 951.5,-1061.7005 951.5,-1042.7005 853.5,-1042.7005"/>
<text text-anchor="start" x="856.5" y="-1048.8005" font-family="Helvetica,sans-Serif" font-size="11.00" fill="#000000">&lt; 2</text>
<polygon fill="#ffffff" stroke="transparent" points="951.5,-1042.7005 951.5,-1061.7005 1040.5,-1061.7005 1040.5,-1042.7005 951.5,-1042.7005"/>
<polygon fill="none" stroke="#000000" points="951.5,-1042.7005 951.5,-1061.7005 1040.5,-1061.7005 1040.5,-1042.7005 951.5,-1042.7005"/>
<text text-anchor="start" x="992.8807" y="-1048.8005" font-family="Helvetica,sans-Serif" font-size="11.00" fill="#000000">221 rows</text>
<polygon fill="#ffffff" stroke="transparent" points="1040.5,-1042.7005 1040.5,-1061.7005 1091.5,-1061.7005 1091.5,-1042.7005 1040.5,-1042.7005"/>
<polygon fill="none" stroke="#000000" points="1040.5,-1042.7005 1040.5,-1061.7005 1091.5,-1061.7005 1091.5,-1042.7005 1040.5,-1042.7005"/>
<text text-anchor="start" x="1082.3862" y="-1048.8005" font-family="Helvetica,sans-Serif" font-size="11.00" fill="#000000"> &#160;</text>
</a>
</g>
</g>
<!-- TARGET_FORMS_ISOFORM_MOTIFS&#45;&gt;TARGET_FORMS -->
<g id="edge22" class="edge">
<title>TARGET_FORMS_ISOFORM_MOTIFS:w&#45;&gt;TARGET_FORMS:e</title>
<path fill="none" stroke="#000000" d="M839.0372,-1068.4051C824.063,-1062.8231 819.1665,-1047.5985 809,-1028.7005 784.2055,-982.6114 820.8352,-796.7005 768.5,-796.7005"/>
<polygon fill="#000000" stroke="#000000" points="845.5989,-1069.4465 852.9357,-1074.256 849.5494,-1070.0735 853.5,-1070.7005 853.5,-1070.7005 853.5,-1070.7005 849.5494,-1070.0735 854.0643,-1067.145 845.5989,-1069.4465 845.5989,-1069.4465"/>
<ellipse fill="none" stroke="#000000" cx="842.4384" cy="-1068.9449" rx="3.2" ry="3.2"/>
</g>
<!-- TARGET_FORMS_ISOFORM_REGIONS -->
<g id="node18" class="node">
<title>TARGET_FORMS_ISOFORM_REGIONS</title>
<g id="a_node18"><a xlink:href="../../tables/TARGET_FORMS_ISOFORM_REGIONS.html" xlink:title="TARGET_FORMS_ISOFORM_REGIONS" target="_top">
<polygon fill="#ffffff" stroke="transparent" points="849,-933.2005 849,-994.2005 1096,-994.2005 1096,-933.2005 849,-933.2005"/>
<polygon fill="#f5f5f5" stroke="transparent" points="849.5,-970.7005 849.5,-993.7005 1096.5,-993.7005 1096.5,-970.7005 849.5,-970.7005"/>
<polygon fill="none" stroke="#000000" points="849.5,-970.7005 849.5,-993.7005 1096.5,-993.7005 1096.5,-970.7005 849.5,-970.7005"/>
<text text-anchor="start" x="854.1384" y="-979.8005" font-family="Helvetica,sans-Serif" font-weight="bold" font-size="11.00" fill="#000000">TARGET_FORMS_ISOFORM_REGIONS</text>
<text text-anchor="start" x="1062.0219" y="-978.8005" font-family="Helvetica,sans-Serif" font-size="11.00" fill="#000000">[table]</text>
<polygon fill="none" stroke="#000000" points="849.5,-951.7005 849.5,-970.7005 1096.5,-970.7005 1096.5,-951.7005 849.5,-951.7005"/>
<text text-anchor="start" x="852.5" y="-957.8005" font-family="Helvetica,sans-Serif" font-size="11.00" fill="#000000">...</text>
<polygon fill="#ffffff" stroke="transparent" points="849.5,-932.7005 849.5,-951.7005 952.5,-951.7005 952.5,-932.7005 849.5,-932.7005"/>
<polygon fill="none" stroke="#000000" points="849.5,-932.7005 849.5,-951.7005 952.5,-951.7005 952.5,-932.7005 849.5,-932.7005"/>
<text text-anchor="start" x="852.5" y="-938.8005" font-family="Helvetica,sans-Serif" font-size="11.00" fill="#000000">&lt; 2</text>
<polygon fill="#ffffff" stroke="transparent" points="952.5,-932.7005 952.5,-951.7005 1043.5,-951.7005 1043.5,-932.7005 952.5,-932.7005"/>
<polygon fill="none" stroke="#000000" points="952.5,-932.7005 952.5,-951.7005 1043.5,-951.7005 1043.5,-932.7005 952.5,-932.7005"/>
<text text-anchor="start" x="995.8807" y="-938.8005" font-family="Helvetica,sans-Serif" font-size="11.00" fill="#000000">153 rows</text>
<polygon fill="#ffffff" stroke="transparent" points="1043.5,-932.7005 1043.5,-951.7005 1096.5,-951.7005 1096.5,-932.7005 1043.5,-932.7005"/>
<polygon fill="none" stroke="#000000" points="1043.5,-932.7005 1043.5,-951.7005 1096.5,-951.7005 1096.5,-932.7005 1043.5,-932.7005"/>
<text text-anchor="start" x="1087.3862" y="-938.8005" font-family="Helvetica,sans-Serif" font-size="11.00" fill="#000000"> &#160;</text>
</a>
</g>
</g>
<!-- TARGET_FORMS_ISOFORM_REGIONS&#45;&gt;TARGET_FORMS -->
<g id="edge23" class="edge">
<title>TARGET_FORMS_ISOFORM_REGIONS:w&#45;&gt;TARGET_FORMS:e</title>
<path fill="none" stroke="#000000" d="M834.985,-957.8749C822.9278,-952.1795 819.0009,-938.5072 809,-922.7005 777.5498,-872.9925 827.3218,-796.7005 768.5,-796.7005"/>
<polygon fill="#000000" stroke="#000000" points="841.6474,-959.1718 848.8121,-964.2342 845.5737,-959.9361 849.5,-960.7005 849.5,-960.7005 849.5,-960.7005 845.5737,-959.9361 850.1879,-957.1668 841.6474,-959.1718 841.6474,-959.1718"/>
<ellipse fill="none" stroke="#000000" cx="838.5064" cy="-958.5603" rx="3.2" ry="3.2"/>
</g>
<!-- TARGET_FORMS_ISOFORM_VARIANTS -->
<g id="node19" class="node">
<title>TARGET_FORMS_ISOFORM_VARIANTS</title>
<g id="a_node19"><a xlink:href="../../tables/TARGET_FORMS_ISOFORM_VARIANTS.html" xlink:title="TARGET_FORMS_ISOFORM_VARIANTS" target="_top">
<polygon fill="#ffffff" stroke="transparent" points="846.5,-851.2005 846.5,-912.2005 1098.5,-912.2005 1098.5,-851.2005 846.5,-851.2005"/>
<polygon fill="#f5f5f5" stroke="transparent" points="846.5,-888.7005 846.5,-911.7005 1098.5,-911.7005 1098.5,-888.7005 846.5,-888.7005"/>
<polygon fill="none" stroke="#000000" points="846.5,-888.7005 846.5,-911.7005 1098.5,-911.7005 1098.5,-888.7005 846.5,-888.7005"/>
<text text-anchor="start" x="851.4995" y="-897.8005" font-family="Helvetica,sans-Serif" font-weight="bold" font-size="11.00" fill="#000000">TARGET_FORMS_ISOFORM_VARIANTS</text>
<text text-anchor="start" x="1064.0219" y="-896.8005" font-family="Helvetica,sans-Serif" font-size="11.00" fill="#000000">[table]</text>
<polygon fill="none" stroke="#000000" points="846.5,-869.7005 846.5,-888.7005 1098.5,-888.7005 1098.5,-869.7005 846.5,-869.7005"/>
<text text-anchor="start" x="849.5" y="-875.8005" font-family="Helvetica,sans-Serif" font-size="11.00" fill="#000000">...</text>
<polygon fill="#ffffff" stroke="transparent" points="846.5,-850.7005 846.5,-869.7005 951.5,-869.7005 951.5,-850.7005 846.5,-850.7005"/>
<polygon fill="none" stroke="#000000" points="846.5,-850.7005 846.5,-869.7005 951.5,-869.7005 951.5,-850.7005 846.5,-850.7005"/>
<text text-anchor="start" x="849.5" y="-856.8005" font-family="Helvetica,sans-Serif" font-size="11.00" fill="#000000">&lt; 2</text>
<polygon fill="#ffffff" stroke="transparent" points="951.5,-850.7005 951.5,-869.7005 1043.5,-869.7005 1043.5,-850.7005 951.5,-850.7005"/>
<polygon fill="none" stroke="#000000" points="951.5,-850.7005 951.5,-869.7005 1043.5,-869.7005 1043.5,-850.7005 951.5,-850.7005"/>
<text text-anchor="start" x="995.8807" y="-856.8005" font-family="Helvetica,sans-Serif" font-size="11.00" fill="#000000">108 rows</text>
<polygon fill="#ffffff" stroke="transparent" points="1043.5,-850.7005 1043.5,-869.7005 1098.5,-869.7005 1098.5,-850.7005 1043.5,-850.7005"/>
<polygon fill="none" stroke="#000000" points="1043.5,-850.7005 1043.5,-869.7005 1098.5,-869.7005 1098.5,-850.7005 1043.5,-850.7005"/>
<text text-anchor="start" x="1089.3862" y="-856.8005" font-family="Helvetica,sans-Serif" font-size="11.00" fill="#000000"> &#160;</text>
</a>
</g>
</g>
<!-- TARGET_FORMS_ISOFORM_VARIANTS&#45;&gt;TARGET_FORMS -->
<g id="edge24" class="edge">
<title>TARGET_FORMS_ISOFORM_VARIANTS:w&#45;&gt;TARGET_FORMS:e</title>
<path fill="none" stroke="#000000" d="M832.0007,-875.7821C800.3855,-861.1746 813.1009,-796.7005 768.5,-796.7005"/>
<polygon fill="#000000" stroke="#000000" points="838.6573,-877.1219 845.7896,-882.2297 842.5786,-877.9112 846.5,-878.7005 846.5,-878.7005 846.5,-878.7005 842.5786,-877.9112 847.2104,-875.1713 838.6573,-877.1219 838.6573,-877.1219"/>
<ellipse fill="none" stroke="#000000" cx="835.5202" cy="-876.4904" rx="3.2" ry="3.2"/>
</g>
<!-- TARGET_FORMS_PROTEIN_CLEAVAGE_SITES -->
<g id="node20" class="node">
<title>TARGET_FORMS_PROTEIN_CLEAVAGE_SITES</title>
<g id="a_node20"><a xlink:href="../../tables/TARGET_FORMS_PROTEIN_CLEAVAGE_SITES.html" xlink:title="TARGET_FORMS_PROTEIN_CLEAVAGE_SITES" target="_top">
<polygon fill="#ffffff" stroke="transparent" points="827,-687.2005 827,-748.2005 1118,-748.2005 1118,-687.2005 827,-687.2005"/>
<polygon fill="#f5f5f5" stroke="transparent" points="827.5,-724.7005 827.5,-747.7005 1118.5,-747.7005 1118.5,-724.7005 827.5,-724.7005"/>
<polygon fill="none" stroke="#000000" points="827.5,-724.7005 827.5,-747.7005 1118.5,-747.7005 1118.5,-724.7005 827.5,-724.7005"/>
<text text-anchor="start" x="832.1258" y="-733.8005" font-family="Helvetica,sans-Serif" font-weight="bold" font-size="11.00" fill="#000000">TARGET_FORMS_PROTEIN_CLEAVAGE_SITES</text>
<text text-anchor="start" x="1084.0219" y="-732.8005" font-family="Helvetica,sans-Serif" font-size="11.00" fill="#000000">[table]</text>
<polygon fill="none" stroke="#000000" points="827.5,-705.7005 827.5,-724.7005 1118.5,-724.7005 1118.5,-705.7005 827.5,-705.7005"/>
<text text-anchor="start" x="830.5" y="-711.8005" font-family="Helvetica,sans-Serif" font-size="11.00" fill="#000000">...</text>
<polygon fill="#ffffff" stroke="transparent" points="827.5,-686.7005 827.5,-705.7005 952.5,-705.7005 952.5,-686.7005 827.5,-686.7005"/>
<polygon fill="none" stroke="#000000" points="827.5,-686.7005 827.5,-705.7005 952.5,-705.7005 952.5,-686.7005 827.5,-686.7005"/>
<text text-anchor="start" x="830.5" y="-692.8005" font-family="Helvetica,sans-Serif" font-size="11.00" fill="#000000">&lt; 2</text>
<polygon fill="#ffffff" stroke="transparent" points="952.5,-686.7005 952.5,-705.7005 1054.5,-705.7005 1054.5,-686.7005 952.5,-686.7005"/>
<polygon fill="none" stroke="#000000" points="952.5,-686.7005 952.5,-705.7005 1054.5,-705.7005 1054.5,-686.7005 952.5,-686.7005"/>
<text text-anchor="start" x="1006.8807" y="-692.8005" font-family="Helvetica,sans-Serif" font-size="11.00" fill="#000000">112 rows</text>
<polygon fill="#ffffff" stroke="transparent" points="1054.5,-686.7005 1054.5,-705.7005 1118.5,-705.7005 1118.5,-686.7005 1054.5,-686.7005"/>
<polygon fill="none" stroke="#000000" points="1054.5,-686.7005 1054.5,-705.7005 1118.5,-705.7005 1118.5,-686.7005 1054.5,-686.7005"/>
<text text-anchor="start" x="1109.3862" y="-692.8005" font-family="Helvetica,sans-Serif" font-size="11.00" fill="#000000"> &#160;</text>
</a>
</g>
</g>
<!-- TARGET_FORMS_PROTEIN_CLEAVAGE_SITES&#45;&gt;TARGET_FORMS -->
<g id="edge25" class="edge">
<title>TARGET_FORMS_PROTEIN_CLEAVAGE_SITES:w&#45;&gt;TARGET_FORMS:e</title>
<path fill="none" stroke="#000000" d="M813.5863,-718.4369C789.284,-734.4785 807.6101,-796.7005 768.5,-796.7005"/>
<polygon fill="#000000" stroke="#000000" points="819.7737,-716.7754 828.4337,-718.1773 823.6369,-715.7379 827.5,-714.7005 827.5,-714.7005 827.5,-714.7005 823.6369,-715.7379 826.5663,-711.2237 819.7737,-716.7754 819.7737,-716.7754"/>
<ellipse fill="none" stroke="#000000" cx="816.6832" cy="-717.6053" rx="3.2" ry="3.2"/>
</g>
<!-- TARGET_FORMS_PROTEIN_FUSION_SEQUENCES -->
<g id="node21" class="node">
<title>TARGET_FORMS_PROTEIN_FUSION_SEQUENCES</title>
<g id="a_node21"><a xlink:href="../../tables/TARGET_FORMS_PROTEIN_FUSION_SEQUENCES.html" xlink:title="TARGET_FORMS_PROTEIN_FUSION_SEQUENCES" target="_top">
<polygon fill="#ffffff" stroke="transparent" points="817,-605.2005 817,-666.2005 1128,-666.2005 1128,-605.2005 817,-605.2005"/>
<polygon fill="#f5f5f5" stroke="transparent" points="817.5,-642.7005 817.5,-665.7005 1128.5,-665.7005 1128.5,-642.7005 817.5,-642.7005"/>
<polygon fill="none" stroke="#000000" points="817.5,-642.7005 817.5,-665.7005 1128.5,-665.7005 1128.5,-642.7005 817.5,-642.7005"/>
<text text-anchor="start" x="822.3589" y="-651.8005" font-family="Helvetica,sans-Serif" font-weight="bold" font-size="11.00" fill="#000000">TARGET_FORMS_PROTEIN_FUSION_SEQUENCES</text>
<text text-anchor="start" x="1094.0219" y="-650.8005" font-family="Helvetica,sans-Serif" font-size="11.00" fill="#000000">[table]</text>
<polygon fill="none" stroke="#000000" points="817.5,-623.7005 817.5,-642.7005 1128.5,-642.7005 1128.5,-623.7005 817.5,-623.7005"/>
<text text-anchor="start" x="820.5" y="-629.8005" font-family="Helvetica,sans-Serif" font-size="11.00" fill="#000000">...</text>
<polygon fill="#ffffff" stroke="transparent" points="817.5,-604.7005 817.5,-623.7005 952.5,-623.7005 952.5,-604.7005 817.5,-604.7005"/>
<polygon fill="none" stroke="#000000" points="817.5,-604.7005 817.5,-623.7005 952.5,-623.7005 952.5,-604.7005 817.5,-604.7005"/>
<text text-anchor="start" x="820.5" y="-610.8005" font-family="Helvetica,sans-Serif" font-size="11.00" fill="#000000">&lt; 2</text>
<polygon fill="#ffffff" stroke="transparent" points="952.5,-604.7005 952.5,-623.7005 1059.5,-623.7005 1059.5,-604.7005 952.5,-604.7005"/>
<polygon fill="none" stroke="#000000" points="952.5,-604.7005 952.5,-623.7005 1059.5,-623.7005 1059.5,-604.7005 952.5,-604.7005"/>
<text text-anchor="start" x="1011.8807" y="-610.8005" font-family="Helvetica,sans-Serif" font-size="11.00" fill="#000000">110 rows</text>
<polygon fill="#ffffff" stroke="transparent" points="1059.5,-604.7005 1059.5,-623.7005 1128.5,-623.7005 1128.5,-604.7005 1059.5,-604.7005"/>
<polygon fill="none" stroke="#000000" points="1059.5,-604.7005 1059.5,-623.7005 1128.5,-623.7005 1128.5,-604.7005 1059.5,-604.7005"/>
<text text-anchor="start" x="1119.3862" y="-610.8005" font-family="Helvetica,sans-Serif" font-size="11.00" fill="#000000"> &#160;</text>
</a>
</g>
</g>
<!-- TARGET_FORMS_PROTEIN_FUSION_SEQUENCES&#45;&gt;TARGET_FORMS -->
<g id="edge26" class="edge">
<title>TARGET_FORMS_PROTEIN_FUSION_SEQUENCES:w&#45;&gt;TARGET_FORMS:e</title>
<path fill="none" stroke="#000000" d="M803.0773,-635.4102C756.101,-656.7333 838.7781,-796.7005 768.5,-796.7005"/>
<polygon fill="#000000" stroke="#000000" points="809.6376,-634.1777 818.1647,-636.2386 813.5688,-633.4391 817.5,-632.7005 817.5,-632.7005 817.5,-632.7005 813.5688,-633.4391 816.8353,-629.1624 809.6376,-634.1777 809.6376,-634.1777"/>
<ellipse fill="none" stroke="#000000" cx="806.4926" cy="-634.7686" rx="3.2" ry="3.2"/>
</g>
<!-- TARGET_FORMS_PROTEIN_GROUPS -->
<g id="node22" class="node">
<title>TARGET_FORMS_PROTEIN_GROUPS</title>
<g id="a_node22"><a xlink:href="../../tables/TARGET_FORMS_PROTEIN_GROUPS.html" xlink:title="TARGET_FORMS_PROTEIN_GROUPS" target="_top">
<polygon fill="#ffffff" stroke="transparent" points="851.5,-523.2005 851.5,-584.2005 1093.5,-584.2005 1093.5,-523.2005 851.5,-523.2005"/>
<polygon fill="#f5f5f5" stroke="transparent" points="851.5,-560.7005 851.5,-583.7005 1093.5,-583.7005 1093.5,-560.7005 851.5,-560.7005"/>
<polygon fill="none" stroke="#000000" points="851.5,-560.7005 851.5,-583.7005 1093.5,-583.7005 1093.5,-560.7005 851.5,-560.7005"/>
<text text-anchor="start" x="856.3879" y="-569.8005" font-family="Helvetica,sans-Serif" font-weight="bold" font-size="11.00" fill="#000000">TARGET_FORMS_PROTEIN_GROUPS</text>
<text text-anchor="start" x="1059.0219" y="-568.8005" font-family="Helvetica,sans-Serif" font-size="11.00" fill="#000000">[table]</text>
<polygon fill="none" stroke="#000000" points="851.5,-541.7005 851.5,-560.7005 1093.5,-560.7005 1093.5,-541.7005 851.5,-541.7005"/>
<text text-anchor="start" x="854.5" y="-547.8005" font-family="Helvetica,sans-Serif" font-size="11.00" fill="#000000">...</text>
<polygon fill="#ffffff" stroke="transparent" points="851.5,-522.7005 851.5,-541.7005 954.5,-541.7005 954.5,-522.7005 851.5,-522.7005"/>
<polygon fill="none" stroke="#000000" points="851.5,-522.7005 851.5,-541.7005 954.5,-541.7005 954.5,-522.7005 851.5,-522.7005"/>
<text text-anchor="start" x="854.5" y="-528.8005" font-family="Helvetica,sans-Serif" font-size="11.00" fill="#000000">&lt; 2</text>
<polygon fill="#ffffff" stroke="transparent" points="954.5,-522.7005 954.5,-541.7005 1039.5,-541.7005 1039.5,-522.7005 954.5,-522.7005"/>
<polygon fill="none" stroke="#000000" points="954.5,-522.7005 954.5,-541.7005 1039.5,-541.7005 1039.5,-522.7005 954.5,-522.7005"/>
<text text-anchor="start" x="997.9956" y="-528.8005" font-family="Helvetica,sans-Serif" font-size="11.00" fill="#000000">17 rows</text>
<polygon fill="#ffffff" stroke="transparent" points="1039.5,-522.7005 1039.5,-541.7005 1093.5,-541.7005 1093.5,-522.7005 1039.5,-522.7005"/>
<polygon fill="none" stroke="#000000" points="1039.5,-522.7005 1039.5,-541.7005 1093.5,-541.7005 1093.5,-522.7005 1039.5,-522.7005"/>
<text text-anchor="start" x="1084.3862" y="-528.8005" font-family="Helvetica,sans-Serif" font-size="11.00" fill="#000000"> &#160;</text>
</a>
</g>
</g>
<!-- TARGET_FORMS_PROTEIN_GROUPS&#45;&gt;TARGET_FORMS -->
<g id="edge27" class="edge">
<title>TARGET_FORMS_PROTEIN_GROUPS:w&#45;&gt;TARGET_FORMS:e</title>
<path fill="none" stroke="#000000" d="M837.2423,-553.2117C822.7365,-559.2898 818.9631,-575.7009 809,-594.7005 787.7384,-635.2462 814.2822,-796.7005 768.5,-796.7005"/>
<polygon fill="#000000" stroke="#000000" points="843.6213,-552.0882 852.1245,-554.2459 847.5606,-551.3944 851.5,-550.7005 851.5,-550.7005 851.5,-550.7005 847.5606,-551.3944 850.8755,-547.1551 843.6213,-552.0882 843.6213,-552.0882"/>
<ellipse fill="none" stroke="#000000" cx="840.4698" cy="-552.6433" rx="3.2" ry="3.2"/>
</g>
<!-- TARGET_FORMS_PROTEIN_LINKERS -->
<g id="node23" class="node">
<title>TARGET_FORMS_PROTEIN_LINKERS</title>
<g id="a_node23"><a xlink:href="../../tables/TARGET_FORMS_PROTEIN_LINKERS.html" xlink:title="TARGET_FORMS_PROTEIN_LINKERS" target="_top">
<polygon fill="#ffffff" stroke="transparent" points="852,-441.2005 852,-502.2005 1093,-502.2005 1093,-441.2005 852,-441.2005"/>
<polygon fill="#f5f5f5" stroke="transparent" points="852.5,-478.7005 852.5,-501.7005 1093.5,-501.7005 1093.5,-478.7005 852.5,-478.7005"/>
<polygon fill="none" stroke="#000000" points="852.5,-478.7005 852.5,-501.7005 1093.5,-501.7005 1093.5,-478.7005 852.5,-478.7005"/>
<text text-anchor="start" x="857.1909" y="-487.8005" font-family="Helvetica,sans-Serif" font-weight="bold" font-size="11.00" fill="#000000">TARGET_FORMS_PROTEIN_LINKERS</text>
<text text-anchor="start" x="1059.0219" y="-486.8005" font-family="Helvetica,sans-Serif" font-size="11.00" fill="#000000">[table]</text>
<polygon fill="none" stroke="#000000" points="852.5,-459.7005 852.5,-478.7005 1093.5,-478.7005 1093.5,-459.7005 852.5,-459.7005"/>
<text text-anchor="start" x="855.5" y="-465.8005" font-family="Helvetica,sans-Serif" font-size="11.00" fill="#000000">...</text>
<polygon fill="#ffffff" stroke="transparent" points="852.5,-440.7005 852.5,-459.7005 952.5,-459.7005 952.5,-440.7005 852.5,-440.7005"/>
<polygon fill="none" stroke="#000000" points="852.5,-440.7005 852.5,-459.7005 952.5,-459.7005 952.5,-440.7005 852.5,-440.7005"/>
<text text-anchor="start" x="855.5" y="-446.8005" font-family="Helvetica,sans-Serif" font-size="11.00" fill="#000000">&lt; 2</text>
<polygon fill="#ffffff" stroke="transparent" points="952.5,-440.7005 952.5,-459.7005 1041.5,-459.7005 1041.5,-440.7005 952.5,-440.7005"/>
<polygon fill="none" stroke="#000000" points="952.5,-440.7005 952.5,-459.7005 1041.5,-459.7005 1041.5,-440.7005 952.5,-440.7005"/>
<text text-anchor="start" x="993.8807" y="-446.8005" font-family="Helvetica,sans-Serif" font-size="11.00" fill="#000000">149 rows</text>
<polygon fill="#ffffff" stroke="transparent" points="1041.5,-440.7005 1041.5,-459.7005 1093.5,-459.7005 1093.5,-440.7005 1041.5,-440.7005"/>
<polygon fill="none" stroke="#000000" points="1041.5,-440.7005 1041.5,-459.7005 1093.5,-459.7005 1093.5,-440.7005 1041.5,-440.7005"/>
<text text-anchor="start" x="1084.3862" y="-446.8005" font-family="Helvetica,sans-Serif" font-size="11.00" fill="#000000"> &#160;</text>
</a>
</g>
</g>
<!-- TARGET_FORMS_PROTEIN_LINKERS&#45;&gt;TARGET_FORMS -->
<g id="edge28" class="edge">
<title>TARGET_FORMS_PROTEIN_LINKERS:w&#45;&gt;TARGET_FORMS:e</title>
<path fill="none" stroke="#000000" d="M837.9629,-471.1534C823.0319,-477.1054 818.646,-493.264 809,-512.7005 780.6604,-569.8046 832.2496,-796.7005 768.5,-796.7005"/>
<polygon fill="#000000" stroke="#000000" points="844.6115,-470.0316 853.099,-472.2503 848.5558,-469.366 852.5,-468.7005 852.5,-468.7005 852.5,-468.7005 848.5558,-469.366 851.901,-465.1507 844.6115,-470.0316 844.6115,-470.0316"/>
<ellipse fill="none" stroke="#000000" cx="841.4561" cy="-470.564" rx="3.2" ry="3.2"/>
</g>
<!-- TARGET_FORMS_PROTEIN_TAGS -->
<g id="node24" class="node">
<title>TARGET_FORMS_PROTEIN_TAGS</title>
<g id="a_node24"><a xlink:href="../../tables/TARGET_FORMS_PROTEIN_TAGS.html" xlink:title="TARGET_FORMS_PROTEIN_TAGS" target="_top">
<polygon fill="#ffffff" stroke="transparent" points="860.5,-331.2005 860.5,-392.2005 1084.5,-392.2005 1084.5,-331.2005 860.5,-331.2005"/>
<polygon fill="#f5f5f5" stroke="transparent" points="860.5,-368.7005 860.5,-391.7005 1084.5,-391.7005 1084.5,-368.7005 860.5,-368.7005"/>
<polygon fill="none" stroke="#000000" points="860.5,-368.7005 860.5,-391.7005 1084.5,-391.7005 1084.5,-368.7005 860.5,-368.7005"/>
<text text-anchor="start" x="865.2473" y="-377.8005" font-family="Helvetica,sans-Serif" font-weight="bold" font-size="11.00" fill="#000000">TARGET_FORMS_PROTEIN_TAGS</text>
<text text-anchor="start" x="1050.0219" y="-376.8005" font-family="Helvetica,sans-Serif" font-size="11.00" fill="#000000">[table]</text>
<polygon fill="none" stroke="#000000" points="860.5,-349.7005 860.5,-368.7005 1084.5,-368.7005 1084.5,-349.7005 860.5,-349.7005"/>
<text text-anchor="start" x="863.5" y="-355.8005" font-family="Helvetica,sans-Serif" font-size="11.00" fill="#000000">...</text>
<polygon fill="#ffffff" stroke="transparent" points="860.5,-330.7005 860.5,-349.7005 951.5,-349.7005 951.5,-330.7005 860.5,-330.7005"/>
<polygon fill="none" stroke="#000000" points="860.5,-330.7005 860.5,-349.7005 951.5,-349.7005 951.5,-330.7005 860.5,-330.7005"/>
<text text-anchor="start" x="863.5" y="-336.8005" font-family="Helvetica,sans-Serif" font-size="11.00" fill="#000000">&lt; 2</text>
<polygon fill="#ffffff" stroke="transparent" points="951.5,-330.7005 951.5,-349.7005 1036.5,-349.7005 1036.5,-330.7005 951.5,-330.7005"/>
<polygon fill="none" stroke="#000000" points="951.5,-330.7005 951.5,-349.7005 1036.5,-349.7005 1036.5,-330.7005 951.5,-330.7005"/>
<text text-anchor="start" x="988.8807" y="-336.8005" font-family="Helvetica,sans-Serif" font-size="11.00" fill="#000000">232 rows</text>
<polygon fill="#ffffff" stroke="transparent" points="1036.5,-330.7005 1036.5,-349.7005 1084.5,-349.7005 1084.5,-330.7005 1036.5,-330.7005"/>
<polygon fill="none" stroke="#000000" points="1036.5,-330.7005 1036.5,-349.7005 1084.5,-349.7005 1084.5,-330.7005 1036.5,-330.7005"/>
<text text-anchor="start" x="1075.3862" y="-336.8005" font-family="Helvetica,sans-Serif" font-size="11.00" fill="#000000"> &#160;</text>
</a>
</g>
</g>
<!-- TARGET_FORMS_PROTEIN_TAGS&#45;&gt;TARGET_FORMS -->
<g id="edge29" class="edge">
<title>TARGET_FORMS_PROTEIN_TAGS:w&#45;&gt;TARGET_FORMS:e</title>
<path fill="none" stroke="#000000" d="M846.142,-360.4886C826.7714,-365.9764 820.4956,-383.6152 809,-406.7005 789.5801,-445.6991 812.0664,-796.7005 768.5,-796.7005"/>
<polygon fill="#000000" stroke="#000000" points="852.5613,-359.6892 860.9449,-362.2729 856.5307,-359.1948 860.5,-358.7005 860.5,-358.7005 860.5,-358.7005 856.5307,-359.1948 860.0551,-355.1281 852.5613,-359.6892 852.5613,-359.6892"/>
<ellipse fill="none" stroke="#000000" cx="849.3859" cy="-360.0847" rx="3.2" ry="3.2"/>
</g>
<!-- TARGET_FORMS_REFERENCES -->
<g id="node25" class="node">
<title>TARGET_FORMS_REFERENCES</title>
<g id="a_node25"><a xlink:href="../../tables/TARGET_FORMS_REFERENCES.html" xlink:title="TARGET_FORMS_REFERENCES" target="_top">
<polygon fill="#ffffff" stroke="transparent" points="865.5,-249.2005 865.5,-310.2005 1079.5,-310.2005 1079.5,-249.2005 865.5,-249.2005"/>
<polygon fill="#f5f5f5" stroke="transparent" points="865.5,-286.7005 865.5,-309.7005 1079.5,-309.7005 1079.5,-286.7005 865.5,-286.7005"/>
<polygon fill="none" stroke="#000000" points="865.5,-286.7005 865.5,-309.7005 1079.5,-309.7005 1079.5,-286.7005 865.5,-286.7005"/>
<text text-anchor="start" x="870.1412" y="-295.8005" font-family="Helvetica,sans-Serif" font-weight="bold" font-size="11.00" fill="#000000">TARGET_FORMS_REFERENCES</text>
<text text-anchor="start" x="1045.0219" y="-294.8005" font-family="Helvetica,sans-Serif" font-size="11.00" fill="#000000">[table]</text>
<polygon fill="none" stroke="#000000" points="865.5,-267.7005 865.5,-286.7005 1079.5,-286.7005 1079.5,-267.7005 865.5,-267.7005"/>
<text text-anchor="start" x="868.5" y="-273.8005" font-family="Helvetica,sans-Serif" font-size="11.00" fill="#000000">...</text>
<polygon fill="#ffffff" stroke="transparent" points="865.5,-248.7005 865.5,-267.7005 951.5,-267.7005 951.5,-248.7005 865.5,-248.7005"/>
<polygon fill="none" stroke="#000000" points="865.5,-248.7005 865.5,-267.7005 951.5,-267.7005 951.5,-248.7005 865.5,-248.7005"/>
<text text-anchor="start" x="868.5" y="-254.8005" font-family="Helvetica,sans-Serif" font-size="11.00" fill="#000000">&lt; 2</text>
<polygon fill="#ffffff" stroke="transparent" points="951.5,-248.7005 951.5,-267.7005 1034.5,-267.7005 1034.5,-248.7005 951.5,-248.7005"/>
<polygon fill="none" stroke="#000000" points="951.5,-248.7005 951.5,-267.7005 1034.5,-267.7005 1034.5,-248.7005 951.5,-248.7005"/>
<text text-anchor="start" x="986.8807" y="-254.8005" font-family="Helvetica,sans-Serif" font-size="11.00" fill="#000000">105 rows</text>
<polygon fill="#ffffff" stroke="transparent" points="1034.5,-248.7005 1034.5,-267.7005 1079.5,-267.7005 1079.5,-248.7005 1034.5,-248.7005"/>
<polygon fill="none" stroke="#000000" points="1034.5,-248.7005 1034.5,-267.7005 1079.5,-267.7005 1079.5,-248.7005 1034.5,-248.7005"/>
<text text-anchor="start" x="1070.3862" y="-254.8005" font-family="Helvetica,sans-Serif" font-size="11.00" fill="#000000"> &#160;</text>
</a>
</g>
</g>
<!-- TARGET_FORMS_REFERENCES&#45;&gt;TARGET_FORMS -->
<g id="edge30" class="edge">
<title>TARGET_FORMS_REFERENCES:w&#45;&gt;TARGET_FORMS:e</title>
<path fill="none" stroke="#000000" d="M850.9257,-278.0999C830.2401,-282.5616 821.5671,-297.5323 809,-320.7005 783.6915,-367.3584 821.58,-796.7005 768.5,-796.7005"/>
<polygon fill="#000000" stroke="#000000" points="857.5366,-277.4651 865.8441,-280.284 861.5183,-277.0828 865.5,-276.7005 865.5,-276.7005 865.5,-276.7005 861.5183,-277.0828 865.1559,-273.117 857.5366,-277.4651 857.5366,-277.4651"/>
<ellipse fill="none" stroke="#000000" cx="854.3513" cy="-277.771" rx="3.2" ry="3.2"/>
</g>
<!-- TARGET_FORMS_TAGS -->
<g id="node26" class="node">
<title>TARGET_FORMS_TAGS</title>
<g id="a_node26"><a xlink:href="../../tables/TARGET_FORMS_TAGS.html" xlink:title="TARGET_FORMS_TAGS" target="_top">
<polygon fill="#ffffff" stroke="transparent" points="1177,-1078.7005 1177,-1300.7005 1522,-1300.7005 1522,-1078.7005 1177,-1078.7005"/>
<polygon fill="#f5f5f5" stroke="transparent" points="1179.5,-1275.7005 1179.5,-1298.7005 1520.5,-1298.7005 1520.5,-1275.7005 1179.5,-1275.7005"/>
<polygon fill="none" stroke="#000000" points="1179.5,-1275.7005 1179.5,-1298.7005 1520.5,-1298.7005 1520.5,-1275.7005 1179.5,-1275.7005"/>
<text text-anchor="start" x="1184.5" y="-1284.8005" font-family="Helvetica,sans-Serif" font-weight="bold" font-size="11.00" fill="#000000">TARGET_FORMS_TAGS</text>
<text text-anchor="start" x="1485.5437" y="-1283.8005" font-family="Helvetica,sans-Serif" font-size="11.00" fill="#000000">[table]</text>
<polygon fill="none" stroke="#000000" points="1179.5,-1253.7005 1179.5,-1275.7005 1349.5,-1275.7005 1349.5,-1253.7005 1179.5,-1253.7005"/>
<image xlink:href="../../images/primaryKeys.png" width="11px" height="12px" preserveAspectRatio="xMinYMin meet" x="1184.5" y="-1270.7"/>
<text text-anchor="start" x="1199.5" y="-1260.8005" font-family="Helvetica,sans-Serif" font-size="11.00" fill="#000000">ID</text>
<polygon fill="none" stroke="#000000" points="1349.5,-1253.7005 1349.5,-1275.7005 1520.5,-1275.7005 1520.5,-1253.7005 1349.5,-1253.7005"/>
<text text-anchor="start" x="1352.5" y="-1261.4005" font-family="Helvetica,sans-Serif" font-size="11.00" fill="#000000">number[19]</text>
<polygon fill="none" stroke="#000000" points="1179.5,-1231.7005 1179.5,-1253.7005 1349.5,-1253.7005 1349.5,-1231.7005 1179.5,-1231.7005"/>
<text text-anchor="start" x="1199.5" y="-1238.8005" font-family="Helvetica,sans-Serif" font-size="11.00" fill="#000000">CREATED_AT</text>
<polygon fill="none" stroke="#000000" points="1349.5,-1231.7005 1349.5,-1253.7005 1520.5,-1253.7005 1520.5,-1231.7005 1349.5,-1231.7005"/>
<text text-anchor="start" x="1352.4896" y="-1239.4005" font-family="Helvetica,sans-Serif" font-size="11.00" fill="#000000">timestamp(6) with time zone[13,6]</text>
<polygon fill="none" stroke="#000000" points="1179.5,-1209.7005 1179.5,-1231.7005 1349.5,-1231.7005 1349.5,-1209.7005 1179.5,-1209.7005"/>
<text text-anchor="start" x="1199.5" y="-1216.8005" font-family="Helvetica,sans-Serif" font-size="11.00" fill="#000000">CREATED_BY</text>
<polygon fill="none" stroke="#000000" points="1349.5,-1209.7005 1349.5,-1231.7005 1520.5,-1231.7005 1520.5,-1209.7005 1349.5,-1209.7005"/>
<text text-anchor="start" x="1352.5" y="-1217.4005" font-family="Helvetica,sans-Serif" font-size="11.00" fill="#000000">number[19]</text>
<polygon fill="none" stroke="#000000" points="1179.5,-1187.7005 1179.5,-1209.7005 1349.5,-1209.7005 1349.5,-1187.7005 1179.5,-1187.7005"/>
<text text-anchor="start" x="1199.5" y="-1194.8005" font-family="Helvetica,sans-Serif" font-size="11.00" fill="#000000">UPDATED_AT</text>
<polygon fill="none" stroke="#000000" points="1349.5,-1187.7005 1349.5,-1209.7005 1520.5,-1209.7005 1520.5,-1187.7005 1349.5,-1187.7005"/>
<text text-anchor="start" x="1352.4896" y="-1195.4005" font-family="Helvetica,sans-Serif" font-size="11.00" fill="#000000">timestamp(6) with time zone[13,6]</text>
<polygon fill="none" stroke="#000000" points="1179.5,-1165.7005 1179.5,-1187.7005 1349.5,-1187.7005 1349.5,-1165.7005 1179.5,-1165.7005"/>
<text text-anchor="start" x="1199.5" y="-1172.8005" font-family="Helvetica,sans-Serif" font-size="11.00" fill="#000000">UPDATED_BY</text>
<polygon fill="none" stroke="#000000" points="1349.5,-1165.7005 1349.5,-1187.7005 1520.5,-1187.7005 1520.5,-1165.7005 1349.5,-1165.7005"/>
<text text-anchor="start" x="1352.5" y="-1173.4005" font-family="Helvetica,sans-Serif" font-size="11.00" fill="#000000">number[19]</text>
<polygon fill="none" stroke="#000000" points="1179.5,-1143.7005 1179.5,-1165.7005 1349.5,-1165.7005 1349.5,-1143.7005 1179.5,-1143.7005"/>
<image xlink:href="../../images/foreignKeys.png" width="11px" height="12px" preserveAspectRatio="xMinYMin meet" x="1184.5" y="-1160.7"/>
<text text-anchor="start" x="1199.5" y="-1150.8005" font-family="Helvetica,sans-Serif" font-size="11.00" fill="#000000">TAG_ID</text>
<polygon fill="none" stroke="#000000" points="1349.5,-1143.7005 1349.5,-1165.7005 1520.5,-1165.7005 1520.5,-1143.7005 1349.5,-1143.7005"/>
<text text-anchor="start" x="1352.5" y="-1151.4005" font-family="Helvetica,sans-Serif" font-size="11.00" fill="#000000">number[19]</text>
<polygon fill="none" stroke="#000000" points="1179.5,-1121.7005 1179.5,-1143.7005 1349.5,-1143.7005 1349.5,-1121.7005 1179.5,-1121.7005"/>
<image xlink:href="../../images/foreignKeys.png" width="11px" height="12px" preserveAspectRatio="xMinYMin meet" x="1184.5" y="-1138.7"/>
<text text-anchor="start" x="1199.5" y="-1128.8005" font-family="Helvetica,sans-Serif" font-size="11.00" fill="#000000">TARGET_FORM_ID</text>
<polygon fill="none" stroke="#000000" points="1349.5,-1121.7005 1349.5,-1143.7005 1520.5,-1143.7005 1520.5,-1121.7005 1349.5,-1121.7005"/>
<text text-anchor="start" x="1352.5" y="-1129.4005" font-family="Helvetica,sans-Serif" font-size="11.00" fill="#000000">number[19]</text>
<polygon fill="none" stroke="#000000" points="1179.5,-1099.7005 1179.5,-1121.7005 1349.5,-1121.7005 1349.5,-1099.7005 1179.5,-1099.7005"/>
<text text-anchor="start" x="1199.5" y="-1106.8005" font-family="Helvetica,sans-Serif" font-size="11.00" fill="#000000">CARTOON_ORDER</text>
<polygon fill="none" stroke="#000000" points="1349.5,-1099.7005 1349.5,-1121.7005 1520.5,-1121.7005 1520.5,-1099.7005 1349.5,-1099.7005"/>
<text text-anchor="start" x="1352.5" y="-1107.4005" font-family="Helvetica,sans-Serif" font-size="11.00" fill="#000000">number[2]</text>
<polygon fill="#ffffff" stroke="transparent" points="1179.5,-1080.7005 1179.5,-1099.7005 1255.5,-1099.7005 1255.5,-1080.7005 1179.5,-1080.7005"/>
<polygon fill="none" stroke="#000000" points="1179.5,-1080.7005 1179.5,-1099.7005 1255.5,-1099.7005 1255.5,-1080.7005 1179.5,-1080.7005"/>
<text text-anchor="start" x="1182.5" y="-1086.8005" font-family="Helvetica,sans-Serif" font-size="11.00" fill="#000000">&lt; 2</text>
<polygon fill="#ffffff" stroke="transparent" points="1255.5,-1080.7005 1255.5,-1099.7005 1349.5,-1099.7005 1349.5,-1080.7005 1255.5,-1080.7005"/>
<polygon fill="none" stroke="#000000" points="1255.5,-1080.7005 1255.5,-1099.7005 1349.5,-1099.7005 1349.5,-1080.7005 1255.5,-1080.7005"/>
<text text-anchor="start" x="1314.1105" y="-1086.8005" font-family="Helvetica,sans-Serif" font-size="11.00" fill="#000000">8 rows</text>
<polygon fill="#ffffff" stroke="transparent" points="1349.5,-1080.7005 1349.5,-1099.7005 1520.5,-1099.7005 1520.5,-1080.7005 1349.5,-1080.7005"/>
<polygon fill="none" stroke="#000000" points="1349.5,-1080.7005 1349.5,-1099.7005 1520.5,-1099.7005 1520.5,-1080.7005 1349.5,-1080.7005"/>
<text text-anchor="start" x="1501.9053" y="-1086.8005" font-family="Helvetica,sans-Serif" font-size="11.00" fill="#000000">0 &gt;</text>
<polygon fill="none" stroke="#000000" stroke-width="2" points="1178,-1079.7005 1178,-1299.7005 1521,-1299.7005 1521,-1079.7005 1178,-1079.7005"/>
</a>
</g>
</g>
<!-- TARGET_FORMS_TAGS&#45;&gt;TARGET_FORMS -->
<g id="edge32" class="edge">
<title>TARGET_FORMS_TAGS:w&#45;&gt;TARGET_FORMS:e</title>
<path fill="none" stroke="#000000" d="M1165.3299,-1129.5634C1140.8076,-1115.4487 1170.4428,-1057.4434 1136,-1032.7005 1076.7671,-990.149 863.2523,-1053.4431 809,-1004.7005 738.942,-941.7573 862.6805,-796.7005 768.5,-796.7005"/>
<polygon fill="#000000" stroke="#000000" points="1171.6891,-1130.9712 1178.7218,-1136.2154 1175.5946,-1131.8359 1179.5,-1132.7005 1179.5,-1132.7005 1179.5,-1132.7005 1175.5946,-1131.8359 1180.2782,-1129.1856 1171.6891,-1130.9712 1171.6891,-1130.9712"/>
<ellipse fill="none" stroke="#000000" cx="1168.5648" cy="-1130.2795" rx="3.2" ry="3.2"/>
</g>
<!-- TARGET_FORMS_TAGS&#45;&gt;TAGS -->
<g id="edge31" class="edge">
<title>TARGET_FORMS_TAGS:w&#45;&gt;TAGS:e</title>
<path fill="none" stroke="#000000" d="M1164.9365,-1155.9484C1096.6796,-1169.1346 1179.1613,-1283.907 1136,-1360.7005 1103.2641,-1418.9449 1093.3135,-1463.7005 1026.5,-1463.7005"/>
<polygon fill="#000000" stroke="#000000" points="1171.5292,-1155.3835 1179.8074,-1158.2873 1175.5146,-1155.042 1179.5,-1154.7005 1179.5,-1154.7005 1179.5,-1154.7005 1175.5146,-1155.042 1179.1926,-1151.1136 1171.5292,-1155.3835 1171.5292,-1155.3835"/>
<ellipse fill="none" stroke="#000000" cx="1168.3409" cy="-1155.6567" rx="3.2" ry="3.2"/>
</g>
<!-- TRACER_SYNTHESIS_REQUESTS -->
<g id="node27" class="node">
<title>TRACER_SYNTHESIS_REQUESTS</title>
<g id="a_node27"><a xlink:href="../../tables/TRACER_SYNTHESIS_REQUESTS.html" xlink:title="TRACER_SYNTHESIS_REQUESTS" target="_top">
<polygon fill="#ffffff" stroke="transparent" points="861,-85.2005 861,-146.2005 1084,-146.2005 1084,-85.2005 861,-85.2005"/>
<polygon fill="#f5f5f5" stroke="transparent" points="861.5,-122.7005 861.5,-145.7005 1084.5,-145.7005 1084.5,-122.7005 861.5,-122.7005"/>
<polygon fill="none" stroke="#000000" points="861.5,-122.7005 861.5,-145.7005 1084.5,-145.7005 1084.5,-122.7005 861.5,-122.7005"/>
<text text-anchor="start" x="866.3578" y="-131.8005" font-family="Helvetica,sans-Serif" font-weight="bold" font-size="11.00" fill="#000000">TRACER_SYNTHESIS_REQUESTS</text>
<text text-anchor="start" x="1050.0219" y="-130.8005" font-family="Helvetica,sans-Serif" font-size="11.00" fill="#000000">[table]</text>
<polygon fill="none" stroke="#000000" points="861.5,-103.7005 861.5,-122.7005 1084.5,-122.7005 1084.5,-103.7005 861.5,-103.7005"/>
<text text-anchor="start" x="864.5" y="-109.8005" font-family="Helvetica,sans-Serif" font-size="11.00" fill="#000000">...</text>
<polygon fill="#ffffff" stroke="transparent" points="861.5,-84.7005 861.5,-103.7005 953.5,-103.7005 953.5,-84.7005 861.5,-84.7005"/>
<polygon fill="none" stroke="#000000" points="861.5,-84.7005 861.5,-103.7005 953.5,-103.7005 953.5,-84.7005 861.5,-84.7005"/>
<text text-anchor="start" x="864.5" y="-90.8005" font-family="Helvetica,sans-Serif" font-size="11.00" fill="#000000">&lt; 12</text>
<polygon fill="#ffffff" stroke="transparent" points="953.5,-84.7005 953.5,-103.7005 1030.5,-103.7005 1030.5,-84.7005 953.5,-84.7005"/>
<polygon fill="none" stroke="#000000" points="953.5,-84.7005 953.5,-103.7005 1030.5,-103.7005 1030.5,-84.7005 953.5,-84.7005"/>
<text text-anchor="start" x="988.9956" y="-90.8005" font-family="Helvetica,sans-Serif" font-size="11.00" fill="#000000">21 rows</text>
<polygon fill="#ffffff" stroke="transparent" points="1030.5,-84.7005 1030.5,-103.7005 1084.5,-103.7005 1084.5,-84.7005 1030.5,-84.7005"/>
<polygon fill="none" stroke="#000000" points="1030.5,-84.7005 1030.5,-103.7005 1084.5,-103.7005 1084.5,-84.7005 1030.5,-84.7005"/>
<text text-anchor="start" x="1065.9053" y="-90.8005" font-family="Helvetica,sans-Serif" font-size="11.00" fill="#000000">2 &gt;</text>
</a>
</g>
</g>
<!-- TRACER_SYNTHESIS_REQUESTS&#45;&gt;TARGET_FORMS -->
<g id="edge33" class="edge">
<title>TRACER_SYNTHESIS_REQUESTS:w&#45;&gt;TARGET_FORMS:e</title>
<path fill="none" stroke="#000000" d="M847.0721,-114.2932C827.8919,-119.0833 820.2708,-134.4145 809,-156.7005 776.8431,-220.2849 839.7534,-796.7005 768.5,-796.7005"/>
<polygon fill="#000000" stroke="#000000" points="853.5483,-113.5783 861.895,-116.2787 857.5242,-113.1394 861.5,-112.7005 861.5,-112.7005 861.5,-112.7005 857.5242,-113.1394 861.105,-109.1222 853.5483,-113.5783 853.5483,-113.5783"/>
<ellipse fill="none" stroke="#000000" cx="850.3676" cy="-113.9295" rx="3.2" ry="3.2"/>
</g>
<!-- TRACER_SYNTHESIS_REQUESTS&#45;&gt;TARGETS -->
<g id="edge34" class="edge">
<title>TRACER_SYNTHESIS_REQUESTS:w&#45;&gt;TARGETS:e</title>
<path fill="none" stroke="#000000" d="M847.0935,-112.908C471.2585,-123.8368 491.962,-562.7005 106,-562.7005"/>
<polygon fill="#000000" stroke="#000000" points="853.5008,-112.8158 861.5519,-116.3001 857.5004,-112.7581 861.5,-112.7005 861.5,-112.7005 861.5,-112.7005 857.5004,-112.7581 861.4481,-109.1009 853.5008,-112.8158 853.5008,-112.8158"/>
<ellipse fill="none" stroke="#000000" cx="850.3012" cy="-112.8619" rx="3.2" ry="3.2"/>
</g>
</g>
</svg>
