<?xml version="1.0" encoding="UTF-8" standalone="no"?>
<!DOCTYPE svg PUBLIC "-//W3C//DTD SVG 1.1//EN"
 "http://www.w3.org/Graphics/SVG/1.1/DTD/svg11.dtd">
<!-- Generated by graphviz version 2.40.1 (20161225.0304)
 -->
<!-- Title: twoDegreesRelationshipsDiagram Pages: 1 -->
<svg width="1398pt" height="884pt"
 viewBox="0.00 0.00 1398.00 883.69" xmlns="http://www.w3.org/2000/svg" xmlns:xlink="http://www.w3.org/1999/xlink">
<g id="graph0" class="graph" transform="scale(1 1) rotate(0) translate(4 879.6928)">
<title>twoDegreesRelationshipsDiagram</title>
<polygon fill="#ffffff" stroke="transparent" points="-4,4 -4,-879.6928 1394,-879.6928 1394,4 -4,4"/>
<text text-anchor="middle" x="72.4936" y="-7.3" font-family="Helvetica,sans-Serif" font-size="11.00" fill="#000000">Generated by SchemaSpy</text>
<!-- ISOFORMS -->
<g id="node1" class="node">
<title>ISOFORMS</title>
<g id="a_node1"><a xlink:href="../../tables/ISOFORMS.html" xlink:title="ISOFORMS" target="_top">
<polygon fill="#ffffff" stroke="transparent" points="674,-533.7 674,-594.7 775,-594.7 775,-533.7 674,-533.7"/>
<polygon fill="#f5f5f5" stroke="transparent" points="674.5,-571.2 674.5,-594.2 775.5,-594.2 775.5,-571.2 674.5,-571.2"/>
<polygon fill="none" stroke="#000000" points="674.5,-571.2 674.5,-594.2 775.5,-594.2 775.5,-571.2 674.5,-571.2"/>
<text text-anchor="start" x="679.1674" y="-580.3" font-family="Helvetica,sans-Serif" font-weight="bold" font-size="11.00" fill="#000000">ISOFORMS</text>
<text text-anchor="start" x="741.0219" y="-579.3" font-family="Helvetica,sans-Serif" font-size="11.00" fill="#000000">[table]</text>
<polygon fill="none" stroke="#000000" points="674.5,-552.2 674.5,-571.2 775.5,-571.2 775.5,-552.2 674.5,-552.2"/>
<text text-anchor="start" x="677.5" y="-558.3" font-family="Helvetica,sans-Serif" font-size="11.00" fill="#000000">...</text>
<polygon fill="#ffffff" stroke="transparent" points="674.5,-533.2 674.5,-552.2 696.5,-552.2 696.5,-533.2 674.5,-533.2"/>
<polygon fill="none" stroke="#000000" points="674.5,-533.2 674.5,-552.2 696.5,-552.2 696.5,-533.2 674.5,-533.2"/>
<text text-anchor="start" x="677.5" y="-539.3" font-family="Helvetica,sans-Serif" font-size="11.00" fill="#000000">&lt; 1</text>
<polygon fill="#ffffff" stroke="transparent" points="696.5,-533.2 696.5,-552.2 747.5,-552.2 747.5,-533.2 696.5,-533.2"/>
<polygon fill="none" stroke="#000000" points="696.5,-533.2 696.5,-552.2 747.5,-552.2 747.5,-533.2 696.5,-533.2"/>
<text text-anchor="start" x="699.8807" y="-539.3" font-family="Helvetica,sans-Serif" font-size="11.00" fill="#000000">519 rows</text>
<polygon fill="#ffffff" stroke="transparent" points="747.5,-533.2 747.5,-552.2 775.5,-552.2 775.5,-533.2 747.5,-533.2"/>
<polygon fill="none" stroke="#000000" points="747.5,-533.2 747.5,-552.2 775.5,-552.2 775.5,-533.2 747.5,-533.2"/>
<text text-anchor="start" x="750.7904" y="-539.3" font-family="Helvetica,sans-Serif" font-size="11.00" fill="#000000">10 &gt;</text>
</a>
</g>
</g>
<!-- TARGETS -->
<g id="node2" class="node">
<title>TARGETS</title>
<g id="a_node2"><a xlink:href="../../tables/TARGETS.html" xlink:title="TARGETS" target="_top">
<polygon fill="#ffffff" stroke="transparent" points="222,-420.7 222,-569.7 472,-569.7 472,-420.7 222,-420.7"/>
<polygon fill="#f5f5f5" stroke="transparent" points="222,-546.2 222,-569.2 472,-569.2 472,-546.2 222,-546.2"/>
<polygon fill="none" stroke="#000000" points="222,-546.2 222,-569.2 472,-569.2 472,-546.2 222,-546.2"/>
<text text-anchor="start" x="227" y="-555.3" font-family="Helvetica,sans-Serif" font-weight="bold" font-size="11.00" fill="#000000">TARGETS</text>
<text text-anchor="start" x="437.0437" y="-554.3" font-family="Helvetica,sans-Serif" font-size="11.00" fill="#000000">[table]</text>
<polygon fill="none" stroke="#000000" points="222,-524.2 222,-546.2 472,-546.2 472,-524.2 222,-524.2"/>
<image xlink:href="../../images/primaryKeys.png" width="11px" height="12px" preserveAspectRatio="xMinYMin meet" x="227" y="-541.2"/>
<text text-anchor="start" x="242" y="-531.3" font-family="Helvetica,sans-Serif" font-size="11.00" fill="#000000">ID</text>
<polygon fill="none" stroke="#000000" points="222,-502.2 222,-524.2 472,-524.2 472,-502.2 222,-502.2"/>
<image xlink:href="../../images/foreignKeys.png" width="11px" height="12px" preserveAspectRatio="xMinYMin meet" x="227" y="-519.2"/>
<text text-anchor="start" x="242" y="-509.3" font-family="Helvetica,sans-Serif" font-size="11.00" fill="#000000">PROJECT_ID</text>
<polygon fill="none" stroke="#000000" points="222,-480.2 222,-502.2 472,-502.2 472,-480.2 222,-480.2"/>
<image xlink:href="../../images/foreignKeys.png" width="11px" height="12px" preserveAspectRatio="xMinYMin meet" x="227" y="-497.2"/>
<text text-anchor="start" x="242" y="-487.3" font-family="Helvetica,sans-Serif" font-size="11.00" fill="#000000">TARGET_CATEGORY_ID</text>
<polygon fill="none" stroke="#000000" points="222,-458.2 222,-480.2 472,-480.2 472,-458.2 222,-458.2"/>
<image xlink:href="../../images/foreignKeys.png" width="11px" height="12px" preserveAspectRatio="xMinYMin meet" x="227" y="-475.2"/>
<text text-anchor="start" x="242" y="-465.3" font-family="Helvetica,sans-Serif" font-size="11.00" fill="#000000">THERAPEUTIC_ID</text>
<polygon fill="none" stroke="#000000" points="222,-439.2 222,-458.2 472,-458.2 472,-439.2 222,-439.2"/>
<text text-anchor="start" x="225" y="-445.3" font-family="Helvetica,sans-Serif" font-size="11.00" fill="#000000">...</text>
<polygon fill="#ffffff" stroke="transparent" points="222,-420.2 222,-439.2 319,-439.2 319,-420.2 222,-420.2"/>
<polygon fill="none" stroke="#000000" points="222,-420.2 222,-439.2 319,-439.2 319,-420.2 222,-420.2"/>
<text text-anchor="start" x="225" y="-426.3" font-family="Helvetica,sans-Serif" font-size="11.00" fill="#000000">&lt; 3</text>
<polygon fill="#ffffff" stroke="transparent" points="319,-420.2 319,-439.2 407,-439.2 407,-420.2 319,-420.2"/>
<polygon fill="none" stroke="#000000" points="319,-420.2 319,-439.2 407,-439.2 407,-420.2 319,-420.2"/>
<text text-anchor="start" x="359.3807" y="-426.3" font-family="Helvetica,sans-Serif" font-size="11.00" fill="#000000">146 rows</text>
<polygon fill="#ffffff" stroke="transparent" points="407,-420.2 407,-439.2 472,-439.2 472,-420.2 407,-420.2"/>
<polygon fill="none" stroke="#000000" points="407,-420.2 407,-439.2 472,-439.2 472,-420.2 407,-420.2"/>
<text text-anchor="start" x="447.2904" y="-426.3" font-family="Helvetica,sans-Serif" font-size="11.00" fill="#000000">10 &gt;</text>
</a>
</g>
</g>
<!-- ISOFORMS&#45;&gt;TARGETS -->
<g id="edge1" class="edge">
<title>ISOFORMS:w&#45;&gt;TARGETS:e</title>
<path fill="none" stroke="#000000" d="M659.7271,-560.9592C581.1561,-558.3381 557.5993,-535.2 472,-535.2"/>
<polygon fill="#000000" stroke="#000000" points="666.5011,-561.0696 674.4413,-564.7995 670.5005,-561.1348 674.5,-561.2 674.5,-561.2 674.5,-561.2 670.5005,-561.1348 674.5587,-557.6005 666.5011,-561.0696 666.5011,-561.0696"/>
<ellipse fill="none" stroke="#000000" cx="663.3015" cy="-561.0174" rx="3.2" ry="3.2"/>
</g>
<!-- PROJECTS -->
<g id="node6" class="node">
<title>PROJECTS</title>
<g id="a_node6"><a xlink:href="../../tables/PROJECTS.html" xlink:title="PROJECTS" target="_top">
<polygon fill="#ffffff" stroke="transparent" points="40,-485.7 40,-546.7 141,-546.7 141,-485.7 40,-485.7"/>
<polygon fill="#f5f5f5" stroke="transparent" points="40.5,-523.2 40.5,-546.2 141.5,-546.2 141.5,-523.2 40.5,-523.2"/>
<polygon fill="none" stroke="#000000" points="40.5,-523.2 40.5,-546.2 141.5,-546.2 141.5,-523.2 40.5,-523.2"/>
<text text-anchor="start" x="45.1668" y="-532.3" font-family="Helvetica,sans-Serif" font-weight="bold" font-size="11.00" fill="#000000">PROJECTS</text>
<text text-anchor="start" x="107.0219" y="-531.3" font-family="Helvetica,sans-Serif" font-size="11.00" fill="#000000">[table]</text>
<polygon fill="none" stroke="#000000" points="40.5,-504.2 40.5,-523.2 141.5,-523.2 141.5,-504.2 40.5,-504.2"/>
<text text-anchor="start" x="43.5" y="-510.3" font-family="Helvetica,sans-Serif" font-size="11.00" fill="#000000">...</text>
<polygon fill="#ffffff" stroke="transparent" points="40.5,-485.2 40.5,-504.2 64.5,-504.2 64.5,-485.2 40.5,-485.2"/>
<polygon fill="none" stroke="#000000" points="40.5,-485.2 40.5,-504.2 64.5,-504.2 64.5,-485.2 40.5,-485.2"/>
<text text-anchor="start" x="43.5" y="-491.3" font-family="Helvetica,sans-Serif" font-size="11.00" fill="#000000"> &#160;</text>
<polygon fill="#ffffff" stroke="transparent" points="64.5,-485.2 64.5,-504.2 114.5,-504.2 114.5,-485.2 64.5,-485.2"/>
<polygon fill="none" stroke="#000000" points="64.5,-485.2 64.5,-504.2 114.5,-504.2 114.5,-485.2 64.5,-485.2"/>
<text text-anchor="start" x="72.9956" y="-491.3" font-family="Helvetica,sans-Serif" font-size="11.00" fill="#000000">55 rows</text>
<polygon fill="#ffffff" stroke="transparent" points="114.5,-485.2 114.5,-504.2 141.5,-504.2 141.5,-485.2 114.5,-485.2"/>
<polygon fill="none" stroke="#000000" points="114.5,-485.2 114.5,-504.2 141.5,-504.2 141.5,-485.2 114.5,-485.2"/>
<text text-anchor="start" x="122.9053" y="-491.3" font-family="Helvetica,sans-Serif" font-size="11.00" fill="#000000">1 &gt;</text>
</a>
</g>
</g>
<!-- TARGETS&#45;&gt;PROJECTS -->
<g id="edge7" class="edge">
<title>TARGETS:w&#45;&gt;PROJECTS:e</title>
<path fill="none" stroke="#000000" d="M207.327,-513.2C182.8742,-513.2 171.8273,-513.2 141.5,-513.2"/>
<polygon fill="#000000" stroke="#000000" points="214,-513.2001 222,-516.8 218,-513.2 222,-513.2 222,-513.2 222,-513.2 218,-513.2 222,-509.6 214,-513.2001 214,-513.2001"/>
<ellipse fill="none" stroke="#000000" cx="210.8" cy="-513.2001" rx="3.2" ry="3.2"/>
</g>
<!-- TARGET_CATEGORIES -->
<g id="node7" class="node">
<title>TARGET_CATEGORIES</title>
<g id="a_node7"><a xlink:href="../../tables/TARGET_CATEGORIES.html" xlink:title="TARGET_CATEGORIES" target="_top">
<polygon fill="#ffffff" stroke="transparent" points="8,-752.7 8,-813.7 173,-813.7 173,-752.7 8,-752.7"/>
<polygon fill="#f5f5f5" stroke="transparent" points="8.5,-790.2 8.5,-813.2 173.5,-813.2 173.5,-790.2 8.5,-790.2"/>
<polygon fill="none" stroke="#000000" points="8.5,-790.2 8.5,-813.2 173.5,-813.2 173.5,-790.2 8.5,-790.2"/>
<text text-anchor="start" x="13.0798" y="-799.3" font-family="Helvetica,sans-Serif" font-weight="bold" font-size="11.00" fill="#000000">TARGET_CATEGORIES</text>
<text text-anchor="start" x="139.0219" y="-798.3" font-family="Helvetica,sans-Serif" font-size="11.00" fill="#000000">[table]</text>
<polygon fill="none" stroke="#000000" points="8.5,-771.2 8.5,-790.2 173.5,-790.2 173.5,-771.2 8.5,-771.2"/>
<text text-anchor="start" x="11.5" y="-777.3" font-family="Helvetica,sans-Serif" font-size="11.00" fill="#000000">...</text>
<polygon fill="#ffffff" stroke="transparent" points="8.5,-752.2 8.5,-771.2 64.5,-771.2 64.5,-752.2 8.5,-752.2"/>
<polygon fill="none" stroke="#000000" points="8.5,-752.2 8.5,-771.2 64.5,-771.2 64.5,-752.2 8.5,-752.2"/>
<text text-anchor="start" x="11.5" y="-758.3" font-family="Helvetica,sans-Serif" font-size="11.00" fill="#000000"> &#160;</text>
<polygon fill="#ffffff" stroke="transparent" points="64.5,-752.2 64.5,-771.2 130.5,-771.2 130.5,-752.2 64.5,-752.2"/>
<polygon fill="none" stroke="#000000" points="64.5,-752.2 64.5,-771.2 130.5,-771.2 130.5,-752.2 64.5,-752.2"/>
<text text-anchor="start" x="88.9956" y="-758.3" font-family="Helvetica,sans-Serif" font-size="11.00" fill="#000000">11 rows</text>
<polygon fill="#ffffff" stroke="transparent" points="130.5,-752.2 130.5,-771.2 173.5,-771.2 173.5,-752.2 130.5,-752.2"/>
<polygon fill="none" stroke="#000000" points="130.5,-752.2 130.5,-771.2 173.5,-771.2 173.5,-752.2 130.5,-752.2"/>
<text text-anchor="start" x="154.9053" y="-758.3" font-family="Helvetica,sans-Serif" font-size="11.00" fill="#000000">3 &gt;</text>
</a>
</g>
</g>
<!-- TARGETS&#45;&gt;TARGET_CATEGORIES -->
<g id="edge8" class="edge">
<title>TARGETS:w&#45;&gt;TARGET_CATEGORIES:e</title>
<path fill="none" stroke="#000000" d="M208.5263,-496.9729C169.5737,-537.7045 233.1512,-780.2 173.5,-780.2"/>
<polygon fill="#000000" stroke="#000000" points="214.6465,-494.3507 223.4178,-494.5091 218.3233,-492.7753 222,-491.2 222,-491.2 222,-491.2 218.3233,-492.7753 220.5822,-487.8909 214.6465,-494.3507 214.6465,-494.3507"/>
<ellipse fill="none" stroke="#000000" cx="211.7051" cy="-495.6109" rx="3.2" ry="3.2"/>
</g>
<!-- THERAPEUTIC_AREAS -->
<g id="node8" class="node">
<title>THERAPEUTIC_AREAS</title>
<g id="a_node8"><a xlink:href="../../tables/THERAPEUTIC_AREAS.html" xlink:title="THERAPEUTIC_AREAS" target="_top">
<polygon fill="#ffffff" stroke="transparent" points="8.5,-254.7 8.5,-359.7 172.5,-359.7 172.5,-254.7 8.5,-254.7"/>
<polygon fill="#f5f5f5" stroke="transparent" points="8.5,-336.2 8.5,-359.2 172.5,-359.2 172.5,-336.2 8.5,-336.2"/>
<polygon fill="none" stroke="#000000" points="8.5,-336.2 8.5,-359.2 172.5,-359.2 172.5,-336.2 8.5,-336.2"/>
<text text-anchor="start" x="13.4984" y="-345.3" font-family="Helvetica,sans-Serif" font-weight="bold" font-size="11.00" fill="#000000">THERAPEUTIC_AREAS</text>
<text text-anchor="start" x="138.0219" y="-344.3" font-family="Helvetica,sans-Serif" font-size="11.00" fill="#000000">[table]</text>
<polygon fill="none" stroke="#000000" points="8.5,-314.2 8.5,-336.2 172.5,-336.2 172.5,-314.2 8.5,-314.2"/>
<image xlink:href="../../images/primaryKeys.png" width="11px" height="12px" preserveAspectRatio="xMinYMin meet" x="13.5" y="-331.2"/>
<text text-anchor="start" x="28.5" y="-321.3" font-family="Helvetica,sans-Serif" font-size="11.00" fill="#000000">ID</text>
<polygon fill="none" stroke="#000000" points="8.5,-292.2 8.5,-314.2 172.5,-314.2 172.5,-292.2 8.5,-292.2"/>
<image xlink:href="../../images/primaryKeys.png" width="11px" height="12px" preserveAspectRatio="xMinYMin meet" x="13.5" y="-309.2"/>
<text text-anchor="start" x="28.5" y="-299.3" font-family="Helvetica,sans-Serif" font-size="11.00" fill="#000000">TITLE</text>
<polygon fill="none" stroke="#000000" points="8.5,-273.2 8.5,-292.2 172.5,-292.2 172.5,-273.2 8.5,-273.2"/>
<text text-anchor="start" x="11.5" y="-279.3" font-family="Helvetica,sans-Serif" font-size="11.00" fill="#000000">...</text>
<polygon fill="#ffffff" stroke="transparent" points="8.5,-254.2 8.5,-273.2 63.5,-273.2 63.5,-254.2 8.5,-254.2"/>
<polygon fill="none" stroke="#000000" points="8.5,-254.2 8.5,-273.2 63.5,-273.2 63.5,-254.2 8.5,-254.2"/>
<text text-anchor="start" x="11.5" y="-260.3" font-family="Helvetica,sans-Serif" font-size="11.00" fill="#000000"> &#160;</text>
<polygon fill="#ffffff" stroke="transparent" points="63.5,-254.2 63.5,-273.2 129.5,-273.2 129.5,-254.2 63.5,-254.2"/>
<polygon fill="none" stroke="#000000" points="63.5,-254.2 63.5,-273.2 129.5,-273.2 129.5,-254.2 63.5,-254.2"/>
<text text-anchor="start" x="87.9956" y="-260.3" font-family="Helvetica,sans-Serif" font-size="11.00" fill="#000000">15 rows</text>
<polygon fill="#ffffff" stroke="transparent" points="129.5,-254.2 129.5,-273.2 172.5,-273.2 172.5,-254.2 129.5,-254.2"/>
<polygon fill="none" stroke="#000000" points="129.5,-254.2 129.5,-273.2 172.5,-273.2 172.5,-254.2 129.5,-254.2"/>
<text text-anchor="start" x="153.9053" y="-260.3" font-family="Helvetica,sans-Serif" font-size="11.00" fill="#000000">2 &gt;</text>
</a>
</g>
</g>
<!-- TARGETS&#45;&gt;THERAPEUTIC_AREAS -->
<g id="edge9" class="edge">
<title>TARGETS:w&#45;&gt;THERAPEUTIC_AREAS:e</title>
<path fill="none" stroke="#000000" d="M207.759,-466.1924C167.9462,-445.5135 234.3598,-325.2 172.5,-325.2"/>
<polygon fill="#000000" stroke="#000000" points="214.1727,-467.5469 221.2561,-472.7223 218.0863,-468.3734 222,-469.2 222,-469.2 222,-469.2 218.0863,-468.3734 222.7439,-465.6777 214.1727,-467.5469 214.1727,-467.5469"/>
<ellipse fill="none" stroke="#000000" cx="211.0417" cy="-466.8856" rx="3.2" ry="3.2"/>
</g>
<!-- SCREENING_PLANS -->
<g id="node3" class="node">
<title>SCREENING_PLANS</title>
<g id="a_node3"><a xlink:href="../../tables/SCREENING_PLANS.html" xlink:title="SCREENING_PLANS" target="_top">
<polygon fill="#ffffff" stroke="transparent" points="1195.5,-509.7 1195.5,-570.7 1345.5,-570.7 1345.5,-509.7 1195.5,-509.7"/>
<polygon fill="#f5f5f5" stroke="transparent" points="1195.5,-547.2 1195.5,-570.2 1345.5,-570.2 1345.5,-547.2 1195.5,-547.2"/>
<polygon fill="none" stroke="#000000" points="1195.5,-547.2 1195.5,-570.2 1345.5,-570.2 1345.5,-547.2 1195.5,-547.2"/>
<text text-anchor="start" x="1200.2182" y="-556.3" font-family="Helvetica,sans-Serif" font-weight="bold" font-size="11.00" fill="#000000">SCREENING_PLANS</text>
<text text-anchor="start" x="1311.0219" y="-555.3" font-family="Helvetica,sans-Serif" font-size="11.00" fill="#000000">[table]</text>
<polygon fill="none" stroke="#000000" points="1195.5,-528.2 1195.5,-547.2 1345.5,-547.2 1345.5,-528.2 1195.5,-528.2"/>
<text text-anchor="start" x="1198.5" y="-534.3" font-family="Helvetica,sans-Serif" font-size="11.00" fill="#000000">...</text>
<polygon fill="#ffffff" stroke="transparent" points="1195.5,-509.2 1195.5,-528.2 1245.5,-528.2 1245.5,-509.2 1195.5,-509.2"/>
<polygon fill="none" stroke="#000000" points="1195.5,-509.2 1195.5,-528.2 1245.5,-528.2 1245.5,-509.2 1195.5,-509.2"/>
<text text-anchor="start" x="1198.5" y="-515.3" font-family="Helvetica,sans-Serif" font-size="11.00" fill="#000000">&lt; 3</text>
<polygon fill="#ffffff" stroke="transparent" points="1245.5,-509.2 1245.5,-528.2 1309.5,-528.2 1309.5,-509.2 1245.5,-509.2"/>
<polygon fill="none" stroke="#000000" points="1245.5,-509.2 1245.5,-528.2 1309.5,-528.2 1309.5,-509.2 1245.5,-509.2"/>
<text text-anchor="start" x="1261.8807" y="-515.3" font-family="Helvetica,sans-Serif" font-size="11.00" fill="#000000">137 rows</text>
<polygon fill="#ffffff" stroke="transparent" points="1309.5,-509.2 1309.5,-528.2 1345.5,-528.2 1345.5,-509.2 1309.5,-509.2"/>
<polygon fill="none" stroke="#000000" points="1309.5,-509.2 1309.5,-528.2 1345.5,-528.2 1345.5,-509.2 1309.5,-509.2"/>
<text text-anchor="start" x="1326.9053" y="-515.3" font-family="Helvetica,sans-Serif" font-size="11.00" fill="#000000">1 &gt;</text>
</a>
</g>
</g>
<!-- SCREENING_PLANS&#45;&gt;TARGETS -->
<g id="edge3" class="edge">
<title>SCREENING_PLANS:w&#45;&gt;TARGETS:e</title>
<path fill="none" stroke="#000000" d="M1181.0791,-537.1412C1077.3858,-536.2787 1046.498,-526.1785 936,-523.2 748.0683,-518.1342 699.098,-496.5257 513,-523.2 494.2054,-525.8939 490.9867,-535.2 472,-535.2"/>
<polygon fill="#000000" stroke="#000000" points="1187.5001,-537.1673 1195.4853,-540.8 1191.5,-537.1837 1195.5,-537.2 1195.5,-537.2 1195.5,-537.2 1191.5,-537.1837 1195.5147,-533.6 1187.5001,-537.1673 1187.5001,-537.1673"/>
<ellipse fill="none" stroke="#000000" cx="1184.3001" cy="-537.1542" rx="3.2" ry="3.2"/>
</g>
<!-- TARGET_FORMS -->
<g id="node4" class="node">
<title>TARGET_FORMS</title>
<g id="a_node4"><a xlink:href="../../tables/TARGET_FORMS.html" xlink:title="TARGET_FORMS" target="_top">
<polygon fill="#ffffff" stroke="transparent" points="977,-547.7 977,-608.7 1110,-608.7 1110,-547.7 977,-547.7"/>
<polygon fill="#f5f5f5" stroke="transparent" points="977.5,-585.2 977.5,-608.2 1110.5,-608.2 1110.5,-585.2 977.5,-585.2"/>
<polygon fill="none" stroke="#000000" points="977.5,-585.2 977.5,-608.2 1110.5,-608.2 1110.5,-585.2 977.5,-585.2"/>
<text text-anchor="start" x="982.2801" y="-594.3" font-family="Helvetica,sans-Serif" font-weight="bold" font-size="11.00" fill="#000000">TARGET_FORMS</text>
<text text-anchor="start" x="1076.0219" y="-593.3" font-family="Helvetica,sans-Serif" font-size="11.00" fill="#000000">[table]</text>
<polygon fill="none" stroke="#000000" points="977.5,-566.2 977.5,-585.2 1110.5,-585.2 1110.5,-566.2 977.5,-566.2"/>
<text text-anchor="start" x="980.5" y="-572.3" font-family="Helvetica,sans-Serif" font-size="11.00" fill="#000000">...</text>
<polygon fill="#ffffff" stroke="transparent" points="977.5,-547.2 977.5,-566.2 1015.5,-566.2 1015.5,-547.2 977.5,-547.2"/>
<polygon fill="none" stroke="#000000" points="977.5,-547.2 977.5,-566.2 1015.5,-566.2 1015.5,-547.2 977.5,-547.2"/>
<text text-anchor="start" x="980.5" y="-553.3" font-family="Helvetica,sans-Serif" font-size="11.00" fill="#000000">&lt; 5</text>
<polygon fill="#ffffff" stroke="transparent" points="1015.5,-547.2 1015.5,-566.2 1074.5,-566.2 1074.5,-547.2 1015.5,-547.2"/>
<polygon fill="none" stroke="#000000" points="1015.5,-547.2 1015.5,-566.2 1074.5,-566.2 1074.5,-547.2 1015.5,-547.2"/>
<text text-anchor="start" x="1026.8807" y="-553.3" font-family="Helvetica,sans-Serif" font-size="11.00" fill="#000000">541 rows</text>
<polygon fill="#ffffff" stroke="transparent" points="1074.5,-547.2 1074.5,-566.2 1110.5,-566.2 1110.5,-547.2 1074.5,-547.2"/>
<polygon fill="none" stroke="#000000" points="1074.5,-547.2 1074.5,-566.2 1110.5,-566.2 1110.5,-547.2 1074.5,-547.2"/>
<text text-anchor="start" x="1085.7904" y="-553.3" font-family="Helvetica,sans-Serif" font-size="11.00" fill="#000000">18 &gt;</text>
</a>
</g>
</g>
<!-- SCREENING_PLANS&#45;&gt;TARGET_FORMS -->
<g id="edge2" class="edge">
<title>SCREENING_PLANS:w&#45;&gt;TARGET_FORMS:e</title>
<path fill="none" stroke="#000000" d="M1180.9002,-539.0328C1152.834,-546.6235 1146.3852,-575.2 1110.5,-575.2"/>
<polygon fill="#000000" stroke="#000000" points="1187.5623,-538.1965 1195.9484,-540.772 1191.5312,-537.6983 1195.5,-537.2 1195.5,-537.2 1195.5,-537.2 1191.5312,-537.6983 1195.0516,-533.628 1187.5623,-538.1965 1187.5623,-538.1965"/>
<ellipse fill="none" stroke="#000000" cx="1184.3872" cy="-538.5951" rx="3.2" ry="3.2"/>
</g>
<!-- TARGET_FORMS&#45;&gt;ISOFORMS -->
<g id="edge5" class="edge">
<title>TARGET_FORMS:w&#45;&gt;ISOFORMS:e</title>
<path fill="none" stroke="#000000" d="M962.8378,-575.0703C884.795,-573.659 860.3959,-561.2 775.5,-561.2"/>
<polygon fill="#000000" stroke="#000000" points="969.5003,-575.1292 977.4681,-578.7999 973.5002,-575.1646 977.5,-575.2 977.5,-575.2 977.5,-575.2 973.5002,-575.1646 977.5319,-571.6001 969.5003,-575.1292 969.5003,-575.1292"/>
<ellipse fill="none" stroke="#000000" cx="966.3004" cy="-575.1009" rx="3.2" ry="3.2"/>
</g>
<!-- TARGET_FORMS&#45;&gt;TARGETS -->
<g id="edge6" class="edge">
<title>TARGET_FORMS:w&#45;&gt;TARGETS:e</title>
<path fill="none" stroke="#000000" d="M963.5616,-579.5605C954.497,-586.579 951.7327,-600.109 936,-605.2 846.566,-634.1406 594.5529,-651.9454 513,-605.2 481.7194,-587.2703 508.0548,-535.2 472,-535.2"/>
<polygon fill="#000000" stroke="#000000" points="969.8649,-577.5886 978.5749,-578.6358 973.6825,-576.3943 977.5,-575.2 977.5,-575.2 977.5,-575.2 973.6825,-576.3943 976.4251,-571.7642 969.8649,-577.5886 969.8649,-577.5886"/>
<ellipse fill="none" stroke="#000000" cx="966.8109" cy="-578.5441" rx="3.2" ry="3.2"/>
</g>
<!-- SUBUNITS -->
<g id="node5" class="node">
<title>SUBUNITS</title>
<g id="a_node5"><a xlink:href="../../tables/SUBUNITS.html" xlink:title="SUBUNITS" target="_top">
<polygon fill="#ffffff" stroke="transparent" points="675.5,-423.7 675.5,-484.7 773.5,-484.7 773.5,-423.7 675.5,-423.7"/>
<polygon fill="#f5f5f5" stroke="transparent" points="675.5,-461.2 675.5,-484.2 773.5,-484.2 773.5,-461.2 675.5,-461.2"/>
<polygon fill="none" stroke="#000000" points="675.5,-461.2 675.5,-484.2 773.5,-484.2 773.5,-461.2 675.5,-461.2"/>
<text text-anchor="start" x="680.1964" y="-470.3" font-family="Helvetica,sans-Serif" font-weight="bold" font-size="11.00" fill="#000000">SUBUNITS</text>
<text text-anchor="start" x="739.0219" y="-469.3" font-family="Helvetica,sans-Serif" font-size="11.00" fill="#000000">[table]</text>
<polygon fill="none" stroke="#000000" points="675.5,-442.2 675.5,-461.2 773.5,-461.2 773.5,-442.2 675.5,-442.2"/>
<text text-anchor="start" x="678.5" y="-448.3" font-family="Helvetica,sans-Serif" font-size="11.00" fill="#000000">...</text>
<polygon fill="#ffffff" stroke="transparent" points="675.5,-423.2 675.5,-442.2 705.5,-442.2 705.5,-423.2 675.5,-423.2"/>
<polygon fill="none" stroke="#000000" points="675.5,-423.2 675.5,-442.2 705.5,-442.2 705.5,-423.2 675.5,-423.2"/>
<text text-anchor="start" x="678.5" y="-429.3" font-family="Helvetica,sans-Serif" font-size="11.00" fill="#000000">&lt; 2</text>
<polygon fill="#ffffff" stroke="transparent" points="705.5,-423.2 705.5,-442.2 747.5,-442.2 747.5,-423.2 705.5,-423.2"/>
<polygon fill="none" stroke="#000000" points="705.5,-423.2 705.5,-442.2 747.5,-442.2 747.5,-423.2 705.5,-423.2"/>
<text text-anchor="start" x="712.1105" y="-429.3" font-family="Helvetica,sans-Serif" font-size="11.00" fill="#000000">0 rows</text>
<polygon fill="#ffffff" stroke="transparent" points="747.5,-423.2 747.5,-442.2 773.5,-442.2 773.5,-423.2 747.5,-423.2"/>
<polygon fill="none" stroke="#000000" points="747.5,-423.2 747.5,-442.2 773.5,-442.2 773.5,-423.2 747.5,-423.2"/>
<text text-anchor="start" x="754.9053" y="-429.3" font-family="Helvetica,sans-Serif" font-size="11.00" fill="#000000">3 &gt;</text>
</a>
</g>
</g>
<!-- SUBUNITS&#45;&gt;TARGETS -->
<g id="edge4" class="edge">
<title>SUBUNITS:w&#45;&gt;TARGETS:e</title>
<path fill="none" stroke="#000000" d="M660.7825,-451.3674C597.0793,-452.9068 574.4393,-465.3249 513,-499.2 491.7642,-510.9085 496.2497,-535.2 472,-535.2"/>
<polygon fill="#000000" stroke="#000000" points="667.5005,-451.291 675.541,-454.7998 671.5003,-451.2455 675.5,-451.2 675.5,-451.2 675.5,-451.2 671.5003,-451.2455 675.459,-447.6002 667.5005,-451.291 667.5005,-451.291"/>
<ellipse fill="none" stroke="#000000" cx="664.3007" cy="-451.3274" rx="3.2" ry="3.2"/>
</g>
<!-- TARGETS_INDICATIONS -->
<g id="node9" class="node">
<title>TARGETS_INDICATIONS</title>
<g id="a_node9"><a xlink:href="../../tables/TARGETS_INDICATIONS.html" xlink:title="TARGETS_INDICATIONS" target="_top">
<polygon fill="#ffffff" stroke="transparent" points="639,-341.7 639,-402.7 810,-402.7 810,-341.7 639,-341.7"/>
<polygon fill="#f5f5f5" stroke="transparent" points="639.5,-379.2 639.5,-402.2 810.5,-402.2 810.5,-379.2 639.5,-379.2"/>
<polygon fill="none" stroke="#000000" points="639.5,-379.2 639.5,-402.2 810.5,-402.2 810.5,-379.2 639.5,-379.2"/>
<text text-anchor="start" x="644.0285" y="-388.3" font-family="Helvetica,sans-Serif" font-weight="bold" font-size="11.00" fill="#000000">TARGETS_INDICATIONS</text>
<text text-anchor="start" x="776.0219" y="-387.3" font-family="Helvetica,sans-Serif" font-size="11.00" fill="#000000">[table]</text>
<polygon fill="none" stroke="#000000" points="639.5,-360.2 639.5,-379.2 810.5,-379.2 810.5,-360.2 639.5,-360.2"/>
<text text-anchor="start" x="642.5" y="-366.3" font-family="Helvetica,sans-Serif" font-size="11.00" fill="#000000">...</text>
<polygon fill="#ffffff" stroke="transparent" points="639.5,-341.2 639.5,-360.2 707.5,-360.2 707.5,-341.2 639.5,-341.2"/>
<polygon fill="none" stroke="#000000" points="639.5,-341.2 639.5,-360.2 707.5,-360.2 707.5,-341.2 639.5,-341.2"/>
<text text-anchor="start" x="642.5" y="-347.3" font-family="Helvetica,sans-Serif" font-size="11.00" fill="#000000">&lt; 2</text>
<polygon fill="#ffffff" stroke="transparent" points="707.5,-341.2 707.5,-360.2 774.5,-360.2 774.5,-341.2 707.5,-341.2"/>
<polygon fill="none" stroke="#000000" points="707.5,-341.2 707.5,-360.2 774.5,-360.2 774.5,-341.2 707.5,-341.2"/>
<text text-anchor="start" x="732.9956" y="-347.3" font-family="Helvetica,sans-Serif" font-size="11.00" fill="#000000">22 rows</text>
<polygon fill="#ffffff" stroke="transparent" points="774.5,-341.2 774.5,-360.2 810.5,-360.2 810.5,-341.2 774.5,-341.2"/>
<polygon fill="none" stroke="#000000" points="774.5,-341.2 774.5,-360.2 810.5,-360.2 810.5,-341.2 774.5,-341.2"/>
<text text-anchor="start" x="801.3862" y="-347.3" font-family="Helvetica,sans-Serif" font-size="11.00" fill="#000000"> &#160;</text>
</a>
</g>
</g>
<!-- TARGETS_INDICATIONS&#45;&gt;TARGETS -->
<g id="edge10" class="edge">
<title>TARGETS_INDICATIONS:w&#45;&gt;TARGETS:e</title>
<path fill="none" stroke="#000000" d="M624.8836,-369.2621C575.5352,-369.7901 551.271,-374.5239 513,-413.2 472.7654,-453.8605 529.2023,-535.2 472,-535.2"/>
<polygon fill="#000000" stroke="#000000" points="631.5001,-369.234 639.5153,-372.8 635.5,-369.217 639.5,-369.2 639.5,-369.2 639.5,-369.2 635.5,-369.217 639.4847,-365.6 631.5001,-369.234 631.5001,-369.234"/>
<ellipse fill="none" stroke="#000000" cx="628.3001" cy="-369.2477" rx="3.2" ry="3.2"/>
</g>
<!-- TARGETS_REFERENCES -->
<g id="node10" class="node">
<title>TARGETS_REFERENCES</title>
<g id="a_node10"><a xlink:href="../../tables/TARGETS_REFERENCES.html" xlink:title="TARGETS_REFERENCES" target="_top">
<polygon fill="#ffffff" stroke="transparent" points="636.5,-259.7 636.5,-320.7 812.5,-320.7 812.5,-259.7 636.5,-259.7"/>
<polygon fill="#f5f5f5" stroke="transparent" points="636.5,-297.2 636.5,-320.2 812.5,-320.2 812.5,-297.2 636.5,-297.2"/>
<polygon fill="none" stroke="#000000" points="636.5,-297.2 636.5,-320.2 812.5,-320.2 812.5,-297.2 636.5,-297.2"/>
<text text-anchor="start" x="641.3884" y="-306.3" font-family="Helvetica,sans-Serif" font-weight="bold" font-size="11.00" fill="#000000">TARGETS_REFERENCES</text>
<text text-anchor="start" x="778.0219" y="-305.3" font-family="Helvetica,sans-Serif" font-size="11.00" fill="#000000">[table]</text>
<polygon fill="none" stroke="#000000" points="636.5,-278.2 636.5,-297.2 812.5,-297.2 812.5,-278.2 636.5,-278.2"/>
<text text-anchor="start" x="639.5" y="-284.3" font-family="Helvetica,sans-Serif" font-size="11.00" fill="#000000">...</text>
<polygon fill="#ffffff" stroke="transparent" points="636.5,-259.2 636.5,-278.2 706.5,-278.2 706.5,-259.2 636.5,-259.2"/>
<polygon fill="none" stroke="#000000" points="636.5,-259.2 636.5,-278.2 706.5,-278.2 706.5,-259.2 636.5,-259.2"/>
<text text-anchor="start" x="639.5" y="-265.3" font-family="Helvetica,sans-Serif" font-size="11.00" fill="#000000">&lt; 2</text>
<polygon fill="#ffffff" stroke="transparent" points="706.5,-259.2 706.5,-278.2 775.5,-278.2 775.5,-259.2 706.5,-259.2"/>
<polygon fill="none" stroke="#000000" points="706.5,-259.2 706.5,-278.2 775.5,-278.2 775.5,-259.2 706.5,-259.2"/>
<text text-anchor="start" x="733.9956" y="-265.3" font-family="Helvetica,sans-Serif" font-size="11.00" fill="#000000">48 rows</text>
<polygon fill="#ffffff" stroke="transparent" points="775.5,-259.2 775.5,-278.2 812.5,-278.2 812.5,-259.2 775.5,-259.2"/>
<polygon fill="none" stroke="#000000" points="775.5,-259.2 775.5,-278.2 812.5,-278.2 812.5,-259.2 775.5,-259.2"/>
<text text-anchor="start" x="803.3862" y="-265.3" font-family="Helvetica,sans-Serif" font-size="11.00" fill="#000000"> &#160;</text>
</a>
</g>
</g>
<!-- TARGETS_REFERENCES&#45;&gt;TARGETS -->
<g id="edge11" class="edge">
<title>TARGETS_REFERENCES:w&#45;&gt;TARGETS:e</title>
<path fill="none" stroke="#000000" d="M621.8299,-287.2287C573.3829,-287.5306 547.7816,-291.0146 513,-331.2 452.4777,-401.1253 564.4797,-535.2 472,-535.2"/>
<polygon fill="#000000" stroke="#000000" points="628.5,-287.2157 636.5071,-290.8 632.5,-287.2078 636.5,-287.2 636.5,-287.2 636.5,-287.2 632.5,-287.2078 636.4929,-283.6 628.5,-287.2157 628.5,-287.2157"/>
<ellipse fill="none" stroke="#000000" cx="625.3" cy="-287.222" rx="3.2" ry="3.2"/>
</g>
<!-- TARGETS_TARGET_CATEGORIES -->
<g id="node11" class="node">
<title>TARGETS_TARGET_CATEGORIES</title>
<g id="a_node11"><a xlink:href="../../tables/TARGETS_TARGET_CATEGORIES.html" xlink:title="TARGETS_TARGET_CATEGORIES" target="_top">
<polygon fill="#ffffff" stroke="transparent" points="613,-752.7 613,-813.7 836,-813.7 836,-752.7 613,-752.7"/>
<polygon fill="#f5f5f5" stroke="transparent" points="613.5,-790.2 613.5,-813.2 836.5,-813.2 836.5,-790.2 613.5,-790.2"/>
<polygon fill="none" stroke="#000000" points="613.5,-790.2 613.5,-813.2 836.5,-813.2 836.5,-790.2 613.5,-790.2"/>
<text text-anchor="start" x="618.0498" y="-799.3" font-family="Helvetica,sans-Serif" font-weight="bold" font-size="11.00" fill="#000000">TARGETS_TARGET_CATEGORIES</text>
<text text-anchor="start" x="802.0219" y="-798.3" font-family="Helvetica,sans-Serif" font-size="11.00" fill="#000000">[table]</text>
<polygon fill="none" stroke="#000000" points="613.5,-771.2 613.5,-790.2 836.5,-790.2 836.5,-771.2 613.5,-771.2"/>
<text text-anchor="start" x="616.5" y="-777.3" font-family="Helvetica,sans-Serif" font-size="11.00" fill="#000000">...</text>
<polygon fill="#ffffff" stroke="transparent" points="613.5,-752.2 613.5,-771.2 707.5,-771.2 707.5,-752.2 613.5,-752.2"/>
<polygon fill="none" stroke="#000000" points="613.5,-752.2 613.5,-771.2 707.5,-771.2 707.5,-752.2 613.5,-752.2"/>
<text text-anchor="start" x="616.5" y="-758.3" font-family="Helvetica,sans-Serif" font-size="11.00" fill="#000000">&lt; 2</text>
<polygon fill="#ffffff" stroke="transparent" points="707.5,-752.2 707.5,-771.2 787.5,-771.2 787.5,-752.2 707.5,-752.2"/>
<polygon fill="none" stroke="#000000" points="707.5,-752.2 707.5,-771.2 787.5,-771.2 787.5,-752.2 707.5,-752.2"/>
<text text-anchor="start" x="745.9956" y="-758.3" font-family="Helvetica,sans-Serif" font-size="11.00" fill="#000000">25 rows</text>
<polygon fill="#ffffff" stroke="transparent" points="787.5,-752.2 787.5,-771.2 836.5,-771.2 836.5,-752.2 787.5,-752.2"/>
<polygon fill="none" stroke="#000000" points="787.5,-752.2 787.5,-771.2 836.5,-771.2 836.5,-752.2 787.5,-752.2"/>
<text text-anchor="start" x="827.3862" y="-758.3" font-family="Helvetica,sans-Serif" font-size="11.00" fill="#000000"> &#160;</text>
</a>
</g>
</g>
<!-- TARGETS_TARGET_CATEGORIES&#45;&gt;TARGETS -->
<g id="edge13" class="edge">
<title>TARGETS_TARGET_CATEGORIES:w&#45;&gt;TARGETS:e</title>
<path fill="none" stroke="#000000" d="M598.9629,-780.105C560.9396,-779.4641 540.5375,-774.7335 513,-742.2 452.4072,-670.6139 565.7873,-535.2 472,-535.2"/>
<polygon fill="#000000" stroke="#000000" points="605.5002,-780.1476 613.4764,-783.7999 609.5001,-780.1738 613.5,-780.2 613.5,-780.2 613.5,-780.2 609.5001,-780.1738 613.5236,-776.6001 605.5002,-780.1476 605.5002,-780.1476"/>
<ellipse fill="none" stroke="#000000" cx="602.3002" cy="-780.1267" rx="3.2" ry="3.2"/>
</g>
<!-- TARGETS_TARGET_CATEGORIES&#45;&gt;TARGET_CATEGORIES -->
<g id="edge12" class="edge">
<title>TARGETS_TARGET_CATEGORIES:w&#45;&gt;TARGET_CATEGORIES:e</title>
<path fill="none" stroke="#000000" d="M598.883,-780.2C415.3673,-780.2 364.0903,-780.2 173.5,-780.2"/>
<polygon fill="#000000" stroke="#000000" points="605.5,-780.2001 613.5,-783.8 609.5,-780.2 613.5,-780.2 613.5,-780.2 613.5,-780.2 609.5,-780.2 613.5,-776.6 605.5,-780.2001 605.5,-780.2001"/>
<ellipse fill="none" stroke="#000000" cx="602.3" cy="-780.2001" rx="3.2" ry="3.2"/>
</g>
<!-- TARGETS_THERAPEUTIC_AREAS -->
<g id="node12" class="node">
<title>TARGETS_THERAPEUTIC_AREAS</title>
<g id="a_node12"><a xlink:href="../../tables/TARGETS_THERAPEUTIC_AREAS.html" xlink:title="TARGETS_THERAPEUTIC_AREAS" target="_top">
<polygon fill="#ffffff" stroke="transparent" points="521,-38.2 521,-238.2 928,-238.2 928,-38.2 521,-38.2"/>
<polygon fill="#f5f5f5" stroke="transparent" points="523.5,-213.2 523.5,-236.2 926.5,-236.2 926.5,-213.2 523.5,-213.2"/>
<polygon fill="none" stroke="#000000" points="523.5,-213.2 523.5,-236.2 926.5,-236.2 926.5,-213.2 523.5,-213.2"/>
<text text-anchor="start" x="528.5" y="-222.3" font-family="Helvetica,sans-Serif" font-weight="bold" font-size="11.00" fill="#000000">TARGETS_THERAPEUTIC_AREAS</text>
<text text-anchor="start" x="891.5437" y="-221.3" font-family="Helvetica,sans-Serif" font-size="11.00" fill="#000000">[table]</text>
<polygon fill="none" stroke="#000000" points="523.5,-191.2 523.5,-213.2 755.5,-213.2 755.5,-191.2 523.5,-191.2"/>
<image xlink:href="../../images/primaryKeys.png" width="11px" height="12px" preserveAspectRatio="xMinYMin meet" x="528.5" y="-208.2"/>
<text text-anchor="start" x="543.5" y="-198.3" font-family="Helvetica,sans-Serif" font-size="11.00" fill="#000000">ID</text>
<polygon fill="none" stroke="#000000" points="755.5,-191.2 755.5,-213.2 926.5,-213.2 926.5,-191.2 755.5,-191.2"/>
<text text-anchor="start" x="758.5" y="-198.9" font-family="Helvetica,sans-Serif" font-size="11.00" fill="#000000">number[19]</text>
<polygon fill="none" stroke="#000000" points="523.5,-169.2 523.5,-191.2 755.5,-191.2 755.5,-169.2 523.5,-169.2"/>
<text text-anchor="start" x="543.5" y="-176.3" font-family="Helvetica,sans-Serif" font-size="11.00" fill="#000000">CREATED_AT</text>
<polygon fill="none" stroke="#000000" points="755.5,-169.2 755.5,-191.2 926.5,-191.2 926.5,-169.2 755.5,-169.2"/>
<text text-anchor="start" x="758.4896" y="-176.9" font-family="Helvetica,sans-Serif" font-size="11.00" fill="#000000">timestamp(6) with time zone[13,6]</text>
<polygon fill="none" stroke="#000000" points="523.5,-147.2 523.5,-169.2 755.5,-169.2 755.5,-147.2 523.5,-147.2"/>
<text text-anchor="start" x="543.5" y="-154.3" font-family="Helvetica,sans-Serif" font-size="11.00" fill="#000000">CREATED_BY</text>
<polygon fill="none" stroke="#000000" points="755.5,-147.2 755.5,-169.2 926.5,-169.2 926.5,-147.2 755.5,-147.2"/>
<text text-anchor="start" x="758.5" y="-154.9" font-family="Helvetica,sans-Serif" font-size="11.00" fill="#000000">number[19]</text>
<polygon fill="none" stroke="#000000" points="523.5,-125.2 523.5,-147.2 755.5,-147.2 755.5,-125.2 523.5,-125.2"/>
<text text-anchor="start" x="543.5" y="-132.3" font-family="Helvetica,sans-Serif" font-size="11.00" fill="#000000">UPDATED_AT</text>
<polygon fill="none" stroke="#000000" points="755.5,-125.2 755.5,-147.2 926.5,-147.2 926.5,-125.2 755.5,-125.2"/>
<text text-anchor="start" x="758.4896" y="-132.9" font-family="Helvetica,sans-Serif" font-size="11.00" fill="#000000">timestamp(6) with time zone[13,6]</text>
<polygon fill="none" stroke="#000000" points="523.5,-103.2 523.5,-125.2 755.5,-125.2 755.5,-103.2 523.5,-103.2"/>
<text text-anchor="start" x="543.5" y="-110.3" font-family="Helvetica,sans-Serif" font-size="11.00" fill="#000000">UPDATED_BY</text>
<polygon fill="none" stroke="#000000" points="755.5,-103.2 755.5,-125.2 926.5,-125.2 926.5,-103.2 755.5,-103.2"/>
<text text-anchor="start" x="758.5" y="-110.9" font-family="Helvetica,sans-Serif" font-size="11.00" fill="#000000">number[19]</text>
<polygon fill="none" stroke="#000000" points="523.5,-81.2 523.5,-103.2 755.5,-103.2 755.5,-81.2 523.5,-81.2"/>
<image xlink:href="../../images/foreignKeys.png" width="11px" height="12px" preserveAspectRatio="xMinYMin meet" x="528.5" y="-98.2"/>
<text text-anchor="start" x="543.5" y="-88.3" font-family="Helvetica,sans-Serif" font-size="11.00" fill="#000000">TARGET_ID</text>
<polygon fill="none" stroke="#000000" points="755.5,-81.2 755.5,-103.2 926.5,-103.2 926.5,-81.2 755.5,-81.2"/>
<text text-anchor="start" x="758.5" y="-88.9" font-family="Helvetica,sans-Serif" font-size="11.00" fill="#000000">number[19]</text>
<polygon fill="none" stroke="#000000" points="523.5,-59.2 523.5,-81.2 755.5,-81.2 755.5,-59.2 523.5,-59.2"/>
<image xlink:href="../../images/foreignKeys.png" width="11px" height="12px" preserveAspectRatio="xMinYMin meet" x="528.5" y="-76.2"/>
<text text-anchor="start" x="543.5" y="-66.3" font-family="Helvetica,sans-Serif" font-size="11.00" fill="#000000">THERAPEUTIC_AREA_ID</text>
<polygon fill="none" stroke="#000000" points="755.5,-59.2 755.5,-81.2 926.5,-81.2 926.5,-59.2 755.5,-59.2"/>
<text text-anchor="start" x="758.5" y="-66.9" font-family="Helvetica,sans-Serif" font-size="11.00" fill="#000000">number[19]</text>
<polygon fill="#ffffff" stroke="transparent" points="523.5,-40.2 523.5,-59.2 627.5,-59.2 627.5,-40.2 523.5,-40.2"/>
<polygon fill="none" stroke="#000000" points="523.5,-40.2 523.5,-59.2 627.5,-59.2 627.5,-40.2 523.5,-40.2"/>
<text text-anchor="start" x="526.5" y="-46.3" font-family="Helvetica,sans-Serif" font-size="11.00" fill="#000000">&lt; 2</text>
<polygon fill="#ffffff" stroke="transparent" points="627.5,-40.2 627.5,-59.2 755.5,-59.2 755.5,-40.2 627.5,-40.2"/>
<polygon fill="none" stroke="#000000" points="627.5,-40.2 627.5,-59.2 755.5,-59.2 755.5,-40.2 627.5,-40.2"/>
<text text-anchor="start" x="713.9956" y="-46.3" font-family="Helvetica,sans-Serif" font-size="11.00" fill="#000000">28 rows</text>
<polygon fill="#ffffff" stroke="transparent" points="755.5,-40.2 755.5,-59.2 926.5,-59.2 926.5,-40.2 755.5,-40.2"/>
<polygon fill="none" stroke="#000000" points="755.5,-40.2 755.5,-59.2 926.5,-59.2 926.5,-40.2 755.5,-40.2"/>
<text text-anchor="start" x="907.9053" y="-46.3" font-family="Helvetica,sans-Serif" font-size="11.00" fill="#000000">0 &gt;</text>
<polygon fill="none" stroke="#000000" stroke-width="2" points="522,-39.2 522,-237.2 927,-237.2 927,-39.2 522,-39.2"/>
</a>
</g>
</g>
<!-- TARGETS_THERAPEUTIC_AREAS&#45;&gt;TARGETS -->
<g id="edge14" class="edge">
<title>TARGETS_THERAPEUTIC_AREAS:w&#45;&gt;TARGETS:e</title>
<path fill="none" stroke="#000000" d="M509.3653,-96.0298C439.7043,-139.3282 565.6875,-535.2 472,-535.2"/>
<polygon fill="#000000" stroke="#000000" points="515.7784,-94.2922 524.4415,-95.6747 519.6392,-93.2461 523.5,-92.2 523.5,-92.2 523.5,-92.2 519.6392,-93.2461 522.5585,-88.7253 515.7784,-94.2922 515.7784,-94.2922"/>
<ellipse fill="none" stroke="#000000" cx="512.6898" cy="-95.1291" rx="3.2" ry="3.2"/>
</g>
<!-- TARGETS_THERAPEUTIC_AREAS&#45;&gt;THERAPEUTIC_AREAS -->
<g id="edge15" class="edge">
<title>TARGETS_THERAPEUTIC_AREAS:w&#45;&gt;THERAPEUTIC_AREAS:e</title>
<path fill="none" stroke="#000000" d="M508.979,-70.7035C332.3185,-83.2275 360.3323,-325.2 172.5,-325.2"/>
<polygon fill="#000000" stroke="#000000" points="515.5048,-70.4773 523.6248,-73.7978 519.5024,-70.3386 523.5,-70.2 523.5,-70.2 523.5,-70.2 519.5024,-70.3386 523.3752,-66.6022 515.5048,-70.4773 515.5048,-70.4773"/>
<ellipse fill="none" stroke="#000000" cx="512.3067" cy="-70.5882" rx="3.2" ry="3.2"/>
</g>
<!-- TARGETS_USERS -->
<g id="node13" class="node">
<title>TARGETS_USERS</title>
<g id="a_node13"><a xlink:href="../../tables/TARGETS_USERS.html" xlink:title="TARGETS_USERS" target="_top">
<polygon fill="#ffffff" stroke="transparent" points="655.5,-670.7 655.5,-731.7 793.5,-731.7 793.5,-670.7 655.5,-670.7"/>
<polygon fill="#f5f5f5" stroke="transparent" points="655.5,-708.2 655.5,-731.2 793.5,-731.2 793.5,-708.2 655.5,-708.2"/>
<polygon fill="none" stroke="#000000" points="655.5,-708.2 655.5,-731.2 793.5,-731.2 793.5,-708.2 655.5,-708.2"/>
<text text-anchor="start" x="660.0251" y="-717.3" font-family="Helvetica,sans-Serif" font-weight="bold" font-size="11.00" fill="#000000">TARGETS_USERS</text>
<text text-anchor="start" x="759.0219" y="-716.3" font-family="Helvetica,sans-Serif" font-size="11.00" fill="#000000">[table]</text>
<polygon fill="none" stroke="#000000" points="655.5,-689.2 655.5,-708.2 793.5,-708.2 793.5,-689.2 655.5,-689.2"/>
<text text-anchor="start" x="658.5" y="-695.3" font-family="Helvetica,sans-Serif" font-size="11.00" fill="#000000">...</text>
<polygon fill="#ffffff" stroke="transparent" points="655.5,-670.2 655.5,-689.2 706.5,-689.2 706.5,-670.2 655.5,-670.2"/>
<polygon fill="none" stroke="#000000" points="655.5,-670.2 655.5,-689.2 706.5,-689.2 706.5,-670.2 655.5,-670.2"/>
<text text-anchor="start" x="658.5" y="-676.3" font-family="Helvetica,sans-Serif" font-size="11.00" fill="#000000">&lt; 3</text>
<polygon fill="#ffffff" stroke="transparent" points="706.5,-670.2 706.5,-689.2 765.5,-689.2 765.5,-670.2 706.5,-670.2"/>
<polygon fill="none" stroke="#000000" points="706.5,-670.2 706.5,-689.2 765.5,-689.2 765.5,-670.2 706.5,-670.2"/>
<text text-anchor="start" x="723.9956" y="-676.3" font-family="Helvetica,sans-Serif" font-size="11.00" fill="#000000">35 rows</text>
<polygon fill="#ffffff" stroke="transparent" points="765.5,-670.2 765.5,-689.2 793.5,-689.2 793.5,-670.2 765.5,-670.2"/>
<polygon fill="none" stroke="#000000" points="765.5,-670.2 765.5,-689.2 793.5,-689.2 793.5,-670.2 765.5,-670.2"/>
<text text-anchor="start" x="784.3862" y="-676.3" font-family="Helvetica,sans-Serif" font-size="11.00" fill="#000000"> &#160;</text>
</a>
</g>
</g>
<!-- TARGETS_USERS&#45;&gt;TARGETS -->
<g id="edge16" class="edge">
<title>TARGETS_USERS:w&#45;&gt;TARGETS:e</title>
<path fill="none" stroke="#000000" d="M641.0341,-698.2416C584.9678,-698.4831 556.9874,-698.4588 513,-656.2 472.0532,-616.8623 528.7811,-535.2 472,-535.2"/>
<polygon fill="#000000" stroke="#000000" points="647.5,-698.2231 655.5104,-701.8 651.5,-698.2115 655.5,-698.2 655.5,-698.2 655.5,-698.2 651.5,-698.2115 655.4896,-694.6 647.5,-698.2231 647.5,-698.2231"/>
<ellipse fill="none" stroke="#000000" cx="644.3" cy="-698.2323" rx="3.2" ry="3.2"/>
</g>
<!-- TRACER_SYNTHESIS_REQUESTS -->
<g id="node14" class="node">
<title>TRACER_SYNTHESIS_REQUESTS</title>
<g id="a_node14"><a xlink:href="../../tables/TRACER_SYNTHESIS_REQUESTS.html" xlink:title="TRACER_SYNTHESIS_REQUESTS" target="_top">
<polygon fill="#ffffff" stroke="transparent" points="1159,-618.7 1159,-679.7 1382,-679.7 1382,-618.7 1159,-618.7"/>
<polygon fill="#f5f5f5" stroke="transparent" points="1159.5,-656.2 1159.5,-679.2 1382.5,-679.2 1382.5,-656.2 1159.5,-656.2"/>
<polygon fill="none" stroke="#000000" points="1159.5,-656.2 1159.5,-679.2 1382.5,-679.2 1382.5,-656.2 1159.5,-656.2"/>
<text text-anchor="start" x="1164.3578" y="-665.3" font-family="Helvetica,sans-Serif" font-weight="bold" font-size="11.00" fill="#000000">TRACER_SYNTHESIS_REQUESTS</text>
<text text-anchor="start" x="1348.0219" y="-664.3" font-family="Helvetica,sans-Serif" font-size="11.00" fill="#000000">[table]</text>
<polygon fill="none" stroke="#000000" points="1159.5,-637.2 1159.5,-656.2 1382.5,-656.2 1382.5,-637.2 1159.5,-637.2"/>
<text text-anchor="start" x="1162.5" y="-643.3" font-family="Helvetica,sans-Serif" font-size="11.00" fill="#000000">...</text>
<polygon fill="#ffffff" stroke="transparent" points="1159.5,-618.2 1159.5,-637.2 1251.5,-637.2 1251.5,-618.2 1159.5,-618.2"/>
<polygon fill="none" stroke="#000000" points="1159.5,-618.2 1159.5,-637.2 1251.5,-637.2 1251.5,-618.2 1159.5,-618.2"/>
<text text-anchor="start" x="1162.5" y="-624.3" font-family="Helvetica,sans-Serif" font-size="11.00" fill="#000000">&lt; 12</text>
<polygon fill="#ffffff" stroke="transparent" points="1251.5,-618.2 1251.5,-637.2 1328.5,-637.2 1328.5,-618.2 1251.5,-618.2"/>
<polygon fill="none" stroke="#000000" points="1251.5,-618.2 1251.5,-637.2 1328.5,-637.2 1328.5,-618.2 1251.5,-618.2"/>
<text text-anchor="start" x="1286.9956" y="-624.3" font-family="Helvetica,sans-Serif" font-size="11.00" fill="#000000">21 rows</text>
<polygon fill="#ffffff" stroke="transparent" points="1328.5,-618.2 1328.5,-637.2 1382.5,-637.2 1382.5,-618.2 1328.5,-618.2"/>
<polygon fill="none" stroke="#000000" points="1328.5,-618.2 1328.5,-637.2 1382.5,-637.2 1382.5,-618.2 1328.5,-618.2"/>
<text text-anchor="start" x="1363.9053" y="-624.3" font-family="Helvetica,sans-Serif" font-size="11.00" fill="#000000">2 &gt;</text>
</a>
</g>
</g>
<!-- TRACER_SYNTHESIS_REQUESTS&#45;&gt;TARGETS -->
<g id="edge19" class="edge">
<title>TRACER_SYNTHESIS_REQUESTS:w&#45;&gt;TARGETS:e</title>
<path fill="none" stroke="#000000" d="M1144.9052,-646.3741C1035.5464,-648.427 569.5094,-667.2737 513,-629.2 475.2003,-603.7321 517.5789,-535.2 472,-535.2"/>
<polygon fill="#000000" stroke="#000000" points="1151.5006,-646.2955 1159.543,-649.7997 1155.5003,-646.2477 1159.5,-646.2 1159.5,-646.2 1159.5,-646.2 1155.5003,-646.2477 1159.457,-642.6003 1151.5006,-646.2955 1151.5006,-646.2955"/>
<ellipse fill="none" stroke="#000000" cx="1148.3008" cy="-646.3337" rx="3.2" ry="3.2"/>
</g>
<!-- TRACER_SYNTHESIS_REQUESTS&#45;&gt;TARGET_FORMS -->
<g id="edge18" class="edge">
<title>TRACER_SYNTHESIS_REQUESTS:w&#45;&gt;TARGET_FORMS:e</title>
<path fill="none" stroke="#000000" d="M1145.8596,-641.5415C1128.1978,-625.7459 1142.8501,-575.2 1110.5,-575.2"/>
<polygon fill="#000000" stroke="#000000" points="1151.9293,-643.6144 1158.3365,-649.6068 1155.7147,-644.9072 1159.5,-646.2 1159.5,-646.2 1159.5,-646.2 1155.7147,-644.9072 1160.6635,-642.7932 1151.9293,-643.6144 1151.9293,-643.6144"/>
<ellipse fill="none" stroke="#000000" cx="1148.9011" cy="-642.5802" rx="3.2" ry="3.2"/>
</g>
<!-- TRACER_SYNTHESIS_REQUESTS&#45;&gt;TARGET_CATEGORIES -->
<g id="edge17" class="edge">
<title>TRACER_SYNTHESIS_REQUESTS:w&#45;&gt;TARGET_CATEGORIES:e</title>
<path fill="none" stroke="#000000" d="M1145.1907,-648.5498C1081.753,-668.1877 991.6058,-804.7628 936,-824.2 632.7485,-930.2027 530.1887,-846.969 214,-790.2 195.7512,-786.9236 192.0406,-780.2 173.5,-780.2"/>
<polygon fill="#000000" stroke="#000000" points="1151.6057,-647.4964 1160.0834,-649.7524 1155.5529,-646.8482 1159.5,-646.2 1159.5,-646.2 1159.5,-646.2 1155.5529,-646.8482 1158.9166,-642.6476 1151.6057,-647.4964 1151.6057,-647.4964"/>
<ellipse fill="none" stroke="#000000" cx="1148.448" cy="-648.015" rx="3.2" ry="3.2"/>
</g>
</g>
</svg>
