<?xml version="1.0" encoding="UTF-8" standalone="no"?>
<!DOCTYPE svg PUBLIC "-//W3C//DTD SVG 1.1//EN"
 "http://www.w3.org/Graphics/SVG/1.1/DTD/svg11.dtd">
<!-- Generated by graphviz version 2.40.1 (20161225.0304)
 -->
<!-- Title: oneDegreeRelationshipsDiagram Pages: 1 -->
<svg width="850pt" height="385pt"
 viewBox="0.00 0.00 850.00 384.70" xmlns="http://www.w3.org/2000/svg" xmlns:xlink="http://www.w3.org/1999/xlink">
<g id="graph0" class="graph" transform="scale(1 1) rotate(0) translate(4 380.7)">
<title>oneDegreeRelationshipsDiagram</title>
<polygon fill="#ffffff" stroke="transparent" points="-4,4 -4,-380.7 846,-380.7 846,4 -4,4"/>
<text text-anchor="middle" x="72.4936" y="-7.3" font-family="Helvetica,sans-Serif" font-size="11.00" fill="#000000">Generated by SchemaSpy</text>
<!-- TARGET_FORMS_ISOFORM_ANNOTATIONS -->
<g id="node1" class="node">
<title>TARGET_FORMS_ISOFORM_ANNOTATIONS</title>
<g id="a_node1"><a xlink:href="../../tables/TARGET_FORMS_ISOFORM_ANNOTATIONS.html" xlink:title="TARGET_FORMS_ISOFORM_ANNOTATIONS" target="_top">
<polygon fill="#ffffff" stroke="transparent" points="358,-150.7 358,-372.7 834,-372.7 834,-150.7 358,-150.7"/>
<polygon fill="#f5f5f5" stroke="transparent" points="360,-347.7 360,-370.7 832,-370.7 832,-347.7 360,-347.7"/>
<polygon fill="none" stroke="#000000" points="360,-347.7 360,-370.7 832,-370.7 832,-347.7 360,-347.7"/>
<text text-anchor="start" x="365" y="-356.8" font-family="Helvetica,sans-Serif" font-weight="bold" font-size="11.00" fill="#000000">TARGET_FORMS_ISOFORM_ANNOTATIONS</text>
<text text-anchor="start" x="797.0437" y="-355.8" font-family="Helvetica,sans-Serif" font-size="11.00" fill="#000000">[table]</text>
<polygon fill="none" stroke="#000000" points="360,-325.7 360,-347.7 661,-347.7 661,-325.7 360,-325.7"/>
<image xlink:href="../../images/primaryKeys.png" width="11px" height="12px" preserveAspectRatio="xMinYMin meet" x="365" y="-342.7"/>
<text text-anchor="start" x="380" y="-332.8" font-family="Helvetica,sans-Serif" font-size="11.00" fill="#000000">ID</text>
<polygon fill="none" stroke="#000000" points="661,-325.7 661,-347.7 832,-347.7 832,-325.7 661,-325.7"/>
<text text-anchor="start" x="664" y="-333.4" font-family="Helvetica,sans-Serif" font-size="11.00" fill="#000000">number[19]</text>
<polygon fill="none" stroke="#000000" points="360,-303.7 360,-325.7 661,-325.7 661,-303.7 360,-303.7"/>
<text text-anchor="start" x="380" y="-310.8" font-family="Helvetica,sans-Serif" font-size="11.00" fill="#000000">CREATED_AT</text>
<polygon fill="none" stroke="#000000" points="661,-303.7 661,-325.7 832,-325.7 832,-303.7 661,-303.7"/>
<text text-anchor="start" x="663.9896" y="-311.4" font-family="Helvetica,sans-Serif" font-size="11.00" fill="#000000">timestamp(6) with time zone[13,6]</text>
<polygon fill="none" stroke="#000000" points="360,-281.7 360,-303.7 661,-303.7 661,-281.7 360,-281.7"/>
<text text-anchor="start" x="380" y="-288.8" font-family="Helvetica,sans-Serif" font-size="11.00" fill="#000000">CREATED_BY</text>
<polygon fill="none" stroke="#000000" points="661,-281.7 661,-303.7 832,-303.7 832,-281.7 661,-281.7"/>
<text text-anchor="start" x="664" y="-289.4" font-family="Helvetica,sans-Serif" font-size="11.00" fill="#000000">number[19]</text>
<polygon fill="none" stroke="#000000" points="360,-259.7 360,-281.7 661,-281.7 661,-259.7 360,-259.7"/>
<text text-anchor="start" x="380" y="-266.8" font-family="Helvetica,sans-Serif" font-size="11.00" fill="#000000">UPDATED_AT</text>
<polygon fill="none" stroke="#000000" points="661,-259.7 661,-281.7 832,-281.7 832,-259.7 661,-259.7"/>
<text text-anchor="start" x="663.9896" y="-267.4" font-family="Helvetica,sans-Serif" font-size="11.00" fill="#000000">timestamp(6) with time zone[13,6]</text>
<polygon fill="none" stroke="#000000" points="360,-237.7 360,-259.7 661,-259.7 661,-237.7 360,-237.7"/>
<text text-anchor="start" x="380" y="-244.8" font-family="Helvetica,sans-Serif" font-size="11.00" fill="#000000">UPDATED_BY</text>
<polygon fill="none" stroke="#000000" points="661,-237.7 661,-259.7 832,-259.7 832,-237.7 661,-237.7"/>
<text text-anchor="start" x="664" y="-245.4" font-family="Helvetica,sans-Serif" font-size="11.00" fill="#000000">number[19]</text>
<polygon fill="none" stroke="#000000" points="360,-215.7 360,-237.7 661,-237.7 661,-215.7 360,-215.7"/>
<image xlink:href="../../images/primaryKeys.png" width="11px" height="12px" preserveAspectRatio="xMinYMin meet" x="365" y="-232.7"/>
<text text-anchor="start" x="380" y="-222.8" font-family="Helvetica,sans-Serif" font-size="11.00" fill="#000000">TARGET_FORM_ID</text>
<polygon fill="none" stroke="#000000" points="661,-215.7 661,-237.7 832,-237.7 832,-215.7 661,-215.7"/>
<text text-anchor="start" x="664" y="-223.4" font-family="Helvetica,sans-Serif" font-size="11.00" fill="#000000">number[19]</text>
<polygon fill="none" stroke="#000000" points="360,-193.7 360,-215.7 661,-215.7 661,-193.7 360,-193.7"/>
<image xlink:href="../../images/primaryKeys.png" width="11px" height="12px" preserveAspectRatio="xMinYMin meet" x="365" y="-210.7"/>
<text text-anchor="start" x="380" y="-200.8" font-family="Helvetica,sans-Serif" font-size="11.00" fill="#000000">ISOFORM_ANNOTATION_ID</text>
<polygon fill="none" stroke="#000000" points="661,-193.7 661,-215.7 832,-215.7 832,-193.7 661,-193.7"/>
<text text-anchor="start" x="664" y="-201.4" font-family="Helvetica,sans-Serif" font-size="11.00" fill="#000000">number[19]</text>
<polygon fill="none" stroke="#000000" points="360,-171.7 360,-193.7 661,-193.7 661,-171.7 360,-171.7"/>
<text text-anchor="start" x="380" y="-178.8" font-family="Helvetica,sans-Serif" font-size="11.00" fill="#000000">IS_INCLUDED</text>
<polygon fill="none" stroke="#000000" points="661,-171.7 661,-193.7 832,-193.7 832,-171.7 661,-171.7"/>
<text text-anchor="start" x="664" y="-179.4" font-family="Helvetica,sans-Serif" font-size="11.00" fill="#000000">number[1]</text>
<polygon fill="#ffffff" stroke="transparent" points="360,-152.7 360,-171.7 502,-171.7 502,-152.7 360,-152.7"/>
<polygon fill="none" stroke="#000000" points="360,-152.7 360,-171.7 502,-171.7 502,-152.7 360,-152.7"/>
<text text-anchor="start" x="363" y="-158.8" font-family="Helvetica,sans-Serif" font-size="11.00" fill="#000000">&lt; 2</text>
<polygon fill="#ffffff" stroke="transparent" points="502,-152.7 502,-171.7 661,-171.7 661,-152.7 502,-152.7"/>
<polygon fill="none" stroke="#000000" points="502,-152.7 502,-171.7 661,-171.7 661,-152.7 502,-152.7"/>
<text text-anchor="start" x="625.6105" y="-158.8" font-family="Helvetica,sans-Serif" font-size="11.00" fill="#000000">4 rows</text>
<polygon fill="#ffffff" stroke="transparent" points="661,-152.7 661,-171.7 832,-171.7 832,-152.7 661,-152.7"/>
<polygon fill="none" stroke="#000000" points="661,-152.7 661,-171.7 832,-171.7 832,-152.7 661,-152.7"/>
<text text-anchor="start" x="813.4053" y="-158.8" font-family="Helvetica,sans-Serif" font-size="11.00" fill="#000000">0 &gt;</text>
<polygon fill="none" stroke="#000000" stroke-width="2" points="359,-151.7 359,-371.7 833,-371.7 833,-151.7 359,-151.7"/>
</a>
</g>
</g>
<!-- ISOFORM_ANNOTATIONS -->
<g id="node2" class="node">
<title>ISOFORM_ANNOTATIONS</title>
<g id="a_node2"><a xlink:href="../../tables/ISOFORM_ANNOTATIONS.html" xlink:title="ISOFORM_ANNOTATIONS" target="_top">
<polygon fill="#ffffff" stroke="transparent" points="64.5,-38.2 64.5,-143.2 252.5,-143.2 252.5,-38.2 64.5,-38.2"/>
<polygon fill="#f5f5f5" stroke="transparent" points="64.5,-119.7 64.5,-142.7 252.5,-142.7 252.5,-119.7 64.5,-119.7"/>
<polygon fill="none" stroke="#000000" points="64.5,-119.7 64.5,-142.7 252.5,-142.7 252.5,-119.7 64.5,-119.7"/>
<text text-anchor="start" x="69.5" y="-128.8" font-family="Helvetica,sans-Serif" font-weight="bold" font-size="11.00" fill="#000000">ISOFORM_ANNOTATIONS</text>
<text text-anchor="start" x="217.5437" y="-127.8" font-family="Helvetica,sans-Serif" font-size="11.00" fill="#000000">[table]</text>
<polygon fill="none" stroke="#000000" points="64.5,-97.7 64.5,-119.7 252.5,-119.7 252.5,-97.7 64.5,-97.7"/>
<image xlink:href="../../images/primaryKeys.png" width="11px" height="12px" preserveAspectRatio="xMinYMin meet" x="69.5" y="-114.7"/>
<text text-anchor="start" x="84.5" y="-104.8" font-family="Helvetica,sans-Serif" font-size="11.00" fill="#000000">ID</text>
<polygon fill="none" stroke="#000000" points="64.5,-75.7 64.5,-97.7 252.5,-97.7 252.5,-75.7 64.5,-75.7"/>
<image xlink:href="../../images/foreignKeys.png" width="11px" height="12px" preserveAspectRatio="xMinYMin meet" x="69.5" y="-92.7"/>
<text text-anchor="start" x="84.5" y="-82.8" font-family="Helvetica,sans-Serif" font-size="11.00" fill="#000000">ISOFORM_ID</text>
<polygon fill="none" stroke="#000000" points="64.5,-56.7 64.5,-75.7 252.5,-75.7 252.5,-56.7 64.5,-56.7"/>
<text text-anchor="start" x="67.5" y="-62.8" font-family="Helvetica,sans-Serif" font-size="11.00" fill="#000000">...</text>
<polygon fill="#ffffff" stroke="transparent" points="64.5,-37.7 64.5,-56.7 139.5,-56.7 139.5,-37.7 64.5,-37.7"/>
<polygon fill="none" stroke="#000000" points="64.5,-37.7 64.5,-56.7 139.5,-56.7 139.5,-37.7 64.5,-37.7"/>
<text text-anchor="start" x="67.5" y="-43.8" font-family="Helvetica,sans-Serif" font-size="11.00" fill="#000000">&lt; 1</text>
<polygon fill="#ffffff" stroke="transparent" points="139.5,-37.7 139.5,-56.7 204.5,-56.7 204.5,-37.7 139.5,-37.7"/>
<polygon fill="none" stroke="#000000" points="139.5,-37.7 139.5,-56.7 204.5,-56.7 204.5,-37.7 139.5,-37.7"/>
<text text-anchor="start" x="169.1105" y="-43.8" font-family="Helvetica,sans-Serif" font-size="11.00" fill="#000000">9 rows</text>
<polygon fill="#ffffff" stroke="transparent" points="204.5,-37.7 204.5,-56.7 252.5,-56.7 252.5,-37.7 204.5,-37.7"/>
<polygon fill="none" stroke="#000000" points="204.5,-37.7 204.5,-56.7 252.5,-56.7 252.5,-37.7 204.5,-37.7"/>
<text text-anchor="start" x="233.9053" y="-43.8" font-family="Helvetica,sans-Serif" font-size="11.00" fill="#000000">3 &gt;</text>
</a>
</g>
</g>
<!-- TARGET_FORMS_ISOFORM_ANNOTATIONS&#45;&gt;ISOFORM_ANNOTATIONS -->
<g id="edge1" class="edge">
<title>TARGET_FORMS_ISOFORM_ANNOTATIONS:w&#45;&gt;ISOFORM_ANNOTATIONS:e</title>
<path fill="none" stroke="#000000" d="M345.6926,-200.9547C332.6032,-192.1065 334.2801,-169.4698 317,-153.7 291.1813,-130.1379 287.4539,-108.7 252.5,-108.7"/>
<polygon fill="#000000" stroke="#000000" points="352.2608,-202.674 359.0883,-208.1827 356.1304,-203.687 360,-204.7 360,-204.7 360,-204.7 356.1304,-203.687 360.9117,-201.2173 352.2608,-202.674 352.2608,-202.674"/>
<ellipse fill="none" stroke="#000000" cx="349.1651" cy="-201.8636" rx="3.2" ry="3.2"/>
</g>
<!-- TARGET_FORMS -->
<g id="node3" class="node">
<title>TARGET_FORMS</title>
<g id="a_node3"><a xlink:href="../../tables/TARGET_FORMS.html" xlink:title="TARGET_FORMS" target="_top">
<polygon fill="#ffffff" stroke="transparent" points="8,-164.2 8,-357.2 309,-357.2 309,-164.2 8,-164.2"/>
<polygon fill="#f5f5f5" stroke="transparent" points="8.5,-333.7 8.5,-356.7 309.5,-356.7 309.5,-333.7 8.5,-333.7"/>
<polygon fill="none" stroke="#000000" points="8.5,-333.7 8.5,-356.7 309.5,-356.7 309.5,-333.7 8.5,-333.7"/>
<text text-anchor="start" x="13.5" y="-342.8" font-family="Helvetica,sans-Serif" font-weight="bold" font-size="11.00" fill="#000000">TARGET_FORMS</text>
<text text-anchor="start" x="274.5437" y="-341.8" font-family="Helvetica,sans-Serif" font-size="11.00" fill="#000000">[table]</text>
<polygon fill="none" stroke="#000000" points="8.5,-311.7 8.5,-333.7 309.5,-333.7 309.5,-311.7 8.5,-311.7"/>
<image xlink:href="../../images/primaryKeys.png" width="11px" height="12px" preserveAspectRatio="xMinYMin meet" x="13.5" y="-328.7"/>
<text text-anchor="start" x="28.5" y="-318.8" font-family="Helvetica,sans-Serif" font-size="11.00" fill="#000000">ID</text>
<polygon fill="none" stroke="#000000" points="8.5,-289.7 8.5,-311.7 309.5,-311.7 309.5,-289.7 8.5,-289.7"/>
<image xlink:href="../../images/foreignKeys.png" width="11px" height="12px" preserveAspectRatio="xMinYMin meet" x="13.5" y="-306.7"/>
<text text-anchor="start" x="28.5" y="-296.8" font-family="Helvetica,sans-Serif" font-size="11.00" fill="#000000">TARGET_ID</text>
<polygon fill="none" stroke="#000000" points="8.5,-267.7 8.5,-289.7 309.5,-289.7 309.5,-267.7 8.5,-267.7"/>
<image xlink:href="../../images/foreignKeys.png" width="11px" height="12px" preserveAspectRatio="xMinYMin meet" x="13.5" y="-284.7"/>
<text text-anchor="start" x="28.5" y="-274.8" font-family="Helvetica,sans-Serif" font-size="11.00" fill="#000000">SPECIES_ID</text>
<polygon fill="none" stroke="#000000" points="8.5,-245.7 8.5,-267.7 309.5,-267.7 309.5,-245.7 8.5,-245.7"/>
<image xlink:href="../../images/foreignKeys.png" width="11px" height="12px" preserveAspectRatio="xMinYMin meet" x="13.5" y="-262.7"/>
<text text-anchor="start" x="28.5" y="-252.8" font-family="Helvetica,sans-Serif" font-size="11.00" fill="#000000">POST_TRANSLATIONAL_MODIFICATION_ID</text>
<polygon fill="none" stroke="#000000" points="8.5,-223.7 8.5,-245.7 309.5,-245.7 309.5,-223.7 8.5,-223.7"/>
<image xlink:href="../../images/foreignKeys.png" width="11px" height="12px" preserveAspectRatio="xMinYMin meet" x="13.5" y="-240.7"/>
<text text-anchor="start" x="28.5" y="-230.8" font-family="Helvetica,sans-Serif" font-size="11.00" fill="#000000">ISOFORM_ID</text>
<polygon fill="none" stroke="#000000" points="8.5,-201.7 8.5,-223.7 309.5,-223.7 309.5,-201.7 8.5,-201.7"/>
<image xlink:href="../../images/foreignKeys.png" width="11px" height="12px" preserveAspectRatio="xMinYMin meet" x="13.5" y="-218.7"/>
<text text-anchor="start" x="28.5" y="-208.8" font-family="Helvetica,sans-Serif" font-size="11.00" fill="#000000">EXPRESSION_SYSTEM_ID</text>
<polygon fill="none" stroke="#000000" points="8.5,-182.7 8.5,-201.7 309.5,-201.7 309.5,-182.7 8.5,-182.7"/>
<text text-anchor="start" x="11.5" y="-188.8" font-family="Helvetica,sans-Serif" font-size="11.00" fill="#000000">...</text>
<polygon fill="#ffffff" stroke="transparent" points="8.5,-163.7 8.5,-182.7 130.5,-182.7 130.5,-163.7 8.5,-163.7"/>
<polygon fill="none" stroke="#000000" points="8.5,-163.7 8.5,-182.7 130.5,-182.7 130.5,-163.7 8.5,-163.7"/>
<text text-anchor="start" x="11.5" y="-169.8" font-family="Helvetica,sans-Serif" font-size="11.00" fill="#000000">&lt; 5</text>
<polygon fill="#ffffff" stroke="transparent" points="130.5,-163.7 130.5,-182.7 231.5,-182.7 231.5,-163.7 130.5,-163.7"/>
<polygon fill="none" stroke="#000000" points="130.5,-163.7 130.5,-182.7 231.5,-182.7 231.5,-163.7 130.5,-163.7"/>
<text text-anchor="start" x="183.8807" y="-169.8" font-family="Helvetica,sans-Serif" font-size="11.00" fill="#000000">541 rows</text>
<polygon fill="#ffffff" stroke="transparent" points="231.5,-163.7 231.5,-182.7 309.5,-182.7 309.5,-163.7 231.5,-163.7"/>
<polygon fill="none" stroke="#000000" points="231.5,-163.7 231.5,-182.7 309.5,-182.7 309.5,-163.7 231.5,-163.7"/>
<text text-anchor="start" x="284.7904" y="-169.8" font-family="Helvetica,sans-Serif" font-size="11.00" fill="#000000">18 &gt;</text>
</a>
</g>
</g>
<!-- TARGET_FORMS_ISOFORM_ANNOTATIONS&#45;&gt;TARGET_FORMS -->
<g id="edge2" class="edge">
<title>TARGET_FORMS_ISOFORM_ANNOTATIONS:w&#45;&gt;TARGET_FORMS:e</title>
<path fill="none" stroke="#000000" d="M345.9659,-230.825C321.7993,-249.2 351.6837,-322.7 309.5,-322.7"/>
<polygon fill="#000000" stroke="#000000" points="352.3247,-228.956 361.0152,-230.1539 356.1623,-227.828 360,-226.7 360,-226.7 360,-226.7 356.1623,-227.828 358.9848,-223.2461 352.3247,-228.956 352.3247,-228.956"/>
<ellipse fill="none" stroke="#000000" cx="349.2545" cy="-229.8584" rx="3.2" ry="3.2"/>
</g>
</g>
</svg>
