<?xml version="1.0" encoding="UTF-8" standalone="no"?>
<!DOCTYPE svg PUBLIC "-//W3C//DTD SVG 1.1//EN"
 "http://www.w3.org/Graphics/SVG/1.1/DTD/svg11.dtd">
<!-- Generated by graphviz version 2.40.1 (20161225.0304)
 -->
<!-- Title: twoDegreesRelationshipsDiagram Pages: 1 -->
<svg width="1542pt" height="1738pt"
 viewBox="0.00 0.00 1542.00 1737.53" xmlns="http://www.w3.org/2000/svg" xmlns:xlink="http://www.w3.org/1999/xlink">
<g id="graph0" class="graph" transform="scale(1 1) rotate(0) translate(4 1733.5281)">
<title>twoDegreesRelationshipsDiagram</title>
<polygon fill="#ffffff" stroke="transparent" points="-4,4 -4,-1733.5281 1538,-1733.5281 1538,4 -4,4"/>
<text text-anchor="middle" x="72.4936" y="-7.3" font-family="Helvetica,sans-Serif" font-size="11.00" fill="#000000">Generated by SchemaSpy</text>
<!-- CLONE_FORMS -->
<g id="node1" class="node">
<title>CLONE_FORMS</title>
<g id="a_node1"><a xlink:href="../../tables/CLONE_FORMS.html" xlink:title="CLONE_FORMS" target="_top">
<polygon fill="#ffffff" stroke="transparent" points="968.5,-1334.1429 968.5,-1395.1429 1094.5,-1395.1429 1094.5,-1334.1429 968.5,-1334.1429"/>
<polygon fill="#f5f5f5" stroke="transparent" points="968.5,-1371.6429 968.5,-1394.6429 1094.5,-1394.6429 1094.5,-1371.6429 968.5,-1371.6429"/>
<polygon fill="none" stroke="#000000" points="968.5,-1371.6429 968.5,-1394.6429 1094.5,-1394.6429 1094.5,-1371.6429 968.5,-1371.6429"/>
<text text-anchor="start" x="973.1401" y="-1380.7429" font-family="Helvetica,sans-Serif" font-weight="bold" font-size="11.00" fill="#000000">CLONE_FORMS</text>
<text text-anchor="start" x="1060.0219" y="-1379.7429" font-family="Helvetica,sans-Serif" font-size="11.00" fill="#000000">[table]</text>
<polygon fill="none" stroke="#000000" points="968.5,-1352.6429 968.5,-1371.6429 1094.5,-1371.6429 1094.5,-1352.6429 968.5,-1352.6429"/>
<text text-anchor="start" x="971.5" y="-1358.7429" font-family="Helvetica,sans-Serif" font-size="11.00" fill="#000000">...</text>
<polygon fill="#ffffff" stroke="transparent" points="968.5,-1333.6429 968.5,-1352.6429 1003.5,-1352.6429 1003.5,-1333.6429 968.5,-1333.6429"/>
<polygon fill="none" stroke="#000000" points="968.5,-1333.6429 968.5,-1352.6429 1003.5,-1352.6429 1003.5,-1333.6429 968.5,-1333.6429"/>
<text text-anchor="start" x="971.5" y="-1339.7429" font-family="Helvetica,sans-Serif" font-size="11.00" fill="#000000">&lt; 4</text>
<polygon fill="#ffffff" stroke="transparent" points="1003.5,-1333.6429 1003.5,-1352.6429 1060.5,-1352.6429 1060.5,-1333.6429 1003.5,-1333.6429"/>
<polygon fill="none" stroke="#000000" points="1003.5,-1333.6429 1003.5,-1352.6429 1060.5,-1352.6429 1060.5,-1333.6429 1003.5,-1333.6429"/>
<text text-anchor="start" x="1012.8807" y="-1339.7429" font-family="Helvetica,sans-Serif" font-size="11.00" fill="#000000">467 rows</text>
<polygon fill="#ffffff" stroke="transparent" points="1060.5,-1333.6429 1060.5,-1352.6429 1094.5,-1352.6429 1094.5,-1333.6429 1060.5,-1333.6429"/>
<polygon fill="none" stroke="#000000" points="1060.5,-1333.6429 1060.5,-1352.6429 1094.5,-1352.6429 1094.5,-1333.6429 1060.5,-1333.6429"/>
<text text-anchor="start" x="1069.7904" y="-1339.7429" font-family="Helvetica,sans-Serif" font-size="11.00" fill="#000000">14 &gt;</text>
</a>
</g>
</g>
<!-- ISOFORMS -->
<g id="node2" class="node">
<title>ISOFORMS</title>
<g id="a_node2"><a xlink:href="../../tables/ISOFORMS.html" xlink:title="ISOFORMS" target="_top">
<polygon fill="#ffffff" stroke="transparent" points="236,-1178.1429 236,-1239.1429 337,-1239.1429 337,-1178.1429 236,-1178.1429"/>
<polygon fill="#f5f5f5" stroke="transparent" points="236.5,-1215.6429 236.5,-1238.6429 337.5,-1238.6429 337.5,-1215.6429 236.5,-1215.6429"/>
<polygon fill="none" stroke="#000000" points="236.5,-1215.6429 236.5,-1238.6429 337.5,-1238.6429 337.5,-1215.6429 236.5,-1215.6429"/>
<text text-anchor="start" x="241.1674" y="-1224.7429" font-family="Helvetica,sans-Serif" font-weight="bold" font-size="11.00" fill="#000000">ISOFORMS</text>
<text text-anchor="start" x="303.0219" y="-1223.7429" font-family="Helvetica,sans-Serif" font-size="11.00" fill="#000000">[table]</text>
<polygon fill="none" stroke="#000000" points="236.5,-1196.6429 236.5,-1215.6429 337.5,-1215.6429 337.5,-1196.6429 236.5,-1196.6429"/>
<text text-anchor="start" x="239.5" y="-1202.7429" font-family="Helvetica,sans-Serif" font-size="11.00" fill="#000000">...</text>
<polygon fill="#ffffff" stroke="transparent" points="236.5,-1177.6429 236.5,-1196.6429 258.5,-1196.6429 258.5,-1177.6429 236.5,-1177.6429"/>
<polygon fill="none" stroke="#000000" points="236.5,-1177.6429 236.5,-1196.6429 258.5,-1196.6429 258.5,-1177.6429 236.5,-1177.6429"/>
<text text-anchor="start" x="239.5" y="-1183.7429" font-family="Helvetica,sans-Serif" font-size="11.00" fill="#000000">&lt; 1</text>
<polygon fill="#ffffff" stroke="transparent" points="258.5,-1177.6429 258.5,-1196.6429 309.5,-1196.6429 309.5,-1177.6429 258.5,-1177.6429"/>
<polygon fill="none" stroke="#000000" points="258.5,-1177.6429 258.5,-1196.6429 309.5,-1196.6429 309.5,-1177.6429 258.5,-1177.6429"/>
<text text-anchor="start" x="261.8807" y="-1183.7429" font-family="Helvetica,sans-Serif" font-size="11.00" fill="#000000">519 rows</text>
<polygon fill="#ffffff" stroke="transparent" points="309.5,-1177.6429 309.5,-1196.6429 337.5,-1196.6429 337.5,-1177.6429 309.5,-1177.6429"/>
<polygon fill="none" stroke="#000000" points="309.5,-1177.6429 309.5,-1196.6429 337.5,-1196.6429 337.5,-1177.6429 309.5,-1177.6429"/>
<text text-anchor="start" x="312.7904" y="-1183.7429" font-family="Helvetica,sans-Serif" font-size="11.00" fill="#000000">10 &gt;</text>
</a>
</g>
</g>
<!-- CLONE_FORMS&#45;&gt;ISOFORMS -->
<g id="edge1" class="edge">
<title>CLONE_FORMS:w&#45;&gt;ISOFORMS:e</title>
<path fill="none" stroke="#000000" d="M953.9575,-1361.6462C736.5076,-1361.7323 668.6877,-1362.8844 459,-1283.6429 398.9733,-1260.9587 401.6699,-1205.6429 337.5,-1205.6429"/>
<polygon fill="#000000" stroke="#000000" points="960.5,-1361.6448 968.5008,-1365.2429 964.5,-1361.6439 968.5,-1361.6429 968.5,-1361.6429 968.5,-1361.6429 964.5,-1361.6439 968.4992,-1358.0429 960.5,-1361.6448 960.5,-1361.6448"/>
<ellipse fill="none" stroke="#000000" cx="957.3" cy="-1361.6455" rx="3.2" ry="3.2"/>
</g>
<!-- POST_TRANSLATIONAL_MODIFICATIONS -->
<g id="node3" class="node">
<title>POST_TRANSLATIONAL_MODIFICATIONS</title>
<g id="a_node3"><a xlink:href="../../tables/POST_TRANSLATIONAL_MODIFICATIONS.html" xlink:title="POST_TRANSLATIONAL_MODIFICATIONS" target="_top">
<polygon fill="#ffffff" stroke="transparent" points="155,-789.1429 155,-850.1429 418,-850.1429 418,-789.1429 155,-789.1429"/>
<polygon fill="#f5f5f5" stroke="transparent" points="155.5,-826.6429 155.5,-849.6429 418.5,-849.6429 418.5,-826.6429 155.5,-826.6429"/>
<polygon fill="none" stroke="#000000" points="155.5,-826.6429 155.5,-849.6429 418.5,-849.6429 418.5,-826.6429 155.5,-826.6429"/>
<text text-anchor="start" x="160.4956" y="-835.7429" font-family="Helvetica,sans-Serif" font-weight="bold" font-size="11.00" fill="#000000">POST_TRANSLATIONAL_MODIFICATIONS</text>
<text text-anchor="start" x="384.0219" y="-834.7429" font-family="Helvetica,sans-Serif" font-size="11.00" fill="#000000">[table]</text>
<polygon fill="none" stroke="#000000" points="155.5,-807.6429 155.5,-826.6429 418.5,-826.6429 418.5,-807.6429 155.5,-807.6429"/>
<text text-anchor="start" x="158.5" y="-813.7429" font-family="Helvetica,sans-Serif" font-size="11.00" fill="#000000">...</text>
<polygon fill="#ffffff" stroke="transparent" points="155.5,-788.6429 155.5,-807.6429 263.5,-807.6429 263.5,-788.6429 155.5,-788.6429"/>
<polygon fill="none" stroke="#000000" points="155.5,-788.6429 155.5,-807.6429 263.5,-807.6429 263.5,-788.6429 155.5,-788.6429"/>
<text text-anchor="start" x="158.5" y="-794.7429" font-family="Helvetica,sans-Serif" font-size="11.00" fill="#000000"> &#160;</text>
<polygon fill="#ffffff" stroke="transparent" points="263.5,-788.6429 263.5,-807.6429 349.5,-807.6429 349.5,-788.6429 263.5,-788.6429"/>
<polygon fill="none" stroke="#000000" points="263.5,-788.6429 263.5,-807.6429 349.5,-807.6429 349.5,-788.6429 263.5,-788.6429"/>
<text text-anchor="start" x="314.1105" y="-794.7429" font-family="Helvetica,sans-Serif" font-size="11.00" fill="#000000">2 rows</text>
<polygon fill="#ffffff" stroke="transparent" points="349.5,-788.6429 349.5,-807.6429 418.5,-807.6429 418.5,-788.6429 349.5,-788.6429"/>
<polygon fill="none" stroke="#000000" points="349.5,-788.6429 349.5,-807.6429 418.5,-807.6429 418.5,-788.6429 349.5,-788.6429"/>
<text text-anchor="start" x="399.9053" y="-794.7429" font-family="Helvetica,sans-Serif" font-size="11.00" fill="#000000">2 &gt;</text>
</a>
</g>
</g>
<!-- CLONE_FORMS&#45;&gt;POST_TRANSLATIONAL_MODIFICATIONS -->
<g id="edge2" class="edge">
<title>CLONE_FORMS:w&#45;&gt;POST_TRANSLATIONAL_MODIFICATIONS:e</title>
<path fill="none" stroke="#000000" d="M953.7358,-1361.7434C891.2366,-1362.5328 861.3606,-1366.6349 809,-1323.6429 781.7945,-1301.3052 795.9375,-1280.6534 776,-1251.6429 661.8955,-1085.6133 566.3818,-1098.0977 459,-927.6429 431.0087,-883.2103 471.0145,-816.6429 418.5,-816.6429"/>
<polygon fill="#000000" stroke="#000000" points="960.5002,-1361.6974 968.5245,-1365.2429 964.5001,-1361.6702 968.5,-1361.6429 968.5,-1361.6429 968.5,-1361.6429 964.5001,-1361.6702 968.4755,-1358.043 960.5002,-1361.6974 960.5002,-1361.6974"/>
<ellipse fill="none" stroke="#000000" cx="957.3003" cy="-1361.7192" rx="3.2" ry="3.2"/>
</g>
<!-- SPECIES -->
<g id="node4" class="node">
<title>SPECIES</title>
<g id="a_node4"><a xlink:href="../../tables/SPECIES.html" xlink:title="SPECIES" target="_top">
<polygon fill="#ffffff" stroke="transparent" points="241.5,-871.1429 241.5,-932.1429 331.5,-932.1429 331.5,-871.1429 241.5,-871.1429"/>
<polygon fill="#f5f5f5" stroke="transparent" points="241.5,-908.6429 241.5,-931.6429 331.5,-931.6429 331.5,-908.6429 241.5,-908.6429"/>
<polygon fill="none" stroke="#000000" points="241.5,-908.6429 241.5,-931.6429 331.5,-931.6429 331.5,-908.6429 241.5,-908.6429"/>
<text text-anchor="start" x="246.1614" y="-917.7429" font-family="Helvetica,sans-Serif" font-weight="bold" font-size="11.00" fill="#000000">SPECIES</text>
<text text-anchor="start" x="297.0219" y="-916.7429" font-family="Helvetica,sans-Serif" font-size="11.00" fill="#000000">[table]</text>
<polygon fill="none" stroke="#000000" points="241.5,-889.6429 241.5,-908.6429 331.5,-908.6429 331.5,-889.6429 241.5,-889.6429"/>
<text text-anchor="start" x="244.5" y="-895.7429" font-family="Helvetica,sans-Serif" font-size="11.00" fill="#000000">...</text>
<polygon fill="#ffffff" stroke="transparent" points="241.5,-870.6429 241.5,-889.6429 262.5,-889.6429 262.5,-870.6429 241.5,-870.6429"/>
<polygon fill="none" stroke="#000000" points="241.5,-870.6429 241.5,-889.6429 262.5,-889.6429 262.5,-870.6429 241.5,-870.6429"/>
<text text-anchor="start" x="244.5" y="-876.7429" font-family="Helvetica,sans-Serif" font-size="11.00" fill="#000000"> &#160;</text>
<polygon fill="#ffffff" stroke="transparent" points="262.5,-870.6429 262.5,-889.6429 305.5,-889.6429 305.5,-870.6429 262.5,-870.6429"/>
<polygon fill="none" stroke="#000000" points="262.5,-870.6429 262.5,-889.6429 305.5,-889.6429 305.5,-870.6429 262.5,-870.6429"/>
<text text-anchor="start" x="270.1105" y="-876.7429" font-family="Helvetica,sans-Serif" font-size="11.00" fill="#000000">3 rows</text>
<polygon fill="#ffffff" stroke="transparent" points="305.5,-870.6429 305.5,-889.6429 331.5,-889.6429 331.5,-870.6429 305.5,-870.6429"/>
<polygon fill="none" stroke="#000000" points="305.5,-870.6429 305.5,-889.6429 331.5,-889.6429 331.5,-870.6429 305.5,-870.6429"/>
<text text-anchor="start" x="312.9053" y="-876.7429" font-family="Helvetica,sans-Serif" font-size="11.00" fill="#000000">2 &gt;</text>
</a>
</g>
</g>
<!-- CLONE_FORMS&#45;&gt;SPECIES -->
<g id="edge3" class="edge">
<title>CLONE_FORMS:w&#45;&gt;SPECIES:e</title>
<path fill="none" stroke="#000000" d="M953.8153,-1361.632C891.9895,-1361.4766 866.7148,-1359.1245 809,-1323.6429 789.6571,-1311.7514 796.0587,-1295.2827 776,-1284.6429 650.8226,-1218.2453 570.4981,-1338.0854 459,-1250.6429 426.2677,-1224.9726 373.0978,-898.6429 331.5,-898.6429"/>
<polygon fill="#000000" stroke="#000000" points="960.5,-1361.6369 968.4973,-1365.2429 964.5,-1361.6399 968.5,-1361.6429 968.5,-1361.6429 968.5,-1361.6429 964.5,-1361.6399 968.5027,-1358.0429 960.5,-1361.6369 960.5,-1361.6369"/>
<ellipse fill="none" stroke="#000000" cx="957.3" cy="-1361.6345" rx="3.2" ry="3.2"/>
</g>
<!-- TARGET_FORMS -->
<g id="node5" class="node">
<title>TARGET_FORMS</title>
<g id="a_node5"><a xlink:href="../../tables/TARGET_FORMS.html" xlink:title="TARGET_FORMS" target="_top">
<polygon fill="#ffffff" stroke="transparent" points="467,-724.1429 467,-917.1429 768,-917.1429 768,-724.1429 467,-724.1429"/>
<polygon fill="#f5f5f5" stroke="transparent" points="467.5,-893.6429 467.5,-916.6429 768.5,-916.6429 768.5,-893.6429 467.5,-893.6429"/>
<polygon fill="none" stroke="#000000" points="467.5,-893.6429 467.5,-916.6429 768.5,-916.6429 768.5,-893.6429 467.5,-893.6429"/>
<text text-anchor="start" x="472.5" y="-902.7429" font-family="Helvetica,sans-Serif" font-weight="bold" font-size="11.00" fill="#000000">TARGET_FORMS</text>
<text text-anchor="start" x="733.5437" y="-901.7429" font-family="Helvetica,sans-Serif" font-size="11.00" fill="#000000">[table]</text>
<polygon fill="none" stroke="#000000" points="467.5,-871.6429 467.5,-893.6429 768.5,-893.6429 768.5,-871.6429 467.5,-871.6429"/>
<image xlink:href="../../images/primaryKeys.png" width="11px" height="12px" preserveAspectRatio="xMinYMin meet" x="472.5" y="-888.643"/>
<text text-anchor="start" x="487.5" y="-878.7429" font-family="Helvetica,sans-Serif" font-size="11.00" fill="#000000">ID</text>
<polygon fill="none" stroke="#000000" points="467.5,-849.6429 467.5,-871.6429 768.5,-871.6429 768.5,-849.6429 467.5,-849.6429"/>
<image xlink:href="../../images/foreignKeys.png" width="11px" height="12px" preserveAspectRatio="xMinYMin meet" x="472.5" y="-866.643"/>
<text text-anchor="start" x="487.5" y="-856.7429" font-family="Helvetica,sans-Serif" font-size="11.00" fill="#000000">TARGET_ID</text>
<polygon fill="none" stroke="#000000" points="467.5,-827.6429 467.5,-849.6429 768.5,-849.6429 768.5,-827.6429 467.5,-827.6429"/>
<image xlink:href="../../images/foreignKeys.png" width="11px" height="12px" preserveAspectRatio="xMinYMin meet" x="472.5" y="-844.643"/>
<text text-anchor="start" x="487.5" y="-834.7429" font-family="Helvetica,sans-Serif" font-size="11.00" fill="#000000">SPECIES_ID</text>
<polygon fill="none" stroke="#000000" points="467.5,-805.6429 467.5,-827.6429 768.5,-827.6429 768.5,-805.6429 467.5,-805.6429"/>
<image xlink:href="../../images/foreignKeys.png" width="11px" height="12px" preserveAspectRatio="xMinYMin meet" x="472.5" y="-822.643"/>
<text text-anchor="start" x="487.5" y="-812.7429" font-family="Helvetica,sans-Serif" font-size="11.00" fill="#000000">POST_TRANSLATIONAL_MODIFICATION_ID</text>
<polygon fill="none" stroke="#000000" points="467.5,-783.6429 467.5,-805.6429 768.5,-805.6429 768.5,-783.6429 467.5,-783.6429"/>
<image xlink:href="../../images/foreignKeys.png" width="11px" height="12px" preserveAspectRatio="xMinYMin meet" x="472.5" y="-800.643"/>
<text text-anchor="start" x="487.5" y="-790.7429" font-family="Helvetica,sans-Serif" font-size="11.00" fill="#000000">ISOFORM_ID</text>
<polygon fill="none" stroke="#000000" points="467.5,-761.6429 467.5,-783.6429 768.5,-783.6429 768.5,-761.6429 467.5,-761.6429"/>
<image xlink:href="../../images/foreignKeys.png" width="11px" height="12px" preserveAspectRatio="xMinYMin meet" x="472.5" y="-778.643"/>
<text text-anchor="start" x="487.5" y="-768.7429" font-family="Helvetica,sans-Serif" font-size="11.00" fill="#000000">EXPRESSION_SYSTEM_ID</text>
<polygon fill="none" stroke="#000000" points="467.5,-742.6429 467.5,-761.6429 768.5,-761.6429 768.5,-742.6429 467.5,-742.6429"/>
<text text-anchor="start" x="470.5" y="-748.7429" font-family="Helvetica,sans-Serif" font-size="11.00" fill="#000000">...</text>
<polygon fill="#ffffff" stroke="transparent" points="467.5,-723.6429 467.5,-742.6429 589.5,-742.6429 589.5,-723.6429 467.5,-723.6429"/>
<polygon fill="none" stroke="#000000" points="467.5,-723.6429 467.5,-742.6429 589.5,-742.6429 589.5,-723.6429 467.5,-723.6429"/>
<text text-anchor="start" x="470.5" y="-729.7429" font-family="Helvetica,sans-Serif" font-size="11.00" fill="#000000">&lt; 5</text>
<polygon fill="#ffffff" stroke="transparent" points="589.5,-723.6429 589.5,-742.6429 690.5,-742.6429 690.5,-723.6429 589.5,-723.6429"/>
<polygon fill="none" stroke="#000000" points="589.5,-723.6429 589.5,-742.6429 690.5,-742.6429 690.5,-723.6429 589.5,-723.6429"/>
<text text-anchor="start" x="642.8807" y="-729.7429" font-family="Helvetica,sans-Serif" font-size="11.00" fill="#000000">541 rows</text>
<polygon fill="#ffffff" stroke="transparent" points="690.5,-723.6429 690.5,-742.6429 768.5,-742.6429 768.5,-723.6429 690.5,-723.6429"/>
<polygon fill="none" stroke="#000000" points="690.5,-723.6429 690.5,-742.6429 768.5,-742.6429 768.5,-723.6429 690.5,-723.6429"/>
<text text-anchor="start" x="743.7904" y="-729.7429" font-family="Helvetica,sans-Serif" font-size="11.00" fill="#000000">18 &gt;</text>
</a>
</g>
</g>
<!-- CLONE_FORMS&#45;&gt;TARGET_FORMS -->
<g id="edge4" class="edge">
<title>CLONE_FORMS:w&#45;&gt;TARGET_FORMS:e</title>
<path fill="none" stroke="#000000" d="M954.0181,-1361.8536C890.2685,-1363.6386 853.4721,-1374.9408 809,-1323.6429 744.5352,-1249.2838 866.9124,-882.6429 768.5,-882.6429"/>
<polygon fill="#000000" stroke="#000000" points="960.5008,-1361.7594 968.5524,-1365.2426 964.5004,-1361.7012 968.5,-1361.6429 968.5,-1361.6429 968.5,-1361.6429 964.5004,-1361.7012 968.4476,-1358.0433 960.5008,-1361.7594 960.5008,-1361.7594"/>
<ellipse fill="none" stroke="#000000" cx="957.3012" cy="-1361.8059" rx="3.2" ry="3.2"/>
</g>
<!-- TARGETS -->
<g id="node9" class="node">
<title>TARGETS</title>
<g id="a_node9"><a xlink:href="../../tables/TARGETS.html" xlink:title="TARGETS" target="_top">
<polygon fill="#ffffff" stroke="transparent" points="8,-705.1429 8,-766.1429 106,-766.1429 106,-705.1429 8,-705.1429"/>
<polygon fill="#f5f5f5" stroke="transparent" points="8,-742.6429 8,-765.6429 106,-765.6429 106,-742.6429 8,-742.6429"/>
<polygon fill="none" stroke="#000000" points="8,-742.6429 8,-765.6429 106,-765.6429 106,-742.6429 8,-742.6429"/>
<text text-anchor="start" x="13" y="-751.7429" font-family="Helvetica,sans-Serif" font-weight="bold" font-size="11.00" fill="#000000">TARGETS</text>
<text text-anchor="start" x="71.0437" y="-750.7429" font-family="Helvetica,sans-Serif" font-size="11.00" fill="#000000">[table]</text>
<polygon fill="none" stroke="#000000" points="8,-723.6429 8,-742.6429 106,-742.6429 106,-723.6429 8,-723.6429"/>
<text text-anchor="start" x="11" y="-729.7429" font-family="Helvetica,sans-Serif" font-size="11.00" fill="#000000">...</text>
<polygon fill="#ffffff" stroke="transparent" points="8,-704.6429 8,-723.6429 29,-723.6429 29,-704.6429 8,-704.6429"/>
<polygon fill="none" stroke="#000000" points="8,-704.6429 8,-723.6429 29,-723.6429 29,-704.6429 8,-704.6429"/>
<text text-anchor="start" x="10.7027" y="-710.7429" font-family="Helvetica,sans-Serif" font-size="11.00" fill="#000000">&lt; 3</text>
<polygon fill="#ffffff" stroke="transparent" points="29,-704.6429 29,-723.6429 79,-723.6429 79,-704.6429 29,-704.6429"/>
<polygon fill="none" stroke="#000000" points="29,-704.6429 29,-723.6429 79,-723.6429 79,-704.6429 29,-704.6429"/>
<text text-anchor="start" x="31.6904" y="-710.7429" font-family="Helvetica,sans-Serif" font-size="11.00" fill="#000000">146 rows</text>
<polygon fill="#ffffff" stroke="transparent" points="79,-704.6429 79,-723.6429 106,-723.6429 106,-704.6429 79,-704.6429"/>
<polygon fill="none" stroke="#000000" points="79,-704.6429 79,-723.6429 106,-723.6429 106,-704.6429 79,-704.6429"/>
<text text-anchor="start" x="81.6452" y="-710.7429" font-family="Helvetica,sans-Serif" font-size="11.00" fill="#000000">10 &gt;</text>
</a>
</g>
</g>
<!-- ISOFORMS&#45;&gt;TARGETS -->
<g id="edge9" class="edge">
<title>ISOFORMS:w&#45;&gt;TARGETS:e</title>
<path fill="none" stroke="#000000" d="M221.914,-1204.8386C127.8304,-1193.7921 175.4359,-1071.06 147,-966.6429 133.1283,-915.7058 158.7922,-732.6429 106,-732.6429"/>
<polygon fill="#000000" stroke="#000000" points="228.5121,-1205.2024 236.3018,-1209.2375 232.5061,-1205.4227 236.5,-1205.6429 236.5,-1205.6429 236.5,-1205.6429 232.5061,-1205.4227 236.6982,-1202.0484 228.5121,-1205.2024 228.5121,-1205.2024"/>
<ellipse fill="none" stroke="#000000" cx="225.317" cy="-1205.0262" rx="3.2" ry="3.2"/>
</g>
<!-- TARGET_FORMS&#45;&gt;ISOFORMS -->
<g id="edge16" class="edge">
<title>TARGET_FORMS:w&#45;&gt;ISOFORMS:e</title>
<path fill="none" stroke="#000000" d="M454.243,-801.2128C430.2794,-828.6326 435.936,-934.0258 426,-966.6429 392.9923,-1074.9977 450.7708,-1205.6429 337.5,-1205.6429"/>
<polygon fill="#000000" stroke="#000000" points="460.3319,-798.1953 469.0986,-797.8686 463.916,-796.4191 467.5,-794.6429 467.5,-794.6429 467.5,-794.6429 463.916,-796.4191 465.9014,-791.4173 460.3319,-798.1953 460.3319,-798.1953"/>
<ellipse fill="none" stroke="#000000" cx="457.4647" cy="-799.6162" rx="3.2" ry="3.2"/>
</g>
<!-- TARGET_FORMS&#45;&gt;POST_TRANSLATIONAL_MODIFICATIONS -->
<g id="edge17" class="edge">
<title>TARGET_FORMS:w&#45;&gt;POST_TRANSLATIONAL_MODIFICATIONS:e</title>
<path fill="none" stroke="#000000" d="M452.9909,-816.6429C441.6774,-816.6429 434.4931,-816.6429 418.5,-816.6429"/>
<polygon fill="#000000" stroke="#000000" points="459.5,-816.643 467.5,-820.2429 463.5,-816.643 467.5,-816.6429 467.5,-816.6429 467.5,-816.6429 463.5,-816.643 467.5,-813.0429 459.5,-816.643 459.5,-816.643"/>
<ellipse fill="none" stroke="#000000" cx="456.3" cy="-816.643" rx="3.2" ry="3.2"/>
</g>
<!-- TARGET_FORMS&#45;&gt;SPECIES -->
<g id="edge18" class="edge">
<title>TARGET_FORMS:w&#45;&gt;SPECIES:e</title>
<path fill="none" stroke="#000000" d="M453.3259,-841.5275C444.2056,-845.9085 439.4599,-854.3901 426,-860.6429 384.9453,-879.7151 376.7685,-898.6429 331.5,-898.6429"/>
<polygon fill="#000000" stroke="#000000" points="459.6607,-840.2384 468.2179,-842.1706 463.5803,-839.4407 467.5,-838.6429 467.5,-838.6429 467.5,-838.6429 463.5803,-839.4407 466.7821,-835.1153 459.6607,-840.2384 459.6607,-840.2384"/>
<ellipse fill="none" stroke="#000000" cx="456.525" cy="-840.8766" rx="3.2" ry="3.2"/>
</g>
<!-- TARGET_FORMS&#45;&gt;TARGETS -->
<g id="edge19" class="edge">
<title>TARGET_FORMS:w&#45;&gt;TARGETS:e</title>
<path fill="none" stroke="#000000" d="M453.5444,-864.51C435.4572,-878.2 455.4966,-924.5121 426,-942.6429 320.361,-1007.5768 242.714,-1021.4771 147,-942.6429 73.597,-882.1851 201.0955,-732.6429 106,-732.6429"/>
<polygon fill="#000000" stroke="#000000" points="459.7905,-862.7793 468.4614,-864.1122 463.6453,-861.7111 467.5,-860.6429 467.5,-860.6429 467.5,-860.6429 463.6453,-861.7111 466.5386,-857.1737 459.7905,-862.7793 459.7905,-862.7793"/>
<ellipse fill="none" stroke="#000000" cx="456.7067" cy="-863.6338" rx="3.2" ry="3.2"/>
</g>
<!-- EXPRESSION_SYSTEMS -->
<g id="node13" class="node">
<title>EXPRESSION_SYSTEMS</title>
<g id="a_node13"><a xlink:href="../../tables/EXPRESSION_SYSTEMS.html" xlink:title="EXPRESSION_SYSTEMS" target="_top">
<polygon fill="#ffffff" stroke="transparent" points="200,-707.1429 200,-768.1429 373,-768.1429 373,-707.1429 200,-707.1429"/>
<polygon fill="#f5f5f5" stroke="transparent" points="200.5,-744.6429 200.5,-767.6429 373.5,-767.6429 373.5,-744.6429 200.5,-744.6429"/>
<polygon fill="none" stroke="#000000" points="200.5,-744.6429 200.5,-767.6429 373.5,-767.6429 373.5,-744.6429 200.5,-744.6429"/>
<text text-anchor="start" x="205.4064" y="-753.7429" font-family="Helvetica,sans-Serif" font-weight="bold" font-size="11.00" fill="#000000">EXPRESSION_SYSTEMS</text>
<text text-anchor="start" x="339.0219" y="-752.7429" font-family="Helvetica,sans-Serif" font-size="11.00" fill="#000000">[table]</text>
<polygon fill="none" stroke="#000000" points="200.5,-725.6429 200.5,-744.6429 373.5,-744.6429 373.5,-725.6429 200.5,-725.6429"/>
<text text-anchor="start" x="203.5" y="-731.7429" font-family="Helvetica,sans-Serif" font-size="11.00" fill="#000000">...</text>
<polygon fill="#ffffff" stroke="transparent" points="200.5,-706.6429 200.5,-725.6429 263.5,-725.6429 263.5,-706.6429 200.5,-706.6429"/>
<polygon fill="none" stroke="#000000" points="200.5,-706.6429 200.5,-725.6429 263.5,-725.6429 263.5,-706.6429 200.5,-706.6429"/>
<text text-anchor="start" x="203.5" y="-712.7429" font-family="Helvetica,sans-Serif" font-size="11.00" fill="#000000"> &#160;</text>
<polygon fill="#ffffff" stroke="transparent" points="263.5,-706.6429 263.5,-725.6429 326.5,-725.6429 326.5,-706.6429 263.5,-706.6429"/>
<polygon fill="none" stroke="#000000" points="263.5,-706.6429 263.5,-725.6429 326.5,-725.6429 326.5,-706.6429 263.5,-706.6429"/>
<text text-anchor="start" x="291.1105" y="-712.7429" font-family="Helvetica,sans-Serif" font-size="11.00" fill="#000000">3 rows</text>
<polygon fill="#ffffff" stroke="transparent" points="326.5,-706.6429 326.5,-725.6429 373.5,-725.6429 373.5,-706.6429 326.5,-706.6429"/>
<polygon fill="none" stroke="#000000" points="326.5,-706.6429 326.5,-725.6429 373.5,-725.6429 373.5,-706.6429 326.5,-706.6429"/>
<text text-anchor="start" x="354.9053" y="-712.7429" font-family="Helvetica,sans-Serif" font-size="11.00" fill="#000000">1 &gt;</text>
</a>
</g>
</g>
<!-- TARGET_FORMS&#45;&gt;EXPRESSION_SYSTEMS -->
<g id="edge15" class="edge">
<title>TARGET_FORMS:w&#45;&gt;EXPRESSION_SYSTEMS:e</title>
<path fill="none" stroke="#000000" d="M452.7953,-771.1062C420.8951,-763.997 413.1056,-734.6429 373.5,-734.6429"/>
<polygon fill="#000000" stroke="#000000" points="459.5433,-771.8114 467.1258,-776.2234 463.5217,-772.2272 467.5,-772.6429 467.5,-772.6429 467.5,-772.6429 463.5217,-772.2272 467.8742,-769.0624 459.5433,-771.8114 459.5433,-771.8114"/>
<ellipse fill="none" stroke="#000000" cx="456.3607" cy="-771.4788" rx="3.2" ry="3.2"/>
</g>
<!-- CLONE_FORMS_ISOFORM_MOTIFS -->
<g id="node6" class="node">
<title>CLONE_FORMS_ISOFORM_MOTIFS</title>
<g id="a_node6"><a xlink:href="../../tables/CLONE_FORMS_ISOFORM_MOTIFS.html" xlink:title="CLONE_FORMS_ISOFORM_MOTIFS" target="_top">
<polygon fill="#ffffff" stroke="transparent" points="1295,-1484.1429 1295,-1545.1429 1526,-1545.1429 1526,-1484.1429 1295,-1484.1429"/>
<polygon fill="#f5f5f5" stroke="transparent" points="1295.5,-1521.6429 1295.5,-1544.6429 1526.5,-1544.6429 1526.5,-1521.6429 1295.5,-1521.6429"/>
<polygon fill="none" stroke="#000000" points="1295.5,-1521.6429 1295.5,-1544.6429 1526.5,-1544.6429 1526.5,-1521.6429 1295.5,-1521.6429"/>
<text text-anchor="start" x="1300.0848" y="-1530.7429" font-family="Helvetica,sans-Serif" font-weight="bold" font-size="11.00" fill="#000000">CLONE_FORMS_ISOFORM_MOTIFS</text>
<text text-anchor="start" x="1492.0219" y="-1529.7429" font-family="Helvetica,sans-Serif" font-size="11.00" fill="#000000">[table]</text>
<polygon fill="none" stroke="#000000" points="1295.5,-1502.6429 1295.5,-1521.6429 1526.5,-1521.6429 1526.5,-1502.6429 1295.5,-1502.6429"/>
<text text-anchor="start" x="1298.5" y="-1508.7429" font-family="Helvetica,sans-Serif" font-size="11.00" fill="#000000">...</text>
<polygon fill="#ffffff" stroke="transparent" points="1295.5,-1483.6429 1295.5,-1502.6429 1393.5,-1502.6429 1393.5,-1483.6429 1295.5,-1483.6429"/>
<polygon fill="none" stroke="#000000" points="1295.5,-1483.6429 1295.5,-1502.6429 1393.5,-1502.6429 1393.5,-1483.6429 1295.5,-1483.6429"/>
<text text-anchor="start" x="1298.5" y="-1489.7429" font-family="Helvetica,sans-Serif" font-size="11.00" fill="#000000">&lt; 2</text>
<polygon fill="#ffffff" stroke="transparent" points="1393.5,-1483.6429 1393.5,-1502.6429 1475.5,-1502.6429 1475.5,-1483.6429 1393.5,-1483.6429"/>
<polygon fill="none" stroke="#000000" points="1393.5,-1483.6429 1393.5,-1502.6429 1475.5,-1502.6429 1475.5,-1483.6429 1393.5,-1483.6429"/>
<text text-anchor="start" x="1433.9956" y="-1489.7429" font-family="Helvetica,sans-Serif" font-size="11.00" fill="#000000">94 rows</text>
<polygon fill="#ffffff" stroke="transparent" points="1475.5,-1483.6429 1475.5,-1502.6429 1526.5,-1502.6429 1526.5,-1483.6429 1475.5,-1483.6429"/>
<polygon fill="none" stroke="#000000" points="1475.5,-1483.6429 1475.5,-1502.6429 1526.5,-1502.6429 1526.5,-1483.6429 1475.5,-1483.6429"/>
<text text-anchor="start" x="1517.3862" y="-1489.7429" font-family="Helvetica,sans-Serif" font-size="11.00" fill="#000000"> &#160;</text>
</a>
</g>
</g>
<!-- CLONE_FORMS_ISOFORM_MOTIFS&#45;&gt;CLONE_FORMS -->
<g id="edge5" class="edge">
<title>CLONE_FORMS_ISOFORM_MOTIFS:w&#45;&gt;CLONE_FORMS:e</title>
<path fill="none" stroke="#000000" d="M1281.1797,-1508.6974C1255.2212,-1494.9132 1286.7261,-1436.2078 1254,-1406.6429 1199.3444,-1357.2668 1168.1562,-1361.6429 1094.5,-1361.6429"/>
<polygon fill="#000000" stroke="#000000" points="1287.6641,-1510.0311 1294.7747,-1515.1691 1291.582,-1510.837 1295.5,-1511.6429 1295.5,-1511.6429 1295.5,-1511.6429 1291.582,-1510.837 1296.2253,-1508.1168 1287.6641,-1510.0311 1287.6641,-1510.0311"/>
<ellipse fill="none" stroke="#000000" cx="1284.5297" cy="-1509.3864" rx="3.2" ry="3.2"/>
</g>
<!-- ISOFORM_MOTIFS -->
<g id="node7" class="node">
<title>ISOFORM_MOTIFS</title>
<g id="a_node7"><a xlink:href="../../tables/ISOFORM_MOTIFS.html" xlink:title="ISOFORM_MOTIFS" target="_top">
<polygon fill="#ffffff" stroke="transparent" points="547,-1400.1429 547,-1505.1429 688,-1505.1429 688,-1400.1429 547,-1400.1429"/>
<polygon fill="#f5f5f5" stroke="transparent" points="547.5,-1481.6429 547.5,-1504.6429 688.5,-1504.6429 688.5,-1481.6429 547.5,-1481.6429"/>
<polygon fill="none" stroke="#000000" points="547.5,-1481.6429 547.5,-1504.6429 688.5,-1504.6429 688.5,-1481.6429 547.5,-1481.6429"/>
<text text-anchor="start" x="552.0022" y="-1490.7429" font-family="Helvetica,sans-Serif" font-weight="bold" font-size="11.00" fill="#000000">ISOFORM_MOTIFS</text>
<text text-anchor="start" x="654.0219" y="-1489.7429" font-family="Helvetica,sans-Serif" font-size="11.00" fill="#000000">[table]</text>
<polygon fill="none" stroke="#000000" points="547.5,-1459.6429 547.5,-1481.6429 688.5,-1481.6429 688.5,-1459.6429 547.5,-1459.6429"/>
<image xlink:href="../../images/primaryKeys.png" width="11px" height="12px" preserveAspectRatio="xMinYMin meet" x="552.5" y="-1476.64"/>
<text text-anchor="start" x="567.5" y="-1466.7429" font-family="Helvetica,sans-Serif" font-size="11.00" fill="#000000">ID</text>
<polygon fill="none" stroke="#000000" points="547.5,-1437.6429 547.5,-1459.6429 688.5,-1459.6429 688.5,-1437.6429 547.5,-1437.6429"/>
<image xlink:href="../../images/foreignKeys.png" width="11px" height="12px" preserveAspectRatio="xMinYMin meet" x="552.5" y="-1454.64"/>
<text text-anchor="start" x="567.5" y="-1444.7429" font-family="Helvetica,sans-Serif" font-size="11.00" fill="#000000">ISOFORM_ID</text>
<polygon fill="none" stroke="#000000" points="547.5,-1418.6429 547.5,-1437.6429 688.5,-1437.6429 688.5,-1418.6429 547.5,-1418.6429"/>
<text text-anchor="start" x="550.5" y="-1424.7429" font-family="Helvetica,sans-Serif" font-size="11.00" fill="#000000">...</text>
<polygon fill="#ffffff" stroke="transparent" points="547.5,-1399.6429 547.5,-1418.6429 592.5,-1418.6429 592.5,-1399.6429 547.5,-1399.6429"/>
<polygon fill="none" stroke="#000000" points="547.5,-1399.6429 547.5,-1418.6429 592.5,-1418.6429 592.5,-1399.6429 547.5,-1399.6429"/>
<text text-anchor="start" x="550.5" y="-1405.7429" font-family="Helvetica,sans-Serif" font-size="11.00" fill="#000000">&lt; 1</text>
<polygon fill="#ffffff" stroke="transparent" points="592.5,-1399.6429 592.5,-1418.6429 654.5,-1418.6429 654.5,-1399.6429 592.5,-1399.6429"/>
<polygon fill="none" stroke="#000000" points="592.5,-1399.6429 592.5,-1418.6429 654.5,-1418.6429 654.5,-1399.6429 592.5,-1399.6429"/>
<text text-anchor="start" x="606.8807" y="-1405.7429" font-family="Helvetica,sans-Serif" font-size="11.00" fill="#000000">183 rows</text>
<polygon fill="#ffffff" stroke="transparent" points="654.5,-1399.6429 654.5,-1418.6429 688.5,-1418.6429 688.5,-1399.6429 654.5,-1399.6429"/>
<polygon fill="none" stroke="#000000" points="654.5,-1399.6429 654.5,-1418.6429 688.5,-1418.6429 688.5,-1399.6429 654.5,-1399.6429"/>
<text text-anchor="start" x="669.9053" y="-1405.7429" font-family="Helvetica,sans-Serif" font-size="11.00" fill="#000000">2 &gt;</text>
</a>
</g>
</g>
<!-- CLONE_FORMS_ISOFORM_MOTIFS&#45;&gt;ISOFORM_MOTIFS -->
<g id="edge6" class="edge">
<title>CLONE_FORMS_ISOFORM_MOTIFS:w&#45;&gt;ISOFORM_MOTIFS:e</title>
<path fill="none" stroke="#000000" d="M1280.9083,-1514.1411C1244.2161,-1529.8116 1300.5784,-1615.0112 1254,-1649.6429 1095.2851,-1767.6498 983.5851,-1742.5735 809,-1649.6429 724.3437,-1604.5809 784.4025,-1470.6429 688.5,-1470.6429"/>
<polygon fill="#000000" stroke="#000000" points="1287.6147,-1512.993 1296.1075,-1515.1913 1291.5574,-1512.3179 1295.5,-1511.6429 1295.5,-1511.6429 1295.5,-1511.6429 1291.5574,-1512.3179 1294.8925,-1508.0946 1287.6147,-1512.993 1287.6147,-1512.993"/>
<ellipse fill="none" stroke="#000000" cx="1284.4606" cy="-1513.533" rx="3.2" ry="3.2"/>
</g>
<!-- ISOFORM_MOTIFS&#45;&gt;ISOFORMS -->
<g id="edge8" class="edge">
<title>ISOFORM_MOTIFS:w&#45;&gt;ISOFORMS:e</title>
<path fill="none" stroke="#000000" d="M532.8612,-1447.7141C409.9285,-1431.3996 475.0838,-1205.6429 337.5,-1205.6429"/>
<polygon fill="#000000" stroke="#000000" points="539.5161,-1448.1363 547.272,-1452.2357 543.508,-1448.3896 547.5,-1448.6429 547.5,-1448.6429 547.5,-1448.6429 543.508,-1448.3896 547.728,-1445.0502 539.5161,-1448.1363 539.5161,-1448.1363"/>
<ellipse fill="none" stroke="#000000" cx="536.3225" cy="-1447.9336" rx="3.2" ry="3.2"/>
</g>
<!-- IN_HOUSE_ASSAYS -->
<g id="node8" class="node">
<title>IN_HOUSE_ASSAYS</title>
<g id="a_node8"><a xlink:href="../../tables/IN_HOUSE_ASSAYS.html" xlink:title="IN_HOUSE_ASSAYS" target="_top">
<polygon fill="#ffffff" stroke="transparent" points="957,-404.1429 957,-465.1429 1106,-465.1429 1106,-404.1429 957,-404.1429"/>
<polygon fill="#f5f5f5" stroke="transparent" points="957.5,-441.6429 957.5,-464.6429 1106.5,-464.6429 1106.5,-441.6429 957.5,-441.6429"/>
<polygon fill="none" stroke="#000000" points="957.5,-441.6429 957.5,-464.6429 1106.5,-464.6429 1106.5,-441.6429 957.5,-441.6429"/>
<text text-anchor="start" x="962.3233" y="-450.7429" font-family="Helvetica,sans-Serif" font-weight="bold" font-size="11.00" fill="#000000">IN_HOUSE_ASSAYS</text>
<text text-anchor="start" x="1072.0219" y="-449.7429" font-family="Helvetica,sans-Serif" font-size="11.00" fill="#000000">[table]</text>
<polygon fill="none" stroke="#000000" points="957.5,-422.6429 957.5,-441.6429 1106.5,-441.6429 1106.5,-422.6429 957.5,-422.6429"/>
<text text-anchor="start" x="960.5" y="-428.7429" font-family="Helvetica,sans-Serif" font-size="11.00" fill="#000000">...</text>
<polygon fill="#ffffff" stroke="transparent" points="957.5,-403.6429 957.5,-422.6429 1009.5,-422.6429 1009.5,-403.6429 957.5,-403.6429"/>
<polygon fill="none" stroke="#000000" points="957.5,-403.6429 957.5,-422.6429 1009.5,-422.6429 1009.5,-403.6429 957.5,-403.6429"/>
<text text-anchor="start" x="960.5" y="-409.7429" font-family="Helvetica,sans-Serif" font-size="11.00" fill="#000000">&lt; 4</text>
<polygon fill="#ffffff" stroke="transparent" points="1009.5,-403.6429 1009.5,-422.6429 1069.5,-422.6429 1069.5,-403.6429 1009.5,-403.6429"/>
<polygon fill="none" stroke="#000000" points="1009.5,-403.6429 1009.5,-422.6429 1069.5,-422.6429 1069.5,-403.6429 1009.5,-403.6429"/>
<text text-anchor="start" x="1027.9956" y="-409.7429" font-family="Helvetica,sans-Serif" font-size="11.00" fill="#000000">51 rows</text>
<polygon fill="#ffffff" stroke="transparent" points="1069.5,-403.6429 1069.5,-422.6429 1106.5,-422.6429 1106.5,-403.6429 1069.5,-403.6429"/>
<polygon fill="none" stroke="#000000" points="1069.5,-403.6429 1069.5,-422.6429 1106.5,-422.6429 1106.5,-403.6429 1069.5,-403.6429"/>
<text text-anchor="start" x="1087.9053" y="-409.7429" font-family="Helvetica,sans-Serif" font-size="11.00" fill="#000000">1 &gt;</text>
</a>
</g>
</g>
<!-- IN_HOUSE_ASSAYS&#45;&gt;TARGET_FORMS -->
<g id="edge7" class="edge">
<title>IN_HOUSE_ASSAYS:w&#45;&gt;TARGET_FORMS:e</title>
<path fill="none" stroke="#000000" d="M943.0787,-431.528C883.448,-430.6596 849.6977,-426.429 809,-475.6429 751.077,-545.6867 859.3911,-882.6429 768.5,-882.6429"/>
<polygon fill="#000000" stroke="#000000" points="949.5003,-431.5791 957.4713,-435.2428 953.5001,-431.611 957.5,-431.6429 957.5,-431.6429 957.5,-431.6429 953.5001,-431.611 957.5287,-428.0431 949.5003,-431.5791 949.5003,-431.5791"/>
<ellipse fill="none" stroke="#000000" cx="946.3004" cy="-431.5536" rx="3.2" ry="3.2"/>
</g>
<!-- SCREENING_PLANS -->
<g id="node10" class="node">
<title>SCREENING_PLANS</title>
<g id="a_node10"><a xlink:href="../../tables/SCREENING_PLANS.html" xlink:title="SCREENING_PLANS" target="_top">
<polygon fill="#ffffff" stroke="transparent" points="1335.5,-158.1429 1335.5,-219.1429 1485.5,-219.1429 1485.5,-158.1429 1335.5,-158.1429"/>
<polygon fill="#f5f5f5" stroke="transparent" points="1335.5,-195.6429 1335.5,-218.6429 1485.5,-218.6429 1485.5,-195.6429 1335.5,-195.6429"/>
<polygon fill="none" stroke="#000000" points="1335.5,-195.6429 1335.5,-218.6429 1485.5,-218.6429 1485.5,-195.6429 1335.5,-195.6429"/>
<text text-anchor="start" x="1340.2182" y="-204.7429" font-family="Helvetica,sans-Serif" font-weight="bold" font-size="11.00" fill="#000000">SCREENING_PLANS</text>
<text text-anchor="start" x="1451.0219" y="-203.7429" font-family="Helvetica,sans-Serif" font-size="11.00" fill="#000000">[table]</text>
<polygon fill="none" stroke="#000000" points="1335.5,-176.6429 1335.5,-195.6429 1485.5,-195.6429 1485.5,-176.6429 1335.5,-176.6429"/>
<text text-anchor="start" x="1338.5" y="-182.7429" font-family="Helvetica,sans-Serif" font-size="11.00" fill="#000000">...</text>
<polygon fill="#ffffff" stroke="transparent" points="1335.5,-157.6429 1335.5,-176.6429 1385.5,-176.6429 1385.5,-157.6429 1335.5,-157.6429"/>
<polygon fill="none" stroke="#000000" points="1335.5,-157.6429 1335.5,-176.6429 1385.5,-176.6429 1385.5,-157.6429 1335.5,-157.6429"/>
<text text-anchor="start" x="1338.5" y="-163.7429" font-family="Helvetica,sans-Serif" font-size="11.00" fill="#000000">&lt; 3</text>
<polygon fill="#ffffff" stroke="transparent" points="1385.5,-157.6429 1385.5,-176.6429 1449.5,-176.6429 1449.5,-157.6429 1385.5,-157.6429"/>
<polygon fill="none" stroke="#000000" points="1385.5,-157.6429 1385.5,-176.6429 1449.5,-176.6429 1449.5,-157.6429 1385.5,-157.6429"/>
<text text-anchor="start" x="1401.8807" y="-163.7429" font-family="Helvetica,sans-Serif" font-size="11.00" fill="#000000">137 rows</text>
<polygon fill="#ffffff" stroke="transparent" points="1449.5,-157.6429 1449.5,-176.6429 1485.5,-176.6429 1485.5,-157.6429 1449.5,-157.6429"/>
<polygon fill="none" stroke="#000000" points="1449.5,-157.6429 1449.5,-176.6429 1485.5,-176.6429 1485.5,-157.6429 1449.5,-157.6429"/>
<text text-anchor="start" x="1466.9053" y="-163.7429" font-family="Helvetica,sans-Serif" font-size="11.00" fill="#000000">1 &gt;</text>
</a>
</g>
</g>
<!-- SCREENING_PLANS&#45;&gt;TARGET_FORMS -->
<g id="edge11" class="edge">
<title>SCREENING_PLANS:w&#45;&gt;TARGET_FORMS:e</title>
<path fill="none" stroke="#000000" d="M1321.1616,-187.1497C1155.7654,-223.94 1392.8661,-923.2595 1254,-1049.6429 1217.4326,-1082.9233 847.8648,-1080.209 809,-1049.6429 748.9681,-1002.4295 844.8737,-882.6429 768.5,-882.6429"/>
<polygon fill="#000000" stroke="#000000" points="1327.5438,-186.4791 1335.8763,-189.2232 1331.5219,-186.061 1335.5,-185.6429 1335.5,-185.6429 1335.5,-185.6429 1331.5219,-186.061 1335.1237,-182.0627 1327.5438,-186.4791 1327.5438,-186.4791"/>
<ellipse fill="none" stroke="#000000" cx="1324.3613" cy="-186.8135" rx="3.2" ry="3.2"/>
</g>
<!-- SCREENING_PLANS&#45;&gt;TARGETS -->
<g id="edge12" class="edge">
<title>SCREENING_PLANS:w&#45;&gt;TARGETS:e</title>
<path fill="none" stroke="#000000" d="M1321.0642,-183.7477C1277.1787,-170.645 1306.0766,-93.2259 1254,-65.6429 1096.5501,17.7523 615.1103,-83.7661 459,-169.6429 297.8153,-258.3112 234.6924,-279.9252 147,-441.6429 115.87,-499.0512 171.3054,-732.6429 106,-732.6429"/>
<polygon fill="#000000" stroke="#000000" points="1327.5681,-184.6015 1335.0314,-189.2123 1331.534,-185.1222 1335.5,-185.6429 1335.5,-185.6429 1335.5,-185.6429 1331.534,-185.1222 1335.9686,-182.0736 1327.5681,-184.6015 1327.5681,-184.6015"/>
<ellipse fill="none" stroke="#000000" cx="1324.3953" cy="-184.185" rx="3.2" ry="3.2"/>
</g>
<!-- SUPPLEMENTS -->
<g id="node11" class="node">
<title>SUPPLEMENTS</title>
<g id="a_node11"><a xlink:href="../../tables/SUPPLEMENTS.html" xlink:title="SUPPLEMENTS" target="_top">
<polygon fill="#ffffff" stroke="transparent" points="969.5,-158.1429 969.5,-219.1429 1093.5,-219.1429 1093.5,-158.1429 969.5,-158.1429"/>
<polygon fill="#f5f5f5" stroke="transparent" points="969.5,-195.6429 969.5,-218.6429 1093.5,-218.6429 1093.5,-195.6429 969.5,-195.6429"/>
<polygon fill="none" stroke="#000000" points="969.5,-195.6429 969.5,-218.6429 1093.5,-218.6429 1093.5,-195.6429 969.5,-195.6429"/>
<text text-anchor="start" x="974.0531" y="-204.7429" font-family="Helvetica,sans-Serif" font-weight="bold" font-size="11.00" fill="#000000">SUPPLEMENTS</text>
<text text-anchor="start" x="1059.0219" y="-203.7429" font-family="Helvetica,sans-Serif" font-size="11.00" fill="#000000">[table]</text>
<polygon fill="none" stroke="#000000" points="969.5,-176.6429 969.5,-195.6429 1093.5,-195.6429 1093.5,-176.6429 969.5,-176.6429"/>
<text text-anchor="start" x="972.5" y="-182.7429" font-family="Helvetica,sans-Serif" font-size="11.00" fill="#000000">...</text>
<polygon fill="#ffffff" stroke="transparent" points="969.5,-157.6429 969.5,-176.6429 1009.5,-176.6429 1009.5,-157.6429 969.5,-157.6429"/>
<polygon fill="none" stroke="#000000" points="969.5,-157.6429 969.5,-176.6429 1009.5,-176.6429 1009.5,-157.6429 969.5,-157.6429"/>
<text text-anchor="start" x="972.5" y="-163.7429" font-family="Helvetica,sans-Serif" font-size="11.00" fill="#000000">&lt; 1</text>
<polygon fill="#ffffff" stroke="transparent" points="1009.5,-157.6429 1009.5,-176.6429 1062.5,-176.6429 1062.5,-157.6429 1009.5,-157.6429"/>
<polygon fill="none" stroke="#000000" points="1009.5,-157.6429 1009.5,-176.6429 1062.5,-176.6429 1062.5,-157.6429 1009.5,-157.6429"/>
<text text-anchor="start" x="1020.9956" y="-163.7429" font-family="Helvetica,sans-Serif" font-size="11.00" fill="#000000">77 rows</text>
<polygon fill="#ffffff" stroke="transparent" points="1062.5,-157.6429 1062.5,-176.6429 1093.5,-176.6429 1093.5,-157.6429 1062.5,-157.6429"/>
<polygon fill="none" stroke="#000000" points="1062.5,-157.6429 1062.5,-176.6429 1093.5,-176.6429 1093.5,-157.6429 1062.5,-157.6429"/>
<text text-anchor="start" x="1074.9053" y="-163.7429" font-family="Helvetica,sans-Serif" font-size="11.00" fill="#000000">5 &gt;</text>
</a>
</g>
</g>
<!-- SCREENING_PLANS&#45;&gt;SUPPLEMENTS -->
<g id="edge10" class="edge">
<title>SCREENING_PLANS:w&#45;&gt;SUPPLEMENTS:e</title>
<path fill="none" stroke="#000000" d="M1320.8901,-185.6429C1225.2464,-185.6429 1196.0139,-185.6429 1093.5,-185.6429"/>
<polygon fill="#000000" stroke="#000000" points="1327.5,-185.643 1335.5,-189.2429 1331.5,-185.643 1335.5,-185.6429 1335.5,-185.6429 1335.5,-185.6429 1331.5,-185.643 1335.5,-182.0429 1327.5,-185.643 1327.5,-185.643"/>
<ellipse fill="none" stroke="#000000" cx="1324.3" cy="-185.643" rx="3.2" ry="3.2"/>
</g>
<!-- SUPPLEMENTS&#45;&gt;TARGET_FORMS -->
<g id="edge13" class="edge">
<title>SUPPLEMENTS:w&#45;&gt;TARGET_FORMS:e</title>
<path fill="none" stroke="#000000" d="M954.7962,-185.4821C890.051,-184.1426 852.4679,-176.1733 809,-229.6429 763.144,-286.0502 841.195,-882.6429 768.5,-882.6429"/>
<polygon fill="#000000" stroke="#000000" points="961.5005,-185.5554 969.4606,-189.2427 965.5002,-185.5992 969.5,-185.6429 969.5,-185.6429 969.5,-185.6429 965.5002,-185.5992 969.5394,-182.0432 961.5005,-185.5554 961.5005,-185.5554"/>
<ellipse fill="none" stroke="#000000" cx="958.3007" cy="-185.5203" rx="3.2" ry="3.2"/>
</g>
<!-- TARGET_FORM_COMMENTS -->
<g id="node12" class="node">
<title>TARGET_FORM_COMMENTS</title>
<g id="a_node12"><a xlink:href="../../tables/TARGET_FORM_COMMENTS.html" xlink:title="TARGET_FORM_COMMENTS" target="_top">
<polygon fill="#ffffff" stroke="transparent" points="933.5,-322.1429 933.5,-383.1429 1129.5,-383.1429 1129.5,-322.1429 933.5,-322.1429"/>
<polygon fill="#f5f5f5" stroke="transparent" points="933.5,-359.6429 933.5,-382.6429 1129.5,-382.6429 1129.5,-359.6429 933.5,-359.6429"/>
<polygon fill="none" stroke="#000000" points="933.5,-359.6429 933.5,-382.6429 1129.5,-382.6429 1129.5,-359.6429 933.5,-359.6429"/>
<text text-anchor="start" x="938.3135" y="-368.7429" font-family="Helvetica,sans-Serif" font-weight="bold" font-size="11.00" fill="#000000">TARGET_FORM_COMMENTS</text>
<text text-anchor="start" x="1095.0219" y="-367.7429" font-family="Helvetica,sans-Serif" font-size="11.00" fill="#000000">[table]</text>
<polygon fill="none" stroke="#000000" points="933.5,-340.6429 933.5,-359.6429 1129.5,-359.6429 1129.5,-340.6429 933.5,-340.6429"/>
<text text-anchor="start" x="936.5" y="-346.7429" font-family="Helvetica,sans-Serif" font-size="11.00" fill="#000000">...</text>
<polygon fill="#ffffff" stroke="transparent" points="933.5,-321.6429 933.5,-340.6429 1016.5,-340.6429 1016.5,-321.6429 933.5,-321.6429"/>
<polygon fill="none" stroke="#000000" points="933.5,-321.6429 933.5,-340.6429 1016.5,-340.6429 1016.5,-321.6429 933.5,-321.6429"/>
<text text-anchor="start" x="936.5" y="-327.7429" font-family="Helvetica,sans-Serif" font-size="11.00" fill="#000000">&lt; 2</text>
<polygon fill="#ffffff" stroke="transparent" points="1016.5,-321.6429 1016.5,-340.6429 1085.5,-340.6429 1085.5,-321.6429 1016.5,-321.6429"/>
<polygon fill="none" stroke="#000000" points="1016.5,-321.6429 1016.5,-340.6429 1085.5,-340.6429 1085.5,-321.6429 1016.5,-321.6429"/>
<text text-anchor="start" x="1050.1105" y="-327.7429" font-family="Helvetica,sans-Serif" font-size="11.00" fill="#000000">3 rows</text>
<polygon fill="#ffffff" stroke="transparent" points="1085.5,-321.6429 1085.5,-340.6429 1129.5,-340.6429 1129.5,-321.6429 1085.5,-321.6429"/>
<polygon fill="none" stroke="#000000" points="1085.5,-321.6429 1085.5,-340.6429 1129.5,-340.6429 1129.5,-321.6429 1085.5,-321.6429"/>
<text text-anchor="start" x="1120.3862" y="-327.7429" font-family="Helvetica,sans-Serif" font-size="11.00" fill="#000000"> &#160;</text>
</a>
</g>
</g>
<!-- TARGET_FORM_COMMENTS&#45;&gt;TARGET_FORMS -->
<g id="edge14" class="edge">
<title>TARGET_FORM_COMMENTS:w&#45;&gt;TARGET_FORMS:e</title>
<path fill="none" stroke="#000000" d="M918.9839,-349.6207C869.6172,-349.579 841.7567,-351.1616 809,-393.6429 775.7087,-436.8176 823.0194,-882.6429 768.5,-882.6429"/>
<polygon fill="#000000" stroke="#000000" points="925.5,-349.6306 933.4945,-353.2429 929.5,-349.6368 933.5,-349.6429 933.5,-349.6429 933.5,-349.6429 929.5,-349.6368 933.5055,-346.0429 925.5,-349.6306 925.5,-349.6306"/>
<ellipse fill="none" stroke="#000000" cx="922.3" cy="-349.6257" rx="3.2" ry="3.2"/>
</g>
<!-- TARGET_FORMS_ISOFORM_ANNOTATIONS -->
<g id="node14" class="node">
<title>TARGET_FORMS_ISOFORM_ANNOTATIONS</title>
<g id="a_node14"><a xlink:href="../../tables/TARGET_FORMS_ISOFORM_ANNOTATIONS.html" xlink:title="TARGET_FORMS_ISOFORM_ANNOTATIONS" target="_top">
<polygon fill="#ffffff" stroke="transparent" points="893.5,-240.1429 893.5,-301.1429 1169.5,-301.1429 1169.5,-240.1429 893.5,-240.1429"/>
<polygon fill="#f5f5f5" stroke="transparent" points="893.5,-277.6429 893.5,-300.6429 1169.5,-300.6429 1169.5,-277.6429 893.5,-277.6429"/>
<polygon fill="none" stroke="#000000" points="893.5,-277.6429 893.5,-300.6429 1169.5,-300.6429 1169.5,-277.6429 893.5,-277.6429"/>
<text text-anchor="start" x="898.2801" y="-286.7429" font-family="Helvetica,sans-Serif" font-weight="bold" font-size="11.00" fill="#000000">TARGET_FORMS_ISOFORM_ANNOTATIONS</text>
<text text-anchor="start" x="1135.0219" y="-285.7429" font-family="Helvetica,sans-Serif" font-size="11.00" fill="#000000">[table]</text>
<polygon fill="none" stroke="#000000" points="893.5,-258.6429 893.5,-277.6429 1169.5,-277.6429 1169.5,-258.6429 893.5,-258.6429"/>
<text text-anchor="start" x="896.5" y="-264.7429" font-family="Helvetica,sans-Serif" font-size="11.00" fill="#000000">...</text>
<polygon fill="#ffffff" stroke="transparent" points="893.5,-239.6429 893.5,-258.6429 1016.5,-258.6429 1016.5,-239.6429 893.5,-239.6429"/>
<polygon fill="none" stroke="#000000" points="893.5,-239.6429 893.5,-258.6429 1016.5,-258.6429 1016.5,-239.6429 893.5,-239.6429"/>
<text text-anchor="start" x="896.5" y="-245.7429" font-family="Helvetica,sans-Serif" font-size="11.00" fill="#000000">&lt; 2</text>
<polygon fill="#ffffff" stroke="transparent" points="1016.5,-239.6429 1016.5,-258.6429 1105.5,-258.6429 1105.5,-239.6429 1016.5,-239.6429"/>
<polygon fill="none" stroke="#000000" points="1016.5,-239.6429 1016.5,-258.6429 1105.5,-258.6429 1105.5,-239.6429 1016.5,-239.6429"/>
<text text-anchor="start" x="1070.1105" y="-245.7429" font-family="Helvetica,sans-Serif" font-size="11.00" fill="#000000">4 rows</text>
<polygon fill="#ffffff" stroke="transparent" points="1105.5,-239.6429 1105.5,-258.6429 1169.5,-258.6429 1169.5,-239.6429 1105.5,-239.6429"/>
<polygon fill="none" stroke="#000000" points="1105.5,-239.6429 1105.5,-258.6429 1169.5,-258.6429 1169.5,-239.6429 1105.5,-239.6429"/>
<text text-anchor="start" x="1160.3862" y="-245.7429" font-family="Helvetica,sans-Serif" font-size="11.00" fill="#000000"> &#160;</text>
</a>
</g>
</g>
<!-- TARGET_FORMS_ISOFORM_ANNOTATIONS&#45;&gt;TARGET_FORMS -->
<g id="edge20" class="edge">
<title>TARGET_FORMS_ISOFORM_ANNOTATIONS:w&#45;&gt;TARGET_FORMS:e</title>
<path fill="none" stroke="#000000" d="M879.0988,-268.0536C846.5111,-270.1188 829.4183,-280.5299 809,-311.6429 774.1029,-364.8185 832.1038,-882.6429 768.5,-882.6429"/>
<polygon fill="#000000" stroke="#000000" points="885.5033,-267.871 893.6026,-271.2415 889.5016,-267.757 893.5,-267.6429 893.5,-267.6429 893.5,-267.6429 889.5016,-267.757 893.3974,-264.0444 885.5033,-267.871 885.5033,-267.871"/>
<ellipse fill="none" stroke="#000000" cx="882.3046" cy="-267.9623" rx="3.2" ry="3.2"/>
</g>
<!-- TARGET_FORMS_ISOFORM_DOMAINS -->
<g id="node15" class="node">
<title>TARGET_FORMS_ISOFORM_DOMAINS</title>
<g id="a_node15"><a xlink:href="../../tables/TARGET_FORMS_ISOFORM_DOMAINS.html" xlink:title="TARGET_FORMS_ISOFORM_DOMAINS" target="_top">
<polygon fill="#ffffff" stroke="transparent" points="907.5,-1252.1429 907.5,-1313.1429 1155.5,-1313.1429 1155.5,-1252.1429 907.5,-1252.1429"/>
<polygon fill="#f5f5f5" stroke="transparent" points="907.5,-1289.6429 907.5,-1312.6429 1155.5,-1312.6429 1155.5,-1289.6429 907.5,-1289.6429"/>
<polygon fill="none" stroke="#000000" points="907.5,-1289.6429 907.5,-1312.6429 1155.5,-1312.6429 1155.5,-1289.6429 907.5,-1289.6429"/>
<text text-anchor="start" x="912.3359" y="-1298.7429" font-family="Helvetica,sans-Serif" font-weight="bold" font-size="11.00" fill="#000000">TARGET_FORMS_ISOFORM_DOMAINS</text>
<text text-anchor="start" x="1121.0219" y="-1297.7429" font-family="Helvetica,sans-Serif" font-size="11.00" fill="#000000">[table]</text>
<polygon fill="none" stroke="#000000" points="907.5,-1270.6429 907.5,-1289.6429 1155.5,-1289.6429 1155.5,-1270.6429 907.5,-1270.6429"/>
<text text-anchor="start" x="910.5" y="-1276.7429" font-family="Helvetica,sans-Serif" font-size="11.00" fill="#000000">...</text>
<polygon fill="#ffffff" stroke="transparent" points="907.5,-1251.6429 907.5,-1270.6429 1010.5,-1270.6429 1010.5,-1251.6429 907.5,-1251.6429"/>
<polygon fill="none" stroke="#000000" points="907.5,-1251.6429 907.5,-1270.6429 1010.5,-1270.6429 1010.5,-1251.6429 907.5,-1251.6429"/>
<text text-anchor="start" x="910.5" y="-1257.7429" font-family="Helvetica,sans-Serif" font-size="11.00" fill="#000000">&lt; 2</text>
<polygon fill="#ffffff" stroke="transparent" points="1010.5,-1251.6429 1010.5,-1270.6429 1101.5,-1270.6429 1101.5,-1251.6429 1010.5,-1251.6429"/>
<polygon fill="none" stroke="#000000" points="1010.5,-1251.6429 1010.5,-1270.6429 1101.5,-1270.6429 1101.5,-1251.6429 1010.5,-1251.6429"/>
<text text-anchor="start" x="1053.8807" y="-1257.7429" font-family="Helvetica,sans-Serif" font-size="11.00" fill="#000000">725 rows</text>
<polygon fill="#ffffff" stroke="transparent" points="1101.5,-1251.6429 1101.5,-1270.6429 1155.5,-1270.6429 1155.5,-1251.6429 1101.5,-1251.6429"/>
<polygon fill="none" stroke="#000000" points="1101.5,-1251.6429 1101.5,-1270.6429 1155.5,-1270.6429 1155.5,-1251.6429 1101.5,-1251.6429"/>
<text text-anchor="start" x="1146.3862" y="-1257.7429" font-family="Helvetica,sans-Serif" font-size="11.00" fill="#000000"> &#160;</text>
</a>
</g>
</g>
<!-- TARGET_FORMS_ISOFORM_DOMAINS&#45;&gt;TARGET_FORMS -->
<g id="edge21" class="edge">
<title>TARGET_FORMS_ISOFORM_DOMAINS:w&#45;&gt;TARGET_FORMS:e</title>
<path fill="none" stroke="#000000" d="M892.9266,-1279.5658C855.4985,-1279.021 834.5388,-1274.7218 809,-1241.6429 759.9372,-1178.095 848.7838,-882.6429 768.5,-882.6429"/>
<polygon fill="#000000" stroke="#000000" points="899.5001,-1279.6005 907.4809,-1283.2429 903.5001,-1279.6217 907.5,-1279.6429 907.5,-1279.6429 907.5,-1279.6429 903.5001,-1279.6217 907.5191,-1276.043 899.5001,-1279.6005 899.5001,-1279.6005"/>
<ellipse fill="none" stroke="#000000" cx="896.3002" cy="-1279.5836" rx="3.2" ry="3.2"/>
</g>
<!-- TARGET_FORMS_ISOFORM_MOTIFS -->
<g id="node16" class="node">
<title>TARGET_FORMS_ISOFORM_MOTIFS</title>
<g id="a_node16"><a xlink:href="../../tables/TARGET_FORMS_ISOFORM_MOTIFS.html" xlink:title="TARGET_FORMS_ISOFORM_MOTIFS" target="_top">
<polygon fill="#ffffff" stroke="transparent" points="817,-1416.6429 817,-1638.6429 1246,-1638.6429 1246,-1416.6429 817,-1416.6429"/>
<polygon fill="#f5f5f5" stroke="transparent" points="819.5,-1613.6429 819.5,-1636.6429 1244.5,-1636.6429 1244.5,-1613.6429 819.5,-1613.6429"/>
<polygon fill="none" stroke="#000000" points="819.5,-1613.6429 819.5,-1636.6429 1244.5,-1636.6429 1244.5,-1613.6429 819.5,-1613.6429"/>
<text text-anchor="start" x="824.5" y="-1622.7429" font-family="Helvetica,sans-Serif" font-weight="bold" font-size="11.00" fill="#000000">TARGET_FORMS_ISOFORM_MOTIFS</text>
<text text-anchor="start" x="1209.5437" y="-1621.7429" font-family="Helvetica,sans-Serif" font-size="11.00" fill="#000000">[table]</text>
<polygon fill="none" stroke="#000000" points="819.5,-1591.6429 819.5,-1613.6429 1073.5,-1613.6429 1073.5,-1591.6429 819.5,-1591.6429"/>
<image xlink:href="../../images/primaryKeys.png" width="11px" height="12px" preserveAspectRatio="xMinYMin meet" x="824.5" y="-1608.64"/>
<text text-anchor="start" x="839.5" y="-1598.7429" font-family="Helvetica,sans-Serif" font-size="11.00" fill="#000000">ID</text>
<polygon fill="none" stroke="#000000" points="1073.5,-1591.6429 1073.5,-1613.6429 1244.5,-1613.6429 1244.5,-1591.6429 1073.5,-1591.6429"/>
<text text-anchor="start" x="1076.5" y="-1599.3429" font-family="Helvetica,sans-Serif" font-size="11.00" fill="#000000">number[19]</text>
<polygon fill="none" stroke="#000000" points="819.5,-1569.6429 819.5,-1591.6429 1073.5,-1591.6429 1073.5,-1569.6429 819.5,-1569.6429"/>
<text text-anchor="start" x="839.5" y="-1576.7429" font-family="Helvetica,sans-Serif" font-size="11.00" fill="#000000">CREATED_AT</text>
<polygon fill="none" stroke="#000000" points="1073.5,-1569.6429 1073.5,-1591.6429 1244.5,-1591.6429 1244.5,-1569.6429 1073.5,-1569.6429"/>
<text text-anchor="start" x="1076.4896" y="-1577.3429" font-family="Helvetica,sans-Serif" font-size="11.00" fill="#000000">timestamp(6) with time zone[13,6]</text>
<polygon fill="none" stroke="#000000" points="819.5,-1547.6429 819.5,-1569.6429 1073.5,-1569.6429 1073.5,-1547.6429 819.5,-1547.6429"/>
<text text-anchor="start" x="839.5" y="-1554.7429" font-family="Helvetica,sans-Serif" font-size="11.00" fill="#000000">CREATED_BY</text>
<polygon fill="none" stroke="#000000" points="1073.5,-1547.6429 1073.5,-1569.6429 1244.5,-1569.6429 1244.5,-1547.6429 1073.5,-1547.6429"/>
<text text-anchor="start" x="1076.5" y="-1555.3429" font-family="Helvetica,sans-Serif" font-size="11.00" fill="#000000">number[19]</text>
<polygon fill="none" stroke="#000000" points="819.5,-1525.6429 819.5,-1547.6429 1073.5,-1547.6429 1073.5,-1525.6429 819.5,-1525.6429"/>
<text text-anchor="start" x="839.5" y="-1532.7429" font-family="Helvetica,sans-Serif" font-size="11.00" fill="#000000">UPDATED_AT</text>
<polygon fill="none" stroke="#000000" points="1073.5,-1525.6429 1073.5,-1547.6429 1244.5,-1547.6429 1244.5,-1525.6429 1073.5,-1525.6429"/>
<text text-anchor="start" x="1076.4896" y="-1533.3429" font-family="Helvetica,sans-Serif" font-size="11.00" fill="#000000">timestamp(6) with time zone[13,6]</text>
<polygon fill="none" stroke="#000000" points="819.5,-1503.6429 819.5,-1525.6429 1073.5,-1525.6429 1073.5,-1503.6429 819.5,-1503.6429"/>
<text text-anchor="start" x="839.5" y="-1510.7429" font-family="Helvetica,sans-Serif" font-size="11.00" fill="#000000">UPDATED_BY</text>
<polygon fill="none" stroke="#000000" points="1073.5,-1503.6429 1073.5,-1525.6429 1244.5,-1525.6429 1244.5,-1503.6429 1073.5,-1503.6429"/>
<text text-anchor="start" x="1076.5" y="-1511.3429" font-family="Helvetica,sans-Serif" font-size="11.00" fill="#000000">number[19]</text>
<polygon fill="none" stroke="#000000" points="819.5,-1481.6429 819.5,-1503.6429 1073.5,-1503.6429 1073.5,-1481.6429 819.5,-1481.6429"/>
<image xlink:href="../../images/primaryKeys.png" width="11px" height="12px" preserveAspectRatio="xMinYMin meet" x="824.5" y="-1498.64"/>
<text text-anchor="start" x="839.5" y="-1488.7429" font-family="Helvetica,sans-Serif" font-size="11.00" fill="#000000">TARGET_FORM_ID</text>
<polygon fill="none" stroke="#000000" points="1073.5,-1481.6429 1073.5,-1503.6429 1244.5,-1503.6429 1244.5,-1481.6429 1073.5,-1481.6429"/>
<text text-anchor="start" x="1076.5" y="-1489.3429" font-family="Helvetica,sans-Serif" font-size="11.00" fill="#000000">number[19]</text>
<polygon fill="none" stroke="#000000" points="819.5,-1459.6429 819.5,-1481.6429 1073.5,-1481.6429 1073.5,-1459.6429 819.5,-1459.6429"/>
<image xlink:href="../../images/primaryKeys.png" width="11px" height="12px" preserveAspectRatio="xMinYMin meet" x="824.5" y="-1476.64"/>
<text text-anchor="start" x="839.5" y="-1466.7429" font-family="Helvetica,sans-Serif" font-size="11.00" fill="#000000">ISOFORM_MOTIF_ID</text>
<polygon fill="none" stroke="#000000" points="1073.5,-1459.6429 1073.5,-1481.6429 1244.5,-1481.6429 1244.5,-1459.6429 1073.5,-1459.6429"/>
<text text-anchor="start" x="1076.5" y="-1467.3429" font-family="Helvetica,sans-Serif" font-size="11.00" fill="#000000">number[19]</text>
<polygon fill="none" stroke="#000000" points="819.5,-1437.6429 819.5,-1459.6429 1073.5,-1459.6429 1073.5,-1437.6429 819.5,-1437.6429"/>
<text text-anchor="start" x="839.5" y="-1444.7429" font-family="Helvetica,sans-Serif" font-size="11.00" fill="#000000">IS_INCLUDED</text>
<polygon fill="none" stroke="#000000" points="1073.5,-1437.6429 1073.5,-1459.6429 1244.5,-1459.6429 1244.5,-1437.6429 1073.5,-1437.6429"/>
<text text-anchor="start" x="1076.5" y="-1445.3429" font-family="Helvetica,sans-Serif" font-size="11.00" fill="#000000">number[1]</text>
<polygon fill="#ffffff" stroke="transparent" points="819.5,-1418.6429 819.5,-1437.6429 931.5,-1437.6429 931.5,-1418.6429 819.5,-1418.6429"/>
<polygon fill="none" stroke="#000000" points="819.5,-1418.6429 819.5,-1437.6429 931.5,-1437.6429 931.5,-1418.6429 819.5,-1418.6429"/>
<text text-anchor="start" x="822.5" y="-1424.7429" font-family="Helvetica,sans-Serif" font-size="11.00" fill="#000000">&lt; 2</text>
<polygon fill="#ffffff" stroke="transparent" points="931.5,-1418.6429 931.5,-1437.6429 1073.5,-1437.6429 1073.5,-1418.6429 931.5,-1418.6429"/>
<polygon fill="none" stroke="#000000" points="931.5,-1418.6429 931.5,-1437.6429 1073.5,-1437.6429 1073.5,-1418.6429 931.5,-1418.6429"/>
<text text-anchor="start" x="1025.8807" y="-1424.7429" font-family="Helvetica,sans-Serif" font-size="11.00" fill="#000000">221 rows</text>
<polygon fill="#ffffff" stroke="transparent" points="1073.5,-1418.6429 1073.5,-1437.6429 1244.5,-1437.6429 1244.5,-1418.6429 1073.5,-1418.6429"/>
<polygon fill="none" stroke="#000000" points="1073.5,-1418.6429 1073.5,-1437.6429 1244.5,-1437.6429 1244.5,-1418.6429 1073.5,-1418.6429"/>
<text text-anchor="start" x="1225.9053" y="-1424.7429" font-family="Helvetica,sans-Serif" font-size="11.00" fill="#000000">0 &gt;</text>
<polygon fill="none" stroke="#000000" stroke-width="2" points="818,-1417.6429 818,-1637.6429 1245,-1637.6429 1245,-1417.6429 818,-1417.6429"/>
</a>
</g>
</g>
<!-- TARGET_FORMS_ISOFORM_MOTIFS&#45;&gt;TARGET_FORMS -->
<g id="edge23" class="edge">
<title>TARGET_FORMS_ISOFORM_MOTIFS:w&#45;&gt;TARGET_FORMS:e</title>
<path fill="none" stroke="#000000" d="M807.5995,-1484.4811C762.3956,-1412.095 831.8648,-882.6429 768.5,-882.6429"/>
<polygon fill="#000000" stroke="#000000" points="812.9026,-1488.1181 817.4638,-1495.6118 816.2013,-1490.3805 819.5,-1492.6429 819.5,-1492.6429 819.5,-1492.6429 816.2013,-1490.3805 821.5362,-1489.6741 812.9026,-1488.1181 812.9026,-1488.1181"/>
<ellipse fill="none" stroke="#000000" cx="810.2636" cy="-1486.3082" rx="3.2" ry="3.2"/>
</g>
<!-- TARGET_FORMS_ISOFORM_MOTIFS&#45;&gt;ISOFORM_MOTIFS -->
<g id="edge22" class="edge">
<title>TARGET_FORMS_ISOFORM_MOTIFS:w&#45;&gt;ISOFORM_MOTIFS:e</title>
<path fill="none" stroke="#000000" d="M804.8014,-1470.6429C758.3099,-1470.6429 741.4913,-1470.6429 688.5,-1470.6429"/>
<polygon fill="#000000" stroke="#000000" points="811.5,-1470.643 819.5,-1474.2429 815.5,-1470.643 819.5,-1470.6429 819.5,-1470.6429 819.5,-1470.6429 815.5,-1470.643 819.5,-1467.0429 811.5,-1470.643 811.5,-1470.643"/>
<ellipse fill="none" stroke="#000000" cx="808.3" cy="-1470.643" rx="3.2" ry="3.2"/>
</g>
<!-- TARGET_FORMS_ISOFORM_REGIONS -->
<g id="node17" class="node">
<title>TARGET_FORMS_ISOFORM_REGIONS</title>
<g id="a_node17"><a xlink:href="../../tables/TARGET_FORMS_ISOFORM_REGIONS.html" xlink:title="TARGET_FORMS_ISOFORM_REGIONS" target="_top">
<polygon fill="#ffffff" stroke="transparent" points="908,-1170.1429 908,-1231.1429 1155,-1231.1429 1155,-1170.1429 908,-1170.1429"/>
<polygon fill="#f5f5f5" stroke="transparent" points="908.5,-1207.6429 908.5,-1230.6429 1155.5,-1230.6429 1155.5,-1207.6429 908.5,-1207.6429"/>
<polygon fill="none" stroke="#000000" points="908.5,-1207.6429 908.5,-1230.6429 1155.5,-1230.6429 1155.5,-1207.6429 908.5,-1207.6429"/>
<text text-anchor="start" x="913.1384" y="-1216.7429" font-family="Helvetica,sans-Serif" font-weight="bold" font-size="11.00" fill="#000000">TARGET_FORMS_ISOFORM_REGIONS</text>
<text text-anchor="start" x="1121.0219" y="-1215.7429" font-family="Helvetica,sans-Serif" font-size="11.00" fill="#000000">[table]</text>
<polygon fill="none" stroke="#000000" points="908.5,-1188.6429 908.5,-1207.6429 1155.5,-1207.6429 1155.5,-1188.6429 908.5,-1188.6429"/>
<text text-anchor="start" x="911.5" y="-1194.7429" font-family="Helvetica,sans-Serif" font-size="11.00" fill="#000000">...</text>
<polygon fill="#ffffff" stroke="transparent" points="908.5,-1169.6429 908.5,-1188.6429 1011.5,-1188.6429 1011.5,-1169.6429 908.5,-1169.6429"/>
<polygon fill="none" stroke="#000000" points="908.5,-1169.6429 908.5,-1188.6429 1011.5,-1188.6429 1011.5,-1169.6429 908.5,-1169.6429"/>
<text text-anchor="start" x="911.5" y="-1175.7429" font-family="Helvetica,sans-Serif" font-size="11.00" fill="#000000">&lt; 2</text>
<polygon fill="#ffffff" stroke="transparent" points="1011.5,-1169.6429 1011.5,-1188.6429 1102.5,-1188.6429 1102.5,-1169.6429 1011.5,-1169.6429"/>
<polygon fill="none" stroke="#000000" points="1011.5,-1169.6429 1011.5,-1188.6429 1102.5,-1188.6429 1102.5,-1169.6429 1011.5,-1169.6429"/>
<text text-anchor="start" x="1054.8807" y="-1175.7429" font-family="Helvetica,sans-Serif" font-size="11.00" fill="#000000">153 rows</text>
<polygon fill="#ffffff" stroke="transparent" points="1102.5,-1169.6429 1102.5,-1188.6429 1155.5,-1188.6429 1155.5,-1169.6429 1102.5,-1169.6429"/>
<polygon fill="none" stroke="#000000" points="1102.5,-1169.6429 1102.5,-1188.6429 1155.5,-1188.6429 1155.5,-1169.6429 1102.5,-1169.6429"/>
<text text-anchor="start" x="1146.3862" y="-1175.7429" font-family="Helvetica,sans-Serif" font-size="11.00" fill="#000000"> &#160;</text>
</a>
</g>
</g>
<!-- TARGET_FORMS_ISOFORM_REGIONS&#45;&gt;TARGET_FORMS -->
<g id="edge24" class="edge">
<title>TARGET_FORMS_ISOFORM_REGIONS:w&#45;&gt;TARGET_FORMS:e</title>
<path fill="none" stroke="#000000" d="M893.815,-1197.5593C856.1433,-1196.9817 835.3648,-1192.5422 809,-1159.6429 770.0969,-1111.0977 830.71,-882.6429 768.5,-882.6429"/>
<polygon fill="#000000" stroke="#000000" points="900.5001,-1197.5973 908.4795,-1201.2429 904.5001,-1197.6201 908.5,-1197.6429 908.5,-1197.6429 908.5,-1197.6429 904.5001,-1197.6201 908.5205,-1194.043 900.5001,-1197.5973 900.5001,-1197.5973"/>
<ellipse fill="none" stroke="#000000" cx="897.3002" cy="-1197.5791" rx="3.2" ry="3.2"/>
</g>
<!-- TARGET_FORMS_ISOFORM_VARIANTS -->
<g id="node18" class="node">
<title>TARGET_FORMS_ISOFORM_VARIANTS</title>
<g id="a_node18"><a xlink:href="../../tables/TARGET_FORMS_ISOFORM_VARIANTS.html" xlink:title="TARGET_FORMS_ISOFORM_VARIANTS" target="_top">
<polygon fill="#ffffff" stroke="transparent" points="905.5,-1088.1429 905.5,-1149.1429 1157.5,-1149.1429 1157.5,-1088.1429 905.5,-1088.1429"/>
<polygon fill="#f5f5f5" stroke="transparent" points="905.5,-1125.6429 905.5,-1148.6429 1157.5,-1148.6429 1157.5,-1125.6429 905.5,-1125.6429"/>
<polygon fill="none" stroke="#000000" points="905.5,-1125.6429 905.5,-1148.6429 1157.5,-1148.6429 1157.5,-1125.6429 905.5,-1125.6429"/>
<text text-anchor="start" x="910.4995" y="-1134.7429" font-family="Helvetica,sans-Serif" font-weight="bold" font-size="11.00" fill="#000000">TARGET_FORMS_ISOFORM_VARIANTS</text>
<text text-anchor="start" x="1123.0219" y="-1133.7429" font-family="Helvetica,sans-Serif" font-size="11.00" fill="#000000">[table]</text>
<polygon fill="none" stroke="#000000" points="905.5,-1106.6429 905.5,-1125.6429 1157.5,-1125.6429 1157.5,-1106.6429 905.5,-1106.6429"/>
<text text-anchor="start" x="908.5" y="-1112.7429" font-family="Helvetica,sans-Serif" font-size="11.00" fill="#000000">...</text>
<polygon fill="#ffffff" stroke="transparent" points="905.5,-1087.6429 905.5,-1106.6429 1010.5,-1106.6429 1010.5,-1087.6429 905.5,-1087.6429"/>
<polygon fill="none" stroke="#000000" points="905.5,-1087.6429 905.5,-1106.6429 1010.5,-1106.6429 1010.5,-1087.6429 905.5,-1087.6429"/>
<text text-anchor="start" x="908.5" y="-1093.7429" font-family="Helvetica,sans-Serif" font-size="11.00" fill="#000000">&lt; 2</text>
<polygon fill="#ffffff" stroke="transparent" points="1010.5,-1087.6429 1010.5,-1106.6429 1102.5,-1106.6429 1102.5,-1087.6429 1010.5,-1087.6429"/>
<polygon fill="none" stroke="#000000" points="1010.5,-1087.6429 1010.5,-1106.6429 1102.5,-1106.6429 1102.5,-1087.6429 1010.5,-1087.6429"/>
<text text-anchor="start" x="1054.8807" y="-1093.7429" font-family="Helvetica,sans-Serif" font-size="11.00" fill="#000000">108 rows</text>
<polygon fill="#ffffff" stroke="transparent" points="1102.5,-1087.6429 1102.5,-1106.6429 1157.5,-1106.6429 1157.5,-1087.6429 1102.5,-1087.6429"/>
<polygon fill="none" stroke="#000000" points="1102.5,-1087.6429 1102.5,-1106.6429 1157.5,-1106.6429 1157.5,-1087.6429 1102.5,-1087.6429"/>
<text text-anchor="start" x="1148.3862" y="-1093.7429" font-family="Helvetica,sans-Serif" font-size="11.00" fill="#000000"> &#160;</text>
</a>
</g>
</g>
<!-- TARGET_FORMS_ISOFORM_VARIANTS&#45;&gt;TARGET_FORMS -->
<g id="edge25" class="edge">
<title>TARGET_FORMS_ISOFORM_VARIANTS:w&#45;&gt;TARGET_FORMS:e</title>
<path fill="none" stroke="#000000" d="M891.0605,-1115.4037C854.2053,-1114.0173 835.3442,-1105.9145 809,-1073.6429 754.1246,-1006.4208 855.2763,-882.6429 768.5,-882.6429"/>
<polygon fill="#000000" stroke="#000000" points="897.5011,-1115.5104 905.4403,-1119.2424 901.5005,-1115.5766 905.5,-1115.6429 905.5,-1115.6429 905.5,-1115.6429 901.5005,-1115.5766 905.5597,-1112.0434 897.5011,-1115.5104 897.5011,-1115.5104"/>
<ellipse fill="none" stroke="#000000" cx="894.3015" cy="-1115.4573" rx="3.2" ry="3.2"/>
</g>
<!-- TARGET_FORMS_PROTEIN_CLEAVAGE_SITES -->
<g id="node19" class="node">
<title>TARGET_FORMS_PROTEIN_CLEAVAGE_SITES</title>
<g id="a_node19"><a xlink:href="../../tables/TARGET_FORMS_PROTEIN_CLEAVAGE_SITES.html" xlink:title="TARGET_FORMS_PROTEIN_CLEAVAGE_SITES" target="_top">
<polygon fill="#ffffff" stroke="transparent" points="886,-978.1429 886,-1039.1429 1177,-1039.1429 1177,-978.1429 886,-978.1429"/>
<polygon fill="#f5f5f5" stroke="transparent" points="886.5,-1015.6429 886.5,-1038.6429 1177.5,-1038.6429 1177.5,-1015.6429 886.5,-1015.6429"/>
<polygon fill="none" stroke="#000000" points="886.5,-1015.6429 886.5,-1038.6429 1177.5,-1038.6429 1177.5,-1015.6429 886.5,-1015.6429"/>
<text text-anchor="start" x="891.1258" y="-1024.7429" font-family="Helvetica,sans-Serif" font-weight="bold" font-size="11.00" fill="#000000">TARGET_FORMS_PROTEIN_CLEAVAGE_SITES</text>
<text text-anchor="start" x="1143.0219" y="-1023.7429" font-family="Helvetica,sans-Serif" font-size="11.00" fill="#000000">[table]</text>
<polygon fill="none" stroke="#000000" points="886.5,-996.6429 886.5,-1015.6429 1177.5,-1015.6429 1177.5,-996.6429 886.5,-996.6429"/>
<text text-anchor="start" x="889.5" y="-1002.7429" font-family="Helvetica,sans-Serif" font-size="11.00" fill="#000000">...</text>
<polygon fill="#ffffff" stroke="transparent" points="886.5,-977.6429 886.5,-996.6429 1011.5,-996.6429 1011.5,-977.6429 886.5,-977.6429"/>
<polygon fill="none" stroke="#000000" points="886.5,-977.6429 886.5,-996.6429 1011.5,-996.6429 1011.5,-977.6429 886.5,-977.6429"/>
<text text-anchor="start" x="889.5" y="-983.7429" font-family="Helvetica,sans-Serif" font-size="11.00" fill="#000000">&lt; 2</text>
<polygon fill="#ffffff" stroke="transparent" points="1011.5,-977.6429 1011.5,-996.6429 1113.5,-996.6429 1113.5,-977.6429 1011.5,-977.6429"/>
<polygon fill="none" stroke="#000000" points="1011.5,-977.6429 1011.5,-996.6429 1113.5,-996.6429 1113.5,-977.6429 1011.5,-977.6429"/>
<text text-anchor="start" x="1065.8807" y="-983.7429" font-family="Helvetica,sans-Serif" font-size="11.00" fill="#000000">112 rows</text>
<polygon fill="#ffffff" stroke="transparent" points="1113.5,-977.6429 1113.5,-996.6429 1177.5,-996.6429 1177.5,-977.6429 1113.5,-977.6429"/>
<polygon fill="none" stroke="#000000" points="1113.5,-977.6429 1113.5,-996.6429 1177.5,-996.6429 1177.5,-977.6429 1113.5,-977.6429"/>
<text text-anchor="start" x="1168.3862" y="-983.7429" font-family="Helvetica,sans-Serif" font-size="11.00" fill="#000000"> &#160;</text>
</a>
</g>
</g>
<!-- TARGET_FORMS_PROTEIN_CLEAVAGE_SITES&#45;&gt;TARGET_FORMS -->
<g id="edge26" class="edge">
<title>TARGET_FORMS_PROTEIN_CLEAVAGE_SITES:w&#45;&gt;TARGET_FORMS:e</title>
<path fill="none" stroke="#000000" d="M871.7561,-1004.9906C844.4238,-1002.3 832.1803,-991.085 809,-967.6429 779.5764,-937.8871 810.3469,-882.6429 768.5,-882.6429"/>
<polygon fill="#000000" stroke="#000000" points="878.5078,-1005.2893 886.3409,-1009.2394 882.5039,-1005.4661 886.5,-1005.6429 886.5,-1005.6429 886.5,-1005.6429 882.5039,-1005.4661 886.6591,-1002.0465 878.5078,-1005.2893 878.5078,-1005.2893"/>
<ellipse fill="none" stroke="#000000" cx="875.3109" cy="-1005.1478" rx="3.2" ry="3.2"/>
</g>
<!-- TARGET_FORMS_PROTEIN_FUSION_SEQUENCES -->
<g id="node20" class="node">
<title>TARGET_FORMS_PROTEIN_FUSION_SEQUENCES</title>
<g id="a_node20"><a xlink:href="../../tables/TARGET_FORMS_PROTEIN_FUSION_SEQUENCES.html" xlink:title="TARGET_FORMS_PROTEIN_FUSION_SEQUENCES" target="_top">
<polygon fill="#ffffff" stroke="transparent" points="876,-896.1429 876,-957.1429 1187,-957.1429 1187,-896.1429 876,-896.1429"/>
<polygon fill="#f5f5f5" stroke="transparent" points="876.5,-933.6429 876.5,-956.6429 1187.5,-956.6429 1187.5,-933.6429 876.5,-933.6429"/>
<polygon fill="none" stroke="#000000" points="876.5,-933.6429 876.5,-956.6429 1187.5,-956.6429 1187.5,-933.6429 876.5,-933.6429"/>
<text text-anchor="start" x="881.3589" y="-942.7429" font-family="Helvetica,sans-Serif" font-weight="bold" font-size="11.00" fill="#000000">TARGET_FORMS_PROTEIN_FUSION_SEQUENCES</text>
<text text-anchor="start" x="1153.0219" y="-941.7429" font-family="Helvetica,sans-Serif" font-size="11.00" fill="#000000">[table]</text>
<polygon fill="none" stroke="#000000" points="876.5,-914.6429 876.5,-933.6429 1187.5,-933.6429 1187.5,-914.6429 876.5,-914.6429"/>
<text text-anchor="start" x="879.5" y="-920.7429" font-family="Helvetica,sans-Serif" font-size="11.00" fill="#000000">...</text>
<polygon fill="#ffffff" stroke="transparent" points="876.5,-895.6429 876.5,-914.6429 1011.5,-914.6429 1011.5,-895.6429 876.5,-895.6429"/>
<polygon fill="none" stroke="#000000" points="876.5,-895.6429 876.5,-914.6429 1011.5,-914.6429 1011.5,-895.6429 876.5,-895.6429"/>
<text text-anchor="start" x="879.5" y="-901.7429" font-family="Helvetica,sans-Serif" font-size="11.00" fill="#000000">&lt; 2</text>
<polygon fill="#ffffff" stroke="transparent" points="1011.5,-895.6429 1011.5,-914.6429 1118.5,-914.6429 1118.5,-895.6429 1011.5,-895.6429"/>
<polygon fill="none" stroke="#000000" points="1011.5,-895.6429 1011.5,-914.6429 1118.5,-914.6429 1118.5,-895.6429 1011.5,-895.6429"/>
<text text-anchor="start" x="1070.8807" y="-901.7429" font-family="Helvetica,sans-Serif" font-size="11.00" fill="#000000">110 rows</text>
<polygon fill="#ffffff" stroke="transparent" points="1118.5,-895.6429 1118.5,-914.6429 1187.5,-914.6429 1187.5,-895.6429 1118.5,-895.6429"/>
<polygon fill="none" stroke="#000000" points="1118.5,-895.6429 1118.5,-914.6429 1187.5,-914.6429 1187.5,-895.6429 1118.5,-895.6429"/>
<text text-anchor="start" x="1178.3862" y="-901.7429" font-family="Helvetica,sans-Serif" font-size="11.00" fill="#000000"> &#160;</text>
</a>
</g>
</g>
<!-- TARGET_FORMS_PROTEIN_FUSION_SEQUENCES&#45;&gt;TARGET_FORMS -->
<g id="edge27" class="edge">
<title>TARGET_FORMS_PROTEIN_FUSION_SEQUENCES:w&#45;&gt;TARGET_FORMS:e</title>
<path fill="none" stroke="#000000" d="M861.9333,-922.4159C823.5639,-915.594 814.5277,-882.6429 768.5,-882.6429"/>
<polygon fill="#000000" stroke="#000000" points="868.5282,-922.9714 876.1978,-927.2302 872.5141,-923.3072 876.5,-923.6429 876.5,-923.6429 876.5,-923.6429 872.5141,-923.3072 876.8022,-920.0556 868.5282,-922.9714 868.5282,-922.9714"/>
<ellipse fill="none" stroke="#000000" cx="865.3395" cy="-922.7028" rx="3.2" ry="3.2"/>
</g>
<!-- TARGET_FORMS_PROTEIN_GROUPS -->
<g id="node21" class="node">
<title>TARGET_FORMS_PROTEIN_GROUPS</title>
<g id="a_node21"><a xlink:href="../../tables/TARGET_FORMS_PROTEIN_GROUPS.html" xlink:title="TARGET_FORMS_PROTEIN_GROUPS" target="_top">
<polygon fill="#ffffff" stroke="transparent" points="910.5,-814.1429 910.5,-875.1429 1152.5,-875.1429 1152.5,-814.1429 910.5,-814.1429"/>
<polygon fill="#f5f5f5" stroke="transparent" points="910.5,-851.6429 910.5,-874.6429 1152.5,-874.6429 1152.5,-851.6429 910.5,-851.6429"/>
<polygon fill="none" stroke="#000000" points="910.5,-851.6429 910.5,-874.6429 1152.5,-874.6429 1152.5,-851.6429 910.5,-851.6429"/>
<text text-anchor="start" x="915.3879" y="-860.7429" font-family="Helvetica,sans-Serif" font-weight="bold" font-size="11.00" fill="#000000">TARGET_FORMS_PROTEIN_GROUPS</text>
<text text-anchor="start" x="1118.0219" y="-859.7429" font-family="Helvetica,sans-Serif" font-size="11.00" fill="#000000">[table]</text>
<polygon fill="none" stroke="#000000" points="910.5,-832.6429 910.5,-851.6429 1152.5,-851.6429 1152.5,-832.6429 910.5,-832.6429"/>
<text text-anchor="start" x="913.5" y="-838.7429" font-family="Helvetica,sans-Serif" font-size="11.00" fill="#000000">...</text>
<polygon fill="#ffffff" stroke="transparent" points="910.5,-813.6429 910.5,-832.6429 1013.5,-832.6429 1013.5,-813.6429 910.5,-813.6429"/>
<polygon fill="none" stroke="#000000" points="910.5,-813.6429 910.5,-832.6429 1013.5,-832.6429 1013.5,-813.6429 910.5,-813.6429"/>
<text text-anchor="start" x="913.5" y="-819.7429" font-family="Helvetica,sans-Serif" font-size="11.00" fill="#000000">&lt; 2</text>
<polygon fill="#ffffff" stroke="transparent" points="1013.5,-813.6429 1013.5,-832.6429 1098.5,-832.6429 1098.5,-813.6429 1013.5,-813.6429"/>
<polygon fill="none" stroke="#000000" points="1013.5,-813.6429 1013.5,-832.6429 1098.5,-832.6429 1098.5,-813.6429 1013.5,-813.6429"/>
<text text-anchor="start" x="1056.9956" y="-819.7429" font-family="Helvetica,sans-Serif" font-size="11.00" fill="#000000">17 rows</text>
<polygon fill="#ffffff" stroke="transparent" points="1098.5,-813.6429 1098.5,-832.6429 1152.5,-832.6429 1152.5,-813.6429 1098.5,-813.6429"/>
<polygon fill="none" stroke="#000000" points="1098.5,-813.6429 1098.5,-832.6429 1152.5,-832.6429 1152.5,-813.6429 1098.5,-813.6429"/>
<text text-anchor="start" x="1143.3862" y="-819.7429" font-family="Helvetica,sans-Serif" font-size="11.00" fill="#000000"> &#160;</text>
</a>
</g>
</g>
<!-- TARGET_FORMS_PROTEIN_GROUPS&#45;&gt;TARGET_FORMS -->
<g id="edge28" class="edge">
<title>TARGET_FORMS_PROTEIN_GROUPS:w&#45;&gt;TARGET_FORMS:e</title>
<path fill="none" stroke="#000000" d="M896.0599,-842.3546C842.8151,-847.7989 829.0572,-882.6429 768.5,-882.6429"/>
<polygon fill="#000000" stroke="#000000" points="902.5097,-842.0368 910.6772,-845.2386 906.5048,-841.8399 910.5,-841.6429 910.5,-841.6429 910.5,-841.6429 906.5048,-841.8399 910.3228,-838.0473 902.5097,-842.0368 902.5097,-842.0368"/>
<ellipse fill="none" stroke="#000000" cx="899.3136" cy="-842.1943" rx="3.2" ry="3.2"/>
</g>
<!-- TARGET_FORMS_PROTEIN_LINKERS -->
<g id="node22" class="node">
<title>TARGET_FORMS_PROTEIN_LINKERS</title>
<g id="a_node22"><a xlink:href="../../tables/TARGET_FORMS_PROTEIN_LINKERS.html" xlink:title="TARGET_FORMS_PROTEIN_LINKERS" target="_top">
<polygon fill="#ffffff" stroke="transparent" points="911,-732.1429 911,-793.1429 1152,-793.1429 1152,-732.1429 911,-732.1429"/>
<polygon fill="#f5f5f5" stroke="transparent" points="911.5,-769.6429 911.5,-792.6429 1152.5,-792.6429 1152.5,-769.6429 911.5,-769.6429"/>
<polygon fill="none" stroke="#000000" points="911.5,-769.6429 911.5,-792.6429 1152.5,-792.6429 1152.5,-769.6429 911.5,-769.6429"/>
<text text-anchor="start" x="916.1909" y="-778.7429" font-family="Helvetica,sans-Serif" font-weight="bold" font-size="11.00" fill="#000000">TARGET_FORMS_PROTEIN_LINKERS</text>
<text text-anchor="start" x="1118.0219" y="-777.7429" font-family="Helvetica,sans-Serif" font-size="11.00" fill="#000000">[table]</text>
<polygon fill="none" stroke="#000000" points="911.5,-750.6429 911.5,-769.6429 1152.5,-769.6429 1152.5,-750.6429 911.5,-750.6429"/>
<text text-anchor="start" x="914.5" y="-756.7429" font-family="Helvetica,sans-Serif" font-size="11.00" fill="#000000">...</text>
<polygon fill="#ffffff" stroke="transparent" points="911.5,-731.6429 911.5,-750.6429 1011.5,-750.6429 1011.5,-731.6429 911.5,-731.6429"/>
<polygon fill="none" stroke="#000000" points="911.5,-731.6429 911.5,-750.6429 1011.5,-750.6429 1011.5,-731.6429 911.5,-731.6429"/>
<text text-anchor="start" x="914.5" y="-737.7429" font-family="Helvetica,sans-Serif" font-size="11.00" fill="#000000">&lt; 2</text>
<polygon fill="#ffffff" stroke="transparent" points="1011.5,-731.6429 1011.5,-750.6429 1100.5,-750.6429 1100.5,-731.6429 1011.5,-731.6429"/>
<polygon fill="none" stroke="#000000" points="1011.5,-731.6429 1011.5,-750.6429 1100.5,-750.6429 1100.5,-731.6429 1011.5,-731.6429"/>
<text text-anchor="start" x="1052.8807" y="-737.7429" font-family="Helvetica,sans-Serif" font-size="11.00" fill="#000000">149 rows</text>
<polygon fill="#ffffff" stroke="transparent" points="1100.5,-731.6429 1100.5,-750.6429 1152.5,-750.6429 1152.5,-731.6429 1100.5,-731.6429"/>
<polygon fill="none" stroke="#000000" points="1100.5,-731.6429 1100.5,-750.6429 1152.5,-750.6429 1152.5,-731.6429 1100.5,-731.6429"/>
<text text-anchor="start" x="1143.3862" y="-737.7429" font-family="Helvetica,sans-Serif" font-size="11.00" fill="#000000"> &#160;</text>
</a>
</g>
</g>
<!-- TARGET_FORMS_PROTEIN_LINKERS&#45;&gt;TARGET_FORMS -->
<g id="edge29" class="edge">
<title>TARGET_FORMS_PROTEIN_LINKERS:w&#45;&gt;TARGET_FORMS:e</title>
<path fill="none" stroke="#000000" d="M897.1034,-759.9846C858.259,-762.0003 841.4802,-773.3069 809,-803.6429 780.1647,-830.5746 807.9562,-882.6429 768.5,-882.6429"/>
<polygon fill="#000000" stroke="#000000" points="903.5023,-759.8328 911.5854,-763.2419 907.5011,-759.7379 911.5,-759.6429 911.5,-759.6429 911.5,-759.6429 907.5011,-759.7379 911.4146,-756.044 903.5023,-759.8328 903.5023,-759.8328"/>
<ellipse fill="none" stroke="#000000" cx="900.3032" cy="-759.9087" rx="3.2" ry="3.2"/>
</g>
<!-- TARGET_FORMS_PROTEIN_TAGS -->
<g id="node23" class="node">
<title>TARGET_FORMS_PROTEIN_TAGS</title>
<g id="a_node23"><a xlink:href="../../tables/TARGET_FORMS_PROTEIN_TAGS.html" xlink:title="TARGET_FORMS_PROTEIN_TAGS" target="_top">
<polygon fill="#ffffff" stroke="transparent" points="919.5,-650.1429 919.5,-711.1429 1143.5,-711.1429 1143.5,-650.1429 919.5,-650.1429"/>
<polygon fill="#f5f5f5" stroke="transparent" points="919.5,-687.6429 919.5,-710.6429 1143.5,-710.6429 1143.5,-687.6429 919.5,-687.6429"/>
<polygon fill="none" stroke="#000000" points="919.5,-687.6429 919.5,-710.6429 1143.5,-710.6429 1143.5,-687.6429 919.5,-687.6429"/>
<text text-anchor="start" x="924.2473" y="-696.7429" font-family="Helvetica,sans-Serif" font-weight="bold" font-size="11.00" fill="#000000">TARGET_FORMS_PROTEIN_TAGS</text>
<text text-anchor="start" x="1109.0219" y="-695.7429" font-family="Helvetica,sans-Serif" font-size="11.00" fill="#000000">[table]</text>
<polygon fill="none" stroke="#000000" points="919.5,-668.6429 919.5,-687.6429 1143.5,-687.6429 1143.5,-668.6429 919.5,-668.6429"/>
<text text-anchor="start" x="922.5" y="-674.7429" font-family="Helvetica,sans-Serif" font-size="11.00" fill="#000000">...</text>
<polygon fill="#ffffff" stroke="transparent" points="919.5,-649.6429 919.5,-668.6429 1010.5,-668.6429 1010.5,-649.6429 919.5,-649.6429"/>
<polygon fill="none" stroke="#000000" points="919.5,-649.6429 919.5,-668.6429 1010.5,-668.6429 1010.5,-649.6429 919.5,-649.6429"/>
<text text-anchor="start" x="922.5" y="-655.7429" font-family="Helvetica,sans-Serif" font-size="11.00" fill="#000000">&lt; 2</text>
<polygon fill="#ffffff" stroke="transparent" points="1010.5,-649.6429 1010.5,-668.6429 1095.5,-668.6429 1095.5,-649.6429 1010.5,-649.6429"/>
<polygon fill="none" stroke="#000000" points="1010.5,-649.6429 1010.5,-668.6429 1095.5,-668.6429 1095.5,-649.6429 1010.5,-649.6429"/>
<text text-anchor="start" x="1047.8807" y="-655.7429" font-family="Helvetica,sans-Serif" font-size="11.00" fill="#000000">232 rows</text>
<polygon fill="#ffffff" stroke="transparent" points="1095.5,-649.6429 1095.5,-668.6429 1143.5,-668.6429 1143.5,-649.6429 1095.5,-649.6429"/>
<polygon fill="none" stroke="#000000" points="1095.5,-649.6429 1095.5,-668.6429 1143.5,-668.6429 1143.5,-649.6429 1095.5,-649.6429"/>
<text text-anchor="start" x="1134.3862" y="-655.7429" font-family="Helvetica,sans-Serif" font-size="11.00" fill="#000000"> &#160;</text>
</a>
</g>
</g>
<!-- TARGET_FORMS_PROTEIN_TAGS&#45;&gt;TARGET_FORMS -->
<g id="edge30" class="edge">
<title>TARGET_FORMS_PROTEIN_TAGS:w&#45;&gt;TARGET_FORMS:e</title>
<path fill="none" stroke="#000000" d="M904.8337,-677.7931C862.0678,-678.8078 840.4214,-685.7556 809,-721.6429 760.3949,-777.1563 842.2848,-882.6429 768.5,-882.6429"/>
<polygon fill="#000000" stroke="#000000" points="911.5004,-677.7249 919.5369,-681.2427 915.5002,-677.6839 919.5,-677.6429 919.5,-677.6429 919.5,-677.6429 915.5002,-677.6839 919.4631,-674.0431 911.5004,-677.7249 911.5004,-677.7249"/>
<ellipse fill="none" stroke="#000000" cx="908.3006" cy="-677.7577" rx="3.2" ry="3.2"/>
</g>
<!-- TARGET_FORMS_REFERENCES -->
<g id="node24" class="node">
<title>TARGET_FORMS_REFERENCES</title>
<g id="a_node24"><a xlink:href="../../tables/TARGET_FORMS_REFERENCES.html" xlink:title="TARGET_FORMS_REFERENCES" target="_top">
<polygon fill="#ffffff" stroke="transparent" points="924.5,-568.1429 924.5,-629.1429 1138.5,-629.1429 1138.5,-568.1429 924.5,-568.1429"/>
<polygon fill="#f5f5f5" stroke="transparent" points="924.5,-605.6429 924.5,-628.6429 1138.5,-628.6429 1138.5,-605.6429 924.5,-605.6429"/>
<polygon fill="none" stroke="#000000" points="924.5,-605.6429 924.5,-628.6429 1138.5,-628.6429 1138.5,-605.6429 924.5,-605.6429"/>
<text text-anchor="start" x="929.1412" y="-614.7429" font-family="Helvetica,sans-Serif" font-weight="bold" font-size="11.00" fill="#000000">TARGET_FORMS_REFERENCES</text>
<text text-anchor="start" x="1104.0219" y="-613.7429" font-family="Helvetica,sans-Serif" font-size="11.00" fill="#000000">[table]</text>
<polygon fill="none" stroke="#000000" points="924.5,-586.6429 924.5,-605.6429 1138.5,-605.6429 1138.5,-586.6429 924.5,-586.6429"/>
<text text-anchor="start" x="927.5" y="-592.7429" font-family="Helvetica,sans-Serif" font-size="11.00" fill="#000000">...</text>
<polygon fill="#ffffff" stroke="transparent" points="924.5,-567.6429 924.5,-586.6429 1010.5,-586.6429 1010.5,-567.6429 924.5,-567.6429"/>
<polygon fill="none" stroke="#000000" points="924.5,-567.6429 924.5,-586.6429 1010.5,-586.6429 1010.5,-567.6429 924.5,-567.6429"/>
<text text-anchor="start" x="927.5" y="-573.7429" font-family="Helvetica,sans-Serif" font-size="11.00" fill="#000000">&lt; 2</text>
<polygon fill="#ffffff" stroke="transparent" points="1010.5,-567.6429 1010.5,-586.6429 1093.5,-586.6429 1093.5,-567.6429 1010.5,-567.6429"/>
<polygon fill="none" stroke="#000000" points="1010.5,-567.6429 1010.5,-586.6429 1093.5,-586.6429 1093.5,-567.6429 1010.5,-567.6429"/>
<text text-anchor="start" x="1045.8807" y="-573.7429" font-family="Helvetica,sans-Serif" font-size="11.00" fill="#000000">105 rows</text>
<polygon fill="#ffffff" stroke="transparent" points="1093.5,-567.6429 1093.5,-586.6429 1138.5,-586.6429 1138.5,-567.6429 1093.5,-567.6429"/>
<polygon fill="none" stroke="#000000" points="1093.5,-567.6429 1093.5,-586.6429 1138.5,-586.6429 1138.5,-567.6429 1093.5,-567.6429"/>
<text text-anchor="start" x="1129.3862" y="-573.7429" font-family="Helvetica,sans-Serif" font-size="11.00" fill="#000000"> &#160;</text>
</a>
</g>
</g>
<!-- TARGET_FORMS_REFERENCES&#45;&gt;TARGET_FORMS -->
<g id="edge31" class="edge">
<title>TARGET_FORMS_REFERENCES:w&#45;&gt;TARGET_FORMS:e</title>
<path fill="none" stroke="#000000" d="M910.0799,-595.7113C864.7603,-596.2628 840.6017,-601.0386 809,-639.6429 774.3227,-682.0043 823.2449,-882.6429 768.5,-882.6429"/>
<polygon fill="#000000" stroke="#000000" points="916.5001,-595.6809 924.5171,-599.2429 920.5,-595.6619 924.5,-595.6429 924.5,-595.6429 924.5,-595.6429 920.5,-595.6619 924.4829,-592.043 916.5001,-595.6809 916.5001,-595.6809"/>
<ellipse fill="none" stroke="#000000" cx="913.3001" cy="-595.6961" rx="3.2" ry="3.2"/>
</g>
<!-- TARGET_FORMS_TAGS -->
<g id="node25" class="node">
<title>TARGET_FORMS_TAGS</title>
<g id="a_node25"><a xlink:href="../../tables/TARGET_FORMS_TAGS.html" xlink:title="TARGET_FORMS_TAGS" target="_top">
<polygon fill="#ffffff" stroke="transparent" points="947,-486.1429 947,-547.1429 1116,-547.1429 1116,-486.1429 947,-486.1429"/>
<polygon fill="#f5f5f5" stroke="transparent" points="947.5,-523.6429 947.5,-546.6429 1116.5,-546.6429 1116.5,-523.6429 947.5,-523.6429"/>
<polygon fill="none" stroke="#000000" points="947.5,-523.6429 947.5,-546.6429 1116.5,-546.6429 1116.5,-523.6429 947.5,-523.6429"/>
<text text-anchor="start" x="952.2484" y="-532.7429" font-family="Helvetica,sans-Serif" font-weight="bold" font-size="11.00" fill="#000000">TARGET_FORMS_TAGS</text>
<text text-anchor="start" x="1082.0219" y="-531.7429" font-family="Helvetica,sans-Serif" font-size="11.00" fill="#000000">[table]</text>
<polygon fill="none" stroke="#000000" points="947.5,-504.6429 947.5,-523.6429 1116.5,-523.6429 1116.5,-504.6429 947.5,-504.6429"/>
<text text-anchor="start" x="950.5" y="-510.7429" font-family="Helvetica,sans-Serif" font-size="11.00" fill="#000000">...</text>
<polygon fill="#ffffff" stroke="transparent" points="947.5,-485.6429 947.5,-504.6429 1017.5,-504.6429 1017.5,-485.6429 947.5,-485.6429"/>
<polygon fill="none" stroke="#000000" points="947.5,-485.6429 947.5,-504.6429 1017.5,-504.6429 1017.5,-485.6429 947.5,-485.6429"/>
<text text-anchor="start" x="950.5" y="-491.7429" font-family="Helvetica,sans-Serif" font-size="11.00" fill="#000000">&lt; 2</text>
<polygon fill="#ffffff" stroke="transparent" points="1017.5,-485.6429 1017.5,-504.6429 1079.5,-504.6429 1079.5,-485.6429 1017.5,-485.6429"/>
<polygon fill="none" stroke="#000000" points="1017.5,-485.6429 1017.5,-504.6429 1079.5,-504.6429 1079.5,-485.6429 1017.5,-485.6429"/>
<text text-anchor="start" x="1044.1105" y="-491.7429" font-family="Helvetica,sans-Serif" font-size="11.00" fill="#000000">8 rows</text>
<polygon fill="#ffffff" stroke="transparent" points="1079.5,-485.6429 1079.5,-504.6429 1116.5,-504.6429 1116.5,-485.6429 1079.5,-485.6429"/>
<polygon fill="none" stroke="#000000" points="1079.5,-485.6429 1079.5,-504.6429 1116.5,-504.6429 1116.5,-485.6429 1079.5,-485.6429"/>
<text text-anchor="start" x="1107.3862" y="-491.7429" font-family="Helvetica,sans-Serif" font-size="11.00" fill="#000000"> &#160;</text>
</a>
</g>
</g>
<!-- TARGET_FORMS_TAGS&#45;&gt;TARGET_FORMS -->
<g id="edge32" class="edge">
<title>TARGET_FORMS_TAGS:w&#45;&gt;TARGET_FORMS:e</title>
<path fill="none" stroke="#000000" d="M932.9283,-513.5683C877.7626,-513.0955 847.0646,-511.858 809,-557.6429 762.4714,-613.6085 841.2808,-882.6429 768.5,-882.6429"/>
<polygon fill="#000000" stroke="#000000" points="939.5001,-513.6019 947.4815,-517.2429 943.5001,-513.6224 947.5,-513.6429 947.5,-513.6429 947.5,-513.6429 943.5001,-513.6224 947.5185,-510.043 939.5001,-513.6019 939.5001,-513.6019"/>
<ellipse fill="none" stroke="#000000" cx="936.3001" cy="-513.5855" rx="3.2" ry="3.2"/>
</g>
<!-- TRACER_SYNTHESIS_REQUESTS -->
<g id="node26" class="node">
<title>TRACER_SYNTHESIS_REQUESTS</title>
<g id="a_node26"><a xlink:href="../../tables/TRACER_SYNTHESIS_REQUESTS.html" xlink:title="TRACER_SYNTHESIS_REQUESTS" target="_top">
<polygon fill="#ffffff" stroke="transparent" points="920,-76.1429 920,-137.1429 1143,-137.1429 1143,-76.1429 920,-76.1429"/>
<polygon fill="#f5f5f5" stroke="transparent" points="920.5,-113.6429 920.5,-136.6429 1143.5,-136.6429 1143.5,-113.6429 920.5,-113.6429"/>
<polygon fill="none" stroke="#000000" points="920.5,-113.6429 920.5,-136.6429 1143.5,-136.6429 1143.5,-113.6429 920.5,-113.6429"/>
<text text-anchor="start" x="925.3578" y="-122.7429" font-family="Helvetica,sans-Serif" font-weight="bold" font-size="11.00" fill="#000000">TRACER_SYNTHESIS_REQUESTS</text>
<text text-anchor="start" x="1109.0219" y="-121.7429" font-family="Helvetica,sans-Serif" font-size="11.00" fill="#000000">[table]</text>
<polygon fill="none" stroke="#000000" points="920.5,-94.6429 920.5,-113.6429 1143.5,-113.6429 1143.5,-94.6429 920.5,-94.6429"/>
<text text-anchor="start" x="923.5" y="-100.7429" font-family="Helvetica,sans-Serif" font-size="11.00" fill="#000000">...</text>
<polygon fill="#ffffff" stroke="transparent" points="920.5,-75.6429 920.5,-94.6429 1012.5,-94.6429 1012.5,-75.6429 920.5,-75.6429"/>
<polygon fill="none" stroke="#000000" points="920.5,-75.6429 920.5,-94.6429 1012.5,-94.6429 1012.5,-75.6429 920.5,-75.6429"/>
<text text-anchor="start" x="923.5" y="-81.7429" font-family="Helvetica,sans-Serif" font-size="11.00" fill="#000000">&lt; 12</text>
<polygon fill="#ffffff" stroke="transparent" points="1012.5,-75.6429 1012.5,-94.6429 1089.5,-94.6429 1089.5,-75.6429 1012.5,-75.6429"/>
<polygon fill="none" stroke="#000000" points="1012.5,-75.6429 1012.5,-94.6429 1089.5,-94.6429 1089.5,-75.6429 1012.5,-75.6429"/>
<text text-anchor="start" x="1047.9956" y="-81.7429" font-family="Helvetica,sans-Serif" font-size="11.00" fill="#000000">21 rows</text>
<polygon fill="#ffffff" stroke="transparent" points="1089.5,-75.6429 1089.5,-94.6429 1143.5,-94.6429 1143.5,-75.6429 1089.5,-75.6429"/>
<polygon fill="none" stroke="#000000" points="1089.5,-75.6429 1089.5,-94.6429 1143.5,-94.6429 1143.5,-75.6429 1089.5,-75.6429"/>
<text text-anchor="start" x="1124.9053" y="-81.7429" font-family="Helvetica,sans-Serif" font-size="11.00" fill="#000000">2 &gt;</text>
</a>
</g>
</g>
<!-- TRACER_SYNTHESIS_REQUESTS&#45;&gt;TARGET_FORMS -->
<g id="edge33" class="edge">
<title>TRACER_SYNTHESIS_REQUESTS:w&#45;&gt;TARGET_FORMS:e</title>
<path fill="none" stroke="#000000" d="M905.8982,-103.7013C862.0093,-104.1837 837.1873,-108.5738 809,-147.6429 761.1451,-213.9724 850.2906,-882.6429 768.5,-882.6429"/>
<polygon fill="#000000" stroke="#000000" points="912.5001,-103.675 920.5144,-107.2429 916.5,-103.6589 920.5,-103.6429 920.5,-103.6429 920.5,-103.6429 916.5,-103.6589 920.4856,-100.043 912.5001,-103.675 912.5001,-103.675"/>
<ellipse fill="none" stroke="#000000" cx="909.3001" cy="-103.6878" rx="3.2" ry="3.2"/>
</g>
<!-- TRACER_SYNTHESIS_REQUESTS&#45;&gt;TARGETS -->
<g id="edge34" class="edge">
<title>TRACER_SYNTHESIS_REQUESTS:w&#45;&gt;TARGETS:e</title>
<path fill="none" stroke="#000000" d="M905.9932,-104.1197C864.49,-107.0374 850.3766,-123.1708 809,-147.6429 480.0024,-342.2279 437.753,-448.5191 147,-696.6429 128.554,-712.3844 130.2497,-732.6429 106,-732.6429"/>
<polygon fill="#000000" stroke="#000000" points="912.5043,-103.9058 920.6183,-107.241 916.5022,-103.7743 920.5,-103.6429 920.5,-103.6429 920.5,-103.6429 916.5022,-103.7743 920.3817,-100.0449 912.5043,-103.9058 912.5043,-103.9058"/>
<ellipse fill="none" stroke="#000000" cx="909.306" cy="-104.0109" rx="3.2" ry="3.2"/>
</g>
</g>
</svg>
