<?xml version="1.0" encoding="UTF-8" standalone="no"?>
<!DOCTYPE svg PUBLIC "-//W3C//DTD SVG 1.1//EN"
 "http://www.w3.org/Graphics/SVG/1.1/DTD/svg11.dtd">
<!-- Generated by graphviz version 2.40.1 (20161225.0304)
 -->
<!-- Title: twoDegreesRelationshipsDiagram Pages: 1 -->
<svg width="529pt" height="333pt"
 viewBox="0.00 0.00 529.00 332.70" xmlns="http://www.w3.org/2000/svg" xmlns:xlink="http://www.w3.org/1999/xlink">
<g id="graph0" class="graph" transform="scale(1 1) rotate(0) translate(4 328.7)">
<title>twoDegreesRelationshipsDiagram</title>
<polygon fill="#ffffff" stroke="transparent" points="-4,4 -4,-328.7 525,-328.7 525,4 -4,4"/>
<text text-anchor="middle" x="72.4936" y="-7.3" font-family="Helvetica,sans-Serif" font-size="11.00" fill="#000000">Generated by SchemaSpy</text>
<!-- TARGETS_CAMPAIGNS -->
<g id="node1" class="node">
<title>TARGETS_CAMPAIGNS</title>
<g id="a_node1"><a xlink:href="../../tables/TARGETS_CAMPAIGNS.html" xlink:title="TARGETS_CAMPAIGNS" target="_top">
<polygon fill="#ffffff" stroke="transparent" points="169,-120.7 169,-320.7 513,-320.7 513,-120.7 169,-120.7"/>
<polygon fill="#f5f5f5" stroke="transparent" points="171,-295.7 171,-318.7 511,-318.7 511,-295.7 171,-295.7"/>
<polygon fill="none" stroke="#000000" points="171,-295.7 171,-318.7 511,-318.7 511,-295.7 171,-295.7"/>
<text text-anchor="start" x="176" y="-304.8" font-family="Helvetica,sans-Serif" font-weight="bold" font-size="11.00" fill="#000000">TARGETS_CAMPAIGNS</text>
<text text-anchor="start" x="476.0437" y="-303.8" font-family="Helvetica,sans-Serif" font-size="11.00" fill="#000000">[table]</text>
<polygon fill="none" stroke="#000000" points="171,-273.7 171,-295.7 340,-295.7 340,-273.7 171,-273.7"/>
<image xlink:href="../../images/primaryKeys.png" width="11px" height="12px" preserveAspectRatio="xMinYMin meet" x="176" y="-290.7"/>
<text text-anchor="start" x="191" y="-280.8" font-family="Helvetica,sans-Serif" font-size="11.00" fill="#000000">ID</text>
<polygon fill="none" stroke="#000000" points="340,-273.7 340,-295.7 511,-295.7 511,-273.7 340,-273.7"/>
<text text-anchor="start" x="343" y="-281.4" font-family="Helvetica,sans-Serif" font-size="11.00" fill="#000000">number[19]</text>
<polygon fill="none" stroke="#000000" points="171,-251.7 171,-273.7 340,-273.7 340,-251.7 171,-251.7"/>
<text text-anchor="start" x="191" y="-258.8" font-family="Helvetica,sans-Serif" font-size="11.00" fill="#000000">CREATED_AT</text>
<polygon fill="none" stroke="#000000" points="340,-251.7 340,-273.7 511,-273.7 511,-251.7 340,-251.7"/>
<text text-anchor="start" x="342.9896" y="-259.4" font-family="Helvetica,sans-Serif" font-size="11.00" fill="#000000">timestamp(6) with time zone[13,6]</text>
<polygon fill="none" stroke="#000000" points="171,-229.7 171,-251.7 340,-251.7 340,-229.7 171,-229.7"/>
<text text-anchor="start" x="191" y="-236.8" font-family="Helvetica,sans-Serif" font-size="11.00" fill="#000000">CREATED_BY</text>
<polygon fill="none" stroke="#000000" points="340,-229.7 340,-251.7 511,-251.7 511,-229.7 340,-229.7"/>
<text text-anchor="start" x="343" y="-237.4" font-family="Helvetica,sans-Serif" font-size="11.00" fill="#000000">number[19]</text>
<polygon fill="none" stroke="#000000" points="171,-207.7 171,-229.7 340,-229.7 340,-207.7 171,-207.7"/>
<text text-anchor="start" x="191" y="-214.8" font-family="Helvetica,sans-Serif" font-size="11.00" fill="#000000">UPDATED_AT</text>
<polygon fill="none" stroke="#000000" points="340,-207.7 340,-229.7 511,-229.7 511,-207.7 340,-207.7"/>
<text text-anchor="start" x="342.9896" y="-215.4" font-family="Helvetica,sans-Serif" font-size="11.00" fill="#000000">timestamp(6) with time zone[13,6]</text>
<polygon fill="none" stroke="#000000" points="171,-185.7 171,-207.7 340,-207.7 340,-185.7 171,-185.7"/>
<text text-anchor="start" x="191" y="-192.8" font-family="Helvetica,sans-Serif" font-size="11.00" fill="#000000">UPDATED_BY</text>
<polygon fill="none" stroke="#000000" points="340,-185.7 340,-207.7 511,-207.7 511,-185.7 340,-185.7"/>
<text text-anchor="start" x="343" y="-193.4" font-family="Helvetica,sans-Serif" font-size="11.00" fill="#000000">number[19]</text>
<polygon fill="none" stroke="#000000" points="171,-163.7 171,-185.7 340,-185.7 340,-163.7 171,-163.7"/>
<text text-anchor="start" x="191" y="-170.8" font-family="Helvetica,sans-Serif" font-size="11.00" fill="#000000">TARGET_ID</text>
<polygon fill="none" stroke="#000000" points="340,-163.7 340,-185.7 511,-185.7 511,-163.7 340,-163.7"/>
<text text-anchor="start" x="343" y="-171.4" font-family="Helvetica,sans-Serif" font-size="11.00" fill="#000000">number[19]</text>
<polygon fill="none" stroke="#000000" points="171,-141.7 171,-163.7 340,-163.7 340,-141.7 171,-141.7"/>
<image xlink:href="../../images/foreignKeys.png" width="11px" height="12px" preserveAspectRatio="xMinYMin meet" x="176" y="-158.7"/>
<text text-anchor="start" x="191" y="-148.8" font-family="Helvetica,sans-Serif" font-size="11.00" fill="#000000">CAMPAIGN_ID</text>
<polygon fill="none" stroke="#000000" points="340,-141.7 340,-163.7 511,-163.7 511,-141.7 340,-141.7"/>
<text text-anchor="start" x="343" y="-149.4" font-family="Helvetica,sans-Serif" font-size="11.00" fill="#000000">number[19]</text>
<polygon fill="#ffffff" stroke="transparent" points="171,-122.7 171,-141.7 244,-141.7 244,-122.7 171,-122.7"/>
<polygon fill="none" stroke="#000000" points="171,-122.7 171,-141.7 244,-141.7 244,-122.7 171,-122.7"/>
<text text-anchor="start" x="174" y="-128.8" font-family="Helvetica,sans-Serif" font-size="11.00" fill="#000000">&lt; 1</text>
<polygon fill="#ffffff" stroke="transparent" points="244,-122.7 244,-141.7 340,-141.7 340,-122.7 244,-122.7"/>
<polygon fill="none" stroke="#000000" points="244,-122.7 244,-141.7 340,-141.7 340,-122.7 244,-122.7"/>
<text text-anchor="start" x="298.4956" y="-128.8" font-family="Helvetica,sans-Serif" font-size="11.00" fill="#000000">81 rows</text>
<polygon fill="#ffffff" stroke="transparent" points="340,-122.7 340,-141.7 511,-141.7 511,-122.7 340,-122.7"/>
<polygon fill="none" stroke="#000000" points="340,-122.7 340,-141.7 511,-141.7 511,-122.7 340,-122.7"/>
<text text-anchor="start" x="492.4053" y="-128.8" font-family="Helvetica,sans-Serif" font-size="11.00" fill="#000000">0 &gt;</text>
<polygon fill="none" stroke="#000000" stroke-width="2" points="170,-121.7 170,-319.7 512,-319.7 512,-121.7 170,-121.7"/>
</a>
</g>
</g>
<!-- CAMPAIGNS -->
<g id="node2" class="node">
<title>CAMPAIGNS</title>
<g id="a_node2"><a xlink:href="../../tables/CAMPAIGNS.html" xlink:title="CAMPAIGNS" target="_top">
<polygon fill="#ffffff" stroke="transparent" points="8,-60.2 8,-143.2 120,-143.2 120,-60.2 8,-60.2"/>
<polygon fill="#f5f5f5" stroke="transparent" points="8,-119.7 8,-142.7 120,-142.7 120,-119.7 8,-119.7"/>
<polygon fill="none" stroke="#000000" points="8,-119.7 8,-142.7 120,-142.7 120,-119.7 8,-119.7"/>
<text text-anchor="start" x="13" y="-128.8" font-family="Helvetica,sans-Serif" font-weight="bold" font-size="11.00" fill="#000000">CAMPAIGNS</text>
<text text-anchor="start" x="85.0437" y="-127.8" font-family="Helvetica,sans-Serif" font-size="11.00" fill="#000000">[table]</text>
<polygon fill="none" stroke="#000000" points="8,-97.7 8,-119.7 120,-119.7 120,-97.7 8,-97.7"/>
<image xlink:href="../../images/primaryKeys.png" width="11px" height="12px" preserveAspectRatio="xMinYMin meet" x="13" y="-114.7"/>
<text text-anchor="start" x="28" y="-104.8" font-family="Helvetica,sans-Serif" font-size="11.00" fill="#000000">ID</text>
<polygon fill="none" stroke="#000000" points="8,-78.7 8,-97.7 120,-97.7 120,-78.7 8,-78.7"/>
<text text-anchor="start" x="11" y="-84.8" font-family="Helvetica,sans-Serif" font-size="11.00" fill="#000000">...</text>
<polygon fill="#ffffff" stroke="transparent" points="8,-59.7 8,-78.7 37,-78.7 37,-59.7 8,-59.7"/>
<polygon fill="none" stroke="#000000" points="8,-59.7 8,-78.7 37,-78.7 37,-59.7 8,-59.7"/>
<text text-anchor="start" x="11" y="-65.8" font-family="Helvetica,sans-Serif" font-size="11.00" fill="#000000"> &#160;</text>
<polygon fill="#ffffff" stroke="transparent" points="37,-59.7 37,-78.7 90,-78.7 90,-59.7 37,-59.7"/>
<polygon fill="none" stroke="#000000" points="37,-59.7 37,-78.7 90,-78.7 90,-59.7 37,-59.7"/>
<text text-anchor="start" x="48.4956" y="-65.8" font-family="Helvetica,sans-Serif" font-size="11.00" fill="#000000">86 rows</text>
<polygon fill="#ffffff" stroke="transparent" points="90,-59.7 90,-78.7 120,-78.7 120,-59.7 90,-59.7"/>
<polygon fill="none" stroke="#000000" points="90,-59.7 90,-78.7 120,-78.7 120,-59.7 90,-59.7"/>
<text text-anchor="start" x="101.4053" y="-65.8" font-family="Helvetica,sans-Serif" font-size="11.00" fill="#000000">2 &gt;</text>
</a>
</g>
</g>
<!-- TARGETS_CAMPAIGNS&#45;&gt;CAMPAIGNS -->
<g id="edge1" class="edge">
<title>TARGETS_CAMPAIGNS:w&#45;&gt;CAMPAIGNS:e</title>
<path fill="none" stroke="#000000" d="M156.9107,-147.9912C143.0669,-136.6404 143.8557,-108.7 120,-108.7"/>
<polygon fill="#000000" stroke="#000000" points="163.4125,-150.1642 169.8589,-156.1144 167.2063,-151.4321 171,-152.7 171,-152.7 171,-152.7 167.2063,-151.4321 172.1411,-149.2856 163.4125,-150.1642 163.4125,-150.1642"/>
<ellipse fill="none" stroke="#000000" cx="160.3775" cy="-149.1498" rx="3.2" ry="3.2"/>
</g>
<!-- VERSIONS -->
<g id="node3" class="node">
<title>VERSIONS</title>
<g id="a_node3"><a xlink:href="../../tables/VERSIONS.html" xlink:title="VERSIONS" target="_top">
<polygon fill="#ffffff" stroke="transparent" points="291.5,-38.2 291.5,-99.2 390.5,-99.2 390.5,-38.2 291.5,-38.2"/>
<polygon fill="#f5f5f5" stroke="transparent" points="292,-75.7 292,-98.7 391,-98.7 391,-75.7 292,-75.7"/>
<polygon fill="none" stroke="#000000" points="292,-75.7 292,-98.7 391,-98.7 391,-75.7 292,-75.7"/>
<text text-anchor="start" x="296.5804" y="-84.8" font-family="Helvetica,sans-Serif" font-weight="bold" font-size="11.00" fill="#000000">VERSIONS</text>
<text text-anchor="start" x="356.5219" y="-83.8" font-family="Helvetica,sans-Serif" font-size="11.00" fill="#000000">[table]</text>
<polygon fill="none" stroke="#000000" points="292,-56.7 292,-75.7 391,-75.7 391,-56.7 292,-56.7"/>
<text text-anchor="start" x="295" y="-62.8" font-family="Helvetica,sans-Serif" font-size="11.00" fill="#000000">...</text>
<polygon fill="#ffffff" stroke="transparent" points="292,-37.7 292,-56.7 316,-56.7 316,-37.7 292,-37.7"/>
<polygon fill="none" stroke="#000000" points="292,-37.7 292,-56.7 316,-56.7 316,-37.7 292,-37.7"/>
<text text-anchor="start" x="295" y="-43.8" font-family="Helvetica,sans-Serif" font-size="11.00" fill="#000000">&lt; 1</text>
<polygon fill="#ffffff" stroke="transparent" points="316,-37.7 316,-56.7 368,-56.7 368,-37.7 316,-37.7"/>
<polygon fill="none" stroke="#000000" points="316,-37.7 316,-56.7 368,-56.7 368,-37.7 316,-37.7"/>
<text text-anchor="start" x="320.3807" y="-43.8" font-family="Helvetica,sans-Serif" font-size="11.00" fill="#000000">222 rows</text>
<polygon fill="#ffffff" stroke="transparent" points="368,-37.7 368,-56.7 391,-56.7 391,-37.7 368,-37.7"/>
<polygon fill="none" stroke="#000000" points="368,-37.7 368,-56.7 391,-56.7 391,-37.7 368,-37.7"/>
<text text-anchor="start" x="372.4053" y="-43.8" font-family="Helvetica,sans-Serif" font-size="11.00" fill="#000000">4 &gt;</text>
</a>
</g>
</g>
<!-- VERSIONS&#45;&gt;CAMPAIGNS -->
<g id="edge2" class="edge">
<title>VERSIONS:w&#45;&gt;CAMPAIGNS:e</title>
<path fill="none" stroke="#000000" d="M277.5318,-66.2129C211.0784,-71.0643 193.7184,-108.7 120,-108.7"/>
<polygon fill="#000000" stroke="#000000" points="284.005,-65.9835 292.1276,-69.2977 288.0025,-65.8417 292,-65.7 292,-65.7 292,-65.7 288.0025,-65.8417 291.8724,-62.1023 284.005,-65.9835 284.005,-65.9835"/>
<ellipse fill="none" stroke="#000000" cx="280.807" cy="-66.0968" rx="3.2" ry="3.2"/>
</g>
</g>
</svg>
