<?xml version="1.0" encoding="UTF-8" standalone="no"?>
<!DOCTYPE svg PUBLIC "-//W3C//DTD SVG 1.1//EN"
 "http://www.w3.org/Graphics/SVG/1.1/DTD/svg11.dtd">
<!-- Generated by graphviz version 2.40.1 (20161225.0304)
 -->
<!-- Title: twoDegreesRelationshipsDiagram Pages: 1 -->
<svg width="1603pt" height="1524pt"
 viewBox="0.00 0.00 1603.00 1523.96" xmlns="http://www.w3.org/2000/svg" xmlns:xlink="http://www.w3.org/1999/xlink">
<g id="graph0" class="graph" transform="scale(1 1) rotate(0) translate(4 1519.9569)">
<title>twoDegreesRelationshipsDiagram</title>
<polygon fill="#ffffff" stroke="transparent" points="-4,4 -4,-1519.9569 1599,-1519.9569 1599,4 -4,4"/>
<text text-anchor="middle" x="72.4936" y="-7.3" font-family="Helvetica,sans-Serif" font-size="11.00" fill="#000000">Generated by SchemaSpy</text>
<!-- CLONE_FORMS -->
<g id="node1" class="node">
<title>CLONE_FORMS</title>
<g id="a_node1"><a xlink:href="../../tables/CLONE_FORMS.html" xlink:title="CLONE_FORMS" target="_top">
<polygon fill="#ffffff" stroke="transparent" points="909.5,-1450.9569 909.5,-1511.9569 1035.5,-1511.9569 1035.5,-1450.9569 909.5,-1450.9569"/>
<polygon fill="#f5f5f5" stroke="transparent" points="909.5,-1488.4569 909.5,-1511.4569 1035.5,-1511.4569 1035.5,-1488.4569 909.5,-1488.4569"/>
<polygon fill="none" stroke="#000000" points="909.5,-1488.4569 909.5,-1511.4569 1035.5,-1511.4569 1035.5,-1488.4569 909.5,-1488.4569"/>
<text text-anchor="start" x="914.1401" y="-1497.5569" font-family="Helvetica,sans-Serif" font-weight="bold" font-size="11.00" fill="#000000">CLONE_FORMS</text>
<text text-anchor="start" x="1001.0219" y="-1496.5569" font-family="Helvetica,sans-Serif" font-size="11.00" fill="#000000">[table]</text>
<polygon fill="none" stroke="#000000" points="909.5,-1469.4569 909.5,-1488.4569 1035.5,-1488.4569 1035.5,-1469.4569 909.5,-1469.4569"/>
<text text-anchor="start" x="912.5" y="-1475.5569" font-family="Helvetica,sans-Serif" font-size="11.00" fill="#000000">...</text>
<polygon fill="#ffffff" stroke="transparent" points="909.5,-1450.4569 909.5,-1469.4569 944.5,-1469.4569 944.5,-1450.4569 909.5,-1450.4569"/>
<polygon fill="none" stroke="#000000" points="909.5,-1450.4569 909.5,-1469.4569 944.5,-1469.4569 944.5,-1450.4569 909.5,-1450.4569"/>
<text text-anchor="start" x="912.5" y="-1456.5569" font-family="Helvetica,sans-Serif" font-size="11.00" fill="#000000">&lt; 4</text>
<polygon fill="#ffffff" stroke="transparent" points="944.5,-1450.4569 944.5,-1469.4569 1001.5,-1469.4569 1001.5,-1450.4569 944.5,-1450.4569"/>
<polygon fill="none" stroke="#000000" points="944.5,-1450.4569 944.5,-1469.4569 1001.5,-1469.4569 1001.5,-1450.4569 944.5,-1450.4569"/>
<text text-anchor="start" x="953.8807" y="-1456.5569" font-family="Helvetica,sans-Serif" font-size="11.00" fill="#000000">467 rows</text>
<polygon fill="#ffffff" stroke="transparent" points="1001.5,-1450.4569 1001.5,-1469.4569 1035.5,-1469.4569 1035.5,-1450.4569 1001.5,-1450.4569"/>
<polygon fill="none" stroke="#000000" points="1001.5,-1450.4569 1001.5,-1469.4569 1035.5,-1469.4569 1035.5,-1450.4569 1001.5,-1450.4569"/>
<text text-anchor="start" x="1010.7904" y="-1456.5569" font-family="Helvetica,sans-Serif" font-size="11.00" fill="#000000">14 &gt;</text>
</a>
</g>
</g>
<!-- ISOFORMS -->
<g id="node2" class="node">
<title>ISOFORMS</title>
<g id="a_node2"><a xlink:href="../../tables/ISOFORMS.html" xlink:title="ISOFORMS" target="_top">
<polygon fill="#ffffff" stroke="transparent" points="236,-680.9569 236,-741.9569 337,-741.9569 337,-680.9569 236,-680.9569"/>
<polygon fill="#f5f5f5" stroke="transparent" points="236.5,-718.4569 236.5,-741.4569 337.5,-741.4569 337.5,-718.4569 236.5,-718.4569"/>
<polygon fill="none" stroke="#000000" points="236.5,-718.4569 236.5,-741.4569 337.5,-741.4569 337.5,-718.4569 236.5,-718.4569"/>
<text text-anchor="start" x="241.1674" y="-727.5569" font-family="Helvetica,sans-Serif" font-weight="bold" font-size="11.00" fill="#000000">ISOFORMS</text>
<text text-anchor="start" x="303.0219" y="-726.5569" font-family="Helvetica,sans-Serif" font-size="11.00" fill="#000000">[table]</text>
<polygon fill="none" stroke="#000000" points="236.5,-699.4569 236.5,-718.4569 337.5,-718.4569 337.5,-699.4569 236.5,-699.4569"/>
<text text-anchor="start" x="239.5" y="-705.5569" font-family="Helvetica,sans-Serif" font-size="11.00" fill="#000000">...</text>
<polygon fill="#ffffff" stroke="transparent" points="236.5,-680.4569 236.5,-699.4569 258.5,-699.4569 258.5,-680.4569 236.5,-680.4569"/>
<polygon fill="none" stroke="#000000" points="236.5,-680.4569 236.5,-699.4569 258.5,-699.4569 258.5,-680.4569 236.5,-680.4569"/>
<text text-anchor="start" x="239.5" y="-686.5569" font-family="Helvetica,sans-Serif" font-size="11.00" fill="#000000">&lt; 1</text>
<polygon fill="#ffffff" stroke="transparent" points="258.5,-680.4569 258.5,-699.4569 309.5,-699.4569 309.5,-680.4569 258.5,-680.4569"/>
<polygon fill="none" stroke="#000000" points="258.5,-680.4569 258.5,-699.4569 309.5,-699.4569 309.5,-680.4569 258.5,-680.4569"/>
<text text-anchor="start" x="261.8807" y="-686.5569" font-family="Helvetica,sans-Serif" font-size="11.00" fill="#000000">519 rows</text>
<polygon fill="#ffffff" stroke="transparent" points="309.5,-680.4569 309.5,-699.4569 337.5,-699.4569 337.5,-680.4569 309.5,-680.4569"/>
<polygon fill="none" stroke="#000000" points="309.5,-680.4569 309.5,-699.4569 337.5,-699.4569 337.5,-680.4569 309.5,-680.4569"/>
<text text-anchor="start" x="312.7904" y="-686.5569" font-family="Helvetica,sans-Serif" font-size="11.00" fill="#000000">10 &gt;</text>
</a>
</g>
</g>
<!-- CLONE_FORMS&#45;&gt;ISOFORMS -->
<g id="edge1" class="edge">
<title>CLONE_FORMS:w&#45;&gt;ISOFORMS:e</title>
<path fill="none" stroke="#000000" d="M894.9155,-1478.4002C856.6459,-1477.9593 835.1704,-1474.0998 809,-1440.4569 729.0811,-1337.7184 833.1711,-1266.3914 776,-1149.4569 689.4457,-972.4237 596.4876,-980.6289 459,-839.4569 403.5965,-782.5686 416.9092,-708.4569 337.5,-708.4569"/>
<polygon fill="#000000" stroke="#000000" points="901.5001,-1478.4257 909.486,-1482.0568 905.5,-1478.4413 909.5,-1478.4569 909.5,-1478.4569 909.5,-1478.4569 905.5,-1478.4413 909.514,-1474.8569 901.5001,-1478.4257 901.5001,-1478.4257"/>
<ellipse fill="none" stroke="#000000" cx="898.3001" cy="-1478.4133" rx="3.2" ry="3.2"/>
</g>
<!-- POST_TRANSLATIONAL_MODIFICATIONS -->
<g id="node3" class="node">
<title>POST_TRANSLATIONAL_MODIFICATIONS</title>
<g id="a_node3"><a xlink:href="../../tables/POST_TRANSLATIONAL_MODIFICATIONS.html" xlink:title="POST_TRANSLATIONAL_MODIFICATIONS" target="_top">
<polygon fill="#ffffff" stroke="transparent" points="155,-909.9569 155,-970.9569 418,-970.9569 418,-909.9569 155,-909.9569"/>
<polygon fill="#f5f5f5" stroke="transparent" points="155.5,-947.4569 155.5,-970.4569 418.5,-970.4569 418.5,-947.4569 155.5,-947.4569"/>
<polygon fill="none" stroke="#000000" points="155.5,-947.4569 155.5,-970.4569 418.5,-970.4569 418.5,-947.4569 155.5,-947.4569"/>
<text text-anchor="start" x="160.4956" y="-956.5569" font-family="Helvetica,sans-Serif" font-weight="bold" font-size="11.00" fill="#000000">POST_TRANSLATIONAL_MODIFICATIONS</text>
<text text-anchor="start" x="384.0219" y="-955.5569" font-family="Helvetica,sans-Serif" font-size="11.00" fill="#000000">[table]</text>
<polygon fill="none" stroke="#000000" points="155.5,-928.4569 155.5,-947.4569 418.5,-947.4569 418.5,-928.4569 155.5,-928.4569"/>
<text text-anchor="start" x="158.5" y="-934.5569" font-family="Helvetica,sans-Serif" font-size="11.00" fill="#000000">...</text>
<polygon fill="#ffffff" stroke="transparent" points="155.5,-909.4569 155.5,-928.4569 263.5,-928.4569 263.5,-909.4569 155.5,-909.4569"/>
<polygon fill="none" stroke="#000000" points="155.5,-909.4569 155.5,-928.4569 263.5,-928.4569 263.5,-909.4569 155.5,-909.4569"/>
<text text-anchor="start" x="158.5" y="-915.5569" font-family="Helvetica,sans-Serif" font-size="11.00" fill="#000000"> &#160;</text>
<polygon fill="#ffffff" stroke="transparent" points="263.5,-909.4569 263.5,-928.4569 349.5,-928.4569 349.5,-909.4569 263.5,-909.4569"/>
<polygon fill="none" stroke="#000000" points="263.5,-909.4569 263.5,-928.4569 349.5,-928.4569 349.5,-909.4569 263.5,-909.4569"/>
<text text-anchor="start" x="314.1105" y="-915.5569" font-family="Helvetica,sans-Serif" font-size="11.00" fill="#000000">2 rows</text>
<polygon fill="#ffffff" stroke="transparent" points="349.5,-909.4569 349.5,-928.4569 418.5,-928.4569 418.5,-909.4569 349.5,-909.4569"/>
<polygon fill="none" stroke="#000000" points="349.5,-909.4569 349.5,-928.4569 418.5,-928.4569 418.5,-909.4569 349.5,-909.4569"/>
<text text-anchor="start" x="399.9053" y="-915.5569" font-family="Helvetica,sans-Serif" font-size="11.00" fill="#000000">2 &gt;</text>
</a>
</g>
</g>
<!-- CLONE_FORMS&#45;&gt;POST_TRANSLATIONAL_MODIFICATIONS -->
<g id="edge2" class="edge">
<title>CLONE_FORMS:w&#45;&gt;POST_TRANSLATIONAL_MODIFICATIONS:e</title>
<path fill="none" stroke="#000000" d="M894.7541,-1478.322C857.0975,-1477.4832 837.6076,-1471.9276 809,-1440.4569 771.5055,-1399.2098 810.6664,-1363.1078 776,-1319.4569 676.4448,-1194.0996 553.6812,-1277.5349 459,-1148.4569 402.5216,-1071.4604 513.9896,-937.4569 418.5,-937.4569"/>
<polygon fill="#000000" stroke="#000000" points="901.5003,-1478.3836 909.467,-1482.0567 905.5002,-1478.4202 909.5,-1478.4569 909.5,-1478.4569 909.5,-1478.4569 905.5002,-1478.4202 909.533,-1474.857 901.5003,-1478.3836 901.5003,-1478.3836"/>
<ellipse fill="none" stroke="#000000" cx="898.3005" cy="-1478.3543" rx="3.2" ry="3.2"/>
</g>
<!-- SPECIES -->
<g id="node4" class="node">
<title>SPECIES</title>
<g id="a_node4"><a xlink:href="../../tables/SPECIES.html" xlink:title="SPECIES" target="_top">
<polygon fill="#ffffff" stroke="transparent" points="241.5,-1219.9569 241.5,-1280.9569 331.5,-1280.9569 331.5,-1219.9569 241.5,-1219.9569"/>
<polygon fill="#f5f5f5" stroke="transparent" points="241.5,-1257.4569 241.5,-1280.4569 331.5,-1280.4569 331.5,-1257.4569 241.5,-1257.4569"/>
<polygon fill="none" stroke="#000000" points="241.5,-1257.4569 241.5,-1280.4569 331.5,-1280.4569 331.5,-1257.4569 241.5,-1257.4569"/>
<text text-anchor="start" x="246.1614" y="-1266.5569" font-family="Helvetica,sans-Serif" font-weight="bold" font-size="11.00" fill="#000000">SPECIES</text>
<text text-anchor="start" x="297.0219" y="-1265.5569" font-family="Helvetica,sans-Serif" font-size="11.00" fill="#000000">[table]</text>
<polygon fill="none" stroke="#000000" points="241.5,-1238.4569 241.5,-1257.4569 331.5,-1257.4569 331.5,-1238.4569 241.5,-1238.4569"/>
<text text-anchor="start" x="244.5" y="-1244.5569" font-family="Helvetica,sans-Serif" font-size="11.00" fill="#000000">...</text>
<polygon fill="#ffffff" stroke="transparent" points="241.5,-1219.4569 241.5,-1238.4569 262.5,-1238.4569 262.5,-1219.4569 241.5,-1219.4569"/>
<polygon fill="none" stroke="#000000" points="241.5,-1219.4569 241.5,-1238.4569 262.5,-1238.4569 262.5,-1219.4569 241.5,-1219.4569"/>
<text text-anchor="start" x="244.5" y="-1225.5569" font-family="Helvetica,sans-Serif" font-size="11.00" fill="#000000"> &#160;</text>
<polygon fill="#ffffff" stroke="transparent" points="262.5,-1219.4569 262.5,-1238.4569 305.5,-1238.4569 305.5,-1219.4569 262.5,-1219.4569"/>
<polygon fill="none" stroke="#000000" points="262.5,-1219.4569 262.5,-1238.4569 305.5,-1238.4569 305.5,-1219.4569 262.5,-1219.4569"/>
<text text-anchor="start" x="270.1105" y="-1225.5569" font-family="Helvetica,sans-Serif" font-size="11.00" fill="#000000">3 rows</text>
<polygon fill="#ffffff" stroke="transparent" points="305.5,-1219.4569 305.5,-1238.4569 331.5,-1238.4569 331.5,-1219.4569 305.5,-1219.4569"/>
<polygon fill="none" stroke="#000000" points="305.5,-1219.4569 305.5,-1238.4569 331.5,-1238.4569 331.5,-1219.4569 305.5,-1219.4569"/>
<text text-anchor="start" x="312.9053" y="-1225.5569" font-family="Helvetica,sans-Serif" font-size="11.00" fill="#000000">2 &gt;</text>
</a>
</g>
</g>
<!-- CLONE_FORMS&#45;&gt;SPECIES -->
<g id="edge3" class="edge">
<title>CLONE_FORMS:w&#45;&gt;SPECIES:e</title>
<path fill="none" stroke="#000000" d="M894.8332,-1478.3382C694.8605,-1475.0523 648.0636,-1403.9512 459,-1318.4569 399.9012,-1291.7324 396.3603,-1247.4569 331.5,-1247.4569"/>
<polygon fill="#000000" stroke="#000000" points="901.5003,-1478.3921 909.4709,-1482.0567 905.5001,-1478.4245 909.5,-1478.4569 909.5,-1478.4569 909.5,-1478.4569 905.5001,-1478.4245 909.5291,-1474.857 901.5003,-1478.3921 901.5003,-1478.3921"/>
<ellipse fill="none" stroke="#000000" cx="898.3004" cy="-1478.3662" rx="3.2" ry="3.2"/>
</g>
<!-- TARGET_FORMS -->
<g id="node5" class="node">
<title>TARGET_FORMS</title>
<g id="a_node5"><a xlink:href="../../tables/TARGET_FORMS.html" xlink:title="TARGET_FORMS" target="_top">
<polygon fill="#ffffff" stroke="transparent" points="467,-635.9569 467,-828.9569 768,-828.9569 768,-635.9569 467,-635.9569"/>
<polygon fill="#f5f5f5" stroke="transparent" points="467.5,-805.4569 467.5,-828.4569 768.5,-828.4569 768.5,-805.4569 467.5,-805.4569"/>
<polygon fill="none" stroke="#000000" points="467.5,-805.4569 467.5,-828.4569 768.5,-828.4569 768.5,-805.4569 467.5,-805.4569"/>
<text text-anchor="start" x="472.5" y="-814.5569" font-family="Helvetica,sans-Serif" font-weight="bold" font-size="11.00" fill="#000000">TARGET_FORMS</text>
<text text-anchor="start" x="733.5437" y="-813.5569" font-family="Helvetica,sans-Serif" font-size="11.00" fill="#000000">[table]</text>
<polygon fill="none" stroke="#000000" points="467.5,-783.4569 467.5,-805.4569 768.5,-805.4569 768.5,-783.4569 467.5,-783.4569"/>
<image xlink:href="../../images/primaryKeys.png" width="11px" height="12px" preserveAspectRatio="xMinYMin meet" x="472.5" y="-800.457"/>
<text text-anchor="start" x="487.5" y="-790.5569" font-family="Helvetica,sans-Serif" font-size="11.00" fill="#000000">ID</text>
<polygon fill="none" stroke="#000000" points="467.5,-761.4569 467.5,-783.4569 768.5,-783.4569 768.5,-761.4569 467.5,-761.4569"/>
<image xlink:href="../../images/foreignKeys.png" width="11px" height="12px" preserveAspectRatio="xMinYMin meet" x="472.5" y="-778.457"/>
<text text-anchor="start" x="487.5" y="-768.5569" font-family="Helvetica,sans-Serif" font-size="11.00" fill="#000000">TARGET_ID</text>
<polygon fill="none" stroke="#000000" points="467.5,-739.4569 467.5,-761.4569 768.5,-761.4569 768.5,-739.4569 467.5,-739.4569"/>
<image xlink:href="../../images/foreignKeys.png" width="11px" height="12px" preserveAspectRatio="xMinYMin meet" x="472.5" y="-756.457"/>
<text text-anchor="start" x="487.5" y="-746.5569" font-family="Helvetica,sans-Serif" font-size="11.00" fill="#000000">SPECIES_ID</text>
<polygon fill="none" stroke="#000000" points="467.5,-717.4569 467.5,-739.4569 768.5,-739.4569 768.5,-717.4569 467.5,-717.4569"/>
<image xlink:href="../../images/foreignKeys.png" width="11px" height="12px" preserveAspectRatio="xMinYMin meet" x="472.5" y="-734.457"/>
<text text-anchor="start" x="487.5" y="-724.5569" font-family="Helvetica,sans-Serif" font-size="11.00" fill="#000000">POST_TRANSLATIONAL_MODIFICATION_ID</text>
<polygon fill="none" stroke="#000000" points="467.5,-695.4569 467.5,-717.4569 768.5,-717.4569 768.5,-695.4569 467.5,-695.4569"/>
<image xlink:href="../../images/foreignKeys.png" width="11px" height="12px" preserveAspectRatio="xMinYMin meet" x="472.5" y="-712.457"/>
<text text-anchor="start" x="487.5" y="-702.5569" font-family="Helvetica,sans-Serif" font-size="11.00" fill="#000000">ISOFORM_ID</text>
<polygon fill="none" stroke="#000000" points="467.5,-673.4569 467.5,-695.4569 768.5,-695.4569 768.5,-673.4569 467.5,-673.4569"/>
<image xlink:href="../../images/foreignKeys.png" width="11px" height="12px" preserveAspectRatio="xMinYMin meet" x="472.5" y="-690.457"/>
<text text-anchor="start" x="487.5" y="-680.5569" font-family="Helvetica,sans-Serif" font-size="11.00" fill="#000000">EXPRESSION_SYSTEM_ID</text>
<polygon fill="none" stroke="#000000" points="467.5,-654.4569 467.5,-673.4569 768.5,-673.4569 768.5,-654.4569 467.5,-654.4569"/>
<text text-anchor="start" x="470.5" y="-660.5569" font-family="Helvetica,sans-Serif" font-size="11.00" fill="#000000">...</text>
<polygon fill="#ffffff" stroke="transparent" points="467.5,-635.4569 467.5,-654.4569 589.5,-654.4569 589.5,-635.4569 467.5,-635.4569"/>
<polygon fill="none" stroke="#000000" points="467.5,-635.4569 467.5,-654.4569 589.5,-654.4569 589.5,-635.4569 467.5,-635.4569"/>
<text text-anchor="start" x="470.5" y="-641.5569" font-family="Helvetica,sans-Serif" font-size="11.00" fill="#000000">&lt; 5</text>
<polygon fill="#ffffff" stroke="transparent" points="589.5,-635.4569 589.5,-654.4569 690.5,-654.4569 690.5,-635.4569 589.5,-635.4569"/>
<polygon fill="none" stroke="#000000" points="589.5,-635.4569 589.5,-654.4569 690.5,-654.4569 690.5,-635.4569 589.5,-635.4569"/>
<text text-anchor="start" x="642.8807" y="-641.5569" font-family="Helvetica,sans-Serif" font-size="11.00" fill="#000000">541 rows</text>
<polygon fill="#ffffff" stroke="transparent" points="690.5,-635.4569 690.5,-654.4569 768.5,-654.4569 768.5,-635.4569 690.5,-635.4569"/>
<polygon fill="none" stroke="#000000" points="690.5,-635.4569 690.5,-654.4569 768.5,-654.4569 768.5,-635.4569 690.5,-635.4569"/>
<text text-anchor="start" x="743.7904" y="-641.5569" font-family="Helvetica,sans-Serif" font-size="11.00" fill="#000000">18 &gt;</text>
</a>
</g>
</g>
<!-- CLONE_FORMS&#45;&gt;TARGET_FORMS -->
<g id="edge4" class="edge">
<title>CLONE_FORMS:w&#45;&gt;TARGET_FORMS:e</title>
<path fill="none" stroke="#000000" d="M894.8859,-1478.4227C856.4623,-1478.0984 834.316,-1474.7474 809,-1440.4569 766.2841,-1382.598 840.4187,-794.4569 768.5,-794.4569"/>
<polygon fill="#000000" stroke="#000000" points="901.5,-1478.4381 909.4915,-1482.0568 905.5,-1478.4475 909.5,-1478.4569 909.5,-1478.4569 909.5,-1478.4569 905.5,-1478.4475 909.5085,-1474.8569 901.5,-1478.4381 901.5,-1478.4381"/>
<ellipse fill="none" stroke="#000000" cx="898.3" cy="-1478.4306" rx="3.2" ry="3.2"/>
</g>
<!-- TARGETS -->
<g id="node9" class="node">
<title>TARGETS</title>
<g id="a_node9"><a xlink:href="../../tables/TARGETS.html" xlink:title="TARGETS" target="_top">
<polygon fill="#ffffff" stroke="transparent" points="8,-532.9569 8,-593.9569 106,-593.9569 106,-532.9569 8,-532.9569"/>
<polygon fill="#f5f5f5" stroke="transparent" points="8,-570.4569 8,-593.4569 106,-593.4569 106,-570.4569 8,-570.4569"/>
<polygon fill="none" stroke="#000000" points="8,-570.4569 8,-593.4569 106,-593.4569 106,-570.4569 8,-570.4569"/>
<text text-anchor="start" x="13" y="-579.5569" font-family="Helvetica,sans-Serif" font-weight="bold" font-size="11.00" fill="#000000">TARGETS</text>
<text text-anchor="start" x="71.0437" y="-578.5569" font-family="Helvetica,sans-Serif" font-size="11.00" fill="#000000">[table]</text>
<polygon fill="none" stroke="#000000" points="8,-551.4569 8,-570.4569 106,-570.4569 106,-551.4569 8,-551.4569"/>
<text text-anchor="start" x="11" y="-557.5569" font-family="Helvetica,sans-Serif" font-size="11.00" fill="#000000">...</text>
<polygon fill="#ffffff" stroke="transparent" points="8,-532.4569 8,-551.4569 29,-551.4569 29,-532.4569 8,-532.4569"/>
<polygon fill="none" stroke="#000000" points="8,-532.4569 8,-551.4569 29,-551.4569 29,-532.4569 8,-532.4569"/>
<text text-anchor="start" x="10.7027" y="-538.5569" font-family="Helvetica,sans-Serif" font-size="11.00" fill="#000000">&lt; 3</text>
<polygon fill="#ffffff" stroke="transparent" points="29,-532.4569 29,-551.4569 79,-551.4569 79,-532.4569 29,-532.4569"/>
<polygon fill="none" stroke="#000000" points="29,-532.4569 29,-551.4569 79,-551.4569 79,-532.4569 29,-532.4569"/>
<text text-anchor="start" x="31.6904" y="-538.5569" font-family="Helvetica,sans-Serif" font-size="11.00" fill="#000000">146 rows</text>
<polygon fill="#ffffff" stroke="transparent" points="79,-532.4569 79,-551.4569 106,-551.4569 106,-532.4569 79,-532.4569"/>
<polygon fill="none" stroke="#000000" points="79,-532.4569 79,-551.4569 106,-551.4569 106,-532.4569 79,-532.4569"/>
<text text-anchor="start" x="81.6452" y="-538.5569" font-family="Helvetica,sans-Serif" font-size="11.00" fill="#000000">10 &gt;</text>
</a>
</g>
</g>
<!-- ISOFORMS&#45;&gt;TARGETS -->
<g id="edge8" class="edge">
<title>ISOFORMS:w&#45;&gt;TARGETS:e</title>
<path fill="none" stroke="#000000" d="M221.9082,-708.1278C189.1117,-706.4593 173.2496,-697.9079 147,-670.4569 110.9415,-632.748 158.1744,-560.4569 106,-560.4569"/>
<polygon fill="#000000" stroke="#000000" points="228.502,-708.2764 236.4188,-712.0559 232.501,-708.3666 236.5,-708.4569 236.5,-708.4569 236.5,-708.4569 232.501,-708.3666 236.5812,-704.8578 228.502,-708.2764 228.502,-708.2764"/>
<ellipse fill="none" stroke="#000000" cx="225.3028" cy="-708.2042" rx="3.2" ry="3.2"/>
</g>
<!-- TARGET_FORMS&#45;&gt;ISOFORMS -->
<g id="edge15" class="edge">
<title>TARGET_FORMS:w&#45;&gt;ISOFORMS:e</title>
<path fill="none" stroke="#000000" d="M452.9122,-706.5024C406.7724,-706.8001 390.093,-708.4569 337.5,-708.4569"/>
<polygon fill="#000000" stroke="#000000" points="459.5,-706.4819 467.5113,-710.0568 463.5,-706.4694 467.5,-706.4569 467.5,-706.4569 467.5,-706.4569 463.5,-706.4694 467.4887,-702.8569 459.5,-706.4819 459.5,-706.4819"/>
<ellipse fill="none" stroke="#000000" cx="456.3001" cy="-706.4919" rx="3.2" ry="3.2"/>
</g>
<!-- TARGET_FORMS&#45;&gt;POST_TRANSLATIONAL_MODIFICATIONS -->
<g id="edge16" class="edge">
<title>TARGET_FORMS:w&#45;&gt;POST_TRANSLATIONAL_MODIFICATIONS:e</title>
<path fill="none" stroke="#000000" d="M453.077,-730.5254C387.8969,-752.2315 508.3173,-937.4569 418.5,-937.4569"/>
<polygon fill="#000000" stroke="#000000" points="459.581,-729.5926 468.0111,-732.0204 463.5405,-729.0248 467.5,-728.4569 467.5,-728.4569 467.5,-728.4569 463.5405,-729.0248 466.9889,-724.8933 459.581,-729.5926 459.581,-729.5926"/>
<ellipse fill="none" stroke="#000000" cx="456.4134" cy="-730.047" rx="3.2" ry="3.2"/>
</g>
<!-- TARGET_FORMS&#45;&gt;SPECIES -->
<g id="edge17" class="edge">
<title>TARGET_FORMS:w&#45;&gt;SPECIES:e</title>
<path fill="none" stroke="#000000" d="M453.8478,-755.7197C419.8421,-785.7967 438.0262,-936.1683 426,-981.4569 393.8001,-1102.7155 456.9611,-1247.4569 331.5,-1247.4569"/>
<polygon fill="#000000" stroke="#000000" points="460.0354,-753.3344 468.7949,-753.8159 463.7677,-751.8956 467.5,-750.4569 467.5,-750.4569 467.5,-750.4569 463.7677,-751.8956 466.2051,-747.0978 460.0354,-753.3344 460.0354,-753.3344"/>
<ellipse fill="none" stroke="#000000" cx="457.0496" cy="-754.4855" rx="3.2" ry="3.2"/>
</g>
<!-- TARGET_FORMS&#45;&gt;TARGETS -->
<g id="edge18" class="edge">
<title>TARGET_FORMS:w&#45;&gt;TARGETS:e</title>
<path fill="none" stroke="#000000" d="M452.7134,-772.7178C319.8322,-777.3966 251.3065,-842.3597 147,-752.4569 80.9053,-695.4892 193.2572,-560.4569 106,-560.4569"/>
<polygon fill="#000000" stroke="#000000" points="459.5012,-772.5981 467.5635,-776.0563 463.5006,-772.5275 467.5,-772.4569 467.5,-772.4569 467.5,-772.4569 463.5006,-772.5275 467.4365,-768.8574 459.5012,-772.5981 459.5012,-772.5981"/>
<ellipse fill="none" stroke="#000000" cx="456.3017" cy="-772.6545" rx="3.2" ry="3.2"/>
</g>
<!-- EXPRESSION_SYSTEMS -->
<g id="node13" class="node">
<title>EXPRESSION_SYSTEMS</title>
<g id="a_node13"><a xlink:href="../../tables/EXPRESSION_SYSTEMS.html" xlink:title="EXPRESSION_SYSTEMS" target="_top">
<polygon fill="#ffffff" stroke="transparent" points="200,-598.9569 200,-659.9569 373,-659.9569 373,-598.9569 200,-598.9569"/>
<polygon fill="#f5f5f5" stroke="transparent" points="200.5,-636.4569 200.5,-659.4569 373.5,-659.4569 373.5,-636.4569 200.5,-636.4569"/>
<polygon fill="none" stroke="#000000" points="200.5,-636.4569 200.5,-659.4569 373.5,-659.4569 373.5,-636.4569 200.5,-636.4569"/>
<text text-anchor="start" x="205.4064" y="-645.5569" font-family="Helvetica,sans-Serif" font-weight="bold" font-size="11.00" fill="#000000">EXPRESSION_SYSTEMS</text>
<text text-anchor="start" x="339.0219" y="-644.5569" font-family="Helvetica,sans-Serif" font-size="11.00" fill="#000000">[table]</text>
<polygon fill="none" stroke="#000000" points="200.5,-617.4569 200.5,-636.4569 373.5,-636.4569 373.5,-617.4569 200.5,-617.4569"/>
<text text-anchor="start" x="203.5" y="-623.5569" font-family="Helvetica,sans-Serif" font-size="11.00" fill="#000000">...</text>
<polygon fill="#ffffff" stroke="transparent" points="200.5,-598.4569 200.5,-617.4569 263.5,-617.4569 263.5,-598.4569 200.5,-598.4569"/>
<polygon fill="none" stroke="#000000" points="200.5,-598.4569 200.5,-617.4569 263.5,-617.4569 263.5,-598.4569 200.5,-598.4569"/>
<text text-anchor="start" x="203.5" y="-604.5569" font-family="Helvetica,sans-Serif" font-size="11.00" fill="#000000"> &#160;</text>
<polygon fill="#ffffff" stroke="transparent" points="263.5,-598.4569 263.5,-617.4569 326.5,-617.4569 326.5,-598.4569 263.5,-598.4569"/>
<polygon fill="none" stroke="#000000" points="263.5,-598.4569 263.5,-617.4569 326.5,-617.4569 326.5,-598.4569 263.5,-598.4569"/>
<text text-anchor="start" x="291.1105" y="-604.5569" font-family="Helvetica,sans-Serif" font-size="11.00" fill="#000000">3 rows</text>
<polygon fill="#ffffff" stroke="transparent" points="326.5,-598.4569 326.5,-617.4569 373.5,-617.4569 373.5,-598.4569 326.5,-598.4569"/>
<polygon fill="none" stroke="#000000" points="326.5,-598.4569 326.5,-617.4569 373.5,-617.4569 373.5,-598.4569 326.5,-598.4569"/>
<text text-anchor="start" x="354.9053" y="-604.5569" font-family="Helvetica,sans-Serif" font-size="11.00" fill="#000000">1 &gt;</text>
</a>
</g>
</g>
<!-- TARGET_FORMS&#45;&gt;EXPRESSION_SYSTEMS -->
<g id="edge14" class="edge">
<title>TARGET_FORMS:w&#45;&gt;EXPRESSION_SYSTEMS:e</title>
<path fill="none" stroke="#000000" d="M453.1646,-682.5271C418.6868,-672.4632 417.2212,-626.4569 373.5,-626.4569"/>
<polygon fill="#000000" stroke="#000000" points="459.5715,-683.3895 467.0197,-688.0247 463.5358,-683.9232 467.5,-684.4569 467.5,-684.4569 467.5,-684.4569 463.5358,-683.9232 467.9803,-680.889 459.5715,-683.3895 459.5715,-683.3895"/>
<ellipse fill="none" stroke="#000000" cx="456.4001" cy="-682.9626" rx="3.2" ry="3.2"/>
</g>
<!-- CLONE_FORMS_PROTEIN_TAGS -->
<g id="node6" class="node">
<title>CLONE_FORMS_PROTEIN_TAGS</title>
<g id="a_node6"><a xlink:href="../../tables/CLONE_FORMS_PROTEIN_TAGS.html" xlink:title="CLONE_FORMS_PROTEIN_TAGS" target="_top">
<polygon fill="#ffffff" stroke="transparent" points="1273.5,-1410.9569 1273.5,-1471.9569 1490.5,-1471.9569 1490.5,-1410.9569 1273.5,-1410.9569"/>
<polygon fill="#f5f5f5" stroke="transparent" points="1274,-1448.4569 1274,-1471.4569 1491,-1471.4569 1491,-1448.4569 1274,-1448.4569"/>
<polygon fill="none" stroke="#000000" points="1274,-1448.4569 1274,-1471.4569 1491,-1471.4569 1491,-1448.4569 1274,-1448.4569"/>
<text text-anchor="start" x="1278.6072" y="-1457.5569" font-family="Helvetica,sans-Serif" font-weight="bold" font-size="11.00" fill="#000000">CLONE_FORMS_PROTEIN_TAGS</text>
<text text-anchor="start" x="1456.5219" y="-1456.5569" font-family="Helvetica,sans-Serif" font-size="11.00" fill="#000000">[table]</text>
<polygon fill="none" stroke="#000000" points="1274,-1429.4569 1274,-1448.4569 1491,-1448.4569 1491,-1429.4569 1274,-1429.4569"/>
<text text-anchor="start" x="1277" y="-1435.5569" font-family="Helvetica,sans-Serif" font-size="11.00" fill="#000000">...</text>
<polygon fill="#ffffff" stroke="transparent" points="1274,-1410.4569 1274,-1429.4569 1365,-1429.4569 1365,-1410.4569 1274,-1410.4569"/>
<polygon fill="none" stroke="#000000" points="1274,-1410.4569 1274,-1429.4569 1365,-1429.4569 1365,-1410.4569 1274,-1410.4569"/>
<text text-anchor="start" x="1277" y="-1416.5569" font-family="Helvetica,sans-Serif" font-size="11.00" fill="#000000">&lt; 2</text>
<polygon fill="#ffffff" stroke="transparent" points="1365,-1410.4569 1365,-1429.4569 1444,-1429.4569 1444,-1410.4569 1365,-1410.4569"/>
<polygon fill="none" stroke="#000000" points="1365,-1410.4569 1365,-1429.4569 1444,-1429.4569 1444,-1410.4569 1365,-1410.4569"/>
<text text-anchor="start" x="1402.4956" y="-1416.5569" font-family="Helvetica,sans-Serif" font-size="11.00" fill="#000000">86 rows</text>
<polygon fill="#ffffff" stroke="transparent" points="1444,-1410.4569 1444,-1429.4569 1491,-1429.4569 1491,-1410.4569 1444,-1410.4569"/>
<polygon fill="none" stroke="#000000" points="1444,-1410.4569 1444,-1429.4569 1491,-1429.4569 1491,-1410.4569 1444,-1410.4569"/>
<text text-anchor="start" x="1481.8862" y="-1416.5569" font-family="Helvetica,sans-Serif" font-size="11.00" fill="#000000"> &#160;</text>
</a>
</g>
</g>
<!-- CLONE_FORMS_PROTEIN_TAGS&#45;&gt;CLONE_FORMS -->
<g id="edge5" class="edge">
<title>CLONE_FORMS_PROTEIN_TAGS:w&#45;&gt;CLONE_FORMS:e</title>
<path fill="none" stroke="#000000" d="M1259.4216,-1438.7123C1164.1283,-1442.119 1137.9423,-1478.4569 1035.5,-1478.4569"/>
<polygon fill="#000000" stroke="#000000" points="1266.0012,-1438.5971 1274.0631,-1442.0563 1270.0006,-1438.527 1274,-1438.4569 1274,-1438.4569 1274,-1438.4569 1270.0006,-1438.527 1273.9369,-1434.8574 1266.0012,-1438.5971 1266.0012,-1438.5971"/>
<ellipse fill="none" stroke="#000000" cx="1262.8017" cy="-1438.6531" rx="3.2" ry="3.2"/>
</g>
<!-- PROTEIN_PRODUCTION.PROTEIN_TAGS -->
<g id="node7" class="node">
<title>PROTEIN_PRODUCTION.PROTEIN_TAGS</title>
<g id="a_node7"><a xlink:title="PROTEIN_PRODUCTION.PROTEIN_TAGS">
<polygon fill="#ffffff" stroke="transparent" points="843,-1368.9569 843,-1429.9569 1102,-1429.9569 1102,-1368.9569 843,-1368.9569"/>
<polygon fill="#f5f5f5" stroke="transparent" points="843.5,-1406.4569 843.5,-1429.4569 1102.5,-1429.4569 1102.5,-1406.4569 843.5,-1406.4569"/>
<polygon fill="none" stroke="#000000" points="843.5,-1406.4569 843.5,-1429.4569 1102.5,-1429.4569 1102.5,-1406.4569 843.5,-1406.4569"/>
<text text-anchor="start" x="848.0296" y="-1415.5569" font-family="Helvetica,sans-Serif" font-weight="bold" font-size="11.00" fill="#000000">PROTEIN_PRODUCTION.PROTEIN_TAGS</text>
<text text-anchor="start" x="1068.0219" y="-1414.5569" font-family="Helvetica,sans-Serif" font-size="11.00" fill="#000000">[table]</text>
<polygon fill="none" stroke="#000000" points="843.5,-1387.4569 843.5,-1406.4569 1102.5,-1406.4569 1102.5,-1387.4569 843.5,-1387.4569"/>
<text text-anchor="start" x="846.5" y="-1393.5569" font-family="Helvetica,sans-Serif" font-size="11.00" fill="#000000">...</text>
<polygon fill="#ffffff" stroke="transparent" points="843.5,-1368.4569 843.5,-1387.4569 949.5,-1387.4569 949.5,-1368.4569 843.5,-1368.4569"/>
<polygon fill="none" stroke="#000000" points="843.5,-1368.4569 843.5,-1387.4569 949.5,-1387.4569 949.5,-1368.4569 843.5,-1368.4569"/>
<text text-anchor="start" x="846.5" y="-1374.5569" font-family="Helvetica,sans-Serif" font-size="11.00" fill="#000000"> &#160;</text>
<polygon fill="#ffffff" stroke="transparent" points="949.5,-1368.4569 949.5,-1387.4569 1034.5,-1387.4569 1034.5,-1368.4569 949.5,-1368.4569"/>
<polygon fill="none" stroke="#000000" points="949.5,-1368.4569 949.5,-1387.4569 1034.5,-1387.4569 1034.5,-1368.4569 949.5,-1368.4569"/>
<text text-anchor="start" x="999.1105" y="-1374.5569" font-family="Helvetica,sans-Serif" font-size="11.00" fill="#000000">0 rows</text>
<polygon fill="#ffffff" stroke="transparent" points="1034.5,-1368.4569 1034.5,-1387.4569 1102.5,-1387.4569 1102.5,-1368.4569 1034.5,-1368.4569"/>
<polygon fill="none" stroke="#000000" points="1034.5,-1368.4569 1034.5,-1387.4569 1102.5,-1387.4569 1102.5,-1368.4569 1034.5,-1368.4569"/>
<text text-anchor="start" x="1083.9053" y="-1374.5569" font-family="Helvetica,sans-Serif" font-size="11.00" fill="#000000">2 &gt;</text>
</a>
</g>
</g>
<!-- CLONE_FORMS_PROTEIN_TAGS&#45;&gt;PROTEIN_PRODUCTION.PROTEIN_TAGS -->
<g id="edge6" class="edge">
<title>CLONE_FORMS_PROTEIN_TAGS:w&#45;&gt;PROTEIN_PRODUCTION.PROTEIN_TAGS:e</title>
<path fill="none" stroke="#000000" d="M1259.3785,-1438.3105C1209.6599,-1437.3342 1156.7599,-1431.5963 1110.1044,-1424.8165"/>
<polygon fill="#000000" stroke="#000000" points="1266.0004,-1438.3767 1273.9639,-1442.0567 1270.0002,-1438.4168 1274,-1438.4569 1274,-1438.4569 1274,-1438.4569 1270.0002,-1438.4168 1274.0361,-1434.857 1266.0004,-1438.3767 1266.0004,-1438.3767"/>
<ellipse fill="none" stroke="#000000" cx="1262.8006" cy="-1438.3447" rx="3.2" ry="3.2"/>
</g>
<!-- IN_HOUSE_ASSAYS -->
<g id="node8" class="node">
<title>IN_HOUSE_ASSAYS</title>
<g id="a_node8"><a xlink:href="../../tables/IN_HOUSE_ASSAYS.html" xlink:title="IN_HOUSE_ASSAYS" target="_top">
<polygon fill="#ffffff" stroke="transparent" points="898,-164.9569 898,-225.9569 1047,-225.9569 1047,-164.9569 898,-164.9569"/>
<polygon fill="#f5f5f5" stroke="transparent" points="898.5,-202.4569 898.5,-225.4569 1047.5,-225.4569 1047.5,-202.4569 898.5,-202.4569"/>
<polygon fill="none" stroke="#000000" points="898.5,-202.4569 898.5,-225.4569 1047.5,-225.4569 1047.5,-202.4569 898.5,-202.4569"/>
<text text-anchor="start" x="903.3233" y="-211.5569" font-family="Helvetica,sans-Serif" font-weight="bold" font-size="11.00" fill="#000000">IN_HOUSE_ASSAYS</text>
<text text-anchor="start" x="1013.0219" y="-210.5569" font-family="Helvetica,sans-Serif" font-size="11.00" fill="#000000">[table]</text>
<polygon fill="none" stroke="#000000" points="898.5,-183.4569 898.5,-202.4569 1047.5,-202.4569 1047.5,-183.4569 898.5,-183.4569"/>
<text text-anchor="start" x="901.5" y="-189.5569" font-family="Helvetica,sans-Serif" font-size="11.00" fill="#000000">...</text>
<polygon fill="#ffffff" stroke="transparent" points="898.5,-164.4569 898.5,-183.4569 950.5,-183.4569 950.5,-164.4569 898.5,-164.4569"/>
<polygon fill="none" stroke="#000000" points="898.5,-164.4569 898.5,-183.4569 950.5,-183.4569 950.5,-164.4569 898.5,-164.4569"/>
<text text-anchor="start" x="901.5" y="-170.5569" font-family="Helvetica,sans-Serif" font-size="11.00" fill="#000000">&lt; 4</text>
<polygon fill="#ffffff" stroke="transparent" points="950.5,-164.4569 950.5,-183.4569 1010.5,-183.4569 1010.5,-164.4569 950.5,-164.4569"/>
<polygon fill="none" stroke="#000000" points="950.5,-164.4569 950.5,-183.4569 1010.5,-183.4569 1010.5,-164.4569 950.5,-164.4569"/>
<text text-anchor="start" x="968.9956" y="-170.5569" font-family="Helvetica,sans-Serif" font-size="11.00" fill="#000000">51 rows</text>
<polygon fill="#ffffff" stroke="transparent" points="1010.5,-164.4569 1010.5,-183.4569 1047.5,-183.4569 1047.5,-164.4569 1010.5,-164.4569"/>
<polygon fill="none" stroke="#000000" points="1010.5,-164.4569 1010.5,-183.4569 1047.5,-183.4569 1047.5,-164.4569 1010.5,-164.4569"/>
<text text-anchor="start" x="1028.9053" y="-170.5569" font-family="Helvetica,sans-Serif" font-size="11.00" fill="#000000">1 &gt;</text>
</a>
</g>
</g>
<!-- IN_HOUSE_ASSAYS&#45;&gt;TARGET_FORMS -->
<g id="edge7" class="edge">
<title>IN_HOUSE_ASSAYS:w&#45;&gt;TARGET_FORMS:e</title>
<path fill="none" stroke="#000000" d="M883.8572,-192.7912C849.3342,-194.5606 830.8735,-204.0108 809,-236.4569 774.2516,-288.001 830.6631,-794.4569 768.5,-794.4569"/>
<polygon fill="#000000" stroke="#000000" points="890.5021,-192.6396 898.5822,-196.0559 894.501,-192.5482 898.5,-192.4569 898.5,-192.4569 898.5,-192.4569 894.501,-192.5482 898.4178,-188.8578 890.5021,-192.6396 890.5021,-192.6396"/>
<ellipse fill="none" stroke="#000000" cx="887.3029" cy="-192.7126" rx="3.2" ry="3.2"/>
</g>
<!-- SCREENING_PLANS -->
<g id="node10" class="node">
<title>SCREENING_PLANS</title>
<g id="a_node10"><a xlink:href="../../tables/SCREENING_PLANS.html" xlink:title="SCREENING_PLANS" target="_top">
<polygon fill="#ffffff" stroke="transparent" points="1307,-386.9569 1307,-447.9569 1457,-447.9569 1457,-386.9569 1307,-386.9569"/>
<polygon fill="#f5f5f5" stroke="transparent" points="1307,-424.4569 1307,-447.4569 1457,-447.4569 1457,-424.4569 1307,-424.4569"/>
<polygon fill="none" stroke="#000000" points="1307,-424.4569 1307,-447.4569 1457,-447.4569 1457,-424.4569 1307,-424.4569"/>
<text text-anchor="start" x="1311.7182" y="-433.5569" font-family="Helvetica,sans-Serif" font-weight="bold" font-size="11.00" fill="#000000">SCREENING_PLANS</text>
<text text-anchor="start" x="1422.5219" y="-432.5569" font-family="Helvetica,sans-Serif" font-size="11.00" fill="#000000">[table]</text>
<polygon fill="none" stroke="#000000" points="1307,-405.4569 1307,-424.4569 1457,-424.4569 1457,-405.4569 1307,-405.4569"/>
<text text-anchor="start" x="1310" y="-411.5569" font-family="Helvetica,sans-Serif" font-size="11.00" fill="#000000">...</text>
<polygon fill="#ffffff" stroke="transparent" points="1307,-386.4569 1307,-405.4569 1357,-405.4569 1357,-386.4569 1307,-386.4569"/>
<polygon fill="none" stroke="#000000" points="1307,-386.4569 1307,-405.4569 1357,-405.4569 1357,-386.4569 1307,-386.4569"/>
<text text-anchor="start" x="1310" y="-392.5569" font-family="Helvetica,sans-Serif" font-size="11.00" fill="#000000">&lt; 3</text>
<polygon fill="#ffffff" stroke="transparent" points="1357,-386.4569 1357,-405.4569 1421,-405.4569 1421,-386.4569 1357,-386.4569"/>
<polygon fill="none" stroke="#000000" points="1357,-386.4569 1357,-405.4569 1421,-405.4569 1421,-386.4569 1357,-386.4569"/>
<text text-anchor="start" x="1373.3807" y="-392.5569" font-family="Helvetica,sans-Serif" font-size="11.00" fill="#000000">137 rows</text>
<polygon fill="#ffffff" stroke="transparent" points="1421,-386.4569 1421,-405.4569 1457,-405.4569 1457,-386.4569 1421,-386.4569"/>
<polygon fill="none" stroke="#000000" points="1421,-386.4569 1421,-405.4569 1457,-405.4569 1457,-386.4569 1421,-386.4569"/>
<text text-anchor="start" x="1438.4053" y="-392.5569" font-family="Helvetica,sans-Serif" font-size="11.00" fill="#000000">1 &gt;</text>
</a>
</g>
</g>
<!-- SCREENING_PLANS&#45;&gt;TARGET_FORMS -->
<g id="edge10" class="edge">
<title>SCREENING_PLANS:w&#45;&gt;TARGET_FORMS:e</title>
<path fill="none" stroke="#000000" d="M1292.4504,-414.1944C1202.074,-411.7189 847.131,-393.3347 809,-428.4569 748.8117,-483.8958 850.3298,-794.4569 768.5,-794.4569"/>
<polygon fill="#000000" stroke="#000000" points="1299.0013,-414.3125 1306.935,-418.0563 1303.0007,-414.3847 1307,-414.4569 1307,-414.4569 1307,-414.4569 1303.0007,-414.3847 1307.065,-410.8574 1299.0013,-414.3125 1299.0013,-414.3125"/>
<ellipse fill="none" stroke="#000000" cx="1295.8018" cy="-414.2548" rx="3.2" ry="3.2"/>
</g>
<!-- SCREENING_PLANS&#45;&gt;TARGETS -->
<g id="edge11" class="edge">
<title>SCREENING_PLANS:w&#45;&gt;TARGETS:e</title>
<path fill="none" stroke="#000000" d="M1292.411,-413.7737C1145.4834,-399.309 1276.1842,-159.0955 1136,-72.4569 1007.7419,6.811 595.5197,-53.4577 459,-117.4569 287.5842,-197.8149 244.6387,-245.2611 147,-407.4569 110.6921,-467.7709 176.3992,-560.4569 106,-560.4569"/>
<polygon fill="#000000" stroke="#000000" points="1299.0088,-414.0826 1306.8316,-418.0529 1303.0044,-414.2697 1307,-414.4569 1307,-414.4569 1307,-414.4569 1303.0044,-414.2697 1307.1684,-410.8608 1299.0088,-414.0826 1299.0088,-414.0826"/>
<ellipse fill="none" stroke="#000000" cx="1295.8123" cy="-413.9329" rx="3.2" ry="3.2"/>
</g>
<!-- SUPPLEMENTS -->
<g id="node11" class="node">
<title>SUPPLEMENTS</title>
<g id="a_node11"><a xlink:href="../../tables/SUPPLEMENTS.html" xlink:title="SUPPLEMENTS" target="_top">
<polygon fill="#ffffff" stroke="transparent" points="910.5,-766.9569 910.5,-827.9569 1034.5,-827.9569 1034.5,-766.9569 910.5,-766.9569"/>
<polygon fill="#f5f5f5" stroke="transparent" points="910.5,-804.4569 910.5,-827.4569 1034.5,-827.4569 1034.5,-804.4569 910.5,-804.4569"/>
<polygon fill="none" stroke="#000000" points="910.5,-804.4569 910.5,-827.4569 1034.5,-827.4569 1034.5,-804.4569 910.5,-804.4569"/>
<text text-anchor="start" x="915.0531" y="-813.5569" font-family="Helvetica,sans-Serif" font-weight="bold" font-size="11.00" fill="#000000">SUPPLEMENTS</text>
<text text-anchor="start" x="1000.0219" y="-812.5569" font-family="Helvetica,sans-Serif" font-size="11.00" fill="#000000">[table]</text>
<polygon fill="none" stroke="#000000" points="910.5,-785.4569 910.5,-804.4569 1034.5,-804.4569 1034.5,-785.4569 910.5,-785.4569"/>
<text text-anchor="start" x="913.5" y="-791.5569" font-family="Helvetica,sans-Serif" font-size="11.00" fill="#000000">...</text>
<polygon fill="#ffffff" stroke="transparent" points="910.5,-766.4569 910.5,-785.4569 950.5,-785.4569 950.5,-766.4569 910.5,-766.4569"/>
<polygon fill="none" stroke="#000000" points="910.5,-766.4569 910.5,-785.4569 950.5,-785.4569 950.5,-766.4569 910.5,-766.4569"/>
<text text-anchor="start" x="913.5" y="-772.5569" font-family="Helvetica,sans-Serif" font-size="11.00" fill="#000000">&lt; 1</text>
<polygon fill="#ffffff" stroke="transparent" points="950.5,-766.4569 950.5,-785.4569 1003.5,-785.4569 1003.5,-766.4569 950.5,-766.4569"/>
<polygon fill="none" stroke="#000000" points="950.5,-766.4569 950.5,-785.4569 1003.5,-785.4569 1003.5,-766.4569 950.5,-766.4569"/>
<text text-anchor="start" x="961.9956" y="-772.5569" font-family="Helvetica,sans-Serif" font-size="11.00" fill="#000000">77 rows</text>
<polygon fill="#ffffff" stroke="transparent" points="1003.5,-766.4569 1003.5,-785.4569 1034.5,-785.4569 1034.5,-766.4569 1003.5,-766.4569"/>
<polygon fill="none" stroke="#000000" points="1003.5,-766.4569 1003.5,-785.4569 1034.5,-785.4569 1034.5,-766.4569 1003.5,-766.4569"/>
<text text-anchor="start" x="1015.9053" y="-772.5569" font-family="Helvetica,sans-Serif" font-size="11.00" fill="#000000">5 &gt;</text>
</a>
</g>
</g>
<!-- SCREENING_PLANS&#45;&gt;SUPPLEMENTS -->
<g id="edge9" class="edge">
<title>SCREENING_PLANS:w&#45;&gt;SUPPLEMENTS:e</title>
<path fill="none" stroke="#000000" d="M1292.3624,-415.0751C1144.4131,-428.1765 1258.5061,-646.2292 1136,-756.4569 1100.1923,-788.6757 1082.6689,-794.4569 1034.5,-794.4569"/>
<polygon fill="#000000" stroke="#000000" points="1299.0071,-414.7945 1307.1519,-418.0537 1303.0036,-414.6257 1307,-414.4569 1307,-414.4569 1307,-414.4569 1303.0036,-414.6257 1306.8481,-410.8601 1299.0071,-414.7945 1299.0071,-414.7945"/>
<ellipse fill="none" stroke="#000000" cx="1295.81" cy="-414.9296" rx="3.2" ry="3.2"/>
</g>
<!-- SUPPLEMENTS&#45;&gt;TARGET_FORMS -->
<g id="edge12" class="edge">
<title>SUPPLEMENTS:w&#45;&gt;TARGET_FORMS:e</title>
<path fill="none" stroke="#000000" d="M895.872,-794.4569C844.4818,-794.4569 826.434,-794.4569 768.5,-794.4569"/>
<polygon fill="#000000" stroke="#000000" points="902.5,-794.4569 910.5,-798.0569 906.5,-794.4569 910.5,-794.4569 910.5,-794.4569 910.5,-794.4569 906.5,-794.4569 910.5,-790.8569 902.5,-794.4569 902.5,-794.4569"/>
<ellipse fill="none" stroke="#000000" cx="899.3" cy="-794.4569" rx="3.2" ry="3.2"/>
</g>
<!-- TARGET_FORM_COMMENTS -->
<g id="node12" class="node">
<title>TARGET_FORM_COMMENTS</title>
<g id="a_node12"><a xlink:href="../../tables/TARGET_FORM_COMMENTS.html" xlink:title="TARGET_FORM_COMMENTS" target="_top">
<polygon fill="#ffffff" stroke="transparent" points="874.5,-1286.9569 874.5,-1347.9569 1070.5,-1347.9569 1070.5,-1286.9569 874.5,-1286.9569"/>
<polygon fill="#f5f5f5" stroke="transparent" points="874.5,-1324.4569 874.5,-1347.4569 1070.5,-1347.4569 1070.5,-1324.4569 874.5,-1324.4569"/>
<polygon fill="none" stroke="#000000" points="874.5,-1324.4569 874.5,-1347.4569 1070.5,-1347.4569 1070.5,-1324.4569 874.5,-1324.4569"/>
<text text-anchor="start" x="879.3135" y="-1333.5569" font-family="Helvetica,sans-Serif" font-weight="bold" font-size="11.00" fill="#000000">TARGET_FORM_COMMENTS</text>
<text text-anchor="start" x="1036.0219" y="-1332.5569" font-family="Helvetica,sans-Serif" font-size="11.00" fill="#000000">[table]</text>
<polygon fill="none" stroke="#000000" points="874.5,-1305.4569 874.5,-1324.4569 1070.5,-1324.4569 1070.5,-1305.4569 874.5,-1305.4569"/>
<text text-anchor="start" x="877.5" y="-1311.5569" font-family="Helvetica,sans-Serif" font-size="11.00" fill="#000000">...</text>
<polygon fill="#ffffff" stroke="transparent" points="874.5,-1286.4569 874.5,-1305.4569 957.5,-1305.4569 957.5,-1286.4569 874.5,-1286.4569"/>
<polygon fill="none" stroke="#000000" points="874.5,-1286.4569 874.5,-1305.4569 957.5,-1305.4569 957.5,-1286.4569 874.5,-1286.4569"/>
<text text-anchor="start" x="877.5" y="-1292.5569" font-family="Helvetica,sans-Serif" font-size="11.00" fill="#000000">&lt; 2</text>
<polygon fill="#ffffff" stroke="transparent" points="957.5,-1286.4569 957.5,-1305.4569 1026.5,-1305.4569 1026.5,-1286.4569 957.5,-1286.4569"/>
<polygon fill="none" stroke="#000000" points="957.5,-1286.4569 957.5,-1305.4569 1026.5,-1305.4569 1026.5,-1286.4569 957.5,-1286.4569"/>
<text text-anchor="start" x="991.1105" y="-1292.5569" font-family="Helvetica,sans-Serif" font-size="11.00" fill="#000000">3 rows</text>
<polygon fill="#ffffff" stroke="transparent" points="1026.5,-1286.4569 1026.5,-1305.4569 1070.5,-1305.4569 1070.5,-1286.4569 1026.5,-1286.4569"/>
<polygon fill="none" stroke="#000000" points="1026.5,-1286.4569 1026.5,-1305.4569 1070.5,-1305.4569 1070.5,-1286.4569 1026.5,-1286.4569"/>
<text text-anchor="start" x="1061.3862" y="-1292.5569" font-family="Helvetica,sans-Serif" font-size="11.00" fill="#000000"> &#160;</text>
</a>
</g>
</g>
<!-- TARGET_FORM_COMMENTS&#45;&gt;TARGET_FORMS -->
<g id="edge13" class="edge">
<title>TARGET_FORM_COMMENTS:w&#45;&gt;TARGET_FORMS:e</title>
<path fill="none" stroke="#000000" d="M860.0838,-1313.7208C836.4178,-1311.007 824.1912,-1300.4486 809,-1276.4569 780.2488,-1231.0496 822.2443,-794.4569 768.5,-794.4569"/>
<polygon fill="#000000" stroke="#000000" points="866.5104,-1314.0489 874.3164,-1318.0522 870.5052,-1314.2529 874.5,-1314.4569 874.5,-1314.4569 874.5,-1314.4569 870.5052,-1314.2529 874.6836,-1310.8615 866.5104,-1314.0489 866.5104,-1314.0489"/>
<ellipse fill="none" stroke="#000000" cx="863.3146" cy="-1313.8857" rx="3.2" ry="3.2"/>
</g>
<!-- TARGET_FORMS_ISOFORM_ANNOTATIONS -->
<g id="node14" class="node">
<title>TARGET_FORMS_ISOFORM_ANNOTATIONS</title>
<g id="a_node14"><a xlink:href="../../tables/TARGET_FORMS_ISOFORM_ANNOTATIONS.html" xlink:title="TARGET_FORMS_ISOFORM_ANNOTATIONS" target="_top">
<polygon fill="#ffffff" stroke="transparent" points="834.5,-1204.9569 834.5,-1265.9569 1110.5,-1265.9569 1110.5,-1204.9569 834.5,-1204.9569"/>
<polygon fill="#f5f5f5" stroke="transparent" points="834.5,-1242.4569 834.5,-1265.4569 1110.5,-1265.4569 1110.5,-1242.4569 834.5,-1242.4569"/>
<polygon fill="none" stroke="#000000" points="834.5,-1242.4569 834.5,-1265.4569 1110.5,-1265.4569 1110.5,-1242.4569 834.5,-1242.4569"/>
<text text-anchor="start" x="839.2801" y="-1251.5569" font-family="Helvetica,sans-Serif" font-weight="bold" font-size="11.00" fill="#000000">TARGET_FORMS_ISOFORM_ANNOTATIONS</text>
<text text-anchor="start" x="1076.0219" y="-1250.5569" font-family="Helvetica,sans-Serif" font-size="11.00" fill="#000000">[table]</text>
<polygon fill="none" stroke="#000000" points="834.5,-1223.4569 834.5,-1242.4569 1110.5,-1242.4569 1110.5,-1223.4569 834.5,-1223.4569"/>
<text text-anchor="start" x="837.5" y="-1229.5569" font-family="Helvetica,sans-Serif" font-size="11.00" fill="#000000">...</text>
<polygon fill="#ffffff" stroke="transparent" points="834.5,-1204.4569 834.5,-1223.4569 957.5,-1223.4569 957.5,-1204.4569 834.5,-1204.4569"/>
<polygon fill="none" stroke="#000000" points="834.5,-1204.4569 834.5,-1223.4569 957.5,-1223.4569 957.5,-1204.4569 834.5,-1204.4569"/>
<text text-anchor="start" x="837.5" y="-1210.5569" font-family="Helvetica,sans-Serif" font-size="11.00" fill="#000000">&lt; 2</text>
<polygon fill="#ffffff" stroke="transparent" points="957.5,-1204.4569 957.5,-1223.4569 1046.5,-1223.4569 1046.5,-1204.4569 957.5,-1204.4569"/>
<polygon fill="none" stroke="#000000" points="957.5,-1204.4569 957.5,-1223.4569 1046.5,-1223.4569 1046.5,-1204.4569 957.5,-1204.4569"/>
<text text-anchor="start" x="1011.1105" y="-1210.5569" font-family="Helvetica,sans-Serif" font-size="11.00" fill="#000000">4 rows</text>
<polygon fill="#ffffff" stroke="transparent" points="1046.5,-1204.4569 1046.5,-1223.4569 1110.5,-1223.4569 1110.5,-1204.4569 1046.5,-1204.4569"/>
<polygon fill="none" stroke="#000000" points="1046.5,-1204.4569 1046.5,-1223.4569 1110.5,-1223.4569 1110.5,-1204.4569 1046.5,-1204.4569"/>
<text text-anchor="start" x="1101.3862" y="-1210.5569" font-family="Helvetica,sans-Serif" font-size="11.00" fill="#000000"> &#160;</text>
</a>
</g>
</g>
<!-- TARGET_FORMS_ISOFORM_ANNOTATIONS&#45;&gt;TARGET_FORMS -->
<g id="edge19" class="edge">
<title>TARGET_FORMS_ISOFORM_ANNOTATIONS:w&#45;&gt;TARGET_FORMS:e</title>
<path fill="none" stroke="#000000" d="M820.3333,-1228.6703C749.6954,-1185.8605 861.5491,-794.4569 768.5,-794.4569"/>
<polygon fill="#000000" stroke="#000000" points="826.7713,-1230.3911 833.5704,-1235.9348 830.6357,-1231.424 834.5,-1232.4569 834.5,-1232.4569 834.5,-1232.4569 830.6357,-1231.424 835.4296,-1228.9789 826.7713,-1230.3911 826.7713,-1230.3911"/>
<ellipse fill="none" stroke="#000000" cx="823.6798" cy="-1229.5647" rx="3.2" ry="3.2"/>
</g>
<!-- TARGET_FORMS_ISOFORM_DOMAINS -->
<g id="node15" class="node">
<title>TARGET_FORMS_ISOFORM_DOMAINS</title>
<g id="a_node15"><a xlink:href="../../tables/TARGET_FORMS_ISOFORM_DOMAINS.html" xlink:title="TARGET_FORMS_ISOFORM_DOMAINS" target="_top">
<polygon fill="#ffffff" stroke="transparent" points="848.5,-1122.9569 848.5,-1183.9569 1096.5,-1183.9569 1096.5,-1122.9569 848.5,-1122.9569"/>
<polygon fill="#f5f5f5" stroke="transparent" points="848.5,-1160.4569 848.5,-1183.4569 1096.5,-1183.4569 1096.5,-1160.4569 848.5,-1160.4569"/>
<polygon fill="none" stroke="#000000" points="848.5,-1160.4569 848.5,-1183.4569 1096.5,-1183.4569 1096.5,-1160.4569 848.5,-1160.4569"/>
<text text-anchor="start" x="853.3359" y="-1169.5569" font-family="Helvetica,sans-Serif" font-weight="bold" font-size="11.00" fill="#000000">TARGET_FORMS_ISOFORM_DOMAINS</text>
<text text-anchor="start" x="1062.0219" y="-1168.5569" font-family="Helvetica,sans-Serif" font-size="11.00" fill="#000000">[table]</text>
<polygon fill="none" stroke="#000000" points="848.5,-1141.4569 848.5,-1160.4569 1096.5,-1160.4569 1096.5,-1141.4569 848.5,-1141.4569"/>
<text text-anchor="start" x="851.5" y="-1147.5569" font-family="Helvetica,sans-Serif" font-size="11.00" fill="#000000">...</text>
<polygon fill="#ffffff" stroke="transparent" points="848.5,-1122.4569 848.5,-1141.4569 951.5,-1141.4569 951.5,-1122.4569 848.5,-1122.4569"/>
<polygon fill="none" stroke="#000000" points="848.5,-1122.4569 848.5,-1141.4569 951.5,-1141.4569 951.5,-1122.4569 848.5,-1122.4569"/>
<text text-anchor="start" x="851.5" y="-1128.5569" font-family="Helvetica,sans-Serif" font-size="11.00" fill="#000000">&lt; 2</text>
<polygon fill="#ffffff" stroke="transparent" points="951.5,-1122.4569 951.5,-1141.4569 1042.5,-1141.4569 1042.5,-1122.4569 951.5,-1122.4569"/>
<polygon fill="none" stroke="#000000" points="951.5,-1122.4569 951.5,-1141.4569 1042.5,-1141.4569 1042.5,-1122.4569 951.5,-1122.4569"/>
<text text-anchor="start" x="994.8807" y="-1128.5569" font-family="Helvetica,sans-Serif" font-size="11.00" fill="#000000">725 rows</text>
<polygon fill="#ffffff" stroke="transparent" points="1042.5,-1122.4569 1042.5,-1141.4569 1096.5,-1141.4569 1096.5,-1122.4569 1042.5,-1122.4569"/>
<polygon fill="none" stroke="#000000" points="1042.5,-1122.4569 1042.5,-1141.4569 1096.5,-1141.4569 1096.5,-1122.4569 1042.5,-1122.4569"/>
<text text-anchor="start" x="1087.3862" y="-1128.5569" font-family="Helvetica,sans-Serif" font-size="11.00" fill="#000000"> &#160;</text>
</a>
</g>
</g>
<!-- TARGET_FORMS_ISOFORM_DOMAINS&#45;&gt;TARGET_FORMS -->
<g id="edge20" class="edge">
<title>TARGET_FORMS_ISOFORM_DOMAINS:w&#45;&gt;TARGET_FORMS:e</title>
<path fill="none" stroke="#000000" d="M833.966,-1147.7523C821.7098,-1142.2691 817.29,-1128.9515 809,-1112.4569 777.0101,-1048.8061 839.7375,-794.4569 768.5,-794.4569"/>
<polygon fill="#000000" stroke="#000000" points="840.635,-1148.9933 847.8414,-1153.9961 844.5675,-1149.7251 848.5,-1150.4569 848.5,-1150.4569 848.5,-1150.4569 844.5675,-1149.7251 849.1586,-1146.9176 840.635,-1148.9933 840.635,-1148.9933"/>
<ellipse fill="none" stroke="#000000" cx="837.489" cy="-1148.4078" rx="3.2" ry="3.2"/>
</g>
<!-- TARGET_FORMS_ISOFORM_MOTIFS -->
<g id="node16" class="node">
<title>TARGET_FORMS_ISOFORM_MOTIFS</title>
<g id="a_node16"><a xlink:href="../../tables/TARGET_FORMS_ISOFORM_MOTIFS.html" xlink:title="TARGET_FORMS_ISOFORM_MOTIFS" target="_top">
<polygon fill="#ffffff" stroke="transparent" points="853.5,-1040.9569 853.5,-1101.9569 1091.5,-1101.9569 1091.5,-1040.9569 853.5,-1040.9569"/>
<polygon fill="#f5f5f5" stroke="transparent" points="853.5,-1078.4569 853.5,-1101.4569 1091.5,-1101.4569 1091.5,-1078.4569 853.5,-1078.4569"/>
<polygon fill="none" stroke="#000000" points="853.5,-1078.4569 853.5,-1101.4569 1091.5,-1101.4569 1091.5,-1078.4569 853.5,-1078.4569"/>
<text text-anchor="start" x="858.2249" y="-1087.5569" font-family="Helvetica,sans-Serif" font-weight="bold" font-size="11.00" fill="#000000">TARGET_FORMS_ISOFORM_MOTIFS</text>
<text text-anchor="start" x="1057.0219" y="-1086.5569" font-family="Helvetica,sans-Serif" font-size="11.00" fill="#000000">[table]</text>
<polygon fill="none" stroke="#000000" points="853.5,-1059.4569 853.5,-1078.4569 1091.5,-1078.4569 1091.5,-1059.4569 853.5,-1059.4569"/>
<text text-anchor="start" x="856.5" y="-1065.5569" font-family="Helvetica,sans-Serif" font-size="11.00" fill="#000000">...</text>
<polygon fill="#ffffff" stroke="transparent" points="853.5,-1040.4569 853.5,-1059.4569 951.5,-1059.4569 951.5,-1040.4569 853.5,-1040.4569"/>
<polygon fill="none" stroke="#000000" points="853.5,-1040.4569 853.5,-1059.4569 951.5,-1059.4569 951.5,-1040.4569 853.5,-1040.4569"/>
<text text-anchor="start" x="856.5" y="-1046.5569" font-family="Helvetica,sans-Serif" font-size="11.00" fill="#000000">&lt; 2</text>
<polygon fill="#ffffff" stroke="transparent" points="951.5,-1040.4569 951.5,-1059.4569 1040.5,-1059.4569 1040.5,-1040.4569 951.5,-1040.4569"/>
<polygon fill="none" stroke="#000000" points="951.5,-1040.4569 951.5,-1059.4569 1040.5,-1059.4569 1040.5,-1040.4569 951.5,-1040.4569"/>
<text text-anchor="start" x="992.8807" y="-1046.5569" font-family="Helvetica,sans-Serif" font-size="11.00" fill="#000000">221 rows</text>
<polygon fill="#ffffff" stroke="transparent" points="1040.5,-1040.4569 1040.5,-1059.4569 1091.5,-1059.4569 1091.5,-1040.4569 1040.5,-1040.4569"/>
<polygon fill="none" stroke="#000000" points="1040.5,-1040.4569 1040.5,-1059.4569 1091.5,-1059.4569 1091.5,-1040.4569 1040.5,-1040.4569"/>
<text text-anchor="start" x="1082.3862" y="-1046.5569" font-family="Helvetica,sans-Serif" font-size="11.00" fill="#000000"> &#160;</text>
</a>
</g>
</g>
<!-- TARGET_FORMS_ISOFORM_MOTIFS&#45;&gt;TARGET_FORMS -->
<g id="edge21" class="edge">
<title>TARGET_FORMS_ISOFORM_MOTIFS:w&#45;&gt;TARGET_FORMS:e</title>
<path fill="none" stroke="#000000" d="M839.0372,-1066.1615C824.063,-1060.5795 819.1665,-1045.3548 809,-1026.4569 784.2055,-980.3677 820.8352,-794.4569 768.5,-794.4569"/>
<polygon fill="#000000" stroke="#000000" points="845.5989,-1067.2028 852.9357,-1072.0124 849.5494,-1067.8299 853.5,-1068.4569 853.5,-1068.4569 853.5,-1068.4569 849.5494,-1067.8299 854.0643,-1064.9014 845.5989,-1067.2028 845.5989,-1067.2028"/>
<ellipse fill="none" stroke="#000000" cx="842.4384" cy="-1066.7012" rx="3.2" ry="3.2"/>
</g>
<!-- TARGET_FORMS_ISOFORM_REGIONS -->
<g id="node17" class="node">
<title>TARGET_FORMS_ISOFORM_REGIONS</title>
<g id="a_node17"><a xlink:href="../../tables/TARGET_FORMS_ISOFORM_REGIONS.html" xlink:title="TARGET_FORMS_ISOFORM_REGIONS" target="_top">
<polygon fill="#ffffff" stroke="transparent" points="849,-930.9569 849,-991.9569 1096,-991.9569 1096,-930.9569 849,-930.9569"/>
<polygon fill="#f5f5f5" stroke="transparent" points="849.5,-968.4569 849.5,-991.4569 1096.5,-991.4569 1096.5,-968.4569 849.5,-968.4569"/>
<polygon fill="none" stroke="#000000" points="849.5,-968.4569 849.5,-991.4569 1096.5,-991.4569 1096.5,-968.4569 849.5,-968.4569"/>
<text text-anchor="start" x="854.1384" y="-977.5569" font-family="Helvetica,sans-Serif" font-weight="bold" font-size="11.00" fill="#000000">TARGET_FORMS_ISOFORM_REGIONS</text>
<text text-anchor="start" x="1062.0219" y="-976.5569" font-family="Helvetica,sans-Serif" font-size="11.00" fill="#000000">[table]</text>
<polygon fill="none" stroke="#000000" points="849.5,-949.4569 849.5,-968.4569 1096.5,-968.4569 1096.5,-949.4569 849.5,-949.4569"/>
<text text-anchor="start" x="852.5" y="-955.5569" font-family="Helvetica,sans-Serif" font-size="11.00" fill="#000000">...</text>
<polygon fill="#ffffff" stroke="transparent" points="849.5,-930.4569 849.5,-949.4569 952.5,-949.4569 952.5,-930.4569 849.5,-930.4569"/>
<polygon fill="none" stroke="#000000" points="849.5,-930.4569 849.5,-949.4569 952.5,-949.4569 952.5,-930.4569 849.5,-930.4569"/>
<text text-anchor="start" x="852.5" y="-936.5569" font-family="Helvetica,sans-Serif" font-size="11.00" fill="#000000">&lt; 2</text>
<polygon fill="#ffffff" stroke="transparent" points="952.5,-930.4569 952.5,-949.4569 1043.5,-949.4569 1043.5,-930.4569 952.5,-930.4569"/>
<polygon fill="none" stroke="#000000" points="952.5,-930.4569 952.5,-949.4569 1043.5,-949.4569 1043.5,-930.4569 952.5,-930.4569"/>
<text text-anchor="start" x="995.8807" y="-936.5569" font-family="Helvetica,sans-Serif" font-size="11.00" fill="#000000">153 rows</text>
<polygon fill="#ffffff" stroke="transparent" points="1043.5,-930.4569 1043.5,-949.4569 1096.5,-949.4569 1096.5,-930.4569 1043.5,-930.4569"/>
<polygon fill="none" stroke="#000000" points="1043.5,-930.4569 1043.5,-949.4569 1096.5,-949.4569 1096.5,-930.4569 1043.5,-930.4569"/>
<text text-anchor="start" x="1087.3862" y="-936.5569" font-family="Helvetica,sans-Serif" font-size="11.00" fill="#000000"> &#160;</text>
</a>
</g>
</g>
<!-- TARGET_FORMS_ISOFORM_REGIONS&#45;&gt;TARGET_FORMS -->
<g id="edge22" class="edge">
<title>TARGET_FORMS_ISOFORM_REGIONS:w&#45;&gt;TARGET_FORMS:e</title>
<path fill="none" stroke="#000000" d="M834.985,-955.6312C822.9278,-949.9359 819.0009,-936.2636 809,-920.4569 777.5498,-870.7489 827.3218,-794.4569 768.5,-794.4569"/>
<polygon fill="#000000" stroke="#000000" points="841.6474,-956.9282 848.8121,-961.9905 845.5737,-957.6925 849.5,-958.4569 849.5,-958.4569 849.5,-958.4569 845.5737,-957.6925 850.1879,-954.9232 841.6474,-956.9282 841.6474,-956.9282"/>
<ellipse fill="none" stroke="#000000" cx="838.5064" cy="-956.3167" rx="3.2" ry="3.2"/>
</g>
<!-- TARGET_FORMS_ISOFORM_VARIANTS -->
<g id="node18" class="node">
<title>TARGET_FORMS_ISOFORM_VARIANTS</title>
<g id="a_node18"><a xlink:href="../../tables/TARGET_FORMS_ISOFORM_VARIANTS.html" xlink:title="TARGET_FORMS_ISOFORM_VARIANTS" target="_top">
<polygon fill="#ffffff" stroke="transparent" points="846.5,-848.9569 846.5,-909.9569 1098.5,-909.9569 1098.5,-848.9569 846.5,-848.9569"/>
<polygon fill="#f5f5f5" stroke="transparent" points="846.5,-886.4569 846.5,-909.4569 1098.5,-909.4569 1098.5,-886.4569 846.5,-886.4569"/>
<polygon fill="none" stroke="#000000" points="846.5,-886.4569 846.5,-909.4569 1098.5,-909.4569 1098.5,-886.4569 846.5,-886.4569"/>
<text text-anchor="start" x="851.4995" y="-895.5569" font-family="Helvetica,sans-Serif" font-weight="bold" font-size="11.00" fill="#000000">TARGET_FORMS_ISOFORM_VARIANTS</text>
<text text-anchor="start" x="1064.0219" y="-894.5569" font-family="Helvetica,sans-Serif" font-size="11.00" fill="#000000">[table]</text>
<polygon fill="none" stroke="#000000" points="846.5,-867.4569 846.5,-886.4569 1098.5,-886.4569 1098.5,-867.4569 846.5,-867.4569"/>
<text text-anchor="start" x="849.5" y="-873.5569" font-family="Helvetica,sans-Serif" font-size="11.00" fill="#000000">...</text>
<polygon fill="#ffffff" stroke="transparent" points="846.5,-848.4569 846.5,-867.4569 951.5,-867.4569 951.5,-848.4569 846.5,-848.4569"/>
<polygon fill="none" stroke="#000000" points="846.5,-848.4569 846.5,-867.4569 951.5,-867.4569 951.5,-848.4569 846.5,-848.4569"/>
<text text-anchor="start" x="849.5" y="-854.5569" font-family="Helvetica,sans-Serif" font-size="11.00" fill="#000000">&lt; 2</text>
<polygon fill="#ffffff" stroke="transparent" points="951.5,-848.4569 951.5,-867.4569 1043.5,-867.4569 1043.5,-848.4569 951.5,-848.4569"/>
<polygon fill="none" stroke="#000000" points="951.5,-848.4569 951.5,-867.4569 1043.5,-867.4569 1043.5,-848.4569 951.5,-848.4569"/>
<text text-anchor="start" x="995.8807" y="-854.5569" font-family="Helvetica,sans-Serif" font-size="11.00" fill="#000000">108 rows</text>
<polygon fill="#ffffff" stroke="transparent" points="1043.5,-848.4569 1043.5,-867.4569 1098.5,-867.4569 1098.5,-848.4569 1043.5,-848.4569"/>
<polygon fill="none" stroke="#000000" points="1043.5,-848.4569 1043.5,-867.4569 1098.5,-867.4569 1098.5,-848.4569 1043.5,-848.4569"/>
<text text-anchor="start" x="1089.3862" y="-854.5569" font-family="Helvetica,sans-Serif" font-size="11.00" fill="#000000"> &#160;</text>
</a>
</g>
</g>
<!-- TARGET_FORMS_ISOFORM_VARIANTS&#45;&gt;TARGET_FORMS -->
<g id="edge23" class="edge">
<title>TARGET_FORMS_ISOFORM_VARIANTS:w&#45;&gt;TARGET_FORMS:e</title>
<path fill="none" stroke="#000000" d="M832.0007,-873.5384C800.3855,-858.931 813.1009,-794.4569 768.5,-794.4569"/>
<polygon fill="#000000" stroke="#000000" points="838.6573,-874.8782 845.7896,-879.9861 842.5786,-875.6675 846.5,-876.4569 846.5,-876.4569 846.5,-876.4569 842.5786,-875.6675 847.2104,-872.9276 838.6573,-874.8782 838.6573,-874.8782"/>
<ellipse fill="none" stroke="#000000" cx="835.5202" cy="-874.2468" rx="3.2" ry="3.2"/>
</g>
<!-- TARGET_FORMS_PROTEIN_CLEAVAGE_SITES -->
<g id="node19" class="node">
<title>TARGET_FORMS_PROTEIN_CLEAVAGE_SITES</title>
<g id="a_node19"><a xlink:href="../../tables/TARGET_FORMS_PROTEIN_CLEAVAGE_SITES.html" xlink:title="TARGET_FORMS_PROTEIN_CLEAVAGE_SITES" target="_top">
<polygon fill="#ffffff" stroke="transparent" points="827,-684.9569 827,-745.9569 1118,-745.9569 1118,-684.9569 827,-684.9569"/>
<polygon fill="#f5f5f5" stroke="transparent" points="827.5,-722.4569 827.5,-745.4569 1118.5,-745.4569 1118.5,-722.4569 827.5,-722.4569"/>
<polygon fill="none" stroke="#000000" points="827.5,-722.4569 827.5,-745.4569 1118.5,-745.4569 1118.5,-722.4569 827.5,-722.4569"/>
<text text-anchor="start" x="832.1258" y="-731.5569" font-family="Helvetica,sans-Serif" font-weight="bold" font-size="11.00" fill="#000000">TARGET_FORMS_PROTEIN_CLEAVAGE_SITES</text>
<text text-anchor="start" x="1084.0219" y="-730.5569" font-family="Helvetica,sans-Serif" font-size="11.00" fill="#000000">[table]</text>
<polygon fill="none" stroke="#000000" points="827.5,-703.4569 827.5,-722.4569 1118.5,-722.4569 1118.5,-703.4569 827.5,-703.4569"/>
<text text-anchor="start" x="830.5" y="-709.5569" font-family="Helvetica,sans-Serif" font-size="11.00" fill="#000000">...</text>
<polygon fill="#ffffff" stroke="transparent" points="827.5,-684.4569 827.5,-703.4569 952.5,-703.4569 952.5,-684.4569 827.5,-684.4569"/>
<polygon fill="none" stroke="#000000" points="827.5,-684.4569 827.5,-703.4569 952.5,-703.4569 952.5,-684.4569 827.5,-684.4569"/>
<text text-anchor="start" x="830.5" y="-690.5569" font-family="Helvetica,sans-Serif" font-size="11.00" fill="#000000">&lt; 2</text>
<polygon fill="#ffffff" stroke="transparent" points="952.5,-684.4569 952.5,-703.4569 1054.5,-703.4569 1054.5,-684.4569 952.5,-684.4569"/>
<polygon fill="none" stroke="#000000" points="952.5,-684.4569 952.5,-703.4569 1054.5,-703.4569 1054.5,-684.4569 952.5,-684.4569"/>
<text text-anchor="start" x="1006.8807" y="-690.5569" font-family="Helvetica,sans-Serif" font-size="11.00" fill="#000000">112 rows</text>
<polygon fill="#ffffff" stroke="transparent" points="1054.5,-684.4569 1054.5,-703.4569 1118.5,-703.4569 1118.5,-684.4569 1054.5,-684.4569"/>
<polygon fill="none" stroke="#000000" points="1054.5,-684.4569 1054.5,-703.4569 1118.5,-703.4569 1118.5,-684.4569 1054.5,-684.4569"/>
<text text-anchor="start" x="1109.3862" y="-690.5569" font-family="Helvetica,sans-Serif" font-size="11.00" fill="#000000"> &#160;</text>
</a>
</g>
</g>
<!-- TARGET_FORMS_PROTEIN_CLEAVAGE_SITES&#45;&gt;TARGET_FORMS -->
<g id="edge24" class="edge">
<title>TARGET_FORMS_PROTEIN_CLEAVAGE_SITES:w&#45;&gt;TARGET_FORMS:e</title>
<path fill="none" stroke="#000000" d="M813.5863,-716.1933C789.284,-732.2349 807.6101,-794.4569 768.5,-794.4569"/>
<polygon fill="#000000" stroke="#000000" points="819.7737,-714.5317 828.4337,-715.9337 823.6369,-713.4943 827.5,-712.4569 827.5,-712.4569 827.5,-712.4569 823.6369,-713.4943 826.5663,-708.98 819.7737,-714.5317 819.7737,-714.5317"/>
<ellipse fill="none" stroke="#000000" cx="816.6832" cy="-715.3617" rx="3.2" ry="3.2"/>
</g>
<!-- TARGET_FORMS_PROTEIN_FUSION_SEQUENCES -->
<g id="node20" class="node">
<title>TARGET_FORMS_PROTEIN_FUSION_SEQUENCES</title>
<g id="a_node20"><a xlink:href="../../tables/TARGET_FORMS_PROTEIN_FUSION_SEQUENCES.html" xlink:title="TARGET_FORMS_PROTEIN_FUSION_SEQUENCES" target="_top">
<polygon fill="#ffffff" stroke="transparent" points="817,-602.9569 817,-663.9569 1128,-663.9569 1128,-602.9569 817,-602.9569"/>
<polygon fill="#f5f5f5" stroke="transparent" points="817.5,-640.4569 817.5,-663.4569 1128.5,-663.4569 1128.5,-640.4569 817.5,-640.4569"/>
<polygon fill="none" stroke="#000000" points="817.5,-640.4569 817.5,-663.4569 1128.5,-663.4569 1128.5,-640.4569 817.5,-640.4569"/>
<text text-anchor="start" x="822.3589" y="-649.5569" font-family="Helvetica,sans-Serif" font-weight="bold" font-size="11.00" fill="#000000">TARGET_FORMS_PROTEIN_FUSION_SEQUENCES</text>
<text text-anchor="start" x="1094.0219" y="-648.5569" font-family="Helvetica,sans-Serif" font-size="11.00" fill="#000000">[table]</text>
<polygon fill="none" stroke="#000000" points="817.5,-621.4569 817.5,-640.4569 1128.5,-640.4569 1128.5,-621.4569 817.5,-621.4569"/>
<text text-anchor="start" x="820.5" y="-627.5569" font-family="Helvetica,sans-Serif" font-size="11.00" fill="#000000">...</text>
<polygon fill="#ffffff" stroke="transparent" points="817.5,-602.4569 817.5,-621.4569 952.5,-621.4569 952.5,-602.4569 817.5,-602.4569"/>
<polygon fill="none" stroke="#000000" points="817.5,-602.4569 817.5,-621.4569 952.5,-621.4569 952.5,-602.4569 817.5,-602.4569"/>
<text text-anchor="start" x="820.5" y="-608.5569" font-family="Helvetica,sans-Serif" font-size="11.00" fill="#000000">&lt; 2</text>
<polygon fill="#ffffff" stroke="transparent" points="952.5,-602.4569 952.5,-621.4569 1059.5,-621.4569 1059.5,-602.4569 952.5,-602.4569"/>
<polygon fill="none" stroke="#000000" points="952.5,-602.4569 952.5,-621.4569 1059.5,-621.4569 1059.5,-602.4569 952.5,-602.4569"/>
<text text-anchor="start" x="1011.8807" y="-608.5569" font-family="Helvetica,sans-Serif" font-size="11.00" fill="#000000">110 rows</text>
<polygon fill="#ffffff" stroke="transparent" points="1059.5,-602.4569 1059.5,-621.4569 1128.5,-621.4569 1128.5,-602.4569 1059.5,-602.4569"/>
<polygon fill="none" stroke="#000000" points="1059.5,-602.4569 1059.5,-621.4569 1128.5,-621.4569 1128.5,-602.4569 1059.5,-602.4569"/>
<text text-anchor="start" x="1119.3862" y="-608.5569" font-family="Helvetica,sans-Serif" font-size="11.00" fill="#000000"> &#160;</text>
</a>
</g>
</g>
<!-- TARGET_FORMS_PROTEIN_FUSION_SEQUENCES&#45;&gt;TARGET_FORMS -->
<g id="edge25" class="edge">
<title>TARGET_FORMS_PROTEIN_FUSION_SEQUENCES:w&#45;&gt;TARGET_FORMS:e</title>
<path fill="none" stroke="#000000" d="M803.0773,-633.1666C756.101,-654.4897 838.7781,-794.4569 768.5,-794.4569"/>
<polygon fill="#000000" stroke="#000000" points="809.6376,-631.9341 818.1647,-633.995 813.5688,-631.1955 817.5,-630.4569 817.5,-630.4569 817.5,-630.4569 813.5688,-631.1955 816.8353,-626.9188 809.6376,-631.9341 809.6376,-631.9341"/>
<ellipse fill="none" stroke="#000000" cx="806.4926" cy="-632.525" rx="3.2" ry="3.2"/>
</g>
<!-- TARGET_FORMS_PROTEIN_GROUPS -->
<g id="node21" class="node">
<title>TARGET_FORMS_PROTEIN_GROUPS</title>
<g id="a_node21"><a xlink:href="../../tables/TARGET_FORMS_PROTEIN_GROUPS.html" xlink:title="TARGET_FORMS_PROTEIN_GROUPS" target="_top">
<polygon fill="#ffffff" stroke="transparent" points="851.5,-520.9569 851.5,-581.9569 1093.5,-581.9569 1093.5,-520.9569 851.5,-520.9569"/>
<polygon fill="#f5f5f5" stroke="transparent" points="851.5,-558.4569 851.5,-581.4569 1093.5,-581.4569 1093.5,-558.4569 851.5,-558.4569"/>
<polygon fill="none" stroke="#000000" points="851.5,-558.4569 851.5,-581.4569 1093.5,-581.4569 1093.5,-558.4569 851.5,-558.4569"/>
<text text-anchor="start" x="856.3879" y="-567.5569" font-family="Helvetica,sans-Serif" font-weight="bold" font-size="11.00" fill="#000000">TARGET_FORMS_PROTEIN_GROUPS</text>
<text text-anchor="start" x="1059.0219" y="-566.5569" font-family="Helvetica,sans-Serif" font-size="11.00" fill="#000000">[table]</text>
<polygon fill="none" stroke="#000000" points="851.5,-539.4569 851.5,-558.4569 1093.5,-558.4569 1093.5,-539.4569 851.5,-539.4569"/>
<text text-anchor="start" x="854.5" y="-545.5569" font-family="Helvetica,sans-Serif" font-size="11.00" fill="#000000">...</text>
<polygon fill="#ffffff" stroke="transparent" points="851.5,-520.4569 851.5,-539.4569 954.5,-539.4569 954.5,-520.4569 851.5,-520.4569"/>
<polygon fill="none" stroke="#000000" points="851.5,-520.4569 851.5,-539.4569 954.5,-539.4569 954.5,-520.4569 851.5,-520.4569"/>
<text text-anchor="start" x="854.5" y="-526.5569" font-family="Helvetica,sans-Serif" font-size="11.00" fill="#000000">&lt; 2</text>
<polygon fill="#ffffff" stroke="transparent" points="954.5,-520.4569 954.5,-539.4569 1039.5,-539.4569 1039.5,-520.4569 954.5,-520.4569"/>
<polygon fill="none" stroke="#000000" points="954.5,-520.4569 954.5,-539.4569 1039.5,-539.4569 1039.5,-520.4569 954.5,-520.4569"/>
<text text-anchor="start" x="997.9956" y="-526.5569" font-family="Helvetica,sans-Serif" font-size="11.00" fill="#000000">17 rows</text>
<polygon fill="#ffffff" stroke="transparent" points="1039.5,-520.4569 1039.5,-539.4569 1093.5,-539.4569 1093.5,-520.4569 1039.5,-520.4569"/>
<polygon fill="none" stroke="#000000" points="1039.5,-520.4569 1039.5,-539.4569 1093.5,-539.4569 1093.5,-520.4569 1039.5,-520.4569"/>
<text text-anchor="start" x="1084.3862" y="-526.5569" font-family="Helvetica,sans-Serif" font-size="11.00" fill="#000000"> &#160;</text>
</a>
</g>
</g>
<!-- TARGET_FORMS_PROTEIN_GROUPS&#45;&gt;TARGET_FORMS -->
<g id="edge26" class="edge">
<title>TARGET_FORMS_PROTEIN_GROUPS:w&#45;&gt;TARGET_FORMS:e</title>
<path fill="none" stroke="#000000" d="M837.2423,-550.9681C822.7365,-557.0462 818.9631,-573.4573 809,-592.4569 787.7384,-633.0026 814.2822,-794.4569 768.5,-794.4569"/>
<polygon fill="#000000" stroke="#000000" points="843.6213,-549.8446 852.1245,-552.0023 847.5606,-549.1507 851.5,-548.4569 851.5,-548.4569 851.5,-548.4569 847.5606,-549.1507 850.8755,-544.9114 843.6213,-549.8446 843.6213,-549.8446"/>
<ellipse fill="none" stroke="#000000" cx="840.4698" cy="-550.3997" rx="3.2" ry="3.2"/>
</g>
<!-- TARGET_FORMS_PROTEIN_LINKERS -->
<g id="node22" class="node">
<title>TARGET_FORMS_PROTEIN_LINKERS</title>
<g id="a_node22"><a xlink:href="../../tables/TARGET_FORMS_PROTEIN_LINKERS.html" xlink:title="TARGET_FORMS_PROTEIN_LINKERS" target="_top">
<polygon fill="#ffffff" stroke="transparent" points="852,-438.9569 852,-499.9569 1093,-499.9569 1093,-438.9569 852,-438.9569"/>
<polygon fill="#f5f5f5" stroke="transparent" points="852.5,-476.4569 852.5,-499.4569 1093.5,-499.4569 1093.5,-476.4569 852.5,-476.4569"/>
<polygon fill="none" stroke="#000000" points="852.5,-476.4569 852.5,-499.4569 1093.5,-499.4569 1093.5,-476.4569 852.5,-476.4569"/>
<text text-anchor="start" x="857.1909" y="-485.5569" font-family="Helvetica,sans-Serif" font-weight="bold" font-size="11.00" fill="#000000">TARGET_FORMS_PROTEIN_LINKERS</text>
<text text-anchor="start" x="1059.0219" y="-484.5569" font-family="Helvetica,sans-Serif" font-size="11.00" fill="#000000">[table]</text>
<polygon fill="none" stroke="#000000" points="852.5,-457.4569 852.5,-476.4569 1093.5,-476.4569 1093.5,-457.4569 852.5,-457.4569"/>
<text text-anchor="start" x="855.5" y="-463.5569" font-family="Helvetica,sans-Serif" font-size="11.00" fill="#000000">...</text>
<polygon fill="#ffffff" stroke="transparent" points="852.5,-438.4569 852.5,-457.4569 952.5,-457.4569 952.5,-438.4569 852.5,-438.4569"/>
<polygon fill="none" stroke="#000000" points="852.5,-438.4569 852.5,-457.4569 952.5,-457.4569 952.5,-438.4569 852.5,-438.4569"/>
<text text-anchor="start" x="855.5" y="-444.5569" font-family="Helvetica,sans-Serif" font-size="11.00" fill="#000000">&lt; 2</text>
<polygon fill="#ffffff" stroke="transparent" points="952.5,-438.4569 952.5,-457.4569 1041.5,-457.4569 1041.5,-438.4569 952.5,-438.4569"/>
<polygon fill="none" stroke="#000000" points="952.5,-438.4569 952.5,-457.4569 1041.5,-457.4569 1041.5,-438.4569 952.5,-438.4569"/>
<text text-anchor="start" x="993.8807" y="-444.5569" font-family="Helvetica,sans-Serif" font-size="11.00" fill="#000000">149 rows</text>
<polygon fill="#ffffff" stroke="transparent" points="1041.5,-438.4569 1041.5,-457.4569 1093.5,-457.4569 1093.5,-438.4569 1041.5,-438.4569"/>
<polygon fill="none" stroke="#000000" points="1041.5,-438.4569 1041.5,-457.4569 1093.5,-457.4569 1093.5,-438.4569 1041.5,-438.4569"/>
<text text-anchor="start" x="1084.3862" y="-444.5569" font-family="Helvetica,sans-Serif" font-size="11.00" fill="#000000"> &#160;</text>
</a>
</g>
</g>
<!-- TARGET_FORMS_PROTEIN_LINKERS&#45;&gt;TARGET_FORMS -->
<g id="edge27" class="edge">
<title>TARGET_FORMS_PROTEIN_LINKERS:w&#45;&gt;TARGET_FORMS:e</title>
<path fill="none" stroke="#000000" d="M837.9629,-468.9098C823.0319,-474.8618 818.646,-491.0203 809,-510.4569 780.6604,-567.561 832.2496,-794.4569 768.5,-794.4569"/>
<polygon fill="#000000" stroke="#000000" points="844.6115,-467.788 853.099,-470.0067 848.5558,-467.1224 852.5,-466.4569 852.5,-466.4569 852.5,-466.4569 848.5558,-467.1224 851.901,-462.907 844.6115,-467.788 844.6115,-467.788"/>
<ellipse fill="none" stroke="#000000" cx="841.4561" cy="-468.3204" rx="3.2" ry="3.2"/>
</g>
<!-- TARGET_FORMS_PROTEIN_TAGS -->
<g id="node23" class="node">
<title>TARGET_FORMS_PROTEIN_TAGS</title>
<g id="a_node23"><a xlink:href="../../tables/TARGET_FORMS_PROTEIN_TAGS.html" xlink:title="TARGET_FORMS_PROTEIN_TAGS" target="_top">
<polygon fill="#ffffff" stroke="transparent" points="1177,-1034.4569 1177,-1256.4569 1587,-1256.4569 1587,-1034.4569 1177,-1034.4569"/>
<polygon fill="#f5f5f5" stroke="transparent" points="1179,-1231.4569 1179,-1254.4569 1585,-1254.4569 1585,-1231.4569 1179,-1231.4569"/>
<polygon fill="none" stroke="#000000" points="1179,-1231.4569 1179,-1254.4569 1585,-1254.4569 1585,-1231.4569 1179,-1231.4569"/>
<text text-anchor="start" x="1184" y="-1240.5569" font-family="Helvetica,sans-Serif" font-weight="bold" font-size="11.00" fill="#000000">TARGET_FORMS_PROTEIN_TAGS</text>
<text text-anchor="start" x="1550.0437" y="-1239.5569" font-family="Helvetica,sans-Serif" font-size="11.00" fill="#000000">[table]</text>
<polygon fill="none" stroke="#000000" points="1179,-1209.4569 1179,-1231.4569 1414,-1231.4569 1414,-1209.4569 1179,-1209.4569"/>
<image xlink:href="../../images/primaryKeys.png" width="11px" height="12px" preserveAspectRatio="xMinYMin meet" x="1184" y="-1226.46"/>
<text text-anchor="start" x="1199" y="-1216.5569" font-family="Helvetica,sans-Serif" font-size="11.00" fill="#000000">ID</text>
<polygon fill="none" stroke="#000000" points="1414,-1209.4569 1414,-1231.4569 1585,-1231.4569 1585,-1209.4569 1414,-1209.4569"/>
<text text-anchor="start" x="1417" y="-1217.1569" font-family="Helvetica,sans-Serif" font-size="11.00" fill="#000000">number[19]</text>
<polygon fill="none" stroke="#000000" points="1179,-1187.4569 1179,-1209.4569 1414,-1209.4569 1414,-1187.4569 1179,-1187.4569"/>
<text text-anchor="start" x="1199" y="-1194.5569" font-family="Helvetica,sans-Serif" font-size="11.00" fill="#000000">CREATED_AT</text>
<polygon fill="none" stroke="#000000" points="1414,-1187.4569 1414,-1209.4569 1585,-1209.4569 1585,-1187.4569 1414,-1187.4569"/>
<text text-anchor="start" x="1416.9896" y="-1195.1569" font-family="Helvetica,sans-Serif" font-size="11.00" fill="#000000">timestamp(6) with time zone[13,6]</text>
<polygon fill="none" stroke="#000000" points="1179,-1165.4569 1179,-1187.4569 1414,-1187.4569 1414,-1165.4569 1179,-1165.4569"/>
<text text-anchor="start" x="1199" y="-1172.5569" font-family="Helvetica,sans-Serif" font-size="11.00" fill="#000000">CREATED_BY</text>
<polygon fill="none" stroke="#000000" points="1414,-1165.4569 1414,-1187.4569 1585,-1187.4569 1585,-1165.4569 1414,-1165.4569"/>
<text text-anchor="start" x="1417" y="-1173.1569" font-family="Helvetica,sans-Serif" font-size="11.00" fill="#000000">number[19]</text>
<polygon fill="none" stroke="#000000" points="1179,-1143.4569 1179,-1165.4569 1414,-1165.4569 1414,-1143.4569 1179,-1143.4569"/>
<text text-anchor="start" x="1199" y="-1150.5569" font-family="Helvetica,sans-Serif" font-size="11.00" fill="#000000">UPDATED_AT</text>
<polygon fill="none" stroke="#000000" points="1414,-1143.4569 1414,-1165.4569 1585,-1165.4569 1585,-1143.4569 1414,-1143.4569"/>
<text text-anchor="start" x="1416.9896" y="-1151.1569" font-family="Helvetica,sans-Serif" font-size="11.00" fill="#000000">timestamp(6) with time zone[13,6]</text>
<polygon fill="none" stroke="#000000" points="1179,-1121.4569 1179,-1143.4569 1414,-1143.4569 1414,-1121.4569 1179,-1121.4569"/>
<text text-anchor="start" x="1199" y="-1128.5569" font-family="Helvetica,sans-Serif" font-size="11.00" fill="#000000">UPDATED_BY</text>
<polygon fill="none" stroke="#000000" points="1414,-1121.4569 1414,-1143.4569 1585,-1143.4569 1585,-1121.4569 1414,-1121.4569"/>
<text text-anchor="start" x="1417" y="-1129.1569" font-family="Helvetica,sans-Serif" font-size="11.00" fill="#000000">number[19]</text>
<polygon fill="none" stroke="#000000" points="1179,-1099.4569 1179,-1121.4569 1414,-1121.4569 1414,-1099.4569 1179,-1099.4569"/>
<image xlink:href="../../images/foreignKeys.png" width="11px" height="12px" preserveAspectRatio="xMinYMin meet" x="1184" y="-1116.46"/>
<text text-anchor="start" x="1199" y="-1106.5569" font-family="Helvetica,sans-Serif" font-size="11.00" fill="#000000">TARGET_FORM_ID</text>
<polygon fill="none" stroke="#000000" points="1414,-1099.4569 1414,-1121.4569 1585,-1121.4569 1585,-1099.4569 1414,-1099.4569"/>
<text text-anchor="start" x="1417" y="-1107.1569" font-family="Helvetica,sans-Serif" font-size="11.00" fill="#000000">number[19]</text>
<polygon fill="none" stroke="#000000" points="1179,-1077.4569 1179,-1099.4569 1414,-1099.4569 1414,-1077.4569 1179,-1077.4569"/>
<image xlink:href="../../images/foreignKeys.png" width="11px" height="12px" preserveAspectRatio="xMinYMin meet" x="1184" y="-1094.46"/>
<text text-anchor="start" x="1199" y="-1084.5569" font-family="Helvetica,sans-Serif" font-size="11.00" fill="#000000">PROTEIN_TAG_ID</text>
<polygon fill="none" stroke="#000000" points="1414,-1077.4569 1414,-1099.4569 1585,-1099.4569 1585,-1077.4569 1414,-1077.4569"/>
<text text-anchor="start" x="1417" y="-1085.1569" font-family="Helvetica,sans-Serif" font-size="11.00" fill="#000000">number[19]</text>
<polygon fill="none" stroke="#000000" points="1179,-1055.4569 1179,-1077.4569 1414,-1077.4569 1414,-1055.4569 1179,-1055.4569"/>
<text text-anchor="start" x="1199" y="-1062.5569" font-family="Helvetica,sans-Serif" font-size="11.00" fill="#000000">CARTOON_ORDER</text>
<polygon fill="none" stroke="#000000" points="1414,-1055.4569 1414,-1077.4569 1585,-1077.4569 1585,-1055.4569 1414,-1055.4569"/>
<text text-anchor="start" x="1417" y="-1063.1569" font-family="Helvetica,sans-Serif" font-size="11.00" fill="#000000">number[2]</text>
<polygon fill="#ffffff" stroke="transparent" points="1179,-1036.4569 1179,-1055.4569 1282,-1055.4569 1282,-1036.4569 1179,-1036.4569"/>
<polygon fill="none" stroke="#000000" points="1179,-1036.4569 1179,-1055.4569 1282,-1055.4569 1282,-1036.4569 1179,-1036.4569"/>
<text text-anchor="start" x="1182" y="-1042.5569" font-family="Helvetica,sans-Serif" font-size="11.00" fill="#000000">&lt; 2</text>
<polygon fill="#ffffff" stroke="transparent" points="1282,-1036.4569 1282,-1055.4569 1414,-1055.4569 1414,-1036.4569 1282,-1036.4569"/>
<polygon fill="none" stroke="#000000" points="1282,-1036.4569 1282,-1055.4569 1414,-1055.4569 1414,-1036.4569 1282,-1036.4569"/>
<text text-anchor="start" x="1366.3807" y="-1042.5569" font-family="Helvetica,sans-Serif" font-size="11.00" fill="#000000">232 rows</text>
<polygon fill="#ffffff" stroke="transparent" points="1414,-1036.4569 1414,-1055.4569 1585,-1055.4569 1585,-1036.4569 1414,-1036.4569"/>
<polygon fill="none" stroke="#000000" points="1414,-1036.4569 1414,-1055.4569 1585,-1055.4569 1585,-1036.4569 1414,-1036.4569"/>
<text text-anchor="start" x="1566.4053" y="-1042.5569" font-family="Helvetica,sans-Serif" font-size="11.00" fill="#000000">0 &gt;</text>
<polygon fill="none" stroke="#000000" stroke-width="2" points="1178,-1035.4569 1178,-1255.4569 1586,-1255.4569 1586,-1035.4569 1178,-1035.4569"/>
</a>
</g>
</g>
<!-- TARGET_FORMS_PROTEIN_TAGS&#45;&gt;TARGET_FORMS -->
<g id="edge29" class="edge">
<title>TARGET_FORMS_PROTEIN_TAGS:w&#45;&gt;TARGET_FORMS:e</title>
<path fill="none" stroke="#000000" d="M1165.0452,-1106.7611C1146.6042,-1093.6651 1164.5926,-1049.2516 1136,-1030.4569 1075.055,-990.396 863.2523,-1051.1995 809,-1002.4569 738.942,-939.5136 862.6805,-794.4569 768.5,-794.4569"/>
<polygon fill="#000000" stroke="#000000" points="1171.2666,-1108.4087 1178.0783,-1113.9369 1175.1333,-1109.4328 1179,-1110.4569 1179,-1110.4569 1179,-1110.4569 1175.1333,-1109.4328 1179.9217,-1106.9768 1171.2666,-1108.4087 1171.2666,-1108.4087"/>
<ellipse fill="none" stroke="#000000" cx="1168.1733" cy="-1107.5895" rx="3.2" ry="3.2"/>
</g>
<!-- TARGET_FORMS_PROTEIN_TAGS&#45;&gt;PROTEIN_PRODUCTION.PROTEIN_TAGS -->
<g id="edge28" class="edge">
<title>TARGET_FORMS_PROTEIN_TAGS:w&#45;&gt;PROTEIN_PRODUCTION.PROTEIN_TAGS:e</title>
<path fill="none" stroke="#000000" d="M1165.3602,-1093.616C1128.0021,-1127.4656 1173.3483,-1317.6779 1136,-1358.4569 1128.588,-1366.5497 1119.8392,-1373.1513 1110.3042,-1378.525"/>
<polygon fill="#000000" stroke="#000000" points="1171.5174,-1091.2871 1180.2736,-1091.824 1175.2587,-1089.872 1179,-1088.4569 1179,-1088.4569 1179,-1088.4569 1175.2587,-1089.872 1177.7264,-1085.0897 1171.5174,-1091.2871 1171.5174,-1091.2871"/>
<ellipse fill="none" stroke="#000000" cx="1168.5243" cy="-1092.4192" rx="3.2" ry="3.2"/>
</g>
<!-- TARGET_FORMS_REFERENCES -->
<g id="node24" class="node">
<title>TARGET_FORMS_REFERENCES</title>
<g id="a_node24"><a xlink:href="../../tables/TARGET_FORMS_REFERENCES.html" xlink:title="TARGET_FORMS_REFERENCES" target="_top">
<polygon fill="#ffffff" stroke="transparent" points="865.5,-328.9569 865.5,-389.9569 1079.5,-389.9569 1079.5,-328.9569 865.5,-328.9569"/>
<polygon fill="#f5f5f5" stroke="transparent" points="865.5,-366.4569 865.5,-389.4569 1079.5,-389.4569 1079.5,-366.4569 865.5,-366.4569"/>
<polygon fill="none" stroke="#000000" points="865.5,-366.4569 865.5,-389.4569 1079.5,-389.4569 1079.5,-366.4569 865.5,-366.4569"/>
<text text-anchor="start" x="870.1412" y="-375.5569" font-family="Helvetica,sans-Serif" font-weight="bold" font-size="11.00" fill="#000000">TARGET_FORMS_REFERENCES</text>
<text text-anchor="start" x="1045.0219" y="-374.5569" font-family="Helvetica,sans-Serif" font-size="11.00" fill="#000000">[table]</text>
<polygon fill="none" stroke="#000000" points="865.5,-347.4569 865.5,-366.4569 1079.5,-366.4569 1079.5,-347.4569 865.5,-347.4569"/>
<text text-anchor="start" x="868.5" y="-353.5569" font-family="Helvetica,sans-Serif" font-size="11.00" fill="#000000">...</text>
<polygon fill="#ffffff" stroke="transparent" points="865.5,-328.4569 865.5,-347.4569 951.5,-347.4569 951.5,-328.4569 865.5,-328.4569"/>
<polygon fill="none" stroke="#000000" points="865.5,-328.4569 865.5,-347.4569 951.5,-347.4569 951.5,-328.4569 865.5,-328.4569"/>
<text text-anchor="start" x="868.5" y="-334.5569" font-family="Helvetica,sans-Serif" font-size="11.00" fill="#000000">&lt; 2</text>
<polygon fill="#ffffff" stroke="transparent" points="951.5,-328.4569 951.5,-347.4569 1034.5,-347.4569 1034.5,-328.4569 951.5,-328.4569"/>
<polygon fill="none" stroke="#000000" points="951.5,-328.4569 951.5,-347.4569 1034.5,-347.4569 1034.5,-328.4569 951.5,-328.4569"/>
<text text-anchor="start" x="986.8807" y="-334.5569" font-family="Helvetica,sans-Serif" font-size="11.00" fill="#000000">105 rows</text>
<polygon fill="#ffffff" stroke="transparent" points="1034.5,-328.4569 1034.5,-347.4569 1079.5,-347.4569 1079.5,-328.4569 1034.5,-328.4569"/>
<polygon fill="none" stroke="#000000" points="1034.5,-328.4569 1034.5,-347.4569 1079.5,-347.4569 1079.5,-328.4569 1034.5,-328.4569"/>
<text text-anchor="start" x="1070.3862" y="-334.5569" font-family="Helvetica,sans-Serif" font-size="11.00" fill="#000000"> &#160;</text>
</a>
</g>
</g>
<!-- TARGET_FORMS_REFERENCES&#45;&gt;TARGET_FORMS -->
<g id="edge30" class="edge">
<title>TARGET_FORMS_REFERENCES:w&#45;&gt;TARGET_FORMS:e</title>
<path fill="none" stroke="#000000" d="M851.141,-357.9413C829.6704,-362.9194 821.8416,-380.0897 809,-404.4569 768.3767,-481.5403 855.6327,-794.4569 768.5,-794.4569"/>
<polygon fill="#000000" stroke="#000000" points="857.5424,-357.2796 865.8702,-360.0378 861.5212,-356.8682 865.5,-356.4569 865.5,-356.4569 865.5,-356.4569 861.5212,-356.8682 865.1298,-352.8759 857.5424,-357.2796 857.5424,-357.2796"/>
<ellipse fill="none" stroke="#000000" cx="854.3594" cy="-357.6086" rx="3.2" ry="3.2"/>
</g>
<!-- TARGET_FORMS_TAGS -->
<g id="node25" class="node">
<title>TARGET_FORMS_TAGS</title>
<g id="a_node25"><a xlink:href="../../tables/TARGET_FORMS_TAGS.html" xlink:title="TARGET_FORMS_TAGS" target="_top">
<polygon fill="#ffffff" stroke="transparent" points="888,-246.9569 888,-307.9569 1057,-307.9569 1057,-246.9569 888,-246.9569"/>
<polygon fill="#f5f5f5" stroke="transparent" points="888.5,-284.4569 888.5,-307.4569 1057.5,-307.4569 1057.5,-284.4569 888.5,-284.4569"/>
<polygon fill="none" stroke="#000000" points="888.5,-284.4569 888.5,-307.4569 1057.5,-307.4569 1057.5,-284.4569 888.5,-284.4569"/>
<text text-anchor="start" x="893.2484" y="-293.5569" font-family="Helvetica,sans-Serif" font-weight="bold" font-size="11.00" fill="#000000">TARGET_FORMS_TAGS</text>
<text text-anchor="start" x="1023.0219" y="-292.5569" font-family="Helvetica,sans-Serif" font-size="11.00" fill="#000000">[table]</text>
<polygon fill="none" stroke="#000000" points="888.5,-265.4569 888.5,-284.4569 1057.5,-284.4569 1057.5,-265.4569 888.5,-265.4569"/>
<text text-anchor="start" x="891.5" y="-271.5569" font-family="Helvetica,sans-Serif" font-size="11.00" fill="#000000">...</text>
<polygon fill="#ffffff" stroke="transparent" points="888.5,-246.4569 888.5,-265.4569 958.5,-265.4569 958.5,-246.4569 888.5,-246.4569"/>
<polygon fill="none" stroke="#000000" points="888.5,-246.4569 888.5,-265.4569 958.5,-265.4569 958.5,-246.4569 888.5,-246.4569"/>
<text text-anchor="start" x="891.5" y="-252.5569" font-family="Helvetica,sans-Serif" font-size="11.00" fill="#000000">&lt; 2</text>
<polygon fill="#ffffff" stroke="transparent" points="958.5,-246.4569 958.5,-265.4569 1020.5,-265.4569 1020.5,-246.4569 958.5,-246.4569"/>
<polygon fill="none" stroke="#000000" points="958.5,-246.4569 958.5,-265.4569 1020.5,-265.4569 1020.5,-246.4569 958.5,-246.4569"/>
<text text-anchor="start" x="985.1105" y="-252.5569" font-family="Helvetica,sans-Serif" font-size="11.00" fill="#000000">8 rows</text>
<polygon fill="#ffffff" stroke="transparent" points="1020.5,-246.4569 1020.5,-265.4569 1057.5,-265.4569 1057.5,-246.4569 1020.5,-246.4569"/>
<polygon fill="none" stroke="#000000" points="1020.5,-246.4569 1020.5,-265.4569 1057.5,-265.4569 1057.5,-246.4569 1020.5,-246.4569"/>
<text text-anchor="start" x="1048.3862" y="-252.5569" font-family="Helvetica,sans-Serif" font-size="11.00" fill="#000000"> &#160;</text>
</a>
</g>
</g>
<!-- TARGET_FORMS_TAGS&#45;&gt;TARGET_FORMS -->
<g id="edge31" class="edge">
<title>TARGET_FORMS_TAGS:w&#45;&gt;TARGET_FORMS:e</title>
<path fill="none" stroke="#000000" d="M873.9809,-274.9902C843.6144,-277.459 828.1338,-288.9373 809,-318.4569 780.1292,-362.9986 821.58,-794.4569 768.5,-794.4569"/>
<polygon fill="#000000" stroke="#000000" points="880.5054,-274.7506 888.6322,-278.0544 884.5027,-274.6037 888.5,-274.4569 888.5,-274.4569 888.5,-274.4569 884.5027,-274.6037 888.3678,-270.8593 880.5054,-274.7506 880.5054,-274.7506"/>
<ellipse fill="none" stroke="#000000" cx="877.3075" cy="-274.8681" rx="3.2" ry="3.2"/>
</g>
<!-- TRACER_SYNTHESIS_REQUESTS -->
<g id="node26" class="node">
<title>TRACER_SYNTHESIS_REQUESTS</title>
<g id="a_node26"><a xlink:href="../../tables/TRACER_SYNTHESIS_REQUESTS.html" xlink:title="TRACER_SYNTHESIS_REQUESTS" target="_top">
<polygon fill="#ffffff" stroke="transparent" points="861,-82.9569 861,-143.9569 1084,-143.9569 1084,-82.9569 861,-82.9569"/>
<polygon fill="#f5f5f5" stroke="transparent" points="861.5,-120.4569 861.5,-143.4569 1084.5,-143.4569 1084.5,-120.4569 861.5,-120.4569"/>
<polygon fill="none" stroke="#000000" points="861.5,-120.4569 861.5,-143.4569 1084.5,-143.4569 1084.5,-120.4569 861.5,-120.4569"/>
<text text-anchor="start" x="866.3578" y="-129.5569" font-family="Helvetica,sans-Serif" font-weight="bold" font-size="11.00" fill="#000000">TRACER_SYNTHESIS_REQUESTS</text>
<text text-anchor="start" x="1050.0219" y="-128.5569" font-family="Helvetica,sans-Serif" font-size="11.00" fill="#000000">[table]</text>
<polygon fill="none" stroke="#000000" points="861.5,-101.4569 861.5,-120.4569 1084.5,-120.4569 1084.5,-101.4569 861.5,-101.4569"/>
<text text-anchor="start" x="864.5" y="-107.5569" font-family="Helvetica,sans-Serif" font-size="11.00" fill="#000000">...</text>
<polygon fill="#ffffff" stroke="transparent" points="861.5,-82.4569 861.5,-101.4569 953.5,-101.4569 953.5,-82.4569 861.5,-82.4569"/>
<polygon fill="none" stroke="#000000" points="861.5,-82.4569 861.5,-101.4569 953.5,-101.4569 953.5,-82.4569 861.5,-82.4569"/>
<text text-anchor="start" x="864.5" y="-88.5569" font-family="Helvetica,sans-Serif" font-size="11.00" fill="#000000">&lt; 12</text>
<polygon fill="#ffffff" stroke="transparent" points="953.5,-82.4569 953.5,-101.4569 1030.5,-101.4569 1030.5,-82.4569 953.5,-82.4569"/>
<polygon fill="none" stroke="#000000" points="953.5,-82.4569 953.5,-101.4569 1030.5,-101.4569 1030.5,-82.4569 953.5,-82.4569"/>
<text text-anchor="start" x="988.9956" y="-88.5569" font-family="Helvetica,sans-Serif" font-size="11.00" fill="#000000">21 rows</text>
<polygon fill="#ffffff" stroke="transparent" points="1030.5,-82.4569 1030.5,-101.4569 1084.5,-101.4569 1084.5,-82.4569 1030.5,-82.4569"/>
<polygon fill="none" stroke="#000000" points="1030.5,-82.4569 1030.5,-101.4569 1084.5,-101.4569 1084.5,-82.4569 1030.5,-82.4569"/>
<text text-anchor="start" x="1065.9053" y="-88.5569" font-family="Helvetica,sans-Serif" font-size="11.00" fill="#000000">2 &gt;</text>
</a>
</g>
</g>
<!-- TRACER_SYNTHESIS_REQUESTS&#45;&gt;TARGET_FORMS -->
<g id="edge32" class="edge">
<title>TRACER_SYNTHESIS_REQUESTS:w&#45;&gt;TARGET_FORMS:e</title>
<path fill="none" stroke="#000000" d="M847.0721,-112.0496C827.8919,-116.8397 820.2708,-132.1708 809,-154.4569 776.8431,-218.0412 839.7534,-794.4569 768.5,-794.4569"/>
<polygon fill="#000000" stroke="#000000" points="853.5483,-111.3347 861.895,-114.0351 857.5242,-110.8958 861.5,-110.4569 861.5,-110.4569 861.5,-110.4569 857.5242,-110.8958 861.105,-106.8786 853.5483,-111.3347 853.5483,-111.3347"/>
<ellipse fill="none" stroke="#000000" cx="850.3676" cy="-111.6859" rx="3.2" ry="3.2"/>
</g>
<!-- TRACER_SYNTHESIS_REQUESTS&#45;&gt;TARGETS -->
<g id="edge33" class="edge">
<title>TRACER_SYNTHESIS_REQUESTS:w&#45;&gt;TARGETS:e</title>
<path fill="none" stroke="#000000" d="M847.0935,-110.6644C471.2585,-121.5931 491.962,-560.4569 106,-560.4569"/>
<polygon fill="#000000" stroke="#000000" points="853.5008,-110.5722 861.5519,-114.0565 857.5004,-110.5145 861.5,-110.4569 861.5,-110.4569 861.5,-110.4569 857.5004,-110.5145 861.4481,-106.8572 853.5008,-110.5722 853.5008,-110.5722"/>
<ellipse fill="none" stroke="#000000" cx="850.3012" cy="-110.6183" rx="3.2" ry="3.2"/>
</g>
</g>
</svg>
