<?xml version="1.0" encoding="UTF-8" standalone="no"?>
<!DOCTYPE svg PUBLIC "-//W3C//DTD SVG 1.1//EN"
 "http://www.w3.org/Graphics/SVG/1.1/DTD/svg11.dtd">
<!-- Generated by graphviz version 2.40.1 (20161225.0304)
 -->
<!-- Title: oneDegreeRelationshipsDiagram Pages: 1 -->
<svg width="820pt" height="385pt"
 viewBox="0.00 0.00 820.00 384.70" xmlns="http://www.w3.org/2000/svg" xmlns:xlink="http://www.w3.org/1999/xlink">
<g id="graph0" class="graph" transform="scale(1 1) rotate(0) translate(4 380.7)">
<title>oneDegreeRelationshipsDiagram</title>
<polygon fill="#ffffff" stroke="transparent" points="-4,4 -4,-380.7 816,-380.7 816,4 -4,4"/>
<text text-anchor="middle" x="72.4936" y="-7.3" font-family="Helvetica,sans-Serif" font-size="11.00" fill="#000000">Generated by SchemaSpy</text>
<!-- TARGET_FORMS_ISOFORM_VARIANTS -->
<g id="node1" class="node">
<title>TARGET_FORMS_ISOFORM_VARIANTS</title>
<g id="a_node1"><a xlink:href="../../tables/TARGET_FORMS_ISOFORM_VARIANTS.html" xlink:title="TARGET_FORMS_ISOFORM_VARIANTS" target="_top">
<polygon fill="#ffffff" stroke="transparent" points="358,-150.7 358,-372.7 804,-372.7 804,-150.7 358,-150.7"/>
<polygon fill="#f5f5f5" stroke="transparent" points="360,-347.7 360,-370.7 802,-370.7 802,-347.7 360,-347.7"/>
<polygon fill="none" stroke="#000000" points="360,-347.7 360,-370.7 802,-370.7 802,-347.7 360,-347.7"/>
<text text-anchor="start" x="365" y="-356.8" font-family="Helvetica,sans-Serif" font-weight="bold" font-size="11.00" fill="#000000">TARGET_FORMS_ISOFORM_VARIANTS</text>
<text text-anchor="start" x="767.0437" y="-355.8" font-family="Helvetica,sans-Serif" font-size="11.00" fill="#000000">[table]</text>
<polygon fill="none" stroke="#000000" points="360,-325.7 360,-347.7 631,-347.7 631,-325.7 360,-325.7"/>
<image xlink:href="../../images/primaryKeys.png" width="11px" height="12px" preserveAspectRatio="xMinYMin meet" x="365" y="-342.7"/>
<text text-anchor="start" x="380" y="-332.8" font-family="Helvetica,sans-Serif" font-size="11.00" fill="#000000">ID</text>
<polygon fill="none" stroke="#000000" points="631,-325.7 631,-347.7 802,-347.7 802,-325.7 631,-325.7"/>
<text text-anchor="start" x="634" y="-333.4" font-family="Helvetica,sans-Serif" font-size="11.00" fill="#000000">number[19]</text>
<polygon fill="none" stroke="#000000" points="360,-303.7 360,-325.7 631,-325.7 631,-303.7 360,-303.7"/>
<text text-anchor="start" x="380" y="-310.8" font-family="Helvetica,sans-Serif" font-size="11.00" fill="#000000">CREATED_AT</text>
<polygon fill="none" stroke="#000000" points="631,-303.7 631,-325.7 802,-325.7 802,-303.7 631,-303.7"/>
<text text-anchor="start" x="633.9896" y="-311.4" font-family="Helvetica,sans-Serif" font-size="11.00" fill="#000000">timestamp(6) with time zone[13,6]</text>
<polygon fill="none" stroke="#000000" points="360,-281.7 360,-303.7 631,-303.7 631,-281.7 360,-281.7"/>
<text text-anchor="start" x="380" y="-288.8" font-family="Helvetica,sans-Serif" font-size="11.00" fill="#000000">CREATED_BY</text>
<polygon fill="none" stroke="#000000" points="631,-281.7 631,-303.7 802,-303.7 802,-281.7 631,-281.7"/>
<text text-anchor="start" x="634" y="-289.4" font-family="Helvetica,sans-Serif" font-size="11.00" fill="#000000">number[19]</text>
<polygon fill="none" stroke="#000000" points="360,-259.7 360,-281.7 631,-281.7 631,-259.7 360,-259.7"/>
<text text-anchor="start" x="380" y="-266.8" font-family="Helvetica,sans-Serif" font-size="11.00" fill="#000000">UPDATED_AT</text>
<polygon fill="none" stroke="#000000" points="631,-259.7 631,-281.7 802,-281.7 802,-259.7 631,-259.7"/>
<text text-anchor="start" x="633.9896" y="-267.4" font-family="Helvetica,sans-Serif" font-size="11.00" fill="#000000">timestamp(6) with time zone[13,6]</text>
<polygon fill="none" stroke="#000000" points="360,-237.7 360,-259.7 631,-259.7 631,-237.7 360,-237.7"/>
<text text-anchor="start" x="380" y="-244.8" font-family="Helvetica,sans-Serif" font-size="11.00" fill="#000000">UPDATED_BY</text>
<polygon fill="none" stroke="#000000" points="631,-237.7 631,-259.7 802,-259.7 802,-237.7 631,-237.7"/>
<text text-anchor="start" x="634" y="-245.4" font-family="Helvetica,sans-Serif" font-size="11.00" fill="#000000">number[19]</text>
<polygon fill="none" stroke="#000000" points="360,-215.7 360,-237.7 631,-237.7 631,-215.7 360,-215.7"/>
<image xlink:href="../../images/primaryKeys.png" width="11px" height="12px" preserveAspectRatio="xMinYMin meet" x="365" y="-232.7"/>
<text text-anchor="start" x="380" y="-222.8" font-family="Helvetica,sans-Serif" font-size="11.00" fill="#000000">TARGET_FORM_ID</text>
<polygon fill="none" stroke="#000000" points="631,-215.7 631,-237.7 802,-237.7 802,-215.7 631,-215.7"/>
<text text-anchor="start" x="634" y="-223.4" font-family="Helvetica,sans-Serif" font-size="11.00" fill="#000000">number[19]</text>
<polygon fill="none" stroke="#000000" points="360,-193.7 360,-215.7 631,-215.7 631,-193.7 360,-193.7"/>
<image xlink:href="../../images/primaryKeys.png" width="11px" height="12px" preserveAspectRatio="xMinYMin meet" x="365" y="-210.7"/>
<text text-anchor="start" x="380" y="-200.8" font-family="Helvetica,sans-Serif" font-size="11.00" fill="#000000">ISOFORM_VARIANT_ID</text>
<polygon fill="none" stroke="#000000" points="631,-193.7 631,-215.7 802,-215.7 802,-193.7 631,-193.7"/>
<text text-anchor="start" x="634" y="-201.4" font-family="Helvetica,sans-Serif" font-size="11.00" fill="#000000">number[19]</text>
<polygon fill="none" stroke="#000000" points="360,-171.7 360,-193.7 631,-193.7 631,-171.7 360,-171.7"/>
<text text-anchor="start" x="380" y="-178.8" font-family="Helvetica,sans-Serif" font-size="11.00" fill="#000000">IS_INCLUDED</text>
<polygon fill="none" stroke="#000000" points="631,-171.7 631,-193.7 802,-193.7 802,-171.7 631,-171.7"/>
<text text-anchor="start" x="634" y="-179.4" font-family="Helvetica,sans-Serif" font-size="11.00" fill="#000000">number[1]</text>
<polygon fill="#ffffff" stroke="transparent" points="360,-152.7 360,-171.7 481,-171.7 481,-152.7 360,-152.7"/>
<polygon fill="none" stroke="#000000" points="360,-152.7 360,-171.7 481,-171.7 481,-152.7 360,-152.7"/>
<text text-anchor="start" x="363" y="-158.8" font-family="Helvetica,sans-Serif" font-size="11.00" fill="#000000">&lt; 2</text>
<polygon fill="#ffffff" stroke="transparent" points="481,-152.7 481,-171.7 631,-171.7 631,-152.7 481,-152.7"/>
<polygon fill="none" stroke="#000000" points="481,-152.7 481,-171.7 631,-171.7 631,-152.7 481,-152.7"/>
<text text-anchor="start" x="583.3807" y="-158.8" font-family="Helvetica,sans-Serif" font-size="11.00" fill="#000000">108 rows</text>
<polygon fill="#ffffff" stroke="transparent" points="631,-152.7 631,-171.7 802,-171.7 802,-152.7 631,-152.7"/>
<polygon fill="none" stroke="#000000" points="631,-152.7 631,-171.7 802,-171.7 802,-152.7 631,-152.7"/>
<text text-anchor="start" x="783.4053" y="-158.8" font-family="Helvetica,sans-Serif" font-size="11.00" fill="#000000">0 &gt;</text>
<polygon fill="none" stroke="#000000" stroke-width="2" points="359,-151.7 359,-371.7 803,-371.7 803,-151.7 359,-151.7"/>
</a>
</g>
</g>
<!-- ISOFORM_VARIANTS -->
<g id="node2" class="node">
<title>ISOFORM_VARIANTS</title>
<g id="a_node2"><a xlink:href="../../tables/ISOFORM_VARIANTS.html" xlink:title="ISOFORM_VARIANTS" target="_top">
<polygon fill="#ffffff" stroke="transparent" points="79.5,-38.2 79.5,-143.2 237.5,-143.2 237.5,-38.2 79.5,-38.2"/>
<polygon fill="#f5f5f5" stroke="transparent" points="79.5,-119.7 79.5,-142.7 237.5,-142.7 237.5,-119.7 79.5,-119.7"/>
<polygon fill="none" stroke="#000000" points="79.5,-119.7 79.5,-142.7 237.5,-142.7 237.5,-119.7 79.5,-119.7"/>
<text text-anchor="start" x="84.5" y="-128.8" font-family="Helvetica,sans-Serif" font-weight="bold" font-size="11.00" fill="#000000">ISOFORM_VARIANTS</text>
<text text-anchor="start" x="202.5437" y="-127.8" font-family="Helvetica,sans-Serif" font-size="11.00" fill="#000000">[table]</text>
<polygon fill="none" stroke="#000000" points="79.5,-97.7 79.5,-119.7 237.5,-119.7 237.5,-97.7 79.5,-97.7"/>
<image xlink:href="../../images/primaryKeys.png" width="11px" height="12px" preserveAspectRatio="xMinYMin meet" x="84.5" y="-114.7"/>
<text text-anchor="start" x="99.5" y="-104.8" font-family="Helvetica,sans-Serif" font-size="11.00" fill="#000000">ID</text>
<polygon fill="none" stroke="#000000" points="79.5,-75.7 79.5,-97.7 237.5,-97.7 237.5,-75.7 79.5,-75.7"/>
<image xlink:href="../../images/foreignKeys.png" width="11px" height="12px" preserveAspectRatio="xMinYMin meet" x="84.5" y="-92.7"/>
<text text-anchor="start" x="99.5" y="-82.8" font-family="Helvetica,sans-Serif" font-size="11.00" fill="#000000">ISOFORM_ID</text>
<polygon fill="none" stroke="#000000" points="79.5,-56.7 79.5,-75.7 237.5,-75.7 237.5,-56.7 79.5,-56.7"/>
<text text-anchor="start" x="82.5" y="-62.8" font-family="Helvetica,sans-Serif" font-size="11.00" fill="#000000">...</text>
<polygon fill="#ffffff" stroke="transparent" points="79.5,-37.7 79.5,-56.7 128.5,-56.7 128.5,-37.7 79.5,-37.7"/>
<polygon fill="none" stroke="#000000" points="79.5,-37.7 79.5,-56.7 128.5,-56.7 128.5,-37.7 79.5,-37.7"/>
<text text-anchor="start" x="82.5" y="-43.8" font-family="Helvetica,sans-Serif" font-size="11.00" fill="#000000">&lt; 1</text>
<polygon fill="#ffffff" stroke="transparent" points="128.5,-37.7 128.5,-56.7 201.5,-56.7 201.5,-37.7 128.5,-37.7"/>
<polygon fill="none" stroke="#000000" points="128.5,-37.7 128.5,-56.7 201.5,-56.7 201.5,-37.7 128.5,-37.7"/>
<text text-anchor="start" x="144.7089" y="-43.8" font-family="Helvetica,sans-Serif" font-size="11.00" fill="#000000">4,858 rows</text>
<polygon fill="#ffffff" stroke="transparent" points="201.5,-37.7 201.5,-56.7 237.5,-56.7 237.5,-37.7 201.5,-37.7"/>
<polygon fill="none" stroke="#000000" points="201.5,-37.7 201.5,-56.7 237.5,-56.7 237.5,-37.7 201.5,-37.7"/>
<text text-anchor="start" x="218.9053" y="-43.8" font-family="Helvetica,sans-Serif" font-size="11.00" fill="#000000">3 &gt;</text>
</a>
</g>
</g>
<!-- TARGET_FORMS_ISOFORM_VARIANTS&#45;&gt;ISOFORM_VARIANTS -->
<g id="edge1" class="edge">
<title>TARGET_FORMS_ISOFORM_VARIANTS:w&#45;&gt;ISOFORM_VARIANTS:e</title>
<path fill="none" stroke="#000000" d="M345.789,-200.8439C332.908,-191.7563 335.0026,-168.6397 317,-153.7 285.7561,-127.7719 278.101,-108.7 237.5,-108.7"/>
<polygon fill="#000000" stroke="#000000" points="352.2792,-202.6049 359.0572,-208.1744 356.1396,-203.6525 360,-204.7 360,-204.7 360,-204.7 356.1396,-203.6525 360.9428,-201.2256 352.2792,-202.6049 352.2792,-202.6049"/>
<ellipse fill="none" stroke="#000000" cx="349.1909" cy="-201.7669" rx="3.2" ry="3.2"/>
</g>
<!-- TARGET_FORMS -->
<g id="node3" class="node">
<title>TARGET_FORMS</title>
<g id="a_node3"><a xlink:href="../../tables/TARGET_FORMS.html" xlink:title="TARGET_FORMS" target="_top">
<polygon fill="#ffffff" stroke="transparent" points="8,-164.2 8,-357.2 309,-357.2 309,-164.2 8,-164.2"/>
<polygon fill="#f5f5f5" stroke="transparent" points="8.5,-333.7 8.5,-356.7 309.5,-356.7 309.5,-333.7 8.5,-333.7"/>
<polygon fill="none" stroke="#000000" points="8.5,-333.7 8.5,-356.7 309.5,-356.7 309.5,-333.7 8.5,-333.7"/>
<text text-anchor="start" x="13.5" y="-342.8" font-family="Helvetica,sans-Serif" font-weight="bold" font-size="11.00" fill="#000000">TARGET_FORMS</text>
<text text-anchor="start" x="274.5437" y="-341.8" font-family="Helvetica,sans-Serif" font-size="11.00" fill="#000000">[table]</text>
<polygon fill="none" stroke="#000000" points="8.5,-311.7 8.5,-333.7 309.5,-333.7 309.5,-311.7 8.5,-311.7"/>
<image xlink:href="../../images/primaryKeys.png" width="11px" height="12px" preserveAspectRatio="xMinYMin meet" x="13.5" y="-328.7"/>
<text text-anchor="start" x="28.5" y="-318.8" font-family="Helvetica,sans-Serif" font-size="11.00" fill="#000000">ID</text>
<polygon fill="none" stroke="#000000" points="8.5,-289.7 8.5,-311.7 309.5,-311.7 309.5,-289.7 8.5,-289.7"/>
<image xlink:href="../../images/foreignKeys.png" width="11px" height="12px" preserveAspectRatio="xMinYMin meet" x="13.5" y="-306.7"/>
<text text-anchor="start" x="28.5" y="-296.8" font-family="Helvetica,sans-Serif" font-size="11.00" fill="#000000">TARGET_ID</text>
<polygon fill="none" stroke="#000000" points="8.5,-267.7 8.5,-289.7 309.5,-289.7 309.5,-267.7 8.5,-267.7"/>
<image xlink:href="../../images/foreignKeys.png" width="11px" height="12px" preserveAspectRatio="xMinYMin meet" x="13.5" y="-284.7"/>
<text text-anchor="start" x="28.5" y="-274.8" font-family="Helvetica,sans-Serif" font-size="11.00" fill="#000000">SPECIES_ID</text>
<polygon fill="none" stroke="#000000" points="8.5,-245.7 8.5,-267.7 309.5,-267.7 309.5,-245.7 8.5,-245.7"/>
<image xlink:href="../../images/foreignKeys.png" width="11px" height="12px" preserveAspectRatio="xMinYMin meet" x="13.5" y="-262.7"/>
<text text-anchor="start" x="28.5" y="-252.8" font-family="Helvetica,sans-Serif" font-size="11.00" fill="#000000">POST_TRANSLATIONAL_MODIFICATION_ID</text>
<polygon fill="none" stroke="#000000" points="8.5,-223.7 8.5,-245.7 309.5,-245.7 309.5,-223.7 8.5,-223.7"/>
<image xlink:href="../../images/foreignKeys.png" width="11px" height="12px" preserveAspectRatio="xMinYMin meet" x="13.5" y="-240.7"/>
<text text-anchor="start" x="28.5" y="-230.8" font-family="Helvetica,sans-Serif" font-size="11.00" fill="#000000">ISOFORM_ID</text>
<polygon fill="none" stroke="#000000" points="8.5,-201.7 8.5,-223.7 309.5,-223.7 309.5,-201.7 8.5,-201.7"/>
<image xlink:href="../../images/foreignKeys.png" width="11px" height="12px" preserveAspectRatio="xMinYMin meet" x="13.5" y="-218.7"/>
<text text-anchor="start" x="28.5" y="-208.8" font-family="Helvetica,sans-Serif" font-size="11.00" fill="#000000">EXPRESSION_SYSTEM_ID</text>
<polygon fill="none" stroke="#000000" points="8.5,-182.7 8.5,-201.7 309.5,-201.7 309.5,-182.7 8.5,-182.7"/>
<text text-anchor="start" x="11.5" y="-188.8" font-family="Helvetica,sans-Serif" font-size="11.00" fill="#000000">...</text>
<polygon fill="#ffffff" stroke="transparent" points="8.5,-163.7 8.5,-182.7 130.5,-182.7 130.5,-163.7 8.5,-163.7"/>
<polygon fill="none" stroke="#000000" points="8.5,-163.7 8.5,-182.7 130.5,-182.7 130.5,-163.7 8.5,-163.7"/>
<text text-anchor="start" x="11.5" y="-169.8" font-family="Helvetica,sans-Serif" font-size="11.00" fill="#000000">&lt; 5</text>
<polygon fill="#ffffff" stroke="transparent" points="130.5,-163.7 130.5,-182.7 231.5,-182.7 231.5,-163.7 130.5,-163.7"/>
<polygon fill="none" stroke="#000000" points="130.5,-163.7 130.5,-182.7 231.5,-182.7 231.5,-163.7 130.5,-163.7"/>
<text text-anchor="start" x="183.8807" y="-169.8" font-family="Helvetica,sans-Serif" font-size="11.00" fill="#000000">541 rows</text>
<polygon fill="#ffffff" stroke="transparent" points="231.5,-163.7 231.5,-182.7 309.5,-182.7 309.5,-163.7 231.5,-163.7"/>
<polygon fill="none" stroke="#000000" points="231.5,-163.7 231.5,-182.7 309.5,-182.7 309.5,-163.7 231.5,-163.7"/>
<text text-anchor="start" x="284.7904" y="-169.8" font-family="Helvetica,sans-Serif" font-size="11.00" fill="#000000">18 &gt;</text>
</a>
</g>
</g>
<!-- TARGET_FORMS_ISOFORM_VARIANTS&#45;&gt;TARGET_FORMS -->
<g id="edge2" class="edge">
<title>TARGET_FORMS_ISOFORM_VARIANTS:w&#45;&gt;TARGET_FORMS:e</title>
<path fill="none" stroke="#000000" d="M345.9659,-230.825C321.7993,-249.2 351.6837,-322.7 309.5,-322.7"/>
<polygon fill="#000000" stroke="#000000" points="352.3247,-228.956 361.0152,-230.1539 356.1623,-227.828 360,-226.7 360,-226.7 360,-226.7 356.1623,-227.828 358.9848,-223.2461 352.3247,-228.956 352.3247,-228.956"/>
<ellipse fill="none" stroke="#000000" cx="349.2545" cy="-229.8584" rx="3.2" ry="3.2"/>
</g>
</g>
</svg>
