<?xml version="1.0" encoding="UTF-8" standalone="no"?>
<!DOCTYPE svg PUBLIC "-//W3C//DTD SVG 1.1//EN"
 "http://www.w3.org/Graphics/SVG/1.1/DTD/svg11.dtd">
<!-- Generated by graphviz version 2.40.1 (20161225.0304)
 -->
<!-- Title: oneDegreeRelationshipsDiagram Pages: 1 -->
<svg width="944pt" height="300pt"
 viewBox="0.00 0.00 944.00 299.70" xmlns="http://www.w3.org/2000/svg" xmlns:xlink="http://www.w3.org/1999/xlink">
<g id="graph0" class="graph" transform="scale(1 1) rotate(0) translate(4 295.7)">
<title>oneDegreeRelationshipsDiagram</title>
<polygon fill="#ffffff" stroke="transparent" points="-4,4 -4,-295.7 940,-295.7 940,4 -4,4"/>
<text text-anchor="middle" x="72.4936" y="-7.3" font-family="Helvetica,sans-Serif" font-size="11.00" fill="#000000">Generated by SchemaSpy</text>
<!-- TARGETS -->
<g id="node1" class="node">
<title>TARGETS</title>
<g id="a_node1"><a xlink:href="../../tables/TARGETS.html" xlink:title="TARGETS" target="_top">
<polygon fill="#ffffff" stroke="transparent" points="222,-86.2 222,-235.2 472,-235.2 472,-86.2 222,-86.2"/>
<polygon fill="#f5f5f5" stroke="transparent" points="222,-211.7 222,-234.7 472,-234.7 472,-211.7 222,-211.7"/>
<polygon fill="none" stroke="#000000" points="222,-211.7 222,-234.7 472,-234.7 472,-211.7 222,-211.7"/>
<text text-anchor="start" x="227" y="-220.8" font-family="Helvetica,sans-Serif" font-weight="bold" font-size="11.00" fill="#000000">TARGETS</text>
<text text-anchor="start" x="437.0437" y="-219.8" font-family="Helvetica,sans-Serif" font-size="11.00" fill="#000000">[table]</text>
<polygon fill="none" stroke="#000000" points="222,-189.7 222,-211.7 472,-211.7 472,-189.7 222,-189.7"/>
<image xlink:href="../../images/primaryKeys.png" width="11px" height="12px" preserveAspectRatio="xMinYMin meet" x="227" y="-206.7"/>
<text text-anchor="start" x="242" y="-196.8" font-family="Helvetica,sans-Serif" font-size="11.00" fill="#000000">ID</text>
<polygon fill="none" stroke="#000000" points="222,-167.7 222,-189.7 472,-189.7 472,-167.7 222,-167.7"/>
<image xlink:href="../../images/foreignKeys.png" width="11px" height="12px" preserveAspectRatio="xMinYMin meet" x="227" y="-184.7"/>
<text text-anchor="start" x="242" y="-174.8" font-family="Helvetica,sans-Serif" font-size="11.00" fill="#000000">PROJECT_ID</text>
<polygon fill="none" stroke="#000000" points="222,-145.7 222,-167.7 472,-167.7 472,-145.7 222,-145.7"/>
<image xlink:href="../../images/foreignKeys.png" width="11px" height="12px" preserveAspectRatio="xMinYMin meet" x="227" y="-162.7"/>
<text text-anchor="start" x="242" y="-152.8" font-family="Helvetica,sans-Serif" font-size="11.00" fill="#000000">TARGET_CATEGORY_ID</text>
<polygon fill="none" stroke="#000000" points="222,-123.7 222,-145.7 472,-145.7 472,-123.7 222,-123.7"/>
<image xlink:href="../../images/foreignKeys.png" width="11px" height="12px" preserveAspectRatio="xMinYMin meet" x="227" y="-140.7"/>
<text text-anchor="start" x="242" y="-130.8" font-family="Helvetica,sans-Serif" font-size="11.00" fill="#000000">THERAPEUTIC_ID</text>
<polygon fill="none" stroke="#000000" points="222,-104.7 222,-123.7 472,-123.7 472,-104.7 222,-104.7"/>
<text text-anchor="start" x="225" y="-110.8" font-family="Helvetica,sans-Serif" font-size="11.00" fill="#000000">...</text>
<polygon fill="#ffffff" stroke="transparent" points="222,-85.7 222,-104.7 319,-104.7 319,-85.7 222,-85.7"/>
<polygon fill="none" stroke="#000000" points="222,-85.7 222,-104.7 319,-104.7 319,-85.7 222,-85.7"/>
<text text-anchor="start" x="225" y="-91.8" font-family="Helvetica,sans-Serif" font-size="11.00" fill="#000000">&lt; 3</text>
<polygon fill="#ffffff" stroke="transparent" points="319,-85.7 319,-104.7 407,-104.7 407,-85.7 319,-85.7"/>
<polygon fill="none" stroke="#000000" points="319,-85.7 319,-104.7 407,-104.7 407,-85.7 319,-85.7"/>
<text text-anchor="start" x="359.3807" y="-91.8" font-family="Helvetica,sans-Serif" font-size="11.00" fill="#000000">146 rows</text>
<polygon fill="#ffffff" stroke="transparent" points="407,-85.7 407,-104.7 472,-104.7 472,-85.7 407,-85.7"/>
<polygon fill="none" stroke="#000000" points="407,-85.7 407,-104.7 472,-104.7 472,-85.7 407,-85.7"/>
<text text-anchor="start" x="447.2904" y="-91.8" font-family="Helvetica,sans-Serif" font-size="11.00" fill="#000000">10 &gt;</text>
</a>
</g>
</g>
<!-- TARGET_CATEGORIES -->
<g id="node2" class="node">
<title>TARGET_CATEGORIES</title>
<g id="a_node2"><a xlink:href="../../tables/TARGET_CATEGORIES.html" xlink:title="TARGET_CATEGORIES" target="_top">
<polygon fill="#ffffff" stroke="transparent" points="8,-38.2 8,-143.2 173,-143.2 173,-38.2 8,-38.2"/>
<polygon fill="#f5f5f5" stroke="transparent" points="8.5,-119.7 8.5,-142.7 173.5,-142.7 173.5,-119.7 8.5,-119.7"/>
<polygon fill="none" stroke="#000000" points="8.5,-119.7 8.5,-142.7 173.5,-142.7 173.5,-119.7 8.5,-119.7"/>
<text text-anchor="start" x="13.0798" y="-128.8" font-family="Helvetica,sans-Serif" font-weight="bold" font-size="11.00" fill="#000000">TARGET_CATEGORIES</text>
<text text-anchor="start" x="139.0219" y="-127.8" font-family="Helvetica,sans-Serif" font-size="11.00" fill="#000000">[table]</text>
<polygon fill="none" stroke="#000000" points="8.5,-97.7 8.5,-119.7 173.5,-119.7 173.5,-97.7 8.5,-97.7"/>
<image xlink:href="../../images/primaryKeys.png" width="11px" height="12px" preserveAspectRatio="xMinYMin meet" x="13.5" y="-114.7"/>
<text text-anchor="start" x="28.5" y="-104.8" font-family="Helvetica,sans-Serif" font-size="11.00" fill="#000000">ID</text>
<polygon fill="none" stroke="#000000" points="8.5,-75.7 8.5,-97.7 173.5,-97.7 173.5,-75.7 8.5,-75.7"/>
<image xlink:href="../../images/primaryKeys.png" width="11px" height="12px" preserveAspectRatio="xMinYMin meet" x="13.5" y="-92.7"/>
<text text-anchor="start" x="28.5" y="-82.8" font-family="Helvetica,sans-Serif" font-size="11.00" fill="#000000">TITLE</text>
<polygon fill="none" stroke="#000000" points="8.5,-56.7 8.5,-75.7 173.5,-75.7 173.5,-56.7 8.5,-56.7"/>
<text text-anchor="start" x="11.5" y="-62.8" font-family="Helvetica,sans-Serif" font-size="11.00" fill="#000000">...</text>
<polygon fill="#ffffff" stroke="transparent" points="8.5,-37.7 8.5,-56.7 64.5,-56.7 64.5,-37.7 8.5,-37.7"/>
<polygon fill="none" stroke="#000000" points="8.5,-37.7 8.5,-56.7 64.5,-56.7 64.5,-37.7 8.5,-37.7"/>
<text text-anchor="start" x="11.5" y="-43.8" font-family="Helvetica,sans-Serif" font-size="11.00" fill="#000000"> &#160;</text>
<polygon fill="#ffffff" stroke="transparent" points="64.5,-37.7 64.5,-56.7 130.5,-56.7 130.5,-37.7 64.5,-37.7"/>
<polygon fill="none" stroke="#000000" points="64.5,-37.7 64.5,-56.7 130.5,-56.7 130.5,-37.7 64.5,-37.7"/>
<text text-anchor="start" x="88.9956" y="-43.8" font-family="Helvetica,sans-Serif" font-size="11.00" fill="#000000">11 rows</text>
<polygon fill="#ffffff" stroke="transparent" points="130.5,-37.7 130.5,-56.7 173.5,-56.7 173.5,-37.7 130.5,-37.7"/>
<polygon fill="none" stroke="#000000" points="130.5,-37.7 130.5,-56.7 173.5,-56.7 173.5,-37.7 130.5,-37.7"/>
<text text-anchor="start" x="154.9053" y="-43.8" font-family="Helvetica,sans-Serif" font-size="11.00" fill="#000000">3 &gt;</text>
</a>
</g>
</g>
<!-- TARGETS&#45;&gt;TARGET_CATEGORIES -->
<g id="edge1" class="edge">
<title>TARGETS:w&#45;&gt;TARGET_CATEGORIES:e</title>
<path fill="none" stroke="#000000" d="M208.0656,-151.5632C194.8577,-139.1805 197.6672,-108.7 173.5,-108.7"/>
<polygon fill="#000000" stroke="#000000" points="214.4938,-153.9328 220.7548,-160.0778 218.2469,-155.3164 222,-156.7 222,-156.7 222,-156.7 218.2469,-155.3164 223.2452,-153.3222 214.4938,-153.9328 214.4938,-153.9328"/>
<ellipse fill="none" stroke="#000000" cx="211.4913" cy="-152.826" rx="3.2" ry="3.2"/>
</g>
<!-- TARGETS_TARGET_CATEGORIES -->
<g id="node3" class="node">
<title>TARGETS_TARGET_CATEGORIES</title>
<g id="a_node3"><a xlink:href="../../tables/TARGETS_TARGET_CATEGORIES.html" xlink:title="TARGETS_TARGET_CATEGORIES" target="_top">
<polygon fill="#ffffff" stroke="transparent" points="521,-87.7 521,-287.7 928,-287.7 928,-87.7 521,-87.7"/>
<polygon fill="#f5f5f5" stroke="transparent" points="523.5,-262.7 523.5,-285.7 926.5,-285.7 926.5,-262.7 523.5,-262.7"/>
<polygon fill="none" stroke="#000000" points="523.5,-262.7 523.5,-285.7 926.5,-285.7 926.5,-262.7 523.5,-262.7"/>
<text text-anchor="start" x="528.5" y="-271.8" font-family="Helvetica,sans-Serif" font-weight="bold" font-size="11.00" fill="#000000">TARGETS_TARGET_CATEGORIES</text>
<text text-anchor="start" x="891.5437" y="-270.8" font-family="Helvetica,sans-Serif" font-size="11.00" fill="#000000">[table]</text>
<polygon fill="none" stroke="#000000" points="523.5,-240.7 523.5,-262.7 755.5,-262.7 755.5,-240.7 523.5,-240.7"/>
<image xlink:href="../../images/primaryKeys.png" width="11px" height="12px" preserveAspectRatio="xMinYMin meet" x="528.5" y="-257.7"/>
<text text-anchor="start" x="543.5" y="-247.8" font-family="Helvetica,sans-Serif" font-size="11.00" fill="#000000">ID</text>
<polygon fill="none" stroke="#000000" points="755.5,-240.7 755.5,-262.7 926.5,-262.7 926.5,-240.7 755.5,-240.7"/>
<text text-anchor="start" x="758.5" y="-248.4" font-family="Helvetica,sans-Serif" font-size="11.00" fill="#000000">number[19]</text>
<polygon fill="none" stroke="#000000" points="523.5,-218.7 523.5,-240.7 755.5,-240.7 755.5,-218.7 523.5,-218.7"/>
<text text-anchor="start" x="543.5" y="-225.8" font-family="Helvetica,sans-Serif" font-size="11.00" fill="#000000">CREATED_AT</text>
<polygon fill="none" stroke="#000000" points="755.5,-218.7 755.5,-240.7 926.5,-240.7 926.5,-218.7 755.5,-218.7"/>
<text text-anchor="start" x="758.4896" y="-226.4" font-family="Helvetica,sans-Serif" font-size="11.00" fill="#000000">timestamp(6) with time zone[13,6]</text>
<polygon fill="none" stroke="#000000" points="523.5,-196.7 523.5,-218.7 755.5,-218.7 755.5,-196.7 523.5,-196.7"/>
<text text-anchor="start" x="543.5" y="-203.8" font-family="Helvetica,sans-Serif" font-size="11.00" fill="#000000">CREATED_BY</text>
<polygon fill="none" stroke="#000000" points="755.5,-196.7 755.5,-218.7 926.5,-218.7 926.5,-196.7 755.5,-196.7"/>
<text text-anchor="start" x="758.5" y="-204.4" font-family="Helvetica,sans-Serif" font-size="11.00" fill="#000000">number[19]</text>
<polygon fill="none" stroke="#000000" points="523.5,-174.7 523.5,-196.7 755.5,-196.7 755.5,-174.7 523.5,-174.7"/>
<text text-anchor="start" x="543.5" y="-181.8" font-family="Helvetica,sans-Serif" font-size="11.00" fill="#000000">UPDATED_AT</text>
<polygon fill="none" stroke="#000000" points="755.5,-174.7 755.5,-196.7 926.5,-196.7 926.5,-174.7 755.5,-174.7"/>
<text text-anchor="start" x="758.4896" y="-182.4" font-family="Helvetica,sans-Serif" font-size="11.00" fill="#000000">timestamp(6) with time zone[13,6]</text>
<polygon fill="none" stroke="#000000" points="523.5,-152.7 523.5,-174.7 755.5,-174.7 755.5,-152.7 523.5,-152.7"/>
<text text-anchor="start" x="543.5" y="-159.8" font-family="Helvetica,sans-Serif" font-size="11.00" fill="#000000">UPDATED_BY</text>
<polygon fill="none" stroke="#000000" points="755.5,-152.7 755.5,-174.7 926.5,-174.7 926.5,-152.7 755.5,-152.7"/>
<text text-anchor="start" x="758.5" y="-160.4" font-family="Helvetica,sans-Serif" font-size="11.00" fill="#000000">number[19]</text>
<polygon fill="none" stroke="#000000" points="523.5,-130.7 523.5,-152.7 755.5,-152.7 755.5,-130.7 523.5,-130.7"/>
<image xlink:href="../../images/foreignKeys.png" width="11px" height="12px" preserveAspectRatio="xMinYMin meet" x="528.5" y="-147.7"/>
<text text-anchor="start" x="543.5" y="-137.8" font-family="Helvetica,sans-Serif" font-size="11.00" fill="#000000">TARGET_ID</text>
<polygon fill="none" stroke="#000000" points="755.5,-130.7 755.5,-152.7 926.5,-152.7 926.5,-130.7 755.5,-130.7"/>
<text text-anchor="start" x="758.5" y="-138.4" font-family="Helvetica,sans-Serif" font-size="11.00" fill="#000000">number[19]</text>
<polygon fill="none" stroke="#000000" points="523.5,-108.7 523.5,-130.7 755.5,-130.7 755.5,-108.7 523.5,-108.7"/>
<image xlink:href="../../images/foreignKeys.png" width="11px" height="12px" preserveAspectRatio="xMinYMin meet" x="528.5" y="-125.7"/>
<text text-anchor="start" x="543.5" y="-115.8" font-family="Helvetica,sans-Serif" font-size="11.00" fill="#000000">TARGET_CATEGORY_ID</text>
<polygon fill="none" stroke="#000000" points="755.5,-108.7 755.5,-130.7 926.5,-130.7 926.5,-108.7 755.5,-108.7"/>
<text text-anchor="start" x="758.5" y="-116.4" font-family="Helvetica,sans-Serif" font-size="11.00" fill="#000000">number[19]</text>
<polygon fill="#ffffff" stroke="transparent" points="523.5,-89.7 523.5,-108.7 627.5,-108.7 627.5,-89.7 523.5,-89.7"/>
<polygon fill="none" stroke="#000000" points="523.5,-89.7 523.5,-108.7 627.5,-108.7 627.5,-89.7 523.5,-89.7"/>
<text text-anchor="start" x="526.5" y="-95.8" font-family="Helvetica,sans-Serif" font-size="11.00" fill="#000000">&lt; 2</text>
<polygon fill="#ffffff" stroke="transparent" points="627.5,-89.7 627.5,-108.7 755.5,-108.7 755.5,-89.7 627.5,-89.7"/>
<polygon fill="none" stroke="#000000" points="627.5,-89.7 627.5,-108.7 755.5,-108.7 755.5,-89.7 627.5,-89.7"/>
<text text-anchor="start" x="713.9956" y="-95.8" font-family="Helvetica,sans-Serif" font-size="11.00" fill="#000000">25 rows</text>
<polygon fill="#ffffff" stroke="transparent" points="755.5,-89.7 755.5,-108.7 926.5,-108.7 926.5,-89.7 755.5,-89.7"/>
<polygon fill="none" stroke="#000000" points="755.5,-89.7 755.5,-108.7 926.5,-108.7 926.5,-89.7 755.5,-89.7"/>
<text text-anchor="start" x="907.9053" y="-95.8" font-family="Helvetica,sans-Serif" font-size="11.00" fill="#000000">0 &gt;</text>
<polygon fill="none" stroke="#000000" stroke-width="2" points="522,-88.7 522,-286.7 927,-286.7 927,-88.7 522,-88.7"/>
</a>
</g>
</g>
<!-- TARGETS_TARGET_CATEGORIES&#45;&gt;TARGETS -->
<g id="edge3" class="edge">
<title>TARGETS_TARGET_CATEGORIES:w&#45;&gt;TARGETS:e</title>
<path fill="none" stroke="#000000" d="M509.7053,-146.3296C493.3565,-160.2383 500.8243,-200.7 472,-200.7"/>
<polygon fill="#000000" stroke="#000000" points="515.9157,-144.2454 524.6454,-145.1129 519.7079,-142.9727 523.5,-141.7 523.5,-141.7 523.5,-141.7 519.7079,-142.9727 522.3546,-138.2871 515.9157,-144.2454 515.9157,-144.2454"/>
<ellipse fill="none" stroke="#000000" cx="512.882" cy="-145.2636" rx="3.2" ry="3.2"/>
</g>
<!-- TARGETS_TARGET_CATEGORIES&#45;&gt;TARGET_CATEGORIES -->
<g id="edge2" class="edge">
<title>TARGETS_TARGET_CATEGORIES:w&#45;&gt;TARGET_CATEGORIES:e</title>
<path fill="none" stroke="#000000" d="M509.6545,-115.2098C498.4651,-105.7346 499.6265,-83.8953 480,-75.7 370.9066,-30.1464 325.3812,-36.0678 214,-75.7 192.1248,-83.4837 196.7188,-108.7 173.5,-108.7"/>
<polygon fill="#000000" stroke="#000000" points="515.8902,-117.232 522.3894,-123.1244 519.6951,-118.466 523.5,-119.7 523.5,-119.7 523.5,-119.7 519.6951,-118.466 524.6106,-116.2756 515.8902,-117.232 515.8902,-117.232"/>
<ellipse fill="none" stroke="#000000" cx="512.8463" cy="-116.2448" rx="3.2" ry="3.2"/>
</g>
</g>
</svg>
