<?xml version="1.0" encoding="UTF-8" standalone="no"?>
<!DOCTYPE svg PUBLIC "-//W3C//DTD SVG 1.1//EN"
 "http://www.w3.org/Graphics/SVG/1.1/DTD/svg11.dtd">
<!-- Generated by graphviz version 2.40.1 (20161225.0304)
 -->
<!-- Title: oneDegreeRelationshipsDiagram Pages: 1 -->
<svg width="529pt" height="267pt"
 viewBox="0.00 0.00 529.00 266.70" xmlns="http://www.w3.org/2000/svg" xmlns:xlink="http://www.w3.org/1999/xlink">
<g id="graph0" class="graph" transform="scale(1 1) rotate(0) translate(4 262.7)">
<title>oneDegreeRelationshipsDiagram</title>
<polygon fill="#ffffff" stroke="transparent" points="-4,4 -4,-262.7 525,-262.7 525,4 -4,4"/>
<text text-anchor="middle" x="72.4936" y="-7.3" font-family="Helvetica,sans-Serif" font-size="11.00" fill="#000000">Generated by SchemaSpy</text>
<!-- TARGETS_CAMPAIGNS -->
<g id="node1" class="node">
<title>TARGETS_CAMPAIGNS</title>
<g id="a_node1"><a xlink:href="../../tables/TARGETS_CAMPAIGNS.html" xlink:title="TARGETS_CAMPAIGNS" target="_top">
<polygon fill="#ffffff" stroke="transparent" points="169,-54.7 169,-254.7 513,-254.7 513,-54.7 169,-54.7"/>
<polygon fill="#f5f5f5" stroke="transparent" points="171,-229.7 171,-252.7 511,-252.7 511,-229.7 171,-229.7"/>
<polygon fill="none" stroke="#000000" points="171,-229.7 171,-252.7 511,-252.7 511,-229.7 171,-229.7"/>
<text text-anchor="start" x="176" y="-238.8" font-family="Helvetica,sans-Serif" font-weight="bold" font-size="11.00" fill="#000000">TARGETS_CAMPAIGNS</text>
<text text-anchor="start" x="476.0437" y="-237.8" font-family="Helvetica,sans-Serif" font-size="11.00" fill="#000000">[table]</text>
<polygon fill="none" stroke="#000000" points="171,-207.7 171,-229.7 340,-229.7 340,-207.7 171,-207.7"/>
<image xlink:href="../../images/primaryKeys.png" width="11px" height="12px" preserveAspectRatio="xMinYMin meet" x="176" y="-224.7"/>
<text text-anchor="start" x="191" y="-214.8" font-family="Helvetica,sans-Serif" font-size="11.00" fill="#000000">ID</text>
<polygon fill="none" stroke="#000000" points="340,-207.7 340,-229.7 511,-229.7 511,-207.7 340,-207.7"/>
<text text-anchor="start" x="343" y="-215.4" font-family="Helvetica,sans-Serif" font-size="11.00" fill="#000000">number[19]</text>
<polygon fill="none" stroke="#000000" points="171,-185.7 171,-207.7 340,-207.7 340,-185.7 171,-185.7"/>
<text text-anchor="start" x="191" y="-192.8" font-family="Helvetica,sans-Serif" font-size="11.00" fill="#000000">CREATED_AT</text>
<polygon fill="none" stroke="#000000" points="340,-185.7 340,-207.7 511,-207.7 511,-185.7 340,-185.7"/>
<text text-anchor="start" x="342.9896" y="-193.4" font-family="Helvetica,sans-Serif" font-size="11.00" fill="#000000">timestamp(6) with time zone[13,6]</text>
<polygon fill="none" stroke="#000000" points="171,-163.7 171,-185.7 340,-185.7 340,-163.7 171,-163.7"/>
<text text-anchor="start" x="191" y="-170.8" font-family="Helvetica,sans-Serif" font-size="11.00" fill="#000000">CREATED_BY</text>
<polygon fill="none" stroke="#000000" points="340,-163.7 340,-185.7 511,-185.7 511,-163.7 340,-163.7"/>
<text text-anchor="start" x="343" y="-171.4" font-family="Helvetica,sans-Serif" font-size="11.00" fill="#000000">number[19]</text>
<polygon fill="none" stroke="#000000" points="171,-141.7 171,-163.7 340,-163.7 340,-141.7 171,-141.7"/>
<text text-anchor="start" x="191" y="-148.8" font-family="Helvetica,sans-Serif" font-size="11.00" fill="#000000">UPDATED_AT</text>
<polygon fill="none" stroke="#000000" points="340,-141.7 340,-163.7 511,-163.7 511,-141.7 340,-141.7"/>
<text text-anchor="start" x="342.9896" y="-149.4" font-family="Helvetica,sans-Serif" font-size="11.00" fill="#000000">timestamp(6) with time zone[13,6]</text>
<polygon fill="none" stroke="#000000" points="171,-119.7 171,-141.7 340,-141.7 340,-119.7 171,-119.7"/>
<text text-anchor="start" x="191" y="-126.8" font-family="Helvetica,sans-Serif" font-size="11.00" fill="#000000">UPDATED_BY</text>
<polygon fill="none" stroke="#000000" points="340,-119.7 340,-141.7 511,-141.7 511,-119.7 340,-119.7"/>
<text text-anchor="start" x="343" y="-127.4" font-family="Helvetica,sans-Serif" font-size="11.00" fill="#000000">number[19]</text>
<polygon fill="none" stroke="#000000" points="171,-97.7 171,-119.7 340,-119.7 340,-97.7 171,-97.7"/>
<text text-anchor="start" x="191" y="-104.8" font-family="Helvetica,sans-Serif" font-size="11.00" fill="#000000">TARGET_ID</text>
<polygon fill="none" stroke="#000000" points="340,-97.7 340,-119.7 511,-119.7 511,-97.7 340,-97.7"/>
<text text-anchor="start" x="343" y="-105.4" font-family="Helvetica,sans-Serif" font-size="11.00" fill="#000000">number[19]</text>
<polygon fill="none" stroke="#000000" points="171,-75.7 171,-97.7 340,-97.7 340,-75.7 171,-75.7"/>
<image xlink:href="../../images/foreignKeys.png" width="11px" height="12px" preserveAspectRatio="xMinYMin meet" x="176" y="-92.7"/>
<text text-anchor="start" x="191" y="-82.8" font-family="Helvetica,sans-Serif" font-size="11.00" fill="#000000">CAMPAIGN_ID</text>
<polygon fill="none" stroke="#000000" points="340,-75.7 340,-97.7 511,-97.7 511,-75.7 340,-75.7"/>
<text text-anchor="start" x="343" y="-83.4" font-family="Helvetica,sans-Serif" font-size="11.00" fill="#000000">number[19]</text>
<polygon fill="#ffffff" stroke="transparent" points="171,-56.7 171,-75.7 244,-75.7 244,-56.7 171,-56.7"/>
<polygon fill="none" stroke="#000000" points="171,-56.7 171,-75.7 244,-75.7 244,-56.7 171,-56.7"/>
<text text-anchor="start" x="174" y="-62.8" font-family="Helvetica,sans-Serif" font-size="11.00" fill="#000000">&lt; 1</text>
<polygon fill="#ffffff" stroke="transparent" points="244,-56.7 244,-75.7 340,-75.7 340,-56.7 244,-56.7"/>
<polygon fill="none" stroke="#000000" points="244,-56.7 244,-75.7 340,-75.7 340,-56.7 244,-56.7"/>
<text text-anchor="start" x="298.4956" y="-62.8" font-family="Helvetica,sans-Serif" font-size="11.00" fill="#000000">81 rows</text>
<polygon fill="#ffffff" stroke="transparent" points="340,-56.7 340,-75.7 511,-75.7 511,-56.7 340,-56.7"/>
<polygon fill="none" stroke="#000000" points="340,-56.7 340,-75.7 511,-75.7 511,-56.7 340,-56.7"/>
<text text-anchor="start" x="492.4053" y="-62.8" font-family="Helvetica,sans-Serif" font-size="11.00" fill="#000000">0 &gt;</text>
<polygon fill="none" stroke="#000000" stroke-width="2" points="170,-55.7 170,-253.7 512,-253.7 512,-55.7 170,-55.7"/>
</a>
</g>
</g>
<!-- CAMPAIGNS -->
<g id="node2" class="node">
<title>CAMPAIGNS</title>
<g id="a_node2"><a xlink:href="../../tables/CAMPAIGNS.html" xlink:title="CAMPAIGNS" target="_top">
<polygon fill="#ffffff" stroke="transparent" points="8,-38.2 8,-121.2 120,-121.2 120,-38.2 8,-38.2"/>
<polygon fill="#f5f5f5" stroke="transparent" points="8,-97.7 8,-120.7 120,-120.7 120,-97.7 8,-97.7"/>
<polygon fill="none" stroke="#000000" points="8,-97.7 8,-120.7 120,-120.7 120,-97.7 8,-97.7"/>
<text text-anchor="start" x="13" y="-106.8" font-family="Helvetica,sans-Serif" font-weight="bold" font-size="11.00" fill="#000000">CAMPAIGNS</text>
<text text-anchor="start" x="85.0437" y="-105.8" font-family="Helvetica,sans-Serif" font-size="11.00" fill="#000000">[table]</text>
<polygon fill="none" stroke="#000000" points="8,-75.7 8,-97.7 120,-97.7 120,-75.7 8,-75.7"/>
<image xlink:href="../../images/primaryKeys.png" width="11px" height="12px" preserveAspectRatio="xMinYMin meet" x="13" y="-92.7"/>
<text text-anchor="start" x="28" y="-82.8" font-family="Helvetica,sans-Serif" font-size="11.00" fill="#000000">ID</text>
<polygon fill="none" stroke="#000000" points="8,-56.7 8,-75.7 120,-75.7 120,-56.7 8,-56.7"/>
<text text-anchor="start" x="11" y="-62.8" font-family="Helvetica,sans-Serif" font-size="11.00" fill="#000000">...</text>
<polygon fill="#ffffff" stroke="transparent" points="8,-37.7 8,-56.7 37,-56.7 37,-37.7 8,-37.7"/>
<polygon fill="none" stroke="#000000" points="8,-37.7 8,-56.7 37,-56.7 37,-37.7 8,-37.7"/>
<text text-anchor="start" x="11" y="-43.8" font-family="Helvetica,sans-Serif" font-size="11.00" fill="#000000"> &#160;</text>
<polygon fill="#ffffff" stroke="transparent" points="37,-37.7 37,-56.7 90,-56.7 90,-37.7 37,-37.7"/>
<polygon fill="none" stroke="#000000" points="37,-37.7 37,-56.7 90,-56.7 90,-37.7 37,-37.7"/>
<text text-anchor="start" x="48.4956" y="-43.8" font-family="Helvetica,sans-Serif" font-size="11.00" fill="#000000">86 rows</text>
<polygon fill="#ffffff" stroke="transparent" points="90,-37.7 90,-56.7 120,-56.7 120,-37.7 90,-37.7"/>
<polygon fill="none" stroke="#000000" points="90,-37.7 90,-56.7 120,-56.7 120,-37.7 90,-37.7"/>
<text text-anchor="start" x="101.4053" y="-43.8" font-family="Helvetica,sans-Serif" font-size="11.00" fill="#000000">2 &gt;</text>
</a>
</g>
</g>
<!-- TARGETS_CAMPAIGNS&#45;&gt;CAMPAIGNS -->
<g id="edge1" class="edge">
<title>TARGETS_CAMPAIGNS:w&#45;&gt;CAMPAIGNS:e</title>
<path fill="none" stroke="#000000" d="M156.276,-86.7C144.2815,-86.7 136.8229,-86.7 120,-86.7"/>
<polygon fill="#000000" stroke="#000000" points="163,-86.7001 171,-90.3 167,-86.7 171,-86.7 171,-86.7 171,-86.7 167,-86.7 171,-83.1 163,-86.7001 163,-86.7001"/>
<ellipse fill="none" stroke="#000000" cx="159.8" cy="-86.7001" rx="3.2" ry="3.2"/>
</g>
</g>
</svg>
