<?xml version="1.0" encoding="UTF-8" standalone="no"?>
<!DOCTYPE svg PUBLIC "-//W3C//DTD SVG 1.1//EN"
 "http://www.w3.org/Graphics/SVG/1.1/DTD/svg11.dtd">
<!-- Generated by graphviz version 2.40.1 (20161225.0304)
 -->
<!-- Title: oneDegreeRelationshipsDiagram Pages: 1 -->
<svg width="673pt" height="385pt"
 viewBox="0.00 0.00 673.00 384.70" xmlns="http://www.w3.org/2000/svg" xmlns:xlink="http://www.w3.org/1999/xlink">
<g id="graph0" class="graph" transform="scale(1 1) rotate(0) translate(4 380.7)">
<title>oneDegreeRelationshipsDiagram</title>
<polygon fill="#ffffff" stroke="transparent" points="-4,4 -4,-380.7 669,-380.7 669,4 -4,4"/>
<text text-anchor="middle" x="72.4936" y="-7.3" font-family="Helvetica,sans-Serif" font-size="11.00" fill="#000000">Generated by SchemaSpy</text>
<!-- TARGETS_REFERENCES -->
<g id="node1" class="node">
<title>TARGETS_REFERENCES</title>
<g id="a_node1"><a xlink:href="../../tables/TARGETS_REFERENCES.html" xlink:title="TARGETS_REFERENCES" target="_top">
<polygon fill="#ffffff" stroke="transparent" points="307,-150.7 307,-372.7 657,-372.7 657,-150.7 307,-150.7"/>
<polygon fill="#f5f5f5" stroke="transparent" points="309,-347.7 309,-370.7 655,-370.7 655,-347.7 309,-347.7"/>
<polygon fill="none" stroke="#000000" points="309,-347.7 309,-370.7 655,-370.7 655,-347.7 309,-347.7"/>
<text text-anchor="start" x="314" y="-356.8" font-family="Helvetica,sans-Serif" font-weight="bold" font-size="11.00" fill="#000000">TARGETS_REFERENCES</text>
<text text-anchor="start" x="620.0437" y="-355.8" font-family="Helvetica,sans-Serif" font-size="11.00" fill="#000000">[table]</text>
<polygon fill="none" stroke="#000000" points="309,-325.7 309,-347.7 484,-347.7 484,-325.7 309,-325.7"/>
<image xlink:href="../../images/primaryKeys.png" width="11px" height="12px" preserveAspectRatio="xMinYMin meet" x="314" y="-342.7"/>
<text text-anchor="start" x="329" y="-332.8" font-family="Helvetica,sans-Serif" font-size="11.00" fill="#000000">ID</text>
<polygon fill="none" stroke="#000000" points="484,-325.7 484,-347.7 655,-347.7 655,-325.7 484,-325.7"/>
<text text-anchor="start" x="487" y="-333.4" font-family="Helvetica,sans-Serif" font-size="11.00" fill="#000000">number[19]</text>
<polygon fill="none" stroke="#000000" points="309,-303.7 309,-325.7 484,-325.7 484,-303.7 309,-303.7"/>
<text text-anchor="start" x="329" y="-310.8" font-family="Helvetica,sans-Serif" font-size="11.00" fill="#000000">CREATED_AT</text>
<polygon fill="none" stroke="#000000" points="484,-303.7 484,-325.7 655,-325.7 655,-303.7 484,-303.7"/>
<text text-anchor="start" x="486.9896" y="-311.4" font-family="Helvetica,sans-Serif" font-size="11.00" fill="#000000">timestamp(6) with time zone[13,6]</text>
<polygon fill="none" stroke="#000000" points="309,-281.7 309,-303.7 484,-303.7 484,-281.7 309,-281.7"/>
<text text-anchor="start" x="329" y="-288.8" font-family="Helvetica,sans-Serif" font-size="11.00" fill="#000000">CREATED_BY</text>
<polygon fill="none" stroke="#000000" points="484,-281.7 484,-303.7 655,-303.7 655,-281.7 484,-281.7"/>
<text text-anchor="start" x="487" y="-289.4" font-family="Helvetica,sans-Serif" font-size="11.00" fill="#000000">number[19]</text>
<polygon fill="none" stroke="#000000" points="309,-259.7 309,-281.7 484,-281.7 484,-259.7 309,-259.7"/>
<text text-anchor="start" x="329" y="-266.8" font-family="Helvetica,sans-Serif" font-size="11.00" fill="#000000">UPDATED_AT</text>
<polygon fill="none" stroke="#000000" points="484,-259.7 484,-281.7 655,-281.7 655,-259.7 484,-259.7"/>
<text text-anchor="start" x="486.9896" y="-267.4" font-family="Helvetica,sans-Serif" font-size="11.00" fill="#000000">timestamp(6) with time zone[13,6]</text>
<polygon fill="none" stroke="#000000" points="309,-237.7 309,-259.7 484,-259.7 484,-237.7 309,-237.7"/>
<text text-anchor="start" x="329" y="-244.8" font-family="Helvetica,sans-Serif" font-size="11.00" fill="#000000">UPDATED_BY</text>
<polygon fill="none" stroke="#000000" points="484,-237.7 484,-259.7 655,-259.7 655,-237.7 484,-237.7"/>
<text text-anchor="start" x="487" y="-245.4" font-family="Helvetica,sans-Serif" font-size="11.00" fill="#000000">number[19]</text>
<polygon fill="none" stroke="#000000" points="309,-215.7 309,-237.7 484,-237.7 484,-215.7 309,-215.7"/>
<image xlink:href="../../images/foreignKeys.png" width="11px" height="12px" preserveAspectRatio="xMinYMin meet" x="314" y="-232.7"/>
<text text-anchor="start" x="329" y="-222.8" font-family="Helvetica,sans-Serif" font-size="11.00" fill="#000000">REFERENCE_ID</text>
<polygon fill="none" stroke="#000000" points="484,-215.7 484,-237.7 655,-237.7 655,-215.7 484,-215.7"/>
<text text-anchor="start" x="487" y="-223.4" font-family="Helvetica,sans-Serif" font-size="11.00" fill="#000000">number[19]</text>
<polygon fill="none" stroke="#000000" points="309,-193.7 309,-215.7 484,-215.7 484,-193.7 309,-193.7"/>
<image xlink:href="../../images/foreignKeys.png" width="11px" height="12px" preserveAspectRatio="xMinYMin meet" x="314" y="-210.7"/>
<text text-anchor="start" x="329" y="-200.8" font-family="Helvetica,sans-Serif" font-size="11.00" fill="#000000">TARGET_ID</text>
<polygon fill="none" stroke="#000000" points="484,-193.7 484,-215.7 655,-215.7 655,-193.7 484,-193.7"/>
<text text-anchor="start" x="487" y="-201.4" font-family="Helvetica,sans-Serif" font-size="11.00" fill="#000000">number[19]</text>
<polygon fill="none" stroke="#000000" points="309,-171.7 309,-193.7 484,-193.7 484,-171.7 309,-171.7"/>
<text text-anchor="start" x="329" y="-178.8" font-family="Helvetica,sans-Serif" font-size="11.00" fill="#000000">TYPE</text>
<polygon fill="none" stroke="#000000" points="484,-171.7 484,-193.7 655,-193.7 655,-171.7 484,-171.7"/>
<text text-anchor="start" x="487" y="-179.4" font-family="Helvetica,sans-Serif" font-size="11.00" fill="#000000">varchar2[255]</text>
<polygon fill="#ffffff" stroke="transparent" points="309,-152.7 309,-171.7 385,-171.7 385,-152.7 309,-152.7"/>
<polygon fill="none" stroke="#000000" points="309,-152.7 309,-171.7 385,-171.7 385,-152.7 309,-152.7"/>
<text text-anchor="start" x="312" y="-158.8" font-family="Helvetica,sans-Serif" font-size="11.00" fill="#000000">&lt; 2</text>
<polygon fill="#ffffff" stroke="transparent" points="385,-152.7 385,-171.7 484,-171.7 484,-152.7 385,-152.7"/>
<polygon fill="none" stroke="#000000" points="385,-152.7 385,-171.7 484,-171.7 484,-152.7 385,-152.7"/>
<text text-anchor="start" x="442.4956" y="-158.8" font-family="Helvetica,sans-Serif" font-size="11.00" fill="#000000">48 rows</text>
<polygon fill="#ffffff" stroke="transparent" points="484,-152.7 484,-171.7 655,-171.7 655,-152.7 484,-152.7"/>
<polygon fill="none" stroke="#000000" points="484,-152.7 484,-171.7 655,-171.7 655,-152.7 484,-152.7"/>
<text text-anchor="start" x="636.4053" y="-158.8" font-family="Helvetica,sans-Serif" font-size="11.00" fill="#000000">0 &gt;</text>
<polygon fill="none" stroke="#000000" stroke-width="2" points="308,-151.7 308,-371.7 656,-371.7 656,-151.7 308,-151.7"/>
</a>
</g>
</g>
<!-- REFERENCES -->
<g id="node2" class="node">
<title>REFERENCES</title>
<g id="a_node2"><a xlink:href="../../tables/REFERENCES.html" xlink:title="REFERENCES" target="_top">
<polygon fill="#ffffff" stroke="transparent" points="69,-208.2 69,-313.2 197,-313.2 197,-208.2 69,-208.2"/>
<polygon fill="#f5f5f5" stroke="transparent" points="69,-289.7 69,-312.7 197,-312.7 197,-289.7 69,-289.7"/>
<polygon fill="none" stroke="#000000" points="69,-289.7 69,-312.7 197,-312.7 197,-289.7 69,-289.7"/>
<text text-anchor="start" x="74" y="-298.8" font-family="Helvetica,sans-Serif" font-weight="bold" font-size="11.00" fill="#000000">REFERENCES</text>
<text text-anchor="start" x="162.0437" y="-297.8" font-family="Helvetica,sans-Serif" font-size="11.00" fill="#000000">[table]</text>
<polygon fill="none" stroke="#000000" points="69,-267.7 69,-289.7 197,-289.7 197,-267.7 69,-267.7"/>
<image xlink:href="../../images/primaryKeys.png" width="11px" height="12px" preserveAspectRatio="xMinYMin meet" x="74" y="-284.7"/>
<text text-anchor="start" x="89" y="-274.8" font-family="Helvetica,sans-Serif" font-size="11.00" fill="#000000">ID</text>
<polygon fill="none" stroke="#000000" points="69,-245.7 69,-267.7 197,-267.7 197,-245.7 69,-245.7"/>
<image xlink:href="../../images/foreignKeys.png" width="11px" height="12px" preserveAspectRatio="xMinYMin meet" x="74" y="-262.7"/>
<text text-anchor="start" x="89" y="-252.8" font-family="Helvetica,sans-Serif" font-size="11.00" fill="#000000">USER_ID</text>
<polygon fill="none" stroke="#000000" points="69,-226.7 69,-245.7 197,-245.7 197,-226.7 69,-226.7"/>
<text text-anchor="start" x="72" y="-232.8" font-family="Helvetica,sans-Serif" font-size="11.00" fill="#000000">...</text>
<polygon fill="#ffffff" stroke="transparent" points="69,-207.7 69,-226.7 100,-226.7 100,-207.7 69,-207.7"/>
<polygon fill="none" stroke="#000000" points="69,-207.7 69,-226.7 100,-226.7 100,-207.7 69,-207.7"/>
<text text-anchor="start" x="72" y="-213.8" font-family="Helvetica,sans-Serif" font-size="11.00" fill="#000000">&lt; 1</text>
<polygon fill="#ffffff" stroke="transparent" points="100,-207.7 100,-226.7 164,-226.7 164,-207.7 100,-207.7"/>
<polygon fill="none" stroke="#000000" points="100,-207.7 100,-226.7 164,-226.7 164,-207.7 100,-207.7"/>
<text text-anchor="start" x="107.2089" y="-213.8" font-family="Helvetica,sans-Serif" font-size="11.00" fill="#000000">2,900 rows</text>
<polygon fill="#ffffff" stroke="transparent" points="164,-207.7 164,-226.7 197,-226.7 197,-207.7 164,-207.7"/>
<polygon fill="none" stroke="#000000" points="164,-207.7 164,-226.7 197,-226.7 197,-207.7 164,-207.7"/>
<text text-anchor="start" x="172.2904" y="-213.8" font-family="Helvetica,sans-Serif" font-size="11.00" fill="#000000">20 &gt;</text>
</a>
</g>
</g>
<!-- TARGETS_REFERENCES&#45;&gt;REFERENCES -->
<g id="edge1" class="edge">
<title>TARGETS_REFERENCES:w&#45;&gt;REFERENCES:e</title>
<path fill="none" stroke="#000000" d="M294.5973,-228.0377C253.2083,-236.1769 246.6289,-278.7 197,-278.7"/>
<polygon fill="#000000" stroke="#000000" points="301.0343,-227.4399 309.3329,-230.2846 305.0171,-227.0699 309,-226.7 309,-226.7 309,-226.7 305.0171,-227.0699 308.6671,-223.1154 301.0343,-227.4399 301.0343,-227.4399"/>
<ellipse fill="none" stroke="#000000" cx="297.848" cy="-227.7358" rx="3.2" ry="3.2"/>
</g>
<!-- TARGETS -->
<g id="node3" class="node">
<title>TARGETS</title>
<g id="a_node3"><a xlink:href="../../tables/TARGETS.html" xlink:title="TARGETS" target="_top">
<polygon fill="#ffffff" stroke="transparent" points="8,-38.2 8,-187.2 258,-187.2 258,-38.2 8,-38.2"/>
<polygon fill="#f5f5f5" stroke="transparent" points="8,-163.7 8,-186.7 258,-186.7 258,-163.7 8,-163.7"/>
<polygon fill="none" stroke="#000000" points="8,-163.7 8,-186.7 258,-186.7 258,-163.7 8,-163.7"/>
<text text-anchor="start" x="13" y="-172.8" font-family="Helvetica,sans-Serif" font-weight="bold" font-size="11.00" fill="#000000">TARGETS</text>
<text text-anchor="start" x="223.0437" y="-171.8" font-family="Helvetica,sans-Serif" font-size="11.00" fill="#000000">[table]</text>
<polygon fill="none" stroke="#000000" points="8,-141.7 8,-163.7 258,-163.7 258,-141.7 8,-141.7"/>
<image xlink:href="../../images/primaryKeys.png" width="11px" height="12px" preserveAspectRatio="xMinYMin meet" x="13" y="-158.7"/>
<text text-anchor="start" x="28" y="-148.8" font-family="Helvetica,sans-Serif" font-size="11.00" fill="#000000">ID</text>
<polygon fill="none" stroke="#000000" points="8,-119.7 8,-141.7 258,-141.7 258,-119.7 8,-119.7"/>
<image xlink:href="../../images/foreignKeys.png" width="11px" height="12px" preserveAspectRatio="xMinYMin meet" x="13" y="-136.7"/>
<text text-anchor="start" x="28" y="-126.8" font-family="Helvetica,sans-Serif" font-size="11.00" fill="#000000">PROJECT_ID</text>
<polygon fill="none" stroke="#000000" points="8,-97.7 8,-119.7 258,-119.7 258,-97.7 8,-97.7"/>
<image xlink:href="../../images/foreignKeys.png" width="11px" height="12px" preserveAspectRatio="xMinYMin meet" x="13" y="-114.7"/>
<text text-anchor="start" x="28" y="-104.8" font-family="Helvetica,sans-Serif" font-size="11.00" fill="#000000">TARGET_CATEGORY_ID</text>
<polygon fill="none" stroke="#000000" points="8,-75.7 8,-97.7 258,-97.7 258,-75.7 8,-75.7"/>
<image xlink:href="../../images/foreignKeys.png" width="11px" height="12px" preserveAspectRatio="xMinYMin meet" x="13" y="-92.7"/>
<text text-anchor="start" x="28" y="-82.8" font-family="Helvetica,sans-Serif" font-size="11.00" fill="#000000">THERAPEUTIC_ID</text>
<polygon fill="none" stroke="#000000" points="8,-56.7 8,-75.7 258,-75.7 258,-56.7 8,-56.7"/>
<text text-anchor="start" x="11" y="-62.8" font-family="Helvetica,sans-Serif" font-size="11.00" fill="#000000">...</text>
<polygon fill="#ffffff" stroke="transparent" points="8,-37.7 8,-56.7 105,-56.7 105,-37.7 8,-37.7"/>
<polygon fill="none" stroke="#000000" points="8,-37.7 8,-56.7 105,-56.7 105,-37.7 8,-37.7"/>
<text text-anchor="start" x="11" y="-43.8" font-family="Helvetica,sans-Serif" font-size="11.00" fill="#000000">&lt; 3</text>
<polygon fill="#ffffff" stroke="transparent" points="105,-37.7 105,-56.7 193,-56.7 193,-37.7 105,-37.7"/>
<polygon fill="none" stroke="#000000" points="105,-37.7 105,-56.7 193,-56.7 193,-37.7 105,-37.7"/>
<text text-anchor="start" x="145.3807" y="-43.8" font-family="Helvetica,sans-Serif" font-size="11.00" fill="#000000">146 rows</text>
<polygon fill="#ffffff" stroke="transparent" points="193,-37.7 193,-56.7 258,-56.7 258,-37.7 193,-37.7"/>
<polygon fill="none" stroke="#000000" points="193,-37.7 193,-56.7 258,-56.7 258,-37.7 193,-37.7"/>
<text text-anchor="start" x="233.2904" y="-43.8" font-family="Helvetica,sans-Serif" font-size="11.00" fill="#000000">10 &gt;</text>
</a>
</g>
</g>
<!-- TARGETS_REFERENCES&#45;&gt;TARGETS -->
<g id="edge2" class="edge">
<title>TARGETS_REFERENCES:w&#45;&gt;TARGETS:e</title>
<path fill="none" stroke="#000000" d="M295.0468,-199.9012C280.161,-187.0281 284.3017,-152.7 258,-152.7"/>
<polygon fill="#000000" stroke="#000000" points="301.4349,-202.0982 307.8292,-208.1043 305.2175,-203.3991 309,-204.7 309,-204.7 309,-204.7 305.2175,-203.3991 310.1708,-201.2957 301.4349,-202.0982 301.4349,-202.0982"/>
<ellipse fill="none" stroke="#000000" cx="298.4089" cy="-201.0574" rx="3.2" ry="3.2"/>
</g>
</g>
</svg>
