<?xml version="1.0" encoding="UTF-8" standalone="no"?>
<!DOCTYPE svg PUBLIC "-//W3C//DTD SVG 1.1//EN"
 "http://www.w3.org/Graphics/SVG/1.1/DTD/svg11.dtd">
<!-- Generated by graphviz version 2.40.1 (20161225.0304)
 -->
<!-- Title: twoDegreesRelationshipsDiagram Pages: 1 -->
<svg width="1561pt" height="1793pt"
 viewBox="0.00 0.00 1561.00 1793.05" xmlns="http://www.w3.org/2000/svg" xmlns:xlink="http://www.w3.org/1999/xlink">
<g id="graph0" class="graph" transform="scale(1 1) rotate(0) translate(4 1789.0482)">
<title>twoDegreesRelationshipsDiagram</title>
<polygon fill="#ffffff" stroke="transparent" points="-4,4 -4,-1789.0482 1557,-1789.0482 1557,4 -4,4"/>
<text text-anchor="middle" x="72.4936" y="-7.3" font-family="Helvetica,sans-Serif" font-size="11.00" fill="#000000">Generated by SchemaSpy</text>
<!-- CLONE_FORMS -->
<g id="node1" class="node">
<title>CLONE_FORMS</title>
<g id="a_node1"><a xlink:href="../../tables/CLONE_FORMS.html" xlink:title="CLONE_FORMS" target="_top">
<polygon fill="#ffffff" stroke="transparent" points="973,-1387.4528 973,-1448.4528 1099,-1448.4528 1099,-1387.4528 973,-1387.4528"/>
<polygon fill="#f5f5f5" stroke="transparent" points="973,-1424.9528 973,-1447.9528 1099,-1447.9528 1099,-1424.9528 973,-1424.9528"/>
<polygon fill="none" stroke="#000000" points="973,-1424.9528 973,-1447.9528 1099,-1447.9528 1099,-1424.9528 973,-1424.9528"/>
<text text-anchor="start" x="977.6401" y="-1434.0528" font-family="Helvetica,sans-Serif" font-weight="bold" font-size="11.00" fill="#000000">CLONE_FORMS</text>
<text text-anchor="start" x="1064.5219" y="-1433.0528" font-family="Helvetica,sans-Serif" font-size="11.00" fill="#000000">[table]</text>
<polygon fill="none" stroke="#000000" points="973,-1405.9528 973,-1424.9528 1099,-1424.9528 1099,-1405.9528 973,-1405.9528"/>
<text text-anchor="start" x="976" y="-1412.0528" font-family="Helvetica,sans-Serif" font-size="11.00" fill="#000000">...</text>
<polygon fill="#ffffff" stroke="transparent" points="973,-1386.9528 973,-1405.9528 1008,-1405.9528 1008,-1386.9528 973,-1386.9528"/>
<polygon fill="none" stroke="#000000" points="973,-1386.9528 973,-1405.9528 1008,-1405.9528 1008,-1386.9528 973,-1386.9528"/>
<text text-anchor="start" x="976" y="-1393.0528" font-family="Helvetica,sans-Serif" font-size="11.00" fill="#000000">&lt; 4</text>
<polygon fill="#ffffff" stroke="transparent" points="1008,-1386.9528 1008,-1405.9528 1065,-1405.9528 1065,-1386.9528 1008,-1386.9528"/>
<polygon fill="none" stroke="#000000" points="1008,-1386.9528 1008,-1405.9528 1065,-1405.9528 1065,-1386.9528 1008,-1386.9528"/>
<text text-anchor="start" x="1017.3807" y="-1393.0528" font-family="Helvetica,sans-Serif" font-size="11.00" fill="#000000">467 rows</text>
<polygon fill="#ffffff" stroke="transparent" points="1065,-1386.9528 1065,-1405.9528 1099,-1405.9528 1099,-1386.9528 1065,-1386.9528"/>
<polygon fill="none" stroke="#000000" points="1065,-1386.9528 1065,-1405.9528 1099,-1405.9528 1099,-1386.9528 1065,-1386.9528"/>
<text text-anchor="start" x="1074.2904" y="-1393.0528" font-family="Helvetica,sans-Serif" font-size="11.00" fill="#000000">14 &gt;</text>
</a>
</g>
</g>
<!-- ISOFORMS -->
<g id="node2" class="node">
<title>ISOFORMS</title>
<g id="a_node2"><a xlink:href="../../tables/ISOFORMS.html" xlink:title="ISOFORMS" target="_top">
<polygon fill="#ffffff" stroke="transparent" points="236,-1231.4528 236,-1292.4528 337,-1292.4528 337,-1231.4528 236,-1231.4528"/>
<polygon fill="#f5f5f5" stroke="transparent" points="236.5,-1268.9528 236.5,-1291.9528 337.5,-1291.9528 337.5,-1268.9528 236.5,-1268.9528"/>
<polygon fill="none" stroke="#000000" points="236.5,-1268.9528 236.5,-1291.9528 337.5,-1291.9528 337.5,-1268.9528 236.5,-1268.9528"/>
<text text-anchor="start" x="241.1674" y="-1278.0528" font-family="Helvetica,sans-Serif" font-weight="bold" font-size="11.00" fill="#000000">ISOFORMS</text>
<text text-anchor="start" x="303.0219" y="-1277.0528" font-family="Helvetica,sans-Serif" font-size="11.00" fill="#000000">[table]</text>
<polygon fill="none" stroke="#000000" points="236.5,-1249.9528 236.5,-1268.9528 337.5,-1268.9528 337.5,-1249.9528 236.5,-1249.9528"/>
<text text-anchor="start" x="239.5" y="-1256.0528" font-family="Helvetica,sans-Serif" font-size="11.00" fill="#000000">...</text>
<polygon fill="#ffffff" stroke="transparent" points="236.5,-1230.9528 236.5,-1249.9528 258.5,-1249.9528 258.5,-1230.9528 236.5,-1230.9528"/>
<polygon fill="none" stroke="#000000" points="236.5,-1230.9528 236.5,-1249.9528 258.5,-1249.9528 258.5,-1230.9528 236.5,-1230.9528"/>
<text text-anchor="start" x="239.5" y="-1237.0528" font-family="Helvetica,sans-Serif" font-size="11.00" fill="#000000">&lt; 1</text>
<polygon fill="#ffffff" stroke="transparent" points="258.5,-1230.9528 258.5,-1249.9528 309.5,-1249.9528 309.5,-1230.9528 258.5,-1230.9528"/>
<polygon fill="none" stroke="#000000" points="258.5,-1230.9528 258.5,-1249.9528 309.5,-1249.9528 309.5,-1230.9528 258.5,-1230.9528"/>
<text text-anchor="start" x="261.8807" y="-1237.0528" font-family="Helvetica,sans-Serif" font-size="11.00" fill="#000000">519 rows</text>
<polygon fill="#ffffff" stroke="transparent" points="309.5,-1230.9528 309.5,-1249.9528 337.5,-1249.9528 337.5,-1230.9528 309.5,-1230.9528"/>
<polygon fill="none" stroke="#000000" points="309.5,-1230.9528 309.5,-1249.9528 337.5,-1249.9528 337.5,-1230.9528 309.5,-1230.9528"/>
<text text-anchor="start" x="312.7904" y="-1237.0528" font-family="Helvetica,sans-Serif" font-size="11.00" fill="#000000">10 &gt;</text>
</a>
</g>
</g>
<!-- CLONE_FORMS&#45;&gt;ISOFORMS -->
<g id="edge1" class="edge">
<title>CLONE_FORMS:w&#45;&gt;ISOFORMS:e</title>
<path fill="none" stroke="#000000" d="M958.3319,-1414.9568C739.0032,-1415.0656 670.5498,-1416.7396 459,-1336.9528 398.9585,-1314.3079 401.6699,-1258.9528 337.5,-1258.9528"/>
<polygon fill="#000000" stroke="#000000" points="965,-1414.9551 973.001,-1418.5528 969,-1414.9539 973,-1414.9528 973,-1414.9528 973,-1414.9528 969,-1414.9539 972.999,-1411.3528 965,-1414.9551 965,-1414.9551"/>
<ellipse fill="none" stroke="#000000" cx="961.8" cy="-1414.956" rx="3.2" ry="3.2"/>
</g>
<!-- POST_TRANSLATIONAL_MODIFICATIONS -->
<g id="node3" class="node">
<title>POST_TRANSLATIONAL_MODIFICATIONS</title>
<g id="a_node3"><a xlink:href="../../tables/POST_TRANSLATIONAL_MODIFICATIONS.html" xlink:title="POST_TRANSLATIONAL_MODIFICATIONS" target="_top">
<polygon fill="#ffffff" stroke="transparent" points="155,-842.4528 155,-903.4528 418,-903.4528 418,-842.4528 155,-842.4528"/>
<polygon fill="#f5f5f5" stroke="transparent" points="155.5,-879.9528 155.5,-902.9528 418.5,-902.9528 418.5,-879.9528 155.5,-879.9528"/>
<polygon fill="none" stroke="#000000" points="155.5,-879.9528 155.5,-902.9528 418.5,-902.9528 418.5,-879.9528 155.5,-879.9528"/>
<text text-anchor="start" x="160.4956" y="-889.0528" font-family="Helvetica,sans-Serif" font-weight="bold" font-size="11.00" fill="#000000">POST_TRANSLATIONAL_MODIFICATIONS</text>
<text text-anchor="start" x="384.0219" y="-888.0528" font-family="Helvetica,sans-Serif" font-size="11.00" fill="#000000">[table]</text>
<polygon fill="none" stroke="#000000" points="155.5,-860.9528 155.5,-879.9528 418.5,-879.9528 418.5,-860.9528 155.5,-860.9528"/>
<text text-anchor="start" x="158.5" y="-867.0528" font-family="Helvetica,sans-Serif" font-size="11.00" fill="#000000">...</text>
<polygon fill="#ffffff" stroke="transparent" points="155.5,-841.9528 155.5,-860.9528 263.5,-860.9528 263.5,-841.9528 155.5,-841.9528"/>
<polygon fill="none" stroke="#000000" points="155.5,-841.9528 155.5,-860.9528 263.5,-860.9528 263.5,-841.9528 155.5,-841.9528"/>
<text text-anchor="start" x="158.5" y="-848.0528" font-family="Helvetica,sans-Serif" font-size="11.00" fill="#000000"> &#160;</text>
<polygon fill="#ffffff" stroke="transparent" points="263.5,-841.9528 263.5,-860.9528 349.5,-860.9528 349.5,-841.9528 263.5,-841.9528"/>
<polygon fill="none" stroke="#000000" points="263.5,-841.9528 263.5,-860.9528 349.5,-860.9528 349.5,-841.9528 263.5,-841.9528"/>
<text text-anchor="start" x="314.1105" y="-848.0528" font-family="Helvetica,sans-Serif" font-size="11.00" fill="#000000">2 rows</text>
<polygon fill="#ffffff" stroke="transparent" points="349.5,-841.9528 349.5,-860.9528 418.5,-860.9528 418.5,-841.9528 349.5,-841.9528"/>
<polygon fill="none" stroke="#000000" points="349.5,-841.9528 349.5,-860.9528 418.5,-860.9528 418.5,-841.9528 349.5,-841.9528"/>
<text text-anchor="start" x="399.9053" y="-848.0528" font-family="Helvetica,sans-Serif" font-size="11.00" fill="#000000">2 &gt;</text>
</a>
</g>
</g>
<!-- CLONE_FORMS&#45;&gt;POST_TRANSLATIONAL_MODIFICATIONS -->
<g id="edge2" class="edge">
<title>CLONE_FORMS:w&#45;&gt;POST_TRANSLATIONAL_MODIFICATIONS:e</title>
<path fill="none" stroke="#000000" d="M958.245,-1415.0621C893.7883,-1415.9598 863.0093,-1421.019 809,-1376.9528 781.7255,-1354.6995 795.9375,-1333.9633 776,-1304.9528 661.8955,-1138.9232 566.3818,-1151.4076 459,-980.9528 431.0087,-936.5202 471.0145,-869.9528 418.5,-869.9528"/>
<polygon fill="#000000" stroke="#000000" points="965.0002,-1415.0121 973.0267,-1418.5527 969.0001,-1414.9825 973,-1414.9528 973,-1414.9528 973,-1414.9528 969.0001,-1414.9825 972.9733,-1411.3529 965.0002,-1415.0121 965.0002,-1415.0121"/>
<ellipse fill="none" stroke="#000000" cx="961.8003" cy="-1415.0359" rx="3.2" ry="3.2"/>
</g>
<!-- SPECIES -->
<g id="node4" class="node">
<title>SPECIES</title>
<g id="a_node4"><a xlink:href="../../tables/SPECIES.html" xlink:title="SPECIES" target="_top">
<polygon fill="#ffffff" stroke="transparent" points="241.5,-924.4528 241.5,-985.4528 331.5,-985.4528 331.5,-924.4528 241.5,-924.4528"/>
<polygon fill="#f5f5f5" stroke="transparent" points="241.5,-961.9528 241.5,-984.9528 331.5,-984.9528 331.5,-961.9528 241.5,-961.9528"/>
<polygon fill="none" stroke="#000000" points="241.5,-961.9528 241.5,-984.9528 331.5,-984.9528 331.5,-961.9528 241.5,-961.9528"/>
<text text-anchor="start" x="246.1614" y="-971.0528" font-family="Helvetica,sans-Serif" font-weight="bold" font-size="11.00" fill="#000000">SPECIES</text>
<text text-anchor="start" x="297.0219" y="-970.0528" font-family="Helvetica,sans-Serif" font-size="11.00" fill="#000000">[table]</text>
<polygon fill="none" stroke="#000000" points="241.5,-942.9528 241.5,-961.9528 331.5,-961.9528 331.5,-942.9528 241.5,-942.9528"/>
<text text-anchor="start" x="244.5" y="-949.0528" font-family="Helvetica,sans-Serif" font-size="11.00" fill="#000000">...</text>
<polygon fill="#ffffff" stroke="transparent" points="241.5,-923.9528 241.5,-942.9528 262.5,-942.9528 262.5,-923.9528 241.5,-923.9528"/>
<polygon fill="none" stroke="#000000" points="241.5,-923.9528 241.5,-942.9528 262.5,-942.9528 262.5,-923.9528 241.5,-923.9528"/>
<text text-anchor="start" x="244.5" y="-930.0528" font-family="Helvetica,sans-Serif" font-size="11.00" fill="#000000"> &#160;</text>
<polygon fill="#ffffff" stroke="transparent" points="262.5,-923.9528 262.5,-942.9528 305.5,-942.9528 305.5,-923.9528 262.5,-923.9528"/>
<polygon fill="none" stroke="#000000" points="262.5,-923.9528 262.5,-942.9528 305.5,-942.9528 305.5,-923.9528 262.5,-923.9528"/>
<text text-anchor="start" x="270.1105" y="-930.0528" font-family="Helvetica,sans-Serif" font-size="11.00" fill="#000000">3 rows</text>
<polygon fill="#ffffff" stroke="transparent" points="305.5,-923.9528 305.5,-942.9528 331.5,-942.9528 331.5,-923.9528 305.5,-923.9528"/>
<polygon fill="none" stroke="#000000" points="305.5,-923.9528 305.5,-942.9528 331.5,-942.9528 331.5,-923.9528 305.5,-923.9528"/>
<text text-anchor="start" x="312.9053" y="-930.0528" font-family="Helvetica,sans-Serif" font-size="11.00" fill="#000000">2 &gt;</text>
</a>
</g>
</g>
<!-- CLONE_FORMS&#45;&gt;SPECIES -->
<g id="edge3" class="edge">
<title>CLONE_FORMS:w&#45;&gt;SPECIES:e</title>
<path fill="none" stroke="#000000" d="M958.3219,-1414.9536C894.5382,-1414.901 868.4941,-1413.2748 809,-1376.9528 789.6204,-1365.1213 796.0587,-1348.5925 776,-1337.9528 650.8226,-1271.5551 570.4981,-1391.3953 459,-1303.9528 426.2677,-1278.2825 373.0978,-951.9528 331.5,-951.9528"/>
<polygon fill="#000000" stroke="#000000" points="965,-1414.9533 973.0002,-1418.5528 969,-1414.9531 973,-1414.9528 973,-1414.9528 973,-1414.9528 969,-1414.9531 972.9998,-1411.3528 965,-1414.9533 965,-1414.9533"/>
<ellipse fill="none" stroke="#000000" cx="961.8" cy="-1414.9535" rx="3.2" ry="3.2"/>
</g>
<!-- TARGET_FORMS -->
<g id="node5" class="node">
<title>TARGET_FORMS</title>
<g id="a_node5"><a xlink:href="../../tables/TARGET_FORMS.html" xlink:title="TARGET_FORMS" target="_top">
<polygon fill="#ffffff" stroke="transparent" points="467,-777.4528 467,-970.4528 768,-970.4528 768,-777.4528 467,-777.4528"/>
<polygon fill="#f5f5f5" stroke="transparent" points="467.5,-946.9528 467.5,-969.9528 768.5,-969.9528 768.5,-946.9528 467.5,-946.9528"/>
<polygon fill="none" stroke="#000000" points="467.5,-946.9528 467.5,-969.9528 768.5,-969.9528 768.5,-946.9528 467.5,-946.9528"/>
<text text-anchor="start" x="472.5" y="-956.0528" font-family="Helvetica,sans-Serif" font-weight="bold" font-size="11.00" fill="#000000">TARGET_FORMS</text>
<text text-anchor="start" x="733.5437" y="-955.0528" font-family="Helvetica,sans-Serif" font-size="11.00" fill="#000000">[table]</text>
<polygon fill="none" stroke="#000000" points="467.5,-924.9528 467.5,-946.9528 768.5,-946.9528 768.5,-924.9528 467.5,-924.9528"/>
<image xlink:href="../../images/primaryKeys.png" width="11px" height="12px" preserveAspectRatio="xMinYMin meet" x="472.5" y="-941.953"/>
<text text-anchor="start" x="487.5" y="-932.0528" font-family="Helvetica,sans-Serif" font-size="11.00" fill="#000000">ID</text>
<polygon fill="none" stroke="#000000" points="467.5,-902.9528 467.5,-924.9528 768.5,-924.9528 768.5,-902.9528 467.5,-902.9528"/>
<image xlink:href="../../images/foreignKeys.png" width="11px" height="12px" preserveAspectRatio="xMinYMin meet" x="472.5" y="-919.953"/>
<text text-anchor="start" x="487.5" y="-910.0528" font-family="Helvetica,sans-Serif" font-size="11.00" fill="#000000">TARGET_ID</text>
<polygon fill="none" stroke="#000000" points="467.5,-880.9528 467.5,-902.9528 768.5,-902.9528 768.5,-880.9528 467.5,-880.9528"/>
<image xlink:href="../../images/foreignKeys.png" width="11px" height="12px" preserveAspectRatio="xMinYMin meet" x="472.5" y="-897.953"/>
<text text-anchor="start" x="487.5" y="-888.0528" font-family="Helvetica,sans-Serif" font-size="11.00" fill="#000000">SPECIES_ID</text>
<polygon fill="none" stroke="#000000" points="467.5,-858.9528 467.5,-880.9528 768.5,-880.9528 768.5,-858.9528 467.5,-858.9528"/>
<image xlink:href="../../images/foreignKeys.png" width="11px" height="12px" preserveAspectRatio="xMinYMin meet" x="472.5" y="-875.953"/>
<text text-anchor="start" x="487.5" y="-866.0528" font-family="Helvetica,sans-Serif" font-size="11.00" fill="#000000">POST_TRANSLATIONAL_MODIFICATION_ID</text>
<polygon fill="none" stroke="#000000" points="467.5,-836.9528 467.5,-858.9528 768.5,-858.9528 768.5,-836.9528 467.5,-836.9528"/>
<image xlink:href="../../images/foreignKeys.png" width="11px" height="12px" preserveAspectRatio="xMinYMin meet" x="472.5" y="-853.953"/>
<text text-anchor="start" x="487.5" y="-844.0528" font-family="Helvetica,sans-Serif" font-size="11.00" fill="#000000">ISOFORM_ID</text>
<polygon fill="none" stroke="#000000" points="467.5,-814.9528 467.5,-836.9528 768.5,-836.9528 768.5,-814.9528 467.5,-814.9528"/>
<image xlink:href="../../images/foreignKeys.png" width="11px" height="12px" preserveAspectRatio="xMinYMin meet" x="472.5" y="-831.953"/>
<text text-anchor="start" x="487.5" y="-822.0528" font-family="Helvetica,sans-Serif" font-size="11.00" fill="#000000">EXPRESSION_SYSTEM_ID</text>
<polygon fill="none" stroke="#000000" points="467.5,-795.9528 467.5,-814.9528 768.5,-814.9528 768.5,-795.9528 467.5,-795.9528"/>
<text text-anchor="start" x="470.5" y="-802.0528" font-family="Helvetica,sans-Serif" font-size="11.00" fill="#000000">...</text>
<polygon fill="#ffffff" stroke="transparent" points="467.5,-776.9528 467.5,-795.9528 589.5,-795.9528 589.5,-776.9528 467.5,-776.9528"/>
<polygon fill="none" stroke="#000000" points="467.5,-776.9528 467.5,-795.9528 589.5,-795.9528 589.5,-776.9528 467.5,-776.9528"/>
<text text-anchor="start" x="470.5" y="-783.0528" font-family="Helvetica,sans-Serif" font-size="11.00" fill="#000000">&lt; 5</text>
<polygon fill="#ffffff" stroke="transparent" points="589.5,-776.9528 589.5,-795.9528 690.5,-795.9528 690.5,-776.9528 589.5,-776.9528"/>
<polygon fill="none" stroke="#000000" points="589.5,-776.9528 589.5,-795.9528 690.5,-795.9528 690.5,-776.9528 589.5,-776.9528"/>
<text text-anchor="start" x="642.8807" y="-783.0528" font-family="Helvetica,sans-Serif" font-size="11.00" fill="#000000">541 rows</text>
<polygon fill="#ffffff" stroke="transparent" points="690.5,-776.9528 690.5,-795.9528 768.5,-795.9528 768.5,-776.9528 690.5,-776.9528"/>
<polygon fill="none" stroke="#000000" points="690.5,-776.9528 690.5,-795.9528 768.5,-795.9528 768.5,-776.9528 690.5,-776.9528"/>
<text text-anchor="start" x="743.7904" y="-783.0528" font-family="Helvetica,sans-Serif" font-size="11.00" fill="#000000">18 &gt;</text>
</a>
</g>
</g>
<!-- CLONE_FORMS&#45;&gt;TARGET_FORMS -->
<g id="edge4" class="edge">
<title>CLONE_FORMS:w&#45;&gt;TARGET_FORMS:e</title>
<path fill="none" stroke="#000000" d="M958.5423,-1415.1687C892.8277,-1417.0644 854.9193,-1429.5897 809,-1376.9528 744.3052,-1302.7937 866.9124,-935.9528 768.5,-935.9528"/>
<polygon fill="#000000" stroke="#000000" points="965.0009,-1415.0723 973.0538,-1418.5524 969.0004,-1415.0126 973,-1414.9528 973,-1414.9528 973,-1414.9528 969.0004,-1415.0126 972.9462,-1411.3532 965.0009,-1415.0723 965.0009,-1415.0723"/>
<ellipse fill="none" stroke="#000000" cx="961.8012" cy="-1415.1201" rx="3.2" ry="3.2"/>
</g>
<!-- TARGETS -->
<g id="node9" class="node">
<title>TARGETS</title>
<g id="a_node9"><a xlink:href="../../tables/TARGETS.html" xlink:title="TARGETS" target="_top">
<polygon fill="#ffffff" stroke="transparent" points="8,-758.4528 8,-819.4528 106,-819.4528 106,-758.4528 8,-758.4528"/>
<polygon fill="#f5f5f5" stroke="transparent" points="8,-795.9528 8,-818.9528 106,-818.9528 106,-795.9528 8,-795.9528"/>
<polygon fill="none" stroke="#000000" points="8,-795.9528 8,-818.9528 106,-818.9528 106,-795.9528 8,-795.9528"/>
<text text-anchor="start" x="13" y="-805.0528" font-family="Helvetica,sans-Serif" font-weight="bold" font-size="11.00" fill="#000000">TARGETS</text>
<text text-anchor="start" x="71.0437" y="-804.0528" font-family="Helvetica,sans-Serif" font-size="11.00" fill="#000000">[table]</text>
<polygon fill="none" stroke="#000000" points="8,-776.9528 8,-795.9528 106,-795.9528 106,-776.9528 8,-776.9528"/>
<text text-anchor="start" x="11" y="-783.0528" font-family="Helvetica,sans-Serif" font-size="11.00" fill="#000000">...</text>
<polygon fill="#ffffff" stroke="transparent" points="8,-757.9528 8,-776.9528 29,-776.9528 29,-757.9528 8,-757.9528"/>
<polygon fill="none" stroke="#000000" points="8,-757.9528 8,-776.9528 29,-776.9528 29,-757.9528 8,-757.9528"/>
<text text-anchor="start" x="10.7027" y="-764.0528" font-family="Helvetica,sans-Serif" font-size="11.00" fill="#000000">&lt; 3</text>
<polygon fill="#ffffff" stroke="transparent" points="29,-757.9528 29,-776.9528 79,-776.9528 79,-757.9528 29,-757.9528"/>
<polygon fill="none" stroke="#000000" points="29,-757.9528 29,-776.9528 79,-776.9528 79,-757.9528 29,-757.9528"/>
<text text-anchor="start" x="31.6904" y="-764.0528" font-family="Helvetica,sans-Serif" font-size="11.00" fill="#000000">146 rows</text>
<polygon fill="#ffffff" stroke="transparent" points="79,-757.9528 79,-776.9528 106,-776.9528 106,-757.9528 79,-757.9528"/>
<polygon fill="none" stroke="#000000" points="79,-757.9528 79,-776.9528 106,-776.9528 106,-757.9528 79,-757.9528"/>
<text text-anchor="start" x="81.6452" y="-764.0528" font-family="Helvetica,sans-Serif" font-size="11.00" fill="#000000">10 &gt;</text>
</a>
</g>
</g>
<!-- ISOFORMS&#45;&gt;TARGETS -->
<g id="edge9" class="edge">
<title>ISOFORMS:w&#45;&gt;TARGETS:e</title>
<path fill="none" stroke="#000000" d="M221.914,-1258.1485C127.8304,-1247.102 175.4359,-1124.3699 147,-1019.9528 133.1283,-969.0157 158.7922,-785.9528 106,-785.9528"/>
<polygon fill="#000000" stroke="#000000" points="228.5121,-1258.5123 236.3018,-1262.5474 232.5061,-1258.7325 236.5,-1258.9528 236.5,-1258.9528 236.5,-1258.9528 232.5061,-1258.7325 236.6982,-1255.3583 228.5121,-1258.5123 228.5121,-1258.5123"/>
<ellipse fill="none" stroke="#000000" cx="225.317" cy="-1258.3361" rx="3.2" ry="3.2"/>
</g>
<!-- TARGET_FORMS&#45;&gt;ISOFORMS -->
<g id="edge16" class="edge">
<title>TARGET_FORMS:w&#45;&gt;ISOFORMS:e</title>
<path fill="none" stroke="#000000" d="M454.243,-854.5227C430.2794,-881.9425 435.936,-987.3357 426,-1019.9528 392.9923,-1128.3076 450.7708,-1258.9528 337.5,-1258.9528"/>
<polygon fill="#000000" stroke="#000000" points="460.3319,-851.5052 469.0986,-851.1784 463.916,-849.729 467.5,-847.9528 467.5,-847.9528 467.5,-847.9528 463.916,-849.729 465.9014,-844.7272 460.3319,-851.5052 460.3319,-851.5052"/>
<ellipse fill="none" stroke="#000000" cx="457.4647" cy="-852.9261" rx="3.2" ry="3.2"/>
</g>
<!-- TARGET_FORMS&#45;&gt;POST_TRANSLATIONAL_MODIFICATIONS -->
<g id="edge17" class="edge">
<title>TARGET_FORMS:w&#45;&gt;POST_TRANSLATIONAL_MODIFICATIONS:e</title>
<path fill="none" stroke="#000000" d="M452.9909,-869.9528C441.6774,-869.9528 434.4931,-869.9528 418.5,-869.9528"/>
<polygon fill="#000000" stroke="#000000" points="459.5,-869.9529 467.5,-873.5528 463.5,-869.9528 467.5,-869.9528 467.5,-869.9528 467.5,-869.9528 463.5,-869.9528 467.5,-866.3528 459.5,-869.9529 459.5,-869.9529"/>
<ellipse fill="none" stroke="#000000" cx="456.3" cy="-869.9529" rx="3.2" ry="3.2"/>
</g>
<!-- TARGET_FORMS&#45;&gt;SPECIES -->
<g id="edge18" class="edge">
<title>TARGET_FORMS:w&#45;&gt;SPECIES:e</title>
<path fill="none" stroke="#000000" d="M453.3259,-894.8374C444.2056,-899.2184 439.4599,-907.6999 426,-913.9528 384.9453,-933.025 376.7685,-951.9528 331.5,-951.9528"/>
<polygon fill="#000000" stroke="#000000" points="459.6607,-893.5483 468.2179,-895.4805 463.5803,-892.7505 467.5,-891.9528 467.5,-891.9528 467.5,-891.9528 463.5803,-892.7505 466.7821,-888.4251 459.6607,-893.5483 459.6607,-893.5483"/>
<ellipse fill="none" stroke="#000000" cx="456.525" cy="-894.1864" rx="3.2" ry="3.2"/>
</g>
<!-- TARGET_FORMS&#45;&gt;TARGETS -->
<g id="edge19" class="edge">
<title>TARGET_FORMS:w&#45;&gt;TARGETS:e</title>
<path fill="none" stroke="#000000" d="M453.5444,-917.8199C435.4572,-931.5098 455.4966,-977.822 426,-995.9528 320.361,-1060.8866 242.714,-1074.787 147,-995.9528 73.597,-935.4949 201.0955,-785.9528 106,-785.9528"/>
<polygon fill="#000000" stroke="#000000" points="459.7905,-916.0892 468.4614,-917.4221 463.6453,-915.021 467.5,-913.9528 467.5,-913.9528 467.5,-913.9528 463.6453,-915.021 466.5386,-910.4835 459.7905,-916.0892 459.7905,-916.0892"/>
<ellipse fill="none" stroke="#000000" cx="456.7067" cy="-916.9437" rx="3.2" ry="3.2"/>
</g>
<!-- EXPRESSION_SYSTEMS -->
<g id="node13" class="node">
<title>EXPRESSION_SYSTEMS</title>
<g id="a_node13"><a xlink:href="../../tables/EXPRESSION_SYSTEMS.html" xlink:title="EXPRESSION_SYSTEMS" target="_top">
<polygon fill="#ffffff" stroke="transparent" points="200,-760.4528 200,-821.4528 373,-821.4528 373,-760.4528 200,-760.4528"/>
<polygon fill="#f5f5f5" stroke="transparent" points="200.5,-797.9528 200.5,-820.9528 373.5,-820.9528 373.5,-797.9528 200.5,-797.9528"/>
<polygon fill="none" stroke="#000000" points="200.5,-797.9528 200.5,-820.9528 373.5,-820.9528 373.5,-797.9528 200.5,-797.9528"/>
<text text-anchor="start" x="205.4064" y="-807.0528" font-family="Helvetica,sans-Serif" font-weight="bold" font-size="11.00" fill="#000000">EXPRESSION_SYSTEMS</text>
<text text-anchor="start" x="339.0219" y="-806.0528" font-family="Helvetica,sans-Serif" font-size="11.00" fill="#000000">[table]</text>
<polygon fill="none" stroke="#000000" points="200.5,-778.9528 200.5,-797.9528 373.5,-797.9528 373.5,-778.9528 200.5,-778.9528"/>
<text text-anchor="start" x="203.5" y="-785.0528" font-family="Helvetica,sans-Serif" font-size="11.00" fill="#000000">...</text>
<polygon fill="#ffffff" stroke="transparent" points="200.5,-759.9528 200.5,-778.9528 263.5,-778.9528 263.5,-759.9528 200.5,-759.9528"/>
<polygon fill="none" stroke="#000000" points="200.5,-759.9528 200.5,-778.9528 263.5,-778.9528 263.5,-759.9528 200.5,-759.9528"/>
<text text-anchor="start" x="203.5" y="-766.0528" font-family="Helvetica,sans-Serif" font-size="11.00" fill="#000000"> &#160;</text>
<polygon fill="#ffffff" stroke="transparent" points="263.5,-759.9528 263.5,-778.9528 326.5,-778.9528 326.5,-759.9528 263.5,-759.9528"/>
<polygon fill="none" stroke="#000000" points="263.5,-759.9528 263.5,-778.9528 326.5,-778.9528 326.5,-759.9528 263.5,-759.9528"/>
<text text-anchor="start" x="291.1105" y="-766.0528" font-family="Helvetica,sans-Serif" font-size="11.00" fill="#000000">3 rows</text>
<polygon fill="#ffffff" stroke="transparent" points="326.5,-759.9528 326.5,-778.9528 373.5,-778.9528 373.5,-759.9528 326.5,-759.9528"/>
<polygon fill="none" stroke="#000000" points="326.5,-759.9528 326.5,-778.9528 373.5,-778.9528 373.5,-759.9528 326.5,-759.9528"/>
<text text-anchor="start" x="354.9053" y="-766.0528" font-family="Helvetica,sans-Serif" font-size="11.00" fill="#000000">1 &gt;</text>
</a>
</g>
</g>
<!-- TARGET_FORMS&#45;&gt;EXPRESSION_SYSTEMS -->
<g id="edge15" class="edge">
<title>TARGET_FORMS:w&#45;&gt;EXPRESSION_SYSTEMS:e</title>
<path fill="none" stroke="#000000" d="M452.7953,-824.4161C420.8951,-817.3069 413.1056,-787.9528 373.5,-787.9528"/>
<polygon fill="#000000" stroke="#000000" points="459.5433,-825.1213 467.1258,-829.5333 463.5217,-825.537 467.5,-825.9528 467.5,-825.9528 467.5,-825.9528 463.5217,-825.537 467.8742,-822.3723 459.5433,-825.1213 459.5433,-825.1213"/>
<ellipse fill="none" stroke="#000000" cx="456.3607" cy="-824.7886" rx="3.2" ry="3.2"/>
</g>
<!-- CLONE_FORMS_ISOFORM_REGIONS -->
<g id="node6" class="node">
<title>CLONE_FORMS_ISOFORM_REGIONS</title>
<g id="a_node6"><a xlink:href="../../tables/CLONE_FORMS_ISOFORM_REGIONS.html" xlink:title="CLONE_FORMS_ISOFORM_REGIONS" target="_top">
<polygon fill="#ffffff" stroke="transparent" points="1304,-1537.4528 1304,-1598.4528 1545,-1598.4528 1545,-1537.4528 1304,-1537.4528"/>
<polygon fill="#f5f5f5" stroke="transparent" points="1304.5,-1574.9528 1304.5,-1597.9528 1545.5,-1597.9528 1545.5,-1574.9528 1304.5,-1574.9528"/>
<polygon fill="none" stroke="#000000" points="1304.5,-1574.9528 1304.5,-1597.9528 1545.5,-1597.9528 1545.5,-1574.9528 1304.5,-1574.9528"/>
<text text-anchor="start" x="1309.4984" y="-1584.0528" font-family="Helvetica,sans-Serif" font-weight="bold" font-size="11.00" fill="#000000">CLONE_FORMS_ISOFORM_REGIONS</text>
<text text-anchor="start" x="1511.0219" y="-1583.0528" font-family="Helvetica,sans-Serif" font-size="11.00" fill="#000000">[table]</text>
<polygon fill="none" stroke="#000000" points="1304.5,-1555.9528 1304.5,-1574.9528 1545.5,-1574.9528 1545.5,-1555.9528 1304.5,-1555.9528"/>
<text text-anchor="start" x="1307.5" y="-1562.0528" font-family="Helvetica,sans-Serif" font-size="11.00" fill="#000000">...</text>
<polygon fill="#ffffff" stroke="transparent" points="1304.5,-1536.9528 1304.5,-1555.9528 1407.5,-1555.9528 1407.5,-1536.9528 1304.5,-1536.9528"/>
<polygon fill="none" stroke="#000000" points="1304.5,-1536.9528 1304.5,-1555.9528 1407.5,-1555.9528 1407.5,-1536.9528 1304.5,-1536.9528"/>
<text text-anchor="start" x="1307.5" y="-1543.0528" font-family="Helvetica,sans-Serif" font-size="11.00" fill="#000000">&lt; 2</text>
<polygon fill="#ffffff" stroke="transparent" points="1407.5,-1536.9528 1407.5,-1555.9528 1492.5,-1555.9528 1492.5,-1536.9528 1407.5,-1536.9528"/>
<polygon fill="none" stroke="#000000" points="1407.5,-1536.9528 1407.5,-1555.9528 1492.5,-1555.9528 1492.5,-1536.9528 1407.5,-1536.9528"/>
<text text-anchor="start" x="1450.9956" y="-1543.0528" font-family="Helvetica,sans-Serif" font-size="11.00" fill="#000000">73 rows</text>
<polygon fill="#ffffff" stroke="transparent" points="1492.5,-1536.9528 1492.5,-1555.9528 1545.5,-1555.9528 1545.5,-1536.9528 1492.5,-1536.9528"/>
<polygon fill="none" stroke="#000000" points="1492.5,-1536.9528 1492.5,-1555.9528 1545.5,-1555.9528 1545.5,-1536.9528 1492.5,-1536.9528"/>
<text text-anchor="start" x="1536.3862" y="-1543.0528" font-family="Helvetica,sans-Serif" font-size="11.00" fill="#000000"> &#160;</text>
</a>
</g>
</g>
<!-- CLONE_FORMS_ISOFORM_REGIONS&#45;&gt;CLONE_FORMS -->
<g id="edge5" class="edge">
<title>CLONE_FORMS_ISOFORM_REGIONS:w&#45;&gt;CLONE_FORMS:e</title>
<path fill="none" stroke="#000000" d="M1290.1844,-1562.0021C1264.2469,-1548.1945 1295.8321,-1489.3999 1263,-1459.9528 1206.733,-1409.4869 1174.583,-1414.9528 1099,-1414.9528"/>
<polygon fill="#000000" stroke="#000000" points="1296.6647,-1563.3378 1303.7732,-1568.4787 1300.5824,-1564.1453 1304.5,-1564.9528 1304.5,-1564.9528 1304.5,-1564.9528 1300.5824,-1564.1453 1305.2268,-1561.4269 1296.6647,-1563.3378 1296.6647,-1563.3378"/>
<ellipse fill="none" stroke="#000000" cx="1293.5306" cy="-1562.6917" rx="3.2" ry="3.2"/>
</g>
<!-- ISOFORM_REGIONS -->
<g id="node7" class="node">
<title>ISOFORM_REGIONS</title>
<g id="a_node7"><a xlink:href="../../tables/ISOFORM_REGIONS.html" xlink:title="ISOFORM_REGIONS" target="_top">
<polygon fill="#ffffff" stroke="transparent" points="542,-1453.4528 542,-1558.4528 693,-1558.4528 693,-1453.4528 542,-1453.4528"/>
<polygon fill="#f5f5f5" stroke="transparent" points="542.5,-1534.9528 542.5,-1557.9528 693.5,-1557.9528 693.5,-1534.9528 542.5,-1534.9528"/>
<polygon fill="none" stroke="#000000" points="542.5,-1534.9528 542.5,-1557.9528 693.5,-1557.9528 693.5,-1534.9528 542.5,-1534.9528"/>
<text text-anchor="start" x="547.4158" y="-1544.0528" font-family="Helvetica,sans-Serif" font-weight="bold" font-size="11.00" fill="#000000">ISOFORM_REGIONS</text>
<text text-anchor="start" x="659.0219" y="-1543.0528" font-family="Helvetica,sans-Serif" font-size="11.00" fill="#000000">[table]</text>
<polygon fill="none" stroke="#000000" points="542.5,-1512.9528 542.5,-1534.9528 693.5,-1534.9528 693.5,-1512.9528 542.5,-1512.9528"/>
<image xlink:href="../../images/primaryKeys.png" width="11px" height="12px" preserveAspectRatio="xMinYMin meet" x="547.5" y="-1529.95"/>
<text text-anchor="start" x="563.5" y="-1520.0528" font-family="Helvetica,sans-Serif" font-size="11.00" fill="#000000">ID</text>
<polygon fill="none" stroke="#000000" points="542.5,-1490.9528 542.5,-1512.9528 693.5,-1512.9528 693.5,-1490.9528 542.5,-1490.9528"/>
<image xlink:href="../../images/foreignKeys.png" width="11px" height="12px" preserveAspectRatio="xMinYMin meet" x="547.5" y="-1507.95"/>
<text text-anchor="start" x="563.5" y="-1498.0528" font-family="Helvetica,sans-Serif" font-size="11.00" fill="#000000">ISOFORM_ID</text>
<polygon fill="none" stroke="#000000" points="542.5,-1471.9528 542.5,-1490.9528 693.5,-1490.9528 693.5,-1471.9528 542.5,-1471.9528"/>
<text text-anchor="start" x="545.5" y="-1478.0528" font-family="Helvetica,sans-Serif" font-size="11.00" fill="#000000">...</text>
<polygon fill="#ffffff" stroke="transparent" points="542.5,-1452.9528 542.5,-1471.9528 592.5,-1471.9528 592.5,-1452.9528 542.5,-1452.9528"/>
<polygon fill="none" stroke="#000000" points="542.5,-1452.9528 542.5,-1471.9528 592.5,-1471.9528 592.5,-1452.9528 542.5,-1452.9528"/>
<text text-anchor="start" x="545.5" y="-1459.0528" font-family="Helvetica,sans-Serif" font-size="11.00" fill="#000000">&lt; 1</text>
<polygon fill="#ffffff" stroke="transparent" points="592.5,-1452.9528 592.5,-1471.9528 657.5,-1471.9528 657.5,-1452.9528 592.5,-1452.9528"/>
<polygon fill="none" stroke="#000000" points="592.5,-1452.9528 592.5,-1471.9528 657.5,-1471.9528 657.5,-1452.9528 592.5,-1452.9528"/>
<text text-anchor="start" x="609.8807" y="-1459.0528" font-family="Helvetica,sans-Serif" font-size="11.00" fill="#000000">199 rows</text>
<polygon fill="#ffffff" stroke="transparent" points="657.5,-1452.9528 657.5,-1471.9528 693.5,-1471.9528 693.5,-1452.9528 657.5,-1452.9528"/>
<polygon fill="none" stroke="#000000" points="657.5,-1452.9528 657.5,-1471.9528 693.5,-1471.9528 693.5,-1452.9528 657.5,-1452.9528"/>
<text text-anchor="start" x="674.9053" y="-1459.0528" font-family="Helvetica,sans-Serif" font-size="11.00" fill="#000000">2 &gt;</text>
</a>
</g>
</g>
<!-- CLONE_FORMS_ISOFORM_REGIONS&#45;&gt;ISOFORM_REGIONS -->
<g id="edge6" class="edge">
<title>CLONE_FORMS_ISOFORM_REGIONS:w&#45;&gt;ISOFORM_REGIONS:e</title>
<path fill="none" stroke="#000000" d="M1289.9083,-1567.4509C1253.2161,-1583.1215 1309.5784,-1668.3211 1263,-1702.9528 1101.0751,-1823.3463 986.1846,-1799.4924 809,-1702.9528 725.8603,-1657.6539 788.1794,-1523.9528 693.5,-1523.9528"/>
<polygon fill="#000000" stroke="#000000" points="1296.6147,-1566.3028 1305.1075,-1568.5012 1300.5574,-1565.6278 1304.5,-1564.9528 1304.5,-1564.9528 1304.5,-1564.9528 1300.5574,-1565.6278 1303.8925,-1561.4044 1296.6147,-1566.3028 1296.6147,-1566.3028"/>
<ellipse fill="none" stroke="#000000" cx="1293.4606" cy="-1566.8428" rx="3.2" ry="3.2"/>
</g>
<!-- ISOFORM_REGIONS&#45;&gt;ISOFORMS -->
<g id="edge8" class="edge">
<title>ISOFORM_REGIONS:w&#45;&gt;ISOFORMS:e</title>
<path fill="none" stroke="#000000" d="M528.0202,-1501.024C406.5234,-1484.7095 473.6929,-1258.9528 337.5,-1258.9528"/>
<polygon fill="#000000" stroke="#000000" points="534.5164,-1501.4406 542.2695,-1505.5454 538.5082,-1501.6967 542.5,-1501.9528 542.5,-1501.9528 542.5,-1501.9528 538.5082,-1501.6967 542.7305,-1498.3602 534.5164,-1501.4406 534.5164,-1501.4406"/>
<ellipse fill="none" stroke="#000000" cx="531.323" cy="-1501.2358" rx="3.2" ry="3.2"/>
</g>
<!-- IN_HOUSE_ASSAYS -->
<g id="node8" class="node">
<title>IN_HOUSE_ASSAYS</title>
<g id="a_node8"><a xlink:href="../../tables/IN_HOUSE_ASSAYS.html" xlink:title="IN_HOUSE_ASSAYS" target="_top">
<polygon fill="#ffffff" stroke="transparent" points="961.5,-457.4528 961.5,-518.4528 1110.5,-518.4528 1110.5,-457.4528 961.5,-457.4528"/>
<polygon fill="#f5f5f5" stroke="transparent" points="962,-494.9528 962,-517.9528 1111,-517.9528 1111,-494.9528 962,-494.9528"/>
<polygon fill="none" stroke="#000000" points="962,-494.9528 962,-517.9528 1111,-517.9528 1111,-494.9528 962,-494.9528"/>
<text text-anchor="start" x="966.8233" y="-504.0528" font-family="Helvetica,sans-Serif" font-weight="bold" font-size="11.00" fill="#000000">IN_HOUSE_ASSAYS</text>
<text text-anchor="start" x="1076.5219" y="-503.0528" font-family="Helvetica,sans-Serif" font-size="11.00" fill="#000000">[table]</text>
<polygon fill="none" stroke="#000000" points="962,-475.9528 962,-494.9528 1111,-494.9528 1111,-475.9528 962,-475.9528"/>
<text text-anchor="start" x="965" y="-482.0528" font-family="Helvetica,sans-Serif" font-size="11.00" fill="#000000">...</text>
<polygon fill="#ffffff" stroke="transparent" points="962,-456.9528 962,-475.9528 1014,-475.9528 1014,-456.9528 962,-456.9528"/>
<polygon fill="none" stroke="#000000" points="962,-456.9528 962,-475.9528 1014,-475.9528 1014,-456.9528 962,-456.9528"/>
<text text-anchor="start" x="965" y="-463.0528" font-family="Helvetica,sans-Serif" font-size="11.00" fill="#000000">&lt; 4</text>
<polygon fill="#ffffff" stroke="transparent" points="1014,-456.9528 1014,-475.9528 1074,-475.9528 1074,-456.9528 1014,-456.9528"/>
<polygon fill="none" stroke="#000000" points="1014,-456.9528 1014,-475.9528 1074,-475.9528 1074,-456.9528 1014,-456.9528"/>
<text text-anchor="start" x="1032.4956" y="-463.0528" font-family="Helvetica,sans-Serif" font-size="11.00" fill="#000000">51 rows</text>
<polygon fill="#ffffff" stroke="transparent" points="1074,-456.9528 1074,-475.9528 1111,-475.9528 1111,-456.9528 1074,-456.9528"/>
<polygon fill="none" stroke="#000000" points="1074,-456.9528 1074,-475.9528 1111,-475.9528 1111,-456.9528 1074,-456.9528"/>
<text text-anchor="start" x="1092.4053" y="-463.0528" font-family="Helvetica,sans-Serif" font-size="11.00" fill="#000000">1 &gt;</text>
</a>
</g>
</g>
<!-- IN_HOUSE_ASSAYS&#45;&gt;TARGET_FORMS -->
<g id="edge7" class="edge">
<title>IN_HOUSE_ASSAYS:w&#45;&gt;TARGET_FORMS:e</title>
<path fill="none" stroke="#000000" d="M947.5619,-484.8255C886.0087,-483.8178 851.124,-478.4285 809,-528.9528 750.7963,-598.7635 859.3911,-935.9528 768.5,-935.9528"/>
<polygon fill="#000000" stroke="#000000" points="954.0003,-484.8822 961.9682,-488.5527 958.0002,-484.9175 962,-484.9528 962,-484.9528 962,-484.9528 958.0002,-484.9175 962.0318,-481.353 954.0003,-484.8822 954.0003,-484.8822"/>
<ellipse fill="none" stroke="#000000" cx="950.8004" cy="-484.854" rx="3.2" ry="3.2"/>
</g>
<!-- SCREENING_PLANS -->
<g id="node10" class="node">
<title>SCREENING_PLANS</title>
<g id="a_node10"><a xlink:href="../../tables/SCREENING_PLANS.html" xlink:title="SCREENING_PLANS" target="_top">
<polygon fill="#ffffff" stroke="transparent" points="1349.5,-211.4528 1349.5,-272.4528 1499.5,-272.4528 1499.5,-211.4528 1349.5,-211.4528"/>
<polygon fill="#f5f5f5" stroke="transparent" points="1349.5,-248.9528 1349.5,-271.9528 1499.5,-271.9528 1499.5,-248.9528 1349.5,-248.9528"/>
<polygon fill="none" stroke="#000000" points="1349.5,-248.9528 1349.5,-271.9528 1499.5,-271.9528 1499.5,-248.9528 1349.5,-248.9528"/>
<text text-anchor="start" x="1354.2182" y="-258.0528" font-family="Helvetica,sans-Serif" font-weight="bold" font-size="11.00" fill="#000000">SCREENING_PLANS</text>
<text text-anchor="start" x="1465.0219" y="-257.0528" font-family="Helvetica,sans-Serif" font-size="11.00" fill="#000000">[table]</text>
<polygon fill="none" stroke="#000000" points="1349.5,-229.9528 1349.5,-248.9528 1499.5,-248.9528 1499.5,-229.9528 1349.5,-229.9528"/>
<text text-anchor="start" x="1352.5" y="-236.0528" font-family="Helvetica,sans-Serif" font-size="11.00" fill="#000000">...</text>
<polygon fill="#ffffff" stroke="transparent" points="1349.5,-210.9528 1349.5,-229.9528 1399.5,-229.9528 1399.5,-210.9528 1349.5,-210.9528"/>
<polygon fill="none" stroke="#000000" points="1349.5,-210.9528 1349.5,-229.9528 1399.5,-229.9528 1399.5,-210.9528 1349.5,-210.9528"/>
<text text-anchor="start" x="1352.5" y="-217.0528" font-family="Helvetica,sans-Serif" font-size="11.00" fill="#000000">&lt; 3</text>
<polygon fill="#ffffff" stroke="transparent" points="1399.5,-210.9528 1399.5,-229.9528 1463.5,-229.9528 1463.5,-210.9528 1399.5,-210.9528"/>
<polygon fill="none" stroke="#000000" points="1399.5,-210.9528 1399.5,-229.9528 1463.5,-229.9528 1463.5,-210.9528 1399.5,-210.9528"/>
<text text-anchor="start" x="1415.8807" y="-217.0528" font-family="Helvetica,sans-Serif" font-size="11.00" fill="#000000">137 rows</text>
<polygon fill="#ffffff" stroke="transparent" points="1463.5,-210.9528 1463.5,-229.9528 1499.5,-229.9528 1499.5,-210.9528 1463.5,-210.9528"/>
<polygon fill="none" stroke="#000000" points="1463.5,-210.9528 1463.5,-229.9528 1499.5,-229.9528 1499.5,-210.9528 1463.5,-210.9528"/>
<text text-anchor="start" x="1480.9053" y="-217.0528" font-family="Helvetica,sans-Serif" font-size="11.00" fill="#000000">1 &gt;</text>
</a>
</g>
</g>
<!-- SCREENING_PLANS&#45;&gt;TARGET_FORMS -->
<g id="edge11" class="edge">
<title>SCREENING_PLANS:w&#45;&gt;TARGET_FORMS:e</title>
<path fill="none" stroke="#000000" d="M1335.1442,-240.4603C1169.4264,-277.2672 1402.3054,-976.8977 1263,-1102.9528 1225.5959,-1136.7992 848.6508,-1134.1371 809,-1102.9528 748.9681,-1055.7394 844.8737,-935.9528 768.5,-935.9528"/>
<polygon fill="#000000" stroke="#000000" points="1341.5437,-239.7883 1349.876,-242.5331 1345.5219,-239.3706 1349.5,-238.9528 1349.5,-238.9528 1349.5,-238.9528 1345.5219,-239.3706 1349.124,-235.3725 1341.5437,-239.7883 1341.5437,-239.7883"/>
<ellipse fill="none" stroke="#000000" cx="1338.3612" cy="-240.1225" rx="3.2" ry="3.2"/>
</g>
<!-- SCREENING_PLANS&#45;&gt;TARGETS -->
<g id="edge12" class="edge">
<title>SCREENING_PLANS:w&#45;&gt;TARGETS:e</title>
<path fill="none" stroke="#000000" d="M1335.0073,-237.1364C1289.4196,-224.2523 1316.6083,-146.3942 1263,-118.9528 942.2681,45.2258 775.9685,-51.6211 459,-222.9528 299.2036,-309.3279 234.4695,-327.7528 147,-486.9528 114.7052,-545.7314 173.0662,-785.9528 106,-785.9528"/>
<polygon fill="#000000" stroke="#000000" points="1341.5621,-237.9579 1349.0523,-242.5249 1345.5311,-238.4554 1349.5,-238.9528 1349.5,-238.9528 1349.5,-238.9528 1345.5311,-238.4554 1349.9477,-235.3808 1341.5621,-237.9579 1341.5621,-237.9579"/>
<ellipse fill="none" stroke="#000000" cx="1338.3869" cy="-237.5599" rx="3.2" ry="3.2"/>
</g>
<!-- SUPPLEMENTS -->
<g id="node11" class="node">
<title>SUPPLEMENTS</title>
<g id="a_node11"><a xlink:href="../../tables/SUPPLEMENTS.html" xlink:title="SUPPLEMENTS" target="_top">
<polygon fill="#ffffff" stroke="transparent" points="974,-211.4528 974,-272.4528 1098,-272.4528 1098,-211.4528 974,-211.4528"/>
<polygon fill="#f5f5f5" stroke="transparent" points="974,-248.9528 974,-271.9528 1098,-271.9528 1098,-248.9528 974,-248.9528"/>
<polygon fill="none" stroke="#000000" points="974,-248.9528 974,-271.9528 1098,-271.9528 1098,-248.9528 974,-248.9528"/>
<text text-anchor="start" x="978.5531" y="-258.0528" font-family="Helvetica,sans-Serif" font-weight="bold" font-size="11.00" fill="#000000">SUPPLEMENTS</text>
<text text-anchor="start" x="1063.5219" y="-257.0528" font-family="Helvetica,sans-Serif" font-size="11.00" fill="#000000">[table]</text>
<polygon fill="none" stroke="#000000" points="974,-229.9528 974,-248.9528 1098,-248.9528 1098,-229.9528 974,-229.9528"/>
<text text-anchor="start" x="977" y="-236.0528" font-family="Helvetica,sans-Serif" font-size="11.00" fill="#000000">...</text>
<polygon fill="#ffffff" stroke="transparent" points="974,-210.9528 974,-229.9528 1014,-229.9528 1014,-210.9528 974,-210.9528"/>
<polygon fill="none" stroke="#000000" points="974,-210.9528 974,-229.9528 1014,-229.9528 1014,-210.9528 974,-210.9528"/>
<text text-anchor="start" x="977" y="-217.0528" font-family="Helvetica,sans-Serif" font-size="11.00" fill="#000000">&lt; 1</text>
<polygon fill="#ffffff" stroke="transparent" points="1014,-210.9528 1014,-229.9528 1067,-229.9528 1067,-210.9528 1014,-210.9528"/>
<polygon fill="none" stroke="#000000" points="1014,-210.9528 1014,-229.9528 1067,-229.9528 1067,-210.9528 1014,-210.9528"/>
<text text-anchor="start" x="1025.4956" y="-217.0528" font-family="Helvetica,sans-Serif" font-size="11.00" fill="#000000">77 rows</text>
<polygon fill="#ffffff" stroke="transparent" points="1067,-210.9528 1067,-229.9528 1098,-229.9528 1098,-210.9528 1067,-210.9528"/>
<polygon fill="none" stroke="#000000" points="1067,-210.9528 1067,-229.9528 1098,-229.9528 1098,-210.9528 1067,-210.9528"/>
<text text-anchor="start" x="1079.4053" y="-217.0528" font-family="Helvetica,sans-Serif" font-size="11.00" fill="#000000">5 &gt;</text>
</a>
</g>
</g>
<!-- SCREENING_PLANS&#45;&gt;SUPPLEMENTS -->
<g id="edge10" class="edge">
<title>SCREENING_PLANS:w&#45;&gt;SUPPLEMENTS:e</title>
<path fill="none" stroke="#000000" d="M1334.9285,-238.9528C1235.0424,-238.9528 1204.7565,-238.9528 1098,-238.9528"/>
<polygon fill="#000000" stroke="#000000" points="1341.5,-238.9529 1349.5,-242.5528 1345.5,-238.9528 1349.5,-238.9528 1349.5,-238.9528 1349.5,-238.9528 1345.5,-238.9528 1349.5,-235.3528 1341.5,-238.9529 1341.5,-238.9529"/>
<ellipse fill="none" stroke="#000000" cx="1338.3" cy="-238.9529" rx="3.2" ry="3.2"/>
</g>
<!-- SUPPLEMENTS&#45;&gt;TARGET_FORMS -->
<g id="edge13" class="edge">
<title>SUPPLEMENTS:w&#45;&gt;TARGET_FORMS:e</title>
<path fill="none" stroke="#000000" d="M959.3292,-238.7839C892.6244,-237.3212 853.8873,-228.1285 809,-282.9528 762.9478,-339.2 841.195,-935.9528 768.5,-935.9528"/>
<polygon fill="#000000" stroke="#000000" points="966.0005,-238.8606 973.9585,-242.5526 970.0003,-238.9067 974,-238.9528 974,-238.9528 974,-238.9528 970.0003,-238.9067 974.0415,-235.3531 966.0005,-238.8606 966.0005,-238.8606"/>
<ellipse fill="none" stroke="#000000" cx="962.8007" cy="-238.8238" rx="3.2" ry="3.2"/>
</g>
<!-- TARGET_FORM_COMMENTS -->
<g id="node12" class="node">
<title>TARGET_FORM_COMMENTS</title>
<g id="a_node12"><a xlink:href="../../tables/TARGET_FORM_COMMENTS.html" xlink:title="TARGET_FORM_COMMENTS" target="_top">
<polygon fill="#ffffff" stroke="transparent" points="938,-375.4528 938,-436.4528 1134,-436.4528 1134,-375.4528 938,-375.4528"/>
<polygon fill="#f5f5f5" stroke="transparent" points="938,-412.9528 938,-435.9528 1134,-435.9528 1134,-412.9528 938,-412.9528"/>
<polygon fill="none" stroke="#000000" points="938,-412.9528 938,-435.9528 1134,-435.9528 1134,-412.9528 938,-412.9528"/>
<text text-anchor="start" x="942.8135" y="-422.0528" font-family="Helvetica,sans-Serif" font-weight="bold" font-size="11.00" fill="#000000">TARGET_FORM_COMMENTS</text>
<text text-anchor="start" x="1099.5219" y="-421.0528" font-family="Helvetica,sans-Serif" font-size="11.00" fill="#000000">[table]</text>
<polygon fill="none" stroke="#000000" points="938,-393.9528 938,-412.9528 1134,-412.9528 1134,-393.9528 938,-393.9528"/>
<text text-anchor="start" x="941" y="-400.0528" font-family="Helvetica,sans-Serif" font-size="11.00" fill="#000000">...</text>
<polygon fill="#ffffff" stroke="transparent" points="938,-374.9528 938,-393.9528 1021,-393.9528 1021,-374.9528 938,-374.9528"/>
<polygon fill="none" stroke="#000000" points="938,-374.9528 938,-393.9528 1021,-393.9528 1021,-374.9528 938,-374.9528"/>
<text text-anchor="start" x="941" y="-381.0528" font-family="Helvetica,sans-Serif" font-size="11.00" fill="#000000">&lt; 2</text>
<polygon fill="#ffffff" stroke="transparent" points="1021,-374.9528 1021,-393.9528 1090,-393.9528 1090,-374.9528 1021,-374.9528"/>
<polygon fill="none" stroke="#000000" points="1021,-374.9528 1021,-393.9528 1090,-393.9528 1090,-374.9528 1021,-374.9528"/>
<text text-anchor="start" x="1054.6105" y="-381.0528" font-family="Helvetica,sans-Serif" font-size="11.00" fill="#000000">3 rows</text>
<polygon fill="#ffffff" stroke="transparent" points="1090,-374.9528 1090,-393.9528 1134,-393.9528 1134,-374.9528 1090,-374.9528"/>
<polygon fill="none" stroke="#000000" points="1090,-374.9528 1090,-393.9528 1134,-393.9528 1134,-374.9528 1090,-374.9528"/>
<text text-anchor="start" x="1124.8862" y="-381.0528" font-family="Helvetica,sans-Serif" font-size="11.00" fill="#000000"> &#160;</text>
</a>
</g>
</g>
<!-- TARGET_FORM_COMMENTS&#45;&gt;TARGET_FORMS -->
<g id="edge14" class="edge">
<title>TARGET_FORM_COMMENTS:w&#45;&gt;TARGET_FORMS:e</title>
<path fill="none" stroke="#000000" d="M923.3387,-402.9059C872.1449,-402.6835 843.1247,-403.1972 809,-446.9528 775.4717,-489.9437 823.0194,-935.9528 768.5,-935.9528"/>
<polygon fill="#000000" stroke="#000000" points="930,-402.9271 937.9884,-406.5528 934,-402.94 938,-402.9528 938,-402.9528 938,-402.9528 934,-402.94 938.0116,-399.3528 930,-402.9271 930,-402.9271"/>
<ellipse fill="none" stroke="#000000" cx="926.8001" cy="-402.9169" rx="3.2" ry="3.2"/>
</g>
<!-- TARGET_FORMS_ISOFORM_ANNOTATIONS -->
<g id="node14" class="node">
<title>TARGET_FORMS_ISOFORM_ANNOTATIONS</title>
<g id="a_node14"><a xlink:href="../../tables/TARGET_FORMS_ISOFORM_ANNOTATIONS.html" xlink:title="TARGET_FORMS_ISOFORM_ANNOTATIONS" target="_top">
<polygon fill="#ffffff" stroke="transparent" points="898,-293.4528 898,-354.4528 1174,-354.4528 1174,-293.4528 898,-293.4528"/>
<polygon fill="#f5f5f5" stroke="transparent" points="898,-330.9528 898,-353.9528 1174,-353.9528 1174,-330.9528 898,-330.9528"/>
<polygon fill="none" stroke="#000000" points="898,-330.9528 898,-353.9528 1174,-353.9528 1174,-330.9528 898,-330.9528"/>
<text text-anchor="start" x="902.7801" y="-340.0528" font-family="Helvetica,sans-Serif" font-weight="bold" font-size="11.00" fill="#000000">TARGET_FORMS_ISOFORM_ANNOTATIONS</text>
<text text-anchor="start" x="1139.5219" y="-339.0528" font-family="Helvetica,sans-Serif" font-size="11.00" fill="#000000">[table]</text>
<polygon fill="none" stroke="#000000" points="898,-311.9528 898,-330.9528 1174,-330.9528 1174,-311.9528 898,-311.9528"/>
<text text-anchor="start" x="901" y="-318.0528" font-family="Helvetica,sans-Serif" font-size="11.00" fill="#000000">...</text>
<polygon fill="#ffffff" stroke="transparent" points="898,-292.9528 898,-311.9528 1021,-311.9528 1021,-292.9528 898,-292.9528"/>
<polygon fill="none" stroke="#000000" points="898,-292.9528 898,-311.9528 1021,-311.9528 1021,-292.9528 898,-292.9528"/>
<text text-anchor="start" x="901" y="-299.0528" font-family="Helvetica,sans-Serif" font-size="11.00" fill="#000000">&lt; 2</text>
<polygon fill="#ffffff" stroke="transparent" points="1021,-292.9528 1021,-311.9528 1110,-311.9528 1110,-292.9528 1021,-292.9528"/>
<polygon fill="none" stroke="#000000" points="1021,-292.9528 1021,-311.9528 1110,-311.9528 1110,-292.9528 1021,-292.9528"/>
<text text-anchor="start" x="1074.6105" y="-299.0528" font-family="Helvetica,sans-Serif" font-size="11.00" fill="#000000">4 rows</text>
<polygon fill="#ffffff" stroke="transparent" points="1110,-292.9528 1110,-311.9528 1174,-311.9528 1174,-292.9528 1110,-292.9528"/>
<polygon fill="none" stroke="#000000" points="1110,-292.9528 1110,-311.9528 1174,-311.9528 1174,-292.9528 1110,-292.9528"/>
<text text-anchor="start" x="1164.8862" y="-299.0528" font-family="Helvetica,sans-Serif" font-size="11.00" fill="#000000"> &#160;</text>
</a>
</g>
</g>
<!-- TARGET_FORMS_ISOFORM_ANNOTATIONS&#45;&gt;TARGET_FORMS -->
<g id="edge20" class="edge">
<title>TARGET_FORMS_ISOFORM_ANNOTATIONS:w&#45;&gt;TARGET_FORMS:e</title>
<path fill="none" stroke="#000000" d="M883.4242,-321.2915C849.0622,-323.0809 830.7126,-332.6106 809,-364.9528 773.5483,-417.7602 832.1038,-935.9528 768.5,-935.9528"/>
<polygon fill="#000000" stroke="#000000" points="890.0022,-321.1387 898.0836,-324.5518 894.0011,-321.0458 898,-320.9528 898,-320.9528 898,-320.9528 894.0011,-321.0458 897.9164,-317.3538 890.0022,-321.1387 890.0022,-321.1387"/>
<ellipse fill="none" stroke="#000000" cx="886.803" cy="-321.2131" rx="3.2" ry="3.2"/>
</g>
<!-- TARGET_FORMS_ISOFORM_DOMAINS -->
<g id="node15" class="node">
<title>TARGET_FORMS_ISOFORM_DOMAINS</title>
<g id="a_node15"><a xlink:href="../../tables/TARGET_FORMS_ISOFORM_DOMAINS.html" xlink:title="TARGET_FORMS_ISOFORM_DOMAINS" target="_top">
<polygon fill="#ffffff" stroke="transparent" points="912,-1305.4528 912,-1366.4528 1160,-1366.4528 1160,-1305.4528 912,-1305.4528"/>
<polygon fill="#f5f5f5" stroke="transparent" points="912,-1342.9528 912,-1365.9528 1160,-1365.9528 1160,-1342.9528 912,-1342.9528"/>
<polygon fill="none" stroke="#000000" points="912,-1342.9528 912,-1365.9528 1160,-1365.9528 1160,-1342.9528 912,-1342.9528"/>
<text text-anchor="start" x="916.8359" y="-1352.0528" font-family="Helvetica,sans-Serif" font-weight="bold" font-size="11.00" fill="#000000">TARGET_FORMS_ISOFORM_DOMAINS</text>
<text text-anchor="start" x="1125.5219" y="-1351.0528" font-family="Helvetica,sans-Serif" font-size="11.00" fill="#000000">[table]</text>
<polygon fill="none" stroke="#000000" points="912,-1323.9528 912,-1342.9528 1160,-1342.9528 1160,-1323.9528 912,-1323.9528"/>
<text text-anchor="start" x="915" y="-1330.0528" font-family="Helvetica,sans-Serif" font-size="11.00" fill="#000000">...</text>
<polygon fill="#ffffff" stroke="transparent" points="912,-1304.9528 912,-1323.9528 1015,-1323.9528 1015,-1304.9528 912,-1304.9528"/>
<polygon fill="none" stroke="#000000" points="912,-1304.9528 912,-1323.9528 1015,-1323.9528 1015,-1304.9528 912,-1304.9528"/>
<text text-anchor="start" x="915" y="-1311.0528" font-family="Helvetica,sans-Serif" font-size="11.00" fill="#000000">&lt; 2</text>
<polygon fill="#ffffff" stroke="transparent" points="1015,-1304.9528 1015,-1323.9528 1106,-1323.9528 1106,-1304.9528 1015,-1304.9528"/>
<polygon fill="none" stroke="#000000" points="1015,-1304.9528 1015,-1323.9528 1106,-1323.9528 1106,-1304.9528 1015,-1304.9528"/>
<text text-anchor="start" x="1058.3807" y="-1311.0528" font-family="Helvetica,sans-Serif" font-size="11.00" fill="#000000">725 rows</text>
<polygon fill="#ffffff" stroke="transparent" points="1106,-1304.9528 1106,-1323.9528 1160,-1323.9528 1160,-1304.9528 1106,-1304.9528"/>
<polygon fill="none" stroke="#000000" points="1106,-1304.9528 1106,-1323.9528 1160,-1323.9528 1160,-1304.9528 1106,-1304.9528"/>
<text text-anchor="start" x="1150.8862" y="-1311.0528" font-family="Helvetica,sans-Serif" font-size="11.00" fill="#000000"> &#160;</text>
</a>
</g>
</g>
<!-- TARGET_FORMS_ISOFORM_DOMAINS&#45;&gt;TARGET_FORMS -->
<g id="edge21" class="edge">
<title>TARGET_FORMS_ISOFORM_DOMAINS:w&#45;&gt;TARGET_FORMS:e</title>
<path fill="none" stroke="#000000" d="M897.3493,-1332.9202C858.0551,-1332.6058 835.9279,-1329.304 809,-1294.9528 759.4698,-1231.7686 848.7838,-935.9528 768.5,-935.9528"/>
<polygon fill="#000000" stroke="#000000" points="904,-1332.935 911.992,-1336.5528 908,-1332.9439 912,-1332.9528 912,-1332.9528 912,-1332.9528 908,-1332.9439 912.008,-1329.3528 904,-1332.935 904,-1332.935"/>
<ellipse fill="none" stroke="#000000" cx="900.8" cy="-1332.9278" rx="3.2" ry="3.2"/>
</g>
<!-- TARGET_FORMS_ISOFORM_MOTIFS -->
<g id="node16" class="node">
<title>TARGET_FORMS_ISOFORM_MOTIFS</title>
<g id="a_node16"><a xlink:href="../../tables/TARGET_FORMS_ISOFORM_MOTIFS.html" xlink:title="TARGET_FORMS_ISOFORM_MOTIFS" target="_top">
<polygon fill="#ffffff" stroke="transparent" points="917,-1223.4528 917,-1284.4528 1155,-1284.4528 1155,-1223.4528 917,-1223.4528"/>
<polygon fill="#f5f5f5" stroke="transparent" points="917,-1260.9528 917,-1283.9528 1155,-1283.9528 1155,-1260.9528 917,-1260.9528"/>
<polygon fill="none" stroke="#000000" points="917,-1260.9528 917,-1283.9528 1155,-1283.9528 1155,-1260.9528 917,-1260.9528"/>
<text text-anchor="start" x="921.7249" y="-1270.0528" font-family="Helvetica,sans-Serif" font-weight="bold" font-size="11.00" fill="#000000">TARGET_FORMS_ISOFORM_MOTIFS</text>
<text text-anchor="start" x="1120.5219" y="-1269.0528" font-family="Helvetica,sans-Serif" font-size="11.00" fill="#000000">[table]</text>
<polygon fill="none" stroke="#000000" points="917,-1241.9528 917,-1260.9528 1155,-1260.9528 1155,-1241.9528 917,-1241.9528"/>
<text text-anchor="start" x="920" y="-1248.0528" font-family="Helvetica,sans-Serif" font-size="11.00" fill="#000000">...</text>
<polygon fill="#ffffff" stroke="transparent" points="917,-1222.9528 917,-1241.9528 1015,-1241.9528 1015,-1222.9528 917,-1222.9528"/>
<polygon fill="none" stroke="#000000" points="917,-1222.9528 917,-1241.9528 1015,-1241.9528 1015,-1222.9528 917,-1222.9528"/>
<text text-anchor="start" x="920" y="-1229.0528" font-family="Helvetica,sans-Serif" font-size="11.00" fill="#000000">&lt; 2</text>
<polygon fill="#ffffff" stroke="transparent" points="1015,-1222.9528 1015,-1241.9528 1104,-1241.9528 1104,-1222.9528 1015,-1222.9528"/>
<polygon fill="none" stroke="#000000" points="1015,-1222.9528 1015,-1241.9528 1104,-1241.9528 1104,-1222.9528 1015,-1222.9528"/>
<text text-anchor="start" x="1056.3807" y="-1229.0528" font-family="Helvetica,sans-Serif" font-size="11.00" fill="#000000">221 rows</text>
<polygon fill="#ffffff" stroke="transparent" points="1104,-1222.9528 1104,-1241.9528 1155,-1241.9528 1155,-1222.9528 1104,-1222.9528"/>
<polygon fill="none" stroke="#000000" points="1104,-1222.9528 1104,-1241.9528 1155,-1241.9528 1155,-1222.9528 1104,-1222.9528"/>
<text text-anchor="start" x="1145.8862" y="-1229.0528" font-family="Helvetica,sans-Serif" font-size="11.00" fill="#000000"> &#160;</text>
</a>
</g>
</g>
<!-- TARGET_FORMS_ISOFORM_MOTIFS&#45;&gt;TARGET_FORMS -->
<g id="edge22" class="edge">
<title>TARGET_FORMS_ISOFORM_MOTIFS:w&#45;&gt;TARGET_FORMS:e</title>
<path fill="none" stroke="#000000" d="M902.5383,-1250.9496C861.1054,-1250.8058 838.1221,-1248.3224 809,-1212.9528 769.4573,-1164.9272 830.71,-935.9528 768.5,-935.9528"/>
<polygon fill="#000000" stroke="#000000" points="909,-1250.951 916.9992,-1254.5528 913,-1250.9519 917,-1250.9528 917,-1250.9528 917,-1250.9528 913,-1250.9519 917.0008,-1247.3528 909,-1250.951 909,-1250.951"/>
<ellipse fill="none" stroke="#000000" cx="905.8" cy="-1250.9503" rx="3.2" ry="3.2"/>
</g>
<!-- TARGET_FORMS_ISOFORM_REGIONS -->
<g id="node17" class="node">
<title>TARGET_FORMS_ISOFORM_REGIONS</title>
<g id="a_node17"><a xlink:href="../../tables/TARGET_FORMS_ISOFORM_REGIONS.html" xlink:title="TARGET_FORMS_ISOFORM_REGIONS" target="_top">
<polygon fill="#ffffff" stroke="transparent" points="817,-1469.9528 817,-1691.9528 1255,-1691.9528 1255,-1469.9528 817,-1469.9528"/>
<polygon fill="#f5f5f5" stroke="transparent" points="819,-1666.9528 819,-1689.9528 1253,-1689.9528 1253,-1666.9528 819,-1666.9528"/>
<polygon fill="none" stroke="#000000" points="819,-1666.9528 819,-1689.9528 1253,-1689.9528 1253,-1666.9528 819,-1666.9528"/>
<text text-anchor="start" x="824" y="-1676.0528" font-family="Helvetica,sans-Serif" font-weight="bold" font-size="11.00" fill="#000000">TARGET_FORMS_ISOFORM_REGIONS</text>
<text text-anchor="start" x="1218.0437" y="-1675.0528" font-family="Helvetica,sans-Serif" font-size="11.00" fill="#000000">[table]</text>
<polygon fill="none" stroke="#000000" points="819,-1644.9528 819,-1666.9528 1082,-1666.9528 1082,-1644.9528 819,-1644.9528"/>
<image xlink:href="../../images/primaryKeys.png" width="11px" height="12px" preserveAspectRatio="xMinYMin meet" x="824" y="-1661.95"/>
<text text-anchor="start" x="839" y="-1652.0528" font-family="Helvetica,sans-Serif" font-size="11.00" fill="#000000">ID</text>
<polygon fill="none" stroke="#000000" points="1082,-1644.9528 1082,-1666.9528 1253,-1666.9528 1253,-1644.9528 1082,-1644.9528"/>
<text text-anchor="start" x="1085" y="-1652.6528" font-family="Helvetica,sans-Serif" font-size="11.00" fill="#000000">number[19]</text>
<polygon fill="none" stroke="#000000" points="819,-1622.9528 819,-1644.9528 1082,-1644.9528 1082,-1622.9528 819,-1622.9528"/>
<text text-anchor="start" x="839" y="-1630.0528" font-family="Helvetica,sans-Serif" font-size="11.00" fill="#000000">CREATED_AT</text>
<polygon fill="none" stroke="#000000" points="1082,-1622.9528 1082,-1644.9528 1253,-1644.9528 1253,-1622.9528 1082,-1622.9528"/>
<text text-anchor="start" x="1084.9896" y="-1630.6528" font-family="Helvetica,sans-Serif" font-size="11.00" fill="#000000">timestamp(6) with time zone[13,6]</text>
<polygon fill="none" stroke="#000000" points="819,-1600.9528 819,-1622.9528 1082,-1622.9528 1082,-1600.9528 819,-1600.9528"/>
<text text-anchor="start" x="839" y="-1608.0528" font-family="Helvetica,sans-Serif" font-size="11.00" fill="#000000">CREATED_BY</text>
<polygon fill="none" stroke="#000000" points="1082,-1600.9528 1082,-1622.9528 1253,-1622.9528 1253,-1600.9528 1082,-1600.9528"/>
<text text-anchor="start" x="1085" y="-1608.6528" font-family="Helvetica,sans-Serif" font-size="11.00" fill="#000000">number[19]</text>
<polygon fill="none" stroke="#000000" points="819,-1578.9528 819,-1600.9528 1082,-1600.9528 1082,-1578.9528 819,-1578.9528"/>
<text text-anchor="start" x="839" y="-1586.0528" font-family="Helvetica,sans-Serif" font-size="11.00" fill="#000000">UPDATED_AT</text>
<polygon fill="none" stroke="#000000" points="1082,-1578.9528 1082,-1600.9528 1253,-1600.9528 1253,-1578.9528 1082,-1578.9528"/>
<text text-anchor="start" x="1084.9896" y="-1586.6528" font-family="Helvetica,sans-Serif" font-size="11.00" fill="#000000">timestamp(6) with time zone[13,6]</text>
<polygon fill="none" stroke="#000000" points="819,-1556.9528 819,-1578.9528 1082,-1578.9528 1082,-1556.9528 819,-1556.9528"/>
<text text-anchor="start" x="839" y="-1564.0528" font-family="Helvetica,sans-Serif" font-size="11.00" fill="#000000">UPDATED_BY</text>
<polygon fill="none" stroke="#000000" points="1082,-1556.9528 1082,-1578.9528 1253,-1578.9528 1253,-1556.9528 1082,-1556.9528"/>
<text text-anchor="start" x="1085" y="-1564.6528" font-family="Helvetica,sans-Serif" font-size="11.00" fill="#000000">number[19]</text>
<polygon fill="none" stroke="#000000" points="819,-1534.9528 819,-1556.9528 1082,-1556.9528 1082,-1534.9528 819,-1534.9528"/>
<image xlink:href="../../images/primaryKeys.png" width="11px" height="12px" preserveAspectRatio="xMinYMin meet" x="824" y="-1551.95"/>
<text text-anchor="start" x="839" y="-1542.0528" font-family="Helvetica,sans-Serif" font-size="11.00" fill="#000000">TARGET_FORM_ID</text>
<polygon fill="none" stroke="#000000" points="1082,-1534.9528 1082,-1556.9528 1253,-1556.9528 1253,-1534.9528 1082,-1534.9528"/>
<text text-anchor="start" x="1085" y="-1542.6528" font-family="Helvetica,sans-Serif" font-size="11.00" fill="#000000">number[19]</text>
<polygon fill="none" stroke="#000000" points="819,-1512.9528 819,-1534.9528 1082,-1534.9528 1082,-1512.9528 819,-1512.9528"/>
<image xlink:href="../../images/primaryKeys.png" width="11px" height="12px" preserveAspectRatio="xMinYMin meet" x="824" y="-1529.95"/>
<text text-anchor="start" x="839" y="-1520.0528" font-family="Helvetica,sans-Serif" font-size="11.00" fill="#000000">ISOFORM_REGION_ID</text>
<polygon fill="none" stroke="#000000" points="1082,-1512.9528 1082,-1534.9528 1253,-1534.9528 1253,-1512.9528 1082,-1512.9528"/>
<text text-anchor="start" x="1085" y="-1520.6528" font-family="Helvetica,sans-Serif" font-size="11.00" fill="#000000">number[19]</text>
<polygon fill="none" stroke="#000000" points="819,-1490.9528 819,-1512.9528 1082,-1512.9528 1082,-1490.9528 819,-1490.9528"/>
<text text-anchor="start" x="839" y="-1498.0528" font-family="Helvetica,sans-Serif" font-size="11.00" fill="#000000">IS_INCLUDED</text>
<polygon fill="none" stroke="#000000" points="1082,-1490.9528 1082,-1512.9528 1253,-1512.9528 1253,-1490.9528 1082,-1490.9528"/>
<text text-anchor="start" x="1085" y="-1498.6528" font-family="Helvetica,sans-Serif" font-size="11.00" fill="#000000">number[1]</text>
<polygon fill="#ffffff" stroke="transparent" points="819,-1471.9528 819,-1490.9528 936,-1490.9528 936,-1471.9528 819,-1471.9528"/>
<polygon fill="none" stroke="#000000" points="819,-1471.9528 819,-1490.9528 936,-1490.9528 936,-1471.9528 819,-1471.9528"/>
<text text-anchor="start" x="822" y="-1478.0528" font-family="Helvetica,sans-Serif" font-size="11.00" fill="#000000">&lt; 2</text>
<polygon fill="#ffffff" stroke="transparent" points="936,-1471.9528 936,-1490.9528 1082,-1490.9528 1082,-1471.9528 936,-1471.9528"/>
<polygon fill="none" stroke="#000000" points="936,-1471.9528 936,-1490.9528 1082,-1490.9528 1082,-1471.9528 936,-1471.9528"/>
<text text-anchor="start" x="1034.3807" y="-1478.0528" font-family="Helvetica,sans-Serif" font-size="11.00" fill="#000000">153 rows</text>
<polygon fill="#ffffff" stroke="transparent" points="1082,-1471.9528 1082,-1490.9528 1253,-1490.9528 1253,-1471.9528 1082,-1471.9528"/>
<polygon fill="none" stroke="#000000" points="1082,-1471.9528 1082,-1490.9528 1253,-1490.9528 1253,-1471.9528 1082,-1471.9528"/>
<text text-anchor="start" x="1234.4053" y="-1478.0528" font-family="Helvetica,sans-Serif" font-size="11.00" fill="#000000">0 &gt;</text>
<polygon fill="none" stroke="#000000" stroke-width="2" points="818,-1470.9528 818,-1690.9528 1254,-1690.9528 1254,-1470.9528 818,-1470.9528"/>
</a>
</g>
</g>
<!-- TARGET_FORMS_ISOFORM_REGIONS&#45;&gt;TARGET_FORMS -->
<g id="edge24" class="edge">
<title>TARGET_FORMS_ISOFORM_REGIONS:w&#45;&gt;TARGET_FORMS:e</title>
<path fill="none" stroke="#000000" d="M807.1069,-1537.7909C761.965,-1465.4049 831.8605,-935.9528 768.5,-935.9528"/>
<polygon fill="#000000" stroke="#000000" points="812.4039,-1541.4261 816.963,-1548.9211 815.7019,-1543.6894 819,-1545.9528 819,-1545.9528 819,-1545.9528 815.7019,-1543.6894 821.037,-1542.9846 812.4039,-1541.4261 812.4039,-1541.4261"/>
<ellipse fill="none" stroke="#000000" cx="809.7654" cy="-1539.6154" rx="3.2" ry="3.2"/>
</g>
<!-- TARGET_FORMS_ISOFORM_REGIONS&#45;&gt;ISOFORM_REGIONS -->
<g id="edge23" class="edge">
<title>TARGET_FORMS_ISOFORM_REGIONS:w&#45;&gt;ISOFORM_REGIONS:e</title>
<path fill="none" stroke="#000000" d="M804.3466,-1523.9528C760.24,-1523.9528 744.0486,-1523.9528 693.5,-1523.9528"/>
<polygon fill="#000000" stroke="#000000" points="811,-1523.9529 819,-1527.5528 815,-1523.9528 819,-1523.9528 819,-1523.9528 819,-1523.9528 815,-1523.9528 819,-1520.3528 811,-1523.9529 811,-1523.9529"/>
<ellipse fill="none" stroke="#000000" cx="807.8" cy="-1523.9529" rx="3.2" ry="3.2"/>
</g>
<!-- TARGET_FORMS_ISOFORM_VARIANTS -->
<g id="node18" class="node">
<title>TARGET_FORMS_ISOFORM_VARIANTS</title>
<g id="a_node18"><a xlink:href="../../tables/TARGET_FORMS_ISOFORM_VARIANTS.html" xlink:title="TARGET_FORMS_ISOFORM_VARIANTS" target="_top">
<polygon fill="#ffffff" stroke="transparent" points="910,-1141.4528 910,-1202.4528 1162,-1202.4528 1162,-1141.4528 910,-1141.4528"/>
<polygon fill="#f5f5f5" stroke="transparent" points="910,-1178.9528 910,-1201.9528 1162,-1201.9528 1162,-1178.9528 910,-1178.9528"/>
<polygon fill="none" stroke="#000000" points="910,-1178.9528 910,-1201.9528 1162,-1201.9528 1162,-1178.9528 910,-1178.9528"/>
<text text-anchor="start" x="914.9995" y="-1188.0528" font-family="Helvetica,sans-Serif" font-weight="bold" font-size="11.00" fill="#000000">TARGET_FORMS_ISOFORM_VARIANTS</text>
<text text-anchor="start" x="1127.5219" y="-1187.0528" font-family="Helvetica,sans-Serif" font-size="11.00" fill="#000000">[table]</text>
<polygon fill="none" stroke="#000000" points="910,-1159.9528 910,-1178.9528 1162,-1178.9528 1162,-1159.9528 910,-1159.9528"/>
<text text-anchor="start" x="913" y="-1166.0528" font-family="Helvetica,sans-Serif" font-size="11.00" fill="#000000">...</text>
<polygon fill="#ffffff" stroke="transparent" points="910,-1140.9528 910,-1159.9528 1015,-1159.9528 1015,-1140.9528 910,-1140.9528"/>
<polygon fill="none" stroke="#000000" points="910,-1140.9528 910,-1159.9528 1015,-1159.9528 1015,-1140.9528 910,-1140.9528"/>
<text text-anchor="start" x="913" y="-1147.0528" font-family="Helvetica,sans-Serif" font-size="11.00" fill="#000000">&lt; 2</text>
<polygon fill="#ffffff" stroke="transparent" points="1015,-1140.9528 1015,-1159.9528 1107,-1159.9528 1107,-1140.9528 1015,-1140.9528"/>
<polygon fill="none" stroke="#000000" points="1015,-1140.9528 1015,-1159.9528 1107,-1159.9528 1107,-1140.9528 1015,-1140.9528"/>
<text text-anchor="start" x="1059.3807" y="-1147.0528" font-family="Helvetica,sans-Serif" font-size="11.00" fill="#000000">108 rows</text>
<polygon fill="#ffffff" stroke="transparent" points="1107,-1140.9528 1107,-1159.9528 1162,-1159.9528 1162,-1140.9528 1107,-1140.9528"/>
<polygon fill="none" stroke="#000000" points="1107,-1140.9528 1107,-1159.9528 1162,-1159.9528 1162,-1140.9528 1107,-1140.9528"/>
<text text-anchor="start" x="1152.8862" y="-1147.0528" font-family="Helvetica,sans-Serif" font-size="11.00" fill="#000000"> &#160;</text>
</a>
</g>
</g>
<!-- TARGET_FORMS_ISOFORM_VARIANTS&#45;&gt;TARGET_FORMS -->
<g id="edge25" class="edge">
<title>TARGET_FORMS_ISOFORM_VARIANTS:w&#45;&gt;TARGET_FORMS:e</title>
<path fill="none" stroke="#000000" d="M895.4848,-1168.7664C856.7765,-1167.6189 836.7765,-1160.4144 809,-1126.9528 753.5746,-1060.1834 855.2763,-935.9528 768.5,-935.9528"/>
<polygon fill="#000000" stroke="#000000" points="902.0007,-1168.85 909.9538,-1172.5525 906.0003,-1168.9014 910,-1168.9528 910,-1168.9528 910,-1168.9528 906.0003,-1168.9014 910.0462,-1165.3531 902.0007,-1168.85 902.0007,-1168.85"/>
<ellipse fill="none" stroke="#000000" cx="898.8009" cy="-1168.8089" rx="3.2" ry="3.2"/>
</g>
<!-- TARGET_FORMS_PROTEIN_CLEAVAGE_SITES -->
<g id="node19" class="node">
<title>TARGET_FORMS_PROTEIN_CLEAVAGE_SITES</title>
<g id="a_node19"><a xlink:href="../../tables/TARGET_FORMS_PROTEIN_CLEAVAGE_SITES.html" xlink:title="TARGET_FORMS_PROTEIN_CLEAVAGE_SITES" target="_top">
<polygon fill="#ffffff" stroke="transparent" points="890.5,-1031.4528 890.5,-1092.4528 1181.5,-1092.4528 1181.5,-1031.4528 890.5,-1031.4528"/>
<polygon fill="#f5f5f5" stroke="transparent" points="891,-1068.9528 891,-1091.9528 1182,-1091.9528 1182,-1068.9528 891,-1068.9528"/>
<polygon fill="none" stroke="#000000" points="891,-1068.9528 891,-1091.9528 1182,-1091.9528 1182,-1068.9528 891,-1068.9528"/>
<text text-anchor="start" x="895.6258" y="-1078.0528" font-family="Helvetica,sans-Serif" font-weight="bold" font-size="11.00" fill="#000000">TARGET_FORMS_PROTEIN_CLEAVAGE_SITES</text>
<text text-anchor="start" x="1147.5219" y="-1077.0528" font-family="Helvetica,sans-Serif" font-size="11.00" fill="#000000">[table]</text>
<polygon fill="none" stroke="#000000" points="891,-1049.9528 891,-1068.9528 1182,-1068.9528 1182,-1049.9528 891,-1049.9528"/>
<text text-anchor="start" x="894" y="-1056.0528" font-family="Helvetica,sans-Serif" font-size="11.00" fill="#000000">...</text>
<polygon fill="#ffffff" stroke="transparent" points="891,-1030.9528 891,-1049.9528 1016,-1049.9528 1016,-1030.9528 891,-1030.9528"/>
<polygon fill="none" stroke="#000000" points="891,-1030.9528 891,-1049.9528 1016,-1049.9528 1016,-1030.9528 891,-1030.9528"/>
<text text-anchor="start" x="894" y="-1037.0528" font-family="Helvetica,sans-Serif" font-size="11.00" fill="#000000">&lt; 2</text>
<polygon fill="#ffffff" stroke="transparent" points="1016,-1030.9528 1016,-1049.9528 1118,-1049.9528 1118,-1030.9528 1016,-1030.9528"/>
<polygon fill="none" stroke="#000000" points="1016,-1030.9528 1016,-1049.9528 1118,-1049.9528 1118,-1030.9528 1016,-1030.9528"/>
<text text-anchor="start" x="1070.3807" y="-1037.0528" font-family="Helvetica,sans-Serif" font-size="11.00" fill="#000000">112 rows</text>
<polygon fill="#ffffff" stroke="transparent" points="1118,-1030.9528 1118,-1049.9528 1182,-1049.9528 1182,-1030.9528 1118,-1030.9528"/>
<polygon fill="none" stroke="#000000" points="1118,-1030.9528 1118,-1049.9528 1182,-1049.9528 1182,-1030.9528 1118,-1030.9528"/>
<text text-anchor="start" x="1172.8862" y="-1037.0528" font-family="Helvetica,sans-Serif" font-size="11.00" fill="#000000"> &#160;</text>
</a>
</g>
</g>
<!-- TARGET_FORMS_PROTEIN_CLEAVAGE_SITES&#45;&gt;TARGET_FORMS -->
<g id="edge26" class="edge">
<title>TARGET_FORMS_PROTEIN_CLEAVAGE_SITES:w&#45;&gt;TARGET_FORMS:e</title>
<path fill="none" stroke="#000000" d="M876.3199,-1058.4164C847.036,-1056.0368 833.7619,-1045.4513 809,-1020.9528 779.252,-991.5213 810.3469,-935.9528 768.5,-935.9528"/>
<polygon fill="#000000" stroke="#000000" points="883.0053,-1058.6606 890.8685,-1062.5504 887.0027,-1058.8067 891,-1058.9528 891,-1058.9528 891,-1058.9528 887.0027,-1058.8067 891.1315,-1055.3552 883.0053,-1058.6606 883.0053,-1058.6606"/>
<ellipse fill="none" stroke="#000000" cx="879.8075" cy="-1058.5438" rx="3.2" ry="3.2"/>
</g>
<!-- TARGET_FORMS_PROTEIN_FUSION_SEQUENCES -->
<g id="node20" class="node">
<title>TARGET_FORMS_PROTEIN_FUSION_SEQUENCES</title>
<g id="a_node20"><a xlink:href="../../tables/TARGET_FORMS_PROTEIN_FUSION_SEQUENCES.html" xlink:title="TARGET_FORMS_PROTEIN_FUSION_SEQUENCES" target="_top">
<polygon fill="#ffffff" stroke="transparent" points="880.5,-949.4528 880.5,-1010.4528 1191.5,-1010.4528 1191.5,-949.4528 880.5,-949.4528"/>
<polygon fill="#f5f5f5" stroke="transparent" points="881,-986.9528 881,-1009.9528 1192,-1009.9528 1192,-986.9528 881,-986.9528"/>
<polygon fill="none" stroke="#000000" points="881,-986.9528 881,-1009.9528 1192,-1009.9528 1192,-986.9528 881,-986.9528"/>
<text text-anchor="start" x="885.8589" y="-996.0528" font-family="Helvetica,sans-Serif" font-weight="bold" font-size="11.00" fill="#000000">TARGET_FORMS_PROTEIN_FUSION_SEQUENCES</text>
<text text-anchor="start" x="1157.5219" y="-995.0528" font-family="Helvetica,sans-Serif" font-size="11.00" fill="#000000">[table]</text>
<polygon fill="none" stroke="#000000" points="881,-967.9528 881,-986.9528 1192,-986.9528 1192,-967.9528 881,-967.9528"/>
<text text-anchor="start" x="884" y="-974.0528" font-family="Helvetica,sans-Serif" font-size="11.00" fill="#000000">...</text>
<polygon fill="#ffffff" stroke="transparent" points="881,-948.9528 881,-967.9528 1016,-967.9528 1016,-948.9528 881,-948.9528"/>
<polygon fill="none" stroke="#000000" points="881,-948.9528 881,-967.9528 1016,-967.9528 1016,-948.9528 881,-948.9528"/>
<text text-anchor="start" x="884" y="-955.0528" font-family="Helvetica,sans-Serif" font-size="11.00" fill="#000000">&lt; 2</text>
<polygon fill="#ffffff" stroke="transparent" points="1016,-948.9528 1016,-967.9528 1123,-967.9528 1123,-948.9528 1016,-948.9528"/>
<polygon fill="none" stroke="#000000" points="1016,-948.9528 1016,-967.9528 1123,-967.9528 1123,-948.9528 1016,-948.9528"/>
<text text-anchor="start" x="1075.3807" y="-955.0528" font-family="Helvetica,sans-Serif" font-size="11.00" fill="#000000">110 rows</text>
<polygon fill="#ffffff" stroke="transparent" points="1123,-948.9528 1123,-967.9528 1192,-967.9528 1192,-948.9528 1123,-948.9528"/>
<polygon fill="none" stroke="#000000" points="1123,-948.9528 1123,-967.9528 1192,-967.9528 1192,-948.9528 1123,-948.9528"/>
<text text-anchor="start" x="1182.8862" y="-955.0528" font-family="Helvetica,sans-Serif" font-size="11.00" fill="#000000"> &#160;</text>
</a>
</g>
</g>
<!-- TARGET_FORMS_PROTEIN_FUSION_SEQUENCES&#45;&gt;TARGET_FORMS -->
<g id="edge27" class="edge">
<title>TARGET_FORMS_PROTEIN_FUSION_SEQUENCES:w&#45;&gt;TARGET_FORMS:e</title>
<path fill="none" stroke="#000000" d="M866.4076,-975.8135C826.1067,-969.1917 816.4161,-935.9528 768.5,-935.9528"/>
<polygon fill="#000000" stroke="#000000" points="873.0243,-976.33 880.7197,-980.5419 877.0121,-976.6414 881,-976.9528 881,-976.9528 881,-976.9528 877.0121,-976.6414 881.2803,-973.3637 873.0243,-976.33 873.0243,-976.33"/>
<ellipse fill="none" stroke="#000000" cx="869.834" cy="-976.0809" rx="3.2" ry="3.2"/>
</g>
<!-- TARGET_FORMS_PROTEIN_GROUPS -->
<g id="node21" class="node">
<title>TARGET_FORMS_PROTEIN_GROUPS</title>
<g id="a_node21"><a xlink:href="../../tables/TARGET_FORMS_PROTEIN_GROUPS.html" xlink:title="TARGET_FORMS_PROTEIN_GROUPS" target="_top">
<polygon fill="#ffffff" stroke="transparent" points="915,-867.4528 915,-928.4528 1157,-928.4528 1157,-867.4528 915,-867.4528"/>
<polygon fill="#f5f5f5" stroke="transparent" points="915,-904.9528 915,-927.9528 1157,-927.9528 1157,-904.9528 915,-904.9528"/>
<polygon fill="none" stroke="#000000" points="915,-904.9528 915,-927.9528 1157,-927.9528 1157,-904.9528 915,-904.9528"/>
<text text-anchor="start" x="919.8879" y="-914.0528" font-family="Helvetica,sans-Serif" font-weight="bold" font-size="11.00" fill="#000000">TARGET_FORMS_PROTEIN_GROUPS</text>
<text text-anchor="start" x="1122.5219" y="-913.0528" font-family="Helvetica,sans-Serif" font-size="11.00" fill="#000000">[table]</text>
<polygon fill="none" stroke="#000000" points="915,-885.9528 915,-904.9528 1157,-904.9528 1157,-885.9528 915,-885.9528"/>
<text text-anchor="start" x="918" y="-892.0528" font-family="Helvetica,sans-Serif" font-size="11.00" fill="#000000">...</text>
<polygon fill="#ffffff" stroke="transparent" points="915,-866.9528 915,-885.9528 1018,-885.9528 1018,-866.9528 915,-866.9528"/>
<polygon fill="none" stroke="#000000" points="915,-866.9528 915,-885.9528 1018,-885.9528 1018,-866.9528 915,-866.9528"/>
<text text-anchor="start" x="918" y="-873.0528" font-family="Helvetica,sans-Serif" font-size="11.00" fill="#000000">&lt; 2</text>
<polygon fill="#ffffff" stroke="transparent" points="1018,-866.9528 1018,-885.9528 1103,-885.9528 1103,-866.9528 1018,-866.9528"/>
<polygon fill="none" stroke="#000000" points="1018,-866.9528 1018,-885.9528 1103,-885.9528 1103,-866.9528 1018,-866.9528"/>
<text text-anchor="start" x="1061.4956" y="-873.0528" font-family="Helvetica,sans-Serif" font-size="11.00" fill="#000000">17 rows</text>
<polygon fill="#ffffff" stroke="transparent" points="1103,-866.9528 1103,-885.9528 1157,-885.9528 1157,-866.9528 1103,-866.9528"/>
<polygon fill="none" stroke="#000000" points="1103,-866.9528 1103,-885.9528 1157,-885.9528 1157,-866.9528 1103,-866.9528"/>
<text text-anchor="start" x="1147.8862" y="-873.0528" font-family="Helvetica,sans-Serif" font-size="11.00" fill="#000000"> &#160;</text>
</a>
</g>
</g>
<!-- TARGET_FORMS_PROTEIN_GROUPS&#45;&gt;TARGET_FORMS -->
<g id="edge28" class="edge">
<title>TARGET_FORMS_PROTEIN_GROUPS:w&#45;&gt;TARGET_FORMS:e</title>
<path fill="none" stroke="#000000" d="M900.4803,-895.6302C845.3427,-900.961 830.9627,-935.9528 768.5,-935.9528"/>
<polygon fill="#000000" stroke="#000000" points="907.0087,-895.3257 915.1678,-898.5489 911.0043,-895.1393 915,-894.9528 915,-894.9528 915,-894.9528 911.0043,-895.1393 914.8322,-891.3567 907.0087,-895.3257 907.0087,-895.3257"/>
<ellipse fill="none" stroke="#000000" cx="903.8122" cy="-895.4749" rx="3.2" ry="3.2"/>
</g>
<!-- TARGET_FORMS_PROTEIN_LINKERS -->
<g id="node22" class="node">
<title>TARGET_FORMS_PROTEIN_LINKERS</title>
<g id="a_node22"><a xlink:href="../../tables/TARGET_FORMS_PROTEIN_LINKERS.html" xlink:title="TARGET_FORMS_PROTEIN_LINKERS" target="_top">
<polygon fill="#ffffff" stroke="transparent" points="915.5,-785.4528 915.5,-846.4528 1156.5,-846.4528 1156.5,-785.4528 915.5,-785.4528"/>
<polygon fill="#f5f5f5" stroke="transparent" points="916,-822.9528 916,-845.9528 1157,-845.9528 1157,-822.9528 916,-822.9528"/>
<polygon fill="none" stroke="#000000" points="916,-822.9528 916,-845.9528 1157,-845.9528 1157,-822.9528 916,-822.9528"/>
<text text-anchor="start" x="920.6909" y="-832.0528" font-family="Helvetica,sans-Serif" font-weight="bold" font-size="11.00" fill="#000000">TARGET_FORMS_PROTEIN_LINKERS</text>
<text text-anchor="start" x="1122.5219" y="-831.0528" font-family="Helvetica,sans-Serif" font-size="11.00" fill="#000000">[table]</text>
<polygon fill="none" stroke="#000000" points="916,-803.9528 916,-822.9528 1157,-822.9528 1157,-803.9528 916,-803.9528"/>
<text text-anchor="start" x="919" y="-810.0528" font-family="Helvetica,sans-Serif" font-size="11.00" fill="#000000">...</text>
<polygon fill="#ffffff" stroke="transparent" points="916,-784.9528 916,-803.9528 1016,-803.9528 1016,-784.9528 916,-784.9528"/>
<polygon fill="none" stroke="#000000" points="916,-784.9528 916,-803.9528 1016,-803.9528 1016,-784.9528 916,-784.9528"/>
<text text-anchor="start" x="919" y="-791.0528" font-family="Helvetica,sans-Serif" font-size="11.00" fill="#000000">&lt; 2</text>
<polygon fill="#ffffff" stroke="transparent" points="1016,-784.9528 1016,-803.9528 1105,-803.9528 1105,-784.9528 1016,-784.9528"/>
<polygon fill="none" stroke="#000000" points="1016,-784.9528 1016,-803.9528 1105,-803.9528 1105,-784.9528 1016,-784.9528"/>
<text text-anchor="start" x="1057.3807" y="-791.0528" font-family="Helvetica,sans-Serif" font-size="11.00" fill="#000000">149 rows</text>
<polygon fill="#ffffff" stroke="transparent" points="1105,-784.9528 1105,-803.9528 1157,-803.9528 1157,-784.9528 1105,-784.9528"/>
<polygon fill="none" stroke="#000000" points="1105,-784.9528 1105,-803.9528 1157,-803.9528 1157,-784.9528 1105,-784.9528"/>
<text text-anchor="start" x="1147.8862" y="-791.0528" font-family="Helvetica,sans-Serif" font-size="11.00" fill="#000000"> &#160;</text>
</a>
</g>
</g>
<!-- TARGET_FORMS_PROTEIN_LINKERS&#45;&gt;TARGET_FORMS -->
<g id="edge29" class="edge">
<title>TARGET_FORMS_PROTEIN_LINKERS:w&#45;&gt;TARGET_FORMS:e</title>
<path fill="none" stroke="#000000" d="M901.584,-813.2427C860.8481,-815.0382 843.0765,-825.6119 809,-856.9528 779.959,-883.6625 807.9562,-935.9528 768.5,-935.9528"/>
<polygon fill="#000000" stroke="#000000" points="908.0016,-813.1137 916.0724,-816.5521 912.0008,-813.0333 916,-812.9528 916,-812.9528 916,-812.9528 912.0008,-813.0333 915.9276,-809.3535 908.0016,-813.1137 908.0016,-813.1137"/>
<ellipse fill="none" stroke="#000000" cx="904.8023" cy="-813.178" rx="3.2" ry="3.2"/>
</g>
<!-- TARGET_FORMS_PROTEIN_TAGS -->
<g id="node23" class="node">
<title>TARGET_FORMS_PROTEIN_TAGS</title>
<g id="a_node23"><a xlink:href="../../tables/TARGET_FORMS_PROTEIN_TAGS.html" xlink:title="TARGET_FORMS_PROTEIN_TAGS" target="_top">
<polygon fill="#ffffff" stroke="transparent" points="924,-703.4528 924,-764.4528 1148,-764.4528 1148,-703.4528 924,-703.4528"/>
<polygon fill="#f5f5f5" stroke="transparent" points="924,-740.9528 924,-763.9528 1148,-763.9528 1148,-740.9528 924,-740.9528"/>
<polygon fill="none" stroke="#000000" points="924,-740.9528 924,-763.9528 1148,-763.9528 1148,-740.9528 924,-740.9528"/>
<text text-anchor="start" x="928.7473" y="-750.0528" font-family="Helvetica,sans-Serif" font-weight="bold" font-size="11.00" fill="#000000">TARGET_FORMS_PROTEIN_TAGS</text>
<text text-anchor="start" x="1113.5219" y="-749.0528" font-family="Helvetica,sans-Serif" font-size="11.00" fill="#000000">[table]</text>
<polygon fill="none" stroke="#000000" points="924,-721.9528 924,-740.9528 1148,-740.9528 1148,-721.9528 924,-721.9528"/>
<text text-anchor="start" x="927" y="-728.0528" font-family="Helvetica,sans-Serif" font-size="11.00" fill="#000000">...</text>
<polygon fill="#ffffff" stroke="transparent" points="924,-702.9528 924,-721.9528 1015,-721.9528 1015,-702.9528 924,-702.9528"/>
<polygon fill="none" stroke="#000000" points="924,-702.9528 924,-721.9528 1015,-721.9528 1015,-702.9528 924,-702.9528"/>
<text text-anchor="start" x="927" y="-709.0528" font-family="Helvetica,sans-Serif" font-size="11.00" fill="#000000">&lt; 2</text>
<polygon fill="#ffffff" stroke="transparent" points="1015,-702.9528 1015,-721.9528 1100,-721.9528 1100,-702.9528 1015,-702.9528"/>
<polygon fill="none" stroke="#000000" points="1015,-702.9528 1015,-721.9528 1100,-721.9528 1100,-702.9528 1015,-702.9528"/>
<text text-anchor="start" x="1052.3807" y="-709.0528" font-family="Helvetica,sans-Serif" font-size="11.00" fill="#000000">232 rows</text>
<polygon fill="#ffffff" stroke="transparent" points="1100,-702.9528 1100,-721.9528 1148,-721.9528 1148,-702.9528 1100,-702.9528"/>
<polygon fill="none" stroke="#000000" points="1100,-702.9528 1100,-721.9528 1148,-721.9528 1148,-702.9528 1100,-702.9528"/>
<text text-anchor="start" x="1138.8862" y="-709.0528" font-family="Helvetica,sans-Serif" font-size="11.00" fill="#000000"> &#160;</text>
</a>
</g>
</g>
<!-- TARGET_FORMS_PROTEIN_TAGS&#45;&gt;TARGET_FORMS -->
<g id="edge30" class="edge">
<title>TARGET_FORMS_PROTEIN_TAGS:w&#45;&gt;TARGET_FORMS:e</title>
<path fill="none" stroke="#000000" d="M909.3847,-731.0625C864.6764,-731.8615 841.9212,-737.8615 809,-774.9528 760.0207,-830.1364 842.2848,-935.9528 768.5,-935.9528"/>
<polygon fill="#000000" stroke="#000000" points="916.0002,-731.0129 924.027,-734.5527 920.0001,-730.9829 924,-730.9528 924,-730.9528 924,-730.9528 920.0001,-730.9829 923.973,-727.3529 916.0002,-731.0129 916.0002,-731.0129"/>
<ellipse fill="none" stroke="#000000" cx="912.8003" cy="-731.0369" rx="3.2" ry="3.2"/>
</g>
<!-- TARGET_FORMS_REFERENCES -->
<g id="node24" class="node">
<title>TARGET_FORMS_REFERENCES</title>
<g id="a_node24"><a xlink:href="../../tables/TARGET_FORMS_REFERENCES.html" xlink:title="TARGET_FORMS_REFERENCES" target="_top">
<polygon fill="#ffffff" stroke="transparent" points="929,-621.4528 929,-682.4528 1143,-682.4528 1143,-621.4528 929,-621.4528"/>
<polygon fill="#f5f5f5" stroke="transparent" points="929,-658.9528 929,-681.9528 1143,-681.9528 1143,-658.9528 929,-658.9528"/>
<polygon fill="none" stroke="#000000" points="929,-658.9528 929,-681.9528 1143,-681.9528 1143,-658.9528 929,-658.9528"/>
<text text-anchor="start" x="933.6412" y="-668.0528" font-family="Helvetica,sans-Serif" font-weight="bold" font-size="11.00" fill="#000000">TARGET_FORMS_REFERENCES</text>
<text text-anchor="start" x="1108.5219" y="-667.0528" font-family="Helvetica,sans-Serif" font-size="11.00" fill="#000000">[table]</text>
<polygon fill="none" stroke="#000000" points="929,-639.9528 929,-658.9528 1143,-658.9528 1143,-639.9528 929,-639.9528"/>
<text text-anchor="start" x="932" y="-646.0528" font-family="Helvetica,sans-Serif" font-size="11.00" fill="#000000">...</text>
<polygon fill="#ffffff" stroke="transparent" points="929,-620.9528 929,-639.9528 1015,-639.9528 1015,-620.9528 929,-620.9528"/>
<polygon fill="none" stroke="#000000" points="929,-620.9528 929,-639.9528 1015,-639.9528 1015,-620.9528 929,-620.9528"/>
<text text-anchor="start" x="932" y="-627.0528" font-family="Helvetica,sans-Serif" font-size="11.00" fill="#000000">&lt; 2</text>
<polygon fill="#ffffff" stroke="transparent" points="1015,-620.9528 1015,-639.9528 1098,-639.9528 1098,-620.9528 1015,-620.9528"/>
<polygon fill="none" stroke="#000000" points="1015,-620.9528 1015,-639.9528 1098,-639.9528 1098,-620.9528 1015,-620.9528"/>
<text text-anchor="start" x="1050.3807" y="-627.0528" font-family="Helvetica,sans-Serif" font-size="11.00" fill="#000000">105 rows</text>
<polygon fill="#ffffff" stroke="transparent" points="1098,-620.9528 1098,-639.9528 1143,-639.9528 1143,-620.9528 1098,-620.9528"/>
<polygon fill="none" stroke="#000000" points="1098,-620.9528 1098,-639.9528 1143,-639.9528 1143,-620.9528 1098,-620.9528"/>
<text text-anchor="start" x="1133.8862" y="-627.0528" font-family="Helvetica,sans-Serif" font-size="11.00" fill="#000000"> &#160;</text>
</a>
</g>
</g>
<!-- TARGET_FORMS_REFERENCES&#45;&gt;TARGET_FORMS -->
<g id="edge31" class="edge">
<title>TARGET_FORMS_REFERENCES:w&#45;&gt;TARGET_FORMS:e</title>
<path fill="none" stroke="#000000" d="M914.384,-648.9907C867.279,-649.3522 841.9998,-653.1521 809,-692.9528 774.0579,-735.0961 823.2449,-935.9528 768.5,-935.9528"/>
<polygon fill="#000000" stroke="#000000" points="921,-648.9736 929.0094,-652.5528 925,-648.9632 929,-648.9528 929,-648.9528 929,-648.9528 925,-648.9632 928.9906,-645.3528 921,-648.9736 921,-648.9736"/>
<ellipse fill="none" stroke="#000000" cx="917.8" cy="-648.9819" rx="3.2" ry="3.2"/>
</g>
<!-- TARGET_FORMS_TAGS -->
<g id="node25" class="node">
<title>TARGET_FORMS_TAGS</title>
<g id="a_node25"><a xlink:href="../../tables/TARGET_FORMS_TAGS.html" xlink:title="TARGET_FORMS_TAGS" target="_top">
<polygon fill="#ffffff" stroke="transparent" points="951.5,-539.4528 951.5,-600.4528 1120.5,-600.4528 1120.5,-539.4528 951.5,-539.4528"/>
<polygon fill="#f5f5f5" stroke="transparent" points="952,-576.9528 952,-599.9528 1121,-599.9528 1121,-576.9528 952,-576.9528"/>
<polygon fill="none" stroke="#000000" points="952,-576.9528 952,-599.9528 1121,-599.9528 1121,-576.9528 952,-576.9528"/>
<text text-anchor="start" x="956.7484" y="-586.0528" font-family="Helvetica,sans-Serif" font-weight="bold" font-size="11.00" fill="#000000">TARGET_FORMS_TAGS</text>
<text text-anchor="start" x="1086.5219" y="-585.0528" font-family="Helvetica,sans-Serif" font-size="11.00" fill="#000000">[table]</text>
<polygon fill="none" stroke="#000000" points="952,-557.9528 952,-576.9528 1121,-576.9528 1121,-557.9528 952,-557.9528"/>
<text text-anchor="start" x="955" y="-564.0528" font-family="Helvetica,sans-Serif" font-size="11.00" fill="#000000">...</text>
<polygon fill="#ffffff" stroke="transparent" points="952,-538.9528 952,-557.9528 1022,-557.9528 1022,-538.9528 952,-538.9528"/>
<polygon fill="none" stroke="#000000" points="952,-538.9528 952,-557.9528 1022,-557.9528 1022,-538.9528 952,-538.9528"/>
<text text-anchor="start" x="955" y="-545.0528" font-family="Helvetica,sans-Serif" font-size="11.00" fill="#000000">&lt; 2</text>
<polygon fill="#ffffff" stroke="transparent" points="1022,-538.9528 1022,-557.9528 1084,-557.9528 1084,-538.9528 1022,-538.9528"/>
<polygon fill="none" stroke="#000000" points="1022,-538.9528 1022,-557.9528 1084,-557.9528 1084,-538.9528 1022,-538.9528"/>
<text text-anchor="start" x="1048.6105" y="-545.0528" font-family="Helvetica,sans-Serif" font-size="11.00" fill="#000000">8 rows</text>
<polygon fill="#ffffff" stroke="transparent" points="1084,-538.9528 1084,-557.9528 1121,-557.9528 1121,-538.9528 1084,-538.9528"/>
<polygon fill="none" stroke="#000000" points="1084,-538.9528 1084,-557.9528 1121,-557.9528 1121,-538.9528 1084,-538.9528"/>
<text text-anchor="start" x="1111.8862" y="-545.0528" font-family="Helvetica,sans-Serif" font-size="11.00" fill="#000000"> &#160;</text>
</a>
</g>
</g>
<!-- TARGET_FORMS_TAGS&#45;&gt;TARGET_FORMS -->
<g id="edge32" class="edge">
<title>TARGET_FORMS_TAGS:w&#45;&gt;TARGET_FORMS:e</title>
<path fill="none" stroke="#000000" d="M937.356,-566.8607C880.3086,-566.2316 848.4873,-563.8942 809,-610.9528 762.2171,-666.7059 841.2808,-935.9528 768.5,-935.9528"/>
<polygon fill="#000000" stroke="#000000" points="944.0002,-566.9024 951.9773,-570.5527 948.0001,-566.9276 952,-566.9528 952,-566.9528 952,-566.9528 948.0001,-566.9276 952.0227,-563.3529 944.0002,-566.9024 944.0002,-566.9024"/>
<ellipse fill="none" stroke="#000000" cx="940.8002" cy="-566.8823" rx="3.2" ry="3.2"/>
</g>
<!-- TRACER_SYNTHESIS_REQUESTS -->
<g id="node26" class="node">
<title>TRACER_SYNTHESIS_REQUESTS</title>
<g id="a_node26"><a xlink:href="../../tables/TRACER_SYNTHESIS_REQUESTS.html" xlink:title="TRACER_SYNTHESIS_REQUESTS" target="_top">
<polygon fill="#ffffff" stroke="transparent" points="924.5,-129.4528 924.5,-190.4528 1147.5,-190.4528 1147.5,-129.4528 924.5,-129.4528"/>
<polygon fill="#f5f5f5" stroke="transparent" points="925,-166.9528 925,-189.9528 1148,-189.9528 1148,-166.9528 925,-166.9528"/>
<polygon fill="none" stroke="#000000" points="925,-166.9528 925,-189.9528 1148,-189.9528 1148,-166.9528 925,-166.9528"/>
<text text-anchor="start" x="929.8578" y="-176.0528" font-family="Helvetica,sans-Serif" font-weight="bold" font-size="11.00" fill="#000000">TRACER_SYNTHESIS_REQUESTS</text>
<text text-anchor="start" x="1113.5219" y="-175.0528" font-family="Helvetica,sans-Serif" font-size="11.00" fill="#000000">[table]</text>
<polygon fill="none" stroke="#000000" points="925,-147.9528 925,-166.9528 1148,-166.9528 1148,-147.9528 925,-147.9528"/>
<text text-anchor="start" x="928" y="-154.0528" font-family="Helvetica,sans-Serif" font-size="11.00" fill="#000000">...</text>
<polygon fill="#ffffff" stroke="transparent" points="925,-128.9528 925,-147.9528 1017,-147.9528 1017,-128.9528 925,-128.9528"/>
<polygon fill="none" stroke="#000000" points="925,-128.9528 925,-147.9528 1017,-147.9528 1017,-128.9528 925,-128.9528"/>
<text text-anchor="start" x="928" y="-135.0528" font-family="Helvetica,sans-Serif" font-size="11.00" fill="#000000">&lt; 12</text>
<polygon fill="#ffffff" stroke="transparent" points="1017,-128.9528 1017,-147.9528 1094,-147.9528 1094,-128.9528 1017,-128.9528"/>
<polygon fill="none" stroke="#000000" points="1017,-128.9528 1017,-147.9528 1094,-147.9528 1094,-128.9528 1017,-128.9528"/>
<text text-anchor="start" x="1052.4956" y="-135.0528" font-family="Helvetica,sans-Serif" font-size="11.00" fill="#000000">21 rows</text>
<polygon fill="#ffffff" stroke="transparent" points="1094,-128.9528 1094,-147.9528 1148,-147.9528 1148,-128.9528 1094,-128.9528"/>
<polygon fill="none" stroke="#000000" points="1094,-128.9528 1094,-147.9528 1148,-147.9528 1148,-128.9528 1094,-128.9528"/>
<text text-anchor="start" x="1129.4053" y="-135.0528" font-family="Helvetica,sans-Serif" font-size="11.00" fill="#000000">2 &gt;</text>
</a>
</g>
</g>
<!-- TRACER_SYNTHESIS_REQUESTS&#45;&gt;TARGET_FORMS -->
<g id="edge33" class="edge">
<title>TRACER_SYNTHESIS_REQUESTS:w&#45;&gt;TARGET_FORMS:e</title>
<path fill="none" stroke="#000000" d="M910.4694,-156.9754C864.6284,-157.2401 838.57,-160.537 809,-200.9528 760.7046,-266.9623 850.2906,-935.9528 768.5,-935.9528"/>
<polygon fill="#000000" stroke="#000000" points="917,-156.9653 925.0056,-160.5528 921,-156.9591 925,-156.9528 925,-156.9528 925,-156.9528 921,-156.9591 924.9944,-153.3528 917,-156.9653 917,-156.9653"/>
<ellipse fill="none" stroke="#000000" cx="913.8" cy="-156.9703" rx="3.2" ry="3.2"/>
</g>
<!-- TRACER_SYNTHESIS_REQUESTS&#45;&gt;TARGETS -->
<g id="edge34" class="edge">
<title>TRACER_SYNTHESIS_REQUESTS:w&#45;&gt;TARGETS:e</title>
<path fill="none" stroke="#000000" d="M910.5345,-157.3773C867.0799,-160.1002 852.1791,-175.8011 809,-200.9528 478.7143,-393.3433 437.753,-501.829 147,-749.9528 128.554,-765.6943 130.2497,-785.9528 106,-785.9528"/>
<polygon fill="#000000" stroke="#000000" points="917.0034,-157.1875 925.1056,-160.5513 921.0017,-157.0702 925,-156.9528 925,-156.9528 925,-156.9528 921.0017,-157.0702 924.8944,-153.3544 917.0034,-157.1875 917.0034,-157.1875"/>
<ellipse fill="none" stroke="#000000" cx="913.8048" cy="-157.2814" rx="3.2" ry="3.2"/>
</g>
</g>
</svg>
