<?xml version="1.0" encoding="UTF-8" standalone="no"?>
<!DOCTYPE svg PUBLIC "-//W3C//DTD SVG 1.1//EN"
 "http://www.w3.org/Graphics/SVG/1.1/DTD/svg11.dtd">
<!-- Generated by graphviz version 2.40.1 (20161225.0304)
 -->
<!-- Title: oneDegreeRelationshipsDiagram Pages: 1 -->
<svg width="631pt" height="451pt"
 viewBox="0.00 0.00 631.00 451.20" xmlns="http://www.w3.org/2000/svg" xmlns:xlink="http://www.w3.org/1999/xlink">
<g id="graph0" class="graph" transform="scale(1 1) rotate(0) translate(4 447.2)">
<title>oneDegreeRelationshipsDiagram</title>
<polygon fill="#ffffff" stroke="transparent" points="-4,4 -4,-447.2 627,-447.2 627,4 -4,4"/>
<text text-anchor="middle" x="72.4936" y="-7.3" font-family="Helvetica,sans-Serif" font-size="11.00" fill="#000000">Generated by SchemaSpy</text>
<!-- TARGETS_USERS -->
<g id="node1" class="node">
<title>TARGETS_USERS</title>
<g id="a_node1"><a xlink:href="../../tables/TARGETS_USERS.html" xlink:title="TARGETS_USERS" target="_top">
<polygon fill="#ffffff" stroke="transparent" points="307,-180.7 307,-402.7 615,-402.7 615,-180.7 307,-180.7"/>
<polygon fill="#f5f5f5" stroke="transparent" points="309,-377.7 309,-400.7 613,-400.7 613,-377.7 309,-377.7"/>
<polygon fill="none" stroke="#000000" points="309,-377.7 309,-400.7 613,-400.7 613,-377.7 309,-377.7"/>
<text text-anchor="start" x="314" y="-386.8" font-family="Helvetica,sans-Serif" font-weight="bold" font-size="11.00" fill="#000000">TARGETS_USERS</text>
<text text-anchor="start" x="578.0437" y="-385.8" font-family="Helvetica,sans-Serif" font-size="11.00" fill="#000000">[table]</text>
<polygon fill="none" stroke="#000000" points="309,-355.7 309,-377.7 442,-377.7 442,-355.7 309,-355.7"/>
<image xlink:href="../../images/primaryKeys.png" width="11px" height="12px" preserveAspectRatio="xMinYMin meet" x="314" y="-372.7"/>
<text text-anchor="start" x="329" y="-362.8" font-family="Helvetica,sans-Serif" font-size="11.00" fill="#000000">ID</text>
<polygon fill="none" stroke="#000000" points="442,-355.7 442,-377.7 613,-377.7 613,-355.7 442,-355.7"/>
<text text-anchor="start" x="445" y="-363.4" font-family="Helvetica,sans-Serif" font-size="11.00" fill="#000000">number[19]</text>
<polygon fill="none" stroke="#000000" points="309,-333.7 309,-355.7 442,-355.7 442,-333.7 309,-333.7"/>
<text text-anchor="start" x="329" y="-340.8" font-family="Helvetica,sans-Serif" font-size="11.00" fill="#000000">CREATED_AT</text>
<polygon fill="none" stroke="#000000" points="442,-333.7 442,-355.7 613,-355.7 613,-333.7 442,-333.7"/>
<text text-anchor="start" x="444.9896" y="-341.4" font-family="Helvetica,sans-Serif" font-size="11.00" fill="#000000">timestamp(6) with time zone[13,6]</text>
<polygon fill="none" stroke="#000000" points="309,-311.7 309,-333.7 442,-333.7 442,-311.7 309,-311.7"/>
<text text-anchor="start" x="329" y="-318.8" font-family="Helvetica,sans-Serif" font-size="11.00" fill="#000000">CREATED_BY</text>
<polygon fill="none" stroke="#000000" points="442,-311.7 442,-333.7 613,-333.7 613,-311.7 442,-311.7"/>
<text text-anchor="start" x="445" y="-319.4" font-family="Helvetica,sans-Serif" font-size="11.00" fill="#000000">number[19]</text>
<polygon fill="none" stroke="#000000" points="309,-289.7 309,-311.7 442,-311.7 442,-289.7 309,-289.7"/>
<text text-anchor="start" x="329" y="-296.8" font-family="Helvetica,sans-Serif" font-size="11.00" fill="#000000">UPDATED_AT</text>
<polygon fill="none" stroke="#000000" points="442,-289.7 442,-311.7 613,-311.7 613,-289.7 442,-289.7"/>
<text text-anchor="start" x="444.9896" y="-297.4" font-family="Helvetica,sans-Serif" font-size="11.00" fill="#000000">timestamp(6) with time zone[13,6]</text>
<polygon fill="none" stroke="#000000" points="309,-267.7 309,-289.7 442,-289.7 442,-267.7 309,-267.7"/>
<text text-anchor="start" x="329" y="-274.8" font-family="Helvetica,sans-Serif" font-size="11.00" fill="#000000">UPDATED_BY</text>
<polygon fill="none" stroke="#000000" points="442,-267.7 442,-289.7 613,-289.7 613,-267.7 442,-267.7"/>
<text text-anchor="start" x="445" y="-275.4" font-family="Helvetica,sans-Serif" font-size="11.00" fill="#000000">number[19]</text>
<polygon fill="none" stroke="#000000" points="309,-245.7 309,-267.7 442,-267.7 442,-245.7 309,-245.7"/>
<image xlink:href="../../images/foreignKeys.png" width="11px" height="12px" preserveAspectRatio="xMinYMin meet" x="314" y="-262.7"/>
<text text-anchor="start" x="329" y="-252.8" font-family="Helvetica,sans-Serif" font-size="11.00" fill="#000000">TARGET_ID</text>
<polygon fill="none" stroke="#000000" points="442,-245.7 442,-267.7 613,-267.7 613,-245.7 442,-245.7"/>
<text text-anchor="start" x="445" y="-253.4" font-family="Helvetica,sans-Serif" font-size="11.00" fill="#000000">number[19]</text>
<polygon fill="none" stroke="#000000" points="309,-223.7 309,-245.7 442,-245.7 442,-223.7 309,-223.7"/>
<image xlink:href="../../images/foreignKeys.png" width="11px" height="12px" preserveAspectRatio="xMinYMin meet" x="314" y="-240.7"/>
<text text-anchor="start" x="329" y="-230.8" font-family="Helvetica,sans-Serif" font-size="11.00" fill="#000000">USER_ID</text>
<polygon fill="none" stroke="#000000" points="442,-223.7 442,-245.7 613,-245.7 613,-223.7 442,-223.7"/>
<text text-anchor="start" x="445" y="-231.4" font-family="Helvetica,sans-Serif" font-size="11.00" fill="#000000">number[19]</text>
<polygon fill="none" stroke="#000000" points="309,-201.7 309,-223.7 442,-223.7 442,-201.7 309,-201.7"/>
<image xlink:href="../../images/foreignKeys.png" width="11px" height="12px" preserveAspectRatio="xMinYMin meet" x="314" y="-218.7"/>
<text text-anchor="start" x="329" y="-208.8" font-family="Helvetica,sans-Serif" font-size="11.00" fill="#000000">ROLE_ID</text>
<polygon fill="none" stroke="#000000" points="442,-201.7 442,-223.7 613,-223.7 613,-201.7 442,-201.7"/>
<text text-anchor="start" x="445" y="-209.4" font-family="Helvetica,sans-Serif" font-size="11.00" fill="#000000">number[19]</text>
<polygon fill="#ffffff" stroke="transparent" points="309,-182.7 309,-201.7 364,-201.7 364,-182.7 309,-182.7"/>
<polygon fill="none" stroke="#000000" points="309,-182.7 309,-201.7 364,-201.7 364,-182.7 309,-182.7"/>
<text text-anchor="start" x="312" y="-188.8" font-family="Helvetica,sans-Serif" font-size="11.00" fill="#000000">&lt; 3</text>
<polygon fill="#ffffff" stroke="transparent" points="364,-182.7 364,-201.7 442,-201.7 442,-182.7 364,-182.7"/>
<polygon fill="none" stroke="#000000" points="364,-182.7 364,-201.7 442,-201.7 442,-182.7 364,-182.7"/>
<text text-anchor="start" x="400.4956" y="-188.8" font-family="Helvetica,sans-Serif" font-size="11.00" fill="#000000">35 rows</text>
<polygon fill="#ffffff" stroke="transparent" points="442,-182.7 442,-201.7 613,-201.7 613,-182.7 442,-182.7"/>
<polygon fill="none" stroke="#000000" points="442,-182.7 442,-201.7 613,-201.7 613,-182.7 442,-182.7"/>
<text text-anchor="start" x="594.4053" y="-188.8" font-family="Helvetica,sans-Serif" font-size="11.00" fill="#000000">0 &gt;</text>
<polygon fill="none" stroke="#000000" stroke-width="2" points="308,-181.7 308,-401.7 614,-401.7 614,-181.7 308,-181.7"/>
</a>
</g>
</g>
<!-- ROLES -->
<g id="node2" class="node">
<title>ROLES</title>
<g id="a_node2"><a xlink:href="../../tables/ROLES.html" xlink:title="ROLES" target="_top">
<polygon fill="#ffffff" stroke="transparent" points="79,-38.2 79,-143.2 187,-143.2 187,-38.2 79,-38.2"/>
<polygon fill="#f5f5f5" stroke="transparent" points="79,-119.7 79,-142.7 187,-142.7 187,-119.7 79,-119.7"/>
<polygon fill="none" stroke="#000000" points="79,-119.7 79,-142.7 187,-142.7 187,-119.7 79,-119.7"/>
<text text-anchor="start" x="84" y="-128.8" font-family="Helvetica,sans-Serif" font-weight="bold" font-size="11.00" fill="#000000">ROLES</text>
<text text-anchor="start" x="152.0437" y="-127.8" font-family="Helvetica,sans-Serif" font-size="11.00" fill="#000000">[table]</text>
<polygon fill="none" stroke="#000000" points="79,-97.7 79,-119.7 187,-119.7 187,-97.7 79,-97.7"/>
<image xlink:href="../../images/primaryKeys.png" width="11px" height="12px" preserveAspectRatio="xMinYMin meet" x="84" y="-114.7"/>
<text text-anchor="start" x="99" y="-104.8" font-family="Helvetica,sans-Serif" font-size="11.00" fill="#000000">ID</text>
<polygon fill="none" stroke="#000000" points="79,-75.7 79,-97.7 187,-97.7 187,-75.7 79,-75.7"/>
<image xlink:href="../../images/primaryKeys.png" width="11px" height="12px" preserveAspectRatio="xMinYMin meet" x="84" y="-92.7"/>
<text text-anchor="start" x="99" y="-82.8" font-family="Helvetica,sans-Serif" font-size="11.00" fill="#000000">TITLE</text>
<polygon fill="none" stroke="#000000" points="79,-56.7 79,-75.7 187,-75.7 187,-56.7 79,-56.7"/>
<text text-anchor="start" x="82" y="-62.8" font-family="Helvetica,sans-Serif" font-size="11.00" fill="#000000">...</text>
<polygon fill="#ffffff" stroke="transparent" points="79,-37.7 79,-56.7 106,-56.7 106,-37.7 79,-37.7"/>
<polygon fill="none" stroke="#000000" points="79,-37.7 79,-56.7 106,-56.7 106,-37.7 79,-37.7"/>
<text text-anchor="start" x="82" y="-43.8" font-family="Helvetica,sans-Serif" font-size="11.00" fill="#000000"> &#160;</text>
<polygon fill="#ffffff" stroke="transparent" points="106,-37.7 106,-56.7 158,-56.7 158,-37.7 106,-37.7"/>
<polygon fill="none" stroke="#000000" points="106,-37.7 106,-56.7 158,-56.7 158,-37.7 106,-37.7"/>
<text text-anchor="start" x="116.4956" y="-43.8" font-family="Helvetica,sans-Serif" font-size="11.00" fill="#000000">11 rows</text>
<polygon fill="#ffffff" stroke="transparent" points="158,-37.7 158,-56.7 187,-56.7 187,-37.7 158,-37.7"/>
<polygon fill="none" stroke="#000000" points="158,-37.7 158,-56.7 187,-56.7 187,-37.7 158,-37.7"/>
<text text-anchor="start" x="168.4053" y="-43.8" font-family="Helvetica,sans-Serif" font-size="11.00" fill="#000000">2 &gt;</text>
</a>
</g>
</g>
<!-- TARGETS_USERS&#45;&gt;ROLES -->
<g id="edge1" class="edge">
<title>TARGETS_USERS:w&#45;&gt;ROLES:e</title>
<path fill="none" stroke="#000000" d="M294.6368,-208.8184C280.4374,-198.7007 285.4672,-171.1001 266,-153.7 235.8726,-126.7717 227.4078,-108.7 187,-108.7"/>
<polygon fill="#000000" stroke="#000000" points="301.277,-210.6129 308.0608,-216.1753 305.1385,-211.6564 309,-212.7 309,-212.7 309,-212.7 305.1385,-211.6564 309.9392,-209.2247 301.277,-210.6129 301.277,-210.6129"/>
<ellipse fill="none" stroke="#000000" cx="298.1879" cy="-209.778" rx="3.2" ry="3.2"/>
</g>
<!-- TARGETS -->
<g id="node3" class="node">
<title>TARGETS</title>
<g id="a_node3"><a xlink:href="../../tables/TARGETS.html" xlink:title="TARGETS" target="_top">
<polygon fill="#ffffff" stroke="transparent" points="8,-290.2 8,-439.2 258,-439.2 258,-290.2 8,-290.2"/>
<polygon fill="#f5f5f5" stroke="transparent" points="8,-415.7 8,-438.7 258,-438.7 258,-415.7 8,-415.7"/>
<polygon fill="none" stroke="#000000" points="8,-415.7 8,-438.7 258,-438.7 258,-415.7 8,-415.7"/>
<text text-anchor="start" x="13" y="-424.8" font-family="Helvetica,sans-Serif" font-weight="bold" font-size="11.00" fill="#000000">TARGETS</text>
<text text-anchor="start" x="223.0437" y="-423.8" font-family="Helvetica,sans-Serif" font-size="11.00" fill="#000000">[table]</text>
<polygon fill="none" stroke="#000000" points="8,-393.7 8,-415.7 258,-415.7 258,-393.7 8,-393.7"/>
<image xlink:href="../../images/primaryKeys.png" width="11px" height="12px" preserveAspectRatio="xMinYMin meet" x="13" y="-410.7"/>
<text text-anchor="start" x="28" y="-400.8" font-family="Helvetica,sans-Serif" font-size="11.00" fill="#000000">ID</text>
<polygon fill="none" stroke="#000000" points="8,-371.7 8,-393.7 258,-393.7 258,-371.7 8,-371.7"/>
<image xlink:href="../../images/foreignKeys.png" width="11px" height="12px" preserveAspectRatio="xMinYMin meet" x="13" y="-388.7"/>
<text text-anchor="start" x="28" y="-378.8" font-family="Helvetica,sans-Serif" font-size="11.00" fill="#000000">PROJECT_ID</text>
<polygon fill="none" stroke="#000000" points="8,-349.7 8,-371.7 258,-371.7 258,-349.7 8,-349.7"/>
<image xlink:href="../../images/foreignKeys.png" width="11px" height="12px" preserveAspectRatio="xMinYMin meet" x="13" y="-366.7"/>
<text text-anchor="start" x="28" y="-356.8" font-family="Helvetica,sans-Serif" font-size="11.00" fill="#000000">TARGET_CATEGORY_ID</text>
<polygon fill="none" stroke="#000000" points="8,-327.7 8,-349.7 258,-349.7 258,-327.7 8,-327.7"/>
<image xlink:href="../../images/foreignKeys.png" width="11px" height="12px" preserveAspectRatio="xMinYMin meet" x="13" y="-344.7"/>
<text text-anchor="start" x="28" y="-334.8" font-family="Helvetica,sans-Serif" font-size="11.00" fill="#000000">THERAPEUTIC_ID</text>
<polygon fill="none" stroke="#000000" points="8,-308.7 8,-327.7 258,-327.7 258,-308.7 8,-308.7"/>
<text text-anchor="start" x="11" y="-314.8" font-family="Helvetica,sans-Serif" font-size="11.00" fill="#000000">...</text>
<polygon fill="#ffffff" stroke="transparent" points="8,-289.7 8,-308.7 105,-308.7 105,-289.7 8,-289.7"/>
<polygon fill="none" stroke="#000000" points="8,-289.7 8,-308.7 105,-308.7 105,-289.7 8,-289.7"/>
<text text-anchor="start" x="11" y="-295.8" font-family="Helvetica,sans-Serif" font-size="11.00" fill="#000000">&lt; 3</text>
<polygon fill="#ffffff" stroke="transparent" points="105,-289.7 105,-308.7 193,-308.7 193,-289.7 105,-289.7"/>
<polygon fill="none" stroke="#000000" points="105,-289.7 105,-308.7 193,-308.7 193,-289.7 105,-289.7"/>
<text text-anchor="start" x="145.3807" y="-295.8" font-family="Helvetica,sans-Serif" font-size="11.00" fill="#000000">146 rows</text>
<polygon fill="#ffffff" stroke="transparent" points="193,-289.7 193,-308.7 258,-308.7 258,-289.7 193,-289.7"/>
<polygon fill="none" stroke="#000000" points="193,-289.7 193,-308.7 258,-308.7 258,-289.7 193,-289.7"/>
<text text-anchor="start" x="233.2904" y="-295.8" font-family="Helvetica,sans-Serif" font-size="11.00" fill="#000000">10 &gt;</text>
</a>
</g>
</g>
<!-- TARGETS_USERS&#45;&gt;TARGETS -->
<g id="edge2" class="edge">
<title>TARGETS_USERS:w&#45;&gt;TARGETS:e</title>
<path fill="none" stroke="#000000" d="M294.6212,-259.6564C253.1199,-280.5155 321.7306,-404.7 258,-404.7"/>
<polygon fill="#000000" stroke="#000000" points="301.1639,-258.3112 309.725,-260.2262 305.082,-257.5056 309,-256.7 309,-256.7 309,-256.7 305.082,-257.5056 308.275,-253.1738 301.1639,-258.3112 301.1639,-258.3112"/>
<ellipse fill="none" stroke="#000000" cx="298.0295" cy="-258.9557" rx="3.2" ry="3.2"/>
</g>
<!-- USERS -->
<g id="node4" class="node">
<title>USERS</title>
<g id="a_node4"><a xlink:href="../../tables/USERS.html" xlink:title="USERS" target="_top">
<polygon fill="#ffffff" stroke="transparent" points="76,-164.2 76,-269.2 190,-269.2 190,-164.2 76,-164.2"/>
<polygon fill="#f5f5f5" stroke="transparent" points="76,-245.7 76,-268.7 190,-268.7 190,-245.7 76,-245.7"/>
<polygon fill="none" stroke="#000000" points="76,-245.7 76,-268.7 190,-268.7 190,-245.7 76,-245.7"/>
<text text-anchor="start" x="81" y="-254.8" font-family="Helvetica,sans-Serif" font-weight="bold" font-size="11.00" fill="#000000">USERS</text>
<text text-anchor="start" x="155.0437" y="-253.8" font-family="Helvetica,sans-Serif" font-size="11.00" fill="#000000">[table]</text>
<polygon fill="none" stroke="#000000" points="76,-223.7 76,-245.7 190,-245.7 190,-223.7 76,-223.7"/>
<image xlink:href="../../images/primaryKeys.png" width="11px" height="12px" preserveAspectRatio="xMinYMin meet" x="81" y="-240.7"/>
<text text-anchor="start" x="96" y="-230.8" font-family="Helvetica,sans-Serif" font-size="11.00" fill="#000000">ID</text>
<polygon fill="none" stroke="#000000" points="76,-201.7 76,-223.7 190,-223.7 190,-201.7 76,-201.7"/>
<image xlink:href="../../images/primaryKeys.png" width="11px" height="12px" preserveAspectRatio="xMinYMin meet" x="81" y="-218.7"/>
<text text-anchor="start" x="96" y="-208.8" font-family="Helvetica,sans-Serif" font-size="11.00" fill="#000000">USERNAME</text>
<polygon fill="none" stroke="#000000" points="76,-182.7 76,-201.7 190,-201.7 190,-182.7 76,-182.7"/>
<text text-anchor="start" x="79" y="-188.8" font-family="Helvetica,sans-Serif" font-size="11.00" fill="#000000">...</text>
<polygon fill="#ffffff" stroke="transparent" points="76,-163.7 76,-182.7 106,-182.7 106,-163.7 76,-163.7"/>
<polygon fill="none" stroke="#000000" points="76,-163.7 76,-182.7 106,-182.7 106,-163.7 76,-163.7"/>
<text text-anchor="start" x="79" y="-169.8" font-family="Helvetica,sans-Serif" font-size="11.00" fill="#000000"> &#160;</text>
<polygon fill="#ffffff" stroke="transparent" points="106,-163.7 106,-182.7 159,-182.7 159,-163.7 106,-163.7"/>
<polygon fill="none" stroke="#000000" points="106,-163.7 106,-182.7 159,-182.7 159,-163.7 106,-163.7"/>
<text text-anchor="start" x="117.4956" y="-169.8" font-family="Helvetica,sans-Serif" font-size="11.00" fill="#000000">33 rows</text>
<polygon fill="#ffffff" stroke="transparent" points="159,-163.7 159,-182.7 190,-182.7 190,-163.7 159,-163.7"/>
<polygon fill="none" stroke="#000000" points="159,-163.7 159,-182.7 190,-182.7 190,-163.7 159,-163.7"/>
<text text-anchor="start" x="171.4053" y="-169.8" font-family="Helvetica,sans-Serif" font-size="11.00" fill="#000000">9 &gt;</text>
</a>
</g>
</g>
<!-- TARGETS_USERS&#45;&gt;USERS -->
<g id="edge3" class="edge">
<title>TARGETS_USERS:w&#45;&gt;USERS:e</title>
<path fill="none" stroke="#000000" d="M294.5662,-234.7C253.1504,-234.7 237.724,-234.7 190,-234.7"/>
<polygon fill="#000000" stroke="#000000" points="301,-234.7001 309,-238.3 305,-234.7 309,-234.7 309,-234.7 309,-234.7 305,-234.7 309,-231.1 301,-234.7001 301,-234.7001"/>
<ellipse fill="none" stroke="#000000" cx="297.8" cy="-234.7001" rx="3.2" ry="3.2"/>
</g>
</g>
</svg>
