<?xml version="1.0" encoding="UTF-8" standalone="no"?>
<!DOCTYPE svg PUBLIC "-//W3C//DTD SVG 1.1//EN"
 "http://www.w3.org/Graphics/SVG/1.1/DTD/svg11.dtd">
<!-- Generated by graphviz version 2.40.1 (20161225.0304)
 -->
<!-- Title: twoDegreesRelationshipsDiagram Pages: 1 -->
<svg width="1397pt" height="770pt"
 viewBox="0.00 0.00 1397.00 770.01" xmlns="http://www.w3.org/2000/svg" xmlns:xlink="http://www.w3.org/1999/xlink">
<g id="graph0" class="graph" transform="scale(1 1) rotate(0) translate(4 766.0145)">
<title>twoDegreesRelationshipsDiagram</title>
<polygon fill="#ffffff" stroke="transparent" points="-4,4 -4,-766.0145 1393,-766.0145 1393,4 -4,4"/>
<text text-anchor="middle" x="72.4936" y="-7.3" font-family="Helvetica,sans-Serif" font-size="11.00" fill="#000000">Generated by SchemaSpy</text>
<!-- ISOFORMS -->
<g id="node1" class="node">
<title>ISOFORMS</title>
<g id="a_node1"><a xlink:href="../../tables/ISOFORMS.html" xlink:title="ISOFORMS" target="_top">
<polygon fill="#ffffff" stroke="transparent" points="760.5,-460.2 760.5,-521.2 861.5,-521.2 861.5,-460.2 760.5,-460.2"/>
<polygon fill="#f5f5f5" stroke="transparent" points="761,-497.7 761,-520.7 862,-520.7 862,-497.7 761,-497.7"/>
<polygon fill="none" stroke="#000000" points="761,-497.7 761,-520.7 862,-520.7 862,-497.7 761,-497.7"/>
<text text-anchor="start" x="765.6674" y="-506.8" font-family="Helvetica,sans-Serif" font-weight="bold" font-size="11.00" fill="#000000">ISOFORMS</text>
<text text-anchor="start" x="827.5219" y="-505.8" font-family="Helvetica,sans-Serif" font-size="11.00" fill="#000000">[table]</text>
<polygon fill="none" stroke="#000000" points="761,-478.7 761,-497.7 862,-497.7 862,-478.7 761,-478.7"/>
<text text-anchor="start" x="764" y="-484.8" font-family="Helvetica,sans-Serif" font-size="11.00" fill="#000000">...</text>
<polygon fill="#ffffff" stroke="transparent" points="761,-459.7 761,-478.7 783,-478.7 783,-459.7 761,-459.7"/>
<polygon fill="none" stroke="#000000" points="761,-459.7 761,-478.7 783,-478.7 783,-459.7 761,-459.7"/>
<text text-anchor="start" x="764" y="-465.8" font-family="Helvetica,sans-Serif" font-size="11.00" fill="#000000">&lt; 1</text>
<polygon fill="#ffffff" stroke="transparent" points="783,-459.7 783,-478.7 834,-478.7 834,-459.7 783,-459.7"/>
<polygon fill="none" stroke="#000000" points="783,-459.7 783,-478.7 834,-478.7 834,-459.7 783,-459.7"/>
<text text-anchor="start" x="786.3807" y="-465.8" font-family="Helvetica,sans-Serif" font-size="11.00" fill="#000000">519 rows</text>
<polygon fill="#ffffff" stroke="transparent" points="834,-459.7 834,-478.7 862,-478.7 862,-459.7 834,-459.7"/>
<polygon fill="none" stroke="#000000" points="834,-459.7 834,-478.7 862,-478.7 862,-459.7 834,-459.7"/>
<text text-anchor="start" x="837.2904" y="-465.8" font-family="Helvetica,sans-Serif" font-size="11.00" fill="#000000">10 &gt;</text>
</a>
</g>
</g>
<!-- TARGETS -->
<g id="node2" class="node">
<title>TARGETS</title>
<g id="a_node2"><a xlink:href="../../tables/TARGETS.html" xlink:title="TARGETS" target="_top">
<polygon fill="#ffffff" stroke="transparent" points="396,-347.2 396,-496.2 646,-496.2 646,-347.2 396,-347.2"/>
<polygon fill="#f5f5f5" stroke="transparent" points="396,-472.7 396,-495.7 646,-495.7 646,-472.7 396,-472.7"/>
<polygon fill="none" stroke="#000000" points="396,-472.7 396,-495.7 646,-495.7 646,-472.7 396,-472.7"/>
<text text-anchor="start" x="401" y="-481.8" font-family="Helvetica,sans-Serif" font-weight="bold" font-size="11.00" fill="#000000">TARGETS</text>
<text text-anchor="start" x="611.0437" y="-480.8" font-family="Helvetica,sans-Serif" font-size="11.00" fill="#000000">[table]</text>
<polygon fill="none" stroke="#000000" points="396,-450.7 396,-472.7 646,-472.7 646,-450.7 396,-450.7"/>
<image xlink:href="../../images/primaryKeys.png" width="11px" height="12px" preserveAspectRatio="xMinYMin meet" x="401" y="-467.7"/>
<text text-anchor="start" x="416" y="-457.8" font-family="Helvetica,sans-Serif" font-size="11.00" fill="#000000">ID</text>
<polygon fill="none" stroke="#000000" points="396,-428.7 396,-450.7 646,-450.7 646,-428.7 396,-428.7"/>
<image xlink:href="../../images/foreignKeys.png" width="11px" height="12px" preserveAspectRatio="xMinYMin meet" x="401" y="-445.7"/>
<text text-anchor="start" x="416" y="-435.8" font-family="Helvetica,sans-Serif" font-size="11.00" fill="#000000">PROJECT_ID</text>
<polygon fill="none" stroke="#000000" points="396,-406.7 396,-428.7 646,-428.7 646,-406.7 396,-406.7"/>
<image xlink:href="../../images/foreignKeys.png" width="11px" height="12px" preserveAspectRatio="xMinYMin meet" x="401" y="-423.7"/>
<text text-anchor="start" x="416" y="-413.8" font-family="Helvetica,sans-Serif" font-size="11.00" fill="#000000">TARGET_CATEGORY_ID</text>
<polygon fill="none" stroke="#000000" points="396,-384.7 396,-406.7 646,-406.7 646,-384.7 396,-384.7"/>
<image xlink:href="../../images/foreignKeys.png" width="11px" height="12px" preserveAspectRatio="xMinYMin meet" x="401" y="-401.7"/>
<text text-anchor="start" x="416" y="-391.8" font-family="Helvetica,sans-Serif" font-size="11.00" fill="#000000">THERAPEUTIC_ID</text>
<polygon fill="none" stroke="#000000" points="396,-365.7 396,-384.7 646,-384.7 646,-365.7 396,-365.7"/>
<text text-anchor="start" x="399" y="-371.8" font-family="Helvetica,sans-Serif" font-size="11.00" fill="#000000">...</text>
<polygon fill="#ffffff" stroke="transparent" points="396,-346.7 396,-365.7 493,-365.7 493,-346.7 396,-346.7"/>
<polygon fill="none" stroke="#000000" points="396,-346.7 396,-365.7 493,-365.7 493,-346.7 396,-346.7"/>
<text text-anchor="start" x="399" y="-352.8" font-family="Helvetica,sans-Serif" font-size="11.00" fill="#000000">&lt; 3</text>
<polygon fill="#ffffff" stroke="transparent" points="493,-346.7 493,-365.7 581,-365.7 581,-346.7 493,-346.7"/>
<polygon fill="none" stroke="#000000" points="493,-346.7 493,-365.7 581,-365.7 581,-346.7 493,-346.7"/>
<text text-anchor="start" x="533.3807" y="-352.8" font-family="Helvetica,sans-Serif" font-size="11.00" fill="#000000">146 rows</text>
<polygon fill="#ffffff" stroke="transparent" points="581,-346.7 581,-365.7 646,-365.7 646,-346.7 581,-346.7"/>
<polygon fill="none" stroke="#000000" points="581,-346.7 581,-365.7 646,-365.7 646,-346.7 581,-346.7"/>
<text text-anchor="start" x="621.2904" y="-352.8" font-family="Helvetica,sans-Serif" font-size="11.00" fill="#000000">10 &gt;</text>
</a>
</g>
</g>
<!-- ISOFORMS&#45;&gt;TARGETS -->
<g id="edge1" class="edge">
<title>ISOFORMS:w&#45;&gt;TARGETS:e</title>
<path fill="none" stroke="#000000" d="M746.5139,-486.9775C706.1486,-482.7783 693.1815,-461.7 646,-461.7"/>
<polygon fill="#000000" stroke="#000000" points="753.0099,-487.3014 760.8206,-491.2955 757.005,-487.5007 761,-487.7 761,-487.7 761,-487.7 757.005,-487.5007 761.1794,-484.1045 753.0099,-487.3014 753.0099,-487.3014"/>
<ellipse fill="none" stroke="#000000" cx="749.8139" cy="-487.142" rx="3.2" ry="3.2"/>
</g>
<!-- PROJECTS -->
<g id="node6" class="node">
<title>PROJECTS</title>
<g id="a_node6"><a xlink:href="../../tables/PROJECTS.html" xlink:title="PROJECTS" target="_top">
<polygon fill="#ffffff" stroke="transparent" points="127,-412.2 127,-473.2 228,-473.2 228,-412.2 127,-412.2"/>
<polygon fill="#f5f5f5" stroke="transparent" points="127.5,-449.7 127.5,-472.7 228.5,-472.7 228.5,-449.7 127.5,-449.7"/>
<polygon fill="none" stroke="#000000" points="127.5,-449.7 127.5,-472.7 228.5,-472.7 228.5,-449.7 127.5,-449.7"/>
<text text-anchor="start" x="132.1669" y="-458.8" font-family="Helvetica,sans-Serif" font-weight="bold" font-size="11.00" fill="#000000">PROJECTS</text>
<text text-anchor="start" x="194.0219" y="-457.8" font-family="Helvetica,sans-Serif" font-size="11.00" fill="#000000">[table]</text>
<polygon fill="none" stroke="#000000" points="127.5,-430.7 127.5,-449.7 228.5,-449.7 228.5,-430.7 127.5,-430.7"/>
<text text-anchor="start" x="130.5" y="-436.8" font-family="Helvetica,sans-Serif" font-size="11.00" fill="#000000">...</text>
<polygon fill="#ffffff" stroke="transparent" points="127.5,-411.7 127.5,-430.7 151.5,-430.7 151.5,-411.7 127.5,-411.7"/>
<polygon fill="none" stroke="#000000" points="127.5,-411.7 127.5,-430.7 151.5,-430.7 151.5,-411.7 127.5,-411.7"/>
<text text-anchor="start" x="130.5" y="-417.8" font-family="Helvetica,sans-Serif" font-size="11.00" fill="#000000"> &#160;</text>
<polygon fill="#ffffff" stroke="transparent" points="151.5,-411.7 151.5,-430.7 201.5,-430.7 201.5,-411.7 151.5,-411.7"/>
<polygon fill="none" stroke="#000000" points="151.5,-411.7 151.5,-430.7 201.5,-430.7 201.5,-411.7 151.5,-411.7"/>
<text text-anchor="start" x="159.9956" y="-417.8" font-family="Helvetica,sans-Serif" font-size="11.00" fill="#000000">55 rows</text>
<polygon fill="#ffffff" stroke="transparent" points="201.5,-411.7 201.5,-430.7 228.5,-430.7 228.5,-411.7 201.5,-411.7"/>
<polygon fill="none" stroke="#000000" points="201.5,-411.7 201.5,-430.7 228.5,-430.7 228.5,-411.7 201.5,-411.7"/>
<text text-anchor="start" x="209.9053" y="-417.8" font-family="Helvetica,sans-Serif" font-size="11.00" fill="#000000">1 &gt;</text>
</a>
</g>
</g>
<!-- TARGETS&#45;&gt;PROJECTS -->
<g id="edge7" class="edge">
<title>TARGETS:w&#45;&gt;PROJECTS:e</title>
<path fill="none" stroke="#000000" d="M381.4801,-439.7C318.7502,-439.7 297.8555,-439.7 228.5,-439.7"/>
<polygon fill="#000000" stroke="#000000" points="388,-439.7001 396,-443.3 392,-439.7 396,-439.7 396,-439.7 396,-439.7 392,-439.7 396,-436.1 388,-439.7001 388,-439.7001"/>
<ellipse fill="none" stroke="#000000" cx="384.8" cy="-439.7001" rx="3.2" ry="3.2"/>
</g>
<!-- TARGET_CATEGORIES -->
<g id="node7" class="node">
<title>TARGET_CATEGORIES</title>
<g id="a_node7"><a xlink:href="../../tables/TARGET_CATEGORIES.html" xlink:title="TARGET_CATEGORIES" target="_top">
<polygon fill="#ffffff" stroke="transparent" points="95,-679.2 95,-740.2 260,-740.2 260,-679.2 95,-679.2"/>
<polygon fill="#f5f5f5" stroke="transparent" points="95.5,-716.7 95.5,-739.7 260.5,-739.7 260.5,-716.7 95.5,-716.7"/>
<polygon fill="none" stroke="#000000" points="95.5,-716.7 95.5,-739.7 260.5,-739.7 260.5,-716.7 95.5,-716.7"/>
<text text-anchor="start" x="100.0798" y="-725.8" font-family="Helvetica,sans-Serif" font-weight="bold" font-size="11.00" fill="#000000">TARGET_CATEGORIES</text>
<text text-anchor="start" x="226.0219" y="-724.8" font-family="Helvetica,sans-Serif" font-size="11.00" fill="#000000">[table]</text>
<polygon fill="none" stroke="#000000" points="95.5,-697.7 95.5,-716.7 260.5,-716.7 260.5,-697.7 95.5,-697.7"/>
<text text-anchor="start" x="98.5" y="-703.8" font-family="Helvetica,sans-Serif" font-size="11.00" fill="#000000">...</text>
<polygon fill="#ffffff" stroke="transparent" points="95.5,-678.7 95.5,-697.7 151.5,-697.7 151.5,-678.7 95.5,-678.7"/>
<polygon fill="none" stroke="#000000" points="95.5,-678.7 95.5,-697.7 151.5,-697.7 151.5,-678.7 95.5,-678.7"/>
<text text-anchor="start" x="98.5" y="-684.8" font-family="Helvetica,sans-Serif" font-size="11.00" fill="#000000"> &#160;</text>
<polygon fill="#ffffff" stroke="transparent" points="151.5,-678.7 151.5,-697.7 217.5,-697.7 217.5,-678.7 151.5,-678.7"/>
<polygon fill="none" stroke="#000000" points="151.5,-678.7 151.5,-697.7 217.5,-697.7 217.5,-678.7 151.5,-678.7"/>
<text text-anchor="start" x="175.9956" y="-684.8" font-family="Helvetica,sans-Serif" font-size="11.00" fill="#000000">11 rows</text>
<polygon fill="#ffffff" stroke="transparent" points="217.5,-678.7 217.5,-697.7 260.5,-697.7 260.5,-678.7 217.5,-678.7"/>
<polygon fill="none" stroke="#000000" points="217.5,-678.7 217.5,-697.7 260.5,-697.7 260.5,-678.7 217.5,-678.7"/>
<text text-anchor="start" x="241.9053" y="-684.8" font-family="Helvetica,sans-Serif" font-size="11.00" fill="#000000">3 &gt;</text>
</a>
</g>
</g>
<!-- TARGETS&#45;&gt;TARGET_CATEGORIES -->
<g id="edge8" class="edge">
<title>TARGETS:w&#45;&gt;TARGET_CATEGORIES:e</title>
<path fill="none" stroke="#000000" d="M384.1153,-426.3492C347.4786,-474.4353 292.2942,-706.7 260.5,-706.7"/>
<polygon fill="#000000" stroke="#000000" points="389.5316,-422.4075 398.1184,-420.6108 392.7658,-420.0537 396,-417.7 396,-417.7 396,-417.7 392.7658,-420.0537 393.8816,-414.7892 389.5316,-422.4075 389.5316,-422.4075"/>
<ellipse fill="none" stroke="#000000" cx="386.9442" cy="-424.2904" rx="3.2" ry="3.2"/>
</g>
<!-- THERAPEUTIC_AREAS -->
<g id="node8" class="node">
<title>THERAPEUTIC_AREAS</title>
<g id="a_node8"><a xlink:href="../../tables/THERAPEUTIC_AREAS.html" xlink:title="THERAPEUTIC_AREAS" target="_top">
<polygon fill="#ffffff" stroke="transparent" points="8,-131.7 8,-309.7 347,-309.7 347,-131.7 8,-131.7"/>
<polygon fill="#f5f5f5" stroke="transparent" points="10.5,-284.7 10.5,-307.7 345.5,-307.7 345.5,-284.7 10.5,-284.7"/>
<polygon fill="none" stroke="#000000" points="10.5,-284.7 10.5,-307.7 345.5,-307.7 345.5,-284.7 10.5,-284.7"/>
<text text-anchor="start" x="15.5" y="-293.8" font-family="Helvetica,sans-Serif" font-weight="bold" font-size="11.00" fill="#000000">THERAPEUTIC_AREAS</text>
<text text-anchor="start" x="310.5437" y="-292.8" font-family="Helvetica,sans-Serif" font-size="11.00" fill="#000000">[table]</text>
<polygon fill="none" stroke="#000000" points="10.5,-262.7 10.5,-284.7 174.5,-284.7 174.5,-262.7 10.5,-262.7"/>
<image xlink:href="../../images/primaryKeys.png" width="11px" height="12px" preserveAspectRatio="xMinYMin meet" x="15.5" y="-279.7"/>
<text text-anchor="start" x="30.5" y="-269.8" font-family="Helvetica,sans-Serif" font-size="11.00" fill="#000000">ID</text>
<polygon fill="none" stroke="#000000" points="174.5,-262.7 174.5,-284.7 345.5,-284.7 345.5,-262.7 174.5,-262.7"/>
<text text-anchor="start" x="177.5" y="-270.4" font-family="Helvetica,sans-Serif" font-size="11.00" fill="#000000">number[19]</text>
<polygon fill="none" stroke="#000000" points="10.5,-240.7 10.5,-262.7 174.5,-262.7 174.5,-240.7 10.5,-240.7"/>
<text text-anchor="start" x="30.5" y="-247.8" font-family="Helvetica,sans-Serif" font-size="11.00" fill="#000000">CREATED_AT</text>
<polygon fill="none" stroke="#000000" points="174.5,-240.7 174.5,-262.7 345.5,-262.7 345.5,-240.7 174.5,-240.7"/>
<text text-anchor="start" x="177.4896" y="-248.4" font-family="Helvetica,sans-Serif" font-size="11.00" fill="#000000">timestamp(6) with time zone[13,6]</text>
<polygon fill="none" stroke="#000000" points="10.5,-218.7 10.5,-240.7 174.5,-240.7 174.5,-218.7 10.5,-218.7"/>
<text text-anchor="start" x="30.5" y="-225.8" font-family="Helvetica,sans-Serif" font-size="11.00" fill="#000000">CREATED_BY</text>
<polygon fill="none" stroke="#000000" points="174.5,-218.7 174.5,-240.7 345.5,-240.7 345.5,-218.7 174.5,-218.7"/>
<text text-anchor="start" x="177.5" y="-226.4" font-family="Helvetica,sans-Serif" font-size="11.00" fill="#000000">number[19]</text>
<polygon fill="none" stroke="#000000" points="10.5,-196.7 10.5,-218.7 174.5,-218.7 174.5,-196.7 10.5,-196.7"/>
<text text-anchor="start" x="30.5" y="-203.8" font-family="Helvetica,sans-Serif" font-size="11.00" fill="#000000">UPDATED_AT</text>
<polygon fill="none" stroke="#000000" points="174.5,-196.7 174.5,-218.7 345.5,-218.7 345.5,-196.7 174.5,-196.7"/>
<text text-anchor="start" x="177.4896" y="-204.4" font-family="Helvetica,sans-Serif" font-size="11.00" fill="#000000">timestamp(6) with time zone[13,6]</text>
<polygon fill="none" stroke="#000000" points="10.5,-174.7 10.5,-196.7 174.5,-196.7 174.5,-174.7 10.5,-174.7"/>
<text text-anchor="start" x="30.5" y="-181.8" font-family="Helvetica,sans-Serif" font-size="11.00" fill="#000000">UPDATED_BY</text>
<polygon fill="none" stroke="#000000" points="174.5,-174.7 174.5,-196.7 345.5,-196.7 345.5,-174.7 174.5,-174.7"/>
<text text-anchor="start" x="177.5" y="-182.4" font-family="Helvetica,sans-Serif" font-size="11.00" fill="#000000">number[19]</text>
<polygon fill="none" stroke="#000000" points="10.5,-152.7 10.5,-174.7 174.5,-174.7 174.5,-152.7 10.5,-152.7"/>
<image xlink:href="../../images/primaryKeys.png" width="11px" height="12px" preserveAspectRatio="xMinYMin meet" x="15.5" y="-169.7"/>
<text text-anchor="start" x="30.5" y="-159.8" font-family="Helvetica,sans-Serif" font-size="11.00" fill="#000000">TITLE</text>
<polygon fill="none" stroke="#000000" points="174.5,-152.7 174.5,-174.7 345.5,-174.7 345.5,-152.7 174.5,-152.7"/>
<text text-anchor="start" x="177.5" y="-160.4" font-family="Helvetica,sans-Serif" font-size="11.00" fill="#000000">varchar2[255]</text>
<polygon fill="#ffffff" stroke="transparent" points="10.5,-133.7 10.5,-152.7 80.5,-152.7 80.5,-133.7 10.5,-133.7"/>
<polygon fill="none" stroke="#000000" points="10.5,-133.7 10.5,-152.7 80.5,-152.7 80.5,-133.7 10.5,-133.7"/>
<text text-anchor="start" x="13.5" y="-139.8" font-family="Helvetica,sans-Serif" font-size="11.00" fill="#000000">&lt; 0</text>
<polygon fill="#ffffff" stroke="transparent" points="80.5,-133.7 80.5,-152.7 174.5,-152.7 174.5,-133.7 80.5,-133.7"/>
<polygon fill="none" stroke="#000000" points="80.5,-133.7 80.5,-152.7 174.5,-152.7 174.5,-133.7 80.5,-133.7"/>
<text text-anchor="start" x="132.9956" y="-139.8" font-family="Helvetica,sans-Serif" font-size="11.00" fill="#000000">15 rows</text>
<polygon fill="#ffffff" stroke="transparent" points="174.5,-133.7 174.5,-152.7 345.5,-152.7 345.5,-133.7 174.5,-133.7"/>
<polygon fill="none" stroke="#000000" points="174.5,-133.7 174.5,-152.7 345.5,-152.7 345.5,-133.7 174.5,-133.7"/>
<text text-anchor="start" x="326.9053" y="-139.8" font-family="Helvetica,sans-Serif" font-size="11.00" fill="#000000">2 &gt;</text>
<polygon fill="none" stroke="#000000" stroke-width="2" points="9,-132.7 9,-308.7 346,-308.7 346,-132.7 9,-132.7"/>
</a>
</g>
</g>
<!-- TARGETS&#45;&gt;THERAPEUTIC_AREAS -->
<g id="edge9" class="edge">
<title>TARGETS:w&#45;&gt;THERAPEUTIC_AREAS:e</title>
<path fill="none" stroke="#000000" d="M381.7419,-392.1803C349.6036,-372.1772 398.2238,-273.7 345.5,-273.7"/>
<polygon fill="#000000" stroke="#000000" points="388.2331,-393.7827 395.1372,-399.1951 392.1166,-394.7413 396,-395.7 396,-395.7 396,-395.7 392.1166,-394.7413 396.8628,-392.2049 388.2331,-393.7827 388.2331,-393.7827"/>
<ellipse fill="none" stroke="#000000" cx="385.1264" cy="-393.0158" rx="3.2" ry="3.2"/>
</g>
<!-- SCREENING_PLANS -->
<g id="node3" class="node">
<title>SCREENING_PLANS</title>
<g id="a_node3"><a xlink:href="../../tables/SCREENING_PLANS.html" xlink:title="SCREENING_PLANS" target="_top">
<polygon fill="#ffffff" stroke="transparent" points="1194.5,-436.2 1194.5,-497.2 1344.5,-497.2 1344.5,-436.2 1194.5,-436.2"/>
<polygon fill="#f5f5f5" stroke="transparent" points="1194.5,-473.7 1194.5,-496.7 1344.5,-496.7 1344.5,-473.7 1194.5,-473.7"/>
<polygon fill="none" stroke="#000000" points="1194.5,-473.7 1194.5,-496.7 1344.5,-496.7 1344.5,-473.7 1194.5,-473.7"/>
<text text-anchor="start" x="1199.2182" y="-482.8" font-family="Helvetica,sans-Serif" font-weight="bold" font-size="11.00" fill="#000000">SCREENING_PLANS</text>
<text text-anchor="start" x="1310.0219" y="-481.8" font-family="Helvetica,sans-Serif" font-size="11.00" fill="#000000">[table]</text>
<polygon fill="none" stroke="#000000" points="1194.5,-454.7 1194.5,-473.7 1344.5,-473.7 1344.5,-454.7 1194.5,-454.7"/>
<text text-anchor="start" x="1197.5" y="-460.8" font-family="Helvetica,sans-Serif" font-size="11.00" fill="#000000">...</text>
<polygon fill="#ffffff" stroke="transparent" points="1194.5,-435.7 1194.5,-454.7 1244.5,-454.7 1244.5,-435.7 1194.5,-435.7"/>
<polygon fill="none" stroke="#000000" points="1194.5,-435.7 1194.5,-454.7 1244.5,-454.7 1244.5,-435.7 1194.5,-435.7"/>
<text text-anchor="start" x="1197.5" y="-441.8" font-family="Helvetica,sans-Serif" font-size="11.00" fill="#000000">&lt; 3</text>
<polygon fill="#ffffff" stroke="transparent" points="1244.5,-435.7 1244.5,-454.7 1308.5,-454.7 1308.5,-435.7 1244.5,-435.7"/>
<polygon fill="none" stroke="#000000" points="1244.5,-435.7 1244.5,-454.7 1308.5,-454.7 1308.5,-435.7 1244.5,-435.7"/>
<text text-anchor="start" x="1260.8807" y="-441.8" font-family="Helvetica,sans-Serif" font-size="11.00" fill="#000000">137 rows</text>
<polygon fill="#ffffff" stroke="transparent" points="1308.5,-435.7 1308.5,-454.7 1344.5,-454.7 1344.5,-435.7 1308.5,-435.7"/>
<polygon fill="none" stroke="#000000" points="1308.5,-435.7 1308.5,-454.7 1344.5,-454.7 1344.5,-435.7 1308.5,-435.7"/>
<text text-anchor="start" x="1325.9053" y="-441.8" font-family="Helvetica,sans-Serif" font-size="11.00" fill="#000000">1 &gt;</text>
</a>
</g>
</g>
<!-- SCREENING_PLANS&#45;&gt;TARGETS -->
<g id="edge3" class="edge">
<title>SCREENING_PLANS:w&#45;&gt;TARGETS:e</title>
<path fill="none" stroke="#000000" d="M1179.8647,-463.6347C966.2082,-461.7155 905.4508,-418.3884 687,-449.7 668.2054,-452.3939 664.9867,-461.7 646,-461.7"/>
<polygon fill="#000000" stroke="#000000" points="1186.5001,-463.6642 1194.4839,-467.3 1190.5,-463.6821 1194.5,-463.7 1194.5,-463.7 1194.5,-463.7 1190.5,-463.6821 1194.5161,-460.1 1186.5001,-463.6642 1186.5001,-463.6642"/>
<ellipse fill="none" stroke="#000000" cx="1183.3001" cy="-463.6499" rx="3.2" ry="3.2"/>
</g>
<!-- TARGET_FORMS -->
<g id="node4" class="node">
<title>TARGET_FORMS</title>
<g id="a_node4"><a xlink:href="../../tables/TARGET_FORMS.html" xlink:title="TARGET_FORMS" target="_top">
<polygon fill="#ffffff" stroke="transparent" points="976,-474.2 976,-535.2 1109,-535.2 1109,-474.2 976,-474.2"/>
<polygon fill="#f5f5f5" stroke="transparent" points="976.5,-511.7 976.5,-534.7 1109.5,-534.7 1109.5,-511.7 976.5,-511.7"/>
<polygon fill="none" stroke="#000000" points="976.5,-511.7 976.5,-534.7 1109.5,-534.7 1109.5,-511.7 976.5,-511.7"/>
<text text-anchor="start" x="981.2801" y="-520.8" font-family="Helvetica,sans-Serif" font-weight="bold" font-size="11.00" fill="#000000">TARGET_FORMS</text>
<text text-anchor="start" x="1075.0219" y="-519.8" font-family="Helvetica,sans-Serif" font-size="11.00" fill="#000000">[table]</text>
<polygon fill="none" stroke="#000000" points="976.5,-492.7 976.5,-511.7 1109.5,-511.7 1109.5,-492.7 976.5,-492.7"/>
<text text-anchor="start" x="979.5" y="-498.8" font-family="Helvetica,sans-Serif" font-size="11.00" fill="#000000">...</text>
<polygon fill="#ffffff" stroke="transparent" points="976.5,-473.7 976.5,-492.7 1014.5,-492.7 1014.5,-473.7 976.5,-473.7"/>
<polygon fill="none" stroke="#000000" points="976.5,-473.7 976.5,-492.7 1014.5,-492.7 1014.5,-473.7 976.5,-473.7"/>
<text text-anchor="start" x="979.5" y="-479.8" font-family="Helvetica,sans-Serif" font-size="11.00" fill="#000000">&lt; 5</text>
<polygon fill="#ffffff" stroke="transparent" points="1014.5,-473.7 1014.5,-492.7 1073.5,-492.7 1073.5,-473.7 1014.5,-473.7"/>
<polygon fill="none" stroke="#000000" points="1014.5,-473.7 1014.5,-492.7 1073.5,-492.7 1073.5,-473.7 1014.5,-473.7"/>
<text text-anchor="start" x="1025.8807" y="-479.8" font-family="Helvetica,sans-Serif" font-size="11.00" fill="#000000">541 rows</text>
<polygon fill="#ffffff" stroke="transparent" points="1073.5,-473.7 1073.5,-492.7 1109.5,-492.7 1109.5,-473.7 1073.5,-473.7"/>
<polygon fill="none" stroke="#000000" points="1073.5,-473.7 1073.5,-492.7 1109.5,-492.7 1109.5,-473.7 1073.5,-473.7"/>
<text text-anchor="start" x="1084.7904" y="-479.8" font-family="Helvetica,sans-Serif" font-size="11.00" fill="#000000">18 &gt;</text>
</a>
</g>
</g>
<!-- SCREENING_PLANS&#45;&gt;TARGET_FORMS -->
<g id="edge2" class="edge">
<title>SCREENING_PLANS:w&#45;&gt;TARGET_FORMS:e</title>
<path fill="none" stroke="#000000" d="M1179.9002,-465.5328C1151.834,-473.1235 1145.3852,-501.7 1109.5,-501.7"/>
<polygon fill="#000000" stroke="#000000" points="1186.5623,-464.6965 1194.9484,-467.272 1190.5312,-464.1983 1194.5,-463.7 1194.5,-463.7 1194.5,-463.7 1190.5312,-464.1983 1194.0516,-460.128 1186.5623,-464.6965 1186.5623,-464.6965"/>
<ellipse fill="none" stroke="#000000" cx="1183.3872" cy="-465.0951" rx="3.2" ry="3.2"/>
</g>
<!-- TARGET_FORMS&#45;&gt;ISOFORMS -->
<g id="edge5" class="edge">
<title>TARGET_FORMS:w&#45;&gt;ISOFORMS:e</title>
<path fill="none" stroke="#000000" d="M962.0132,-501.2961C922.3965,-499.0007 908.061,-487.7 862,-487.7"/>
<polygon fill="#000000" stroke="#000000" points="968.5031,-501.477 976.3996,-505.2986 972.5016,-501.5885 976.5,-501.7 976.5,-501.7 976.5,-501.7 972.5016,-501.5885 976.6004,-498.1014 968.5031,-501.477 968.5031,-501.477"/>
<ellipse fill="none" stroke="#000000" cx="965.3044" cy="-501.3878" rx="3.2" ry="3.2"/>
</g>
<!-- TARGET_FORMS&#45;&gt;TARGETS -->
<g id="edge6" class="edge">
<title>TARGET_FORMS:w&#45;&gt;TARGETS:e</title>
<path fill="none" stroke="#000000" d="M962.5616,-506.0605C953.497,-513.079 950.7327,-526.609 935,-531.7 882.5659,-548.6675 734.8135,-559.1063 687,-531.7 655.7194,-513.7703 682.0548,-461.7 646,-461.7"/>
<polygon fill="#000000" stroke="#000000" points="968.8649,-504.0886 977.5749,-505.1358 972.6825,-502.8943 976.5,-501.7 976.5,-501.7 976.5,-501.7 972.6825,-502.8943 975.4251,-498.2642 968.8649,-504.0886 968.8649,-504.0886"/>
<ellipse fill="none" stroke="#000000" cx="965.8109" cy="-505.0441" rx="3.2" ry="3.2"/>
</g>
<!-- SUBUNITS -->
<g id="node5" class="node">
<title>SUBUNITS</title>
<g id="a_node5"><a xlink:href="../../tables/SUBUNITS.html" xlink:title="SUBUNITS" target="_top">
<polygon fill="#ffffff" stroke="transparent" points="762,-350.2 762,-411.2 860,-411.2 860,-350.2 762,-350.2"/>
<polygon fill="#f5f5f5" stroke="transparent" points="762,-387.7 762,-410.7 860,-410.7 860,-387.7 762,-387.7"/>
<polygon fill="none" stroke="#000000" points="762,-387.7 762,-410.7 860,-410.7 860,-387.7 762,-387.7"/>
<text text-anchor="start" x="766.6964" y="-396.8" font-family="Helvetica,sans-Serif" font-weight="bold" font-size="11.00" fill="#000000">SUBUNITS</text>
<text text-anchor="start" x="825.5219" y="-395.8" font-family="Helvetica,sans-Serif" font-size="11.00" fill="#000000">[table]</text>
<polygon fill="none" stroke="#000000" points="762,-368.7 762,-387.7 860,-387.7 860,-368.7 762,-368.7"/>
<text text-anchor="start" x="765" y="-374.8" font-family="Helvetica,sans-Serif" font-size="11.00" fill="#000000">...</text>
<polygon fill="#ffffff" stroke="transparent" points="762,-349.7 762,-368.7 792,-368.7 792,-349.7 762,-349.7"/>
<polygon fill="none" stroke="#000000" points="762,-349.7 762,-368.7 792,-368.7 792,-349.7 762,-349.7"/>
<text text-anchor="start" x="765" y="-355.8" font-family="Helvetica,sans-Serif" font-size="11.00" fill="#000000">&lt; 2</text>
<polygon fill="#ffffff" stroke="transparent" points="792,-349.7 792,-368.7 834,-368.7 834,-349.7 792,-349.7"/>
<polygon fill="none" stroke="#000000" points="792,-349.7 792,-368.7 834,-368.7 834,-349.7 792,-349.7"/>
<text text-anchor="start" x="798.6105" y="-355.8" font-family="Helvetica,sans-Serif" font-size="11.00" fill="#000000">0 rows</text>
<polygon fill="#ffffff" stroke="transparent" points="834,-349.7 834,-368.7 860,-368.7 860,-349.7 834,-349.7"/>
<polygon fill="none" stroke="#000000" points="834,-349.7 834,-368.7 860,-368.7 860,-349.7 834,-349.7"/>
<text text-anchor="start" x="841.4053" y="-355.8" font-family="Helvetica,sans-Serif" font-size="11.00" fill="#000000">3 &gt;</text>
</a>
</g>
</g>
<!-- SUBUNITS&#45;&gt;TARGETS -->
<g id="edge4" class="edge">
<title>SUBUNITS:w&#45;&gt;TARGETS:e</title>
<path fill="none" stroke="#000000" d="M747.6116,-378.9946C720.8658,-384.3119 714.3025,-405.162 687,-425.7 667.6211,-440.2776 670.2497,-461.7 646,-461.7"/>
<polygon fill="#000000" stroke="#000000" points="754.0322,-378.417 762.3226,-381.2855 758.0161,-378.0585 762,-377.7 762,-377.7 762,-377.7 758.0161,-378.0585 761.6774,-374.1145 754.0322,-378.417 754.0322,-378.417"/>
<ellipse fill="none" stroke="#000000" cx="750.8451" cy="-378.7038" rx="3.2" ry="3.2"/>
</g>
<!-- TARGETS_INDICATIONS -->
<g id="node9" class="node">
<title>TARGETS_INDICATIONS</title>
<g id="a_node9"><a xlink:href="../../tables/TARGETS_INDICATIONS.html" xlink:title="TARGETS_INDICATIONS" target="_top">
<polygon fill="#ffffff" stroke="transparent" points="725.5,-268.2 725.5,-329.2 896.5,-329.2 896.5,-268.2 725.5,-268.2"/>
<polygon fill="#f5f5f5" stroke="transparent" points="726,-305.7 726,-328.7 897,-328.7 897,-305.7 726,-305.7"/>
<polygon fill="none" stroke="#000000" points="726,-305.7 726,-328.7 897,-328.7 897,-305.7 726,-305.7"/>
<text text-anchor="start" x="730.5285" y="-314.8" font-family="Helvetica,sans-Serif" font-weight="bold" font-size="11.00" fill="#000000">TARGETS_INDICATIONS</text>
<text text-anchor="start" x="862.5219" y="-313.8" font-family="Helvetica,sans-Serif" font-size="11.00" fill="#000000">[table]</text>
<polygon fill="none" stroke="#000000" points="726,-286.7 726,-305.7 897,-305.7 897,-286.7 726,-286.7"/>
<text text-anchor="start" x="729" y="-292.8" font-family="Helvetica,sans-Serif" font-size="11.00" fill="#000000">...</text>
<polygon fill="#ffffff" stroke="transparent" points="726,-267.7 726,-286.7 794,-286.7 794,-267.7 726,-267.7"/>
<polygon fill="none" stroke="#000000" points="726,-267.7 726,-286.7 794,-286.7 794,-267.7 726,-267.7"/>
<text text-anchor="start" x="729" y="-273.8" font-family="Helvetica,sans-Serif" font-size="11.00" fill="#000000">&lt; 2</text>
<polygon fill="#ffffff" stroke="transparent" points="794,-267.7 794,-286.7 861,-286.7 861,-267.7 794,-267.7"/>
<polygon fill="none" stroke="#000000" points="794,-267.7 794,-286.7 861,-286.7 861,-267.7 794,-267.7"/>
<text text-anchor="start" x="819.4956" y="-273.8" font-family="Helvetica,sans-Serif" font-size="11.00" fill="#000000">22 rows</text>
<polygon fill="#ffffff" stroke="transparent" points="861,-267.7 861,-286.7 897,-286.7 897,-267.7 861,-267.7"/>
<polygon fill="none" stroke="#000000" points="861,-267.7 861,-286.7 897,-286.7 897,-267.7 861,-267.7"/>
<text text-anchor="start" x="887.8862" y="-273.8" font-family="Helvetica,sans-Serif" font-size="11.00" fill="#000000"> &#160;</text>
</a>
</g>
</g>
<!-- TARGETS_INDICATIONS&#45;&gt;TARGETS -->
<g id="edge10" class="edge">
<title>TARGETS_INDICATIONS:w&#45;&gt;TARGETS:e</title>
<path fill="none" stroke="#000000" d="M711.4214,-297.9211C654.7839,-317.6196 722.2999,-461.7 646,-461.7"/>
<polygon fill="#000000" stroke="#000000" points="718.0913,-296.905 726.5422,-299.2589 722.0456,-296.3025 726,-295.7 726,-295.7 726,-295.7 722.0456,-296.3025 725.4578,-292.1411 718.0913,-296.905 718.0913,-296.905"/>
<ellipse fill="none" stroke="#000000" cx="714.9278" cy="-297.387" rx="3.2" ry="3.2"/>
</g>
<!-- TARGETS_REFERENCES -->
<g id="node10" class="node">
<title>TARGETS_REFERENCES</title>
<g id="a_node10"><a xlink:href="../../tables/TARGETS_REFERENCES.html" xlink:title="TARGETS_REFERENCES" target="_top">
<polygon fill="#ffffff" stroke="transparent" points="723,-186.2 723,-247.2 899,-247.2 899,-186.2 723,-186.2"/>
<polygon fill="#f5f5f5" stroke="transparent" points="723,-223.7 723,-246.7 899,-246.7 899,-223.7 723,-223.7"/>
<polygon fill="none" stroke="#000000" points="723,-223.7 723,-246.7 899,-246.7 899,-223.7 723,-223.7"/>
<text text-anchor="start" x="727.8884" y="-232.8" font-family="Helvetica,sans-Serif" font-weight="bold" font-size="11.00" fill="#000000">TARGETS_REFERENCES</text>
<text text-anchor="start" x="864.5219" y="-231.8" font-family="Helvetica,sans-Serif" font-size="11.00" fill="#000000">[table]</text>
<polygon fill="none" stroke="#000000" points="723,-204.7 723,-223.7 899,-223.7 899,-204.7 723,-204.7"/>
<text text-anchor="start" x="726" y="-210.8" font-family="Helvetica,sans-Serif" font-size="11.00" fill="#000000">...</text>
<polygon fill="#ffffff" stroke="transparent" points="723,-185.7 723,-204.7 793,-204.7 793,-185.7 723,-185.7"/>
<polygon fill="none" stroke="#000000" points="723,-185.7 723,-204.7 793,-204.7 793,-185.7 723,-185.7"/>
<text text-anchor="start" x="726" y="-191.8" font-family="Helvetica,sans-Serif" font-size="11.00" fill="#000000">&lt; 2</text>
<polygon fill="#ffffff" stroke="transparent" points="793,-185.7 793,-204.7 862,-204.7 862,-185.7 793,-185.7"/>
<polygon fill="none" stroke="#000000" points="793,-185.7 793,-204.7 862,-204.7 862,-185.7 793,-185.7"/>
<text text-anchor="start" x="820.4956" y="-191.8" font-family="Helvetica,sans-Serif" font-size="11.00" fill="#000000">48 rows</text>
<polygon fill="#ffffff" stroke="transparent" points="862,-185.7 862,-204.7 899,-204.7 899,-185.7 862,-185.7"/>
<polygon fill="none" stroke="#000000" points="862,-185.7 862,-204.7 899,-204.7 899,-185.7 862,-185.7"/>
<text text-anchor="start" x="889.8862" y="-191.8" font-family="Helvetica,sans-Serif" font-size="11.00" fill="#000000"> &#160;</text>
</a>
</g>
</g>
<!-- TARGETS_REFERENCES&#45;&gt;TARGETS -->
<g id="edge11" class="edge">
<title>TARGETS_REFERENCES:w&#45;&gt;TARGETS:e</title>
<path fill="none" stroke="#000000" d="M708.9441,-216.9365C697.1706,-223.7116 695.2754,-240.2144 687,-257.7 667.2196,-299.4954 692.2398,-461.7 646,-461.7"/>
<polygon fill="#000000" stroke="#000000" points="715.204,-215.4951 723.8078,-217.2082 719.102,-214.5976 723,-213.7 723,-213.7 723,-213.7 719.102,-214.5976 722.1922,-210.1918 715.204,-215.4951 715.204,-215.4951"/>
<ellipse fill="none" stroke="#000000" cx="712.0856" cy="-216.2132" rx="3.2" ry="3.2"/>
</g>
<!-- TARGETS_TARGET_CATEGORIES -->
<g id="node11" class="node">
<title>TARGETS_TARGET_CATEGORIES</title>
<g id="a_node11"><a xlink:href="../../tables/TARGETS_TARGET_CATEGORIES.html" xlink:title="TARGETS_TARGET_CATEGORIES" target="_top">
<polygon fill="#ffffff" stroke="transparent" points="699.5,-679.2 699.5,-740.2 922.5,-740.2 922.5,-679.2 699.5,-679.2"/>
<polygon fill="#f5f5f5" stroke="transparent" points="700,-716.7 700,-739.7 923,-739.7 923,-716.7 700,-716.7"/>
<polygon fill="none" stroke="#000000" points="700,-716.7 700,-739.7 923,-739.7 923,-716.7 700,-716.7"/>
<text text-anchor="start" x="704.5498" y="-725.8" font-family="Helvetica,sans-Serif" font-weight="bold" font-size="11.00" fill="#000000">TARGETS_TARGET_CATEGORIES</text>
<text text-anchor="start" x="888.5219" y="-724.8" font-family="Helvetica,sans-Serif" font-size="11.00" fill="#000000">[table]</text>
<polygon fill="none" stroke="#000000" points="700,-697.7 700,-716.7 923,-716.7 923,-697.7 700,-697.7"/>
<text text-anchor="start" x="703" y="-703.8" font-family="Helvetica,sans-Serif" font-size="11.00" fill="#000000">...</text>
<polygon fill="#ffffff" stroke="transparent" points="700,-678.7 700,-697.7 794,-697.7 794,-678.7 700,-678.7"/>
<polygon fill="none" stroke="#000000" points="700,-678.7 700,-697.7 794,-697.7 794,-678.7 700,-678.7"/>
<text text-anchor="start" x="703" y="-684.8" font-family="Helvetica,sans-Serif" font-size="11.00" fill="#000000">&lt; 2</text>
<polygon fill="#ffffff" stroke="transparent" points="794,-678.7 794,-697.7 874,-697.7 874,-678.7 794,-678.7"/>
<polygon fill="none" stroke="#000000" points="794,-678.7 794,-697.7 874,-697.7 874,-678.7 794,-678.7"/>
<text text-anchor="start" x="832.4956" y="-684.8" font-family="Helvetica,sans-Serif" font-size="11.00" fill="#000000">25 rows</text>
<polygon fill="#ffffff" stroke="transparent" points="874,-678.7 874,-697.7 923,-697.7 923,-678.7 874,-678.7"/>
<polygon fill="none" stroke="#000000" points="874,-678.7 874,-697.7 923,-697.7 923,-678.7 874,-678.7"/>
<text text-anchor="start" x="913.8862" y="-684.8" font-family="Helvetica,sans-Serif" font-size="11.00" fill="#000000"> &#160;</text>
</a>
</g>
</g>
<!-- TARGETS_TARGET_CATEGORIES&#45;&gt;TARGETS -->
<g id="edge13" class="edge">
<title>TARGETS_TARGET_CATEGORIES:w&#45;&gt;TARGETS:e</title>
<path fill="none" stroke="#000000" d="M685.6077,-705.0047C604.3332,-683.3583 752.058,-461.7 646,-461.7"/>
<polygon fill="#000000" stroke="#000000" points="692.0549,-705.7641 699.5788,-710.2753 696.0275,-706.232 700,-706.7 700,-706.7 700,-706.7 696.0275,-706.232 700.4212,-703.1247 692.0549,-705.7641 692.0549,-705.7641"/>
<ellipse fill="none" stroke="#000000" cx="688.8769" cy="-705.3897" rx="3.2" ry="3.2"/>
</g>
<!-- TARGETS_TARGET_CATEGORIES&#45;&gt;TARGET_CATEGORIES -->
<g id="edge12" class="edge">
<title>TARGETS_TARGET_CATEGORIES:w&#45;&gt;TARGET_CATEGORIES:e</title>
<path fill="none" stroke="#000000" d="M685.3996,-706.7C502.0924,-706.7 450.8737,-706.7 260.5,-706.7"/>
<polygon fill="#000000" stroke="#000000" points="692,-706.7001 700,-710.3 696,-706.7 700,-706.7 700,-706.7 700,-706.7 696,-706.7 700,-703.1 692,-706.7001 692,-706.7001"/>
<ellipse fill="none" stroke="#000000" cx="688.8" cy="-706.7001" rx="3.2" ry="3.2"/>
</g>
<!-- TARGETS_THERAPEUTIC_AREAS -->
<g id="node12" class="node">
<title>TARGETS_THERAPEUTIC_AREAS</title>
<g id="a_node12"><a xlink:href="../../tables/TARGETS_THERAPEUTIC_AREAS.html" xlink:title="TARGETS_THERAPEUTIC_AREAS" target="_top">
<polygon fill="#ffffff" stroke="transparent" points="695,-38.2 695,-165.2 927,-165.2 927,-38.2 695,-38.2"/>
<polygon fill="#f5f5f5" stroke="transparent" points="695,-141.7 695,-164.7 927,-164.7 927,-141.7 695,-141.7"/>
<polygon fill="none" stroke="#000000" points="695,-141.7 695,-164.7 927,-164.7 927,-141.7 695,-141.7"/>
<text text-anchor="start" x="700" y="-150.8" font-family="Helvetica,sans-Serif" font-weight="bold" font-size="11.00" fill="#000000">TARGETS_THERAPEUTIC_AREAS</text>
<text text-anchor="start" x="892.0437" y="-149.8" font-family="Helvetica,sans-Serif" font-size="11.00" fill="#000000">[table]</text>
<polygon fill="none" stroke="#000000" points="695,-119.7 695,-141.7 927,-141.7 927,-119.7 695,-119.7"/>
<image xlink:href="../../images/primaryKeys.png" width="11px" height="12px" preserveAspectRatio="xMinYMin meet" x="700" y="-136.7"/>
<text text-anchor="start" x="715" y="-126.8" font-family="Helvetica,sans-Serif" font-size="11.00" fill="#000000">ID</text>
<polygon fill="none" stroke="#000000" points="695,-97.7 695,-119.7 927,-119.7 927,-97.7 695,-97.7"/>
<image xlink:href="../../images/foreignKeys.png" width="11px" height="12px" preserveAspectRatio="xMinYMin meet" x="700" y="-114.7"/>
<text text-anchor="start" x="715" y="-104.8" font-family="Helvetica,sans-Serif" font-size="11.00" fill="#000000">TARGET_ID</text>
<polygon fill="none" stroke="#000000" points="695,-75.7 695,-97.7 927,-97.7 927,-75.7 695,-75.7"/>
<image xlink:href="../../images/foreignKeys.png" width="11px" height="12px" preserveAspectRatio="xMinYMin meet" x="700" y="-92.7"/>
<text text-anchor="start" x="715" y="-82.8" font-family="Helvetica,sans-Serif" font-size="11.00" fill="#000000">THERAPEUTIC_AREA_ID</text>
<polygon fill="none" stroke="#000000" points="695,-56.7 695,-75.7 927,-75.7 927,-56.7 695,-56.7"/>
<text text-anchor="start" x="698" y="-62.8" font-family="Helvetica,sans-Serif" font-size="11.00" fill="#000000">...</text>
<polygon fill="#ffffff" stroke="transparent" points="695,-37.7 695,-56.7 793,-56.7 793,-37.7 695,-37.7"/>
<polygon fill="none" stroke="#000000" points="695,-37.7 695,-56.7 793,-56.7 793,-37.7 695,-37.7"/>
<text text-anchor="start" x="698" y="-43.8" font-family="Helvetica,sans-Serif" font-size="11.00" fill="#000000">&lt; 2</text>
<polygon fill="#ffffff" stroke="transparent" points="793,-37.7 793,-56.7 876,-56.7 876,-37.7 793,-37.7"/>
<polygon fill="none" stroke="#000000" points="793,-37.7 793,-56.7 876,-56.7 876,-37.7 793,-37.7"/>
<text text-anchor="start" x="834.4956" y="-43.8" font-family="Helvetica,sans-Serif" font-size="11.00" fill="#000000">28 rows</text>
<polygon fill="#ffffff" stroke="transparent" points="876,-37.7 876,-56.7 927,-56.7 927,-37.7 876,-37.7"/>
<polygon fill="none" stroke="#000000" points="876,-37.7 876,-56.7 927,-56.7 927,-37.7 876,-37.7"/>
<text text-anchor="start" x="917.8862" y="-43.8" font-family="Helvetica,sans-Serif" font-size="11.00" fill="#000000"> &#160;</text>
</a>
</g>
</g>
<!-- TARGETS_THERAPEUTIC_AREAS&#45;&gt;TARGETS -->
<g id="edge14" class="edge">
<title>TARGETS_THERAPEUTIC_AREAS:w&#45;&gt;TARGETS:e</title>
<path fill="none" stroke="#000000" d="M681.2819,-113.4232C629.8782,-155.3121 719.7828,-461.7 646,-461.7"/>
<polygon fill="#000000" stroke="#000000" points="687.4358,-111.3044 696.172,-112.1039 691.2179,-110.0022 695,-108.7 695,-108.7 695,-108.7 691.2179,-110.0022 693.828,-105.2961 687.4358,-111.3044 687.4358,-111.3044"/>
<ellipse fill="none" stroke="#000000" cx="684.4101" cy="-112.3462" rx="3.2" ry="3.2"/>
</g>
<!-- TARGETS_THERAPEUTIC_AREAS&#45;&gt;THERAPEUTIC_AREAS -->
<g id="edge15" class="edge">
<title>TARGETS_THERAPEUTIC_AREAS:w&#45;&gt;THERAPEUTIC_AREAS:e</title>
<path fill="none" stroke="#000000" d="M680.455,-87.1414C518.8472,-97.1418 516.6809,-273.7 345.5,-273.7"/>
<polygon fill="#000000" stroke="#000000" points="687.0037,-86.9427 695.1092,-90.2983 691.0018,-86.8214 695,-86.7 695,-86.7 695,-86.7 691.0018,-86.8214 694.8908,-83.1017 687.0037,-86.9427 687.0037,-86.9427"/>
<ellipse fill="none" stroke="#000000" cx="683.8052" cy="-87.0398" rx="3.2" ry="3.2"/>
</g>
<!-- TARGETS_USERS -->
<g id="node13" class="node">
<title>TARGETS_USERS</title>
<g id="a_node13"><a xlink:href="../../tables/TARGETS_USERS.html" xlink:title="TARGETS_USERS" target="_top">
<polygon fill="#ffffff" stroke="transparent" points="742,-597.2 742,-658.2 880,-658.2 880,-597.2 742,-597.2"/>
<polygon fill="#f5f5f5" stroke="transparent" points="742,-634.7 742,-657.7 880,-657.7 880,-634.7 742,-634.7"/>
<polygon fill="none" stroke="#000000" points="742,-634.7 742,-657.7 880,-657.7 880,-634.7 742,-634.7"/>
<text text-anchor="start" x="746.5251" y="-643.8" font-family="Helvetica,sans-Serif" font-weight="bold" font-size="11.00" fill="#000000">TARGETS_USERS</text>
<text text-anchor="start" x="845.5219" y="-642.8" font-family="Helvetica,sans-Serif" font-size="11.00" fill="#000000">[table]</text>
<polygon fill="none" stroke="#000000" points="742,-615.7 742,-634.7 880,-634.7 880,-615.7 742,-615.7"/>
<text text-anchor="start" x="745" y="-621.8" font-family="Helvetica,sans-Serif" font-size="11.00" fill="#000000">...</text>
<polygon fill="#ffffff" stroke="transparent" points="742,-596.7 742,-615.7 793,-615.7 793,-596.7 742,-596.7"/>
<polygon fill="none" stroke="#000000" points="742,-596.7 742,-615.7 793,-615.7 793,-596.7 742,-596.7"/>
<text text-anchor="start" x="745" y="-602.8" font-family="Helvetica,sans-Serif" font-size="11.00" fill="#000000">&lt; 3</text>
<polygon fill="#ffffff" stroke="transparent" points="793,-596.7 793,-615.7 852,-615.7 852,-596.7 793,-596.7"/>
<polygon fill="none" stroke="#000000" points="793,-596.7 793,-615.7 852,-615.7 852,-596.7 793,-596.7"/>
<text text-anchor="start" x="810.4956" y="-602.8" font-family="Helvetica,sans-Serif" font-size="11.00" fill="#000000">35 rows</text>
<polygon fill="#ffffff" stroke="transparent" points="852,-596.7 852,-615.7 880,-615.7 880,-596.7 852,-596.7"/>
<polygon fill="none" stroke="#000000" points="852,-596.7 852,-615.7 880,-615.7 880,-596.7 852,-596.7"/>
<text text-anchor="start" x="870.8862" y="-602.8" font-family="Helvetica,sans-Serif" font-size="11.00" fill="#000000"> &#160;</text>
</a>
</g>
</g>
<!-- TARGETS_USERS&#45;&gt;TARGETS -->
<g id="edge16" class="edge">
<title>TARGETS_USERS:w&#45;&gt;TARGETS:e</title>
<path fill="none" stroke="#000000" d="M727.5792,-623.1043C708.6015,-618.3278 701.7142,-603.1951 687,-582.7 653.8852,-536.5751 702.7811,-461.7 646,-461.7"/>
<polygon fill="#000000" stroke="#000000" points="734.0485,-623.8201 741.604,-628.2782 738.0243,-624.2601 742,-624.7 742,-624.7 742,-624.7 738.0243,-624.2601 742.396,-621.1218 734.0485,-623.8201 734.0485,-623.8201"/>
<ellipse fill="none" stroke="#000000" cx="730.8679" cy="-623.4682" rx="3.2" ry="3.2"/>
</g>
<!-- TRACER_SYNTHESIS_REQUESTS -->
<g id="node14" class="node">
<title>TRACER_SYNTHESIS_REQUESTS</title>
<g id="a_node14"><a xlink:href="../../tables/TRACER_SYNTHESIS_REQUESTS.html" xlink:title="TRACER_SYNTHESIS_REQUESTS" target="_top">
<polygon fill="#ffffff" stroke="transparent" points="1158,-545.2 1158,-606.2 1381,-606.2 1381,-545.2 1158,-545.2"/>
<polygon fill="#f5f5f5" stroke="transparent" points="1158.5,-582.7 1158.5,-605.7 1381.5,-605.7 1381.5,-582.7 1158.5,-582.7"/>
<polygon fill="none" stroke="#000000" points="1158.5,-582.7 1158.5,-605.7 1381.5,-605.7 1381.5,-582.7 1158.5,-582.7"/>
<text text-anchor="start" x="1163.3578" y="-591.8" font-family="Helvetica,sans-Serif" font-weight="bold" font-size="11.00" fill="#000000">TRACER_SYNTHESIS_REQUESTS</text>
<text text-anchor="start" x="1347.0219" y="-590.8" font-family="Helvetica,sans-Serif" font-size="11.00" fill="#000000">[table]</text>
<polygon fill="none" stroke="#000000" points="1158.5,-563.7 1158.5,-582.7 1381.5,-582.7 1381.5,-563.7 1158.5,-563.7"/>
<text text-anchor="start" x="1161.5" y="-569.8" font-family="Helvetica,sans-Serif" font-size="11.00" fill="#000000">...</text>
<polygon fill="#ffffff" stroke="transparent" points="1158.5,-544.7 1158.5,-563.7 1250.5,-563.7 1250.5,-544.7 1158.5,-544.7"/>
<polygon fill="none" stroke="#000000" points="1158.5,-544.7 1158.5,-563.7 1250.5,-563.7 1250.5,-544.7 1158.5,-544.7"/>
<text text-anchor="start" x="1161.5" y="-550.8" font-family="Helvetica,sans-Serif" font-size="11.00" fill="#000000">&lt; 12</text>
<polygon fill="#ffffff" stroke="transparent" points="1250.5,-544.7 1250.5,-563.7 1327.5,-563.7 1327.5,-544.7 1250.5,-544.7"/>
<polygon fill="none" stroke="#000000" points="1250.5,-544.7 1250.5,-563.7 1327.5,-563.7 1327.5,-544.7 1250.5,-544.7"/>
<text text-anchor="start" x="1285.9956" y="-550.8" font-family="Helvetica,sans-Serif" font-size="11.00" fill="#000000">21 rows</text>
<polygon fill="#ffffff" stroke="transparent" points="1327.5,-544.7 1327.5,-563.7 1381.5,-563.7 1381.5,-544.7 1327.5,-544.7"/>
<polygon fill="none" stroke="#000000" points="1327.5,-544.7 1327.5,-563.7 1381.5,-563.7 1381.5,-544.7 1327.5,-544.7"/>
<text text-anchor="start" x="1362.9053" y="-550.8" font-family="Helvetica,sans-Serif" font-size="11.00" fill="#000000">2 &gt;</text>
</a>
</g>
</g>
<!-- TRACER_SYNTHESIS_REQUESTS&#45;&gt;TARGETS -->
<g id="edge19" class="edge">
<title>TRACER_SYNTHESIS_REQUESTS:w&#45;&gt;TARGETS:e</title>
<path fill="none" stroke="#000000" d="M1144.0393,-572.8865C1029.9306,-575.5787 770.3234,-605.7031 687,-549.7 651.1892,-525.631 689.1478,-461.7 646,-461.7"/>
<polygon fill="#000000" stroke="#000000" points="1150.5007,-572.8032 1158.5464,-576.2997 1154.5003,-572.7516 1158.5,-572.7 1158.5,-572.7 1158.5,-572.7 1154.5003,-572.7516 1158.4536,-569.1003 1150.5007,-572.8032 1150.5007,-572.8032"/>
<ellipse fill="none" stroke="#000000" cx="1147.3009" cy="-572.8445" rx="3.2" ry="3.2"/>
</g>
<!-- TRACER_SYNTHESIS_REQUESTS&#45;&gt;TARGET_FORMS -->
<g id="edge18" class="edge">
<title>TRACER_SYNTHESIS_REQUESTS:w&#45;&gt;TARGET_FORMS:e</title>
<path fill="none" stroke="#000000" d="M1144.8596,-568.0415C1127.1978,-552.2459 1141.8501,-501.7 1109.5,-501.7"/>
<polygon fill="#000000" stroke="#000000" points="1150.9293,-570.1144 1157.3365,-576.1068 1154.7147,-571.4072 1158.5,-572.7 1158.5,-572.7 1158.5,-572.7 1154.7147,-571.4072 1159.6635,-569.2932 1150.9293,-570.1144 1150.9293,-570.1144"/>
<ellipse fill="none" stroke="#000000" cx="1147.9011" cy="-569.0802" rx="3.2" ry="3.2"/>
</g>
<!-- TRACER_SYNTHESIS_REQUESTS&#45;&gt;TARGET_CATEGORIES -->
<g id="edge17" class="edge">
<title>TRACER_SYNTHESIS_REQUESTS:w&#45;&gt;TARGET_CATEGORIES:e</title>
<path fill="none" stroke="#000000" d="M1144.1907,-575.0498C1080.753,-594.6877 990.6058,-731.2628 935,-750.7 819.2077,-791.1756 283.1455,-706.7 260.5,-706.7"/>
<polygon fill="#000000" stroke="#000000" points="1150.6057,-573.9964 1159.0834,-576.2524 1154.5529,-573.3482 1158.5,-572.7 1158.5,-572.7 1158.5,-572.7 1154.5529,-573.3482 1157.9166,-569.1476 1150.6057,-573.9964 1150.6057,-573.9964"/>
<ellipse fill="none" stroke="#000000" cx="1147.448" cy="-574.515" rx="3.2" ry="3.2"/>
</g>
</g>
</svg>
