<?xml version="1.0" encoding="UTF-8" standalone="no"?>
<!DOCTYPE svg PUBLIC "-//W3C//DTD SVG 1.1//EN"
 "http://www.w3.org/Graphics/SVG/1.1/DTD/svg11.dtd">
<!-- Generated by graphviz version 2.40.1 (20161225.0304)
 -->
<!-- Title: oneDegreeRelationshipsDiagram Pages: 1 -->
<svg width="943pt" height="330pt"
 viewBox="0.00 0.00 943.00 329.70" xmlns="http://www.w3.org/2000/svg" xmlns:xlink="http://www.w3.org/1999/xlink">
<g id="graph0" class="graph" transform="scale(1 1) rotate(0) translate(4 325.7)">
<title>oneDegreeRelationshipsDiagram</title>
<polygon fill="#ffffff" stroke="transparent" points="-4,4 -4,-325.7 939,-325.7 939,4 -4,4"/>
<text text-anchor="middle" x="72.4936" y="-7.3" font-family="Helvetica,sans-Serif" font-size="11.00" fill="#000000">Generated by SchemaSpy</text>
<!-- TARGETS -->
<g id="node1" class="node">
<title>TARGETS</title>
<g id="a_node1"><a xlink:href="../../tables/TARGETS.html" xlink:title="TARGETS" target="_top">
<polygon fill="#ffffff" stroke="transparent" points="396,-168.7 396,-317.7 646,-317.7 646,-168.7 396,-168.7"/>
<polygon fill="#f5f5f5" stroke="transparent" points="396,-294.2 396,-317.2 646,-317.2 646,-294.2 396,-294.2"/>
<polygon fill="none" stroke="#000000" points="396,-294.2 396,-317.2 646,-317.2 646,-294.2 396,-294.2"/>
<text text-anchor="start" x="401" y="-303.3" font-family="Helvetica,sans-Serif" font-weight="bold" font-size="11.00" fill="#000000">TARGETS</text>
<text text-anchor="start" x="611.0437" y="-302.3" font-family="Helvetica,sans-Serif" font-size="11.00" fill="#000000">[table]</text>
<polygon fill="none" stroke="#000000" points="396,-272.2 396,-294.2 646,-294.2 646,-272.2 396,-272.2"/>
<image xlink:href="../../images/primaryKeys.png" width="11px" height="12px" preserveAspectRatio="xMinYMin meet" x="401" y="-289.2"/>
<text text-anchor="start" x="416" y="-279.3" font-family="Helvetica,sans-Serif" font-size="11.00" fill="#000000">ID</text>
<polygon fill="none" stroke="#000000" points="396,-250.2 396,-272.2 646,-272.2 646,-250.2 396,-250.2"/>
<image xlink:href="../../images/foreignKeys.png" width="11px" height="12px" preserveAspectRatio="xMinYMin meet" x="401" y="-267.2"/>
<text text-anchor="start" x="416" y="-257.3" font-family="Helvetica,sans-Serif" font-size="11.00" fill="#000000">PROJECT_ID</text>
<polygon fill="none" stroke="#000000" points="396,-228.2 396,-250.2 646,-250.2 646,-228.2 396,-228.2"/>
<image xlink:href="../../images/foreignKeys.png" width="11px" height="12px" preserveAspectRatio="xMinYMin meet" x="401" y="-245.2"/>
<text text-anchor="start" x="416" y="-235.3" font-family="Helvetica,sans-Serif" font-size="11.00" fill="#000000">TARGET_CATEGORY_ID</text>
<polygon fill="none" stroke="#000000" points="396,-206.2 396,-228.2 646,-228.2 646,-206.2 396,-206.2"/>
<image xlink:href="../../images/foreignKeys.png" width="11px" height="12px" preserveAspectRatio="xMinYMin meet" x="401" y="-223.2"/>
<text text-anchor="start" x="416" y="-213.3" font-family="Helvetica,sans-Serif" font-size="11.00" fill="#000000">THERAPEUTIC_ID</text>
<polygon fill="none" stroke="#000000" points="396,-187.2 396,-206.2 646,-206.2 646,-187.2 396,-187.2"/>
<text text-anchor="start" x="399" y="-193.3" font-family="Helvetica,sans-Serif" font-size="11.00" fill="#000000">...</text>
<polygon fill="#ffffff" stroke="transparent" points="396,-168.2 396,-187.2 493,-187.2 493,-168.2 396,-168.2"/>
<polygon fill="none" stroke="#000000" points="396,-168.2 396,-187.2 493,-187.2 493,-168.2 396,-168.2"/>
<text text-anchor="start" x="399" y="-174.3" font-family="Helvetica,sans-Serif" font-size="11.00" fill="#000000">&lt; 3</text>
<polygon fill="#ffffff" stroke="transparent" points="493,-168.2 493,-187.2 581,-187.2 581,-168.2 493,-168.2"/>
<polygon fill="none" stroke="#000000" points="493,-168.2 493,-187.2 581,-187.2 581,-168.2 493,-168.2"/>
<text text-anchor="start" x="533.3807" y="-174.3" font-family="Helvetica,sans-Serif" font-size="11.00" fill="#000000">146 rows</text>
<polygon fill="#ffffff" stroke="transparent" points="581,-168.2 581,-187.2 646,-187.2 646,-168.2 581,-168.2"/>
<polygon fill="none" stroke="#000000" points="581,-168.2 581,-187.2 646,-187.2 646,-168.2 581,-168.2"/>
<text text-anchor="start" x="621.2904" y="-174.3" font-family="Helvetica,sans-Serif" font-size="11.00" fill="#000000">10 &gt;</text>
</a>
</g>
</g>
<!-- THERAPEUTIC_AREAS -->
<g id="node2" class="node">
<title>THERAPEUTIC_AREAS</title>
<g id="a_node2"><a xlink:href="../../tables/THERAPEUTIC_AREAS.html" xlink:title="THERAPEUTIC_AREAS" target="_top">
<polygon fill="#ffffff" stroke="transparent" points="8,-38.2 8,-216.2 347,-216.2 347,-38.2 8,-38.2"/>
<polygon fill="#f5f5f5" stroke="transparent" points="10.5,-191.2 10.5,-214.2 345.5,-214.2 345.5,-191.2 10.5,-191.2"/>
<polygon fill="none" stroke="#000000" points="10.5,-191.2 10.5,-214.2 345.5,-214.2 345.5,-191.2 10.5,-191.2"/>
<text text-anchor="start" x="15.5" y="-200.3" font-family="Helvetica,sans-Serif" font-weight="bold" font-size="11.00" fill="#000000">THERAPEUTIC_AREAS</text>
<text text-anchor="start" x="310.5437" y="-199.3" font-family="Helvetica,sans-Serif" font-size="11.00" fill="#000000">[table]</text>
<polygon fill="none" stroke="#000000" points="10.5,-169.2 10.5,-191.2 174.5,-191.2 174.5,-169.2 10.5,-169.2"/>
<image xlink:href="../../images/primaryKeys.png" width="11px" height="12px" preserveAspectRatio="xMinYMin meet" x="15.5" y="-186.2"/>
<text text-anchor="start" x="30.5" y="-176.3" font-family="Helvetica,sans-Serif" font-size="11.00" fill="#000000">ID</text>
<polygon fill="none" stroke="#000000" points="174.5,-169.2 174.5,-191.2 345.5,-191.2 345.5,-169.2 174.5,-169.2"/>
<text text-anchor="start" x="177.5" y="-176.9" font-family="Helvetica,sans-Serif" font-size="11.00" fill="#000000">number[19]</text>
<polygon fill="none" stroke="#000000" points="10.5,-147.2 10.5,-169.2 174.5,-169.2 174.5,-147.2 10.5,-147.2"/>
<text text-anchor="start" x="30.5" y="-154.3" font-family="Helvetica,sans-Serif" font-size="11.00" fill="#000000">CREATED_AT</text>
<polygon fill="none" stroke="#000000" points="174.5,-147.2 174.5,-169.2 345.5,-169.2 345.5,-147.2 174.5,-147.2"/>
<text text-anchor="start" x="177.4896" y="-154.9" font-family="Helvetica,sans-Serif" font-size="11.00" fill="#000000">timestamp(6) with time zone[13,6]</text>
<polygon fill="none" stroke="#000000" points="10.5,-125.2 10.5,-147.2 174.5,-147.2 174.5,-125.2 10.5,-125.2"/>
<text text-anchor="start" x="30.5" y="-132.3" font-family="Helvetica,sans-Serif" font-size="11.00" fill="#000000">CREATED_BY</text>
<polygon fill="none" stroke="#000000" points="174.5,-125.2 174.5,-147.2 345.5,-147.2 345.5,-125.2 174.5,-125.2"/>
<text text-anchor="start" x="177.5" y="-132.9" font-family="Helvetica,sans-Serif" font-size="11.00" fill="#000000">number[19]</text>
<polygon fill="none" stroke="#000000" points="10.5,-103.2 10.5,-125.2 174.5,-125.2 174.5,-103.2 10.5,-103.2"/>
<text text-anchor="start" x="30.5" y="-110.3" font-family="Helvetica,sans-Serif" font-size="11.00" fill="#000000">UPDATED_AT</text>
<polygon fill="none" stroke="#000000" points="174.5,-103.2 174.5,-125.2 345.5,-125.2 345.5,-103.2 174.5,-103.2"/>
<text text-anchor="start" x="177.4896" y="-110.9" font-family="Helvetica,sans-Serif" font-size="11.00" fill="#000000">timestamp(6) with time zone[13,6]</text>
<polygon fill="none" stroke="#000000" points="10.5,-81.2 10.5,-103.2 174.5,-103.2 174.5,-81.2 10.5,-81.2"/>
<text text-anchor="start" x="30.5" y="-88.3" font-family="Helvetica,sans-Serif" font-size="11.00" fill="#000000">UPDATED_BY</text>
<polygon fill="none" stroke="#000000" points="174.5,-81.2 174.5,-103.2 345.5,-103.2 345.5,-81.2 174.5,-81.2"/>
<text text-anchor="start" x="177.5" y="-88.9" font-family="Helvetica,sans-Serif" font-size="11.00" fill="#000000">number[19]</text>
<polygon fill="none" stroke="#000000" points="10.5,-59.2 10.5,-81.2 174.5,-81.2 174.5,-59.2 10.5,-59.2"/>
<image xlink:href="../../images/primaryKeys.png" width="11px" height="12px" preserveAspectRatio="xMinYMin meet" x="15.5" y="-76.2"/>
<text text-anchor="start" x="30.5" y="-66.3" font-family="Helvetica,sans-Serif" font-size="11.00" fill="#000000">TITLE</text>
<polygon fill="none" stroke="#000000" points="174.5,-59.2 174.5,-81.2 345.5,-81.2 345.5,-59.2 174.5,-59.2"/>
<text text-anchor="start" x="177.5" y="-66.9" font-family="Helvetica,sans-Serif" font-size="11.00" fill="#000000">varchar2[255]</text>
<polygon fill="#ffffff" stroke="transparent" points="10.5,-40.2 10.5,-59.2 80.5,-59.2 80.5,-40.2 10.5,-40.2"/>
<polygon fill="none" stroke="#000000" points="10.5,-40.2 10.5,-59.2 80.5,-59.2 80.5,-40.2 10.5,-40.2"/>
<text text-anchor="start" x="13.5" y="-46.3" font-family="Helvetica,sans-Serif" font-size="11.00" fill="#000000">&lt; 0</text>
<polygon fill="#ffffff" stroke="transparent" points="80.5,-40.2 80.5,-59.2 174.5,-59.2 174.5,-40.2 80.5,-40.2"/>
<polygon fill="none" stroke="#000000" points="80.5,-40.2 80.5,-59.2 174.5,-59.2 174.5,-40.2 80.5,-40.2"/>
<text text-anchor="start" x="132.9956" y="-46.3" font-family="Helvetica,sans-Serif" font-size="11.00" fill="#000000">15 rows</text>
<polygon fill="#ffffff" stroke="transparent" points="174.5,-40.2 174.5,-59.2 345.5,-59.2 345.5,-40.2 174.5,-40.2"/>
<polygon fill="none" stroke="#000000" points="174.5,-40.2 174.5,-59.2 345.5,-59.2 345.5,-40.2 174.5,-40.2"/>
<text text-anchor="start" x="326.9053" y="-46.3" font-family="Helvetica,sans-Serif" font-size="11.00" fill="#000000">2 &gt;</text>
<polygon fill="none" stroke="#000000" stroke-width="2" points="9,-39.2 9,-215.2 346,-215.2 346,-39.2 9,-39.2"/>
</a>
</g>
</g>
<!-- TARGETS&#45;&gt;THERAPEUTIC_AREAS -->
<g id="edge1" class="edge">
<title>TARGETS:w&#45;&gt;THERAPEUTIC_AREAS:e</title>
<path fill="none" stroke="#000000" d="M382.1749,-212.9556C368.8807,-203.2369 367.4548,-180.2 345.5,-180.2"/>
<polygon fill="#000000" stroke="#000000" points="388.3523,-214.8521 394.9434,-220.6415 392.1761,-216.026 396,-217.2 396,-217.2 396,-217.2 392.1761,-216.026 397.0566,-213.7585 388.3523,-214.8521 388.3523,-214.8521"/>
<ellipse fill="none" stroke="#000000" cx="385.2932" cy="-213.9129" rx="3.2" ry="3.2"/>
</g>
<!-- TARGETS_THERAPEUTIC_AREAS -->
<g id="node3" class="node">
<title>TARGETS_THERAPEUTIC_AREAS</title>
<g id="a_node3"><a xlink:href="../../tables/TARGETS_THERAPEUTIC_AREAS.html" xlink:title="TARGETS_THERAPEUTIC_AREAS" target="_top">
<polygon fill="#ffffff" stroke="transparent" points="695,-153.7 695,-280.7 927,-280.7 927,-153.7 695,-153.7"/>
<polygon fill="#f5f5f5" stroke="transparent" points="695,-257.2 695,-280.2 927,-280.2 927,-257.2 695,-257.2"/>
<polygon fill="none" stroke="#000000" points="695,-257.2 695,-280.2 927,-280.2 927,-257.2 695,-257.2"/>
<text text-anchor="start" x="700" y="-266.3" font-family="Helvetica,sans-Serif" font-weight="bold" font-size="11.00" fill="#000000">TARGETS_THERAPEUTIC_AREAS</text>
<text text-anchor="start" x="892.0437" y="-265.3" font-family="Helvetica,sans-Serif" font-size="11.00" fill="#000000">[table]</text>
<polygon fill="none" stroke="#000000" points="695,-235.2 695,-257.2 927,-257.2 927,-235.2 695,-235.2"/>
<image xlink:href="../../images/primaryKeys.png" width="11px" height="12px" preserveAspectRatio="xMinYMin meet" x="700" y="-252.2"/>
<text text-anchor="start" x="715" y="-242.3" font-family="Helvetica,sans-Serif" font-size="11.00" fill="#000000">ID</text>
<polygon fill="none" stroke="#000000" points="695,-213.2 695,-235.2 927,-235.2 927,-213.2 695,-213.2"/>
<image xlink:href="../../images/foreignKeys.png" width="11px" height="12px" preserveAspectRatio="xMinYMin meet" x="700" y="-230.2"/>
<text text-anchor="start" x="715" y="-220.3" font-family="Helvetica,sans-Serif" font-size="11.00" fill="#000000">TARGET_ID</text>
<polygon fill="none" stroke="#000000" points="695,-191.2 695,-213.2 927,-213.2 927,-191.2 695,-191.2"/>
<image xlink:href="../../images/foreignKeys.png" width="11px" height="12px" preserveAspectRatio="xMinYMin meet" x="700" y="-208.2"/>
<text text-anchor="start" x="715" y="-198.3" font-family="Helvetica,sans-Serif" font-size="11.00" fill="#000000">THERAPEUTIC_AREA_ID</text>
<polygon fill="none" stroke="#000000" points="695,-172.2 695,-191.2 927,-191.2 927,-172.2 695,-172.2"/>
<text text-anchor="start" x="698" y="-178.3" font-family="Helvetica,sans-Serif" font-size="11.00" fill="#000000">...</text>
<polygon fill="#ffffff" stroke="transparent" points="695,-153.2 695,-172.2 793,-172.2 793,-153.2 695,-153.2"/>
<polygon fill="none" stroke="#000000" points="695,-153.2 695,-172.2 793,-172.2 793,-153.2 695,-153.2"/>
<text text-anchor="start" x="698" y="-159.3" font-family="Helvetica,sans-Serif" font-size="11.00" fill="#000000">&lt; 2</text>
<polygon fill="#ffffff" stroke="transparent" points="793,-153.2 793,-172.2 876,-172.2 876,-153.2 793,-153.2"/>
<polygon fill="none" stroke="#000000" points="793,-153.2 793,-172.2 876,-172.2 876,-153.2 793,-153.2"/>
<text text-anchor="start" x="834.4956" y="-159.3" font-family="Helvetica,sans-Serif" font-size="11.00" fill="#000000">28 rows</text>
<polygon fill="#ffffff" stroke="transparent" points="876,-153.2 876,-172.2 927,-172.2 927,-153.2 876,-153.2"/>
<polygon fill="none" stroke="#000000" points="876,-153.2 876,-172.2 927,-172.2 927,-153.2 876,-153.2"/>
<text text-anchor="start" x="917.8862" y="-159.3" font-family="Helvetica,sans-Serif" font-size="11.00" fill="#000000"> &#160;</text>
</a>
</g>
</g>
<!-- TARGETS_THERAPEUTIC_AREAS&#45;&gt;TARGETS -->
<g id="edge2" class="edge">
<title>TARGETS_THERAPEUTIC_AREAS:w&#45;&gt;TARGETS:e</title>
<path fill="none" stroke="#000000" d="M681.1662,-229.2303C666.0842,-243.4982 673.9614,-283.2 646,-283.2"/>
<polygon fill="#000000" stroke="#000000" points="687.4816,-226.9339 696.2303,-227.5833 691.2408,-225.5669 695,-224.2 695,-224.2 695,-224.2 691.2408,-225.5669 693.7697,-220.8167 687.4816,-226.9339 687.4816,-226.9339"/>
<ellipse fill="none" stroke="#000000" cx="684.4743" cy="-228.0275" rx="3.2" ry="3.2"/>
</g>
<!-- TARGETS_THERAPEUTIC_AREAS&#45;&gt;THERAPEUTIC_AREAS -->
<g id="edge3" class="edge">
<title>TARGETS_THERAPEUTIC_AREAS:w&#45;&gt;THERAPEUTIC_AREAS:e</title>
<path fill="none" stroke="#000000" d="M681.3748,-197.4273C671.1616,-187.8188 672.7659,-166.3638 654,-158.2 545.5919,-111.0388 502.8665,-130.2323 388,-158.2 367.3342,-163.2317 366.7696,-180.2 345.5,-180.2"/>
<polygon fill="#000000" stroke="#000000" points="687.4498,-199.5553 693.8099,-205.5976 691.2249,-200.8776 695,-202.2 695,-202.2 695,-202.2 691.2249,-200.8776 696.1901,-198.8024 687.4498,-199.5553 687.4498,-199.5553"/>
<ellipse fill="none" stroke="#000000" cx="684.4297" cy="-198.4974" rx="3.2" ry="3.2"/>
</g>
</g>
</svg>
