<?xml version="1.0" encoding="UTF-8" standalone="no"?>
<!DOCTYPE svg PUBLIC "-//W3C//DTD SVG 1.1//EN"
 "http://www.w3.org/Graphics/SVG/1.1/DTD/svg11.dtd">
<!-- Generated by graphviz version 2.40.1 (20161225.0304)
 -->
<!-- Title: oneDegreeRelationshipsDiagram Pages: 1 -->
<svg width="805pt" height="583pt"
 viewBox="0.00 0.00 805.00 582.70" xmlns="http://www.w3.org/2000/svg" xmlns:xlink="http://www.w3.org/1999/xlink">
<g id="graph0" class="graph" transform="scale(1 1) rotate(0) translate(4 578.7)">
<title>oneDegreeRelationshipsDiagram</title>
<polygon fill="#ffffff" stroke="transparent" points="-4,4 -4,-578.7 801,-578.7 801,4 -4,4"/>
<text text-anchor="middle" x="72.4936" y="-7.3" font-family="Helvetica,sans-Serif" font-size="11.00" fill="#000000">Generated by SchemaSpy</text>
<!-- TRACER_SYNTHESIS_REQUESTS_REFERENCES -->
<g id="node1" class="node">
<title>TRACER_SYNTHESIS_REQUESTS_REFERENCES</title>
<g id="a_node1"><a xlink:href="../../tables/TRACER_SYNTHESIS_REQUESTS_REFERENCES.html" xlink:title="TRACER_SYNTHESIS_REQUESTS_REFERENCES" target="_top">
<polygon fill="#ffffff" stroke="transparent" points="289,-370.7 289,-570.7 789,-570.7 789,-370.7 289,-370.7"/>
<polygon fill="#f5f5f5" stroke="transparent" points="291,-545.7 291,-568.7 787,-568.7 787,-545.7 291,-545.7"/>
<polygon fill="none" stroke="#000000" points="291,-545.7 291,-568.7 787,-568.7 787,-545.7 291,-545.7"/>
<text text-anchor="start" x="296" y="-554.8" font-family="Helvetica,sans-Serif" font-weight="bold" font-size="11.00" fill="#000000">TRACER_SYNTHESIS_REQUESTS_REFERENCES</text>
<text text-anchor="start" x="752.0437" y="-553.8" font-family="Helvetica,sans-Serif" font-size="11.00" fill="#000000">[table]</text>
<polygon fill="none" stroke="#000000" points="291,-523.7 291,-545.7 616,-545.7 616,-523.7 291,-523.7"/>
<image xlink:href="../../images/primaryKeys.png" width="11px" height="12px" preserveAspectRatio="xMinYMin meet" x="296" y="-540.7"/>
<text text-anchor="start" x="311" y="-530.8" font-family="Helvetica,sans-Serif" font-size="11.00" fill="#000000">ID</text>
<polygon fill="none" stroke="#000000" points="616,-523.7 616,-545.7 787,-545.7 787,-523.7 616,-523.7"/>
<text text-anchor="start" x="619" y="-531.4" font-family="Helvetica,sans-Serif" font-size="11.00" fill="#000000">number[19]</text>
<polygon fill="none" stroke="#000000" points="291,-501.7 291,-523.7 616,-523.7 616,-501.7 291,-501.7"/>
<text text-anchor="start" x="311" y="-508.8" font-family="Helvetica,sans-Serif" font-size="11.00" fill="#000000">CREATED_AT</text>
<polygon fill="none" stroke="#000000" points="616,-501.7 616,-523.7 787,-523.7 787,-501.7 616,-501.7"/>
<text text-anchor="start" x="618.9896" y="-509.4" font-family="Helvetica,sans-Serif" font-size="11.00" fill="#000000">timestamp(6) with time zone[13,6]</text>
<polygon fill="none" stroke="#000000" points="291,-479.7 291,-501.7 616,-501.7 616,-479.7 291,-479.7"/>
<text text-anchor="start" x="311" y="-486.8" font-family="Helvetica,sans-Serif" font-size="11.00" fill="#000000">CREATED_BY</text>
<polygon fill="none" stroke="#000000" points="616,-479.7 616,-501.7 787,-501.7 787,-479.7 616,-479.7"/>
<text text-anchor="start" x="619" y="-487.4" font-family="Helvetica,sans-Serif" font-size="11.00" fill="#000000">number[19]</text>
<polygon fill="none" stroke="#000000" points="291,-457.7 291,-479.7 616,-479.7 616,-457.7 291,-457.7"/>
<text text-anchor="start" x="311" y="-464.8" font-family="Helvetica,sans-Serif" font-size="11.00" fill="#000000">UPDATED_AT</text>
<polygon fill="none" stroke="#000000" points="616,-457.7 616,-479.7 787,-479.7 787,-457.7 616,-457.7"/>
<text text-anchor="start" x="618.9896" y="-465.4" font-family="Helvetica,sans-Serif" font-size="11.00" fill="#000000">timestamp(6) with time zone[13,6]</text>
<polygon fill="none" stroke="#000000" points="291,-435.7 291,-457.7 616,-457.7 616,-435.7 291,-435.7"/>
<text text-anchor="start" x="311" y="-442.8" font-family="Helvetica,sans-Serif" font-size="11.00" fill="#000000">UPDATED_BY</text>
<polygon fill="none" stroke="#000000" points="616,-435.7 616,-457.7 787,-457.7 787,-435.7 616,-435.7"/>
<text text-anchor="start" x="619" y="-443.4" font-family="Helvetica,sans-Serif" font-size="11.00" fill="#000000">number[19]</text>
<polygon fill="none" stroke="#000000" points="291,-413.7 291,-435.7 616,-435.7 616,-413.7 291,-413.7"/>
<image xlink:href="../../images/foreignKeys.png" width="11px" height="12px" preserveAspectRatio="xMinYMin meet" x="296" y="-430.7"/>
<text text-anchor="start" x="311" y="-420.8" font-family="Helvetica,sans-Serif" font-size="11.00" fill="#000000">REFERENCE_ID</text>
<polygon fill="none" stroke="#000000" points="616,-413.7 616,-435.7 787,-435.7 787,-413.7 616,-413.7"/>
<text text-anchor="start" x="619" y="-421.4" font-family="Helvetica,sans-Serif" font-size="11.00" fill="#000000">number[19]</text>
<polygon fill="none" stroke="#000000" points="291,-391.7 291,-413.7 616,-413.7 616,-391.7 291,-391.7"/>
<image xlink:href="../../images/foreignKeys.png" width="11px" height="12px" preserveAspectRatio="xMinYMin meet" x="296" y="-408.7"/>
<text text-anchor="start" x="311" y="-398.8" font-family="Helvetica,sans-Serif" font-size="11.00" fill="#000000">TRACER_SYNTHESIS_REQUEST_ID</text>
<polygon fill="none" stroke="#000000" points="616,-391.7 616,-413.7 787,-413.7 787,-391.7 616,-391.7"/>
<text text-anchor="start" x="619" y="-399.4" font-family="Helvetica,sans-Serif" font-size="11.00" fill="#000000">number[19]</text>
<polygon fill="#ffffff" stroke="transparent" points="291,-372.7 291,-391.7 445,-391.7 445,-372.7 291,-372.7"/>
<polygon fill="none" stroke="#000000" points="291,-372.7 291,-391.7 445,-391.7 445,-372.7 291,-372.7"/>
<text text-anchor="start" x="294" y="-378.8" font-family="Helvetica,sans-Serif" font-size="11.00" fill="#000000">&lt; 2</text>
<polygon fill="#ffffff" stroke="transparent" points="445,-372.7 445,-391.7 616,-391.7 616,-372.7 445,-372.7"/>
<polygon fill="none" stroke="#000000" points="445,-372.7 445,-391.7 616,-391.7 616,-372.7 445,-372.7"/>
<text text-anchor="start" x="580.6105" y="-378.8" font-family="Helvetica,sans-Serif" font-size="11.00" fill="#000000">0 rows</text>
<polygon fill="#ffffff" stroke="transparent" points="616,-372.7 616,-391.7 787,-391.7 787,-372.7 616,-372.7"/>
<polygon fill="none" stroke="#000000" points="616,-372.7 616,-391.7 787,-391.7 787,-372.7 616,-372.7"/>
<text text-anchor="start" x="768.4053" y="-378.8" font-family="Helvetica,sans-Serif" font-size="11.00" fill="#000000">0 &gt;</text>
<polygon fill="none" stroke="#000000" stroke-width="2" points="290,-371.7 290,-569.7 788,-569.7 788,-371.7 290,-371.7"/>
</a>
</g>
</g>
<!-- REFERENCES -->
<g id="node2" class="node">
<title>REFERENCES</title>
<g id="a_node2"><a xlink:href="../../tables/REFERENCES.html" xlink:title="REFERENCES" target="_top">
<polygon fill="#ffffff" stroke="transparent" points="60,-406.2 60,-511.2 188,-511.2 188,-406.2 60,-406.2"/>
<polygon fill="#f5f5f5" stroke="transparent" points="60,-487.7 60,-510.7 188,-510.7 188,-487.7 60,-487.7"/>
<polygon fill="none" stroke="#000000" points="60,-487.7 60,-510.7 188,-510.7 188,-487.7 60,-487.7"/>
<text text-anchor="start" x="65" y="-496.8" font-family="Helvetica,sans-Serif" font-weight="bold" font-size="11.00" fill="#000000">REFERENCES</text>
<text text-anchor="start" x="153.0437" y="-495.8" font-family="Helvetica,sans-Serif" font-size="11.00" fill="#000000">[table]</text>
<polygon fill="none" stroke="#000000" points="60,-465.7 60,-487.7 188,-487.7 188,-465.7 60,-465.7"/>
<image xlink:href="../../images/primaryKeys.png" width="11px" height="12px" preserveAspectRatio="xMinYMin meet" x="65" y="-482.7"/>
<text text-anchor="start" x="80" y="-472.8" font-family="Helvetica,sans-Serif" font-size="11.00" fill="#000000">ID</text>
<polygon fill="none" stroke="#000000" points="60,-443.7 60,-465.7 188,-465.7 188,-443.7 60,-443.7"/>
<image xlink:href="../../images/foreignKeys.png" width="11px" height="12px" preserveAspectRatio="xMinYMin meet" x="65" y="-460.7"/>
<text text-anchor="start" x="80" y="-450.8" font-family="Helvetica,sans-Serif" font-size="11.00" fill="#000000">USER_ID</text>
<polygon fill="none" stroke="#000000" points="60,-424.7 60,-443.7 188,-443.7 188,-424.7 60,-424.7"/>
<text text-anchor="start" x="63" y="-430.8" font-family="Helvetica,sans-Serif" font-size="11.00" fill="#000000">...</text>
<polygon fill="#ffffff" stroke="transparent" points="60,-405.7 60,-424.7 91,-424.7 91,-405.7 60,-405.7"/>
<polygon fill="none" stroke="#000000" points="60,-405.7 60,-424.7 91,-424.7 91,-405.7 60,-405.7"/>
<text text-anchor="start" x="63" y="-411.8" font-family="Helvetica,sans-Serif" font-size="11.00" fill="#000000">&lt; 1</text>
<polygon fill="#ffffff" stroke="transparent" points="91,-405.7 91,-424.7 155,-424.7 155,-405.7 91,-405.7"/>
<polygon fill="none" stroke="#000000" points="91,-405.7 91,-424.7 155,-424.7 155,-405.7 91,-405.7"/>
<text text-anchor="start" x="98.2089" y="-411.8" font-family="Helvetica,sans-Serif" font-size="11.00" fill="#000000">2,900 rows</text>
<polygon fill="#ffffff" stroke="transparent" points="155,-405.7 155,-424.7 188,-424.7 188,-405.7 155,-405.7"/>
<polygon fill="none" stroke="#000000" points="155,-405.7 155,-424.7 188,-424.7 188,-405.7 155,-405.7"/>
<text text-anchor="start" x="163.2904" y="-411.8" font-family="Helvetica,sans-Serif" font-size="11.00" fill="#000000">20 &gt;</text>
</a>
</g>
</g>
<!-- TRACER_SYNTHESIS_REQUESTS_REFERENCES&#45;&gt;REFERENCES -->
<g id="edge1" class="edge">
<title>TRACER_SYNTHESIS_REQUESTS_REFERENCES:w&#45;&gt;REFERENCES:e</title>
<path fill="none" stroke="#000000" d="M276.3518,-426.3133C239.0611,-435.0903 233.8723,-476.7 188,-476.7"/>
<polygon fill="#000000" stroke="#000000" points="283.0481,-425.5758 291.3941,-428.2784 287.024,-425.1379 291,-424.7 291,-424.7 291,-424.7 287.024,-425.1379 290.6059,-421.1216 283.0481,-425.5758 283.0481,-425.5758"/>
<ellipse fill="none" stroke="#000000" cx="279.8673" cy="-425.9262" rx="3.2" ry="3.2"/>
</g>
<!-- TRACER_SYNTHESIS_REQUESTS -->
<g id="node3" class="node">
<title>TRACER_SYNTHESIS_REQUESTS</title>
<g id="a_node3"><a xlink:href="../../tables/TRACER_SYNTHESIS_REQUESTS.html" xlink:title="TRACER_SYNTHESIS_REQUESTS" target="_top">
<polygon fill="#ffffff" stroke="transparent" points="8,-38.2 8,-385.2 240,-385.2 240,-38.2 8,-38.2"/>
<polygon fill="#f5f5f5" stroke="transparent" points="8,-361.7 8,-384.7 240,-384.7 240,-361.7 8,-361.7"/>
<polygon fill="none" stroke="#000000" points="8,-361.7 8,-384.7 240,-384.7 240,-361.7 8,-361.7"/>
<text text-anchor="start" x="13" y="-370.8" font-family="Helvetica,sans-Serif" font-weight="bold" font-size="11.00" fill="#000000">TRACER_SYNTHESIS_REQUESTS</text>
<text text-anchor="start" x="205.0437" y="-369.8" font-family="Helvetica,sans-Serif" font-size="11.00" fill="#000000">[table]</text>
<polygon fill="none" stroke="#000000" points="8,-339.7 8,-361.7 240,-361.7 240,-339.7 8,-339.7"/>
<image xlink:href="../../images/primaryKeys.png" width="11px" height="12px" preserveAspectRatio="xMinYMin meet" x="13" y="-356.7"/>
<text text-anchor="start" x="28" y="-346.8" font-family="Helvetica,sans-Serif" font-size="11.00" fill="#000000">ID</text>
<polygon fill="none" stroke="#000000" points="8,-317.7 8,-339.7 240,-339.7 240,-317.7 8,-317.7"/>
<image xlink:href="../../images/foreignKeys.png" width="11px" height="12px" preserveAspectRatio="xMinYMin meet" x="13" y="-334.7"/>
<text text-anchor="start" x="28" y="-324.8" font-family="Helvetica,sans-Serif" font-size="11.00" fill="#000000">TRACER_TYPE_ID</text>
<polygon fill="none" stroke="#000000" points="8,-295.7 8,-317.7 240,-317.7 240,-295.7 8,-295.7"/>
<image xlink:href="../../images/foreignKeys.png" width="11px" height="12px" preserveAspectRatio="xMinYMin meet" x="13" y="-312.7"/>
<text text-anchor="start" x="28" y="-302.8" font-family="Helvetica,sans-Serif" font-size="11.00" fill="#000000">TARGET_ID</text>
<polygon fill="none" stroke="#000000" points="8,-273.7 8,-295.7 240,-295.7 240,-273.7 8,-273.7"/>
<image xlink:href="../../images/foreignKeys.png" width="11px" height="12px" preserveAspectRatio="xMinYMin meet" x="13" y="-290.7"/>
<text text-anchor="start" x="28" y="-280.8" font-family="Helvetica,sans-Serif" font-size="11.00" fill="#000000">OFF_DNA_ID</text>
<polygon fill="none" stroke="#000000" points="8,-251.7 8,-273.7 240,-273.7 240,-251.7 8,-251.7"/>
<image xlink:href="../../images/foreignKeys.png" width="11px" height="12px" preserveAspectRatio="xMinYMin meet" x="13" y="-268.7"/>
<text text-anchor="start" x="28" y="-258.8" font-family="Helvetica,sans-Serif" font-size="11.00" fill="#000000">OFF_DNA_IC50_ID</text>
<polygon fill="none" stroke="#000000" points="8,-229.7 8,-251.7 240,-251.7 240,-229.7 8,-229.7"/>
<image xlink:href="../../images/foreignKeys.png" width="11px" height="12px" preserveAspectRatio="xMinYMin meet" x="13" y="-246.7"/>
<text text-anchor="start" x="28" y="-236.8" font-family="Helvetica,sans-Serif" font-size="11.00" fill="#000000">TARGET_FORM_ID</text>
<polygon fill="none" stroke="#000000" points="8,-207.7 8,-229.7 240,-229.7 240,-207.7 8,-207.7"/>
<image xlink:href="../../images/foreignKeys.png" width="11px" height="12px" preserveAspectRatio="xMinYMin meet" x="13" y="-224.7"/>
<text text-anchor="start" x="28" y="-214.8" font-family="Helvetica,sans-Serif" font-size="11.00" fill="#000000">ASSIGNEE_ID</text>
<polygon fill="none" stroke="#000000" points="8,-185.7 8,-207.7 240,-207.7 240,-185.7 8,-185.7"/>
<image xlink:href="../../images/foreignKeys.png" width="11px" height="12px" preserveAspectRatio="xMinYMin meet" x="13" y="-202.7"/>
<text text-anchor="start" x="28" y="-192.8" font-family="Helvetica,sans-Serif" font-size="11.00" fill="#000000">TARGET_CATEGORY_ID</text>
<polygon fill="none" stroke="#000000" points="8,-163.7 8,-185.7 240,-185.7 240,-163.7 8,-163.7"/>
<image xlink:href="../../images/foreignKeys.png" width="11px" height="12px" preserveAspectRatio="xMinYMin meet" x="13" y="-180.7"/>
<text text-anchor="start" x="28" y="-170.8" font-family="Helvetica,sans-Serif" font-size="11.00" fill="#000000">CHEMISTRY_ID</text>
<polygon fill="none" stroke="#000000" points="8,-141.7 8,-163.7 240,-163.7 240,-141.7 8,-141.7"/>
<image xlink:href="../../images/foreignKeys.png" width="11px" height="12px" preserveAspectRatio="xMinYMin meet" x="13" y="-158.7"/>
<text text-anchor="start" x="28" y="-148.8" font-family="Helvetica,sans-Serif" font-size="11.00" fill="#000000">REGISTRATION_ID</text>
<polygon fill="none" stroke="#000000" points="8,-119.7 8,-141.7 240,-141.7 240,-119.7 8,-119.7"/>
<image xlink:href="../../images/foreignKeys.png" width="11px" height="12px" preserveAspectRatio="xMinYMin meet" x="13" y="-136.7"/>
<text text-anchor="start" x="28" y="-126.8" font-family="Helvetica,sans-Serif" font-size="11.00" fill="#000000">HEAD_PIECE_ID</text>
<polygon fill="none" stroke="#000000" points="8,-97.7 8,-119.7 240,-119.7 240,-97.7 8,-97.7"/>
<image xlink:href="../../images/foreignKeys.png" width="11px" height="12px" preserveAspectRatio="xMinYMin meet" x="13" y="-114.7"/>
<text text-anchor="start" x="28" y="-104.8" font-family="Helvetica,sans-Serif" font-size="11.00" fill="#000000">QUANTIFICATION_METHOD_ID</text>
<polygon fill="none" stroke="#000000" points="8,-75.7 8,-97.7 240,-97.7 240,-75.7 8,-75.7"/>
<image xlink:href="../../images/foreignKeys.png" width="11px" height="12px" preserveAspectRatio="xMinYMin meet" x="13" y="-92.7"/>
<text text-anchor="start" x="28" y="-82.8" font-family="Helvetica,sans-Serif" font-size="11.00" fill="#000000">DELIVERED_CONDITION_ID</text>
<polygon fill="none" stroke="#000000" points="8,-56.7 8,-75.7 240,-75.7 240,-56.7 8,-56.7"/>
<text text-anchor="start" x="11" y="-62.8" font-family="Helvetica,sans-Serif" font-size="11.00" fill="#000000">...</text>
<polygon fill="#ffffff" stroke="transparent" points="8,-37.7 8,-56.7 105,-56.7 105,-37.7 8,-37.7"/>
<polygon fill="none" stroke="#000000" points="8,-37.7 8,-56.7 105,-56.7 105,-37.7 8,-37.7"/>
<text text-anchor="start" x="11" y="-43.8" font-family="Helvetica,sans-Serif" font-size="11.00" fill="#000000">&lt; 12</text>
<polygon fill="#ffffff" stroke="transparent" points="105,-37.7 105,-56.7 184,-56.7 184,-37.7 105,-37.7"/>
<polygon fill="none" stroke="#000000" points="105,-37.7 105,-56.7 184,-56.7 184,-37.7 105,-37.7"/>
<text text-anchor="start" x="142.4956" y="-43.8" font-family="Helvetica,sans-Serif" font-size="11.00" fill="#000000">21 rows</text>
<polygon fill="#ffffff" stroke="transparent" points="184,-37.7 184,-56.7 240,-56.7 240,-37.7 184,-37.7"/>
<polygon fill="none" stroke="#000000" points="184,-37.7 184,-56.7 240,-56.7 240,-37.7 184,-37.7"/>
<text text-anchor="start" x="221.4053" y="-43.8" font-family="Helvetica,sans-Serif" font-size="11.00" fill="#000000">2 &gt;</text>
</a>
</g>
</g>
<!-- TRACER_SYNTHESIS_REQUESTS_REFERENCES&#45;&gt;TRACER_SYNTHESIS_REQUESTS -->
<g id="edge2" class="edge">
<title>TRACER_SYNTHESIS_REQUESTS_REFERENCES:w&#45;&gt;TRACER_SYNTHESIS_REQUESTS:e</title>
<path fill="none" stroke="#000000" d="M277.0468,-397.9012C262.161,-385.0281 266.3017,-350.7 240,-350.7"/>
<polygon fill="#000000" stroke="#000000" points="283.4349,-400.0982 289.8292,-406.1043 287.2175,-401.3991 291,-402.7 291,-402.7 291,-402.7 287.2175,-401.3991 292.1708,-399.2957 283.4349,-400.0982 283.4349,-400.0982"/>
<ellipse fill="none" stroke="#000000" cx="280.4089" cy="-399.0574" rx="3.2" ry="3.2"/>
</g>
</g>
</svg>
