<?xml version="1.0" encoding="UTF-8" standalone="no"?>
<!DOCTYPE svg PUBLIC "-//W3C//DTD SVG 1.1//EN"
 "http://www.w3.org/Graphics/SVG/1.1/DTD/svg11.dtd">
<!-- Generated by graphviz version 2.40.1 (20161225.0304)
 -->
<!-- Title: oneDegreeRelationshipsDiagram Pages: 1 -->
<svg width="778pt" height="385pt"
 viewBox="0.00 0.00 778.00 384.70" xmlns="http://www.w3.org/2000/svg" xmlns:xlink="http://www.w3.org/1999/xlink">
<g id="graph0" class="graph" transform="scale(1 1) rotate(0) translate(4 380.7)">
<title>oneDegreeRelationshipsDiagram</title>
<polygon fill="#ffffff" stroke="transparent" points="-4,4 -4,-380.7 774,-380.7 774,4 -4,4"/>
<text text-anchor="middle" x="72.4936" y="-7.3" font-family="Helvetica,sans-Serif" font-size="11.00" fill="#000000">Generated by SchemaSpy</text>
<!-- TRACER_LIGANDS_ISOFORM_DOMAINS -->
<g id="node1" class="node">
<title>TRACER_LIGANDS_ISOFORM_DOMAINS</title>
<g id="a_node1"><a xlink:href="../../tables/TRACER_LIGANDS_ISOFORM_DOMAINS.html" xlink:title="TRACER_LIGANDS_ISOFORM_DOMAINS" target="_top">
<polygon fill="#ffffff" stroke="transparent" points="308,-172.7 308,-372.7 762,-372.7 762,-172.7 308,-172.7"/>
<polygon fill="#f5f5f5" stroke="transparent" points="310,-347.7 310,-370.7 760,-370.7 760,-347.7 310,-347.7"/>
<polygon fill="none" stroke="#000000" points="310,-347.7 310,-370.7 760,-370.7 760,-347.7 310,-347.7"/>
<text text-anchor="start" x="315" y="-356.8" font-family="Helvetica,sans-Serif" font-weight="bold" font-size="11.00" fill="#000000">TRACER_LIGANDS_ISOFORM_DOMAINS</text>
<text text-anchor="start" x="725.0437" y="-355.8" font-family="Helvetica,sans-Serif" font-size="11.00" fill="#000000">[table]</text>
<polygon fill="none" stroke="#000000" points="310,-325.7 310,-347.7 589,-347.7 589,-325.7 310,-325.7"/>
<image xlink:href="../../images/primaryKeys.png" width="11px" height="12px" preserveAspectRatio="xMinYMin meet" x="315" y="-342.7"/>
<text text-anchor="start" x="330" y="-332.8" font-family="Helvetica,sans-Serif" font-size="11.00" fill="#000000">ID</text>
<polygon fill="none" stroke="#000000" points="589,-325.7 589,-347.7 760,-347.7 760,-325.7 589,-325.7"/>
<text text-anchor="start" x="592" y="-333.4" font-family="Helvetica,sans-Serif" font-size="11.00" fill="#000000">number[19]</text>
<polygon fill="none" stroke="#000000" points="310,-303.7 310,-325.7 589,-325.7 589,-303.7 310,-303.7"/>
<text text-anchor="start" x="330" y="-310.8" font-family="Helvetica,sans-Serif" font-size="11.00" fill="#000000">CREATED_AT</text>
<polygon fill="none" stroke="#000000" points="589,-303.7 589,-325.7 760,-325.7 760,-303.7 589,-303.7"/>
<text text-anchor="start" x="591.9896" y="-311.4" font-family="Helvetica,sans-Serif" font-size="11.00" fill="#000000">timestamp(6) with time zone[13,6]</text>
<polygon fill="none" stroke="#000000" points="310,-281.7 310,-303.7 589,-303.7 589,-281.7 310,-281.7"/>
<text text-anchor="start" x="330" y="-288.8" font-family="Helvetica,sans-Serif" font-size="11.00" fill="#000000">CREATED_BY</text>
<polygon fill="none" stroke="#000000" points="589,-281.7 589,-303.7 760,-303.7 760,-281.7 589,-281.7"/>
<text text-anchor="start" x="592" y="-289.4" font-family="Helvetica,sans-Serif" font-size="11.00" fill="#000000">number[19]</text>
<polygon fill="none" stroke="#000000" points="310,-259.7 310,-281.7 589,-281.7 589,-259.7 310,-259.7"/>
<text text-anchor="start" x="330" y="-266.8" font-family="Helvetica,sans-Serif" font-size="11.00" fill="#000000">UPDATED_AT</text>
<polygon fill="none" stroke="#000000" points="589,-259.7 589,-281.7 760,-281.7 760,-259.7 589,-259.7"/>
<text text-anchor="start" x="591.9896" y="-267.4" font-family="Helvetica,sans-Serif" font-size="11.00" fill="#000000">timestamp(6) with time zone[13,6]</text>
<polygon fill="none" stroke="#000000" points="310,-237.7 310,-259.7 589,-259.7 589,-237.7 310,-237.7"/>
<text text-anchor="start" x="330" y="-244.8" font-family="Helvetica,sans-Serif" font-size="11.00" fill="#000000">UPDATED_BY</text>
<polygon fill="none" stroke="#000000" points="589,-237.7 589,-259.7 760,-259.7 760,-237.7 589,-237.7"/>
<text text-anchor="start" x="592" y="-245.4" font-family="Helvetica,sans-Serif" font-size="11.00" fill="#000000">number[19]</text>
<polygon fill="none" stroke="#000000" points="310,-215.7 310,-237.7 589,-237.7 589,-215.7 310,-215.7"/>
<image xlink:href="../../images/primaryKeys.png" width="11px" height="12px" preserveAspectRatio="xMinYMin meet" x="315" y="-232.7"/>
<text text-anchor="start" x="330" y="-222.8" font-family="Helvetica,sans-Serif" font-size="11.00" fill="#000000">ISOFORM_DOMAIN_ID</text>
<polygon fill="none" stroke="#000000" points="589,-215.7 589,-237.7 760,-237.7 760,-215.7 589,-215.7"/>
<text text-anchor="start" x="592" y="-223.4" font-family="Helvetica,sans-Serif" font-size="11.00" fill="#000000">number[19]</text>
<polygon fill="none" stroke="#000000" points="310,-193.7 310,-215.7 589,-215.7 589,-193.7 310,-193.7"/>
<image xlink:href="../../images/primaryKeys.png" width="11px" height="12px" preserveAspectRatio="xMinYMin meet" x="315" y="-210.7"/>
<text text-anchor="start" x="330" y="-200.8" font-family="Helvetica,sans-Serif" font-size="11.00" fill="#000000">TRACER_LIGAND_ID</text>
<polygon fill="none" stroke="#000000" points="589,-193.7 589,-215.7 760,-215.7 760,-193.7 589,-193.7"/>
<text text-anchor="start" x="592" y="-201.4" font-family="Helvetica,sans-Serif" font-size="11.00" fill="#000000">number[19]</text>
<polygon fill="#ffffff" stroke="transparent" points="310,-174.7 310,-193.7 438,-193.7 438,-174.7 310,-174.7"/>
<polygon fill="none" stroke="#000000" points="310,-174.7 310,-193.7 438,-193.7 438,-174.7 310,-174.7"/>
<text text-anchor="start" x="313" y="-180.8" font-family="Helvetica,sans-Serif" font-size="11.00" fill="#000000">&lt; 2</text>
<polygon fill="#ffffff" stroke="transparent" points="438,-174.7 438,-193.7 589,-193.7 589,-174.7 438,-174.7"/>
<polygon fill="none" stroke="#000000" points="438,-174.7 438,-193.7 589,-193.7 589,-174.7 438,-174.7"/>
<text text-anchor="start" x="547.4956" y="-180.8" font-family="Helvetica,sans-Serif" font-size="11.00" fill="#000000">75 rows</text>
<polygon fill="#ffffff" stroke="transparent" points="589,-174.7 589,-193.7 760,-193.7 760,-174.7 589,-174.7"/>
<polygon fill="none" stroke="#000000" points="589,-174.7 589,-193.7 760,-193.7 760,-174.7 589,-174.7"/>
<text text-anchor="start" x="741.4053" y="-180.8" font-family="Helvetica,sans-Serif" font-size="11.00" fill="#000000">0 &gt;</text>
<polygon fill="none" stroke="#000000" stroke-width="2" points="309,-173.7 309,-371.7 761,-371.7 761,-173.7 309,-173.7"/>
</a>
</g>
</g>
<!-- ISOFORM_DOMAINS -->
<g id="node2" class="node">
<title>ISOFORM_DOMAINS</title>
<g id="a_node2"><a xlink:href="../../tables/ISOFORM_DOMAINS.html" xlink:title="ISOFORM_DOMAINS" target="_top">
<polygon fill="#ffffff" stroke="transparent" points="56.5,-208.2 56.5,-313.2 210.5,-313.2 210.5,-208.2 56.5,-208.2"/>
<polygon fill="#f5f5f5" stroke="transparent" points="56.5,-289.7 56.5,-312.7 210.5,-312.7 210.5,-289.7 56.5,-289.7"/>
<polygon fill="none" stroke="#000000" points="56.5,-289.7 56.5,-312.7 210.5,-312.7 210.5,-289.7 56.5,-289.7"/>
<text text-anchor="start" x="61.5" y="-298.8" font-family="Helvetica,sans-Serif" font-weight="bold" font-size="11.00" fill="#000000">ISOFORM_DOMAINS</text>
<text text-anchor="start" x="175.5437" y="-297.8" font-family="Helvetica,sans-Serif" font-size="11.00" fill="#000000">[table]</text>
<polygon fill="none" stroke="#000000" points="56.5,-267.7 56.5,-289.7 210.5,-289.7 210.5,-267.7 56.5,-267.7"/>
<image xlink:href="../../images/primaryKeys.png" width="11px" height="12px" preserveAspectRatio="xMinYMin meet" x="61.5" y="-284.7"/>
<text text-anchor="start" x="76.5" y="-274.8" font-family="Helvetica,sans-Serif" font-size="11.00" fill="#000000">ID</text>
<polygon fill="none" stroke="#000000" points="56.5,-245.7 56.5,-267.7 210.5,-267.7 210.5,-245.7 56.5,-245.7"/>
<image xlink:href="../../images/foreignKeys.png" width="11px" height="12px" preserveAspectRatio="xMinYMin meet" x="61.5" y="-262.7"/>
<text text-anchor="start" x="76.5" y="-252.8" font-family="Helvetica,sans-Serif" font-size="11.00" fill="#000000">ISOFORM_ID</text>
<polygon fill="none" stroke="#000000" points="56.5,-226.7 56.5,-245.7 210.5,-245.7 210.5,-226.7 56.5,-226.7"/>
<text text-anchor="start" x="59.5" y="-232.8" font-family="Helvetica,sans-Serif" font-size="11.00" fill="#000000">...</text>
<polygon fill="#ffffff" stroke="transparent" points="56.5,-207.7 56.5,-226.7 108.5,-226.7 108.5,-207.7 56.5,-207.7"/>
<polygon fill="none" stroke="#000000" points="56.5,-207.7 56.5,-226.7 108.5,-226.7 108.5,-207.7 56.5,-207.7"/>
<text text-anchor="start" x="59.5" y="-213.8" font-family="Helvetica,sans-Serif" font-size="11.00" fill="#000000">&lt; 1</text>
<polygon fill="#ffffff" stroke="transparent" points="108.5,-207.7 108.5,-226.7 173.5,-226.7 173.5,-207.7 108.5,-207.7"/>
<polygon fill="none" stroke="#000000" points="108.5,-207.7 108.5,-226.7 173.5,-226.7 173.5,-207.7 108.5,-207.7"/>
<text text-anchor="start" x="125.8807" y="-213.8" font-family="Helvetica,sans-Serif" font-size="11.00" fill="#000000">727 rows</text>
<polygon fill="#ffffff" stroke="transparent" points="173.5,-207.7 173.5,-226.7 210.5,-226.7 210.5,-207.7 173.5,-207.7"/>
<polygon fill="none" stroke="#000000" points="173.5,-207.7 173.5,-226.7 210.5,-226.7 210.5,-207.7 173.5,-207.7"/>
<text text-anchor="start" x="191.9053" y="-213.8" font-family="Helvetica,sans-Serif" font-size="11.00" fill="#000000">5 &gt;</text>
</a>
</g>
</g>
<!-- TRACER_LIGANDS_ISOFORM_DOMAINS&#45;&gt;ISOFORM_DOMAINS -->
<g id="edge1" class="edge">
<title>TRACER_LIGANDS_ISOFORM_DOMAINS:w&#45;&gt;ISOFORM_DOMAINS:e</title>
<path fill="none" stroke="#000000" d="M295.2975,-228.4301C259.5668,-237.4529 254.9397,-278.7 210.5,-278.7"/>
<polygon fill="#000000" stroke="#000000" points="302.0548,-227.635 310.4208,-230.2753 306.0274,-227.1675 310,-226.7 310,-226.7 310,-226.7 306.0274,-227.1675 309.5792,-223.1247 302.0548,-227.635 302.0548,-227.635"/>
<ellipse fill="none" stroke="#000000" cx="298.8767" cy="-228.009" rx="3.2" ry="3.2"/>
</g>
<!-- TRACER_LIGANDS -->
<g id="node3" class="node">
<title>TRACER_LIGANDS</title>
<g id="a_node3"><a xlink:href="../../tables/TRACER_LIGANDS.html" xlink:title="TRACER_LIGANDS" target="_top">
<polygon fill="#ffffff" stroke="transparent" points="8,-38.2 8,-187.2 259,-187.2 259,-38.2 8,-38.2"/>
<polygon fill="#f5f5f5" stroke="transparent" points="8.5,-163.7 8.5,-186.7 259.5,-186.7 259.5,-163.7 8.5,-163.7"/>
<polygon fill="none" stroke="#000000" points="8.5,-163.7 8.5,-186.7 259.5,-186.7 259.5,-163.7 8.5,-163.7"/>
<text text-anchor="start" x="13.5" y="-172.8" font-family="Helvetica,sans-Serif" font-weight="bold" font-size="11.00" fill="#000000">TRACER_LIGANDS</text>
<text text-anchor="start" x="224.5437" y="-171.8" font-family="Helvetica,sans-Serif" font-size="11.00" fill="#000000">[table]</text>
<polygon fill="none" stroke="#000000" points="8.5,-141.7 8.5,-163.7 259.5,-163.7 259.5,-141.7 8.5,-141.7"/>
<image xlink:href="../../images/primaryKeys.png" width="11px" height="12px" preserveAspectRatio="xMinYMin meet" x="13.5" y="-158.7"/>
<text text-anchor="start" x="28.5" y="-148.8" font-family="Helvetica,sans-Serif" font-size="11.00" fill="#000000">ID</text>
<polygon fill="none" stroke="#000000" points="8.5,-119.7 8.5,-141.7 259.5,-141.7 259.5,-119.7 8.5,-119.7"/>
<image xlink:href="../../images/foreignKeys.png" width="11px" height="12px" preserveAspectRatio="xMinYMin meet" x="13.5" y="-136.7"/>
<text text-anchor="start" x="28.5" y="-126.8" font-family="Helvetica,sans-Serif" font-size="11.00" fill="#000000">TYPE_ID</text>
<polygon fill="none" stroke="#000000" points="8.5,-97.7 8.5,-119.7 259.5,-119.7 259.5,-97.7 8.5,-97.7"/>
<image xlink:href="../../images/foreignKeys.png" width="11px" height="12px" preserveAspectRatio="xMinYMin meet" x="13.5" y="-114.7"/>
<text text-anchor="start" x="28.5" y="-104.8" font-family="Helvetica,sans-Serif" font-size="11.00" fill="#000000">TRACER_SYNTHESIS_SCIENTIST_ID</text>
<polygon fill="none" stroke="#000000" points="8.5,-75.7 8.5,-97.7 259.5,-97.7 259.5,-75.7 8.5,-75.7"/>
<image xlink:href="../../images/foreignKeys.png" width="11px" height="12px" preserveAspectRatio="xMinYMin meet" x="13.5" y="-92.7"/>
<text text-anchor="start" x="28.5" y="-82.8" font-family="Helvetica,sans-Serif" font-size="11.00" fill="#000000">DNA_ATTACHMENT_SITE_ID</text>
<polygon fill="none" stroke="#000000" points="8.5,-56.7 8.5,-75.7 259.5,-75.7 259.5,-56.7 8.5,-56.7"/>
<text text-anchor="start" x="11.5" y="-62.8" font-family="Helvetica,sans-Serif" font-size="11.00" fill="#000000">...</text>
<polygon fill="#ffffff" stroke="transparent" points="8.5,-37.7 8.5,-56.7 108.5,-56.7 108.5,-37.7 8.5,-37.7"/>
<polygon fill="none" stroke="#000000" points="8.5,-37.7 8.5,-56.7 108.5,-56.7 108.5,-37.7 8.5,-37.7"/>
<text text-anchor="start" x="11.5" y="-43.8" font-family="Helvetica,sans-Serif" font-size="11.00" fill="#000000">&lt; 3</text>
<polygon fill="#ffffff" stroke="transparent" points="108.5,-37.7 108.5,-56.7 198.5,-56.7 198.5,-37.7 108.5,-37.7"/>
<polygon fill="none" stroke="#000000" points="108.5,-37.7 108.5,-56.7 198.5,-56.7 198.5,-37.7 108.5,-37.7"/>
<text text-anchor="start" x="150.8807" y="-43.8" font-family="Helvetica,sans-Serif" font-size="11.00" fill="#000000">416 rows</text>
<polygon fill="#ffffff" stroke="transparent" points="198.5,-37.7 198.5,-56.7 259.5,-56.7 259.5,-37.7 198.5,-37.7"/>
<polygon fill="none" stroke="#000000" points="198.5,-37.7 198.5,-56.7 259.5,-56.7 259.5,-37.7 198.5,-37.7"/>
<text text-anchor="start" x="240.9053" y="-43.8" font-family="Helvetica,sans-Serif" font-size="11.00" fill="#000000">7 &gt;</text>
</a>
</g>
</g>
<!-- TRACER_LIGANDS_ISOFORM_DOMAINS&#45;&gt;TRACER_LIGANDS -->
<g id="edge2" class="edge">
<title>TRACER_LIGANDS_ISOFORM_DOMAINS:w&#45;&gt;TRACER_LIGANDS:e</title>
<path fill="none" stroke="#000000" d="M296.1372,-199.9012C281.3861,-187.0281 285.6756,-152.7 259.5,-152.7"/>
<polygon fill="#000000" stroke="#000000" points="302.4401,-202.083 308.8223,-208.1019 306.2201,-203.3915 310,-204.7 310,-204.7 310,-204.7 306.2201,-203.3915 311.1777,-201.2981 302.4401,-202.083 302.4401,-202.083"/>
<ellipse fill="none" stroke="#000000" cx="299.4162" cy="-201.0362" rx="3.2" ry="3.2"/>
</g>
</g>
</svg>
