<?xml version="1.0" encoding="UTF-8" standalone="no"?>
<!DOCTYPE svg PUBLIC "-//W3C//DTD SVG 1.1//EN"
 "http://www.w3.org/Graphics/SVG/1.1/DTD/svg11.dtd">
<!-- Generated by graphviz version 2.40.1 (20161225.0304)
 -->
<!-- Title: oneDegreeRelationshipsDiagram Pages: 1 -->
<svg width="1054pt" height="1153pt"
 viewBox="0.00 0.00 1054.00 1153.20" xmlns="http://www.w3.org/2000/svg" xmlns:xlink="http://www.w3.org/1999/xlink">
<g id="graph0" class="graph" transform="scale(1 1) rotate(0) translate(4 1149.2)">
<title>oneDegreeRelationshipsDiagram</title>
<polygon fill="#ffffff" stroke="transparent" points="-4,4 -4,-1149.2 1050,-1149.2 1050,4 -4,4"/>
<text text-anchor="middle" x="72.4936" y="-7.3" font-family="Helvetica,sans-Serif" font-size="11.00" fill="#000000">Generated by SchemaSpy</text>
<!-- DNA_ATTACHMENT_SITES_REFERENCES -->
<g id="node1" class="node">
<title>DNA_ATTACHMENT_SITES_REFERENCES</title>
<g id="a_node1"><a xlink:href="../../tables/DNA_ATTACHMENT_SITES_REFERENCES.html" xlink:title="DNA_ATTACHMENT_SITES_REFERENCES" target="_top">
<polygon fill="#ffffff" stroke="transparent" points="738.5,-992.2 738.5,-1141.2 1023.5,-1141.2 1023.5,-992.2 738.5,-992.2"/>
<polygon fill="#f5f5f5" stroke="transparent" points="739,-1117.7 739,-1140.7 1024,-1140.7 1024,-1117.7 739,-1117.7"/>
<polygon fill="none" stroke="#000000" points="739,-1117.7 739,-1140.7 1024,-1140.7 1024,-1117.7 739,-1117.7"/>
<text text-anchor="start" x="744" y="-1126.8" font-family="Helvetica,sans-Serif" font-weight="bold" font-size="11.00" fill="#000000">DNA_ATTACHMENT_SITES_REFERENCES</text>
<text text-anchor="start" x="989.0437" y="-1125.8" font-family="Helvetica,sans-Serif" font-size="11.00" fill="#000000">[table]</text>
<polygon fill="none" stroke="#000000" points="739,-1095.7 739,-1117.7 1024,-1117.7 1024,-1095.7 739,-1095.7"/>
<image xlink:href="../../images/primaryKeys.png" width="11px" height="12px" preserveAspectRatio="xMinYMin meet" x="744" y="-1112.7"/>
<text text-anchor="start" x="759" y="-1102.8" font-family="Helvetica,sans-Serif" font-size="11.00" fill="#000000">ID</text>
<polygon fill="none" stroke="#000000" points="739,-1073.7 739,-1095.7 1024,-1095.7 1024,-1073.7 739,-1073.7"/>
<image xlink:href="../../images/foreignKeys.png" width="11px" height="12px" preserveAspectRatio="xMinYMin meet" x="744" y="-1090.7"/>
<text text-anchor="start" x="759" y="-1080.8" font-family="Helvetica,sans-Serif" font-size="11.00" fill="#000000">DNA_ATTACHMENT_SITE_ID</text>
<polygon fill="none" stroke="#000000" points="739,-1051.7 739,-1073.7 1024,-1073.7 1024,-1051.7 739,-1051.7"/>
<image xlink:href="../../images/foreignKeys.png" width="11px" height="12px" preserveAspectRatio="xMinYMin meet" x="744" y="-1068.7"/>
<text text-anchor="start" x="759" y="-1058.8" font-family="Helvetica,sans-Serif" font-size="11.00" fill="#000000">REFERENCE_ID</text>
<polygon fill="none" stroke="#000000" points="739,-1029.7 739,-1051.7 1024,-1051.7 1024,-1029.7 739,-1029.7"/>
<image xlink:href="../../images/foreignKeys.png" width="11px" height="12px" preserveAspectRatio="xMinYMin meet" x="744" y="-1046.7"/>
<text text-anchor="start" x="759" y="-1036.8" font-family="Helvetica,sans-Serif" font-size="11.00" fill="#000000">TRACER_LIGAND_ID</text>
<polygon fill="none" stroke="#000000" points="739,-1010.7 739,-1029.7 1024,-1029.7 1024,-1010.7 739,-1010.7"/>
<text text-anchor="start" x="742" y="-1016.8" font-family="Helvetica,sans-Serif" font-size="11.00" fill="#000000">...</text>
<polygon fill="#ffffff" stroke="transparent" points="739,-991.7 739,-1010.7 864,-1010.7 864,-991.7 739,-991.7"/>
<polygon fill="none" stroke="#000000" points="739,-991.7 739,-1010.7 864,-1010.7 864,-991.7 739,-991.7"/>
<text text-anchor="start" x="742" y="-997.8" font-family="Helvetica,sans-Serif" font-size="11.00" fill="#000000">&lt; 3</text>
<polygon fill="#ffffff" stroke="transparent" points="864,-991.7 864,-1010.7 960,-1010.7 960,-991.7 864,-991.7"/>
<polygon fill="none" stroke="#000000" points="864,-991.7 864,-1010.7 960,-1010.7 960,-991.7 864,-991.7"/>
<text text-anchor="start" x="918.4956" y="-997.8" font-family="Helvetica,sans-Serif" font-size="11.00" fill="#000000">29 rows</text>
<polygon fill="#ffffff" stroke="transparent" points="960,-991.7 960,-1010.7 1024,-1010.7 1024,-991.7 960,-991.7"/>
<polygon fill="none" stroke="#000000" points="960,-991.7 960,-1010.7 1024,-1010.7 1024,-991.7 960,-991.7"/>
<text text-anchor="start" x="1014.8862" y="-997.8" font-family="Helvetica,sans-Serif" font-size="11.00" fill="#000000"> &#160;</text>
</a>
</g>
</g>
<!-- DNA_ATTACHMENT_SITES -->
<g id="node2" class="node">
<title>DNA_ATTACHMENT_SITES</title>
<g id="a_node2"><a xlink:href="../../tables/DNA_ATTACHMENT_SITES.html" xlink:title="DNA_ATTACHMENT_SITES" target="_top">
<polygon fill="#ffffff" stroke="transparent" points="8,-295.2 8,-378.2 200,-378.2 200,-295.2 8,-295.2"/>
<polygon fill="#f5f5f5" stroke="transparent" points="8,-354.7 8,-377.7 200,-377.7 200,-354.7 8,-354.7"/>
<polygon fill="none" stroke="#000000" points="8,-354.7 8,-377.7 200,-377.7 200,-354.7 8,-354.7"/>
<text text-anchor="start" x="13" y="-363.8" font-family="Helvetica,sans-Serif" font-weight="bold" font-size="11.00" fill="#000000">DNA_ATTACHMENT_SITES</text>
<text text-anchor="start" x="165.0437" y="-362.8" font-family="Helvetica,sans-Serif" font-size="11.00" fill="#000000">[table]</text>
<polygon fill="none" stroke="#000000" points="8,-332.7 8,-354.7 200,-354.7 200,-332.7 8,-332.7"/>
<image xlink:href="../../images/primaryKeys.png" width="11px" height="12px" preserveAspectRatio="xMinYMin meet" x="13" y="-349.7"/>
<text text-anchor="start" x="28" y="-339.8" font-family="Helvetica,sans-Serif" font-size="11.00" fill="#000000">ID</text>
<polygon fill="none" stroke="#000000" points="8,-313.7 8,-332.7 200,-332.7 200,-313.7 8,-313.7"/>
<text text-anchor="start" x="11" y="-319.8" font-family="Helvetica,sans-Serif" font-size="11.00" fill="#000000">...</text>
<polygon fill="#ffffff" stroke="transparent" points="8,-294.7 8,-313.7 80,-313.7 80,-294.7 8,-294.7"/>
<polygon fill="none" stroke="#000000" points="8,-294.7 8,-313.7 80,-313.7 80,-294.7 8,-294.7"/>
<text text-anchor="start" x="11" y="-300.8" font-family="Helvetica,sans-Serif" font-size="11.00" fill="#000000"> &#160;</text>
<polygon fill="#ffffff" stroke="transparent" points="80,-294.7 80,-313.7 148,-313.7 148,-294.7 80,-294.7"/>
<polygon fill="none" stroke="#000000" points="80,-294.7 80,-313.7 148,-313.7 148,-294.7 80,-294.7"/>
<text text-anchor="start" x="112.6105" y="-300.8" font-family="Helvetica,sans-Serif" font-size="11.00" fill="#000000">7 rows</text>
<polygon fill="#ffffff" stroke="transparent" points="148,-294.7 148,-313.7 200,-313.7 200,-294.7 148,-294.7"/>
<polygon fill="none" stroke="#000000" points="148,-294.7 148,-313.7 200,-313.7 200,-294.7 148,-294.7"/>
<text text-anchor="start" x="181.4053" y="-300.8" font-family="Helvetica,sans-Serif" font-size="11.00" fill="#000000">2 &gt;</text>
</a>
</g>
</g>
<!-- DNA_ATTACHMENT_SITES_REFERENCES&#45;&gt;DNA_ATTACHMENT_SITES -->
<g id="edge1" class="edge">
<title>DNA_ATTACHMENT_SITES_REFERENCES:w&#45;&gt;DNA_ATTACHMENT_SITES:e</title>
<path fill="none" stroke="#000000" d="M724.431,-1084.5822C463.6645,-1080.3134 374.5461,-960.0821 241,-728.7 197.9906,-654.1818 286.0393,-343.7 200,-343.7"/>
<polygon fill="#000000" stroke="#000000" points="731.0003,-1084.6352 738.9709,-1088.2999 735.0001,-1084.6676 739,-1084.7 739,-1084.7 739,-1084.7 735.0001,-1084.6676 739.0291,-1081.1001 731.0003,-1084.6352 731.0003,-1084.6352"/>
<ellipse fill="none" stroke="#000000" cx="727.8004" cy="-1084.6093" rx="3.2" ry="3.2"/>
</g>
<!-- TRACER_LIGANDS -->
<g id="node3" class="node">
<title>TRACER_LIGANDS</title>
<g id="a_node3"><a xlink:href="../../tables/TRACER_LIGANDS.html" xlink:title="TRACER_LIGANDS" target="_top">
<polygon fill="#ffffff" stroke="transparent" points="249,-341.7 249,-717.7 675,-717.7 675,-341.7 249,-341.7"/>
<polygon fill="#f5f5f5" stroke="transparent" points="251,-692.7 251,-715.7 673,-715.7 673,-692.7 251,-692.7"/>
<polygon fill="none" stroke="#000000" points="251,-692.7 251,-715.7 673,-715.7 673,-692.7 251,-692.7"/>
<text text-anchor="start" x="256" y="-701.8" font-family="Helvetica,sans-Serif" font-weight="bold" font-size="11.00" fill="#000000">TRACER_LIGANDS</text>
<text text-anchor="start" x="638.0437" y="-700.8" font-family="Helvetica,sans-Serif" font-size="11.00" fill="#000000">[table]</text>
<polygon fill="none" stroke="#000000" points="251,-670.7 251,-692.7 502,-692.7 502,-670.7 251,-670.7"/>
<image xlink:href="../../images/primaryKeys.png" width="11px" height="12px" preserveAspectRatio="xMinYMin meet" x="256" y="-687.7"/>
<text text-anchor="start" x="271" y="-677.8" font-family="Helvetica,sans-Serif" font-size="11.00" fill="#000000">ID</text>
<polygon fill="none" stroke="#000000" points="502,-670.7 502,-692.7 673,-692.7 673,-670.7 502,-670.7"/>
<text text-anchor="start" x="505" y="-678.4" font-family="Helvetica,sans-Serif" font-size="11.00" fill="#000000">number[19]</text>
<polygon fill="none" stroke="#000000" points="251,-648.7 251,-670.7 502,-670.7 502,-648.7 251,-648.7"/>
<text text-anchor="start" x="271" y="-655.8" font-family="Helvetica,sans-Serif" font-size="11.00" fill="#000000">CREATED_AT</text>
<polygon fill="none" stroke="#000000" points="502,-648.7 502,-670.7 673,-670.7 673,-648.7 502,-648.7"/>
<text text-anchor="start" x="504.9896" y="-656.4" font-family="Helvetica,sans-Serif" font-size="11.00" fill="#000000">timestamp(6) with time zone[13,6]</text>
<polygon fill="none" stroke="#000000" points="251,-626.7 251,-648.7 502,-648.7 502,-626.7 251,-626.7"/>
<text text-anchor="start" x="271" y="-633.8" font-family="Helvetica,sans-Serif" font-size="11.00" fill="#000000">CREATED_BY</text>
<polygon fill="none" stroke="#000000" points="502,-626.7 502,-648.7 673,-648.7 673,-626.7 502,-626.7"/>
<text text-anchor="start" x="505" y="-634.4" font-family="Helvetica,sans-Serif" font-size="11.00" fill="#000000">number[19]</text>
<polygon fill="none" stroke="#000000" points="251,-604.7 251,-626.7 502,-626.7 502,-604.7 251,-604.7"/>
<text text-anchor="start" x="271" y="-611.8" font-family="Helvetica,sans-Serif" font-size="11.00" fill="#000000">UPDATED_AT</text>
<polygon fill="none" stroke="#000000" points="502,-604.7 502,-626.7 673,-626.7 673,-604.7 502,-604.7"/>
<text text-anchor="start" x="504.9896" y="-612.4" font-family="Helvetica,sans-Serif" font-size="11.00" fill="#000000">timestamp(6) with time zone[13,6]</text>
<polygon fill="none" stroke="#000000" points="251,-582.7 251,-604.7 502,-604.7 502,-582.7 251,-582.7"/>
<text text-anchor="start" x="271" y="-589.8" font-family="Helvetica,sans-Serif" font-size="11.00" fill="#000000">UPDATED_BY</text>
<polygon fill="none" stroke="#000000" points="502,-582.7 502,-604.7 673,-604.7 673,-582.7 502,-582.7"/>
<text text-anchor="start" x="505" y="-590.4" font-family="Helvetica,sans-Serif" font-size="11.00" fill="#000000">number[19]</text>
<polygon fill="none" stroke="#000000" points="251,-560.7 251,-582.7 502,-582.7 502,-560.7 251,-560.7"/>
<text text-anchor="start" x="271" y="-567.8" font-family="Helvetica,sans-Serif" font-size="11.00" fill="#000000">NURIX_ID</text>
<polygon fill="none" stroke="#000000" points="502,-560.7 502,-582.7 673,-582.7 673,-560.7 502,-560.7"/>
<text text-anchor="start" x="505" y="-568.4" font-family="Helvetica,sans-Serif" font-size="11.00" fill="#000000">varchar2[30]</text>
<polygon fill="none" stroke="#000000" points="251,-538.7 251,-560.7 502,-560.7 502,-538.7 251,-538.7"/>
<text text-anchor="start" x="271" y="-545.8" font-family="Helvetica,sans-Serif" font-size="11.00" fill="#000000">ALIAS</text>
<polygon fill="none" stroke="#000000" points="502,-538.7 502,-560.7 673,-560.7 673,-538.7 502,-538.7"/>
<text text-anchor="start" x="505" y="-546.4" font-family="Helvetica,sans-Serif" font-size="11.00" fill="#000000">varchar2[30]</text>
<polygon fill="none" stroke="#000000" points="251,-516.7 251,-538.7 502,-538.7 502,-516.7 251,-516.7"/>
<text text-anchor="start" x="271" y="-523.8" font-family="Helvetica,sans-Serif" font-size="11.00" fill="#000000">COMPOUND_TYPE</text>
<polygon fill="none" stroke="#000000" points="502,-516.7 502,-538.7 673,-538.7 673,-516.7 502,-516.7"/>
<text text-anchor="start" x="505" y="-524.4" font-family="Helvetica,sans-Serif" font-size="11.00" fill="#000000">varchar2[30]</text>
<polygon fill="none" stroke="#000000" points="251,-494.7 251,-516.7 502,-516.7 502,-494.7 251,-494.7"/>
<text text-anchor="start" x="271" y="-501.8" font-family="Helvetica,sans-Serif" font-size="11.00" fill="#000000">TRACER_REQUEST_STATUS</text>
<polygon fill="none" stroke="#000000" points="502,-494.7 502,-516.7 673,-516.7 673,-494.7 502,-494.7"/>
<text text-anchor="start" x="505" y="-502.4" font-family="Helvetica,sans-Serif" font-size="11.00" fill="#000000">varchar2[30]</text>
<polygon fill="none" stroke="#000000" points="251,-472.7 251,-494.7 502,-494.7 502,-472.7 251,-472.7"/>
<text text-anchor="start" x="271" y="-479.8" font-family="Helvetica,sans-Serif" font-size="11.00" fill="#000000">STRUCTURE_IMAGE_FILE_PATH</text>
<polygon fill="none" stroke="#000000" points="502,-472.7 502,-494.7 673,-494.7 673,-472.7 502,-472.7"/>
<text text-anchor="start" x="505" y="-480.4" font-family="Helvetica,sans-Serif" font-size="11.00" fill="#000000">varchar2[2000]</text>
<polygon fill="none" stroke="#000000" points="251,-450.7 251,-472.7 502,-472.7 502,-450.7 251,-450.7"/>
<text text-anchor="start" x="271" y="-457.8" font-family="Helvetica,sans-Serif" font-size="11.00" fill="#000000">QC_FILE_PATH</text>
<polygon fill="none" stroke="#000000" points="502,-450.7 502,-472.7 673,-472.7 673,-450.7 502,-450.7"/>
<text text-anchor="start" x="505" y="-458.4" font-family="Helvetica,sans-Serif" font-size="11.00" fill="#000000">varchar2[2000]</text>
<polygon fill="none" stroke="#000000" points="251,-428.7 251,-450.7 502,-450.7 502,-428.7 251,-428.7"/>
<image xlink:href="../../images/foreignKeys.png" width="11px" height="12px" preserveAspectRatio="xMinYMin meet" x="256" y="-445.7"/>
<text text-anchor="start" x="271" y="-435.8" font-family="Helvetica,sans-Serif" font-size="11.00" fill="#000000">TYPE_ID</text>
<polygon fill="none" stroke="#000000" points="502,-428.7 502,-450.7 673,-450.7 673,-428.7 502,-428.7"/>
<text text-anchor="start" x="505" y="-436.4" font-family="Helvetica,sans-Serif" font-size="11.00" fill="#000000">number[19]</text>
<polygon fill="none" stroke="#000000" points="251,-406.7 251,-428.7 502,-428.7 502,-406.7 251,-406.7"/>
<image xlink:href="../../images/foreignKeys.png" width="11px" height="12px" preserveAspectRatio="xMinYMin meet" x="256" y="-423.7"/>
<text text-anchor="start" x="271" y="-413.8" font-family="Helvetica,sans-Serif" font-size="11.00" fill="#000000">TRACER_SYNTHESIS_SCIENTIST_ID</text>
<polygon fill="none" stroke="#000000" points="502,-406.7 502,-428.7 673,-428.7 673,-406.7 502,-406.7"/>
<text text-anchor="start" x="505" y="-414.4" font-family="Helvetica,sans-Serif" font-size="11.00" fill="#000000">number[19]</text>
<polygon fill="none" stroke="#000000" points="251,-384.7 251,-406.7 502,-406.7 502,-384.7 251,-384.7"/>
<image xlink:href="../../images/foreignKeys.png" width="11px" height="12px" preserveAspectRatio="xMinYMin meet" x="256" y="-401.7"/>
<text text-anchor="start" x="271" y="-391.8" font-family="Helvetica,sans-Serif" font-size="11.00" fill="#000000">DNA_ATTACHMENT_SITE_ID</text>
<polygon fill="none" stroke="#000000" points="502,-384.7 502,-406.7 673,-406.7 673,-384.7 502,-384.7"/>
<text text-anchor="start" x="505" y="-392.4" font-family="Helvetica,sans-Serif" font-size="11.00" fill="#000000">number[19]</text>
<polygon fill="none" stroke="#000000" points="251,-362.7 251,-384.7 502,-384.7 502,-362.7 251,-362.7"/>
<text text-anchor="start" x="271" y="-369.8" font-family="Helvetica,sans-Serif" font-size="11.00" fill="#000000">SMILE_STRING</text>
<polygon fill="none" stroke="#000000" points="502,-362.7 502,-384.7 673,-384.7 673,-362.7 502,-362.7"/>
<text text-anchor="start" x="505" y="-370.4" font-family="Helvetica,sans-Serif" font-size="11.00" fill="#000000">clob[4000]</text>
<polygon fill="#ffffff" stroke="transparent" points="251,-343.7 251,-362.7 362,-362.7 362,-343.7 251,-343.7"/>
<polygon fill="none" stroke="#000000" points="251,-343.7 251,-362.7 362,-362.7 362,-343.7 251,-343.7"/>
<text text-anchor="start" x="254" y="-349.8" font-family="Helvetica,sans-Serif" font-size="11.00" fill="#000000">&lt; 3</text>
<polygon fill="#ffffff" stroke="transparent" points="362,-343.7 362,-362.7 502,-362.7 502,-343.7 362,-343.7"/>
<polygon fill="none" stroke="#000000" points="362,-343.7 362,-362.7 502,-362.7 502,-343.7 362,-343.7"/>
<text text-anchor="start" x="454.3807" y="-349.8" font-family="Helvetica,sans-Serif" font-size="11.00" fill="#000000">416 rows</text>
<polygon fill="#ffffff" stroke="transparent" points="502,-343.7 502,-362.7 673,-362.7 673,-343.7 502,-343.7"/>
<polygon fill="none" stroke="#000000" points="502,-343.7 502,-362.7 673,-362.7 673,-343.7 502,-343.7"/>
<text text-anchor="start" x="654.4053" y="-349.8" font-family="Helvetica,sans-Serif" font-size="11.00" fill="#000000">7 &gt;</text>
<polygon fill="none" stroke="#000000" stroke-width="2" points="250,-342.7 250,-716.7 674,-716.7 674,-342.7 250,-342.7"/>
</a>
</g>
</g>
<!-- DNA_ATTACHMENT_SITES_REFERENCES&#45;&gt;TRACER_LIGANDS -->
<g id="edge2" class="edge">
<title>DNA_ATTACHMENT_SITES_REFERENCES:w&#45;&gt;TRACER_LIGANDS:e</title>
<path fill="none" stroke="#000000" d="M725.0827,-1036.1609C669.8837,-994.6034 748.7282,-681.7 673,-681.7"/>
<polygon fill="#000000" stroke="#000000" points="731.3943,-1038.2194 737.8837,-1044.1226 735.1971,-1039.4597 739,-1040.7 739,-1040.7 739,-1040.7 735.1971,-1039.4597 740.1163,-1037.2774 731.3943,-1038.2194 731.3943,-1038.2194"/>
<ellipse fill="none" stroke="#000000" cx="728.352" cy="-1037.2271" rx="3.2" ry="3.2"/>
</g>
<!-- TRACER_LIGANDS&#45;&gt;DNA_ATTACHMENT_SITES -->
<g id="edge6" class="edge">
<title>TRACER_LIGANDS:w&#45;&gt;DNA_ATTACHMENT_SITES:e</title>
<path fill="none" stroke="#000000" d="M237.0468,-390.9012C222.161,-378.0281 226.3017,-343.7 200,-343.7"/>
<polygon fill="#000000" stroke="#000000" points="243.4349,-393.0982 249.8292,-399.1043 247.2175,-394.3991 251,-395.7 251,-395.7 251,-395.7 247.2175,-394.3991 252.1708,-392.2957 243.4349,-393.0982 243.4349,-393.0982"/>
<ellipse fill="none" stroke="#000000" cx="240.4089" cy="-392.0574" rx="3.2" ry="3.2"/>
</g>
<!-- USERS -->
<g id="node7" class="node">
<title>USERS</title>
<g id="a_node7"><a xlink:href="../../tables/USERS.html" xlink:title="USERS" target="_top">
<polygon fill="#ffffff" stroke="transparent" points="47,-399.2 47,-504.2 161,-504.2 161,-399.2 47,-399.2"/>
<polygon fill="#f5f5f5" stroke="transparent" points="47,-480.7 47,-503.7 161,-503.7 161,-480.7 47,-480.7"/>
<polygon fill="none" stroke="#000000" points="47,-480.7 47,-503.7 161,-503.7 161,-480.7 47,-480.7"/>
<text text-anchor="start" x="52" y="-489.8" font-family="Helvetica,sans-Serif" font-weight="bold" font-size="11.00" fill="#000000">USERS</text>
<text text-anchor="start" x="126.0437" y="-488.8" font-family="Helvetica,sans-Serif" font-size="11.00" fill="#000000">[table]</text>
<polygon fill="none" stroke="#000000" points="47,-458.7 47,-480.7 161,-480.7 161,-458.7 47,-458.7"/>
<image xlink:href="../../images/primaryKeys.png" width="11px" height="12px" preserveAspectRatio="xMinYMin meet" x="52" y="-475.7"/>
<text text-anchor="start" x="67" y="-465.8" font-family="Helvetica,sans-Serif" font-size="11.00" fill="#000000">ID</text>
<polygon fill="none" stroke="#000000" points="47,-436.7 47,-458.7 161,-458.7 161,-436.7 47,-436.7"/>
<image xlink:href="../../images/primaryKeys.png" width="11px" height="12px" preserveAspectRatio="xMinYMin meet" x="52" y="-453.7"/>
<text text-anchor="start" x="67" y="-443.8" font-family="Helvetica,sans-Serif" font-size="11.00" fill="#000000">USERNAME</text>
<polygon fill="none" stroke="#000000" points="47,-417.7 47,-436.7 161,-436.7 161,-417.7 47,-417.7"/>
<text text-anchor="start" x="50" y="-423.8" font-family="Helvetica,sans-Serif" font-size="11.00" fill="#000000">...</text>
<polygon fill="#ffffff" stroke="transparent" points="47,-398.7 47,-417.7 77,-417.7 77,-398.7 47,-398.7"/>
<polygon fill="none" stroke="#000000" points="47,-398.7 47,-417.7 77,-417.7 77,-398.7 47,-398.7"/>
<text text-anchor="start" x="50" y="-404.8" font-family="Helvetica,sans-Serif" font-size="11.00" fill="#000000"> &#160;</text>
<polygon fill="#ffffff" stroke="transparent" points="77,-398.7 77,-417.7 130,-417.7 130,-398.7 77,-398.7"/>
<polygon fill="none" stroke="#000000" points="77,-398.7 77,-417.7 130,-417.7 130,-398.7 77,-398.7"/>
<text text-anchor="start" x="88.4956" y="-404.8" font-family="Helvetica,sans-Serif" font-size="11.00" fill="#000000">33 rows</text>
<polygon fill="#ffffff" stroke="transparent" points="130,-398.7 130,-417.7 161,-417.7 161,-398.7 130,-398.7"/>
<polygon fill="none" stroke="#000000" points="130,-398.7 130,-417.7 161,-417.7 161,-398.7 130,-398.7"/>
<text text-anchor="start" x="142.4053" y="-404.8" font-family="Helvetica,sans-Serif" font-size="11.00" fill="#000000">9 &gt;</text>
</a>
</g>
</g>
<!-- TRACER_LIGANDS&#45;&gt;USERS -->
<g id="edge7" class="edge">
<title>TRACER_LIGANDS:w&#45;&gt;USERS:e</title>
<path fill="none" stroke="#000000" d="M236.6045,-419.675C204.697,-429.1734 201.7829,-469.7 161,-469.7"/>
<polygon fill="#000000" stroke="#000000" points="243.0742,-418.7874 251.4893,-421.2666 247.0371,-418.2437 251,-417.7 251,-417.7 251,-417.7 247.0371,-418.2437 250.5107,-414.1334 243.0742,-418.7874 243.0742,-418.7874"/>
<ellipse fill="none" stroke="#000000" cx="239.9039" cy="-419.2224" rx="3.2" ry="3.2"/>
</g>
<!-- TRACER_TYPES -->
<g id="node8" class="node">
<title>TRACER_TYPES</title>
<g id="a_node8"><a xlink:href="../../tables/TRACER_TYPES.html" xlink:title="TRACER_TYPES" target="_top">
<polygon fill="#ffffff" stroke="transparent" points="39,-525.2 39,-608.2 169,-608.2 169,-525.2 39,-525.2"/>
<polygon fill="#f5f5f5" stroke="transparent" points="39,-584.7 39,-607.7 169,-607.7 169,-584.7 39,-584.7"/>
<polygon fill="none" stroke="#000000" points="39,-584.7 39,-607.7 169,-607.7 169,-584.7 39,-584.7"/>
<text text-anchor="start" x="43.8036" y="-593.8" font-family="Helvetica,sans-Serif" font-weight="bold" font-size="11.00" fill="#000000">TRACER_TYPES</text>
<text text-anchor="start" x="134.5219" y="-592.8" font-family="Helvetica,sans-Serif" font-size="11.00" fill="#000000">[table]</text>
<polygon fill="none" stroke="#000000" points="39,-562.7 39,-584.7 169,-584.7 169,-562.7 39,-562.7"/>
<image xlink:href="../../images/primaryKeys.png" width="11px" height="12px" preserveAspectRatio="xMinYMin meet" x="44" y="-579.7"/>
<text text-anchor="start" x="63" y="-569.8" font-family="Helvetica,sans-Serif" font-size="11.00" fill="#000000">ID</text>
<polygon fill="none" stroke="#000000" points="39,-543.7 39,-562.7 169,-562.7 169,-543.7 39,-543.7"/>
<text text-anchor="start" x="42" y="-549.8" font-family="Helvetica,sans-Serif" font-size="11.00" fill="#000000">...</text>
<polygon fill="#ffffff" stroke="transparent" points="39,-524.7 39,-543.7 77,-543.7 77,-524.7 39,-524.7"/>
<polygon fill="none" stroke="#000000" points="39,-524.7 39,-543.7 77,-543.7 77,-524.7 39,-524.7"/>
<text text-anchor="start" x="42" y="-530.8" font-family="Helvetica,sans-Serif" font-size="11.00" fill="#000000"> &#160;</text>
<polygon fill="#ffffff" stroke="transparent" points="77,-524.7 77,-543.7 134,-543.7 134,-524.7 77,-524.7"/>
<polygon fill="none" stroke="#000000" points="77,-524.7 77,-543.7 134,-543.7 134,-524.7 77,-524.7"/>
<text text-anchor="start" x="92.4956" y="-530.8" font-family="Helvetica,sans-Serif" font-size="11.00" fill="#000000">12 rows</text>
<polygon fill="#ffffff" stroke="transparent" points="134,-524.7 134,-543.7 169,-543.7 169,-524.7 134,-524.7"/>
<polygon fill="none" stroke="#000000" points="134,-524.7 134,-543.7 169,-543.7 169,-524.7 134,-524.7"/>
<text text-anchor="start" x="150.4053" y="-530.8" font-family="Helvetica,sans-Serif" font-size="11.00" fill="#000000">2 &gt;</text>
</a>
</g>
</g>
<!-- TRACER_LIGANDS&#45;&gt;TRACER_TYPES -->
<g id="edge8" class="edge">
<title>TRACER_LIGANDS:w&#45;&gt;TRACER_TYPES:e</title>
<path fill="none" stroke="#000000" d="M236.5476,-442.1402C189.5929,-460.3017 233.2305,-573.7 169,-573.7"/>
<polygon fill="#000000" stroke="#000000" points="243.1117,-441.032 251.5994,-443.2498 247.0558,-440.366 251,-439.7 251,-439.7 251,-439.7 247.0558,-440.366 250.4006,-436.1502 243.1117,-441.032 243.1117,-441.032"/>
<ellipse fill="none" stroke="#000000" cx="239.9563" cy="-441.5647" rx="3.2" ry="3.2"/>
</g>
<!-- IN_HOUSE_ASSAYS -->
<g id="node4" class="node">
<title>IN_HOUSE_ASSAYS</title>
<g id="a_node4"><a xlink:href="../../tables/IN_HOUSE_ASSAYS.html" xlink:title="IN_HOUSE_ASSAYS" target="_top">
<polygon fill="#ffffff" stroke="transparent" points="784.5,-356.2 784.5,-527.2 977.5,-527.2 977.5,-356.2 784.5,-356.2"/>
<polygon fill="#f5f5f5" stroke="transparent" points="785,-503.7 785,-526.7 978,-526.7 978,-503.7 785,-503.7"/>
<polygon fill="none" stroke="#000000" points="785,-503.7 785,-526.7 978,-526.7 978,-503.7 785,-503.7"/>
<text text-anchor="start" x="790" y="-512.8" font-family="Helvetica,sans-Serif" font-weight="bold" font-size="11.00" fill="#000000">IN_HOUSE_ASSAYS</text>
<text text-anchor="start" x="943.0437" y="-511.8" font-family="Helvetica,sans-Serif" font-size="11.00" fill="#000000">[table]</text>
<polygon fill="none" stroke="#000000" points="785,-481.7 785,-503.7 978,-503.7 978,-481.7 785,-481.7"/>
<image xlink:href="../../images/primaryKeys.png" width="11px" height="12px" preserveAspectRatio="xMinYMin meet" x="790" y="-498.7"/>
<text text-anchor="start" x="805" y="-488.8" font-family="Helvetica,sans-Serif" font-size="11.00" fill="#000000">ID</text>
<polygon fill="none" stroke="#000000" points="785,-459.7 785,-481.7 978,-481.7 978,-459.7 785,-459.7"/>
<image xlink:href="../../images/foreignKeys.png" width="11px" height="12px" preserveAspectRatio="xMinYMin meet" x="790" y="-476.7"/>
<text text-anchor="start" x="805" y="-466.8" font-family="Helvetica,sans-Serif" font-size="11.00" fill="#000000">ASSAY_AFFINITY_TYPE_ID</text>
<polygon fill="none" stroke="#000000" points="785,-437.7 785,-459.7 978,-459.7 978,-437.7 785,-437.7"/>
<image xlink:href="../../images/foreignKeys.png" width="11px" height="12px" preserveAspectRatio="xMinYMin meet" x="790" y="-454.7"/>
<text text-anchor="start" x="805" y="-444.8" font-family="Helvetica,sans-Serif" font-size="11.00" fill="#000000">ASSAY_TYPE_ID</text>
<polygon fill="none" stroke="#000000" points="785,-415.7 785,-437.7 978,-437.7 978,-415.7 785,-415.7"/>
<image xlink:href="../../images/foreignKeys.png" width="11px" height="12px" preserveAspectRatio="xMinYMin meet" x="790" y="-432.7"/>
<text text-anchor="start" x="805" y="-422.8" font-family="Helvetica,sans-Serif" font-size="11.00" fill="#000000">TRACER_LIGAND_ID</text>
<polygon fill="none" stroke="#000000" points="785,-393.7 785,-415.7 978,-415.7 978,-393.7 785,-393.7"/>
<image xlink:href="../../images/foreignKeys.png" width="11px" height="12px" preserveAspectRatio="xMinYMin meet" x="790" y="-410.7"/>
<text text-anchor="start" x="805" y="-400.8" font-family="Helvetica,sans-Serif" font-size="11.00" fill="#000000">TARGET_FORM_ID</text>
<polygon fill="none" stroke="#000000" points="785,-374.7 785,-393.7 978,-393.7 978,-374.7 785,-374.7"/>
<text text-anchor="start" x="788" y="-380.8" font-family="Helvetica,sans-Serif" font-size="11.00" fill="#000000">...</text>
<polygon fill="#ffffff" stroke="transparent" points="785,-355.7 785,-374.7 859,-374.7 859,-355.7 785,-355.7"/>
<polygon fill="none" stroke="#000000" points="785,-355.7 785,-374.7 859,-374.7 859,-355.7 785,-355.7"/>
<text text-anchor="start" x="788" y="-361.8" font-family="Helvetica,sans-Serif" font-size="11.00" fill="#000000">&lt; 4</text>
<polygon fill="#ffffff" stroke="transparent" points="859,-355.7 859,-374.7 930,-374.7 930,-355.7 859,-355.7"/>
<polygon fill="none" stroke="#000000" points="859,-355.7 859,-374.7 930,-374.7 930,-355.7 859,-355.7"/>
<text text-anchor="start" x="888.4956" y="-361.8" font-family="Helvetica,sans-Serif" font-size="11.00" fill="#000000">51 rows</text>
<polygon fill="#ffffff" stroke="transparent" points="930,-355.7 930,-374.7 978,-374.7 978,-355.7 930,-355.7"/>
<polygon fill="none" stroke="#000000" points="930,-355.7 930,-374.7 978,-374.7 978,-355.7 930,-355.7"/>
<text text-anchor="start" x="959.4053" y="-361.8" font-family="Helvetica,sans-Serif" font-size="11.00" fill="#000000">1 &gt;</text>
</a>
</g>
</g>
<!-- IN_HOUSE_ASSAYS&#45;&gt;TRACER_LIGANDS -->
<g id="edge3" class="edge">
<title>IN_HOUSE_ASSAYS:w&#45;&gt;TRACER_LIGANDS:e</title>
<path fill="none" stroke="#000000" d="M770.4468,-428.1782C729.0152,-437.5372 737.6179,-489.7013 716,-537.7 688.5712,-598.6007 739.7925,-681.7 673,-681.7"/>
<polygon fill="#000000" stroke="#000000" points="777.041,-427.5085 785.3638,-430.2816 781.0205,-427.1042 785,-426.7 785,-426.7 785,-426.7 781.0205,-427.1042 784.6362,-423.1184 777.041,-427.5085 777.041,-427.5085"/>
<ellipse fill="none" stroke="#000000" cx="773.8573" cy="-427.8319" rx="3.2" ry="3.2"/>
</g>
<!-- LITERATURE_ASSAYS -->
<g id="node5" class="node">
<title>LITERATURE_ASSAYS</title>
<g id="a_node5"><a xlink:href="../../tables/LITERATURE_ASSAYS.html" xlink:title="LITERATURE_ASSAYS" target="_top">
<polygon fill="#ffffff" stroke="transparent" points="784.5,-186.2 784.5,-335.2 977.5,-335.2 977.5,-186.2 784.5,-186.2"/>
<polygon fill="#f5f5f5" stroke="transparent" points="785,-311.7 785,-334.7 978,-334.7 978,-311.7 785,-311.7"/>
<polygon fill="none" stroke="#000000" points="785,-311.7 785,-334.7 978,-334.7 978,-311.7 785,-311.7"/>
<text text-anchor="start" x="790" y="-320.8" font-family="Helvetica,sans-Serif" font-weight="bold" font-size="11.00" fill="#000000">LITERATURE_ASSAYS</text>
<text text-anchor="start" x="943.0437" y="-319.8" font-family="Helvetica,sans-Serif" font-size="11.00" fill="#000000">[table]</text>
<polygon fill="none" stroke="#000000" points="785,-289.7 785,-311.7 978,-311.7 978,-289.7 785,-289.7"/>
<image xlink:href="../../images/primaryKeys.png" width="11px" height="12px" preserveAspectRatio="xMinYMin meet" x="790" y="-306.7"/>
<text text-anchor="start" x="805" y="-296.8" font-family="Helvetica,sans-Serif" font-size="11.00" fill="#000000">ID</text>
<polygon fill="none" stroke="#000000" points="785,-267.7 785,-289.7 978,-289.7 978,-267.7 785,-267.7"/>
<image xlink:href="../../images/foreignKeys.png" width="11px" height="12px" preserveAspectRatio="xMinYMin meet" x="790" y="-284.7"/>
<text text-anchor="start" x="805" y="-274.8" font-family="Helvetica,sans-Serif" font-size="11.00" fill="#000000">ASSAY_AFFINITY_TYPE_ID</text>
<polygon fill="none" stroke="#000000" points="785,-245.7 785,-267.7 978,-267.7 978,-245.7 785,-245.7"/>
<image xlink:href="../../images/foreignKeys.png" width="11px" height="12px" preserveAspectRatio="xMinYMin meet" x="790" y="-262.7"/>
<text text-anchor="start" x="805" y="-252.8" font-family="Helvetica,sans-Serif" font-size="11.00" fill="#000000">ASSAY_TYPE_ID</text>
<polygon fill="none" stroke="#000000" points="785,-223.7 785,-245.7 978,-245.7 978,-223.7 785,-223.7"/>
<image xlink:href="../../images/foreignKeys.png" width="11px" height="12px" preserveAspectRatio="xMinYMin meet" x="790" y="-240.7"/>
<text text-anchor="start" x="805" y="-230.8" font-family="Helvetica,sans-Serif" font-size="11.00" fill="#000000">TRACER_LIGAND_ID</text>
<polygon fill="none" stroke="#000000" points="785,-204.7 785,-223.7 978,-223.7 978,-204.7 785,-204.7"/>
<text text-anchor="start" x="788" y="-210.8" font-family="Helvetica,sans-Serif" font-size="11.00" fill="#000000">...</text>
<polygon fill="#ffffff" stroke="transparent" points="785,-185.7 785,-204.7 859,-204.7 859,-185.7 785,-185.7"/>
<polygon fill="none" stroke="#000000" points="785,-185.7 785,-204.7 859,-204.7 859,-185.7 785,-185.7"/>
<text text-anchor="start" x="788" y="-191.8" font-family="Helvetica,sans-Serif" font-size="11.00" fill="#000000">&lt; 3</text>
<polygon fill="#ffffff" stroke="transparent" points="859,-185.7 859,-204.7 930,-204.7 930,-185.7 859,-185.7"/>
<polygon fill="none" stroke="#000000" points="859,-185.7 859,-204.7 930,-204.7 930,-185.7 859,-185.7"/>
<text text-anchor="start" x="888.4956" y="-191.8" font-family="Helvetica,sans-Serif" font-size="11.00" fill="#000000">25 rows</text>
<polygon fill="#ffffff" stroke="transparent" points="930,-185.7 930,-204.7 978,-204.7 978,-185.7 930,-185.7"/>
<polygon fill="none" stroke="#000000" points="930,-185.7 930,-204.7 978,-204.7 978,-185.7 930,-185.7"/>
<text text-anchor="start" x="959.4053" y="-191.8" font-family="Helvetica,sans-Serif" font-size="11.00" fill="#000000">1 &gt;</text>
</a>
</g>
</g>
<!-- LITERATURE_ASSAYS&#45;&gt;TRACER_LIGANDS -->
<g id="edge4" class="edge">
<title>LITERATURE_ASSAYS:w&#45;&gt;TRACER_LIGANDS:e</title>
<path fill="none" stroke="#000000" d="M770.6146,-236.0778C728.2463,-245.018 733.6791,-295.9947 716,-345.7 690.7742,-416.623 748.2756,-681.7 673,-681.7"/>
<polygon fill="#000000" stroke="#000000" points="777.0364,-235.4628 785.3433,-238.2836 781.0182,-235.0814 785,-234.7 785,-234.7 785,-234.7 781.0182,-235.0814 784.6567,-231.1164 777.0364,-235.4628 777.0364,-235.4628"/>
<ellipse fill="none" stroke="#000000" cx="773.851" cy="-235.7679" rx="3.2" ry="3.2"/>
</g>
<!-- SCREENING_CONDITIONS_TRACER_LIGANDS -->
<g id="node6" class="node">
<title>SCREENING_CONDITIONS_TRACER_LIGANDS</title>
<g id="a_node6"><a xlink:href="../../tables/SCREENING_CONDITIONS_TRACER_LIGANDS.html" xlink:title="SCREENING_CONDITIONS_TRACER_LIGANDS" target="_top">
<polygon fill="#ffffff" stroke="transparent" points="724,-38.2 724,-165.2 1038,-165.2 1038,-38.2 724,-38.2"/>
<polygon fill="#f5f5f5" stroke="transparent" points="724,-141.7 724,-164.7 1038,-164.7 1038,-141.7 724,-141.7"/>
<polygon fill="none" stroke="#000000" points="724,-141.7 724,-164.7 1038,-164.7 1038,-141.7 724,-141.7"/>
<text text-anchor="start" x="729" y="-150.8" font-family="Helvetica,sans-Serif" font-weight="bold" font-size="11.00" fill="#000000">SCREENING_CONDITIONS_TRACER_LIGANDS</text>
<text text-anchor="start" x="1003.0437" y="-149.8" font-family="Helvetica,sans-Serif" font-size="11.00" fill="#000000">[table]</text>
<polygon fill="none" stroke="#000000" points="724,-119.7 724,-141.7 1038,-141.7 1038,-119.7 724,-119.7"/>
<image xlink:href="../../images/primaryKeys.png" width="11px" height="12px" preserveAspectRatio="xMinYMin meet" x="729" y="-136.7"/>
<text text-anchor="start" x="744" y="-126.8" font-family="Helvetica,sans-Serif" font-size="11.00" fill="#000000">ID</text>
<polygon fill="none" stroke="#000000" points="724,-97.7 724,-119.7 1038,-119.7 1038,-97.7 724,-97.7"/>
<image xlink:href="../../images/foreignKeys.png" width="11px" height="12px" preserveAspectRatio="xMinYMin meet" x="729" y="-114.7"/>
<text text-anchor="start" x="744" y="-104.8" font-family="Helvetica,sans-Serif" font-size="11.00" fill="#000000">TRACER_LIGAND_ID</text>
<polygon fill="none" stroke="#000000" points="724,-75.7 724,-97.7 1038,-97.7 1038,-75.7 724,-75.7"/>
<image xlink:href="../../images/foreignKeys.png" width="11px" height="12px" preserveAspectRatio="xMinYMin meet" x="729" y="-92.7"/>
<text text-anchor="start" x="744" y="-82.8" font-family="Helvetica,sans-Serif" font-size="11.00" fill="#000000">SCREENING_CONDITION_ID</text>
<polygon fill="none" stroke="#000000" points="724,-56.7 724,-75.7 1038,-75.7 1038,-56.7 724,-56.7"/>
<text text-anchor="start" x="727" y="-62.8" font-family="Helvetica,sans-Serif" font-size="11.00" fill="#000000">...</text>
<polygon fill="#ffffff" stroke="transparent" points="724,-37.7 724,-56.7 863,-56.7 863,-37.7 724,-37.7"/>
<polygon fill="none" stroke="#000000" points="724,-37.7 724,-56.7 863,-56.7 863,-37.7 724,-37.7"/>
<text text-anchor="start" x="727" y="-43.8" font-family="Helvetica,sans-Serif" font-size="11.00" fill="#000000">&lt; 2</text>
<polygon fill="#ffffff" stroke="transparent" points="863,-37.7 863,-56.7 966,-56.7 966,-37.7 863,-37.7"/>
<polygon fill="none" stroke="#000000" points="863,-37.7 863,-56.7 966,-56.7 966,-37.7 863,-37.7"/>
<text text-anchor="start" x="924.4956" y="-43.8" font-family="Helvetica,sans-Serif" font-size="11.00" fill="#000000">26 rows</text>
<polygon fill="#ffffff" stroke="transparent" points="966,-37.7 966,-56.7 1038,-56.7 1038,-37.7 966,-37.7"/>
<polygon fill="none" stroke="#000000" points="966,-37.7 966,-56.7 1038,-56.7 1038,-37.7 966,-37.7"/>
<text text-anchor="start" x="1028.8862" y="-43.8" font-family="Helvetica,sans-Serif" font-size="11.00" fill="#000000"> &#160;</text>
</a>
</g>
</g>
<!-- SCREENING_CONDITIONS_TRACER_LIGANDS&#45;&gt;TRACER_LIGANDS -->
<g id="edge5" class="edge">
<title>SCREENING_CONDITIONS_TRACER_LIGANDS:w&#45;&gt;TRACER_LIGANDS:e</title>
<path fill="none" stroke="#000000" d="M712.2417,-117.2447C670.4519,-188.524 732.2993,-681.7 673,-681.7"/>
<polygon fill="#000000" stroke="#000000" points="717.5283,-113.4029 726.1163,-111.6123 720.7642,-111.0515 724,-108.7 724,-108.7 724,-108.7 720.7642,-111.0515 721.8837,-105.7877 717.5283,-113.4029 717.5283,-113.4029"/>
<ellipse fill="none" stroke="#000000" cx="714.9396" cy="-115.2841" rx="3.2" ry="3.2"/>
</g>
<!-- TRACER_LIGANDS_ISOFORM_DOMAINS -->
<g id="node9" class="node">
<title>TRACER_LIGANDS_ISOFORM_DOMAINS</title>
<g id="a_node9"><a xlink:href="../../tables/TRACER_LIGANDS_ISOFORM_DOMAINS.html" xlink:title="TRACER_LIGANDS_ISOFORM_DOMAINS" target="_top">
<polygon fill="#ffffff" stroke="transparent" points="741.5,-844.2 741.5,-971.2 1020.5,-971.2 1020.5,-844.2 741.5,-844.2"/>
<polygon fill="#f5f5f5" stroke="transparent" points="742,-947.7 742,-970.7 1021,-970.7 1021,-947.7 742,-947.7"/>
<polygon fill="none" stroke="#000000" points="742,-947.7 742,-970.7 1021,-970.7 1021,-947.7 742,-947.7"/>
<text text-anchor="start" x="747" y="-956.8" font-family="Helvetica,sans-Serif" font-weight="bold" font-size="11.00" fill="#000000">TRACER_LIGANDS_ISOFORM_DOMAINS</text>
<text text-anchor="start" x="986.0437" y="-955.8" font-family="Helvetica,sans-Serif" font-size="11.00" fill="#000000">[table]</text>
<polygon fill="none" stroke="#000000" points="742,-925.7 742,-947.7 1021,-947.7 1021,-925.7 742,-925.7"/>
<image xlink:href="../../images/primaryKeys.png" width="11px" height="12px" preserveAspectRatio="xMinYMin meet" x="747" y="-942.7"/>
<text text-anchor="start" x="762" y="-932.8" font-family="Helvetica,sans-Serif" font-size="11.00" fill="#000000">ID</text>
<polygon fill="none" stroke="#000000" points="742,-903.7 742,-925.7 1021,-925.7 1021,-903.7 742,-903.7"/>
<image xlink:href="../../images/primaryKeys.png" width="11px" height="12px" preserveAspectRatio="xMinYMin meet" x="747" y="-920.7"/>
<text text-anchor="start" x="762" y="-910.8" font-family="Helvetica,sans-Serif" font-size="11.00" fill="#000000">ISOFORM_DOMAIN_ID</text>
<polygon fill="none" stroke="#000000" points="742,-881.7 742,-903.7 1021,-903.7 1021,-881.7 742,-881.7"/>
<image xlink:href="../../images/primaryKeys.png" width="11px" height="12px" preserveAspectRatio="xMinYMin meet" x="747" y="-898.7"/>
<text text-anchor="start" x="762" y="-888.8" font-family="Helvetica,sans-Serif" font-size="11.00" fill="#000000">TRACER_LIGAND_ID</text>
<polygon fill="none" stroke="#000000" points="742,-862.7 742,-881.7 1021,-881.7 1021,-862.7 742,-862.7"/>
<text text-anchor="start" x="745" y="-868.8" font-family="Helvetica,sans-Serif" font-size="11.00" fill="#000000">...</text>
<polygon fill="#ffffff" stroke="transparent" points="742,-843.7 742,-862.7 864,-862.7 864,-843.7 742,-843.7"/>
<polygon fill="none" stroke="#000000" points="742,-843.7 742,-862.7 864,-862.7 864,-843.7 742,-843.7"/>
<text text-anchor="start" x="745" y="-849.8" font-family="Helvetica,sans-Serif" font-size="11.00" fill="#000000">&lt; 2</text>
<polygon fill="#ffffff" stroke="transparent" points="864,-843.7 864,-862.7 958,-862.7 958,-843.7 864,-843.7"/>
<polygon fill="none" stroke="#000000" points="864,-843.7 864,-862.7 958,-862.7 958,-843.7 864,-843.7"/>
<text text-anchor="start" x="916.4956" y="-849.8" font-family="Helvetica,sans-Serif" font-size="11.00" fill="#000000">75 rows</text>
<polygon fill="#ffffff" stroke="transparent" points="958,-843.7 958,-862.7 1021,-862.7 1021,-843.7 958,-843.7"/>
<polygon fill="none" stroke="#000000" points="958,-843.7 958,-862.7 1021,-862.7 1021,-843.7 958,-843.7"/>
<text text-anchor="start" x="1011.8862" y="-849.8" font-family="Helvetica,sans-Serif" font-size="11.00" fill="#000000"> &#160;</text>
</a>
</g>
</g>
<!-- TRACER_LIGANDS_ISOFORM_DOMAINS&#45;&gt;TRACER_LIGANDS -->
<g id="edge9" class="edge">
<title>TRACER_LIGANDS_ISOFORM_DOMAINS:w&#45;&gt;TRACER_LIGANDS:e</title>
<path fill="none" stroke="#000000" d="M727.3369,-890.7459C657.1444,-869.4746 766.0762,-681.7 673,-681.7"/>
<polygon fill="#000000" stroke="#000000" points="734.0701,-891.6432 741.5244,-896.2685 738.0351,-892.1716 742,-892.7 742,-892.7 742,-892.7 738.0351,-892.1716 742.4756,-889.1315 734.0701,-891.6432 734.0701,-891.6432"/>
<ellipse fill="none" stroke="#000000" cx="730.8981" cy="-891.2204" rx="3.2" ry="3.2"/>
</g>
<!-- TRACER_LIGANDS_REFERENCES -->
<g id="node10" class="node">
<title>TRACER_LIGANDS_REFERENCES</title>
<g id="a_node10"><a xlink:href="../../tables/TRACER_LIGANDS_REFERENCES.html" xlink:title="TRACER_LIGANDS_REFERENCES" target="_top">
<polygon fill="#ffffff" stroke="transparent" points="765,-696.2 765,-823.2 997,-823.2 997,-696.2 765,-696.2"/>
<polygon fill="#f5f5f5" stroke="transparent" points="765,-799.7 765,-822.7 997,-822.7 997,-799.7 765,-799.7"/>
<polygon fill="none" stroke="#000000" points="765,-799.7 765,-822.7 997,-822.7 997,-799.7 765,-799.7"/>
<text text-anchor="start" x="770" y="-808.8" font-family="Helvetica,sans-Serif" font-weight="bold" font-size="11.00" fill="#000000">TRACER_LIGANDS_REFERENCES</text>
<text text-anchor="start" x="962.0437" y="-807.8" font-family="Helvetica,sans-Serif" font-size="11.00" fill="#000000">[table]</text>
<polygon fill="none" stroke="#000000" points="765,-777.7 765,-799.7 997,-799.7 997,-777.7 765,-777.7"/>
<image xlink:href="../../images/primaryKeys.png" width="11px" height="12px" preserveAspectRatio="xMinYMin meet" x="770" y="-794.7"/>
<text text-anchor="start" x="785" y="-784.8" font-family="Helvetica,sans-Serif" font-size="11.00" fill="#000000">ID</text>
<polygon fill="none" stroke="#000000" points="765,-755.7 765,-777.7 997,-777.7 997,-755.7 765,-755.7"/>
<image xlink:href="../../images/foreignKeys.png" width="11px" height="12px" preserveAspectRatio="xMinYMin meet" x="770" y="-772.7"/>
<text text-anchor="start" x="785" y="-762.8" font-family="Helvetica,sans-Serif" font-size="11.00" fill="#000000">TRACER_LIGAND_ID</text>
<polygon fill="none" stroke="#000000" points="765,-733.7 765,-755.7 997,-755.7 997,-733.7 765,-733.7"/>
<image xlink:href="../../images/foreignKeys.png" width="11px" height="12px" preserveAspectRatio="xMinYMin meet" x="770" y="-750.7"/>
<text text-anchor="start" x="785" y="-740.8" font-family="Helvetica,sans-Serif" font-size="11.00" fill="#000000">REFERENCE_ID</text>
<polygon fill="none" stroke="#000000" points="765,-714.7 765,-733.7 997,-733.7 997,-714.7 765,-714.7"/>
<text text-anchor="start" x="768" y="-720.8" font-family="Helvetica,sans-Serif" font-size="11.00" fill="#000000">...</text>
<polygon fill="#ffffff" stroke="transparent" points="765,-695.7 765,-714.7 863,-714.7 863,-695.7 765,-695.7"/>
<polygon fill="none" stroke="#000000" points="765,-695.7 765,-714.7 863,-714.7 863,-695.7 765,-695.7"/>
<text text-anchor="start" x="768" y="-701.8" font-family="Helvetica,sans-Serif" font-size="11.00" fill="#000000">&lt; 2</text>
<polygon fill="#ffffff" stroke="transparent" points="863,-695.7 863,-714.7 946,-714.7 946,-695.7 863,-695.7"/>
<polygon fill="none" stroke="#000000" points="863,-695.7 863,-714.7 946,-714.7 946,-695.7 863,-695.7"/>
<text text-anchor="start" x="904.4956" y="-701.8" font-family="Helvetica,sans-Serif" font-size="11.00" fill="#000000">18 rows</text>
<polygon fill="#ffffff" stroke="transparent" points="946,-695.7 946,-714.7 997,-714.7 997,-695.7 946,-695.7"/>
<polygon fill="none" stroke="#000000" points="946,-695.7 946,-714.7 997,-714.7 997,-695.7 946,-695.7"/>
<text text-anchor="start" x="987.8862" y="-701.8" font-family="Helvetica,sans-Serif" font-size="11.00" fill="#000000"> &#160;</text>
</a>
</g>
</g>
<!-- TRACER_LIGANDS_REFERENCES&#45;&gt;TRACER_LIGANDS -->
<g id="edge10" class="edge">
<title>TRACER_LIGANDS_REFERENCES:w&#45;&gt;TRACER_LIGANDS:e</title>
<path fill="none" stroke="#000000" d="M750.6969,-764.4265C712.3925,-750.9091 723.2328,-681.7 673,-681.7"/>
<polygon fill="#000000" stroke="#000000" points="757.0992,-765.4441 764.4348,-770.2554 761.0496,-766.072 765,-766.7 765,-766.7 765,-766.7 761.0496,-766.072 765.5652,-763.1446 757.0992,-765.4441 757.0992,-765.4441"/>
<ellipse fill="none" stroke="#000000" cx="753.9389" cy="-764.9417" rx="3.2" ry="3.2"/>
</g>
<!-- VERSIONS_TRACERS_TRACER_LIGANDS -->
<g id="node11" class="node">
<title>VERSIONS_TRACERS_TRACER_LIGANDS</title>
<g id="a_node11"><a xlink:href="../../tables/VERSIONS_TRACERS_TRACER_LIGANDS.html" xlink:title="VERSIONS_TRACERS_TRACER_LIGANDS" target="_top">
<polygon fill="#ffffff" stroke="transparent" points="740,-548.2 740,-675.2 1022,-675.2 1022,-548.2 740,-548.2"/>
<polygon fill="#f5f5f5" stroke="transparent" points="740,-651.7 740,-674.7 1022,-674.7 1022,-651.7 740,-651.7"/>
<polygon fill="none" stroke="#000000" points="740,-651.7 740,-674.7 1022,-674.7 1022,-651.7 740,-651.7"/>
<text text-anchor="start" x="745" y="-660.8" font-family="Helvetica,sans-Serif" font-weight="bold" font-size="11.00" fill="#000000">VERSIONS_TRACERS_TRACER_LIGANDS</text>
<text text-anchor="start" x="987.0437" y="-659.8" font-family="Helvetica,sans-Serif" font-size="11.00" fill="#000000">[table]</text>
<polygon fill="none" stroke="#000000" points="740,-629.7 740,-651.7 1022,-651.7 1022,-629.7 740,-629.7"/>
<image xlink:href="../../images/primaryKeys.png" width="11px" height="12px" preserveAspectRatio="xMinYMin meet" x="745" y="-646.7"/>
<text text-anchor="start" x="760" y="-636.8" font-family="Helvetica,sans-Serif" font-size="11.00" fill="#000000">ID</text>
<polygon fill="none" stroke="#000000" points="740,-607.7 740,-629.7 1022,-629.7 1022,-607.7 740,-607.7"/>
<image xlink:href="../../images/primaryKeys.png" width="11px" height="12px" preserveAspectRatio="xMinYMin meet" x="745" y="-624.7"/>
<text text-anchor="start" x="760" y="-614.8" font-family="Helvetica,sans-Serif" font-size="11.00" fill="#000000">VERSION_TRACER_ID</text>
<polygon fill="none" stroke="#000000" points="740,-585.7 740,-607.7 1022,-607.7 1022,-585.7 740,-585.7"/>
<image xlink:href="../../images/primaryKeys.png" width="11px" height="12px" preserveAspectRatio="xMinYMin meet" x="745" y="-602.7"/>
<text text-anchor="start" x="760" y="-592.8" font-family="Helvetica,sans-Serif" font-size="11.00" fill="#000000">TRACER_LIGAND_ID</text>
<polygon fill="none" stroke="#000000" points="740,-566.7 740,-585.7 1022,-585.7 1022,-566.7 740,-566.7"/>
<text text-anchor="start" x="743" y="-572.8" font-family="Helvetica,sans-Serif" font-size="11.00" fill="#000000">...</text>
<polygon fill="#ffffff" stroke="transparent" points="740,-547.7 740,-566.7 856,-566.7 856,-547.7 740,-547.7"/>
<polygon fill="none" stroke="#000000" points="740,-547.7 740,-566.7 856,-566.7 856,-547.7 740,-547.7"/>
<text text-anchor="start" x="743" y="-553.8" font-family="Helvetica,sans-Serif" font-size="11.00" fill="#000000">&lt; 2</text>
<polygon fill="#ffffff" stroke="transparent" points="856,-547.7 856,-566.7 962,-566.7 962,-547.7 856,-547.7"/>
<polygon fill="none" stroke="#000000" points="856,-547.7 856,-566.7 962,-566.7 962,-547.7 856,-547.7"/>
<text text-anchor="start" x="905.2089" y="-553.8" font-family="Helvetica,sans-Serif" font-size="11.00" fill="#000000">2,328 rows</text>
<polygon fill="#ffffff" stroke="transparent" points="962,-547.7 962,-566.7 1022,-566.7 1022,-547.7 962,-547.7"/>
<polygon fill="none" stroke="#000000" points="962,-547.7 962,-566.7 1022,-566.7 1022,-547.7 962,-547.7"/>
<text text-anchor="start" x="1012.8862" y="-553.8" font-family="Helvetica,sans-Serif" font-size="11.00" fill="#000000"> &#160;</text>
</a>
</g>
</g>
<!-- VERSIONS_TRACERS_TRACER_LIGANDS&#45;&gt;TRACER_LIGANDS -->
<g id="edge11" class="edge">
<title>VERSIONS_TRACERS_TRACER_LIGANDS:w&#45;&gt;TRACER_LIGANDS:e</title>
<path fill="none" stroke="#000000" d="M725.6515,-600.1374C697.8368,-616.0395 715.2778,-681.7 673,-681.7"/>
<polygon fill="#000000" stroke="#000000" points="732.2201,-598.5638 740.8387,-600.2009 736.1101,-597.6319 740,-596.7 740,-596.7 740,-596.7 736.1101,-597.6319 739.1613,-593.1991 732.2201,-598.5638 732.2201,-598.5638"/>
<ellipse fill="none" stroke="#000000" cx="729.1082" cy="-599.3093" rx="3.2" ry="3.2"/>
</g>
</g>
</svg>
