<?xml version="1.0" encoding="UTF-8" standalone="no"?>
<!DOCTYPE svg PUBLIC "-//W3C//DTD SVG 1.1//EN"
 "http://www.w3.org/Graphics/SVG/1.1/DTD/svg11.dtd">
<!-- Generated by graphviz version 2.40.1 (20161225.0304)
 -->
<!-- Title: oneDegreeRelationshipsDiagram Pages: 1 -->
<svg width="621pt" height="567pt"
 viewBox="0.00 0.00 621.00 567.20" xmlns="http://www.w3.org/2000/svg" xmlns:xlink="http://www.w3.org/1999/xlink">
<g id="graph0" class="graph" transform="scale(1 1) rotate(0) translate(4 563.2)">
<title>oneDegreeRelationshipsDiagram</title>
<polygon fill="#ffffff" stroke="transparent" points="-4,4 -4,-563.2 617,-563.2 617,4 -4,4"/>
<text text-anchor="middle" x="72.4936" y="-7.3" font-family="Helvetica,sans-Serif" font-size="11.00" fill="#000000">Generated by SchemaSpy</text>
<!-- TRACER_LIGANDS -->
<g id="node1" class="node">
<title>TRACER_LIGANDS</title>
<g id="a_node1"><a xlink:href="../../tables/TRACER_LIGANDS.html" xlink:title="TRACER_LIGANDS" target="_top">
<polygon fill="#ffffff" stroke="transparent" points="354,-406.2 354,-555.2 605,-555.2 605,-406.2 354,-406.2"/>
<polygon fill="#f5f5f5" stroke="transparent" points="354.5,-531.7 354.5,-554.7 605.5,-554.7 605.5,-531.7 354.5,-531.7"/>
<polygon fill="none" stroke="#000000" points="354.5,-531.7 354.5,-554.7 605.5,-554.7 605.5,-531.7 354.5,-531.7"/>
<text text-anchor="start" x="359.5" y="-540.8" font-family="Helvetica,sans-Serif" font-weight="bold" font-size="11.00" fill="#000000">TRACER_LIGANDS</text>
<text text-anchor="start" x="570.5437" y="-539.8" font-family="Helvetica,sans-Serif" font-size="11.00" fill="#000000">[table]</text>
<polygon fill="none" stroke="#000000" points="354.5,-509.7 354.5,-531.7 605.5,-531.7 605.5,-509.7 354.5,-509.7"/>
<image xlink:href="../../images/primaryKeys.png" width="11px" height="12px" preserveAspectRatio="xMinYMin meet" x="359.5" y="-526.7"/>
<text text-anchor="start" x="374.5" y="-516.8" font-family="Helvetica,sans-Serif" font-size="11.00" fill="#000000">ID</text>
<polygon fill="none" stroke="#000000" points="354.5,-487.7 354.5,-509.7 605.5,-509.7 605.5,-487.7 354.5,-487.7"/>
<image xlink:href="../../images/foreignKeys.png" width="11px" height="12px" preserveAspectRatio="xMinYMin meet" x="359.5" y="-504.7"/>
<text text-anchor="start" x="374.5" y="-494.8" font-family="Helvetica,sans-Serif" font-size="11.00" fill="#000000">TYPE_ID</text>
<polygon fill="none" stroke="#000000" points="354.5,-465.7 354.5,-487.7 605.5,-487.7 605.5,-465.7 354.5,-465.7"/>
<image xlink:href="../../images/foreignKeys.png" width="11px" height="12px" preserveAspectRatio="xMinYMin meet" x="359.5" y="-482.7"/>
<text text-anchor="start" x="374.5" y="-472.8" font-family="Helvetica,sans-Serif" font-size="11.00" fill="#000000">TRACER_SYNTHESIS_SCIENTIST_ID</text>
<polygon fill="none" stroke="#000000" points="354.5,-443.7 354.5,-465.7 605.5,-465.7 605.5,-443.7 354.5,-443.7"/>
<image xlink:href="../../images/foreignKeys.png" width="11px" height="12px" preserveAspectRatio="xMinYMin meet" x="359.5" y="-460.7"/>
<text text-anchor="start" x="374.5" y="-450.8" font-family="Helvetica,sans-Serif" font-size="11.00" fill="#000000">DNA_ATTACHMENT_SITE_ID</text>
<polygon fill="none" stroke="#000000" points="354.5,-424.7 354.5,-443.7 605.5,-443.7 605.5,-424.7 354.5,-424.7"/>
<text text-anchor="start" x="357.5" y="-430.8" font-family="Helvetica,sans-Serif" font-size="11.00" fill="#000000">...</text>
<polygon fill="#ffffff" stroke="transparent" points="354.5,-405.7 354.5,-424.7 454.5,-424.7 454.5,-405.7 354.5,-405.7"/>
<polygon fill="none" stroke="#000000" points="354.5,-405.7 354.5,-424.7 454.5,-424.7 454.5,-405.7 354.5,-405.7"/>
<text text-anchor="start" x="357.5" y="-411.8" font-family="Helvetica,sans-Serif" font-size="11.00" fill="#000000">&lt; 3</text>
<polygon fill="#ffffff" stroke="transparent" points="454.5,-405.7 454.5,-424.7 544.5,-424.7 544.5,-405.7 454.5,-405.7"/>
<polygon fill="none" stroke="#000000" points="454.5,-405.7 454.5,-424.7 544.5,-424.7 544.5,-405.7 454.5,-405.7"/>
<text text-anchor="start" x="496.8807" y="-411.8" font-family="Helvetica,sans-Serif" font-size="11.00" fill="#000000">416 rows</text>
<polygon fill="#ffffff" stroke="transparent" points="544.5,-405.7 544.5,-424.7 605.5,-424.7 605.5,-405.7 544.5,-405.7"/>
<polygon fill="none" stroke="#000000" points="544.5,-405.7 544.5,-424.7 605.5,-424.7 605.5,-405.7 544.5,-405.7"/>
<text text-anchor="start" x="586.9053" y="-411.8" font-family="Helvetica,sans-Serif" font-size="11.00" fill="#000000">7 &gt;</text>
</a>
</g>
</g>
<!-- TRACER_TYPES -->
<g id="node2" class="node">
<title>TRACER_TYPES</title>
<g id="a_node2"><a xlink:href="../../tables/TRACER_TYPES.html" xlink:title="TRACER_TYPES" target="_top">
<polygon fill="#ffffff" stroke="transparent" points="8,-271.7 8,-449.7 305,-449.7 305,-271.7 8,-271.7"/>
<polygon fill="#f5f5f5" stroke="transparent" points="10.5,-424.7 10.5,-447.7 303.5,-447.7 303.5,-424.7 10.5,-424.7"/>
<polygon fill="none" stroke="#000000" points="10.5,-424.7 10.5,-447.7 303.5,-447.7 303.5,-424.7 10.5,-424.7"/>
<text text-anchor="start" x="15.5" y="-433.8" font-family="Helvetica,sans-Serif" font-weight="bold" font-size="11.00" fill="#000000">TRACER_TYPES</text>
<text text-anchor="start" x="268.5437" y="-432.8" font-family="Helvetica,sans-Serif" font-size="11.00" fill="#000000">[table]</text>
<polygon fill="none" stroke="#000000" points="10.5,-402.7 10.5,-424.7 132.5,-424.7 132.5,-402.7 10.5,-402.7"/>
<image xlink:href="../../images/primaryKeys.png" width="11px" height="12px" preserveAspectRatio="xMinYMin meet" x="15.5" y="-419.7"/>
<text text-anchor="start" x="30.5" y="-409.8" font-family="Helvetica,sans-Serif" font-size="11.00" fill="#000000">ID</text>
<polygon fill="none" stroke="#000000" points="132.5,-402.7 132.5,-424.7 303.5,-424.7 303.5,-402.7 132.5,-402.7"/>
<text text-anchor="start" x="135.5" y="-410.4" font-family="Helvetica,sans-Serif" font-size="11.00" fill="#000000">number[19]</text>
<polygon fill="none" stroke="#000000" points="10.5,-380.7 10.5,-402.7 132.5,-402.7 132.5,-380.7 10.5,-380.7"/>
<text text-anchor="start" x="30.5" y="-387.8" font-family="Helvetica,sans-Serif" font-size="11.00" fill="#000000">CREATED_AT</text>
<polygon fill="none" stroke="#000000" points="132.5,-380.7 132.5,-402.7 303.5,-402.7 303.5,-380.7 132.5,-380.7"/>
<text text-anchor="start" x="135.4896" y="-388.4" font-family="Helvetica,sans-Serif" font-size="11.00" fill="#000000">timestamp(6) with time zone[13,6]</text>
<polygon fill="none" stroke="#000000" points="10.5,-358.7 10.5,-380.7 132.5,-380.7 132.5,-358.7 10.5,-358.7"/>
<text text-anchor="start" x="30.5" y="-365.8" font-family="Helvetica,sans-Serif" font-size="11.00" fill="#000000">CREATED_BY</text>
<polygon fill="none" stroke="#000000" points="132.5,-358.7 132.5,-380.7 303.5,-380.7 303.5,-358.7 132.5,-358.7"/>
<text text-anchor="start" x="135.5" y="-366.4" font-family="Helvetica,sans-Serif" font-size="11.00" fill="#000000">number[19]</text>
<polygon fill="none" stroke="#000000" points="10.5,-336.7 10.5,-358.7 132.5,-358.7 132.5,-336.7 10.5,-336.7"/>
<text text-anchor="start" x="30.5" y="-343.8" font-family="Helvetica,sans-Serif" font-size="11.00" fill="#000000">UPDATED_AT</text>
<polygon fill="none" stroke="#000000" points="132.5,-336.7 132.5,-358.7 303.5,-358.7 303.5,-336.7 132.5,-336.7"/>
<text text-anchor="start" x="135.4896" y="-344.4" font-family="Helvetica,sans-Serif" font-size="11.00" fill="#000000">timestamp(6) with time zone[13,6]</text>
<polygon fill="none" stroke="#000000" points="10.5,-314.7 10.5,-336.7 132.5,-336.7 132.5,-314.7 10.5,-314.7"/>
<text text-anchor="start" x="30.5" y="-321.8" font-family="Helvetica,sans-Serif" font-size="11.00" fill="#000000">UPDATED_BY</text>
<polygon fill="none" stroke="#000000" points="132.5,-314.7 132.5,-336.7 303.5,-336.7 303.5,-314.7 132.5,-314.7"/>
<text text-anchor="start" x="135.5" y="-322.4" font-family="Helvetica,sans-Serif" font-size="11.00" fill="#000000">number[19]</text>
<polygon fill="none" stroke="#000000" points="10.5,-292.7 10.5,-314.7 132.5,-314.7 132.5,-292.7 10.5,-292.7"/>
<text text-anchor="start" x="30.5" y="-299.8" font-family="Helvetica,sans-Serif" font-size="11.00" fill="#000000">NAME</text>
<polygon fill="none" stroke="#000000" points="132.5,-292.7 132.5,-314.7 303.5,-314.7 303.5,-292.7 132.5,-292.7"/>
<text text-anchor="start" x="135.5" y="-300.4" font-family="Helvetica,sans-Serif" font-size="11.00" fill="#000000">varchar2[255]</text>
<polygon fill="#ffffff" stroke="transparent" points="10.5,-273.7 10.5,-292.7 59.5,-292.7 59.5,-273.7 10.5,-273.7"/>
<polygon fill="none" stroke="#000000" points="10.5,-273.7 10.5,-292.7 59.5,-292.7 59.5,-273.7 10.5,-273.7"/>
<text text-anchor="start" x="13.5" y="-279.8" font-family="Helvetica,sans-Serif" font-size="11.00" fill="#000000">&lt; 0</text>
<polygon fill="#ffffff" stroke="transparent" points="59.5,-273.7 59.5,-292.7 132.5,-292.7 132.5,-273.7 59.5,-273.7"/>
<polygon fill="none" stroke="#000000" points="59.5,-273.7 59.5,-292.7 132.5,-292.7 132.5,-273.7 59.5,-273.7"/>
<text text-anchor="start" x="90.9956" y="-279.8" font-family="Helvetica,sans-Serif" font-size="11.00" fill="#000000">12 rows</text>
<polygon fill="#ffffff" stroke="transparent" points="132.5,-273.7 132.5,-292.7 303.5,-292.7 303.5,-273.7 132.5,-273.7"/>
<polygon fill="none" stroke="#000000" points="132.5,-273.7 132.5,-292.7 303.5,-292.7 303.5,-273.7 132.5,-273.7"/>
<text text-anchor="start" x="284.9053" y="-279.8" font-family="Helvetica,sans-Serif" font-size="11.00" fill="#000000">2 &gt;</text>
<polygon fill="none" stroke="#000000" stroke-width="2" points="9,-272.7 9,-448.7 304,-448.7 304,-272.7 9,-272.7"/>
</a>
</g>
</g>
<!-- TRACER_LIGANDS&#45;&gt;TRACER_TYPES -->
<g id="edge1" class="edge">
<title>TRACER_LIGANDS:w&#45;&gt;TRACER_TYPES:e</title>
<path fill="none" stroke="#000000" d="M340.5669,-494.368C319.0746,-477.0466 341.5328,-413.7 303.5,-413.7"/>
<polygon fill="#000000" stroke="#000000" points="346.8607,-496.3248 353.4312,-502.1377 350.6804,-497.5124 354.5,-498.7 354.5,-498.7 354.5,-498.7 350.6804,-497.5124 355.5688,-495.2623 346.8607,-496.3248 346.8607,-496.3248"/>
<ellipse fill="none" stroke="#000000" cx="343.805" cy="-495.3747" rx="3.2" ry="3.2"/>
</g>
<!-- TRACER_SYNTHESIS_REQUESTS -->
<g id="node3" class="node">
<title>TRACER_SYNTHESIS_REQUESTS</title>
<g id="a_node3"><a xlink:href="../../tables/TRACER_SYNTHESIS_REQUESTS.html" xlink:title="TRACER_SYNTHESIS_REQUESTS" target="_top">
<polygon fill="#ffffff" stroke="transparent" points="363.5,-38.2 363.5,-385.2 595.5,-385.2 595.5,-38.2 363.5,-38.2"/>
<polygon fill="#f5f5f5" stroke="transparent" points="363.5,-361.7 363.5,-384.7 595.5,-384.7 595.5,-361.7 363.5,-361.7"/>
<polygon fill="none" stroke="#000000" points="363.5,-361.7 363.5,-384.7 595.5,-384.7 595.5,-361.7 363.5,-361.7"/>
<text text-anchor="start" x="368.5" y="-370.8" font-family="Helvetica,sans-Serif" font-weight="bold" font-size="11.00" fill="#000000">TRACER_SYNTHESIS_REQUESTS</text>
<text text-anchor="start" x="560.5437" y="-369.8" font-family="Helvetica,sans-Serif" font-size="11.00" fill="#000000">[table]</text>
<polygon fill="none" stroke="#000000" points="363.5,-339.7 363.5,-361.7 595.5,-361.7 595.5,-339.7 363.5,-339.7"/>
<image xlink:href="../../images/primaryKeys.png" width="11px" height="12px" preserveAspectRatio="xMinYMin meet" x="368.5" y="-356.7"/>
<text text-anchor="start" x="383.5" y="-346.8" font-family="Helvetica,sans-Serif" font-size="11.00" fill="#000000">ID</text>
<polygon fill="none" stroke="#000000" points="363.5,-317.7 363.5,-339.7 595.5,-339.7 595.5,-317.7 363.5,-317.7"/>
<image xlink:href="../../images/foreignKeys.png" width="11px" height="12px" preserveAspectRatio="xMinYMin meet" x="368.5" y="-334.7"/>
<text text-anchor="start" x="383.5" y="-324.8" font-family="Helvetica,sans-Serif" font-size="11.00" fill="#000000">TRACER_TYPE_ID</text>
<polygon fill="none" stroke="#000000" points="363.5,-295.7 363.5,-317.7 595.5,-317.7 595.5,-295.7 363.5,-295.7"/>
<image xlink:href="../../images/foreignKeys.png" width="11px" height="12px" preserveAspectRatio="xMinYMin meet" x="368.5" y="-312.7"/>
<text text-anchor="start" x="383.5" y="-302.8" font-family="Helvetica,sans-Serif" font-size="11.00" fill="#000000">TARGET_ID</text>
<polygon fill="none" stroke="#000000" points="363.5,-273.7 363.5,-295.7 595.5,-295.7 595.5,-273.7 363.5,-273.7"/>
<image xlink:href="../../images/foreignKeys.png" width="11px" height="12px" preserveAspectRatio="xMinYMin meet" x="368.5" y="-290.7"/>
<text text-anchor="start" x="383.5" y="-280.8" font-family="Helvetica,sans-Serif" font-size="11.00" fill="#000000">OFF_DNA_ID</text>
<polygon fill="none" stroke="#000000" points="363.5,-251.7 363.5,-273.7 595.5,-273.7 595.5,-251.7 363.5,-251.7"/>
<image xlink:href="../../images/foreignKeys.png" width="11px" height="12px" preserveAspectRatio="xMinYMin meet" x="368.5" y="-268.7"/>
<text text-anchor="start" x="383.5" y="-258.8" font-family="Helvetica,sans-Serif" font-size="11.00" fill="#000000">OFF_DNA_IC50_ID</text>
<polygon fill="none" stroke="#000000" points="363.5,-229.7 363.5,-251.7 595.5,-251.7 595.5,-229.7 363.5,-229.7"/>
<image xlink:href="../../images/foreignKeys.png" width="11px" height="12px" preserveAspectRatio="xMinYMin meet" x="368.5" y="-246.7"/>
<text text-anchor="start" x="383.5" y="-236.8" font-family="Helvetica,sans-Serif" font-size="11.00" fill="#000000">TARGET_FORM_ID</text>
<polygon fill="none" stroke="#000000" points="363.5,-207.7 363.5,-229.7 595.5,-229.7 595.5,-207.7 363.5,-207.7"/>
<image xlink:href="../../images/foreignKeys.png" width="11px" height="12px" preserveAspectRatio="xMinYMin meet" x="368.5" y="-224.7"/>
<text text-anchor="start" x="383.5" y="-214.8" font-family="Helvetica,sans-Serif" font-size="11.00" fill="#000000">ASSIGNEE_ID</text>
<polygon fill="none" stroke="#000000" points="363.5,-185.7 363.5,-207.7 595.5,-207.7 595.5,-185.7 363.5,-185.7"/>
<image xlink:href="../../images/foreignKeys.png" width="11px" height="12px" preserveAspectRatio="xMinYMin meet" x="368.5" y="-202.7"/>
<text text-anchor="start" x="383.5" y="-192.8" font-family="Helvetica,sans-Serif" font-size="11.00" fill="#000000">TARGET_CATEGORY_ID</text>
<polygon fill="none" stroke="#000000" points="363.5,-163.7 363.5,-185.7 595.5,-185.7 595.5,-163.7 363.5,-163.7"/>
<image xlink:href="../../images/foreignKeys.png" width="11px" height="12px" preserveAspectRatio="xMinYMin meet" x="368.5" y="-180.7"/>
<text text-anchor="start" x="383.5" y="-170.8" font-family="Helvetica,sans-Serif" font-size="11.00" fill="#000000">CHEMISTRY_ID</text>
<polygon fill="none" stroke="#000000" points="363.5,-141.7 363.5,-163.7 595.5,-163.7 595.5,-141.7 363.5,-141.7"/>
<image xlink:href="../../images/foreignKeys.png" width="11px" height="12px" preserveAspectRatio="xMinYMin meet" x="368.5" y="-158.7"/>
<text text-anchor="start" x="383.5" y="-148.8" font-family="Helvetica,sans-Serif" font-size="11.00" fill="#000000">REGISTRATION_ID</text>
<polygon fill="none" stroke="#000000" points="363.5,-119.7 363.5,-141.7 595.5,-141.7 595.5,-119.7 363.5,-119.7"/>
<image xlink:href="../../images/foreignKeys.png" width="11px" height="12px" preserveAspectRatio="xMinYMin meet" x="368.5" y="-136.7"/>
<text text-anchor="start" x="383.5" y="-126.8" font-family="Helvetica,sans-Serif" font-size="11.00" fill="#000000">HEAD_PIECE_ID</text>
<polygon fill="none" stroke="#000000" points="363.5,-97.7 363.5,-119.7 595.5,-119.7 595.5,-97.7 363.5,-97.7"/>
<image xlink:href="../../images/foreignKeys.png" width="11px" height="12px" preserveAspectRatio="xMinYMin meet" x="368.5" y="-114.7"/>
<text text-anchor="start" x="383.5" y="-104.8" font-family="Helvetica,sans-Serif" font-size="11.00" fill="#000000">QUANTIFICATION_METHOD_ID</text>
<polygon fill="none" stroke="#000000" points="363.5,-75.7 363.5,-97.7 595.5,-97.7 595.5,-75.7 363.5,-75.7"/>
<image xlink:href="../../images/foreignKeys.png" width="11px" height="12px" preserveAspectRatio="xMinYMin meet" x="368.5" y="-92.7"/>
<text text-anchor="start" x="383.5" y="-82.8" font-family="Helvetica,sans-Serif" font-size="11.00" fill="#000000">DELIVERED_CONDITION_ID</text>
<polygon fill="none" stroke="#000000" points="363.5,-56.7 363.5,-75.7 595.5,-75.7 595.5,-56.7 363.5,-56.7"/>
<text text-anchor="start" x="366.5" y="-62.8" font-family="Helvetica,sans-Serif" font-size="11.00" fill="#000000">...</text>
<polygon fill="#ffffff" stroke="transparent" points="363.5,-37.7 363.5,-56.7 460.5,-56.7 460.5,-37.7 363.5,-37.7"/>
<polygon fill="none" stroke="#000000" points="363.5,-37.7 363.5,-56.7 460.5,-56.7 460.5,-37.7 363.5,-37.7"/>
<text text-anchor="start" x="366.5" y="-43.8" font-family="Helvetica,sans-Serif" font-size="11.00" fill="#000000">&lt; 12</text>
<polygon fill="#ffffff" stroke="transparent" points="460.5,-37.7 460.5,-56.7 539.5,-56.7 539.5,-37.7 460.5,-37.7"/>
<polygon fill="none" stroke="#000000" points="460.5,-37.7 460.5,-56.7 539.5,-56.7 539.5,-37.7 460.5,-37.7"/>
<text text-anchor="start" x="497.9956" y="-43.8" font-family="Helvetica,sans-Serif" font-size="11.00" fill="#000000">21 rows</text>
<polygon fill="#ffffff" stroke="transparent" points="539.5,-37.7 539.5,-56.7 595.5,-56.7 595.5,-37.7 539.5,-37.7"/>
<polygon fill="none" stroke="#000000" points="539.5,-37.7 539.5,-56.7 595.5,-56.7 595.5,-37.7 539.5,-37.7"/>
<text text-anchor="start" x="576.9053" y="-43.8" font-family="Helvetica,sans-Serif" font-size="11.00" fill="#000000">2 &gt;</text>
</a>
</g>
</g>
<!-- TRACER_SYNTHESIS_REQUESTS&#45;&gt;TRACER_TYPES -->
<g id="edge2" class="edge">
<title>TRACER_SYNTHESIS_REQUESTS:w&#45;&gt;TRACER_TYPES:e</title>
<path fill="none" stroke="#000000" d="M349.5421,-332.3523C324.1492,-348.6219 343.9613,-413.7 303.5,-413.7"/>
<polygon fill="#000000" stroke="#000000" points="355.7606,-330.7252 364.4113,-332.1827 359.6303,-329.7126 363.5,-328.7 363.5,-328.7 363.5,-328.7 359.6303,-329.7126 362.5887,-325.2173 355.7606,-330.7252 355.7606,-330.7252"/>
<ellipse fill="none" stroke="#000000" cx="352.6648" cy="-331.5353" rx="3.2" ry="3.2"/>
</g>
</g>
</svg>
