<?xml version="1.0" encoding="UTF-8" standalone="no"?>
<!DOCTYPE svg PUBLIC "-//W3C//DTD SVG 1.1//EN"
 "http://www.w3.org/Graphics/SVG/1.1/DTD/svg11.dtd">
<!-- Generated by graphviz version 2.40.1 (20161225.0304)
 -->
<!-- Title: oneDegreeRelationshipsDiagram Pages: 1 -->
<svg width="637pt" height="293pt"
 viewBox="0.00 0.00 637.00 292.70" xmlns="http://www.w3.org/2000/svg" xmlns:xlink="http://www.w3.org/1999/xlink">
<g id="graph0" class="graph" transform="scale(1 1) rotate(0) translate(4 288.7)">
<title>oneDegreeRelationshipsDiagram</title>
<polygon fill="#ffffff" stroke="transparent" points="-4,4 -4,-288.7 633,-288.7 633,4 -4,4"/>
<text text-anchor="middle" x="72.4936" y="-7.3" font-family="Helvetica,sans-Serif" font-size="11.00" fill="#000000">Generated by SchemaSpy</text>
<!-- VERSIONS_TRACERS -->
<g id="node1" class="node">
<title>VERSIONS_TRACERS</title>
<g id="a_node1"><a xlink:href="../../tables/VERSIONS_TRACERS.html" xlink:title="VERSIONS_TRACERS" target="_top">
<polygon fill="#ffffff" stroke="transparent" points="463,-153.7 463,-280.7 621,-280.7 621,-153.7 463,-153.7"/>
<polygon fill="#f5f5f5" stroke="transparent" points="463,-257.2 463,-280.2 621,-280.2 621,-257.2 463,-257.2"/>
<polygon fill="none" stroke="#000000" points="463,-257.2 463,-280.2 621,-280.2 621,-257.2 463,-257.2"/>
<text text-anchor="start" x="467.7478" y="-266.3" font-family="Helvetica,sans-Serif" font-weight="bold" font-size="11.00" fill="#000000">VERSIONS_TRACERS</text>
<text text-anchor="start" x="586.5219" y="-265.3" font-family="Helvetica,sans-Serif" font-size="11.00" fill="#000000">[table]</text>
<polygon fill="none" stroke="#000000" points="463,-235.2 463,-257.2 621,-257.2 621,-235.2 463,-235.2"/>
<image xlink:href="../../images/primaryKeys.png" width="11px" height="12px" preserveAspectRatio="xMinYMin meet" x="468" y="-252.2"/>
<text text-anchor="start" x="484" y="-242.3" font-family="Helvetica,sans-Serif" font-size="11.00" fill="#000000">ID</text>
<polygon fill="none" stroke="#000000" points="463,-213.2 463,-235.2 621,-235.2 621,-213.2 463,-213.2"/>
<image xlink:href="../../images/primaryKeys.png" width="11px" height="12px" preserveAspectRatio="xMinYMin meet" x="468" y="-230.2"/>
<text text-anchor="start" x="484" y="-220.3" font-family="Helvetica,sans-Serif" font-size="11.00" fill="#000000">VERSION_ID</text>
<polygon fill="none" stroke="#000000" points="463,-191.2 463,-213.2 621,-213.2 621,-191.2 463,-191.2"/>
<image xlink:href="../../images/primaryKeys.png" width="11px" height="12px" preserveAspectRatio="xMinYMin meet" x="468" y="-208.2"/>
<text text-anchor="start" x="484" y="-198.3" font-family="Helvetica,sans-Serif" font-size="11.00" fill="#000000">TRACER_ID</text>
<polygon fill="none" stroke="#000000" points="463,-172.2 463,-191.2 621,-191.2 621,-172.2 463,-172.2"/>
<text text-anchor="start" x="466" y="-178.3" font-family="Helvetica,sans-Serif" font-size="11.00" fill="#000000">...</text>
<polygon fill="#ffffff" stroke="transparent" points="463,-153.2 463,-172.2 512,-172.2 512,-153.2 463,-153.2"/>
<polygon fill="none" stroke="#000000" points="463,-153.2 463,-172.2 512,-172.2 512,-153.2 463,-153.2"/>
<text text-anchor="start" x="466" y="-159.3" font-family="Helvetica,sans-Serif" font-size="11.00" fill="#000000">&lt; 2</text>
<polygon fill="#ffffff" stroke="transparent" points="512,-153.2 512,-172.2 585,-172.2 585,-153.2 512,-153.2"/>
<polygon fill="none" stroke="#000000" points="512,-153.2 512,-172.2 585,-172.2 585,-153.2 512,-153.2"/>
<text text-anchor="start" x="528.2089" y="-159.3" font-family="Helvetica,sans-Serif" font-size="11.00" fill="#000000">1,279 rows</text>
<polygon fill="#ffffff" stroke="transparent" points="585,-153.2 585,-172.2 621,-172.2 621,-153.2 585,-153.2"/>
<polygon fill="none" stroke="#000000" points="585,-153.2 585,-172.2 621,-172.2 621,-153.2 585,-153.2"/>
<text text-anchor="start" x="602.4053" y="-159.3" font-family="Helvetica,sans-Serif" font-size="11.00" fill="#000000">2 &gt;</text>
</a>
</g>
</g>
<!-- TRACERS -->
<g id="node2" class="node">
<title>TRACERS</title>
<g id="a_node2"><a xlink:href="../../tables/TRACERS.html" xlink:title="TRACERS" target="_top">
<polygon fill="#ffffff" stroke="transparent" points="8,-38.2 8,-238.2 414,-238.2 414,-38.2 8,-38.2"/>
<polygon fill="#f5f5f5" stroke="transparent" points="10,-213.2 10,-236.2 412,-236.2 412,-213.2 10,-213.2"/>
<polygon fill="none" stroke="#000000" points="10,-213.2 10,-236.2 412,-236.2 412,-213.2 10,-213.2"/>
<text text-anchor="start" x="15" y="-222.3" font-family="Helvetica,sans-Serif" font-weight="bold" font-size="11.00" fill="#000000">TRACERS</text>
<text text-anchor="start" x="377.0437" y="-221.3" font-family="Helvetica,sans-Serif" font-size="11.00" fill="#000000">[table]</text>
<polygon fill="none" stroke="#000000" points="10,-191.2 10,-213.2 241,-213.2 241,-191.2 10,-191.2"/>
<image xlink:href="../../images/primaryKeys.png" width="11px" height="12px" preserveAspectRatio="xMinYMin meet" x="15" y="-208.2"/>
<text text-anchor="start" x="30" y="-198.3" font-family="Helvetica,sans-Serif" font-size="11.00" fill="#000000">ID</text>
<polygon fill="none" stroke="#000000" points="241,-191.2 241,-213.2 412,-213.2 412,-191.2 241,-191.2"/>
<text text-anchor="start" x="244" y="-198.9" font-family="Helvetica,sans-Serif" font-size="11.00" fill="#000000">number[19]</text>
<polygon fill="none" stroke="#000000" points="10,-169.2 10,-191.2 241,-191.2 241,-169.2 10,-169.2"/>
<text text-anchor="start" x="30" y="-176.3" font-family="Helvetica,sans-Serif" font-size="11.00" fill="#000000">CREATED_AT</text>
<polygon fill="none" stroke="#000000" points="241,-169.2 241,-191.2 412,-191.2 412,-169.2 241,-169.2"/>
<text text-anchor="start" x="243.9896" y="-176.9" font-family="Helvetica,sans-Serif" font-size="11.00" fill="#000000">timestamp(6) with time zone[13,6]</text>
<polygon fill="none" stroke="#000000" points="10,-147.2 10,-169.2 241,-169.2 241,-147.2 10,-147.2"/>
<text text-anchor="start" x="30" y="-154.3" font-family="Helvetica,sans-Serif" font-size="11.00" fill="#000000">CREATED_BY</text>
<polygon fill="none" stroke="#000000" points="241,-147.2 241,-169.2 412,-169.2 412,-147.2 241,-147.2"/>
<text text-anchor="start" x="244" y="-154.9" font-family="Helvetica,sans-Serif" font-size="11.00" fill="#000000">number[19]</text>
<polygon fill="none" stroke="#000000" points="10,-125.2 10,-147.2 241,-147.2 241,-125.2 10,-125.2"/>
<text text-anchor="start" x="30" y="-132.3" font-family="Helvetica,sans-Serif" font-size="11.00" fill="#000000">UPDATED_AT</text>
<polygon fill="none" stroke="#000000" points="241,-125.2 241,-147.2 412,-147.2 412,-125.2 241,-125.2"/>
<text text-anchor="start" x="243.9896" y="-132.9" font-family="Helvetica,sans-Serif" font-size="11.00" fill="#000000">timestamp(6) with time zone[13,6]</text>
<polygon fill="none" stroke="#000000" points="10,-103.2 10,-125.2 241,-125.2 241,-103.2 10,-103.2"/>
<text text-anchor="start" x="30" y="-110.3" font-family="Helvetica,sans-Serif" font-size="11.00" fill="#000000">UPDATED_BY</text>
<polygon fill="none" stroke="#000000" points="241,-103.2 241,-125.2 412,-125.2 412,-103.2 241,-103.2"/>
<text text-anchor="start" x="244" y="-110.9" font-family="Helvetica,sans-Serif" font-size="11.00" fill="#000000">number[19]</text>
<polygon fill="none" stroke="#000000" points="10,-81.2 10,-103.2 241,-103.2 241,-81.2 10,-81.2"/>
<text text-anchor="start" x="30" y="-88.3" font-family="Helvetica,sans-Serif" font-size="11.00" fill="#000000">NAME</text>
<polygon fill="none" stroke="#000000" points="241,-81.2 241,-103.2 412,-103.2 412,-81.2 241,-81.2"/>
<text text-anchor="start" x="244" y="-88.9" font-family="Helvetica,sans-Serif" font-size="11.00" fill="#000000">varchar2[255]</text>
<polygon fill="none" stroke="#000000" points="10,-59.2 10,-81.2 241,-81.2 241,-59.2 10,-59.2"/>
<text text-anchor="start" x="30" y="-66.3" font-family="Helvetica,sans-Serif" font-size="11.00" fill="#000000">LITERATURE_SAME_AS_PARENT</text>
<polygon fill="none" stroke="#000000" points="241,-59.2 241,-81.2 412,-81.2 412,-59.2 241,-59.2"/>
<text text-anchor="start" x="244" y="-66.9" font-family="Helvetica,sans-Serif" font-size="11.00" fill="#000000">number[19]</text>
<polygon fill="#ffffff" stroke="transparent" points="10,-40.2 10,-59.2 111,-59.2 111,-40.2 10,-40.2"/>
<polygon fill="none" stroke="#000000" points="10,-40.2 10,-59.2 111,-59.2 111,-40.2 10,-40.2"/>
<text text-anchor="start" x="13" y="-46.3" font-family="Helvetica,sans-Serif" font-size="11.00" fill="#000000">&lt; 0</text>
<polygon fill="#ffffff" stroke="transparent" points="111,-40.2 111,-59.2 241,-59.2 241,-40.2 111,-40.2"/>
<polygon fill="none" stroke="#000000" points="111,-40.2 111,-59.2 241,-59.2 241,-40.2 111,-40.2"/>
<text text-anchor="start" x="193.3807" y="-46.3" font-family="Helvetica,sans-Serif" font-size="11.00" fill="#000000">163 rows</text>
<polygon fill="#ffffff" stroke="transparent" points="241,-40.2 241,-59.2 412,-59.2 412,-40.2 241,-40.2"/>
<polygon fill="none" stroke="#000000" points="241,-40.2 241,-59.2 412,-59.2 412,-40.2 241,-40.2"/>
<text text-anchor="start" x="393.4053" y="-46.3" font-family="Helvetica,sans-Serif" font-size="11.00" fill="#000000">1 &gt;</text>
<polygon fill="none" stroke="#000000" stroke-width="2" points="9,-39.2 9,-237.2 413,-237.2 413,-39.2 9,-39.2"/>
</a>
</g>
</g>
<!-- VERSIONS_TRACERS&#45;&gt;TRACERS -->
<g id="edge1" class="edge">
<title>VERSIONS_TRACERS:w&#45;&gt;TRACERS:e</title>
<path fill="none" stroke="#000000" d="M448.276,-202.2C436.2815,-202.2 428.8229,-202.2 412,-202.2"/>
<polygon fill="#000000" stroke="#000000" points="455,-202.2001 463,-205.8 459,-202.2 463,-202.2 463,-202.2 463,-202.2 459,-202.2 463,-198.6 455,-202.2001 455,-202.2001"/>
<ellipse fill="none" stroke="#000000" cx="451.8" cy="-202.2001" rx="3.2" ry="3.2"/>
</g>
</g>
</svg>
