<?xml version="1.0" encoding="UTF-8" standalone="no"?>
<!DOCTYPE svg PUBLIC "-//W3C//DTD SVG 1.1//EN"
 "http://www.w3.org/Graphics/SVG/1.1/DTD/svg11.dtd">
<!-- Generated by graphviz version 2.40.1 (20161225.0304)
 -->
<!-- Title: oneDegreeRelationshipsDiagram Pages: 1 -->
<svg width="613pt" height="1603pt"
 viewBox="0.00 0.00 613.00 1603.20" xmlns="http://www.w3.org/2000/svg" xmlns:xlink="http://www.w3.org/1999/xlink">
<g id="graph0" class="graph" transform="scale(1 1) rotate(0) translate(4 1599.2)">
<title>oneDegreeRelationshipsDiagram</title>
<polygon fill="#ffffff" stroke="transparent" points="-4,4 -4,-1599.2 609,-1599.2 609,4 -4,4"/>
<text text-anchor="middle" x="72.4936" y="-7.3" font-family="Helvetica,sans-Serif" font-size="11.00" fill="#000000">Generated by SchemaSpy</text>
<!-- CLONE_FORM_COMMENTS -->
<g id="node1" class="node">
<title>CLONE_FORM_COMMENTS</title>
<g id="a_node1"><a xlink:href="../../tables/CLONE_FORM_COMMENTS.html" xlink:title="CLONE_FORM_COMMENTS" target="_top">
<polygon fill="#ffffff" stroke="transparent" points="374,-1464.2 374,-1591.2 569,-1591.2 569,-1464.2 374,-1464.2"/>
<polygon fill="#f5f5f5" stroke="transparent" points="374.5,-1567.7 374.5,-1590.7 569.5,-1590.7 569.5,-1567.7 374.5,-1567.7"/>
<polygon fill="none" stroke="#000000" points="374.5,-1567.7 374.5,-1590.7 569.5,-1590.7 569.5,-1567.7 374.5,-1567.7"/>
<text text-anchor="start" x="379.5" y="-1576.8" font-family="Helvetica,sans-Serif" font-weight="bold" font-size="11.00" fill="#000000">CLONE_FORM_COMMENTS</text>
<text text-anchor="start" x="534.5437" y="-1575.8" font-family="Helvetica,sans-Serif" font-size="11.00" fill="#000000">[table]</text>
<polygon fill="none" stroke="#000000" points="374.5,-1545.7 374.5,-1567.7 569.5,-1567.7 569.5,-1545.7 374.5,-1545.7"/>
<image xlink:href="../../images/primaryKeys.png" width="11px" height="12px" preserveAspectRatio="xMinYMin meet" x="379.5" y="-1562.7"/>
<text text-anchor="start" x="394.5" y="-1552.8" font-family="Helvetica,sans-Serif" font-size="11.00" fill="#000000">ID</text>
<polygon fill="none" stroke="#000000" points="374.5,-1523.7 374.5,-1545.7 569.5,-1545.7 569.5,-1523.7 374.5,-1523.7"/>
<image xlink:href="../../images/foreignKeys.png" width="11px" height="12px" preserveAspectRatio="xMinYMin meet" x="379.5" y="-1540.7"/>
<text text-anchor="start" x="394.5" y="-1530.8" font-family="Helvetica,sans-Serif" font-size="11.00" fill="#000000">CLONE_FORM_ID</text>
<polygon fill="none" stroke="#000000" points="374.5,-1501.7 374.5,-1523.7 569.5,-1523.7 569.5,-1501.7 374.5,-1501.7"/>
<image xlink:href="../../images/foreignKeys.png" width="11px" height="12px" preserveAspectRatio="xMinYMin meet" x="379.5" y="-1518.7"/>
<text text-anchor="start" x="394.5" y="-1508.8" font-family="Helvetica,sans-Serif" font-size="11.00" fill="#000000">USER_ID</text>
<polygon fill="none" stroke="#000000" points="374.5,-1482.7 374.5,-1501.7 569.5,-1501.7 569.5,-1482.7 374.5,-1482.7"/>
<text text-anchor="start" x="377.5" y="-1488.8" font-family="Helvetica,sans-Serif" font-size="11.00" fill="#000000">...</text>
<polygon fill="#ffffff" stroke="transparent" points="374.5,-1463.7 374.5,-1482.7 460.5,-1482.7 460.5,-1463.7 374.5,-1463.7"/>
<polygon fill="none" stroke="#000000" points="374.5,-1463.7 374.5,-1482.7 460.5,-1482.7 460.5,-1463.7 374.5,-1463.7"/>
<text text-anchor="start" x="377.5" y="-1469.8" font-family="Helvetica,sans-Serif" font-size="11.00" fill="#000000">&lt; 2</text>
<polygon fill="#ffffff" stroke="transparent" points="460.5,-1463.7 460.5,-1482.7 524.5,-1482.7 524.5,-1463.7 460.5,-1463.7"/>
<polygon fill="none" stroke="#000000" points="460.5,-1463.7 460.5,-1482.7 524.5,-1482.7 524.5,-1463.7 460.5,-1463.7"/>
<text text-anchor="start" x="494.6105" y="-1469.8" font-family="Helvetica,sans-Serif" font-size="11.00" fill="#000000">1 row</text>
<polygon fill="#ffffff" stroke="transparent" points="524.5,-1463.7 524.5,-1482.7 569.5,-1482.7 569.5,-1463.7 524.5,-1463.7"/>
<polygon fill="none" stroke="#000000" points="524.5,-1463.7 524.5,-1482.7 569.5,-1482.7 569.5,-1463.7 524.5,-1463.7"/>
<text text-anchor="start" x="560.3862" y="-1469.8" font-family="Helvetica,sans-Serif" font-size="11.00" fill="#000000"> &#160;</text>
</a>
</g>
</g>
<!-- USERS -->
<g id="node2" class="node">
<title>USERS</title>
<g id="a_node2"><a xlink:href="../../tables/USERS.html" xlink:title="USERS" target="_top">
<polygon fill="#ffffff" stroke="transparent" points="8,-668.7 8,-978.7 297,-978.7 297,-668.7 8,-668.7"/>
<polygon fill="#f5f5f5" stroke="transparent" points="10.5,-953.7 10.5,-976.7 295.5,-976.7 295.5,-953.7 10.5,-953.7"/>
<polygon fill="none" stroke="#000000" points="10.5,-953.7 10.5,-976.7 295.5,-976.7 295.5,-953.7 10.5,-953.7"/>
<text text-anchor="start" x="15.5" y="-962.8" font-family="Helvetica,sans-Serif" font-weight="bold" font-size="11.00" fill="#000000">USERS</text>
<text text-anchor="start" x="260.5437" y="-961.8" font-family="Helvetica,sans-Serif" font-size="11.00" fill="#000000">[table]</text>
<polygon fill="none" stroke="#000000" points="10.5,-931.7 10.5,-953.7 124.5,-953.7 124.5,-931.7 10.5,-931.7"/>
<image xlink:href="../../images/primaryKeys.png" width="11px" height="12px" preserveAspectRatio="xMinYMin meet" x="15.5" y="-948.7"/>
<text text-anchor="start" x="30.5" y="-938.8" font-family="Helvetica,sans-Serif" font-size="11.00" fill="#000000">ID</text>
<polygon fill="none" stroke="#000000" points="124.5,-931.7 124.5,-953.7 295.5,-953.7 295.5,-931.7 124.5,-931.7"/>
<text text-anchor="start" x="127.5" y="-939.4" font-family="Helvetica,sans-Serif" font-size="11.00" fill="#000000">number[19]</text>
<polygon fill="none" stroke="#000000" points="10.5,-909.7 10.5,-931.7 124.5,-931.7 124.5,-909.7 10.5,-909.7"/>
<text text-anchor="start" x="30.5" y="-916.8" font-family="Helvetica,sans-Serif" font-size="11.00" fill="#000000">CREATED_AT</text>
<polygon fill="none" stroke="#000000" points="124.5,-909.7 124.5,-931.7 295.5,-931.7 295.5,-909.7 124.5,-909.7"/>
<text text-anchor="start" x="127.4896" y="-917.4" font-family="Helvetica,sans-Serif" font-size="11.00" fill="#000000">timestamp(6) with time zone[13,6]</text>
<polygon fill="none" stroke="#000000" points="10.5,-887.7 10.5,-909.7 124.5,-909.7 124.5,-887.7 10.5,-887.7"/>
<text text-anchor="start" x="30.5" y="-894.8" font-family="Helvetica,sans-Serif" font-size="11.00" fill="#000000">CREATED_BY</text>
<polygon fill="none" stroke="#000000" points="124.5,-887.7 124.5,-909.7 295.5,-909.7 295.5,-887.7 124.5,-887.7"/>
<text text-anchor="start" x="127.5" y="-895.4" font-family="Helvetica,sans-Serif" font-size="11.00" fill="#000000">number[19]</text>
<polygon fill="none" stroke="#000000" points="10.5,-865.7 10.5,-887.7 124.5,-887.7 124.5,-865.7 10.5,-865.7"/>
<text text-anchor="start" x="30.5" y="-872.8" font-family="Helvetica,sans-Serif" font-size="11.00" fill="#000000">UPDATED_AT</text>
<polygon fill="none" stroke="#000000" points="124.5,-865.7 124.5,-887.7 295.5,-887.7 295.5,-865.7 124.5,-865.7"/>
<text text-anchor="start" x="127.4896" y="-873.4" font-family="Helvetica,sans-Serif" font-size="11.00" fill="#000000">timestamp(6) with time zone[13,6]</text>
<polygon fill="none" stroke="#000000" points="10.5,-843.7 10.5,-865.7 124.5,-865.7 124.5,-843.7 10.5,-843.7"/>
<text text-anchor="start" x="30.5" y="-850.8" font-family="Helvetica,sans-Serif" font-size="11.00" fill="#000000">UPDATED_BY</text>
<polygon fill="none" stroke="#000000" points="124.5,-843.7 124.5,-865.7 295.5,-865.7 295.5,-843.7 124.5,-843.7"/>
<text text-anchor="start" x="127.5" y="-851.4" font-family="Helvetica,sans-Serif" font-size="11.00" fill="#000000">number[19]</text>
<polygon fill="none" stroke="#000000" points="10.5,-821.7 10.5,-843.7 124.5,-843.7 124.5,-821.7 10.5,-821.7"/>
<text text-anchor="start" x="30.5" y="-828.8" font-family="Helvetica,sans-Serif" font-size="11.00" fill="#000000">AVATAR</text>
<polygon fill="none" stroke="#000000" points="124.5,-821.7 124.5,-843.7 295.5,-843.7 295.5,-821.7 124.5,-821.7"/>
<text text-anchor="start" x="127.5" y="-829.4" font-family="Helvetica,sans-Serif" font-size="11.00" fill="#000000">varchar2[255]</text>
<polygon fill="none" stroke="#000000" points="10.5,-799.7 10.5,-821.7 124.5,-821.7 124.5,-799.7 10.5,-799.7"/>
<text text-anchor="start" x="30.5" y="-806.8" font-family="Helvetica,sans-Serif" font-size="11.00" fill="#000000">DESCRIPTION</text>
<polygon fill="none" stroke="#000000" points="124.5,-799.7 124.5,-821.7 295.5,-821.7 295.5,-799.7 124.5,-799.7"/>
<text text-anchor="start" x="127.5" y="-807.4" font-family="Helvetica,sans-Serif" font-size="11.00" fill="#000000">clob[4000]</text>
<polygon fill="none" stroke="#000000" points="10.5,-777.7 10.5,-799.7 124.5,-799.7 124.5,-777.7 10.5,-777.7"/>
<text text-anchor="start" x="30.5" y="-784.8" font-family="Helvetica,sans-Serif" font-size="11.00" fill="#000000">DESIGNATION</text>
<polygon fill="none" stroke="#000000" points="124.5,-777.7 124.5,-799.7 295.5,-799.7 295.5,-777.7 124.5,-777.7"/>
<text text-anchor="start" x="127.5" y="-785.4" font-family="Helvetica,sans-Serif" font-size="11.00" fill="#000000">varchar2[255]</text>
<polygon fill="none" stroke="#000000" points="10.5,-755.7 10.5,-777.7 124.5,-777.7 124.5,-755.7 10.5,-755.7"/>
<text text-anchor="start" x="30.5" y="-762.8" font-family="Helvetica,sans-Serif" font-size="11.00" fill="#000000">NAME</text>
<polygon fill="none" stroke="#000000" points="124.5,-755.7 124.5,-777.7 295.5,-777.7 295.5,-755.7 124.5,-755.7"/>
<text text-anchor="start" x="127.5" y="-763.4" font-family="Helvetica,sans-Serif" font-size="11.00" fill="#000000">varchar2[255]</text>
<polygon fill="none" stroke="#000000" points="10.5,-733.7 10.5,-755.7 124.5,-755.7 124.5,-733.7 10.5,-733.7"/>
<image xlink:href="../../images/primaryKeys.png" width="11px" height="12px" preserveAspectRatio="xMinYMin meet" x="15.5" y="-750.7"/>
<text text-anchor="start" x="30.5" y="-740.8" font-family="Helvetica,sans-Serif" font-size="11.00" fill="#000000">USERNAME</text>
<polygon fill="none" stroke="#000000" points="124.5,-733.7 124.5,-755.7 295.5,-755.7 295.5,-733.7 124.5,-733.7"/>
<text text-anchor="start" x="127.5" y="-741.4" font-family="Helvetica,sans-Serif" font-size="11.00" fill="#000000">varchar2[255]</text>
<polygon fill="none" stroke="#000000" points="10.5,-711.7 10.5,-733.7 124.5,-733.7 124.5,-711.7 10.5,-711.7"/>
<text text-anchor="start" x="30.5" y="-718.8" font-family="Helvetica,sans-Serif" font-size="11.00" fill="#000000">MEMBER_OF</text>
<polygon fill="none" stroke="#000000" points="124.5,-711.7 124.5,-733.7 295.5,-733.7 295.5,-711.7 124.5,-711.7"/>
<text text-anchor="start" x="127.5" y="-719.4" font-family="Helvetica,sans-Serif" font-size="11.00" fill="#000000">clob[4000]</text>
<polygon fill="none" stroke="#000000" points="10.5,-689.7 10.5,-711.7 124.5,-711.7 124.5,-689.7 10.5,-689.7"/>
<text text-anchor="start" x="30.5" y="-696.8" font-family="Helvetica,sans-Serif" font-size="11.00" fill="#000000">EMAIL</text>
<polygon fill="none" stroke="#000000" points="124.5,-689.7 124.5,-711.7 295.5,-711.7 295.5,-689.7 124.5,-689.7"/>
<text text-anchor="start" x="127.5" y="-697.4" font-family="Helvetica,sans-Serif" font-size="11.00" fill="#000000">varchar2[255]</text>
<polygon fill="#ffffff" stroke="transparent" points="10.5,-670.7 10.5,-689.7 55.5,-689.7 55.5,-670.7 10.5,-670.7"/>
<polygon fill="none" stroke="#000000" points="10.5,-670.7 10.5,-689.7 55.5,-689.7 55.5,-670.7 10.5,-670.7"/>
<text text-anchor="start" x="13.5" y="-676.8" font-family="Helvetica,sans-Serif" font-size="11.00" fill="#000000">&lt; 0</text>
<polygon fill="#ffffff" stroke="transparent" points="55.5,-670.7 55.5,-689.7 124.5,-689.7 124.5,-670.7 55.5,-670.7"/>
<polygon fill="none" stroke="#000000" points="55.5,-670.7 55.5,-689.7 124.5,-689.7 124.5,-670.7 55.5,-670.7"/>
<text text-anchor="start" x="82.9956" y="-676.8" font-family="Helvetica,sans-Serif" font-size="11.00" fill="#000000">33 rows</text>
<polygon fill="#ffffff" stroke="transparent" points="124.5,-670.7 124.5,-689.7 295.5,-689.7 295.5,-670.7 124.5,-670.7"/>
<polygon fill="none" stroke="#000000" points="124.5,-670.7 124.5,-689.7 295.5,-689.7 295.5,-670.7 124.5,-670.7"/>
<text text-anchor="start" x="276.9053" y="-676.8" font-family="Helvetica,sans-Serif" font-size="11.00" fill="#000000">9 &gt;</text>
<polygon fill="none" stroke="#000000" stroke-width="2" points="9,-669.7 9,-977.7 296,-977.7 296,-669.7 9,-669.7"/>
</a>
</g>
</g>
<!-- CLONE_FORM_COMMENTS&#45;&gt;USERS -->
<g id="edge1" class="edge">
<title>CLONE_FORM_COMMENTS:w&#45;&gt;USERS:e</title>
<path fill="none" stroke="#000000" d="M360.0571,-1509.5239C344.7036,-1501.1086 345.7697,-1477.2642 338,-1453.7 320.1592,-1399.5916 352.4738,-942.7 295.5,-942.7"/>
<polygon fill="#000000" stroke="#000000" points="366.6867,-1510.9817 373.7268,-1516.216 370.5933,-1511.8409 374.5,-1512.7 374.5,-1512.7 374.5,-1512.7 370.5933,-1511.8409 375.2732,-1509.184 366.6867,-1510.9817 366.6867,-1510.9817"/>
<ellipse fill="none" stroke="#000000" cx="363.5614" cy="-1510.2944" rx="3.2" ry="3.2"/>
</g>
<!-- ISOFORM_COMMENTS -->
<g id="node3" class="node">
<title>ISOFORM_COMMENTS</title>
<g id="a_node3"><a xlink:href="../../tables/ISOFORM_COMMENTS.html" xlink:title="ISOFORM_COMMENTS" target="_top">
<polygon fill="#ffffff" stroke="transparent" points="388,-1316.2 388,-1443.2 555,-1443.2 555,-1316.2 388,-1316.2"/>
<polygon fill="#f5f5f5" stroke="transparent" points="388.5,-1419.7 388.5,-1442.7 555.5,-1442.7 555.5,-1419.7 388.5,-1419.7"/>
<polygon fill="none" stroke="#000000" points="388.5,-1419.7 388.5,-1442.7 555.5,-1442.7 555.5,-1419.7 388.5,-1419.7"/>
<text text-anchor="start" x="393.5" y="-1428.8" font-family="Helvetica,sans-Serif" font-weight="bold" font-size="11.00" fill="#000000">ISOFORM_COMMENTS</text>
<text text-anchor="start" x="520.5437" y="-1427.8" font-family="Helvetica,sans-Serif" font-size="11.00" fill="#000000">[table]</text>
<polygon fill="none" stroke="#000000" points="388.5,-1397.7 388.5,-1419.7 555.5,-1419.7 555.5,-1397.7 388.5,-1397.7"/>
<image xlink:href="../../images/primaryKeys.png" width="11px" height="12px" preserveAspectRatio="xMinYMin meet" x="393.5" y="-1414.7"/>
<text text-anchor="start" x="408.5" y="-1404.8" font-family="Helvetica,sans-Serif" font-size="11.00" fill="#000000">ID</text>
<polygon fill="none" stroke="#000000" points="388.5,-1375.7 388.5,-1397.7 555.5,-1397.7 555.5,-1375.7 388.5,-1375.7"/>
<image xlink:href="../../images/foreignKeys.png" width="11px" height="12px" preserveAspectRatio="xMinYMin meet" x="393.5" y="-1392.7"/>
<text text-anchor="start" x="408.5" y="-1382.8" font-family="Helvetica,sans-Serif" font-size="11.00" fill="#000000">ISOFORM_ID</text>
<polygon fill="none" stroke="#000000" points="388.5,-1353.7 388.5,-1375.7 555.5,-1375.7 555.5,-1353.7 388.5,-1353.7"/>
<image xlink:href="../../images/foreignKeys.png" width="11px" height="12px" preserveAspectRatio="xMinYMin meet" x="393.5" y="-1370.7"/>
<text text-anchor="start" x="408.5" y="-1360.8" font-family="Helvetica,sans-Serif" font-size="11.00" fill="#000000">USER_ID</text>
<polygon fill="none" stroke="#000000" points="388.5,-1334.7 388.5,-1353.7 555.5,-1353.7 555.5,-1334.7 388.5,-1334.7"/>
<text text-anchor="start" x="391.5" y="-1340.8" font-family="Helvetica,sans-Serif" font-size="11.00" fill="#000000">...</text>
<polygon fill="#ffffff" stroke="transparent" points="388.5,-1315.7 388.5,-1334.7 457.5,-1334.7 457.5,-1315.7 388.5,-1315.7"/>
<polygon fill="none" stroke="#000000" points="388.5,-1315.7 388.5,-1334.7 457.5,-1334.7 457.5,-1315.7 388.5,-1315.7"/>
<text text-anchor="start" x="391.5" y="-1321.8" font-family="Helvetica,sans-Serif" font-size="11.00" fill="#000000">&lt; 2</text>
<polygon fill="#ffffff" stroke="transparent" points="457.5,-1315.7 457.5,-1334.7 519.5,-1334.7 519.5,-1315.7 457.5,-1315.7"/>
<polygon fill="none" stroke="#000000" points="457.5,-1315.7 457.5,-1334.7 519.5,-1334.7 519.5,-1315.7 457.5,-1315.7"/>
<text text-anchor="start" x="484.1105" y="-1321.8" font-family="Helvetica,sans-Serif" font-size="11.00" fill="#000000">8 rows</text>
<polygon fill="#ffffff" stroke="transparent" points="519.5,-1315.7 519.5,-1334.7 555.5,-1334.7 555.5,-1315.7 519.5,-1315.7"/>
<polygon fill="none" stroke="#000000" points="519.5,-1315.7 519.5,-1334.7 555.5,-1334.7 555.5,-1315.7 519.5,-1315.7"/>
<text text-anchor="start" x="546.3862" y="-1321.8" font-family="Helvetica,sans-Serif" font-size="11.00" fill="#000000"> &#160;</text>
</a>
</g>
</g>
<!-- ISOFORM_COMMENTS&#45;&gt;USERS -->
<g id="edge2" class="edge">
<title>ISOFORM_COMMENTS:w&#45;&gt;USERS:e</title>
<path fill="none" stroke="#000000" d="M374.2254,-1362.6885C352.9943,-1355.8223 349.6144,-1332.2596 338,-1305.7 305.4592,-1231.2863 376.7177,-942.7 295.5,-942.7"/>
<polygon fill="#000000" stroke="#000000" points="380.5783,-1363.5836 387.9976,-1368.2648 384.5391,-1364.1418 388.5,-1364.7 388.5,-1364.7 388.5,-1364.7 384.5391,-1364.1418 389.0024,-1361.1352 380.5783,-1363.5836 380.5783,-1363.5836"/>
<ellipse fill="none" stroke="#000000" cx="377.4096" cy="-1363.1371" rx="3.2" ry="3.2"/>
</g>
<!-- REFERENCES -->
<g id="node4" class="node">
<title>REFERENCES</title>
<g id="a_node4"><a xlink:href="../../tables/REFERENCES.html" xlink:title="REFERENCES" target="_top">
<polygon fill="#ffffff" stroke="transparent" points="407.5,-1190.2 407.5,-1295.2 535.5,-1295.2 535.5,-1190.2 407.5,-1190.2"/>
<polygon fill="#f5f5f5" stroke="transparent" points="407.5,-1271.7 407.5,-1294.7 535.5,-1294.7 535.5,-1271.7 407.5,-1271.7"/>
<polygon fill="none" stroke="#000000" points="407.5,-1271.7 407.5,-1294.7 535.5,-1294.7 535.5,-1271.7 407.5,-1271.7"/>
<text text-anchor="start" x="412.5" y="-1280.8" font-family="Helvetica,sans-Serif" font-weight="bold" font-size="11.00" fill="#000000">REFERENCES</text>
<text text-anchor="start" x="500.5437" y="-1279.8" font-family="Helvetica,sans-Serif" font-size="11.00" fill="#000000">[table]</text>
<polygon fill="none" stroke="#000000" points="407.5,-1249.7 407.5,-1271.7 535.5,-1271.7 535.5,-1249.7 407.5,-1249.7"/>
<image xlink:href="../../images/primaryKeys.png" width="11px" height="12px" preserveAspectRatio="xMinYMin meet" x="412.5" y="-1266.7"/>
<text text-anchor="start" x="427.5" y="-1256.8" font-family="Helvetica,sans-Serif" font-size="11.00" fill="#000000">ID</text>
<polygon fill="none" stroke="#000000" points="407.5,-1227.7 407.5,-1249.7 535.5,-1249.7 535.5,-1227.7 407.5,-1227.7"/>
<image xlink:href="../../images/foreignKeys.png" width="11px" height="12px" preserveAspectRatio="xMinYMin meet" x="412.5" y="-1244.7"/>
<text text-anchor="start" x="427.5" y="-1234.8" font-family="Helvetica,sans-Serif" font-size="11.00" fill="#000000">USER_ID</text>
<polygon fill="none" stroke="#000000" points="407.5,-1208.7 407.5,-1227.7 535.5,-1227.7 535.5,-1208.7 407.5,-1208.7"/>
<text text-anchor="start" x="410.5" y="-1214.8" font-family="Helvetica,sans-Serif" font-size="11.00" fill="#000000">...</text>
<polygon fill="#ffffff" stroke="transparent" points="407.5,-1189.7 407.5,-1208.7 438.5,-1208.7 438.5,-1189.7 407.5,-1189.7"/>
<polygon fill="none" stroke="#000000" points="407.5,-1189.7 407.5,-1208.7 438.5,-1208.7 438.5,-1189.7 407.5,-1189.7"/>
<text text-anchor="start" x="410.5" y="-1195.8" font-family="Helvetica,sans-Serif" font-size="11.00" fill="#000000">&lt; 1</text>
<polygon fill="#ffffff" stroke="transparent" points="438.5,-1189.7 438.5,-1208.7 502.5,-1208.7 502.5,-1189.7 438.5,-1189.7"/>
<polygon fill="none" stroke="#000000" points="438.5,-1189.7 438.5,-1208.7 502.5,-1208.7 502.5,-1189.7 438.5,-1189.7"/>
<text text-anchor="start" x="445.7089" y="-1195.8" font-family="Helvetica,sans-Serif" font-size="11.00" fill="#000000">2,900 rows</text>
<polygon fill="#ffffff" stroke="transparent" points="502.5,-1189.7 502.5,-1208.7 535.5,-1208.7 535.5,-1189.7 502.5,-1189.7"/>
<polygon fill="none" stroke="#000000" points="502.5,-1189.7 502.5,-1208.7 535.5,-1208.7 535.5,-1189.7 502.5,-1189.7"/>
<text text-anchor="start" x="510.7904" y="-1195.8" font-family="Helvetica,sans-Serif" font-size="11.00" fill="#000000">20 &gt;</text>
</a>
</g>
</g>
<!-- REFERENCES&#45;&gt;USERS -->
<g id="edge3" class="edge">
<title>REFERENCES:w&#45;&gt;USERS:e</title>
<path fill="none" stroke="#000000" d="M392.9348,-1237.4659C364.4499,-1232.1583 355.5254,-1210.1543 338,-1179.7 311.3122,-1133.324 349.0068,-942.7 295.5,-942.7"/>
<polygon fill="#000000" stroke="#000000" points="399.5286,-1238.0245 407.196,-1242.2871 403.5143,-1238.3623 407.5,-1238.7 407.5,-1238.7 407.5,-1238.7 403.5143,-1238.3623 407.804,-1235.1129 399.5286,-1238.0245 399.5286,-1238.0245"/>
<ellipse fill="none" stroke="#000000" cx="396.34" cy="-1237.7543" rx="3.2" ry="3.2"/>
</g>
<!-- STRUCTURE_COMMENTS -->
<g id="node5" class="node">
<title>STRUCTURE_COMMENTS</title>
<g id="a_node5"><a xlink:href="../../tables/STRUCTURE_COMMENTS.html" xlink:title="STRUCTURE_COMMENTS" target="_top">
<polygon fill="#ffffff" stroke="transparent" points="379.5,-1042.2 379.5,-1169.2 563.5,-1169.2 563.5,-1042.2 379.5,-1042.2"/>
<polygon fill="#f5f5f5" stroke="transparent" points="379.5,-1145.7 379.5,-1168.7 563.5,-1168.7 563.5,-1145.7 379.5,-1145.7"/>
<polygon fill="none" stroke="#000000" points="379.5,-1145.7 379.5,-1168.7 563.5,-1168.7 563.5,-1145.7 379.5,-1145.7"/>
<text text-anchor="start" x="384.5" y="-1154.8" font-family="Helvetica,sans-Serif" font-weight="bold" font-size="11.00" fill="#000000">STRUCTURE_COMMENTS</text>
<text text-anchor="start" x="528.5437" y="-1153.8" font-family="Helvetica,sans-Serif" font-size="11.00" fill="#000000">[table]</text>
<polygon fill="none" stroke="#000000" points="379.5,-1123.7 379.5,-1145.7 563.5,-1145.7 563.5,-1123.7 379.5,-1123.7"/>
<image xlink:href="../../images/primaryKeys.png" width="11px" height="12px" preserveAspectRatio="xMinYMin meet" x="384.5" y="-1140.7"/>
<text text-anchor="start" x="399.5" y="-1130.8" font-family="Helvetica,sans-Serif" font-size="11.00" fill="#000000">ID</text>
<polygon fill="none" stroke="#000000" points="379.5,-1101.7 379.5,-1123.7 563.5,-1123.7 563.5,-1101.7 379.5,-1101.7"/>
<image xlink:href="../../images/foreignKeys.png" width="11px" height="12px" preserveAspectRatio="xMinYMin meet" x="384.5" y="-1118.7"/>
<text text-anchor="start" x="399.5" y="-1108.8" font-family="Helvetica,sans-Serif" font-size="11.00" fill="#000000">STRUCTURE_ID</text>
<polygon fill="none" stroke="#000000" points="379.5,-1079.7 379.5,-1101.7 563.5,-1101.7 563.5,-1079.7 379.5,-1079.7"/>
<image xlink:href="../../images/foreignKeys.png" width="11px" height="12px" preserveAspectRatio="xMinYMin meet" x="384.5" y="-1096.7"/>
<text text-anchor="start" x="399.5" y="-1086.8" font-family="Helvetica,sans-Serif" font-size="11.00" fill="#000000">USER_ID</text>
<polygon fill="none" stroke="#000000" points="379.5,-1060.7 379.5,-1079.7 563.5,-1079.7 563.5,-1060.7 379.5,-1060.7"/>
<text text-anchor="start" x="382.5" y="-1066.8" font-family="Helvetica,sans-Serif" font-size="11.00" fill="#000000">...</text>
<polygon fill="#ffffff" stroke="transparent" points="379.5,-1041.7 379.5,-1060.7 453.5,-1060.7 453.5,-1041.7 379.5,-1041.7"/>
<polygon fill="none" stroke="#000000" points="379.5,-1041.7 379.5,-1060.7 453.5,-1060.7 453.5,-1041.7 379.5,-1041.7"/>
<text text-anchor="start" x="382.5" y="-1047.8" font-family="Helvetica,sans-Serif" font-size="11.00" fill="#000000">&lt; 2</text>
<polygon fill="#ffffff" stroke="transparent" points="453.5,-1041.7 453.5,-1060.7 524.5,-1060.7 524.5,-1041.7 453.5,-1041.7"/>
<polygon fill="none" stroke="#000000" points="453.5,-1041.7 453.5,-1060.7 524.5,-1060.7 524.5,-1041.7 453.5,-1041.7"/>
<text text-anchor="start" x="482.9956" y="-1047.8" font-family="Helvetica,sans-Serif" font-size="11.00" fill="#000000">10 rows</text>
<polygon fill="#ffffff" stroke="transparent" points="524.5,-1041.7 524.5,-1060.7 563.5,-1060.7 563.5,-1041.7 524.5,-1041.7"/>
<polygon fill="none" stroke="#000000" points="524.5,-1041.7 524.5,-1060.7 563.5,-1060.7 563.5,-1041.7 524.5,-1041.7"/>
<text text-anchor="start" x="554.3862" y="-1047.8" font-family="Helvetica,sans-Serif" font-size="11.00" fill="#000000"> &#160;</text>
</a>
</g>
</g>
<!-- STRUCTURE_COMMENTS&#45;&gt;USERS -->
<g id="edge4" class="edge">
<title>STRUCTURE_COMMENTS:w&#45;&gt;USERS:e</title>
<path fill="none" stroke="#000000" d="M365.1524,-1087.6266C349.1641,-1079.0809 351.1515,-1054.1844 338,-1031.7 315.8686,-993.8631 339.3341,-942.7 295.5,-942.7"/>
<polygon fill="#000000" stroke="#000000" points="371.6775,-1089.0243 378.7459,-1094.2201 375.5887,-1089.8621 379.5,-1090.7 379.5,-1090.7 379.5,-1090.7 375.5887,-1089.8621 380.2541,-1087.1799 371.6775,-1089.0243 371.6775,-1089.0243"/>
<ellipse fill="none" stroke="#000000" cx="368.5484" cy="-1088.354" rx="3.2" ry="3.2"/>
</g>
<!-- TARGET_FORM_COMMENTS -->
<g id="node6" class="node">
<title>TARGET_FORM_COMMENTS</title>
<g id="a_node6"><a xlink:href="../../tables/TARGET_FORM_COMMENTS.html" xlink:title="TARGET_FORM_COMMENTS" target="_top">
<polygon fill="#ffffff" stroke="transparent" points="370,-894.2 370,-1021.2 573,-1021.2 573,-894.2 370,-894.2"/>
<polygon fill="#f5f5f5" stroke="transparent" points="370.5,-997.7 370.5,-1020.7 573.5,-1020.7 573.5,-997.7 370.5,-997.7"/>
<polygon fill="none" stroke="#000000" points="370.5,-997.7 370.5,-1020.7 573.5,-1020.7 573.5,-997.7 370.5,-997.7"/>
<text text-anchor="start" x="375.5" y="-1006.8" font-family="Helvetica,sans-Serif" font-weight="bold" font-size="11.00" fill="#000000">TARGET_FORM_COMMENTS</text>
<text text-anchor="start" x="538.5437" y="-1005.8" font-family="Helvetica,sans-Serif" font-size="11.00" fill="#000000">[table]</text>
<polygon fill="none" stroke="#000000" points="370.5,-975.7 370.5,-997.7 573.5,-997.7 573.5,-975.7 370.5,-975.7"/>
<image xlink:href="../../images/primaryKeys.png" width="11px" height="12px" preserveAspectRatio="xMinYMin meet" x="375.5" y="-992.7"/>
<text text-anchor="start" x="390.5" y="-982.8" font-family="Helvetica,sans-Serif" font-size="11.00" fill="#000000">ID</text>
<polygon fill="none" stroke="#000000" points="370.5,-953.7 370.5,-975.7 573.5,-975.7 573.5,-953.7 370.5,-953.7"/>
<image xlink:href="../../images/foreignKeys.png" width="11px" height="12px" preserveAspectRatio="xMinYMin meet" x="375.5" y="-970.7"/>
<text text-anchor="start" x="390.5" y="-960.8" font-family="Helvetica,sans-Serif" font-size="11.00" fill="#000000">TARGET_FORM_ID</text>
<polygon fill="none" stroke="#000000" points="370.5,-931.7 370.5,-953.7 573.5,-953.7 573.5,-931.7 370.5,-931.7"/>
<image xlink:href="../../images/foreignKeys.png" width="11px" height="12px" preserveAspectRatio="xMinYMin meet" x="375.5" y="-948.7"/>
<text text-anchor="start" x="390.5" y="-938.8" font-family="Helvetica,sans-Serif" font-size="11.00" fill="#000000">USER_ID</text>
<polygon fill="none" stroke="#000000" points="370.5,-912.7 370.5,-931.7 573.5,-931.7 573.5,-912.7 370.5,-912.7"/>
<text text-anchor="start" x="373.5" y="-918.8" font-family="Helvetica,sans-Serif" font-size="11.00" fill="#000000">...</text>
<polygon fill="#ffffff" stroke="transparent" points="370.5,-893.7 370.5,-912.7 457.5,-912.7 457.5,-893.7 370.5,-893.7"/>
<polygon fill="none" stroke="#000000" points="370.5,-893.7 370.5,-912.7 457.5,-912.7 457.5,-893.7 370.5,-893.7"/>
<text text-anchor="start" x="373.5" y="-899.8" font-family="Helvetica,sans-Serif" font-size="11.00" fill="#000000">&lt; 2</text>
<polygon fill="#ffffff" stroke="transparent" points="457.5,-893.7 457.5,-912.7 528.5,-912.7 528.5,-893.7 457.5,-893.7"/>
<polygon fill="none" stroke="#000000" points="457.5,-893.7 457.5,-912.7 528.5,-912.7 528.5,-893.7 457.5,-893.7"/>
<text text-anchor="start" x="493.1105" y="-899.8" font-family="Helvetica,sans-Serif" font-size="11.00" fill="#000000">3 rows</text>
<polygon fill="#ffffff" stroke="transparent" points="528.5,-893.7 528.5,-912.7 573.5,-912.7 573.5,-893.7 528.5,-893.7"/>
<polygon fill="none" stroke="#000000" points="528.5,-893.7 528.5,-912.7 573.5,-912.7 573.5,-893.7 528.5,-893.7"/>
<text text-anchor="start" x="564.3862" y="-899.8" font-family="Helvetica,sans-Serif" font-size="11.00" fill="#000000"> &#160;</text>
</a>
</g>
</g>
<!-- TARGET_FORM_COMMENTS&#45;&gt;USERS -->
<g id="edge5" class="edge">
<title>TARGET_FORM_COMMENTS:w&#45;&gt;USERS:e</title>
<path fill="none" stroke="#000000" d="M355.8917,-942.7C333.7594,-942.7 323.3646,-942.7 295.5,-942.7"/>
<polygon fill="#000000" stroke="#000000" points="362.5,-942.7001 370.5,-946.3 366.5,-942.7 370.5,-942.7 370.5,-942.7 370.5,-942.7 366.5,-942.7 370.5,-939.1 362.5,-942.7001 362.5,-942.7001"/>
<ellipse fill="none" stroke="#000000" cx="359.3" cy="-942.7001" rx="3.2" ry="3.2"/>
</g>
<!-- TARGETS_USERS -->
<g id="node7" class="node">
<title>TARGETS_USERS</title>
<g id="a_node7"><a xlink:href="../../tables/TARGETS_USERS.html" xlink:title="TARGETS_USERS" target="_top">
<polygon fill="#ffffff" stroke="transparent" points="402.5,-724.2 402.5,-873.2 540.5,-873.2 540.5,-724.2 402.5,-724.2"/>
<polygon fill="#f5f5f5" stroke="transparent" points="402.5,-849.7 402.5,-872.7 540.5,-872.7 540.5,-849.7 402.5,-849.7"/>
<polygon fill="none" stroke="#000000" points="402.5,-849.7 402.5,-872.7 540.5,-872.7 540.5,-849.7 402.5,-849.7"/>
<text text-anchor="start" x="407.0252" y="-858.8" font-family="Helvetica,sans-Serif" font-weight="bold" font-size="11.00" fill="#000000">TARGETS_USERS</text>
<text text-anchor="start" x="506.0219" y="-857.8" font-family="Helvetica,sans-Serif" font-size="11.00" fill="#000000">[table]</text>
<polygon fill="none" stroke="#000000" points="402.5,-827.7 402.5,-849.7 540.5,-849.7 540.5,-827.7 402.5,-827.7"/>
<image xlink:href="../../images/primaryKeys.png" width="11px" height="12px" preserveAspectRatio="xMinYMin meet" x="407.5" y="-844.7"/>
<text text-anchor="start" x="425.5" y="-834.8" font-family="Helvetica,sans-Serif" font-size="11.00" fill="#000000">ID</text>
<polygon fill="none" stroke="#000000" points="402.5,-805.7 402.5,-827.7 540.5,-827.7 540.5,-805.7 402.5,-805.7"/>
<image xlink:href="../../images/foreignKeys.png" width="11px" height="12px" preserveAspectRatio="xMinYMin meet" x="407.5" y="-822.7"/>
<text text-anchor="start" x="425.5" y="-812.8" font-family="Helvetica,sans-Serif" font-size="11.00" fill="#000000">TARGET_ID</text>
<polygon fill="none" stroke="#000000" points="402.5,-783.7 402.5,-805.7 540.5,-805.7 540.5,-783.7 402.5,-783.7"/>
<image xlink:href="../../images/foreignKeys.png" width="11px" height="12px" preserveAspectRatio="xMinYMin meet" x="407.5" y="-800.7"/>
<text text-anchor="start" x="425.5" y="-790.8" font-family="Helvetica,sans-Serif" font-size="11.00" fill="#000000">USER_ID</text>
<polygon fill="none" stroke="#000000" points="402.5,-761.7 402.5,-783.7 540.5,-783.7 540.5,-761.7 402.5,-761.7"/>
<image xlink:href="../../images/foreignKeys.png" width="11px" height="12px" preserveAspectRatio="xMinYMin meet" x="407.5" y="-778.7"/>
<text text-anchor="start" x="425.5" y="-768.8" font-family="Helvetica,sans-Serif" font-size="11.00" fill="#000000">ROLE_ID</text>
<polygon fill="none" stroke="#000000" points="402.5,-742.7 402.5,-761.7 540.5,-761.7 540.5,-742.7 402.5,-742.7"/>
<text text-anchor="start" x="405.5" y="-748.8" font-family="Helvetica,sans-Serif" font-size="11.00" fill="#000000">...</text>
<polygon fill="#ffffff" stroke="transparent" points="402.5,-723.7 402.5,-742.7 453.5,-742.7 453.5,-723.7 402.5,-723.7"/>
<polygon fill="none" stroke="#000000" points="402.5,-723.7 402.5,-742.7 453.5,-742.7 453.5,-723.7 402.5,-723.7"/>
<text text-anchor="start" x="405.5" y="-729.8" font-family="Helvetica,sans-Serif" font-size="11.00" fill="#000000">&lt; 3</text>
<polygon fill="#ffffff" stroke="transparent" points="453.5,-723.7 453.5,-742.7 512.5,-742.7 512.5,-723.7 453.5,-723.7"/>
<polygon fill="none" stroke="#000000" points="453.5,-723.7 453.5,-742.7 512.5,-742.7 512.5,-723.7 453.5,-723.7"/>
<text text-anchor="start" x="470.9956" y="-729.8" font-family="Helvetica,sans-Serif" font-size="11.00" fill="#000000">35 rows</text>
<polygon fill="#ffffff" stroke="transparent" points="512.5,-723.7 512.5,-742.7 540.5,-742.7 540.5,-723.7 512.5,-723.7"/>
<polygon fill="none" stroke="#000000" points="512.5,-723.7 512.5,-742.7 540.5,-742.7 540.5,-723.7 512.5,-723.7"/>
<text text-anchor="start" x="531.3862" y="-729.8" font-family="Helvetica,sans-Serif" font-size="11.00" fill="#000000"> &#160;</text>
</a>
</g>
</g>
<!-- TARGETS_USERS&#45;&gt;USERS -->
<g id="edge6" class="edge">
<title>TARGETS_USERS:w&#45;&gt;USERS:e</title>
<path fill="none" stroke="#000000" d="M388.1276,-796.5158C356.052,-805.7671 363.3688,-848.5888 338,-883.7 319.0734,-909.895 327.8171,-942.7 295.5,-942.7"/>
<polygon fill="#000000" stroke="#000000" points="394.5631,-795.7028 402.9513,-798.2716 398.5315,-795.2014 402.5,-794.7 402.5,-794.7 402.5,-794.7 398.5315,-795.2014 402.0487,-791.1284 394.5631,-795.7028 394.5631,-795.7028"/>
<ellipse fill="none" stroke="#000000" cx="391.3883" cy="-796.1039" rx="3.2" ry="3.2"/>
</g>
<!-- TRACER_LIGANDS -->
<g id="node8" class="node">
<title>TRACER_LIGANDS</title>
<g id="a_node8"><a xlink:href="../../tables/TRACER_LIGANDS.html" xlink:title="TRACER_LIGANDS" target="_top">
<polygon fill="#ffffff" stroke="transparent" points="346,-554.2 346,-703.2 597,-703.2 597,-554.2 346,-554.2"/>
<polygon fill="#f5f5f5" stroke="transparent" points="346.5,-679.7 346.5,-702.7 597.5,-702.7 597.5,-679.7 346.5,-679.7"/>
<polygon fill="none" stroke="#000000" points="346.5,-679.7 346.5,-702.7 597.5,-702.7 597.5,-679.7 346.5,-679.7"/>
<text text-anchor="start" x="351.5" y="-688.8" font-family="Helvetica,sans-Serif" font-weight="bold" font-size="11.00" fill="#000000">TRACER_LIGANDS</text>
<text text-anchor="start" x="562.5437" y="-687.8" font-family="Helvetica,sans-Serif" font-size="11.00" fill="#000000">[table]</text>
<polygon fill="none" stroke="#000000" points="346.5,-657.7 346.5,-679.7 597.5,-679.7 597.5,-657.7 346.5,-657.7"/>
<image xlink:href="../../images/primaryKeys.png" width="11px" height="12px" preserveAspectRatio="xMinYMin meet" x="351.5" y="-674.7"/>
<text text-anchor="start" x="366.5" y="-664.8" font-family="Helvetica,sans-Serif" font-size="11.00" fill="#000000">ID</text>
<polygon fill="none" stroke="#000000" points="346.5,-635.7 346.5,-657.7 597.5,-657.7 597.5,-635.7 346.5,-635.7"/>
<image xlink:href="../../images/foreignKeys.png" width="11px" height="12px" preserveAspectRatio="xMinYMin meet" x="351.5" y="-652.7"/>
<text text-anchor="start" x="366.5" y="-642.8" font-family="Helvetica,sans-Serif" font-size="11.00" fill="#000000">TYPE_ID</text>
<polygon fill="none" stroke="#000000" points="346.5,-613.7 346.5,-635.7 597.5,-635.7 597.5,-613.7 346.5,-613.7"/>
<image xlink:href="../../images/foreignKeys.png" width="11px" height="12px" preserveAspectRatio="xMinYMin meet" x="351.5" y="-630.7"/>
<text text-anchor="start" x="366.5" y="-620.8" font-family="Helvetica,sans-Serif" font-size="11.00" fill="#000000">TRACER_SYNTHESIS_SCIENTIST_ID</text>
<polygon fill="none" stroke="#000000" points="346.5,-591.7 346.5,-613.7 597.5,-613.7 597.5,-591.7 346.5,-591.7"/>
<image xlink:href="../../images/foreignKeys.png" width="11px" height="12px" preserveAspectRatio="xMinYMin meet" x="351.5" y="-608.7"/>
<text text-anchor="start" x="366.5" y="-598.8" font-family="Helvetica,sans-Serif" font-size="11.00" fill="#000000">DNA_ATTACHMENT_SITE_ID</text>
<polygon fill="none" stroke="#000000" points="346.5,-572.7 346.5,-591.7 597.5,-591.7 597.5,-572.7 346.5,-572.7"/>
<text text-anchor="start" x="349.5" y="-578.8" font-family="Helvetica,sans-Serif" font-size="11.00" fill="#000000">...</text>
<polygon fill="#ffffff" stroke="transparent" points="346.5,-553.7 346.5,-572.7 446.5,-572.7 446.5,-553.7 346.5,-553.7"/>
<polygon fill="none" stroke="#000000" points="346.5,-553.7 346.5,-572.7 446.5,-572.7 446.5,-553.7 346.5,-553.7"/>
<text text-anchor="start" x="349.5" y="-559.8" font-family="Helvetica,sans-Serif" font-size="11.00" fill="#000000">&lt; 3</text>
<polygon fill="#ffffff" stroke="transparent" points="446.5,-553.7 446.5,-572.7 536.5,-572.7 536.5,-553.7 446.5,-553.7"/>
<polygon fill="none" stroke="#000000" points="446.5,-553.7 446.5,-572.7 536.5,-572.7 536.5,-553.7 446.5,-553.7"/>
<text text-anchor="start" x="488.8807" y="-559.8" font-family="Helvetica,sans-Serif" font-size="11.00" fill="#000000">416 rows</text>
<polygon fill="#ffffff" stroke="transparent" points="536.5,-553.7 536.5,-572.7 597.5,-572.7 597.5,-553.7 536.5,-553.7"/>
<polygon fill="none" stroke="#000000" points="536.5,-553.7 536.5,-572.7 597.5,-572.7 597.5,-553.7 536.5,-553.7"/>
<text text-anchor="start" x="578.9053" y="-559.8" font-family="Helvetica,sans-Serif" font-size="11.00" fill="#000000">7 &gt;</text>
</a>
</g>
</g>
<!-- TRACER_LIGANDS&#45;&gt;USERS -->
<g id="edge7" class="edge">
<title>TRACER_LIGANDS:w&#45;&gt;USERS:e</title>
<path fill="none" stroke="#000000" d="M332.8501,-629.9542C288.0173,-671.3002 361.6181,-942.7 295.5,-942.7"/>
<polygon fill="#000000" stroke="#000000" points="339.034,-627.5739 347.7932,-628.0597 342.767,-626.1369 346.5,-624.7 346.5,-624.7 346.5,-624.7 342.767,-626.1369 345.2068,-621.3403 339.034,-627.5739 339.034,-627.5739"/>
<ellipse fill="none" stroke="#000000" cx="336.0476" cy="-628.7234" rx="3.2" ry="3.2"/>
</g>
<!-- TRACER_SYNTHESIS_REQUESTS -->
<g id="node9" class="node">
<title>TRACER_SYNTHESIS_REQUESTS</title>
<g id="a_node9"><a xlink:href="../../tables/TRACER_SYNTHESIS_REQUESTS.html" xlink:title="TRACER_SYNTHESIS_REQUESTS" target="_top">
<polygon fill="#ffffff" stroke="transparent" points="355.5,-186.2 355.5,-533.2 587.5,-533.2 587.5,-186.2 355.5,-186.2"/>
<polygon fill="#f5f5f5" stroke="transparent" points="355.5,-509.7 355.5,-532.7 587.5,-532.7 587.5,-509.7 355.5,-509.7"/>
<polygon fill="none" stroke="#000000" points="355.5,-509.7 355.5,-532.7 587.5,-532.7 587.5,-509.7 355.5,-509.7"/>
<text text-anchor="start" x="360.5" y="-518.8" font-family="Helvetica,sans-Serif" font-weight="bold" font-size="11.00" fill="#000000">TRACER_SYNTHESIS_REQUESTS</text>
<text text-anchor="start" x="552.5437" y="-517.8" font-family="Helvetica,sans-Serif" font-size="11.00" fill="#000000">[table]</text>
<polygon fill="none" stroke="#000000" points="355.5,-487.7 355.5,-509.7 587.5,-509.7 587.5,-487.7 355.5,-487.7"/>
<image xlink:href="../../images/primaryKeys.png" width="11px" height="12px" preserveAspectRatio="xMinYMin meet" x="360.5" y="-504.7"/>
<text text-anchor="start" x="375.5" y="-494.8" font-family="Helvetica,sans-Serif" font-size="11.00" fill="#000000">ID</text>
<polygon fill="none" stroke="#000000" points="355.5,-465.7 355.5,-487.7 587.5,-487.7 587.5,-465.7 355.5,-465.7"/>
<image xlink:href="../../images/foreignKeys.png" width="11px" height="12px" preserveAspectRatio="xMinYMin meet" x="360.5" y="-482.7"/>
<text text-anchor="start" x="375.5" y="-472.8" font-family="Helvetica,sans-Serif" font-size="11.00" fill="#000000">TRACER_TYPE_ID</text>
<polygon fill="none" stroke="#000000" points="355.5,-443.7 355.5,-465.7 587.5,-465.7 587.5,-443.7 355.5,-443.7"/>
<image xlink:href="../../images/foreignKeys.png" width="11px" height="12px" preserveAspectRatio="xMinYMin meet" x="360.5" y="-460.7"/>
<text text-anchor="start" x="375.5" y="-450.8" font-family="Helvetica,sans-Serif" font-size="11.00" fill="#000000">TARGET_ID</text>
<polygon fill="none" stroke="#000000" points="355.5,-421.7 355.5,-443.7 587.5,-443.7 587.5,-421.7 355.5,-421.7"/>
<image xlink:href="../../images/foreignKeys.png" width="11px" height="12px" preserveAspectRatio="xMinYMin meet" x="360.5" y="-438.7"/>
<text text-anchor="start" x="375.5" y="-428.8" font-family="Helvetica,sans-Serif" font-size="11.00" fill="#000000">OFF_DNA_ID</text>
<polygon fill="none" stroke="#000000" points="355.5,-399.7 355.5,-421.7 587.5,-421.7 587.5,-399.7 355.5,-399.7"/>
<image xlink:href="../../images/foreignKeys.png" width="11px" height="12px" preserveAspectRatio="xMinYMin meet" x="360.5" y="-416.7"/>
<text text-anchor="start" x="375.5" y="-406.8" font-family="Helvetica,sans-Serif" font-size="11.00" fill="#000000">OFF_DNA_IC50_ID</text>
<polygon fill="none" stroke="#000000" points="355.5,-377.7 355.5,-399.7 587.5,-399.7 587.5,-377.7 355.5,-377.7"/>
<image xlink:href="../../images/foreignKeys.png" width="11px" height="12px" preserveAspectRatio="xMinYMin meet" x="360.5" y="-394.7"/>
<text text-anchor="start" x="375.5" y="-384.8" font-family="Helvetica,sans-Serif" font-size="11.00" fill="#000000">TARGET_FORM_ID</text>
<polygon fill="none" stroke="#000000" points="355.5,-355.7 355.5,-377.7 587.5,-377.7 587.5,-355.7 355.5,-355.7"/>
<image xlink:href="../../images/foreignKeys.png" width="11px" height="12px" preserveAspectRatio="xMinYMin meet" x="360.5" y="-372.7"/>
<text text-anchor="start" x="375.5" y="-362.8" font-family="Helvetica,sans-Serif" font-size="11.00" fill="#000000">ASSIGNEE_ID</text>
<polygon fill="none" stroke="#000000" points="355.5,-333.7 355.5,-355.7 587.5,-355.7 587.5,-333.7 355.5,-333.7"/>
<image xlink:href="../../images/foreignKeys.png" width="11px" height="12px" preserveAspectRatio="xMinYMin meet" x="360.5" y="-350.7"/>
<text text-anchor="start" x="375.5" y="-340.8" font-family="Helvetica,sans-Serif" font-size="11.00" fill="#000000">TARGET_CATEGORY_ID</text>
<polygon fill="none" stroke="#000000" points="355.5,-311.7 355.5,-333.7 587.5,-333.7 587.5,-311.7 355.5,-311.7"/>
<image xlink:href="../../images/foreignKeys.png" width="11px" height="12px" preserveAspectRatio="xMinYMin meet" x="360.5" y="-328.7"/>
<text text-anchor="start" x="375.5" y="-318.8" font-family="Helvetica,sans-Serif" font-size="11.00" fill="#000000">CHEMISTRY_ID</text>
<polygon fill="none" stroke="#000000" points="355.5,-289.7 355.5,-311.7 587.5,-311.7 587.5,-289.7 355.5,-289.7"/>
<image xlink:href="../../images/foreignKeys.png" width="11px" height="12px" preserveAspectRatio="xMinYMin meet" x="360.5" y="-306.7"/>
<text text-anchor="start" x="375.5" y="-296.8" font-family="Helvetica,sans-Serif" font-size="11.00" fill="#000000">REGISTRATION_ID</text>
<polygon fill="none" stroke="#000000" points="355.5,-267.7 355.5,-289.7 587.5,-289.7 587.5,-267.7 355.5,-267.7"/>
<image xlink:href="../../images/foreignKeys.png" width="11px" height="12px" preserveAspectRatio="xMinYMin meet" x="360.5" y="-284.7"/>
<text text-anchor="start" x="375.5" y="-274.8" font-family="Helvetica,sans-Serif" font-size="11.00" fill="#000000">HEAD_PIECE_ID</text>
<polygon fill="none" stroke="#000000" points="355.5,-245.7 355.5,-267.7 587.5,-267.7 587.5,-245.7 355.5,-245.7"/>
<image xlink:href="../../images/foreignKeys.png" width="11px" height="12px" preserveAspectRatio="xMinYMin meet" x="360.5" y="-262.7"/>
<text text-anchor="start" x="375.5" y="-252.8" font-family="Helvetica,sans-Serif" font-size="11.00" fill="#000000">QUANTIFICATION_METHOD_ID</text>
<polygon fill="none" stroke="#000000" points="355.5,-223.7 355.5,-245.7 587.5,-245.7 587.5,-223.7 355.5,-223.7"/>
<image xlink:href="../../images/foreignKeys.png" width="11px" height="12px" preserveAspectRatio="xMinYMin meet" x="360.5" y="-240.7"/>
<text text-anchor="start" x="375.5" y="-230.8" font-family="Helvetica,sans-Serif" font-size="11.00" fill="#000000">DELIVERED_CONDITION_ID</text>
<polygon fill="none" stroke="#000000" points="355.5,-204.7 355.5,-223.7 587.5,-223.7 587.5,-204.7 355.5,-204.7"/>
<text text-anchor="start" x="358.5" y="-210.8" font-family="Helvetica,sans-Serif" font-size="11.00" fill="#000000">...</text>
<polygon fill="#ffffff" stroke="transparent" points="355.5,-185.7 355.5,-204.7 452.5,-204.7 452.5,-185.7 355.5,-185.7"/>
<polygon fill="none" stroke="#000000" points="355.5,-185.7 355.5,-204.7 452.5,-204.7 452.5,-185.7 355.5,-185.7"/>
<text text-anchor="start" x="358.5" y="-191.8" font-family="Helvetica,sans-Serif" font-size="11.00" fill="#000000">&lt; 12</text>
<polygon fill="#ffffff" stroke="transparent" points="452.5,-185.7 452.5,-204.7 531.5,-204.7 531.5,-185.7 452.5,-185.7"/>
<polygon fill="none" stroke="#000000" points="452.5,-185.7 452.5,-204.7 531.5,-204.7 531.5,-185.7 452.5,-185.7"/>
<text text-anchor="start" x="489.9956" y="-191.8" font-family="Helvetica,sans-Serif" font-size="11.00" fill="#000000">21 rows</text>
<polygon fill="#ffffff" stroke="transparent" points="531.5,-185.7 531.5,-204.7 587.5,-204.7 587.5,-185.7 531.5,-185.7"/>
<polygon fill="none" stroke="#000000" points="531.5,-185.7 531.5,-204.7 587.5,-204.7 587.5,-185.7 531.5,-185.7"/>
<text text-anchor="start" x="568.9053" y="-191.8" font-family="Helvetica,sans-Serif" font-size="11.00" fill="#000000">2 &gt;</text>
</a>
</g>
</g>
<!-- TRACER_SYNTHESIS_REQUESTS&#45;&gt;USERS -->
<g id="edge8" class="edge">
<title>TRACER_SYNTHESIS_REQUESTS:w&#45;&gt;USERS:e</title>
<path fill="none" stroke="#000000" d="M343.5338,-375.2894C300.3872,-446.9419 355.1963,-942.7 295.5,-942.7"/>
<polygon fill="#000000" stroke="#000000" points="349.001,-371.3651 357.5993,-369.6246 352.2505,-369.0325 355.5,-366.7 355.5,-366.7 355.5,-366.7 352.2505,-369.0325 353.4007,-363.7754 349.001,-371.3651 349.001,-371.3651"/>
<ellipse fill="none" stroke="#000000" cx="346.4014" cy="-373.2311" rx="3.2" ry="3.2"/>
</g>
<!-- USER_NOTIFICATION_SETTINGS -->
<g id="node10" class="node">
<title>USER_NOTIFICATION_SETTINGS</title>
<g id="a_node10"><a xlink:href="../../tables/USER_NOTIFICATION_SETTINGS.html" xlink:title="USER_NOTIFICATION_SETTINGS" target="_top">
<polygon fill="#ffffff" stroke="transparent" points="356,-38.2 356,-165.2 587,-165.2 587,-38.2 356,-38.2"/>
<polygon fill="#f5f5f5" stroke="transparent" points="356.5,-141.7 356.5,-164.7 587.5,-164.7 587.5,-141.7 356.5,-141.7"/>
<polygon fill="none" stroke="#000000" points="356.5,-141.7 356.5,-164.7 587.5,-164.7 587.5,-141.7 356.5,-141.7"/>
<text text-anchor="start" x="361.5" y="-150.8" font-family="Helvetica,sans-Serif" font-weight="bold" font-size="11.00" fill="#000000">USER_NOTIFICATION_SETTINGS</text>
<text text-anchor="start" x="552.5437" y="-149.8" font-family="Helvetica,sans-Serif" font-size="11.00" fill="#000000">[table]</text>
<polygon fill="none" stroke="#000000" points="356.5,-119.7 356.5,-141.7 587.5,-141.7 587.5,-119.7 356.5,-119.7"/>
<image xlink:href="../../images/primaryKeys.png" width="11px" height="12px" preserveAspectRatio="xMinYMin meet" x="361.5" y="-136.7"/>
<text text-anchor="start" x="376.5" y="-126.8" font-family="Helvetica,sans-Serif" font-size="11.00" fill="#000000">ID</text>
<polygon fill="none" stroke="#000000" points="356.5,-97.7 356.5,-119.7 587.5,-119.7 587.5,-97.7 356.5,-97.7"/>
<image xlink:href="../../images/foreignKeys.png" width="11px" height="12px" preserveAspectRatio="xMinYMin meet" x="361.5" y="-114.7"/>
<text text-anchor="start" x="376.5" y="-104.8" font-family="Helvetica,sans-Serif" font-size="11.00" fill="#000000">ACTIVITY_TYPE_ID</text>
<polygon fill="none" stroke="#000000" points="356.5,-75.7 356.5,-97.7 587.5,-97.7 587.5,-75.7 356.5,-75.7"/>
<image xlink:href="../../images/foreignKeys.png" width="11px" height="12px" preserveAspectRatio="xMinYMin meet" x="361.5" y="-92.7"/>
<text text-anchor="start" x="376.5" y="-82.8" font-family="Helvetica,sans-Serif" font-size="11.00" fill="#000000">USER_ID</text>
<polygon fill="none" stroke="#000000" points="356.5,-56.7 356.5,-75.7 587.5,-75.7 587.5,-56.7 356.5,-56.7"/>
<text text-anchor="start" x="359.5" y="-62.8" font-family="Helvetica,sans-Serif" font-size="11.00" fill="#000000">...</text>
<polygon fill="#ffffff" stroke="transparent" points="356.5,-37.7 356.5,-56.7 454.5,-56.7 454.5,-37.7 356.5,-37.7"/>
<polygon fill="none" stroke="#000000" points="356.5,-37.7 356.5,-56.7 454.5,-56.7 454.5,-37.7 356.5,-37.7"/>
<text text-anchor="start" x="359.5" y="-43.8" font-family="Helvetica,sans-Serif" font-size="11.00" fill="#000000">&lt; 2</text>
<polygon fill="#ffffff" stroke="transparent" points="454.5,-37.7 454.5,-56.7 536.5,-56.7 536.5,-37.7 454.5,-37.7"/>
<polygon fill="none" stroke="#000000" points="454.5,-37.7 454.5,-56.7 536.5,-56.7 536.5,-37.7 454.5,-37.7"/>
<text text-anchor="start" x="494.9956" y="-43.8" font-family="Helvetica,sans-Serif" font-size="11.00" fill="#000000">19 rows</text>
<polygon fill="#ffffff" stroke="transparent" points="536.5,-37.7 536.5,-56.7 587.5,-56.7 587.5,-37.7 536.5,-37.7"/>
<polygon fill="none" stroke="#000000" points="536.5,-37.7 536.5,-56.7 587.5,-56.7 587.5,-37.7 536.5,-37.7"/>
<text text-anchor="start" x="578.3862" y="-43.8" font-family="Helvetica,sans-Serif" font-size="11.00" fill="#000000"> &#160;</text>
</a>
</g>
</g>
<!-- USER_NOTIFICATION_SETTINGS&#45;&gt;USERS -->
<g id="edge9" class="edge">
<title>USER_NOTIFICATION_SETTINGS:w&#45;&gt;USERS:e</title>
<path fill="none" stroke="#000000" d="M343.2266,-93.5903C274.2016,-174.6008 385.824,-942.7 295.5,-942.7"/>
<polygon fill="#000000" stroke="#000000" points="349.3997,-90.3859 358.1586,-89.8952 352.9498,-88.5429 356.5,-86.7 356.5,-86.7 356.5,-86.7 352.9498,-88.5429 354.8414,-83.5048 349.3997,-90.3859 349.3997,-90.3859"/>
<ellipse fill="none" stroke="#000000" cx="346.5595" cy="-91.8602" rx="3.2" ry="3.2"/>
</g>
</g>
</svg>
