<?xml version="1.0" encoding="UTF-8" standalone="no"?>
<!DOCTYPE svg PUBLIC "-//W3C//DTD SVG 1.1//EN"
 "http://www.w3.org/Graphics/SVG/1.1/DTD/svg11.dtd">
<!-- Generated by graphviz version 2.40.1 (20161225.0304)
 -->
<!-- Title: twoDegreesRelationshipsDiagram Pages: 1 -->
<svg width="812pt" height="825pt"
 viewBox="0.00 0.00 812.00 825.20" xmlns="http://www.w3.org/2000/svg" xmlns:xlink="http://www.w3.org/1999/xlink">
<g id="graph0" class="graph" transform="scale(1 1) rotate(0) translate(4 821.2)">
<title>twoDegreesRelationshipsDiagram</title>
<polygon fill="#ffffff" stroke="transparent" points="-4,4 -4,-821.2 808,-821.2 808,4 -4,4"/>
<text text-anchor="middle" x="72.4936" y="-7.3" font-family="Helvetica,sans-Serif" font-size="11.00" fill="#000000">Generated by SchemaSpy</text>
<!-- SCREENING_PLANS -->
<g id="node1" class="node">
<title>SCREENING_PLANS</title>
<g id="a_node1"><a xlink:href="../../tables/SCREENING_PLANS.html" xlink:title="SCREENING_PLANS" target="_top">
<polygon fill="#ffffff" stroke="transparent" points="536.5,-752.2 536.5,-813.2 686.5,-813.2 686.5,-752.2 536.5,-752.2"/>
<polygon fill="#f5f5f5" stroke="transparent" points="536.5,-789.7 536.5,-812.7 686.5,-812.7 686.5,-789.7 536.5,-789.7"/>
<polygon fill="none" stroke="#000000" points="536.5,-789.7 536.5,-812.7 686.5,-812.7 686.5,-789.7 536.5,-789.7"/>
<text text-anchor="start" x="541.2183" y="-798.8" font-family="Helvetica,sans-Serif" font-weight="bold" font-size="11.00" fill="#000000">SCREENING_PLANS</text>
<text text-anchor="start" x="652.0219" y="-797.8" font-family="Helvetica,sans-Serif" font-size="11.00" fill="#000000">[table]</text>
<polygon fill="none" stroke="#000000" points="536.5,-770.7 536.5,-789.7 686.5,-789.7 686.5,-770.7 536.5,-770.7"/>
<text text-anchor="start" x="539.5" y="-776.8" font-family="Helvetica,sans-Serif" font-size="11.00" fill="#000000">...</text>
<polygon fill="#ffffff" stroke="transparent" points="536.5,-751.7 536.5,-770.7 586.5,-770.7 586.5,-751.7 536.5,-751.7"/>
<polygon fill="none" stroke="#000000" points="536.5,-751.7 536.5,-770.7 586.5,-770.7 586.5,-751.7 536.5,-751.7"/>
<text text-anchor="start" x="539.5" y="-757.8" font-family="Helvetica,sans-Serif" font-size="11.00" fill="#000000">&lt; 3</text>
<polygon fill="#ffffff" stroke="transparent" points="586.5,-751.7 586.5,-770.7 650.5,-770.7 650.5,-751.7 586.5,-751.7"/>
<polygon fill="none" stroke="#000000" points="586.5,-751.7 586.5,-770.7 650.5,-770.7 650.5,-751.7 586.5,-751.7"/>
<text text-anchor="start" x="602.8807" y="-757.8" font-family="Helvetica,sans-Serif" font-size="11.00" fill="#000000">137 rows</text>
<polygon fill="#ffffff" stroke="transparent" points="650.5,-751.7 650.5,-770.7 686.5,-770.7 686.5,-751.7 650.5,-751.7"/>
<polygon fill="none" stroke="#000000" points="650.5,-751.7 650.5,-770.7 686.5,-770.7 686.5,-751.7 650.5,-751.7"/>
<text text-anchor="start" x="667.9053" y="-757.8" font-family="Helvetica,sans-Serif" font-size="11.00" fill="#000000">1 &gt;</text>
</a>
</g>
</g>
<!-- SUPPLEMENTS -->
<g id="node2" class="node">
<title>SUPPLEMENTS</title>
<g id="a_node2"><a xlink:href="../../tables/SUPPLEMENTS.html" xlink:title="SUPPLEMENTS" target="_top">
<polygon fill="#ffffff" stroke="transparent" points="190,-571.2 190,-676.2 378,-676.2 378,-571.2 190,-571.2"/>
<polygon fill="#f5f5f5" stroke="transparent" points="190,-652.7 190,-675.7 378,-675.7 378,-652.7 190,-652.7"/>
<polygon fill="none" stroke="#000000" points="190,-652.7 190,-675.7 378,-675.7 378,-652.7 190,-652.7"/>
<text text-anchor="start" x="195" y="-661.8" font-family="Helvetica,sans-Serif" font-weight="bold" font-size="11.00" fill="#000000">SUPPLEMENTS</text>
<text text-anchor="start" x="343.0437" y="-660.8" font-family="Helvetica,sans-Serif" font-size="11.00" fill="#000000">[table]</text>
<polygon fill="none" stroke="#000000" points="190,-630.7 190,-652.7 378,-652.7 378,-630.7 190,-630.7"/>
<image xlink:href="../../images/primaryKeys.png" width="11px" height="12px" preserveAspectRatio="xMinYMin meet" x="195" y="-647.7"/>
<text text-anchor="start" x="210" y="-637.8" font-family="Helvetica,sans-Serif" font-size="11.00" fill="#000000">ID</text>
<polygon fill="none" stroke="#000000" points="190,-608.7 190,-630.7 378,-630.7 378,-608.7 190,-608.7"/>
<image xlink:href="../../images/foreignKeys.png" width="11px" height="12px" preserveAspectRatio="xMinYMin meet" x="195" y="-625.7"/>
<text text-anchor="start" x="210" y="-615.8" font-family="Helvetica,sans-Serif" font-size="11.00" fill="#000000">TARGET_FORM_ID</text>
<polygon fill="none" stroke="#000000" points="190,-589.7 190,-608.7 378,-608.7 378,-589.7 190,-589.7"/>
<text text-anchor="start" x="193" y="-595.8" font-family="Helvetica,sans-Serif" font-size="11.00" fill="#000000">...</text>
<polygon fill="#ffffff" stroke="transparent" points="190,-570.7 190,-589.7 262,-589.7 262,-570.7 190,-570.7"/>
<polygon fill="none" stroke="#000000" points="190,-570.7 190,-589.7 262,-589.7 262,-570.7 190,-570.7"/>
<text text-anchor="start" x="193" y="-576.8" font-family="Helvetica,sans-Serif" font-size="11.00" fill="#000000">&lt; 1</text>
<polygon fill="#ffffff" stroke="transparent" points="262,-570.7 262,-589.7 331,-589.7 331,-570.7 262,-570.7"/>
<polygon fill="none" stroke="#000000" points="262,-570.7 262,-589.7 331,-589.7 331,-570.7 262,-570.7"/>
<text text-anchor="start" x="289.4956" y="-576.8" font-family="Helvetica,sans-Serif" font-size="11.00" fill="#000000">77 rows</text>
<polygon fill="#ffffff" stroke="transparent" points="331,-570.7 331,-589.7 378,-589.7 378,-570.7 331,-570.7"/>
<polygon fill="none" stroke="#000000" points="331,-570.7 331,-589.7 378,-589.7 378,-570.7 331,-570.7"/>
<text text-anchor="start" x="359.4053" y="-576.8" font-family="Helvetica,sans-Serif" font-size="11.00" fill="#000000">5 &gt;</text>
</a>
</g>
</g>
<!-- SCREENING_PLANS&#45;&gt;SUPPLEMENTS -->
<g id="edge1" class="edge">
<title>SCREENING_PLANS:w&#45;&gt;SUPPLEMENTS:e</title>
<path fill="none" stroke="#000000" d="M521.8797,-779.652C477.2662,-779.2473 455.4874,-775.5041 419,-741.7 383.7632,-709.0545 426.035,-641.7 378,-641.7"/>
<polygon fill="#000000" stroke="#000000" points="528.5,-779.6737 536.4882,-783.3 532.5,-779.6868 536.5,-779.7 536.5,-779.7 536.5,-779.7 532.5,-779.6868 536.5118,-776.1 528.5,-779.6737 528.5,-779.6737"/>
<ellipse fill="none" stroke="#000000" cx="525.3001" cy="-779.6631" rx="3.2" ry="3.2"/>
</g>
<!-- TARGET_FORMS -->
<g id="node3" class="node">
<title>TARGET_FORMS</title>
<g id="a_node3"><a xlink:href="../../tables/TARGET_FORMS.html" xlink:title="TARGET_FORMS" target="_top">
<polygon fill="#ffffff" stroke="transparent" points="8,-658.2 8,-719.2 141,-719.2 141,-658.2 8,-658.2"/>
<polygon fill="#f5f5f5" stroke="transparent" points="8.5,-695.7 8.5,-718.7 141.5,-718.7 141.5,-695.7 8.5,-695.7"/>
<polygon fill="none" stroke="#000000" points="8.5,-695.7 8.5,-718.7 141.5,-718.7 141.5,-695.7 8.5,-695.7"/>
<text text-anchor="start" x="13.2801" y="-704.8" font-family="Helvetica,sans-Serif" font-weight="bold" font-size="11.00" fill="#000000">TARGET_FORMS</text>
<text text-anchor="start" x="107.0219" y="-703.8" font-family="Helvetica,sans-Serif" font-size="11.00" fill="#000000">[table]</text>
<polygon fill="none" stroke="#000000" points="8.5,-676.7 8.5,-695.7 141.5,-695.7 141.5,-676.7 8.5,-676.7"/>
<text text-anchor="start" x="11.5" y="-682.8" font-family="Helvetica,sans-Serif" font-size="11.00" fill="#000000">...</text>
<polygon fill="#ffffff" stroke="transparent" points="8.5,-657.7 8.5,-676.7 46.5,-676.7 46.5,-657.7 8.5,-657.7"/>
<polygon fill="none" stroke="#000000" points="8.5,-657.7 8.5,-676.7 46.5,-676.7 46.5,-657.7 8.5,-657.7"/>
<text text-anchor="start" x="11.5" y="-663.8" font-family="Helvetica,sans-Serif" font-size="11.00" fill="#000000">&lt; 5</text>
<polygon fill="#ffffff" stroke="transparent" points="46.5,-657.7 46.5,-676.7 105.5,-676.7 105.5,-657.7 46.5,-657.7"/>
<polygon fill="none" stroke="#000000" points="46.5,-657.7 46.5,-676.7 105.5,-676.7 105.5,-657.7 46.5,-657.7"/>
<text text-anchor="start" x="57.8807" y="-663.8" font-family="Helvetica,sans-Serif" font-size="11.00" fill="#000000">541 rows</text>
<polygon fill="#ffffff" stroke="transparent" points="105.5,-657.7 105.5,-676.7 141.5,-676.7 141.5,-657.7 105.5,-657.7"/>
<polygon fill="none" stroke="#000000" points="105.5,-657.7 105.5,-676.7 141.5,-676.7 141.5,-657.7 105.5,-657.7"/>
<text text-anchor="start" x="116.7904" y="-663.8" font-family="Helvetica,sans-Serif" font-size="11.00" fill="#000000">18 &gt;</text>
</a>
</g>
</g>
<!-- SCREENING_PLANS&#45;&gt;TARGET_FORMS -->
<g id="edge2" class="edge">
<title>SCREENING_PLANS:w&#45;&gt;TARGET_FORMS:e</title>
<path fill="none" stroke="#000000" d="M522.0191,-779.493C354.0685,-774.6297 317.0237,-685.7 141.5,-685.7"/>
<polygon fill="#000000" stroke="#000000" points="528.5008,-779.5856 536.4485,-783.2996 532.5004,-779.6428 536.5,-779.7 536.5,-779.7 536.5,-779.7 532.5004,-779.6428 536.5515,-776.1004 528.5008,-779.5856 528.5008,-779.5856"/>
<ellipse fill="none" stroke="#000000" cx="525.3011" cy="-779.5398" rx="3.2" ry="3.2"/>
</g>
<!-- SUPPLEMENTS&#45;&gt;TARGET_FORMS -->
<g id="edge3" class="edge">
<title>SUPPLEMENTS:w&#45;&gt;TARGET_FORMS:e</title>
<path fill="none" stroke="#000000" d="M175.9938,-624.8789C160.1593,-640.4378 171.6452,-685.7 141.5,-685.7"/>
<polygon fill="#000000" stroke="#000000" points="182.4965,-622.4745 191.2485,-623.0766 186.2483,-621.0873 190,-619.7 190,-619.7 190,-619.7 186.2483,-621.0873 188.7515,-616.3234 182.4965,-622.4745 182.4965,-622.4745"/>
<ellipse fill="none" stroke="#000000" cx="179.4951" cy="-623.5843" rx="3.2" ry="3.2"/>
</g>
<!-- SUPPLEMENTS_ASSAY_TYPES_BINDING_CONSTANTS -->
<g id="node4" class="node">
<title>SUPPLEMENTS_ASSAY_TYPES_BINDING_CONSTANTS</title>
<g id="a_node4"><a xlink:href="../../tables/SUPPLEMENTS_ASSAY_TYPES_BINDING_CONSTANTS.html" xlink:title="SUPPLEMENTS_ASSAY_TYPES_BINDING_CONSTANTS" target="_top">
<polygon fill="#ffffff" stroke="transparent" points="444,-670.2 444,-731.2 779,-731.2 779,-670.2 444,-670.2"/>
<polygon fill="#f5f5f5" stroke="transparent" points="444.5,-707.7 444.5,-730.7 779.5,-730.7 779.5,-707.7 444.5,-707.7"/>
<polygon fill="none" stroke="#000000" points="444.5,-707.7 444.5,-730.7 779.5,-730.7 779.5,-707.7 444.5,-707.7"/>
<text text-anchor="start" x="449.1236" y="-716.8" font-family="Helvetica,sans-Serif" font-weight="bold" font-size="11.00" fill="#000000">SUPPLEMENTS_ASSAY_TYPES_BINDING_CONSTANTS</text>
<text text-anchor="start" x="745.0219" y="-715.8" font-family="Helvetica,sans-Serif" font-size="11.00" fill="#000000">[table]</text>
<polygon fill="none" stroke="#000000" points="444.5,-688.7 444.5,-707.7 779.5,-707.7 779.5,-688.7 444.5,-688.7"/>
<text text-anchor="start" x="447.5" y="-694.8" font-family="Helvetica,sans-Serif" font-size="11.00" fill="#000000">...</text>
<polygon fill="#ffffff" stroke="transparent" points="444.5,-669.7 444.5,-688.7 594.5,-688.7 594.5,-669.7 444.5,-669.7"/>
<polygon fill="none" stroke="#000000" points="444.5,-669.7 444.5,-688.7 594.5,-688.7 594.5,-669.7 444.5,-669.7"/>
<text text-anchor="start" x="447.5" y="-675.8" font-family="Helvetica,sans-Serif" font-size="11.00" fill="#000000">&lt; 3</text>
<polygon fill="#ffffff" stroke="transparent" points="594.5,-669.7 594.5,-688.7 702.5,-688.7 702.5,-669.7 594.5,-669.7"/>
<polygon fill="none" stroke="#000000" points="594.5,-669.7 594.5,-688.7 702.5,-688.7 702.5,-669.7 594.5,-669.7"/>
<text text-anchor="start" x="660.9956" y="-675.8" font-family="Helvetica,sans-Serif" font-size="11.00" fill="#000000">62 rows</text>
<polygon fill="#ffffff" stroke="transparent" points="702.5,-669.7 702.5,-688.7 779.5,-688.7 779.5,-669.7 702.5,-669.7"/>
<polygon fill="none" stroke="#000000" points="702.5,-669.7 702.5,-688.7 779.5,-688.7 779.5,-669.7 702.5,-669.7"/>
<text text-anchor="start" x="770.3862" y="-675.8" font-family="Helvetica,sans-Serif" font-size="11.00" fill="#000000"> &#160;</text>
</a>
</g>
</g>
<!-- SUPPLEMENTS_ASSAY_TYPES_BINDING_CONSTANTS&#45;&gt;SUPPLEMENTS -->
<g id="edge4" class="edge">
<title>SUPPLEMENTS_ASSAY_TYPES_BINDING_CONSTANTS:w&#45;&gt;SUPPLEMENTS:e</title>
<path fill="none" stroke="#000000" d="M430.2368,-694.3646C407.9718,-682.3089 410.9037,-641.7 378,-641.7"/>
<polygon fill="#000000" stroke="#000000" points="436.7101,-695.8784 443.6803,-701.2054 440.6051,-696.7892 444.5,-697.7 444.5,-697.7 444.5,-697.7 440.6051,-696.7892 445.3197,-694.1946 436.7101,-695.8784 436.7101,-695.8784"/>
<ellipse fill="none" stroke="#000000" cx="433.5942" cy="-695.1497" rx="3.2" ry="3.2"/>
</g>
<!-- SUPPLEMENTS_ISOFORM_DOMAINS -->
<g id="node5" class="node">
<title>SUPPLEMENTS_ISOFORM_DOMAINS</title>
<g id="a_node5"><a xlink:href="../../tables/SUPPLEMENTS_ISOFORM_DOMAINS.html" xlink:title="SUPPLEMENTS_ISOFORM_DOMAINS" target="_top">
<polygon fill="#ffffff" stroke="transparent" points="492,-588.2 492,-649.2 731,-649.2 731,-588.2 492,-588.2"/>
<polygon fill="#f5f5f5" stroke="transparent" points="492.5,-625.7 492.5,-648.7 731.5,-648.7 731.5,-625.7 492.5,-625.7"/>
<polygon fill="none" stroke="#000000" points="492.5,-625.7 492.5,-648.7 731.5,-648.7 731.5,-625.7 492.5,-625.7"/>
<text text-anchor="start" x="497.1089" y="-634.8" font-family="Helvetica,sans-Serif" font-weight="bold" font-size="11.00" fill="#000000">SUPPLEMENTS_ISOFORM_DOMAINS</text>
<text text-anchor="start" x="697.0219" y="-633.8" font-family="Helvetica,sans-Serif" font-size="11.00" fill="#000000">[table]</text>
<polygon fill="none" stroke="#000000" points="492.5,-606.7 492.5,-625.7 731.5,-625.7 731.5,-606.7 492.5,-606.7"/>
<text text-anchor="start" x="495.5" y="-612.8" font-family="Helvetica,sans-Serif" font-size="11.00" fill="#000000">...</text>
<polygon fill="#ffffff" stroke="transparent" points="492.5,-587.7 492.5,-606.7 594.5,-606.7 594.5,-587.7 492.5,-587.7"/>
<polygon fill="none" stroke="#000000" points="492.5,-587.7 492.5,-606.7 594.5,-606.7 594.5,-587.7 492.5,-587.7"/>
<text text-anchor="start" x="495.5" y="-593.8" font-family="Helvetica,sans-Serif" font-size="11.00" fill="#000000">&lt; 2</text>
<polygon fill="#ffffff" stroke="transparent" points="594.5,-587.7 594.5,-606.7 678.5,-606.7 678.5,-587.7 594.5,-587.7"/>
<polygon fill="none" stroke="#000000" points="594.5,-587.7 594.5,-606.7 678.5,-606.7 678.5,-587.7 594.5,-587.7"/>
<text text-anchor="start" x="636.9956" y="-593.8" font-family="Helvetica,sans-Serif" font-size="11.00" fill="#000000">50 rows</text>
<polygon fill="#ffffff" stroke="transparent" points="678.5,-587.7 678.5,-606.7 731.5,-606.7 731.5,-587.7 678.5,-587.7"/>
<polygon fill="none" stroke="#000000" points="678.5,-587.7 678.5,-606.7 731.5,-606.7 731.5,-587.7 678.5,-587.7"/>
<text text-anchor="start" x="722.3862" y="-593.8" font-family="Helvetica,sans-Serif" font-size="11.00" fill="#000000"> &#160;</text>
</a>
</g>
</g>
<!-- SUPPLEMENTS_ISOFORM_DOMAINS&#45;&gt;SUPPLEMENTS -->
<g id="edge5" class="edge">
<title>SUPPLEMENTS_ISOFORM_DOMAINS:w&#45;&gt;SUPPLEMENTS:e</title>
<path fill="none" stroke="#000000" d="M478.0745,-616.4225C437.88,-620.6217 424.9863,-641.7 378,-641.7"/>
<polygon fill="#000000" stroke="#000000" points="484.51,-616.1002 492.6801,-619.2955 488.505,-615.9001 492.5,-615.7 492.5,-615.7 492.5,-615.7 488.505,-615.9001 492.3199,-612.1045 484.51,-616.1002 484.51,-616.1002"/>
<ellipse fill="none" stroke="#000000" cx="481.314" cy="-616.2603" rx="3.2" ry="3.2"/>
</g>
<!-- SUPPLEMENTS_REFERENCES -->
<g id="node6" class="node">
<title>SUPPLEMENTS_REFERENCES</title>
<g id="a_node6"><a xlink:href="../../tables/SUPPLEMENTS_REFERENCES.html" xlink:title="SUPPLEMENTS_REFERENCES" target="_top">
<polygon fill="#ffffff" stroke="transparent" points="508.5,-506.2 508.5,-567.2 714.5,-567.2 714.5,-506.2 508.5,-506.2"/>
<polygon fill="#f5f5f5" stroke="transparent" points="508.5,-543.7 508.5,-566.7 714.5,-566.7 714.5,-543.7 508.5,-543.7"/>
<polygon fill="none" stroke="#000000" points="508.5,-543.7 508.5,-566.7 714.5,-566.7 714.5,-543.7 508.5,-543.7"/>
<text text-anchor="start" x="513.4141" y="-552.8" font-family="Helvetica,sans-Serif" font-weight="bold" font-size="11.00" fill="#000000">SUPPLEMENTS_REFERENCES</text>
<text text-anchor="start" x="680.0219" y="-551.8" font-family="Helvetica,sans-Serif" font-size="11.00" fill="#000000">[table]</text>
<polygon fill="none" stroke="#000000" points="508.5,-524.7 508.5,-543.7 714.5,-543.7 714.5,-524.7 508.5,-524.7"/>
<text text-anchor="start" x="511.5" y="-530.8" font-family="Helvetica,sans-Serif" font-size="11.00" fill="#000000">...</text>
<polygon fill="#ffffff" stroke="transparent" points="508.5,-505.7 508.5,-524.7 593.5,-524.7 593.5,-505.7 508.5,-505.7"/>
<polygon fill="none" stroke="#000000" points="508.5,-505.7 508.5,-524.7 593.5,-524.7 593.5,-505.7 508.5,-505.7"/>
<text text-anchor="start" x="511.5" y="-511.8" font-family="Helvetica,sans-Serif" font-size="11.00" fill="#000000">&lt; 2</text>
<polygon fill="#ffffff" stroke="transparent" points="593.5,-505.7 593.5,-524.7 669.5,-524.7 669.5,-505.7 593.5,-505.7"/>
<polygon fill="none" stroke="#000000" points="593.5,-505.7 593.5,-524.7 669.5,-524.7 669.5,-505.7 593.5,-505.7"/>
<text text-anchor="start" x="627.9956" y="-511.8" font-family="Helvetica,sans-Serif" font-size="11.00" fill="#000000">43 rows</text>
<polygon fill="#ffffff" stroke="transparent" points="669.5,-505.7 669.5,-524.7 714.5,-524.7 714.5,-505.7 669.5,-505.7"/>
<polygon fill="none" stroke="#000000" points="669.5,-505.7 669.5,-524.7 714.5,-524.7 714.5,-505.7 669.5,-505.7"/>
<text text-anchor="start" x="705.3862" y="-511.8" font-family="Helvetica,sans-Serif" font-size="11.00" fill="#000000"> &#160;</text>
</a>
</g>
</g>
<!-- SUPPLEMENTS_REFERENCES&#45;&gt;SUPPLEMENTS -->
<g id="edge6" class="edge">
<title>SUPPLEMENTS_REFERENCES:w&#45;&gt;SUPPLEMENTS:e</title>
<path fill="none" stroke="#000000" d="M493.7202,-534.3378C460.9339,-537.4263 448.0565,-551.7501 419,-577.7 393.8045,-600.2017 411.7807,-641.7 378,-641.7"/>
<polygon fill="#000000" stroke="#000000" points="500.5074,-534.0449 508.6552,-537.2967 504.5037,-533.8725 508.5,-533.7 508.5,-533.7 508.5,-533.7 504.5037,-533.8725 508.3448,-530.1033 500.5074,-534.0449 500.5074,-534.0449"/>
<ellipse fill="none" stroke="#000000" cx="497.3104" cy="-534.1829" rx="3.2" ry="3.2"/>
</g>
<!-- VERSION_COMMENTS -->
<g id="node7" class="node">
<title>VERSION_COMMENTS</title>
<g id="a_node7"><a xlink:href="../../tables/VERSION_COMMENTS.html" xlink:title="VERSION_COMMENTS" target="_top">
<polygon fill="#ffffff" stroke="transparent" points="530.5,-120.2 530.5,-181.2 692.5,-181.2 692.5,-120.2 530.5,-120.2"/>
<polygon fill="#f5f5f5" stroke="transparent" points="530.5,-157.7 530.5,-180.7 692.5,-180.7 692.5,-157.7 530.5,-157.7"/>
<polygon fill="none" stroke="#000000" points="530.5,-157.7 530.5,-180.7 692.5,-180.7 692.5,-157.7 530.5,-157.7"/>
<text text-anchor="start" x="535.1138" y="-166.8" font-family="Helvetica,sans-Serif" font-weight="bold" font-size="11.00" fill="#000000">VERSION_COMMENTS</text>
<text text-anchor="start" x="658.0219" y="-165.8" font-family="Helvetica,sans-Serif" font-size="11.00" fill="#000000">[table]</text>
<polygon fill="none" stroke="#000000" points="530.5,-138.7 530.5,-157.7 692.5,-157.7 692.5,-138.7 530.5,-138.7"/>
<text text-anchor="start" x="533.5" y="-144.8" font-family="Helvetica,sans-Serif" font-size="11.00" fill="#000000">...</text>
<polygon fill="#ffffff" stroke="transparent" points="530.5,-119.7 530.5,-138.7 593.5,-138.7 593.5,-119.7 530.5,-119.7"/>
<polygon fill="none" stroke="#000000" points="530.5,-119.7 530.5,-138.7 593.5,-138.7 593.5,-119.7 530.5,-119.7"/>
<text text-anchor="start" x="533.5" y="-125.8" font-family="Helvetica,sans-Serif" font-size="11.00" fill="#000000">&lt; 1</text>
<polygon fill="#ffffff" stroke="transparent" points="593.5,-119.7 593.5,-138.7 658.5,-138.7 658.5,-119.7 593.5,-119.7"/>
<polygon fill="none" stroke="#000000" points="593.5,-119.7 593.5,-138.7 658.5,-138.7 658.5,-119.7 593.5,-119.7"/>
<text text-anchor="start" x="616.9956" y="-125.8" font-family="Helvetica,sans-Serif" font-size="11.00" fill="#000000">21 rows</text>
<polygon fill="#ffffff" stroke="transparent" points="658.5,-119.7 658.5,-138.7 692.5,-138.7 692.5,-119.7 658.5,-119.7"/>
<polygon fill="none" stroke="#000000" points="658.5,-119.7 658.5,-138.7 692.5,-138.7 692.5,-119.7 658.5,-119.7"/>
<text text-anchor="start" x="683.3862" y="-125.8" font-family="Helvetica,sans-Serif" font-size="11.00" fill="#000000"> &#160;</text>
</a>
</g>
</g>
<!-- VERSIONS -->
<g id="node8" class="node">
<title>VERSIONS</title>
<g id="a_node8"><a xlink:href="../../tables/VERSIONS.html" xlink:title="VERSIONS" target="_top">
<polygon fill="#ffffff" stroke="transparent" points="227.5,-118.2 227.5,-223.2 340.5,-223.2 340.5,-118.2 227.5,-118.2"/>
<polygon fill="#f5f5f5" stroke="transparent" points="228,-199.7 228,-222.7 341,-222.7 341,-199.7 228,-199.7"/>
<polygon fill="none" stroke="#000000" points="228,-199.7 228,-222.7 341,-222.7 341,-199.7 228,-199.7"/>
<text text-anchor="start" x="233" y="-208.8" font-family="Helvetica,sans-Serif" font-weight="bold" font-size="11.00" fill="#000000">VERSIONS</text>
<text text-anchor="start" x="306.0437" y="-207.8" font-family="Helvetica,sans-Serif" font-size="11.00" fill="#000000">[table]</text>
<polygon fill="none" stroke="#000000" points="228,-177.7 228,-199.7 341,-199.7 341,-177.7 228,-177.7"/>
<image xlink:href="../../images/primaryKeys.png" width="11px" height="12px" preserveAspectRatio="xMinYMin meet" x="233" y="-194.7"/>
<text text-anchor="start" x="248" y="-184.8" font-family="Helvetica,sans-Serif" font-size="11.00" fill="#000000">ID</text>
<polygon fill="none" stroke="#000000" points="228,-155.7 228,-177.7 341,-177.7 341,-155.7 228,-155.7"/>
<image xlink:href="../../images/foreignKeys.png" width="11px" height="12px" preserveAspectRatio="xMinYMin meet" x="233" y="-172.7"/>
<text text-anchor="start" x="248" y="-162.8" font-family="Helvetica,sans-Serif" font-size="11.00" fill="#000000">CAMPAIGN_ID</text>
<polygon fill="none" stroke="#000000" points="228,-136.7 228,-155.7 341,-155.7 341,-136.7 228,-136.7"/>
<text text-anchor="start" x="231" y="-142.8" font-family="Helvetica,sans-Serif" font-size="11.00" fill="#000000">...</text>
<polygon fill="#ffffff" stroke="transparent" points="228,-117.7 228,-136.7 259,-136.7 259,-117.7 228,-117.7"/>
<polygon fill="none" stroke="#000000" points="228,-117.7 228,-136.7 259,-136.7 259,-117.7 228,-117.7"/>
<text text-anchor="start" x="231" y="-123.8" font-family="Helvetica,sans-Serif" font-size="11.00" fill="#000000">&lt; 1</text>
<polygon fill="#ffffff" stroke="transparent" points="259,-117.7 259,-136.7 314,-136.7 314,-117.7 259,-117.7"/>
<polygon fill="none" stroke="#000000" points="259,-117.7 259,-136.7 314,-136.7 314,-117.7 259,-117.7"/>
<text text-anchor="start" x="266.3807" y="-123.8" font-family="Helvetica,sans-Serif" font-size="11.00" fill="#000000">222 rows</text>
<polygon fill="#ffffff" stroke="transparent" points="314,-117.7 314,-136.7 341,-136.7 341,-117.7 314,-117.7"/>
<polygon fill="none" stroke="#000000" points="314,-117.7 314,-136.7 341,-136.7 341,-117.7 314,-117.7"/>
<text text-anchor="start" x="322.4053" y="-123.8" font-family="Helvetica,sans-Serif" font-size="11.00" fill="#000000">4 &gt;</text>
</a>
</g>
</g>
<!-- VERSION_COMMENTS&#45;&gt;VERSIONS -->
<g id="edge7" class="edge">
<title>VERSION_COMMENTS:w&#45;&gt;VERSIONS:e</title>
<path fill="none" stroke="#000000" d="M516.0358,-148.1058C442.0814,-152.3639 422.1219,-188.7 341,-188.7"/>
<polygon fill="#000000" stroke="#000000" points="522.5031,-147.9244 530.601,-151.2986 526.5016,-147.8122 530.5,-147.7 530.5,-147.7 530.5,-147.7 526.5016,-147.8122 530.399,-144.1014 522.5031,-147.9244 522.5031,-147.9244"/>
<ellipse fill="none" stroke="#000000" cx="519.3044" cy="-148.0142" rx="3.2" ry="3.2"/>
</g>
<!-- CAMPAIGNS -->
<g id="node9" class="node">
<title>CAMPAIGNS</title>
<g id="a_node9"><a xlink:href="../../tables/CAMPAIGNS.html" xlink:title="CAMPAIGNS" target="_top">
<polygon fill="#ffffff" stroke="transparent" points="20,-139.2 20,-200.2 129,-200.2 129,-139.2 20,-139.2"/>
<polygon fill="#f5f5f5" stroke="transparent" points="20.5,-176.7 20.5,-199.7 129.5,-199.7 129.5,-176.7 20.5,-176.7"/>
<polygon fill="none" stroke="#000000" points="20.5,-176.7 20.5,-199.7 129.5,-199.7 129.5,-176.7 20.5,-176.7"/>
<text text-anchor="start" x="25.4995" y="-185.8" font-family="Helvetica,sans-Serif" font-weight="bold" font-size="11.00" fill="#000000">CAMPAIGNS</text>
<text text-anchor="start" x="95.0219" y="-184.8" font-family="Helvetica,sans-Serif" font-size="11.00" fill="#000000">[table]</text>
<polygon fill="none" stroke="#000000" points="20.5,-157.7 20.5,-176.7 129.5,-176.7 129.5,-157.7 20.5,-157.7"/>
<text text-anchor="start" x="23.5" y="-163.8" font-family="Helvetica,sans-Serif" font-size="11.00" fill="#000000">...</text>
<polygon fill="#ffffff" stroke="transparent" points="20.5,-138.7 20.5,-157.7 48.5,-157.7 48.5,-138.7 20.5,-138.7"/>
<polygon fill="none" stroke="#000000" points="20.5,-138.7 20.5,-157.7 48.5,-157.7 48.5,-138.7 20.5,-138.7"/>
<text text-anchor="start" x="23.5" y="-144.8" font-family="Helvetica,sans-Serif" font-size="11.00" fill="#000000"> &#160;</text>
<polygon fill="#ffffff" stroke="transparent" points="48.5,-138.7 48.5,-157.7 100.5,-157.7 100.5,-138.7 48.5,-138.7"/>
<polygon fill="none" stroke="#000000" points="48.5,-138.7 48.5,-157.7 100.5,-157.7 100.5,-138.7 48.5,-138.7"/>
<text text-anchor="start" x="58.9956" y="-144.8" font-family="Helvetica,sans-Serif" font-size="11.00" fill="#000000">86 rows</text>
<polygon fill="#ffffff" stroke="transparent" points="100.5,-138.7 100.5,-157.7 129.5,-157.7 129.5,-138.7 100.5,-138.7"/>
<polygon fill="none" stroke="#000000" points="100.5,-138.7 100.5,-157.7 129.5,-157.7 129.5,-138.7 100.5,-138.7"/>
<text text-anchor="start" x="110.9053" y="-144.8" font-family="Helvetica,sans-Serif" font-size="11.00" fill="#000000">2 &gt;</text>
</a>
</g>
</g>
<!-- VERSIONS&#45;&gt;CAMPAIGNS -->
<g id="edge8" class="edge">
<title>VERSIONS:w&#45;&gt;CAMPAIGNS:e</title>
<path fill="none" stroke="#000000" d="M213.4241,-166.7C181.0902,-166.7 167.9766,-166.7 129.5,-166.7"/>
<polygon fill="#000000" stroke="#000000" points="220,-166.7001 228,-170.3 224,-166.7 228,-166.7 228,-166.7 228,-166.7 224,-166.7 228,-163.1 220,-166.7001 220,-166.7001"/>
<ellipse fill="none" stroke="#000000" cx="216.8" cy="-166.7001" rx="3.2" ry="3.2"/>
</g>
<!-- VERSIONS_PARTS -->
<g id="node10" class="node">
<title>VERSIONS_PARTS</title>
<g id="a_node10"><a xlink:href="../../tables/VERSIONS_PARTS.html" xlink:title="VERSIONS_PARTS" target="_top">
<polygon fill="#ffffff" stroke="transparent" points="540.5,-38.2 540.5,-99.2 682.5,-99.2 682.5,-38.2 540.5,-38.2"/>
<polygon fill="#f5f5f5" stroke="transparent" points="540.5,-75.7 540.5,-98.7 682.5,-98.7 682.5,-75.7 540.5,-75.7"/>
<polygon fill="none" stroke="#000000" points="540.5,-75.7 540.5,-98.7 682.5,-98.7 682.5,-75.7 540.5,-75.7"/>
<text text-anchor="start" x="545.1887" y="-84.8" font-family="Helvetica,sans-Serif" font-weight="bold" font-size="11.00" fill="#000000">VERSIONS_PARTS</text>
<text text-anchor="start" x="648.0219" y="-83.8" font-family="Helvetica,sans-Serif" font-size="11.00" fill="#000000">[table]</text>
<polygon fill="none" stroke="#000000" points="540.5,-56.7 540.5,-75.7 682.5,-75.7 682.5,-56.7 540.5,-56.7"/>
<text text-anchor="start" x="543.5" y="-62.8" font-family="Helvetica,sans-Serif" font-size="11.00" fill="#000000">...</text>
<polygon fill="#ffffff" stroke="transparent" points="540.5,-37.7 540.5,-56.7 586.5,-56.7 586.5,-37.7 540.5,-37.7"/>
<polygon fill="none" stroke="#000000" points="540.5,-37.7 540.5,-56.7 586.5,-56.7 586.5,-37.7 540.5,-37.7"/>
<text text-anchor="start" x="543.5" y="-43.8" font-family="Helvetica,sans-Serif" font-size="11.00" fill="#000000">&lt; 2</text>
<polygon fill="#ffffff" stroke="transparent" points="586.5,-37.7 586.5,-56.7 648.5,-56.7 648.5,-37.7 586.5,-37.7"/>
<polygon fill="none" stroke="#000000" points="586.5,-37.7 586.5,-56.7 648.5,-56.7 648.5,-37.7 586.5,-37.7"/>
<text text-anchor="start" x="600.8807" y="-43.8" font-family="Helvetica,sans-Serif" font-size="11.00" fill="#000000">449 rows</text>
<polygon fill="#ffffff" stroke="transparent" points="648.5,-37.7 648.5,-56.7 682.5,-56.7 682.5,-37.7 648.5,-37.7"/>
<polygon fill="none" stroke="#000000" points="648.5,-37.7 648.5,-56.7 682.5,-56.7 682.5,-37.7 648.5,-37.7"/>
<text text-anchor="start" x="663.9053" y="-43.8" font-family="Helvetica,sans-Serif" font-size="11.00" fill="#000000">2 &gt;</text>
</a>
</g>
</g>
<!-- VERSIONS_PARTS&#45;&gt;VERSIONS -->
<g id="edge9" class="edge">
<title>VERSIONS_PARTS:w&#45;&gt;VERSIONS:e</title>
<path fill="none" stroke="#000000" d="M525.9768,-66.019C479.9827,-68.1856 463.0189,-81.5096 419,-109.7 377.449,-136.3099 390.3413,-188.7 341,-188.7"/>
<polygon fill="#000000" stroke="#000000" points="532.5019,-65.8757 540.5791,-69.2991 536.501,-65.7879 540.5,-65.7 540.5,-65.7 540.5,-65.7 536.501,-65.7879 540.4209,-62.1009 532.5019,-65.8757 532.5019,-65.8757"/>
<ellipse fill="none" stroke="#000000" cx="529.3027" cy="-65.946" rx="3.2" ry="3.2"/>
</g>
<!-- VERSIONS_SUPPLEMENTS -->
<g id="node11" class="node">
<title>VERSIONS_SUPPLEMENTS</title>
<g id="a_node11"><a xlink:href="../../tables/VERSIONS_SUPPLEMENTS.html" xlink:title="VERSIONS_SUPPLEMENTS" target="_top">
<polygon fill="#ffffff" stroke="transparent" points="427,-284.7 427,-484.7 796,-484.7 796,-284.7 427,-284.7"/>
<polygon fill="#f5f5f5" stroke="transparent" points="429.5,-459.7 429.5,-482.7 794.5,-482.7 794.5,-459.7 429.5,-459.7"/>
<polygon fill="none" stroke="#000000" points="429.5,-459.7 429.5,-482.7 794.5,-482.7 794.5,-459.7 429.5,-459.7"/>
<text text-anchor="start" x="434.5" y="-468.8" font-family="Helvetica,sans-Serif" font-weight="bold" font-size="11.00" fill="#000000">VERSIONS_SUPPLEMENTS</text>
<text text-anchor="start" x="759.5437" y="-467.8" font-family="Helvetica,sans-Serif" font-size="11.00" fill="#000000">[table]</text>
<polygon fill="none" stroke="#000000" points="429.5,-437.7 429.5,-459.7 623.5,-459.7 623.5,-437.7 429.5,-437.7"/>
<image xlink:href="../../images/primaryKeys.png" width="11px" height="12px" preserveAspectRatio="xMinYMin meet" x="434.5" y="-454.7"/>
<text text-anchor="start" x="449.5" y="-444.8" font-family="Helvetica,sans-Serif" font-size="11.00" fill="#000000">ID</text>
<polygon fill="none" stroke="#000000" points="623.5,-437.7 623.5,-459.7 794.5,-459.7 794.5,-437.7 623.5,-437.7"/>
<text text-anchor="start" x="626.5" y="-445.4" font-family="Helvetica,sans-Serif" font-size="11.00" fill="#000000">number[19]</text>
<polygon fill="none" stroke="#000000" points="429.5,-415.7 429.5,-437.7 623.5,-437.7 623.5,-415.7 429.5,-415.7"/>
<text text-anchor="start" x="449.5" y="-422.8" font-family="Helvetica,sans-Serif" font-size="11.00" fill="#000000">CREATED_AT</text>
<polygon fill="none" stroke="#000000" points="623.5,-415.7 623.5,-437.7 794.5,-437.7 794.5,-415.7 623.5,-415.7"/>
<text text-anchor="start" x="626.4896" y="-423.4" font-family="Helvetica,sans-Serif" font-size="11.00" fill="#000000">timestamp(6) with time zone[13,6]</text>
<polygon fill="none" stroke="#000000" points="429.5,-393.7 429.5,-415.7 623.5,-415.7 623.5,-393.7 429.5,-393.7"/>
<text text-anchor="start" x="449.5" y="-400.8" font-family="Helvetica,sans-Serif" font-size="11.00" fill="#000000">CREATED_BY</text>
<polygon fill="none" stroke="#000000" points="623.5,-393.7 623.5,-415.7 794.5,-415.7 794.5,-393.7 623.5,-393.7"/>
<text text-anchor="start" x="626.5" y="-401.4" font-family="Helvetica,sans-Serif" font-size="11.00" fill="#000000">number[19]</text>
<polygon fill="none" stroke="#000000" points="429.5,-371.7 429.5,-393.7 623.5,-393.7 623.5,-371.7 429.5,-371.7"/>
<text text-anchor="start" x="449.5" y="-378.8" font-family="Helvetica,sans-Serif" font-size="11.00" fill="#000000">UPDATED_AT</text>
<polygon fill="none" stroke="#000000" points="623.5,-371.7 623.5,-393.7 794.5,-393.7 794.5,-371.7 623.5,-371.7"/>
<text text-anchor="start" x="626.4896" y="-379.4" font-family="Helvetica,sans-Serif" font-size="11.00" fill="#000000">timestamp(6) with time zone[13,6]</text>
<polygon fill="none" stroke="#000000" points="429.5,-349.7 429.5,-371.7 623.5,-371.7 623.5,-349.7 429.5,-349.7"/>
<text text-anchor="start" x="449.5" y="-356.8" font-family="Helvetica,sans-Serif" font-size="11.00" fill="#000000">UPDATED_BY</text>
<polygon fill="none" stroke="#000000" points="623.5,-349.7 623.5,-371.7 794.5,-371.7 794.5,-349.7 623.5,-349.7"/>
<text text-anchor="start" x="626.5" y="-357.4" font-family="Helvetica,sans-Serif" font-size="11.00" fill="#000000">number[19]</text>
<polygon fill="none" stroke="#000000" points="429.5,-327.7 429.5,-349.7 623.5,-349.7 623.5,-327.7 429.5,-327.7"/>
<image xlink:href="../../images/primaryKeys.png" width="11px" height="12px" preserveAspectRatio="xMinYMin meet" x="434.5" y="-344.7"/>
<text text-anchor="start" x="449.5" y="-334.8" font-family="Helvetica,sans-Serif" font-size="11.00" fill="#000000">VERSION_ID</text>
<polygon fill="none" stroke="#000000" points="623.5,-327.7 623.5,-349.7 794.5,-349.7 794.5,-327.7 623.5,-327.7"/>
<text text-anchor="start" x="626.5" y="-335.4" font-family="Helvetica,sans-Serif" font-size="11.00" fill="#000000">number[19]</text>
<polygon fill="none" stroke="#000000" points="429.5,-305.7 429.5,-327.7 623.5,-327.7 623.5,-305.7 429.5,-305.7"/>
<image xlink:href="../../images/primaryKeys.png" width="11px" height="12px" preserveAspectRatio="xMinYMin meet" x="434.5" y="-322.7"/>
<text text-anchor="start" x="449.5" y="-312.8" font-family="Helvetica,sans-Serif" font-size="11.00" fill="#000000">SUPPLEMENT_ID</text>
<polygon fill="none" stroke="#000000" points="623.5,-305.7 623.5,-327.7 794.5,-327.7 794.5,-305.7 623.5,-305.7"/>
<text text-anchor="start" x="626.5" y="-313.4" font-family="Helvetica,sans-Serif" font-size="11.00" fill="#000000">number[19]</text>
<polygon fill="#ffffff" stroke="transparent" points="429.5,-286.7 429.5,-305.7 511.5,-305.7 511.5,-286.7 429.5,-286.7"/>
<polygon fill="none" stroke="#000000" points="429.5,-286.7 429.5,-305.7 511.5,-305.7 511.5,-286.7 429.5,-286.7"/>
<text text-anchor="start" x="432.5" y="-292.8" font-family="Helvetica,sans-Serif" font-size="11.00" fill="#000000">&lt; 2</text>
<polygon fill="#ffffff" stroke="transparent" points="511.5,-286.7 511.5,-305.7 623.5,-305.7 623.5,-286.7 511.5,-286.7"/>
<polygon fill="none" stroke="#000000" points="511.5,-286.7 511.5,-305.7 623.5,-305.7 623.5,-286.7 511.5,-286.7"/>
<text text-anchor="start" x="575.8807" y="-292.8" font-family="Helvetica,sans-Serif" font-size="11.00" fill="#000000">190 rows</text>
<polygon fill="#ffffff" stroke="transparent" points="623.5,-286.7 623.5,-305.7 794.5,-305.7 794.5,-286.7 623.5,-286.7"/>
<polygon fill="none" stroke="#000000" points="623.5,-286.7 623.5,-305.7 794.5,-305.7 794.5,-286.7 623.5,-286.7"/>
<text text-anchor="start" x="775.9053" y="-292.8" font-family="Helvetica,sans-Serif" font-size="11.00" fill="#000000">0 &gt;</text>
<polygon fill="none" stroke="#000000" stroke-width="2" points="428,-285.7 428,-483.7 795,-483.7 795,-285.7 428,-285.7"/>
</a>
</g>
</g>
<!-- VERSIONS_SUPPLEMENTS&#45;&gt;SUPPLEMENTS -->
<g id="edge10" class="edge">
<title>VERSIONS_SUPPLEMENTS:w&#45;&gt;SUPPLEMENTS:e</title>
<path fill="none" stroke="#000000" d="M415.8555,-321.805C369.5159,-363.152 445.6962,-641.7 378,-641.7"/>
<polygon fill="#000000" stroke="#000000" points="422.0072,-319.5034 430.7615,-320.0717 425.7536,-318.1017 429.5,-316.7 429.5,-316.7 429.5,-316.7 425.7536,-318.1017 428.2385,-313.3283 422.0072,-319.5034 422.0072,-319.5034"/>
<ellipse fill="none" stroke="#000000" cx="419.0101" cy="-320.6247" rx="3.2" ry="3.2"/>
</g>
<!-- VERSIONS_SUPPLEMENTS&#45;&gt;VERSIONS -->
<g id="edge11" class="edge">
<title>VERSIONS_SUPPLEMENTS:w&#45;&gt;VERSIONS:e</title>
<path fill="none" stroke="#000000" d="M415.204,-336.5796C360.7092,-318.3478 412.9626,-188.7 341,-188.7"/>
<polygon fill="#000000" stroke="#000000" points="421.5866,-337.5262 428.9718,-342.261 425.5433,-338.1131 429.5,-338.7 429.5,-338.7 429.5,-338.7 425.5433,-338.1131 430.0282,-335.139 421.5866,-337.5262 421.5866,-337.5262"/>
<ellipse fill="none" stroke="#000000" cx="418.4212" cy="-337.0567" rx="3.2" ry="3.2"/>
</g>
<!-- VERSIONS_TRACERS -->
<g id="node12" class="node">
<title>VERSIONS_TRACERS</title>
<g id="a_node12"><a xlink:href="../../tables/VERSIONS_TRACERS.html" xlink:title="VERSIONS_TRACERS" target="_top">
<polygon fill="#ffffff" stroke="transparent" points="532.5,-202.2 532.5,-263.2 690.5,-263.2 690.5,-202.2 532.5,-202.2"/>
<polygon fill="#f5f5f5" stroke="transparent" points="532.5,-239.7 532.5,-262.7 690.5,-262.7 690.5,-239.7 532.5,-239.7"/>
<polygon fill="none" stroke="#000000" points="532.5,-239.7 532.5,-262.7 690.5,-262.7 690.5,-239.7 532.5,-239.7"/>
<text text-anchor="start" x="537.2478" y="-248.8" font-family="Helvetica,sans-Serif" font-weight="bold" font-size="11.00" fill="#000000">VERSIONS_TRACERS</text>
<text text-anchor="start" x="656.0219" y="-247.8" font-family="Helvetica,sans-Serif" font-size="11.00" fill="#000000">[table]</text>
<polygon fill="none" stroke="#000000" points="532.5,-220.7 532.5,-239.7 690.5,-239.7 690.5,-220.7 532.5,-220.7"/>
<text text-anchor="start" x="535.5" y="-226.8" font-family="Helvetica,sans-Serif" font-size="11.00" fill="#000000">...</text>
<polygon fill="#ffffff" stroke="transparent" points="532.5,-201.7 532.5,-220.7 581.5,-220.7 581.5,-201.7 532.5,-201.7"/>
<polygon fill="none" stroke="#000000" points="532.5,-201.7 532.5,-220.7 581.5,-220.7 581.5,-201.7 532.5,-201.7"/>
<text text-anchor="start" x="535.5" y="-207.8" font-family="Helvetica,sans-Serif" font-size="11.00" fill="#000000">&lt; 2</text>
<polygon fill="#ffffff" stroke="transparent" points="581.5,-201.7 581.5,-220.7 654.5,-220.7 654.5,-201.7 581.5,-201.7"/>
<polygon fill="none" stroke="#000000" points="581.5,-201.7 581.5,-220.7 654.5,-220.7 654.5,-201.7 581.5,-201.7"/>
<text text-anchor="start" x="597.7089" y="-207.8" font-family="Helvetica,sans-Serif" font-size="11.00" fill="#000000">1,279 rows</text>
<polygon fill="#ffffff" stroke="transparent" points="654.5,-201.7 654.5,-220.7 690.5,-220.7 690.5,-201.7 654.5,-201.7"/>
<polygon fill="none" stroke="#000000" points="654.5,-201.7 654.5,-220.7 690.5,-220.7 690.5,-201.7 654.5,-201.7"/>
<text text-anchor="start" x="671.9053" y="-207.8" font-family="Helvetica,sans-Serif" font-size="11.00" fill="#000000">2 &gt;</text>
</a>
</g>
</g>
<!-- VERSIONS_TRACERS&#45;&gt;VERSIONS -->
<g id="edge12" class="edge">
<title>VERSIONS_TRACERS:w&#45;&gt;VERSIONS:e</title>
<path fill="none" stroke="#000000" d="M517.8891,-229.2942C443.1796,-225.0361 422.9399,-188.7 341,-188.7"/>
<polygon fill="#000000" stroke="#000000" points="524.5031,-229.4778 532.4,-233.2986 528.5015,-229.5889 532.5,-229.7 532.5,-229.7 532.5,-229.7 528.5015,-229.5889 532.6,-226.1014 524.5031,-229.4778 524.5031,-229.4778"/>
<ellipse fill="none" stroke="#000000" cx="521.3043" cy="-229.389" rx="3.2" ry="3.2"/>
</g>
</g>
</svg>
