<?xml version="1.0" encoding="UTF-8" standalone="no"?>
<!DOCTYPE svg PUBLIC "-//W3C//DTD SVG 1.1//EN"
 "http://www.w3.org/Graphics/SVG/1.1/DTD/svg11.dtd">
<!-- Generated by graphviz version 2.40.1 (20161225.0304)
 -->
<!-- Title: twoDegreesRelationshipsDiagram Pages: 1 -->
<svg width="1015pt" height="825pt"
 viewBox="0.00 0.00 1015.00 825.20" xmlns="http://www.w3.org/2000/svg" xmlns:xlink="http://www.w3.org/1999/xlink">
<g id="graph0" class="graph" transform="scale(1 1) rotate(0) translate(4 821.2)">
<title>twoDegreesRelationshipsDiagram</title>
<polygon fill="#ffffff" stroke="transparent" points="-4,4 -4,-821.2 1011,-821.2 1011,4 -4,4"/>
<text text-anchor="middle" x="72.4936" y="-7.3" font-family="Helvetica,sans-Serif" font-size="11.00" fill="#000000">Generated by SchemaSpy</text>
<!-- DNA_ATTACHMENT_SITES_REFERENCES -->
<g id="node1" class="node">
<title>DNA_ATTACHMENT_SITES_REFERENCES</title>
<g id="a_node1"><a xlink:href="../../tables/DNA_ATTACHMENT_SITES_REFERENCES.html" xlink:title="DNA_ATTACHMENT_SITES_REFERENCES" target="_top">
<polygon fill="#ffffff" stroke="transparent" points="637.5,-752.2 637.5,-813.2 903.5,-813.2 903.5,-752.2 637.5,-752.2"/>
<polygon fill="#f5f5f5" stroke="transparent" points="637.5,-789.7 637.5,-812.7 903.5,-812.7 903.5,-789.7 637.5,-789.7"/>
<polygon fill="none" stroke="#000000" points="637.5,-789.7 637.5,-812.7 903.5,-812.7 903.5,-789.7 637.5,-789.7"/>
<text text-anchor="start" x="642.1691" y="-798.8" font-family="Helvetica,sans-Serif" font-weight="bold" font-size="11.00" fill="#000000">DNA_ATTACHMENT_SITES_REFERENCES</text>
<text text-anchor="start" x="869.0219" y="-797.8" font-family="Helvetica,sans-Serif" font-size="11.00" fill="#000000">[table]</text>
<polygon fill="none" stroke="#000000" points="637.5,-770.7 637.5,-789.7 903.5,-789.7 903.5,-770.7 637.5,-770.7"/>
<text text-anchor="start" x="640.5" y="-776.8" font-family="Helvetica,sans-Serif" font-size="11.00" fill="#000000">...</text>
<polygon fill="#ffffff" stroke="transparent" points="637.5,-751.7 637.5,-770.7 752.5,-770.7 752.5,-751.7 637.5,-751.7"/>
<polygon fill="none" stroke="#000000" points="637.5,-751.7 637.5,-770.7 752.5,-770.7 752.5,-751.7 637.5,-751.7"/>
<text text-anchor="start" x="640.5" y="-757.8" font-family="Helvetica,sans-Serif" font-size="11.00" fill="#000000">&lt; 3</text>
<polygon fill="#ffffff" stroke="transparent" points="752.5,-751.7 752.5,-770.7 843.5,-770.7 843.5,-751.7 752.5,-751.7"/>
<polygon fill="none" stroke="#000000" points="752.5,-751.7 752.5,-770.7 843.5,-770.7 843.5,-751.7 752.5,-751.7"/>
<text text-anchor="start" x="801.9956" y="-757.8" font-family="Helvetica,sans-Serif" font-size="11.00" fill="#000000">29 rows</text>
<polygon fill="#ffffff" stroke="transparent" points="843.5,-751.7 843.5,-770.7 903.5,-770.7 903.5,-751.7 843.5,-751.7"/>
<polygon fill="none" stroke="#000000" points="843.5,-751.7 843.5,-770.7 903.5,-770.7 903.5,-751.7 843.5,-751.7"/>
<text text-anchor="start" x="894.3862" y="-757.8" font-family="Helvetica,sans-Serif" font-size="11.00" fill="#000000"> &#160;</text>
</a>
</g>
</g>
<!-- DNA_ATTACHMENT_SITES -->
<g id="node2" class="node">
<title>DNA_ATTACHMENT_SITES</title>
<g id="a_node2"><a xlink:href="../../tables/DNA_ATTACHMENT_SITES.html" xlink:title="DNA_ATTACHMENT_SITES" target="_top">
<polygon fill="#ffffff" stroke="transparent" points="8,-451.2 8,-512.2 193,-512.2 193,-451.2 8,-451.2"/>
<polygon fill="#f5f5f5" stroke="transparent" points="8.5,-488.7 8.5,-511.7 193.5,-511.7 193.5,-488.7 8.5,-488.7"/>
<polygon fill="none" stroke="#000000" points="8.5,-488.7 8.5,-511.7 193.5,-511.7 193.5,-488.7 8.5,-488.7"/>
<text text-anchor="start" x="13.308" y="-497.8" font-family="Helvetica,sans-Serif" font-weight="bold" font-size="11.00" fill="#000000">DNA_ATTACHMENT_SITES</text>
<text text-anchor="start" x="159.0219" y="-496.8" font-family="Helvetica,sans-Serif" font-size="11.00" fill="#000000">[table]</text>
<polygon fill="none" stroke="#000000" points="8.5,-469.7 8.5,-488.7 193.5,-488.7 193.5,-469.7 8.5,-469.7"/>
<text text-anchor="start" x="11.5" y="-475.8" font-family="Helvetica,sans-Serif" font-size="11.00" fill="#000000">...</text>
<polygon fill="#ffffff" stroke="transparent" points="8.5,-450.7 8.5,-469.7 77.5,-469.7 77.5,-450.7 8.5,-450.7"/>
<polygon fill="none" stroke="#000000" points="8.5,-450.7 8.5,-469.7 77.5,-469.7 77.5,-450.7 8.5,-450.7"/>
<text text-anchor="start" x="11.5" y="-456.8" font-family="Helvetica,sans-Serif" font-size="11.00" fill="#000000"> &#160;</text>
<polygon fill="#ffffff" stroke="transparent" points="77.5,-450.7 77.5,-469.7 143.5,-469.7 143.5,-450.7 77.5,-450.7"/>
<polygon fill="none" stroke="#000000" points="77.5,-450.7 77.5,-469.7 143.5,-469.7 143.5,-450.7 77.5,-450.7"/>
<text text-anchor="start" x="108.1105" y="-456.8" font-family="Helvetica,sans-Serif" font-size="11.00" fill="#000000">7 rows</text>
<polygon fill="#ffffff" stroke="transparent" points="143.5,-450.7 143.5,-469.7 193.5,-469.7 193.5,-450.7 143.5,-450.7"/>
<polygon fill="none" stroke="#000000" points="143.5,-450.7 143.5,-469.7 193.5,-469.7 193.5,-450.7 143.5,-450.7"/>
<text text-anchor="start" x="174.9053" y="-456.8" font-family="Helvetica,sans-Serif" font-size="11.00" fill="#000000">2 &gt;</text>
</a>
</g>
</g>
<!-- DNA_ATTACHMENT_SITES_REFERENCES&#45;&gt;DNA_ATTACHMENT_SITES -->
<g id="edge1" class="edge">
<title>DNA_ATTACHMENT_SITES_REFERENCES:w&#45;&gt;DNA_ATTACHMENT_SITES:e</title>
<path fill="none" stroke="#000000" d="M623.0295,-779.3228C528.7851,-774.6988 330.6583,-727.2461 234,-619.7 190.4163,-571.207 258.7005,-478.7 193.5,-478.7"/>
<polygon fill="#000000" stroke="#000000" points="629.5027,-779.4915 637.4062,-783.2988 633.5014,-779.5957 637.5,-779.7 637.5,-779.7 637.5,-779.7 633.5014,-779.5957 637.5938,-776.1012 629.5027,-779.4915 629.5027,-779.4915"/>
<ellipse fill="none" stroke="#000000" cx="626.3038" cy="-779.4081" rx="3.2" ry="3.2"/>
</g>
<!-- TRACER_LIGANDS -->
<g id="node3" class="node">
<title>TRACER_LIGANDS</title>
<g id="a_node3"><a xlink:href="../../tables/TRACER_LIGANDS.html" xlink:title="TRACER_LIGANDS" target="_top">
<polygon fill="#ffffff" stroke="transparent" points="242,-460.2 242,-609.2 493,-609.2 493,-460.2 242,-460.2"/>
<polygon fill="#f5f5f5" stroke="transparent" points="242.5,-585.7 242.5,-608.7 493.5,-608.7 493.5,-585.7 242.5,-585.7"/>
<polygon fill="none" stroke="#000000" points="242.5,-585.7 242.5,-608.7 493.5,-608.7 493.5,-585.7 242.5,-585.7"/>
<text text-anchor="start" x="247.5" y="-594.8" font-family="Helvetica,sans-Serif" font-weight="bold" font-size="11.00" fill="#000000">TRACER_LIGANDS</text>
<text text-anchor="start" x="458.5437" y="-593.8" font-family="Helvetica,sans-Serif" font-size="11.00" fill="#000000">[table]</text>
<polygon fill="none" stroke="#000000" points="242.5,-563.7 242.5,-585.7 493.5,-585.7 493.5,-563.7 242.5,-563.7"/>
<image xlink:href="../../images/primaryKeys.png" width="11px" height="12px" preserveAspectRatio="xMinYMin meet" x="247.5" y="-580.7"/>
<text text-anchor="start" x="262.5" y="-570.8" font-family="Helvetica,sans-Serif" font-size="11.00" fill="#000000">ID</text>
<polygon fill="none" stroke="#000000" points="242.5,-541.7 242.5,-563.7 493.5,-563.7 493.5,-541.7 242.5,-541.7"/>
<image xlink:href="../../images/foreignKeys.png" width="11px" height="12px" preserveAspectRatio="xMinYMin meet" x="247.5" y="-558.7"/>
<text text-anchor="start" x="262.5" y="-548.8" font-family="Helvetica,sans-Serif" font-size="11.00" fill="#000000">TYPE_ID</text>
<polygon fill="none" stroke="#000000" points="242.5,-519.7 242.5,-541.7 493.5,-541.7 493.5,-519.7 242.5,-519.7"/>
<image xlink:href="../../images/foreignKeys.png" width="11px" height="12px" preserveAspectRatio="xMinYMin meet" x="247.5" y="-536.7"/>
<text text-anchor="start" x="262.5" y="-526.8" font-family="Helvetica,sans-Serif" font-size="11.00" fill="#000000">TRACER_SYNTHESIS_SCIENTIST_ID</text>
<polygon fill="none" stroke="#000000" points="242.5,-497.7 242.5,-519.7 493.5,-519.7 493.5,-497.7 242.5,-497.7"/>
<image xlink:href="../../images/foreignKeys.png" width="11px" height="12px" preserveAspectRatio="xMinYMin meet" x="247.5" y="-514.7"/>
<text text-anchor="start" x="262.5" y="-504.8" font-family="Helvetica,sans-Serif" font-size="11.00" fill="#000000">DNA_ATTACHMENT_SITE_ID</text>
<polygon fill="none" stroke="#000000" points="242.5,-478.7 242.5,-497.7 493.5,-497.7 493.5,-478.7 242.5,-478.7"/>
<text text-anchor="start" x="245.5" y="-484.8" font-family="Helvetica,sans-Serif" font-size="11.00" fill="#000000">...</text>
<polygon fill="#ffffff" stroke="transparent" points="242.5,-459.7 242.5,-478.7 342.5,-478.7 342.5,-459.7 242.5,-459.7"/>
<polygon fill="none" stroke="#000000" points="242.5,-459.7 242.5,-478.7 342.5,-478.7 342.5,-459.7 242.5,-459.7"/>
<text text-anchor="start" x="245.5" y="-465.8" font-family="Helvetica,sans-Serif" font-size="11.00" fill="#000000">&lt; 3</text>
<polygon fill="#ffffff" stroke="transparent" points="342.5,-459.7 342.5,-478.7 432.5,-478.7 432.5,-459.7 342.5,-459.7"/>
<polygon fill="none" stroke="#000000" points="342.5,-459.7 342.5,-478.7 432.5,-478.7 432.5,-459.7 342.5,-459.7"/>
<text text-anchor="start" x="384.8807" y="-465.8" font-family="Helvetica,sans-Serif" font-size="11.00" fill="#000000">416 rows</text>
<polygon fill="#ffffff" stroke="transparent" points="432.5,-459.7 432.5,-478.7 493.5,-478.7 493.5,-459.7 432.5,-459.7"/>
<polygon fill="none" stroke="#000000" points="432.5,-459.7 432.5,-478.7 493.5,-478.7 493.5,-459.7 432.5,-459.7"/>
<text text-anchor="start" x="474.9053" y="-465.8" font-family="Helvetica,sans-Serif" font-size="11.00" fill="#000000">7 &gt;</text>
</a>
</g>
</g>
<!-- DNA_ATTACHMENT_SITES_REFERENCES&#45;&gt;TRACER_LIGANDS -->
<g id="edge2" class="edge">
<title>DNA_ATTACHMENT_SITES_REFERENCES:w&#45;&gt;TRACER_LIGANDS:e</title>
<path fill="none" stroke="#000000" d="M622.8561,-779.6126C583.7634,-779.0069 563.1802,-774.4101 534,-741.7 483.1585,-684.7081 569.8737,-574.7 493.5,-574.7"/>
<polygon fill="#000000" stroke="#000000" points="629.5001,-779.6522 637.4785,-783.2999 633.5001,-779.6761 637.5,-779.7 637.5,-779.7 637.5,-779.7 633.5001,-779.6761 637.5215,-776.1001 629.5001,-779.6522 629.5001,-779.6522"/>
<ellipse fill="none" stroke="#000000" cx="626.3002" cy="-779.6331" rx="3.2" ry="3.2"/>
</g>
<!-- TRACER_LIGANDS&#45;&gt;DNA_ATTACHMENT_SITES -->
<g id="edge6" class="edge">
<title>TRACER_LIGANDS:w&#45;&gt;DNA_ATTACHMENT_SITES:e</title>
<path fill="none" stroke="#000000" d="M228.384,-504.5286C216.4189,-496.2854 213.0504,-478.7 193.5,-478.7"/>
<polygon fill="#000000" stroke="#000000" points="234.828,-506.4328 241.4798,-512.1524 238.664,-507.5664 242.5,-508.7 242.5,-508.7 242.5,-508.7 238.664,-507.5664 243.5202,-505.2476 234.828,-506.4328 234.828,-506.4328"/>
<ellipse fill="none" stroke="#000000" cx="231.7591" cy="-505.526" rx="3.2" ry="3.2"/>
</g>
<!-- USERS -->
<g id="node7" class="node">
<title>USERS</title>
<g id="a_node7"><a xlink:href="../../tables/USERS.html" xlink:title="USERS" target="_top">
<polygon fill="#ffffff" stroke="transparent" points="60.5,-533.2 60.5,-594.2 140.5,-594.2 140.5,-533.2 60.5,-533.2"/>
<polygon fill="#f5f5f5" stroke="transparent" points="60.5,-570.7 60.5,-593.7 140.5,-593.7 140.5,-570.7 60.5,-570.7"/>
<polygon fill="none" stroke="#000000" points="60.5,-570.7 60.5,-593.7 140.5,-593.7 140.5,-570.7 60.5,-570.7"/>
<text text-anchor="start" x="65.0553" y="-579.8" font-family="Helvetica,sans-Serif" font-weight="bold" font-size="11.00" fill="#000000">USERS</text>
<text text-anchor="start" x="106.0219" y="-578.8" font-family="Helvetica,sans-Serif" font-size="11.00" fill="#000000">[table]</text>
<polygon fill="none" stroke="#000000" points="60.5,-551.7 60.5,-570.7 140.5,-570.7 140.5,-551.7 60.5,-551.7"/>
<text text-anchor="start" x="63.5" y="-557.8" font-family="Helvetica,sans-Serif" font-size="11.00" fill="#000000">...</text>
<polygon fill="#ffffff" stroke="transparent" points="60.5,-532.7 60.5,-551.7 73.5,-551.7 73.5,-532.7 60.5,-532.7"/>
<polygon fill="none" stroke="#000000" points="60.5,-532.7 60.5,-551.7 73.5,-551.7 73.5,-532.7 60.5,-532.7"/>
<text text-anchor="start" x="63.5" y="-538.8" font-family="Helvetica,sans-Serif" font-size="11.00" fill="#000000"> &#160;</text>
<polygon fill="#ffffff" stroke="transparent" points="73.5,-532.7 73.5,-551.7 118.5,-551.7 118.5,-532.7 73.5,-532.7"/>
<polygon fill="none" stroke="#000000" points="73.5,-532.7 73.5,-551.7 118.5,-551.7 118.5,-532.7 73.5,-532.7"/>
<text text-anchor="start" x="76.9956" y="-538.8" font-family="Helvetica,sans-Serif" font-size="11.00" fill="#000000">33 rows</text>
<polygon fill="#ffffff" stroke="transparent" points="118.5,-532.7 118.5,-551.7 140.5,-551.7 140.5,-532.7 118.5,-532.7"/>
<polygon fill="none" stroke="#000000" points="118.5,-532.7 118.5,-551.7 140.5,-551.7 140.5,-532.7 118.5,-532.7"/>
<text text-anchor="start" x="121.9053" y="-538.8" font-family="Helvetica,sans-Serif" font-size="11.00" fill="#000000">9 &gt;</text>
</a>
</g>
</g>
<!-- TRACER_LIGANDS&#45;&gt;USERS -->
<g id="edge7" class="edge">
<title>TRACER_LIGANDS:w&#45;&gt;USERS:e</title>
<path fill="none" stroke="#000000" d="M227.8563,-531.7677C193.0387,-537.1119 182.4005,-560.7 140.5,-560.7"/>
<polygon fill="#000000" stroke="#000000" points="234.5212,-531.2818 242.7618,-534.2905 238.5106,-530.9909 242.5,-530.7 242.5,-530.7 242.5,-530.7 238.5106,-530.9909 242.2382,-527.1095 234.5212,-531.2818 234.5212,-531.2818"/>
<ellipse fill="none" stroke="#000000" cx="231.3297" cy="-531.5145" rx="3.2" ry="3.2"/>
</g>
<!-- TRACER_TYPES -->
<g id="node8" class="node">
<title>TRACER_TYPES</title>
<g id="a_node8"><a xlink:href="../../tables/TRACER_TYPES.html" xlink:title="TRACER_TYPES" target="_top">
<polygon fill="#ffffff" stroke="transparent" points="35.5,-615.2 35.5,-676.2 165.5,-676.2 165.5,-615.2 35.5,-615.2"/>
<polygon fill="#f5f5f5" stroke="transparent" points="35.5,-652.7 35.5,-675.7 165.5,-675.7 165.5,-652.7 35.5,-652.7"/>
<polygon fill="none" stroke="#000000" points="35.5,-652.7 35.5,-675.7 165.5,-675.7 165.5,-652.7 35.5,-652.7"/>
<text text-anchor="start" x="40.3036" y="-661.8" font-family="Helvetica,sans-Serif" font-weight="bold" font-size="11.00" fill="#000000">TRACER_TYPES</text>
<text text-anchor="start" x="131.0219" y="-660.8" font-family="Helvetica,sans-Serif" font-size="11.00" fill="#000000">[table]</text>
<polygon fill="none" stroke="#000000" points="35.5,-633.7 35.5,-652.7 165.5,-652.7 165.5,-633.7 35.5,-633.7"/>
<text text-anchor="start" x="38.5" y="-639.8" font-family="Helvetica,sans-Serif" font-size="11.00" fill="#000000">...</text>
<polygon fill="#ffffff" stroke="transparent" points="35.5,-614.7 35.5,-633.7 73.5,-633.7 73.5,-614.7 35.5,-614.7"/>
<polygon fill="none" stroke="#000000" points="35.5,-614.7 35.5,-633.7 73.5,-633.7 73.5,-614.7 35.5,-614.7"/>
<text text-anchor="start" x="38.5" y="-620.8" font-family="Helvetica,sans-Serif" font-size="11.00" fill="#000000"> &#160;</text>
<polygon fill="#ffffff" stroke="transparent" points="73.5,-614.7 73.5,-633.7 130.5,-633.7 130.5,-614.7 73.5,-614.7"/>
<polygon fill="none" stroke="#000000" points="73.5,-614.7 73.5,-633.7 130.5,-633.7 130.5,-614.7 73.5,-614.7"/>
<text text-anchor="start" x="88.9956" y="-620.8" font-family="Helvetica,sans-Serif" font-size="11.00" fill="#000000">12 rows</text>
<polygon fill="#ffffff" stroke="transparent" points="130.5,-614.7 130.5,-633.7 165.5,-633.7 165.5,-614.7 130.5,-614.7"/>
<polygon fill="none" stroke="#000000" points="130.5,-614.7 130.5,-633.7 165.5,-633.7 165.5,-614.7 130.5,-614.7"/>
<text text-anchor="start" x="146.9053" y="-620.8" font-family="Helvetica,sans-Serif" font-size="11.00" fill="#000000">2 &gt;</text>
</a>
</g>
</g>
<!-- TRACER_LIGANDS&#45;&gt;TRACER_TYPES -->
<g id="edge8" class="edge">
<title>TRACER_LIGANDS:w&#45;&gt;TRACER_TYPES:e</title>
<path fill="none" stroke="#000000" d="M228.3545,-555.4922C194.9241,-570.6832 212.5897,-642.7 165.5,-642.7"/>
<polygon fill="#000000" stroke="#000000" points="234.6514,-554.2493 243.1972,-556.2319 238.5757,-553.4746 242.5,-552.7 242.5,-552.7 242.5,-552.7 238.5757,-553.4746 241.8028,-549.1681 234.6514,-554.2493 234.6514,-554.2493"/>
<ellipse fill="none" stroke="#000000" cx="231.512" cy="-554.869" rx="3.2" ry="3.2"/>
</g>
<!-- IN_HOUSE_ASSAYS -->
<g id="node4" class="node">
<title>IN_HOUSE_ASSAYS</title>
<g id="a_node4"><a xlink:href="../../tables/IN_HOUSE_ASSAYS.html" xlink:title="IN_HOUSE_ASSAYS" target="_top">
<polygon fill="#ffffff" stroke="transparent" points="696,-342.2 696,-403.2 845,-403.2 845,-342.2 696,-342.2"/>
<polygon fill="#f5f5f5" stroke="transparent" points="696.5,-379.7 696.5,-402.7 845.5,-402.7 845.5,-379.7 696.5,-379.7"/>
<polygon fill="none" stroke="#000000" points="696.5,-379.7 696.5,-402.7 845.5,-402.7 845.5,-379.7 696.5,-379.7"/>
<text text-anchor="start" x="701.3233" y="-388.8" font-family="Helvetica,sans-Serif" font-weight="bold" font-size="11.00" fill="#000000">IN_HOUSE_ASSAYS</text>
<text text-anchor="start" x="811.0219" y="-387.8" font-family="Helvetica,sans-Serif" font-size="11.00" fill="#000000">[table]</text>
<polygon fill="none" stroke="#000000" points="696.5,-360.7 696.5,-379.7 845.5,-379.7 845.5,-360.7 696.5,-360.7"/>
<text text-anchor="start" x="699.5" y="-366.8" font-family="Helvetica,sans-Serif" font-size="11.00" fill="#000000">...</text>
<polygon fill="#ffffff" stroke="transparent" points="696.5,-341.7 696.5,-360.7 748.5,-360.7 748.5,-341.7 696.5,-341.7"/>
<polygon fill="none" stroke="#000000" points="696.5,-341.7 696.5,-360.7 748.5,-360.7 748.5,-341.7 696.5,-341.7"/>
<text text-anchor="start" x="699.5" y="-347.8" font-family="Helvetica,sans-Serif" font-size="11.00" fill="#000000">&lt; 4</text>
<polygon fill="#ffffff" stroke="transparent" points="748.5,-341.7 748.5,-360.7 808.5,-360.7 808.5,-341.7 748.5,-341.7"/>
<polygon fill="none" stroke="#000000" points="748.5,-341.7 748.5,-360.7 808.5,-360.7 808.5,-341.7 748.5,-341.7"/>
<text text-anchor="start" x="766.9956" y="-347.8" font-family="Helvetica,sans-Serif" font-size="11.00" fill="#000000">51 rows</text>
<polygon fill="#ffffff" stroke="transparent" points="808.5,-341.7 808.5,-360.7 845.5,-360.7 845.5,-341.7 808.5,-341.7"/>
<polygon fill="none" stroke="#000000" points="808.5,-341.7 808.5,-360.7 845.5,-360.7 845.5,-341.7 808.5,-341.7"/>
<text text-anchor="start" x="826.9053" y="-347.8" font-family="Helvetica,sans-Serif" font-size="11.00" fill="#000000">1 &gt;</text>
</a>
</g>
</g>
<!-- IN_HOUSE_ASSAYS&#45;&gt;TRACER_LIGANDS -->
<g id="edge3" class="edge">
<title>IN_HOUSE_ASSAYS:w&#45;&gt;TRACER_LIGANDS:e</title>
<path fill="none" stroke="#000000" d="M681.6921,-369.5915C616.7778,-368.7107 582.8457,-363.9676 534,-413.7 482.2976,-466.3409 567.2848,-574.7 493.5,-574.7"/>
<polygon fill="#000000" stroke="#000000" points="688.5002,-369.6413 696.4736,-373.2999 692.5001,-369.6707 696.5,-369.7 696.5,-369.7 696.5,-369.7 692.5001,-369.6707 696.5264,-366.1001 688.5002,-369.6413 688.5002,-369.6413"/>
<ellipse fill="none" stroke="#000000" cx="685.3003" cy="-369.6179" rx="3.2" ry="3.2"/>
</g>
<!-- LITERATURE_ASSAYS -->
<g id="node5" class="node">
<title>LITERATURE_ASSAYS</title>
<g id="a_node5"><a xlink:href="../../tables/LITERATURE_ASSAYS.html" xlink:title="LITERATURE_ASSAYS" target="_top">
<polygon fill="#ffffff" stroke="transparent" points="690,-670.2 690,-731.2 851,-731.2 851,-670.2 690,-670.2"/>
<polygon fill="#f5f5f5" stroke="transparent" points="690.5,-707.7 690.5,-730.7 851.5,-730.7 851.5,-707.7 690.5,-707.7"/>
<polygon fill="none" stroke="#000000" points="690.5,-707.7 690.5,-730.7 851.5,-730.7 851.5,-707.7 690.5,-707.7"/>
<text text-anchor="start" x="695.2139" y="-716.8" font-family="Helvetica,sans-Serif" font-weight="bold" font-size="11.00" fill="#000000">LITERATURE_ASSAYS</text>
<text text-anchor="start" x="817.0219" y="-715.8" font-family="Helvetica,sans-Serif" font-size="11.00" fill="#000000">[table]</text>
<polygon fill="none" stroke="#000000" points="690.5,-688.7 690.5,-707.7 851.5,-707.7 851.5,-688.7 690.5,-688.7"/>
<text text-anchor="start" x="693.5" y="-694.8" font-family="Helvetica,sans-Serif" font-size="11.00" fill="#000000">...</text>
<polygon fill="#ffffff" stroke="transparent" points="690.5,-669.7 690.5,-688.7 748.5,-688.7 748.5,-669.7 690.5,-669.7"/>
<polygon fill="none" stroke="#000000" points="690.5,-669.7 690.5,-688.7 748.5,-688.7 748.5,-669.7 690.5,-669.7"/>
<text text-anchor="start" x="693.5" y="-675.8" font-family="Helvetica,sans-Serif" font-size="11.00" fill="#000000">&lt; 3</text>
<polygon fill="#ffffff" stroke="transparent" points="748.5,-669.7 748.5,-688.7 811.5,-688.7 811.5,-669.7 748.5,-669.7"/>
<polygon fill="none" stroke="#000000" points="748.5,-669.7 748.5,-688.7 811.5,-688.7 811.5,-669.7 748.5,-669.7"/>
<text text-anchor="start" x="769.9956" y="-675.8" font-family="Helvetica,sans-Serif" font-size="11.00" fill="#000000">25 rows</text>
<polygon fill="#ffffff" stroke="transparent" points="811.5,-669.7 811.5,-688.7 851.5,-688.7 851.5,-669.7 811.5,-669.7"/>
<polygon fill="none" stroke="#000000" points="811.5,-669.7 811.5,-688.7 851.5,-688.7 851.5,-669.7 811.5,-669.7"/>
<text text-anchor="start" x="832.9053" y="-675.8" font-family="Helvetica,sans-Serif" font-size="11.00" fill="#000000">1 &gt;</text>
</a>
</g>
</g>
<!-- LITERATURE_ASSAYS&#45;&gt;TRACER_LIGANDS -->
<g id="edge4" class="edge">
<title>LITERATURE_ASSAYS:w&#45;&gt;TRACER_LIGANDS:e</title>
<path fill="none" stroke="#000000" d="M676.0041,-697.7851C614.6644,-698.444 585.6516,-701.6548 534,-659.7 501.5183,-633.3163 535.3469,-574.7 493.5,-574.7"/>
<polygon fill="#000000" stroke="#000000" points="682.5001,-697.747 690.5212,-701.2999 686.5001,-697.7235 690.5,-697.7 690.5,-697.7 690.5,-697.7 686.5001,-697.7235 690.4788,-694.1001 682.5001,-697.747 682.5001,-697.747"/>
<ellipse fill="none" stroke="#000000" cx="679.3002" cy="-697.7658" rx="3.2" ry="3.2"/>
</g>
<!-- SCREENING_CONDITIONS_TRACER_LIGANDS -->
<g id="node6" class="node">
<title>SCREENING_CONDITIONS_TRACER_LIGANDS</title>
<g id="a_node6"><a xlink:href="../../tables/SCREENING_CONDITIONS_TRACER_LIGANDS.html" xlink:title="SCREENING_CONDITIONS_TRACER_LIGANDS" target="_top">
<polygon fill="#ffffff" stroke="transparent" points="626,-588.2 626,-649.2 915,-649.2 915,-588.2 626,-588.2"/>
<polygon fill="#f5f5f5" stroke="transparent" points="626.5,-625.7 626.5,-648.7 915.5,-648.7 915.5,-625.7 626.5,-625.7"/>
<polygon fill="none" stroke="#000000" points="626.5,-625.7 626.5,-648.7 915.5,-648.7 915.5,-625.7 626.5,-625.7"/>
<text text-anchor="start" x="631.3633" y="-634.8" font-family="Helvetica,sans-Serif" font-weight="bold" font-size="11.00" fill="#000000">SCREENING_CONDITIONS_TRACER_LIGANDS</text>
<text text-anchor="start" x="881.0219" y="-633.8" font-family="Helvetica,sans-Serif" font-size="11.00" fill="#000000">[table]</text>
<polygon fill="none" stroke="#000000" points="626.5,-606.7 626.5,-625.7 915.5,-625.7 915.5,-606.7 626.5,-606.7"/>
<text text-anchor="start" x="629.5" y="-612.8" font-family="Helvetica,sans-Serif" font-size="11.00" fill="#000000">...</text>
<polygon fill="#ffffff" stroke="transparent" points="626.5,-587.7 626.5,-606.7 753.5,-606.7 753.5,-587.7 626.5,-587.7"/>
<polygon fill="none" stroke="#000000" points="626.5,-587.7 626.5,-606.7 753.5,-606.7 753.5,-587.7 626.5,-587.7"/>
<text text-anchor="start" x="629.5" y="-593.8" font-family="Helvetica,sans-Serif" font-size="11.00" fill="#000000">&lt; 2</text>
<polygon fill="#ffffff" stroke="transparent" points="753.5,-587.7 753.5,-606.7 850.5,-606.7 850.5,-587.7 753.5,-587.7"/>
<polygon fill="none" stroke="#000000" points="753.5,-587.7 753.5,-606.7 850.5,-606.7 850.5,-587.7 753.5,-587.7"/>
<text text-anchor="start" x="808.9956" y="-593.8" font-family="Helvetica,sans-Serif" font-size="11.00" fill="#000000">26 rows</text>
<polygon fill="#ffffff" stroke="transparent" points="850.5,-587.7 850.5,-606.7 915.5,-606.7 915.5,-587.7 850.5,-587.7"/>
<polygon fill="none" stroke="#000000" points="850.5,-587.7 850.5,-606.7 915.5,-606.7 915.5,-587.7 850.5,-587.7"/>
<text text-anchor="start" x="906.3862" y="-593.8" font-family="Helvetica,sans-Serif" font-size="11.00" fill="#000000"> &#160;</text>
</a>
</g>
</g>
<!-- SCREENING_CONDITIONS_TRACER_LIGANDS&#45;&gt;TRACER_LIGANDS -->
<g id="edge5" class="edge">
<title>SCREENING_CONDITIONS_TRACER_LIGANDS:w&#45;&gt;TRACER_LIGANDS:e</title>
<path fill="none" stroke="#000000" d="M611.9652,-614.881C562.7131,-609.1025 550.1611,-574.7 493.5,-574.7"/>
<polygon fill="#000000" stroke="#000000" points="618.5127,-615.2499 626.2974,-619.2943 622.5063,-615.4749 626.5,-615.7 626.5,-615.7 626.5,-615.7 622.5063,-615.4749 626.7026,-612.1057 618.5127,-615.2499 618.5127,-615.2499"/>
<ellipse fill="none" stroke="#000000" cx="615.3177" cy="-615.0698" rx="3.2" ry="3.2"/>
</g>
<!-- TRACER_LIGANDS_ISOFORM_DOMAINS -->
<g id="node9" class="node">
<title>TRACER_LIGANDS_ISOFORM_DOMAINS</title>
<g id="a_node9"><a xlink:href="../../tables/TRACER_LIGANDS_ISOFORM_DOMAINS.html" xlink:title="TRACER_LIGANDS_ISOFORM_DOMAINS" target="_top">
<polygon fill="#ffffff" stroke="transparent" points="642,-506.2 642,-567.2 899,-567.2 899,-506.2 642,-506.2"/>
<polygon fill="#f5f5f5" stroke="transparent" points="642.5,-543.7 642.5,-566.7 899.5,-566.7 899.5,-543.7 642.5,-543.7"/>
<polygon fill="none" stroke="#000000" points="642.5,-543.7 642.5,-566.7 899.5,-566.7 899.5,-543.7 642.5,-543.7"/>
<text text-anchor="start" x="647.25" y="-552.8" font-family="Helvetica,sans-Serif" font-weight="bold" font-size="11.00" fill="#000000">TRACER_LIGANDS_ISOFORM_DOMAINS</text>
<text text-anchor="start" x="865.0219" y="-551.8" font-family="Helvetica,sans-Serif" font-size="11.00" fill="#000000">[table]</text>
<polygon fill="none" stroke="#000000" points="642.5,-524.7 642.5,-543.7 899.5,-543.7 899.5,-524.7 642.5,-524.7"/>
<text text-anchor="start" x="645.5" y="-530.8" font-family="Helvetica,sans-Serif" font-size="11.00" fill="#000000">...</text>
<polygon fill="#ffffff" stroke="transparent" points="642.5,-505.7 642.5,-524.7 753.5,-524.7 753.5,-505.7 642.5,-505.7"/>
<polygon fill="none" stroke="#000000" points="642.5,-505.7 642.5,-524.7 753.5,-524.7 753.5,-505.7 642.5,-505.7"/>
<text text-anchor="start" x="645.5" y="-511.8" font-family="Helvetica,sans-Serif" font-size="11.00" fill="#000000">&lt; 2</text>
<polygon fill="#ffffff" stroke="transparent" points="753.5,-505.7 753.5,-524.7 842.5,-524.7 842.5,-505.7 753.5,-505.7"/>
<polygon fill="none" stroke="#000000" points="753.5,-505.7 753.5,-524.7 842.5,-524.7 842.5,-505.7 753.5,-505.7"/>
<text text-anchor="start" x="800.9956" y="-511.8" font-family="Helvetica,sans-Serif" font-size="11.00" fill="#000000">75 rows</text>
<polygon fill="#ffffff" stroke="transparent" points="842.5,-505.7 842.5,-524.7 899.5,-524.7 899.5,-505.7 842.5,-505.7"/>
<polygon fill="none" stroke="#000000" points="842.5,-505.7 842.5,-524.7 899.5,-524.7 899.5,-505.7 842.5,-505.7"/>
<text text-anchor="start" x="890.3862" y="-511.8" font-family="Helvetica,sans-Serif" font-size="11.00" fill="#000000"> &#160;</text>
</a>
</g>
</g>
<!-- TRACER_LIGANDS_ISOFORM_DOMAINS&#45;&gt;TRACER_LIGANDS -->
<g id="edge9" class="edge">
<title>TRACER_LIGANDS_ISOFORM_DOMAINS:w&#45;&gt;TRACER_LIGANDS:e</title>
<path fill="none" stroke="#000000" d="M628.1033,-534.344C571.7754,-539.5601 557.086,-574.7 493.5,-574.7"/>
<polygon fill="#000000" stroke="#000000" points="634.508,-534.0576 642.6609,-537.2964 638.504,-533.8788 642.5,-533.7 642.5,-533.7 642.5,-533.7 638.504,-533.8788 642.3391,-530.1036 634.508,-534.0576 634.508,-534.0576"/>
<ellipse fill="none" stroke="#000000" cx="631.3112" cy="-534.2006" rx="3.2" ry="3.2"/>
</g>
<!-- TRACER_LIGANDS_REFERENCES -->
<g id="node10" class="node">
<title>TRACER_LIGANDS_REFERENCES</title>
<g id="a_node10"><a xlink:href="../../tables/TRACER_LIGANDS_REFERENCES.html" xlink:title="TRACER_LIGANDS_REFERENCES" target="_top">
<polygon fill="#ffffff" stroke="transparent" points="659,-424.2 659,-485.2 882,-485.2 882,-424.2 659,-424.2"/>
<polygon fill="#f5f5f5" stroke="transparent" points="659.5,-461.7 659.5,-484.7 882.5,-484.7 882.5,-461.7 659.5,-461.7"/>
<polygon fill="none" stroke="#000000" points="659.5,-461.7 659.5,-484.7 882.5,-484.7 882.5,-461.7 659.5,-461.7"/>
<text text-anchor="start" x="664.0553" y="-470.8" font-family="Helvetica,sans-Serif" font-weight="bold" font-size="11.00" fill="#000000">TRACER_LIGANDS_REFERENCES</text>
<text text-anchor="start" x="848.0219" y="-469.8" font-family="Helvetica,sans-Serif" font-size="11.00" fill="#000000">[table]</text>
<polygon fill="none" stroke="#000000" points="659.5,-442.7 659.5,-461.7 882.5,-461.7 882.5,-442.7 659.5,-442.7"/>
<text text-anchor="start" x="662.5" y="-448.8" font-family="Helvetica,sans-Serif" font-size="11.00" fill="#000000">...</text>
<polygon fill="#ffffff" stroke="transparent" points="659.5,-423.7 659.5,-442.7 753.5,-442.7 753.5,-423.7 659.5,-423.7"/>
<polygon fill="none" stroke="#000000" points="659.5,-423.7 659.5,-442.7 753.5,-442.7 753.5,-423.7 659.5,-423.7"/>
<text text-anchor="start" x="662.5" y="-429.8" font-family="Helvetica,sans-Serif" font-size="11.00" fill="#000000">&lt; 2</text>
<polygon fill="#ffffff" stroke="transparent" points="753.5,-423.7 753.5,-442.7 833.5,-442.7 833.5,-423.7 753.5,-423.7"/>
<polygon fill="none" stroke="#000000" points="753.5,-423.7 753.5,-442.7 833.5,-442.7 833.5,-423.7 753.5,-423.7"/>
<text text-anchor="start" x="791.9956" y="-429.8" font-family="Helvetica,sans-Serif" font-size="11.00" fill="#000000">18 rows</text>
<polygon fill="#ffffff" stroke="transparent" points="833.5,-423.7 833.5,-442.7 882.5,-442.7 882.5,-423.7 833.5,-423.7"/>
<polygon fill="none" stroke="#000000" points="833.5,-423.7 833.5,-442.7 882.5,-442.7 882.5,-423.7 833.5,-423.7"/>
<text text-anchor="start" x="873.3862" y="-429.8" font-family="Helvetica,sans-Serif" font-size="11.00" fill="#000000"> &#160;</text>
</a>
</g>
</g>
<!-- TRACER_LIGANDS_REFERENCES&#45;&gt;TRACER_LIGANDS -->
<g id="edge10" class="edge">
<title>TRACER_LIGANDS_REFERENCES:w&#45;&gt;TRACER_LIGANDS:e</title>
<path fill="none" stroke="#000000" d="M645.0491,-451.8323C596.4711,-452.8346 574.7196,-460.1917 534,-495.7 504.2623,-521.6319 532.9562,-574.7 493.5,-574.7"/>
<polygon fill="#000000" stroke="#000000" points="651.5003,-451.7733 659.533,-455.2998 655.5002,-451.7366 659.5,-451.7 659.5,-451.7 659.5,-451.7 655.5002,-451.7366 659.467,-448.1002 651.5003,-451.7733 651.5003,-451.7733"/>
<ellipse fill="none" stroke="#000000" cx="648.3005" cy="-451.8026" rx="3.2" ry="3.2"/>
</g>
<!-- VERSION_TRACERS_TRACER_SYNTHESIS_REQUESTS -->
<g id="node11" class="node">
<title>VERSION_TRACERS_TRACER_SYNTHESIS_REQUESTS</title>
<g id="a_node11"><a xlink:href="../../tables/VERSION_TRACERS_TRACER_SYNTHESIS_REQUESTS.html" xlink:title="VERSION_TRACERS_TRACER_SYNTHESIS_REQUESTS" target="_top">
<polygon fill="#ffffff" stroke="transparent" points="602,-38.2 602,-99.2 939,-99.2 939,-38.2 602,-38.2"/>
<polygon fill="#f5f5f5" stroke="transparent" points="602.5,-75.7 602.5,-98.7 939.5,-98.7 939.5,-75.7 602.5,-75.7"/>
<polygon fill="none" stroke="#000000" points="602.5,-75.7 602.5,-98.7 939.5,-98.7 939.5,-75.7 602.5,-75.7"/>
<text text-anchor="start" x="607.2161" y="-84.8" font-family="Helvetica,sans-Serif" font-weight="bold" font-size="11.00" fill="#000000">VERSION_TRACERS_TRACER_SYNTHESIS_REQUESTS</text>
<text text-anchor="start" x="905.0219" y="-83.8" font-family="Helvetica,sans-Serif" font-size="11.00" fill="#000000">[table]</text>
<polygon fill="none" stroke="#000000" points="602.5,-56.7 602.5,-75.7 939.5,-75.7 939.5,-56.7 602.5,-56.7"/>
<text text-anchor="start" x="605.5" y="-62.8" font-family="Helvetica,sans-Serif" font-size="11.00" fill="#000000">...</text>
<polygon fill="#ffffff" stroke="transparent" points="602.5,-37.7 602.5,-56.7 753.5,-56.7 753.5,-37.7 602.5,-37.7"/>
<polygon fill="none" stroke="#000000" points="602.5,-37.7 602.5,-56.7 753.5,-56.7 753.5,-37.7 602.5,-37.7"/>
<text text-anchor="start" x="605.5" y="-43.8" font-family="Helvetica,sans-Serif" font-size="11.00" fill="#000000">&lt; 2</text>
<polygon fill="#ffffff" stroke="transparent" points="753.5,-37.7 753.5,-56.7 862.5,-56.7 862.5,-37.7 753.5,-37.7"/>
<polygon fill="none" stroke="#000000" points="753.5,-37.7 753.5,-56.7 862.5,-56.7 862.5,-37.7 753.5,-37.7"/>
<text text-anchor="start" x="820.9956" y="-43.8" font-family="Helvetica,sans-Serif" font-size="11.00" fill="#000000">21 rows</text>
<polygon fill="#ffffff" stroke="transparent" points="862.5,-37.7 862.5,-56.7 939.5,-56.7 939.5,-37.7 862.5,-37.7"/>
<polygon fill="none" stroke="#000000" points="862.5,-37.7 862.5,-56.7 939.5,-56.7 939.5,-37.7 862.5,-37.7"/>
<text text-anchor="start" x="930.3862" y="-43.8" font-family="Helvetica,sans-Serif" font-size="11.00" fill="#000000"> &#160;</text>
</a>
</g>
</g>
<!-- VERSIONS_TRACERS -->
<g id="node12" class="node">
<title>VERSIONS_TRACERS</title>
<g id="a_node12"><a xlink:href="../../tables/VERSIONS_TRACERS.html" xlink:title="VERSIONS_TRACERS" target="_top">
<polygon fill="#ffffff" stroke="transparent" points="288.5,-71.2 288.5,-198.2 446.5,-198.2 446.5,-71.2 288.5,-71.2"/>
<polygon fill="#f5f5f5" stroke="transparent" points="288.5,-174.7 288.5,-197.7 446.5,-197.7 446.5,-174.7 288.5,-174.7"/>
<polygon fill="none" stroke="#000000" points="288.5,-174.7 288.5,-197.7 446.5,-197.7 446.5,-174.7 288.5,-174.7"/>
<text text-anchor="start" x="293.2478" y="-183.8" font-family="Helvetica,sans-Serif" font-weight="bold" font-size="11.00" fill="#000000">VERSIONS_TRACERS</text>
<text text-anchor="start" x="412.0219" y="-182.8" font-family="Helvetica,sans-Serif" font-size="11.00" fill="#000000">[table]</text>
<polygon fill="none" stroke="#000000" points="288.5,-152.7 288.5,-174.7 446.5,-174.7 446.5,-152.7 288.5,-152.7"/>
<image xlink:href="../../images/primaryKeys.png" width="11px" height="12px" preserveAspectRatio="xMinYMin meet" x="293.5" y="-169.7"/>
<text text-anchor="start" x="309.5" y="-159.8" font-family="Helvetica,sans-Serif" font-size="11.00" fill="#000000">ID</text>
<polygon fill="none" stroke="#000000" points="288.5,-130.7 288.5,-152.7 446.5,-152.7 446.5,-130.7 288.5,-130.7"/>
<image xlink:href="../../images/primaryKeys.png" width="11px" height="12px" preserveAspectRatio="xMinYMin meet" x="293.5" y="-147.7"/>
<text text-anchor="start" x="309.5" y="-137.8" font-family="Helvetica,sans-Serif" font-size="11.00" fill="#000000">VERSION_ID</text>
<polygon fill="none" stroke="#000000" points="288.5,-108.7 288.5,-130.7 446.5,-130.7 446.5,-108.7 288.5,-108.7"/>
<image xlink:href="../../images/primaryKeys.png" width="11px" height="12px" preserveAspectRatio="xMinYMin meet" x="293.5" y="-125.7"/>
<text text-anchor="start" x="309.5" y="-115.8" font-family="Helvetica,sans-Serif" font-size="11.00" fill="#000000">TRACER_ID</text>
<polygon fill="none" stroke="#000000" points="288.5,-89.7 288.5,-108.7 446.5,-108.7 446.5,-89.7 288.5,-89.7"/>
<text text-anchor="start" x="291.5" y="-95.8" font-family="Helvetica,sans-Serif" font-size="11.00" fill="#000000">...</text>
<polygon fill="#ffffff" stroke="transparent" points="288.5,-70.7 288.5,-89.7 337.5,-89.7 337.5,-70.7 288.5,-70.7"/>
<polygon fill="none" stroke="#000000" points="288.5,-70.7 288.5,-89.7 337.5,-89.7 337.5,-70.7 288.5,-70.7"/>
<text text-anchor="start" x="291.5" y="-76.8" font-family="Helvetica,sans-Serif" font-size="11.00" fill="#000000">&lt; 2</text>
<polygon fill="#ffffff" stroke="transparent" points="337.5,-70.7 337.5,-89.7 410.5,-89.7 410.5,-70.7 337.5,-70.7"/>
<polygon fill="none" stroke="#000000" points="337.5,-70.7 337.5,-89.7 410.5,-89.7 410.5,-70.7 337.5,-70.7"/>
<text text-anchor="start" x="353.7089" y="-76.8" font-family="Helvetica,sans-Serif" font-size="11.00" fill="#000000">1,279 rows</text>
<polygon fill="#ffffff" stroke="transparent" points="410.5,-70.7 410.5,-89.7 446.5,-89.7 446.5,-70.7 410.5,-70.7"/>
<polygon fill="none" stroke="#000000" points="410.5,-70.7 410.5,-89.7 446.5,-89.7 446.5,-70.7 410.5,-70.7"/>
<text text-anchor="start" x="427.9053" y="-76.8" font-family="Helvetica,sans-Serif" font-size="11.00" fill="#000000">2 &gt;</text>
</a>
</g>
</g>
<!-- VERSION_TRACERS_TRACER_SYNTHESIS_REQUESTS&#45;&gt;VERSIONS_TRACERS -->
<g id="edge11" class="edge">
<title>VERSION_TRACERS_TRACER_SYNTHESIS_REQUESTS:w&#45;&gt;VERSIONS_TRACERS:e</title>
<path fill="none" stroke="#000000" d="M587.737,-66.8689C521.2486,-77.9257 523.1018,-163.7 446.5,-163.7"/>
<polygon fill="#000000" stroke="#000000" points="594.525,-66.3315 602.7842,-69.2888 598.5125,-66.0157 602.5,-65.7 602.5,-65.7 602.5,-65.7 598.5125,-66.0157 602.2158,-62.1112 594.525,-66.3315 594.525,-66.3315"/>
<ellipse fill="none" stroke="#000000" cx="591.3349" cy="-66.5841" rx="3.2" ry="3.2"/>
</g>
<!-- TRACERS -->
<g id="node13" class="node">
<title>TRACERS</title>
<g id="a_node13"><a xlink:href="../../tables/TRACERS.html" xlink:title="TRACERS" target="_top">
<polygon fill="#ffffff" stroke="transparent" points="53,-62.2 53,-123.2 148,-123.2 148,-62.2 53,-62.2"/>
<polygon fill="#f5f5f5" stroke="transparent" points="53.5,-99.7 53.5,-122.7 148.5,-122.7 148.5,-99.7 53.5,-99.7"/>
<polygon fill="none" stroke="#000000" points="53.5,-99.7 53.5,-122.7 148.5,-122.7 148.5,-99.7 53.5,-99.7"/>
<text text-anchor="start" x="58.2249" y="-108.8" font-family="Helvetica,sans-Serif" font-weight="bold" font-size="11.00" fill="#000000">TRACERS</text>
<text text-anchor="start" x="114.0219" y="-107.8" font-family="Helvetica,sans-Serif" font-size="11.00" fill="#000000">[table]</text>
<polygon fill="none" stroke="#000000" points="53.5,-80.7 53.5,-99.7 148.5,-99.7 148.5,-80.7 53.5,-80.7"/>
<text text-anchor="start" x="56.5" y="-86.8" font-family="Helvetica,sans-Serif" font-size="11.00" fill="#000000">...</text>
<polygon fill="#ffffff" stroke="transparent" points="53.5,-61.7 53.5,-80.7 71.5,-80.7 71.5,-61.7 53.5,-61.7"/>
<polygon fill="none" stroke="#000000" points="53.5,-61.7 53.5,-80.7 71.5,-80.7 71.5,-61.7 53.5,-61.7"/>
<text text-anchor="start" x="56.5" y="-67.8" font-family="Helvetica,sans-Serif" font-size="11.00" fill="#000000"> &#160;</text>
<polygon fill="#ffffff" stroke="transparent" points="71.5,-61.7 71.5,-80.7 124.5,-80.7 124.5,-61.7 71.5,-61.7"/>
<polygon fill="none" stroke="#000000" points="71.5,-61.7 71.5,-80.7 124.5,-80.7 124.5,-61.7 71.5,-61.7"/>
<text text-anchor="start" x="76.8807" y="-67.8" font-family="Helvetica,sans-Serif" font-size="11.00" fill="#000000">163 rows</text>
<polygon fill="#ffffff" stroke="transparent" points="124.5,-61.7 124.5,-80.7 148.5,-80.7 148.5,-61.7 124.5,-61.7"/>
<polygon fill="none" stroke="#000000" points="124.5,-61.7 124.5,-80.7 148.5,-80.7 148.5,-61.7 124.5,-61.7"/>
<text text-anchor="start" x="129.9053" y="-67.8" font-family="Helvetica,sans-Serif" font-size="11.00" fill="#000000">1 &gt;</text>
</a>
</g>
</g>
<!-- VERSIONS_TRACERS&#45;&gt;TRACERS -->
<g id="edge12" class="edge">
<title>VERSIONS_TRACERS:w&#45;&gt;TRACERS:e</title>
<path fill="none" stroke="#000000" d="M273.8113,-119.1275C222.4341,-114.98 206.9147,-89.7 148.5,-89.7"/>
<polygon fill="#000000" stroke="#000000" points="280.5061,-119.3884 288.3598,-123.2973 284.503,-119.5442 288.5,-119.7 288.5,-119.7 288.5,-119.7 284.503,-119.5442 288.6402,-116.1027 280.5061,-119.3884 280.5061,-119.3884"/>
<ellipse fill="none" stroke="#000000" cx="277.3085" cy="-119.2637" rx="3.2" ry="3.2"/>
</g>
<!-- VERSIONS -->
<g id="node14" class="node">
<title>VERSIONS</title>
<g id="a_node14"><a xlink:href="../../tables/VERSIONS.html" xlink:title="VERSIONS" target="_top">
<polygon fill="#ffffff" stroke="transparent" points="51,-144.2 51,-205.2 150,-205.2 150,-144.2 51,-144.2"/>
<polygon fill="#f5f5f5" stroke="transparent" points="51.5,-181.7 51.5,-204.7 150.5,-204.7 150.5,-181.7 51.5,-181.7"/>
<polygon fill="none" stroke="#000000" points="51.5,-181.7 51.5,-204.7 150.5,-204.7 150.5,-181.7 51.5,-181.7"/>
<text text-anchor="start" x="56.0804" y="-190.8" font-family="Helvetica,sans-Serif" font-weight="bold" font-size="11.00" fill="#000000">VERSIONS</text>
<text text-anchor="start" x="116.0219" y="-189.8" font-family="Helvetica,sans-Serif" font-size="11.00" fill="#000000">[table]</text>
<polygon fill="none" stroke="#000000" points="51.5,-162.7 51.5,-181.7 150.5,-181.7 150.5,-162.7 51.5,-162.7"/>
<text text-anchor="start" x="54.5" y="-168.8" font-family="Helvetica,sans-Serif" font-size="11.00" fill="#000000">...</text>
<polygon fill="#ffffff" stroke="transparent" points="51.5,-143.7 51.5,-162.7 75.5,-162.7 75.5,-143.7 51.5,-143.7"/>
<polygon fill="none" stroke="#000000" points="51.5,-143.7 51.5,-162.7 75.5,-162.7 75.5,-143.7 51.5,-143.7"/>
<text text-anchor="start" x="54.5" y="-149.8" font-family="Helvetica,sans-Serif" font-size="11.00" fill="#000000">&lt; 1</text>
<polygon fill="#ffffff" stroke="transparent" points="75.5,-143.7 75.5,-162.7 127.5,-162.7 127.5,-143.7 75.5,-143.7"/>
<polygon fill="none" stroke="#000000" points="75.5,-143.7 75.5,-162.7 127.5,-162.7 127.5,-143.7 75.5,-143.7"/>
<text text-anchor="start" x="79.8807" y="-149.8" font-family="Helvetica,sans-Serif" font-size="11.00" fill="#000000">222 rows</text>
<polygon fill="#ffffff" stroke="transparent" points="127.5,-143.7 127.5,-162.7 150.5,-162.7 150.5,-143.7 127.5,-143.7"/>
<polygon fill="none" stroke="#000000" points="127.5,-143.7 127.5,-162.7 150.5,-162.7 150.5,-143.7 127.5,-143.7"/>
<text text-anchor="start" x="131.9053" y="-149.8" font-family="Helvetica,sans-Serif" font-size="11.00" fill="#000000">4 &gt;</text>
</a>
</g>
</g>
<!-- VERSIONS_TRACERS&#45;&gt;VERSIONS -->
<g id="edge13" class="edge">
<title>VERSIONS_TRACERS:w&#45;&gt;VERSIONS:e</title>
<path fill="none" stroke="#000000" d="M274.0136,-142.2725C223.3501,-146.42 208.1171,-171.7 150.5,-171.7"/>
<polygon fill="#000000" stroke="#000000" points="280.5062,-142.016 288.6422,-145.2972 284.5031,-141.858 288.5,-141.7 288.5,-141.7 288.5,-141.7 284.5031,-141.858 288.3578,-138.1028 280.5062,-142.016 280.5062,-142.016"/>
<ellipse fill="none" stroke="#000000" cx="277.3087" cy="-142.1424" rx="3.2" ry="3.2"/>
</g>
<!-- VERSIONS_TRACERS_TRACER_LIGANDS -->
<g id="node15" class="node">
<title>VERSIONS_TRACERS_TRACER_LIGANDS</title>
<g id="a_node15"><a xlink:href="../../tables/VERSIONS_TRACERS_TRACER_LIGANDS.html" xlink:title="VERSIONS_TRACERS_TRACER_LIGANDS" target="_top">
<polygon fill="#ffffff" stroke="transparent" points="542,-120.7 542,-320.7 999,-320.7 999,-120.7 542,-120.7"/>
<polygon fill="#f5f5f5" stroke="transparent" points="544.5,-295.7 544.5,-318.7 997.5,-318.7 997.5,-295.7 544.5,-295.7"/>
<polygon fill="none" stroke="#000000" points="544.5,-295.7 544.5,-318.7 997.5,-318.7 997.5,-295.7 544.5,-295.7"/>
<text text-anchor="start" x="549.5" y="-304.8" font-family="Helvetica,sans-Serif" font-weight="bold" font-size="11.00" fill="#000000">VERSIONS_TRACERS_TRACER_LIGANDS</text>
<text text-anchor="start" x="962.5437" y="-303.8" font-family="Helvetica,sans-Serif" font-size="11.00" fill="#000000">[table]</text>
<polygon fill="none" stroke="#000000" points="544.5,-273.7 544.5,-295.7 826.5,-295.7 826.5,-273.7 544.5,-273.7"/>
<image xlink:href="../../images/primaryKeys.png" width="11px" height="12px" preserveAspectRatio="xMinYMin meet" x="549.5" y="-290.7"/>
<text text-anchor="start" x="564.5" y="-280.8" font-family="Helvetica,sans-Serif" font-size="11.00" fill="#000000">ID</text>
<polygon fill="none" stroke="#000000" points="826.5,-273.7 826.5,-295.7 997.5,-295.7 997.5,-273.7 826.5,-273.7"/>
<text text-anchor="start" x="829.5" y="-281.4" font-family="Helvetica,sans-Serif" font-size="11.00" fill="#000000">number[19]</text>
<polygon fill="none" stroke="#000000" points="544.5,-251.7 544.5,-273.7 826.5,-273.7 826.5,-251.7 544.5,-251.7"/>
<image xlink:href="../../images/primaryKeys.png" width="11px" height="12px" preserveAspectRatio="xMinYMin meet" x="549.5" y="-268.7"/>
<text text-anchor="start" x="564.5" y="-258.8" font-family="Helvetica,sans-Serif" font-size="11.00" fill="#000000">VERSION_TRACER_ID</text>
<polygon fill="none" stroke="#000000" points="826.5,-251.7 826.5,-273.7 997.5,-273.7 997.5,-251.7 826.5,-251.7"/>
<text text-anchor="start" x="829.5" y="-259.4" font-family="Helvetica,sans-Serif" font-size="11.00" fill="#000000">number[19]</text>
<polygon fill="none" stroke="#000000" points="544.5,-229.7 544.5,-251.7 826.5,-251.7 826.5,-229.7 544.5,-229.7"/>
<image xlink:href="../../images/primaryKeys.png" width="11px" height="12px" preserveAspectRatio="xMinYMin meet" x="549.5" y="-246.7"/>
<text text-anchor="start" x="564.5" y="-236.8" font-family="Helvetica,sans-Serif" font-size="11.00" fill="#000000">TRACER_LIGAND_ID</text>
<polygon fill="none" stroke="#000000" points="826.5,-229.7 826.5,-251.7 997.5,-251.7 997.5,-229.7 826.5,-229.7"/>
<text text-anchor="start" x="829.5" y="-237.4" font-family="Helvetica,sans-Serif" font-size="11.00" fill="#000000">number[19]</text>
<polygon fill="none" stroke="#000000" points="544.5,-207.7 544.5,-229.7 826.5,-229.7 826.5,-207.7 544.5,-207.7"/>
<text text-anchor="start" x="564.5" y="-214.8" font-family="Helvetica,sans-Serif" font-size="11.00" fill="#000000">CREATED_AT</text>
<polygon fill="none" stroke="#000000" points="826.5,-207.7 826.5,-229.7 997.5,-229.7 997.5,-207.7 826.5,-207.7"/>
<text text-anchor="start" x="829.4896" y="-215.4" font-family="Helvetica,sans-Serif" font-size="11.00" fill="#000000">timestamp(6) with time zone[13,6]</text>
<polygon fill="none" stroke="#000000" points="544.5,-185.7 544.5,-207.7 826.5,-207.7 826.5,-185.7 544.5,-185.7"/>
<text text-anchor="start" x="564.5" y="-192.8" font-family="Helvetica,sans-Serif" font-size="11.00" fill="#000000">CREATED_BY</text>
<polygon fill="none" stroke="#000000" points="826.5,-185.7 826.5,-207.7 997.5,-207.7 997.5,-185.7 826.5,-185.7"/>
<text text-anchor="start" x="829.5" y="-193.4" font-family="Helvetica,sans-Serif" font-size="11.00" fill="#000000">number[19]</text>
<polygon fill="none" stroke="#000000" points="544.5,-163.7 544.5,-185.7 826.5,-185.7 826.5,-163.7 544.5,-163.7"/>
<text text-anchor="start" x="564.5" y="-170.8" font-family="Helvetica,sans-Serif" font-size="11.00" fill="#000000">UPDATED_AT</text>
<polygon fill="none" stroke="#000000" points="826.5,-163.7 826.5,-185.7 997.5,-185.7 997.5,-163.7 826.5,-163.7"/>
<text text-anchor="start" x="829.4896" y="-171.4" font-family="Helvetica,sans-Serif" font-size="11.00" fill="#000000">timestamp(6) with time zone[13,6]</text>
<polygon fill="none" stroke="#000000" points="544.5,-141.7 544.5,-163.7 826.5,-163.7 826.5,-141.7 544.5,-141.7"/>
<text text-anchor="start" x="564.5" y="-148.8" font-family="Helvetica,sans-Serif" font-size="11.00" fill="#000000">UPDATED_BY</text>
<polygon fill="none" stroke="#000000" points="826.5,-141.7 826.5,-163.7 997.5,-163.7 997.5,-141.7 826.5,-141.7"/>
<text text-anchor="start" x="829.5" y="-149.4" font-family="Helvetica,sans-Serif" font-size="11.00" fill="#000000">number[19]</text>
<polygon fill="#ffffff" stroke="transparent" points="544.5,-122.7 544.5,-141.7 666.5,-141.7 666.5,-122.7 544.5,-122.7"/>
<polygon fill="none" stroke="#000000" points="544.5,-122.7 544.5,-141.7 666.5,-141.7 666.5,-122.7 544.5,-122.7"/>
<text text-anchor="start" x="547.5" y="-128.8" font-family="Helvetica,sans-Serif" font-size="11.00" fill="#000000">&lt; 2</text>
<polygon fill="#ffffff" stroke="transparent" points="666.5,-122.7 666.5,-141.7 826.5,-141.7 826.5,-122.7 666.5,-122.7"/>
<polygon fill="none" stroke="#000000" points="666.5,-122.7 666.5,-141.7 826.5,-141.7 826.5,-122.7 666.5,-122.7"/>
<text text-anchor="start" x="769.7089" y="-128.8" font-family="Helvetica,sans-Serif" font-size="11.00" fill="#000000">2,328 rows</text>
<polygon fill="#ffffff" stroke="transparent" points="826.5,-122.7 826.5,-141.7 997.5,-141.7 997.5,-122.7 826.5,-122.7"/>
<polygon fill="none" stroke="#000000" points="826.5,-122.7 826.5,-141.7 997.5,-141.7 997.5,-122.7 826.5,-122.7"/>
<text text-anchor="start" x="978.9053" y="-128.8" font-family="Helvetica,sans-Serif" font-size="11.00" fill="#000000">0 &gt;</text>
<polygon fill="none" stroke="#000000" stroke-width="2" points="543,-121.7 543,-319.7 998,-319.7 998,-121.7 543,-121.7"/>
</a>
</g>
</g>
<!-- VERSIONS_TRACERS_TRACER_LIGANDS&#45;&gt;TRACER_LIGANDS -->
<g id="edge14" class="edge">
<title>VERSIONS_TRACERS_TRACER_LIGANDS:w&#45;&gt;TRACER_LIGANDS:e</title>
<path fill="none" stroke="#000000" d="M530.8208,-245.6807C482.84,-287.2292 563.1566,-574.7 493.5,-574.7"/>
<polygon fill="#000000" stroke="#000000" points="536.9828,-243.4371 545.7317,-244.0827 540.7414,-242.0685 544.5,-240.7 544.5,-240.7 544.5,-240.7 540.7414,-242.0685 543.2683,-237.3173 536.9828,-243.4371 536.9828,-243.4371"/>
<ellipse fill="none" stroke="#000000" cx="533.9759" cy="-244.5319" rx="3.2" ry="3.2"/>
</g>
<!-- VERSIONS_TRACERS_TRACER_LIGANDS&#45;&gt;VERSIONS_TRACERS -->
<g id="edge15" class="edge">
<title>VERSIONS_TRACERS_TRACER_LIGANDS:w&#45;&gt;VERSIONS_TRACERS:e</title>
<path fill="none" stroke="#000000" d="M530.0896,-260.5402C486.4497,-246.0624 502.9704,-163.7 446.5,-163.7"/>
<polygon fill="#000000" stroke="#000000" points="536.5884,-261.5142 543.9664,-266.2602 540.5442,-262.1071 544.5,-262.7 544.5,-262.7 544.5,-262.7 540.5442,-262.1071 545.0336,-259.1398 536.5884,-261.5142 536.5884,-261.5142"/>
<ellipse fill="none" stroke="#000000" cx="533.4237" cy="-261.0398" rx="3.2" ry="3.2"/>
</g>
</g>
</svg>
