<?xml version="1.0" encoding="UTF-8" standalone="no"?>
<!DOCTYPE svg PUBLIC "-//W3C//DTD SVG 1.1//EN"
 "http://www.w3.org/Graphics/SVG/1.1/DTD/svg11.dtd">
<!-- Generated by graphviz version 2.40.1 (20161225.0304)
 -->
<!-- Title: oneDegreeRelationshipsDiagram Pages: 1 -->
<svg width="800pt" height="369pt"
 viewBox="0.00 0.00 800.00 369.20" xmlns="http://www.w3.org/2000/svg" xmlns:xlink="http://www.w3.org/1999/xlink">
<g id="graph0" class="graph" transform="scale(1 1) rotate(0) translate(4 365.2)">
<title>oneDegreeRelationshipsDiagram</title>
<polygon fill="#ffffff" stroke="transparent" points="-4,4 -4,-365.2 796,-365.2 796,4 -4,4"/>
<text text-anchor="middle" x="72.4936" y="-7.3" font-family="Helvetica,sans-Serif" font-size="11.00" fill="#000000">Generated by SchemaSpy</text>
<!-- VERSIONS_PARTS_SCREENING_CONDITIONS -->
<g id="node1" class="node">
<title>VERSIONS_PARTS_SCREENING_CONDITIONS</title>
<g id="a_node1"><a xlink:href="../../tables/VERSIONS_PARTS_SCREENING_CONDITIONS.html" xlink:title="VERSIONS_PARTS_SCREENING_CONDITIONS" target="_top">
<polygon fill="#ffffff" stroke="transparent" points="295,-117.7 295,-317.7 784,-317.7 784,-117.7 295,-117.7"/>
<polygon fill="#f5f5f5" stroke="transparent" points="297.5,-292.7 297.5,-315.7 782.5,-315.7 782.5,-292.7 297.5,-292.7"/>
<polygon fill="none" stroke="#000000" points="297.5,-292.7 297.5,-315.7 782.5,-315.7 782.5,-292.7 297.5,-292.7"/>
<text text-anchor="start" x="302.5" y="-301.8" font-family="Helvetica,sans-Serif" font-weight="bold" font-size="11.00" fill="#000000">VERSIONS_PARTS_SCREENING_CONDITIONS</text>
<text text-anchor="start" x="747.5437" y="-300.8" font-family="Helvetica,sans-Serif" font-size="11.00" fill="#000000">[table]</text>
<polygon fill="none" stroke="#000000" points="297.5,-270.7 297.5,-292.7 611.5,-292.7 611.5,-270.7 297.5,-270.7"/>
<image xlink:href="../../images/primaryKeys.png" width="11px" height="12px" preserveAspectRatio="xMinYMin meet" x="302.5" y="-287.7"/>
<text text-anchor="start" x="317.5" y="-277.8" font-family="Helvetica,sans-Serif" font-size="11.00" fill="#000000">ID</text>
<polygon fill="none" stroke="#000000" points="611.5,-270.7 611.5,-292.7 782.5,-292.7 782.5,-270.7 611.5,-270.7"/>
<text text-anchor="start" x="614.5" y="-278.4" font-family="Helvetica,sans-Serif" font-size="11.00" fill="#000000">number[19]</text>
<polygon fill="none" stroke="#000000" points="297.5,-248.7 297.5,-270.7 611.5,-270.7 611.5,-248.7 297.5,-248.7"/>
<image xlink:href="../../images/primaryKeys.png" width="11px" height="12px" preserveAspectRatio="xMinYMin meet" x="302.5" y="-265.7"/>
<text text-anchor="start" x="317.5" y="-255.8" font-family="Helvetica,sans-Serif" font-size="11.00" fill="#000000">VERSION_PART_ID</text>
<polygon fill="none" stroke="#000000" points="611.5,-248.7 611.5,-270.7 782.5,-270.7 782.5,-248.7 611.5,-248.7"/>
<text text-anchor="start" x="614.5" y="-256.4" font-family="Helvetica,sans-Serif" font-size="11.00" fill="#000000">number[19]</text>
<polygon fill="none" stroke="#000000" points="297.5,-226.7 297.5,-248.7 611.5,-248.7 611.5,-226.7 297.5,-226.7"/>
<image xlink:href="../../images/primaryKeys.png" width="11px" height="12px" preserveAspectRatio="xMinYMin meet" x="302.5" y="-243.7"/>
<text text-anchor="start" x="317.5" y="-233.8" font-family="Helvetica,sans-Serif" font-size="11.00" fill="#000000">SCREENING_CONDITION_ID</text>
<polygon fill="none" stroke="#000000" points="611.5,-226.7 611.5,-248.7 782.5,-248.7 782.5,-226.7 611.5,-226.7"/>
<text text-anchor="start" x="614.5" y="-234.4" font-family="Helvetica,sans-Serif" font-size="11.00" fill="#000000">number[19]</text>
<polygon fill="none" stroke="#000000" points="297.5,-204.7 297.5,-226.7 611.5,-226.7 611.5,-204.7 297.5,-204.7"/>
<text text-anchor="start" x="317.5" y="-211.8" font-family="Helvetica,sans-Serif" font-size="11.00" fill="#000000">CREATED_AT</text>
<polygon fill="none" stroke="#000000" points="611.5,-204.7 611.5,-226.7 782.5,-226.7 782.5,-204.7 611.5,-204.7"/>
<text text-anchor="start" x="614.4896" y="-212.4" font-family="Helvetica,sans-Serif" font-size="11.00" fill="#000000">timestamp(6) with time zone[13,6]</text>
<polygon fill="none" stroke="#000000" points="297.5,-182.7 297.5,-204.7 611.5,-204.7 611.5,-182.7 297.5,-182.7"/>
<text text-anchor="start" x="317.5" y="-189.8" font-family="Helvetica,sans-Serif" font-size="11.00" fill="#000000">CREATED_BY</text>
<polygon fill="none" stroke="#000000" points="611.5,-182.7 611.5,-204.7 782.5,-204.7 782.5,-182.7 611.5,-182.7"/>
<text text-anchor="start" x="614.5" y="-190.4" font-family="Helvetica,sans-Serif" font-size="11.00" fill="#000000">number[19]</text>
<polygon fill="none" stroke="#000000" points="297.5,-160.7 297.5,-182.7 611.5,-182.7 611.5,-160.7 297.5,-160.7"/>
<text text-anchor="start" x="317.5" y="-167.8" font-family="Helvetica,sans-Serif" font-size="11.00" fill="#000000">UPDATED_AT</text>
<polygon fill="none" stroke="#000000" points="611.5,-160.7 611.5,-182.7 782.5,-182.7 782.5,-160.7 611.5,-160.7"/>
<text text-anchor="start" x="614.4896" y="-168.4" font-family="Helvetica,sans-Serif" font-size="11.00" fill="#000000">timestamp(6) with time zone[13,6]</text>
<polygon fill="none" stroke="#000000" points="297.5,-138.7 297.5,-160.7 611.5,-160.7 611.5,-138.7 297.5,-138.7"/>
<text text-anchor="start" x="317.5" y="-145.8" font-family="Helvetica,sans-Serif" font-size="11.00" fill="#000000">UPDATED_BY</text>
<polygon fill="none" stroke="#000000" points="611.5,-138.7 611.5,-160.7 782.5,-160.7 782.5,-138.7 611.5,-138.7"/>
<text text-anchor="start" x="614.5" y="-146.4" font-family="Helvetica,sans-Serif" font-size="11.00" fill="#000000">number[19]</text>
<polygon fill="#ffffff" stroke="transparent" points="297.5,-119.7 297.5,-138.7 439.5,-138.7 439.5,-119.7 297.5,-119.7"/>
<polygon fill="none" stroke="#000000" points="297.5,-119.7 297.5,-138.7 439.5,-138.7 439.5,-119.7 297.5,-119.7"/>
<text text-anchor="start" x="300.5" y="-125.8" font-family="Helvetica,sans-Serif" font-size="11.00" fill="#000000">&lt; 2</text>
<polygon fill="#ffffff" stroke="transparent" points="439.5,-119.7 439.5,-138.7 611.5,-138.7 611.5,-119.7 439.5,-119.7"/>
<polygon fill="none" stroke="#000000" points="439.5,-119.7 439.5,-138.7 611.5,-138.7 611.5,-119.7 439.5,-119.7"/>
<text text-anchor="start" x="563.8807" y="-125.8" font-family="Helvetica,sans-Serif" font-size="11.00" fill="#000000">415 rows</text>
<polygon fill="#ffffff" stroke="transparent" points="611.5,-119.7 611.5,-138.7 782.5,-138.7 782.5,-119.7 611.5,-119.7"/>
<polygon fill="none" stroke="#000000" points="611.5,-119.7 611.5,-138.7 782.5,-138.7 782.5,-119.7 611.5,-119.7"/>
<text text-anchor="start" x="763.9053" y="-125.8" font-family="Helvetica,sans-Serif" font-size="11.00" fill="#000000">0 &gt;</text>
<polygon fill="none" stroke="#000000" stroke-width="2" points="296,-118.7 296,-316.7 783,-316.7 783,-118.7 296,-118.7"/>
</a>
</g>
</g>
<!-- SCREENING_CONDITIONS -->
<g id="node2" class="node">
<title>SCREENING_CONDITIONS</title>
<g id="a_node2"><a xlink:href="../../tables/SCREENING_CONDITIONS.html" xlink:title="SCREENING_CONDITIONS" target="_top">
<polygon fill="#ffffff" stroke="transparent" points="8,-38.2 8,-209.2 246,-209.2 246,-38.2 8,-38.2"/>
<polygon fill="#f5f5f5" stroke="transparent" points="8,-185.7 8,-208.7 246,-208.7 246,-185.7 8,-185.7"/>
<polygon fill="none" stroke="#000000" points="8,-185.7 8,-208.7 246,-208.7 246,-185.7 8,-185.7"/>
<text text-anchor="start" x="13" y="-194.8" font-family="Helvetica,sans-Serif" font-weight="bold" font-size="11.00" fill="#000000">SCREENING_CONDITIONS</text>
<text text-anchor="start" x="211.0437" y="-193.8" font-family="Helvetica,sans-Serif" font-size="11.00" fill="#000000">[table]</text>
<polygon fill="none" stroke="#000000" points="8,-163.7 8,-185.7 246,-185.7 246,-163.7 8,-163.7"/>
<image xlink:href="../../images/primaryKeys.png" width="11px" height="12px" preserveAspectRatio="xMinYMin meet" x="13" y="-180.7"/>
<text text-anchor="start" x="28" y="-170.8" font-family="Helvetica,sans-Serif" font-size="11.00" fill="#000000">ID</text>
<polygon fill="none" stroke="#000000" points="8,-141.7 8,-163.7 246,-163.7 246,-141.7 8,-141.7"/>
<image xlink:href="../../images/foreignKeys.png" width="11px" height="12px" preserveAspectRatio="xMinYMin meet" x="13" y="-158.7"/>
<text text-anchor="start" x="28" y="-148.8" font-family="Helvetica,sans-Serif" font-size="11.00" fill="#000000">DEL_LIBRARY_ID</text>
<polygon fill="none" stroke="#000000" points="8,-119.7 8,-141.7 246,-141.7 246,-119.7 8,-119.7"/>
<image xlink:href="../../images/foreignKeys.png" width="11px" height="12px" preserveAspectRatio="xMinYMin meet" x="13" y="-136.7"/>
<text text-anchor="start" x="28" y="-126.8" font-family="Helvetica,sans-Serif" font-size="11.00" fill="#000000">SCREEN_MODE_ID</text>
<polygon fill="none" stroke="#000000" points="8,-97.7 8,-119.7 246,-119.7 246,-97.7 8,-97.7"/>
<image xlink:href="../../images/foreignKeys.png" width="11px" height="12px" preserveAspectRatio="xMinYMin meet" x="13" y="-114.7"/>
<text text-anchor="start" x="28" y="-104.8" font-family="Helvetica,sans-Serif" font-size="11.00" fill="#000000">TEMPLATE_REFERENCE_ID</text>
<polygon fill="none" stroke="#000000" points="8,-75.7 8,-97.7 246,-97.7 246,-75.7 8,-75.7"/>
<image xlink:href="../../images/foreignKeys.png" width="11px" height="12px" preserveAspectRatio="xMinYMin meet" x="13" y="-92.7"/>
<text text-anchor="start" x="28" y="-82.8" font-family="Helvetica,sans-Serif" font-size="11.00" fill="#000000">TEMPLATE_DATA_REFERENCE_ID</text>
<polygon fill="none" stroke="#000000" points="8,-56.7 8,-75.7 246,-75.7 246,-56.7 8,-56.7"/>
<text text-anchor="start" x="11" y="-62.8" font-family="Helvetica,sans-Serif" font-size="11.00" fill="#000000">...</text>
<polygon fill="#ffffff" stroke="transparent" points="8,-37.7 8,-56.7 102,-56.7 102,-37.7 8,-37.7"/>
<polygon fill="none" stroke="#000000" points="8,-37.7 8,-56.7 102,-56.7 102,-37.7 8,-37.7"/>
<text text-anchor="start" x="11" y="-43.8" font-family="Helvetica,sans-Serif" font-size="11.00" fill="#000000">&lt; 4</text>
<polygon fill="#ffffff" stroke="transparent" points="102,-37.7 102,-56.7 188,-56.7 188,-37.7 102,-37.7"/>
<polygon fill="none" stroke="#000000" points="102,-37.7 102,-56.7 188,-56.7 188,-37.7 102,-37.7"/>
<text text-anchor="start" x="140.3807" y="-43.8" font-family="Helvetica,sans-Serif" font-size="11.00" fill="#000000">128 rows</text>
<polygon fill="#ffffff" stroke="transparent" points="188,-37.7 188,-56.7 246,-56.7 246,-37.7 188,-37.7"/>
<polygon fill="none" stroke="#000000" points="188,-37.7 188,-56.7 246,-56.7 246,-37.7 188,-37.7"/>
<text text-anchor="start" x="227.4053" y="-43.8" font-family="Helvetica,sans-Serif" font-size="11.00" fill="#000000">3 &gt;</text>
</a>
</g>
</g>
<!-- VERSIONS_PARTS_SCREENING_CONDITIONS&#45;&gt;SCREENING_CONDITIONS -->
<g id="edge1" class="edge">
<title>VERSIONS_PARTS_SCREENING_CONDITIONS:w&#45;&gt;SCREENING_CONDITIONS:e</title>
<path fill="none" stroke="#000000" d="M283.799,-233.1692C266.6358,-218.7239 276.2316,-174.7 246,-174.7"/>
<polygon fill="#000000" stroke="#000000" points="289.9045,-235.1882 296.3697,-241.118 293.7023,-236.4441 297.5,-237.7 297.5,-237.7 297.5,-237.7 293.7023,-236.4441 298.6303,-234.282 289.9045,-235.1882 289.9045,-235.1882"/>
<ellipse fill="none" stroke="#000000" cx="286.8663" cy="-234.1835" rx="3.2" ry="3.2"/>
</g>
<!-- VERSIONS_PARTS -->
<g id="node3" class="node">
<title>VERSIONS_PARTS</title>
<g id="a_node3"><a xlink:href="../../tables/VERSIONS_PARTS.html" xlink:title="VERSIONS_PARTS" target="_top">
<polygon fill="#ffffff" stroke="transparent" points="56,-230.2 56,-357.2 198,-357.2 198,-230.2 56,-230.2"/>
<polygon fill="#f5f5f5" stroke="transparent" points="56,-333.7 56,-356.7 198,-356.7 198,-333.7 56,-333.7"/>
<polygon fill="none" stroke="#000000" points="56,-333.7 56,-356.7 198,-356.7 198,-333.7 56,-333.7"/>
<text text-anchor="start" x="60.6887" y="-342.8" font-family="Helvetica,sans-Serif" font-weight="bold" font-size="11.00" fill="#000000">VERSIONS_PARTS</text>
<text text-anchor="start" x="163.5219" y="-341.8" font-family="Helvetica,sans-Serif" font-size="11.00" fill="#000000">[table]</text>
<polygon fill="none" stroke="#000000" points="56,-311.7 56,-333.7 198,-333.7 198,-311.7 56,-311.7"/>
<image xlink:href="../../images/primaryKeys.png" width="11px" height="12px" preserveAspectRatio="xMinYMin meet" x="61" y="-328.7"/>
<text text-anchor="start" x="78" y="-318.8" font-family="Helvetica,sans-Serif" font-size="11.00" fill="#000000">ID</text>
<polygon fill="none" stroke="#000000" points="56,-289.7 56,-311.7 198,-311.7 198,-289.7 56,-289.7"/>
<image xlink:href="../../images/primaryKeys.png" width="11px" height="12px" preserveAspectRatio="xMinYMin meet" x="61" y="-306.7"/>
<text text-anchor="start" x="78" y="-296.8" font-family="Helvetica,sans-Serif" font-size="11.00" fill="#000000">VERSION_ID</text>
<polygon fill="none" stroke="#000000" points="56,-267.7 56,-289.7 198,-289.7 198,-267.7 56,-267.7"/>
<image xlink:href="../../images/primaryKeys.png" width="11px" height="12px" preserveAspectRatio="xMinYMin meet" x="61" y="-284.7"/>
<text text-anchor="start" x="78" y="-274.8" font-family="Helvetica,sans-Serif" font-size="11.00" fill="#000000">PART_ID</text>
<polygon fill="none" stroke="#000000" points="56,-248.7 56,-267.7 198,-267.7 198,-248.7 56,-248.7"/>
<text text-anchor="start" x="59" y="-254.8" font-family="Helvetica,sans-Serif" font-size="11.00" fill="#000000">...</text>
<polygon fill="#ffffff" stroke="transparent" points="56,-229.7 56,-248.7 102,-248.7 102,-229.7 56,-229.7"/>
<polygon fill="none" stroke="#000000" points="56,-229.7 56,-248.7 102,-248.7 102,-229.7 56,-229.7"/>
<text text-anchor="start" x="59" y="-235.8" font-family="Helvetica,sans-Serif" font-size="11.00" fill="#000000">&lt; 2</text>
<polygon fill="#ffffff" stroke="transparent" points="102,-229.7 102,-248.7 164,-248.7 164,-229.7 102,-229.7"/>
<polygon fill="none" stroke="#000000" points="102,-229.7 102,-248.7 164,-248.7 164,-229.7 102,-229.7"/>
<text text-anchor="start" x="116.3807" y="-235.8" font-family="Helvetica,sans-Serif" font-size="11.00" fill="#000000">449 rows</text>
<polygon fill="#ffffff" stroke="transparent" points="164,-229.7 164,-248.7 198,-248.7 198,-229.7 164,-229.7"/>
<polygon fill="none" stroke="#000000" points="164,-229.7 164,-248.7 198,-248.7 198,-229.7 164,-229.7"/>
<text text-anchor="start" x="179.4053" y="-235.8" font-family="Helvetica,sans-Serif" font-size="11.00" fill="#000000">2 &gt;</text>
</a>
</g>
</g>
<!-- VERSIONS_PARTS_SCREENING_CONDITIONS&#45;&gt;VERSIONS_PARTS -->
<g id="edge2" class="edge">
<title>VERSIONS_PARTS_SCREENING_CONDITIONS:w&#45;&gt;VERSIONS_PARTS:e</title>
<path fill="none" stroke="#000000" d="M283.2118,-261.5175C245.6181,-271.847 245.0253,-322.7 198,-322.7"/>
<polygon fill="#000000" stroke="#000000" points="289.5639,-260.7096 297.9543,-263.2712 293.532,-260.2048 297.5,-259.7 297.5,-259.7 297.5,-259.7 293.532,-260.2048 297.0457,-256.1288 289.5639,-260.7096 289.5639,-260.7096"/>
<ellipse fill="none" stroke="#000000" cx="286.3895" cy="-261.1134" rx="3.2" ry="3.2"/>
</g>
</g>
</svg>
