<?xml version="1.0" encoding="UTF-8" standalone="no"?>
<!DOCTYPE svg PUBLIC "-//W3C//DTD SVG 1.1//EN"
 "http://www.w3.org/Graphics/SVG/1.1/DTD/svg11.dtd">
<!-- Generated by graphviz version 2.40.1 (20161225.0304)
 -->
<!-- Title: oneDegreeRelationshipsDiagram Pages: 1 -->
<svg width="716pt" height="599pt"
 viewBox="0.00 0.00 716.00 599.20" xmlns="http://www.w3.org/2000/svg" xmlns:xlink="http://www.w3.org/1999/xlink">
<g id="graph0" class="graph" transform="scale(1 1) rotate(0) translate(4 595.2)">
<title>oneDegreeRelationshipsDiagram</title>
<polygon fill="#ffffff" stroke="transparent" points="-4,4 -4,-595.2 712,-595.2 712,4 -4,4"/>
<text text-anchor="middle" x="72.4936" y="-7.3" font-family="Helvetica,sans-Serif" font-size="11.00" fill="#000000">Generated by SchemaSpy</text>
<!-- VERSION_COMMENTS -->
<g id="node1" class="node">
<title>VERSION_COMMENTS</title>
<g id="a_node1"><a xlink:href="../../tables/VERSION_COMMENTS.html" xlink:title="VERSION_COMMENTS" target="_top">
<polygon fill="#ffffff" stroke="transparent" points="520.5,-482.2 520.5,-587.2 685.5,-587.2 685.5,-482.2 520.5,-482.2"/>
<polygon fill="#f5f5f5" stroke="transparent" points="521,-563.7 521,-586.7 686,-586.7 686,-563.7 521,-563.7"/>
<polygon fill="none" stroke="#000000" points="521,-563.7 521,-586.7 686,-586.7 686,-563.7 521,-563.7"/>
<text text-anchor="start" x="526" y="-572.8" font-family="Helvetica,sans-Serif" font-weight="bold" font-size="11.00" fill="#000000">VERSION_COMMENTS</text>
<text text-anchor="start" x="651.0437" y="-571.8" font-family="Helvetica,sans-Serif" font-size="11.00" fill="#000000">[table]</text>
<polygon fill="none" stroke="#000000" points="521,-541.7 521,-563.7 686,-563.7 686,-541.7 521,-541.7"/>
<image xlink:href="../../images/primaryKeys.png" width="11px" height="12px" preserveAspectRatio="xMinYMin meet" x="526" y="-558.7"/>
<text text-anchor="start" x="541" y="-548.8" font-family="Helvetica,sans-Serif" font-size="11.00" fill="#000000">ID</text>
<polygon fill="none" stroke="#000000" points="521,-519.7 521,-541.7 686,-541.7 686,-519.7 521,-519.7"/>
<image xlink:href="../../images/foreignKeys.png" width="11px" height="12px" preserveAspectRatio="xMinYMin meet" x="526" y="-536.7"/>
<text text-anchor="start" x="541" y="-526.8" font-family="Helvetica,sans-Serif" font-size="11.00" fill="#000000">VERSION_ID</text>
<polygon fill="none" stroke="#000000" points="521,-500.7 521,-519.7 686,-519.7 686,-500.7 521,-500.7"/>
<text text-anchor="start" x="524" y="-506.8" font-family="Helvetica,sans-Serif" font-size="11.00" fill="#000000">...</text>
<polygon fill="#ffffff" stroke="transparent" points="521,-481.7 521,-500.7 586,-500.7 586,-481.7 521,-481.7"/>
<polygon fill="none" stroke="#000000" points="521,-481.7 521,-500.7 586,-500.7 586,-481.7 521,-481.7"/>
<text text-anchor="start" x="524" y="-487.8" font-family="Helvetica,sans-Serif" font-size="11.00" fill="#000000">&lt; 1</text>
<polygon fill="#ffffff" stroke="transparent" points="586,-481.7 586,-500.7 652,-500.7 652,-481.7 586,-481.7"/>
<polygon fill="none" stroke="#000000" points="586,-481.7 586,-500.7 652,-500.7 652,-481.7 586,-481.7"/>
<text text-anchor="start" x="610.4956" y="-487.8" font-family="Helvetica,sans-Serif" font-size="11.00" fill="#000000">21 rows</text>
<polygon fill="#ffffff" stroke="transparent" points="652,-481.7 652,-500.7 686,-500.7 686,-481.7 652,-481.7"/>
<polygon fill="none" stroke="#000000" points="652,-481.7 652,-500.7 686,-500.7 686,-481.7 652,-481.7"/>
<text text-anchor="start" x="676.8862" y="-487.8" font-family="Helvetica,sans-Serif" font-size="11.00" fill="#000000"> &#160;</text>
</a>
</g>
</g>
<!-- VERSIONS -->
<g id="node2" class="node">
<title>VERSIONS</title>
<g id="a_node2"><a xlink:href="../../tables/VERSIONS.html" xlink:title="VERSIONS" target="_top">
<polygon fill="#ffffff" stroke="transparent" points="169,-122.7 169,-366.7 457,-366.7 457,-122.7 169,-122.7"/>
<polygon fill="#f5f5f5" stroke="transparent" points="171,-341.7 171,-364.7 455,-364.7 455,-341.7 171,-341.7"/>
<polygon fill="none" stroke="#000000" points="171,-341.7 171,-364.7 455,-364.7 455,-341.7 171,-341.7"/>
<text text-anchor="start" x="176" y="-350.8" font-family="Helvetica,sans-Serif" font-weight="bold" font-size="11.00" fill="#000000">VERSIONS</text>
<text text-anchor="start" x="420.0437" y="-349.8" font-family="Helvetica,sans-Serif" font-size="11.00" fill="#000000">[table]</text>
<polygon fill="none" stroke="#000000" points="171,-319.7 171,-341.7 284,-341.7 284,-319.7 171,-319.7"/>
<image xlink:href="../../images/primaryKeys.png" width="11px" height="12px" preserveAspectRatio="xMinYMin meet" x="176" y="-336.7"/>
<text text-anchor="start" x="191" y="-326.8" font-family="Helvetica,sans-Serif" font-size="11.00" fill="#000000">ID</text>
<polygon fill="none" stroke="#000000" points="284,-319.7 284,-341.7 455,-341.7 455,-319.7 284,-319.7"/>
<text text-anchor="start" x="287" y="-327.4" font-family="Helvetica,sans-Serif" font-size="11.00" fill="#000000">number[19]</text>
<polygon fill="none" stroke="#000000" points="171,-297.7 171,-319.7 284,-319.7 284,-297.7 171,-297.7"/>
<text text-anchor="start" x="191" y="-304.8" font-family="Helvetica,sans-Serif" font-size="11.00" fill="#000000">CREATED_AT</text>
<polygon fill="none" stroke="#000000" points="284,-297.7 284,-319.7 455,-319.7 455,-297.7 284,-297.7"/>
<text text-anchor="start" x="286.9896" y="-305.4" font-family="Helvetica,sans-Serif" font-size="11.00" fill="#000000">timestamp(6) with time zone[13,6]</text>
<polygon fill="none" stroke="#000000" points="171,-275.7 171,-297.7 284,-297.7 284,-275.7 171,-275.7"/>
<text text-anchor="start" x="191" y="-282.8" font-family="Helvetica,sans-Serif" font-size="11.00" fill="#000000">CREATED_BY</text>
<polygon fill="none" stroke="#000000" points="284,-275.7 284,-297.7 455,-297.7 455,-275.7 284,-275.7"/>
<text text-anchor="start" x="287" y="-283.4" font-family="Helvetica,sans-Serif" font-size="11.00" fill="#000000">number[19]</text>
<polygon fill="none" stroke="#000000" points="171,-253.7 171,-275.7 284,-275.7 284,-253.7 171,-253.7"/>
<text text-anchor="start" x="191" y="-260.8" font-family="Helvetica,sans-Serif" font-size="11.00" fill="#000000">UPDATED_AT</text>
<polygon fill="none" stroke="#000000" points="284,-253.7 284,-275.7 455,-275.7 455,-253.7 284,-253.7"/>
<text text-anchor="start" x="286.9896" y="-261.4" font-family="Helvetica,sans-Serif" font-size="11.00" fill="#000000">timestamp(6) with time zone[13,6]</text>
<polygon fill="none" stroke="#000000" points="171,-231.7 171,-253.7 284,-253.7 284,-231.7 171,-231.7"/>
<text text-anchor="start" x="191" y="-238.8" font-family="Helvetica,sans-Serif" font-size="11.00" fill="#000000">UPDATED_BY</text>
<polygon fill="none" stroke="#000000" points="284,-231.7 284,-253.7 455,-253.7 455,-231.7 284,-231.7"/>
<text text-anchor="start" x="287" y="-239.4" font-family="Helvetica,sans-Serif" font-size="11.00" fill="#000000">number[19]</text>
<polygon fill="none" stroke="#000000" points="171,-209.7 171,-231.7 284,-231.7 284,-209.7 171,-209.7"/>
<image xlink:href="../../images/foreignKeys.png" width="11px" height="12px" preserveAspectRatio="xMinYMin meet" x="176" y="-226.7"/>
<text text-anchor="start" x="191" y="-216.8" font-family="Helvetica,sans-Serif" font-size="11.00" fill="#000000">CAMPAIGN_ID</text>
<polygon fill="none" stroke="#000000" points="284,-209.7 284,-231.7 455,-231.7 455,-209.7 284,-209.7"/>
<text text-anchor="start" x="287" y="-217.4" font-family="Helvetica,sans-Serif" font-size="11.00" fill="#000000">number[19]</text>
<polygon fill="none" stroke="#000000" points="171,-187.7 171,-209.7 284,-209.7 284,-187.7 171,-187.7"/>
<text text-anchor="start" x="191" y="-194.8" font-family="Helvetica,sans-Serif" font-size="11.00" fill="#000000">DESCRIPTION</text>
<polygon fill="none" stroke="#000000" points="284,-187.7 284,-209.7 455,-209.7 455,-187.7 284,-187.7"/>
<text text-anchor="start" x="287" y="-195.4" font-family="Helvetica,sans-Serif" font-size="11.00" fill="#000000">clob[4000]</text>
<polygon fill="none" stroke="#000000" points="171,-165.7 171,-187.7 284,-187.7 284,-165.7 171,-165.7"/>
<text text-anchor="start" x="191" y="-172.8" font-family="Helvetica,sans-Serif" font-size="11.00" fill="#000000">NAME</text>
<polygon fill="none" stroke="#000000" points="284,-165.7 284,-187.7 455,-187.7 455,-165.7 284,-165.7"/>
<text text-anchor="start" x="287" y="-173.4" font-family="Helvetica,sans-Serif" font-size="11.00" fill="#000000">varchar2[255]</text>
<polygon fill="none" stroke="#000000" points="171,-143.7 171,-165.7 284,-165.7 284,-143.7 171,-143.7"/>
<text text-anchor="start" x="191" y="-150.8" font-family="Helvetica,sans-Serif" font-size="11.00" fill="#000000">STATUS</text>
<polygon fill="none" stroke="#000000" points="284,-143.7 284,-165.7 455,-165.7 455,-143.7 284,-143.7"/>
<text text-anchor="start" x="287" y="-151.4" font-family="Helvetica,sans-Serif" font-size="11.00" fill="#000000">varchar2[20]</text>
<polygon fill="#ffffff" stroke="transparent" points="171,-124.7 171,-143.7 213,-143.7 213,-124.7 171,-124.7"/>
<polygon fill="none" stroke="#000000" points="171,-124.7 171,-143.7 213,-143.7 213,-124.7 171,-124.7"/>
<text text-anchor="start" x="174" y="-130.8" font-family="Helvetica,sans-Serif" font-size="11.00" fill="#000000">&lt; 1</text>
<polygon fill="#ffffff" stroke="transparent" points="213,-124.7 213,-143.7 284,-143.7 284,-124.7 213,-124.7"/>
<polygon fill="none" stroke="#000000" points="213,-124.7 213,-143.7 284,-143.7 284,-124.7 213,-124.7"/>
<text text-anchor="start" x="236.3807" y="-130.8" font-family="Helvetica,sans-Serif" font-size="11.00" fill="#000000">222 rows</text>
<polygon fill="#ffffff" stroke="transparent" points="284,-124.7 284,-143.7 455,-143.7 455,-124.7 284,-124.7"/>
<polygon fill="none" stroke="#000000" points="284,-124.7 284,-143.7 455,-143.7 455,-124.7 284,-124.7"/>
<text text-anchor="start" x="436.4053" y="-130.8" font-family="Helvetica,sans-Serif" font-size="11.00" fill="#000000">4 &gt;</text>
<polygon fill="none" stroke="#000000" stroke-width="2" points="170,-123.7 170,-365.7 456,-365.7 456,-123.7 170,-123.7"/>
</a>
</g>
</g>
<!-- VERSION_COMMENTS&#45;&gt;VERSIONS -->
<g id="edge1" class="edge">
<title>VERSION_COMMENTS:w&#45;&gt;VERSIONS:e</title>
<path fill="none" stroke="#000000" d="M506.6723,-528.7205C440.8627,-507.9491 543.1192,-330.7 455,-330.7"/>
<polygon fill="#000000" stroke="#000000" points="513.0753,-529.6051 520.5073,-534.2661 517.0376,-530.1525 521,-530.7 521,-530.7 521,-530.7 517.0376,-530.1525 521.4927,-527.1339 513.0753,-529.6051 513.0753,-529.6051"/>
<ellipse fill="none" stroke="#000000" cx="509.9054" cy="-529.1671" rx="3.2" ry="3.2"/>
</g>
<!-- CAMPAIGNS -->
<g id="node3" class="node">
<title>CAMPAIGNS</title>
<g id="a_node3"><a xlink:href="../../tables/CAMPAIGNS.html" xlink:title="CAMPAIGNS" target="_top">
<polygon fill="#ffffff" stroke="transparent" points="8,-172.2 8,-255.2 120,-255.2 120,-172.2 8,-172.2"/>
<polygon fill="#f5f5f5" stroke="transparent" points="8,-231.7 8,-254.7 120,-254.7 120,-231.7 8,-231.7"/>
<polygon fill="none" stroke="#000000" points="8,-231.7 8,-254.7 120,-254.7 120,-231.7 8,-231.7"/>
<text text-anchor="start" x="13" y="-240.8" font-family="Helvetica,sans-Serif" font-weight="bold" font-size="11.00" fill="#000000">CAMPAIGNS</text>
<text text-anchor="start" x="85.0437" y="-239.8" font-family="Helvetica,sans-Serif" font-size="11.00" fill="#000000">[table]</text>
<polygon fill="none" stroke="#000000" points="8,-209.7 8,-231.7 120,-231.7 120,-209.7 8,-209.7"/>
<image xlink:href="../../images/primaryKeys.png" width="11px" height="12px" preserveAspectRatio="xMinYMin meet" x="13" y="-226.7"/>
<text text-anchor="start" x="28" y="-216.8" font-family="Helvetica,sans-Serif" font-size="11.00" fill="#000000">ID</text>
<polygon fill="none" stroke="#000000" points="8,-190.7 8,-209.7 120,-209.7 120,-190.7 8,-190.7"/>
<text text-anchor="start" x="11" y="-196.8" font-family="Helvetica,sans-Serif" font-size="11.00" fill="#000000">...</text>
<polygon fill="#ffffff" stroke="transparent" points="8,-171.7 8,-190.7 37,-190.7 37,-171.7 8,-171.7"/>
<polygon fill="none" stroke="#000000" points="8,-171.7 8,-190.7 37,-190.7 37,-171.7 8,-171.7"/>
<text text-anchor="start" x="11" y="-177.8" font-family="Helvetica,sans-Serif" font-size="11.00" fill="#000000"> &#160;</text>
<polygon fill="#ffffff" stroke="transparent" points="37,-171.7 37,-190.7 90,-190.7 90,-171.7 37,-171.7"/>
<polygon fill="none" stroke="#000000" points="37,-171.7 37,-190.7 90,-190.7 90,-171.7 37,-171.7"/>
<text text-anchor="start" x="48.4956" y="-177.8" font-family="Helvetica,sans-Serif" font-size="11.00" fill="#000000">86 rows</text>
<polygon fill="#ffffff" stroke="transparent" points="90,-171.7 90,-190.7 120,-190.7 120,-171.7 90,-171.7"/>
<polygon fill="none" stroke="#000000" points="90,-171.7 90,-190.7 120,-190.7 120,-171.7 90,-171.7"/>
<text text-anchor="start" x="101.4053" y="-177.8" font-family="Helvetica,sans-Serif" font-size="11.00" fill="#000000">2 &gt;</text>
</a>
</g>
</g>
<!-- VERSIONS&#45;&gt;CAMPAIGNS -->
<g id="edge2" class="edge">
<title>VERSIONS:w&#45;&gt;CAMPAIGNS:e</title>
<path fill="none" stroke="#000000" d="M156.276,-220.7C144.2815,-220.7 136.8229,-220.7 120,-220.7"/>
<polygon fill="#000000" stroke="#000000" points="163,-220.7001 171,-224.3 167,-220.7 171,-220.7 171,-220.7 171,-220.7 167,-220.7 171,-217.1 163,-220.7001 163,-220.7001"/>
<ellipse fill="none" stroke="#000000" cx="159.8" cy="-220.7001" rx="3.2" ry="3.2"/>
</g>
<!-- VERSIONS_PARTS -->
<g id="node4" class="node">
<title>VERSIONS_PARTS</title>
<g id="a_node4"><a xlink:href="../../tables/VERSIONS_PARTS.html" xlink:title="VERSIONS_PARTS" target="_top">
<polygon fill="#ffffff" stroke="transparent" points="532,-334.2 532,-461.2 674,-461.2 674,-334.2 532,-334.2"/>
<polygon fill="#f5f5f5" stroke="transparent" points="532,-437.7 532,-460.7 674,-460.7 674,-437.7 532,-437.7"/>
<polygon fill="none" stroke="#000000" points="532,-437.7 532,-460.7 674,-460.7 674,-437.7 532,-437.7"/>
<text text-anchor="start" x="536.6887" y="-446.8" font-family="Helvetica,sans-Serif" font-weight="bold" font-size="11.00" fill="#000000">VERSIONS_PARTS</text>
<text text-anchor="start" x="639.5219" y="-445.8" font-family="Helvetica,sans-Serif" font-size="11.00" fill="#000000">[table]</text>
<polygon fill="none" stroke="#000000" points="532,-415.7 532,-437.7 674,-437.7 674,-415.7 532,-415.7"/>
<image xlink:href="../../images/primaryKeys.png" width="11px" height="12px" preserveAspectRatio="xMinYMin meet" x="537" y="-432.7"/>
<text text-anchor="start" x="554" y="-422.8" font-family="Helvetica,sans-Serif" font-size="11.00" fill="#000000">ID</text>
<polygon fill="none" stroke="#000000" points="532,-393.7 532,-415.7 674,-415.7 674,-393.7 532,-393.7"/>
<image xlink:href="../../images/primaryKeys.png" width="11px" height="12px" preserveAspectRatio="xMinYMin meet" x="537" y="-410.7"/>
<text text-anchor="start" x="554" y="-400.8" font-family="Helvetica,sans-Serif" font-size="11.00" fill="#000000">VERSION_ID</text>
<polygon fill="none" stroke="#000000" points="532,-371.7 532,-393.7 674,-393.7 674,-371.7 532,-371.7"/>
<image xlink:href="../../images/primaryKeys.png" width="11px" height="12px" preserveAspectRatio="xMinYMin meet" x="537" y="-388.7"/>
<text text-anchor="start" x="554" y="-378.8" font-family="Helvetica,sans-Serif" font-size="11.00" fill="#000000">PART_ID</text>
<polygon fill="none" stroke="#000000" points="532,-352.7 532,-371.7 674,-371.7 674,-352.7 532,-352.7"/>
<text text-anchor="start" x="535" y="-358.8" font-family="Helvetica,sans-Serif" font-size="11.00" fill="#000000">...</text>
<polygon fill="#ffffff" stroke="transparent" points="532,-333.7 532,-352.7 578,-352.7 578,-333.7 532,-333.7"/>
<polygon fill="none" stroke="#000000" points="532,-333.7 532,-352.7 578,-352.7 578,-333.7 532,-333.7"/>
<text text-anchor="start" x="535" y="-339.8" font-family="Helvetica,sans-Serif" font-size="11.00" fill="#000000">&lt; 2</text>
<polygon fill="#ffffff" stroke="transparent" points="578,-333.7 578,-352.7 640,-352.7 640,-333.7 578,-333.7"/>
<polygon fill="none" stroke="#000000" points="578,-333.7 578,-352.7 640,-352.7 640,-333.7 578,-333.7"/>
<text text-anchor="start" x="592.3807" y="-339.8" font-family="Helvetica,sans-Serif" font-size="11.00" fill="#000000">449 rows</text>
<polygon fill="#ffffff" stroke="transparent" points="640,-333.7 640,-352.7 674,-352.7 674,-333.7 640,-333.7"/>
<polygon fill="none" stroke="#000000" points="640,-333.7 640,-352.7 674,-352.7 674,-333.7 640,-333.7"/>
<text text-anchor="start" x="655.4053" y="-339.8" font-family="Helvetica,sans-Serif" font-size="11.00" fill="#000000">2 &gt;</text>
</a>
</g>
</g>
<!-- VERSIONS_PARTS&#45;&gt;VERSIONS -->
<g id="edge3" class="edge">
<title>VERSIONS_PARTS:w&#45;&gt;VERSIONS:e</title>
<path fill="none" stroke="#000000" d="M517.797,-401.8895C487.8398,-388.3725 496.9019,-330.7 455,-330.7"/>
<polygon fill="#000000" stroke="#000000" points="524.1522,-403.147 531.3012,-408.2315 528.0761,-403.9235 532,-404.7 532,-404.7 532,-404.7 528.0761,-403.9235 532.6988,-401.1685 524.1522,-403.147 524.1522,-403.147"/>
<ellipse fill="none" stroke="#000000" cx="521.013" cy="-402.5258" rx="3.2" ry="3.2"/>
</g>
<!-- VERSIONS_SUPPLEMENTS -->
<g id="node5" class="node">
<title>VERSIONS_SUPPLEMENTS</title>
<g id="a_node5"><a xlink:href="../../tables/VERSIONS_SUPPLEMENTS.html" xlink:title="VERSIONS_SUPPLEMENTS" target="_top">
<polygon fill="#ffffff" stroke="transparent" points="506,-186.2 506,-313.2 700,-313.2 700,-186.2 506,-186.2"/>
<polygon fill="#f5f5f5" stroke="transparent" points="506,-289.7 506,-312.7 700,-312.7 700,-289.7 506,-289.7"/>
<polygon fill="none" stroke="#000000" points="506,-289.7 506,-312.7 700,-312.7 700,-289.7 506,-289.7"/>
<text text-anchor="start" x="511" y="-298.8" font-family="Helvetica,sans-Serif" font-weight="bold" font-size="11.00" fill="#000000">VERSIONS_SUPPLEMENTS</text>
<text text-anchor="start" x="665.0437" y="-297.8" font-family="Helvetica,sans-Serif" font-size="11.00" fill="#000000">[table]</text>
<polygon fill="none" stroke="#000000" points="506,-267.7 506,-289.7 700,-289.7 700,-267.7 506,-267.7"/>
<image xlink:href="../../images/primaryKeys.png" width="11px" height="12px" preserveAspectRatio="xMinYMin meet" x="511" y="-284.7"/>
<text text-anchor="start" x="526" y="-274.8" font-family="Helvetica,sans-Serif" font-size="11.00" fill="#000000">ID</text>
<polygon fill="none" stroke="#000000" points="506,-245.7 506,-267.7 700,-267.7 700,-245.7 506,-245.7"/>
<image xlink:href="../../images/primaryKeys.png" width="11px" height="12px" preserveAspectRatio="xMinYMin meet" x="511" y="-262.7"/>
<text text-anchor="start" x="526" y="-252.8" font-family="Helvetica,sans-Serif" font-size="11.00" fill="#000000">VERSION_ID</text>
<polygon fill="none" stroke="#000000" points="506,-223.7 506,-245.7 700,-245.7 700,-223.7 506,-223.7"/>
<image xlink:href="../../images/primaryKeys.png" width="11px" height="12px" preserveAspectRatio="xMinYMin meet" x="511" y="-240.7"/>
<text text-anchor="start" x="526" y="-230.8" font-family="Helvetica,sans-Serif" font-size="11.00" fill="#000000">SUPPLEMENT_ID</text>
<polygon fill="none" stroke="#000000" points="506,-204.7 506,-223.7 700,-223.7 700,-204.7 506,-204.7"/>
<text text-anchor="start" x="509" y="-210.8" font-family="Helvetica,sans-Serif" font-size="11.00" fill="#000000">...</text>
<polygon fill="#ffffff" stroke="transparent" points="506,-185.7 506,-204.7 582,-204.7 582,-185.7 506,-185.7"/>
<polygon fill="none" stroke="#000000" points="506,-185.7 506,-204.7 582,-204.7 582,-185.7 506,-185.7"/>
<text text-anchor="start" x="509" y="-191.8" font-family="Helvetica,sans-Serif" font-size="11.00" fill="#000000">&lt; 2</text>
<polygon fill="#ffffff" stroke="transparent" points="582,-185.7 582,-204.7 660,-204.7 660,-185.7 582,-185.7"/>
<polygon fill="none" stroke="#000000" points="582,-185.7 582,-204.7 660,-204.7 660,-185.7 582,-185.7"/>
<text text-anchor="start" x="612.3807" y="-191.8" font-family="Helvetica,sans-Serif" font-size="11.00" fill="#000000">190 rows</text>
<polygon fill="#ffffff" stroke="transparent" points="660,-185.7 660,-204.7 700,-204.7 700,-185.7 660,-185.7"/>
<polygon fill="none" stroke="#000000" points="660,-185.7 660,-204.7 700,-204.7 700,-185.7 660,-185.7"/>
<text text-anchor="start" x="690.8862" y="-191.8" font-family="Helvetica,sans-Serif" font-size="11.00" fill="#000000"> &#160;</text>
</a>
</g>
</g>
<!-- VERSIONS_SUPPLEMENTS&#45;&gt;VERSIONS -->
<g id="edge4" class="edge">
<title>VERSIONS_SUPPLEMENTS:w&#45;&gt;VERSIONS:e</title>
<path fill="none" stroke="#000000" d="M492.0503,-261.329C473.2607,-277.5294 488.8581,-330.7 455,-330.7"/>
<polygon fill="#000000" stroke="#000000" points="498.4071,-259.2196 507.1338,-260.1168 502.2036,-257.9598 506,-256.7 506,-256.7 506,-256.7 502.2036,-257.9598 504.8662,-253.2832 498.4071,-259.2196 498.4071,-259.2196"/>
<ellipse fill="none" stroke="#000000" cx="495.37" cy="-260.2275" rx="3.2" ry="3.2"/>
</g>
<!-- VERSIONS_TRACERS -->
<g id="node6" class="node">
<title>VERSIONS_TRACERS</title>
<g id="a_node6"><a xlink:href="../../tables/VERSIONS_TRACERS.html" xlink:title="VERSIONS_TRACERS" target="_top">
<polygon fill="#ffffff" stroke="transparent" points="524,-38.2 524,-165.2 682,-165.2 682,-38.2 524,-38.2"/>
<polygon fill="#f5f5f5" stroke="transparent" points="524,-141.7 524,-164.7 682,-164.7 682,-141.7 524,-141.7"/>
<polygon fill="none" stroke="#000000" points="524,-141.7 524,-164.7 682,-164.7 682,-141.7 524,-141.7"/>
<text text-anchor="start" x="528.7478" y="-150.8" font-family="Helvetica,sans-Serif" font-weight="bold" font-size="11.00" fill="#000000">VERSIONS_TRACERS</text>
<text text-anchor="start" x="647.5219" y="-149.8" font-family="Helvetica,sans-Serif" font-size="11.00" fill="#000000">[table]</text>
<polygon fill="none" stroke="#000000" points="524,-119.7 524,-141.7 682,-141.7 682,-119.7 524,-119.7"/>
<image xlink:href="../../images/primaryKeys.png" width="11px" height="12px" preserveAspectRatio="xMinYMin meet" x="529" y="-136.7"/>
<text text-anchor="start" x="545" y="-126.8" font-family="Helvetica,sans-Serif" font-size="11.00" fill="#000000">ID</text>
<polygon fill="none" stroke="#000000" points="524,-97.7 524,-119.7 682,-119.7 682,-97.7 524,-97.7"/>
<image xlink:href="../../images/primaryKeys.png" width="11px" height="12px" preserveAspectRatio="xMinYMin meet" x="529" y="-114.7"/>
<text text-anchor="start" x="545" y="-104.8" font-family="Helvetica,sans-Serif" font-size="11.00" fill="#000000">VERSION_ID</text>
<polygon fill="none" stroke="#000000" points="524,-75.7 524,-97.7 682,-97.7 682,-75.7 524,-75.7"/>
<image xlink:href="../../images/primaryKeys.png" width="11px" height="12px" preserveAspectRatio="xMinYMin meet" x="529" y="-92.7"/>
<text text-anchor="start" x="545" y="-82.8" font-family="Helvetica,sans-Serif" font-size="11.00" fill="#000000">TRACER_ID</text>
<polygon fill="none" stroke="#000000" points="524,-56.7 524,-75.7 682,-75.7 682,-56.7 524,-56.7"/>
<text text-anchor="start" x="527" y="-62.8" font-family="Helvetica,sans-Serif" font-size="11.00" fill="#000000">...</text>
<polygon fill="#ffffff" stroke="transparent" points="524,-37.7 524,-56.7 573,-56.7 573,-37.7 524,-37.7"/>
<polygon fill="none" stroke="#000000" points="524,-37.7 524,-56.7 573,-56.7 573,-37.7 524,-37.7"/>
<text text-anchor="start" x="527" y="-43.8" font-family="Helvetica,sans-Serif" font-size="11.00" fill="#000000">&lt; 2</text>
<polygon fill="#ffffff" stroke="transparent" points="573,-37.7 573,-56.7 646,-56.7 646,-37.7 573,-37.7"/>
<polygon fill="none" stroke="#000000" points="573,-37.7 573,-56.7 646,-56.7 646,-37.7 573,-37.7"/>
<text text-anchor="start" x="589.2089" y="-43.8" font-family="Helvetica,sans-Serif" font-size="11.00" fill="#000000">1,279 rows</text>
<polygon fill="#ffffff" stroke="transparent" points="646,-37.7 646,-56.7 682,-56.7 682,-37.7 646,-37.7"/>
<polygon fill="none" stroke="#000000" points="646,-37.7 646,-56.7 682,-56.7 682,-37.7 646,-37.7"/>
<text text-anchor="start" x="663.4053" y="-43.8" font-family="Helvetica,sans-Serif" font-size="11.00" fill="#000000">2 &gt;</text>
</a>
</g>
</g>
<!-- VERSIONS_TRACERS&#45;&gt;VERSIONS -->
<g id="edge5" class="edge">
<title>VERSIONS_TRACERS:w&#45;&gt;VERSIONS:e</title>
<path fill="none" stroke="#000000" d="M509.5937,-110.487C434.5246,-131.4967 552.8739,-330.7 455,-330.7"/>
<polygon fill="#000000" stroke="#000000" points="516.0608,-109.6848 524.4432,-112.2726 520.0304,-109.1924 524,-108.7 524,-108.7 524,-108.7 520.0304,-109.1924 523.5568,-105.1274 516.0608,-109.6848 516.0608,-109.6848"/>
<ellipse fill="none" stroke="#000000" cx="512.8852" cy="-110.0788" rx="3.2" ry="3.2"/>
</g>
</g>
</svg>
