<?xml version="1.0" encoding="UTF-8" standalone="no"?>
<!DOCTYPE svg PUBLIC "-//W3C//DTD SVG 1.1//EN"
 "http://www.w3.org/Graphics/SVG/1.1/DTD/svg11.dtd">
<!-- Generated by graphviz version 2.40.1 (20161225.0304)
 -->
<!-- Title: twoDegreesRelationshipsDiagram Pages: 1 -->
<svg width="1021pt" height="661pt"
 viewBox="0.00 0.00 1021.00 661.20" xmlns="http://www.w3.org/2000/svg" xmlns:xlink="http://www.w3.org/1999/xlink">
<g id="graph0" class="graph" transform="scale(1 1) rotate(0) translate(4 657.2)">
<title>twoDegreesRelationshipsDiagram</title>
<polygon fill="#ffffff" stroke="transparent" points="-4,4 -4,-657.2 1017,-657.2 1017,4 -4,4"/>
<text text-anchor="middle" x="72.4936" y="-7.3" font-family="Helvetica,sans-Serif" font-size="11.00" fill="#000000">Generated by SchemaSpy</text>
<!-- VERSION_COMMENTS -->
<g id="node1" class="node">
<title>VERSION_COMMENTS</title>
<g id="a_node1"><a xlink:href="../../tables/VERSION_COMMENTS.html" xlink:title="VERSION_COMMENTS" target="_top">
<polygon fill="#ffffff" stroke="transparent" points="404,-588.2 404,-649.2 566,-649.2 566,-588.2 404,-588.2"/>
<polygon fill="#f5f5f5" stroke="transparent" points="404,-625.7 404,-648.7 566,-648.7 566,-625.7 404,-625.7"/>
<polygon fill="none" stroke="#000000" points="404,-625.7 404,-648.7 566,-648.7 566,-625.7 404,-625.7"/>
<text text-anchor="start" x="408.6138" y="-634.8" font-family="Helvetica,sans-Serif" font-weight="bold" font-size="11.00" fill="#000000">VERSION_COMMENTS</text>
<text text-anchor="start" x="531.5219" y="-633.8" font-family="Helvetica,sans-Serif" font-size="11.00" fill="#000000">[table]</text>
<polygon fill="none" stroke="#000000" points="404,-606.7 404,-625.7 566,-625.7 566,-606.7 404,-606.7"/>
<text text-anchor="start" x="407" y="-612.8" font-family="Helvetica,sans-Serif" font-size="11.00" fill="#000000">...</text>
<polygon fill="#ffffff" stroke="transparent" points="404,-587.7 404,-606.7 467,-606.7 467,-587.7 404,-587.7"/>
<polygon fill="none" stroke="#000000" points="404,-587.7 404,-606.7 467,-606.7 467,-587.7 404,-587.7"/>
<text text-anchor="start" x="407" y="-593.8" font-family="Helvetica,sans-Serif" font-size="11.00" fill="#000000">&lt; 1</text>
<polygon fill="#ffffff" stroke="transparent" points="467,-587.7 467,-606.7 532,-606.7 532,-587.7 467,-587.7"/>
<polygon fill="none" stroke="#000000" points="467,-587.7 467,-606.7 532,-606.7 532,-587.7 467,-587.7"/>
<text text-anchor="start" x="490.4956" y="-593.8" font-family="Helvetica,sans-Serif" font-size="11.00" fill="#000000">21 rows</text>
<polygon fill="#ffffff" stroke="transparent" points="532,-587.7 532,-606.7 566,-606.7 566,-587.7 532,-587.7"/>
<polygon fill="none" stroke="#000000" points="532,-587.7 532,-606.7 566,-606.7 566,-587.7 532,-587.7"/>
<text text-anchor="start" x="556.8862" y="-593.8" font-family="Helvetica,sans-Serif" font-size="11.00" fill="#000000"> &#160;</text>
</a>
</g>
</g>
<!-- VERSIONS -->
<g id="node2" class="node">
<title>VERSIONS</title>
<g id="a_node2"><a xlink:href="../../tables/VERSIONS.html" xlink:title="VERSIONS" target="_top">
<polygon fill="#ffffff" stroke="transparent" points="166,-422.2 166,-527.2 279,-527.2 279,-422.2 166,-422.2"/>
<polygon fill="#f5f5f5" stroke="transparent" points="166.5,-503.7 166.5,-526.7 279.5,-526.7 279.5,-503.7 166.5,-503.7"/>
<polygon fill="none" stroke="#000000" points="166.5,-503.7 166.5,-526.7 279.5,-526.7 279.5,-503.7 166.5,-503.7"/>
<text text-anchor="start" x="171.5" y="-512.8" font-family="Helvetica,sans-Serif" font-weight="bold" font-size="11.00" fill="#000000">VERSIONS</text>
<text text-anchor="start" x="244.5437" y="-511.8" font-family="Helvetica,sans-Serif" font-size="11.00" fill="#000000">[table]</text>
<polygon fill="none" stroke="#000000" points="166.5,-481.7 166.5,-503.7 279.5,-503.7 279.5,-481.7 166.5,-481.7"/>
<image xlink:href="../../images/primaryKeys.png" width="11px" height="12px" preserveAspectRatio="xMinYMin meet" x="171.5" y="-498.7"/>
<text text-anchor="start" x="186.5" y="-488.8" font-family="Helvetica,sans-Serif" font-size="11.00" fill="#000000">ID</text>
<polygon fill="none" stroke="#000000" points="166.5,-459.7 166.5,-481.7 279.5,-481.7 279.5,-459.7 166.5,-459.7"/>
<image xlink:href="../../images/foreignKeys.png" width="11px" height="12px" preserveAspectRatio="xMinYMin meet" x="171.5" y="-476.7"/>
<text text-anchor="start" x="186.5" y="-466.8" font-family="Helvetica,sans-Serif" font-size="11.00" fill="#000000">CAMPAIGN_ID</text>
<polygon fill="none" stroke="#000000" points="166.5,-440.7 166.5,-459.7 279.5,-459.7 279.5,-440.7 166.5,-440.7"/>
<text text-anchor="start" x="169.5" y="-446.8" font-family="Helvetica,sans-Serif" font-size="11.00" fill="#000000">...</text>
<polygon fill="#ffffff" stroke="transparent" points="166.5,-421.7 166.5,-440.7 197.5,-440.7 197.5,-421.7 166.5,-421.7"/>
<polygon fill="none" stroke="#000000" points="166.5,-421.7 166.5,-440.7 197.5,-440.7 197.5,-421.7 166.5,-421.7"/>
<text text-anchor="start" x="169.5" y="-427.8" font-family="Helvetica,sans-Serif" font-size="11.00" fill="#000000">&lt; 1</text>
<polygon fill="#ffffff" stroke="transparent" points="197.5,-421.7 197.5,-440.7 252.5,-440.7 252.5,-421.7 197.5,-421.7"/>
<polygon fill="none" stroke="#000000" points="197.5,-421.7 197.5,-440.7 252.5,-440.7 252.5,-421.7 197.5,-421.7"/>
<text text-anchor="start" x="204.8807" y="-427.8" font-family="Helvetica,sans-Serif" font-size="11.00" fill="#000000">222 rows</text>
<polygon fill="#ffffff" stroke="transparent" points="252.5,-421.7 252.5,-440.7 279.5,-440.7 279.5,-421.7 252.5,-421.7"/>
<polygon fill="none" stroke="#000000" points="252.5,-421.7 252.5,-440.7 279.5,-440.7 279.5,-421.7 252.5,-421.7"/>
<text text-anchor="start" x="260.9053" y="-427.8" font-family="Helvetica,sans-Serif" font-size="11.00" fill="#000000">4 &gt;</text>
</a>
</g>
</g>
<!-- VERSION_COMMENTS&#45;&gt;VERSIONS -->
<g id="edge1" class="edge">
<title>VERSION_COMMENTS:w&#45;&gt;VERSIONS:e</title>
<path fill="none" stroke="#000000" d="M389.4189,-615.2141C359.2181,-612.9768 345.4881,-602.688 320,-577.7 290.1181,-548.4044 321.3469,-492.7 279.5,-492.7"/>
<polygon fill="#000000" stroke="#000000" points="396.0044,-615.4335 403.8801,-619.298 400.0022,-615.5668 404,-615.7 404,-615.7 404,-615.7 400.0022,-615.5668 404.1199,-612.102 396.0044,-615.4335 396.0044,-615.4335"/>
<ellipse fill="none" stroke="#000000" cx="392.8062" cy="-615.3269" rx="3.2" ry="3.2"/>
</g>
<!-- CAMPAIGNS -->
<g id="node3" class="node">
<title>CAMPAIGNS</title>
<g id="a_node3"><a xlink:href="../../tables/CAMPAIGNS.html" xlink:title="CAMPAIGNS" target="_top">
<polygon fill="#ffffff" stroke="transparent" points="8,-443.2 8,-504.2 117,-504.2 117,-443.2 8,-443.2"/>
<polygon fill="#f5f5f5" stroke="transparent" points="8.5,-480.7 8.5,-503.7 117.5,-503.7 117.5,-480.7 8.5,-480.7"/>
<polygon fill="none" stroke="#000000" points="8.5,-480.7 8.5,-503.7 117.5,-503.7 117.5,-480.7 8.5,-480.7"/>
<text text-anchor="start" x="13.4995" y="-489.8" font-family="Helvetica,sans-Serif" font-weight="bold" font-size="11.00" fill="#000000">CAMPAIGNS</text>
<text text-anchor="start" x="83.0219" y="-488.8" font-family="Helvetica,sans-Serif" font-size="11.00" fill="#000000">[table]</text>
<polygon fill="none" stroke="#000000" points="8.5,-461.7 8.5,-480.7 117.5,-480.7 117.5,-461.7 8.5,-461.7"/>
<text text-anchor="start" x="11.5" y="-467.8" font-family="Helvetica,sans-Serif" font-size="11.00" fill="#000000">...</text>
<polygon fill="#ffffff" stroke="transparent" points="8.5,-442.7 8.5,-461.7 36.5,-461.7 36.5,-442.7 8.5,-442.7"/>
<polygon fill="none" stroke="#000000" points="8.5,-442.7 8.5,-461.7 36.5,-461.7 36.5,-442.7 8.5,-442.7"/>
<text text-anchor="start" x="11.5" y="-448.8" font-family="Helvetica,sans-Serif" font-size="11.00" fill="#000000"> &#160;</text>
<polygon fill="#ffffff" stroke="transparent" points="36.5,-442.7 36.5,-461.7 88.5,-461.7 88.5,-442.7 36.5,-442.7"/>
<polygon fill="none" stroke="#000000" points="36.5,-442.7 36.5,-461.7 88.5,-461.7 88.5,-442.7 36.5,-442.7"/>
<text text-anchor="start" x="46.9956" y="-448.8" font-family="Helvetica,sans-Serif" font-size="11.00" fill="#000000">86 rows</text>
<polygon fill="#ffffff" stroke="transparent" points="88.5,-442.7 88.5,-461.7 117.5,-461.7 117.5,-442.7 88.5,-442.7"/>
<polygon fill="none" stroke="#000000" points="88.5,-442.7 88.5,-461.7 117.5,-461.7 117.5,-442.7 88.5,-442.7"/>
<text text-anchor="start" x="98.9053" y="-448.8" font-family="Helvetica,sans-Serif" font-size="11.00" fill="#000000">2 &gt;</text>
</a>
</g>
</g>
<!-- VERSIONS&#45;&gt;CAMPAIGNS -->
<g id="edge2" class="edge">
<title>VERSIONS:w&#45;&gt;CAMPAIGNS:e</title>
<path fill="none" stroke="#000000" d="M151.9909,-470.7C140.6774,-470.7 133.4931,-470.7 117.5,-470.7"/>
<polygon fill="#000000" stroke="#000000" points="158.5,-470.7001 166.5,-474.3 162.5,-470.7 166.5,-470.7 166.5,-470.7 166.5,-470.7 162.5,-470.7 166.5,-467.1 158.5,-470.7001 158.5,-470.7001"/>
<ellipse fill="none" stroke="#000000" cx="155.3" cy="-470.7001" rx="3.2" ry="3.2"/>
</g>
<!-- VERSIONS_PARTS -->
<g id="node4" class="node">
<title>VERSIONS_PARTS</title>
<g id="a_node4"><a xlink:href="../../tables/VERSIONS_PARTS.html" xlink:title="VERSIONS_PARTS" target="_top">
<polygon fill="#ffffff" stroke="transparent" points="328,-120.7 328,-320.7 642,-320.7 642,-120.7 328,-120.7"/>
<polygon fill="#f5f5f5" stroke="transparent" points="330,-295.7 330,-318.7 640,-318.7 640,-295.7 330,-295.7"/>
<polygon fill="none" stroke="#000000" points="330,-295.7 330,-318.7 640,-318.7 640,-295.7 330,-295.7"/>
<text text-anchor="start" x="335" y="-304.8" font-family="Helvetica,sans-Serif" font-weight="bold" font-size="11.00" fill="#000000">VERSIONS_PARTS</text>
<text text-anchor="start" x="605.0437" y="-303.8" font-family="Helvetica,sans-Serif" font-size="11.00" fill="#000000">[table]</text>
<polygon fill="none" stroke="#000000" points="330,-273.7 330,-295.7 469,-295.7 469,-273.7 330,-273.7"/>
<image xlink:href="../../images/primaryKeys.png" width="11px" height="12px" preserveAspectRatio="xMinYMin meet" x="335" y="-290.7"/>
<text text-anchor="start" x="350" y="-280.8" font-family="Helvetica,sans-Serif" font-size="11.00" fill="#000000">ID</text>
<polygon fill="none" stroke="#000000" points="469,-273.7 469,-295.7 640,-295.7 640,-273.7 469,-273.7"/>
<text text-anchor="start" x="472" y="-281.4" font-family="Helvetica,sans-Serif" font-size="11.00" fill="#000000">number[19]</text>
<polygon fill="none" stroke="#000000" points="330,-251.7 330,-273.7 469,-273.7 469,-251.7 330,-251.7"/>
<text text-anchor="start" x="350" y="-258.8" font-family="Helvetica,sans-Serif" font-size="11.00" fill="#000000">CREATED_AT</text>
<polygon fill="none" stroke="#000000" points="469,-251.7 469,-273.7 640,-273.7 640,-251.7 469,-251.7"/>
<text text-anchor="start" x="471.9896" y="-259.4" font-family="Helvetica,sans-Serif" font-size="11.00" fill="#000000">timestamp(6) with time zone[13,6]</text>
<polygon fill="none" stroke="#000000" points="330,-229.7 330,-251.7 469,-251.7 469,-229.7 330,-229.7"/>
<text text-anchor="start" x="350" y="-236.8" font-family="Helvetica,sans-Serif" font-size="11.00" fill="#000000">CREATED_BY</text>
<polygon fill="none" stroke="#000000" points="469,-229.7 469,-251.7 640,-251.7 640,-229.7 469,-229.7"/>
<text text-anchor="start" x="472" y="-237.4" font-family="Helvetica,sans-Serif" font-size="11.00" fill="#000000">number[19]</text>
<polygon fill="none" stroke="#000000" points="330,-207.7 330,-229.7 469,-229.7 469,-207.7 330,-207.7"/>
<text text-anchor="start" x="350" y="-214.8" font-family="Helvetica,sans-Serif" font-size="11.00" fill="#000000">UPDATED_AT</text>
<polygon fill="none" stroke="#000000" points="469,-207.7 469,-229.7 640,-229.7 640,-207.7 469,-207.7"/>
<text text-anchor="start" x="471.9896" y="-215.4" font-family="Helvetica,sans-Serif" font-size="11.00" fill="#000000">timestamp(6) with time zone[13,6]</text>
<polygon fill="none" stroke="#000000" points="330,-185.7 330,-207.7 469,-207.7 469,-185.7 330,-185.7"/>
<text text-anchor="start" x="350" y="-192.8" font-family="Helvetica,sans-Serif" font-size="11.00" fill="#000000">UPDATED_BY</text>
<polygon fill="none" stroke="#000000" points="469,-185.7 469,-207.7 640,-207.7 640,-185.7 469,-185.7"/>
<text text-anchor="start" x="472" y="-193.4" font-family="Helvetica,sans-Serif" font-size="11.00" fill="#000000">number[19]</text>
<polygon fill="none" stroke="#000000" points="330,-163.7 330,-185.7 469,-185.7 469,-163.7 330,-163.7"/>
<image xlink:href="../../images/primaryKeys.png" width="11px" height="12px" preserveAspectRatio="xMinYMin meet" x="335" y="-180.7"/>
<text text-anchor="start" x="350" y="-170.8" font-family="Helvetica,sans-Serif" font-size="11.00" fill="#000000">VERSION_ID</text>
<polygon fill="none" stroke="#000000" points="469,-163.7 469,-185.7 640,-185.7 640,-163.7 469,-163.7"/>
<text text-anchor="start" x="472" y="-171.4" font-family="Helvetica,sans-Serif" font-size="11.00" fill="#000000">number[19]</text>
<polygon fill="none" stroke="#000000" points="330,-141.7 330,-163.7 469,-163.7 469,-141.7 330,-141.7"/>
<image xlink:href="../../images/primaryKeys.png" width="11px" height="12px" preserveAspectRatio="xMinYMin meet" x="335" y="-158.7"/>
<text text-anchor="start" x="350" y="-148.8" font-family="Helvetica,sans-Serif" font-size="11.00" fill="#000000">PART_ID</text>
<polygon fill="none" stroke="#000000" points="469,-141.7 469,-163.7 640,-163.7 640,-141.7 469,-141.7"/>
<text text-anchor="start" x="472" y="-149.4" font-family="Helvetica,sans-Serif" font-size="11.00" fill="#000000">number[19]</text>
<polygon fill="#ffffff" stroke="transparent" points="330,-122.7 330,-141.7 385,-141.7 385,-122.7 330,-122.7"/>
<polygon fill="none" stroke="#000000" points="330,-122.7 330,-141.7 385,-141.7 385,-122.7 330,-122.7"/>
<text text-anchor="start" x="333" y="-128.8" font-family="Helvetica,sans-Serif" font-size="11.00" fill="#000000">&lt; 2</text>
<polygon fill="#ffffff" stroke="transparent" points="385,-122.7 385,-141.7 469,-141.7 469,-122.7 385,-122.7"/>
<polygon fill="none" stroke="#000000" points="385,-122.7 385,-141.7 469,-141.7 469,-122.7 385,-122.7"/>
<text text-anchor="start" x="421.3807" y="-128.8" font-family="Helvetica,sans-Serif" font-size="11.00" fill="#000000">449 rows</text>
<polygon fill="#ffffff" stroke="transparent" points="469,-122.7 469,-141.7 640,-141.7 640,-122.7 469,-122.7"/>
<polygon fill="none" stroke="#000000" points="469,-122.7 469,-141.7 640,-141.7 640,-122.7 469,-122.7"/>
<text text-anchor="start" x="621.4053" y="-128.8" font-family="Helvetica,sans-Serif" font-size="11.00" fill="#000000">2 &gt;</text>
<polygon fill="none" stroke="#000000" stroke-width="2" points="329,-121.7 329,-319.7 641,-319.7 641,-121.7 329,-121.7"/>
</a>
</g>
</g>
<!-- VERSIONS_PARTS&#45;&gt;VERSIONS -->
<g id="edge4" class="edge">
<title>VERSIONS_PARTS:w&#45;&gt;VERSIONS:e</title>
<path fill="none" stroke="#000000" d="M316.3615,-179.9542C271.603,-221.3002 345.6019,-492.7 279.5,-492.7"/>
<polygon fill="#000000" stroke="#000000" points="322.5348,-177.576 331.2942,-178.0593 326.2674,-176.138 330,-174.7 330,-174.7 330,-174.7 326.2674,-176.138 328.7058,-171.3407 322.5348,-177.576 322.5348,-177.576"/>
<ellipse fill="none" stroke="#000000" cx="319.5487" cy="-178.7263" rx="3.2" ry="3.2"/>
</g>
<!-- PARTS -->
<g id="node5" class="node">
<title>PARTS</title>
<g id="a_node5"><a xlink:href="../../tables/PARTS.html" xlink:title="PARTS" target="_top">
<polygon fill="#ffffff" stroke="transparent" points="168.5,-104.2 168.5,-187.2 276.5,-187.2 276.5,-104.2 168.5,-104.2"/>
<polygon fill="#f5f5f5" stroke="transparent" points="168.5,-163.7 168.5,-186.7 276.5,-186.7 276.5,-163.7 168.5,-163.7"/>
<polygon fill="none" stroke="#000000" points="168.5,-163.7 168.5,-186.7 276.5,-186.7 276.5,-163.7 168.5,-163.7"/>
<text text-anchor="start" x="173.5" y="-172.8" font-family="Helvetica,sans-Serif" font-weight="bold" font-size="11.00" fill="#000000">PARTS</text>
<text text-anchor="start" x="241.5437" y="-171.8" font-family="Helvetica,sans-Serif" font-size="11.00" fill="#000000">[table]</text>
<polygon fill="none" stroke="#000000" points="168.5,-141.7 168.5,-163.7 276.5,-163.7 276.5,-141.7 168.5,-141.7"/>
<image xlink:href="../../images/primaryKeys.png" width="11px" height="12px" preserveAspectRatio="xMinYMin meet" x="173.5" y="-158.7"/>
<text text-anchor="start" x="188.5" y="-148.8" font-family="Helvetica,sans-Serif" font-size="11.00" fill="#000000">ID</text>
<polygon fill="none" stroke="#000000" points="168.5,-122.7 168.5,-141.7 276.5,-141.7 276.5,-122.7 168.5,-122.7"/>
<text text-anchor="start" x="171.5" y="-128.8" font-family="Helvetica,sans-Serif" font-size="11.00" fill="#000000">...</text>
<polygon fill="#ffffff" stroke="transparent" points="168.5,-103.7 168.5,-122.7 192.5,-122.7 192.5,-103.7 168.5,-103.7"/>
<polygon fill="none" stroke="#000000" points="168.5,-103.7 168.5,-122.7 192.5,-122.7 192.5,-103.7 168.5,-103.7"/>
<text text-anchor="start" x="171.5" y="-109.8" font-family="Helvetica,sans-Serif" font-size="11.00" fill="#000000"> &#160;</text>
<polygon fill="#ffffff" stroke="transparent" points="192.5,-103.7 192.5,-122.7 248.5,-122.7 248.5,-103.7 192.5,-103.7"/>
<polygon fill="none" stroke="#000000" points="192.5,-103.7 192.5,-122.7 248.5,-122.7 248.5,-103.7 192.5,-103.7"/>
<text text-anchor="start" x="200.8807" y="-109.8" font-family="Helvetica,sans-Serif" font-size="11.00" fill="#000000">118 rows</text>
<polygon fill="#ffffff" stroke="transparent" points="248.5,-103.7 248.5,-122.7 276.5,-122.7 276.5,-103.7 248.5,-103.7"/>
<polygon fill="none" stroke="#000000" points="248.5,-103.7 248.5,-122.7 276.5,-122.7 276.5,-103.7 248.5,-103.7"/>
<text text-anchor="start" x="257.9053" y="-109.8" font-family="Helvetica,sans-Serif" font-size="11.00" fill="#000000">1 &gt;</text>
</a>
</g>
</g>
<!-- VERSIONS_PARTS&#45;&gt;PARTS -->
<g id="edge3" class="edge">
<title>VERSIONS_PARTS:w&#45;&gt;PARTS:e</title>
<path fill="none" stroke="#000000" d="M315.3553,-152.7C302.2969,-152.7 294.5191,-152.7 276.5,-152.7"/>
<polygon fill="#000000" stroke="#000000" points="322,-152.7001 330,-156.3 326,-152.7 330,-152.7 330,-152.7 330,-152.7 326,-152.7 330,-149.1 322,-152.7001 322,-152.7001"/>
<ellipse fill="none" stroke="#000000" cx="318.8" cy="-152.7001" rx="3.2" ry="3.2"/>
</g>
<!-- VERSIONS_PARTS_SCREENING_CONDITIONS -->
<g id="node6" class="node">
<title>VERSIONS_PARTS_SCREENING_CONDITIONS</title>
<g id="a_node6"><a xlink:href="../../tables/VERSIONS_PARTS_SCREENING_CONDITIONS.html" xlink:title="VERSIONS_PARTS_SCREENING_CONDITIONS" target="_top">
<polygon fill="#ffffff" stroke="transparent" points="691,-267.2 691,-394.2 1005,-394.2 1005,-267.2 691,-267.2"/>
<polygon fill="#f5f5f5" stroke="transparent" points="691,-370.7 691,-393.7 1005,-393.7 1005,-370.7 691,-370.7"/>
<polygon fill="none" stroke="#000000" points="691,-370.7 691,-393.7 1005,-393.7 1005,-370.7 691,-370.7"/>
<text text-anchor="start" x="696" y="-379.8" font-family="Helvetica,sans-Serif" font-weight="bold" font-size="11.00" fill="#000000">VERSIONS_PARTS_SCREENING_CONDITIONS</text>
<text text-anchor="start" x="970.0437" y="-378.8" font-family="Helvetica,sans-Serif" font-size="11.00" fill="#000000">[table]</text>
<polygon fill="none" stroke="#000000" points="691,-348.7 691,-370.7 1005,-370.7 1005,-348.7 691,-348.7"/>
<image xlink:href="../../images/primaryKeys.png" width="11px" height="12px" preserveAspectRatio="xMinYMin meet" x="696" y="-365.7"/>
<text text-anchor="start" x="711" y="-355.8" font-family="Helvetica,sans-Serif" font-size="11.00" fill="#000000">ID</text>
<polygon fill="none" stroke="#000000" points="691,-326.7 691,-348.7 1005,-348.7 1005,-326.7 691,-326.7"/>
<image xlink:href="../../images/primaryKeys.png" width="11px" height="12px" preserveAspectRatio="xMinYMin meet" x="696" y="-343.7"/>
<text text-anchor="start" x="711" y="-333.8" font-family="Helvetica,sans-Serif" font-size="11.00" fill="#000000">VERSION_PART_ID</text>
<polygon fill="none" stroke="#000000" points="691,-304.7 691,-326.7 1005,-326.7 1005,-304.7 691,-304.7"/>
<image xlink:href="../../images/primaryKeys.png" width="11px" height="12px" preserveAspectRatio="xMinYMin meet" x="696" y="-321.7"/>
<text text-anchor="start" x="711" y="-311.8" font-family="Helvetica,sans-Serif" font-size="11.00" fill="#000000">SCREENING_CONDITION_ID</text>
<polygon fill="none" stroke="#000000" points="691,-285.7 691,-304.7 1005,-304.7 1005,-285.7 691,-285.7"/>
<text text-anchor="start" x="694" y="-291.8" font-family="Helvetica,sans-Serif" font-size="11.00" fill="#000000">...</text>
<polygon fill="#ffffff" stroke="transparent" points="691,-266.7 691,-285.7 827,-285.7 827,-266.7 691,-266.7"/>
<polygon fill="none" stroke="#000000" points="691,-266.7 691,-285.7 827,-285.7 827,-266.7 691,-266.7"/>
<text text-anchor="start" x="694" y="-272.8" font-family="Helvetica,sans-Serif" font-size="11.00" fill="#000000">&lt; 2</text>
<polygon fill="#ffffff" stroke="transparent" points="827,-266.7 827,-285.7 935,-285.7 935,-266.7 827,-266.7"/>
<polygon fill="none" stroke="#000000" points="827,-266.7 827,-285.7 935,-285.7 935,-266.7 827,-266.7"/>
<text text-anchor="start" x="887.3807" y="-272.8" font-family="Helvetica,sans-Serif" font-size="11.00" fill="#000000">415 rows</text>
<polygon fill="#ffffff" stroke="transparent" points="935,-266.7 935,-285.7 1005,-285.7 1005,-266.7 935,-266.7"/>
<polygon fill="none" stroke="#000000" points="935,-266.7 935,-285.7 1005,-285.7 1005,-266.7 935,-266.7"/>
<text text-anchor="start" x="995.8862" y="-272.8" font-family="Helvetica,sans-Serif" font-size="11.00" fill="#000000"> &#160;</text>
</a>
</g>
</g>
<!-- VERSIONS_PARTS_SCREENING_CONDITIONS&#45;&gt;VERSIONS_PARTS -->
<g id="edge6" class="edge">
<title>VERSIONS_PARTS_SCREENING_CONDITIONS:w&#45;&gt;VERSIONS_PARTS:e</title>
<path fill="none" stroke="#000000" d="M676.9557,-332.8089C662.0477,-319.6883 666.5607,-284.7 640,-284.7"/>
<polygon fill="#000000" stroke="#000000" points="683.445,-335.0689 689.816,-341.0997 687.2225,-336.3844 691,-337.7 691,-337.7 691,-337.7 687.2225,-336.3844 692.184,-334.3003 683.445,-335.0689 683.445,-335.0689"/>
<ellipse fill="none" stroke="#000000" cx="680.4231" cy="-334.0164" rx="3.2" ry="3.2"/>
</g>
<!-- SCREENING_CONDITIONS -->
<g id="node7" class="node">
<title>SCREENING_CONDITIONS</title>
<g id="a_node7"><a xlink:href="../../tables/SCREENING_CONDITIONS.html" xlink:title="SCREENING_CONDITIONS" target="_top">
<polygon fill="#ffffff" stroke="transparent" points="393.5,-342.2 393.5,-403.2 576.5,-403.2 576.5,-342.2 393.5,-342.2"/>
<polygon fill="#f5f5f5" stroke="transparent" points="394,-379.7 394,-402.7 577,-402.7 577,-379.7 394,-379.7"/>
<polygon fill="none" stroke="#000000" points="394,-379.7 394,-402.7 577,-402.7 577,-379.7 394,-379.7"/>
<text text-anchor="start" x="398.7265" y="-388.8" font-family="Helvetica,sans-Serif" font-weight="bold" font-size="11.00" fill="#000000">SCREENING_CONDITIONS</text>
<text text-anchor="start" x="542.5219" y="-387.8" font-family="Helvetica,sans-Serif" font-size="11.00" fill="#000000">[table]</text>
<polygon fill="none" stroke="#000000" points="394,-360.7 394,-379.7 577,-379.7 577,-360.7 394,-360.7"/>
<text text-anchor="start" x="397" y="-366.8" font-family="Helvetica,sans-Serif" font-size="11.00" fill="#000000">...</text>
<polygon fill="#ffffff" stroke="transparent" points="394,-341.7 394,-360.7 460,-360.7 460,-341.7 394,-341.7"/>
<polygon fill="none" stroke="#000000" points="394,-341.7 394,-360.7 460,-360.7 460,-341.7 394,-341.7"/>
<text text-anchor="start" x="397" y="-347.8" font-family="Helvetica,sans-Serif" font-size="11.00" fill="#000000">&lt; 4</text>
<polygon fill="#ffffff" stroke="transparent" points="460,-341.7 460,-360.7 533,-360.7 533,-341.7 460,-341.7"/>
<polygon fill="none" stroke="#000000" points="460,-341.7 460,-360.7 533,-360.7 533,-341.7 460,-341.7"/>
<text text-anchor="start" x="485.3807" y="-347.8" font-family="Helvetica,sans-Serif" font-size="11.00" fill="#000000">128 rows</text>
<polygon fill="#ffffff" stroke="transparent" points="533,-341.7 533,-360.7 577,-360.7 577,-341.7 533,-341.7"/>
<polygon fill="none" stroke="#000000" points="533,-341.7 533,-360.7 577,-360.7 577,-341.7 533,-341.7"/>
<text text-anchor="start" x="558.4053" y="-347.8" font-family="Helvetica,sans-Serif" font-size="11.00" fill="#000000">3 &gt;</text>
</a>
</g>
</g>
<!-- VERSIONS_PARTS_SCREENING_CONDITIONS&#45;&gt;SCREENING_CONDITIONS -->
<g id="edge5" class="edge">
<title>VERSIONS_PARTS_SCREENING_CONDITIONS:w&#45;&gt;SCREENING_CONDITIONS:e</title>
<path fill="none" stroke="#000000" d="M676.736,-318.9162C646.4273,-330.5414 600.8708,-369.7 577,-369.7"/>
<polygon fill="#000000" stroke="#000000" points="683.1959,-317.4597 691.7919,-319.2118 687.098,-316.5798 691,-315.7 691,-315.7 691,-315.7 687.098,-316.5798 690.2081,-312.1882 683.1959,-317.4597 683.1959,-317.4597"/>
<ellipse fill="none" stroke="#000000" cx="680.0743" cy="-318.1636" rx="3.2" ry="3.2"/>
</g>
<!-- VERSIONS_PARTS_SCREENING_PLANS -->
<g id="node8" class="node">
<title>VERSIONS_PARTS_SCREENING_PLANS</title>
<g id="a_node8"><a xlink:href="../../tables/VERSIONS_PARTS_SCREENING_PLANS.html" xlink:title="VERSIONS_PARTS_SCREENING_PLANS" target="_top">
<polygon fill="#ffffff" stroke="transparent" points="711.5,-95.2 711.5,-222.2 984.5,-222.2 984.5,-95.2 711.5,-95.2"/>
<polygon fill="#f5f5f5" stroke="transparent" points="712,-198.7 712,-221.7 985,-221.7 985,-198.7 712,-198.7"/>
<polygon fill="none" stroke="#000000" points="712,-198.7 712,-221.7 985,-221.7 985,-198.7 712,-198.7"/>
<text text-anchor="start" x="717" y="-207.8" font-family="Helvetica,sans-Serif" font-weight="bold" font-size="11.00" fill="#000000">VERSIONS_PARTS_SCREENING_PLANS</text>
<text text-anchor="start" x="950.0437" y="-206.8" font-family="Helvetica,sans-Serif" font-size="11.00" fill="#000000">[table]</text>
<polygon fill="none" stroke="#000000" points="712,-176.7 712,-198.7 985,-198.7 985,-176.7 712,-176.7"/>
<image xlink:href="../../images/primaryKeys.png" width="11px" height="12px" preserveAspectRatio="xMinYMin meet" x="717" y="-193.7"/>
<text text-anchor="start" x="732" y="-183.8" font-family="Helvetica,sans-Serif" font-size="11.00" fill="#000000">ID</text>
<polygon fill="none" stroke="#000000" points="712,-154.7 712,-176.7 985,-176.7 985,-154.7 712,-154.7"/>
<image xlink:href="../../images/primaryKeys.png" width="11px" height="12px" preserveAspectRatio="xMinYMin meet" x="717" y="-171.7"/>
<text text-anchor="start" x="732" y="-161.8" font-family="Helvetica,sans-Serif" font-size="11.00" fill="#000000">VERSION_PART_ID</text>
<polygon fill="none" stroke="#000000" points="712,-132.7 712,-154.7 985,-154.7 985,-132.7 712,-132.7"/>
<image xlink:href="../../images/primaryKeys.png" width="11px" height="12px" preserveAspectRatio="xMinYMin meet" x="717" y="-149.7"/>
<text text-anchor="start" x="732" y="-139.8" font-family="Helvetica,sans-Serif" font-size="11.00" fill="#000000">SCREENING_PLAN_ID</text>
<polygon fill="none" stroke="#000000" points="712,-113.7 712,-132.7 985,-132.7 985,-113.7 712,-113.7"/>
<text text-anchor="start" x="715" y="-119.8" font-family="Helvetica,sans-Serif" font-size="11.00" fill="#000000">...</text>
<polygon fill="#ffffff" stroke="transparent" points="712,-94.7 712,-113.7 828,-113.7 828,-94.7 712,-94.7"/>
<polygon fill="none" stroke="#000000" points="712,-94.7 712,-113.7 828,-113.7 828,-94.7 712,-94.7"/>
<text text-anchor="start" x="715" y="-100.8" font-family="Helvetica,sans-Serif" font-size="11.00" fill="#000000">&lt; 2</text>
<polygon fill="#ffffff" stroke="transparent" points="828,-94.7 828,-113.7 925,-113.7 925,-94.7 828,-94.7"/>
<polygon fill="none" stroke="#000000" points="828,-94.7 828,-113.7 925,-113.7 925,-94.7 828,-94.7"/>
<text text-anchor="start" x="877.3807" y="-100.8" font-family="Helvetica,sans-Serif" font-size="11.00" fill="#000000">376 rows</text>
<polygon fill="#ffffff" stroke="transparent" points="925,-94.7 925,-113.7 985,-113.7 985,-94.7 925,-94.7"/>
<polygon fill="none" stroke="#000000" points="925,-94.7 925,-113.7 985,-113.7 985,-94.7 925,-94.7"/>
<text text-anchor="start" x="975.8862" y="-100.8" font-family="Helvetica,sans-Serif" font-size="11.00" fill="#000000"> &#160;</text>
</a>
</g>
</g>
<!-- VERSIONS_PARTS_SCREENING_PLANS&#45;&gt;VERSIONS_PARTS -->
<g id="edge8" class="edge">
<title>VERSIONS_PARTS_SCREENING_PLANS:w&#45;&gt;VERSIONS_PARTS:e</title>
<path fill="none" stroke="#000000" d="M697.6689,-168.5242C658.7072,-186.5449 696.1416,-284.7 640,-284.7"/>
<polygon fill="#000000" stroke="#000000" points="704.151,-167.2468 712.6961,-169.2321 708.0755,-166.4734 712,-165.7 712,-165.7 712,-165.7 708.0755,-166.4734 711.3039,-162.1679 704.151,-167.2468 704.151,-167.2468"/>
<ellipse fill="none" stroke="#000000" cx="701.0113" cy="-167.8656" rx="3.2" ry="3.2"/>
</g>
<!-- SCREENING_PLANS -->
<g id="node9" class="node">
<title>SCREENING_PLANS</title>
<g id="a_node9"><a xlink:href="../../tables/SCREENING_PLANS.html" xlink:title="SCREENING_PLANS" target="_top">
<polygon fill="#ffffff" stroke="transparent" points="410,-38.2 410,-99.2 560,-99.2 560,-38.2 410,-38.2"/>
<polygon fill="#f5f5f5" stroke="transparent" points="410,-75.7 410,-98.7 560,-98.7 560,-75.7 410,-75.7"/>
<polygon fill="none" stroke="#000000" points="410,-75.7 410,-98.7 560,-98.7 560,-75.7 410,-75.7"/>
<text text-anchor="start" x="414.7183" y="-84.8" font-family="Helvetica,sans-Serif" font-weight="bold" font-size="11.00" fill="#000000">SCREENING_PLANS</text>
<text text-anchor="start" x="525.5219" y="-83.8" font-family="Helvetica,sans-Serif" font-size="11.00" fill="#000000">[table]</text>
<polygon fill="none" stroke="#000000" points="410,-56.7 410,-75.7 560,-75.7 560,-56.7 410,-56.7"/>
<text text-anchor="start" x="413" y="-62.8" font-family="Helvetica,sans-Serif" font-size="11.00" fill="#000000">...</text>
<polygon fill="#ffffff" stroke="transparent" points="410,-37.7 410,-56.7 460,-56.7 460,-37.7 410,-37.7"/>
<polygon fill="none" stroke="#000000" points="410,-37.7 410,-56.7 460,-56.7 460,-37.7 410,-37.7"/>
<text text-anchor="start" x="413" y="-43.8" font-family="Helvetica,sans-Serif" font-size="11.00" fill="#000000">&lt; 3</text>
<polygon fill="#ffffff" stroke="transparent" points="460,-37.7 460,-56.7 524,-56.7 524,-37.7 460,-37.7"/>
<polygon fill="none" stroke="#000000" points="460,-37.7 460,-56.7 524,-56.7 524,-37.7 460,-37.7"/>
<text text-anchor="start" x="476.3807" y="-43.8" font-family="Helvetica,sans-Serif" font-size="11.00" fill="#000000">137 rows</text>
<polygon fill="#ffffff" stroke="transparent" points="524,-37.7 524,-56.7 560,-56.7 560,-37.7 524,-37.7"/>
<polygon fill="none" stroke="#000000" points="524,-37.7 524,-56.7 560,-56.7 560,-37.7 524,-37.7"/>
<text text-anchor="start" x="541.4053" y="-43.8" font-family="Helvetica,sans-Serif" font-size="11.00" fill="#000000">1 &gt;</text>
</a>
</g>
</g>
<!-- VERSIONS_PARTS_SCREENING_PLANS&#45;&gt;SCREENING_PLANS -->
<g id="edge7" class="edge">
<title>VERSIONS_PARTS_SCREENING_PLANS:w&#45;&gt;SCREENING_PLANS:e</title>
<path fill="none" stroke="#000000" d="M697.5311,-141.9502C678.7985,-136.8421 672.8885,-121.5626 650,-109.7 610.4694,-89.2122 604.5244,-65.7 560,-65.7"/>
<polygon fill="#000000" stroke="#000000" points="704.0579,-142.7395 711.5678,-147.274 708.0289,-143.2197 712,-143.7 712,-143.7 712,-143.7 708.0289,-143.2197 712.4322,-140.126 704.0579,-142.7395 704.0579,-142.7395"/>
<ellipse fill="none" stroke="#000000" cx="700.881" cy="-142.3553" rx="3.2" ry="3.2"/>
</g>
<!-- VERSIONS_SUPPLEMENTS -->
<g id="node10" class="node">
<title>VERSIONS_SUPPLEMENTS</title>
<g id="a_node10"><a xlink:href="../../tables/VERSIONS_SUPPLEMENTS.html" xlink:title="VERSIONS_SUPPLEMENTS" target="_top">
<polygon fill="#ffffff" stroke="transparent" points="391.5,-506.2 391.5,-567.2 578.5,-567.2 578.5,-506.2 391.5,-506.2"/>
<polygon fill="#f5f5f5" stroke="transparent" points="392,-543.7 392,-566.7 579,-566.7 579,-543.7 392,-543.7"/>
<polygon fill="none" stroke="#000000" points="392,-543.7 392,-566.7 579,-566.7 579,-543.7 392,-543.7"/>
<text text-anchor="start" x="396.576" y="-552.8" font-family="Helvetica,sans-Serif" font-weight="bold" font-size="11.00" fill="#000000">VERSIONS_SUPPLEMENTS</text>
<text text-anchor="start" x="544.5219" y="-551.8" font-family="Helvetica,sans-Serif" font-size="11.00" fill="#000000">[table]</text>
<polygon fill="none" stroke="#000000" points="392,-524.7 392,-543.7 579,-543.7 579,-524.7 392,-524.7"/>
<text text-anchor="start" x="395" y="-530.8" font-family="Helvetica,sans-Serif" font-size="11.00" fill="#000000">...</text>
<polygon fill="#ffffff" stroke="transparent" points="392,-505.7 392,-524.7 465,-524.7 465,-505.7 392,-505.7"/>
<polygon fill="none" stroke="#000000" points="392,-505.7 392,-524.7 465,-524.7 465,-505.7 392,-505.7"/>
<text text-anchor="start" x="395" y="-511.8" font-family="Helvetica,sans-Serif" font-size="11.00" fill="#000000">&lt; 2</text>
<polygon fill="#ffffff" stroke="transparent" points="465,-505.7 465,-524.7 541,-524.7 541,-505.7 465,-505.7"/>
<polygon fill="none" stroke="#000000" points="465,-505.7 465,-524.7 541,-524.7 541,-505.7 465,-505.7"/>
<text text-anchor="start" x="493.3807" y="-511.8" font-family="Helvetica,sans-Serif" font-size="11.00" fill="#000000">190 rows</text>
<polygon fill="#ffffff" stroke="transparent" points="541,-505.7 541,-524.7 579,-524.7 579,-505.7 541,-505.7"/>
<polygon fill="none" stroke="#000000" points="541,-505.7 541,-524.7 579,-524.7 579,-505.7 541,-505.7"/>
<text text-anchor="start" x="569.8862" y="-511.8" font-family="Helvetica,sans-Serif" font-size="11.00" fill="#000000"> &#160;</text>
</a>
</g>
</g>
<!-- VERSIONS_SUPPLEMENTS&#45;&gt;VERSIONS -->
<g id="edge9" class="edge">
<title>VERSIONS_SUPPLEMENTS:w&#45;&gt;VERSIONS:e</title>
<path fill="none" stroke="#000000" d="M377.4076,-532.5606C337.1067,-525.9388 327.4161,-492.7 279.5,-492.7"/>
<polygon fill="#000000" stroke="#000000" points="384.0243,-533.0772 391.7197,-537.2891 388.0121,-533.3886 392,-533.7 392,-533.7 392,-533.7 388.0121,-533.3886 392.2803,-530.1109 384.0243,-533.0772 384.0243,-533.0772"/>
<ellipse fill="none" stroke="#000000" cx="380.834" cy="-532.8281" rx="3.2" ry="3.2"/>
</g>
<!-- VERSIONS_TRACERS -->
<g id="node11" class="node">
<title>VERSIONS_TRACERS</title>
<g id="a_node11"><a xlink:href="../../tables/VERSIONS_TRACERS.html" xlink:title="VERSIONS_TRACERS" target="_top">
<polygon fill="#ffffff" stroke="transparent" points="406,-424.2 406,-485.2 564,-485.2 564,-424.2 406,-424.2"/>
<polygon fill="#f5f5f5" stroke="transparent" points="406,-461.7 406,-484.7 564,-484.7 564,-461.7 406,-461.7"/>
<polygon fill="none" stroke="#000000" points="406,-461.7 406,-484.7 564,-484.7 564,-461.7 406,-461.7"/>
<text text-anchor="start" x="410.7478" y="-470.8" font-family="Helvetica,sans-Serif" font-weight="bold" font-size="11.00" fill="#000000">VERSIONS_TRACERS</text>
<text text-anchor="start" x="529.5219" y="-469.8" font-family="Helvetica,sans-Serif" font-size="11.00" fill="#000000">[table]</text>
<polygon fill="none" stroke="#000000" points="406,-442.7 406,-461.7 564,-461.7 564,-442.7 406,-442.7"/>
<text text-anchor="start" x="409" y="-448.8" font-family="Helvetica,sans-Serif" font-size="11.00" fill="#000000">...</text>
<polygon fill="#ffffff" stroke="transparent" points="406,-423.7 406,-442.7 455,-442.7 455,-423.7 406,-423.7"/>
<polygon fill="none" stroke="#000000" points="406,-423.7 406,-442.7 455,-442.7 455,-423.7 406,-423.7"/>
<text text-anchor="start" x="409" y="-429.8" font-family="Helvetica,sans-Serif" font-size="11.00" fill="#000000">&lt; 2</text>
<polygon fill="#ffffff" stroke="transparent" points="455,-423.7 455,-442.7 528,-442.7 528,-423.7 455,-423.7"/>
<polygon fill="none" stroke="#000000" points="455,-423.7 455,-442.7 528,-442.7 528,-423.7 455,-423.7"/>
<text text-anchor="start" x="471.2089" y="-429.8" font-family="Helvetica,sans-Serif" font-size="11.00" fill="#000000">1,279 rows</text>
<polygon fill="#ffffff" stroke="transparent" points="528,-423.7 528,-442.7 564,-442.7 564,-423.7 528,-423.7"/>
<polygon fill="none" stroke="#000000" points="528,-423.7 528,-442.7 564,-442.7 564,-423.7 528,-423.7"/>
<text text-anchor="start" x="545.4053" y="-429.8" font-family="Helvetica,sans-Serif" font-size="11.00" fill="#000000">2 &gt;</text>
</a>
</g>
</g>
<!-- VERSIONS_TRACERS&#45;&gt;VERSIONS -->
<g id="edge10" class="edge">
<title>VERSIONS_TRACERS:w&#45;&gt;VERSIONS:e</title>
<path fill="none" stroke="#000000" d="M391.525,-452.5945C345.0476,-458.5903 333.407,-492.7 279.5,-492.7"/>
<polygon fill="#000000" stroke="#000000" points="398.0152,-452.1935 406.2221,-455.2931 402.0076,-451.9467 406,-451.7 406,-451.7 406,-451.7 402.0076,-451.9467 405.7779,-448.1069 398.0152,-452.1935 398.0152,-452.1935"/>
<ellipse fill="none" stroke="#000000" cx="394.8213" cy="-452.3908" rx="3.2" ry="3.2"/>
</g>
</g>
</svg>
