<?xml version="1.0" encoding="UTF-8" standalone="no"?>
<!DOCTYPE svg PUBLIC "-//W3C//DTD SVG 1.1//EN"
 "http://www.w3.org/Graphics/SVG/1.1/DTD/svg11.dtd">
<!-- Generated by graphviz version 2.40.1 (20161225.0304)
 -->
<!-- Title: oneDegreeRelationshipsDiagram Pages: 1 -->
<svg width="687pt" height="347pt"
 viewBox="0.00 0.00 687.00 347.20" xmlns="http://www.w3.org/2000/svg" xmlns:xlink="http://www.w3.org/1999/xlink">
<g id="graph0" class="graph" transform="scale(1 1) rotate(0) translate(4 343.2)">
<title>oneDegreeRelationshipsDiagram</title>
<polygon fill="#ffffff" stroke="transparent" points="-4,4 -4,-343.2 683,-343.2 683,4 -4,4"/>
<text text-anchor="middle" x="72.4936" y="-7.3" font-family="Helvetica,sans-Serif" font-size="11.00" fill="#000000">Generated by SchemaSpy</text>
<!-- VERSIONS_PARTS_SCREENING_PLANS -->
<g id="node1" class="node">
<title>VERSIONS_PARTS_SCREENING_PLANS</title>
<g id="a_node1"><a xlink:href="../../tables/VERSIONS_PARTS_SCREENING_PLANS.html" xlink:title="VERSIONS_PARTS_SCREENING_PLANS" target="_top">
<polygon fill="#ffffff" stroke="transparent" points="223,-95.7 223,-295.7 671,-295.7 671,-95.7 223,-95.7"/>
<polygon fill="#f5f5f5" stroke="transparent" points="225,-270.7 225,-293.7 669,-293.7 669,-270.7 225,-270.7"/>
<polygon fill="none" stroke="#000000" points="225,-270.7 225,-293.7 669,-293.7 669,-270.7 225,-270.7"/>
<text text-anchor="start" x="230" y="-279.8" font-family="Helvetica,sans-Serif" font-weight="bold" font-size="11.00" fill="#000000">VERSIONS_PARTS_SCREENING_PLANS</text>
<text text-anchor="start" x="634.0437" y="-278.8" font-family="Helvetica,sans-Serif" font-size="11.00" fill="#000000">[table]</text>
<polygon fill="none" stroke="#000000" points="225,-248.7 225,-270.7 498,-270.7 498,-248.7 225,-248.7"/>
<image xlink:href="../../images/primaryKeys.png" width="11px" height="12px" preserveAspectRatio="xMinYMin meet" x="230" y="-265.7"/>
<text text-anchor="start" x="245" y="-255.8" font-family="Helvetica,sans-Serif" font-size="11.00" fill="#000000">ID</text>
<polygon fill="none" stroke="#000000" points="498,-248.7 498,-270.7 669,-270.7 669,-248.7 498,-248.7"/>
<text text-anchor="start" x="501" y="-256.4" font-family="Helvetica,sans-Serif" font-size="11.00" fill="#000000">number[19]</text>
<polygon fill="none" stroke="#000000" points="225,-226.7 225,-248.7 498,-248.7 498,-226.7 225,-226.7"/>
<image xlink:href="../../images/primaryKeys.png" width="11px" height="12px" preserveAspectRatio="xMinYMin meet" x="230" y="-243.7"/>
<text text-anchor="start" x="245" y="-233.8" font-family="Helvetica,sans-Serif" font-size="11.00" fill="#000000">VERSION_PART_ID</text>
<polygon fill="none" stroke="#000000" points="498,-226.7 498,-248.7 669,-248.7 669,-226.7 498,-226.7"/>
<text text-anchor="start" x="501" y="-234.4" font-family="Helvetica,sans-Serif" font-size="11.00" fill="#000000">number[19]</text>
<polygon fill="none" stroke="#000000" points="225,-204.7 225,-226.7 498,-226.7 498,-204.7 225,-204.7"/>
<image xlink:href="../../images/primaryKeys.png" width="11px" height="12px" preserveAspectRatio="xMinYMin meet" x="230" y="-221.7"/>
<text text-anchor="start" x="245" y="-211.8" font-family="Helvetica,sans-Serif" font-size="11.00" fill="#000000">SCREENING_PLAN_ID</text>
<polygon fill="none" stroke="#000000" points="498,-204.7 498,-226.7 669,-226.7 669,-204.7 498,-204.7"/>
<text text-anchor="start" x="501" y="-212.4" font-family="Helvetica,sans-Serif" font-size="11.00" fill="#000000">number[19]</text>
<polygon fill="none" stroke="#000000" points="225,-182.7 225,-204.7 498,-204.7 498,-182.7 225,-182.7"/>
<text text-anchor="start" x="245" y="-189.8" font-family="Helvetica,sans-Serif" font-size="11.00" fill="#000000">CREATED_AT</text>
<polygon fill="none" stroke="#000000" points="498,-182.7 498,-204.7 669,-204.7 669,-182.7 498,-182.7"/>
<text text-anchor="start" x="500.9896" y="-190.4" font-family="Helvetica,sans-Serif" font-size="11.00" fill="#000000">timestamp(6) with time zone[13,6]</text>
<polygon fill="none" stroke="#000000" points="225,-160.7 225,-182.7 498,-182.7 498,-160.7 225,-160.7"/>
<text text-anchor="start" x="245" y="-167.8" font-family="Helvetica,sans-Serif" font-size="11.00" fill="#000000">CREATED_BY</text>
<polygon fill="none" stroke="#000000" points="498,-160.7 498,-182.7 669,-182.7 669,-160.7 498,-160.7"/>
<text text-anchor="start" x="501" y="-168.4" font-family="Helvetica,sans-Serif" font-size="11.00" fill="#000000">number[19]</text>
<polygon fill="none" stroke="#000000" points="225,-138.7 225,-160.7 498,-160.7 498,-138.7 225,-138.7"/>
<text text-anchor="start" x="245" y="-145.8" font-family="Helvetica,sans-Serif" font-size="11.00" fill="#000000">UPDATED_AT</text>
<polygon fill="none" stroke="#000000" points="498,-138.7 498,-160.7 669,-160.7 669,-138.7 498,-138.7"/>
<text text-anchor="start" x="500.9896" y="-146.4" font-family="Helvetica,sans-Serif" font-size="11.00" fill="#000000">timestamp(6) with time zone[13,6]</text>
<polygon fill="none" stroke="#000000" points="225,-116.7 225,-138.7 498,-138.7 498,-116.7 225,-116.7"/>
<text text-anchor="start" x="245" y="-123.8" font-family="Helvetica,sans-Serif" font-size="11.00" fill="#000000">UPDATED_BY</text>
<polygon fill="none" stroke="#000000" points="498,-116.7 498,-138.7 669,-138.7 669,-116.7 498,-116.7"/>
<text text-anchor="start" x="501" y="-124.4" font-family="Helvetica,sans-Serif" font-size="11.00" fill="#000000">number[19]</text>
<polygon fill="#ffffff" stroke="transparent" points="225,-97.7 225,-116.7 347,-116.7 347,-97.7 225,-97.7"/>
<polygon fill="none" stroke="#000000" points="225,-97.7 225,-116.7 347,-116.7 347,-97.7 225,-97.7"/>
<text text-anchor="start" x="228" y="-103.8" font-family="Helvetica,sans-Serif" font-size="11.00" fill="#000000">&lt; 2</text>
<polygon fill="#ffffff" stroke="transparent" points="347,-97.7 347,-116.7 498,-116.7 498,-97.7 347,-97.7"/>
<polygon fill="none" stroke="#000000" points="347,-97.7 347,-116.7 498,-116.7 498,-97.7 347,-97.7"/>
<text text-anchor="start" x="450.3807" y="-103.8" font-family="Helvetica,sans-Serif" font-size="11.00" fill="#000000">376 rows</text>
<polygon fill="#ffffff" stroke="transparent" points="498,-97.7 498,-116.7 669,-116.7 669,-97.7 498,-97.7"/>
<polygon fill="none" stroke="#000000" points="498,-97.7 498,-116.7 669,-116.7 669,-97.7 498,-97.7"/>
<text text-anchor="start" x="650.4053" y="-103.8" font-family="Helvetica,sans-Serif" font-size="11.00" fill="#000000">0 &gt;</text>
<polygon fill="none" stroke="#000000" stroke-width="2" points="224,-96.7 224,-294.7 670,-294.7 670,-96.7 224,-96.7"/>
</a>
</g>
</g>
<!-- SCREENING_PLANS -->
<g id="node2" class="node">
<title>SCREENING_PLANS</title>
<g id="a_node2"><a xlink:href="../../tables/SCREENING_PLANS.html" xlink:title="SCREENING_PLANS" target="_top">
<polygon fill="#ffffff" stroke="transparent" points="8,-38.2 8,-187.2 174,-187.2 174,-38.2 8,-38.2"/>
<polygon fill="#f5f5f5" stroke="transparent" points="8,-163.7 8,-186.7 174,-186.7 174,-163.7 8,-163.7"/>
<polygon fill="none" stroke="#000000" points="8,-163.7 8,-186.7 174,-186.7 174,-163.7 8,-163.7"/>
<text text-anchor="start" x="13" y="-172.8" font-family="Helvetica,sans-Serif" font-weight="bold" font-size="11.00" fill="#000000">SCREENING_PLANS</text>
<text text-anchor="start" x="139.0437" y="-171.8" font-family="Helvetica,sans-Serif" font-size="11.00" fill="#000000">[table]</text>
<polygon fill="none" stroke="#000000" points="8,-141.7 8,-163.7 174,-163.7 174,-141.7 8,-141.7"/>
<image xlink:href="../../images/primaryKeys.png" width="11px" height="12px" preserveAspectRatio="xMinYMin meet" x="13" y="-158.7"/>
<text text-anchor="start" x="28" y="-148.8" font-family="Helvetica,sans-Serif" font-size="11.00" fill="#000000">ID</text>
<polygon fill="none" stroke="#000000" points="8,-119.7 8,-141.7 174,-141.7 174,-119.7 8,-119.7"/>
<image xlink:href="../../images/foreignKeys.png" width="11px" height="12px" preserveAspectRatio="xMinYMin meet" x="13" y="-136.7"/>
<text text-anchor="start" x="28" y="-126.8" font-family="Helvetica,sans-Serif" font-size="11.00" fill="#000000">TARGET_ID</text>
<polygon fill="none" stroke="#000000" points="8,-97.7 8,-119.7 174,-119.7 174,-97.7 8,-97.7"/>
<image xlink:href="../../images/foreignKeys.png" width="11px" height="12px" preserveAspectRatio="xMinYMin meet" x="13" y="-114.7"/>
<text text-anchor="start" x="28" y="-104.8" font-family="Helvetica,sans-Serif" font-size="11.00" fill="#000000">TARGET_FORM_ID</text>
<polygon fill="none" stroke="#000000" points="8,-75.7 8,-97.7 174,-97.7 174,-75.7 8,-75.7"/>
<image xlink:href="../../images/foreignKeys.png" width="11px" height="12px" preserveAspectRatio="xMinYMin meet" x="13" y="-92.7"/>
<text text-anchor="start" x="28" y="-82.8" font-family="Helvetica,sans-Serif" font-size="11.00" fill="#000000">SUPPLEMENT_ID</text>
<polygon fill="none" stroke="#000000" points="8,-56.7 8,-75.7 174,-75.7 174,-56.7 8,-56.7"/>
<text text-anchor="start" x="11" y="-62.8" font-family="Helvetica,sans-Serif" font-size="11.00" fill="#000000">...</text>
<polygon fill="#ffffff" stroke="transparent" points="8,-37.7 8,-56.7 66,-56.7 66,-37.7 8,-37.7"/>
<polygon fill="none" stroke="#000000" points="8,-37.7 8,-56.7 66,-56.7 66,-37.7 8,-37.7"/>
<text text-anchor="start" x="11" y="-43.8" font-family="Helvetica,sans-Serif" font-size="11.00" fill="#000000">&lt; 3</text>
<polygon fill="#ffffff" stroke="transparent" points="66,-37.7 66,-56.7 134,-56.7 134,-37.7 66,-37.7"/>
<polygon fill="none" stroke="#000000" points="66,-37.7 66,-56.7 134,-56.7 134,-37.7 66,-37.7"/>
<text text-anchor="start" x="86.3807" y="-43.8" font-family="Helvetica,sans-Serif" font-size="11.00" fill="#000000">137 rows</text>
<polygon fill="#ffffff" stroke="transparent" points="134,-37.7 134,-56.7 174,-56.7 174,-37.7 134,-37.7"/>
<polygon fill="none" stroke="#000000" points="134,-37.7 134,-56.7 174,-56.7 174,-37.7 134,-37.7"/>
<text text-anchor="start" x="155.4053" y="-43.8" font-family="Helvetica,sans-Serif" font-size="11.00" fill="#000000">1 &gt;</text>
</a>
</g>
</g>
<!-- VERSIONS_PARTS_SCREENING_PLANS&#45;&gt;SCREENING_PLANS -->
<g id="edge1" class="edge">
<title>VERSIONS_PARTS_SCREENING_PLANS:w&#45;&gt;SCREENING_PLANS:e</title>
<path fill="none" stroke="#000000" d="M210.9033,-210.7565C194.525,-195.9048 203.8329,-152.7 174,-152.7"/>
<polygon fill="#000000" stroke="#000000" points="217.4507,-213.0526 223.8087,-219.0972 221.2254,-214.3763 225,-215.7 225,-215.7 225,-215.7 221.2254,-214.3763 226.1913,-212.3028 217.4507,-213.0526 217.4507,-213.0526"/>
<ellipse fill="none" stroke="#000000" cx="214.431" cy="-211.9936" rx="3.2" ry="3.2"/>
</g>
<!-- VERSIONS_PARTS -->
<g id="node3" class="node">
<title>VERSIONS_PARTS</title>
<g id="a_node3"><a xlink:href="../../tables/VERSIONS_PARTS.html" xlink:title="VERSIONS_PARTS" target="_top">
<polygon fill="#ffffff" stroke="transparent" points="20,-208.2 20,-335.2 162,-335.2 162,-208.2 20,-208.2"/>
<polygon fill="#f5f5f5" stroke="transparent" points="20,-311.7 20,-334.7 162,-334.7 162,-311.7 20,-311.7"/>
<polygon fill="none" stroke="#000000" points="20,-311.7 20,-334.7 162,-334.7 162,-311.7 20,-311.7"/>
<text text-anchor="start" x="24.6887" y="-320.8" font-family="Helvetica,sans-Serif" font-weight="bold" font-size="11.00" fill="#000000">VERSIONS_PARTS</text>
<text text-anchor="start" x="127.5219" y="-319.8" font-family="Helvetica,sans-Serif" font-size="11.00" fill="#000000">[table]</text>
<polygon fill="none" stroke="#000000" points="20,-289.7 20,-311.7 162,-311.7 162,-289.7 20,-289.7"/>
<image xlink:href="../../images/primaryKeys.png" width="11px" height="12px" preserveAspectRatio="xMinYMin meet" x="25" y="-306.7"/>
<text text-anchor="start" x="42" y="-296.8" font-family="Helvetica,sans-Serif" font-size="11.00" fill="#000000">ID</text>
<polygon fill="none" stroke="#000000" points="20,-267.7 20,-289.7 162,-289.7 162,-267.7 20,-267.7"/>
<image xlink:href="../../images/primaryKeys.png" width="11px" height="12px" preserveAspectRatio="xMinYMin meet" x="25" y="-284.7"/>
<text text-anchor="start" x="42" y="-274.8" font-family="Helvetica,sans-Serif" font-size="11.00" fill="#000000">VERSION_ID</text>
<polygon fill="none" stroke="#000000" points="20,-245.7 20,-267.7 162,-267.7 162,-245.7 20,-245.7"/>
<image xlink:href="../../images/primaryKeys.png" width="11px" height="12px" preserveAspectRatio="xMinYMin meet" x="25" y="-262.7"/>
<text text-anchor="start" x="42" y="-252.8" font-family="Helvetica,sans-Serif" font-size="11.00" fill="#000000">PART_ID</text>
<polygon fill="none" stroke="#000000" points="20,-226.7 20,-245.7 162,-245.7 162,-226.7 20,-226.7"/>
<text text-anchor="start" x="23" y="-232.8" font-family="Helvetica,sans-Serif" font-size="11.00" fill="#000000">...</text>
<polygon fill="#ffffff" stroke="transparent" points="20,-207.7 20,-226.7 66,-226.7 66,-207.7 20,-207.7"/>
<polygon fill="none" stroke="#000000" points="20,-207.7 20,-226.7 66,-226.7 66,-207.7 20,-207.7"/>
<text text-anchor="start" x="23" y="-213.8" font-family="Helvetica,sans-Serif" font-size="11.00" fill="#000000">&lt; 2</text>
<polygon fill="#ffffff" stroke="transparent" points="66,-207.7 66,-226.7 128,-226.7 128,-207.7 66,-207.7"/>
<polygon fill="none" stroke="#000000" points="66,-207.7 66,-226.7 128,-226.7 128,-207.7 66,-207.7"/>
<text text-anchor="start" x="80.3807" y="-213.8" font-family="Helvetica,sans-Serif" font-size="11.00" fill="#000000">449 rows</text>
<polygon fill="#ffffff" stroke="transparent" points="128,-207.7 128,-226.7 162,-226.7 162,-207.7 128,-207.7"/>
<polygon fill="none" stroke="#000000" points="128,-207.7 128,-226.7 162,-226.7 162,-207.7 128,-207.7"/>
<text text-anchor="start" x="143.4053" y="-213.8" font-family="Helvetica,sans-Serif" font-size="11.00" fill="#000000">2 &gt;</text>
</a>
</g>
</g>
<!-- VERSIONS_PARTS_SCREENING_PLANS&#45;&gt;VERSIONS_PARTS -->
<g id="edge2" class="edge">
<title>VERSIONS_PARTS_SCREENING_PLANS:w&#45;&gt;VERSIONS_PARTS:e</title>
<path fill="none" stroke="#000000" d="M210.9901,-241.2677C188.9182,-254.5949 195.8748,-300.7 162,-300.7"/>
<polygon fill="#000000" stroke="#000000" points="217.2474,-239.6743 225.8884,-241.1887 221.1237,-238.6871 225,-237.7 225,-237.7 225,-237.7 221.1237,-238.6871 224.1116,-234.2113 217.2474,-239.6743 217.2474,-239.6743"/>
<ellipse fill="none" stroke="#000000" cx="214.1464" cy="-240.464" rx="3.2" ry="3.2"/>
</g>
</g>
</svg>
