<?xml version="1.0" encoding="UTF-8" standalone="no"?>
<!DOCTYPE svg PUBLIC "-//W3C//DTD SVG 1.1//EN"
 "http://www.w3.org/Graphics/SVG/1.1/DTD/svg11.dtd">
<!-- Generated by graphviz version 2.40.1 (20161225.0304)
 -->
<!-- Title: oneDegreeRelationshipsDiagram Pages: 1 -->
<svg width="781pt" height="347pt"
 viewBox="0.00 0.00 781.00 347.20" xmlns="http://www.w3.org/2000/svg" xmlns:xlink="http://www.w3.org/1999/xlink">
<g id="graph0" class="graph" transform="scale(1 1) rotate(0) translate(4 343.2)">
<title>oneDegreeRelationshipsDiagram</title>
<polygon fill="#ffffff" stroke="transparent" points="-4,4 -4,-343.2 777,-343.2 777,4 -4,4"/>
<text text-anchor="middle" x="72.4936" y="-7.3" font-family="Helvetica,sans-Serif" font-size="11.00" fill="#000000">Generated by SchemaSpy</text>
<!-- VERSIONS_TRACERS_TRACER_LIGANDS -->
<g id="node1" class="node">
<title>VERSIONS_TRACERS_TRACER_LIGANDS</title>
<g id="a_node1"><a xlink:href="../../tables/VERSIONS_TRACERS_TRACER_LIGANDS.html" xlink:title="VERSIONS_TRACERS_TRACER_LIGANDS" target="_top">
<polygon fill="#ffffff" stroke="transparent" points="308,-95.7 308,-295.7 765,-295.7 765,-95.7 308,-95.7"/>
<polygon fill="#f5f5f5" stroke="transparent" points="310.5,-270.7 310.5,-293.7 763.5,-293.7 763.5,-270.7 310.5,-270.7"/>
<polygon fill="none" stroke="#000000" points="310.5,-270.7 310.5,-293.7 763.5,-293.7 763.5,-270.7 310.5,-270.7"/>
<text text-anchor="start" x="315.5" y="-279.8" font-family="Helvetica,sans-Serif" font-weight="bold" font-size="11.00" fill="#000000">VERSIONS_TRACERS_TRACER_LIGANDS</text>
<text text-anchor="start" x="728.5437" y="-278.8" font-family="Helvetica,sans-Serif" font-size="11.00" fill="#000000">[table]</text>
<polygon fill="none" stroke="#000000" points="310.5,-248.7 310.5,-270.7 592.5,-270.7 592.5,-248.7 310.5,-248.7"/>
<image xlink:href="../../images/primaryKeys.png" width="11px" height="12px" preserveAspectRatio="xMinYMin meet" x="315.5" y="-265.7"/>
<text text-anchor="start" x="330.5" y="-255.8" font-family="Helvetica,sans-Serif" font-size="11.00" fill="#000000">ID</text>
<polygon fill="none" stroke="#000000" points="592.5,-248.7 592.5,-270.7 763.5,-270.7 763.5,-248.7 592.5,-248.7"/>
<text text-anchor="start" x="595.5" y="-256.4" font-family="Helvetica,sans-Serif" font-size="11.00" fill="#000000">number[19]</text>
<polygon fill="none" stroke="#000000" points="310.5,-226.7 310.5,-248.7 592.5,-248.7 592.5,-226.7 310.5,-226.7"/>
<image xlink:href="../../images/primaryKeys.png" width="11px" height="12px" preserveAspectRatio="xMinYMin meet" x="315.5" y="-243.7"/>
<text text-anchor="start" x="330.5" y="-233.8" font-family="Helvetica,sans-Serif" font-size="11.00" fill="#000000">VERSION_TRACER_ID</text>
<polygon fill="none" stroke="#000000" points="592.5,-226.7 592.5,-248.7 763.5,-248.7 763.5,-226.7 592.5,-226.7"/>
<text text-anchor="start" x="595.5" y="-234.4" font-family="Helvetica,sans-Serif" font-size="11.00" fill="#000000">number[19]</text>
<polygon fill="none" stroke="#000000" points="310.5,-204.7 310.5,-226.7 592.5,-226.7 592.5,-204.7 310.5,-204.7"/>
<image xlink:href="../../images/primaryKeys.png" width="11px" height="12px" preserveAspectRatio="xMinYMin meet" x="315.5" y="-221.7"/>
<text text-anchor="start" x="330.5" y="-211.8" font-family="Helvetica,sans-Serif" font-size="11.00" fill="#000000">TRACER_LIGAND_ID</text>
<polygon fill="none" stroke="#000000" points="592.5,-204.7 592.5,-226.7 763.5,-226.7 763.5,-204.7 592.5,-204.7"/>
<text text-anchor="start" x="595.5" y="-212.4" font-family="Helvetica,sans-Serif" font-size="11.00" fill="#000000">number[19]</text>
<polygon fill="none" stroke="#000000" points="310.5,-182.7 310.5,-204.7 592.5,-204.7 592.5,-182.7 310.5,-182.7"/>
<text text-anchor="start" x="330.5" y="-189.8" font-family="Helvetica,sans-Serif" font-size="11.00" fill="#000000">CREATED_AT</text>
<polygon fill="none" stroke="#000000" points="592.5,-182.7 592.5,-204.7 763.5,-204.7 763.5,-182.7 592.5,-182.7"/>
<text text-anchor="start" x="595.4896" y="-190.4" font-family="Helvetica,sans-Serif" font-size="11.00" fill="#000000">timestamp(6) with time zone[13,6]</text>
<polygon fill="none" stroke="#000000" points="310.5,-160.7 310.5,-182.7 592.5,-182.7 592.5,-160.7 310.5,-160.7"/>
<text text-anchor="start" x="330.5" y="-167.8" font-family="Helvetica,sans-Serif" font-size="11.00" fill="#000000">CREATED_BY</text>
<polygon fill="none" stroke="#000000" points="592.5,-160.7 592.5,-182.7 763.5,-182.7 763.5,-160.7 592.5,-160.7"/>
<text text-anchor="start" x="595.5" y="-168.4" font-family="Helvetica,sans-Serif" font-size="11.00" fill="#000000">number[19]</text>
<polygon fill="none" stroke="#000000" points="310.5,-138.7 310.5,-160.7 592.5,-160.7 592.5,-138.7 310.5,-138.7"/>
<text text-anchor="start" x="330.5" y="-145.8" font-family="Helvetica,sans-Serif" font-size="11.00" fill="#000000">UPDATED_AT</text>
<polygon fill="none" stroke="#000000" points="592.5,-138.7 592.5,-160.7 763.5,-160.7 763.5,-138.7 592.5,-138.7"/>
<text text-anchor="start" x="595.4896" y="-146.4" font-family="Helvetica,sans-Serif" font-size="11.00" fill="#000000">timestamp(6) with time zone[13,6]</text>
<polygon fill="none" stroke="#000000" points="310.5,-116.7 310.5,-138.7 592.5,-138.7 592.5,-116.7 310.5,-116.7"/>
<text text-anchor="start" x="330.5" y="-123.8" font-family="Helvetica,sans-Serif" font-size="11.00" fill="#000000">UPDATED_BY</text>
<polygon fill="none" stroke="#000000" points="592.5,-116.7 592.5,-138.7 763.5,-138.7 763.5,-116.7 592.5,-116.7"/>
<text text-anchor="start" x="595.5" y="-124.4" font-family="Helvetica,sans-Serif" font-size="11.00" fill="#000000">number[19]</text>
<polygon fill="#ffffff" stroke="transparent" points="310.5,-97.7 310.5,-116.7 432.5,-116.7 432.5,-97.7 310.5,-97.7"/>
<polygon fill="none" stroke="#000000" points="310.5,-97.7 310.5,-116.7 432.5,-116.7 432.5,-97.7 310.5,-97.7"/>
<text text-anchor="start" x="313.5" y="-103.8" font-family="Helvetica,sans-Serif" font-size="11.00" fill="#000000">&lt; 2</text>
<polygon fill="#ffffff" stroke="transparent" points="432.5,-97.7 432.5,-116.7 592.5,-116.7 592.5,-97.7 432.5,-97.7"/>
<polygon fill="none" stroke="#000000" points="432.5,-97.7 432.5,-116.7 592.5,-116.7 592.5,-97.7 432.5,-97.7"/>
<text text-anchor="start" x="535.7089" y="-103.8" font-family="Helvetica,sans-Serif" font-size="11.00" fill="#000000">2,328 rows</text>
<polygon fill="#ffffff" stroke="transparent" points="592.5,-97.7 592.5,-116.7 763.5,-116.7 763.5,-97.7 592.5,-97.7"/>
<polygon fill="none" stroke="#000000" points="592.5,-97.7 592.5,-116.7 763.5,-116.7 763.5,-97.7 592.5,-97.7"/>
<text text-anchor="start" x="744.9053" y="-103.8" font-family="Helvetica,sans-Serif" font-size="11.00" fill="#000000">0 &gt;</text>
<polygon fill="none" stroke="#000000" stroke-width="2" points="309,-96.7 309,-294.7 764,-294.7 764,-96.7 309,-96.7"/>
</a>
</g>
</g>
<!-- TRACER_LIGANDS -->
<g id="node2" class="node">
<title>TRACER_LIGANDS</title>
<g id="a_node2"><a xlink:href="../../tables/TRACER_LIGANDS.html" xlink:title="TRACER_LIGANDS" target="_top">
<polygon fill="#ffffff" stroke="transparent" points="8,-38.2 8,-187.2 259,-187.2 259,-38.2 8,-38.2"/>
<polygon fill="#f5f5f5" stroke="transparent" points="8.5,-163.7 8.5,-186.7 259.5,-186.7 259.5,-163.7 8.5,-163.7"/>
<polygon fill="none" stroke="#000000" points="8.5,-163.7 8.5,-186.7 259.5,-186.7 259.5,-163.7 8.5,-163.7"/>
<text text-anchor="start" x="13.5" y="-172.8" font-family="Helvetica,sans-Serif" font-weight="bold" font-size="11.00" fill="#000000">TRACER_LIGANDS</text>
<text text-anchor="start" x="224.5437" y="-171.8" font-family="Helvetica,sans-Serif" font-size="11.00" fill="#000000">[table]</text>
<polygon fill="none" stroke="#000000" points="8.5,-141.7 8.5,-163.7 259.5,-163.7 259.5,-141.7 8.5,-141.7"/>
<image xlink:href="../../images/primaryKeys.png" width="11px" height="12px" preserveAspectRatio="xMinYMin meet" x="13.5" y="-158.7"/>
<text text-anchor="start" x="28.5" y="-148.8" font-family="Helvetica,sans-Serif" font-size="11.00" fill="#000000">ID</text>
<polygon fill="none" stroke="#000000" points="8.5,-119.7 8.5,-141.7 259.5,-141.7 259.5,-119.7 8.5,-119.7"/>
<image xlink:href="../../images/foreignKeys.png" width="11px" height="12px" preserveAspectRatio="xMinYMin meet" x="13.5" y="-136.7"/>
<text text-anchor="start" x="28.5" y="-126.8" font-family="Helvetica,sans-Serif" font-size="11.00" fill="#000000">TYPE_ID</text>
<polygon fill="none" stroke="#000000" points="8.5,-97.7 8.5,-119.7 259.5,-119.7 259.5,-97.7 8.5,-97.7"/>
<image xlink:href="../../images/foreignKeys.png" width="11px" height="12px" preserveAspectRatio="xMinYMin meet" x="13.5" y="-114.7"/>
<text text-anchor="start" x="28.5" y="-104.8" font-family="Helvetica,sans-Serif" font-size="11.00" fill="#000000">TRACER_SYNTHESIS_SCIENTIST_ID</text>
<polygon fill="none" stroke="#000000" points="8.5,-75.7 8.5,-97.7 259.5,-97.7 259.5,-75.7 8.5,-75.7"/>
<image xlink:href="../../images/foreignKeys.png" width="11px" height="12px" preserveAspectRatio="xMinYMin meet" x="13.5" y="-92.7"/>
<text text-anchor="start" x="28.5" y="-82.8" font-family="Helvetica,sans-Serif" font-size="11.00" fill="#000000">DNA_ATTACHMENT_SITE_ID</text>
<polygon fill="none" stroke="#000000" points="8.5,-56.7 8.5,-75.7 259.5,-75.7 259.5,-56.7 8.5,-56.7"/>
<text text-anchor="start" x="11.5" y="-62.8" font-family="Helvetica,sans-Serif" font-size="11.00" fill="#000000">...</text>
<polygon fill="#ffffff" stroke="transparent" points="8.5,-37.7 8.5,-56.7 108.5,-56.7 108.5,-37.7 8.5,-37.7"/>
<polygon fill="none" stroke="#000000" points="8.5,-37.7 8.5,-56.7 108.5,-56.7 108.5,-37.7 8.5,-37.7"/>
<text text-anchor="start" x="11.5" y="-43.8" font-family="Helvetica,sans-Serif" font-size="11.00" fill="#000000">&lt; 3</text>
<polygon fill="#ffffff" stroke="transparent" points="108.5,-37.7 108.5,-56.7 198.5,-56.7 198.5,-37.7 108.5,-37.7"/>
<polygon fill="none" stroke="#000000" points="108.5,-37.7 108.5,-56.7 198.5,-56.7 198.5,-37.7 108.5,-37.7"/>
<text text-anchor="start" x="150.8807" y="-43.8" font-family="Helvetica,sans-Serif" font-size="11.00" fill="#000000">416 rows</text>
<polygon fill="#ffffff" stroke="transparent" points="198.5,-37.7 198.5,-56.7 259.5,-56.7 259.5,-37.7 198.5,-37.7"/>
<polygon fill="none" stroke="#000000" points="198.5,-37.7 198.5,-56.7 259.5,-56.7 259.5,-37.7 198.5,-37.7"/>
<text text-anchor="start" x="240.9053" y="-43.8" font-family="Helvetica,sans-Serif" font-size="11.00" fill="#000000">7 &gt;</text>
</a>
</g>
</g>
<!-- VERSIONS_TRACERS_TRACER_LIGANDS&#45;&gt;TRACER_LIGANDS -->
<g id="edge1" class="edge">
<title>VERSIONS_TRACERS_TRACER_LIGANDS:w&#45;&gt;TRACER_LIGANDS:e</title>
<path fill="none" stroke="#000000" d="M296.4033,-210.7565C280.025,-195.9048 289.3329,-152.7 259.5,-152.7"/>
<polygon fill="#000000" stroke="#000000" points="302.9507,-213.0526 309.3087,-219.0972 306.7254,-214.3763 310.5,-215.7 310.5,-215.7 310.5,-215.7 306.7254,-214.3763 311.6913,-212.3028 302.9507,-213.0526 302.9507,-213.0526"/>
<ellipse fill="none" stroke="#000000" cx="299.931" cy="-211.9936" rx="3.2" ry="3.2"/>
</g>
<!-- VERSIONS_TRACERS -->
<g id="node3" class="node">
<title>VERSIONS_TRACERS</title>
<g id="a_node3"><a xlink:href="../../tables/VERSIONS_TRACERS.html" xlink:title="VERSIONS_TRACERS" target="_top">
<polygon fill="#ffffff" stroke="transparent" points="54.5,-208.2 54.5,-335.2 212.5,-335.2 212.5,-208.2 54.5,-208.2"/>
<polygon fill="#f5f5f5" stroke="transparent" points="54.5,-311.7 54.5,-334.7 212.5,-334.7 212.5,-311.7 54.5,-311.7"/>
<polygon fill="none" stroke="#000000" points="54.5,-311.7 54.5,-334.7 212.5,-334.7 212.5,-311.7 54.5,-311.7"/>
<text text-anchor="start" x="59.2478" y="-320.8" font-family="Helvetica,sans-Serif" font-weight="bold" font-size="11.00" fill="#000000">VERSIONS_TRACERS</text>
<text text-anchor="start" x="178.0219" y="-319.8" font-family="Helvetica,sans-Serif" font-size="11.00" fill="#000000">[table]</text>
<polygon fill="none" stroke="#000000" points="54.5,-289.7 54.5,-311.7 212.5,-311.7 212.5,-289.7 54.5,-289.7"/>
<image xlink:href="../../images/primaryKeys.png" width="11px" height="12px" preserveAspectRatio="xMinYMin meet" x="59.5" y="-306.7"/>
<text text-anchor="start" x="75.5" y="-296.8" font-family="Helvetica,sans-Serif" font-size="11.00" fill="#000000">ID</text>
<polygon fill="none" stroke="#000000" points="54.5,-267.7 54.5,-289.7 212.5,-289.7 212.5,-267.7 54.5,-267.7"/>
<image xlink:href="../../images/primaryKeys.png" width="11px" height="12px" preserveAspectRatio="xMinYMin meet" x="59.5" y="-284.7"/>
<text text-anchor="start" x="75.5" y="-274.8" font-family="Helvetica,sans-Serif" font-size="11.00" fill="#000000">VERSION_ID</text>
<polygon fill="none" stroke="#000000" points="54.5,-245.7 54.5,-267.7 212.5,-267.7 212.5,-245.7 54.5,-245.7"/>
<image xlink:href="../../images/primaryKeys.png" width="11px" height="12px" preserveAspectRatio="xMinYMin meet" x="59.5" y="-262.7"/>
<text text-anchor="start" x="75.5" y="-252.8" font-family="Helvetica,sans-Serif" font-size="11.00" fill="#000000">TRACER_ID</text>
<polygon fill="none" stroke="#000000" points="54.5,-226.7 54.5,-245.7 212.5,-245.7 212.5,-226.7 54.5,-226.7"/>
<text text-anchor="start" x="57.5" y="-232.8" font-family="Helvetica,sans-Serif" font-size="11.00" fill="#000000">...</text>
<polygon fill="#ffffff" stroke="transparent" points="54.5,-207.7 54.5,-226.7 103.5,-226.7 103.5,-207.7 54.5,-207.7"/>
<polygon fill="none" stroke="#000000" points="54.5,-207.7 54.5,-226.7 103.5,-226.7 103.5,-207.7 54.5,-207.7"/>
<text text-anchor="start" x="57.5" y="-213.8" font-family="Helvetica,sans-Serif" font-size="11.00" fill="#000000">&lt; 2</text>
<polygon fill="#ffffff" stroke="transparent" points="103.5,-207.7 103.5,-226.7 176.5,-226.7 176.5,-207.7 103.5,-207.7"/>
<polygon fill="none" stroke="#000000" points="103.5,-207.7 103.5,-226.7 176.5,-226.7 176.5,-207.7 103.5,-207.7"/>
<text text-anchor="start" x="119.7089" y="-213.8" font-family="Helvetica,sans-Serif" font-size="11.00" fill="#000000">1,279 rows</text>
<polygon fill="#ffffff" stroke="transparent" points="176.5,-207.7 176.5,-226.7 212.5,-226.7 212.5,-207.7 176.5,-207.7"/>
<polygon fill="none" stroke="#000000" points="176.5,-207.7 176.5,-226.7 212.5,-226.7 212.5,-207.7 176.5,-207.7"/>
<text text-anchor="start" x="193.9053" y="-213.8" font-family="Helvetica,sans-Serif" font-size="11.00" fill="#000000">2 &gt;</text>
</a>
</g>
</g>
<!-- VERSIONS_TRACERS_TRACER_LIGANDS&#45;&gt;VERSIONS_TRACERS -->
<g id="edge2" class="edge">
<title>VERSIONS_TRACERS_TRACER_LIGANDS:w&#45;&gt;VERSIONS_TRACERS:e</title>
<path fill="none" stroke="#000000" d="M295.8956,-239.6545C259.2555,-250.2883 258.8181,-300.7 212.5,-300.7"/>
<polygon fill="#000000" stroke="#000000" points="302.5707,-238.7612 310.9776,-241.2682 306.5353,-238.2306 310.5,-237.7 310.5,-237.7 310.5,-237.7 306.5353,-238.2306 310.0224,-234.1318 302.5707,-238.7612 302.5707,-238.7612"/>
<ellipse fill="none" stroke="#000000" cx="299.399" cy="-239.1857" rx="3.2" ry="3.2"/>
</g>
</g>
</svg>
