<?xml version="1.0" encoding="UTF-8" standalone="no"?>
<!DOCTYPE svg PUBLIC "-//W3C//DTD SVG 1.1//EN"
 "http://www.w3.org/Graphics/SVG/1.1/DTD/svg11.dtd">
<!-- Generated by graphviz version 2.40.1 (20161225.0304)
 -->
<!-- Title: twoDegreesRelationshipsDiagram Pages: 1 -->
<svg width="1102pt" height="728pt"
 viewBox="0.00 0.00 1102.00 728.20" xmlns="http://www.w3.org/2000/svg" xmlns:xlink="http://www.w3.org/1999/xlink">
<g id="graph0" class="graph" transform="scale(1 1) rotate(0) translate(4 724.2)">
<title>twoDegreesRelationshipsDiagram</title>
<polygon fill="#ffffff" stroke="transparent" points="-4,4 -4,-724.2 1098,-724.2 1098,4 -4,4"/>
<text text-anchor="middle" x="72.4936" y="-7.3" font-family="Helvetica,sans-Serif" font-size="11.00" fill="#000000">Generated by SchemaSpy</text>
<!-- TARGETS_CAMPAIGNS -->
<g id="node1" class="node">
<title>TARGETS_CAMPAIGNS</title>
<g id="a_node1"><a xlink:href="../../tables/TARGETS_CAMPAIGNS.html" xlink:title="TARGETS_CAMPAIGNS" target="_top">
<polygon fill="#ffffff" stroke="transparent" points="229.5,-202.2 229.5,-263.2 396.5,-263.2 396.5,-202.2 229.5,-202.2"/>
<polygon fill="#f5f5f5" stroke="transparent" points="230,-239.7 230,-262.7 397,-262.7 397,-239.7 230,-239.7"/>
<polygon fill="none" stroke="#000000" points="230,-239.7 230,-262.7 397,-262.7 397,-239.7 230,-239.7"/>
<text text-anchor="start" x="234.9694" y="-248.8" font-family="Helvetica,sans-Serif" font-weight="bold" font-size="11.00" fill="#000000">TARGETS_CAMPAIGNS</text>
<text text-anchor="start" x="362.5219" y="-247.8" font-family="Helvetica,sans-Serif" font-size="11.00" fill="#000000">[table]</text>
<polygon fill="none" stroke="#000000" points="230,-220.7 230,-239.7 397,-239.7 397,-220.7 230,-220.7"/>
<text text-anchor="start" x="233" y="-226.8" font-family="Helvetica,sans-Serif" font-size="11.00" fill="#000000">...</text>
<polygon fill="#ffffff" stroke="transparent" points="230,-201.7 230,-220.7 296,-220.7 296,-201.7 230,-201.7"/>
<polygon fill="none" stroke="#000000" points="230,-201.7 230,-220.7 296,-220.7 296,-201.7 230,-201.7"/>
<text text-anchor="start" x="233" y="-207.8" font-family="Helvetica,sans-Serif" font-size="11.00" fill="#000000">&lt; 1</text>
<polygon fill="#ffffff" stroke="transparent" points="296,-201.7 296,-220.7 362,-220.7 362,-201.7 296,-201.7"/>
<polygon fill="none" stroke="#000000" points="296,-201.7 296,-220.7 362,-220.7 362,-201.7 296,-201.7"/>
<text text-anchor="start" x="320.4956" y="-207.8" font-family="Helvetica,sans-Serif" font-size="11.00" fill="#000000">81 rows</text>
<polygon fill="#ffffff" stroke="transparent" points="362,-201.7 362,-220.7 397,-220.7 397,-201.7 362,-201.7"/>
<polygon fill="none" stroke="#000000" points="362,-201.7 362,-220.7 397,-220.7 397,-201.7 362,-201.7"/>
<text text-anchor="start" x="387.8862" y="-207.8" font-family="Helvetica,sans-Serif" font-size="11.00" fill="#000000"> &#160;</text>
</a>
</g>
</g>
<!-- CAMPAIGNS -->
<g id="node2" class="node">
<title>CAMPAIGNS</title>
<g id="a_node2"><a xlink:href="../../tables/CAMPAIGNS.html" xlink:title="CAMPAIGNS" target="_top">
<polygon fill="#ffffff" stroke="transparent" points="8,-257.2 8,-340.2 120,-340.2 120,-257.2 8,-257.2"/>
<polygon fill="#f5f5f5" stroke="transparent" points="8,-316.7 8,-339.7 120,-339.7 120,-316.7 8,-316.7"/>
<polygon fill="none" stroke="#000000" points="8,-316.7 8,-339.7 120,-339.7 120,-316.7 8,-316.7"/>
<text text-anchor="start" x="13" y="-325.8" font-family="Helvetica,sans-Serif" font-weight="bold" font-size="11.00" fill="#000000">CAMPAIGNS</text>
<text text-anchor="start" x="85.0437" y="-324.8" font-family="Helvetica,sans-Serif" font-size="11.00" fill="#000000">[table]</text>
<polygon fill="none" stroke="#000000" points="8,-294.7 8,-316.7 120,-316.7 120,-294.7 8,-294.7"/>
<image xlink:href="../../images/primaryKeys.png" width="11px" height="12px" preserveAspectRatio="xMinYMin meet" x="13" y="-311.7"/>
<text text-anchor="start" x="28" y="-301.8" font-family="Helvetica,sans-Serif" font-size="11.00" fill="#000000">ID</text>
<polygon fill="none" stroke="#000000" points="8,-275.7 8,-294.7 120,-294.7 120,-275.7 8,-275.7"/>
<text text-anchor="start" x="11" y="-281.8" font-family="Helvetica,sans-Serif" font-size="11.00" fill="#000000">...</text>
<polygon fill="#ffffff" stroke="transparent" points="8,-256.7 8,-275.7 37,-275.7 37,-256.7 8,-256.7"/>
<polygon fill="none" stroke="#000000" points="8,-256.7 8,-275.7 37,-275.7 37,-256.7 8,-256.7"/>
<text text-anchor="start" x="11" y="-262.8" font-family="Helvetica,sans-Serif" font-size="11.00" fill="#000000"> &#160;</text>
<polygon fill="#ffffff" stroke="transparent" points="37,-256.7 37,-275.7 90,-275.7 90,-256.7 37,-256.7"/>
<polygon fill="none" stroke="#000000" points="37,-256.7 37,-275.7 90,-275.7 90,-256.7 37,-256.7"/>
<text text-anchor="start" x="48.4956" y="-262.8" font-family="Helvetica,sans-Serif" font-size="11.00" fill="#000000">86 rows</text>
<polygon fill="#ffffff" stroke="transparent" points="90,-256.7 90,-275.7 120,-275.7 120,-256.7 90,-256.7"/>
<polygon fill="none" stroke="#000000" points="90,-256.7 90,-275.7 120,-275.7 120,-256.7 90,-256.7"/>
<text text-anchor="start" x="101.4053" y="-262.8" font-family="Helvetica,sans-Serif" font-size="11.00" fill="#000000">2 &gt;</text>
</a>
</g>
</g>
<!-- TARGETS_CAMPAIGNS&#45;&gt;CAMPAIGNS -->
<g id="edge1" class="edge">
<title>TARGETS_CAMPAIGNS:w&#45;&gt;CAMPAIGNS:e</title>
<path fill="none" stroke="#000000" d="M215.4286,-231.2724C192.0075,-236.9291 186.3902,-256.8541 161,-274.7 142.3102,-287.8365 142.8446,-305.7 120,-305.7"/>
<polygon fill="#000000" stroke="#000000" points="222.0462,-230.5584 230.3863,-233.2792 226.0231,-230.1292 230,-229.7 230,-229.7 230,-229.7 226.0231,-230.1292 229.6137,-226.1208 222.0462,-230.5584 222.0462,-230.5584"/>
<ellipse fill="none" stroke="#000000" cx="218.8646" cy="-230.9017" rx="3.2" ry="3.2"/>
</g>
<!-- VERSION_COMMENTS -->
<g id="node3" class="node">
<title>VERSION_COMMENTS</title>
<g id="a_node3"><a xlink:href="../../tables/VERSION_COMMENTS.html" xlink:title="VERSION_COMMENTS" target="_top">
<polygon fill="#ffffff" stroke="transparent" points="520.5,-423.2 520.5,-528.2 685.5,-528.2 685.5,-423.2 520.5,-423.2"/>
<polygon fill="#f5f5f5" stroke="transparent" points="521,-504.7 521,-527.7 686,-527.7 686,-504.7 521,-504.7"/>
<polygon fill="none" stroke="#000000" points="521,-504.7 521,-527.7 686,-527.7 686,-504.7 521,-504.7"/>
<text text-anchor="start" x="526" y="-513.8" font-family="Helvetica,sans-Serif" font-weight="bold" font-size="11.00" fill="#000000">VERSION_COMMENTS</text>
<text text-anchor="start" x="651.0437" y="-512.8" font-family="Helvetica,sans-Serif" font-size="11.00" fill="#000000">[table]</text>
<polygon fill="none" stroke="#000000" points="521,-482.7 521,-504.7 686,-504.7 686,-482.7 521,-482.7"/>
<image xlink:href="../../images/primaryKeys.png" width="11px" height="12px" preserveAspectRatio="xMinYMin meet" x="526" y="-499.7"/>
<text text-anchor="start" x="541" y="-489.8" font-family="Helvetica,sans-Serif" font-size="11.00" fill="#000000">ID</text>
<polygon fill="none" stroke="#000000" points="521,-460.7 521,-482.7 686,-482.7 686,-460.7 521,-460.7"/>
<image xlink:href="../../images/foreignKeys.png" width="11px" height="12px" preserveAspectRatio="xMinYMin meet" x="526" y="-477.7"/>
<text text-anchor="start" x="541" y="-467.8" font-family="Helvetica,sans-Serif" font-size="11.00" fill="#000000">VERSION_ID</text>
<polygon fill="none" stroke="#000000" points="521,-441.7 521,-460.7 686,-460.7 686,-441.7 521,-441.7"/>
<text text-anchor="start" x="524" y="-447.8" font-family="Helvetica,sans-Serif" font-size="11.00" fill="#000000">...</text>
<polygon fill="#ffffff" stroke="transparent" points="521,-422.7 521,-441.7 586,-441.7 586,-422.7 521,-422.7"/>
<polygon fill="none" stroke="#000000" points="521,-422.7 521,-441.7 586,-441.7 586,-422.7 521,-422.7"/>
<text text-anchor="start" x="524" y="-428.8" font-family="Helvetica,sans-Serif" font-size="11.00" fill="#000000">&lt; 1</text>
<polygon fill="#ffffff" stroke="transparent" points="586,-422.7 586,-441.7 652,-441.7 652,-422.7 586,-422.7"/>
<polygon fill="none" stroke="#000000" points="586,-422.7 586,-441.7 652,-441.7 652,-422.7 586,-422.7"/>
<text text-anchor="start" x="610.4956" y="-428.8" font-family="Helvetica,sans-Serif" font-size="11.00" fill="#000000">21 rows</text>
<polygon fill="#ffffff" stroke="transparent" points="652,-422.7 652,-441.7 686,-441.7 686,-422.7 652,-422.7"/>
<polygon fill="none" stroke="#000000" points="652,-422.7 652,-441.7 686,-441.7 686,-422.7 652,-422.7"/>
<text text-anchor="start" x="676.8862" y="-428.8" font-family="Helvetica,sans-Serif" font-size="11.00" fill="#000000"> &#160;</text>
</a>
</g>
</g>
<!-- VERSIONS -->
<g id="node4" class="node">
<title>VERSIONS</title>
<g id="a_node4"><a xlink:href="../../tables/VERSIONS.html" xlink:title="VERSIONS" target="_top">
<polygon fill="#ffffff" stroke="transparent" points="169,-284.7 169,-528.7 457,-528.7 457,-284.7 169,-284.7"/>
<polygon fill="#f5f5f5" stroke="transparent" points="171,-503.7 171,-526.7 455,-526.7 455,-503.7 171,-503.7"/>
<polygon fill="none" stroke="#000000" points="171,-503.7 171,-526.7 455,-526.7 455,-503.7 171,-503.7"/>
<text text-anchor="start" x="176" y="-512.8" font-family="Helvetica,sans-Serif" font-weight="bold" font-size="11.00" fill="#000000">VERSIONS</text>
<text text-anchor="start" x="420.0437" y="-511.8" font-family="Helvetica,sans-Serif" font-size="11.00" fill="#000000">[table]</text>
<polygon fill="none" stroke="#000000" points="171,-481.7 171,-503.7 284,-503.7 284,-481.7 171,-481.7"/>
<image xlink:href="../../images/primaryKeys.png" width="11px" height="12px" preserveAspectRatio="xMinYMin meet" x="176" y="-498.7"/>
<text text-anchor="start" x="191" y="-488.8" font-family="Helvetica,sans-Serif" font-size="11.00" fill="#000000">ID</text>
<polygon fill="none" stroke="#000000" points="284,-481.7 284,-503.7 455,-503.7 455,-481.7 284,-481.7"/>
<text text-anchor="start" x="287" y="-489.4" font-family="Helvetica,sans-Serif" font-size="11.00" fill="#000000">number[19]</text>
<polygon fill="none" stroke="#000000" points="171,-459.7 171,-481.7 284,-481.7 284,-459.7 171,-459.7"/>
<text text-anchor="start" x="191" y="-466.8" font-family="Helvetica,sans-Serif" font-size="11.00" fill="#000000">CREATED_AT</text>
<polygon fill="none" stroke="#000000" points="284,-459.7 284,-481.7 455,-481.7 455,-459.7 284,-459.7"/>
<text text-anchor="start" x="286.9896" y="-467.4" font-family="Helvetica,sans-Serif" font-size="11.00" fill="#000000">timestamp(6) with time zone[13,6]</text>
<polygon fill="none" stroke="#000000" points="171,-437.7 171,-459.7 284,-459.7 284,-437.7 171,-437.7"/>
<text text-anchor="start" x="191" y="-444.8" font-family="Helvetica,sans-Serif" font-size="11.00" fill="#000000">CREATED_BY</text>
<polygon fill="none" stroke="#000000" points="284,-437.7 284,-459.7 455,-459.7 455,-437.7 284,-437.7"/>
<text text-anchor="start" x="287" y="-445.4" font-family="Helvetica,sans-Serif" font-size="11.00" fill="#000000">number[19]</text>
<polygon fill="none" stroke="#000000" points="171,-415.7 171,-437.7 284,-437.7 284,-415.7 171,-415.7"/>
<text text-anchor="start" x="191" y="-422.8" font-family="Helvetica,sans-Serif" font-size="11.00" fill="#000000">UPDATED_AT</text>
<polygon fill="none" stroke="#000000" points="284,-415.7 284,-437.7 455,-437.7 455,-415.7 284,-415.7"/>
<text text-anchor="start" x="286.9896" y="-423.4" font-family="Helvetica,sans-Serif" font-size="11.00" fill="#000000">timestamp(6) with time zone[13,6]</text>
<polygon fill="none" stroke="#000000" points="171,-393.7 171,-415.7 284,-415.7 284,-393.7 171,-393.7"/>
<text text-anchor="start" x="191" y="-400.8" font-family="Helvetica,sans-Serif" font-size="11.00" fill="#000000">UPDATED_BY</text>
<polygon fill="none" stroke="#000000" points="284,-393.7 284,-415.7 455,-415.7 455,-393.7 284,-393.7"/>
<text text-anchor="start" x="287" y="-401.4" font-family="Helvetica,sans-Serif" font-size="11.00" fill="#000000">number[19]</text>
<polygon fill="none" stroke="#000000" points="171,-371.7 171,-393.7 284,-393.7 284,-371.7 171,-371.7"/>
<image xlink:href="../../images/foreignKeys.png" width="11px" height="12px" preserveAspectRatio="xMinYMin meet" x="176" y="-388.7"/>
<text text-anchor="start" x="191" y="-378.8" font-family="Helvetica,sans-Serif" font-size="11.00" fill="#000000">CAMPAIGN_ID</text>
<polygon fill="none" stroke="#000000" points="284,-371.7 284,-393.7 455,-393.7 455,-371.7 284,-371.7"/>
<text text-anchor="start" x="287" y="-379.4" font-family="Helvetica,sans-Serif" font-size="11.00" fill="#000000">number[19]</text>
<polygon fill="none" stroke="#000000" points="171,-349.7 171,-371.7 284,-371.7 284,-349.7 171,-349.7"/>
<text text-anchor="start" x="191" y="-356.8" font-family="Helvetica,sans-Serif" font-size="11.00" fill="#000000">DESCRIPTION</text>
<polygon fill="none" stroke="#000000" points="284,-349.7 284,-371.7 455,-371.7 455,-349.7 284,-349.7"/>
<text text-anchor="start" x="287" y="-357.4" font-family="Helvetica,sans-Serif" font-size="11.00" fill="#000000">clob[4000]</text>
<polygon fill="none" stroke="#000000" points="171,-327.7 171,-349.7 284,-349.7 284,-327.7 171,-327.7"/>
<text text-anchor="start" x="191" y="-334.8" font-family="Helvetica,sans-Serif" font-size="11.00" fill="#000000">NAME</text>
<polygon fill="none" stroke="#000000" points="284,-327.7 284,-349.7 455,-349.7 455,-327.7 284,-327.7"/>
<text text-anchor="start" x="287" y="-335.4" font-family="Helvetica,sans-Serif" font-size="11.00" fill="#000000">varchar2[255]</text>
<polygon fill="none" stroke="#000000" points="171,-305.7 171,-327.7 284,-327.7 284,-305.7 171,-305.7"/>
<text text-anchor="start" x="191" y="-312.8" font-family="Helvetica,sans-Serif" font-size="11.00" fill="#000000">STATUS</text>
<polygon fill="none" stroke="#000000" points="284,-305.7 284,-327.7 455,-327.7 455,-305.7 284,-305.7"/>
<text text-anchor="start" x="287" y="-313.4" font-family="Helvetica,sans-Serif" font-size="11.00" fill="#000000">varchar2[20]</text>
<polygon fill="#ffffff" stroke="transparent" points="171,-286.7 171,-305.7 213,-305.7 213,-286.7 171,-286.7"/>
<polygon fill="none" stroke="#000000" points="171,-286.7 171,-305.7 213,-305.7 213,-286.7 171,-286.7"/>
<text text-anchor="start" x="174" y="-292.8" font-family="Helvetica,sans-Serif" font-size="11.00" fill="#000000">&lt; 1</text>
<polygon fill="#ffffff" stroke="transparent" points="213,-286.7 213,-305.7 284,-305.7 284,-286.7 213,-286.7"/>
<polygon fill="none" stroke="#000000" points="213,-286.7 213,-305.7 284,-305.7 284,-286.7 213,-286.7"/>
<text text-anchor="start" x="236.3807" y="-292.8" font-family="Helvetica,sans-Serif" font-size="11.00" fill="#000000">222 rows</text>
<polygon fill="#ffffff" stroke="transparent" points="284,-286.7 284,-305.7 455,-305.7 455,-286.7 284,-286.7"/>
<polygon fill="none" stroke="#000000" points="284,-286.7 284,-305.7 455,-305.7 455,-286.7 284,-286.7"/>
<text text-anchor="start" x="436.4053" y="-292.8" font-family="Helvetica,sans-Serif" font-size="11.00" fill="#000000">4 &gt;</text>
<polygon fill="none" stroke="#000000" stroke-width="2" points="170,-285.7 170,-527.7 456,-527.7 456,-285.7 170,-285.7"/>
</a>
</g>
</g>
<!-- VERSION_COMMENTS&#45;&gt;VERSIONS -->
<g id="edge2" class="edge">
<title>VERSION_COMMENTS:w&#45;&gt;VERSIONS:e</title>
<path fill="none" stroke="#000000" d="M506.6527,-473.4904C487.773,-478.5688 480.2512,-492.7 455,-492.7"/>
<polygon fill="#000000" stroke="#000000" points="513.0616,-472.6907 521.4458,-475.2723 517.0308,-472.1954 521,-471.7 521,-471.7 521,-471.7 517.0308,-472.1954 520.5542,-468.1277 513.0616,-472.6907 513.0616,-472.6907"/>
<ellipse fill="none" stroke="#000000" cx="509.8862" cy="-473.087" rx="3.2" ry="3.2"/>
</g>
<!-- VERSIONS&#45;&gt;CAMPAIGNS -->
<g id="edge4" class="edge">
<title>VERSIONS:w&#45;&gt;CAMPAIGNS:e</title>
<path fill="none" stroke="#000000" d="M157.0177,-378.1139C137.594,-361.5372 154.9549,-305.7 120,-305.7"/>
<polygon fill="#000000" stroke="#000000" points="163.3984,-380.2067 169.878,-386.1207 167.1992,-381.4534 171,-382.7 171,-382.7 171,-382.7 167.1992,-381.4534 172.122,-379.2793 163.3984,-380.2067 163.3984,-380.2067"/>
<ellipse fill="none" stroke="#000000" cx="160.3578" cy="-379.2094" rx="3.2" ry="3.2"/>
</g>
<!-- VERSION_TRACERS_TRACER_SYNTHESIS_REQUESTS -->
<g id="node5" class="node">
<title>VERSION_TRACERS_TRACER_SYNTHESIS_REQUESTS</title>
<g id="a_node5"><a xlink:href="../../tables/VERSION_TRACERS_TRACER_SYNTHESIS_REQUESTS.html" xlink:title="VERSION_TRACERS_TRACER_SYNTHESIS_REQUESTS" target="_top">
<polygon fill="#ffffff" stroke="transparent" points="749,-655.2 749,-716.2 1086,-716.2 1086,-655.2 749,-655.2"/>
<polygon fill="#f5f5f5" stroke="transparent" points="749.5,-692.7 749.5,-715.7 1086.5,-715.7 1086.5,-692.7 749.5,-692.7"/>
<polygon fill="none" stroke="#000000" points="749.5,-692.7 749.5,-715.7 1086.5,-715.7 1086.5,-692.7 749.5,-692.7"/>
<text text-anchor="start" x="754.2161" y="-701.8" font-family="Helvetica,sans-Serif" font-weight="bold" font-size="11.00" fill="#000000">VERSION_TRACERS_TRACER_SYNTHESIS_REQUESTS</text>
<text text-anchor="start" x="1052.0219" y="-700.8" font-family="Helvetica,sans-Serif" font-size="11.00" fill="#000000">[table]</text>
<polygon fill="none" stroke="#000000" points="749.5,-673.7 749.5,-692.7 1086.5,-692.7 1086.5,-673.7 749.5,-673.7"/>
<text text-anchor="start" x="752.5" y="-679.8" font-family="Helvetica,sans-Serif" font-size="11.00" fill="#000000">...</text>
<polygon fill="#ffffff" stroke="transparent" points="749.5,-654.7 749.5,-673.7 900.5,-673.7 900.5,-654.7 749.5,-654.7"/>
<polygon fill="none" stroke="#000000" points="749.5,-654.7 749.5,-673.7 900.5,-673.7 900.5,-654.7 749.5,-654.7"/>
<text text-anchor="start" x="752.5" y="-660.8" font-family="Helvetica,sans-Serif" font-size="11.00" fill="#000000">&lt; 2</text>
<polygon fill="#ffffff" stroke="transparent" points="900.5,-654.7 900.5,-673.7 1009.5,-673.7 1009.5,-654.7 900.5,-654.7"/>
<polygon fill="none" stroke="#000000" points="900.5,-654.7 900.5,-673.7 1009.5,-673.7 1009.5,-654.7 900.5,-654.7"/>
<text text-anchor="start" x="967.9956" y="-660.8" font-family="Helvetica,sans-Serif" font-size="11.00" fill="#000000">21 rows</text>
<polygon fill="#ffffff" stroke="transparent" points="1009.5,-654.7 1009.5,-673.7 1086.5,-673.7 1086.5,-654.7 1009.5,-654.7"/>
<polygon fill="none" stroke="#000000" points="1009.5,-654.7 1009.5,-673.7 1086.5,-673.7 1086.5,-654.7 1009.5,-654.7"/>
<text text-anchor="start" x="1077.3862" y="-660.8" font-family="Helvetica,sans-Serif" font-size="11.00" fill="#000000"> &#160;</text>
</a>
</g>
</g>
<!-- VERSIONS_TRACERS -->
<g id="node6" class="node">
<title>VERSIONS_TRACERS</title>
<g id="a_node6"><a xlink:href="../../tables/VERSIONS_TRACERS.html" xlink:title="VERSIONS_TRACERS" target="_top">
<polygon fill="#ffffff" stroke="transparent" points="524,-549.2 524,-676.2 682,-676.2 682,-549.2 524,-549.2"/>
<polygon fill="#f5f5f5" stroke="transparent" points="524,-652.7 524,-675.7 682,-675.7 682,-652.7 524,-652.7"/>
<polygon fill="none" stroke="#000000" points="524,-652.7 524,-675.7 682,-675.7 682,-652.7 524,-652.7"/>
<text text-anchor="start" x="528.7478" y="-661.8" font-family="Helvetica,sans-Serif" font-weight="bold" font-size="11.00" fill="#000000">VERSIONS_TRACERS</text>
<text text-anchor="start" x="647.5219" y="-660.8" font-family="Helvetica,sans-Serif" font-size="11.00" fill="#000000">[table]</text>
<polygon fill="none" stroke="#000000" points="524,-630.7 524,-652.7 682,-652.7 682,-630.7 524,-630.7"/>
<image xlink:href="../../images/primaryKeys.png" width="11px" height="12px" preserveAspectRatio="xMinYMin meet" x="529" y="-647.7"/>
<text text-anchor="start" x="545" y="-637.8" font-family="Helvetica,sans-Serif" font-size="11.00" fill="#000000">ID</text>
<polygon fill="none" stroke="#000000" points="524,-608.7 524,-630.7 682,-630.7 682,-608.7 524,-608.7"/>
<image xlink:href="../../images/primaryKeys.png" width="11px" height="12px" preserveAspectRatio="xMinYMin meet" x="529" y="-625.7"/>
<text text-anchor="start" x="545" y="-615.8" font-family="Helvetica,sans-Serif" font-size="11.00" fill="#000000">VERSION_ID</text>
<polygon fill="none" stroke="#000000" points="524,-586.7 524,-608.7 682,-608.7 682,-586.7 524,-586.7"/>
<image xlink:href="../../images/primaryKeys.png" width="11px" height="12px" preserveAspectRatio="xMinYMin meet" x="529" y="-603.7"/>
<text text-anchor="start" x="545" y="-593.8" font-family="Helvetica,sans-Serif" font-size="11.00" fill="#000000">TRACER_ID</text>
<polygon fill="none" stroke="#000000" points="524,-567.7 524,-586.7 682,-586.7 682,-567.7 524,-567.7"/>
<text text-anchor="start" x="527" y="-573.8" font-family="Helvetica,sans-Serif" font-size="11.00" fill="#000000">...</text>
<polygon fill="#ffffff" stroke="transparent" points="524,-548.7 524,-567.7 573,-567.7 573,-548.7 524,-548.7"/>
<polygon fill="none" stroke="#000000" points="524,-548.7 524,-567.7 573,-567.7 573,-548.7 524,-548.7"/>
<text text-anchor="start" x="527" y="-554.8" font-family="Helvetica,sans-Serif" font-size="11.00" fill="#000000">&lt; 2</text>
<polygon fill="#ffffff" stroke="transparent" points="573,-548.7 573,-567.7 646,-567.7 646,-548.7 573,-548.7"/>
<polygon fill="none" stroke="#000000" points="573,-548.7 573,-567.7 646,-567.7 646,-548.7 573,-548.7"/>
<text text-anchor="start" x="589.2089" y="-554.8" font-family="Helvetica,sans-Serif" font-size="11.00" fill="#000000">1,279 rows</text>
<polygon fill="#ffffff" stroke="transparent" points="646,-548.7 646,-567.7 682,-567.7 682,-548.7 646,-548.7"/>
<polygon fill="none" stroke="#000000" points="646,-548.7 646,-567.7 682,-567.7 682,-548.7 646,-548.7"/>
<text text-anchor="start" x="663.4053" y="-554.8" font-family="Helvetica,sans-Serif" font-size="11.00" fill="#000000">2 &gt;</text>
</a>
</g>
</g>
<!-- VERSION_TRACERS_TRACER_SYNTHESIS_REQUESTS&#45;&gt;VERSIONS_TRACERS -->
<g id="edge3" class="edge">
<title>VERSION_TRACERS_TRACER_SYNTHESIS_REQUESTS:w&#45;&gt;VERSIONS_TRACERS:e</title>
<path fill="none" stroke="#000000" d="M735.2335,-679.8819C714.295,-670.6188 711.479,-641.7 682,-641.7"/>
<polygon fill="#000000" stroke="#000000" points="741.6517,-681.1496 748.8023,-686.2318 745.5758,-681.9248 749.5,-682.7 749.5,-682.7 749.5,-682.7 745.5758,-681.9248 750.1977,-679.1682 741.6517,-681.1496 741.6517,-681.1496"/>
<ellipse fill="none" stroke="#000000" cx="738.5123" cy="-680.5295" rx="3.2" ry="3.2"/>
</g>
<!-- VERSIONS_TRACERS&#45;&gt;VERSIONS -->
<g id="edge12" class="edge">
<title>VERSIONS_TRACERS:w&#45;&gt;VERSIONS:e</title>
<path fill="none" stroke="#000000" d="M509.7614,-616.9293C469.2616,-598.3568 513.5914,-492.7 455,-492.7"/>
<polygon fill="#000000" stroke="#000000" points="516.1473,-618.1719 523.3124,-623.2337 520.0736,-618.9359 524,-619.7 524,-619.7 524,-619.7 520.0736,-618.9359 524.6876,-616.1663 516.1473,-618.1719 516.1473,-618.1719"/>
<ellipse fill="none" stroke="#000000" cx="513.0062" cy="-617.5607" rx="3.2" ry="3.2"/>
</g>
<!-- TRACERS -->
<g id="node13" class="node">
<title>TRACERS</title>
<g id="a_node13"><a xlink:href="../../tables/TRACERS.html" xlink:title="TRACERS" target="_top">
<polygon fill="#ffffff" stroke="transparent" points="265.5,-570.2 265.5,-631.2 360.5,-631.2 360.5,-570.2 265.5,-570.2"/>
<polygon fill="#f5f5f5" stroke="transparent" points="266,-607.7 266,-630.7 361,-630.7 361,-607.7 266,-607.7"/>
<polygon fill="none" stroke="#000000" points="266,-607.7 266,-630.7 361,-630.7 361,-607.7 266,-607.7"/>
<text text-anchor="start" x="270.7249" y="-616.8" font-family="Helvetica,sans-Serif" font-weight="bold" font-size="11.00" fill="#000000">TRACERS</text>
<text text-anchor="start" x="326.5219" y="-615.8" font-family="Helvetica,sans-Serif" font-size="11.00" fill="#000000">[table]</text>
<polygon fill="none" stroke="#000000" points="266,-588.7 266,-607.7 361,-607.7 361,-588.7 266,-588.7"/>
<text text-anchor="start" x="269" y="-594.8" font-family="Helvetica,sans-Serif" font-size="11.00" fill="#000000">...</text>
<polygon fill="#ffffff" stroke="transparent" points="266,-569.7 266,-588.7 284,-588.7 284,-569.7 266,-569.7"/>
<polygon fill="none" stroke="#000000" points="266,-569.7 266,-588.7 284,-588.7 284,-569.7 266,-569.7"/>
<text text-anchor="start" x="269" y="-575.8" font-family="Helvetica,sans-Serif" font-size="11.00" fill="#000000"> &#160;</text>
<polygon fill="#ffffff" stroke="transparent" points="284,-569.7 284,-588.7 337,-588.7 337,-569.7 284,-569.7"/>
<polygon fill="none" stroke="#000000" points="284,-569.7 284,-588.7 337,-588.7 337,-569.7 284,-569.7"/>
<text text-anchor="start" x="289.3807" y="-575.8" font-family="Helvetica,sans-Serif" font-size="11.00" fill="#000000">163 rows</text>
<polygon fill="#ffffff" stroke="transparent" points="337,-569.7 337,-588.7 361,-588.7 361,-569.7 337,-569.7"/>
<polygon fill="none" stroke="#000000" points="337,-569.7 337,-588.7 361,-588.7 361,-569.7 337,-569.7"/>
<text text-anchor="start" x="342.4053" y="-575.8" font-family="Helvetica,sans-Serif" font-size="11.00" fill="#000000">1 &gt;</text>
</a>
</g>
</g>
<!-- VERSIONS_TRACERS&#45;&gt;TRACERS -->
<g id="edge11" class="edge">
<title>VERSIONS_TRACERS:w&#45;&gt;TRACERS:e</title>
<path fill="none" stroke="#000000" d="M509.4868,-597.7C448.7401,-597.7 428.3507,-597.7 361,-597.7"/>
<polygon fill="#000000" stroke="#000000" points="516,-597.7001 524,-601.3 520,-597.7 524,-597.7 524,-597.7 524,-597.7 520,-597.7 524,-594.1 516,-597.7001 516,-597.7001"/>
<ellipse fill="none" stroke="#000000" cx="512.8" cy="-597.7001" rx="3.2" ry="3.2"/>
</g>
<!-- VERSIONS_PARTS -->
<g id="node7" class="node">
<title>VERSIONS_PARTS</title>
<g id="a_node7"><a xlink:href="../../tables/VERSIONS_PARTS.html" xlink:title="VERSIONS_PARTS" target="_top">
<polygon fill="#ffffff" stroke="transparent" points="532,-220.2 532,-347.2 674,-347.2 674,-220.2 532,-220.2"/>
<polygon fill="#f5f5f5" stroke="transparent" points="532,-323.7 532,-346.7 674,-346.7 674,-323.7 532,-323.7"/>
<polygon fill="none" stroke="#000000" points="532,-323.7 532,-346.7 674,-346.7 674,-323.7 532,-323.7"/>
<text text-anchor="start" x="536.6887" y="-332.8" font-family="Helvetica,sans-Serif" font-weight="bold" font-size="11.00" fill="#000000">VERSIONS_PARTS</text>
<text text-anchor="start" x="639.5219" y="-331.8" font-family="Helvetica,sans-Serif" font-size="11.00" fill="#000000">[table]</text>
<polygon fill="none" stroke="#000000" points="532,-301.7 532,-323.7 674,-323.7 674,-301.7 532,-301.7"/>
<image xlink:href="../../images/primaryKeys.png" width="11px" height="12px" preserveAspectRatio="xMinYMin meet" x="537" y="-318.7"/>
<text text-anchor="start" x="554" y="-308.8" font-family="Helvetica,sans-Serif" font-size="11.00" fill="#000000">ID</text>
<polygon fill="none" stroke="#000000" points="532,-279.7 532,-301.7 674,-301.7 674,-279.7 532,-279.7"/>
<image xlink:href="../../images/primaryKeys.png" width="11px" height="12px" preserveAspectRatio="xMinYMin meet" x="537" y="-296.7"/>
<text text-anchor="start" x="554" y="-286.8" font-family="Helvetica,sans-Serif" font-size="11.00" fill="#000000">VERSION_ID</text>
<polygon fill="none" stroke="#000000" points="532,-257.7 532,-279.7 674,-279.7 674,-257.7 532,-257.7"/>
<image xlink:href="../../images/primaryKeys.png" width="11px" height="12px" preserveAspectRatio="xMinYMin meet" x="537" y="-274.7"/>
<text text-anchor="start" x="554" y="-264.8" font-family="Helvetica,sans-Serif" font-size="11.00" fill="#000000">PART_ID</text>
<polygon fill="none" stroke="#000000" points="532,-238.7 532,-257.7 674,-257.7 674,-238.7 532,-238.7"/>
<text text-anchor="start" x="535" y="-244.8" font-family="Helvetica,sans-Serif" font-size="11.00" fill="#000000">...</text>
<polygon fill="#ffffff" stroke="transparent" points="532,-219.7 532,-238.7 578,-238.7 578,-219.7 532,-219.7"/>
<polygon fill="none" stroke="#000000" points="532,-219.7 532,-238.7 578,-238.7 578,-219.7 532,-219.7"/>
<text text-anchor="start" x="535" y="-225.8" font-family="Helvetica,sans-Serif" font-size="11.00" fill="#000000">&lt; 2</text>
<polygon fill="#ffffff" stroke="transparent" points="578,-219.7 578,-238.7 640,-238.7 640,-219.7 578,-219.7"/>
<polygon fill="none" stroke="#000000" points="578,-219.7 578,-238.7 640,-238.7 640,-219.7 578,-219.7"/>
<text text-anchor="start" x="592.3807" y="-225.8" font-family="Helvetica,sans-Serif" font-size="11.00" fill="#000000">449 rows</text>
<polygon fill="#ffffff" stroke="transparent" points="640,-219.7 640,-238.7 674,-238.7 674,-219.7 640,-219.7"/>
<polygon fill="none" stroke="#000000" points="640,-219.7 640,-238.7 674,-238.7 674,-219.7 640,-219.7"/>
<text text-anchor="start" x="655.4053" y="-225.8" font-family="Helvetica,sans-Serif" font-size="11.00" fill="#000000">2 &gt;</text>
</a>
</g>
</g>
<!-- VERSIONS_PARTS&#45;&gt;VERSIONS -->
<g id="edge6" class="edge">
<title>VERSIONS_PARTS:w&#45;&gt;VERSIONS:e</title>
<path fill="none" stroke="#000000" d="M517.6303,-292.5707C448.2884,-312.9348 545.6372,-492.7 455,-492.7"/>
<polygon fill="#000000" stroke="#000000" points="524.0669,-291.7328 532.4648,-294.2699 528.0335,-291.2164 532,-290.7 532,-290.7 532,-290.7 528.0335,-291.2164 531.5352,-287.1301 524.0669,-291.7328 524.0669,-291.7328"/>
<ellipse fill="none" stroke="#000000" cx="520.8937" cy="-292.146" rx="3.2" ry="3.2"/>
</g>
<!-- PARTS -->
<g id="node8" class="node">
<title>PARTS</title>
<g id="a_node8"><a xlink:href="../../tables/PARTS.html" xlink:title="PARTS" target="_top">
<polygon fill="#ffffff" stroke="transparent" points="271.5,-120.2 271.5,-181.2 354.5,-181.2 354.5,-120.2 271.5,-120.2"/>
<polygon fill="#f5f5f5" stroke="transparent" points="272,-157.7 272,-180.7 355,-180.7 355,-157.7 272,-157.7"/>
<polygon fill="none" stroke="#000000" points="272,-157.7 272,-180.7 355,-180.7 355,-157.7 272,-157.7"/>
<text text-anchor="start" x="277" y="-166.8" font-family="Helvetica,sans-Serif" font-weight="bold" font-size="11.00" fill="#000000">PARTS</text>
<text text-anchor="start" x="320.0437" y="-165.8" font-family="Helvetica,sans-Serif" font-size="11.00" fill="#000000">[table]</text>
<polygon fill="none" stroke="#000000" points="272,-138.7 272,-157.7 355,-157.7 355,-138.7 272,-138.7"/>
<text text-anchor="start" x="275" y="-144.8" font-family="Helvetica,sans-Serif" font-size="11.00" fill="#000000">...</text>
<polygon fill="#ffffff" stroke="transparent" points="272,-119.7 272,-138.7 284,-138.7 284,-119.7 272,-119.7"/>
<polygon fill="none" stroke="#000000" points="272,-119.7 272,-138.7 284,-138.7 284,-119.7 272,-119.7"/>
<text text-anchor="start" x="274.9431" y="-125.8" font-family="Helvetica,sans-Serif" font-size="11.00" fill="#000000"> &#160;</text>
<polygon fill="#ffffff" stroke="transparent" points="284,-119.7 284,-138.7 334,-138.7 334,-119.7 284,-119.7"/>
<polygon fill="none" stroke="#000000" points="284,-119.7 284,-138.7 334,-138.7 334,-119.7 284,-119.7"/>
<text text-anchor="start" x="286.6904" y="-125.8" font-family="Helvetica,sans-Serif" font-size="11.00" fill="#000000">118 rows</text>
<polygon fill="#ffffff" stroke="transparent" points="334,-119.7 334,-138.7 355,-138.7 355,-119.7 334,-119.7"/>
<polygon fill="none" stroke="#000000" points="334,-119.7 334,-138.7 355,-138.7 355,-119.7 334,-119.7"/>
<text text-anchor="start" x="336.7027" y="-125.8" font-family="Helvetica,sans-Serif" font-size="11.00" fill="#000000">1 &gt;</text>
</a>
</g>
</g>
<!-- VERSIONS_PARTS&#45;&gt;PARTS -->
<g id="edge5" class="edge">
<title>VERSIONS_PARTS:w&#45;&gt;PARTS:e</title>
<path fill="none" stroke="#000000" d="M517.6136,-266.4689C489.6553,-256.3997 497.3604,-214.6862 465,-191.7 422.0725,-161.2078 407.6549,-147.7 355,-147.7"/>
<polygon fill="#000000" stroke="#000000" points="524.0945,-267.4739 531.4483,-272.2575 528.0473,-268.087 532,-268.7 532,-268.7 532,-268.7 528.0473,-268.087 532.5517,-265.1425 524.0945,-267.4739 524.0945,-267.4739"/>
<ellipse fill="none" stroke="#000000" cx="520.9323" cy="-266.9835" rx="3.2" ry="3.2"/>
</g>
<!-- VERSIONS_PARTS_SCREENING_CONDITIONS -->
<g id="node9" class="node">
<title>VERSIONS_PARTS_SCREENING_CONDITIONS</title>
<g id="a_node9"><a xlink:href="../../tables/VERSIONS_PARTS_SCREENING_CONDITIONS.html" xlink:title="VERSIONS_PARTS_SCREENING_CONDITIONS" target="_top">
<polygon fill="#ffffff" stroke="transparent" points="773,-326.2 773,-387.2 1062,-387.2 1062,-326.2 773,-326.2"/>
<polygon fill="#f5f5f5" stroke="transparent" points="773.5,-363.7 773.5,-386.7 1062.5,-386.7 1062.5,-363.7 773.5,-363.7"/>
<polygon fill="none" stroke="#000000" points="773.5,-363.7 773.5,-386.7 1062.5,-386.7 1062.5,-363.7 773.5,-363.7"/>
<text text-anchor="start" x="778.3578" y="-372.8" font-family="Helvetica,sans-Serif" font-weight="bold" font-size="11.00" fill="#000000">VERSIONS_PARTS_SCREENING_CONDITIONS</text>
<text text-anchor="start" x="1028.0219" y="-371.8" font-family="Helvetica,sans-Serif" font-size="11.00" fill="#000000">[table]</text>
<polygon fill="none" stroke="#000000" points="773.5,-344.7 773.5,-363.7 1062.5,-363.7 1062.5,-344.7 773.5,-344.7"/>
<text text-anchor="start" x="776.5" y="-350.8" font-family="Helvetica,sans-Serif" font-size="11.00" fill="#000000">...</text>
<polygon fill="#ffffff" stroke="transparent" points="773.5,-325.7 773.5,-344.7 897.5,-344.7 897.5,-325.7 773.5,-325.7"/>
<polygon fill="none" stroke="#000000" points="773.5,-325.7 773.5,-344.7 897.5,-344.7 897.5,-325.7 773.5,-325.7"/>
<text text-anchor="start" x="776.5" y="-331.8" font-family="Helvetica,sans-Serif" font-size="11.00" fill="#000000">&lt; 2</text>
<polygon fill="#ffffff" stroke="transparent" points="897.5,-325.7 897.5,-344.7 998.5,-344.7 998.5,-325.7 897.5,-325.7"/>
<polygon fill="none" stroke="#000000" points="897.5,-325.7 897.5,-344.7 998.5,-344.7 998.5,-325.7 897.5,-325.7"/>
<text text-anchor="start" x="950.8807" y="-331.8" font-family="Helvetica,sans-Serif" font-size="11.00" fill="#000000">415 rows</text>
<polygon fill="#ffffff" stroke="transparent" points="998.5,-325.7 998.5,-344.7 1062.5,-344.7 1062.5,-325.7 998.5,-325.7"/>
<polygon fill="none" stroke="#000000" points="998.5,-325.7 998.5,-344.7 1062.5,-344.7 1062.5,-325.7 998.5,-325.7"/>
<text text-anchor="start" x="1053.3862" y="-331.8" font-family="Helvetica,sans-Serif" font-size="11.00" fill="#000000"> &#160;</text>
</a>
</g>
</g>
<!-- VERSIONS_PARTS_SCREENING_CONDITIONS&#45;&gt;VERSIONS_PARTS -->
<g id="edge7" class="edge">
<title>VERSIONS_PARTS_SCREENING_CONDITIONS:w&#45;&gt;VERSIONS_PARTS:e</title>
<path fill="none" stroke="#000000" d="M758.811,-352.2408C724.2358,-344.9371 716.4113,-312.7 674,-312.7"/>
<polygon fill="#000000" stroke="#000000" points="765.5392,-352.9091 773.1441,-357.2824 769.5196,-353.3046 773.5,-353.7 773.5,-353.7 773.5,-353.7 769.5196,-353.3046 773.8559,-350.1176 765.5392,-352.9091 765.5392,-352.9091"/>
<ellipse fill="none" stroke="#000000" cx="762.3549" cy="-352.5928" rx="3.2" ry="3.2"/>
</g>
<!-- VERSIONS_PARTS_SCREENING_PLANS -->
<g id="node10" class="node">
<title>VERSIONS_PARTS_SCREENING_PLANS</title>
<g id="a_node10"><a xlink:href="../../tables/VERSIONS_PARTS_SCREENING_PLANS.html" xlink:title="VERSIONS_PARTS_SCREENING_PLANS" target="_top">
<polygon fill="#ffffff" stroke="transparent" points="789.5,-244.2 789.5,-305.2 1045.5,-305.2 1045.5,-244.2 789.5,-244.2"/>
<polygon fill="#f5f5f5" stroke="transparent" points="789.5,-281.7 789.5,-304.7 1045.5,-304.7 1045.5,-281.7 789.5,-281.7"/>
<polygon fill="none" stroke="#000000" points="789.5,-281.7 789.5,-304.7 1045.5,-304.7 1045.5,-281.7 789.5,-281.7"/>
<text text-anchor="start" x="794.3495" y="-290.8" font-family="Helvetica,sans-Serif" font-weight="bold" font-size="11.00" fill="#000000">VERSIONS_PARTS_SCREENING_PLANS</text>
<text text-anchor="start" x="1011.0219" y="-289.8" font-family="Helvetica,sans-Serif" font-size="11.00" fill="#000000">[table]</text>
<polygon fill="none" stroke="#000000" points="789.5,-262.7 789.5,-281.7 1045.5,-281.7 1045.5,-262.7 789.5,-262.7"/>
<text text-anchor="start" x="792.5" y="-268.8" font-family="Helvetica,sans-Serif" font-size="11.00" fill="#000000">...</text>
<polygon fill="#ffffff" stroke="transparent" points="789.5,-243.7 789.5,-262.7 896.5,-262.7 896.5,-243.7 789.5,-243.7"/>
<polygon fill="none" stroke="#000000" points="789.5,-243.7 789.5,-262.7 896.5,-262.7 896.5,-243.7 789.5,-243.7"/>
<text text-anchor="start" x="792.5" y="-249.8" font-family="Helvetica,sans-Serif" font-size="11.00" fill="#000000">&lt; 2</text>
<polygon fill="#ffffff" stroke="transparent" points="896.5,-243.7 896.5,-262.7 989.5,-262.7 989.5,-243.7 896.5,-243.7"/>
<polygon fill="none" stroke="#000000" points="896.5,-243.7 896.5,-262.7 989.5,-262.7 989.5,-243.7 896.5,-243.7"/>
<text text-anchor="start" x="941.8807" y="-249.8" font-family="Helvetica,sans-Serif" font-size="11.00" fill="#000000">376 rows</text>
<polygon fill="#ffffff" stroke="transparent" points="989.5,-243.7 989.5,-262.7 1045.5,-262.7 1045.5,-243.7 989.5,-243.7"/>
<polygon fill="none" stroke="#000000" points="989.5,-243.7 989.5,-262.7 1045.5,-262.7 1045.5,-243.7 989.5,-243.7"/>
<text text-anchor="start" x="1036.3862" y="-249.8" font-family="Helvetica,sans-Serif" font-size="11.00" fill="#000000"> &#160;</text>
</a>
</g>
</g>
<!-- VERSIONS_PARTS_SCREENING_PLANS&#45;&gt;VERSIONS_PARTS -->
<g id="edge8" class="edge">
<title>VERSIONS_PARTS_SCREENING_PLANS:w&#45;&gt;VERSIONS_PARTS:e</title>
<path fill="none" stroke="#000000" d="M775.0933,-272.7547C733.3345,-279.1721 723.2585,-312.7 674,-312.7"/>
<polygon fill="#000000" stroke="#000000" points="781.5214,-272.2842 789.7629,-275.2904 785.5107,-271.9921 789.5,-271.7 789.5,-271.7 789.5,-271.7 785.5107,-271.9921 789.2371,-268.1096 781.5214,-272.2842 781.5214,-272.2842"/>
<ellipse fill="none" stroke="#000000" cx="778.3299" cy="-272.5178" rx="3.2" ry="3.2"/>
</g>
<!-- VERSIONS_SUPPLEMENTS -->
<g id="node11" class="node">
<title>VERSIONS_SUPPLEMENTS</title>
<g id="a_node11"><a xlink:href="../../tables/VERSIONS_SUPPLEMENTS.html" xlink:title="VERSIONS_SUPPLEMENTS" target="_top">
<polygon fill="#ffffff" stroke="transparent" points="506,-44.2 506,-171.2 700,-171.2 700,-44.2 506,-44.2"/>
<polygon fill="#f5f5f5" stroke="transparent" points="506,-147.7 506,-170.7 700,-170.7 700,-147.7 506,-147.7"/>
<polygon fill="none" stroke="#000000" points="506,-147.7 506,-170.7 700,-170.7 700,-147.7 506,-147.7"/>
<text text-anchor="start" x="511" y="-156.8" font-family="Helvetica,sans-Serif" font-weight="bold" font-size="11.00" fill="#000000">VERSIONS_SUPPLEMENTS</text>
<text text-anchor="start" x="665.0437" y="-155.8" font-family="Helvetica,sans-Serif" font-size="11.00" fill="#000000">[table]</text>
<polygon fill="none" stroke="#000000" points="506,-125.7 506,-147.7 700,-147.7 700,-125.7 506,-125.7"/>
<image xlink:href="../../images/primaryKeys.png" width="11px" height="12px" preserveAspectRatio="xMinYMin meet" x="511" y="-142.7"/>
<text text-anchor="start" x="526" y="-132.8" font-family="Helvetica,sans-Serif" font-size="11.00" fill="#000000">ID</text>
<polygon fill="none" stroke="#000000" points="506,-103.7 506,-125.7 700,-125.7 700,-103.7 506,-103.7"/>
<image xlink:href="../../images/primaryKeys.png" width="11px" height="12px" preserveAspectRatio="xMinYMin meet" x="511" y="-120.7"/>
<text text-anchor="start" x="526" y="-110.8" font-family="Helvetica,sans-Serif" font-size="11.00" fill="#000000">VERSION_ID</text>
<polygon fill="none" stroke="#000000" points="506,-81.7 506,-103.7 700,-103.7 700,-81.7 506,-81.7"/>
<image xlink:href="../../images/primaryKeys.png" width="11px" height="12px" preserveAspectRatio="xMinYMin meet" x="511" y="-98.7"/>
<text text-anchor="start" x="526" y="-88.8" font-family="Helvetica,sans-Serif" font-size="11.00" fill="#000000">SUPPLEMENT_ID</text>
<polygon fill="none" stroke="#000000" points="506,-62.7 506,-81.7 700,-81.7 700,-62.7 506,-62.7"/>
<text text-anchor="start" x="509" y="-68.8" font-family="Helvetica,sans-Serif" font-size="11.00" fill="#000000">...</text>
<polygon fill="#ffffff" stroke="transparent" points="506,-43.7 506,-62.7 582,-62.7 582,-43.7 506,-43.7"/>
<polygon fill="none" stroke="#000000" points="506,-43.7 506,-62.7 582,-62.7 582,-43.7 506,-43.7"/>
<text text-anchor="start" x="509" y="-49.8" font-family="Helvetica,sans-Serif" font-size="11.00" fill="#000000">&lt; 2</text>
<polygon fill="#ffffff" stroke="transparent" points="582,-43.7 582,-62.7 660,-62.7 660,-43.7 582,-43.7"/>
<polygon fill="none" stroke="#000000" points="582,-43.7 582,-62.7 660,-62.7 660,-43.7 582,-43.7"/>
<text text-anchor="start" x="612.3807" y="-49.8" font-family="Helvetica,sans-Serif" font-size="11.00" fill="#000000">190 rows</text>
<polygon fill="#ffffff" stroke="transparent" points="660,-43.7 660,-62.7 700,-62.7 700,-43.7 660,-43.7"/>
<polygon fill="none" stroke="#000000" points="660,-43.7 660,-62.7 700,-62.7 700,-43.7 660,-43.7"/>
<text text-anchor="start" x="690.8862" y="-49.8" font-family="Helvetica,sans-Serif" font-size="11.00" fill="#000000"> &#160;</text>
</a>
</g>
</g>
<!-- VERSIONS_SUPPLEMENTS&#45;&gt;VERSIONS -->
<g id="edge10" class="edge">
<title>VERSIONS_SUPPLEMENTS:w&#45;&gt;VERSIONS:e</title>
<path fill="none" stroke="#000000" d="M492.0352,-119.2084C435.6727,-161.8563 534.298,-492.7 455,-492.7"/>
<polygon fill="#000000" stroke="#000000" points="498.3869,-117.1579 507.106,-118.1259 502.1935,-115.9289 506,-114.7 506,-114.7 506,-114.7 502.1935,-115.9289 504.894,-111.2741 498.3869,-117.1579 498.3869,-117.1579"/>
<ellipse fill="none" stroke="#000000" cx="495.3417" cy="-118.141" rx="3.2" ry="3.2"/>
</g>
<!-- SUPPLEMENTS -->
<g id="node12" class="node">
<title>SUPPLEMENTS</title>
<g id="a_node12"><a xlink:href="../../tables/SUPPLEMENTS.html" xlink:title="SUPPLEMENTS" target="_top">
<polygon fill="#ffffff" stroke="transparent" points="251,-38.2 251,-99.2 375,-99.2 375,-38.2 251,-38.2"/>
<polygon fill="#f5f5f5" stroke="transparent" points="251,-75.7 251,-98.7 375,-98.7 375,-75.7 251,-75.7"/>
<polygon fill="none" stroke="#000000" points="251,-75.7 251,-98.7 375,-98.7 375,-75.7 251,-75.7"/>
<text text-anchor="start" x="255.5531" y="-84.8" font-family="Helvetica,sans-Serif" font-weight="bold" font-size="11.00" fill="#000000">SUPPLEMENTS</text>
<text text-anchor="start" x="340.5219" y="-83.8" font-family="Helvetica,sans-Serif" font-size="11.00" fill="#000000">[table]</text>
<polygon fill="none" stroke="#000000" points="251,-56.7 251,-75.7 375,-75.7 375,-56.7 251,-56.7"/>
<text text-anchor="start" x="254" y="-62.8" font-family="Helvetica,sans-Serif" font-size="11.00" fill="#000000">...</text>
<polygon fill="#ffffff" stroke="transparent" points="251,-37.7 251,-56.7 291,-56.7 291,-37.7 251,-37.7"/>
<polygon fill="none" stroke="#000000" points="251,-37.7 251,-56.7 291,-56.7 291,-37.7 251,-37.7"/>
<text text-anchor="start" x="254" y="-43.8" font-family="Helvetica,sans-Serif" font-size="11.00" fill="#000000">&lt; 1</text>
<polygon fill="#ffffff" stroke="transparent" points="291,-37.7 291,-56.7 344,-56.7 344,-37.7 291,-37.7"/>
<polygon fill="none" stroke="#000000" points="291,-37.7 291,-56.7 344,-56.7 344,-37.7 291,-37.7"/>
<text text-anchor="start" x="302.4956" y="-43.8" font-family="Helvetica,sans-Serif" font-size="11.00" fill="#000000">77 rows</text>
<polygon fill="#ffffff" stroke="transparent" points="344,-37.7 344,-56.7 375,-56.7 375,-37.7 344,-37.7"/>
<polygon fill="none" stroke="#000000" points="344,-37.7 344,-56.7 375,-56.7 375,-37.7 344,-37.7"/>
<text text-anchor="start" x="356.4053" y="-43.8" font-family="Helvetica,sans-Serif" font-size="11.00" fill="#000000">5 &gt;</text>
</a>
</g>
</g>
<!-- VERSIONS_SUPPLEMENTS&#45;&gt;SUPPLEMENTS -->
<g id="edge9" class="edge">
<title>VERSIONS_SUPPLEMENTS:w&#45;&gt;SUPPLEMENTS:e</title>
<path fill="none" stroke="#000000" d="M491.3585,-92.111C444.06,-88.1625 429.2213,-65.7 375,-65.7"/>
<polygon fill="#000000" stroke="#000000" points="498.0065,-92.3784 505.8553,-96.2971 502.0032,-92.5392 506,-92.7 506,-92.7 506,-92.7 502.0032,-92.5392 506.1447,-89.1029 498.0065,-92.3784 498.0065,-92.3784"/>
<ellipse fill="none" stroke="#000000" cx="494.8091" cy="-92.2497" rx="3.2" ry="3.2"/>
</g>
<!-- VERSIONS_TRACERS_TRACER_LIGANDS -->
<g id="node14" class="node">
<title>VERSIONS_TRACERS_TRACER_LIGANDS</title>
<g id="a_node14"><a xlink:href="../../tables/VERSIONS_TRACERS_TRACER_LIGANDS.html" xlink:title="VERSIONS_TRACERS_TRACER_LIGANDS" target="_top">
<polygon fill="#ffffff" stroke="transparent" points="785.5,-573.2 785.5,-634.2 1049.5,-634.2 1049.5,-573.2 785.5,-573.2"/>
<polygon fill="#f5f5f5" stroke="transparent" points="785.5,-610.7 785.5,-633.7 1049.5,-633.7 1049.5,-610.7 785.5,-610.7"/>
<polygon fill="none" stroke="#000000" points="785.5,-610.7 785.5,-633.7 1049.5,-633.7 1049.5,-610.7 785.5,-610.7"/>
<text text-anchor="start" x="790.3846" y="-619.8" font-family="Helvetica,sans-Serif" font-weight="bold" font-size="11.00" fill="#000000">VERSIONS_TRACERS_TRACER_LIGANDS</text>
<text text-anchor="start" x="1015.0219" y="-618.8" font-family="Helvetica,sans-Serif" font-size="11.00" fill="#000000">[table]</text>
<polygon fill="none" stroke="#000000" points="785.5,-591.7 785.5,-610.7 1049.5,-610.7 1049.5,-591.7 785.5,-591.7"/>
<text text-anchor="start" x="788.5" y="-597.8" font-family="Helvetica,sans-Serif" font-size="11.00" fill="#000000">...</text>
<polygon fill="#ffffff" stroke="transparent" points="785.5,-572.7 785.5,-591.7 892.5,-591.7 892.5,-572.7 785.5,-572.7"/>
<polygon fill="none" stroke="#000000" points="785.5,-572.7 785.5,-591.7 892.5,-591.7 892.5,-572.7 785.5,-572.7"/>
<text text-anchor="start" x="788.5" y="-578.8" font-family="Helvetica,sans-Serif" font-size="11.00" fill="#000000">&lt; 2</text>
<polygon fill="#ffffff" stroke="transparent" points="892.5,-572.7 892.5,-591.7 994.5,-591.7 994.5,-572.7 892.5,-572.7"/>
<polygon fill="none" stroke="#000000" points="892.5,-572.7 892.5,-591.7 994.5,-591.7 994.5,-572.7 892.5,-572.7"/>
<text text-anchor="start" x="937.7089" y="-578.8" font-family="Helvetica,sans-Serif" font-size="11.00" fill="#000000">2,328 rows</text>
<polygon fill="#ffffff" stroke="transparent" points="994.5,-572.7 994.5,-591.7 1049.5,-591.7 1049.5,-572.7 994.5,-572.7"/>
<polygon fill="none" stroke="#000000" points="994.5,-572.7 994.5,-591.7 1049.5,-591.7 1049.5,-572.7 994.5,-572.7"/>
<text text-anchor="start" x="1040.3862" y="-578.8" font-family="Helvetica,sans-Serif" font-size="11.00" fill="#000000"> &#160;</text>
</a>
</g>
</g>
<!-- VERSIONS_TRACERS_TRACER_LIGANDS&#45;&gt;VERSIONS_TRACERS -->
<g id="edge13" class="edge">
<title>VERSIONS_TRACERS_TRACER_LIGANDS:w&#45;&gt;VERSIONS_TRACERS:e</title>
<path fill="none" stroke="#000000" d="M770.7601,-602.0641C734.4906,-609.1783 726.0661,-641.7 682,-641.7"/>
<polygon fill="#000000" stroke="#000000" points="777.534,-601.4373 785.8318,-604.2847 781.517,-601.0686 785.5,-600.7 785.5,-600.7 785.5,-600.7 781.517,-601.0686 785.1682,-597.1153 777.534,-601.4373 777.534,-601.4373"/>
<ellipse fill="none" stroke="#000000" cx="774.3477" cy="-601.7322" rx="3.2" ry="3.2"/>
</g>
</g>
</svg>
