<?xml version="1.0" encoding="UTF-8" standalone="no"?>
<!DOCTYPE svg PUBLIC "-//W3C//DTD SVG 1.1//EN"
 "http://www.w3.org/Graphics/SVG/1.1/DTD/svg11.dtd">
<!-- Generated by graphviz version 2.40.1 (20161225.0304)
 -->
<!-- Title: oneDegreeRelationshipsDiagram Pages: 1 -->
<svg width="863pt" height="413pt"
 viewBox="0.00 0.00 863.00 413.20" xmlns="http://www.w3.org/2000/svg" xmlns:xlink="http://www.w3.org/1999/xlink">
<g id="graph0" class="graph" transform="scale(1 1) rotate(0) translate(4 409.2)">
<title>oneDegreeRelationshipsDiagram</title>
<polygon fill="#ffffff" stroke="transparent" points="-4,4 -4,-409.2 859,-409.2 859,4 -4,4"/>
<text text-anchor="middle" x="72.4936" y="-7.3" font-family="Helvetica,sans-Serif" font-size="11.00" fill="#000000">Generated by SchemaSpy</text>
<!-- VERSIONS_PARTS -->
<g id="node1" class="node">
<title>VERSIONS_PARTS</title>
<g id="a_node1"><a xlink:href="../../tables/VERSIONS_PARTS.html" xlink:title="VERSIONS_PARTS" target="_top">
<polygon fill="#ffffff" stroke="transparent" points="170,-106.7 170,-306.7 484,-306.7 484,-106.7 170,-106.7"/>
<polygon fill="#f5f5f5" stroke="transparent" points="172,-281.7 172,-304.7 482,-304.7 482,-281.7 172,-281.7"/>
<polygon fill="none" stroke="#000000" points="172,-281.7 172,-304.7 482,-304.7 482,-281.7 172,-281.7"/>
<text text-anchor="start" x="177" y="-290.8" font-family="Helvetica,sans-Serif" font-weight="bold" font-size="11.00" fill="#000000">VERSIONS_PARTS</text>
<text text-anchor="start" x="447.0437" y="-289.8" font-family="Helvetica,sans-Serif" font-size="11.00" fill="#000000">[table]</text>
<polygon fill="none" stroke="#000000" points="172,-259.7 172,-281.7 311,-281.7 311,-259.7 172,-259.7"/>
<image xlink:href="../../images/primaryKeys.png" width="11px" height="12px" preserveAspectRatio="xMinYMin meet" x="177" y="-276.7"/>
<text text-anchor="start" x="192" y="-266.8" font-family="Helvetica,sans-Serif" font-size="11.00" fill="#000000">ID</text>
<polygon fill="none" stroke="#000000" points="311,-259.7 311,-281.7 482,-281.7 482,-259.7 311,-259.7"/>
<text text-anchor="start" x="314" y="-267.4" font-family="Helvetica,sans-Serif" font-size="11.00" fill="#000000">number[19]</text>
<polygon fill="none" stroke="#000000" points="172,-237.7 172,-259.7 311,-259.7 311,-237.7 172,-237.7"/>
<text text-anchor="start" x="192" y="-244.8" font-family="Helvetica,sans-Serif" font-size="11.00" fill="#000000">CREATED_AT</text>
<polygon fill="none" stroke="#000000" points="311,-237.7 311,-259.7 482,-259.7 482,-237.7 311,-237.7"/>
<text text-anchor="start" x="313.9896" y="-245.4" font-family="Helvetica,sans-Serif" font-size="11.00" fill="#000000">timestamp(6) with time zone[13,6]</text>
<polygon fill="none" stroke="#000000" points="172,-215.7 172,-237.7 311,-237.7 311,-215.7 172,-215.7"/>
<text text-anchor="start" x="192" y="-222.8" font-family="Helvetica,sans-Serif" font-size="11.00" fill="#000000">CREATED_BY</text>
<polygon fill="none" stroke="#000000" points="311,-215.7 311,-237.7 482,-237.7 482,-215.7 311,-215.7"/>
<text text-anchor="start" x="314" y="-223.4" font-family="Helvetica,sans-Serif" font-size="11.00" fill="#000000">number[19]</text>
<polygon fill="none" stroke="#000000" points="172,-193.7 172,-215.7 311,-215.7 311,-193.7 172,-193.7"/>
<text text-anchor="start" x="192" y="-200.8" font-family="Helvetica,sans-Serif" font-size="11.00" fill="#000000">UPDATED_AT</text>
<polygon fill="none" stroke="#000000" points="311,-193.7 311,-215.7 482,-215.7 482,-193.7 311,-193.7"/>
<text text-anchor="start" x="313.9896" y="-201.4" font-family="Helvetica,sans-Serif" font-size="11.00" fill="#000000">timestamp(6) with time zone[13,6]</text>
<polygon fill="none" stroke="#000000" points="172,-171.7 172,-193.7 311,-193.7 311,-171.7 172,-171.7"/>
<text text-anchor="start" x="192" y="-178.8" font-family="Helvetica,sans-Serif" font-size="11.00" fill="#000000">UPDATED_BY</text>
<polygon fill="none" stroke="#000000" points="311,-171.7 311,-193.7 482,-193.7 482,-171.7 311,-171.7"/>
<text text-anchor="start" x="314" y="-179.4" font-family="Helvetica,sans-Serif" font-size="11.00" fill="#000000">number[19]</text>
<polygon fill="none" stroke="#000000" points="172,-149.7 172,-171.7 311,-171.7 311,-149.7 172,-149.7"/>
<image xlink:href="../../images/primaryKeys.png" width="11px" height="12px" preserveAspectRatio="xMinYMin meet" x="177" y="-166.7"/>
<text text-anchor="start" x="192" y="-156.8" font-family="Helvetica,sans-Serif" font-size="11.00" fill="#000000">VERSION_ID</text>
<polygon fill="none" stroke="#000000" points="311,-149.7 311,-171.7 482,-171.7 482,-149.7 311,-149.7"/>
<text text-anchor="start" x="314" y="-157.4" font-family="Helvetica,sans-Serif" font-size="11.00" fill="#000000">number[19]</text>
<polygon fill="none" stroke="#000000" points="172,-127.7 172,-149.7 311,-149.7 311,-127.7 172,-127.7"/>
<image xlink:href="../../images/primaryKeys.png" width="11px" height="12px" preserveAspectRatio="xMinYMin meet" x="177" y="-144.7"/>
<text text-anchor="start" x="192" y="-134.8" font-family="Helvetica,sans-Serif" font-size="11.00" fill="#000000">PART_ID</text>
<polygon fill="none" stroke="#000000" points="311,-127.7 311,-149.7 482,-149.7 482,-127.7 311,-127.7"/>
<text text-anchor="start" x="314" y="-135.4" font-family="Helvetica,sans-Serif" font-size="11.00" fill="#000000">number[19]</text>
<polygon fill="#ffffff" stroke="transparent" points="172,-108.7 172,-127.7 227,-127.7 227,-108.7 172,-108.7"/>
<polygon fill="none" stroke="#000000" points="172,-108.7 172,-127.7 227,-127.7 227,-108.7 172,-108.7"/>
<text text-anchor="start" x="175" y="-114.8" font-family="Helvetica,sans-Serif" font-size="11.00" fill="#000000">&lt; 2</text>
<polygon fill="#ffffff" stroke="transparent" points="227,-108.7 227,-127.7 311,-127.7 311,-108.7 227,-108.7"/>
<polygon fill="none" stroke="#000000" points="227,-108.7 227,-127.7 311,-127.7 311,-108.7 227,-108.7"/>
<text text-anchor="start" x="263.3807" y="-114.8" font-family="Helvetica,sans-Serif" font-size="11.00" fill="#000000">449 rows</text>
<polygon fill="#ffffff" stroke="transparent" points="311,-108.7 311,-127.7 482,-127.7 482,-108.7 311,-108.7"/>
<polygon fill="none" stroke="#000000" points="311,-108.7 311,-127.7 482,-127.7 482,-108.7 311,-108.7"/>
<text text-anchor="start" x="463.4053" y="-114.8" font-family="Helvetica,sans-Serif" font-size="11.00" fill="#000000">2 &gt;</text>
<polygon fill="none" stroke="#000000" stroke-width="2" points="171,-107.7 171,-305.7 483,-305.7 483,-107.7 171,-107.7"/>
</a>
</g>
</g>
<!-- PARTS -->
<g id="node2" class="node">
<title>PARTS</title>
<g id="a_node2"><a xlink:href="../../tables/PARTS.html" xlink:title="PARTS" target="_top">
<polygon fill="#ffffff" stroke="transparent" points="10.5,-38.2 10.5,-121.2 118.5,-121.2 118.5,-38.2 10.5,-38.2"/>
<polygon fill="#f5f5f5" stroke="transparent" points="10.5,-97.7 10.5,-120.7 118.5,-120.7 118.5,-97.7 10.5,-97.7"/>
<polygon fill="none" stroke="#000000" points="10.5,-97.7 10.5,-120.7 118.5,-120.7 118.5,-97.7 10.5,-97.7"/>
<text text-anchor="start" x="15.5" y="-106.8" font-family="Helvetica,sans-Serif" font-weight="bold" font-size="11.00" fill="#000000">PARTS</text>
<text text-anchor="start" x="83.5437" y="-105.8" font-family="Helvetica,sans-Serif" font-size="11.00" fill="#000000">[table]</text>
<polygon fill="none" stroke="#000000" points="10.5,-75.7 10.5,-97.7 118.5,-97.7 118.5,-75.7 10.5,-75.7"/>
<image xlink:href="../../images/primaryKeys.png" width="11px" height="12px" preserveAspectRatio="xMinYMin meet" x="15.5" y="-92.7"/>
<text text-anchor="start" x="30.5" y="-82.8" font-family="Helvetica,sans-Serif" font-size="11.00" fill="#000000">ID</text>
<polygon fill="none" stroke="#000000" points="10.5,-56.7 10.5,-75.7 118.5,-75.7 118.5,-56.7 10.5,-56.7"/>
<text text-anchor="start" x="13.5" y="-62.8" font-family="Helvetica,sans-Serif" font-size="11.00" fill="#000000">...</text>
<polygon fill="#ffffff" stroke="transparent" points="10.5,-37.7 10.5,-56.7 34.5,-56.7 34.5,-37.7 10.5,-37.7"/>
<polygon fill="none" stroke="#000000" points="10.5,-37.7 10.5,-56.7 34.5,-56.7 34.5,-37.7 10.5,-37.7"/>
<text text-anchor="start" x="13.5" y="-43.8" font-family="Helvetica,sans-Serif" font-size="11.00" fill="#000000"> &#160;</text>
<polygon fill="#ffffff" stroke="transparent" points="34.5,-37.7 34.5,-56.7 90.5,-56.7 90.5,-37.7 34.5,-37.7"/>
<polygon fill="none" stroke="#000000" points="34.5,-37.7 34.5,-56.7 90.5,-56.7 90.5,-37.7 34.5,-37.7"/>
<text text-anchor="start" x="42.8807" y="-43.8" font-family="Helvetica,sans-Serif" font-size="11.00" fill="#000000">118 rows</text>
<polygon fill="#ffffff" stroke="transparent" points="90.5,-37.7 90.5,-56.7 118.5,-56.7 118.5,-37.7 90.5,-37.7"/>
<polygon fill="none" stroke="#000000" points="90.5,-37.7 90.5,-56.7 118.5,-56.7 118.5,-37.7 90.5,-37.7"/>
<text text-anchor="start" x="99.9053" y="-43.8" font-family="Helvetica,sans-Serif" font-size="11.00" fill="#000000">1 &gt;</text>
</a>
</g>
</g>
<!-- VERSIONS_PARTS&#45;&gt;PARTS -->
<g id="edge1" class="edge">
<title>VERSIONS_PARTS:w&#45;&gt;PARTS:e</title>
<path fill="none" stroke="#000000" d="M158.0453,-134.2665C141.9631,-121.6915 145.7006,-86.7 118.5,-86.7"/>
<polygon fill="#000000" stroke="#000000" points="164.3755,-136.2776 170.9099,-142.131 168.1878,-137.4888 172,-138.7 172,-138.7 172,-138.7 168.1878,-137.4888 173.0901,-135.269 164.3755,-136.2776 164.3755,-136.2776"/>
<ellipse fill="none" stroke="#000000" cx="161.3258" cy="-135.3087" rx="3.2" ry="3.2"/>
</g>
<!-- VERSIONS -->
<g id="node3" class="node">
<title>VERSIONS</title>
<g id="a_node3"><a xlink:href="../../tables/VERSIONS.html" xlink:title="VERSIONS" target="_top">
<polygon fill="#ffffff" stroke="transparent" points="8,-142.2 8,-247.2 121,-247.2 121,-142.2 8,-142.2"/>
<polygon fill="#f5f5f5" stroke="transparent" points="8.5,-223.7 8.5,-246.7 121.5,-246.7 121.5,-223.7 8.5,-223.7"/>
<polygon fill="none" stroke="#000000" points="8.5,-223.7 8.5,-246.7 121.5,-246.7 121.5,-223.7 8.5,-223.7"/>
<text text-anchor="start" x="13.5" y="-232.8" font-family="Helvetica,sans-Serif" font-weight="bold" font-size="11.00" fill="#000000">VERSIONS</text>
<text text-anchor="start" x="86.5437" y="-231.8" font-family="Helvetica,sans-Serif" font-size="11.00" fill="#000000">[table]</text>
<polygon fill="none" stroke="#000000" points="8.5,-201.7 8.5,-223.7 121.5,-223.7 121.5,-201.7 8.5,-201.7"/>
<image xlink:href="../../images/primaryKeys.png" width="11px" height="12px" preserveAspectRatio="xMinYMin meet" x="13.5" y="-218.7"/>
<text text-anchor="start" x="28.5" y="-208.8" font-family="Helvetica,sans-Serif" font-size="11.00" fill="#000000">ID</text>
<polygon fill="none" stroke="#000000" points="8.5,-179.7 8.5,-201.7 121.5,-201.7 121.5,-179.7 8.5,-179.7"/>
<image xlink:href="../../images/foreignKeys.png" width="11px" height="12px" preserveAspectRatio="xMinYMin meet" x="13.5" y="-196.7"/>
<text text-anchor="start" x="28.5" y="-186.8" font-family="Helvetica,sans-Serif" font-size="11.00" fill="#000000">CAMPAIGN_ID</text>
<polygon fill="none" stroke="#000000" points="8.5,-160.7 8.5,-179.7 121.5,-179.7 121.5,-160.7 8.5,-160.7"/>
<text text-anchor="start" x="11.5" y="-166.8" font-family="Helvetica,sans-Serif" font-size="11.00" fill="#000000">...</text>
<polygon fill="#ffffff" stroke="transparent" points="8.5,-141.7 8.5,-160.7 39.5,-160.7 39.5,-141.7 8.5,-141.7"/>
<polygon fill="none" stroke="#000000" points="8.5,-141.7 8.5,-160.7 39.5,-160.7 39.5,-141.7 8.5,-141.7"/>
<text text-anchor="start" x="11.5" y="-147.8" font-family="Helvetica,sans-Serif" font-size="11.00" fill="#000000">&lt; 1</text>
<polygon fill="#ffffff" stroke="transparent" points="39.5,-141.7 39.5,-160.7 94.5,-160.7 94.5,-141.7 39.5,-141.7"/>
<polygon fill="none" stroke="#000000" points="39.5,-141.7 39.5,-160.7 94.5,-160.7 94.5,-141.7 39.5,-141.7"/>
<text text-anchor="start" x="46.8807" y="-147.8" font-family="Helvetica,sans-Serif" font-size="11.00" fill="#000000">222 rows</text>
<polygon fill="#ffffff" stroke="transparent" points="94.5,-141.7 94.5,-160.7 121.5,-160.7 121.5,-141.7 94.5,-141.7"/>
<polygon fill="none" stroke="#000000" points="94.5,-141.7 94.5,-160.7 121.5,-160.7 121.5,-141.7 94.5,-141.7"/>
<text text-anchor="start" x="102.9053" y="-147.8" font-family="Helvetica,sans-Serif" font-size="11.00" fill="#000000">4 &gt;</text>
</a>
</g>
</g>
<!-- VERSIONS_PARTS&#45;&gt;VERSIONS -->
<g id="edge2" class="edge">
<title>VERSIONS_PARTS:w&#45;&gt;VERSIONS:e</title>
<path fill="none" stroke="#000000" d="M158.1372,-165.4988C143.3861,-178.3719 147.6756,-212.7 121.5,-212.7"/>
<polygon fill="#000000" stroke="#000000" points="164.4401,-163.317 173.1777,-164.1019 168.2201,-162.0085 172,-160.7 172,-160.7 172,-160.7 168.2201,-162.0085 170.8223,-157.2981 164.4401,-163.317 164.4401,-163.317"/>
<ellipse fill="none" stroke="#000000" cx="161.4162" cy="-164.3638" rx="3.2" ry="3.2"/>
</g>
<!-- VERSIONS_PARTS_SCREENING_CONDITIONS -->
<g id="node4" class="node">
<title>VERSIONS_PARTS_SCREENING_CONDITIONS</title>
<g id="a_node4"><a xlink:href="../../tables/VERSIONS_PARTS_SCREENING_CONDITIONS.html" xlink:title="VERSIONS_PARTS_SCREENING_CONDITIONS" target="_top">
<polygon fill="#ffffff" stroke="transparent" points="533,-274.2 533,-401.2 847,-401.2 847,-274.2 533,-274.2"/>
<polygon fill="#f5f5f5" stroke="transparent" points="533,-377.7 533,-400.7 847,-400.7 847,-377.7 533,-377.7"/>
<polygon fill="none" stroke="#000000" points="533,-377.7 533,-400.7 847,-400.7 847,-377.7 533,-377.7"/>
<text text-anchor="start" x="538" y="-386.8" font-family="Helvetica,sans-Serif" font-weight="bold" font-size="11.00" fill="#000000">VERSIONS_PARTS_SCREENING_CONDITIONS</text>
<text text-anchor="start" x="812.0437" y="-385.8" font-family="Helvetica,sans-Serif" font-size="11.00" fill="#000000">[table]</text>
<polygon fill="none" stroke="#000000" points="533,-355.7 533,-377.7 847,-377.7 847,-355.7 533,-355.7"/>
<image xlink:href="../../images/primaryKeys.png" width="11px" height="12px" preserveAspectRatio="xMinYMin meet" x="538" y="-372.7"/>
<text text-anchor="start" x="553" y="-362.8" font-family="Helvetica,sans-Serif" font-size="11.00" fill="#000000">ID</text>
<polygon fill="none" stroke="#000000" points="533,-333.7 533,-355.7 847,-355.7 847,-333.7 533,-333.7"/>
<image xlink:href="../../images/primaryKeys.png" width="11px" height="12px" preserveAspectRatio="xMinYMin meet" x="538" y="-350.7"/>
<text text-anchor="start" x="553" y="-340.8" font-family="Helvetica,sans-Serif" font-size="11.00" fill="#000000">VERSION_PART_ID</text>
<polygon fill="none" stroke="#000000" points="533,-311.7 533,-333.7 847,-333.7 847,-311.7 533,-311.7"/>
<image xlink:href="../../images/primaryKeys.png" width="11px" height="12px" preserveAspectRatio="xMinYMin meet" x="538" y="-328.7"/>
<text text-anchor="start" x="553" y="-318.8" font-family="Helvetica,sans-Serif" font-size="11.00" fill="#000000">SCREENING_CONDITION_ID</text>
<polygon fill="none" stroke="#000000" points="533,-292.7 533,-311.7 847,-311.7 847,-292.7 533,-292.7"/>
<text text-anchor="start" x="536" y="-298.8" font-family="Helvetica,sans-Serif" font-size="11.00" fill="#000000">...</text>
<polygon fill="#ffffff" stroke="transparent" points="533,-273.7 533,-292.7 669,-292.7 669,-273.7 533,-273.7"/>
<polygon fill="none" stroke="#000000" points="533,-273.7 533,-292.7 669,-292.7 669,-273.7 533,-273.7"/>
<text text-anchor="start" x="536" y="-279.8" font-family="Helvetica,sans-Serif" font-size="11.00" fill="#000000">&lt; 2</text>
<polygon fill="#ffffff" stroke="transparent" points="669,-273.7 669,-292.7 777,-292.7 777,-273.7 669,-273.7"/>
<polygon fill="none" stroke="#000000" points="669,-273.7 669,-292.7 777,-292.7 777,-273.7 669,-273.7"/>
<text text-anchor="start" x="729.3807" y="-279.8" font-family="Helvetica,sans-Serif" font-size="11.00" fill="#000000">415 rows</text>
<polygon fill="#ffffff" stroke="transparent" points="777,-273.7 777,-292.7 847,-292.7 847,-273.7 777,-273.7"/>
<polygon fill="none" stroke="#000000" points="777,-273.7 777,-292.7 847,-292.7 847,-273.7 777,-273.7"/>
<text text-anchor="start" x="837.8862" y="-279.8" font-family="Helvetica,sans-Serif" font-size="11.00" fill="#000000"> &#160;</text>
</a>
</g>
</g>
<!-- VERSIONS_PARTS_SCREENING_CONDITIONS&#45;&gt;VERSIONS_PARTS -->
<g id="edge3" class="edge">
<title>VERSIONS_PARTS_SCREENING_CONDITIONS:w&#45;&gt;VERSIONS_PARTS:e</title>
<path fill="none" stroke="#000000" d="M519.0503,-340.071C500.2607,-323.8706 515.8581,-270.7 482,-270.7"/>
<polygon fill="#000000" stroke="#000000" points="525.4071,-342.1804 531.8662,-348.1168 529.2036,-343.4402 533,-344.7 533,-344.7 533,-344.7 529.2036,-343.4402 534.1338,-341.2832 525.4071,-342.1804 525.4071,-342.1804"/>
<ellipse fill="none" stroke="#000000" cx="522.37" cy="-341.1725" rx="3.2" ry="3.2"/>
</g>
<!-- VERSIONS_PARTS_SCREENING_PLANS -->
<g id="node5" class="node">
<title>VERSIONS_PARTS_SCREENING_PLANS</title>
<g id="a_node5"><a xlink:href="../../tables/VERSIONS_PARTS_SCREENING_PLANS.html" xlink:title="VERSIONS_PARTS_SCREENING_PLANS" target="_top">
<polygon fill="#ffffff" stroke="transparent" points="553.5,-126.2 553.5,-253.2 826.5,-253.2 826.5,-126.2 553.5,-126.2"/>
<polygon fill="#f5f5f5" stroke="transparent" points="554,-229.7 554,-252.7 827,-252.7 827,-229.7 554,-229.7"/>
<polygon fill="none" stroke="#000000" points="554,-229.7 554,-252.7 827,-252.7 827,-229.7 554,-229.7"/>
<text text-anchor="start" x="559" y="-238.8" font-family="Helvetica,sans-Serif" font-weight="bold" font-size="11.00" fill="#000000">VERSIONS_PARTS_SCREENING_PLANS</text>
<text text-anchor="start" x="792.0437" y="-237.8" font-family="Helvetica,sans-Serif" font-size="11.00" fill="#000000">[table]</text>
<polygon fill="none" stroke="#000000" points="554,-207.7 554,-229.7 827,-229.7 827,-207.7 554,-207.7"/>
<image xlink:href="../../images/primaryKeys.png" width="11px" height="12px" preserveAspectRatio="xMinYMin meet" x="559" y="-224.7"/>
<text text-anchor="start" x="574" y="-214.8" font-family="Helvetica,sans-Serif" font-size="11.00" fill="#000000">ID</text>
<polygon fill="none" stroke="#000000" points="554,-185.7 554,-207.7 827,-207.7 827,-185.7 554,-185.7"/>
<image xlink:href="../../images/primaryKeys.png" width="11px" height="12px" preserveAspectRatio="xMinYMin meet" x="559" y="-202.7"/>
<text text-anchor="start" x="574" y="-192.8" font-family="Helvetica,sans-Serif" font-size="11.00" fill="#000000">VERSION_PART_ID</text>
<polygon fill="none" stroke="#000000" points="554,-163.7 554,-185.7 827,-185.7 827,-163.7 554,-163.7"/>
<image xlink:href="../../images/primaryKeys.png" width="11px" height="12px" preserveAspectRatio="xMinYMin meet" x="559" y="-180.7"/>
<text text-anchor="start" x="574" y="-170.8" font-family="Helvetica,sans-Serif" font-size="11.00" fill="#000000">SCREENING_PLAN_ID</text>
<polygon fill="none" stroke="#000000" points="554,-144.7 554,-163.7 827,-163.7 827,-144.7 554,-144.7"/>
<text text-anchor="start" x="557" y="-150.8" font-family="Helvetica,sans-Serif" font-size="11.00" fill="#000000">...</text>
<polygon fill="#ffffff" stroke="transparent" points="554,-125.7 554,-144.7 670,-144.7 670,-125.7 554,-125.7"/>
<polygon fill="none" stroke="#000000" points="554,-125.7 554,-144.7 670,-144.7 670,-125.7 554,-125.7"/>
<text text-anchor="start" x="557" y="-131.8" font-family="Helvetica,sans-Serif" font-size="11.00" fill="#000000">&lt; 2</text>
<polygon fill="#ffffff" stroke="transparent" points="670,-125.7 670,-144.7 767,-144.7 767,-125.7 670,-125.7"/>
<polygon fill="none" stroke="#000000" points="670,-125.7 670,-144.7 767,-144.7 767,-125.7 670,-125.7"/>
<text text-anchor="start" x="719.3807" y="-131.8" font-family="Helvetica,sans-Serif" font-size="11.00" fill="#000000">376 rows</text>
<polygon fill="#ffffff" stroke="transparent" points="767,-125.7 767,-144.7 827,-144.7 827,-125.7 767,-125.7"/>
<polygon fill="none" stroke="#000000" points="767,-125.7 767,-144.7 827,-144.7 827,-125.7 767,-125.7"/>
<text text-anchor="start" x="817.8862" y="-131.8" font-family="Helvetica,sans-Serif" font-size="11.00" fill="#000000"> &#160;</text>
</a>
</g>
</g>
<!-- VERSIONS_PARTS_SCREENING_PLANS&#45;&gt;VERSIONS_PARTS -->
<g id="edge4" class="edge">
<title>VERSIONS_PARTS_SCREENING_PLANS:w&#45;&gt;VERSIONS_PARTS:e</title>
<path fill="none" stroke="#000000" d="M539.6136,-199.8797C512.0302,-214.0438 522.1517,-270.7 482,-270.7"/>
<polygon fill="#000000" stroke="#000000" points="546.1885,-198.4265 554.7769,-200.2152 550.0943,-197.5633 554,-196.7 554,-196.7 554,-196.7 550.0943,-197.5633 553.2231,-193.1848 546.1885,-198.4265 546.1885,-198.4265"/>
<ellipse fill="none" stroke="#000000" cx="543.0639" cy="-199.1172" rx="3.2" ry="3.2"/>
</g>
</g>
</svg>
